G75*
G70*
%OFA0B0*%
%FSLAX24Y24*%
%IPPOS*%
%LPD*%
%AMOC8*
5,1,8,0,0,1.08239X$1,22.5*
%
%ADD10C,0.0591*%
%ADD11C,0.0354*%
%ADD12C,0.0886*%
%ADD13C,0.0531*%
%ADD14C,0.0600*%
%ADD15C,0.0180*%
%ADD16C,0.0198*%
%ADD17C,0.0237*%
%ADD18C,0.0100*%
%ADD19C,0.0080*%
D10*
X006658Y009702D03*
X007658Y009702D03*
X008658Y009702D03*
X009658Y009702D03*
X010658Y009702D03*
X011658Y009702D03*
X012658Y009702D03*
X013658Y009702D03*
X014658Y009702D03*
X015658Y009702D03*
X016658Y009702D03*
X017658Y009702D03*
X018658Y009702D03*
X019658Y009702D03*
X026658Y009702D03*
X027658Y009702D03*
X028658Y009702D03*
X029658Y009702D03*
X030658Y009702D03*
X031658Y009702D03*
X032658Y009702D03*
X033658Y009702D03*
X034658Y009702D03*
X035658Y009702D03*
X033658Y011702D03*
X033658Y012702D03*
X033658Y013702D03*
X033664Y013710D03*
X034451Y013710D03*
X035238Y013710D03*
X033658Y014702D03*
X032876Y013710D03*
X032658Y015702D03*
X033658Y015702D03*
X034658Y015702D03*
X035658Y015702D03*
X035658Y016702D03*
X034658Y016702D03*
X033658Y016702D03*
X032658Y016702D03*
X031658Y016702D03*
X030658Y016702D03*
X029658Y016702D03*
X028658Y016702D03*
X027658Y016702D03*
X026658Y016702D03*
X019658Y016702D03*
X018658Y016702D03*
X017658Y016702D03*
X016658Y016702D03*
X015658Y016702D03*
X014658Y016702D03*
X013658Y016702D03*
X012658Y016702D03*
X011658Y016702D03*
X010658Y016702D03*
X009658Y016702D03*
X008658Y016702D03*
X007658Y016702D03*
X006658Y016702D03*
D11*
X006608Y014924D03*
X006608Y014432D03*
X006608Y013940D03*
X006608Y013448D03*
X006608Y012956D03*
X006608Y012464D03*
X006608Y011972D03*
X006608Y011479D03*
X008658Y011702D03*
X009508Y011202D03*
X012108Y012252D03*
X013708Y012277D03*
X015158Y012652D03*
X015608Y012502D03*
X017208Y012652D03*
X019308Y011527D03*
X022583Y012227D03*
X027558Y012302D03*
X028108Y012302D03*
X030208Y012727D03*
X030008Y014502D03*
X031158Y014502D03*
X028708Y014952D03*
X034408Y014452D03*
X016958Y014152D03*
X016158Y014202D03*
X013858Y014802D03*
X012333Y015002D03*
X014908Y010977D03*
D12*
X032679Y012588D03*
X035435Y012588D03*
X035435Y014832D03*
X032679Y014832D03*
D13*
X035158Y011596D03*
X035158Y010808D03*
D14*
X028808Y012352D03*
D15*
X028433Y011527D03*
X027558Y011527D03*
X027183Y012077D03*
X027208Y012352D03*
X026258Y012052D03*
X026158Y012277D03*
X025908Y012252D03*
X025783Y012052D03*
X025558Y012102D03*
X025333Y012177D03*
X025233Y011527D03*
X025783Y011527D03*
X024683Y011627D03*
X024233Y011627D03*
X023833Y011752D03*
X023633Y011902D03*
X023083Y011452D03*
X022833Y011402D03*
X021278Y011762D03*
X021048Y011762D03*
X020158Y012052D03*
X021283Y012402D03*
X021533Y012402D03*
X021458Y012952D03*
X021283Y013127D03*
X021133Y012952D03*
X021033Y013377D03*
X021283Y013977D03*
X021058Y014077D03*
X021783Y013827D03*
X022033Y013827D03*
X022283Y013827D03*
X021958Y013377D03*
X022133Y013202D03*
X021958Y013027D03*
X023408Y013452D03*
X023483Y013227D03*
X023658Y013477D03*
X023658Y013727D03*
X023883Y013827D03*
X024108Y013927D03*
X024333Y014027D03*
X024558Y014077D03*
X024783Y014127D03*
X024933Y014327D03*
X025158Y014052D03*
X025383Y013977D03*
X025733Y013977D03*
X025358Y013602D03*
X024958Y013902D03*
X025658Y014352D03*
X025758Y014577D03*
X025908Y014752D03*
X026133Y014827D03*
X026258Y015052D03*
X027158Y015052D03*
X027308Y014852D03*
X027133Y014677D03*
X027458Y014502D03*
X027658Y014952D03*
X028383Y015577D03*
X026208Y014452D03*
X024083Y014977D03*
X023283Y014977D03*
X022983Y014977D03*
X022733Y014977D03*
X021983Y014477D03*
X021733Y014477D03*
X021468Y014752D03*
X021233Y014752D03*
X020108Y014627D03*
X020133Y013827D03*
X020158Y013002D03*
X017958Y011677D03*
X017958Y011427D03*
X017958Y011077D03*
X017958Y010827D03*
X019033Y010052D03*
X019283Y010052D03*
X020193Y009752D03*
X020583Y009752D03*
X020763Y009592D03*
X020958Y009877D03*
X020758Y010127D03*
X020833Y010352D03*
X020258Y010227D03*
X020183Y010452D03*
X021623Y009552D03*
X021848Y009622D03*
X021998Y009442D03*
X022188Y009642D03*
X022328Y009442D03*
X022558Y009442D03*
X022758Y009562D03*
X022618Y009752D03*
X023058Y009732D03*
X022998Y009442D03*
X023228Y009442D03*
X023458Y009442D03*
X023688Y009442D03*
X023918Y009442D03*
X024398Y009442D03*
X024628Y009442D03*
X024858Y009442D03*
X025088Y009442D03*
X025288Y009647D03*
X025498Y009542D03*
X025828Y009442D03*
X026058Y009442D03*
X024858Y009682D03*
X029408Y010427D03*
X030208Y010677D03*
X030208Y011227D03*
X030083Y012027D03*
X032008Y013302D03*
X032258Y014402D03*
X032083Y014552D03*
X031158Y016452D03*
X027458Y012952D03*
X027208Y012952D03*
X026258Y012727D03*
X024158Y012877D03*
X022958Y016702D03*
X024433Y016957D03*
X014908Y012352D03*
X014458Y012427D03*
X014383Y012202D03*
X013558Y011902D03*
X013058Y012002D03*
X012908Y011302D03*
X013108Y011152D03*
X012908Y011002D03*
X012908Y010702D03*
X013133Y010627D03*
X013383Y010627D03*
X014108Y010752D03*
X014958Y011577D03*
X015708Y010952D03*
X013058Y013252D03*
X011708Y013102D03*
X011358Y012702D03*
X011358Y013702D03*
X011058Y013902D03*
X011358Y014702D03*
X012683Y015102D03*
X012808Y014902D03*
X013308Y014202D03*
X014208Y014252D03*
X014358Y014052D03*
X014383Y015227D03*
X011758Y015452D03*
X009308Y014102D03*
X009008Y013902D03*
X009258Y013252D03*
X009208Y012402D03*
X009558Y011952D03*
X009008Y011902D03*
D16*
X013483Y014002D03*
X020108Y014377D03*
X020183Y013277D03*
X023433Y011262D03*
X024158Y011262D03*
X026118Y009682D03*
X024158Y009442D03*
X021008Y010152D03*
X027283Y011527D03*
X031883Y010527D03*
X034558Y010402D03*
X034908Y010352D03*
X025758Y016952D03*
X025258Y016952D03*
X023608Y017002D03*
X023108Y017052D03*
X022808Y017052D03*
X022308Y016952D03*
X022108Y016752D03*
X021458Y016752D03*
X021458Y016952D03*
X020158Y016627D03*
D17*
X020858Y016552D03*
X020783Y016002D03*
X019833Y014977D03*
X019508Y014502D03*
X019408Y014202D03*
X019708Y013627D03*
X018658Y013102D03*
X018658Y012752D03*
X019708Y011502D03*
X021808Y011322D03*
X022858Y012952D03*
X021508Y013802D03*
X024333Y015077D03*
X026333Y016077D03*
X026658Y016002D03*
X027558Y016002D03*
X030458Y016152D03*
X027858Y013602D03*
X027458Y013602D03*
X027858Y011552D03*
X030258Y010952D03*
X030583Y011577D03*
X032058Y012202D03*
X032058Y012452D03*
X030158Y009952D03*
X029158Y009952D03*
X028158Y009952D03*
X027158Y009952D03*
X020308Y009477D03*
X014108Y011102D03*
X017958Y014152D03*
X018258Y014927D03*
X017658Y014952D03*
X017158Y016502D03*
X018158Y016502D03*
X019158Y016502D03*
X016158Y016452D03*
X015158Y016452D03*
X014158Y016452D03*
X013158Y016452D03*
X012158Y016452D03*
X011158Y016452D03*
D18*
X007019Y009461D02*
X006959Y009402D01*
X007300Y009402D01*
X007264Y009438D01*
X007193Y009609D01*
X007193Y009653D01*
X007609Y009653D01*
X007609Y009750D01*
X007193Y009750D01*
X007193Y009794D01*
X007264Y009965D01*
X007395Y010096D01*
X007566Y010167D01*
X007610Y010167D01*
X007610Y009751D01*
X007707Y009751D01*
X007707Y010167D01*
X007751Y010167D01*
X007922Y010096D01*
X008053Y009965D01*
X008123Y009794D01*
X008123Y009750D01*
X007707Y009750D01*
X007707Y009653D01*
X008123Y009653D01*
X008123Y009609D01*
X008053Y009438D01*
X008016Y009402D01*
X008357Y009402D01*
X008298Y009461D01*
X008233Y009617D01*
X008233Y009786D01*
X008298Y009943D01*
X008417Y010062D01*
X008574Y010127D01*
X008743Y010127D01*
X008899Y010062D01*
X009019Y009943D01*
X009083Y009786D01*
X009083Y009617D01*
X009019Y009461D01*
X008959Y009402D01*
X009357Y009402D01*
X009298Y009461D01*
X009233Y009617D01*
X009233Y009786D01*
X009298Y009943D01*
X009417Y010062D01*
X009574Y010127D01*
X009743Y010127D01*
X009899Y010062D01*
X010019Y009943D01*
X010083Y009786D01*
X010083Y009617D01*
X010019Y009461D01*
X009959Y009402D01*
X010357Y009402D01*
X010298Y009461D01*
X010233Y009617D01*
X010233Y009786D01*
X010298Y009943D01*
X010417Y010062D01*
X010574Y010127D01*
X010743Y010127D01*
X010899Y010062D01*
X011019Y009943D01*
X011083Y009786D01*
X011083Y009617D01*
X011019Y009461D01*
X010959Y009402D01*
X011357Y009402D01*
X011298Y009461D01*
X011233Y009617D01*
X011233Y009786D01*
X011298Y009943D01*
X011417Y010062D01*
X011574Y010127D01*
X011743Y010127D01*
X011899Y010062D01*
X012019Y009943D01*
X012083Y009786D01*
X012083Y009617D01*
X012019Y009461D01*
X011959Y009402D01*
X012357Y009402D01*
X012298Y009461D01*
X012233Y009617D01*
X012233Y009786D01*
X012298Y009943D01*
X012417Y010062D01*
X012574Y010127D01*
X012743Y010127D01*
X012899Y010062D01*
X013019Y009943D01*
X013083Y009786D01*
X013083Y009617D01*
X013019Y009461D01*
X012959Y009402D01*
X013357Y009402D01*
X013298Y009461D01*
X013233Y009617D01*
X013233Y009786D01*
X013298Y009943D01*
X013417Y010062D01*
X013574Y010127D01*
X013743Y010127D01*
X013899Y010062D01*
X014019Y009943D01*
X014083Y009786D01*
X014083Y009617D01*
X014019Y009461D01*
X013959Y009402D01*
X014357Y009402D01*
X014298Y009461D01*
X014233Y009617D01*
X014233Y009786D01*
X014298Y009943D01*
X014417Y010062D01*
X014574Y010127D01*
X014743Y010127D01*
X014899Y010062D01*
X015019Y009943D01*
X015083Y009786D01*
X015083Y009617D01*
X015019Y009461D01*
X014959Y009402D01*
X015357Y009402D01*
X015298Y009461D01*
X015233Y009617D01*
X015233Y009786D01*
X015298Y009943D01*
X015417Y010062D01*
X015574Y010127D01*
X015743Y010127D01*
X015899Y010062D01*
X016019Y009943D01*
X016083Y009786D01*
X016083Y009617D01*
X016019Y009461D01*
X015959Y009402D01*
X016357Y009402D01*
X016298Y009461D01*
X016233Y009617D01*
X016233Y009786D01*
X016298Y009943D01*
X016417Y010062D01*
X016574Y010127D01*
X016743Y010127D01*
X016899Y010062D01*
X017019Y009943D01*
X017083Y009786D01*
X017083Y009617D01*
X017019Y009461D01*
X016959Y009402D01*
X017357Y009402D01*
X017298Y009461D01*
X017233Y009617D01*
X017233Y009786D01*
X017298Y009943D01*
X017417Y010062D01*
X017574Y010127D01*
X017743Y010127D01*
X017899Y010062D01*
X018019Y009943D01*
X018083Y009786D01*
X018083Y009617D01*
X018019Y009461D01*
X017959Y009402D01*
X018357Y009402D01*
X018298Y009461D01*
X018233Y009617D01*
X018233Y009786D01*
X018298Y009943D01*
X018417Y010062D01*
X018574Y010127D01*
X018743Y010127D01*
X018814Y010098D01*
X018847Y010176D01*
X018908Y010238D01*
X018989Y010272D01*
X019077Y010272D01*
X019158Y010238D01*
X019158Y010238D01*
X019158Y010238D01*
X019239Y010272D01*
X019327Y010272D01*
X019408Y010238D01*
X019470Y010176D01*
X019502Y010098D01*
X019574Y010127D01*
X019743Y010127D01*
X019899Y010062D01*
X020019Y009943D01*
X020034Y009904D01*
X020068Y009938D01*
X020149Y009972D01*
X020237Y009972D01*
X020318Y009938D01*
X020380Y009876D01*
X020388Y009856D01*
X020397Y009876D01*
X020458Y009938D01*
X020539Y009972D01*
X020602Y009972D01*
X020572Y010002D01*
X020538Y010083D01*
X020538Y010171D01*
X020572Y010251D01*
X020618Y010297D01*
X020613Y010308D01*
X020613Y010396D01*
X020647Y010476D01*
X020708Y010538D01*
X020789Y010572D01*
X020877Y010572D01*
X020958Y010538D01*
X021020Y010476D01*
X021053Y010396D01*
X021053Y010381D01*
X021054Y010381D01*
X021138Y010346D01*
X021202Y010282D01*
X021237Y010197D01*
X021237Y010106D01*
X021202Y010022D01*
X021155Y009975D01*
X021178Y009921D01*
X021178Y009833D01*
X021145Y009752D01*
X021083Y009690D01*
X021002Y009657D01*
X020974Y009657D01*
X020983Y009636D01*
X020983Y009548D01*
X020950Y009467D01*
X020888Y009405D01*
X020879Y009402D01*
X021462Y009402D01*
X021437Y009427D01*
X021403Y009508D01*
X021403Y009596D01*
X020983Y009596D01*
X020962Y009498D02*
X021407Y009498D01*
X021403Y009596D02*
X021437Y009676D01*
X021498Y009738D01*
X021579Y009772D01*
X021667Y009772D01*
X021681Y009766D01*
X021723Y009808D01*
X021804Y009842D01*
X021892Y009842D01*
X021973Y009808D01*
X022008Y009773D01*
X022063Y009828D01*
X022144Y009862D01*
X022232Y009862D01*
X022313Y009828D01*
X022375Y009766D01*
X022398Y009710D01*
X022398Y009796D01*
X022432Y009876D01*
X022493Y009938D01*
X022574Y009972D01*
X022662Y009972D01*
X022743Y009938D01*
X022805Y009876D01*
X022838Y009796D01*
X022838Y009767D01*
X022838Y009767D01*
X022838Y009776D01*
X022872Y009856D01*
X022933Y009918D01*
X023014Y009952D01*
X023102Y009952D01*
X023183Y009918D01*
X023245Y009856D01*
X023278Y009776D01*
X023278Y009688D01*
X023267Y009662D01*
X023272Y009662D01*
X023343Y009632D01*
X023414Y009662D01*
X023502Y009662D01*
X023573Y009632D01*
X023644Y009662D01*
X023732Y009662D01*
X023803Y009632D01*
X023874Y009662D01*
X023962Y009662D01*
X024027Y009635D01*
X024028Y009636D01*
X024113Y009671D01*
X024204Y009671D01*
X024288Y009636D01*
X024289Y009635D01*
X024354Y009662D01*
X024442Y009662D01*
X024513Y009632D01*
X024584Y009662D01*
X024638Y009662D01*
X024638Y009726D01*
X024672Y009806D01*
X024733Y009868D01*
X024814Y009902D01*
X024902Y009902D01*
X024983Y009868D01*
X025045Y009806D01*
X025078Y009726D01*
X025078Y009715D01*
X025102Y009771D01*
X025163Y009833D01*
X025244Y009867D01*
X025332Y009867D01*
X025413Y009833D01*
X025475Y009771D01*
X025479Y009762D01*
X025542Y009762D01*
X025623Y009728D01*
X025685Y009666D01*
X025701Y009626D01*
X025703Y009628D01*
X025784Y009662D01*
X025872Y009662D01*
X025943Y009632D01*
X026014Y009662D01*
X026102Y009662D01*
X026183Y009628D01*
X026245Y009566D01*
X026278Y009486D01*
X026278Y009402D01*
X026357Y009402D01*
X026298Y009461D01*
X026233Y009617D01*
X026233Y009786D01*
X026298Y009943D01*
X026417Y010062D01*
X026574Y010127D01*
X026743Y010127D01*
X026899Y010062D01*
X027019Y009943D01*
X027083Y009786D01*
X027083Y009617D01*
X027019Y009461D01*
X026959Y009402D01*
X027357Y009402D01*
X027298Y009461D01*
X027233Y009617D01*
X027233Y009786D01*
X027298Y009943D01*
X027417Y010062D01*
X027574Y010127D01*
X027743Y010127D01*
X027899Y010062D01*
X028019Y009943D01*
X028083Y009786D01*
X028083Y009617D01*
X028019Y009461D01*
X027959Y009402D01*
X028357Y009402D01*
X028298Y009461D01*
X028233Y009617D01*
X028233Y009786D01*
X028298Y009943D01*
X028417Y010062D01*
X028574Y010127D01*
X028743Y010127D01*
X028899Y010062D01*
X029019Y009943D01*
X029083Y009786D01*
X029083Y009617D01*
X029019Y009461D01*
X028959Y009402D01*
X029357Y009402D01*
X029298Y009461D01*
X029233Y009617D01*
X029233Y009786D01*
X029298Y009943D01*
X029417Y010062D01*
X029574Y010127D01*
X029743Y010127D01*
X029899Y010062D01*
X030019Y009943D01*
X030083Y009786D01*
X030083Y009617D01*
X030019Y009461D01*
X029959Y009402D01*
X030357Y009402D01*
X030298Y009461D01*
X030233Y009617D01*
X030233Y009786D01*
X030298Y009943D01*
X030417Y010062D01*
X030574Y010127D01*
X030743Y010127D01*
X030899Y010062D01*
X031019Y009943D01*
X031083Y009786D01*
X031083Y009617D01*
X031019Y009461D01*
X030959Y009402D01*
X031357Y009402D01*
X031298Y009461D01*
X031233Y009617D01*
X031233Y009786D01*
X031298Y009943D01*
X031417Y010062D01*
X031574Y010127D01*
X031743Y010127D01*
X031899Y010062D01*
X032019Y009943D01*
X032083Y009786D01*
X032083Y009617D01*
X032019Y009461D01*
X031959Y009402D01*
X032357Y009402D01*
X032298Y009461D01*
X032233Y009617D01*
X032233Y009786D01*
X032298Y009943D01*
X032417Y010062D01*
X032574Y010127D01*
X032743Y010127D01*
X032899Y010062D01*
X033019Y009943D01*
X033083Y009786D01*
X033083Y009617D01*
X033019Y009461D01*
X032959Y009402D01*
X033357Y009402D01*
X033298Y009461D01*
X033233Y009617D01*
X033233Y009786D01*
X033298Y009943D01*
X033417Y010062D01*
X033574Y010127D01*
X033743Y010127D01*
X033899Y010062D01*
X034019Y009943D01*
X034083Y009786D01*
X034083Y009617D01*
X034019Y009461D01*
X033959Y009402D01*
X034357Y009402D01*
X034298Y009461D01*
X034233Y009617D01*
X034233Y009786D01*
X034298Y009943D01*
X034417Y010062D01*
X034574Y010127D01*
X034743Y010127D01*
X034899Y010062D01*
X035019Y009943D01*
X035083Y009786D01*
X035083Y009617D01*
X035019Y009461D01*
X034959Y009402D01*
X035357Y009402D01*
X035298Y009461D01*
X035233Y009617D01*
X035233Y009786D01*
X035298Y009943D01*
X035417Y010062D01*
X035574Y010127D01*
X035743Y010127D01*
X035899Y010062D01*
X035958Y010003D01*
X035958Y012353D01*
X035921Y012264D01*
X035760Y012102D01*
X035549Y012015D01*
X035321Y012015D01*
X035111Y012102D01*
X034950Y012264D01*
X034862Y012474D01*
X034862Y012702D01*
X034950Y012913D01*
X035111Y013074D01*
X035321Y013161D01*
X035549Y013161D01*
X035760Y013074D01*
X035921Y012913D01*
X035958Y012823D01*
X035958Y014597D01*
X035921Y014508D01*
X035760Y014346D01*
X035549Y014259D01*
X035321Y014259D01*
X035111Y014346D01*
X034950Y014508D01*
X034862Y014718D01*
X034862Y014946D01*
X034950Y015157D01*
X035111Y015318D01*
X035321Y015405D01*
X035354Y015405D01*
X035298Y015461D01*
X035233Y015617D01*
X035233Y015786D01*
X035298Y015943D01*
X035417Y016062D01*
X035574Y016127D01*
X035743Y016127D01*
X035899Y016062D01*
X035958Y016003D01*
X035958Y016401D01*
X035899Y016341D01*
X035743Y016277D01*
X035574Y016277D01*
X035417Y016341D01*
X035298Y016461D01*
X035233Y016617D01*
X035233Y016786D01*
X035298Y016943D01*
X035357Y017002D01*
X034959Y017002D01*
X035019Y016943D01*
X035083Y016786D01*
X035083Y016617D01*
X035019Y016461D01*
X034899Y016341D01*
X034743Y016277D01*
X034574Y016277D01*
X034417Y016341D01*
X034298Y016461D01*
X034233Y016617D01*
X034233Y016786D01*
X034298Y016943D01*
X034357Y017002D01*
X033959Y017002D01*
X034019Y016943D01*
X034083Y016786D01*
X034083Y016617D01*
X034019Y016461D01*
X033899Y016341D01*
X033743Y016277D01*
X033574Y016277D01*
X033417Y016341D01*
X033298Y016461D01*
X033233Y016617D01*
X033233Y016786D01*
X033298Y016943D01*
X033357Y017002D01*
X032959Y017002D01*
X033019Y016943D01*
X033083Y016786D01*
X033083Y016617D01*
X033019Y016461D01*
X032899Y016341D01*
X032743Y016277D01*
X032574Y016277D01*
X032417Y016341D01*
X032298Y016461D01*
X032233Y016617D01*
X032233Y016786D01*
X032298Y016943D01*
X032357Y017002D01*
X031959Y017002D01*
X032019Y016943D01*
X032083Y016786D01*
X032083Y016617D01*
X032019Y016461D01*
X031899Y016341D01*
X031743Y016277D01*
X031574Y016277D01*
X031417Y016341D01*
X031370Y016389D01*
X031345Y016327D01*
X031283Y016265D01*
X031202Y016232D01*
X031114Y016232D01*
X031033Y016265D01*
X030972Y016327D01*
X030946Y016389D01*
X030899Y016341D01*
X030743Y016277D01*
X030574Y016277D01*
X030417Y016341D01*
X030298Y016461D01*
X030233Y016617D01*
X030233Y016786D01*
X030298Y016943D01*
X030357Y017002D01*
X029959Y017002D01*
X030019Y016943D01*
X030083Y016786D01*
X030083Y016617D01*
X030019Y016461D01*
X029899Y016341D01*
X029743Y016277D01*
X029574Y016277D01*
X029417Y016341D01*
X029298Y016461D01*
X029233Y016617D01*
X029233Y016786D01*
X029298Y016943D01*
X029357Y017002D01*
X028959Y017002D01*
X029019Y016943D01*
X029083Y016786D01*
X029083Y016617D01*
X029019Y016461D01*
X028899Y016341D01*
X028743Y016277D01*
X028574Y016277D01*
X028417Y016341D01*
X028298Y016461D01*
X028233Y016617D01*
X028233Y016786D01*
X028298Y016943D01*
X028357Y017002D01*
X027959Y017002D01*
X028019Y016943D01*
X028083Y016786D01*
X028083Y016617D01*
X028019Y016461D01*
X027899Y016341D01*
X027743Y016277D01*
X027574Y016277D01*
X027417Y016341D01*
X027298Y016461D01*
X027233Y016617D01*
X027233Y016786D01*
X027298Y016943D01*
X027357Y017002D01*
X026959Y017002D01*
X027019Y016943D01*
X027083Y016786D01*
X027083Y016617D01*
X027019Y016461D01*
X026899Y016341D01*
X026743Y016277D01*
X026574Y016277D01*
X026417Y016341D01*
X026298Y016461D01*
X026233Y016617D01*
X026233Y016786D01*
X026298Y016943D01*
X026357Y017002D01*
X025985Y017002D01*
X025987Y016997D01*
X025987Y016906D01*
X025952Y016822D01*
X025888Y016758D01*
X025804Y016723D01*
X025713Y016723D01*
X025628Y016758D01*
X025564Y016822D01*
X025529Y016906D01*
X025529Y016997D01*
X025531Y017002D01*
X025485Y017002D01*
X025487Y016997D01*
X025487Y016906D01*
X025452Y016822D01*
X025388Y016758D01*
X025304Y016723D01*
X025213Y016723D01*
X025128Y016758D01*
X025064Y016822D01*
X025029Y016906D01*
X025029Y016997D01*
X025031Y017002D01*
X024653Y017002D01*
X024653Y017001D01*
X024653Y016913D01*
X024620Y016832D01*
X024558Y016770D01*
X024477Y016737D01*
X024389Y016737D01*
X024308Y016770D01*
X024247Y016832D01*
X024213Y016913D01*
X024213Y017001D01*
X024214Y017002D01*
X021685Y017002D01*
X021687Y016997D01*
X021687Y016906D01*
X021665Y016852D01*
X021687Y016797D01*
X021687Y016706D01*
X021652Y016622D01*
X021588Y016558D01*
X021504Y016523D01*
X021413Y016523D01*
X021328Y016558D01*
X021264Y016622D01*
X021229Y016706D01*
X021229Y016797D01*
X021252Y016852D01*
X021229Y016906D01*
X021229Y016997D01*
X021231Y017002D01*
X019959Y017002D01*
X020019Y016943D01*
X020063Y016835D01*
X020113Y016856D01*
X020204Y016856D01*
X020288Y016821D01*
X020352Y016757D01*
X020387Y016672D01*
X020387Y016581D01*
X020352Y016497D01*
X020288Y016433D01*
X020204Y016398D01*
X020113Y016398D01*
X020028Y016433D01*
X020009Y016452D01*
X019899Y016341D01*
X019743Y016277D01*
X019574Y016277D01*
X019417Y016341D01*
X019298Y016461D01*
X019233Y016617D01*
X019233Y016786D01*
X019298Y016943D01*
X019357Y017002D01*
X018959Y017002D01*
X019019Y016943D01*
X019083Y016786D01*
X019083Y016617D01*
X019019Y016461D01*
X018899Y016341D01*
X018743Y016277D01*
X018574Y016277D01*
X018417Y016341D01*
X018298Y016461D01*
X018233Y016617D01*
X018233Y016786D01*
X018298Y016943D01*
X018357Y017002D01*
X017959Y017002D01*
X018019Y016943D01*
X018083Y016786D01*
X018083Y016617D01*
X018019Y016461D01*
X017899Y016341D01*
X017743Y016277D01*
X017574Y016277D01*
X017417Y016341D01*
X017298Y016461D01*
X017233Y016617D01*
X017233Y016786D01*
X017298Y016943D01*
X017357Y017002D01*
X016959Y017002D01*
X017019Y016943D01*
X017083Y016786D01*
X017083Y016617D01*
X017019Y016461D01*
X016899Y016341D01*
X016743Y016277D01*
X016574Y016277D01*
X016417Y016341D01*
X016298Y016461D01*
X016233Y016617D01*
X016233Y016786D01*
X016298Y016943D01*
X016357Y017002D01*
X015959Y017002D01*
X016019Y016943D01*
X016083Y016786D01*
X016083Y016617D01*
X016019Y016461D01*
X015899Y016341D01*
X015743Y016277D01*
X015574Y016277D01*
X015417Y016341D01*
X015298Y016461D01*
X015233Y016617D01*
X015233Y016786D01*
X015298Y016943D01*
X015357Y017002D01*
X014959Y017002D01*
X015019Y016943D01*
X015083Y016786D01*
X015083Y016617D01*
X015019Y016461D01*
X014899Y016341D01*
X014743Y016277D01*
X014574Y016277D01*
X014417Y016341D01*
X014298Y016461D01*
X014233Y016617D01*
X014233Y016786D01*
X014298Y016943D01*
X014357Y017002D01*
X013959Y017002D01*
X014019Y016943D01*
X014083Y016786D01*
X014083Y016617D01*
X014019Y016461D01*
X013899Y016341D01*
X013743Y016277D01*
X013574Y016277D01*
X013417Y016341D01*
X013298Y016461D01*
X013233Y016617D01*
X013233Y016786D01*
X013298Y016943D01*
X013357Y017002D01*
X012959Y017002D01*
X013019Y016943D01*
X013083Y016786D01*
X013083Y016617D01*
X013019Y016461D01*
X012899Y016341D01*
X012743Y016277D01*
X012574Y016277D01*
X012417Y016341D01*
X012298Y016461D01*
X012233Y016617D01*
X012233Y016786D01*
X012298Y016943D01*
X012357Y017002D01*
X011959Y017002D01*
X012019Y016943D01*
X012083Y016786D01*
X012083Y016617D01*
X012019Y016461D01*
X011899Y016341D01*
X011743Y016277D01*
X011574Y016277D01*
X011417Y016341D01*
X011298Y016461D01*
X011233Y016617D01*
X011233Y016786D01*
X011298Y016943D01*
X011357Y017002D01*
X010959Y017002D01*
X011019Y016943D01*
X011083Y016786D01*
X011083Y016617D01*
X011019Y016461D01*
X010899Y016341D01*
X010743Y016277D01*
X010574Y016277D01*
X010417Y016341D01*
X010298Y016461D01*
X010233Y016617D01*
X010233Y016786D01*
X010298Y016943D01*
X010357Y017002D01*
X009959Y017002D01*
X010019Y016943D01*
X010083Y016786D01*
X010083Y016617D01*
X010019Y016461D01*
X009899Y016341D01*
X009743Y016277D01*
X009574Y016277D01*
X009417Y016341D01*
X009298Y016461D01*
X009233Y016617D01*
X009233Y016786D01*
X009298Y016943D01*
X009357Y017002D01*
X008959Y017002D01*
X009019Y016943D01*
X009083Y016786D01*
X009083Y016617D01*
X009019Y016461D01*
X008899Y016341D01*
X008743Y016277D01*
X008574Y016277D01*
X008417Y016341D01*
X008298Y016461D01*
X008233Y016617D01*
X008233Y016786D01*
X008298Y016943D01*
X008357Y017002D01*
X008016Y017002D01*
X008053Y016965D01*
X008123Y016794D01*
X008123Y016750D01*
X007707Y016750D01*
X007707Y016653D01*
X008123Y016653D01*
X008123Y016609D01*
X008053Y016438D01*
X007922Y016307D01*
X007751Y016237D01*
X007707Y016237D01*
X007707Y016653D01*
X007610Y016653D01*
X007610Y016237D01*
X007566Y016237D01*
X007395Y016307D01*
X007264Y016438D01*
X007193Y016609D01*
X007193Y016653D01*
X007609Y016653D01*
X007609Y016750D01*
X007193Y016750D01*
X007193Y016794D01*
X007264Y016965D01*
X007300Y017002D01*
X006959Y017002D01*
X007019Y016943D01*
X007083Y016786D01*
X007083Y016617D01*
X007019Y016461D01*
X006899Y016341D01*
X006743Y016277D01*
X006574Y016277D01*
X006417Y016341D01*
X006358Y016401D01*
X006358Y015109D01*
X006434Y015185D01*
X006547Y015231D01*
X006669Y015231D01*
X006782Y015185D01*
X006868Y015098D01*
X006915Y014985D01*
X006915Y014863D01*
X006868Y014750D01*
X006796Y014678D01*
X006868Y014606D01*
X006915Y014493D01*
X006915Y014371D01*
X006868Y014258D01*
X006796Y014186D01*
X006868Y014114D01*
X006915Y014001D01*
X006915Y013879D01*
X006868Y013766D01*
X006796Y013694D01*
X006868Y013622D01*
X006915Y013509D01*
X006915Y013387D01*
X006868Y013274D01*
X006796Y013202D01*
X006868Y013130D01*
X006915Y013017D01*
X006915Y012895D01*
X006868Y012782D01*
X006825Y012738D01*
X006902Y012660D01*
X006955Y012533D01*
X006955Y012473D01*
X006617Y012473D01*
X006617Y012455D01*
X006955Y012455D01*
X006955Y012395D01*
X006902Y012267D01*
X006825Y012189D01*
X006868Y012146D01*
X006915Y012033D01*
X006915Y011910D01*
X006868Y011798D01*
X006796Y011726D01*
X006868Y011653D01*
X006915Y011541D01*
X006915Y011418D01*
X006868Y011305D01*
X006782Y011219D01*
X006669Y011172D01*
X006547Y011172D01*
X006434Y011219D01*
X006358Y011295D01*
X006358Y010003D01*
X006417Y010062D01*
X006574Y010127D01*
X006743Y010127D01*
X006899Y010062D01*
X007019Y009943D01*
X007083Y009786D01*
X007083Y009617D01*
X007019Y009461D01*
X007034Y009498D02*
X007239Y009498D01*
X007198Y009596D02*
X007075Y009596D01*
X007083Y009695D02*
X007609Y009695D01*
X007707Y009695D02*
X008233Y009695D01*
X008236Y009793D02*
X008123Y009793D01*
X008083Y009892D02*
X008276Y009892D01*
X008345Y009990D02*
X008028Y009990D01*
X007929Y010089D02*
X008481Y010089D01*
X008835Y010089D02*
X009481Y010089D01*
X009345Y009990D02*
X008971Y009990D01*
X009040Y009892D02*
X009276Y009892D01*
X009236Y009793D02*
X009081Y009793D01*
X009083Y009695D02*
X009233Y009695D01*
X009242Y009596D02*
X009075Y009596D01*
X009034Y009498D02*
X009282Y009498D01*
X010034Y009498D02*
X010282Y009498D01*
X010242Y009596D02*
X010075Y009596D01*
X010083Y009695D02*
X010233Y009695D01*
X010236Y009793D02*
X010081Y009793D01*
X010040Y009892D02*
X010276Y009892D01*
X010345Y009990D02*
X009971Y009990D01*
X009835Y010089D02*
X010481Y010089D01*
X010835Y010089D02*
X011481Y010089D01*
X011345Y009990D02*
X010971Y009990D01*
X011040Y009892D02*
X011276Y009892D01*
X011236Y009793D02*
X011081Y009793D01*
X011083Y009695D02*
X011233Y009695D01*
X011242Y009596D02*
X011075Y009596D01*
X011034Y009498D02*
X011282Y009498D01*
X012034Y009498D02*
X012282Y009498D01*
X012242Y009596D02*
X012075Y009596D01*
X012083Y009695D02*
X012233Y009695D01*
X012236Y009793D02*
X012081Y009793D01*
X012040Y009892D02*
X012276Y009892D01*
X012345Y009990D02*
X011971Y009990D01*
X011835Y010089D02*
X012481Y010089D01*
X012835Y010089D02*
X013481Y010089D01*
X013345Y009990D02*
X012971Y009990D01*
X013040Y009892D02*
X013276Y009892D01*
X013236Y009793D02*
X013081Y009793D01*
X013083Y009695D02*
X013233Y009695D01*
X013242Y009596D02*
X013075Y009596D01*
X013034Y009498D02*
X013282Y009498D01*
X014034Y009498D02*
X014282Y009498D01*
X014242Y009596D02*
X014075Y009596D01*
X014083Y009695D02*
X014233Y009695D01*
X014236Y009793D02*
X014081Y009793D01*
X014040Y009892D02*
X014276Y009892D01*
X014345Y009990D02*
X013971Y009990D01*
X013835Y010089D02*
X014481Y010089D01*
X014835Y010089D02*
X015481Y010089D01*
X015345Y009990D02*
X014971Y009990D01*
X015040Y009892D02*
X015276Y009892D01*
X015236Y009793D02*
X015081Y009793D01*
X015083Y009695D02*
X015233Y009695D01*
X015242Y009596D02*
X015075Y009596D01*
X015034Y009498D02*
X015282Y009498D01*
X016034Y009498D02*
X016282Y009498D01*
X016242Y009596D02*
X016075Y009596D01*
X016083Y009695D02*
X016233Y009695D01*
X016236Y009793D02*
X016081Y009793D01*
X016040Y009892D02*
X016276Y009892D01*
X016345Y009990D02*
X015971Y009990D01*
X015835Y010089D02*
X016481Y010089D01*
X016835Y010089D02*
X017481Y010089D01*
X017345Y009990D02*
X016971Y009990D01*
X017040Y009892D02*
X017276Y009892D01*
X017236Y009793D02*
X017081Y009793D01*
X017083Y009695D02*
X017233Y009695D01*
X017242Y009596D02*
X017075Y009596D01*
X017034Y009498D02*
X017282Y009498D01*
X018034Y009498D02*
X018282Y009498D01*
X018242Y009596D02*
X018075Y009596D01*
X018083Y009695D02*
X018233Y009695D01*
X018236Y009793D02*
X018081Y009793D01*
X018040Y009892D02*
X018276Y009892D01*
X018345Y009990D02*
X017971Y009990D01*
X017835Y010089D02*
X018481Y010089D01*
X018857Y010187D02*
X006358Y010187D01*
X006358Y010089D02*
X006481Y010089D01*
X006358Y010286D02*
X020038Y010286D01*
X020043Y010281D02*
X020038Y010271D01*
X020038Y010183D01*
X020072Y010102D01*
X020133Y010040D01*
X020214Y010007D01*
X020302Y010007D01*
X020383Y010040D01*
X020445Y010102D01*
X020478Y010183D01*
X020478Y010271D01*
X020445Y010351D01*
X020399Y010397D01*
X020403Y010408D01*
X020403Y010496D01*
X020370Y010576D01*
X020308Y010638D01*
X020227Y010672D01*
X020139Y010672D01*
X020058Y010638D01*
X019997Y010576D01*
X019963Y010496D01*
X019963Y010408D01*
X019997Y010327D01*
X020043Y010281D01*
X020038Y010187D02*
X019459Y010187D01*
X019835Y010089D02*
X020085Y010089D01*
X019971Y009990D02*
X020584Y009990D01*
X020538Y010089D02*
X020431Y010089D01*
X020478Y010187D02*
X020545Y010187D01*
X020606Y010286D02*
X020472Y010286D01*
X020412Y010384D02*
X020613Y010384D01*
X020653Y010483D02*
X020403Y010483D01*
X020365Y010581D02*
X029252Y010581D01*
X029222Y010551D02*
X029188Y010471D01*
X029188Y010383D01*
X029222Y010302D01*
X029283Y010240D01*
X029364Y010207D01*
X029452Y010207D01*
X029533Y010240D01*
X029570Y010278D01*
X029645Y010204D01*
X029751Y010160D01*
X029865Y010160D01*
X029971Y010204D01*
X030052Y010285D01*
X030096Y010390D01*
X030096Y010485D01*
X030164Y010457D01*
X030252Y010457D01*
X030333Y010490D01*
X030395Y010552D01*
X030428Y010633D01*
X030428Y010721D01*
X030414Y010756D01*
X030469Y010811D01*
X030507Y010902D01*
X030507Y011001D01*
X030469Y011093D01*
X030414Y011148D01*
X030428Y011183D01*
X030428Y011271D01*
X034866Y011271D01*
X034911Y011226D02*
X035022Y011180D01*
X034934Y011144D01*
X034823Y011032D01*
X034762Y010887D01*
X034762Y010729D01*
X034823Y010584D01*
X034837Y010570D01*
X034778Y010546D01*
X034756Y010523D01*
X034752Y010532D01*
X034688Y010596D01*
X034604Y010631D01*
X034513Y010631D01*
X034428Y010596D01*
X034364Y010532D01*
X034329Y010447D01*
X034329Y010356D01*
X034364Y010272D01*
X034428Y010208D01*
X034513Y010173D01*
X034604Y010173D01*
X034688Y010208D01*
X034711Y010230D01*
X034714Y010222D01*
X034778Y010158D01*
X034863Y010123D01*
X034954Y010123D01*
X035038Y010158D01*
X035102Y010222D01*
X035137Y010306D01*
X035137Y010397D01*
X035131Y010412D01*
X035237Y010412D01*
X035382Y010473D01*
X035494Y010584D01*
X035554Y010729D01*
X035554Y010887D01*
X035494Y011032D01*
X035382Y011144D01*
X035294Y011180D01*
X035405Y011226D01*
X035527Y011349D01*
X035594Y011509D01*
X035594Y011557D01*
X035197Y011557D01*
X035197Y011634D01*
X035594Y011634D01*
X035594Y011682D01*
X035527Y011842D01*
X035405Y011965D01*
X035245Y012031D01*
X035197Y012031D01*
X035197Y011634D01*
X035119Y011634D01*
X035119Y011557D01*
X034722Y011557D01*
X034722Y011509D01*
X034789Y011349D01*
X034911Y011226D01*
X035004Y011173D02*
X030424Y011173D01*
X030428Y011271D02*
X030395Y011351D01*
X030333Y011413D01*
X030252Y011447D01*
X030164Y011447D01*
X030083Y011413D01*
X030022Y011351D01*
X030021Y011350D01*
X029971Y011400D01*
X029865Y011444D01*
X029751Y011444D01*
X029645Y011400D01*
X029564Y011319D01*
X029520Y011213D01*
X029520Y011099D01*
X029564Y010993D01*
X029645Y010912D01*
X029751Y010868D01*
X029865Y010868D01*
X029971Y010912D01*
X030009Y010951D01*
X030009Y010902D01*
X030043Y010822D01*
X030022Y010801D01*
X029988Y010721D01*
X029988Y010674D01*
X029971Y010691D01*
X029865Y010735D01*
X029751Y010735D01*
X029645Y010691D01*
X029564Y010611D01*
X029556Y010590D01*
X029533Y010613D01*
X029452Y010647D01*
X029364Y010647D01*
X029283Y010613D01*
X029222Y010551D01*
X029193Y010483D02*
X021013Y010483D01*
X021053Y010384D02*
X029188Y010384D01*
X029238Y010286D02*
X021198Y010286D01*
X021237Y010187D02*
X029684Y010187D01*
X029835Y010089D02*
X030481Y010089D01*
X030345Y009990D02*
X029971Y009990D01*
X030040Y009892D02*
X030276Y009892D01*
X030236Y009793D02*
X030081Y009793D01*
X030083Y009695D02*
X030233Y009695D01*
X030242Y009596D02*
X030075Y009596D01*
X030034Y009498D02*
X030282Y009498D01*
X031034Y009498D02*
X031282Y009498D01*
X031242Y009596D02*
X031075Y009596D01*
X031083Y009695D02*
X031233Y009695D01*
X031236Y009793D02*
X031081Y009793D01*
X031040Y009892D02*
X031276Y009892D01*
X031345Y009990D02*
X030971Y009990D01*
X030835Y010089D02*
X031481Y010089D01*
X031835Y010089D02*
X032481Y010089D01*
X032345Y009990D02*
X031971Y009990D01*
X032040Y009892D02*
X032276Y009892D01*
X032236Y009793D02*
X032081Y009793D01*
X032083Y009695D02*
X032233Y009695D01*
X032242Y009596D02*
X032075Y009596D01*
X032034Y009498D02*
X032282Y009498D01*
X033034Y009498D02*
X033282Y009498D01*
X033242Y009596D02*
X033075Y009596D01*
X033083Y009695D02*
X033233Y009695D01*
X033236Y009793D02*
X033081Y009793D01*
X033040Y009892D02*
X033276Y009892D01*
X033345Y009990D02*
X032971Y009990D01*
X032835Y010089D02*
X033481Y010089D01*
X033835Y010089D02*
X034481Y010089D01*
X034478Y010187D02*
X029932Y010187D01*
X030053Y010286D02*
X034358Y010286D01*
X034329Y010384D02*
X030093Y010384D01*
X030096Y010483D02*
X030101Y010483D01*
X030315Y010483D02*
X034344Y010483D01*
X034414Y010581D02*
X030407Y010581D01*
X030428Y010680D02*
X034783Y010680D01*
X034762Y010779D02*
X030436Y010779D01*
X030496Y010877D02*
X034762Y010877D01*
X034799Y010976D02*
X030507Y010976D01*
X030477Y011074D02*
X034864Y011074D01*
X034780Y011370D02*
X033927Y011370D01*
X033899Y011341D02*
X034019Y011461D01*
X034083Y011617D01*
X034083Y011786D01*
X034019Y011943D01*
X033899Y012062D01*
X033743Y012127D01*
X033574Y012127D01*
X033417Y012062D01*
X033298Y011943D01*
X033233Y011786D01*
X033233Y011617D01*
X033298Y011461D01*
X033417Y011341D01*
X033574Y011277D01*
X033743Y011277D01*
X033899Y011341D01*
X034022Y011468D02*
X034739Y011468D01*
X034722Y011634D02*
X035119Y011634D01*
X035119Y012031D01*
X035071Y012031D01*
X034911Y011965D01*
X034789Y011842D01*
X034722Y011682D01*
X034722Y011634D01*
X034722Y011665D02*
X034083Y011665D01*
X034083Y011764D02*
X034756Y011764D01*
X034809Y011863D02*
X034052Y011863D01*
X034000Y011961D02*
X034907Y011961D01*
X035119Y011961D02*
X035197Y011961D01*
X035197Y011863D02*
X035119Y011863D01*
X035119Y011764D02*
X035197Y011764D01*
X035197Y011665D02*
X035119Y011665D01*
X035119Y011567D02*
X034062Y011567D01*
X033902Y012060D02*
X035214Y012060D01*
X035055Y012158D02*
X033060Y012158D01*
X033004Y012102D02*
X033165Y012264D01*
X033252Y012474D01*
X033252Y012570D01*
X033298Y012461D01*
X033417Y012341D01*
X033574Y012277D01*
X033743Y012277D01*
X033899Y012341D01*
X034019Y012461D01*
X034083Y012617D01*
X034083Y012786D01*
X034019Y012943D01*
X033899Y013062D01*
X033743Y013127D01*
X033574Y013127D01*
X033417Y013062D01*
X033298Y012943D01*
X033233Y012786D01*
X033233Y012749D01*
X033165Y012913D01*
X033004Y013074D01*
X032793Y013161D01*
X032565Y013161D01*
X032355Y013074D01*
X032194Y012913D01*
X032106Y012702D01*
X032106Y012701D01*
X032009Y012701D01*
X031917Y012663D01*
X031847Y012593D01*
X031809Y012501D01*
X031809Y012402D01*
X031841Y012327D01*
X031809Y012251D01*
X031809Y012152D01*
X031847Y012061D01*
X031917Y011991D01*
X032009Y011953D01*
X032108Y011953D01*
X032199Y011991D01*
X032269Y012061D01*
X032306Y012151D01*
X032355Y012102D01*
X032565Y012015D01*
X032793Y012015D01*
X033004Y012102D01*
X032901Y012060D02*
X033414Y012060D01*
X033316Y011961D02*
X032127Y011961D01*
X031989Y011961D02*
X030294Y011961D01*
X030303Y011983D02*
X030303Y012071D01*
X030270Y012151D01*
X030208Y012213D01*
X030127Y012247D01*
X030039Y012247D01*
X029958Y012213D01*
X029897Y012151D01*
X029863Y012071D01*
X029863Y011983D01*
X029897Y011902D01*
X029958Y011840D01*
X030039Y011807D01*
X030127Y011807D01*
X030208Y011840D01*
X030270Y011902D01*
X030303Y011983D01*
X030303Y012060D02*
X031849Y012060D01*
X031809Y012158D02*
X030263Y012158D01*
X029903Y012158D02*
X029193Y012158D01*
X029173Y012108D02*
X029238Y012266D01*
X029238Y012437D01*
X029173Y012595D01*
X029052Y012716D01*
X028894Y012782D01*
X028723Y012782D01*
X028565Y012716D01*
X028444Y012595D01*
X028378Y012437D01*
X028378Y012266D01*
X028444Y012108D01*
X028565Y011987D01*
X028723Y011922D01*
X028894Y011922D01*
X029052Y011987D01*
X029173Y012108D01*
X029124Y012060D02*
X029863Y012060D01*
X029872Y011961D02*
X028988Y011961D01*
X028628Y011961D02*
X027373Y011961D01*
X027370Y011952D02*
X027403Y012033D01*
X027403Y012034D01*
X027497Y011995D01*
X027619Y011995D01*
X027732Y012041D01*
X027818Y012128D01*
X027865Y012241D01*
X027865Y012363D01*
X027818Y012476D01*
X027732Y012562D01*
X027619Y012609D01*
X027497Y012609D01*
X027384Y012562D01*
X027346Y012525D01*
X027333Y012538D01*
X027252Y012572D01*
X027164Y012572D01*
X027083Y012538D01*
X027022Y012476D01*
X026988Y012396D01*
X026988Y012308D01*
X027022Y012227D01*
X026997Y012201D01*
X026963Y012121D01*
X026963Y012033D01*
X026997Y011952D01*
X027058Y011890D01*
X027139Y011857D01*
X027227Y011857D01*
X027308Y011890D01*
X027370Y011952D01*
X027241Y011863D02*
X029936Y011863D01*
X030230Y011863D02*
X033264Y011863D01*
X033233Y011764D02*
X027996Y011764D01*
X027999Y011763D02*
X027908Y011801D01*
X027809Y011801D01*
X027717Y011763D01*
X027672Y011718D01*
X027602Y011747D01*
X027514Y011747D01*
X027433Y011713D01*
X027372Y011651D01*
X027338Y011571D01*
X027338Y011483D01*
X027372Y011402D01*
X027433Y011340D01*
X027514Y011307D01*
X027602Y011307D01*
X027683Y011340D01*
X027700Y011358D01*
X027717Y011341D01*
X027809Y011303D01*
X027908Y011303D01*
X027999Y011341D01*
X028069Y011411D01*
X028107Y011502D01*
X028107Y011601D01*
X028069Y011693D01*
X027999Y011763D01*
X028080Y011665D02*
X028261Y011665D01*
X028247Y011651D02*
X028213Y011571D01*
X028213Y011483D01*
X028247Y011402D01*
X028308Y011340D01*
X028389Y011307D01*
X028477Y011307D01*
X028558Y011340D01*
X028620Y011402D01*
X028653Y011483D01*
X028653Y011571D01*
X028620Y011651D01*
X028558Y011713D01*
X028477Y011747D01*
X028389Y011747D01*
X028308Y011713D01*
X028247Y011651D01*
X028213Y011567D02*
X028107Y011567D01*
X028093Y011468D02*
X028219Y011468D01*
X028279Y011370D02*
X028028Y011370D01*
X028587Y011370D02*
X029615Y011370D01*
X029544Y011271D02*
X024387Y011271D01*
X024387Y011307D02*
X024352Y011392D01*
X024319Y011425D01*
X024358Y011440D01*
X024420Y011502D01*
X024453Y011583D01*
X024453Y011671D01*
X024420Y011751D01*
X024358Y011813D01*
X024277Y011847D01*
X024189Y011847D01*
X024108Y011813D01*
X024053Y011758D01*
X024053Y011796D01*
X024020Y011876D01*
X023958Y011938D01*
X023877Y011972D01*
X023842Y011972D01*
X023820Y012026D01*
X023758Y012088D01*
X023677Y012122D01*
X023589Y012122D01*
X023508Y012088D01*
X023447Y012026D01*
X023413Y011946D01*
X023413Y011858D01*
X023447Y011777D01*
X023508Y011715D01*
X023589Y011682D01*
X023624Y011682D01*
X023647Y011627D01*
X023708Y011565D01*
X023789Y011532D01*
X023877Y011532D01*
X023958Y011565D01*
X024013Y011621D01*
X024013Y011583D01*
X024047Y011502D01*
X024074Y011475D01*
X024028Y011456D01*
X023964Y011392D01*
X023929Y011307D01*
X023929Y011216D01*
X023964Y011132D01*
X024028Y011068D01*
X024113Y011033D01*
X024204Y011033D01*
X024288Y011068D01*
X024352Y011132D01*
X024387Y011216D01*
X024387Y011307D01*
X024361Y011370D02*
X025079Y011370D01*
X025108Y011340D02*
X025189Y011307D01*
X025277Y011307D01*
X025358Y011340D01*
X025420Y011402D01*
X025453Y011483D01*
X025453Y011571D01*
X025420Y011651D01*
X025358Y011713D01*
X025277Y011747D01*
X025189Y011747D01*
X025108Y011713D01*
X025047Y011651D01*
X025013Y011571D01*
X025013Y011483D01*
X025047Y011402D01*
X025108Y011340D01*
X025019Y011468D02*
X024836Y011468D01*
X024808Y011440D02*
X024870Y011502D01*
X024903Y011583D01*
X024903Y011671D01*
X024870Y011751D01*
X024808Y011813D01*
X024727Y011847D01*
X024639Y011847D01*
X024558Y011813D01*
X024497Y011751D01*
X024463Y011671D01*
X024463Y011583D01*
X024497Y011502D01*
X024558Y011440D01*
X024639Y011407D01*
X024727Y011407D01*
X024808Y011440D01*
X024896Y011567D02*
X025013Y011567D01*
X025061Y011665D02*
X024903Y011665D01*
X024857Y011764D02*
X027720Y011764D01*
X027750Y012060D02*
X028492Y012060D01*
X028423Y012158D02*
X027831Y012158D01*
X027865Y012257D02*
X028382Y012257D01*
X028378Y012355D02*
X027865Y012355D01*
X027828Y012454D02*
X028385Y012454D01*
X028426Y012552D02*
X027742Y012552D01*
X027583Y012765D02*
X027645Y012827D01*
X027678Y012908D01*
X027678Y012996D01*
X027645Y013076D01*
X027583Y013138D01*
X027502Y013172D01*
X027414Y013172D01*
X027333Y013138D01*
X027333Y013138D01*
X027333Y013138D01*
X027252Y013172D01*
X027164Y013172D01*
X027083Y013138D01*
X027022Y013076D01*
X026988Y012996D01*
X026988Y012908D01*
X027022Y012827D01*
X027083Y012765D01*
X027164Y012732D01*
X027252Y012732D01*
X027333Y012765D01*
X027333Y012766D01*
X027333Y012765D01*
X027414Y012732D01*
X027502Y012732D01*
X027583Y012765D01*
X027544Y012749D02*
X028644Y012749D01*
X028499Y012651D02*
X026465Y012651D01*
X026478Y012683D02*
X026478Y012771D01*
X026445Y012851D01*
X026383Y012913D01*
X026302Y012947D01*
X026214Y012947D01*
X026133Y012913D01*
X026072Y012851D01*
X026038Y012771D01*
X026038Y012683D01*
X026072Y012602D01*
X026133Y012540D01*
X026214Y012507D01*
X026302Y012507D01*
X026383Y012540D01*
X026445Y012602D01*
X026478Y012683D01*
X026478Y012749D02*
X027122Y012749D01*
X027013Y012848D02*
X026446Y012848D01*
X026303Y012947D02*
X026988Y012947D01*
X027009Y013045D02*
X024301Y013045D01*
X024283Y013063D02*
X024202Y013097D01*
X024114Y013097D01*
X024033Y013063D01*
X023972Y013001D01*
X023938Y012921D01*
X023938Y012833D01*
X023972Y012752D01*
X024033Y012690D01*
X024114Y012657D01*
X024202Y012657D01*
X024283Y012690D01*
X024345Y012752D01*
X024378Y012833D01*
X024378Y012921D01*
X024345Y013001D01*
X024283Y013063D01*
X024367Y012947D02*
X026214Y012947D01*
X026070Y012848D02*
X024378Y012848D01*
X024342Y012749D02*
X026038Y012749D01*
X026051Y012651D02*
X017515Y012651D01*
X017515Y012591D02*
X017515Y012713D01*
X017468Y012826D01*
X017382Y012912D01*
X017269Y012959D01*
X017147Y012959D01*
X017034Y012912D01*
X016948Y012826D01*
X016901Y012713D01*
X016901Y012591D01*
X016948Y012478D01*
X017034Y012391D01*
X017147Y012345D01*
X017269Y012345D01*
X017382Y012391D01*
X017468Y012478D01*
X017515Y012591D01*
X017499Y012552D02*
X021122Y012552D01*
X021097Y012526D02*
X021063Y012446D01*
X021063Y012358D01*
X021097Y012277D01*
X021158Y012215D01*
X021239Y012182D01*
X021327Y012182D01*
X021408Y012215D01*
X021408Y012216D01*
X021408Y012215D01*
X021489Y012182D01*
X021577Y012182D01*
X021658Y012215D01*
X021720Y012277D01*
X021753Y012358D01*
X021753Y012446D01*
X021720Y012526D01*
X021658Y012588D01*
X021577Y012622D01*
X021489Y012622D01*
X021408Y012588D01*
X021408Y012588D01*
X021408Y012588D01*
X021327Y012622D01*
X021239Y012622D01*
X021158Y012588D01*
X021097Y012526D01*
X021067Y012454D02*
X017444Y012454D01*
X017295Y012355D02*
X021064Y012355D01*
X021117Y012257D02*
X020238Y012257D01*
X020202Y012272D02*
X020114Y012272D01*
X020033Y012238D01*
X019972Y012176D01*
X019938Y012096D01*
X019938Y012008D01*
X019972Y011927D01*
X020033Y011865D01*
X020114Y011832D01*
X020202Y011832D01*
X020283Y011865D01*
X020345Y011927D01*
X020378Y012008D01*
X020378Y012096D01*
X020345Y012176D01*
X020283Y012238D01*
X020202Y012272D01*
X020078Y012257D02*
X015797Y012257D01*
X015782Y012241D02*
X015868Y012328D01*
X015915Y012441D01*
X015915Y012563D01*
X015868Y012676D01*
X015782Y012762D01*
X015669Y012809D01*
X015547Y012809D01*
X015443Y012766D01*
X015418Y012826D01*
X015332Y012912D01*
X015219Y012959D01*
X015097Y012959D01*
X014984Y012912D01*
X014898Y012826D01*
X014851Y012713D01*
X014851Y012591D01*
X014860Y012570D01*
X014783Y012538D01*
X014722Y012476D01*
X014688Y012396D01*
X014688Y012308D01*
X014722Y012227D01*
X014783Y012165D01*
X014864Y012132D01*
X014952Y012132D01*
X015033Y012165D01*
X015095Y012227D01*
X015128Y012308D01*
X015128Y012345D01*
X015219Y012345D01*
X015323Y012388D01*
X015348Y012328D01*
X015434Y012241D01*
X015547Y012195D01*
X015669Y012195D01*
X015782Y012241D01*
X015880Y012355D02*
X017121Y012355D01*
X016972Y012454D02*
X015915Y012454D01*
X015915Y012552D02*
X016917Y012552D01*
X016901Y012651D02*
X015879Y012651D01*
X015795Y012749D02*
X016916Y012749D01*
X016970Y012848D02*
X015396Y012848D01*
X015249Y012947D02*
X017117Y012947D01*
X017299Y012947D02*
X018462Y012947D01*
X018447Y012961D02*
X018517Y012891D01*
X018609Y012853D01*
X018708Y012853D01*
X018799Y012891D01*
X018869Y012961D01*
X018907Y013052D01*
X018907Y013151D01*
X018869Y013243D01*
X018799Y013313D01*
X018708Y013351D01*
X018609Y013351D01*
X018517Y013313D01*
X018447Y013243D01*
X018409Y013151D01*
X018409Y013052D01*
X018447Y012961D01*
X018412Y013045D02*
X013134Y013045D01*
X013102Y013032D02*
X013183Y013065D01*
X013245Y013127D01*
X013278Y013208D01*
X013278Y013296D01*
X013245Y013376D01*
X013183Y013438D01*
X013102Y013472D01*
X013014Y013472D01*
X012933Y013438D01*
X012872Y013376D01*
X012838Y013296D01*
X012838Y013208D01*
X012872Y013127D01*
X012933Y013065D01*
X013014Y013032D01*
X013102Y013032D01*
X012982Y013045D02*
X011923Y013045D01*
X011928Y013058D02*
X011928Y013146D01*
X011895Y013226D01*
X011833Y013288D01*
X011752Y013322D01*
X011664Y013322D01*
X011583Y013288D01*
X011522Y013226D01*
X011488Y013146D01*
X011488Y013058D01*
X011522Y012977D01*
X011583Y012915D01*
X011664Y012882D01*
X011752Y012882D01*
X011833Y012915D01*
X011895Y012977D01*
X011928Y013058D01*
X011928Y013144D02*
X012865Y013144D01*
X012838Y013242D02*
X011879Y013242D01*
X011864Y012947D02*
X015067Y012947D01*
X014920Y012848D02*
X011523Y012848D01*
X011545Y012826D02*
X011483Y012888D01*
X011402Y012922D01*
X011314Y012922D01*
X011233Y012888D01*
X011172Y012826D01*
X011138Y012746D01*
X011138Y012658D01*
X011172Y012577D01*
X011233Y012515D01*
X011314Y012482D01*
X011402Y012482D01*
X011483Y012515D01*
X011545Y012577D01*
X011578Y012658D01*
X011578Y012746D01*
X011545Y012826D01*
X011576Y012749D02*
X014866Y012749D01*
X014851Y012651D02*
X011575Y012651D01*
X011520Y012552D02*
X014272Y012552D01*
X014272Y012551D02*
X014238Y012471D01*
X014238Y012383D01*
X014243Y012372D01*
X014197Y012326D01*
X014163Y012246D01*
X014163Y012158D01*
X014197Y012077D01*
X014258Y012015D01*
X014339Y011982D01*
X014427Y011982D01*
X014508Y012015D01*
X014570Y012077D01*
X014603Y012158D01*
X014603Y012246D01*
X014599Y012256D01*
X014645Y012302D01*
X014678Y012383D01*
X014678Y012471D01*
X014645Y012551D01*
X014583Y012613D01*
X014502Y012647D01*
X014414Y012647D01*
X014333Y012613D01*
X014272Y012551D01*
X014238Y012454D02*
X009425Y012454D01*
X009428Y012446D02*
X009395Y012526D01*
X009333Y012588D01*
X009252Y012622D01*
X009164Y012622D01*
X009083Y012588D01*
X009022Y012526D01*
X008988Y012446D01*
X008988Y012358D01*
X009022Y012277D01*
X009083Y012215D01*
X009164Y012182D01*
X009252Y012182D01*
X009333Y012215D01*
X009395Y012277D01*
X009428Y012358D01*
X009428Y012446D01*
X009427Y012355D02*
X014225Y012355D01*
X014168Y012257D02*
X009374Y012257D01*
X009433Y012138D02*
X009514Y012172D01*
X009602Y012172D01*
X009683Y012138D01*
X009745Y012076D01*
X009778Y011996D01*
X009778Y011908D01*
X009745Y011827D01*
X009683Y011765D01*
X009602Y011732D01*
X009514Y011732D01*
X009433Y011765D01*
X009372Y011827D01*
X009338Y011908D01*
X009338Y011996D01*
X009372Y012076D01*
X009433Y012138D01*
X009481Y012158D02*
X006856Y012158D01*
X006892Y012257D02*
X009042Y012257D01*
X008989Y012355D02*
X006939Y012355D01*
X006955Y012454D02*
X008992Y012454D01*
X009047Y012552D02*
X006947Y012552D01*
X006906Y012651D02*
X011141Y012651D01*
X011140Y012749D02*
X006836Y012749D01*
X006896Y012848D02*
X011193Y012848D01*
X011196Y012552D02*
X009369Y012552D01*
X009635Y012158D02*
X012903Y012158D01*
X012933Y012188D02*
X012872Y012126D01*
X012838Y012046D01*
X012838Y011958D01*
X012872Y011877D01*
X012933Y011815D01*
X013014Y011782D01*
X013102Y011782D01*
X013183Y011815D01*
X013245Y011877D01*
X013278Y011958D01*
X013278Y012046D01*
X013245Y012126D01*
X013183Y012188D01*
X013102Y012222D01*
X013014Y012222D01*
X012933Y012188D01*
X012844Y012060D02*
X009752Y012060D01*
X009778Y011961D02*
X012838Y011961D01*
X012886Y011863D02*
X009759Y011863D01*
X009679Y011764D02*
X013385Y011764D01*
X013372Y011777D02*
X013433Y011715D01*
X013514Y011682D01*
X013602Y011682D01*
X013683Y011715D01*
X013745Y011777D01*
X013778Y011858D01*
X013778Y011946D01*
X013745Y012026D01*
X013683Y012088D01*
X013602Y012122D01*
X013514Y012122D01*
X013433Y012088D01*
X013372Y012026D01*
X013338Y011946D01*
X013338Y011858D01*
X013372Y011777D01*
X013338Y011863D02*
X013230Y011863D01*
X013278Y011961D02*
X013345Y011961D01*
X013405Y012060D02*
X013272Y012060D01*
X013213Y012158D02*
X014163Y012158D01*
X014214Y012060D02*
X013711Y012060D01*
X013772Y011961D02*
X019958Y011961D01*
X019938Y012060D02*
X014552Y012060D01*
X014603Y012158D02*
X014801Y012158D01*
X014709Y012257D02*
X014599Y012257D01*
X014667Y012355D02*
X014688Y012355D01*
X014678Y012454D02*
X014712Y012454D01*
X014644Y012552D02*
X014817Y012552D01*
X015107Y012257D02*
X015419Y012257D01*
X015336Y012355D02*
X015245Y012355D01*
X015015Y012158D02*
X019964Y012158D01*
X020352Y012158D02*
X022279Y012158D01*
X022276Y012166D02*
X022323Y012053D01*
X022409Y011966D01*
X022522Y011920D01*
X022644Y011920D01*
X022757Y011966D01*
X022843Y012053D01*
X022890Y012166D01*
X022890Y012288D01*
X022843Y012401D01*
X022757Y012487D01*
X022644Y012534D01*
X022522Y012534D01*
X022409Y012487D01*
X022323Y012401D01*
X022276Y012288D01*
X022276Y012166D01*
X022276Y012257D02*
X021699Y012257D01*
X021752Y012355D02*
X022304Y012355D01*
X022376Y012454D02*
X021750Y012454D01*
X021694Y012552D02*
X026121Y012552D01*
X026114Y012497D02*
X026033Y012463D01*
X026016Y012445D01*
X025952Y012472D01*
X025864Y012472D01*
X025783Y012438D01*
X025722Y012376D01*
X025688Y012296D01*
X025688Y012283D01*
X025683Y012288D01*
X025602Y012322D01*
X025514Y012322D01*
X025504Y012317D01*
X025458Y012363D01*
X025377Y012397D01*
X025289Y012397D01*
X025208Y012363D01*
X025147Y012301D01*
X025113Y012221D01*
X025113Y012133D01*
X025147Y012052D01*
X025208Y011990D01*
X025289Y011957D01*
X025377Y011957D01*
X025388Y011961D01*
X025387Y011961D01*
X025388Y011961D02*
X025433Y011915D01*
X025514Y011882D01*
X025602Y011882D01*
X025630Y011894D01*
X025658Y011865D01*
X025739Y011832D01*
X025827Y011832D01*
X025908Y011865D01*
X025970Y011927D01*
X026003Y012008D01*
X026003Y012053D01*
X026033Y012065D01*
X026038Y012071D01*
X026038Y012008D01*
X026072Y011927D01*
X026133Y011865D01*
X026214Y011832D01*
X026302Y011832D01*
X026383Y011865D01*
X026445Y011927D01*
X026478Y012008D01*
X026478Y012096D01*
X026445Y012176D01*
X026383Y012238D01*
X026378Y012240D01*
X026378Y012321D01*
X026345Y012401D01*
X026283Y012463D01*
X026202Y012497D01*
X026114Y012497D01*
X026024Y012454D02*
X025995Y012454D01*
X025821Y012454D02*
X022791Y012454D01*
X022862Y012355D02*
X025200Y012355D01*
X025128Y012257D02*
X022890Y012257D01*
X022887Y012158D02*
X025113Y012158D01*
X025144Y012060D02*
X023786Y012060D01*
X023903Y011961D02*
X025279Y011961D01*
X025665Y011863D02*
X024025Y011863D01*
X024053Y011764D02*
X024059Y011764D01*
X024020Y011567D02*
X023959Y011567D01*
X024058Y011468D02*
X023533Y011468D01*
X023563Y011456D02*
X023479Y011491D01*
X023388Y011491D01*
X023303Y011456D01*
X023303Y011496D01*
X023270Y011576D01*
X023208Y011638D01*
X023127Y011672D01*
X023039Y011672D01*
X022958Y011638D01*
X022923Y011603D01*
X022877Y011622D01*
X022789Y011622D01*
X022708Y011588D01*
X022647Y011526D01*
X022613Y011446D01*
X022613Y011358D01*
X022647Y011277D01*
X022708Y011215D01*
X022789Y011182D01*
X022877Y011182D01*
X022958Y011215D01*
X022993Y011251D01*
X023039Y011232D01*
X023127Y011232D01*
X023204Y011264D01*
X023204Y011216D01*
X023239Y011132D01*
X023303Y011068D01*
X023388Y011033D01*
X023479Y011033D01*
X023563Y011068D01*
X023627Y011132D01*
X023662Y011216D01*
X023662Y011307D01*
X023627Y011392D01*
X023563Y011456D01*
X023636Y011370D02*
X023955Y011370D01*
X023929Y011271D02*
X023662Y011271D01*
X023644Y011173D02*
X023947Y011173D01*
X024022Y011074D02*
X023569Y011074D01*
X023297Y011074D02*
X021860Y011074D01*
X021858Y011073D02*
X021949Y011111D01*
X022019Y011181D01*
X022057Y011272D01*
X022057Y011371D01*
X022019Y011463D01*
X021949Y011533D01*
X021858Y011571D01*
X021759Y011571D01*
X021667Y011533D01*
X021597Y011463D01*
X021559Y011371D01*
X021559Y011272D01*
X021597Y011181D01*
X021667Y011111D01*
X021759Y011073D01*
X021858Y011073D01*
X021756Y011074D02*
X018178Y011074D01*
X018178Y011033D02*
X018178Y011121D01*
X018145Y011201D01*
X018094Y011252D01*
X018145Y011302D01*
X018178Y011383D01*
X018178Y011471D01*
X018145Y011551D01*
X018144Y011552D01*
X018145Y011552D01*
X018178Y011633D01*
X018178Y011721D01*
X018145Y011801D01*
X018083Y011863D01*
X018002Y011897D01*
X017914Y011897D01*
X017833Y011863D01*
X013778Y011863D01*
X013731Y011764D02*
X014835Y011764D01*
X014833Y011763D02*
X014772Y011701D01*
X014738Y011621D01*
X014738Y011533D01*
X014772Y011452D01*
X014833Y011390D01*
X014914Y011357D01*
X015002Y011357D01*
X015083Y011390D01*
X015145Y011452D01*
X015178Y011533D01*
X015178Y011621D01*
X015145Y011701D01*
X015083Y011763D01*
X015002Y011797D01*
X014914Y011797D01*
X014833Y011763D01*
X014757Y011665D02*
X006856Y011665D01*
X006835Y011764D02*
X008835Y011764D01*
X008822Y011777D02*
X008883Y011715D01*
X008964Y011682D01*
X009052Y011682D01*
X009133Y011715D01*
X009195Y011777D01*
X009228Y011858D01*
X009228Y011946D01*
X009195Y012026D01*
X009133Y012088D01*
X009052Y012122D01*
X008964Y012122D01*
X008883Y012088D01*
X008822Y012026D01*
X008788Y011946D01*
X008788Y011858D01*
X008822Y011777D01*
X008788Y011863D02*
X006895Y011863D01*
X006915Y011961D02*
X008795Y011961D01*
X008855Y012060D02*
X006904Y012060D01*
X006904Y011567D02*
X014738Y011567D01*
X014765Y011468D02*
X013053Y011468D01*
X013033Y011488D02*
X012952Y011522D01*
X012864Y011522D01*
X012783Y011488D01*
X012722Y011426D01*
X012688Y011346D01*
X012688Y011258D01*
X012722Y011177D01*
X012747Y011152D01*
X012722Y011126D01*
X012688Y011046D01*
X012688Y010958D01*
X012722Y010877D01*
X006358Y010877D01*
X006358Y010779D02*
X012702Y010779D01*
X012688Y010746D02*
X012722Y010826D01*
X012747Y010852D01*
X012722Y010877D01*
X012688Y010976D02*
X009716Y010976D01*
X009682Y010941D02*
X009768Y011028D01*
X009815Y011141D01*
X009815Y011263D01*
X009768Y011376D01*
X009682Y011462D01*
X009569Y011509D01*
X009447Y011509D01*
X009334Y011462D01*
X009248Y011376D01*
X009201Y011263D01*
X009201Y011141D01*
X009248Y011028D01*
X009334Y010941D01*
X009447Y010895D01*
X009569Y010895D01*
X009682Y010941D01*
X009788Y011074D02*
X012700Y011074D01*
X012726Y011173D02*
X009815Y011173D01*
X009812Y011271D02*
X012688Y011271D01*
X012698Y011370D02*
X009771Y011370D01*
X009667Y011468D02*
X012764Y011468D01*
X013033Y011488D02*
X013095Y011426D01*
X013117Y011372D01*
X013152Y011372D01*
X013233Y011338D01*
X013295Y011276D01*
X013328Y011196D01*
X013328Y011108D01*
X013295Y011027D01*
X013233Y010965D01*
X013152Y010932D01*
X013117Y010932D01*
X013095Y010877D01*
X013069Y010852D01*
X013079Y010842D01*
X013089Y010847D01*
X013177Y010847D01*
X013258Y010813D01*
X013258Y010813D01*
X013258Y010813D01*
X013339Y010847D01*
X013427Y010847D01*
X013508Y010813D01*
X013570Y010751D01*
X013603Y010671D01*
X013603Y010583D01*
X013570Y010502D01*
X013508Y010440D01*
X013427Y010407D01*
X013339Y010407D01*
X013258Y010440D01*
X013258Y010441D01*
X013258Y010440D01*
X013177Y010407D01*
X013089Y010407D01*
X013008Y010440D01*
X012963Y010486D01*
X012952Y010482D01*
X012864Y010482D01*
X012783Y010515D01*
X012722Y010577D01*
X012688Y010658D01*
X012688Y010746D01*
X012688Y010680D02*
X006358Y010680D01*
X006358Y010581D02*
X012720Y010581D01*
X012862Y010483D02*
X006358Y010483D01*
X006358Y010384D02*
X019973Y010384D01*
X019963Y010483D02*
X013550Y010483D01*
X013602Y010581D02*
X013967Y010581D01*
X013983Y010565D02*
X014064Y010532D01*
X014152Y010532D01*
X014233Y010565D01*
X014295Y010627D01*
X014328Y010708D01*
X014328Y010796D01*
X014295Y010876D01*
X014233Y010938D01*
X014152Y010972D01*
X014064Y010972D01*
X013983Y010938D01*
X013922Y010876D01*
X013888Y010796D01*
X013888Y010708D01*
X013922Y010627D01*
X013983Y010565D01*
X013900Y010680D02*
X013599Y010680D01*
X013542Y010779D02*
X013888Y010779D01*
X013922Y010877D02*
X013094Y010877D01*
X013243Y010976D02*
X015488Y010976D01*
X015488Y010996D02*
X015488Y010908D01*
X015522Y010827D01*
X015583Y010765D01*
X015664Y010732D01*
X015752Y010732D01*
X015833Y010765D01*
X015895Y010827D01*
X015928Y010908D01*
X015928Y010996D01*
X015895Y011076D01*
X015833Y011138D01*
X015752Y011172D01*
X015664Y011172D01*
X015583Y011138D01*
X015522Y011076D01*
X015488Y010996D01*
X015521Y011074D02*
X013314Y011074D01*
X013328Y011173D02*
X017760Y011173D01*
X017772Y011201D02*
X017738Y011121D01*
X017738Y011033D01*
X017772Y010952D01*
X017772Y010951D01*
X017738Y010871D01*
X017738Y010783D01*
X017772Y010702D01*
X017833Y010640D01*
X017914Y010607D01*
X018002Y010607D01*
X018083Y010640D01*
X018145Y010702D01*
X018178Y010783D01*
X018178Y010871D01*
X018145Y010951D01*
X018144Y010952D01*
X018145Y010952D01*
X018178Y011033D01*
X018154Y010976D02*
X029582Y010976D01*
X029531Y011074D02*
X024294Y011074D01*
X024369Y011173D02*
X029520Y011173D01*
X029730Y010877D02*
X018175Y010877D01*
X018176Y010779D02*
X030012Y010779D01*
X030020Y010877D02*
X029886Y010877D01*
X029983Y010680D02*
X029988Y010680D01*
X029634Y010680D02*
X018122Y010680D01*
X017794Y010680D02*
X014316Y010680D01*
X014328Y010779D02*
X015570Y010779D01*
X015501Y010877D02*
X014294Y010877D01*
X014249Y010581D02*
X020002Y010581D01*
X019758Y011253D02*
X019849Y011291D01*
X019919Y011361D01*
X019957Y011452D01*
X019957Y011551D01*
X019919Y011643D01*
X019849Y011713D01*
X019758Y011751D01*
X019659Y011751D01*
X019567Y011713D01*
X019497Y011643D01*
X019459Y011551D01*
X019459Y011452D01*
X019497Y011361D01*
X019567Y011291D01*
X019659Y011253D01*
X019758Y011253D01*
X019801Y011271D02*
X021560Y011271D01*
X021559Y011370D02*
X019923Y011370D01*
X019957Y011468D02*
X021603Y011468D01*
X021750Y011567D02*
X021382Y011567D01*
X021403Y011575D02*
X021465Y011637D01*
X021498Y011718D01*
X021498Y011806D01*
X021465Y011886D01*
X021403Y011948D01*
X021322Y011982D01*
X021234Y011982D01*
X021163Y011952D01*
X021092Y011982D01*
X021004Y011982D01*
X020923Y011948D01*
X020862Y011886D01*
X020828Y011806D01*
X020828Y011718D01*
X020862Y011637D01*
X020923Y011575D01*
X021004Y011542D01*
X021092Y011542D01*
X021163Y011571D01*
X021234Y011542D01*
X021322Y011542D01*
X021403Y011575D01*
X021476Y011665D02*
X023024Y011665D01*
X023142Y011665D02*
X023631Y011665D01*
X023707Y011567D02*
X023274Y011567D01*
X023303Y011468D02*
X023333Y011468D01*
X023303Y011456D02*
X023303Y011456D01*
X023460Y011764D02*
X021498Y011764D01*
X021474Y011863D02*
X023413Y011863D01*
X023420Y011961D02*
X022744Y011961D01*
X022846Y012060D02*
X023480Y012060D01*
X022687Y011567D02*
X021866Y011567D01*
X022013Y011468D02*
X022623Y011468D01*
X022613Y011370D02*
X022057Y011370D01*
X022056Y011271D02*
X022653Y011271D01*
X023222Y011173D02*
X022011Y011173D01*
X021605Y011173D02*
X018156Y011173D01*
X018114Y011271D02*
X019615Y011271D01*
X019494Y011370D02*
X018173Y011370D01*
X018178Y011468D02*
X019459Y011468D01*
X019466Y011567D02*
X018151Y011567D01*
X018178Y011665D02*
X019520Y011665D01*
X019896Y011665D02*
X020850Y011665D01*
X020828Y011764D02*
X018160Y011764D01*
X018084Y011863D02*
X020040Y011863D01*
X020276Y011863D02*
X020852Y011863D01*
X020954Y011961D02*
X020359Y011961D01*
X020378Y012060D02*
X022320Y012060D01*
X022422Y011961D02*
X021372Y011961D01*
X021184Y011961D02*
X021142Y011961D01*
X021152Y011567D02*
X021174Y011567D01*
X020944Y011567D02*
X019950Y011567D01*
X020114Y012782D02*
X020202Y012782D01*
X020283Y012815D01*
X020345Y012877D01*
X020378Y012958D01*
X020378Y013046D01*
X020345Y013126D01*
X020283Y013188D01*
X020202Y013222D01*
X020114Y013222D01*
X020033Y013188D01*
X019972Y013126D01*
X019938Y013046D01*
X019938Y012958D01*
X019972Y012877D01*
X020033Y012815D01*
X020114Y012782D01*
X020001Y012848D02*
X017446Y012848D01*
X017500Y012749D02*
X021047Y012749D01*
X021008Y012765D02*
X021089Y012732D01*
X021177Y012732D01*
X021258Y012765D01*
X021296Y012803D01*
X021333Y012765D01*
X021414Y012732D01*
X021502Y012732D01*
X021583Y012765D01*
X021645Y012827D01*
X021678Y012908D01*
X021678Y012996D01*
X021645Y013076D01*
X021583Y013138D01*
X021503Y013171D01*
X021470Y013251D01*
X021408Y013313D01*
X021327Y013347D01*
X021253Y013347D01*
X021253Y013421D01*
X021220Y013501D01*
X021158Y013563D01*
X021077Y013597D01*
X020989Y013597D01*
X020908Y013563D01*
X020847Y013501D01*
X020813Y013421D01*
X020813Y013333D01*
X020847Y013252D01*
X020908Y013190D01*
X020989Y013157D01*
X021053Y013157D01*
X021008Y013138D01*
X020947Y013076D01*
X020913Y012996D01*
X020913Y012908D01*
X020947Y012827D01*
X021008Y012765D01*
X020938Y012848D02*
X020315Y012848D01*
X020373Y012947D02*
X020913Y012947D01*
X020934Y013045D02*
X020378Y013045D01*
X020327Y013144D02*
X021021Y013144D01*
X020857Y013242D02*
X018869Y013242D01*
X018907Y013144D02*
X019989Y013144D01*
X019938Y013045D02*
X018904Y013045D01*
X018854Y012947D02*
X019943Y012947D01*
X019758Y013378D02*
X019849Y013416D01*
X019919Y013486D01*
X019957Y013577D01*
X019957Y013676D01*
X019919Y013768D01*
X019849Y013838D01*
X019758Y013876D01*
X019659Y013876D01*
X019567Y013838D01*
X019497Y013768D01*
X019459Y013676D01*
X019459Y013577D01*
X019497Y013486D01*
X019567Y013416D01*
X019659Y013378D01*
X019758Y013378D01*
X019872Y013439D02*
X020821Y013439D01*
X020813Y013341D02*
X018731Y013341D01*
X018585Y013341D02*
X013259Y013341D01*
X013278Y013242D02*
X018447Y013242D01*
X018409Y013144D02*
X013251Y013144D01*
X013181Y013439D02*
X019544Y013439D01*
X019476Y013538D02*
X011505Y013538D01*
X011483Y013515D02*
X011545Y013577D01*
X011578Y013658D01*
X011578Y013746D01*
X011545Y013826D01*
X011483Y013888D01*
X011402Y013922D01*
X011314Y013922D01*
X011278Y013907D01*
X011278Y013946D01*
X011245Y014026D01*
X011183Y014088D01*
X011102Y014122D01*
X011014Y014122D01*
X010933Y014088D01*
X010872Y014026D01*
X010838Y013946D01*
X010838Y013858D01*
X010872Y013777D01*
X010933Y013715D01*
X011014Y013682D01*
X011102Y013682D01*
X011138Y013697D01*
X011138Y013658D01*
X011172Y013577D01*
X011233Y013515D01*
X011314Y013482D01*
X011402Y013482D01*
X011483Y013515D01*
X011569Y013636D02*
X019459Y013636D01*
X019484Y013735D02*
X011578Y013735D01*
X011538Y013833D02*
X013328Y013833D01*
X013353Y013808D02*
X013438Y013773D01*
X013529Y013773D01*
X013613Y013808D01*
X013677Y013872D01*
X013712Y013956D01*
X013712Y014047D01*
X013677Y014132D01*
X013613Y014196D01*
X013529Y014231D01*
X013528Y014231D01*
X013528Y014246D01*
X013495Y014326D01*
X014001Y014326D01*
X013988Y014296D02*
X014022Y014376D01*
X014083Y014438D01*
X014164Y014472D01*
X014252Y014472D01*
X014333Y014438D01*
X014395Y014376D01*
X014428Y014296D01*
X014428Y014261D01*
X014483Y014238D01*
X014545Y014176D01*
X014578Y014096D01*
X014578Y014008D01*
X014545Y013927D01*
X014483Y013865D01*
X014402Y013832D01*
X014314Y013832D01*
X014233Y013865D01*
X014172Y013927D01*
X014138Y014008D01*
X014138Y014043D01*
X014083Y014065D01*
X014022Y014127D01*
X013988Y014208D01*
X013988Y014296D01*
X013988Y014228D02*
X013537Y014228D01*
X013495Y014326D02*
X013433Y014388D01*
X013352Y014422D01*
X013264Y014422D01*
X013183Y014388D01*
X013122Y014326D01*
X013121Y014326D02*
X006897Y014326D01*
X006915Y014425D02*
X014070Y014425D01*
X014032Y014541D02*
X013919Y014495D01*
X013797Y014495D01*
X013684Y014541D01*
X013598Y014628D01*
X013551Y014741D01*
X013551Y014863D01*
X013598Y014976D01*
X013684Y015062D01*
X013797Y015109D01*
X013919Y015109D01*
X014032Y015062D01*
X014118Y014976D01*
X014165Y014863D01*
X014165Y014741D01*
X014118Y014628D01*
X014032Y014541D01*
X013988Y014523D02*
X019259Y014523D01*
X019259Y014551D02*
X019297Y014643D01*
X019367Y014713D01*
X019459Y014751D01*
X019558Y014751D01*
X019649Y014713D01*
X019719Y014643D01*
X019757Y014551D01*
X019757Y014452D01*
X019719Y014361D01*
X019649Y014291D01*
X019642Y014288D01*
X019657Y014251D01*
X019657Y014152D01*
X019619Y014061D01*
X019549Y013991D01*
X019458Y013953D01*
X019359Y013953D01*
X019267Y013991D01*
X019197Y014061D01*
X019159Y014152D01*
X019159Y014251D01*
X019197Y014343D01*
X019267Y014413D01*
X019275Y014416D01*
X019259Y014452D01*
X019259Y014551D01*
X019289Y014622D02*
X014112Y014622D01*
X014157Y014720D02*
X017567Y014720D01*
X017609Y014703D02*
X017517Y014741D01*
X017447Y014811D01*
X017409Y014902D01*
X017409Y015001D01*
X017447Y015093D01*
X017517Y015163D01*
X017609Y015201D01*
X017708Y015201D01*
X017799Y015163D01*
X017869Y015093D01*
X017907Y015001D01*
X017907Y014902D01*
X017869Y014811D01*
X017799Y014741D01*
X017708Y014703D01*
X017609Y014703D01*
X017749Y014720D02*
X019386Y014720D01*
X019631Y014720D02*
X019909Y014720D01*
X019918Y014743D02*
X019888Y014671D01*
X019888Y014583D01*
X019922Y014502D01*
X019983Y014440D01*
X020064Y014407D01*
X020152Y014407D01*
X020233Y014440D01*
X020295Y014502D01*
X020328Y014583D01*
X020328Y014671D01*
X020295Y014751D01*
X020233Y014813D01*
X020152Y014847D01*
X020064Y014847D01*
X020045Y014839D01*
X020082Y014927D01*
X020082Y015026D01*
X020044Y015118D01*
X019974Y015188D01*
X019883Y015226D01*
X019784Y015226D01*
X019692Y015188D01*
X019622Y015118D01*
X019584Y015026D01*
X019584Y014927D01*
X019622Y014836D01*
X019692Y014766D01*
X019784Y014728D01*
X019883Y014728D01*
X019918Y014743D01*
X019888Y014622D02*
X019728Y014622D01*
X019757Y014523D02*
X019913Y014523D01*
X020021Y014425D02*
X019745Y014425D01*
X019684Y014326D02*
X021573Y014326D01*
X021547Y014352D02*
X021608Y014290D01*
X021689Y014257D01*
X021777Y014257D01*
X021858Y014290D01*
X021858Y014291D01*
X021858Y014290D01*
X021939Y014257D01*
X022027Y014257D01*
X022108Y014290D01*
X022170Y014352D01*
X022203Y014433D01*
X022203Y014521D01*
X022170Y014601D01*
X022108Y014663D01*
X022027Y014697D01*
X021939Y014697D01*
X021858Y014663D01*
X021858Y014663D01*
X021858Y014663D01*
X021777Y014697D01*
X021689Y014697D01*
X021682Y014694D01*
X021688Y014708D01*
X021688Y014796D01*
X021655Y014876D01*
X021593Y014938D01*
X021512Y014972D01*
X021424Y014972D01*
X021351Y014941D01*
X021277Y014972D01*
X021189Y014972D01*
X021108Y014938D01*
X021047Y014876D01*
X021013Y014796D01*
X021013Y014708D01*
X021047Y014627D01*
X021108Y014565D01*
X021189Y014532D01*
X021277Y014532D01*
X021351Y014562D01*
X021424Y014532D01*
X021512Y014532D01*
X021519Y014535D01*
X021513Y014521D01*
X021513Y014433D01*
X021547Y014352D01*
X021517Y014425D02*
X020195Y014425D01*
X020303Y014523D02*
X021514Y014523D01*
X021688Y014720D02*
X025590Y014720D01*
X025572Y014701D02*
X025633Y014763D01*
X025688Y014786D01*
X025688Y014796D01*
X025722Y014876D01*
X025783Y014938D01*
X025864Y014972D01*
X025952Y014972D01*
X025963Y014967D01*
X026008Y015013D01*
X026038Y015026D01*
X026038Y015096D01*
X026072Y015176D01*
X026133Y015238D01*
X026214Y015272D01*
X026302Y015272D01*
X026383Y015238D01*
X026445Y015176D01*
X026478Y015096D01*
X026478Y015008D01*
X026445Y014927D01*
X026383Y014865D01*
X026353Y014853D01*
X026353Y014783D01*
X026320Y014702D01*
X026278Y014661D01*
X026333Y014638D01*
X026395Y014576D01*
X026428Y014496D01*
X026428Y014408D01*
X026395Y014327D01*
X026333Y014265D01*
X026252Y014232D01*
X026164Y014232D01*
X026083Y014265D01*
X026022Y014327D01*
X025988Y014408D01*
X025988Y014496D01*
X026014Y014558D01*
X025978Y014543D01*
X025978Y014533D01*
X025945Y014452D01*
X025883Y014390D01*
X025878Y014388D01*
X025878Y014308D01*
X025845Y014227D01*
X025803Y014186D01*
X025858Y014163D01*
X025920Y014101D01*
X025953Y014021D01*
X025953Y013933D01*
X025920Y013852D01*
X025858Y013790D01*
X025777Y013757D01*
X025689Y013757D01*
X025608Y013790D01*
X025558Y013841D01*
X025508Y013790D01*
X025489Y013782D01*
X025545Y013726D01*
X025578Y013646D01*
X025578Y013558D01*
X025545Y013477D01*
X025483Y013415D01*
X025402Y013382D01*
X025314Y013382D01*
X025233Y013415D01*
X025172Y013477D01*
X025138Y013558D01*
X025138Y013646D01*
X025172Y013726D01*
X025233Y013788D01*
X025253Y013796D01*
X025213Y013836D01*
X025202Y013832D01*
X025167Y013832D01*
X025145Y013777D01*
X025083Y013715D01*
X025002Y013682D01*
X024914Y013682D01*
X024833Y013715D01*
X024772Y013777D01*
X024738Y013858D01*
X024738Y013907D01*
X024711Y013919D01*
X024683Y013890D01*
X024602Y013857D01*
X024514Y013857D01*
X024486Y013869D01*
X024458Y013840D01*
X024377Y013807D01*
X024296Y013807D01*
X024295Y013802D01*
X024233Y013740D01*
X024152Y013707D01*
X024071Y013707D01*
X024070Y013702D01*
X024008Y013640D01*
X023927Y013607D01*
X023846Y013607D01*
X023845Y013602D01*
X023844Y013602D01*
X023845Y013601D01*
X023878Y013521D01*
X023878Y013433D01*
X023845Y013352D01*
X023783Y013290D01*
X023703Y013257D01*
X023703Y013183D01*
X023670Y013102D01*
X023608Y013040D01*
X023527Y013007D01*
X023439Y013007D01*
X023358Y013040D01*
X023297Y013102D01*
X023263Y013183D01*
X023263Y013271D01*
X023268Y013281D01*
X023222Y013327D01*
X023188Y013408D01*
X023188Y013496D01*
X023222Y013576D01*
X023283Y013638D01*
X023364Y013672D01*
X023443Y013672D01*
X023438Y013683D01*
X023438Y013771D01*
X023472Y013851D01*
X023533Y013913D01*
X023614Y013947D01*
X023695Y013947D01*
X023697Y013951D01*
X023758Y014013D01*
X023839Y014047D01*
X023920Y014047D01*
X023922Y014051D01*
X023983Y014113D01*
X024064Y014147D01*
X024145Y014147D01*
X024147Y014151D01*
X024208Y014213D01*
X024289Y014247D01*
X024377Y014247D01*
X024405Y014235D01*
X024433Y014263D01*
X024514Y014297D01*
X024602Y014297D01*
X024630Y014285D01*
X024658Y014313D01*
X024713Y014336D01*
X024713Y014371D01*
X024747Y014451D01*
X024808Y014513D01*
X024889Y014547D01*
X024977Y014547D01*
X025058Y014513D01*
X025120Y014451D01*
X025153Y014371D01*
X025153Y014283D01*
X025148Y014272D01*
X025202Y014272D01*
X025283Y014238D01*
X025329Y014192D01*
X025339Y014197D01*
X025427Y014197D01*
X025508Y014163D01*
X025558Y014113D01*
X025588Y014143D01*
X025533Y014165D01*
X025472Y014227D01*
X025438Y014308D01*
X025438Y014396D01*
X025472Y014476D01*
X025533Y014538D01*
X025538Y014540D01*
X025538Y014621D01*
X025572Y014701D01*
X025539Y014622D02*
X022149Y014622D01*
X022202Y014523D02*
X024832Y014523D01*
X024736Y014425D02*
X022200Y014425D01*
X022143Y014326D02*
X024689Y014326D01*
X025034Y014523D02*
X025518Y014523D01*
X025450Y014425D02*
X025131Y014425D01*
X025153Y014326D02*
X025438Y014326D01*
X025471Y014228D02*
X025293Y014228D01*
X025542Y014129D02*
X025574Y014129D01*
X025845Y014228D02*
X029868Y014228D01*
X029834Y014241D02*
X029947Y014195D01*
X030069Y014195D01*
X030182Y014241D01*
X030268Y014328D01*
X030315Y014441D01*
X030315Y014563D01*
X030268Y014676D01*
X030182Y014762D01*
X030069Y014809D01*
X029947Y014809D01*
X029834Y014762D01*
X029748Y014676D01*
X029701Y014563D01*
X029701Y014441D01*
X029748Y014328D01*
X029834Y014241D01*
X029749Y014326D02*
X027593Y014326D01*
X027583Y014315D02*
X027645Y014377D01*
X027678Y014458D01*
X027678Y014546D01*
X027645Y014626D01*
X027583Y014688D01*
X027502Y014722D01*
X027489Y014722D01*
X027495Y014727D01*
X027517Y014782D01*
X027533Y014765D01*
X027614Y014732D01*
X027702Y014732D01*
X027783Y014765D01*
X027845Y014827D01*
X027878Y014908D01*
X027878Y014996D01*
X027845Y015076D01*
X027783Y015138D01*
X027702Y015172D01*
X027614Y015172D01*
X027533Y015138D01*
X027472Y015076D01*
X027449Y015022D01*
X027433Y015038D01*
X027378Y015061D01*
X027378Y015096D01*
X027345Y015176D01*
X027283Y015238D01*
X027202Y015272D01*
X027114Y015272D01*
X027033Y015238D01*
X026972Y015176D01*
X026938Y015096D01*
X026938Y015008D01*
X026972Y014927D01*
X027028Y014871D01*
X027008Y014863D01*
X026947Y014801D01*
X026913Y014721D01*
X026913Y014633D01*
X026947Y014552D01*
X027008Y014490D01*
X027089Y014457D01*
X027177Y014457D01*
X027238Y014482D01*
X027238Y014458D01*
X027272Y014377D01*
X027333Y014315D01*
X027414Y014282D01*
X027502Y014282D01*
X027583Y014315D01*
X027664Y014425D02*
X029708Y014425D01*
X029701Y014523D02*
X027678Y014523D01*
X027647Y014622D02*
X029725Y014622D01*
X029792Y014720D02*
X028911Y014720D01*
X028882Y014691D02*
X028968Y014778D01*
X029015Y014891D01*
X029015Y015013D01*
X028968Y015126D01*
X028882Y015212D01*
X028769Y015259D01*
X028647Y015259D01*
X028534Y015212D01*
X028448Y015126D01*
X028401Y015013D01*
X028401Y014891D01*
X028448Y014778D01*
X028534Y014691D01*
X028647Y014645D01*
X028769Y014645D01*
X028882Y014691D01*
X028985Y014819D02*
X032106Y014819D01*
X032106Y014772D02*
X032039Y014772D01*
X031958Y014738D01*
X031897Y014676D01*
X031863Y014596D01*
X031863Y014508D01*
X031897Y014427D01*
X031958Y014365D01*
X032039Y014332D01*
X032049Y014332D01*
X032072Y014277D01*
X032133Y014215D01*
X032214Y014182D01*
X032302Y014182D01*
X032383Y014215D01*
X032445Y014277D01*
X032456Y014305D01*
X032565Y014259D01*
X032793Y014259D01*
X033004Y014346D01*
X033165Y014508D01*
X033200Y014592D01*
X033264Y014438D01*
X033395Y014307D01*
X033566Y014237D01*
X033610Y014237D01*
X033610Y014653D01*
X033707Y014653D01*
X033707Y014750D01*
X034123Y014750D01*
X034123Y014794D01*
X034053Y014965D01*
X033922Y015096D01*
X033751Y015167D01*
X033707Y015167D01*
X033707Y014751D01*
X033610Y014751D01*
X033610Y015167D01*
X033566Y015167D01*
X033395Y015096D01*
X033264Y014965D01*
X033252Y014938D01*
X033252Y014946D01*
X033165Y015157D01*
X033004Y015318D01*
X032913Y015355D01*
X033019Y015461D01*
X033083Y015617D01*
X033083Y015786D01*
X033019Y015943D01*
X032899Y016062D01*
X032743Y016127D01*
X032574Y016127D01*
X032417Y016062D01*
X032298Y015943D01*
X032233Y015786D01*
X032233Y015617D01*
X032298Y015461D01*
X032416Y015343D01*
X032355Y015318D01*
X032194Y015157D01*
X032106Y014946D01*
X032106Y014772D01*
X032106Y014917D02*
X029015Y014917D01*
X029014Y015016D02*
X029633Y015016D01*
X029645Y015004D02*
X029751Y014960D01*
X029865Y014960D01*
X029971Y015004D01*
X030052Y015085D01*
X030096Y015190D01*
X030096Y015305D01*
X030052Y015411D01*
X029971Y015491D01*
X029865Y015535D01*
X029751Y015535D01*
X029645Y015491D01*
X029564Y015411D01*
X029520Y015305D01*
X029520Y015190D01*
X029564Y015085D01*
X029645Y015004D01*
X029552Y015114D02*
X028973Y015114D01*
X028880Y015213D02*
X029520Y015213D01*
X029523Y015312D02*
X024416Y015312D01*
X024383Y015326D02*
X024284Y015326D01*
X024192Y015288D01*
X024122Y015218D01*
X024084Y015126D01*
X024084Y015027D01*
X024122Y014936D01*
X024192Y014866D01*
X024284Y014828D01*
X024383Y014828D01*
X024474Y014866D01*
X024544Y014936D01*
X024582Y015027D01*
X024582Y015126D01*
X024544Y015218D01*
X024474Y015288D01*
X024383Y015326D01*
X024250Y015312D02*
X014586Y015312D01*
X014570Y015351D02*
X014508Y015413D01*
X014427Y015447D01*
X014339Y015447D01*
X014258Y015413D01*
X014197Y015351D01*
X014163Y015271D01*
X014163Y015183D01*
X014197Y015102D01*
X014258Y015040D01*
X014339Y015007D01*
X014427Y015007D01*
X014508Y015040D01*
X014570Y015102D01*
X014603Y015183D01*
X014603Y015271D01*
X014570Y015351D01*
X014511Y015410D02*
X028239Y015410D01*
X028258Y015390D02*
X028339Y015357D01*
X028427Y015357D01*
X028508Y015390D01*
X028570Y015452D01*
X028603Y015533D01*
X028603Y015621D01*
X028570Y015701D01*
X028508Y015763D01*
X028427Y015797D01*
X028339Y015797D01*
X028258Y015763D01*
X028197Y015701D01*
X028163Y015621D01*
X028163Y015533D01*
X028197Y015452D01*
X028258Y015390D01*
X028173Y015509D02*
X011973Y015509D01*
X011978Y015496D02*
X011945Y015576D01*
X011883Y015638D01*
X011802Y015672D01*
X011714Y015672D01*
X011633Y015638D01*
X011572Y015576D01*
X011538Y015496D01*
X011538Y015408D01*
X011572Y015327D01*
X011633Y015265D01*
X011714Y015232D01*
X011802Y015232D01*
X011883Y015265D01*
X011945Y015327D01*
X011978Y015408D01*
X011978Y015496D01*
X011978Y015410D02*
X014255Y015410D01*
X014180Y015312D02*
X012752Y015312D01*
X012727Y015322D02*
X012639Y015322D01*
X012558Y015288D01*
X012520Y015250D01*
X012507Y015262D01*
X012394Y015309D01*
X012272Y015309D01*
X012159Y015262D01*
X012073Y015176D01*
X012026Y015063D01*
X012026Y014941D01*
X012073Y014828D01*
X012159Y014741D01*
X012272Y014695D01*
X012394Y014695D01*
X012507Y014741D01*
X012593Y014828D01*
X012597Y014837D01*
X012622Y014777D01*
X012683Y014715D01*
X012764Y014682D01*
X012852Y014682D01*
X012933Y014715D01*
X012995Y014777D01*
X013028Y014858D01*
X013028Y014946D01*
X012995Y015026D01*
X012933Y015088D01*
X012903Y015101D01*
X012903Y015146D01*
X012870Y015226D01*
X012808Y015288D01*
X012727Y015322D01*
X012615Y015312D02*
X011929Y015312D01*
X012110Y015213D02*
X006714Y015213D01*
X006852Y015114D02*
X012047Y015114D01*
X012026Y015016D02*
X006903Y015016D01*
X006915Y014917D02*
X011304Y014917D01*
X011314Y014922D02*
X011233Y014888D01*
X011172Y014826D01*
X011138Y014746D01*
X011138Y014658D01*
X011172Y014577D01*
X011233Y014515D01*
X011314Y014482D01*
X011402Y014482D01*
X011483Y014515D01*
X011545Y014577D01*
X011578Y014658D01*
X011578Y014746D01*
X011545Y014826D01*
X011483Y014888D01*
X011402Y014922D01*
X011314Y014922D01*
X011413Y014917D02*
X012036Y014917D01*
X012082Y014819D02*
X011548Y014819D01*
X011578Y014720D02*
X012210Y014720D01*
X012456Y014720D02*
X012679Y014720D01*
X012604Y014819D02*
X012584Y014819D01*
X012938Y014720D02*
X013559Y014720D01*
X013551Y014819D02*
X013012Y014819D01*
X013028Y014917D02*
X013574Y014917D01*
X013638Y015016D02*
X012999Y015016D01*
X012903Y015114D02*
X014192Y015114D01*
X014163Y015213D02*
X012875Y015213D01*
X011914Y015607D02*
X028163Y015607D01*
X028201Y015706D02*
X006358Y015706D01*
X006358Y015804D02*
X026504Y015804D01*
X026517Y015791D02*
X026609Y015753D01*
X026708Y015753D01*
X026799Y015791D01*
X026869Y015861D01*
X026907Y015952D01*
X026907Y016051D01*
X026869Y016143D01*
X026799Y016213D01*
X026708Y016251D01*
X026609Y016251D01*
X026517Y016213D01*
X026447Y016143D01*
X026409Y016051D01*
X026409Y015952D01*
X026447Y015861D01*
X026517Y015791D01*
X026430Y015903D02*
X006358Y015903D01*
X006358Y016001D02*
X026409Y016001D01*
X026430Y016100D02*
X006358Y016100D01*
X006358Y016198D02*
X026503Y016198D01*
X026524Y016297D02*
X019792Y016297D01*
X019953Y016396D02*
X020663Y016396D01*
X020647Y016411D02*
X020717Y016341D01*
X020809Y016303D01*
X020908Y016303D01*
X020999Y016341D01*
X021069Y016411D01*
X021107Y016502D01*
X021107Y016601D01*
X021069Y016693D01*
X020999Y016763D01*
X020908Y016801D01*
X020809Y016801D01*
X020717Y016763D01*
X020647Y016693D01*
X020609Y016601D01*
X020609Y016502D01*
X020647Y016411D01*
X020613Y016494D02*
X020349Y016494D01*
X020387Y016593D02*
X020609Y016593D01*
X020647Y016691D02*
X020379Y016691D01*
X020319Y016790D02*
X020782Y016790D01*
X020934Y016790D02*
X021229Y016790D01*
X021237Y016888D02*
X020041Y016888D01*
X019975Y016987D02*
X021229Y016987D01*
X021235Y016691D02*
X021070Y016691D01*
X021107Y016593D02*
X021293Y016593D01*
X021103Y016494D02*
X022885Y016494D01*
X022914Y016482D02*
X023002Y016482D01*
X023083Y016515D01*
X023145Y016577D01*
X023178Y016658D01*
X023178Y016746D01*
X023145Y016826D01*
X023083Y016888D01*
X024223Y016888D01*
X024213Y016987D02*
X021687Y016987D01*
X021680Y016888D02*
X021921Y016888D01*
X021914Y016882D02*
X021879Y016797D01*
X021879Y016706D01*
X021914Y016622D01*
X021978Y016558D01*
X022063Y016523D01*
X022154Y016523D01*
X022238Y016558D01*
X022302Y016622D01*
X022337Y016706D01*
X022337Y016797D01*
X022302Y016882D01*
X022238Y016946D01*
X022154Y016981D01*
X022063Y016981D01*
X021978Y016946D01*
X021914Y016882D01*
X021879Y016790D02*
X021687Y016790D01*
X021681Y016691D02*
X021885Y016691D01*
X021943Y016593D02*
X021623Y016593D01*
X022273Y016593D02*
X022765Y016593D01*
X022772Y016577D02*
X022738Y016658D01*
X022738Y016746D01*
X022772Y016826D01*
X022833Y016888D01*
X022296Y016888D01*
X022337Y016790D02*
X022756Y016790D01*
X022738Y016691D02*
X022331Y016691D01*
X022772Y016577D02*
X022833Y016515D01*
X022914Y016482D01*
X023031Y016494D02*
X026284Y016494D01*
X026243Y016593D02*
X023151Y016593D01*
X023178Y016691D02*
X026233Y016691D01*
X026234Y016790D02*
X025920Y016790D01*
X025980Y016888D02*
X026275Y016888D01*
X026342Y016987D02*
X025987Y016987D01*
X025596Y016790D02*
X025420Y016790D01*
X025480Y016888D02*
X025536Y016888D01*
X025529Y016987D02*
X025487Y016987D01*
X025096Y016790D02*
X024577Y016790D01*
X024643Y016888D02*
X025036Y016888D01*
X025029Y016987D02*
X024653Y016987D01*
X024289Y016790D02*
X023160Y016790D01*
X023083Y016888D02*
X023002Y016922D01*
X022914Y016922D01*
X022833Y016888D01*
X021054Y016396D02*
X026363Y016396D01*
X026792Y016297D02*
X027524Y016297D01*
X027363Y016396D02*
X026953Y016396D01*
X027032Y016494D02*
X027284Y016494D01*
X027243Y016593D02*
X027073Y016593D01*
X027083Y016691D02*
X027233Y016691D01*
X027234Y016790D02*
X027082Y016790D01*
X027041Y016888D02*
X027275Y016888D01*
X027342Y016987D02*
X026975Y016987D01*
X026813Y016198D02*
X029643Y016198D01*
X029645Y016200D02*
X029564Y016119D01*
X029520Y016013D01*
X029520Y015899D01*
X029564Y015793D01*
X029645Y015712D01*
X029751Y015668D01*
X029865Y015668D01*
X029971Y015712D01*
X030052Y015793D01*
X030096Y015899D01*
X030096Y016013D01*
X030052Y016119D01*
X029971Y016200D01*
X029865Y016244D01*
X029751Y016244D01*
X029645Y016200D01*
X029556Y016100D02*
X026887Y016100D01*
X026907Y016001D02*
X029520Y016001D01*
X029520Y015903D02*
X026886Y015903D01*
X026812Y015804D02*
X029560Y015804D01*
X029661Y015706D02*
X028565Y015706D01*
X028603Y015607D02*
X032237Y015607D01*
X032233Y015706D02*
X029955Y015706D01*
X030057Y015804D02*
X032240Y015804D01*
X032281Y015903D02*
X030096Y015903D01*
X030096Y016001D02*
X032356Y016001D01*
X032508Y016100D02*
X030060Y016100D01*
X029973Y016198D02*
X035958Y016198D01*
X035958Y016100D02*
X035808Y016100D01*
X035792Y016297D02*
X035958Y016297D01*
X035953Y016396D02*
X035958Y016396D01*
X035524Y016297D02*
X034792Y016297D01*
X034743Y016127D02*
X034574Y016127D01*
X034417Y016062D01*
X034298Y015943D01*
X034233Y015786D01*
X034233Y015617D01*
X034298Y015461D01*
X034417Y015341D01*
X034574Y015277D01*
X034743Y015277D01*
X034899Y015341D01*
X035019Y015461D01*
X035083Y015617D01*
X035083Y015786D01*
X035019Y015943D01*
X034899Y016062D01*
X034743Y016127D01*
X034808Y016100D02*
X035508Y016100D01*
X035356Y016001D02*
X034960Y016001D01*
X035035Y015903D02*
X035281Y015903D01*
X035240Y015804D02*
X035076Y015804D01*
X035083Y015706D02*
X035233Y015706D01*
X035237Y015607D02*
X035079Y015607D01*
X035038Y015509D02*
X035278Y015509D01*
X035348Y015410D02*
X034968Y015410D01*
X035104Y015312D02*
X034827Y015312D01*
X035006Y015213D02*
X033109Y015213D01*
X033183Y015114D02*
X033438Y015114D01*
X033314Y015016D02*
X033223Y015016D01*
X033395Y015307D02*
X033566Y015237D01*
X033610Y015237D01*
X033610Y015653D01*
X033707Y015653D01*
X033707Y015750D01*
X034123Y015750D01*
X034123Y015794D01*
X034053Y015965D01*
X033922Y016096D01*
X033751Y016167D01*
X033707Y016167D01*
X033707Y015751D01*
X033610Y015751D01*
X033610Y016167D01*
X033566Y016167D01*
X033395Y016096D01*
X033264Y015965D01*
X033193Y015794D01*
X033193Y015750D01*
X033609Y015750D01*
X033609Y015653D01*
X033193Y015653D01*
X033193Y015609D01*
X033264Y015438D01*
X033395Y015307D01*
X033390Y015312D02*
X033010Y015312D01*
X032968Y015410D02*
X033292Y015410D01*
X033234Y015509D02*
X033038Y015509D01*
X033079Y015607D02*
X033194Y015607D01*
X033083Y015706D02*
X033609Y015706D01*
X033707Y015706D02*
X034233Y015706D01*
X034240Y015804D02*
X034119Y015804D01*
X034078Y015903D02*
X034281Y015903D01*
X034356Y016001D02*
X034017Y016001D01*
X033913Y016100D02*
X034508Y016100D01*
X034524Y016297D02*
X033792Y016297D01*
X033953Y016396D02*
X034363Y016396D01*
X034284Y016494D02*
X034032Y016494D01*
X034073Y016593D02*
X034243Y016593D01*
X034233Y016691D02*
X034083Y016691D01*
X034082Y016790D02*
X034234Y016790D01*
X034275Y016888D02*
X034041Y016888D01*
X033975Y016987D02*
X034342Y016987D01*
X034975Y016987D02*
X035342Y016987D01*
X035275Y016888D02*
X035041Y016888D01*
X035082Y016790D02*
X035234Y016790D01*
X035233Y016691D02*
X035083Y016691D01*
X035073Y016593D02*
X035243Y016593D01*
X035284Y016494D02*
X035032Y016494D01*
X034953Y016396D02*
X035363Y016396D01*
X034123Y015653D02*
X033707Y015653D01*
X033707Y015237D01*
X033751Y015237D01*
X033922Y015307D01*
X034053Y015438D01*
X034123Y015609D01*
X034123Y015653D01*
X034122Y015607D02*
X034237Y015607D01*
X034278Y015509D02*
X034082Y015509D01*
X034024Y015410D02*
X034348Y015410D01*
X034489Y015312D02*
X033926Y015312D01*
X033878Y015114D02*
X034932Y015114D01*
X034891Y015016D02*
X034002Y015016D01*
X034072Y014917D02*
X034862Y014917D01*
X034862Y014819D02*
X034113Y014819D01*
X034123Y014653D02*
X033707Y014653D01*
X033707Y014237D01*
X033751Y014237D01*
X033922Y014307D01*
X034053Y014438D01*
X034123Y014609D01*
X034123Y014653D01*
X034123Y014622D02*
X034902Y014622D01*
X034862Y014720D02*
X033707Y014720D01*
X033707Y014622D02*
X033610Y014622D01*
X033610Y014523D02*
X033707Y014523D01*
X033707Y014425D02*
X033610Y014425D01*
X033610Y014326D02*
X033707Y014326D01*
X033748Y014135D02*
X033579Y014135D01*
X033423Y014071D01*
X033303Y013951D01*
X033301Y013946D01*
X033298Y013943D01*
X033291Y013926D01*
X033271Y013974D01*
X033140Y014105D01*
X032969Y014175D01*
X032925Y014175D01*
X032925Y013759D01*
X032828Y013759D01*
X032828Y014175D01*
X032784Y014175D01*
X032613Y014105D01*
X032482Y013974D01*
X032411Y013803D01*
X032411Y013759D01*
X032828Y013759D01*
X032828Y013662D01*
X032828Y013661D02*
X032925Y013661D01*
X032925Y013245D01*
X032969Y013245D01*
X033140Y013316D01*
X033271Y013447D01*
X033287Y013486D01*
X033298Y013461D01*
X033417Y013341D01*
X033574Y013277D01*
X033743Y013277D01*
X033899Y013341D01*
X034019Y013461D01*
X034021Y013466D01*
X034024Y013469D01*
X034057Y013549D01*
X034090Y013469D01*
X034210Y013350D01*
X034366Y013285D01*
X034536Y013285D01*
X034692Y013350D01*
X034812Y013469D01*
X034845Y013549D01*
X034878Y013469D01*
X034998Y013350D01*
X035154Y013285D01*
X035323Y013285D01*
X035479Y013350D01*
X035599Y013469D01*
X035664Y013626D01*
X035664Y013795D01*
X035599Y013951D01*
X035479Y014071D01*
X035323Y014135D01*
X035154Y014135D01*
X034998Y014071D01*
X034878Y013951D01*
X034845Y013871D01*
X034812Y013951D01*
X034692Y014071D01*
X034536Y014135D01*
X034366Y014135D01*
X034210Y014071D01*
X034090Y013951D01*
X034057Y013871D01*
X034024Y013951D01*
X033904Y014071D01*
X033748Y014135D01*
X033764Y014129D02*
X034351Y014129D01*
X034551Y014129D02*
X035139Y014129D01*
X035160Y014326D02*
X033940Y014326D01*
X034039Y014425D02*
X035033Y014425D01*
X034943Y014523D02*
X034088Y014523D01*
X033707Y014819D02*
X033610Y014819D01*
X033610Y014917D02*
X033707Y014917D01*
X033707Y015016D02*
X033610Y015016D01*
X033610Y015114D02*
X033707Y015114D01*
X033707Y015312D02*
X033610Y015312D01*
X033610Y015410D02*
X033707Y015410D01*
X033707Y015509D02*
X033610Y015509D01*
X033610Y015607D02*
X033707Y015607D01*
X033707Y015804D02*
X033610Y015804D01*
X033610Y015903D02*
X033707Y015903D01*
X033707Y016001D02*
X033610Y016001D01*
X033610Y016100D02*
X033707Y016100D01*
X033524Y016297D02*
X032792Y016297D01*
X032953Y016396D02*
X033363Y016396D01*
X033284Y016494D02*
X033032Y016494D01*
X033073Y016593D02*
X033243Y016593D01*
X033233Y016691D02*
X033083Y016691D01*
X033082Y016790D02*
X033234Y016790D01*
X033275Y016888D02*
X033041Y016888D01*
X032975Y016987D02*
X033342Y016987D01*
X032342Y016987D02*
X031975Y016987D01*
X032041Y016888D02*
X032275Y016888D01*
X032234Y016790D02*
X032082Y016790D01*
X032083Y016691D02*
X032233Y016691D01*
X032243Y016593D02*
X032073Y016593D01*
X032032Y016494D02*
X032284Y016494D01*
X032363Y016396D02*
X031953Y016396D01*
X031792Y016297D02*
X032524Y016297D01*
X032808Y016100D02*
X033403Y016100D01*
X033300Y016001D02*
X032960Y016001D01*
X033035Y015903D02*
X033238Y015903D01*
X033197Y015804D02*
X033076Y015804D01*
X032348Y015410D02*
X030052Y015410D01*
X030093Y015312D02*
X032349Y015312D01*
X032250Y015213D02*
X030096Y015213D01*
X030064Y015114D02*
X032176Y015114D01*
X032135Y015016D02*
X029983Y015016D01*
X030224Y014720D02*
X030942Y014720D01*
X030984Y014762D02*
X030898Y014676D01*
X030851Y014563D01*
X030851Y014441D01*
X030898Y014328D01*
X030984Y014241D01*
X031097Y014195D01*
X031219Y014195D01*
X031332Y014241D01*
X031418Y014328D01*
X031465Y014441D01*
X031465Y014563D01*
X031418Y014676D01*
X031332Y014762D01*
X031219Y014809D01*
X031097Y014809D01*
X030984Y014762D01*
X030875Y014622D02*
X030291Y014622D01*
X030315Y014523D02*
X030851Y014523D01*
X030858Y014425D02*
X030309Y014425D01*
X030267Y014326D02*
X030899Y014326D01*
X031018Y014228D02*
X030149Y014228D01*
X029971Y013800D02*
X029865Y013844D01*
X029751Y013844D01*
X029645Y013800D01*
X029564Y013719D01*
X029520Y013613D01*
X029520Y013499D01*
X029564Y013393D01*
X029645Y013312D01*
X029751Y013268D01*
X029865Y013268D01*
X029971Y013312D01*
X030052Y013393D01*
X030096Y013499D01*
X030096Y013613D01*
X030052Y013719D01*
X029971Y013800D01*
X029891Y013833D02*
X032424Y013833D01*
X032464Y013932D02*
X025953Y013932D01*
X025949Y014031D02*
X032539Y014031D01*
X032672Y014129D02*
X025892Y014129D01*
X025878Y014326D02*
X026023Y014326D01*
X025988Y014425D02*
X025917Y014425D01*
X025974Y014523D02*
X026000Y014523D01*
X026349Y014622D02*
X026918Y014622D01*
X026913Y014720D02*
X026327Y014720D01*
X026353Y014819D02*
X026964Y014819D01*
X026981Y014917D02*
X026435Y014917D01*
X026478Y015016D02*
X026938Y015016D01*
X026946Y015114D02*
X026470Y015114D01*
X026408Y015213D02*
X027008Y015213D01*
X027308Y015213D02*
X028536Y015213D01*
X028443Y015114D02*
X027807Y015114D01*
X027870Y015016D02*
X028402Y015016D01*
X028401Y014917D02*
X027878Y014917D01*
X027836Y014819D02*
X028431Y014819D01*
X028505Y014720D02*
X027506Y014720D01*
X027510Y015114D02*
X027370Y015114D01*
X026976Y014523D02*
X026417Y014523D01*
X026428Y014425D02*
X027252Y014425D01*
X027323Y014326D02*
X026393Y014326D01*
X025901Y013833D02*
X027367Y013833D01*
X027409Y013851D02*
X027317Y013813D01*
X027247Y013743D01*
X027209Y013651D01*
X027209Y013552D01*
X027247Y013461D01*
X027317Y013391D01*
X027409Y013353D01*
X027508Y013353D01*
X027599Y013391D01*
X027669Y013461D01*
X027707Y013552D01*
X027707Y013651D01*
X027669Y013743D01*
X027599Y013813D01*
X027508Y013851D01*
X027409Y013851D01*
X027549Y013833D02*
X029725Y013833D01*
X029580Y013735D02*
X027672Y013735D01*
X027707Y013636D02*
X029530Y013636D01*
X029520Y013538D02*
X027701Y013538D01*
X027647Y013439D02*
X029545Y013439D01*
X029617Y013341D02*
X023833Y013341D01*
X023878Y013439D02*
X025210Y013439D01*
X025146Y013538D02*
X023871Y013538D01*
X023998Y013636D02*
X025138Y013636D01*
X025102Y013735D02*
X025180Y013735D01*
X025206Y013833D02*
X025215Y013833D01*
X025551Y013833D02*
X025565Y013833D01*
X025536Y013735D02*
X027244Y013735D01*
X027209Y013636D02*
X025578Y013636D01*
X025570Y013538D02*
X027215Y013538D01*
X027269Y013439D02*
X025507Y013439D01*
X024814Y013735D02*
X024219Y013735D01*
X024441Y013833D02*
X024748Y013833D01*
X024243Y014228D02*
X021218Y014228D01*
X021245Y014201D02*
X021183Y014263D01*
X021102Y014297D01*
X021014Y014297D01*
X020933Y014263D01*
X020872Y014201D01*
X020838Y014121D01*
X020838Y014033D01*
X020872Y013952D01*
X020933Y013890D01*
X021014Y013857D01*
X021095Y013857D01*
X021097Y013852D01*
X021158Y013790D01*
X021239Y013757D01*
X021259Y013757D01*
X021259Y013752D01*
X021297Y013661D01*
X021367Y013591D01*
X021459Y013553D01*
X021558Y013553D01*
X021649Y013591D01*
X021687Y013629D01*
X021739Y013607D01*
X021827Y013607D01*
X021908Y013640D01*
X021908Y013641D01*
X021908Y013640D01*
X021989Y013607D01*
X022077Y013607D01*
X022158Y013640D01*
X022158Y013641D01*
X022158Y013640D01*
X022239Y013607D01*
X022327Y013607D01*
X022408Y013640D01*
X022470Y013702D01*
X022503Y013783D01*
X022503Y013871D01*
X022470Y013951D01*
X022408Y014013D01*
X022327Y014047D01*
X022239Y014047D01*
X022158Y014013D01*
X022158Y014013D01*
X022158Y014013D01*
X022077Y014047D01*
X021989Y014047D01*
X021908Y014013D01*
X021908Y014013D01*
X021908Y014013D01*
X021827Y014047D01*
X021739Y014047D01*
X021658Y014013D01*
X021653Y014008D01*
X021649Y014013D01*
X021558Y014051D01*
X021491Y014051D01*
X021470Y014101D01*
X021408Y014163D01*
X021327Y014197D01*
X021246Y014197D01*
X021245Y014201D01*
X021442Y014129D02*
X024021Y014129D01*
X023800Y014031D02*
X022366Y014031D01*
X022478Y013932D02*
X023578Y013932D01*
X023464Y013833D02*
X022503Y013833D01*
X022483Y013735D02*
X023438Y013735D01*
X023281Y013636D02*
X022398Y013636D01*
X022168Y013636D02*
X022148Y013636D01*
X022083Y013563D02*
X022002Y013597D01*
X021914Y013597D01*
X021833Y013563D01*
X021772Y013501D01*
X021738Y013421D01*
X021738Y013333D01*
X021772Y013252D01*
X021822Y013202D01*
X021772Y013151D01*
X021738Y013071D01*
X021738Y012983D01*
X021772Y012902D01*
X021833Y012840D01*
X021914Y012807D01*
X022002Y012807D01*
X022083Y012840D01*
X022145Y012902D01*
X022178Y012982D01*
X022258Y013015D01*
X022320Y013077D01*
X022353Y013158D01*
X022353Y013246D01*
X022320Y013326D01*
X022258Y013388D01*
X022178Y013421D01*
X022145Y013501D01*
X022083Y013563D01*
X022108Y013538D02*
X023206Y013538D01*
X023188Y013439D02*
X022170Y013439D01*
X022305Y013341D02*
X023216Y013341D01*
X023263Y013242D02*
X022353Y013242D01*
X022347Y013144D02*
X022698Y013144D01*
X022717Y013163D02*
X022647Y013093D01*
X022609Y013001D01*
X022609Y012902D01*
X022647Y012811D01*
X022717Y012741D01*
X022809Y012703D01*
X022908Y012703D01*
X022999Y012741D01*
X023069Y012811D01*
X023107Y012902D01*
X023107Y013001D01*
X023069Y013093D01*
X022999Y013163D01*
X022908Y013201D01*
X022809Y013201D01*
X022717Y013163D01*
X022628Y013045D02*
X022287Y013045D01*
X022163Y012947D02*
X022609Y012947D01*
X022632Y012848D02*
X022090Y012848D01*
X021826Y012848D02*
X021653Y012848D01*
X021678Y012947D02*
X021753Y012947D01*
X021738Y013045D02*
X021658Y013045D01*
X021570Y013144D02*
X021768Y013144D01*
X021782Y013242D02*
X021473Y013242D01*
X021342Y013341D02*
X021738Y013341D01*
X021746Y013439D02*
X021245Y013439D01*
X021183Y013538D02*
X021808Y013538D01*
X021898Y013636D02*
X021918Y013636D01*
X021322Y013636D02*
X020248Y013636D01*
X020258Y013640D02*
X020320Y013702D01*
X020353Y013783D01*
X020353Y013871D01*
X020320Y013951D01*
X020258Y014013D01*
X020177Y014047D01*
X020089Y014047D01*
X020008Y014013D01*
X019947Y013951D01*
X019913Y013871D01*
X019913Y013783D01*
X019947Y013702D01*
X020008Y013640D01*
X020089Y013607D01*
X020177Y013607D01*
X020258Y013640D01*
X020333Y013735D02*
X021267Y013735D01*
X021115Y013833D02*
X020353Y013833D01*
X020328Y013932D02*
X020892Y013932D01*
X020839Y014031D02*
X020216Y014031D01*
X020050Y014031D02*
X019588Y014031D01*
X019647Y014129D02*
X020842Y014129D01*
X020898Y014228D02*
X019657Y014228D01*
X019563Y013833D02*
X014406Y013833D01*
X014311Y013833D02*
X013639Y013833D01*
X013702Y013932D02*
X014170Y013932D01*
X014138Y014031D02*
X013712Y014031D01*
X013678Y014129D02*
X014021Y014129D01*
X014346Y014425D02*
X015947Y014425D01*
X015984Y014462D02*
X015898Y014376D01*
X015851Y014263D01*
X015851Y014141D01*
X015898Y014028D01*
X015984Y013941D01*
X016097Y013895D01*
X016219Y013895D01*
X016332Y013941D01*
X016418Y014028D01*
X016465Y014141D01*
X016465Y014263D01*
X016418Y014376D01*
X016332Y014462D01*
X016219Y014509D01*
X016097Y014509D01*
X015984Y014462D01*
X015877Y014326D02*
X014415Y014326D01*
X014493Y014228D02*
X015851Y014228D01*
X015856Y014129D02*
X014564Y014129D01*
X014578Y014031D02*
X015897Y014031D01*
X016007Y013932D02*
X014546Y013932D01*
X013728Y014523D02*
X011491Y014523D01*
X011563Y014622D02*
X013604Y014622D01*
X013122Y014326D02*
X013088Y014246D01*
X013088Y014158D01*
X013122Y014077D01*
X013183Y014015D01*
X013254Y013986D01*
X013254Y013956D01*
X013289Y013872D01*
X013353Y013808D01*
X013264Y013932D02*
X011278Y013932D01*
X011241Y014031D02*
X013168Y014031D01*
X013100Y014129D02*
X009528Y014129D01*
X009528Y014146D02*
X009495Y014226D01*
X009433Y014288D01*
X009352Y014322D01*
X009264Y014322D01*
X009183Y014288D01*
X009122Y014226D01*
X009088Y014146D01*
X009088Y014107D01*
X009052Y014122D01*
X008964Y014122D01*
X008883Y014088D01*
X008822Y014026D01*
X008788Y013946D01*
X008788Y013858D01*
X008822Y013777D01*
X008883Y013715D01*
X008964Y013682D01*
X009052Y013682D01*
X009133Y013715D01*
X009195Y013777D01*
X009228Y013858D01*
X009228Y013897D01*
X009264Y013882D01*
X009352Y013882D01*
X009433Y013915D01*
X009495Y013977D01*
X009528Y014058D01*
X009528Y014146D01*
X009493Y014228D02*
X013088Y014228D01*
X012936Y013439D02*
X009381Y013439D01*
X009383Y013438D02*
X009302Y013472D01*
X009214Y013472D01*
X009133Y013438D01*
X009072Y013376D01*
X009038Y013296D01*
X009038Y013208D01*
X009072Y013127D01*
X009133Y013065D01*
X009214Y013032D01*
X009302Y013032D01*
X009383Y013065D01*
X009445Y013127D01*
X009478Y013208D01*
X009478Y013296D01*
X009445Y013376D01*
X009383Y013438D01*
X009459Y013341D02*
X012857Y013341D01*
X011537Y013242D02*
X009478Y013242D01*
X009451Y013144D02*
X011488Y013144D01*
X011494Y013045D02*
X009334Y013045D01*
X009182Y013045D02*
X006904Y013045D01*
X006915Y012947D02*
X011552Y012947D01*
X011211Y013538D02*
X006903Y013538D01*
X006915Y013439D02*
X009136Y013439D01*
X009057Y013341D02*
X006896Y013341D01*
X006837Y013242D02*
X009038Y013242D01*
X009065Y013144D02*
X006855Y013144D01*
X006854Y013636D02*
X011147Y013636D01*
X010914Y013735D02*
X009152Y013735D01*
X009218Y013833D02*
X010848Y013833D01*
X010838Y013932D02*
X009449Y013932D01*
X009517Y014031D02*
X010876Y014031D01*
X011226Y014523D02*
X006903Y014523D01*
X006853Y014622D02*
X011153Y014622D01*
X011138Y014720D02*
X006838Y014720D01*
X006897Y014819D02*
X011168Y014819D01*
X011587Y015312D02*
X006358Y015312D01*
X006358Y015410D02*
X011538Y015410D01*
X011544Y015509D02*
X006358Y015509D01*
X006358Y015607D02*
X011602Y015607D01*
X011524Y016297D02*
X010792Y016297D01*
X010953Y016396D02*
X011363Y016396D01*
X011284Y016494D02*
X011032Y016494D01*
X011073Y016593D02*
X011243Y016593D01*
X011233Y016691D02*
X011083Y016691D01*
X011082Y016790D02*
X011234Y016790D01*
X011275Y016888D02*
X011041Y016888D01*
X010975Y016987D02*
X011342Y016987D01*
X011975Y016987D02*
X012342Y016987D01*
X012275Y016888D02*
X012041Y016888D01*
X012082Y016790D02*
X012234Y016790D01*
X012233Y016691D02*
X012083Y016691D01*
X012073Y016593D02*
X012243Y016593D01*
X012284Y016494D02*
X012032Y016494D01*
X011953Y016396D02*
X012363Y016396D01*
X012524Y016297D02*
X011792Y016297D01*
X012792Y016297D02*
X013524Y016297D01*
X013363Y016396D02*
X012953Y016396D01*
X013032Y016494D02*
X013284Y016494D01*
X013243Y016593D02*
X013073Y016593D01*
X013083Y016691D02*
X013233Y016691D01*
X013234Y016790D02*
X013082Y016790D01*
X013041Y016888D02*
X013275Y016888D01*
X013342Y016987D02*
X012975Y016987D01*
X013953Y016396D02*
X014363Y016396D01*
X014284Y016494D02*
X014032Y016494D01*
X014073Y016593D02*
X014243Y016593D01*
X014233Y016691D02*
X014083Y016691D01*
X014082Y016790D02*
X014234Y016790D01*
X014275Y016888D02*
X014041Y016888D01*
X013975Y016987D02*
X014342Y016987D01*
X014975Y016987D02*
X015342Y016987D01*
X015275Y016888D02*
X015041Y016888D01*
X015082Y016790D02*
X015234Y016790D01*
X015233Y016691D02*
X015083Y016691D01*
X015073Y016593D02*
X015243Y016593D01*
X015284Y016494D02*
X015032Y016494D01*
X014953Y016396D02*
X015363Y016396D01*
X015524Y016297D02*
X014792Y016297D01*
X014524Y016297D02*
X013792Y016297D01*
X014603Y015213D02*
X019753Y015213D01*
X019913Y015213D02*
X024120Y015213D01*
X024084Y015114D02*
X023457Y015114D01*
X023470Y015101D02*
X023408Y015163D01*
X023327Y015197D01*
X023239Y015197D01*
X023158Y015163D01*
X023133Y015138D01*
X023108Y015163D01*
X023027Y015197D01*
X022939Y015197D01*
X022858Y015163D01*
X022858Y015163D01*
X022858Y015163D01*
X022777Y015197D01*
X022689Y015197D01*
X022608Y015163D01*
X022547Y015101D01*
X022513Y015021D01*
X022513Y014933D01*
X022547Y014852D01*
X022608Y014790D01*
X022689Y014757D01*
X022777Y014757D01*
X022858Y014790D01*
X022858Y014791D01*
X022858Y014790D01*
X022939Y014757D01*
X023027Y014757D01*
X023108Y014790D01*
X023133Y014816D01*
X023158Y014790D01*
X023239Y014757D01*
X023327Y014757D01*
X023408Y014790D01*
X023470Y014852D01*
X023503Y014933D01*
X023503Y015021D01*
X023470Y015101D01*
X023503Y015016D02*
X024089Y015016D01*
X024141Y014917D02*
X023497Y014917D01*
X023436Y014819D02*
X025698Y014819D01*
X025763Y014917D02*
X024525Y014917D01*
X024577Y015016D02*
X026015Y015016D01*
X026046Y015114D02*
X024582Y015114D01*
X024546Y015213D02*
X026108Y015213D01*
X027792Y016297D02*
X028524Y016297D01*
X028363Y016396D02*
X027953Y016396D01*
X028032Y016494D02*
X028284Y016494D01*
X028243Y016593D02*
X028073Y016593D01*
X028083Y016691D02*
X028233Y016691D01*
X028234Y016790D02*
X028082Y016790D01*
X028041Y016888D02*
X028275Y016888D01*
X028342Y016987D02*
X027975Y016987D01*
X028975Y016987D02*
X029342Y016987D01*
X029275Y016888D02*
X029041Y016888D01*
X029082Y016790D02*
X029234Y016790D01*
X029233Y016691D02*
X029083Y016691D01*
X029073Y016593D02*
X029243Y016593D01*
X029284Y016494D02*
X029032Y016494D01*
X028953Y016396D02*
X029363Y016396D01*
X029524Y016297D02*
X028792Y016297D01*
X029792Y016297D02*
X030524Y016297D01*
X030363Y016396D02*
X029953Y016396D01*
X030032Y016494D02*
X030284Y016494D01*
X030243Y016593D02*
X030073Y016593D01*
X030083Y016691D02*
X030233Y016691D01*
X030234Y016790D02*
X030082Y016790D01*
X030041Y016888D02*
X030275Y016888D01*
X030342Y016987D02*
X029975Y016987D01*
X030792Y016297D02*
X031002Y016297D01*
X031314Y016297D02*
X031524Y016297D01*
X032278Y015509D02*
X029930Y015509D01*
X029687Y015509D02*
X028593Y015509D01*
X028527Y015410D02*
X029564Y015410D01*
X031374Y014720D02*
X031940Y014720D01*
X031874Y014622D02*
X031441Y014622D01*
X031465Y014523D02*
X031863Y014523D01*
X031899Y014425D02*
X031459Y014425D01*
X031417Y014326D02*
X032051Y014326D01*
X032121Y014228D02*
X031299Y014228D01*
X032411Y013636D02*
X030086Y013636D01*
X030096Y013538D02*
X032444Y013538D01*
X032411Y013618D02*
X032482Y013447D01*
X032613Y013316D01*
X032784Y013245D01*
X032828Y013245D01*
X032828Y013661D01*
X032828Y013662D02*
X032411Y013662D01*
X032411Y013618D01*
X032489Y013439D02*
X032182Y013439D01*
X032195Y013426D02*
X032133Y013488D01*
X032052Y013522D01*
X031964Y013522D01*
X031883Y013488D01*
X031822Y013426D01*
X031788Y013346D01*
X031788Y013258D01*
X031822Y013177D01*
X031883Y013115D01*
X031964Y013082D01*
X032052Y013082D01*
X032133Y013115D01*
X032195Y013177D01*
X032228Y013258D01*
X032228Y013346D01*
X032195Y013426D01*
X032228Y013341D02*
X032588Y013341D01*
X032524Y013144D02*
X032161Y013144D01*
X032221Y013242D02*
X035958Y013242D01*
X035958Y013144D02*
X035591Y013144D01*
X035788Y013045D02*
X035958Y013045D01*
X035958Y012947D02*
X035887Y012947D01*
X035948Y012848D02*
X035958Y012848D01*
X035958Y012257D02*
X035914Y012257D01*
X035958Y012158D02*
X035816Y012158D01*
X035958Y012060D02*
X035656Y012060D01*
X035507Y011863D02*
X035958Y011863D01*
X035958Y011961D02*
X035409Y011961D01*
X035560Y011764D02*
X035958Y011764D01*
X035958Y011665D02*
X035594Y011665D01*
X035577Y011468D02*
X035958Y011468D01*
X035958Y011370D02*
X035536Y011370D01*
X035450Y011271D02*
X035958Y011271D01*
X035958Y011173D02*
X035312Y011173D01*
X035452Y011074D02*
X035958Y011074D01*
X035958Y010976D02*
X035517Y010976D01*
X035554Y010877D02*
X035958Y010877D01*
X035958Y010779D02*
X035554Y010779D01*
X035533Y010680D02*
X035958Y010680D01*
X035958Y010581D02*
X035491Y010581D01*
X035393Y010483D02*
X035958Y010483D01*
X035958Y010384D02*
X035137Y010384D01*
X035129Y010286D02*
X035958Y010286D01*
X035958Y010187D02*
X035067Y010187D01*
X034971Y009990D02*
X035345Y009990D01*
X035276Y009892D02*
X035040Y009892D01*
X035081Y009793D02*
X035236Y009793D01*
X035233Y009695D02*
X035083Y009695D01*
X035075Y009596D02*
X035242Y009596D01*
X035282Y009498D02*
X035034Y009498D01*
X034282Y009498D02*
X034034Y009498D01*
X034075Y009596D02*
X034242Y009596D01*
X034233Y009695D02*
X034083Y009695D01*
X034081Y009793D02*
X034236Y009793D01*
X034276Y009892D02*
X034040Y009892D01*
X033971Y009990D02*
X034345Y009990D01*
X034639Y010187D02*
X034749Y010187D01*
X034835Y010089D02*
X035481Y010089D01*
X035835Y010089D02*
X035958Y010089D01*
X034825Y010581D02*
X034702Y010581D01*
X035197Y011567D02*
X035958Y011567D01*
X034956Y012257D02*
X033158Y012257D01*
X033203Y012355D02*
X033403Y012355D01*
X033305Y012454D02*
X033244Y012454D01*
X033252Y012552D02*
X033260Y012552D01*
X033233Y012749D02*
X033233Y012749D01*
X033258Y012848D02*
X033192Y012848D01*
X033131Y012947D02*
X033301Y012947D01*
X033400Y013045D02*
X033033Y013045D01*
X032835Y013144D02*
X035279Y013144D01*
X035082Y013045D02*
X033916Y013045D01*
X034015Y012947D02*
X034984Y012947D01*
X034923Y012848D02*
X034058Y012848D01*
X034083Y012749D02*
X034882Y012749D01*
X034862Y012651D02*
X034083Y012651D01*
X034056Y012552D02*
X034862Y012552D01*
X034871Y012454D02*
X034011Y012454D01*
X033913Y012355D02*
X034912Y012355D01*
X033389Y011370D02*
X030376Y011370D01*
X030040Y011370D02*
X030001Y011370D01*
X028647Y011468D02*
X033294Y011468D01*
X033254Y011567D02*
X028653Y011567D01*
X028606Y011665D02*
X033233Y011665D01*
X032458Y012060D02*
X032268Y012060D01*
X031812Y012257D02*
X029234Y012257D01*
X029238Y012355D02*
X031829Y012355D01*
X031809Y012454D02*
X029231Y012454D01*
X029190Y012552D02*
X031831Y012552D01*
X031905Y012651D02*
X030018Y012651D01*
X030052Y012685D02*
X029971Y012604D01*
X029865Y012560D01*
X029751Y012560D01*
X029645Y012604D01*
X029564Y012685D01*
X029520Y012790D01*
X029520Y012905D01*
X029564Y013011D01*
X029645Y013091D01*
X029751Y013135D01*
X029865Y013135D01*
X029971Y013091D01*
X030052Y013011D01*
X030096Y012905D01*
X030096Y012790D01*
X030052Y012685D01*
X030079Y012749D02*
X032126Y012749D01*
X032167Y012848D02*
X030096Y012848D01*
X030079Y012947D02*
X032228Y012947D01*
X032326Y013045D02*
X030018Y013045D01*
X029599Y013045D02*
X027658Y013045D01*
X027678Y012947D02*
X029538Y012947D01*
X029520Y012848D02*
X027653Y012848D01*
X027372Y012749D02*
X027294Y012749D01*
X027299Y012552D02*
X027374Y012552D01*
X027117Y012552D02*
X026395Y012552D01*
X026292Y012454D02*
X027012Y012454D01*
X026988Y012355D02*
X026364Y012355D01*
X026378Y012257D02*
X027009Y012257D01*
X027022Y012227D02*
X027022Y012227D01*
X026979Y012158D02*
X026452Y012158D01*
X026478Y012060D02*
X026963Y012060D01*
X026993Y011961D02*
X026459Y011961D01*
X026376Y011863D02*
X027126Y011863D01*
X027386Y011665D02*
X025956Y011665D01*
X025970Y011651D02*
X025908Y011713D01*
X025827Y011747D01*
X025739Y011747D01*
X025658Y011713D01*
X025597Y011651D01*
X025563Y011571D01*
X025563Y011483D01*
X025597Y011402D01*
X025658Y011340D01*
X025739Y011307D01*
X025827Y011307D01*
X025908Y011340D01*
X025970Y011402D01*
X026003Y011483D01*
X026003Y011571D01*
X025970Y011651D01*
X026003Y011567D02*
X027338Y011567D01*
X027344Y011468D02*
X025997Y011468D01*
X025937Y011370D02*
X027404Y011370D01*
X026140Y011863D02*
X025901Y011863D01*
X025984Y011961D02*
X026058Y011961D01*
X026038Y012060D02*
X026019Y012060D01*
X025713Y012355D02*
X025466Y012355D01*
X025406Y011665D02*
X025611Y011665D01*
X025563Y011567D02*
X025453Y011567D01*
X025447Y011468D02*
X025569Y011468D01*
X025629Y011370D02*
X025387Y011370D01*
X024530Y011468D02*
X024386Y011468D01*
X024446Y011567D02*
X024470Y011567D01*
X024463Y011665D02*
X024453Y011665D01*
X024407Y011764D02*
X024509Y011764D01*
X023974Y012749D02*
X023007Y012749D01*
X023084Y012848D02*
X023938Y012848D01*
X023949Y012947D02*
X023107Y012947D01*
X023089Y013045D02*
X023354Y013045D01*
X023279Y013144D02*
X023018Y013144D01*
X023612Y013045D02*
X024015Y013045D01*
X023687Y013144D02*
X027096Y013144D01*
X027320Y013144D02*
X027346Y013144D01*
X027570Y013144D02*
X031855Y013144D01*
X031795Y013242D02*
X023703Y013242D01*
X022709Y012749D02*
X021544Y012749D01*
X021372Y012749D02*
X021219Y012749D01*
X020883Y013538D02*
X019940Y013538D01*
X019957Y013636D02*
X020018Y013636D01*
X019933Y013735D02*
X019933Y013735D01*
X019913Y013833D02*
X019853Y013833D01*
X019939Y013932D02*
X018077Y013932D01*
X018099Y013941D02*
X018169Y014011D01*
X018207Y014102D01*
X018207Y014201D01*
X018169Y014293D01*
X018099Y014363D01*
X018008Y014401D01*
X017909Y014401D01*
X017817Y014363D01*
X017747Y014293D01*
X017709Y014201D01*
X017709Y014102D01*
X017747Y014011D01*
X017817Y013941D01*
X017909Y013903D01*
X018008Y013903D01*
X018099Y013941D01*
X018177Y014031D02*
X019228Y014031D01*
X019169Y014129D02*
X018207Y014129D01*
X018196Y014228D02*
X019159Y014228D01*
X019190Y014326D02*
X018136Y014326D01*
X017781Y014326D02*
X017218Y014326D01*
X017132Y014412D01*
X017019Y014459D01*
X016897Y014459D01*
X016784Y014412D01*
X016698Y014326D01*
X016439Y014326D01*
X016465Y014228D02*
X016657Y014228D01*
X016651Y014213D02*
X016698Y014326D01*
X016651Y014213D02*
X016651Y014091D01*
X016698Y013978D01*
X016784Y013891D01*
X016897Y013845D01*
X017019Y013845D01*
X017132Y013891D01*
X017218Y013978D01*
X017265Y014091D01*
X017265Y014213D01*
X017218Y014326D01*
X017259Y014228D02*
X017720Y014228D01*
X017709Y014129D02*
X017265Y014129D01*
X017240Y014031D02*
X017739Y014031D01*
X017839Y013932D02*
X017173Y013932D01*
X016744Y013932D02*
X016309Y013932D01*
X016420Y014031D02*
X016676Y014031D01*
X016651Y014129D02*
X016460Y014129D01*
X016370Y014425D02*
X016814Y014425D01*
X017102Y014425D02*
X019271Y014425D01*
X019639Y014819D02*
X017872Y014819D01*
X017907Y014917D02*
X019588Y014917D01*
X019584Y015016D02*
X017901Y015016D01*
X017847Y015114D02*
X019621Y015114D01*
X020045Y015114D02*
X022560Y015114D01*
X022513Y015016D02*
X020082Y015016D01*
X020078Y014917D02*
X021088Y014917D01*
X021023Y014819D02*
X020219Y014819D01*
X020308Y014720D02*
X021013Y014720D01*
X021052Y014622D02*
X020328Y014622D01*
X021614Y014917D02*
X022520Y014917D01*
X022580Y014819D02*
X021678Y014819D01*
X021700Y014031D02*
X021606Y014031D01*
X021866Y014031D02*
X021950Y014031D01*
X022116Y014031D02*
X022200Y014031D01*
X019524Y016297D02*
X018792Y016297D01*
X018953Y016396D02*
X019363Y016396D01*
X019284Y016494D02*
X019032Y016494D01*
X019073Y016593D02*
X019243Y016593D01*
X019233Y016691D02*
X019083Y016691D01*
X019082Y016790D02*
X019234Y016790D01*
X019275Y016888D02*
X019041Y016888D01*
X018975Y016987D02*
X019342Y016987D01*
X018342Y016987D02*
X017975Y016987D01*
X018041Y016888D02*
X018275Y016888D01*
X018234Y016790D02*
X018082Y016790D01*
X018083Y016691D02*
X018233Y016691D01*
X018243Y016593D02*
X018073Y016593D01*
X018032Y016494D02*
X018284Y016494D01*
X018363Y016396D02*
X017953Y016396D01*
X017792Y016297D02*
X018524Y016297D01*
X017524Y016297D02*
X016792Y016297D01*
X016953Y016396D02*
X017363Y016396D01*
X017284Y016494D02*
X017032Y016494D01*
X017073Y016593D02*
X017243Y016593D01*
X017233Y016691D02*
X017083Y016691D01*
X017082Y016790D02*
X017234Y016790D01*
X017275Y016888D02*
X017041Y016888D01*
X016975Y016987D02*
X017342Y016987D01*
X016342Y016987D02*
X015975Y016987D01*
X016041Y016888D02*
X016275Y016888D01*
X016234Y016790D02*
X016082Y016790D01*
X016083Y016691D02*
X016233Y016691D01*
X016243Y016593D02*
X016073Y016593D01*
X016032Y016494D02*
X016284Y016494D01*
X016363Y016396D02*
X015953Y016396D01*
X015792Y016297D02*
X016524Y016297D01*
X017469Y015114D02*
X014575Y015114D01*
X014449Y015016D02*
X017415Y015016D01*
X017409Y014917D02*
X014143Y014917D01*
X014165Y014819D02*
X017444Y014819D01*
X014317Y015016D02*
X014078Y015016D01*
X010524Y016297D02*
X009792Y016297D01*
X009953Y016396D02*
X010363Y016396D01*
X010284Y016494D02*
X010032Y016494D01*
X010073Y016593D02*
X010243Y016593D01*
X010233Y016691D02*
X010083Y016691D01*
X010082Y016790D02*
X010234Y016790D01*
X010275Y016888D02*
X010041Y016888D01*
X009975Y016987D02*
X010342Y016987D01*
X009342Y016987D02*
X008975Y016987D01*
X009041Y016888D02*
X009275Y016888D01*
X009234Y016790D02*
X009082Y016790D01*
X009083Y016691D02*
X009233Y016691D01*
X009243Y016593D02*
X009073Y016593D01*
X009032Y016494D02*
X009284Y016494D01*
X009363Y016396D02*
X008953Y016396D01*
X008792Y016297D02*
X009524Y016297D01*
X008524Y016297D02*
X007896Y016297D01*
X008010Y016396D02*
X008363Y016396D01*
X008284Y016494D02*
X008076Y016494D01*
X008116Y016593D02*
X008243Y016593D01*
X008233Y016691D02*
X007707Y016691D01*
X007609Y016691D02*
X007083Y016691D01*
X007082Y016790D02*
X007193Y016790D01*
X007232Y016888D02*
X007041Y016888D01*
X006975Y016987D02*
X007285Y016987D01*
X007200Y016593D02*
X007073Y016593D01*
X007032Y016494D02*
X007241Y016494D01*
X007306Y016396D02*
X006953Y016396D01*
X006792Y016297D02*
X007420Y016297D01*
X007610Y016297D02*
X007707Y016297D01*
X007707Y016396D02*
X007610Y016396D01*
X007610Y016494D02*
X007707Y016494D01*
X007707Y016593D02*
X007610Y016593D01*
X008031Y016987D02*
X008342Y016987D01*
X008275Y016888D02*
X008084Y016888D01*
X008123Y016790D02*
X008234Y016790D01*
X006524Y016297D02*
X006358Y016297D01*
X006358Y016396D02*
X006363Y016396D01*
X006358Y015213D02*
X006503Y015213D01*
X006364Y015114D02*
X006358Y015114D01*
X006838Y014228D02*
X009123Y014228D01*
X009088Y014129D02*
X006853Y014129D01*
X006903Y014031D02*
X008826Y014031D01*
X008788Y013932D02*
X006915Y013932D01*
X006896Y013833D02*
X008798Y013833D01*
X008864Y013735D02*
X006837Y013735D01*
X009161Y012060D02*
X009365Y012060D01*
X009338Y011961D02*
X009222Y011961D01*
X009228Y011863D02*
X009357Y011863D01*
X009437Y011764D02*
X009181Y011764D01*
X009349Y011468D02*
X006915Y011468D01*
X006895Y011370D02*
X009245Y011370D01*
X009204Y011271D02*
X006834Y011271D01*
X006670Y011173D02*
X009201Y011173D01*
X009229Y011074D02*
X006358Y011074D01*
X006358Y010976D02*
X009300Y010976D01*
X007707Y010089D02*
X007610Y010089D01*
X007610Y009990D02*
X007707Y009990D01*
X007707Y009892D02*
X007610Y009892D01*
X007610Y009793D02*
X007707Y009793D01*
X008118Y009596D02*
X008242Y009596D01*
X008282Y009498D02*
X008077Y009498D01*
X007288Y009990D02*
X006971Y009990D01*
X007040Y009892D02*
X007233Y009892D01*
X007193Y009793D02*
X007081Y009793D01*
X006835Y010089D02*
X007387Y010089D01*
X006546Y011173D02*
X006358Y011173D01*
X006358Y011271D02*
X006382Y011271D01*
X012954Y010483D02*
X012966Y010483D01*
X013297Y011271D02*
X017803Y011271D01*
X017822Y011252D02*
X017772Y011201D01*
X017822Y011252D02*
X017772Y011302D01*
X017738Y011383D01*
X017738Y011471D01*
X017772Y011551D01*
X017772Y011552D01*
X017772Y011552D01*
X017738Y011633D01*
X017738Y011721D01*
X017772Y011801D01*
X017833Y011863D01*
X017756Y011764D02*
X015081Y011764D01*
X015160Y011665D02*
X017738Y011665D01*
X017766Y011567D02*
X015178Y011567D01*
X015151Y011468D02*
X017738Y011468D01*
X017744Y011370D02*
X015033Y011370D01*
X014883Y011370D02*
X013157Y011370D01*
X015846Y010779D02*
X017740Y010779D01*
X017741Y010877D02*
X015915Y010877D01*
X015928Y010976D02*
X017762Y010976D01*
X017772Y010952D02*
X017772Y010952D01*
X017738Y011074D02*
X015896Y011074D01*
X019959Y009402D02*
X020019Y009461D01*
X020064Y009570D01*
X020068Y009565D01*
X020149Y009532D01*
X020237Y009532D01*
X020318Y009565D01*
X020380Y009627D01*
X020388Y009648D01*
X020397Y009627D01*
X020458Y009565D01*
X020539Y009532D01*
X020550Y009532D01*
X020577Y009467D01*
X020638Y009405D01*
X020647Y009402D01*
X019959Y009402D01*
X020034Y009498D02*
X020564Y009498D01*
X020428Y009596D02*
X020348Y009596D01*
X020364Y009892D02*
X020412Y009892D01*
X021087Y009695D02*
X021455Y009695D01*
X021708Y009793D02*
X021161Y009793D01*
X021178Y009892D02*
X022447Y009892D01*
X022398Y009793D02*
X022348Y009793D01*
X022028Y009793D02*
X021988Y009793D01*
X021170Y009990D02*
X026345Y009990D01*
X026276Y009892D02*
X024926Y009892D01*
X024790Y009892D02*
X023209Y009892D01*
X023271Y009793D02*
X024666Y009793D01*
X024638Y009695D02*
X023278Y009695D01*
X022907Y009892D02*
X022789Y009892D01*
X022838Y009793D02*
X022845Y009793D01*
X021230Y010089D02*
X026481Y010089D01*
X026835Y010089D02*
X027481Y010089D01*
X027345Y009990D02*
X026971Y009990D01*
X027040Y009892D02*
X027276Y009892D01*
X027236Y009793D02*
X027081Y009793D01*
X027083Y009695D02*
X027233Y009695D01*
X027242Y009596D02*
X027075Y009596D01*
X027034Y009498D02*
X027282Y009498D01*
X028034Y009498D02*
X028282Y009498D01*
X028242Y009596D02*
X028075Y009596D01*
X028083Y009695D02*
X028233Y009695D01*
X028236Y009793D02*
X028081Y009793D01*
X028040Y009892D02*
X028276Y009892D01*
X028345Y009990D02*
X027971Y009990D01*
X027835Y010089D02*
X028481Y010089D01*
X028835Y010089D02*
X029481Y010089D01*
X029345Y009990D02*
X028971Y009990D01*
X029040Y009892D02*
X029276Y009892D01*
X029236Y009793D02*
X029081Y009793D01*
X029083Y009695D02*
X029233Y009695D01*
X029242Y009596D02*
X029075Y009596D01*
X029034Y009498D02*
X029282Y009498D01*
X026282Y009498D02*
X026273Y009498D01*
X026242Y009596D02*
X026215Y009596D01*
X026233Y009695D02*
X025656Y009695D01*
X025453Y009793D02*
X026236Y009793D01*
X025123Y009793D02*
X025050Y009793D01*
X028972Y012749D02*
X029537Y012749D01*
X029598Y012651D02*
X029117Y012651D01*
X030000Y013341D02*
X031788Y013341D01*
X031834Y013439D02*
X030071Y013439D01*
X030036Y013735D02*
X032828Y013735D01*
X032828Y013833D02*
X032925Y013833D01*
X032925Y013932D02*
X032828Y013932D01*
X032828Y014031D02*
X032925Y014031D01*
X032925Y014129D02*
X032828Y014129D01*
X032955Y014326D02*
X033376Y014326D01*
X033277Y014425D02*
X033082Y014425D01*
X033171Y014523D02*
X033229Y014523D01*
X033081Y014129D02*
X033564Y014129D01*
X033383Y014031D02*
X033214Y014031D01*
X033288Y013932D02*
X033293Y013932D01*
X032925Y013636D02*
X032828Y013636D01*
X032828Y013538D02*
X032925Y013538D01*
X032925Y013439D02*
X032828Y013439D01*
X032828Y013341D02*
X032925Y013341D01*
X033165Y013341D02*
X033419Y013341D01*
X033319Y013439D02*
X033263Y013439D01*
X033897Y013341D02*
X034232Y013341D01*
X034120Y013439D02*
X033997Y013439D01*
X034053Y013538D02*
X034062Y013538D01*
X034670Y013341D02*
X035019Y013341D01*
X034908Y013439D02*
X034782Y013439D01*
X034840Y013538D02*
X034849Y013538D01*
X035458Y013341D02*
X035958Y013341D01*
X035958Y013439D02*
X035569Y013439D01*
X035627Y013538D02*
X035958Y013538D01*
X035958Y013636D02*
X035664Y013636D01*
X035664Y013735D02*
X035958Y013735D01*
X035958Y013833D02*
X035648Y013833D01*
X035607Y013932D02*
X035958Y013932D01*
X035958Y014031D02*
X035519Y014031D01*
X035338Y014129D02*
X035958Y014129D01*
X035958Y014228D02*
X032395Y014228D01*
X033945Y014031D02*
X034170Y014031D01*
X034083Y013932D02*
X034032Y013932D01*
X034732Y014031D02*
X034957Y014031D01*
X034870Y013932D02*
X034819Y013932D01*
X035711Y014326D02*
X035958Y014326D01*
X035958Y014425D02*
X035838Y014425D01*
X035927Y014523D02*
X035958Y014523D01*
D19*
X021088Y009392D02*
X020393Y009392D01*
X020308Y009477D01*
X020388Y009557D01*
X020388Y009922D01*
M02*
