G75*
G70*
%OFA0B0*%
%FSLAX24Y24*%
%IPPOS*%
%LPD*%
%AMOC8*
5,1,8,0,0,1.08239X$1,22.5*
%
%ADD10R,0.0079X0.0591*%
%ADD11R,0.0591X0.0079*%
%ADD12R,0.0400X0.0400*%
%ADD13R,0.0240X0.0230*%
%ADD14R,0.0230X0.0240*%
%ADD15R,0.0551X0.0394*%
%ADD16R,0.0400X0.0300*%
%ADD17R,0.0400X0.0200*%
%ADD18R,0.2756X0.1102*%
%ADD19R,0.0571X0.0709*%
%ADD20R,0.0610X0.0591*%
%ADD21R,0.1673X0.0394*%
%ADD22R,0.0945X0.0709*%
%ADD23R,0.0945X0.1024*%
D10*
X021217Y010151D03*
X021375Y010151D03*
X021532Y010151D03*
X021690Y010151D03*
X021847Y010151D03*
X022005Y010151D03*
X022162Y010151D03*
X022320Y010151D03*
X022477Y010151D03*
X022634Y010151D03*
X022792Y010151D03*
X022949Y010151D03*
X023107Y010151D03*
X023264Y010151D03*
X023422Y010151D03*
X023579Y010151D03*
X023737Y010151D03*
X023894Y010151D03*
X024052Y010151D03*
X024209Y010151D03*
X024367Y010151D03*
X024524Y010151D03*
X024682Y010151D03*
X024839Y010151D03*
X024997Y010151D03*
X025154Y010151D03*
X025312Y010151D03*
X025469Y010151D03*
X025627Y010151D03*
X025784Y010151D03*
X025942Y010151D03*
X026099Y010151D03*
X026099Y016253D03*
X025942Y016253D03*
X025784Y016253D03*
X025627Y016253D03*
X025469Y016253D03*
X025312Y016253D03*
X025154Y016253D03*
X024997Y016253D03*
X024839Y016253D03*
X024682Y016253D03*
X024524Y016253D03*
X024367Y016253D03*
X024209Y016253D03*
X024052Y016253D03*
X023894Y016253D03*
X023737Y016253D03*
X023579Y016253D03*
X023422Y016253D03*
X023264Y016253D03*
X023107Y016253D03*
X022949Y016253D03*
X022792Y016253D03*
X022634Y016253D03*
X022477Y016253D03*
X022320Y016253D03*
X022162Y016253D03*
X022005Y016253D03*
X021847Y016253D03*
X021690Y016253D03*
X021532Y016253D03*
X021375Y016253D03*
X021217Y016253D03*
D11*
X020607Y015643D03*
X020607Y015485D03*
X020607Y015328D03*
X020607Y015170D03*
X020607Y015013D03*
X020607Y014855D03*
X020607Y014698D03*
X020607Y014540D03*
X020607Y014383D03*
X020607Y014226D03*
X020607Y014068D03*
X020607Y013911D03*
X020607Y013753D03*
X020607Y013596D03*
X020607Y013438D03*
X020607Y013281D03*
X020607Y013123D03*
X020607Y012966D03*
X020607Y012808D03*
X020607Y012651D03*
X020607Y012493D03*
X020607Y012336D03*
X020607Y012178D03*
X020607Y012021D03*
X020607Y011863D03*
X020607Y011706D03*
X020607Y011548D03*
X020607Y011391D03*
X020607Y011233D03*
X020607Y011076D03*
X020607Y010918D03*
X020607Y010761D03*
X026709Y010761D03*
X026709Y010918D03*
X026709Y011076D03*
X026709Y011233D03*
X026709Y011391D03*
X026709Y011548D03*
X026709Y011706D03*
X026709Y011863D03*
X026709Y012021D03*
X026709Y012178D03*
X026709Y012336D03*
X026709Y012493D03*
X026709Y012651D03*
X026709Y012808D03*
X026709Y012966D03*
X026709Y013123D03*
X026709Y013281D03*
X026709Y013438D03*
X026709Y013596D03*
X026709Y013753D03*
X026709Y013911D03*
X026709Y014068D03*
X026709Y014226D03*
X026709Y014383D03*
X026709Y014540D03*
X026709Y014698D03*
X026709Y014855D03*
X026709Y015013D03*
X026709Y015170D03*
X026709Y015328D03*
X026709Y015485D03*
X026709Y015643D03*
D12*
X031358Y015952D03*
X031358Y015252D03*
X031358Y013802D03*
X031358Y013102D03*
X031358Y012502D03*
X031358Y011802D03*
X031508Y011152D03*
X031508Y010452D03*
X032208Y010452D03*
X032908Y010452D03*
X033508Y010452D03*
X034208Y010452D03*
X028258Y010402D03*
X027508Y010402D03*
X027508Y011102D03*
X028258Y011102D03*
X028258Y011902D03*
X027558Y011902D03*
X019758Y012952D03*
X019058Y012952D03*
X018358Y012352D03*
X018358Y011652D03*
X018358Y011052D03*
X018358Y010352D03*
X016008Y010352D03*
X015308Y010352D03*
X014508Y010352D03*
X014508Y011052D03*
X015308Y011052D03*
X016008Y011052D03*
X016008Y011652D03*
X016008Y012352D03*
X019058Y013902D03*
X019758Y013902D03*
X019758Y014502D03*
X019058Y014502D03*
X012408Y014602D03*
X011708Y014602D03*
X011708Y014002D03*
X011708Y013402D03*
X012408Y013402D03*
X012408Y014002D03*
X012408Y012702D03*
X011708Y012702D03*
D13*
X019008Y013427D03*
X019408Y013427D03*
X019508Y014977D03*
X019108Y014977D03*
X027458Y013952D03*
X027858Y013952D03*
X027958Y012652D03*
X027558Y012652D03*
D14*
X028758Y011702D03*
X028758Y011302D03*
D15*
X017541Y011076D03*
X016675Y010702D03*
X017541Y010328D03*
X016675Y011678D03*
X017541Y012052D03*
X016675Y012426D03*
D16*
X012008Y010352D03*
X012608Y010352D03*
X012608Y011352D03*
X012008Y011352D03*
D17*
X012008Y011002D03*
X012608Y011002D03*
X012608Y010702D03*
X012008Y010702D03*
D18*
X016908Y013321D03*
X016908Y015683D03*
D19*
X028846Y014402D03*
X030771Y014402D03*
D20*
X030694Y015602D03*
X028922Y015602D03*
X028922Y013202D03*
X030694Y013202D03*
X030694Y010802D03*
X028922Y010802D03*
D21*
X010538Y011202D03*
X010538Y012202D03*
X010538Y013202D03*
X010538Y014202D03*
X010538Y015202D03*
X008078Y015202D03*
X008078Y014202D03*
X008078Y013202D03*
X008078Y012202D03*
X008078Y011202D03*
D22*
X019358Y010614D03*
X019358Y012189D03*
D23*
X013708Y012992D03*
X013708Y015512D03*
M02*
