G75*
G70*
%OFA0B0*%
%FSLAX24Y24*%
%IPPOS*%
%LPD*%
%AMOC8*
5,1,8,0,0,1.08239X$1,22.5*
%
%ADD10C,0.0050*%
%ADD11C,0.0100*%
%ADD12C,0.0060*%
%ADD13C,0.0080*%
%ADD14C,0.0070*%
D10*
X007083Y009297D02*
X007210Y009297D01*
X007146Y009297D02*
X007146Y009487D01*
X007083Y009424D01*
X008033Y009455D02*
X008065Y009487D01*
X008128Y009487D01*
X008160Y009455D01*
X008160Y009424D01*
X008033Y009297D01*
X008160Y009297D01*
X009033Y009329D02*
X009065Y009297D01*
X009128Y009297D01*
X009160Y009329D01*
X009160Y009360D01*
X009128Y009392D01*
X009096Y009392D01*
X009128Y009392D02*
X009160Y009424D01*
X009160Y009455D01*
X009128Y009487D01*
X009065Y009487D01*
X009033Y009455D01*
X010033Y009392D02*
X010160Y009392D01*
X010128Y009297D02*
X010128Y009487D01*
X010033Y009392D01*
X011143Y009392D02*
X011206Y009424D01*
X011238Y009424D01*
X011270Y009392D01*
X011270Y009329D01*
X011238Y009297D01*
X011175Y009297D01*
X011143Y009329D01*
X011143Y009392D02*
X011143Y009487D01*
X011270Y009487D01*
X012033Y009392D02*
X012033Y009329D01*
X012065Y009297D01*
X012128Y009297D01*
X012160Y009329D01*
X012160Y009360D01*
X012128Y009392D01*
X012033Y009392D01*
X012096Y009455D01*
X012160Y009487D01*
X013033Y009487D02*
X013160Y009487D01*
X013160Y009455D01*
X013033Y009329D01*
X013033Y009297D01*
X014033Y009329D02*
X014033Y009360D01*
X014065Y009392D01*
X014128Y009392D01*
X014160Y009360D01*
X014160Y009329D01*
X014128Y009297D01*
X014065Y009297D01*
X014033Y009329D01*
X014065Y009392D02*
X014033Y009424D01*
X014033Y009455D01*
X014065Y009487D01*
X014128Y009487D01*
X014160Y009455D01*
X014160Y009424D01*
X014128Y009392D01*
X015033Y009424D02*
X015065Y009392D01*
X015160Y009392D01*
X015160Y009455D02*
X015128Y009487D01*
X015065Y009487D01*
X015033Y009455D01*
X015033Y009424D01*
X015033Y009329D02*
X015065Y009297D01*
X015128Y009297D01*
X015160Y009329D01*
X015160Y009455D01*
X015983Y009424D02*
X016046Y009487D01*
X016046Y009297D01*
X015983Y009297D02*
X016110Y009297D01*
X016204Y009329D02*
X016331Y009455D01*
X016331Y009329D01*
X016299Y009297D01*
X016236Y009297D01*
X016204Y009329D01*
X016204Y009455D01*
X016236Y009487D01*
X016299Y009487D01*
X016331Y009455D01*
X016983Y009424D02*
X017046Y009487D01*
X017046Y009297D01*
X016983Y009297D02*
X017110Y009297D01*
X017204Y009297D02*
X017331Y009297D01*
X017267Y009297D02*
X017267Y009487D01*
X017204Y009424D01*
X017983Y009424D02*
X018046Y009487D01*
X018046Y009297D01*
X017983Y009297D02*
X018110Y009297D01*
X018204Y009297D02*
X018331Y009424D01*
X018331Y009455D01*
X018299Y009487D01*
X018236Y009487D01*
X018204Y009455D01*
X018204Y009297D02*
X018331Y009297D01*
X018983Y009297D02*
X019110Y009297D01*
X019046Y009297D02*
X019046Y009487D01*
X018983Y009424D01*
X019204Y009455D02*
X019236Y009487D01*
X019299Y009487D01*
X019331Y009455D01*
X019331Y009424D01*
X019299Y009392D01*
X019331Y009360D01*
X019331Y009329D01*
X019299Y009297D01*
X019236Y009297D01*
X019204Y009329D01*
X019267Y009392D02*
X019299Y009392D01*
X019983Y009424D02*
X020046Y009487D01*
X020046Y009297D01*
X019983Y009297D02*
X020110Y009297D01*
X020204Y009392D02*
X020331Y009392D01*
X020299Y009297D02*
X020299Y009487D01*
X020204Y009392D01*
X018083Y010259D02*
X018083Y010322D01*
X018051Y010354D01*
X018051Y010448D02*
X018083Y010480D01*
X018083Y010543D01*
X018051Y010575D01*
X018020Y010575D01*
X017988Y010543D01*
X017988Y010511D01*
X017988Y010543D02*
X017956Y010575D01*
X017925Y010575D01*
X017893Y010543D01*
X017893Y010480D01*
X017925Y010448D01*
X017925Y010354D02*
X017893Y010322D01*
X017893Y010259D01*
X017925Y010227D01*
X018051Y010227D01*
X018083Y010259D01*
X018051Y010669D02*
X018083Y010701D01*
X018083Y010764D01*
X018051Y010796D01*
X018020Y010796D01*
X017988Y010764D01*
X017988Y010669D01*
X018051Y010669D01*
X017988Y010669D02*
X017925Y010732D01*
X017893Y010796D01*
X017925Y011602D02*
X018051Y011602D01*
X018083Y011634D01*
X018083Y011697D01*
X018051Y011729D01*
X018051Y011823D02*
X018083Y011855D01*
X018083Y011918D01*
X018051Y011950D01*
X018020Y011950D01*
X017988Y011918D01*
X017988Y011886D01*
X017988Y011918D02*
X017956Y011950D01*
X017925Y011950D01*
X017893Y011918D01*
X017893Y011855D01*
X017925Y011823D01*
X017925Y011729D02*
X017893Y011697D01*
X017893Y011634D01*
X017925Y011602D01*
X017893Y012044D02*
X017893Y012171D01*
X017925Y012171D01*
X018051Y012044D01*
X018083Y012044D01*
X020043Y012609D02*
X020075Y012577D01*
X020201Y012577D01*
X020233Y012609D01*
X020233Y012672D01*
X020201Y012704D01*
X020201Y012798D02*
X020233Y012830D01*
X020233Y012893D01*
X020201Y012925D01*
X020170Y012925D01*
X020138Y012893D01*
X020138Y012861D01*
X020138Y012893D02*
X020106Y012925D01*
X020075Y012925D01*
X020043Y012893D01*
X020043Y012830D01*
X020075Y012798D01*
X020075Y012704D02*
X020043Y012672D01*
X020043Y012609D01*
X020075Y013019D02*
X020106Y013019D01*
X020138Y013051D01*
X020138Y013146D01*
X020075Y013146D02*
X020043Y013114D01*
X020043Y013051D01*
X020075Y013019D01*
X020201Y013019D02*
X020233Y013051D01*
X020233Y013114D01*
X020201Y013146D01*
X020075Y013146D01*
X020069Y013336D02*
X020038Y013367D01*
X020038Y013399D01*
X020069Y013431D01*
X020133Y013431D01*
X020164Y013399D01*
X020164Y013367D01*
X020133Y013336D01*
X020069Y013336D01*
X020069Y013431D02*
X020038Y013463D01*
X020038Y013494D01*
X020069Y013526D01*
X020133Y013526D01*
X020164Y013494D01*
X020164Y013463D01*
X020133Y013431D01*
X019943Y013463D02*
X019912Y013431D01*
X019943Y013399D01*
X019943Y013367D01*
X019912Y013336D01*
X019848Y013336D01*
X019817Y013367D01*
X019880Y013431D02*
X019912Y013431D01*
X019943Y013463D02*
X019943Y013494D01*
X019912Y013526D01*
X019848Y013526D01*
X019817Y013494D01*
X019722Y013494D02*
X019691Y013526D01*
X019627Y013526D01*
X019596Y013494D01*
X019596Y013367D01*
X019627Y013336D01*
X019691Y013336D01*
X019722Y013367D01*
X021490Y011852D02*
X021554Y011788D01*
X021617Y011852D01*
X021617Y011662D01*
X021711Y011693D02*
X021743Y011662D01*
X021838Y011662D01*
X021838Y011757D01*
X021806Y011788D01*
X021743Y011788D01*
X021743Y011725D02*
X021838Y011725D01*
X021743Y011725D02*
X021711Y011693D01*
X021932Y011693D02*
X021932Y011757D01*
X021964Y011788D01*
X022059Y011788D01*
X022059Y011852D02*
X022059Y011662D01*
X021964Y011662D01*
X021932Y011693D01*
X022153Y011693D02*
X022185Y011662D01*
X022248Y011662D01*
X022280Y011725D02*
X022153Y011725D01*
X022153Y011757D02*
X022185Y011788D01*
X022248Y011788D01*
X022280Y011757D01*
X022280Y011725D01*
X022153Y011693D02*
X022153Y011757D01*
X022595Y011788D02*
X022627Y011788D01*
X022627Y011662D01*
X022595Y011662D02*
X022659Y011662D01*
X022742Y011662D02*
X022742Y011788D01*
X022838Y011788D01*
X022869Y011757D01*
X022869Y011662D01*
X022627Y011852D02*
X022627Y011883D01*
X023184Y011852D02*
X023184Y011662D01*
X023279Y011662D01*
X023311Y011693D01*
X023311Y011725D01*
X023279Y011757D01*
X023184Y011757D01*
X023184Y011852D02*
X023279Y011852D01*
X023311Y011820D01*
X023311Y011788D01*
X023279Y011757D01*
X023405Y011788D02*
X023405Y011693D01*
X023437Y011662D01*
X023532Y011662D01*
X023532Y011788D01*
X023626Y011852D02*
X023658Y011852D01*
X023658Y011662D01*
X023626Y011662D02*
X023690Y011662D01*
X023774Y011693D02*
X023805Y011662D01*
X023900Y011662D01*
X023900Y011630D02*
X023900Y011788D01*
X023805Y011788D01*
X023774Y011757D01*
X023774Y011693D01*
X023837Y011598D02*
X023869Y011598D01*
X023900Y011630D01*
X023995Y011693D02*
X024026Y011662D01*
X024121Y011662D01*
X024121Y011757D01*
X024090Y011788D01*
X024026Y011788D01*
X024026Y011725D02*
X024121Y011725D01*
X024026Y011725D02*
X023995Y011693D01*
X024216Y011662D02*
X024216Y011788D01*
X024279Y011788D02*
X024311Y011788D01*
X024279Y011788D02*
X024216Y011725D01*
X024400Y011788D02*
X024431Y011788D01*
X024431Y011662D01*
X024400Y011662D02*
X024463Y011662D01*
X024547Y011693D02*
X024579Y011725D01*
X024674Y011725D01*
X024674Y011757D02*
X024674Y011662D01*
X024579Y011662D01*
X024547Y011693D01*
X024579Y011788D02*
X024642Y011788D01*
X024674Y011757D01*
X024800Y011693D02*
X024800Y011662D01*
X024831Y011662D01*
X024831Y011693D01*
X024800Y011693D01*
X024831Y011662D02*
X024768Y011598D01*
X025136Y011662D02*
X025263Y011788D01*
X025263Y011820D01*
X025231Y011852D01*
X025168Y011852D01*
X025136Y011820D01*
X025136Y011662D02*
X025263Y011662D01*
X025357Y011693D02*
X025484Y011820D01*
X025484Y011693D01*
X025452Y011662D01*
X025389Y011662D01*
X025357Y011693D01*
X025357Y011820D01*
X025389Y011852D01*
X025452Y011852D01*
X025484Y011820D01*
X025578Y011788D02*
X025642Y011852D01*
X025642Y011662D01*
X025705Y011662D02*
X025578Y011662D01*
X025799Y011693D02*
X025831Y011662D01*
X025894Y011662D01*
X025926Y011693D01*
X025926Y011725D01*
X025894Y011757D01*
X025863Y011757D01*
X025894Y011757D02*
X025926Y011788D01*
X025926Y011820D01*
X025894Y011852D01*
X025831Y011852D01*
X025799Y011820D01*
X025818Y012122D02*
X025833Y012122D01*
X025913Y012162D02*
X025921Y012176D01*
X025926Y012191D01*
X025928Y012207D01*
X025913Y012162D02*
X025901Y012148D01*
X025886Y012137D01*
X025869Y012129D01*
X025851Y012124D01*
X025833Y012122D01*
X025818Y012122D02*
X025802Y012123D01*
X025786Y012128D01*
X025772Y012135D01*
X025759Y012145D01*
X025748Y012157D01*
X025739Y012171D01*
X025728Y012216D02*
X025728Y012252D01*
X025928Y012342D01*
X025928Y012388D01*
X025736Y012409D02*
X025730Y012381D01*
X025728Y012353D01*
X025728Y012252D01*
X025728Y012216D02*
X025729Y012201D01*
X025733Y012186D01*
X025739Y012171D01*
X025749Y012433D02*
X025763Y012448D01*
X025781Y012460D01*
X025800Y012468D01*
X025820Y012472D01*
X025830Y012472D02*
X025847Y012472D01*
X025861Y012471D01*
X025874Y012467D01*
X025887Y012461D01*
X025898Y012453D01*
X025918Y012422D02*
X025924Y012412D01*
X025927Y012400D01*
X025928Y012388D01*
X025925Y012405D02*
X025919Y012422D01*
X025910Y012438D01*
X025899Y012452D01*
X025749Y012433D02*
X025736Y012409D01*
X025575Y012395D02*
X025578Y012372D01*
X025386Y012409D02*
X025380Y012381D01*
X025378Y012353D01*
X025378Y012122D01*
X025248Y012122D02*
X025248Y012352D01*
X025088Y012282D01*
X025248Y012367D02*
X025245Y012386D01*
X025240Y012405D01*
X025232Y012423D01*
X025221Y012439D01*
X025207Y012453D01*
X025157Y012472D02*
X025130Y012472D01*
X025157Y012472D02*
X025171Y012471D01*
X025184Y012467D01*
X025197Y012461D01*
X025208Y012453D01*
X025248Y012367D02*
X025248Y012352D01*
X025130Y012472D02*
X025110Y012468D01*
X025091Y012460D01*
X025073Y012448D01*
X025059Y012433D01*
X025038Y012402D01*
X024898Y012472D02*
X024898Y012197D01*
X024896Y012181D01*
X024891Y012166D01*
X024883Y012152D01*
X024803Y012112D02*
X024788Y012112D01*
X024772Y012113D01*
X024756Y012118D01*
X024742Y012125D01*
X024729Y012135D01*
X024718Y012147D01*
X024709Y012161D01*
X024698Y012206D02*
X024698Y012207D01*
X024698Y012343D01*
X024698Y012472D02*
X024698Y012207D01*
X024696Y012191D01*
X024691Y012176D01*
X024683Y012162D01*
X024603Y012122D02*
X024588Y012122D01*
X024572Y012123D01*
X024556Y012128D01*
X024542Y012135D01*
X024529Y012145D01*
X024518Y012157D01*
X024509Y012171D01*
X024498Y012216D02*
X024498Y012473D01*
X024176Y012409D02*
X024170Y012381D01*
X024168Y012353D01*
X024168Y012216D01*
X024179Y012171D02*
X024188Y012157D01*
X024199Y012145D01*
X024212Y012135D01*
X024226Y012128D01*
X024242Y012123D01*
X024258Y012122D01*
X024273Y012122D01*
X024353Y012162D02*
X024361Y012176D01*
X024366Y012191D01*
X024368Y012207D01*
X024368Y012622D01*
X024287Y012472D02*
X024270Y012472D01*
X024287Y012472D02*
X024301Y012471D01*
X024314Y012467D01*
X024327Y012461D01*
X024338Y012453D01*
X024339Y012452D02*
X024350Y012438D01*
X024359Y012422D01*
X024365Y012405D01*
X024260Y012472D02*
X024240Y012468D01*
X024221Y012460D01*
X024203Y012448D01*
X024189Y012433D01*
X024176Y012409D01*
X024045Y012395D02*
X024048Y012372D01*
X023856Y012409D02*
X023850Y012381D01*
X023848Y012353D01*
X023848Y012122D01*
X023718Y012122D02*
X023718Y012352D01*
X023558Y012282D01*
X023718Y012367D02*
X023715Y012386D01*
X023710Y012405D01*
X023702Y012423D01*
X023691Y012439D01*
X023677Y012453D01*
X023627Y012472D02*
X023600Y012472D01*
X023627Y012472D02*
X023641Y012471D01*
X023654Y012467D01*
X023667Y012461D01*
X023678Y012453D01*
X023718Y012367D02*
X023718Y012352D01*
X023600Y012472D02*
X023580Y012468D01*
X023561Y012460D01*
X023543Y012448D01*
X023529Y012433D01*
X023508Y012402D01*
X023368Y012367D02*
X023368Y012122D01*
X023498Y012172D02*
X023502Y012159D01*
X023508Y012147D01*
X023517Y012137D01*
X023528Y012129D01*
X023541Y012123D01*
X023554Y012121D01*
X023568Y012122D01*
X023638Y012132D01*
X023498Y012172D02*
X023494Y012189D01*
X023495Y012206D01*
X023498Y012224D01*
X023505Y012240D01*
X023515Y012254D01*
X023527Y012266D01*
X023542Y012276D01*
X023558Y012282D01*
X023328Y012453D02*
X023317Y012461D01*
X023304Y012467D01*
X023291Y012471D01*
X023277Y012472D01*
X023250Y012472D01*
X023179Y012433D02*
X023158Y012402D01*
X023158Y012622D01*
X023158Y012402D02*
X023158Y012122D01*
X023368Y012367D02*
X023365Y012386D01*
X023360Y012405D01*
X023352Y012423D01*
X023341Y012439D01*
X023327Y012453D01*
X023250Y012472D02*
X023230Y012468D01*
X023211Y012460D01*
X023193Y012448D01*
X023179Y012433D01*
X023856Y012409D02*
X023869Y012433D01*
X023940Y012472D02*
X023957Y012472D01*
X024008Y012452D02*
X024019Y012441D01*
X024008Y012453D02*
X023997Y012461D01*
X023984Y012467D01*
X023971Y012471D01*
X023957Y012472D01*
X024019Y012442D02*
X024030Y012428D01*
X024039Y012412D01*
X024045Y012395D01*
X023940Y012472D02*
X023920Y012468D01*
X023901Y012460D01*
X023883Y012448D01*
X023869Y012433D01*
X024168Y012216D02*
X024169Y012201D01*
X024173Y012186D01*
X024179Y012171D01*
X024273Y012122D02*
X024291Y012124D01*
X024309Y012129D01*
X024326Y012137D01*
X024341Y012148D01*
X024353Y012162D01*
X024498Y012216D02*
X024499Y012201D01*
X024503Y012186D01*
X024509Y012171D01*
X024603Y012122D02*
X024621Y012124D01*
X024639Y012129D01*
X024656Y012137D01*
X024671Y012148D01*
X024683Y012162D01*
X024709Y012161D02*
X024703Y012176D01*
X024699Y012191D01*
X024698Y012206D01*
X024803Y012112D02*
X024821Y012114D01*
X024839Y012119D01*
X024856Y012127D01*
X024871Y012138D01*
X024883Y012152D01*
X025028Y012172D02*
X025032Y012159D01*
X025038Y012147D01*
X025047Y012137D01*
X025058Y012129D01*
X025071Y012123D01*
X025084Y012121D01*
X025098Y012122D01*
X025168Y012132D01*
X025028Y012172D02*
X025024Y012189D01*
X025025Y012206D01*
X025028Y012224D01*
X025035Y012240D01*
X025045Y012254D01*
X025057Y012266D01*
X025072Y012276D01*
X025088Y012282D01*
X025386Y012409D02*
X025399Y012433D01*
X025470Y012472D02*
X025487Y012472D01*
X025538Y012452D02*
X025549Y012441D01*
X025538Y012453D02*
X025527Y012461D01*
X025514Y012467D01*
X025501Y012471D01*
X025487Y012472D01*
X025549Y012442D02*
X025560Y012428D01*
X025569Y012412D01*
X025575Y012395D01*
X025470Y012472D02*
X025450Y012468D01*
X025431Y012460D01*
X025413Y012448D01*
X025399Y012433D01*
X024431Y011883D02*
X024431Y011852D01*
X026655Y010649D02*
X026655Y010459D01*
X026655Y010523D02*
X026750Y010523D01*
X026782Y010554D01*
X026782Y010618D01*
X026750Y010649D01*
X026655Y010649D01*
X026718Y010523D02*
X026782Y010459D01*
X026876Y010459D02*
X027003Y010459D01*
X026939Y010459D02*
X026939Y010649D01*
X026876Y010586D01*
X027097Y010554D02*
X027224Y010554D01*
X027192Y010459D02*
X027192Y010649D01*
X027097Y010554D01*
X027786Y010496D02*
X027976Y010496D01*
X027976Y010433D02*
X027976Y010560D01*
X027945Y010654D02*
X027913Y010654D01*
X027881Y010686D01*
X027881Y010749D01*
X027913Y010781D01*
X027945Y010781D01*
X027976Y010749D01*
X027976Y010686D01*
X027945Y010654D01*
X027881Y010686D02*
X027850Y010654D01*
X027818Y010654D01*
X027786Y010686D01*
X027786Y010749D01*
X027818Y010781D01*
X027850Y010781D01*
X027881Y010749D01*
X027786Y010496D02*
X027850Y010433D01*
X027881Y010339D02*
X027913Y010307D01*
X027913Y010212D01*
X027976Y010212D02*
X027786Y010212D01*
X027786Y010307D01*
X027818Y010339D01*
X027881Y010339D01*
X027913Y010275D02*
X027976Y010339D01*
X028023Y009477D02*
X027991Y009445D01*
X028023Y009477D02*
X028086Y009477D01*
X028118Y009445D01*
X028118Y009414D01*
X027991Y009287D01*
X028118Y009287D01*
X028212Y009319D02*
X028244Y009287D01*
X028307Y009287D01*
X028339Y009319D01*
X028339Y009350D01*
X028307Y009382D01*
X028276Y009382D01*
X028307Y009382D02*
X028339Y009414D01*
X028339Y009445D01*
X028307Y009477D01*
X028244Y009477D01*
X028212Y009445D01*
X028991Y009445D02*
X029023Y009477D01*
X029086Y009477D01*
X029118Y009445D01*
X029118Y009414D01*
X028991Y009287D01*
X029118Y009287D01*
X029212Y009382D02*
X029339Y009382D01*
X029307Y009477D02*
X029212Y009382D01*
X029307Y009287D02*
X029307Y009477D01*
X029991Y009445D02*
X030023Y009477D01*
X030086Y009477D01*
X030118Y009445D01*
X030118Y009414D01*
X029991Y009287D01*
X030118Y009287D01*
X030212Y009319D02*
X030244Y009287D01*
X030307Y009287D01*
X030339Y009319D01*
X030339Y009382D01*
X030307Y009414D01*
X030276Y009414D01*
X030212Y009382D01*
X030212Y009477D01*
X030339Y009477D01*
X030991Y009445D02*
X031023Y009477D01*
X031086Y009477D01*
X031118Y009445D01*
X031118Y009414D01*
X030991Y009287D01*
X031118Y009287D01*
X031212Y009319D02*
X031244Y009287D01*
X031307Y009287D01*
X031339Y009319D01*
X031339Y009350D01*
X031307Y009382D01*
X031212Y009382D01*
X031212Y009319D01*
X031212Y009382D02*
X031276Y009445D01*
X031339Y009477D01*
X031991Y009445D02*
X032023Y009477D01*
X032086Y009477D01*
X032118Y009445D01*
X032118Y009414D01*
X031991Y009287D01*
X032118Y009287D01*
X032212Y009287D02*
X032212Y009319D01*
X032339Y009445D01*
X032339Y009477D01*
X032212Y009477D01*
X032991Y009445D02*
X033023Y009477D01*
X033086Y009477D01*
X033118Y009445D01*
X033118Y009414D01*
X032991Y009287D01*
X033118Y009287D01*
X033212Y009319D02*
X033212Y009350D01*
X033244Y009382D01*
X033307Y009382D01*
X033339Y009350D01*
X033339Y009319D01*
X033307Y009287D01*
X033244Y009287D01*
X033212Y009319D01*
X033244Y009382D02*
X033212Y009414D01*
X033212Y009445D01*
X033244Y009477D01*
X033307Y009477D01*
X033339Y009445D01*
X033339Y009414D01*
X033307Y009382D01*
X033991Y009445D02*
X034023Y009477D01*
X034086Y009477D01*
X034118Y009445D01*
X034118Y009414D01*
X033991Y009287D01*
X034118Y009287D01*
X034212Y009319D02*
X034244Y009287D01*
X034307Y009287D01*
X034339Y009319D01*
X034339Y009445D01*
X034307Y009477D01*
X034244Y009477D01*
X034212Y009445D01*
X034212Y009414D01*
X034244Y009382D01*
X034339Y009382D01*
X034991Y009445D02*
X035023Y009477D01*
X035086Y009477D01*
X035118Y009445D01*
X035118Y009414D01*
X035086Y009382D01*
X035118Y009350D01*
X035118Y009319D01*
X035086Y009287D01*
X035023Y009287D01*
X034991Y009319D01*
X035055Y009382D02*
X035086Y009382D01*
X035212Y009319D02*
X035212Y009445D01*
X035244Y009477D01*
X035307Y009477D01*
X035339Y009445D01*
X035212Y009319D01*
X035244Y009287D01*
X035307Y009287D01*
X035339Y009319D01*
X035339Y009445D01*
X034433Y010727D02*
X034243Y010727D01*
X034433Y010727D02*
X034433Y010854D01*
X034433Y010948D02*
X034433Y011011D01*
X034433Y010980D02*
X034243Y010980D01*
X034243Y011011D02*
X034243Y010948D01*
X034243Y011095D02*
X034243Y011190D01*
X034275Y011222D01*
X034338Y011222D01*
X034370Y011190D01*
X034370Y011095D01*
X034433Y011095D02*
X034243Y011095D01*
X034275Y011316D02*
X034243Y011348D01*
X034243Y011411D01*
X034275Y011443D01*
X034401Y011443D01*
X034433Y011411D01*
X034433Y011348D01*
X034401Y011316D01*
X034275Y011316D01*
X034243Y011627D02*
X034243Y011722D01*
X034275Y011754D01*
X034306Y011754D01*
X034338Y011722D01*
X034338Y011627D01*
X034338Y011722D02*
X034370Y011754D01*
X034401Y011754D01*
X034433Y011722D01*
X034433Y011627D01*
X034243Y011627D01*
X034306Y011848D02*
X034243Y011911D01*
X034306Y011975D01*
X034433Y011975D01*
X034338Y011975D02*
X034338Y011848D01*
X034306Y011848D02*
X034433Y011848D01*
X034433Y012132D02*
X034243Y012132D01*
X034243Y012069D02*
X034243Y012196D01*
X031103Y012327D02*
X031103Y012517D01*
X030976Y012517D02*
X030976Y012327D01*
X031039Y012390D01*
X031103Y012327D01*
X030882Y012359D02*
X030882Y012390D01*
X030850Y012422D01*
X030787Y012422D01*
X030755Y012454D01*
X030755Y012485D01*
X030787Y012517D01*
X030850Y012517D01*
X030882Y012485D01*
X030882Y012359D02*
X030850Y012327D01*
X030787Y012327D01*
X030755Y012359D01*
X030661Y012422D02*
X030629Y012390D01*
X030534Y012390D01*
X030534Y012327D02*
X030534Y012517D01*
X030629Y012517D01*
X030661Y012485D01*
X030661Y012422D01*
X030440Y012295D02*
X030313Y012295D01*
X030219Y012359D02*
X030219Y012422D01*
X030155Y012422D01*
X030092Y012485D02*
X030092Y012359D01*
X030124Y012327D01*
X030187Y012327D01*
X030219Y012359D01*
X030219Y012485D02*
X030187Y012517D01*
X030124Y012517D01*
X030092Y012485D01*
X029998Y012454D02*
X029998Y012327D01*
X029998Y012422D02*
X029871Y012422D01*
X029871Y012454D02*
X029934Y012517D01*
X029998Y012454D01*
X029871Y012454D02*
X029871Y012327D01*
X029713Y012327D02*
X029713Y012517D01*
X029650Y012517D02*
X029777Y012517D01*
X029556Y012517D02*
X029492Y012517D01*
X029524Y012517D02*
X029524Y012359D01*
X029492Y012327D01*
X029461Y012327D01*
X029429Y012359D01*
X029335Y012359D02*
X029303Y012327D01*
X029240Y012327D01*
X029208Y012359D01*
X029240Y012422D02*
X029303Y012422D01*
X029335Y012390D01*
X029335Y012359D01*
X029240Y012422D02*
X029208Y012454D01*
X029208Y012485D01*
X029240Y012517D01*
X029303Y012517D01*
X029335Y012485D01*
X027307Y009477D02*
X027244Y009477D01*
X027212Y009445D01*
X027118Y009445D02*
X027086Y009477D01*
X027023Y009477D01*
X026991Y009445D01*
X027118Y009445D02*
X027118Y009414D01*
X026991Y009287D01*
X027118Y009287D01*
X027212Y009287D02*
X027339Y009414D01*
X027339Y009445D01*
X027307Y009477D01*
X027339Y009287D02*
X027212Y009287D01*
X026289Y009287D02*
X026162Y009287D01*
X026226Y009287D02*
X026226Y009477D01*
X026162Y009414D01*
X026068Y009414D02*
X026068Y009445D01*
X026036Y009477D01*
X025973Y009477D01*
X025941Y009445D01*
X026068Y009414D02*
X025941Y009287D01*
X026068Y009287D01*
X021490Y011662D02*
X021490Y011852D01*
X020349Y016927D02*
X020349Y017117D01*
X020254Y017022D01*
X020381Y017022D01*
X020160Y016927D02*
X020033Y016927D01*
X020096Y016927D02*
X020096Y017117D01*
X020033Y017054D01*
X019331Y017054D02*
X019299Y017022D01*
X019331Y016990D01*
X019331Y016959D01*
X019299Y016927D01*
X019236Y016927D01*
X019204Y016959D01*
X019267Y017022D02*
X019299Y017022D01*
X019331Y017054D02*
X019331Y017085D01*
X019299Y017117D01*
X019236Y017117D01*
X019204Y017085D01*
X019046Y017117D02*
X019046Y016927D01*
X018983Y016927D02*
X019110Y016927D01*
X018983Y017054D02*
X019046Y017117D01*
X018331Y017085D02*
X018331Y017054D01*
X018204Y016927D01*
X018331Y016927D01*
X018331Y017085D02*
X018299Y017117D01*
X018236Y017117D01*
X018204Y017085D01*
X018046Y017117D02*
X018046Y016927D01*
X017983Y016927D02*
X018110Y016927D01*
X017983Y017054D02*
X018046Y017117D01*
X017331Y016927D02*
X017204Y016927D01*
X017267Y016927D02*
X017267Y017117D01*
X017204Y017054D01*
X017110Y016927D02*
X016983Y016927D01*
X017046Y016927D02*
X017046Y017117D01*
X016983Y017054D01*
X016331Y017085D02*
X016204Y016959D01*
X016236Y016927D01*
X016299Y016927D01*
X016331Y016959D01*
X016331Y017085D01*
X016299Y017117D01*
X016236Y017117D01*
X016204Y017085D01*
X016204Y016959D01*
X016110Y016927D02*
X015983Y016927D01*
X016046Y016927D02*
X016046Y017117D01*
X015983Y017054D01*
X015160Y017022D02*
X015065Y017022D01*
X015033Y017054D01*
X015033Y017085D01*
X015065Y017117D01*
X015128Y017117D01*
X015160Y017085D01*
X015160Y016959D01*
X015128Y016927D01*
X015065Y016927D01*
X015033Y016959D01*
X014160Y016959D02*
X014128Y016927D01*
X014065Y016927D01*
X014033Y016959D01*
X014033Y016990D01*
X014065Y017022D01*
X014128Y017022D01*
X014160Y016990D01*
X014160Y016959D01*
X014128Y017022D02*
X014160Y017054D01*
X014160Y017085D01*
X014128Y017117D01*
X014065Y017117D01*
X014033Y017085D01*
X014033Y017054D01*
X014065Y017022D01*
X013160Y017085D02*
X013033Y016959D01*
X013033Y016927D01*
X013033Y017117D02*
X013160Y017117D01*
X013160Y017085D01*
X012160Y017117D02*
X012096Y017085D01*
X012033Y017022D01*
X012128Y017022D01*
X012160Y016990D01*
X012160Y016959D01*
X012128Y016927D01*
X012065Y016927D01*
X012033Y016959D01*
X012033Y017022D01*
X011270Y017022D02*
X011270Y016959D01*
X011238Y016927D01*
X011175Y016927D01*
X011143Y016959D01*
X011143Y017022D02*
X011206Y017054D01*
X011238Y017054D01*
X011270Y017022D01*
X011270Y017117D02*
X011143Y017117D01*
X011143Y017022D01*
X010160Y017022D02*
X010033Y017022D01*
X010128Y017117D01*
X010128Y016927D01*
X009160Y016959D02*
X009128Y016927D01*
X009065Y016927D01*
X009033Y016959D01*
X009096Y017022D02*
X009128Y017022D01*
X009160Y016990D01*
X009160Y016959D01*
X009128Y017022D02*
X009160Y017054D01*
X009160Y017085D01*
X009128Y017117D01*
X009065Y017117D01*
X009033Y017085D01*
X008160Y017054D02*
X008160Y017085D01*
X008128Y017117D01*
X008065Y017117D01*
X008033Y017085D01*
X008160Y017054D02*
X008033Y016927D01*
X008160Y016927D01*
X007210Y016927D02*
X007083Y016927D01*
X007146Y016927D02*
X007146Y017117D01*
X007083Y017054D01*
X025941Y017075D02*
X025973Y017107D01*
X026036Y017107D01*
X026068Y017075D01*
X026068Y017044D01*
X025941Y016917D01*
X026068Y016917D01*
X026162Y016917D02*
X026289Y016917D01*
X026226Y016917D02*
X026226Y017107D01*
X026162Y017044D01*
X026991Y017075D02*
X027023Y017107D01*
X027086Y017107D01*
X027118Y017075D01*
X027118Y017044D01*
X026991Y016917D01*
X027118Y016917D01*
X027212Y016917D02*
X027339Y017044D01*
X027339Y017075D01*
X027307Y017107D01*
X027244Y017107D01*
X027212Y017075D01*
X027212Y016917D02*
X027339Y016917D01*
X027991Y016917D02*
X028118Y017044D01*
X028118Y017075D01*
X028086Y017107D01*
X028023Y017107D01*
X027991Y017075D01*
X027991Y016917D02*
X028118Y016917D01*
X028212Y016949D02*
X028244Y016917D01*
X028307Y016917D01*
X028339Y016949D01*
X028339Y016980D01*
X028307Y017012D01*
X028276Y017012D01*
X028307Y017012D02*
X028339Y017044D01*
X028339Y017075D01*
X028307Y017107D01*
X028244Y017107D01*
X028212Y017075D01*
X028991Y017075D02*
X029023Y017107D01*
X029086Y017107D01*
X029118Y017075D01*
X029118Y017044D01*
X028991Y016917D01*
X029118Y016917D01*
X029212Y017012D02*
X029307Y017107D01*
X029307Y016917D01*
X029339Y017012D02*
X029212Y017012D01*
X029991Y017075D02*
X030023Y017107D01*
X030086Y017107D01*
X030118Y017075D01*
X030118Y017044D01*
X029991Y016917D01*
X030118Y016917D01*
X030212Y016949D02*
X030244Y016917D01*
X030307Y016917D01*
X030339Y016949D01*
X030339Y017012D01*
X030307Y017044D01*
X030276Y017044D01*
X030212Y017012D01*
X030212Y017107D01*
X030339Y017107D01*
X030991Y017075D02*
X031023Y017107D01*
X031086Y017107D01*
X031118Y017075D01*
X031118Y017044D01*
X030991Y016917D01*
X031118Y016917D01*
X031212Y016949D02*
X031244Y016917D01*
X031307Y016917D01*
X031339Y016949D01*
X031339Y016980D01*
X031307Y017012D01*
X031212Y017012D01*
X031212Y016949D01*
X031212Y017012D02*
X031276Y017075D01*
X031339Y017107D01*
X032041Y017075D02*
X032073Y017107D01*
X032136Y017107D01*
X032168Y017075D01*
X032168Y017044D01*
X032041Y016917D01*
X032168Y016917D01*
X032262Y016917D02*
X032262Y016949D01*
X032389Y017075D01*
X032389Y017107D01*
X032262Y017107D01*
X032991Y017075D02*
X033023Y017107D01*
X033086Y017107D01*
X033118Y017075D01*
X033118Y017044D01*
X032991Y016917D01*
X033118Y016917D01*
X033100Y016846D02*
X033068Y016814D01*
X033068Y016719D01*
X033258Y016719D01*
X033258Y016814D01*
X033226Y016846D01*
X033100Y016846D01*
X033212Y016949D02*
X033212Y016980D01*
X033244Y017012D01*
X033307Y017012D01*
X033339Y016980D01*
X033339Y016949D01*
X033307Y016917D01*
X033244Y016917D01*
X033212Y016949D01*
X033244Y017012D02*
X033212Y017044D01*
X033212Y017075D01*
X033244Y017107D01*
X033307Y017107D01*
X033339Y017075D01*
X033339Y017044D01*
X033307Y017012D01*
X033258Y016625D02*
X033068Y016625D01*
X033068Y016498D02*
X033258Y016625D01*
X033258Y016498D02*
X033068Y016498D01*
X033100Y016404D02*
X033068Y016372D01*
X033068Y016309D01*
X033100Y016277D01*
X033226Y016277D01*
X033258Y016309D01*
X033258Y016372D01*
X033226Y016404D01*
X033163Y016404D01*
X033163Y016340D01*
X034068Y016340D02*
X034258Y016340D01*
X034258Y016498D02*
X034068Y016625D01*
X034068Y016498D02*
X034258Y016625D01*
X034068Y016404D02*
X034068Y016277D01*
X035068Y016277D02*
X035068Y016372D01*
X035100Y016404D01*
X035163Y016404D01*
X035195Y016372D01*
X035195Y016277D01*
X035258Y016277D02*
X035068Y016277D01*
X035195Y016340D02*
X035258Y016404D01*
X035258Y016498D02*
X035068Y016625D01*
X035068Y016498D02*
X035258Y016625D01*
X035244Y016917D02*
X035212Y016949D01*
X035339Y017075D01*
X035339Y016949D01*
X035307Y016917D01*
X035244Y016917D01*
X035212Y016949D02*
X035212Y017075D01*
X035244Y017107D01*
X035307Y017107D01*
X035339Y017075D01*
X035118Y017075D02*
X035118Y017044D01*
X035086Y017012D01*
X035118Y016980D01*
X035118Y016949D01*
X035086Y016917D01*
X035023Y016917D01*
X034991Y016949D01*
X035055Y017012D02*
X035086Y017012D01*
X035118Y017075D02*
X035086Y017107D01*
X035023Y017107D01*
X034991Y017075D01*
X034339Y017075D02*
X034339Y016949D01*
X034307Y016917D01*
X034244Y016917D01*
X034212Y016949D01*
X034244Y017012D02*
X034339Y017012D01*
X034339Y017075D02*
X034307Y017107D01*
X034244Y017107D01*
X034212Y017075D01*
X034212Y017044D01*
X034244Y017012D01*
X034118Y017044D02*
X034118Y017075D01*
X034086Y017107D01*
X034023Y017107D01*
X033991Y017075D01*
X034118Y017044D02*
X033991Y016917D01*
X034118Y016917D01*
D11*
X034008Y016202D02*
X033308Y016202D01*
X033158Y016052D01*
X033008Y016202D01*
X032308Y016202D01*
X032158Y016052D01*
X032158Y015352D01*
X032308Y015202D01*
X033008Y015202D01*
X033158Y015352D01*
X033308Y015202D01*
X034008Y015202D01*
X034158Y015052D01*
X034158Y014352D01*
X034008Y014202D01*
X034158Y014052D01*
X034158Y013352D01*
X034008Y013202D01*
X034158Y013052D01*
X034158Y012352D01*
X034008Y012202D01*
X033308Y012202D01*
X033158Y012352D01*
X033158Y013052D01*
X033308Y013202D01*
X033158Y013352D01*
X033158Y014052D01*
X033308Y014202D01*
X033158Y014352D01*
X033158Y015052D01*
X033308Y015202D01*
X034008Y015202D01*
X034158Y015352D01*
X034308Y015202D01*
X035008Y015202D01*
X035158Y015352D01*
X035158Y016052D01*
X035308Y016202D01*
X036008Y016202D01*
X036158Y016202D01*
X036158Y016052D01*
X036008Y016202D01*
X036158Y016052D02*
X036158Y015352D01*
X036158Y015202D01*
X036008Y015202D01*
X035308Y015202D01*
X035158Y015352D01*
X036008Y015202D02*
X036158Y015352D01*
X035158Y016052D02*
X035008Y016202D01*
X034308Y016202D01*
X034158Y016052D01*
X034008Y016202D01*
X032463Y014832D02*
X040022Y014832D01*
X040258Y015068D01*
X040258Y012352D01*
X040022Y012588D01*
X040022Y014832D01*
X039589Y014124D02*
X038014Y013887D01*
X038014Y013533D01*
X039589Y013297D01*
X040022Y012588D02*
X032463Y012588D01*
X032463Y014832D01*
X032796Y014224D02*
X033063Y014224D01*
X034976Y013170D02*
X035243Y013170D01*
X035110Y013303D02*
X035110Y013036D01*
X034528Y012383D02*
X037638Y012383D01*
X037638Y010021D01*
X034528Y010021D01*
X034528Y012383D01*
X034158Y012052D02*
X034008Y012202D01*
X034158Y012052D02*
X034158Y011352D01*
X034158Y011202D01*
X034008Y011202D01*
X034158Y011352D01*
X034008Y011202D02*
X033308Y011202D01*
X033158Y011202D01*
X033158Y011352D01*
X033158Y012052D01*
X033308Y012202D01*
X031808Y011402D02*
X031758Y011452D01*
X031708Y011502D01*
X031308Y011502D01*
X031258Y011452D01*
X031208Y011402D01*
X031808Y011402D01*
X031808Y010952D01*
X031808Y010652D02*
X031808Y010152D01*
X031208Y010152D01*
X031208Y010652D01*
X031208Y010952D02*
X031208Y011402D01*
X031258Y011452D02*
X031758Y011452D01*
X030596Y011392D02*
X029021Y011392D01*
X029021Y011274D01*
X029021Y010329D02*
X029021Y010211D01*
X030596Y010211D01*
X030596Y010329D01*
X030596Y011274D02*
X030596Y011392D01*
X030596Y012611D02*
X029021Y012611D01*
X029021Y012729D01*
X029021Y013674D02*
X029021Y013792D01*
X030596Y013792D01*
X030596Y013674D01*
X030055Y014008D02*
X030055Y014796D01*
X029464Y014402D01*
X030055Y014008D01*
X029458Y013952D02*
X029458Y014852D01*
X029021Y015011D02*
X029021Y015129D01*
X029021Y015011D02*
X030596Y015011D01*
X030596Y015129D01*
X030596Y016074D02*
X030596Y016192D01*
X029021Y016192D01*
X029021Y016074D01*
X026257Y015800D02*
X026257Y010603D01*
X021217Y010603D01*
X021060Y010761D01*
X021060Y015800D01*
X026257Y015800D01*
X024808Y015082D02*
X024568Y014742D01*
X024708Y014402D01*
X025118Y014322D01*
X025118Y013962D01*
X024718Y013892D01*
X024578Y013532D01*
X024808Y013202D01*
X024558Y012952D01*
X024238Y013172D01*
X024088Y013082D01*
X023838Y013712D01*
X023908Y013692D02*
X024108Y013172D01*
X024228Y013232D01*
X024528Y013042D01*
X024558Y013022D01*
X024738Y013222D01*
X024508Y013552D01*
X024678Y013932D01*
X025068Y014012D01*
X025068Y014292D01*
X024648Y014382D01*
X024508Y014772D01*
X024748Y015082D01*
X024568Y015272D01*
X024198Y015012D01*
X023828Y015202D01*
X023738Y015622D01*
X023478Y015612D01*
X023398Y015212D01*
X023068Y015052D01*
X023008Y015012D01*
X022788Y015182D01*
X022678Y015282D01*
X022648Y015272D01*
X022488Y015092D01*
X022718Y014742D01*
X022578Y014362D01*
X022178Y014272D01*
X022178Y014002D01*
X022528Y013922D01*
X022698Y013542D01*
X022488Y013192D01*
X022678Y013032D01*
X022988Y013232D01*
X023098Y013162D01*
X023308Y013702D01*
X023108Y013942D01*
X023058Y014252D01*
X023218Y014532D01*
X023548Y014692D01*
X023858Y014632D01*
X024048Y014472D01*
X024138Y014222D01*
X024138Y014022D01*
X023998Y013752D01*
X023908Y013692D01*
X023929Y013636D02*
X024546Y013636D01*
X024518Y013538D02*
X023967Y013538D01*
X024005Y013439D02*
X024587Y013439D01*
X024655Y013341D02*
X024043Y013341D01*
X024081Y013242D02*
X024724Y013242D01*
X024668Y013144D02*
X024367Y013144D01*
X024523Y013045D02*
X024579Y013045D01*
X024590Y013735D02*
X023973Y013735D01*
X024040Y013833D02*
X024634Y013833D01*
X024678Y013932D02*
X024091Y013932D01*
X024138Y014031D02*
X025068Y014031D01*
X025068Y014129D02*
X024138Y014129D01*
X024136Y014228D02*
X025068Y014228D01*
X024908Y014326D02*
X024101Y014326D01*
X024065Y014425D02*
X024633Y014425D01*
X024597Y014523D02*
X023987Y014523D01*
X023870Y014622D02*
X024562Y014622D01*
X024527Y014720D02*
X022710Y014720D01*
X022658Y014742D02*
X022428Y015082D01*
X022668Y015332D01*
X023018Y015092D01*
X023358Y015232D01*
X023438Y015652D01*
X023788Y015652D01*
X023868Y015232D01*
X024198Y015092D01*
X024558Y015332D01*
X024808Y015082D01*
X024717Y015114D02*
X024344Y015114D01*
X024204Y015016D02*
X024697Y015016D01*
X024621Y014917D02*
X022603Y014917D01*
X022668Y014819D02*
X024544Y014819D01*
X024190Y015016D02*
X023014Y015016D01*
X023003Y015016D02*
X022538Y015016D01*
X022508Y015114D02*
X022875Y015114D01*
X022754Y015213D02*
X022596Y015213D01*
X023197Y015114D02*
X023998Y015114D01*
X023826Y015213D02*
X023398Y015213D01*
X023418Y015312D02*
X023805Y015312D01*
X023784Y015410D02*
X023438Y015410D01*
X023457Y015509D02*
X023762Y015509D01*
X023741Y015607D02*
X023477Y015607D01*
X024484Y015213D02*
X024624Y015213D01*
X023403Y014622D02*
X022674Y014622D01*
X022638Y014523D02*
X023213Y014523D01*
X023157Y014425D02*
X022601Y014425D01*
X022518Y014392D02*
X022658Y014742D01*
X022518Y014392D02*
X022108Y014322D01*
X022108Y013962D01*
X022508Y013892D01*
X022648Y013532D01*
X022418Y013202D01*
X022678Y012952D01*
X022998Y013172D01*
X023138Y013082D01*
X023388Y013712D01*
X023281Y013735D02*
X022612Y013735D01*
X022568Y013833D02*
X023199Y013833D01*
X023116Y013932D02*
X022484Y013932D01*
X022178Y014031D02*
X023094Y014031D01*
X023078Y014129D02*
X022178Y014129D01*
X022178Y014228D02*
X023062Y014228D01*
X023101Y014326D02*
X022419Y014326D01*
X022656Y013636D02*
X023283Y013636D01*
X023244Y013538D02*
X022696Y013538D01*
X022637Y013439D02*
X023206Y013439D01*
X023168Y013341D02*
X022577Y013341D01*
X022518Y013242D02*
X023129Y013242D01*
X022851Y013144D02*
X022545Y013144D01*
X022662Y013045D02*
X022699Y013045D01*
X022670Y012482D02*
X022697Y012482D01*
X022767Y012453D02*
X022769Y012451D01*
X022798Y012380D02*
X022798Y012143D01*
X022568Y012183D02*
X022568Y012380D01*
X022597Y012451D02*
X022599Y012453D01*
X022614Y012465D01*
X022632Y012474D01*
X022650Y012480D01*
X022670Y012482D01*
X022597Y012451D02*
X022585Y012436D01*
X022576Y012418D01*
X022570Y012400D01*
X022568Y012380D01*
X022697Y012482D02*
X022717Y012480D01*
X022735Y012474D01*
X022753Y012465D01*
X022768Y012453D01*
X022769Y012451D02*
X022781Y012436D01*
X022790Y012418D01*
X022796Y012400D01*
X022798Y012380D01*
X022418Y012392D02*
X022207Y012262D01*
X022198Y012243D02*
X022198Y012380D01*
X022227Y012451D02*
X022229Y012453D01*
X022300Y012482D02*
X022327Y012482D01*
X022397Y012453D02*
X022399Y012451D01*
X022399Y012452D02*
X022407Y012441D01*
X022413Y012428D01*
X022417Y012415D01*
X022418Y012401D01*
X022398Y012453D02*
X022383Y012465D01*
X022365Y012474D01*
X022347Y012480D01*
X022327Y012482D01*
X022300Y012482D02*
X022280Y012480D01*
X022262Y012474D01*
X022244Y012465D01*
X022229Y012453D01*
X022227Y012451D02*
X022215Y012436D01*
X022206Y012418D01*
X022200Y012400D01*
X022198Y012380D01*
X022058Y012380D02*
X022058Y012243D01*
X022029Y012173D02*
X022027Y012171D01*
X021957Y012142D02*
X021930Y012142D01*
X021859Y012171D02*
X021857Y012173D01*
X021828Y012243D02*
X021828Y012380D01*
X021828Y012382D02*
X021828Y012002D01*
X021639Y012173D02*
X021637Y012171D01*
X021567Y012142D02*
X021540Y012142D01*
X021469Y012171D02*
X021467Y012173D01*
X021438Y012243D02*
X021438Y012380D01*
X021467Y012451D02*
X021469Y012453D01*
X021540Y012482D02*
X021567Y012482D01*
X021637Y012453D02*
X021639Y012451D01*
X021668Y012380D02*
X021668Y012243D01*
X021666Y012223D01*
X021660Y012205D01*
X021651Y012187D01*
X021639Y012172D01*
X021638Y012171D02*
X021623Y012159D01*
X021605Y012150D01*
X021587Y012144D01*
X021567Y012142D01*
X021540Y012142D02*
X021520Y012144D01*
X021502Y012150D01*
X021484Y012159D01*
X021469Y012171D01*
X021467Y012172D02*
X021455Y012187D01*
X021446Y012205D01*
X021440Y012223D01*
X021438Y012243D01*
X021438Y012380D02*
X021440Y012400D01*
X021446Y012418D01*
X021455Y012436D01*
X021467Y012451D01*
X021469Y012453D02*
X021484Y012465D01*
X021502Y012474D01*
X021520Y012480D01*
X021540Y012482D01*
X021567Y012482D02*
X021587Y012480D01*
X021605Y012474D01*
X021623Y012465D01*
X021638Y012453D01*
X021639Y012451D02*
X021651Y012436D01*
X021660Y012418D01*
X021666Y012400D01*
X021668Y012380D01*
X021857Y012451D02*
X021859Y012453D01*
X021930Y012482D02*
X021957Y012482D01*
X022027Y012453D02*
X022029Y012451D01*
X022041Y012436D01*
X022050Y012418D01*
X022056Y012400D01*
X022058Y012380D01*
X022028Y012453D02*
X022013Y012465D01*
X021995Y012474D01*
X021977Y012480D01*
X021957Y012482D01*
X021930Y012482D02*
X021910Y012480D01*
X021892Y012474D01*
X021874Y012465D01*
X021859Y012453D01*
X021857Y012451D02*
X021845Y012436D01*
X021836Y012418D01*
X021830Y012400D01*
X021828Y012380D01*
X021828Y012243D02*
X021830Y012223D01*
X021836Y012205D01*
X021845Y012187D01*
X021857Y012172D01*
X021859Y012171D02*
X021874Y012159D01*
X021892Y012150D01*
X021910Y012144D01*
X021930Y012142D01*
X021957Y012142D02*
X021977Y012144D01*
X021995Y012150D01*
X022013Y012159D01*
X022028Y012171D01*
X022029Y012172D02*
X022041Y012187D01*
X022050Y012205D01*
X022056Y012223D01*
X022058Y012243D01*
X022227Y012173D02*
X022229Y012171D01*
X022300Y012142D02*
X022327Y012142D01*
X022397Y012171D02*
X022399Y012173D01*
X022399Y012172D02*
X022407Y012183D01*
X022413Y012196D01*
X022417Y012209D01*
X022418Y012223D01*
X022398Y012171D02*
X022383Y012159D01*
X022365Y012150D01*
X022347Y012144D01*
X022327Y012142D01*
X022300Y012142D02*
X022280Y012144D01*
X022262Y012150D01*
X022244Y012159D01*
X022229Y012171D01*
X022227Y012172D02*
X022215Y012187D01*
X022206Y012205D01*
X022200Y012223D01*
X022198Y012243D01*
X021375Y011155D02*
X021377Y011186D01*
X021383Y011216D01*
X021393Y011245D01*
X021407Y011273D01*
X021424Y011299D01*
X021444Y011322D01*
X021467Y011342D01*
X021493Y011359D01*
X021521Y011373D01*
X021550Y011383D01*
X021580Y011389D01*
X021611Y011391D01*
X021642Y011389D01*
X021672Y011383D01*
X021701Y011373D01*
X021729Y011359D01*
X021755Y011342D01*
X021778Y011322D01*
X021798Y011299D01*
X021815Y011273D01*
X021829Y011245D01*
X021839Y011216D01*
X021845Y011186D01*
X021847Y011155D01*
X021845Y011124D01*
X021839Y011094D01*
X021829Y011065D01*
X021815Y011037D01*
X021798Y011011D01*
X021778Y010988D01*
X021755Y010968D01*
X021729Y010951D01*
X021701Y010937D01*
X021672Y010927D01*
X021642Y010921D01*
X021611Y010919D01*
X021580Y010921D01*
X021550Y010927D01*
X021521Y010937D01*
X021493Y010951D01*
X021467Y010968D01*
X021444Y010988D01*
X021424Y011011D01*
X021407Y011037D01*
X021393Y011065D01*
X021383Y011094D01*
X021377Y011124D01*
X021375Y011155D01*
X019988Y010418D02*
X019988Y012386D01*
X019929Y012386D01*
X018787Y012386D02*
X018728Y012386D01*
X018728Y010418D01*
X018787Y010418D01*
X019929Y010418D02*
X019988Y010418D01*
X020430Y010210D02*
X020432Y010241D01*
X020438Y010271D01*
X020448Y010300D01*
X020462Y010328D01*
X020479Y010354D01*
X020499Y010377D01*
X020522Y010397D01*
X020548Y010414D01*
X020576Y010428D01*
X020605Y010438D01*
X020635Y010444D01*
X020666Y010446D01*
X020697Y010444D01*
X020727Y010438D01*
X020756Y010428D01*
X020784Y010414D01*
X020810Y010397D01*
X020833Y010377D01*
X020853Y010354D01*
X020870Y010328D01*
X020884Y010300D01*
X020894Y010271D01*
X020900Y010241D01*
X020902Y010210D01*
X020900Y010179D01*
X020894Y010149D01*
X020884Y010120D01*
X020870Y010092D01*
X020853Y010066D01*
X020833Y010043D01*
X020810Y010023D01*
X020784Y010006D01*
X020756Y009992D01*
X020727Y009982D01*
X020697Y009976D01*
X020666Y009974D01*
X020635Y009976D01*
X020605Y009982D01*
X020576Y009992D01*
X020548Y010006D01*
X020522Y010023D01*
X020499Y010043D01*
X020479Y010066D01*
X020462Y010092D01*
X020448Y010120D01*
X020438Y010149D01*
X020432Y010179D01*
X020430Y010210D01*
X020666Y009752D02*
X020666Y009409D01*
X020734Y009340D01*
X020872Y009340D01*
X020940Y009409D01*
X020940Y009752D01*
X021137Y009684D02*
X021206Y009752D01*
X021343Y009752D01*
X021412Y009684D01*
X021412Y009615D01*
X021137Y009340D01*
X021412Y009340D01*
X022658Y009419D02*
X022725Y009352D01*
X022858Y009352D01*
X022925Y009419D01*
X023118Y009419D02*
X023185Y009352D01*
X023319Y009352D01*
X023385Y009419D01*
X023385Y009685D01*
X023319Y009752D01*
X023185Y009752D01*
X023118Y009685D01*
X023118Y009419D01*
X022925Y009685D02*
X022858Y009752D01*
X022725Y009752D01*
X022658Y009685D01*
X022658Y009419D01*
X023579Y009352D02*
X023579Y009752D01*
X023846Y009352D01*
X023846Y009752D01*
X024039Y009619D02*
X024173Y009752D01*
X024173Y009352D01*
X024306Y009352D02*
X024039Y009352D01*
X017358Y010602D02*
X017358Y010802D01*
X017208Y011252D02*
X016858Y011252D01*
X016858Y010952D01*
X016858Y010452D02*
X016858Y010152D01*
X017208Y010152D01*
X017358Y011502D02*
X017008Y011502D01*
X017358Y011502D02*
X017358Y011802D01*
X017358Y012302D02*
X017358Y012602D01*
X017008Y012602D01*
X016858Y012152D02*
X016858Y011952D01*
X015475Y013062D02*
X015475Y015932D01*
X014575Y016052D02*
X014308Y016052D01*
X014442Y016185D02*
X014442Y015919D01*
X014344Y015666D02*
X014572Y015666D01*
X014572Y012842D01*
X014344Y012842D01*
X013072Y012842D02*
X012844Y012842D01*
X012844Y015666D01*
X013072Y015666D01*
X012858Y014752D02*
X014558Y014752D01*
X013875Y014502D02*
X013608Y014502D01*
X013742Y014635D02*
X013742Y014369D01*
X011058Y015702D02*
X011058Y017202D01*
X007558Y017202D01*
X007558Y016702D01*
X007458Y016702D01*
X007458Y016202D01*
X007558Y016202D01*
X007558Y015702D01*
X007474Y015525D02*
X006214Y015525D01*
X006214Y010879D01*
X007474Y010879D01*
X007474Y015525D01*
X007958Y015702D02*
X007958Y016802D01*
X010658Y016802D01*
X010658Y015702D01*
X010558Y015702D02*
X010558Y016702D01*
X008058Y016702D01*
X008058Y015702D01*
X007120Y011088D02*
X006569Y011088D01*
X006569Y010891D01*
X007120Y010891D02*
X007120Y011088D01*
X007558Y010702D02*
X007558Y010202D01*
X007458Y010202D01*
X007458Y009702D01*
X007558Y009702D01*
X007558Y009202D01*
X011058Y009202D01*
X011058Y010702D01*
X010658Y010702D02*
X010658Y009602D01*
X007958Y009602D01*
X007958Y010702D01*
X008058Y010702D02*
X008058Y009702D01*
X010558Y009702D01*
X010558Y010702D01*
X010008Y010519D02*
X010008Y010252D01*
X010008Y010385D02*
X009608Y010385D01*
X009741Y010252D01*
X009008Y010252D02*
X009008Y010519D01*
X008741Y010519D02*
X008675Y010519D01*
X008608Y010452D01*
X008608Y010319D01*
X008675Y010252D01*
X008741Y010519D02*
X009008Y010252D01*
X018342Y013062D02*
X018342Y015932D01*
X022658Y016719D02*
X022725Y016652D01*
X022858Y016652D01*
X022925Y016719D01*
X023118Y016719D02*
X023185Y016652D01*
X023319Y016652D01*
X023385Y016719D01*
X023385Y016985D01*
X023319Y017052D01*
X023185Y017052D01*
X023118Y016985D01*
X023118Y016719D01*
X022925Y016985D02*
X022858Y017052D01*
X022725Y017052D01*
X022658Y016985D01*
X022658Y016719D01*
X023579Y016652D02*
X023579Y017052D01*
X023846Y016652D01*
X023846Y017052D01*
X024039Y016985D02*
X024106Y017052D01*
X024239Y017052D01*
X024306Y016985D01*
X024306Y016919D01*
X024039Y016652D01*
X024306Y016652D01*
X023838Y013712D02*
X023876Y013734D01*
X023911Y013760D01*
X023943Y013790D01*
X023973Y013821D01*
X024000Y013856D01*
X024024Y013893D01*
X024044Y013932D01*
X024060Y013972D01*
X024073Y014014D01*
X024082Y014057D01*
X024087Y014100D01*
X024088Y014144D01*
X024085Y014187D01*
X024078Y014231D01*
X024067Y014273D01*
X024053Y014314D01*
X024034Y014354D01*
X024012Y014392D01*
X023987Y014427D01*
X023959Y014461D01*
X023928Y014491D01*
X023894Y014519D01*
X023857Y014543D01*
X023819Y014564D01*
X023779Y014581D01*
X023738Y014595D01*
X023695Y014605D01*
X023652Y014611D01*
X023608Y014613D01*
X023564Y014611D01*
X023521Y014605D01*
X023478Y014595D01*
X023437Y014581D01*
X023397Y014564D01*
X023359Y014543D01*
X023322Y014519D01*
X023288Y014491D01*
X023257Y014461D01*
X023229Y014427D01*
X023204Y014392D01*
X023182Y014354D01*
X023163Y014314D01*
X023149Y014273D01*
X023138Y014231D01*
X023131Y014187D01*
X023128Y014144D01*
X023129Y014100D01*
X023134Y014057D01*
X023143Y014014D01*
X023156Y013972D01*
X023172Y013932D01*
X023192Y013893D01*
X023216Y013856D01*
X023243Y013821D01*
X023273Y013790D01*
X023305Y013760D01*
X023340Y013734D01*
X023378Y013712D01*
X030596Y012729D02*
X030596Y012611D01*
X033158Y011352D02*
X033308Y011202D01*
X035594Y011515D02*
X035660Y011449D01*
X035594Y011515D02*
X035594Y011649D01*
X035660Y011716D01*
X035727Y011716D01*
X035994Y011449D01*
X035994Y011716D01*
X035994Y010928D02*
X035994Y010661D01*
X035994Y010795D02*
X035594Y010795D01*
X035727Y010661D01*
D12*
X034101Y010732D02*
X033927Y010732D01*
X034101Y010905D01*
X034101Y010949D01*
X034057Y010992D01*
X033971Y010992D01*
X033927Y010949D01*
X033806Y010949D02*
X033763Y010992D01*
X033676Y010992D01*
X033633Y010949D01*
X033512Y010949D02*
X033512Y010862D01*
X033468Y010819D01*
X033338Y010819D01*
X033425Y010819D02*
X033512Y010732D01*
X033633Y010732D02*
X033806Y010905D01*
X033806Y010949D01*
X033806Y010732D02*
X033633Y010732D01*
X033512Y010949D02*
X033468Y010992D01*
X033338Y010992D01*
X033338Y010732D01*
X033001Y010775D02*
X032957Y010732D01*
X032871Y010732D01*
X032827Y010775D01*
X032914Y010862D02*
X032957Y010862D01*
X033001Y010819D01*
X033001Y010775D01*
X032957Y010862D02*
X033001Y010905D01*
X033001Y010949D01*
X032957Y010992D01*
X032871Y010992D01*
X032827Y010949D01*
X032706Y010949D02*
X032663Y010992D01*
X032576Y010992D01*
X032533Y010949D01*
X032412Y010949D02*
X032412Y010862D01*
X032368Y010819D01*
X032238Y010819D01*
X032325Y010819D02*
X032412Y010732D01*
X032533Y010732D02*
X032706Y010905D01*
X032706Y010949D01*
X032706Y010732D02*
X032533Y010732D01*
X032412Y010949D02*
X032368Y010992D01*
X032238Y010992D01*
X032238Y010732D01*
X032203Y011150D02*
X031943Y011150D01*
X032203Y011150D02*
X032203Y011324D01*
X032203Y011445D02*
X032203Y011619D01*
X032203Y011740D02*
X031943Y011740D01*
X031943Y011870D01*
X031986Y011913D01*
X032160Y011913D01*
X032203Y011870D01*
X032203Y011740D01*
X032073Y011532D02*
X032073Y011445D01*
X031943Y011445D02*
X032203Y011445D01*
X032458Y011429D02*
X032641Y011429D01*
X032678Y011392D01*
X032678Y011319D01*
X032641Y011282D01*
X032458Y011282D01*
X032495Y011540D02*
X032531Y011540D01*
X032568Y011576D01*
X032568Y011650D01*
X032605Y011686D01*
X032641Y011686D01*
X032678Y011650D01*
X032678Y011576D01*
X032641Y011540D01*
X032495Y011540D02*
X032458Y011576D01*
X032458Y011650D01*
X032495Y011686D01*
X032458Y011797D02*
X032458Y011908D01*
X032495Y011944D01*
X032531Y011944D01*
X032568Y011908D01*
X032568Y011797D01*
X032678Y011797D02*
X032458Y011797D01*
X032568Y011908D02*
X032605Y011944D01*
X032641Y011944D01*
X032678Y011908D01*
X032678Y011797D01*
X032808Y011797D02*
X033028Y011944D01*
X032808Y011944D01*
X032808Y011797D02*
X033028Y011797D01*
X032991Y011686D02*
X033028Y011650D01*
X033028Y011576D01*
X032991Y011540D01*
X032845Y011540D01*
X032808Y011576D01*
X032808Y011650D01*
X032845Y011686D01*
X032991Y011686D01*
X032203Y012034D02*
X032203Y012208D01*
X032203Y012121D02*
X031943Y012121D01*
X032030Y012034D01*
X031933Y012432D02*
X031933Y012475D01*
X032106Y012649D01*
X032106Y012692D01*
X031933Y012692D01*
X031812Y012649D02*
X031812Y012562D01*
X031768Y012519D01*
X031638Y012519D01*
X031725Y012519D02*
X031812Y012432D01*
X031638Y012432D02*
X031638Y012692D01*
X031768Y012692D01*
X031812Y012649D01*
X032108Y013232D02*
X032328Y013232D01*
X032218Y013232D02*
X032218Y013379D01*
X032108Y013379D02*
X032328Y013379D01*
X032291Y013490D02*
X032328Y013526D01*
X032328Y013600D01*
X032291Y013636D01*
X032145Y013636D01*
X032108Y013600D01*
X032108Y013526D01*
X032145Y013490D01*
X032291Y013490D01*
X032291Y013747D02*
X032328Y013784D01*
X032328Y013858D01*
X032291Y013894D01*
X032255Y013894D01*
X032218Y013858D01*
X032218Y013784D01*
X032181Y013747D01*
X032145Y013747D01*
X032108Y013784D01*
X032108Y013858D01*
X032145Y013894D01*
X032108Y014005D02*
X032108Y014152D01*
X032108Y014079D02*
X032328Y014079D01*
X031978Y013958D02*
X031978Y013847D01*
X031758Y013847D01*
X031758Y013958D01*
X031795Y013994D01*
X031831Y013994D01*
X031868Y013958D01*
X031868Y013847D01*
X031868Y013958D02*
X031905Y013994D01*
X031941Y013994D01*
X031978Y013958D01*
X031941Y013736D02*
X031978Y013700D01*
X031978Y013626D01*
X031941Y013590D01*
X031868Y013626D02*
X031868Y013700D01*
X031905Y013736D01*
X031941Y013736D01*
X031868Y013626D02*
X031831Y013590D01*
X031795Y013590D01*
X031758Y013626D01*
X031758Y013700D01*
X031795Y013736D01*
X031758Y013479D02*
X031941Y013479D01*
X031978Y013442D01*
X031978Y013369D01*
X031941Y013332D01*
X031758Y013332D01*
X031789Y014107D02*
X031715Y014107D01*
X031679Y014144D01*
X031715Y014217D02*
X031825Y014217D01*
X031825Y014144D02*
X031825Y014290D01*
X031789Y014327D01*
X031715Y014327D01*
X031679Y014290D01*
X031679Y014254D01*
X031715Y014217D01*
X031789Y014107D02*
X031825Y014144D01*
X031568Y014107D02*
X031421Y014107D01*
X031494Y014107D02*
X031494Y014327D01*
X031421Y014254D01*
X031310Y014290D02*
X031310Y014217D01*
X031273Y014180D01*
X031163Y014180D01*
X031163Y014107D02*
X031163Y014327D01*
X031273Y014327D01*
X031310Y014290D01*
X031236Y014180D02*
X031310Y014107D01*
X031788Y014402D02*
X032001Y014402D01*
X032043Y014444D01*
X032043Y014529D01*
X032001Y014572D01*
X031788Y014572D01*
X031606Y014657D02*
X031433Y014657D01*
X031519Y014657D02*
X031519Y014917D01*
X031433Y014830D01*
X031312Y014874D02*
X031268Y014917D01*
X031138Y014917D01*
X031138Y014657D01*
X031268Y014657D01*
X031312Y014700D01*
X031312Y014874D01*
X031788Y014982D02*
X031788Y015109D01*
X031830Y015152D01*
X032001Y015152D01*
X032043Y015109D01*
X032043Y014982D01*
X031788Y014982D01*
X031788Y015272D02*
X032043Y015272D01*
X032043Y015442D01*
X032043Y015562D02*
X032043Y015689D01*
X032001Y015732D01*
X031958Y015732D01*
X031916Y015689D01*
X031916Y015562D01*
X032043Y015562D02*
X031788Y015562D01*
X031788Y015689D01*
X031830Y015732D01*
X031873Y015732D01*
X031916Y015689D01*
X032001Y015852D02*
X032043Y015894D01*
X032043Y015979D01*
X032001Y016022D01*
X031788Y016022D01*
X031830Y016142D02*
X032001Y016142D01*
X032043Y016184D01*
X032043Y016269D01*
X032001Y016312D01*
X031916Y016312D01*
X031916Y016227D01*
X031830Y016312D02*
X031788Y016269D01*
X031788Y016184D01*
X031830Y016142D01*
X031788Y015852D02*
X032001Y015852D01*
X031788Y015442D02*
X031788Y015272D01*
X031916Y015272D02*
X031916Y015357D01*
X032086Y014862D02*
X032086Y014692D01*
X031113Y016082D02*
X031113Y016342D01*
X030983Y016212D01*
X031156Y016212D01*
X030862Y016212D02*
X030818Y016169D01*
X030688Y016169D01*
X030775Y016169D02*
X030862Y016082D01*
X030862Y016212D02*
X030862Y016299D01*
X030818Y016342D01*
X030688Y016342D01*
X030688Y016082D01*
X028428Y016139D02*
X028428Y015966D01*
X028168Y015966D01*
X028168Y016139D01*
X028168Y016260D02*
X028168Y016434D01*
X028168Y016347D02*
X028428Y016347D01*
X028298Y016053D02*
X028298Y015966D01*
X028341Y015845D02*
X028385Y015845D01*
X028428Y015801D01*
X028428Y015715D01*
X028385Y015671D01*
X028298Y015715D02*
X028298Y015801D01*
X028341Y015845D01*
X028211Y015845D02*
X028168Y015801D01*
X028168Y015715D01*
X028211Y015671D01*
X028255Y015671D01*
X028298Y015715D01*
X028168Y015550D02*
X028168Y015377D01*
X028428Y015377D01*
X028428Y015550D01*
X028298Y015463D02*
X028298Y015377D01*
X028298Y015255D02*
X028341Y015212D01*
X028341Y015082D01*
X028341Y015169D02*
X028428Y015255D01*
X028298Y015255D02*
X028211Y015255D01*
X028168Y015212D01*
X028168Y015082D01*
X028428Y015082D01*
X028211Y014818D02*
X028168Y014818D01*
X028211Y014818D02*
X028298Y014731D01*
X028428Y014731D01*
X028298Y014731D02*
X028211Y014644D01*
X028168Y014644D01*
X028211Y014523D02*
X028298Y014523D01*
X028341Y014480D01*
X028341Y014350D01*
X028341Y014436D02*
X028428Y014523D01*
X028428Y014350D02*
X028168Y014350D01*
X028168Y014480D01*
X028211Y014523D01*
X028006Y014442D02*
X027833Y014442D01*
X027712Y014399D02*
X027668Y014442D01*
X027581Y014442D01*
X027538Y014399D01*
X027538Y014225D01*
X027581Y014182D01*
X027668Y014182D01*
X027712Y014225D01*
X027833Y014225D02*
X027833Y014182D01*
X027833Y014225D02*
X028006Y014399D01*
X028006Y014442D01*
X028168Y014229D02*
X028168Y014055D01*
X028428Y014055D01*
X028428Y014229D01*
X028298Y014142D02*
X028298Y014055D01*
X028341Y013934D02*
X028168Y013934D01*
X028341Y013934D02*
X028428Y013847D01*
X028341Y013760D01*
X028168Y013760D01*
X028211Y013639D02*
X028168Y013596D01*
X028168Y013509D01*
X028211Y013466D01*
X028385Y013466D01*
X028428Y013509D01*
X028428Y013596D01*
X028385Y013639D01*
X028211Y013639D01*
X028211Y013345D02*
X028168Y013301D01*
X028168Y013215D01*
X028211Y013171D01*
X028385Y013171D01*
X028428Y013215D01*
X028428Y013301D01*
X028385Y013345D01*
X028006Y013142D02*
X027919Y013099D01*
X027833Y013012D01*
X027963Y013012D01*
X028006Y012969D01*
X028006Y012925D01*
X027963Y012882D01*
X027876Y012882D01*
X027833Y012925D01*
X027833Y013012D01*
X027712Y012925D02*
X027668Y012882D01*
X027581Y012882D01*
X027538Y012925D01*
X027538Y013099D01*
X027581Y013142D01*
X027668Y013142D01*
X027712Y013099D01*
X028168Y013050D02*
X028168Y012877D01*
X028428Y012877D01*
X028428Y013050D01*
X028298Y012963D02*
X028298Y012877D01*
X028298Y012755D02*
X028341Y012712D01*
X028341Y012582D01*
X028341Y012669D02*
X028428Y012755D01*
X028298Y012755D02*
X028211Y012755D01*
X028168Y012712D01*
X028168Y012582D01*
X028428Y012582D01*
X027303Y012103D02*
X027303Y012023D01*
X027263Y011983D01*
X027183Y011983D02*
X027143Y012063D01*
X027143Y012103D01*
X027183Y012143D01*
X027263Y012143D01*
X027303Y012103D01*
X027183Y011983D02*
X027063Y011983D01*
X027063Y012143D01*
X027103Y011867D02*
X027063Y011827D01*
X027063Y011747D01*
X027103Y011707D01*
X027263Y011707D01*
X027303Y011747D01*
X027303Y011827D01*
X027263Y011867D01*
X027899Y011579D02*
X027899Y011433D01*
X027936Y011396D01*
X028010Y011396D01*
X028046Y011433D01*
X028157Y011506D02*
X028304Y011506D01*
X028267Y011616D02*
X028157Y011506D01*
X028046Y011579D02*
X028010Y011616D01*
X027936Y011616D01*
X027899Y011579D01*
X028267Y011616D02*
X028267Y011396D01*
X028415Y011396D02*
X028562Y011543D01*
X028562Y011579D01*
X028525Y011616D01*
X028452Y011616D01*
X028415Y011579D01*
X028415Y011396D02*
X028562Y011396D01*
X031943Y011445D02*
X031943Y011619D01*
X032808Y011392D02*
X032808Y011319D01*
X032845Y011282D01*
X032991Y011282D01*
X033028Y011319D01*
X033028Y011392D01*
X032991Y011429D01*
X032845Y011429D02*
X032808Y011392D01*
X020406Y010032D02*
X020233Y010032D01*
X020319Y010032D02*
X020319Y010292D01*
X020233Y010205D01*
X020112Y010249D02*
X020112Y010075D01*
X020068Y010032D01*
X019981Y010032D01*
X019938Y010075D01*
X019938Y010249D01*
X019981Y010292D01*
X020068Y010292D01*
X020112Y010249D01*
X020025Y010119D02*
X020112Y010032D01*
X015678Y011625D02*
X015678Y011712D01*
X015635Y011755D01*
X015678Y011625D02*
X015635Y011582D01*
X015461Y011582D01*
X015418Y011625D01*
X015418Y011712D01*
X015461Y011755D01*
X015548Y011877D02*
X015548Y012050D01*
X015505Y012171D02*
X015461Y012171D01*
X015418Y012215D01*
X015418Y012301D01*
X015461Y012345D01*
X015505Y012345D01*
X015548Y012301D01*
X015548Y012215D01*
X015505Y012171D01*
X015548Y012215D02*
X015591Y012171D01*
X015635Y012171D01*
X015678Y012215D01*
X015678Y012301D01*
X015635Y012345D01*
X015591Y012345D01*
X015548Y012301D01*
X015418Y012007D02*
X015548Y011877D01*
X015678Y012007D02*
X015418Y012007D01*
X014178Y010901D02*
X014135Y010945D01*
X014091Y010945D01*
X014048Y010901D01*
X014048Y010771D01*
X014135Y010771D01*
X014178Y010815D01*
X014178Y010901D01*
X014048Y010771D02*
X013961Y010858D01*
X013918Y010945D01*
X013778Y010771D02*
X013735Y010771D01*
X013561Y010945D01*
X013518Y010945D01*
X013518Y010771D01*
X013378Y010650D02*
X013378Y010477D01*
X013378Y010563D02*
X013118Y010563D01*
X013205Y010477D01*
X013248Y010355D02*
X013291Y010312D01*
X013291Y010182D01*
X013291Y010269D02*
X013378Y010355D01*
X013248Y010355D02*
X013161Y010355D01*
X013118Y010312D01*
X013118Y010182D01*
X013378Y010182D01*
X013518Y010182D02*
X013518Y010312D01*
X013561Y010355D01*
X013648Y010355D01*
X013691Y010312D01*
X013691Y010182D01*
X013691Y010269D02*
X013778Y010355D01*
X013778Y010477D02*
X013778Y010650D01*
X013778Y010563D02*
X013518Y010563D01*
X013605Y010477D01*
X013518Y010182D02*
X013778Y010182D01*
X013918Y010182D02*
X013918Y010312D01*
X013961Y010355D01*
X014048Y010355D01*
X014091Y010312D01*
X014091Y010182D01*
X014091Y010269D02*
X014178Y010355D01*
X014178Y010477D02*
X014178Y010650D01*
X014178Y010563D02*
X013918Y010563D01*
X014005Y010477D01*
X013918Y010182D02*
X014178Y010182D01*
X011708Y010781D02*
X011448Y010781D01*
X011448Y010912D01*
X011492Y010955D01*
X011578Y010955D01*
X011622Y010912D01*
X011622Y010781D01*
X011622Y010868D02*
X011708Y010955D01*
X011708Y011076D02*
X011448Y011076D01*
X011535Y011163D01*
X011448Y011250D01*
X011708Y011250D01*
X011665Y011371D02*
X011708Y011414D01*
X011708Y011501D01*
X011665Y011544D01*
X011622Y011544D01*
X011578Y011501D01*
X011578Y011458D01*
X011578Y011501D02*
X011535Y011544D01*
X011492Y011544D01*
X011448Y011501D01*
X011448Y011414D01*
X011492Y011371D01*
X012049Y011712D02*
X012049Y011972D01*
X012179Y011972D01*
X012222Y011929D01*
X012222Y011842D01*
X012179Y011799D01*
X012049Y011799D01*
X012136Y011799D02*
X012222Y011712D01*
X012343Y011755D02*
X012343Y011799D01*
X012387Y011842D01*
X012474Y011842D01*
X012517Y011799D01*
X012517Y011755D01*
X012474Y011712D01*
X012387Y011712D01*
X012343Y011755D01*
X012387Y011842D02*
X012343Y011885D01*
X012343Y011929D01*
X012387Y011972D01*
X012474Y011972D01*
X012517Y011929D01*
X012517Y011885D01*
X012474Y011842D01*
X012428Y012212D02*
X012341Y012299D01*
X012384Y012299D02*
X012254Y012299D01*
X012254Y012212D02*
X012254Y012472D01*
X012384Y012472D01*
X012428Y012429D01*
X012428Y012342D01*
X012384Y012299D01*
X012549Y012385D02*
X012636Y012472D01*
X012636Y012212D01*
X012722Y012212D02*
X012549Y012212D01*
X012843Y012255D02*
X013017Y012429D01*
X013017Y012255D01*
X012974Y012212D01*
X012887Y012212D01*
X012843Y012255D01*
X012843Y012429D01*
X012887Y012472D01*
X012974Y012472D01*
X013017Y012429D01*
X012251Y014982D02*
X012077Y014982D01*
X012251Y015155D01*
X012251Y015199D01*
X012207Y015242D01*
X012121Y015242D01*
X012077Y015199D01*
X012077Y015382D02*
X012251Y015382D01*
X012164Y015382D02*
X012164Y015642D01*
X012077Y015555D01*
X011956Y015382D02*
X011783Y015382D01*
X011869Y015382D02*
X011869Y015642D01*
X011783Y015555D01*
X011662Y015512D02*
X011618Y015469D01*
X011488Y015469D01*
X011575Y015469D02*
X011662Y015382D01*
X011662Y015512D02*
X011662Y015599D01*
X011618Y015642D01*
X011488Y015642D01*
X011488Y015382D01*
X011488Y015242D02*
X011618Y015242D01*
X011662Y015199D01*
X011662Y015112D01*
X011618Y015069D01*
X011488Y015069D01*
X011575Y015069D02*
X011662Y014982D01*
X011783Y014982D02*
X011956Y014982D01*
X011869Y014982D02*
X011869Y015242D01*
X011783Y015155D01*
X011488Y015242D02*
X011488Y014982D01*
X007319Y014986D02*
X007319Y014899D01*
X007276Y014856D01*
X007233Y014856D01*
X007189Y014899D01*
X007189Y014986D01*
X007233Y015029D01*
X007276Y015029D01*
X007319Y014986D01*
X007189Y014986D02*
X007146Y015029D01*
X007103Y015029D01*
X007059Y014986D01*
X007059Y014899D01*
X007103Y014856D01*
X007146Y014856D01*
X007189Y014899D01*
X007103Y014537D02*
X007276Y014364D01*
X007319Y014364D01*
X007059Y014364D02*
X007059Y014537D01*
X007103Y014537D01*
X007059Y014045D02*
X007103Y013958D01*
X007189Y013872D01*
X007189Y014002D01*
X007233Y014045D01*
X007276Y014045D01*
X007319Y014002D01*
X007319Y013915D01*
X007276Y013872D01*
X007189Y013872D01*
X007189Y013553D02*
X007276Y013553D01*
X007319Y013510D01*
X007319Y013423D01*
X007276Y013380D01*
X007189Y013380D02*
X007146Y013466D01*
X007146Y013510D01*
X007189Y013553D01*
X007059Y013553D02*
X007059Y013380D01*
X007189Y013380D01*
X007189Y013061D02*
X007189Y012887D01*
X007059Y013017D01*
X007319Y013017D01*
X007276Y012520D02*
X007319Y012476D01*
X007319Y012389D01*
X007276Y012346D01*
X007189Y012433D02*
X007189Y012476D01*
X007233Y012520D01*
X007276Y012520D01*
X007189Y012476D02*
X007146Y012520D01*
X007103Y012520D01*
X007059Y012476D01*
X007059Y012389D01*
X007103Y012346D01*
X007103Y012077D02*
X007059Y012033D01*
X007059Y011946D01*
X007103Y011903D01*
X007103Y012077D02*
X007146Y012077D01*
X007319Y011903D01*
X007319Y012077D01*
X007319Y011535D02*
X007319Y011362D01*
X007319Y011449D02*
X007059Y011449D01*
X007146Y011362D01*
X007128Y010802D02*
X007091Y010765D01*
X007091Y010692D01*
X007128Y010655D01*
X007274Y010655D01*
X007311Y010692D01*
X007311Y010765D01*
X007274Y010802D01*
X007201Y010802D01*
X007201Y010729D01*
X007201Y010544D02*
X007201Y010397D01*
X007164Y010397D02*
X007311Y010397D01*
X007164Y010397D02*
X007091Y010471D01*
X007164Y010544D01*
X007311Y010544D01*
X007091Y010286D02*
X007091Y010140D01*
X007091Y010213D02*
X007311Y010213D01*
X007274Y009992D02*
X007091Y009992D01*
X007091Y009955D02*
X007091Y010029D01*
X007274Y009992D02*
X007311Y009955D01*
X007311Y009919D01*
X007274Y009882D01*
X018468Y013675D02*
X018511Y013632D01*
X018685Y013632D01*
X018728Y013675D01*
X018728Y013762D01*
X018685Y013805D01*
X018685Y013927D02*
X018641Y013927D01*
X018598Y013970D01*
X018598Y014057D01*
X018641Y014100D01*
X018685Y014100D01*
X018728Y014057D01*
X018728Y013970D01*
X018685Y013927D01*
X018598Y013970D02*
X018555Y013927D01*
X018511Y013927D01*
X018468Y013970D01*
X018468Y014057D01*
X018511Y014100D01*
X018555Y014100D01*
X018598Y014057D01*
X018511Y014282D02*
X018685Y014282D01*
X018728Y014325D01*
X018728Y014412D01*
X018685Y014455D01*
X018728Y014577D02*
X018728Y014750D01*
X018728Y014663D02*
X018468Y014663D01*
X018555Y014577D01*
X018511Y014455D02*
X018468Y014412D01*
X018468Y014325D01*
X018511Y014282D01*
X018511Y013805D02*
X018468Y013762D01*
X018468Y013675D01*
X018555Y014871D02*
X018468Y014958D01*
X018728Y014958D01*
X018728Y014871D02*
X018728Y015045D01*
X018938Y015275D02*
X018981Y015232D01*
X019068Y015232D01*
X019112Y015275D01*
X019233Y015232D02*
X019406Y015232D01*
X019319Y015232D02*
X019319Y015492D01*
X019233Y015405D01*
X019112Y015449D02*
X019068Y015492D01*
X018981Y015492D01*
X018938Y015449D01*
X018938Y015275D01*
X018969Y015832D02*
X018969Y016092D01*
X018883Y016005D01*
X018883Y015832D02*
X019056Y015832D01*
X018762Y015832D02*
X018588Y015832D01*
X018588Y016092D01*
X019527Y015449D02*
X019571Y015492D01*
X019657Y015492D01*
X019701Y015449D01*
X019701Y015405D01*
X019527Y015232D01*
X019701Y015232D01*
D13*
X015287Y015154D02*
X015287Y015261D01*
X015233Y015314D01*
X015233Y015469D02*
X015020Y015469D01*
X014966Y015523D01*
X014966Y015629D01*
X015020Y015683D01*
X015233Y015683D01*
X015287Y015629D01*
X015287Y015523D01*
X015233Y015469D01*
X015020Y015314D02*
X014966Y015261D01*
X014966Y015154D01*
X015020Y015101D01*
X015233Y015101D01*
X015287Y015154D01*
X015287Y014970D02*
X015287Y014917D01*
X015233Y014917D01*
X015233Y014970D01*
X015287Y014970D01*
X015287Y014762D02*
X014966Y014549D01*
X014966Y014394D02*
X014966Y014180D01*
X015287Y014180D01*
X015287Y014394D01*
X015287Y014549D02*
X014966Y014762D01*
X015126Y014287D02*
X015126Y014180D01*
X014966Y014025D02*
X015287Y014025D01*
X015287Y013812D02*
X014966Y013812D01*
X015073Y013919D01*
X014966Y014025D01*
X014966Y013673D02*
X014966Y013566D01*
X014966Y013620D02*
X015287Y013620D01*
X015287Y013673D02*
X015287Y013566D01*
X015287Y013412D02*
X015287Y013198D01*
X014966Y013198D01*
X015020Y013043D02*
X014966Y012990D01*
X014966Y012883D01*
X015020Y012830D01*
X015233Y012830D01*
X015287Y012883D01*
X015287Y012990D01*
X015233Y013043D01*
X015020Y013043D01*
X015233Y012699D02*
X015287Y012699D01*
X015287Y012646D01*
X015233Y012646D01*
X015233Y012699D01*
X015287Y012491D02*
X014966Y012491D01*
X014966Y012277D02*
X015287Y012277D01*
X015180Y012384D01*
X015287Y012491D01*
X015287Y012123D02*
X014966Y012123D01*
X014966Y011909D02*
X015287Y011909D01*
X015180Y012016D01*
X015287Y012123D01*
X015287Y011754D02*
X014966Y011754D01*
X014966Y011541D02*
X015287Y011541D01*
X015180Y011647D01*
X015287Y011754D01*
X016198Y011356D02*
X016407Y011356D01*
X016303Y011356D02*
X016303Y011042D01*
X016561Y011042D02*
X016770Y011042D01*
X016665Y011042D02*
X016665Y011356D01*
X016561Y011251D01*
X017603Y012342D02*
X017603Y012656D01*
X017707Y012656D02*
X017498Y012656D01*
X017861Y012604D02*
X017913Y012656D01*
X018018Y012656D01*
X018070Y012604D01*
X018070Y012551D01*
X017861Y012342D01*
X018070Y012342D01*
X019083Y011628D02*
X019358Y011628D01*
X019634Y011628D01*
X019634Y011481D02*
X019634Y011323D01*
X019083Y011323D01*
X019083Y011481D01*
X019634Y011481D01*
X019358Y011628D02*
X019358Y011746D01*
X019358Y011176D02*
X019083Y011176D01*
X019358Y011176D02*
X019634Y011176D01*
X019358Y011176D02*
X019358Y011048D01*
X014198Y011795D02*
X014145Y011742D01*
X014038Y011742D01*
X013985Y011795D01*
X013985Y011902D02*
X014091Y011955D01*
X014145Y011955D01*
X014198Y011902D01*
X014198Y011795D01*
X013985Y011902D02*
X013985Y012062D01*
X014198Y012062D01*
X013830Y011902D02*
X013616Y011902D01*
X013777Y012062D01*
X013777Y011742D01*
X013462Y011795D02*
X013408Y011742D01*
X013301Y011742D01*
X013248Y011795D01*
X013248Y012009D01*
X013301Y012062D01*
X013408Y012062D01*
X013462Y012009D01*
X007307Y015162D02*
X007307Y015375D01*
X007307Y015162D02*
X006987Y015162D01*
X011198Y015845D02*
X011251Y015792D01*
X011358Y015792D01*
X011412Y015845D01*
X011412Y016112D01*
X011566Y016112D02*
X011566Y015792D01*
X011780Y015792D01*
X011935Y015792D02*
X012148Y016112D01*
X012303Y016112D02*
X012517Y016112D01*
X012410Y016112D02*
X012410Y015792D01*
X012148Y015792D02*
X011935Y016112D01*
X011780Y016112D02*
X011566Y016112D01*
X011566Y015952D02*
X011673Y015952D01*
X011198Y015845D02*
X011198Y016112D01*
X014966Y016051D02*
X015287Y016051D01*
X015287Y015838D02*
X014966Y015838D01*
X015073Y015944D01*
X014966Y016051D01*
X029048Y011962D02*
X029048Y011642D01*
X029048Y011749D02*
X029208Y011749D01*
X029262Y011802D01*
X029262Y011909D01*
X029208Y011962D01*
X029048Y011962D01*
X029416Y011909D02*
X029416Y011695D01*
X029470Y011642D01*
X029577Y011642D01*
X029630Y011695D01*
X029630Y011909D01*
X029577Y011962D01*
X029470Y011962D01*
X029416Y011909D01*
X029785Y011962D02*
X029785Y011642D01*
X029891Y011749D01*
X029998Y011642D01*
X029998Y011962D01*
X030153Y011962D02*
X030153Y011642D01*
X030367Y011642D01*
X030521Y011642D02*
X030521Y011962D01*
X030681Y011962D01*
X030735Y011909D01*
X030735Y011802D01*
X030681Y011749D01*
X030521Y011749D01*
X030628Y011749D02*
X030735Y011642D01*
X030260Y011802D02*
X030153Y011802D01*
X030153Y011962D02*
X030367Y011962D01*
X031958Y010982D02*
X032098Y011052D01*
X032028Y010912D01*
X032098Y010802D02*
X032028Y010662D01*
X031958Y010732D02*
X032098Y010802D01*
X031878Y010582D01*
X031878Y010832D02*
X032098Y011052D01*
X031658Y010902D02*
X031508Y010902D01*
X031358Y010702D01*
X031658Y010702D01*
X031508Y010902D01*
X031358Y010902D01*
X033577Y013000D02*
X033577Y013213D01*
X033683Y013106D02*
X033470Y013106D01*
X033838Y013000D02*
X033838Y013213D01*
X033891Y013266D01*
X034052Y013266D01*
X034052Y012946D01*
X033891Y012946D01*
X033838Y013000D01*
X034560Y014143D02*
X034506Y014196D01*
X034506Y014410D01*
X034560Y014463D01*
X034720Y014463D01*
X034720Y014143D01*
X034560Y014143D01*
X034351Y014303D02*
X034138Y014303D01*
D14*
X026050Y011024D02*
X025956Y011024D01*
X026003Y011070D02*
X026003Y010884D01*
X026050Y010837D01*
X025821Y010837D02*
X025821Y010977D01*
X025774Y011024D01*
X025634Y011024D01*
X025634Y010837D01*
X025499Y010837D02*
X025358Y010837D01*
X025312Y010884D01*
X025358Y010930D01*
X025499Y010930D01*
X025499Y010977D02*
X025499Y010837D01*
X025499Y010977D02*
X025452Y011024D01*
X025358Y011024D01*
X025144Y011024D02*
X025144Y010837D01*
X025190Y010837D02*
X025097Y010837D01*
X024975Y010837D02*
X024882Y010837D01*
X024929Y010837D02*
X024929Y011117D01*
X024882Y011117D01*
X024747Y010977D02*
X024700Y011024D01*
X024560Y011024D01*
X024560Y010744D01*
X024560Y010837D02*
X024700Y010837D01*
X024747Y010884D01*
X024747Y010977D01*
X024424Y010977D02*
X024378Y011024D01*
X024331Y010977D01*
X024331Y010837D01*
X024238Y010837D02*
X024238Y011024D01*
X024284Y011024D01*
X024331Y010977D01*
X024424Y010977D02*
X024424Y010837D01*
X024102Y010884D02*
X024102Y010977D01*
X024055Y011024D01*
X023962Y011024D01*
X023915Y010977D01*
X023915Y010884D01*
X023962Y010837D01*
X024055Y010837D01*
X024102Y010884D01*
X023780Y010884D02*
X023733Y010837D01*
X023640Y010837D01*
X023593Y010884D01*
X023593Y011070D01*
X023640Y011117D01*
X023733Y011117D01*
X023780Y011070D01*
X023147Y011070D02*
X023100Y011117D01*
X023007Y011117D01*
X022960Y011070D01*
X022960Y011024D01*
X023007Y010977D01*
X023100Y010977D01*
X023147Y010930D01*
X023147Y010884D01*
X023100Y010837D01*
X023007Y010837D01*
X022960Y010884D01*
X022824Y010837D02*
X022824Y011117D01*
X022824Y010977D02*
X022638Y010977D01*
X022502Y010977D02*
X022455Y011024D01*
X022362Y011024D01*
X022315Y010977D01*
X022315Y010884D01*
X022362Y010837D01*
X022455Y010837D01*
X022502Y010884D01*
X022502Y010977D01*
X022638Y010837D02*
X022638Y011117D01*
X022180Y011070D02*
X022180Y010977D01*
X022133Y010930D01*
X021993Y010930D01*
X021993Y010837D02*
X021993Y011117D01*
X022133Y011117D01*
X022180Y011070D01*
X022086Y010930D02*
X022180Y010837D01*
X025097Y011024D02*
X025144Y011024D01*
X025144Y011117D02*
X025144Y011164D01*
M02*
