G75*
G70*
%OFA0B0*%
%FSLAX24Y24*%
%IPPOS*%
%LPD*%
%AMOC8*
5,1,8,0,0,1.08239X$1,22.5*
%
%ADD10C,0.0631*%
%ADD11R,0.0740X0.0740*%
%ADD12R,0.0700X0.0700*%
%ADD13C,0.0700*%
%ADD14R,0.0571X0.0571*%
%ADD15C,0.0571*%
%ADD16C,0.1040*%
%ADD17R,0.1040X0.1040*%
%ADD18R,0.0278X0.0278*%
%ADD19R,0.1103X0.1103*%
%ADD20R,0.0640X0.0640*%
%ADD21C,0.0640*%
%ADD22C,0.0434*%
%ADD23C,0.0926*%
%ADD24C,0.0740*%
%ADD25R,0.0749X0.0749*%
%ADD26OC8,0.0571*%
%ADD27C,0.2040*%
%ADD28C,0.0788*%
%ADD29C,0.3032*%
%ADD30C,0.0512*%
%ADD31C,0.0440*%
D10*
X013511Y007826D03*
X013511Y008023D03*
X013511Y008220D03*
X013511Y008417D03*
X013511Y008614D03*
X013511Y008810D03*
X013511Y009007D03*
X016070Y009007D03*
X016070Y008810D03*
X016070Y008614D03*
X016070Y008417D03*
X016070Y008220D03*
X016070Y008023D03*
X016070Y007826D03*
X015361Y006665D03*
X015165Y006665D03*
X014968Y006665D03*
X014771Y006665D03*
X014574Y006665D03*
X014377Y006665D03*
X014180Y006665D03*
X014190Y036928D03*
X014977Y036928D03*
X015765Y036928D03*
X016552Y036928D03*
X016552Y041128D03*
X015765Y041128D03*
X014977Y041128D03*
X014190Y041128D03*
X014190Y045328D03*
X014977Y045328D03*
X015765Y045328D03*
X016552Y045328D03*
D11*
X027070Y039517D03*
X052770Y050937D03*
X052770Y007937D03*
X052770Y005437D03*
X015070Y005597D03*
D12*
X024860Y014227D03*
X041820Y007187D03*
X049820Y007187D03*
X052170Y019237D03*
X024440Y029127D03*
X022820Y049187D03*
X045820Y049187D03*
D13*
X045820Y050187D03*
X046820Y050187D03*
X047820Y050187D03*
X047820Y049187D03*
X046820Y049187D03*
X048820Y049187D03*
X048820Y050187D03*
X049820Y050187D03*
X049820Y049187D03*
X041820Y049187D03*
X041820Y050187D03*
X040820Y050187D03*
X040820Y049187D03*
X039820Y049187D03*
X039820Y050187D03*
X038820Y050187D03*
X038820Y049187D03*
X037820Y049187D03*
X037820Y050187D03*
X036820Y050187D03*
X035820Y050187D03*
X035820Y049187D03*
X036820Y049187D03*
X034820Y049187D03*
X034820Y050187D03*
X033820Y050187D03*
X033820Y049187D03*
X032820Y049187D03*
X032820Y050187D03*
X031820Y050187D03*
X031820Y049187D03*
X030820Y049187D03*
X030820Y050187D03*
X029820Y050187D03*
X029820Y049187D03*
X028820Y049187D03*
X028820Y050187D03*
X027820Y050187D03*
X027820Y049187D03*
X026820Y049187D03*
X026820Y050187D03*
X025820Y050187D03*
X025820Y049187D03*
X024820Y049187D03*
X024820Y050187D03*
X023820Y050187D03*
X023820Y049187D03*
X022820Y050187D03*
X025840Y029127D03*
X024860Y015627D03*
X024820Y007187D03*
X023820Y007187D03*
X023820Y006187D03*
X024820Y006187D03*
X025820Y006187D03*
X025820Y007187D03*
X026820Y007187D03*
X026820Y006187D03*
X027820Y006187D03*
X027820Y007187D03*
X028820Y007187D03*
X028820Y006187D03*
X029820Y006187D03*
X029820Y007187D03*
X030820Y007187D03*
X030820Y006187D03*
X031820Y006187D03*
X031820Y007187D03*
X032820Y007187D03*
X032820Y006187D03*
X033820Y006187D03*
X033820Y007187D03*
X034820Y007187D03*
X034820Y006187D03*
X035820Y006187D03*
X035820Y007187D03*
X036820Y007187D03*
X037820Y007187D03*
X037820Y006187D03*
X036820Y006187D03*
X038820Y006187D03*
X038820Y007187D03*
X039820Y007187D03*
X039820Y006187D03*
X040820Y006187D03*
X040820Y007187D03*
X041820Y006187D03*
X045820Y006187D03*
X045820Y007187D03*
X046820Y007187D03*
X047820Y007187D03*
X047820Y006187D03*
X046820Y006187D03*
X048820Y006187D03*
X048820Y007187D03*
X049820Y006187D03*
X052170Y014237D03*
X052170Y015237D03*
X052170Y016237D03*
X052170Y017237D03*
X052170Y018237D03*
X022820Y007187D03*
X022820Y006187D03*
D14*
X014770Y013000D03*
D15*
X014770Y012213D03*
X054190Y039821D03*
X054190Y040721D03*
X055190Y041171D03*
X055190Y040271D03*
X056190Y040721D03*
X056190Y039821D03*
X056190Y041621D03*
X056190Y042521D03*
X056190Y043421D03*
X055190Y043871D03*
X055190Y042971D03*
X055190Y042071D03*
X054190Y042521D03*
X054190Y041621D03*
D16*
X018520Y009837D03*
D17*
X018520Y007837D03*
D18*
X039556Y027963D03*
X039556Y028278D03*
X039241Y028593D03*
X038927Y028593D03*
X038927Y029380D03*
X039241Y029380D03*
X039556Y029695D03*
X039556Y030010D03*
X040344Y030010D03*
X040344Y029695D03*
X040659Y029380D03*
X040974Y029380D03*
X040974Y028593D03*
X040659Y028593D03*
X040344Y028278D03*
X040344Y027963D03*
D19*
X039950Y028987D03*
D20*
X017820Y036937D03*
X017140Y033657D03*
X017820Y041137D03*
X017820Y045337D03*
D21*
X018820Y045337D03*
X018820Y041137D03*
X018820Y036937D03*
X018140Y033657D03*
D22*
X014520Y032603D03*
X014520Y030870D03*
X057704Y029592D03*
X057704Y032741D03*
D23*
X016749Y035806D03*
X016749Y038050D03*
X016749Y040006D03*
X016749Y042250D03*
X016749Y044206D03*
X016749Y046450D03*
X013993Y046450D03*
X013993Y044206D03*
X013993Y042250D03*
X013993Y040006D03*
X013993Y038050D03*
X013993Y035806D03*
D24*
X027070Y040517D03*
X027070Y041517D03*
X027070Y042517D03*
X053770Y050937D03*
X054770Y050937D03*
X055770Y050937D03*
X052170Y013237D03*
X052770Y006937D03*
X053770Y005437D03*
X054770Y005437D03*
X055770Y005437D03*
D25*
X020890Y022027D03*
D26*
X054190Y043421D03*
D27*
X055190Y046637D03*
X055190Y036797D03*
D28*
X054802Y026006D03*
X057558Y026006D03*
X057558Y021806D03*
X054802Y021806D03*
D29*
X058637Y005818D03*
X015176Y017543D03*
X013952Y050606D03*
X058837Y050606D03*
D30*
X059664Y049779D03*
X060019Y050606D03*
X059664Y051432D03*
X058837Y051787D03*
X058011Y051432D03*
X057656Y050606D03*
X058011Y049779D03*
X058837Y049424D03*
X017222Y016787D03*
X016357Y017543D03*
X016003Y018369D03*
X015176Y018724D03*
X014349Y018369D03*
X013995Y017543D03*
X014349Y016716D03*
X015176Y016361D03*
X016003Y016716D03*
X017220Y015187D03*
X018820Y014187D03*
X020570Y011327D03*
X057456Y005818D03*
X057810Y006645D03*
X058637Y006999D03*
X059463Y006645D03*
X059818Y005818D03*
X059463Y004991D03*
X058637Y004637D03*
X057810Y004991D03*
X013952Y049424D03*
X014778Y049779D03*
X015133Y050606D03*
X014778Y051432D03*
X013952Y051787D03*
X013125Y051432D03*
X012771Y050606D03*
X013125Y049779D03*
D31*
X019820Y025687D03*
X028820Y025687D03*
X028420Y016937D03*
X027420Y016937D03*
X026420Y016937D03*
X025420Y016937D03*
X024420Y016937D03*
X023420Y016937D03*
X020270Y015937D03*
X019270Y015937D03*
X018270Y015937D03*
X017270Y015937D03*
X016270Y015937D03*
M02*
