%TF.GenerationSoftware,KiCad,Pcbnew,no-vcs-found-f3908bd~61~ubuntu16.04.1*%
%TF.CreationDate,2017-11-15T13:54:59+02:00*%
%TF.ProjectId,A64-OlinuXino_Rev_E,4136342D4F6C696E7558696E6F5F5265,D*%
%TF.SameCoordinates,Original*%
%TF.FileFunction,Soldermask,Top*%
%TF.FilePolarity,Negative*%
%FSLAX46Y46*%
G04 Gerber Fmt 4.6, Leading zero omitted, Abs format (unit mm)*
G04 Created by KiCad (PCBNEW no-vcs-found-f3908bd~61~ubuntu16.04.1) date Wed Nov 15 13:54:59 2017*
%MOMM*%
%LPD*%
G01*
G04 APERTURE LIST*
%ADD10C,0.254000*%
%ADD11R,0.726600X0.426600*%
%ADD12R,0.726600X0.351600*%
%ADD13R,0.651600X0.601600*%
%ADD14C,1.400000*%
%ADD15R,0.901600X0.901600*%
%ADD16C,0.350000*%
%ADD17C,0.600000*%
%ADD18C,3.700000*%
%ADD19C,2.800000*%
%ADD20C,2.050000*%
%ADD21O,2.200000X1.600000*%
%ADD22R,1.100000X1.200000*%
%ADD23C,0.700000*%
%ADD24R,2.250000X0.425000*%
%ADD25R,1.400000X0.600000*%
%ADD26R,0.600000X1.400000*%
%ADD27R,1.619200X2.635200*%
%ADD28R,4.000000X2.600000*%
%ADD29C,0.400000*%
%ADD30C,0.500000*%
%ADD31C,2.100000*%
%ADD32R,2.201600X3.101600*%
%ADD33R,2.601600X3.101600*%
%ADD34R,2.501600X2.701600*%
%ADD35R,0.351600X1.401600*%
%ADD36C,1.254000*%
%ADD37O,2.700000X1.700000*%
%ADD38R,2.100000X0.350000*%
%ADD39O,3.100000X1.700000*%
%ADD40C,0.401600*%
%ADD41R,0.800000X0.800000*%
%ADD42R,1.822400X1.822400*%
%ADD43R,5.601600X5.601600*%
%ADD44R,1.001600X0.301600*%
%ADD45R,0.301600X1.001600*%
%ADD46R,3.601600X1.701600*%
%ADD47R,4.601600X1.851600*%
%ADD48R,3.301600X6.101600*%
%ADD49C,1.900000*%
%ADD50C,2.600000*%
%ADD51C,5.900000*%
%ADD52R,0.601600X0.651600*%
%ADD53R,1.117600X1.117600*%
%ADD54R,1.625600X1.371600*%
%ADD55R,1.371600X1.625600*%
%ADD56R,2.400000X2.100000*%
%ADD57R,1.301600X0.651600*%
%ADD58R,0.651600X1.301600*%
%ADD59R,1.900000X1.800000*%
%ADD60C,1.100000*%
%ADD61R,1.601600X1.601600*%
%ADD62C,1.601600*%
%ADD63C,1.879600*%
%ADD64R,1.879600X1.879600*%
%ADD65R,1.300000X0.350000*%
%ADD66R,1.800000X1.800000*%
%ADD67C,1.800000*%
%ADD68R,1.901600X1.901600*%
%ADD69C,1.901600*%
%ADD70O,1.601600X4.001600*%
%ADD71O,1.601600X3.701600*%
%ADD72O,3.801600X1.601600*%
%ADD73R,0.863600X1.117600*%
%ADD74R,0.426600X0.726600*%
%ADD75R,0.351600X0.726600*%
%ADD76R,0.776600X0.301600*%
%ADD77R,0.876600X0.401600*%
%ADD78R,2.500000X2.800000*%
G04 APERTURE END LIST*
D10*
X100000000Y-37500000D02*
X100000000Y-100000000D01*
X190000000Y-37500000D02*
X100000000Y-37500000D01*
X190000000Y-100000000D02*
X190000000Y-37500000D01*
X100000000Y-100000000D02*
X190000000Y-100000000D01*
D11*
%TO.C,RM1*%
X159112500Y-72690000D03*
X158087500Y-72690000D03*
D12*
X159112500Y-72150000D03*
X158087500Y-72150000D03*
X159112500Y-71650000D03*
X158087500Y-71650000D03*
D11*
X159112500Y-71110000D03*
X158087500Y-71110000D03*
%TD*%
%TO.C,RM15*%
X159112500Y-70490000D03*
X158087500Y-70490000D03*
D12*
X159112500Y-69950000D03*
X158087500Y-69950000D03*
X159112500Y-69450000D03*
X158087500Y-69450000D03*
D11*
X159112500Y-68910000D03*
X158087500Y-68910000D03*
%TD*%
D13*
%TO.C,R117*%
X156210000Y-68326000D03*
X156210000Y-69342000D03*
%TD*%
D14*
%TO.C,MICRO_SD1*%
X103682800Y-81534000D03*
X103682800Y-89535000D03*
%TD*%
D15*
%TO.C,CHGLED1*%
X177165000Y-98679000D03*
X177165000Y-97155000D03*
%TD*%
%TO.C,PWRLED1*%
X179578000Y-98679000D03*
X179578000Y-97155000D03*
%TD*%
D16*
%TO.C,U5*%
X139250000Y-53750000D03*
X139250000Y-53250000D03*
X139250000Y-52750000D03*
X139250000Y-52250000D03*
X139250000Y-51750000D03*
X139250000Y-51250000D03*
X139250000Y-50750000D03*
X139250000Y-50250000D03*
X139250000Y-49750000D03*
X139250000Y-49250000D03*
X139250000Y-48750000D03*
X139250000Y-47250000D03*
X139250000Y-47750000D03*
X139250000Y-48250000D03*
X139750000Y-48250000D03*
X139750000Y-47750000D03*
X139750000Y-47250000D03*
X139750000Y-48750000D03*
X139750000Y-49250000D03*
X139750000Y-49750000D03*
X139750000Y-50250000D03*
X139750000Y-50750000D03*
X139750000Y-51250000D03*
X139750000Y-51750000D03*
X139750000Y-52250000D03*
X139750000Y-52750000D03*
X139750000Y-53250000D03*
X139750000Y-53750000D03*
X140250000Y-53750000D03*
X140250000Y-53250000D03*
X140250000Y-52750000D03*
X140250000Y-52250000D03*
X140250000Y-51750000D03*
X140250000Y-51250000D03*
X140250000Y-50750000D03*
X140250000Y-50250000D03*
X140250000Y-49750000D03*
X140250000Y-49250000D03*
X140250000Y-48750000D03*
X140250000Y-47250000D03*
X140250000Y-47750000D03*
X140250000Y-48250000D03*
X140750000Y-48250000D03*
X140750000Y-47750000D03*
X140750000Y-47250000D03*
X140750000Y-52250000D03*
X140750000Y-52750000D03*
X140750000Y-53250000D03*
X140750000Y-53750000D03*
X141250000Y-48250000D03*
X141250000Y-47750000D03*
X141250000Y-47250000D03*
X141250000Y-49250000D03*
X141250000Y-49750000D03*
X141250000Y-50250000D03*
X141250000Y-50750000D03*
X141250000Y-51250000D03*
X141250000Y-51750000D03*
X141250000Y-52750000D03*
X141250000Y-53250000D03*
X141250000Y-53750000D03*
X141750000Y-53750000D03*
X141750000Y-53250000D03*
X141750000Y-52750000D03*
X141750000Y-51750000D03*
X141750000Y-49250000D03*
X141750000Y-47250000D03*
X141750000Y-47750000D03*
X141750000Y-48250000D03*
X142250000Y-48250000D03*
X142250000Y-47750000D03*
X142250000Y-47250000D03*
X142250000Y-49250000D03*
X142250000Y-51750000D03*
X142250000Y-52750000D03*
X142250000Y-53250000D03*
X142250000Y-53750000D03*
X143250000Y-53750000D03*
X143250000Y-53250000D03*
X143250000Y-52750000D03*
X143250000Y-51750000D03*
X143250000Y-49250000D03*
X143250000Y-47250000D03*
X143250000Y-47750000D03*
X143250000Y-48250000D03*
X142750000Y-48250000D03*
X142750000Y-47750000D03*
X142750000Y-47250000D03*
X142750000Y-49250000D03*
X142750000Y-51750000D03*
X142750000Y-52750000D03*
X142750000Y-53250000D03*
X142750000Y-53750000D03*
X143750000Y-53750000D03*
X143750000Y-53250000D03*
X143750000Y-52750000D03*
X143750000Y-51750000D03*
X143750000Y-51250000D03*
X143750000Y-50750000D03*
X143750000Y-50250000D03*
X143750000Y-49750000D03*
X143750000Y-49250000D03*
X143750000Y-47250000D03*
X143750000Y-47750000D03*
X143750000Y-48250000D03*
X144250000Y-53750000D03*
X144250000Y-53250000D03*
X144250000Y-52750000D03*
X144250000Y-47250000D03*
X144250000Y-47750000D03*
X144250000Y-48250000D03*
X145750000Y-48250000D03*
X145750000Y-47750000D03*
X145750000Y-47250000D03*
X145750000Y-48750000D03*
X145750000Y-49250000D03*
X145750000Y-49750000D03*
X145750000Y-50250000D03*
X145750000Y-50750000D03*
X145750000Y-51250000D03*
X145750000Y-51750000D03*
X145750000Y-52250000D03*
X145750000Y-52750000D03*
X145750000Y-53250000D03*
X145750000Y-53750000D03*
X145250000Y-53750000D03*
X145250000Y-53250000D03*
X145250000Y-52750000D03*
X145250000Y-52250000D03*
X145250000Y-51750000D03*
X145250000Y-51250000D03*
X145250000Y-50750000D03*
X145250000Y-50250000D03*
X145250000Y-49750000D03*
X145250000Y-49250000D03*
X145250000Y-48750000D03*
X145250000Y-47250000D03*
X145250000Y-47750000D03*
X145250000Y-48250000D03*
X144750000Y-48250000D03*
X144750000Y-47750000D03*
X144750000Y-47250000D03*
X144750000Y-48750000D03*
X144750000Y-49250000D03*
X144750000Y-49750000D03*
X144750000Y-50250000D03*
X144750000Y-50750000D03*
X144750000Y-51250000D03*
X144750000Y-51750000D03*
X144750000Y-52250000D03*
X144750000Y-52750000D03*
X144750000Y-53250000D03*
X144750000Y-53750000D03*
D17*
X136000000Y-44750000D03*
X149000000Y-44750000D03*
X149000000Y-56250000D03*
%TD*%
D18*
%TO.C,LAN1*%
X184023000Y-77851000D03*
X184023000Y-66421000D03*
D19*
X180975000Y-79883000D03*
X180975000Y-64389000D03*
D20*
X188595000Y-78867000D03*
X186563000Y-78867000D03*
X188595000Y-65405000D03*
X186563000Y-65405000D03*
X175133000Y-77851000D03*
X177673000Y-76581000D03*
X175133000Y-75311000D03*
X177673000Y-74041000D03*
X175133000Y-72771000D03*
X177673000Y-71501000D03*
X175133000Y-70231000D03*
X177673000Y-68961000D03*
X175133000Y-67691000D03*
X177673000Y-66421000D03*
%TD*%
D21*
%TO.C,USB-OTG1*%
X187842000Y-53550000D03*
X184372000Y-53550000D03*
X184372000Y-60750000D03*
X187842000Y-60750000D03*
D22*
X188992000Y-55650000D03*
X188992000Y-58650000D03*
D23*
X185692000Y-55150000D03*
X185692000Y-59150000D03*
D24*
X184692000Y-55850000D03*
X184692000Y-56500000D03*
X184692000Y-57150000D03*
X184692000Y-57800000D03*
X184692000Y-58450000D03*
%TD*%
D17*
%TO.C,U11*%
X168402000Y-46101000D03*
D25*
X180146000Y-47570000D03*
X180146000Y-48470000D03*
X180146000Y-49370000D03*
X180146000Y-50270000D03*
X180146000Y-51170000D03*
X180146000Y-52070000D03*
X180146000Y-52970000D03*
X180146000Y-53870000D03*
X180146000Y-54770000D03*
X180146000Y-55670000D03*
X180146000Y-56570000D03*
D26*
X178871000Y-57845000D03*
X177971000Y-57845000D03*
X177071000Y-57845000D03*
X176171000Y-57845000D03*
X175271000Y-57845000D03*
X174371000Y-57845000D03*
X173471000Y-57845000D03*
X172571000Y-57845000D03*
X171671000Y-57845000D03*
X170771000Y-57845000D03*
X169871000Y-57845000D03*
D25*
X168596000Y-56570000D03*
X168596000Y-55670000D03*
X168596000Y-54770000D03*
X168596000Y-53870000D03*
X168596000Y-52970000D03*
X168596000Y-52070000D03*
X168596000Y-51170000D03*
X168596000Y-50270000D03*
X168596000Y-49370000D03*
X168596000Y-48470000D03*
X168596000Y-47570000D03*
D26*
X169871000Y-46295000D03*
X170771000Y-46295000D03*
X171671000Y-46295000D03*
X172571000Y-46295000D03*
X173471000Y-46295000D03*
X174371000Y-46295000D03*
X175271000Y-46295000D03*
X176171000Y-46295000D03*
X177071000Y-46295000D03*
X177971000Y-46295000D03*
X178871000Y-46295000D03*
D17*
X180340000Y-58039000D03*
%TD*%
D27*
%TO.C,VR1*%
X162966400Y-48209200D03*
X160655000Y-48209200D03*
X158343600Y-48209200D03*
D28*
X160655000Y-54406800D03*
%TD*%
D17*
%TO.C,U1*%
X137350000Y-64550000D03*
X152550000Y-79750000D03*
D29*
X151450000Y-68250000D03*
X150800000Y-68250000D03*
X148850000Y-68250000D03*
X148200000Y-68250000D03*
X146250000Y-68250000D03*
X145600000Y-68250000D03*
X143650000Y-68250000D03*
X141700000Y-68250000D03*
X139100000Y-68250000D03*
X138450000Y-68250000D03*
X152100000Y-68900000D03*
X151450000Y-68900000D03*
X150800000Y-68900000D03*
X150150000Y-68900000D03*
X149500000Y-68900000D03*
X148850000Y-68900000D03*
X147550000Y-68900000D03*
X141050000Y-68900000D03*
X140400000Y-68900000D03*
X139750000Y-68900000D03*
X139100000Y-68900000D03*
X138450000Y-68900000D03*
X137800000Y-68900000D03*
X152100000Y-69550000D03*
X151450000Y-69550000D03*
X150800000Y-69550000D03*
X150150000Y-69550000D03*
X149500000Y-69550000D03*
X148200000Y-69550000D03*
X146900000Y-69550000D03*
X146250000Y-69550000D03*
X145600000Y-69550000D03*
X144950000Y-69550000D03*
X144300000Y-69550000D03*
X143650000Y-69550000D03*
X143000000Y-69550000D03*
X142350000Y-69550000D03*
X141700000Y-69550000D03*
X141050000Y-69550000D03*
X140400000Y-69550000D03*
X139750000Y-69550000D03*
X139100000Y-69550000D03*
X138450000Y-69550000D03*
X137800000Y-69550000D03*
X151450000Y-70200000D03*
X150800000Y-70200000D03*
X148200000Y-70200000D03*
X147550000Y-70200000D03*
X142350000Y-70200000D03*
X138450000Y-70200000D03*
X152100000Y-70850000D03*
X151450000Y-70850000D03*
X150800000Y-70850000D03*
X150150000Y-70850000D03*
X147550000Y-70850000D03*
X146900000Y-70850000D03*
X146250000Y-70850000D03*
X145600000Y-70850000D03*
X144950000Y-70850000D03*
X144300000Y-70850000D03*
X143650000Y-70850000D03*
X142350000Y-70850000D03*
X141700000Y-70850000D03*
X140400000Y-70850000D03*
X139750000Y-70850000D03*
X139100000Y-70850000D03*
X138450000Y-70850000D03*
X137800000Y-70850000D03*
X152100000Y-71500000D03*
X151450000Y-71500000D03*
X150800000Y-71500000D03*
X150150000Y-71500000D03*
X149500000Y-71500000D03*
X146900000Y-71500000D03*
X144950000Y-71500000D03*
X144300000Y-71500000D03*
X143000000Y-71500000D03*
X141700000Y-71500000D03*
X140400000Y-71500000D03*
X139750000Y-71500000D03*
X139100000Y-71500000D03*
X138450000Y-71500000D03*
X137800000Y-71500000D03*
X151450000Y-72150000D03*
X150800000Y-72150000D03*
X143000000Y-72150000D03*
X141050000Y-72150000D03*
X139100000Y-72150000D03*
X138450000Y-72150000D03*
X152100000Y-72800000D03*
X151450000Y-72800000D03*
X150800000Y-72800000D03*
X150150000Y-72800000D03*
X149500000Y-72800000D03*
X140400000Y-72800000D03*
X139750000Y-72800000D03*
X139100000Y-72800000D03*
X138450000Y-72800000D03*
X137800000Y-72800000D03*
X152100000Y-73450000D03*
X151450000Y-73450000D03*
X150800000Y-73450000D03*
X150150000Y-73450000D03*
X149500000Y-73450000D03*
X148850000Y-73450000D03*
X140400000Y-73450000D03*
X139750000Y-73450000D03*
X139100000Y-73450000D03*
X138450000Y-73450000D03*
X151450000Y-74100000D03*
X150800000Y-74100000D03*
X149500000Y-74100000D03*
X148850000Y-74100000D03*
X141700000Y-74100000D03*
X139100000Y-74100000D03*
X138450000Y-74100000D03*
X152100000Y-74750000D03*
X151450000Y-74750000D03*
X150800000Y-74750000D03*
X150150000Y-74750000D03*
X149500000Y-74750000D03*
X145600000Y-74750000D03*
X144300000Y-74750000D03*
X143000000Y-74750000D03*
X141700000Y-74750000D03*
X140400000Y-74750000D03*
X139750000Y-74750000D03*
X139100000Y-74750000D03*
X138450000Y-74750000D03*
X137800000Y-74750000D03*
X152100000Y-75400000D03*
X151450000Y-75400000D03*
X150800000Y-75400000D03*
X150150000Y-75400000D03*
X149500000Y-75400000D03*
X145600000Y-75400000D03*
X144300000Y-75400000D03*
X143650000Y-75400000D03*
X141700000Y-75400000D03*
X141050000Y-75400000D03*
X140400000Y-75400000D03*
X138450000Y-75400000D03*
X137800000Y-75400000D03*
X151450000Y-76050000D03*
X150800000Y-76050000D03*
X150150000Y-76050000D03*
X148850000Y-76050000D03*
X148200000Y-76050000D03*
X147550000Y-76050000D03*
X146250000Y-76050000D03*
X145600000Y-76050000D03*
X144300000Y-76050000D03*
X143650000Y-76050000D03*
X142350000Y-76050000D03*
X139100000Y-76050000D03*
X138450000Y-76050000D03*
X152100000Y-76700000D03*
X151450000Y-76700000D03*
X150800000Y-76700000D03*
X149500000Y-76700000D03*
X148850000Y-76700000D03*
X146250000Y-76700000D03*
X145600000Y-76700000D03*
X143650000Y-76700000D03*
X142350000Y-76700000D03*
X141700000Y-76700000D03*
X140400000Y-76700000D03*
X139750000Y-76700000D03*
X139100000Y-76700000D03*
X138450000Y-76700000D03*
X137800000Y-76700000D03*
X152100000Y-77350000D03*
X151450000Y-77350000D03*
X150150000Y-77350000D03*
X149500000Y-77350000D03*
X148850000Y-77350000D03*
X148200000Y-77350000D03*
X147550000Y-77350000D03*
X146900000Y-77350000D03*
X144950000Y-77350000D03*
X143650000Y-77350000D03*
X141700000Y-77350000D03*
X140400000Y-77350000D03*
X139100000Y-77350000D03*
X138450000Y-77350000D03*
X137800000Y-77350000D03*
X150800000Y-78000000D03*
X150150000Y-78000000D03*
X149500000Y-78000000D03*
X148850000Y-78000000D03*
X147550000Y-78000000D03*
X146900000Y-78000000D03*
X146250000Y-78000000D03*
X145600000Y-78000000D03*
X144300000Y-78000000D03*
X143650000Y-78000000D03*
X143000000Y-78000000D03*
X142350000Y-78000000D03*
X141700000Y-78000000D03*
X141050000Y-78000000D03*
X140400000Y-78000000D03*
X139750000Y-78000000D03*
X138450000Y-78000000D03*
X152100000Y-78650000D03*
X151450000Y-78650000D03*
X150150000Y-78650000D03*
X148850000Y-78650000D03*
X147550000Y-78650000D03*
X146900000Y-78650000D03*
X146250000Y-78650000D03*
X145600000Y-78650000D03*
X144950000Y-78650000D03*
X144300000Y-78650000D03*
X143650000Y-78650000D03*
X143000000Y-78650000D03*
X142350000Y-78650000D03*
X141700000Y-78650000D03*
X141050000Y-78650000D03*
X140400000Y-78650000D03*
X139750000Y-78650000D03*
X139100000Y-78650000D03*
X138450000Y-78650000D03*
X137800000Y-78650000D03*
X152100000Y-79300000D03*
X150800000Y-79300000D03*
X149500000Y-79300000D03*
X148200000Y-79300000D03*
X147550000Y-79300000D03*
X146250000Y-79300000D03*
X145600000Y-79300000D03*
X144300000Y-79300000D03*
X143650000Y-79300000D03*
X142350000Y-79300000D03*
X141700000Y-79300000D03*
X140400000Y-79300000D03*
X139750000Y-79300000D03*
X138450000Y-79300000D03*
X137800000Y-67600000D03*
X138450000Y-67600000D03*
X139100000Y-67600000D03*
X139750000Y-67600000D03*
X140400000Y-67600000D03*
X141700000Y-67600000D03*
X142350000Y-67600000D03*
X143650000Y-67600000D03*
X144300000Y-67600000D03*
X145600000Y-67600000D03*
X146250000Y-67600000D03*
X147550000Y-67600000D03*
X148200000Y-67600000D03*
X149500000Y-67600000D03*
X150150000Y-67600000D03*
X150800000Y-67600000D03*
X151450000Y-67600000D03*
X152100000Y-67600000D03*
X152100000Y-66950000D03*
X151450000Y-66950000D03*
X150800000Y-66950000D03*
X149500000Y-66950000D03*
X148200000Y-66950000D03*
X147550000Y-66950000D03*
X146250000Y-66950000D03*
X145600000Y-66950000D03*
X144300000Y-66950000D03*
X143650000Y-66950000D03*
X142350000Y-66950000D03*
X141700000Y-66950000D03*
X140400000Y-66950000D03*
X139750000Y-66950000D03*
X139100000Y-66950000D03*
X138450000Y-66950000D03*
X137800000Y-66950000D03*
X138450000Y-66300000D03*
X139750000Y-66300000D03*
X140400000Y-66300000D03*
X141050000Y-66300000D03*
X141700000Y-66300000D03*
X143000000Y-66300000D03*
X144950000Y-66300000D03*
X146900000Y-66300000D03*
X147550000Y-66300000D03*
X148200000Y-66300000D03*
X148850000Y-66300000D03*
X149500000Y-66300000D03*
X150150000Y-66300000D03*
X150800000Y-66300000D03*
X151450000Y-66300000D03*
X152100000Y-65650000D03*
X151450000Y-65650000D03*
X150800000Y-65650000D03*
X150150000Y-65650000D03*
X149500000Y-65650000D03*
X148850000Y-65650000D03*
X148200000Y-65650000D03*
X147550000Y-65650000D03*
X146900000Y-65650000D03*
X146250000Y-65650000D03*
X145600000Y-65650000D03*
X144950000Y-65650000D03*
X144300000Y-65650000D03*
X143650000Y-65650000D03*
X142350000Y-65650000D03*
X141700000Y-65650000D03*
X141050000Y-65650000D03*
X140400000Y-65650000D03*
X139750000Y-65650000D03*
X139100000Y-65650000D03*
X138450000Y-65650000D03*
X137800000Y-65650000D03*
X138450000Y-65000000D03*
X139750000Y-65000000D03*
X140400000Y-65000000D03*
X141700000Y-65000000D03*
X142350000Y-65000000D03*
X143650000Y-65000000D03*
X144300000Y-65000000D03*
X145600000Y-65000000D03*
X146250000Y-65000000D03*
X147550000Y-65000000D03*
X148200000Y-65000000D03*
X149500000Y-65000000D03*
X150150000Y-65000000D03*
X151450000Y-65000000D03*
X137800000Y-79300000D03*
X137800000Y-65000000D03*
X139100000Y-78000000D03*
X139100000Y-75400000D03*
X139750000Y-75400000D03*
X141700000Y-76050000D03*
X142350000Y-77350000D03*
X144300000Y-77350000D03*
X144300000Y-76700000D03*
X144950000Y-78000000D03*
X145600000Y-77350000D03*
X143000000Y-70200000D03*
X144300000Y-70200000D03*
X144950000Y-70200000D03*
X145600000Y-70200000D03*
X146900000Y-70200000D03*
X143000000Y-70850000D03*
X142350000Y-71500000D03*
X143650000Y-71500000D03*
X148850000Y-70850000D03*
X148200000Y-72150000D03*
X148200000Y-72800000D03*
X147550000Y-71500000D03*
X147550000Y-72150000D03*
X146900000Y-72150000D03*
X146900000Y-72800000D03*
X146250000Y-71500000D03*
X145600000Y-71500000D03*
X146250000Y-72150000D03*
X145600000Y-72150000D03*
X147550000Y-72800000D03*
X146250000Y-72800000D03*
X145600000Y-72800000D03*
X144950000Y-72800000D03*
X144300000Y-72800000D03*
X143650000Y-72800000D03*
X143000000Y-72800000D03*
X147550000Y-73450000D03*
X143000000Y-73450000D03*
X143650000Y-73450000D03*
X144300000Y-73450000D03*
X144950000Y-73450000D03*
X145600000Y-73450000D03*
X146250000Y-73450000D03*
X146900000Y-73450000D03*
X148200000Y-74100000D03*
X143000000Y-74100000D03*
X147550000Y-74100000D03*
X146900000Y-74100000D03*
X146250000Y-74100000D03*
X145600000Y-74100000D03*
X144950000Y-74100000D03*
X144300000Y-74100000D03*
X143650000Y-74100000D03*
X148850000Y-74750000D03*
X148200000Y-74750000D03*
X147550000Y-74750000D03*
X146900000Y-74750000D03*
X146250000Y-74750000D03*
X148200000Y-75400000D03*
X146900000Y-75400000D03*
X146250000Y-75400000D03*
X146900000Y-76700000D03*
X148200000Y-78650000D03*
X148200000Y-76700000D03*
X146900000Y-76050000D03*
X143650000Y-74750000D03*
X144950000Y-74750000D03*
X141700000Y-72800000D03*
X143650000Y-72150000D03*
X144300000Y-72150000D03*
X144950000Y-72150000D03*
X152100000Y-65000000D03*
D17*
X152550000Y-64550000D03*
%TD*%
D30*
%TO.C,U2*%
X123000000Y-90200000D03*
X123000000Y-89400000D03*
X123000000Y-88600000D03*
X123000000Y-85400000D03*
X123000000Y-84600000D03*
X123000000Y-83800000D03*
X123800000Y-90200000D03*
X123800000Y-89400000D03*
X123800000Y-88600000D03*
X123800000Y-85400000D03*
X123800000Y-84600000D03*
X123800000Y-83800000D03*
X124600000Y-90200000D03*
X124600000Y-89400000D03*
X124600000Y-88600000D03*
X124600000Y-85400000D03*
X124600000Y-84600000D03*
X124600000Y-83800000D03*
X125400000Y-90200000D03*
X125400000Y-89400000D03*
X125400000Y-88600000D03*
X125400000Y-85400000D03*
X125400000Y-84600000D03*
X125400000Y-83800000D03*
X126200000Y-90200000D03*
X126200000Y-89400000D03*
X126200000Y-88600000D03*
X126200000Y-85400000D03*
X126200000Y-84600000D03*
X126200000Y-83800000D03*
X127000000Y-90200000D03*
X127000000Y-89400000D03*
X127000000Y-88600000D03*
X127000000Y-85400000D03*
X127000000Y-84600000D03*
X127000000Y-83800000D03*
X127800000Y-90200000D03*
X127800000Y-89400000D03*
X127800000Y-88600000D03*
X127800000Y-85400000D03*
X127800000Y-84600000D03*
X127800000Y-83800000D03*
X128600000Y-90200000D03*
X128600000Y-89400000D03*
X128600000Y-88600000D03*
X128600000Y-85400000D03*
X128600000Y-84600000D03*
X128600000Y-83800000D03*
X129400000Y-90200000D03*
X129400000Y-89400000D03*
X129400000Y-88600000D03*
X129400000Y-85400000D03*
X129400000Y-84600000D03*
X129400000Y-83800000D03*
X130200000Y-90200000D03*
X130200000Y-89400000D03*
X130200000Y-88600000D03*
X130200000Y-85400000D03*
X130200000Y-84600000D03*
X130200000Y-83800000D03*
X135650000Y-92500000D03*
X122350000Y-81500000D03*
X135500000Y-91500000D03*
X122500000Y-82500000D03*
X131000000Y-90200000D03*
X131000000Y-89400000D03*
X131000000Y-88600000D03*
X131000000Y-85400000D03*
X131000000Y-84600000D03*
X131000000Y-83800000D03*
X131800000Y-90200000D03*
X131800000Y-89400000D03*
X131800000Y-88600000D03*
X131800000Y-85400000D03*
X131800000Y-84600000D03*
X131800000Y-83800000D03*
X132600000Y-90200000D03*
X132600000Y-89400000D03*
X132600000Y-88600000D03*
X132600000Y-85400000D03*
X132600000Y-84600000D03*
X132600000Y-83800000D03*
X133400000Y-90200000D03*
X133400000Y-89400000D03*
X133400000Y-88600000D03*
X133400000Y-85400000D03*
X133400000Y-84600000D03*
X133400000Y-83800000D03*
X134200000Y-90200000D03*
X134200000Y-89400000D03*
X134200000Y-88600000D03*
X134200000Y-85400000D03*
X134200000Y-84600000D03*
X134200000Y-83800000D03*
X135000000Y-90200000D03*
X135000000Y-89400000D03*
X135000000Y-88600000D03*
X135000000Y-85400000D03*
X135000000Y-84600000D03*
X135000000Y-83800000D03*
%TD*%
%TO.C,U3*%
X121000000Y-76200000D03*
X121000000Y-75400000D03*
X121000000Y-74600000D03*
X121000000Y-71400000D03*
X121000000Y-70600000D03*
X121000000Y-69800000D03*
X121800000Y-76200000D03*
X121800000Y-75400000D03*
X121800000Y-74600000D03*
X121800000Y-71400000D03*
X121800000Y-70600000D03*
X121800000Y-69800000D03*
X122600000Y-76200000D03*
X122600000Y-75400000D03*
X122600000Y-74600000D03*
X122600000Y-71400000D03*
X122600000Y-70600000D03*
X122600000Y-69800000D03*
X123400000Y-76200000D03*
X123400000Y-75400000D03*
X123400000Y-74600000D03*
X123400000Y-71400000D03*
X123400000Y-70600000D03*
X123400000Y-69800000D03*
X124200000Y-76200000D03*
X124200000Y-75400000D03*
X124200000Y-74600000D03*
X124200000Y-71400000D03*
X124200000Y-70600000D03*
X124200000Y-69800000D03*
X125000000Y-76200000D03*
X125000000Y-75400000D03*
X125000000Y-74600000D03*
X125000000Y-71400000D03*
X125000000Y-70600000D03*
X125000000Y-69800000D03*
X125800000Y-76200000D03*
X125800000Y-75400000D03*
X125800000Y-74600000D03*
X125800000Y-71400000D03*
X125800000Y-70600000D03*
X125800000Y-69800000D03*
X126600000Y-76200000D03*
X126600000Y-75400000D03*
X126600000Y-74600000D03*
X126600000Y-71400000D03*
X126600000Y-70600000D03*
X126600000Y-69800000D03*
X127400000Y-76200000D03*
X127400000Y-75400000D03*
X127400000Y-74600000D03*
X127400000Y-71400000D03*
X127400000Y-70600000D03*
X127400000Y-69800000D03*
X128200000Y-76200000D03*
X128200000Y-75400000D03*
X128200000Y-74600000D03*
X128200000Y-71400000D03*
X128200000Y-70600000D03*
X128200000Y-69800000D03*
X133650000Y-78500000D03*
X120350000Y-67500000D03*
X133500000Y-77500000D03*
X120500000Y-68500000D03*
X129000000Y-76200000D03*
X129000000Y-75400000D03*
X129000000Y-74600000D03*
X129000000Y-71400000D03*
X129000000Y-70600000D03*
X129000000Y-69800000D03*
X129800000Y-76200000D03*
X129800000Y-75400000D03*
X129800000Y-74600000D03*
X129800000Y-71400000D03*
X129800000Y-70600000D03*
X129800000Y-69800000D03*
X130600000Y-76200000D03*
X130600000Y-75400000D03*
X130600000Y-74600000D03*
X130600000Y-71400000D03*
X130600000Y-70600000D03*
X130600000Y-69800000D03*
X131400000Y-76200000D03*
X131400000Y-75400000D03*
X131400000Y-74600000D03*
X131400000Y-71400000D03*
X131400000Y-70600000D03*
X131400000Y-69800000D03*
X132200000Y-76200000D03*
X132200000Y-75400000D03*
X132200000Y-74600000D03*
X132200000Y-71400000D03*
X132200000Y-70600000D03*
X132200000Y-69800000D03*
X133000000Y-76200000D03*
X133000000Y-75400000D03*
X133000000Y-74600000D03*
X133000000Y-71400000D03*
X133000000Y-70600000D03*
X133000000Y-69800000D03*
%TD*%
D31*
%TO.C,HEADPHONES/LINEOUT1*%
X107981000Y-78232000D03*
X101981000Y-78232000D03*
D32*
X104881000Y-72932000D03*
X104081000Y-83532000D03*
X107981000Y-72932000D03*
D33*
X108281000Y-83532000D03*
X101781000Y-72932000D03*
%TD*%
D31*
%TO.C,MIC/LINEIN1*%
X107981000Y-92710000D03*
X101981000Y-92710000D03*
D32*
X104881000Y-87410000D03*
X104081000Y-98010000D03*
X107981000Y-87410000D03*
D33*
X108281000Y-98010000D03*
X101781000Y-87410000D03*
%TD*%
D34*
%TO.C,LCD_CON1*%
X119291000Y-95870000D03*
X143091000Y-95870000D03*
D35*
X121441000Y-93770000D03*
X121941000Y-93770000D03*
X122441000Y-93770000D03*
X122941000Y-93770000D03*
X123441000Y-93770000D03*
X123941000Y-93770000D03*
X124441000Y-93770000D03*
X124941000Y-93770000D03*
X125441000Y-93770000D03*
X125941000Y-93770000D03*
X126441000Y-93770000D03*
X126941000Y-93770000D03*
X127441000Y-93770000D03*
X127941000Y-93770000D03*
X128441000Y-93770000D03*
X128941000Y-93770000D03*
X129441000Y-93770000D03*
X129941000Y-93770000D03*
X130441000Y-93770000D03*
X130941000Y-93770000D03*
X131441000Y-93770000D03*
X131941000Y-93770000D03*
X132441000Y-93770000D03*
X132941000Y-93770000D03*
X133441000Y-93770000D03*
X133941000Y-93770000D03*
X134441000Y-93770000D03*
X134941000Y-93770000D03*
X135441000Y-93770000D03*
X135941000Y-93770000D03*
X136441000Y-93770000D03*
X136941000Y-93770000D03*
X137441000Y-93770000D03*
X137941000Y-93770000D03*
X138441000Y-93770000D03*
X138941000Y-93770000D03*
X139441000Y-93770000D03*
X139941000Y-93770000D03*
X140441000Y-93770000D03*
X140941000Y-93770000D03*
%TD*%
D36*
%TO.C,*%
X185166000Y-94869000D03*
%TD*%
%TO.C,*%
X104648000Y-94869000D03*
%TD*%
%TO.C,*%
X104648000Y-39116000D03*
%TD*%
D37*
%TO.C,HDMI1*%
X101547000Y-39182000D03*
D38*
X108747000Y-41982000D03*
X108747000Y-42482000D03*
X108747000Y-42982000D03*
X108747000Y-43482000D03*
X108747000Y-43982000D03*
X108747000Y-44482000D03*
X108747000Y-44982000D03*
X108747000Y-45482000D03*
X108747000Y-45982000D03*
X108747000Y-46482000D03*
X108747000Y-46982000D03*
X108747000Y-47482000D03*
X108747000Y-47982000D03*
X108747000Y-48482000D03*
X108747000Y-48982000D03*
X108747000Y-49482000D03*
X108747000Y-49982000D03*
X108747000Y-50482000D03*
X108747000Y-50982000D03*
D37*
X101547000Y-53782000D03*
D39*
X107597000Y-53782000D03*
X107597000Y-39182000D03*
%TD*%
D40*
%TO.C,U14*%
X170180000Y-88963500D03*
D41*
X168062000Y-85445500D03*
X167362000Y-85445500D03*
X166662000Y-85445500D03*
X166662000Y-86145500D03*
X166662000Y-86845500D03*
X165062000Y-86845500D03*
X165062000Y-86145500D03*
X165062000Y-85445500D03*
X164362000Y-85445500D03*
X163662000Y-85445500D03*
X163662000Y-83845500D03*
X164362000Y-83845500D03*
X165062000Y-83845500D03*
X165062000Y-83145500D03*
X165062000Y-82445500D03*
X166662000Y-82445500D03*
X166662000Y-83145500D03*
X166662000Y-83845500D03*
X167362000Y-83845500D03*
X168062000Y-83845500D03*
D42*
X165862000Y-84645500D03*
D43*
X165862000Y-84645500D03*
D44*
X169862000Y-81445500D03*
X169862000Y-81845500D03*
X169862000Y-82245500D03*
X169862000Y-82645500D03*
X169862000Y-83045500D03*
X169862000Y-83445500D03*
X169862000Y-83845500D03*
X169862000Y-84245500D03*
X169862000Y-84645500D03*
X169862000Y-85045500D03*
X169862000Y-85445500D03*
X169862000Y-85845500D03*
X169862000Y-86245500D03*
X169862000Y-86645500D03*
X169862000Y-87045500D03*
X169862000Y-87445500D03*
X169862000Y-87845500D03*
D45*
X169062000Y-88645500D03*
X168662000Y-88645500D03*
X168262000Y-88645500D03*
X167862000Y-88645500D03*
X167462000Y-88645500D03*
X167062000Y-88645500D03*
X166662000Y-88645500D03*
X166262000Y-88645500D03*
X165862000Y-88645500D03*
X165462000Y-88645500D03*
X165062000Y-88645500D03*
X164662000Y-88645500D03*
X164262000Y-88645500D03*
X163862000Y-88645500D03*
X163462000Y-88645500D03*
X163062000Y-88645500D03*
X162662000Y-88645500D03*
D44*
X161862000Y-87845500D03*
X161862000Y-87445500D03*
X161862000Y-87045500D03*
X161862000Y-86645500D03*
X161862000Y-86245500D03*
X161862000Y-85845500D03*
X161862000Y-85445500D03*
X161862000Y-85045500D03*
X161862000Y-84645500D03*
X161862000Y-84245500D03*
X161862000Y-83845500D03*
X161862000Y-83445500D03*
X161862000Y-83045500D03*
X161862000Y-82645500D03*
X161862000Y-82245500D03*
X161862000Y-81845500D03*
X161862000Y-81445500D03*
D45*
X162662000Y-80645500D03*
X163062000Y-80645500D03*
X163462000Y-80645500D03*
X163862000Y-80645500D03*
X164262000Y-80645500D03*
X164662000Y-80645500D03*
X165062000Y-80645500D03*
X165462000Y-80645500D03*
X165862000Y-80645500D03*
X166262000Y-80645500D03*
X166662000Y-80645500D03*
X167062000Y-80645500D03*
X167462000Y-80645500D03*
X167862000Y-80645500D03*
X168262000Y-80645500D03*
X168662000Y-80645500D03*
X169062000Y-80645500D03*
D40*
X161544000Y-80327500D03*
%TD*%
D46*
%TO.C,L19*%
X168783000Y-77146000D03*
X168783000Y-74746000D03*
%TD*%
%TO.C,L20*%
X163957000Y-77273000D03*
X163957000Y-74873000D03*
%TD*%
%TO.C,L14*%
X157226000Y-83242000D03*
X157226000Y-80842000D03*
%TD*%
D47*
%TO.C,L17*%
X160274000Y-94564000D03*
X160274000Y-91364000D03*
%TD*%
%TO.C,L15*%
X165100000Y-94945000D03*
X165100000Y-91745000D03*
%TD*%
%TO.C,L18*%
X174879000Y-81585000D03*
X174879000Y-84785000D03*
%TD*%
D48*
%TO.C,L16*%
X179218000Y-85217000D03*
X185018000Y-85217000D03*
%TD*%
D49*
%TO.C,USB1*%
X114712000Y-65532000D03*
X112712000Y-65532000D03*
X110712000Y-65532000D03*
X108712000Y-65532000D03*
D50*
X108212000Y-68382000D03*
X108212000Y-62682000D03*
X115212000Y-68382000D03*
X115212000Y-62682000D03*
%TD*%
D51*
%TO.C,Mounting_hole1*%
X172800000Y-96600000D03*
%TD*%
D52*
%TO.C,C187*%
X144018000Y-62992000D03*
X143002000Y-62992000D03*
%TD*%
D53*
%TO.C,C91*%
X165608000Y-54737000D03*
X165608000Y-56515000D03*
%TD*%
D52*
%TO.C,C32*%
X121008000Y-81300000D03*
X119992000Y-81300000D03*
%TD*%
%TO.C,C33*%
X119992000Y-84000000D03*
X121008000Y-84000000D03*
%TD*%
D13*
%TO.C,C39*%
X153797000Y-47117000D03*
X153797000Y-46101000D03*
%TD*%
%TO.C,C40*%
X154178000Y-50927000D03*
X154178000Y-49911000D03*
%TD*%
%TO.C,C41*%
X131191000Y-50673000D03*
X131191000Y-49657000D03*
%TD*%
D53*
%TO.C,C47*%
X128778000Y-63754000D03*
X130556000Y-63754000D03*
%TD*%
D13*
%TO.C,C48*%
X114808000Y-86360000D03*
X114808000Y-87376000D03*
%TD*%
D53*
%TO.C,C49*%
X128778000Y-65278000D03*
X130556000Y-65278000D03*
%TD*%
D13*
%TO.C,C52*%
X116586000Y-87376000D03*
X116586000Y-86360000D03*
%TD*%
D53*
%TO.C,C57*%
X115697000Y-84201000D03*
X113919000Y-84201000D03*
%TD*%
D13*
%TO.C,C58*%
X111125000Y-86360000D03*
X111125000Y-85344000D03*
%TD*%
%TO.C,C60*%
X117475000Y-87376000D03*
X117475000Y-86360000D03*
%TD*%
%TO.C,C62*%
X119253000Y-87376000D03*
X119253000Y-86360000D03*
%TD*%
D53*
%TO.C,C63*%
X133604000Y-65278000D03*
X131826000Y-65278000D03*
%TD*%
D13*
%TO.C,C65*%
X115570000Y-80264000D03*
X115570000Y-79248000D03*
%TD*%
D52*
%TO.C,C66*%
X113284000Y-71501000D03*
X114300000Y-71501000D03*
%TD*%
%TO.C,C67*%
X182245000Y-57912000D03*
X181229000Y-57912000D03*
%TD*%
D54*
%TO.C,C68*%
X175895000Y-59690000D03*
X175895000Y-61722000D03*
%TD*%
%TO.C,C69*%
X177927000Y-59690000D03*
X177927000Y-61722000D03*
%TD*%
%TO.C,C70*%
X179959000Y-59690000D03*
X179959000Y-61722000D03*
%TD*%
%TO.C,C71*%
X168402000Y-61722000D03*
X168402000Y-59690000D03*
%TD*%
D13*
%TO.C,C74*%
X110871000Y-58166000D03*
X110871000Y-57150000D03*
%TD*%
D54*
%TO.C,C75*%
X120650000Y-58166000D03*
X120650000Y-60198000D03*
%TD*%
%TO.C,C76*%
X118618000Y-58166000D03*
X118618000Y-60198000D03*
%TD*%
%TO.C,C77*%
X116459000Y-56134000D03*
X116459000Y-58166000D03*
%TD*%
D55*
%TO.C,C78*%
X120777000Y-56261000D03*
X118745000Y-56261000D03*
%TD*%
D53*
%TO.C,C89*%
X175260000Y-44577000D03*
X173482000Y-44577000D03*
%TD*%
D52*
%TO.C,C90*%
X171577000Y-44831000D03*
X170561000Y-44831000D03*
%TD*%
D13*
%TO.C,C92*%
X167132000Y-55626000D03*
X167132000Y-56642000D03*
%TD*%
D52*
%TO.C,C105*%
X178054000Y-44958000D03*
X179070000Y-44958000D03*
%TD*%
%TO.C,C106*%
X180848000Y-44069000D03*
X179832000Y-44069000D03*
%TD*%
%TO.C,C107*%
X176276000Y-44069000D03*
X177292000Y-44069000D03*
%TD*%
D53*
%TO.C,C122*%
X160147000Y-79121000D03*
X158369000Y-79121000D03*
%TD*%
%TO.C,C124*%
X173101000Y-86614000D03*
X173101000Y-88392000D03*
%TD*%
%TO.C,C129*%
X160147000Y-98425000D03*
X160147000Y-96647000D03*
%TD*%
%TO.C,C131*%
X158623000Y-98425000D03*
X158623000Y-96647000D03*
%TD*%
%TO.C,C136*%
X157226000Y-90805000D03*
X155448000Y-90805000D03*
%TD*%
%TO.C,C138*%
X176403000Y-87122000D03*
X176403000Y-88900000D03*
%TD*%
%TO.C,C139*%
X156337000Y-87884000D03*
X154559000Y-87884000D03*
%TD*%
%TO.C,C140*%
X178308000Y-94996000D03*
X180086000Y-94996000D03*
%TD*%
%TO.C,C141*%
X179578000Y-89789000D03*
X181356000Y-89789000D03*
%TD*%
%TO.C,C143*%
X168402000Y-95758000D03*
X168402000Y-93980000D03*
%TD*%
%TO.C,C144*%
X174625000Y-86614000D03*
X174625000Y-88392000D03*
%TD*%
%TO.C,C146*%
X148971000Y-82677000D03*
X150749000Y-82677000D03*
%TD*%
%TO.C,C150*%
X171069000Y-73152000D03*
X169291000Y-73152000D03*
%TD*%
%TO.C,C154*%
X160147000Y-77724000D03*
X160147000Y-75946000D03*
%TD*%
%TO.C,C163*%
X158877000Y-77724000D03*
X158877000Y-75946000D03*
%TD*%
%TO.C,C166*%
X157607000Y-77724000D03*
X157607000Y-75946000D03*
%TD*%
%TO.C,C169*%
X159385000Y-87884000D03*
X157607000Y-87884000D03*
%TD*%
%TO.C,C172*%
X171577000Y-78359000D03*
X171577000Y-80137000D03*
%TD*%
%TO.C,C175*%
X158623000Y-86360000D03*
X156845000Y-86360000D03*
%TD*%
%TO.C,C182*%
X158115000Y-89408000D03*
X159893000Y-89408000D03*
%TD*%
D52*
%TO.C,C185*%
X147193000Y-62992000D03*
X148209000Y-62992000D03*
%TD*%
D13*
%TO.C,C186*%
X156337000Y-77470000D03*
X156337000Y-78486000D03*
%TD*%
D52*
%TO.C,C193*%
X132715000Y-64135000D03*
X133731000Y-64135000D03*
%TD*%
D13*
%TO.C,C195*%
X155448000Y-77470000D03*
X155448000Y-78486000D03*
%TD*%
D56*
%TO.C,D2*%
X170474000Y-90805000D03*
X175474000Y-90805000D03*
%TD*%
D55*
%TO.C,L3*%
X112268000Y-79883000D03*
X112268000Y-77851000D03*
%TD*%
D54*
%TO.C,L4*%
X103378000Y-70104000D03*
X101346000Y-70104000D03*
%TD*%
D55*
%TO.C,L5*%
X114173000Y-79883000D03*
X114173000Y-77851000D03*
%TD*%
%TO.C,L6*%
X181991000Y-59690000D03*
X181991000Y-61722000D03*
%TD*%
D54*
%TO.C,L8*%
X112395000Y-58166000D03*
X114427000Y-58166000D03*
%TD*%
D52*
%TO.C,R18*%
X154940000Y-54102000D03*
X153924000Y-54102000D03*
%TD*%
%TO.C,R33*%
X154559000Y-74676000D03*
X153543000Y-74676000D03*
%TD*%
D13*
%TO.C,R39*%
X114935000Y-52578000D03*
X114935000Y-53594000D03*
%TD*%
%TO.C,R43*%
X114935000Y-51816000D03*
X114935000Y-50800000D03*
%TD*%
%TO.C,R44*%
X114935000Y-49022000D03*
X114935000Y-50038000D03*
%TD*%
%TO.C,R45*%
X114935000Y-48260000D03*
X114935000Y-47244000D03*
%TD*%
D52*
%TO.C,R98*%
X153543000Y-72136000D03*
X154559000Y-72136000D03*
%TD*%
D57*
%TO.C,U6*%
X170531000Y-59629000D03*
X170531000Y-61529000D03*
X173131000Y-59629000D03*
X173131000Y-60579000D03*
X173131000Y-61529000D03*
%TD*%
D58*
%TO.C,U9*%
X124648000Y-57628000D03*
X122748000Y-57628000D03*
X124648000Y-60228000D03*
X123698000Y-60228000D03*
X122748000Y-60228000D03*
%TD*%
D57*
%TO.C,U13*%
X178023900Y-91506000D03*
X178023900Y-92456000D03*
X178023900Y-93406000D03*
X180624100Y-93406000D03*
X180624100Y-92456000D03*
X180624100Y-91506000D03*
%TD*%
D13*
%TO.C,R40*%
X167259000Y-58547000D03*
X167259000Y-57531000D03*
%TD*%
D52*
%TO.C,R70*%
X120269000Y-92075000D03*
X119253000Y-92075000D03*
%TD*%
%TO.C,R71*%
X120269000Y-92964000D03*
X119253000Y-92964000D03*
%TD*%
D13*
%TO.C,R74*%
X180975000Y-97726500D03*
X180975000Y-96710500D03*
%TD*%
%TO.C,R82*%
X176276000Y-94234000D03*
X176276000Y-95250000D03*
%TD*%
%TO.C,R101*%
X153543000Y-65151000D03*
X153543000Y-64135000D03*
%TD*%
D52*
%TO.C,R102*%
X152527000Y-63119000D03*
X153543000Y-63119000D03*
%TD*%
%TO.C,R103*%
X132715000Y-63246000D03*
X133731000Y-63246000D03*
%TD*%
%TO.C,R104*%
X168910000Y-90805000D03*
X167894000Y-90805000D03*
%TD*%
%TO.C,R80*%
X175768000Y-93345000D03*
X176784000Y-93345000D03*
%TD*%
D13*
%TO.C,R81*%
X177165000Y-94234000D03*
X177165000Y-95250000D03*
%TD*%
%TO.C,R75*%
X149987000Y-93091000D03*
X149987000Y-94107000D03*
%TD*%
%TO.C,R76*%
X147828000Y-93091000D03*
X147828000Y-94107000D03*
%TD*%
%TO.C,R77*%
X149098000Y-93091000D03*
X149098000Y-94107000D03*
%TD*%
%TO.C,R79*%
X145796000Y-90805000D03*
X145796000Y-91821000D03*
%TD*%
%TO.C,R25*%
X113665000Y-86360000D03*
X113665000Y-85344000D03*
%TD*%
D52*
%TO.C,R26*%
X117348000Y-89281000D03*
X118364000Y-89281000D03*
%TD*%
D13*
%TO.C,R29*%
X113919000Y-88392000D03*
X113919000Y-87376000D03*
%TD*%
%TO.C,R32*%
X109855000Y-71374000D03*
X109855000Y-72390000D03*
%TD*%
D52*
%TO.C,R35*%
X115062000Y-70612000D03*
X116078000Y-70612000D03*
%TD*%
%TO.C,R48*%
X123063000Y-56261000D03*
X124079000Y-56261000D03*
%TD*%
D13*
%TO.C,R49*%
X125857000Y-59436000D03*
X125857000Y-60452000D03*
%TD*%
D52*
%TO.C,R47*%
X116078000Y-45974000D03*
X115062000Y-45974000D03*
%TD*%
%TO.C,R50*%
X116078000Y-45085000D03*
X115062000Y-45085000D03*
%TD*%
D13*
%TO.C,R51*%
X110871000Y-44958000D03*
X110871000Y-43942000D03*
%TD*%
D52*
%TO.C,R52*%
X115062000Y-44196000D03*
X116078000Y-44196000D03*
%TD*%
%TO.C,R16*%
X154178000Y-51943000D03*
X155194000Y-51943000D03*
%TD*%
%TO.C,R17*%
X153924000Y-54991000D03*
X154940000Y-54991000D03*
%TD*%
D13*
%TO.C,R19*%
X131191000Y-46482000D03*
X131191000Y-47498000D03*
%TD*%
D52*
%TO.C,R20*%
X154178000Y-52832000D03*
X155194000Y-52832000D03*
%TD*%
%TO.C,R22*%
X155702000Y-45085000D03*
X154686000Y-45085000D03*
%TD*%
D13*
%TO.C,R24*%
X129540000Y-48514000D03*
X129540000Y-49530000D03*
%TD*%
%TO.C,R7*%
X148717000Y-81534000D03*
X148717000Y-80518000D03*
%TD*%
D52*
%TO.C,R11*%
X121008000Y-82200000D03*
X119992000Y-82200000D03*
%TD*%
%TO.C,R12*%
X119992000Y-83100000D03*
X121008000Y-83100000D03*
%TD*%
%TO.C,R6*%
X119992000Y-80400000D03*
X121008000Y-80400000D03*
%TD*%
%TO.C,R10*%
X124206000Y-79248000D03*
X125222000Y-79248000D03*
%TD*%
%TO.C,R14*%
X123444000Y-79248000D03*
X122428000Y-79248000D03*
%TD*%
D13*
%TO.C,R99*%
X125857000Y-58674000D03*
X125857000Y-57658000D03*
%TD*%
D59*
%TO.C,PWRON1*%
X188282000Y-51054000D03*
X184082000Y-51054000D03*
D60*
X186182000Y-51904000D03*
X186182000Y-50204000D03*
%TD*%
D59*
%TO.C,RESET1*%
X188282000Y-47625000D03*
X184082000Y-47625000D03*
D60*
X186182000Y-48475000D03*
X186182000Y-46775000D03*
%TD*%
D59*
%TO.C,UBOOT1*%
X120963000Y-64643000D03*
X125163000Y-64643000D03*
D60*
X123063000Y-63793000D03*
X123063000Y-65493000D03*
%TD*%
D13*
%TO.C,R34*%
X112014000Y-72390000D03*
X112014000Y-71374000D03*
%TD*%
D52*
%TO.C,R94*%
X146304000Y-62992000D03*
X145288000Y-62992000D03*
%TD*%
D55*
%TO.C,C202*%
X170307000Y-68834000D03*
X168275000Y-68834000D03*
%TD*%
D53*
%TO.C,C204*%
X158496000Y-62611000D03*
X160274000Y-62611000D03*
%TD*%
%TO.C,C205*%
X166370000Y-68834000D03*
X164592000Y-68834000D03*
%TD*%
%TO.C,C214*%
X168275000Y-67056000D03*
X170053000Y-67056000D03*
%TD*%
%TO.C,C218*%
X155829000Y-46863000D03*
X155829000Y-48641000D03*
%TD*%
%TO.C,C219*%
X158877000Y-58928000D03*
X157099000Y-58928000D03*
%TD*%
D55*
%TO.C,L21*%
X165608000Y-59182000D03*
X165608000Y-61214000D03*
%TD*%
%TO.C,L23*%
X162179000Y-58801000D03*
X162179000Y-60833000D03*
%TD*%
%TO.C,L24*%
X160401000Y-58801000D03*
X160401000Y-60833000D03*
%TD*%
D52*
%TO.C,R100*%
X156972000Y-67183000D03*
X157988000Y-67183000D03*
%TD*%
%TO.C,R105*%
X161036000Y-68072000D03*
X162052000Y-68072000D03*
%TD*%
%TO.C,R106*%
X163195000Y-69088000D03*
X162179000Y-69088000D03*
%TD*%
%TO.C,R107*%
X158750000Y-67183000D03*
X159766000Y-67183000D03*
%TD*%
D13*
%TO.C,R108*%
X163449000Y-61722000D03*
X163449000Y-60706000D03*
%TD*%
%TO.C,R112*%
X188976000Y-81153000D03*
X188976000Y-82169000D03*
%TD*%
D52*
%TO.C,R113*%
X187960000Y-63119000D03*
X186944000Y-63119000D03*
%TD*%
%TO.C,R114*%
X184912000Y-63119000D03*
X185928000Y-63119000D03*
%TD*%
%TO.C,R116*%
X162179000Y-70104000D03*
X163195000Y-70104000D03*
%TD*%
%TO.C,R118*%
X164465000Y-72771000D03*
X165481000Y-72771000D03*
%TD*%
D13*
%TO.C,R119*%
X164338000Y-61722000D03*
X164338000Y-60706000D03*
%TD*%
D53*
%TO.C,R120*%
X164846000Y-49022000D03*
X164846000Y-47244000D03*
%TD*%
D52*
%TO.C,C199*%
X171323000Y-70993000D03*
X172339000Y-70993000D03*
%TD*%
%TO.C,C200*%
X171323000Y-71882000D03*
X172339000Y-71882000D03*
%TD*%
%TO.C,C203*%
X166878000Y-62611000D03*
X165862000Y-62611000D03*
%TD*%
%TO.C,C206*%
X165354000Y-67310000D03*
X164338000Y-67310000D03*
%TD*%
D13*
%TO.C,C207*%
X171704000Y-66929000D03*
X171704000Y-67945000D03*
%TD*%
%TO.C,C208*%
X167259000Y-69977000D03*
X167259000Y-70993000D03*
%TD*%
D52*
%TO.C,C209*%
X166243000Y-70231000D03*
X165227000Y-70231000D03*
%TD*%
D13*
%TO.C,C215*%
X166497000Y-66040000D03*
X166497000Y-65024000D03*
%TD*%
D52*
%TO.C,C217*%
X165227000Y-66167000D03*
X164211000Y-66167000D03*
%TD*%
%TO.C,C198*%
X156972000Y-68072000D03*
X157988000Y-68072000D03*
%TD*%
D56*
%TO.C,D5*%
X157520000Y-45212000D03*
X162520000Y-45212000D03*
%TD*%
D13*
%TO.C,R58*%
X167767000Y-43688000D03*
X167767000Y-44704000D03*
%TD*%
D14*
%TO.C,DDR-VCC1*%
X119507000Y-68707000D03*
%TD*%
%TO.C,+3.3VWiFiIO1*%
X165608000Y-57658000D03*
%TD*%
%TO.C,+5V_USBOTG1*%
X181864000Y-56769000D03*
%TD*%
%TO.C,1.1V_CPUX1*%
X163068000Y-96647000D03*
%TD*%
%TO.C,3.3V1*%
X130302000Y-47879000D03*
%TD*%
%TO.C,3.3V_MIPI1*%
X162052000Y-78867000D03*
%TD*%
%TO.C,1.25_EXT1*%
X155194000Y-57658000D03*
%TD*%
%TO.C,GND1*%
X104140000Y-58420000D03*
%TD*%
D13*
%TO.C,R59*%
X110744000Y-71374000D03*
X110744000Y-72390000D03*
%TD*%
%TO.C,R63*%
X115570000Y-78359000D03*
X115570000Y-77343000D03*
%TD*%
D52*
%TO.C,R64*%
X115062000Y-71501000D03*
X116078000Y-71501000D03*
%TD*%
D61*
%TO.C,HSIC1*%
X118793000Y-45720000D03*
D62*
X120793000Y-45720000D03*
X122793000Y-45720000D03*
X124793000Y-45720000D03*
%TD*%
D63*
%TO.C,GPIO1*%
X166370000Y-38989000D03*
X166370000Y-41529000D03*
X163830000Y-38989000D03*
X163830000Y-41529000D03*
X161290000Y-38989000D03*
X161290000Y-41529000D03*
X158750000Y-38989000D03*
X158750000Y-41529000D03*
X156210000Y-38989000D03*
X156210000Y-41529000D03*
X146050000Y-38989000D03*
X146050000Y-41529000D03*
X143510000Y-38989000D03*
X143510000Y-41529000D03*
X148590000Y-41529000D03*
X148590000Y-38989000D03*
X151130000Y-38989000D03*
X151130000Y-41529000D03*
X153670000Y-41529000D03*
X153670000Y-38989000D03*
X128270000Y-38989000D03*
X128270000Y-41529000D03*
X125730000Y-41529000D03*
X125730000Y-38989000D03*
X123190000Y-38989000D03*
X123190000Y-41529000D03*
D64*
X118110000Y-41529000D03*
D63*
X118110000Y-38989000D03*
X120650000Y-41529000D03*
X120650000Y-38989000D03*
X130810000Y-41529000D03*
X130810000Y-38989000D03*
X133350000Y-41529000D03*
X133350000Y-38989000D03*
X135890000Y-41529000D03*
X135890000Y-38989000D03*
X138430000Y-41529000D03*
X138430000Y-38989000D03*
X140970000Y-41529000D03*
X140970000Y-38989000D03*
%TD*%
D65*
%TO.C,U4*%
X152394000Y-56296000D03*
X152394000Y-55796000D03*
X152394000Y-55296000D03*
X152394000Y-54796000D03*
X152394000Y-54296000D03*
X152394000Y-53796000D03*
X152394000Y-53296000D03*
X152394000Y-52796000D03*
X152394000Y-52296000D03*
X152394000Y-51796000D03*
X152394000Y-51296000D03*
X152394000Y-50796000D03*
X152394000Y-50296000D03*
X152394000Y-49796000D03*
X152394000Y-49296000D03*
X152394000Y-48796000D03*
X152394000Y-48296000D03*
X152394000Y-47796000D03*
X152394000Y-47296000D03*
X152394000Y-46796000D03*
X152394000Y-46296000D03*
X152394000Y-45796000D03*
X152394000Y-45296000D03*
X152394000Y-44796000D03*
X132594000Y-44796000D03*
X132594000Y-45296000D03*
X132594000Y-45796000D03*
X132594000Y-46296000D03*
X132594000Y-46796000D03*
X132594000Y-47296000D03*
X132594000Y-47796000D03*
X132594000Y-48296000D03*
X132594000Y-48796000D03*
X132594000Y-49296000D03*
X132594000Y-49796000D03*
X132594000Y-50296000D03*
X132594000Y-50796000D03*
X132594000Y-51296000D03*
X132594000Y-51796000D03*
X132594000Y-52296000D03*
X132594000Y-52796000D03*
X132594000Y-53296000D03*
X132594000Y-53796000D03*
X132594000Y-54296000D03*
X132594000Y-54796000D03*
X132594000Y-55296000D03*
X132594000Y-55796000D03*
X132594000Y-56296000D03*
%TD*%
D63*
%TO.C,UEXT1*%
X156210000Y-96139000D03*
X156210000Y-98679000D03*
X153670000Y-98679000D03*
X153670000Y-96139000D03*
X151130000Y-96139000D03*
X151130000Y-98679000D03*
D64*
X146050000Y-98679000D03*
D63*
X146050000Y-96139000D03*
X148590000Y-98679000D03*
X148590000Y-96139000D03*
%TD*%
D64*
%TO.C,DBG_UART1*%
X162560000Y-98679000D03*
D63*
X165100000Y-98679000D03*
X167640000Y-98679000D03*
%TD*%
D66*
%TO.C,LIPO_BAT1*%
X187982860Y-87749380D03*
D67*
X187980320Y-85737700D03*
%TD*%
D68*
%TO.C,PHYRST1*%
X157988000Y-65024000D03*
D69*
X160528000Y-65024000D03*
%TD*%
D13*
%TO.C,C45*%
X112014000Y-86360000D03*
X112014000Y-85344000D03*
%TD*%
%TO.C,C82*%
X115697000Y-87376000D03*
X115697000Y-86360000D03*
%TD*%
%TO.C,C83*%
X118364000Y-87376000D03*
X118364000Y-86360000D03*
%TD*%
D52*
%TO.C,C84*%
X116586000Y-88392000D03*
X115570000Y-88392000D03*
%TD*%
%TO.C,C85*%
X117348000Y-88392000D03*
X118364000Y-88392000D03*
%TD*%
D14*
%TO.C,GNDA1*%
X101092000Y-84963000D03*
%TD*%
D70*
%TO.C,PWR1*%
X182441000Y-95174000D03*
D71*
X188441000Y-95324000D03*
D72*
X185695000Y-90724000D03*
%TD*%
D51*
%TO.C,Mounting_hole2*%
X114500000Y-96600000D03*
%TD*%
D73*
%TO.C,LINEINL/MICIN2*%
X112903000Y-92456000D03*
X114046000Y-92456000D03*
X115189000Y-92456000D03*
%TD*%
%TO.C,LINEINR/MICIN1*%
X115189000Y-89916000D03*
X114046000Y-89916000D03*
X112903000Y-89916000D03*
%TD*%
%TO.C,HPHONEOUTL/LINEOUTL1*%
X113665000Y-75692000D03*
X114808000Y-75692000D03*
X115951000Y-75692000D03*
%TD*%
%TO.C,HPHONEOUTR/LINEOUTR1*%
X115951000Y-73152000D03*
X114808000Y-73152000D03*
X113665000Y-73152000D03*
%TD*%
D51*
%TO.C,Mounting_hole3*%
X113000000Y-40900000D03*
%TD*%
D18*
%TO.C,Mounting_hole4*%
X171300000Y-40900000D03*
%TD*%
D15*
%TO.C,GPIO_LED1*%
X166497000Y-45085000D03*
X164973000Y-45085000D03*
%TD*%
D74*
%TO.C,RM14*%
X146840000Y-93086500D03*
X146840000Y-94111500D03*
D75*
X146300000Y-93086500D03*
X146300000Y-94111500D03*
X145800000Y-93086500D03*
X145800000Y-94111500D03*
D74*
X145260000Y-93086500D03*
X145260000Y-94111500D03*
%TD*%
D76*
%TO.C,U7*%
X112211500Y-52816000D03*
X112211500Y-52316000D03*
D77*
X112261500Y-51816000D03*
D76*
X112211500Y-51316000D03*
X112211500Y-50816000D03*
X113086500Y-50816000D03*
X113086500Y-51316000D03*
D77*
X113036500Y-51816000D03*
D76*
X113086500Y-52316000D03*
X113086500Y-52816000D03*
%TD*%
%TO.C,U8*%
X113086500Y-49895000D03*
X113086500Y-49395000D03*
D77*
X113036500Y-48895000D03*
D76*
X113086500Y-48395000D03*
X113086500Y-47895000D03*
X112211500Y-47895000D03*
X112211500Y-48395000D03*
D77*
X112261500Y-48895000D03*
D76*
X112211500Y-49395000D03*
X112211500Y-49895000D03*
%TD*%
%TO.C,U10*%
X112211500Y-46974000D03*
X112211500Y-46474000D03*
D77*
X112261500Y-45974000D03*
D76*
X112211500Y-45474000D03*
X112211500Y-44974000D03*
X113086500Y-44974000D03*
X113086500Y-45474000D03*
D77*
X113036500Y-45974000D03*
D76*
X113086500Y-46474000D03*
X113086500Y-46974000D03*
%TD*%
D78*
%TO.C,Q3*%
X148408000Y-60579000D03*
X144708000Y-60579000D03*
%TD*%
D52*
%TO.C,C88*%
X160274000Y-73660000D03*
X159258000Y-73660000D03*
%TD*%
%TO.C,L7*%
X159766000Y-68072000D03*
X158750000Y-68072000D03*
%TD*%
%TO.C,L9*%
X158496000Y-73660000D03*
X157480000Y-73660000D03*
%TD*%
D13*
%TO.C,R69*%
X156654500Y-72644000D03*
X156654500Y-73660000D03*
%TD*%
D52*
%TO.C,R72*%
X162052000Y-73342500D03*
X161036000Y-73342500D03*
%TD*%
D11*
%TO.C,RM8*%
X161212500Y-70490000D03*
X160187500Y-70490000D03*
D12*
X161212500Y-69950000D03*
X160187500Y-69950000D03*
X161212500Y-69450000D03*
X160187500Y-69450000D03*
D11*
X161212500Y-68910000D03*
X160187500Y-68910000D03*
%TD*%
D52*
%TO.C,L10*%
X178054000Y-44069000D03*
X179070000Y-44069000D03*
%TD*%
M02*
