G75*
G70*
%OFA0B0*%
%FSLAX24Y24*%
%IPPOS*%
%LPD*%
%AMOC8*
5,1,8,0,0,1.08239X$1,22.5*
%
%ADD10C,0.0100*%
%ADD11C,0.0000*%
D10*
X005493Y004152D02*
X044993Y004152D01*
X044993Y037652D01*
X005493Y037652D01*
X005493Y004152D01*
D11*
X007046Y018686D02*
X007048Y018714D01*
X007054Y018742D01*
X007064Y018768D01*
X007077Y018793D01*
X007094Y018815D01*
X007114Y018835D01*
X007136Y018852D01*
X007161Y018865D01*
X007187Y018875D01*
X007215Y018881D01*
X007243Y018883D01*
X007271Y018881D01*
X007299Y018875D01*
X007325Y018865D01*
X007350Y018852D01*
X007372Y018835D01*
X007392Y018815D01*
X007409Y018793D01*
X007422Y018768D01*
X007432Y018742D01*
X007438Y018714D01*
X007440Y018686D01*
X007438Y018658D01*
X007432Y018630D01*
X007422Y018604D01*
X007409Y018579D01*
X007392Y018557D01*
X007372Y018537D01*
X007350Y018520D01*
X007325Y018507D01*
X007299Y018497D01*
X007271Y018491D01*
X007243Y018489D01*
X007215Y018491D01*
X007187Y018497D01*
X007161Y018507D01*
X007136Y018520D01*
X007114Y018537D01*
X007094Y018557D01*
X007077Y018579D01*
X007064Y018604D01*
X007054Y018630D01*
X007048Y018658D01*
X007046Y018686D01*
X007046Y020419D02*
X007048Y020447D01*
X007054Y020475D01*
X007064Y020501D01*
X007077Y020526D01*
X007094Y020548D01*
X007114Y020568D01*
X007136Y020585D01*
X007161Y020598D01*
X007187Y020608D01*
X007215Y020614D01*
X007243Y020616D01*
X007271Y020614D01*
X007299Y020608D01*
X007325Y020598D01*
X007350Y020585D01*
X007372Y020568D01*
X007392Y020548D01*
X007409Y020526D01*
X007422Y020501D01*
X007432Y020475D01*
X007438Y020447D01*
X007440Y020419D01*
X007438Y020391D01*
X007432Y020363D01*
X007422Y020337D01*
X007409Y020312D01*
X007392Y020290D01*
X007372Y020270D01*
X007350Y020253D01*
X007325Y020240D01*
X007299Y020230D01*
X007271Y020224D01*
X007243Y020222D01*
X007215Y020224D01*
X007187Y020230D01*
X007161Y020240D01*
X007136Y020253D01*
X007114Y020270D01*
X007094Y020290D01*
X007077Y020312D01*
X007064Y020337D01*
X007054Y020363D01*
X007048Y020391D01*
X007046Y020419D01*
X039601Y010571D02*
X039603Y010610D01*
X039609Y010649D01*
X039619Y010687D01*
X039633Y010723D01*
X039651Y010758D01*
X039672Y010791D01*
X039697Y010821D01*
X039725Y010849D01*
X039755Y010874D01*
X039788Y010895D01*
X039823Y010913D01*
X039859Y010927D01*
X039897Y010937D01*
X039936Y010943D01*
X039975Y010945D01*
X040014Y010943D01*
X040053Y010937D01*
X040091Y010927D01*
X040127Y010913D01*
X040162Y010895D01*
X040195Y010874D01*
X040225Y010849D01*
X040253Y010821D01*
X040278Y010791D01*
X040299Y010758D01*
X040317Y010723D01*
X040331Y010687D01*
X040341Y010649D01*
X040347Y010610D01*
X040349Y010571D01*
X040347Y010532D01*
X040341Y010493D01*
X040331Y010455D01*
X040317Y010419D01*
X040299Y010384D01*
X040278Y010351D01*
X040253Y010321D01*
X040225Y010293D01*
X040195Y010268D01*
X040162Y010247D01*
X040127Y010229D01*
X040091Y010215D01*
X040053Y010205D01*
X040014Y010199D01*
X039975Y010197D01*
X039936Y010199D01*
X039897Y010205D01*
X039859Y010215D01*
X039823Y010229D01*
X039788Y010247D01*
X039755Y010268D01*
X039725Y010293D01*
X039697Y010321D01*
X039672Y010351D01*
X039651Y010384D01*
X039633Y010419D01*
X039619Y010455D01*
X039609Y010493D01*
X039603Y010532D01*
X039601Y010571D01*
X042357Y010571D02*
X042359Y010610D01*
X042365Y010649D01*
X042375Y010687D01*
X042389Y010723D01*
X042407Y010758D01*
X042428Y010791D01*
X042453Y010821D01*
X042481Y010849D01*
X042511Y010874D01*
X042544Y010895D01*
X042579Y010913D01*
X042615Y010927D01*
X042653Y010937D01*
X042692Y010943D01*
X042731Y010945D01*
X042770Y010943D01*
X042809Y010937D01*
X042847Y010927D01*
X042883Y010913D01*
X042918Y010895D01*
X042951Y010874D01*
X042981Y010849D01*
X043009Y010821D01*
X043034Y010791D01*
X043055Y010758D01*
X043073Y010723D01*
X043087Y010687D01*
X043097Y010649D01*
X043103Y010610D01*
X043105Y010571D01*
X043103Y010532D01*
X043097Y010493D01*
X043087Y010455D01*
X043073Y010419D01*
X043055Y010384D01*
X043034Y010351D01*
X043009Y010321D01*
X042981Y010293D01*
X042951Y010268D01*
X042918Y010247D01*
X042883Y010229D01*
X042847Y010215D01*
X042809Y010205D01*
X042770Y010199D01*
X042731Y010197D01*
X042692Y010199D01*
X042653Y010205D01*
X042615Y010215D01*
X042579Y010229D01*
X042544Y010247D01*
X042511Y010268D01*
X042481Y010293D01*
X042453Y010321D01*
X042428Y010351D01*
X042407Y010384D01*
X042389Y010419D01*
X042375Y010455D01*
X042365Y010493D01*
X042359Y010532D01*
X042357Y010571D01*
M02*
