G75*
G70*
%OFA0B0*%
%FSLAX24Y24*%
%IPPOS*%
%LPD*%
%AMOC8*
5,1,8,0,0,1.08239X$1,22.5*
%
%ADD10R,0.0400X0.0400*%
%ADD11C,0.0080*%
%ADD12R,0.1969X0.0394*%
%ADD13R,0.0500X0.0600*%
%ADD14R,0.0400X0.0300*%
%ADD15R,0.0400X0.0200*%
%ADD16R,0.0217X0.0472*%
%ADD17R,0.0630X0.1378*%
%ADD18R,0.0551X0.0394*%
%ADD19R,0.0079X0.0512*%
%ADD20R,0.0512X0.0079*%
%ADD21R,0.0630X0.0630*%
%ADD22R,0.0246X0.0098*%
%ADD23R,0.0098X0.0246*%
%ADD24R,0.0600X0.0500*%
%ADD25R,0.0472X0.0217*%
%ADD26R,0.1378X0.0630*%
%ADD27R,0.0700X0.0900*%
%ADD28R,0.0591X0.0118*%
%ADD29R,0.0787X0.1181*%
%ADD30R,0.1181X0.0787*%
%ADD31R,0.0709X0.0571*%
%ADD32C,0.0157*%
%ADD33C,0.0236*%
%ADD34R,0.0886X0.0197*%
%ADD35R,0.1575X0.0827*%
%ADD36R,0.1378X0.0827*%
%ADD37R,0.0591X0.0315*%
%ADD38R,0.0787X0.0787*%
%ADD39R,0.0748X0.0551*%
%ADD40R,0.0394X0.0551*%
D10*
X007185Y007032D03*
X007885Y007032D03*
X008623Y005402D03*
X008623Y004802D03*
X009323Y004802D03*
X009323Y005402D03*
X009343Y009102D03*
X009943Y009102D03*
X010643Y009102D03*
X011243Y009102D03*
X011943Y009102D03*
X012743Y009102D03*
X012743Y009702D03*
X011943Y009802D03*
X012743Y010302D03*
X013443Y010302D03*
X013443Y009702D03*
X013443Y009102D03*
X014043Y009102D03*
X014743Y009102D03*
X015443Y009652D03*
X016143Y009652D03*
X016143Y010252D03*
X015443Y010252D03*
X015443Y010952D03*
X016143Y010952D03*
X016143Y011552D03*
X015443Y011552D03*
X015443Y012252D03*
X016143Y012252D03*
X011643Y012552D03*
X010943Y012552D03*
X010093Y011902D03*
X009393Y011902D03*
X009343Y009802D03*
X009943Y009802D03*
X010643Y009802D03*
X011243Y009802D03*
X011543Y015052D03*
X010843Y015052D03*
X010243Y015052D03*
X010243Y015652D03*
X009543Y015652D03*
X009543Y015052D03*
X009543Y016252D03*
X009543Y016852D03*
X010243Y016852D03*
X010243Y016252D03*
X012743Y016152D03*
X013343Y016152D03*
X013343Y016852D03*
X012743Y016852D03*
X013293Y020102D03*
X013993Y020102D03*
X014493Y021102D03*
X014493Y021802D03*
X013843Y022502D03*
X013843Y023102D03*
X013143Y023102D03*
X013143Y022502D03*
X012493Y021802D03*
X011893Y021802D03*
X011293Y021802D03*
X011293Y021102D03*
X011893Y021102D03*
X012493Y021102D03*
X015813Y021722D03*
X015813Y022422D03*
X016413Y022422D03*
X016413Y021722D03*
X017693Y021352D03*
X018393Y021352D03*
X018103Y020392D03*
X018803Y020392D03*
X019043Y019432D03*
X018933Y018762D03*
X018333Y018762D03*
X018343Y019432D03*
X018333Y018062D03*
X018933Y018062D03*
X020103Y018392D03*
X020803Y018392D03*
X020973Y016792D03*
X020973Y016192D03*
X021673Y016192D03*
X021673Y016792D03*
X021673Y015592D03*
X021673Y014992D03*
X021673Y014392D03*
X020973Y014392D03*
X020973Y014992D03*
X020973Y015592D03*
X020973Y013792D03*
X020973Y013192D03*
X021673Y013192D03*
X021673Y013792D03*
X023853Y013852D03*
X024453Y013852D03*
X025053Y013852D03*
X025653Y013852D03*
X025653Y014552D03*
X025053Y014552D03*
X024453Y014552D03*
X023853Y014552D03*
X024813Y015292D03*
X024813Y015992D03*
X025413Y015992D03*
X025413Y015292D03*
X023793Y017282D03*
X023793Y017982D03*
X025053Y018202D03*
X025053Y017502D03*
X026103Y017712D03*
X026103Y018412D03*
X027423Y018562D03*
X027423Y017862D03*
X029353Y018542D03*
X030053Y018542D03*
X030033Y019132D03*
X029373Y019132D03*
X029373Y019832D03*
X030033Y019832D03*
X034783Y022072D03*
X035483Y022072D03*
X037063Y022272D03*
X037063Y021672D03*
X037063Y021072D03*
X037063Y020472D03*
X037063Y019872D03*
X037183Y019112D03*
X037883Y019112D03*
X037763Y019872D03*
X037763Y020472D03*
X037763Y021072D03*
X037763Y021672D03*
X037763Y022272D03*
X037763Y023032D03*
X037763Y023632D03*
X037763Y024232D03*
X037763Y024832D03*
X037763Y025432D03*
X037763Y026032D03*
X037063Y026032D03*
X037063Y025432D03*
X037063Y024832D03*
X037063Y024232D03*
X037063Y023632D03*
X037063Y023032D03*
X038943Y023632D03*
X039643Y023632D03*
X039643Y021392D03*
X038943Y021392D03*
X037883Y018072D03*
X037883Y017472D03*
X037183Y017472D03*
X037183Y018072D03*
X037183Y014992D03*
X037183Y014392D03*
X037883Y014392D03*
X037883Y014992D03*
X036813Y010592D03*
X036213Y010592D03*
X035613Y010592D03*
X035613Y009892D03*
X036213Y009892D03*
X036813Y009892D03*
X034653Y009892D03*
X034013Y009892D03*
X033413Y009892D03*
X032813Y009892D03*
X032213Y009892D03*
X031443Y009892D03*
X030843Y009892D03*
X030243Y009892D03*
X029643Y009892D03*
X029043Y009892D03*
X028443Y009892D03*
X027843Y009682D03*
X027243Y009682D03*
X026643Y009682D03*
X026043Y009682D03*
X025443Y009682D03*
X025443Y010382D03*
X026043Y010382D03*
X026643Y010382D03*
X027243Y010382D03*
X027843Y010382D03*
X028443Y010592D03*
X029043Y010592D03*
X029643Y010592D03*
X030243Y010592D03*
X030843Y010592D03*
X031443Y010592D03*
X032213Y010592D03*
X032813Y010592D03*
X033413Y010592D03*
X034013Y010592D03*
X034653Y010592D03*
X033463Y009282D03*
X032763Y009282D03*
X024843Y010252D03*
X024843Y010952D03*
X024243Y010952D03*
X023643Y010952D03*
X023643Y010252D03*
X024243Y010252D03*
X018543Y022672D03*
X017843Y022672D03*
X017853Y023472D03*
X016963Y023432D03*
X016963Y024072D03*
X016263Y024072D03*
X016263Y023432D03*
X015093Y025152D03*
X015093Y025852D03*
X014293Y025852D03*
X014293Y025152D03*
X013493Y024952D03*
X012793Y024952D03*
X011793Y025402D03*
X011793Y026102D03*
X012793Y026952D03*
X013493Y026952D03*
X011143Y027752D03*
X011143Y028452D03*
X010803Y030652D03*
X010103Y030652D03*
X009143Y032002D03*
X009143Y032702D03*
X009893Y033042D03*
X009893Y033742D03*
X010493Y033742D03*
X011093Y033742D03*
X011093Y033042D03*
X010493Y033042D03*
X011573Y032182D03*
X011573Y031482D03*
X017973Y026342D03*
X017973Y025642D03*
X018553Y023472D03*
X024053Y029762D03*
X024653Y029762D03*
X025253Y029762D03*
X025853Y029762D03*
X025853Y030462D03*
X025253Y030462D03*
X024653Y030462D03*
X024053Y030462D03*
X027333Y031782D03*
X028033Y031782D03*
X029833Y031782D03*
X030533Y031782D03*
X030473Y029082D03*
X031073Y029082D03*
X031073Y028382D03*
X030473Y028382D03*
X029873Y028382D03*
X029873Y029082D03*
X029273Y029082D03*
X028673Y029082D03*
X028073Y029082D03*
X028073Y028382D03*
X028673Y028382D03*
X029273Y028382D03*
X029723Y027312D03*
X029723Y026712D03*
X029723Y026112D03*
X030423Y026112D03*
X031223Y026112D03*
X031223Y025512D03*
X030363Y025092D03*
X031223Y024912D03*
X031223Y024312D03*
X031923Y024312D03*
X031923Y024912D03*
X031923Y025512D03*
X031923Y026112D03*
X031923Y026712D03*
X031923Y027312D03*
X031223Y027312D03*
X031223Y026712D03*
X030423Y026712D03*
X030423Y027312D03*
X029663Y025092D03*
X034783Y025832D03*
X035483Y025832D03*
X037063Y026792D03*
X037063Y027392D03*
X037063Y027992D03*
X037063Y028592D03*
X037063Y029192D03*
X037063Y029792D03*
X037763Y029792D03*
X037763Y029192D03*
X037763Y028592D03*
X037763Y027992D03*
X037763Y027392D03*
X037763Y026792D03*
X038943Y025872D03*
X039643Y025872D03*
X035483Y029592D03*
X034783Y029592D03*
X037063Y030552D03*
X037063Y031152D03*
X037063Y031752D03*
X037063Y032352D03*
X037063Y032952D03*
X037063Y033552D03*
X037763Y033552D03*
X037763Y032952D03*
X037763Y032352D03*
X037763Y031752D03*
X037763Y031152D03*
X037763Y030552D03*
X035213Y033042D03*
X034613Y033042D03*
X034013Y033042D03*
X034013Y033742D03*
X034613Y033742D03*
X035213Y033742D03*
X009343Y022002D03*
X009343Y021302D03*
X041183Y007032D03*
X041183Y006432D03*
X041883Y006432D03*
X041883Y007032D03*
X041883Y005432D03*
X041883Y004832D03*
X041183Y004832D03*
X041183Y005432D03*
D11*
X033693Y011500D02*
X033467Y011726D01*
X033693Y011952D01*
X033919Y011726D01*
X033693Y011500D01*
X033772Y011579D02*
X033614Y011579D01*
X033535Y011658D02*
X033851Y011658D01*
X033908Y011737D02*
X033478Y011737D01*
X033557Y011816D02*
X033829Y011816D01*
X033750Y011895D02*
X033636Y011895D01*
X033892Y012150D02*
X034118Y011924D01*
X033892Y012150D02*
X034118Y012376D01*
X034344Y012150D01*
X034118Y011924D01*
X034197Y012003D02*
X034039Y012003D01*
X033960Y012082D02*
X034276Y012082D01*
X034333Y012161D02*
X033903Y012161D01*
X033982Y012240D02*
X034254Y012240D01*
X034175Y012319D02*
X034061Y012319D01*
X034316Y012575D02*
X034542Y012349D01*
X034316Y012575D02*
X034542Y012801D01*
X034768Y012575D01*
X034542Y012349D01*
X034621Y012428D02*
X034463Y012428D01*
X034384Y012507D02*
X034700Y012507D01*
X034757Y012586D02*
X034327Y012586D01*
X034406Y012665D02*
X034678Y012665D01*
X034599Y012744D02*
X034485Y012744D01*
X034966Y013225D02*
X035192Y012999D01*
X034966Y012773D01*
X034740Y012999D01*
X034966Y013225D01*
X035045Y012852D02*
X034887Y012852D01*
X034808Y012931D02*
X035124Y012931D01*
X035181Y013010D02*
X034751Y013010D01*
X034830Y013089D02*
X035102Y013089D01*
X035023Y013168D02*
X034909Y013168D01*
X034697Y013494D02*
X034471Y013720D01*
X034697Y013494D02*
X034471Y013268D01*
X034245Y013494D01*
X034471Y013720D01*
X034550Y013347D02*
X034392Y013347D01*
X034313Y013426D02*
X034629Y013426D01*
X034686Y013505D02*
X034256Y013505D01*
X034335Y013584D02*
X034607Y013584D01*
X034528Y013663D02*
X034414Y013663D01*
X033821Y013070D02*
X034047Y012844D01*
X033821Y013070D02*
X034047Y013296D01*
X034273Y013070D01*
X034047Y012844D01*
X034126Y012923D02*
X033968Y012923D01*
X033889Y013002D02*
X034205Y013002D01*
X034262Y013081D02*
X033832Y013081D01*
X033911Y013160D02*
X034183Y013160D01*
X034104Y013239D02*
X033990Y013239D01*
X033397Y012645D02*
X033623Y012419D01*
X033397Y012645D02*
X033623Y012871D01*
X033849Y012645D01*
X033623Y012419D01*
X033702Y012498D02*
X033544Y012498D01*
X033465Y012577D02*
X033781Y012577D01*
X033838Y012656D02*
X033408Y012656D01*
X033487Y012735D02*
X033759Y012735D01*
X033680Y012814D02*
X033566Y012814D01*
X032972Y012221D02*
X033198Y011995D01*
X032972Y012221D02*
X033198Y012447D01*
X033424Y012221D01*
X033198Y011995D01*
X033277Y012074D02*
X033119Y012074D01*
X033040Y012153D02*
X033356Y012153D01*
X033413Y012232D02*
X032983Y012232D01*
X033062Y012311D02*
X033334Y012311D01*
X033255Y012390D02*
X033141Y012390D01*
X032548Y011797D02*
X032774Y011571D01*
X032548Y011797D02*
X032774Y012023D01*
X033000Y011797D01*
X032774Y011571D01*
X032853Y011650D02*
X032695Y011650D01*
X032616Y011729D02*
X032932Y011729D01*
X032989Y011808D02*
X032559Y011808D01*
X032638Y011887D02*
X032910Y011887D01*
X032831Y011966D02*
X032717Y011966D01*
X033043Y011302D02*
X033269Y011076D01*
X033043Y011302D02*
X033269Y011528D01*
X033495Y011302D01*
X033269Y011076D01*
X033348Y011155D02*
X033190Y011155D01*
X033111Y011234D02*
X033427Y011234D01*
X033484Y011313D02*
X033054Y011313D01*
X033133Y011392D02*
X033405Y011392D01*
X033326Y011471D02*
X033212Y011471D01*
X031416Y020625D02*
X031190Y020851D01*
X031416Y020625D02*
X031190Y020399D01*
X030964Y020625D01*
X031190Y020851D01*
X031269Y020478D02*
X031111Y020478D01*
X031032Y020557D02*
X031348Y020557D01*
X031405Y020636D02*
X030975Y020636D01*
X031054Y020715D02*
X031326Y020715D01*
X031247Y020794D02*
X031133Y020794D01*
X030921Y021120D02*
X030695Y021346D01*
X030921Y021120D02*
X030695Y020894D01*
X030469Y021120D01*
X030695Y021346D01*
X030774Y020973D02*
X030616Y020973D01*
X030537Y021052D02*
X030853Y021052D01*
X030910Y021131D02*
X030480Y021131D01*
X030559Y021210D02*
X030831Y021210D01*
X030752Y021289D02*
X030638Y021289D01*
X031830Y022241D02*
X032056Y022015D01*
X031830Y021789D01*
X031604Y022015D01*
X031830Y022241D01*
X031909Y021868D02*
X031751Y021868D01*
X031672Y021947D02*
X031988Y021947D01*
X032045Y022026D02*
X031615Y022026D01*
X031694Y022105D02*
X031966Y022105D01*
X031887Y022184D02*
X031773Y022184D01*
X031561Y022510D02*
X031335Y022736D01*
X031561Y022510D02*
X031335Y022284D01*
X031109Y022510D01*
X031335Y022736D01*
X031414Y022363D02*
X031256Y022363D01*
X031177Y022442D02*
X031493Y022442D01*
X031550Y022521D02*
X031120Y022521D01*
X031199Y022600D02*
X031471Y022600D01*
X031392Y022679D02*
X031278Y022679D01*
D12*
X030533Y030432D03*
X027333Y030432D03*
D13*
X011943Y026952D03*
X011143Y026952D03*
X010193Y020552D03*
X009393Y020552D03*
X007293Y016702D03*
X006493Y016702D03*
X037133Y013692D03*
X037933Y013692D03*
D14*
X037833Y015732D03*
X037233Y015732D03*
X037233Y016732D03*
X037833Y016732D03*
D15*
X037833Y016382D03*
X037833Y016082D03*
X037233Y016082D03*
X037233Y016382D03*
D16*
X014767Y010814D03*
X014393Y010814D03*
X014019Y010814D03*
X014019Y009791D03*
X014767Y009791D03*
X011667Y013191D03*
X010919Y013191D03*
X010919Y014214D03*
X011293Y014214D03*
X011667Y014214D03*
X013119Y020791D03*
X013493Y020791D03*
X013867Y020791D03*
X013867Y021814D03*
X013119Y021814D03*
D17*
X011965Y016502D03*
X011020Y016502D03*
X013720Y011852D03*
X014665Y011852D03*
D18*
X015893Y024754D03*
X015893Y026250D03*
X038660Y026618D03*
X038660Y027366D03*
X038660Y028218D03*
X038660Y028966D03*
X038660Y029818D03*
X038660Y030566D03*
X038660Y031418D03*
X038660Y032166D03*
X038660Y033018D03*
X038660Y033766D03*
X039526Y033392D03*
X039526Y031792D03*
X039526Y030192D03*
X039526Y028592D03*
X039526Y026992D03*
X038660Y025126D03*
X038660Y024378D03*
X039526Y024752D03*
X038660Y022886D03*
X038660Y022138D03*
X039526Y022512D03*
X038660Y020646D03*
X038660Y019898D03*
X039526Y020272D03*
D19*
X027449Y019201D03*
X027291Y019201D03*
X027134Y019201D03*
X026976Y019201D03*
X026819Y019201D03*
X026661Y019201D03*
X026504Y019201D03*
X026346Y019201D03*
X026189Y019201D03*
X026031Y019201D03*
X025874Y019201D03*
X025716Y019201D03*
X025559Y019201D03*
X025401Y019201D03*
X025244Y019201D03*
X025087Y019201D03*
X024929Y019201D03*
X024772Y019201D03*
X024614Y019201D03*
X024457Y019201D03*
X024299Y019201D03*
X024142Y019201D03*
X023984Y019201D03*
X023827Y019201D03*
X023669Y019201D03*
X023512Y019201D03*
X023354Y019201D03*
X023197Y019201D03*
X023039Y019201D03*
X022882Y019201D03*
X022724Y019201D03*
X022567Y019201D03*
X022409Y019201D03*
X022252Y019201D03*
X022094Y019201D03*
X021937Y019201D03*
X021779Y019201D03*
X021622Y019201D03*
X021464Y019201D03*
X021307Y019201D03*
X021150Y019201D03*
X020992Y019201D03*
X020835Y019201D03*
X020677Y019201D03*
X020677Y027744D03*
X020835Y027744D03*
X020992Y027744D03*
X021150Y027744D03*
X021307Y027744D03*
X021464Y027744D03*
X021622Y027744D03*
X021779Y027744D03*
X021937Y027744D03*
X022094Y027744D03*
X022252Y027744D03*
X022409Y027744D03*
X022567Y027744D03*
X022724Y027744D03*
X022882Y027744D03*
X023039Y027744D03*
X023197Y027744D03*
X023354Y027744D03*
X023512Y027744D03*
X023669Y027744D03*
X023827Y027744D03*
X023984Y027744D03*
X024142Y027744D03*
X024299Y027744D03*
X024457Y027744D03*
X024614Y027744D03*
X024772Y027744D03*
X024929Y027744D03*
X025087Y027744D03*
X025244Y027744D03*
X025401Y027744D03*
X025559Y027744D03*
X025716Y027744D03*
X025874Y027744D03*
X026031Y027744D03*
X026189Y027744D03*
X026346Y027744D03*
X026504Y027744D03*
X026661Y027744D03*
X026819Y027744D03*
X026976Y027744D03*
X027134Y027744D03*
X027291Y027744D03*
X027449Y027744D03*
D20*
X028335Y026858D03*
X028335Y026701D03*
X028335Y026543D03*
X028335Y026386D03*
X028335Y026228D03*
X028335Y026071D03*
X028335Y025913D03*
X028335Y025756D03*
X028335Y025598D03*
X028335Y025441D03*
X028335Y025283D03*
X028335Y025126D03*
X028335Y024969D03*
X028335Y024811D03*
X028335Y024654D03*
X028335Y024496D03*
X028335Y024339D03*
X028335Y024181D03*
X028335Y024024D03*
X028335Y023866D03*
X028335Y023709D03*
X028335Y023551D03*
X028335Y023394D03*
X028335Y023236D03*
X028335Y023079D03*
X028335Y022921D03*
X028335Y022764D03*
X028335Y022606D03*
X028335Y022449D03*
X028335Y022291D03*
X028335Y022134D03*
X028335Y021976D03*
X028335Y021819D03*
X028335Y021661D03*
X028335Y021504D03*
X028335Y021346D03*
X028335Y021189D03*
X028335Y021031D03*
X028335Y020874D03*
X028335Y020717D03*
X028335Y020559D03*
X028335Y020402D03*
X028335Y020244D03*
X028335Y020087D03*
X019791Y020087D03*
X019791Y020244D03*
X019791Y020402D03*
X019791Y020559D03*
X019791Y020717D03*
X019791Y020874D03*
X019791Y021031D03*
X019791Y021189D03*
X019791Y021346D03*
X019791Y021504D03*
X019791Y021661D03*
X019791Y021819D03*
X019791Y021976D03*
X019791Y022134D03*
X019791Y022291D03*
X019791Y022449D03*
X019791Y022606D03*
X019791Y022764D03*
X019791Y022921D03*
X019791Y023079D03*
X019791Y023236D03*
X019791Y023394D03*
X019791Y023551D03*
X019791Y023709D03*
X019791Y023866D03*
X019791Y024024D03*
X019791Y024181D03*
X019791Y024339D03*
X019791Y024496D03*
X019791Y024654D03*
X019791Y024811D03*
X019791Y024969D03*
X019791Y025126D03*
X019791Y025283D03*
X019791Y025441D03*
X019791Y025598D03*
X019791Y025756D03*
X019791Y025913D03*
X019791Y026071D03*
X019791Y026228D03*
X019791Y026386D03*
X019791Y026543D03*
X019791Y026701D03*
X019791Y026858D03*
D21*
X023276Y024260D03*
X024063Y024260D03*
X024850Y024260D03*
X024850Y023472D03*
X024850Y022685D03*
X024063Y022685D03*
X023276Y022685D03*
X023276Y023472D03*
D22*
X024431Y013238D03*
X024431Y013041D03*
X024431Y012844D03*
X024431Y012647D03*
X024835Y012647D03*
X024835Y012844D03*
X024835Y013041D03*
X024835Y013238D03*
X024835Y012188D03*
X024835Y011991D03*
X024835Y011794D03*
X024835Y011597D03*
X024431Y011597D03*
X024431Y011794D03*
X024431Y011991D03*
X024431Y012188D03*
D23*
X026318Y016311D03*
X026514Y016311D03*
X026711Y016311D03*
X026908Y016311D03*
X026908Y016714D03*
X026711Y016714D03*
X026514Y016714D03*
X026318Y016714D03*
X027668Y016791D03*
X027864Y016791D03*
X028061Y016791D03*
X028258Y016791D03*
X028258Y017194D03*
X028061Y017194D03*
X027864Y017194D03*
X027668Y017194D03*
X030848Y019041D03*
X031044Y019041D03*
X031241Y019041D03*
X031438Y019041D03*
X031438Y019444D03*
X031241Y019444D03*
X031044Y019444D03*
X030848Y019444D03*
X032108Y019594D03*
X032304Y019594D03*
X032501Y019594D03*
X032698Y019594D03*
X032698Y019191D03*
X032501Y019191D03*
X032304Y019191D03*
X032108Y019191D03*
X032068Y018304D03*
X031871Y018304D03*
X031674Y018304D03*
X031478Y018304D03*
X031478Y017901D03*
X031674Y017901D03*
X031871Y017901D03*
X032068Y017901D03*
X033098Y017901D03*
X033294Y017901D03*
X033491Y017901D03*
X033688Y017901D03*
X033688Y018304D03*
X033491Y018304D03*
X033294Y018304D03*
X033098Y018304D03*
X033011Y020181D03*
X032814Y020181D03*
X032618Y020181D03*
X032618Y020584D03*
X032814Y020584D03*
X033011Y020584D03*
X033208Y020584D03*
X033208Y020181D03*
X033578Y021411D03*
X033774Y021411D03*
X033971Y021411D03*
X034168Y021411D03*
X034168Y021814D03*
X033971Y021814D03*
X033774Y021814D03*
X033578Y021814D03*
X035788Y011794D03*
X035984Y011794D03*
X036181Y011794D03*
X036378Y011794D03*
X036378Y011391D03*
X036181Y011391D03*
X035984Y011391D03*
X035788Y011391D03*
D24*
X011143Y023552D03*
X011143Y024352D03*
X009143Y030852D03*
X005943Y030852D03*
X005943Y033852D03*
X009143Y033852D03*
D25*
X012481Y026326D03*
X012481Y025952D03*
X012481Y025578D03*
X013505Y025578D03*
X013505Y026326D03*
X010255Y011276D03*
X010255Y010902D03*
X010255Y010528D03*
X009231Y010528D03*
X009231Y011276D03*
D26*
X011293Y011525D03*
X011293Y010580D03*
X009893Y013330D03*
X009893Y014275D03*
D27*
X007750Y015502D03*
X006036Y015502D03*
D28*
X033952Y022641D03*
X033952Y022897D03*
X033952Y023153D03*
X033952Y023409D03*
X033952Y023664D03*
X033952Y023920D03*
X033952Y024176D03*
X033952Y024432D03*
X033952Y024688D03*
X033952Y024944D03*
X033952Y026401D03*
X033952Y026657D03*
X033952Y026913D03*
X033952Y027169D03*
X033952Y027424D03*
X033952Y027680D03*
X033952Y027936D03*
X033952Y028192D03*
X033952Y028448D03*
X033952Y028704D03*
X033952Y030161D03*
X033952Y030417D03*
X033952Y030673D03*
X033952Y030929D03*
X033952Y031184D03*
X033952Y031440D03*
X033952Y031696D03*
X033952Y031952D03*
X033952Y032208D03*
X033952Y032464D03*
X036314Y032464D03*
X036314Y032208D03*
X036314Y031952D03*
X036314Y031696D03*
X036314Y031440D03*
X036314Y031184D03*
X036314Y030929D03*
X036314Y030673D03*
X036314Y030417D03*
X036314Y030161D03*
X036314Y028704D03*
X036314Y028448D03*
X036314Y028192D03*
X036314Y027936D03*
X036314Y027680D03*
X036314Y027424D03*
X036314Y027169D03*
X036314Y026913D03*
X036314Y026657D03*
X036314Y026401D03*
X036314Y024944D03*
X036314Y024688D03*
X036314Y024432D03*
X036314Y024176D03*
X036314Y023920D03*
X036314Y023664D03*
X036314Y023409D03*
X036314Y023153D03*
X036314Y022897D03*
X036314Y022641D03*
D29*
X039384Y011949D03*
X042416Y009311D03*
X043124Y011949D03*
X044266Y011949D03*
D30*
X037809Y010256D03*
D31*
X012593Y010990D03*
X012593Y012915D03*
D32*
X026619Y012313D03*
X026934Y012313D03*
X027249Y012313D03*
X027564Y012313D03*
X027879Y012313D03*
X028194Y012313D03*
X028509Y012313D03*
X028824Y012313D03*
X029139Y012313D03*
X029454Y012313D03*
X029769Y012313D03*
X030084Y012313D03*
X030399Y012313D03*
X030713Y012313D03*
X030713Y011998D03*
X030399Y011998D03*
X030399Y011683D03*
X030713Y011683D03*
X031028Y011683D03*
X031028Y011998D03*
X031028Y012313D03*
X031343Y012313D03*
X031343Y011998D03*
X031343Y011683D03*
X030084Y011683D03*
X030084Y011998D03*
X029769Y011998D03*
X029769Y011683D03*
X029454Y011683D03*
X029454Y011998D03*
X029139Y011998D03*
X029139Y011683D03*
X028824Y011683D03*
X028824Y011998D03*
X028509Y011998D03*
X028509Y011683D03*
X028194Y011683D03*
X028194Y011998D03*
X027879Y011998D03*
X027879Y011683D03*
X027564Y011683D03*
X027564Y011998D03*
X027249Y011998D03*
X026934Y011998D03*
X026619Y011998D03*
X026619Y011683D03*
X026934Y011683D03*
X027249Y011683D03*
X027249Y013573D03*
X027249Y013888D03*
X027249Y014203D03*
X027564Y014203D03*
X027879Y014203D03*
X028194Y014203D03*
X028509Y014203D03*
X028824Y014203D03*
X029139Y014203D03*
X029454Y014203D03*
X029769Y014203D03*
X030084Y014203D03*
X030399Y014203D03*
X030713Y014203D03*
X030713Y013888D03*
X030399Y013888D03*
X030399Y013573D03*
X030713Y013573D03*
X031028Y013573D03*
X031028Y013888D03*
X031028Y014203D03*
X031343Y014203D03*
X031343Y013888D03*
X031343Y013573D03*
X030084Y013573D03*
X030084Y013888D03*
X029769Y013888D03*
X029769Y013573D03*
X029454Y013573D03*
X029454Y013888D03*
X029139Y013888D03*
X028824Y013888D03*
X028509Y013888D03*
X028194Y013888D03*
X027879Y013888D03*
X027564Y013888D03*
X027564Y013573D03*
X027879Y013573D03*
X028194Y013573D03*
X028509Y013573D03*
X028824Y013573D03*
X029139Y013573D03*
X026934Y013573D03*
X026934Y013888D03*
X026934Y014203D03*
X026619Y014203D03*
X026619Y013888D03*
X026619Y013573D03*
D33*
X026422Y014714D03*
X031540Y011171D03*
D34*
X008308Y018923D03*
X008308Y019237D03*
X008308Y019552D03*
X008308Y019867D03*
X008308Y020182D03*
D35*
X006495Y021501D03*
X006495Y017604D03*
D36*
X008168Y017604D03*
X008168Y021501D03*
D37*
X042798Y016979D03*
X042956Y016546D03*
X043034Y016113D03*
X042956Y015680D03*
X043034Y015247D03*
X042956Y014814D03*
X042956Y014381D03*
X042956Y017412D03*
D38*
X038782Y016940D03*
X038782Y014696D03*
D39*
X044078Y014066D03*
X044471Y019243D03*
D40*
X010827Y031399D03*
X010079Y031399D03*
X010453Y032266D03*
X008973Y006936D03*
X009347Y006069D03*
X008599Y006069D03*
M02*
