G75*
G70*
%OFA0B0*%
%FSLAX24Y24*%
%IPPOS*%
%LPD*%
%AMOC8*
5,1,8,0,0,1.08239X$1,22.5*
%
%ADD10C,0.0000*%
%ADD11C,0.0100*%
D10*
X006828Y011032D02*
X006830Y011060D01*
X006836Y011088D01*
X006846Y011114D01*
X006859Y011139D01*
X006876Y011161D01*
X006896Y011181D01*
X006918Y011198D01*
X006943Y011211D01*
X006969Y011221D01*
X006997Y011227D01*
X007025Y011229D01*
X007053Y011227D01*
X007081Y011221D01*
X007107Y011211D01*
X007132Y011198D01*
X007154Y011181D01*
X007174Y011161D01*
X007191Y011139D01*
X007204Y011114D01*
X007214Y011088D01*
X007220Y011060D01*
X007222Y011032D01*
X007220Y011004D01*
X007214Y010976D01*
X007204Y010950D01*
X007191Y010925D01*
X007174Y010903D01*
X007154Y010883D01*
X007132Y010866D01*
X007107Y010853D01*
X007081Y010843D01*
X007053Y010837D01*
X007025Y010835D01*
X006997Y010837D01*
X006969Y010843D01*
X006943Y010853D01*
X006918Y010866D01*
X006896Y010883D01*
X006876Y010903D01*
X006859Y010925D01*
X006846Y010950D01*
X006836Y010976D01*
X006830Y011004D01*
X006828Y011032D01*
X007557Y011719D02*
X007559Y011747D01*
X007565Y011775D01*
X007575Y011801D01*
X007588Y011826D01*
X007605Y011848D01*
X007625Y011868D01*
X007647Y011885D01*
X007672Y011898D01*
X007698Y011908D01*
X007726Y011914D01*
X007754Y011916D01*
X007782Y011914D01*
X007810Y011908D01*
X007836Y011898D01*
X007861Y011885D01*
X007883Y011868D01*
X007903Y011848D01*
X007920Y011826D01*
X007933Y011801D01*
X007943Y011775D01*
X007949Y011747D01*
X007951Y011719D01*
X007949Y011691D01*
X007943Y011663D01*
X007933Y011637D01*
X007920Y011612D01*
X007903Y011590D01*
X007883Y011570D01*
X007861Y011553D01*
X007836Y011540D01*
X007810Y011530D01*
X007782Y011524D01*
X007754Y011522D01*
X007726Y011524D01*
X007698Y011530D01*
X007672Y011540D01*
X007647Y011553D01*
X007625Y011570D01*
X007605Y011590D01*
X007588Y011612D01*
X007575Y011637D01*
X007565Y011663D01*
X007559Y011691D01*
X007557Y011719D01*
X007557Y013451D02*
X007559Y013479D01*
X007565Y013507D01*
X007575Y013533D01*
X007588Y013558D01*
X007605Y013580D01*
X007625Y013600D01*
X007647Y013617D01*
X007672Y013630D01*
X007698Y013640D01*
X007726Y013646D01*
X007754Y013648D01*
X007782Y013646D01*
X007810Y013640D01*
X007836Y013630D01*
X007861Y013617D01*
X007883Y013600D01*
X007903Y013580D01*
X007920Y013558D01*
X007933Y013533D01*
X007943Y013507D01*
X007949Y013479D01*
X007951Y013451D01*
X007949Y013423D01*
X007943Y013395D01*
X007933Y013369D01*
X007920Y013344D01*
X007903Y013322D01*
X007883Y013302D01*
X007861Y013285D01*
X007836Y013272D01*
X007810Y013262D01*
X007782Y013256D01*
X007754Y013254D01*
X007726Y013256D01*
X007698Y013262D01*
X007672Y013272D01*
X007647Y013285D01*
X007625Y013302D01*
X007605Y013322D01*
X007588Y013344D01*
X007575Y013369D01*
X007565Y013395D01*
X007559Y013423D01*
X007557Y013451D01*
X006828Y014181D02*
X006830Y014209D01*
X006836Y014237D01*
X006846Y014263D01*
X006859Y014288D01*
X006876Y014310D01*
X006896Y014330D01*
X006918Y014347D01*
X006943Y014360D01*
X006969Y014370D01*
X006997Y014376D01*
X007025Y014378D01*
X007053Y014376D01*
X007081Y014370D01*
X007107Y014360D01*
X007132Y014347D01*
X007154Y014330D01*
X007174Y014310D01*
X007191Y014288D01*
X007204Y014263D01*
X007214Y014237D01*
X007220Y014209D01*
X007222Y014181D01*
X007220Y014153D01*
X007214Y014125D01*
X007204Y014099D01*
X007191Y014074D01*
X007174Y014052D01*
X007154Y014032D01*
X007132Y014015D01*
X007107Y014002D01*
X007081Y013992D01*
X007053Y013986D01*
X007025Y013984D01*
X006997Y013986D01*
X006969Y013992D01*
X006943Y014002D01*
X006918Y014015D01*
X006896Y014032D01*
X006876Y014052D01*
X006859Y014074D01*
X006846Y014099D01*
X006836Y014125D01*
X006830Y014153D01*
X006828Y014181D01*
X011402Y015806D02*
X011405Y015865D01*
X011413Y015924D01*
X011426Y015981D01*
X011445Y016038D01*
X011468Y016092D01*
X011497Y016144D01*
X011530Y016193D01*
X011567Y016239D01*
X011608Y016281D01*
X011653Y016319D01*
X011702Y016354D01*
X011753Y016383D01*
X011807Y016408D01*
X011862Y016428D01*
X011920Y016442D01*
X011978Y016452D01*
X012037Y016456D01*
X012096Y016454D01*
X012155Y016448D01*
X012213Y016436D01*
X012270Y016418D01*
X012324Y016396D01*
X012377Y016369D01*
X012427Y016337D01*
X012474Y016301D01*
X012517Y016260D01*
X012556Y016216D01*
X012591Y016169D01*
X012622Y016118D01*
X012648Y016065D01*
X012669Y016010D01*
X012685Y015953D01*
X012696Y015895D01*
X012701Y015836D01*
X012701Y015776D01*
X012696Y015717D01*
X012685Y015659D01*
X012669Y015602D01*
X012648Y015547D01*
X012622Y015494D01*
X012591Y015443D01*
X012556Y015396D01*
X012517Y015352D01*
X012474Y015311D01*
X012427Y015275D01*
X012377Y015243D01*
X012324Y015216D01*
X012270Y015194D01*
X012213Y015176D01*
X012155Y015164D01*
X012096Y015158D01*
X012037Y015156D01*
X011978Y015160D01*
X011920Y015170D01*
X011862Y015184D01*
X011807Y015204D01*
X011753Y015229D01*
X011702Y015258D01*
X011653Y015293D01*
X011608Y015331D01*
X011567Y015373D01*
X011530Y015419D01*
X011497Y015468D01*
X011468Y015520D01*
X011445Y015574D01*
X011426Y015631D01*
X011413Y015688D01*
X011405Y015747D01*
X011402Y015806D01*
X016516Y013332D02*
X016518Y013356D01*
X016524Y013379D01*
X016534Y013401D01*
X016548Y013421D01*
X016565Y013438D01*
X016585Y013452D01*
X016607Y013462D01*
X016630Y013468D01*
X016654Y013470D01*
X016678Y013468D01*
X016701Y013462D01*
X016723Y013452D01*
X016743Y013438D01*
X016760Y013421D01*
X016774Y013401D01*
X016784Y013379D01*
X016790Y013356D01*
X016792Y013332D01*
X016790Y013308D01*
X016784Y013285D01*
X016774Y013263D01*
X016760Y013243D01*
X016743Y013226D01*
X016723Y013212D01*
X016701Y013202D01*
X016678Y013196D01*
X016654Y013194D01*
X016630Y013196D01*
X016607Y013202D01*
X016585Y013212D01*
X016565Y013226D01*
X016548Y013243D01*
X016534Y013263D01*
X016524Y013285D01*
X016518Y013308D01*
X016516Y013332D01*
X019516Y010832D02*
X019518Y010856D01*
X019524Y010879D01*
X019534Y010901D01*
X019548Y010921D01*
X019565Y010938D01*
X019585Y010952D01*
X019607Y010962D01*
X019630Y010968D01*
X019654Y010970D01*
X019678Y010968D01*
X019701Y010962D01*
X019723Y010952D01*
X019743Y010938D01*
X019760Y010921D01*
X019774Y010901D01*
X019784Y010879D01*
X019790Y010856D01*
X019792Y010832D01*
X019790Y010808D01*
X019784Y010785D01*
X019774Y010763D01*
X019760Y010743D01*
X019743Y010726D01*
X019723Y010712D01*
X019701Y010702D01*
X019678Y010696D01*
X019654Y010694D01*
X019630Y010696D01*
X019607Y010702D01*
X019585Y010712D01*
X019565Y010726D01*
X019548Y010743D01*
X019534Y010763D01*
X019524Y010785D01*
X019518Y010808D01*
X019516Y010832D01*
X025516Y013332D02*
X025518Y013356D01*
X025524Y013379D01*
X025534Y013401D01*
X025548Y013421D01*
X025565Y013438D01*
X025585Y013452D01*
X025607Y013462D01*
X025630Y013468D01*
X025654Y013470D01*
X025678Y013468D01*
X025701Y013462D01*
X025723Y013452D01*
X025743Y013438D01*
X025760Y013421D01*
X025774Y013401D01*
X025784Y013379D01*
X025790Y013356D01*
X025792Y013332D01*
X025790Y013308D01*
X025784Y013285D01*
X025774Y013263D01*
X025760Y013243D01*
X025743Y013226D01*
X025723Y013212D01*
X025701Y013202D01*
X025678Y013196D01*
X025654Y013194D01*
X025630Y013196D01*
X025607Y013202D01*
X025585Y013212D01*
X025565Y013226D01*
X025548Y013243D01*
X025534Y013263D01*
X025524Y013285D01*
X025518Y013308D01*
X025516Y013332D01*
X028516Y010832D02*
X028518Y010856D01*
X028524Y010879D01*
X028534Y010901D01*
X028548Y010921D01*
X028565Y010938D01*
X028585Y010952D01*
X028607Y010962D01*
X028630Y010968D01*
X028654Y010970D01*
X028678Y010968D01*
X028701Y010962D01*
X028723Y010952D01*
X028743Y010938D01*
X028760Y010921D01*
X028774Y010901D01*
X028784Y010879D01*
X028790Y010856D01*
X028792Y010832D01*
X028790Y010808D01*
X028784Y010785D01*
X028774Y010763D01*
X028760Y010743D01*
X028743Y010726D01*
X028723Y010712D01*
X028701Y010702D01*
X028678Y010696D01*
X028654Y010694D01*
X028630Y010696D01*
X028607Y010702D01*
X028585Y010712D01*
X028565Y010726D01*
X028548Y010743D01*
X028534Y010763D01*
X028524Y010785D01*
X028518Y010808D01*
X028516Y010832D01*
X035774Y012082D02*
X035777Y012139D01*
X035784Y012196D01*
X035797Y012252D01*
X035815Y012306D01*
X035838Y012359D01*
X035866Y012409D01*
X035898Y012457D01*
X035934Y012501D01*
X035974Y012542D01*
X036018Y012580D01*
X036064Y012613D01*
X036114Y012641D01*
X036166Y012665D01*
X036220Y012685D01*
X036276Y012699D01*
X036332Y012708D01*
X036390Y012712D01*
X036447Y012711D01*
X036504Y012704D01*
X036560Y012692D01*
X036615Y012676D01*
X036668Y012654D01*
X036719Y012628D01*
X036767Y012597D01*
X036813Y012562D01*
X036855Y012522D01*
X036893Y012480D01*
X036927Y012433D01*
X036957Y012384D01*
X036982Y012333D01*
X037002Y012279D01*
X037018Y012224D01*
X037028Y012168D01*
X037033Y012111D01*
X037033Y012053D01*
X037028Y011996D01*
X037018Y011940D01*
X037002Y011885D01*
X036982Y011831D01*
X036957Y011780D01*
X036927Y011731D01*
X036893Y011684D01*
X036855Y011642D01*
X036813Y011602D01*
X036767Y011567D01*
X036719Y011536D01*
X036668Y011510D01*
X036615Y011488D01*
X036560Y011472D01*
X036504Y011460D01*
X036447Y011453D01*
X036390Y011452D01*
X036332Y011456D01*
X036276Y011465D01*
X036220Y011479D01*
X036166Y011499D01*
X036114Y011523D01*
X036064Y011551D01*
X036018Y011584D01*
X035974Y011622D01*
X035934Y011663D01*
X035898Y011707D01*
X035866Y011755D01*
X035838Y011805D01*
X035815Y011858D01*
X035797Y011912D01*
X035784Y011968D01*
X035777Y012025D01*
X035774Y012082D01*
X035774Y016582D02*
X035777Y016639D01*
X035784Y016696D01*
X035797Y016752D01*
X035815Y016806D01*
X035838Y016859D01*
X035866Y016909D01*
X035898Y016957D01*
X035934Y017001D01*
X035974Y017042D01*
X036018Y017080D01*
X036064Y017113D01*
X036114Y017141D01*
X036166Y017165D01*
X036220Y017185D01*
X036276Y017199D01*
X036332Y017208D01*
X036390Y017212D01*
X036447Y017211D01*
X036504Y017204D01*
X036560Y017192D01*
X036615Y017176D01*
X036668Y017154D01*
X036719Y017128D01*
X036767Y017097D01*
X036813Y017062D01*
X036855Y017022D01*
X036893Y016980D01*
X036927Y016933D01*
X036957Y016884D01*
X036982Y016833D01*
X037002Y016779D01*
X037018Y016724D01*
X037028Y016668D01*
X037033Y016611D01*
X037033Y016553D01*
X037028Y016496D01*
X037018Y016440D01*
X037002Y016385D01*
X036982Y016331D01*
X036957Y016280D01*
X036927Y016231D01*
X036893Y016184D01*
X036855Y016142D01*
X036813Y016102D01*
X036767Y016067D01*
X036719Y016036D01*
X036668Y016010D01*
X036615Y015988D01*
X036560Y015972D01*
X036504Y015960D01*
X036447Y015953D01*
X036390Y015952D01*
X036332Y015956D01*
X036276Y015965D01*
X036220Y015979D01*
X036166Y015999D01*
X036114Y016023D01*
X036064Y016051D01*
X036018Y016084D01*
X035974Y016122D01*
X035934Y016163D01*
X035898Y016207D01*
X035866Y016255D01*
X035838Y016305D01*
X035815Y016358D01*
X035797Y016412D01*
X035784Y016468D01*
X035777Y016525D01*
X035774Y016582D01*
X025516Y029332D02*
X025518Y029356D01*
X025524Y029379D01*
X025534Y029401D01*
X025548Y029421D01*
X025565Y029438D01*
X025585Y029452D01*
X025607Y029462D01*
X025630Y029468D01*
X025654Y029470D01*
X025678Y029468D01*
X025701Y029462D01*
X025723Y029452D01*
X025743Y029438D01*
X025760Y029421D01*
X025774Y029401D01*
X025784Y029379D01*
X025790Y029356D01*
X025792Y029332D01*
X025790Y029308D01*
X025784Y029285D01*
X025774Y029263D01*
X025760Y029243D01*
X025743Y029226D01*
X025723Y029212D01*
X025701Y029202D01*
X025678Y029196D01*
X025654Y029194D01*
X025630Y029196D01*
X025607Y029202D01*
X025585Y029212D01*
X025565Y029226D01*
X025548Y029243D01*
X025534Y029263D01*
X025524Y029285D01*
X025518Y029308D01*
X025516Y029332D01*
X028516Y031832D02*
X028518Y031856D01*
X028524Y031879D01*
X028534Y031901D01*
X028548Y031921D01*
X028565Y031938D01*
X028585Y031952D01*
X028607Y031962D01*
X028630Y031968D01*
X028654Y031970D01*
X028678Y031968D01*
X028701Y031962D01*
X028723Y031952D01*
X028743Y031938D01*
X028760Y031921D01*
X028774Y031901D01*
X028784Y031879D01*
X028790Y031856D01*
X028792Y031832D01*
X028790Y031808D01*
X028784Y031785D01*
X028774Y031763D01*
X028760Y031743D01*
X028743Y031726D01*
X028723Y031712D01*
X028701Y031702D01*
X028678Y031696D01*
X028654Y031694D01*
X028630Y031696D01*
X028607Y031702D01*
X028585Y031712D01*
X028565Y031726D01*
X028548Y031743D01*
X028534Y031763D01*
X028524Y031785D01*
X028518Y031808D01*
X028516Y031832D01*
X019516Y031832D02*
X019518Y031856D01*
X019524Y031879D01*
X019534Y031901D01*
X019548Y031921D01*
X019565Y031938D01*
X019585Y031952D01*
X019607Y031962D01*
X019630Y031968D01*
X019654Y031970D01*
X019678Y031968D01*
X019701Y031962D01*
X019723Y031952D01*
X019743Y031938D01*
X019760Y031921D01*
X019774Y031901D01*
X019784Y031879D01*
X019790Y031856D01*
X019792Y031832D01*
X019790Y031808D01*
X019784Y031785D01*
X019774Y031763D01*
X019760Y031743D01*
X019743Y031726D01*
X019723Y031712D01*
X019701Y031702D01*
X019678Y031696D01*
X019654Y031694D01*
X019630Y031696D01*
X019607Y031702D01*
X019585Y031712D01*
X019565Y031726D01*
X019548Y031743D01*
X019534Y031763D01*
X019524Y031785D01*
X019518Y031808D01*
X019516Y031832D01*
X016516Y029332D02*
X016518Y029356D01*
X016524Y029379D01*
X016534Y029401D01*
X016548Y029421D01*
X016565Y029438D01*
X016585Y029452D01*
X016607Y029462D01*
X016630Y029468D01*
X016654Y029470D01*
X016678Y029468D01*
X016701Y029462D01*
X016723Y029452D01*
X016743Y029438D01*
X016760Y029421D01*
X016774Y029401D01*
X016784Y029379D01*
X016790Y029356D01*
X016792Y029332D01*
X016790Y029308D01*
X016784Y029285D01*
X016774Y029263D01*
X016760Y029243D01*
X016743Y029226D01*
X016723Y029212D01*
X016701Y029202D01*
X016678Y029196D01*
X016654Y029194D01*
X016630Y029196D01*
X016607Y029202D01*
X016585Y029212D01*
X016565Y029226D01*
X016548Y029243D01*
X016534Y029263D01*
X016524Y029285D01*
X016518Y029308D01*
X016516Y029332D01*
X011866Y028482D02*
X011868Y028506D01*
X011874Y028529D01*
X011884Y028551D01*
X011898Y028571D01*
X011915Y028588D01*
X011935Y028602D01*
X011957Y028612D01*
X011980Y028618D01*
X012004Y028620D01*
X012028Y028618D01*
X012051Y028612D01*
X012073Y028602D01*
X012093Y028588D01*
X012110Y028571D01*
X012124Y028551D01*
X012134Y028529D01*
X012140Y028506D01*
X012142Y028482D01*
X012140Y028458D01*
X012134Y028435D01*
X012124Y028413D01*
X012110Y028393D01*
X012093Y028376D01*
X012073Y028362D01*
X012051Y028352D01*
X012028Y028346D01*
X012004Y028344D01*
X011980Y028346D01*
X011957Y028352D01*
X011935Y028362D01*
X011915Y028376D01*
X011898Y028393D01*
X011884Y028413D01*
X011874Y028435D01*
X011868Y028458D01*
X011866Y028482D01*
X011402Y026830D02*
X011405Y026889D01*
X011413Y026948D01*
X011426Y027005D01*
X011445Y027062D01*
X011468Y027116D01*
X011497Y027168D01*
X011530Y027217D01*
X011567Y027263D01*
X011608Y027305D01*
X011653Y027343D01*
X011702Y027378D01*
X011753Y027407D01*
X011807Y027432D01*
X011862Y027452D01*
X011920Y027466D01*
X011978Y027476D01*
X012037Y027480D01*
X012096Y027478D01*
X012155Y027472D01*
X012213Y027460D01*
X012270Y027442D01*
X012324Y027420D01*
X012377Y027393D01*
X012427Y027361D01*
X012474Y027325D01*
X012517Y027284D01*
X012556Y027240D01*
X012591Y027193D01*
X012622Y027142D01*
X012648Y027089D01*
X012669Y027034D01*
X012685Y026977D01*
X012696Y026919D01*
X012701Y026860D01*
X012701Y026800D01*
X012696Y026741D01*
X012685Y026683D01*
X012669Y026626D01*
X012648Y026571D01*
X012622Y026518D01*
X012591Y026467D01*
X012556Y026420D01*
X012517Y026376D01*
X012474Y026335D01*
X012427Y026299D01*
X012377Y026267D01*
X012324Y026240D01*
X012270Y026218D01*
X012213Y026200D01*
X012155Y026188D01*
X012096Y026182D01*
X012037Y026180D01*
X011978Y026184D01*
X011920Y026194D01*
X011862Y026208D01*
X011807Y026228D01*
X011753Y026253D01*
X011702Y026282D01*
X011653Y026317D01*
X011608Y026355D01*
X011567Y026397D01*
X011530Y026443D01*
X011497Y026492D01*
X011468Y026544D01*
X011445Y026598D01*
X011426Y026655D01*
X011413Y026712D01*
X011405Y026771D01*
X011402Y026830D01*
X007097Y027732D02*
X007099Y027757D01*
X007105Y027782D01*
X007115Y027805D01*
X007128Y027826D01*
X007145Y027845D01*
X007165Y027861D01*
X007187Y027874D01*
X007210Y027883D01*
X007235Y027888D01*
X007260Y027889D01*
X007285Y027886D01*
X007310Y027879D01*
X007332Y027868D01*
X007353Y027854D01*
X007372Y027836D01*
X007387Y027816D01*
X007398Y027794D01*
X007406Y027770D01*
X007410Y027745D01*
X007410Y027719D01*
X007406Y027694D01*
X007398Y027670D01*
X007387Y027648D01*
X007372Y027628D01*
X007353Y027610D01*
X007333Y027596D01*
X007310Y027585D01*
X007285Y027578D01*
X007260Y027575D01*
X007235Y027576D01*
X007210Y027581D01*
X007187Y027590D01*
X007165Y027603D01*
X007145Y027619D01*
X007128Y027638D01*
X007115Y027659D01*
X007105Y027682D01*
X007099Y027707D01*
X007097Y027732D01*
X006047Y027732D02*
X006049Y027757D01*
X006055Y027782D01*
X006065Y027805D01*
X006078Y027826D01*
X006095Y027845D01*
X006115Y027861D01*
X006137Y027874D01*
X006160Y027883D01*
X006185Y027888D01*
X006210Y027889D01*
X006235Y027886D01*
X006260Y027879D01*
X006282Y027868D01*
X006303Y027854D01*
X006322Y027836D01*
X006337Y027816D01*
X006348Y027794D01*
X006356Y027770D01*
X006360Y027745D01*
X006360Y027719D01*
X006356Y027694D01*
X006348Y027670D01*
X006337Y027648D01*
X006322Y027628D01*
X006303Y027610D01*
X006283Y027596D01*
X006260Y027585D01*
X006235Y027578D01*
X006210Y027575D01*
X006185Y027576D01*
X006160Y027581D01*
X006137Y027590D01*
X006115Y027603D01*
X006095Y027619D01*
X006078Y027638D01*
X006065Y027659D01*
X006055Y027682D01*
X006049Y027707D01*
X006047Y027732D01*
X006047Y024482D02*
X006049Y024507D01*
X006055Y024532D01*
X006065Y024555D01*
X006078Y024576D01*
X006095Y024595D01*
X006115Y024611D01*
X006137Y024624D01*
X006160Y024633D01*
X006185Y024638D01*
X006210Y024639D01*
X006235Y024636D01*
X006260Y024629D01*
X006282Y024618D01*
X006303Y024604D01*
X006322Y024586D01*
X006337Y024566D01*
X006348Y024544D01*
X006356Y024520D01*
X006360Y024495D01*
X006360Y024469D01*
X006356Y024444D01*
X006348Y024420D01*
X006337Y024398D01*
X006322Y024378D01*
X006303Y024360D01*
X006283Y024346D01*
X006260Y024335D01*
X006235Y024328D01*
X006210Y024325D01*
X006185Y024326D01*
X006160Y024331D01*
X006137Y024340D01*
X006115Y024353D01*
X006095Y024369D01*
X006078Y024388D01*
X006065Y024409D01*
X006055Y024432D01*
X006049Y024457D01*
X006047Y024482D01*
X007097Y024482D02*
X007099Y024507D01*
X007105Y024532D01*
X007115Y024555D01*
X007128Y024576D01*
X007145Y024595D01*
X007165Y024611D01*
X007187Y024624D01*
X007210Y024633D01*
X007235Y024638D01*
X007260Y024639D01*
X007285Y024636D01*
X007310Y024629D01*
X007332Y024618D01*
X007353Y024604D01*
X007372Y024586D01*
X007387Y024566D01*
X007398Y024544D01*
X007406Y024520D01*
X007410Y024495D01*
X007410Y024469D01*
X007406Y024444D01*
X007398Y024420D01*
X007387Y024398D01*
X007372Y024378D01*
X007353Y024360D01*
X007333Y024346D01*
X007310Y024335D01*
X007285Y024328D01*
X007260Y024325D01*
X007235Y024326D01*
X007210Y024331D01*
X007187Y024340D01*
X007165Y024353D01*
X007145Y024369D01*
X007128Y024388D01*
X007115Y024409D01*
X007105Y024432D01*
X007099Y024457D01*
X007097Y024482D01*
X007097Y030982D02*
X007099Y031007D01*
X007105Y031032D01*
X007115Y031055D01*
X007128Y031076D01*
X007145Y031095D01*
X007165Y031111D01*
X007187Y031124D01*
X007210Y031133D01*
X007235Y031138D01*
X007260Y031139D01*
X007285Y031136D01*
X007310Y031129D01*
X007332Y031118D01*
X007353Y031104D01*
X007372Y031086D01*
X007387Y031066D01*
X007398Y031044D01*
X007406Y031020D01*
X007410Y030995D01*
X007410Y030969D01*
X007406Y030944D01*
X007398Y030920D01*
X007387Y030898D01*
X007372Y030878D01*
X007353Y030860D01*
X007333Y030846D01*
X007310Y030835D01*
X007285Y030828D01*
X007260Y030825D01*
X007235Y030826D01*
X007210Y030831D01*
X007187Y030840D01*
X007165Y030853D01*
X007145Y030869D01*
X007128Y030888D01*
X007115Y030909D01*
X007105Y030932D01*
X007099Y030957D01*
X007097Y030982D01*
X006047Y030982D02*
X006049Y031007D01*
X006055Y031032D01*
X006065Y031055D01*
X006078Y031076D01*
X006095Y031095D01*
X006115Y031111D01*
X006137Y031124D01*
X006160Y031133D01*
X006185Y031138D01*
X006210Y031139D01*
X006235Y031136D01*
X006260Y031129D01*
X006282Y031118D01*
X006303Y031104D01*
X006322Y031086D01*
X006337Y031066D01*
X006348Y031044D01*
X006356Y031020D01*
X006360Y030995D01*
X006360Y030969D01*
X006356Y030944D01*
X006348Y030920D01*
X006337Y030898D01*
X006322Y030878D01*
X006303Y030860D01*
X006283Y030846D01*
X006260Y030835D01*
X006235Y030828D01*
X006210Y030825D01*
X006185Y030826D01*
X006160Y030831D01*
X006137Y030840D01*
X006115Y030853D01*
X006095Y030869D01*
X006078Y030888D01*
X006065Y030909D01*
X006055Y030932D01*
X006049Y030957D01*
X006047Y030982D01*
X011866Y032482D02*
X011868Y032506D01*
X011874Y032529D01*
X011884Y032551D01*
X011898Y032571D01*
X011915Y032588D01*
X011935Y032602D01*
X011957Y032612D01*
X011980Y032618D01*
X012004Y032620D01*
X012028Y032618D01*
X012051Y032612D01*
X012073Y032602D01*
X012093Y032588D01*
X012110Y032571D01*
X012124Y032551D01*
X012134Y032529D01*
X012140Y032506D01*
X012142Y032482D01*
X012140Y032458D01*
X012134Y032435D01*
X012124Y032413D01*
X012110Y032393D01*
X012093Y032376D01*
X012073Y032362D01*
X012051Y032352D01*
X012028Y032346D01*
X012004Y032344D01*
X011980Y032346D01*
X011957Y032352D01*
X011935Y032362D01*
X011915Y032376D01*
X011898Y032393D01*
X011884Y032413D01*
X011874Y032435D01*
X011868Y032458D01*
X011866Y032482D01*
D11*
X006154Y009582D02*
X039209Y009582D01*
X039209Y033050D01*
X006154Y033050D01*
X006154Y009582D01*
M02*
