G75*
G70*
%OFA0B0*%
%FSLAX24Y24*%
%IPPOS*%
%LPD*%
%AMOC8*
5,1,8,0,0,1.08239X$1,22.5*
%
%ADD10R,0.0400X0.0400*%
%ADD11R,0.0240X0.0230*%
%ADD12R,0.0230X0.0240*%
%ADD13R,0.0748X0.0315*%
%ADD14R,0.0827X0.0315*%
%ADD15R,0.0787X0.0787*%
%ADD16R,0.0748X0.0551*%
%ADD17R,0.0600X0.0500*%
%ADD18R,0.0200X0.0300*%
%ADD19R,0.0157X0.0551*%
%ADD20R,0.0700X0.0700*%
%ADD21C,0.0700*%
%ADD22R,0.0320X0.0200*%
%ADD23O,0.0780X0.0390*%
%ADD24R,0.0217X0.0472*%
%ADD25R,0.0400X0.0300*%
%ADD26R,0.0400X0.0200*%
%ADD27R,0.0700X0.0900*%
%ADD28R,0.0551X0.0394*%
%ADD29R,0.0300X0.0200*%
%ADD30C,0.0050*%
%ADD31C,0.0886*%
%ADD32C,0.0591*%
%ADD33R,0.0531X0.0531*%
%ADD34C,0.0531*%
%ADD35C,0.0394*%
%ADD36C,0.0180*%
%ADD37C,0.0100*%
%ADD38C,0.0198*%
%ADD39C,0.0200*%
%ADD40C,0.0120*%
%ADD41C,0.0237*%
%ADD42C,0.0300*%
%ADD43C,0.0354*%
%ADD44C,0.0400*%
%ADD45C,0.0240*%
%ADD46C,0.0080*%
%ADD47C,0.0360*%
%ADD48C,0.0160*%
D10*
X013758Y010502D03*
X014508Y010502D03*
X014508Y011202D03*
X013758Y011202D03*
X014758Y012052D03*
X015458Y012052D03*
X013808Y013152D03*
X013808Y013852D03*
X016058Y014602D03*
X016758Y014602D03*
X017358Y014602D03*
X017958Y014602D03*
X018558Y014602D03*
X018558Y013902D03*
X017958Y013902D03*
X017358Y013902D03*
X017758Y013302D03*
X018358Y013302D03*
X018958Y013302D03*
X018958Y012602D03*
X018358Y012602D03*
X017758Y012602D03*
X021258Y010252D03*
X021858Y010252D03*
X022558Y010252D03*
X023658Y009802D03*
X024358Y009802D03*
X021258Y009552D03*
X028658Y010902D03*
X029358Y010902D03*
X030758Y010552D03*
X031458Y010552D03*
X032958Y010402D03*
X033558Y010402D03*
X034508Y010852D03*
X033558Y011102D03*
X032958Y011102D03*
X034508Y011552D03*
X031508Y012752D03*
X030908Y012752D03*
X030908Y013452D03*
X031508Y013452D03*
X029308Y015002D03*
X029308Y015702D03*
X025508Y016852D03*
X024808Y016852D03*
X024058Y016852D03*
X023358Y016852D03*
X022558Y016852D03*
X021858Y016852D03*
X021208Y016852D03*
X020508Y016852D03*
X020508Y016252D03*
X021208Y016252D03*
X022158Y016252D03*
X022858Y016252D03*
X018958Y015952D03*
X018258Y015952D03*
X018258Y015252D03*
X018958Y015252D03*
X017308Y015252D03*
X016708Y015252D03*
X016108Y015252D03*
X016108Y015952D03*
X016708Y015952D03*
X017308Y015952D03*
X015508Y015952D03*
X014808Y015952D03*
D11*
X019608Y016002D03*
X020008Y016002D03*
X023358Y016352D03*
X023758Y016352D03*
X024358Y016352D03*
X024758Y016352D03*
X025358Y016352D03*
X025758Y016352D03*
X026908Y016002D03*
X027308Y016002D03*
X019008Y012127D03*
X018608Y012127D03*
X019358Y010402D03*
X019758Y010402D03*
X024158Y010402D03*
X024558Y010402D03*
X025108Y010402D03*
X025508Y010402D03*
X026808Y010402D03*
X027208Y010402D03*
X027758Y010402D03*
X028158Y010402D03*
D12*
X023183Y010397D03*
X023183Y009997D03*
X019033Y014052D03*
X019033Y014452D03*
X017783Y015402D03*
X017783Y015802D03*
D13*
X008224Y013529D03*
X008067Y013096D03*
X008067Y013962D03*
X008067Y012229D03*
X008067Y011363D03*
X008067Y010930D03*
D14*
X007949Y011796D03*
X007949Y012663D03*
D15*
X012319Y013489D03*
X012319Y011245D03*
D16*
X007023Y010615D03*
X006630Y015792D03*
D17*
X015408Y011352D03*
X015408Y010552D03*
X031858Y014952D03*
X031858Y015752D03*
X032258Y011752D03*
X032258Y010952D03*
D18*
X016588Y010952D03*
X016288Y010952D03*
X016288Y010552D03*
X016588Y010552D03*
X016588Y011352D03*
X016288Y011352D03*
X016288Y011752D03*
X016588Y011752D03*
D19*
X019564Y010869D03*
X019820Y010869D03*
X020075Y010869D03*
X020331Y010869D03*
X020587Y010869D03*
X020843Y010869D03*
X021099Y010869D03*
X021355Y010869D03*
X021611Y010869D03*
X021867Y010869D03*
X022123Y010869D03*
X022379Y010869D03*
X022634Y010869D03*
X022890Y010869D03*
X023146Y010869D03*
X023402Y010869D03*
X023658Y010869D03*
X023914Y010869D03*
X024170Y010869D03*
X024426Y010869D03*
X024682Y010869D03*
X024938Y010869D03*
X025194Y010869D03*
X025449Y010869D03*
X025705Y010869D03*
X025961Y010869D03*
X026217Y010869D03*
X026473Y010869D03*
X026729Y010869D03*
X026985Y010869D03*
X027241Y010869D03*
X027497Y010869D03*
X027753Y010869D03*
X027753Y015535D03*
X027497Y015535D03*
X027241Y015535D03*
X026985Y015535D03*
X026729Y015535D03*
X026473Y015535D03*
X026217Y015535D03*
X025961Y015535D03*
X025705Y015535D03*
X025449Y015535D03*
X025194Y015535D03*
X024938Y015535D03*
X024682Y015535D03*
X024426Y015535D03*
X024170Y015535D03*
X023914Y015535D03*
X023658Y015535D03*
X023402Y015535D03*
X023146Y015535D03*
X022890Y015535D03*
X022634Y015535D03*
X022379Y015535D03*
X022123Y015535D03*
X021867Y015535D03*
X021611Y015535D03*
X021355Y015535D03*
X021099Y015535D03*
X020843Y015535D03*
X020587Y015535D03*
X020331Y015535D03*
X020075Y015535D03*
X019820Y015535D03*
X019564Y015535D03*
D20*
X006658Y016702D03*
X006658Y009702D03*
X033658Y011702D03*
X035658Y015702D03*
D21*
X034658Y015702D03*
X033658Y015702D03*
X032658Y015702D03*
X032658Y016702D03*
X033658Y016702D03*
X034658Y016702D03*
X035658Y016702D03*
X033658Y014702D03*
X033658Y013702D03*
X033658Y012702D03*
X028808Y012352D03*
X028658Y009702D03*
X027658Y009702D03*
X026658Y009702D03*
X029658Y009702D03*
X030658Y009702D03*
X031658Y009702D03*
X032658Y009702D03*
X033658Y009702D03*
X034658Y009702D03*
X035658Y009702D03*
X031658Y016702D03*
X030658Y016702D03*
X029658Y016702D03*
X028658Y016702D03*
X027658Y016702D03*
X026658Y016702D03*
X019658Y016702D03*
X018658Y016702D03*
X017658Y016702D03*
X016658Y016702D03*
X015658Y016702D03*
X014658Y016702D03*
X013658Y016702D03*
X012658Y016702D03*
X011658Y016702D03*
X010658Y016702D03*
X009658Y016702D03*
X008658Y016702D03*
X007658Y016702D03*
X007658Y009702D03*
X008658Y009702D03*
X009658Y009702D03*
X010658Y009702D03*
X011658Y009702D03*
X012658Y009702D03*
X013658Y009702D03*
X014658Y009702D03*
X015658Y009702D03*
X016658Y009702D03*
X017658Y009702D03*
X018658Y009702D03*
X019658Y009702D03*
D22*
X029008Y010902D03*
D23*
X006608Y011479D03*
X006608Y011972D03*
X006608Y012464D03*
X006608Y012956D03*
X006608Y013448D03*
X006608Y013940D03*
X006608Y014432D03*
X006608Y014924D03*
D24*
X014684Y015414D03*
X015432Y015414D03*
X015432Y014390D03*
X015058Y014390D03*
X014684Y014390D03*
X030834Y012164D03*
X031582Y012164D03*
X031582Y011140D03*
X031208Y011140D03*
X030834Y011140D03*
D25*
X018888Y010652D03*
X018288Y010652D03*
X017608Y010652D03*
X017008Y010652D03*
X017008Y011652D03*
X017608Y011652D03*
X018288Y011652D03*
X018888Y011652D03*
D26*
X018888Y011302D03*
X018888Y011002D03*
X018288Y011002D03*
X018288Y011302D03*
X017608Y011302D03*
X017608Y011002D03*
X017008Y011002D03*
X017008Y011302D03*
D27*
X016665Y013402D03*
X014951Y013402D03*
D28*
X030225Y014978D03*
X031091Y015352D03*
X030225Y015726D03*
D29*
X013058Y015502D03*
X013058Y015202D03*
X013058Y014902D03*
X013058Y014152D03*
X013058Y013852D03*
X013058Y013552D03*
X013058Y012802D03*
X013058Y012502D03*
X013058Y012202D03*
D30*
X013058Y012002D01*
X013058Y012202D02*
X013058Y012502D01*
X012308Y012502D01*
X011708Y013102D01*
X011358Y012702D02*
X011158Y012902D01*
X011158Y013752D01*
X011808Y014402D01*
X013808Y014402D01*
X014158Y014052D01*
X014358Y014052D01*
X014208Y014252D02*
X014108Y014252D01*
X013858Y014502D01*
X011758Y014502D01*
X011358Y014102D01*
X009308Y014102D01*
X008964Y013096D02*
X010108Y011952D01*
X012808Y011952D01*
X013108Y011652D01*
X014358Y011652D01*
X014758Y012052D01*
X013558Y011902D02*
X013408Y012052D01*
X013408Y012702D01*
X013308Y012802D01*
X013058Y012802D01*
X013058Y013252D02*
X013058Y013552D01*
X013058Y013852D01*
X012858Y013852D01*
X012708Y014002D01*
X011658Y014002D01*
X011358Y013702D01*
X011358Y014702D02*
X013258Y014702D01*
X013308Y014752D01*
X013308Y015127D01*
X013258Y015177D01*
X013083Y015177D01*
X013058Y015202D01*
X013058Y015502D01*
X014108Y015502D01*
X014383Y015227D01*
X013058Y014902D02*
X012808Y014902D01*
X010058Y011852D02*
X009247Y012663D01*
X009212Y012663D01*
X008964Y013096D02*
X008929Y013096D01*
X010058Y011852D02*
X012758Y011852D01*
X013458Y011152D01*
X013458Y010802D01*
X013758Y010502D01*
X013383Y010627D02*
X013383Y010327D01*
X013558Y010152D01*
X018933Y010152D01*
X019033Y010052D01*
X019820Y010869D02*
X019820Y011263D01*
X019958Y011402D01*
X019958Y011552D01*
X020708Y012302D01*
X020708Y013302D01*
X021008Y013602D01*
X021608Y013602D01*
X021658Y013652D01*
X023208Y013652D01*
X023283Y013727D01*
X023658Y013727D01*
X023508Y013627D02*
X023658Y013477D01*
X023508Y013627D02*
X023333Y013627D01*
X023258Y013552D01*
X021708Y013552D01*
X021658Y013502D01*
X021408Y013502D01*
X020808Y012902D01*
X020808Y012252D01*
X020075Y011519D01*
X020075Y010869D01*
X020331Y010869D02*
X020331Y011625D01*
X020908Y012202D01*
X020908Y012577D01*
X021108Y012777D01*
X022008Y012777D01*
X022583Y013352D01*
X023308Y013352D01*
X023408Y013452D01*
X023458Y013252D02*
X023483Y013227D01*
X023458Y013252D02*
X022633Y013252D01*
X022058Y012677D01*
X021158Y012677D01*
X021008Y012527D01*
X021008Y012152D01*
X020587Y011731D01*
X020587Y010869D01*
X020843Y010869D02*
X020843Y011837D01*
X021108Y012102D01*
X021108Y012477D01*
X021208Y012577D01*
X022108Y012577D01*
X022683Y013152D01*
X023308Y013152D01*
X023408Y013052D01*
X023608Y013052D01*
X023908Y013352D01*
X024308Y013352D01*
X024858Y013902D01*
X024958Y013902D01*
X025158Y014052D02*
X025158Y014352D01*
X025008Y014502D01*
X023858Y014502D01*
X023758Y014602D01*
X022408Y014602D01*
X022058Y014952D01*
X021808Y014952D01*
X021608Y015152D01*
X021418Y015152D01*
X021355Y015215D01*
X021355Y015535D01*
X021611Y015535D02*
X021611Y015299D01*
X021858Y015052D01*
X022108Y015052D01*
X022458Y014702D01*
X023808Y014702D01*
X023908Y014602D01*
X025058Y014602D01*
X025258Y014402D01*
X025258Y014202D01*
X025383Y014077D01*
X025383Y013977D01*
X025558Y014052D02*
X025558Y013902D01*
X025658Y013802D01*
X025808Y013802D01*
X026208Y014202D01*
X026208Y014452D01*
X025758Y014577D02*
X025194Y015141D01*
X025194Y015535D01*
X025449Y015535D02*
X025449Y015211D01*
X025908Y014752D01*
X026133Y014827D02*
X025961Y014999D01*
X025961Y015535D01*
X026217Y015535D02*
X026217Y015093D01*
X026258Y015052D01*
X026729Y015081D02*
X026729Y015535D01*
X026985Y015535D02*
X026985Y015225D01*
X027158Y015052D01*
X027308Y014852D02*
X027497Y015040D01*
X027497Y015535D01*
X027658Y014952D02*
X027208Y014502D01*
X026658Y014502D01*
X025558Y013402D01*
X024658Y013402D01*
X024408Y013152D01*
X024033Y013152D01*
X022123Y011241D01*
X022123Y010869D01*
X021908Y010911D02*
X021908Y011142D01*
X022018Y011252D01*
X022018Y011287D01*
X023983Y013252D01*
X024358Y013252D01*
X024608Y013502D01*
X025258Y013502D01*
X025358Y013602D01*
X025733Y013977D02*
X025733Y014027D01*
X025458Y014302D01*
X025458Y014502D01*
X025158Y014802D01*
X024008Y014802D01*
X023914Y014896D01*
X023914Y015535D01*
X023508Y015152D02*
X023058Y015152D01*
X022890Y015320D01*
X022890Y015535D01*
X022634Y015535D02*
X022634Y015226D01*
X022708Y015152D01*
X022808Y015152D01*
X022983Y014977D01*
X023108Y014802D02*
X022508Y014802D01*
X022123Y015187D01*
X022123Y015535D01*
X022379Y015535D02*
X022379Y015306D01*
X022708Y014977D01*
X022733Y014977D01*
X023108Y014802D02*
X023283Y014977D01*
X023508Y015152D02*
X023958Y014702D01*
X025108Y014702D01*
X025358Y014452D01*
X025358Y014252D01*
X025558Y014052D01*
X025658Y014352D02*
X025558Y014452D01*
X025558Y014552D01*
X025208Y014902D01*
X025008Y014902D01*
X024682Y015228D01*
X024682Y015535D01*
X023708Y014502D02*
X023808Y014402D01*
X024858Y014402D01*
X024933Y014327D01*
X024783Y014127D02*
X024608Y014302D01*
X023758Y014302D01*
X023658Y014402D01*
X022308Y014402D01*
X021958Y014752D01*
X021708Y014752D01*
X021508Y014952D01*
X021318Y014952D01*
X021118Y015152D01*
X020908Y015152D01*
X020843Y015217D01*
X020843Y015535D01*
X020587Y015535D02*
X020587Y015123D01*
X021158Y014552D01*
X021408Y014552D01*
X021658Y014302D01*
X023608Y014302D01*
X023708Y014202D01*
X024433Y014202D01*
X024558Y014077D01*
X024333Y014027D02*
X024258Y014102D01*
X023658Y014102D01*
X023558Y014202D01*
X021608Y014202D01*
X021358Y014452D01*
X021108Y014452D01*
X020331Y015229D01*
X020331Y015535D01*
X020075Y015535D02*
X020075Y015235D01*
X020158Y015152D01*
X020258Y015152D01*
X021058Y014352D01*
X021308Y014352D01*
X021558Y014102D01*
X023508Y014102D01*
X023608Y014002D01*
X024033Y014002D01*
X024108Y013927D01*
X023883Y013827D02*
X023808Y013902D01*
X023558Y013902D01*
X023458Y014002D01*
X021508Y014002D01*
X021258Y014252D01*
X021008Y014252D01*
X020208Y015052D01*
X020058Y015052D01*
X019820Y015290D01*
X019820Y015535D01*
X021099Y015535D02*
X021099Y015321D01*
X021368Y015052D01*
X021558Y015052D01*
X021758Y014852D01*
X022008Y014852D01*
X022358Y014502D01*
X023708Y014502D01*
X024708Y013302D02*
X025608Y013302D01*
X026708Y014402D01*
X027358Y014402D01*
X027458Y014502D01*
X027133Y014677D02*
X026729Y015081D01*
X026758Y014302D02*
X028458Y014302D01*
X029008Y014852D01*
X029008Y015402D01*
X029308Y015702D01*
X031091Y015352D02*
X031308Y015352D01*
X031308Y014752D01*
X031508Y014552D01*
X032083Y014552D01*
X032258Y014402D02*
X032058Y014202D01*
X026808Y014202D01*
X025708Y013102D01*
X024808Y013102D01*
X024308Y012602D01*
X024083Y012602D01*
X023083Y011602D01*
X023083Y011452D01*
X023133Y011252D02*
X023383Y011502D01*
X023858Y011502D01*
X024183Y011827D01*
X024433Y011827D01*
X025258Y012652D01*
X026183Y012652D01*
X026258Y012727D01*
X026908Y012552D02*
X027208Y012852D01*
X027208Y012952D01*
X027458Y012952D02*
X026958Y012452D01*
X025358Y012452D01*
X024858Y011952D01*
X024858Y011552D01*
X024758Y011452D01*
X024408Y011452D01*
X024233Y011627D01*
X024258Y011452D02*
X024358Y011352D01*
X025058Y011352D01*
X025233Y011527D01*
X025408Y011452D02*
X025208Y011252D01*
X024758Y011252D01*
X024682Y011176D01*
X024682Y010869D01*
X025194Y010869D02*
X025194Y011087D01*
X025508Y011402D01*
X025508Y012052D01*
X025558Y012102D01*
X025408Y012002D02*
X025333Y012077D01*
X025333Y012177D01*
X025408Y012002D02*
X025408Y011452D01*
X025608Y011352D02*
X025608Y011877D01*
X025783Y012052D01*
X025958Y012202D02*
X025908Y012252D01*
X025958Y012202D02*
X025958Y010872D01*
X025961Y010869D01*
X026217Y010869D02*
X026217Y011193D01*
X026058Y011352D01*
X026058Y012177D01*
X026158Y012277D01*
X026258Y012052D02*
X026729Y011581D01*
X026729Y010869D01*
X026985Y010869D02*
X026985Y012129D01*
X027208Y012352D01*
X027183Y012077D02*
X027108Y012002D01*
X027108Y011452D01*
X027258Y011302D01*
X027358Y011302D01*
X027497Y011163D01*
X027497Y010869D01*
X028433Y011127D02*
X028433Y011527D01*
X028433Y011127D02*
X028658Y010902D01*
X030208Y011227D02*
X030283Y011302D01*
X030283Y011727D01*
X030608Y012052D01*
X030608Y013002D01*
X030708Y013102D01*
X032308Y013102D01*
X032408Y013202D01*
X035408Y013202D01*
X035658Y013452D01*
X035658Y013902D01*
X035308Y014252D01*
X035108Y014252D01*
X034808Y014552D01*
X034808Y015152D01*
X035158Y015502D01*
X035158Y016402D01*
X035308Y016552D01*
X030834Y012164D02*
X030834Y012028D01*
X030758Y011952D01*
X030658Y011952D01*
X030383Y011677D01*
X030383Y011477D01*
X030458Y011402D01*
X030458Y010302D01*
X030608Y010152D01*
X032208Y010152D01*
X032383Y009977D01*
X026908Y012552D02*
X025308Y012552D01*
X024758Y012002D01*
X024758Y011702D01*
X024683Y011627D01*
X024258Y011452D02*
X024058Y011452D01*
X023914Y011308D01*
X023914Y010869D01*
X023133Y011252D02*
X022958Y011252D01*
X022890Y011184D01*
X022890Y010869D01*
X022634Y010869D02*
X022634Y011453D01*
X024058Y012877D01*
X024158Y012877D01*
X024083Y013052D02*
X024458Y013052D01*
X024708Y013302D01*
X024758Y013202D02*
X025658Y013202D01*
X026758Y014302D01*
X024758Y013202D02*
X024258Y012702D01*
X024033Y012702D01*
X022833Y011502D01*
X022833Y011402D01*
X022379Y011347D02*
X024083Y013052D01*
X021355Y011685D02*
X021278Y011762D01*
X021355Y011685D02*
X021355Y010869D01*
X021099Y010869D02*
X021099Y011711D01*
X021048Y011762D01*
X022379Y011347D02*
X022379Y010869D01*
X021908Y010911D02*
X021867Y010869D01*
X025449Y010869D02*
X025449Y011193D01*
X025608Y011352D01*
X025508Y016852D02*
X025608Y016952D01*
X025758Y016952D01*
X025508Y016852D02*
X025408Y016952D01*
X025258Y016952D01*
X013133Y010627D02*
X013008Y010502D01*
X012808Y010502D01*
X012708Y010602D01*
X009308Y010602D01*
X008980Y010930D01*
X008945Y010930D01*
X009358Y010702D02*
X012908Y010702D01*
X009358Y010702D02*
X008697Y011363D01*
X008662Y011363D01*
D31*
X032679Y012588D03*
X035435Y012588D03*
X035435Y014832D03*
X032679Y014832D03*
D32*
X032876Y013710D03*
X033664Y013710D03*
X034451Y013710D03*
X035238Y013710D03*
D33*
X035158Y010808D03*
D34*
X035158Y011596D03*
D35*
X035658Y010452D03*
X008158Y010452D03*
X008158Y015952D03*
D36*
X011358Y014702D03*
X011058Y013902D03*
X011358Y013702D03*
X011708Y013102D03*
X011358Y012702D03*
X013058Y013252D03*
X013308Y014202D03*
X014208Y014252D03*
X014358Y014052D03*
X012808Y014902D03*
X012683Y015102D03*
X011758Y015452D03*
X014383Y015227D03*
X009308Y014102D03*
X009008Y013902D03*
X009258Y013252D03*
X009208Y012402D03*
X009558Y011952D03*
X009008Y011902D03*
X012908Y011302D03*
X013108Y011152D03*
X012908Y011002D03*
X012908Y010702D03*
X013133Y010627D03*
X013383Y010627D03*
X014108Y010752D03*
X014958Y011577D03*
X014908Y012352D03*
X014458Y012427D03*
X014383Y012202D03*
X013558Y011902D03*
X013058Y012002D03*
X015708Y010952D03*
X017958Y011077D03*
X017958Y010827D03*
X017958Y011427D03*
X017958Y011677D03*
X020158Y012052D03*
X021048Y011762D03*
X021278Y011762D03*
X021283Y012402D03*
X021533Y012402D03*
X021458Y012952D03*
X021283Y013127D03*
X021133Y012952D03*
X021033Y013377D03*
X021283Y013977D03*
X021058Y014077D03*
X021783Y013827D03*
X022033Y013827D03*
X022283Y013827D03*
X021958Y013377D03*
X022133Y013202D03*
X021958Y013027D03*
X023408Y013452D03*
X023483Y013227D03*
X023658Y013477D03*
X023658Y013727D03*
X023883Y013827D03*
X024108Y013927D03*
X024333Y014027D03*
X024558Y014077D03*
X024783Y014127D03*
X024933Y014327D03*
X025158Y014052D03*
X025383Y013977D03*
X025733Y013977D03*
X025358Y013602D03*
X024958Y013902D03*
X025658Y014352D03*
X025758Y014577D03*
X025908Y014752D03*
X026133Y014827D03*
X026258Y015052D03*
X027158Y015052D03*
X027308Y014852D03*
X027133Y014677D03*
X027458Y014502D03*
X027658Y014952D03*
X028383Y015577D03*
X026208Y014452D03*
X024083Y014977D03*
X023283Y014977D03*
X022983Y014977D03*
X022733Y014977D03*
X021983Y014477D03*
X021733Y014477D03*
X021468Y014752D03*
X021233Y014752D03*
X020108Y014627D03*
X020133Y013827D03*
X020158Y013002D03*
X022833Y011402D03*
X023083Y011452D03*
X023633Y011902D03*
X023833Y011752D03*
X024233Y011627D03*
X024683Y011627D03*
X025233Y011527D03*
X025783Y011527D03*
X025783Y012052D03*
X025558Y012102D03*
X025333Y012177D03*
X025908Y012252D03*
X026158Y012277D03*
X026258Y012052D03*
X027183Y012077D03*
X027208Y012352D03*
X026258Y012727D03*
X027208Y012952D03*
X027458Y012952D03*
X027558Y011527D03*
X028433Y011527D03*
X030083Y012027D03*
X030208Y011227D03*
X030208Y010677D03*
X029408Y010427D03*
X026058Y009442D03*
X025828Y009442D03*
X025498Y009542D03*
X025288Y009647D03*
X025088Y009442D03*
X024858Y009442D03*
X024628Y009442D03*
X024398Y009442D03*
X023918Y009442D03*
X023688Y009442D03*
X023458Y009442D03*
X023228Y009442D03*
X022998Y009442D03*
X022758Y009562D03*
X022558Y009442D03*
X022328Y009442D03*
X022188Y009642D03*
X021998Y009442D03*
X021848Y009622D03*
X021623Y009552D03*
X020958Y009877D03*
X020758Y010127D03*
X020833Y010352D03*
X020258Y010227D03*
X020183Y010452D03*
X019283Y010052D03*
X019033Y010052D03*
X020193Y009752D03*
X020583Y009752D03*
X020763Y009592D03*
X022618Y009752D03*
X023058Y009732D03*
X024858Y009682D03*
X024158Y012877D03*
X022958Y016702D03*
X024433Y016957D03*
X031158Y016452D03*
X032083Y014552D03*
X032258Y014402D03*
X032008Y013302D03*
D37*
X007138Y010106D02*
X007138Y009402D01*
X007223Y009402D01*
X007217Y009407D01*
X007138Y009598D01*
X007138Y009653D01*
X007609Y009653D01*
X007609Y009750D01*
X007138Y009750D01*
X007138Y009805D01*
X007217Y009996D01*
X007364Y010143D01*
X007555Y010222D01*
X007610Y010222D01*
X007610Y009751D01*
X007707Y009751D01*
X007707Y010222D01*
X007762Y010222D01*
X007953Y010143D01*
X008099Y009996D01*
X008178Y009805D01*
X008178Y009750D01*
X007707Y009750D01*
X007707Y009653D01*
X008178Y009653D01*
X008178Y009598D01*
X008099Y009407D01*
X008093Y009402D01*
X008279Y009402D01*
X008251Y009430D01*
X008178Y009606D01*
X008178Y009797D01*
X008251Y009974D01*
X008386Y010109D01*
X008563Y010182D01*
X008754Y010182D01*
X008930Y010109D01*
X009065Y009974D01*
X009138Y009797D01*
X009138Y009606D01*
X009065Y009430D01*
X009037Y009402D01*
X009279Y009402D01*
X009251Y009430D01*
X009178Y009606D01*
X009178Y009797D01*
X009251Y009974D01*
X009386Y010109D01*
X009563Y010182D01*
X009754Y010182D01*
X009930Y010109D01*
X010065Y009974D01*
X010138Y009797D01*
X010138Y009606D01*
X010065Y009430D01*
X010037Y009402D01*
X010279Y009402D01*
X010251Y009430D01*
X010178Y009606D01*
X010178Y009797D01*
X010251Y009974D01*
X010386Y010109D01*
X010563Y010182D01*
X010754Y010182D01*
X010930Y010109D01*
X011065Y009974D01*
X011138Y009797D01*
X011138Y009606D01*
X011065Y009430D01*
X011037Y009402D01*
X011279Y009402D01*
X011251Y009430D01*
X011178Y009606D01*
X011178Y009797D01*
X011251Y009974D01*
X011386Y010109D01*
X011563Y010182D01*
X011754Y010182D01*
X011930Y010109D01*
X012065Y009974D01*
X012138Y009797D01*
X012138Y009606D01*
X012065Y009430D01*
X012037Y009402D01*
X012279Y009402D01*
X012251Y009430D01*
X012178Y009606D01*
X012178Y009797D01*
X012251Y009974D01*
X012386Y010109D01*
X012563Y010182D01*
X012754Y010182D01*
X012930Y010109D01*
X013065Y009974D01*
X013138Y009797D01*
X013138Y009606D01*
X013065Y009430D01*
X013037Y009402D01*
X013279Y009402D01*
X013251Y009430D01*
X013178Y009606D01*
X013178Y009797D01*
X013251Y009974D01*
X013384Y010107D01*
X013319Y010172D01*
X013228Y010263D01*
X013228Y010428D01*
X013177Y010407D01*
X013132Y010407D01*
X013072Y010347D01*
X012944Y010347D01*
X012744Y010347D01*
X012653Y010438D01*
X012644Y010447D01*
X009244Y010447D01*
X008922Y010447D01*
X008722Y010247D01*
X008594Y010247D01*
X008415Y010247D01*
X008293Y010125D01*
X008023Y010125D01*
X007901Y010247D01*
X007489Y010247D01*
X007451Y010210D01*
X006596Y010210D01*
X006558Y010247D01*
X006358Y010247D01*
X006358Y010182D01*
X007062Y010182D01*
X007138Y010106D01*
X007138Y010089D02*
X007310Y010089D01*
X007215Y009990D02*
X007138Y009990D01*
X007138Y009892D02*
X007174Y009892D01*
X007138Y009793D02*
X007138Y009793D01*
X007138Y009695D02*
X007609Y009695D01*
X007707Y009695D02*
X008178Y009695D01*
X008178Y009793D02*
X008178Y009793D01*
X008142Y009892D02*
X008217Y009892D01*
X008268Y009990D02*
X008101Y009990D01*
X008007Y010089D02*
X008366Y010089D01*
X008356Y010187D02*
X013303Y010187D01*
X013366Y010089D02*
X012950Y010089D01*
X013049Y009990D02*
X013268Y009990D01*
X013217Y009892D02*
X013099Y009892D01*
X013138Y009793D02*
X013178Y009793D01*
X013178Y009695D02*
X013138Y009695D01*
X013134Y009596D02*
X013182Y009596D01*
X013223Y009498D02*
X013093Y009498D01*
X012223Y009498D02*
X012093Y009498D01*
X012134Y009596D02*
X012182Y009596D01*
X012178Y009695D02*
X012138Y009695D01*
X012138Y009793D02*
X012178Y009793D01*
X012217Y009892D02*
X012099Y009892D01*
X012049Y009990D02*
X012268Y009990D01*
X012366Y010089D02*
X011950Y010089D01*
X011366Y010089D02*
X010950Y010089D01*
X011049Y009990D02*
X011268Y009990D01*
X011217Y009892D02*
X011099Y009892D01*
X011138Y009793D02*
X011178Y009793D01*
X011178Y009695D02*
X011138Y009695D01*
X011134Y009596D02*
X011182Y009596D01*
X011223Y009498D02*
X011093Y009498D01*
X010223Y009498D02*
X010093Y009498D01*
X010134Y009596D02*
X010182Y009596D01*
X010178Y009695D02*
X010138Y009695D01*
X010138Y009793D02*
X010178Y009793D01*
X010217Y009892D02*
X010099Y009892D01*
X010049Y009990D02*
X010268Y009990D01*
X010366Y010089D02*
X009950Y010089D01*
X009366Y010089D02*
X008950Y010089D01*
X009049Y009990D02*
X009268Y009990D01*
X009217Y009892D02*
X009099Y009892D01*
X009138Y009793D02*
X009178Y009793D01*
X009178Y009695D02*
X009138Y009695D01*
X009134Y009596D02*
X009182Y009596D01*
X009223Y009498D02*
X009093Y009498D01*
X008223Y009498D02*
X008136Y009498D01*
X008177Y009596D02*
X008182Y009596D01*
X007707Y009793D02*
X007610Y009793D01*
X007610Y009892D02*
X007707Y009892D01*
X007707Y009990D02*
X007610Y009990D01*
X007610Y010089D02*
X007707Y010089D01*
X007707Y010187D02*
X007610Y010187D01*
X007471Y010187D02*
X006358Y010187D01*
X007138Y009596D02*
X007139Y009596D01*
X007138Y009498D02*
X007180Y009498D01*
X007845Y010187D02*
X007960Y010187D01*
X008761Y010286D02*
X013228Y010286D01*
X013228Y010384D02*
X013110Y010384D01*
X012706Y010384D02*
X008860Y010384D01*
X008945Y010930D02*
X008680Y010930D01*
X008067Y010930D02*
X007630Y010930D01*
X007081Y011479D01*
X006608Y011479D01*
X006608Y011972D02*
X006938Y011972D01*
X007547Y011363D01*
X008067Y011363D01*
X008397Y011363D02*
X008662Y011363D01*
X008642Y011607D02*
X008532Y011717D01*
X008532Y011768D01*
X007978Y011768D01*
X007978Y011825D01*
X008532Y011825D01*
X008532Y011859D01*
X008544Y011847D01*
X008644Y011847D01*
X008753Y011738D01*
X008753Y011666D01*
X008694Y011607D01*
X008642Y011607D01*
X008584Y011665D02*
X008753Y011665D01*
X008727Y011764D02*
X008532Y011764D01*
X008686Y012229D02*
X009036Y012229D01*
X009208Y012402D01*
X009212Y012663D02*
X008697Y012663D01*
X008664Y013096D02*
X008929Y013096D01*
X009258Y013252D02*
X008981Y013529D01*
X008681Y013529D01*
X008224Y013529D02*
X007731Y013529D01*
X006828Y014432D01*
X006608Y014432D01*
X006608Y013940D02*
X006970Y013940D01*
X007814Y013096D01*
X008067Y013096D01*
X007949Y012663D02*
X007647Y012663D01*
X006862Y013448D01*
X006608Y013448D01*
X006608Y012956D02*
X006854Y012956D01*
X007581Y012229D01*
X008067Y012229D01*
X007920Y011825D02*
X007613Y011825D01*
X007613Y011768D01*
X007920Y011768D01*
X007920Y011825D01*
X007949Y011796D02*
X007664Y011796D01*
X006996Y012464D01*
X006608Y012464D01*
X007798Y013962D02*
X006836Y014924D01*
X006608Y014924D01*
X007169Y015410D02*
X011538Y015410D01*
X011538Y015408D02*
X011572Y015327D01*
X011633Y015265D01*
X011714Y015232D01*
X011802Y015232D01*
X011883Y015265D01*
X011945Y015327D01*
X011978Y015408D01*
X011978Y015496D01*
X011945Y015576D01*
X011883Y015638D01*
X011802Y015672D01*
X011714Y015672D01*
X011633Y015638D01*
X011572Y015576D01*
X011538Y015496D01*
X011538Y015408D01*
X011544Y015509D02*
X007134Y015509D01*
X007134Y015463D02*
X007134Y016122D01*
X007113Y016143D01*
X007113Y016273D01*
X007138Y016298D01*
X007138Y017002D01*
X007223Y017002D01*
X007217Y016996D01*
X007138Y016805D01*
X007138Y016750D01*
X007609Y016750D01*
X007609Y016653D01*
X007138Y016653D01*
X007138Y016598D01*
X007217Y016407D01*
X007364Y016261D01*
X007555Y016182D01*
X007610Y016182D01*
X007610Y016653D01*
X007707Y016653D01*
X007707Y016750D01*
X008178Y016750D01*
X008178Y016805D01*
X008099Y016996D01*
X008093Y017002D01*
X008279Y017002D01*
X008251Y016974D01*
X008178Y016797D01*
X008178Y016606D01*
X008251Y016430D01*
X008386Y016295D01*
X008563Y016222D01*
X008742Y016222D01*
X008978Y015986D01*
X009142Y015822D01*
X012053Y015822D01*
X012053Y015129D01*
X012026Y015063D01*
X012026Y014941D01*
X012061Y014857D01*
X011514Y014857D01*
X011483Y014888D01*
X011402Y014922D01*
X011314Y014922D01*
X011233Y014888D01*
X011172Y014826D01*
X011138Y014746D01*
X011138Y014658D01*
X011172Y014577D01*
X011233Y014515D01*
X011314Y014482D01*
X011402Y014482D01*
X011483Y014515D01*
X011514Y014547D01*
X011584Y014547D01*
X011494Y014457D01*
X008122Y014457D01*
X007125Y015454D01*
X007134Y015463D01*
X007134Y015607D02*
X011602Y015607D01*
X011587Y015312D02*
X007268Y015312D01*
X007366Y015213D02*
X012053Y015213D01*
X012053Y015312D02*
X011929Y015312D01*
X011978Y015410D02*
X012053Y015410D01*
X012053Y015509D02*
X011973Y015509D01*
X011914Y015607D02*
X012053Y015607D01*
X012053Y015706D02*
X008374Y015706D01*
X008293Y015625D02*
X008023Y015625D01*
X007831Y015816D01*
X007831Y016087D01*
X008023Y016279D01*
X008293Y016279D01*
X008485Y016087D01*
X008485Y015816D01*
X008293Y015625D01*
X008473Y015804D02*
X012053Y015804D01*
X012017Y016382D02*
X012065Y016430D01*
X012138Y016606D01*
X012138Y016797D01*
X012065Y016974D01*
X012037Y017002D01*
X012279Y017002D01*
X012251Y016974D01*
X012178Y016797D01*
X012178Y016606D01*
X012251Y016430D01*
X012299Y016382D01*
X012217Y016382D01*
X012017Y016382D01*
X012031Y016396D02*
X012286Y016396D01*
X012225Y016494D02*
X012092Y016494D01*
X012132Y016593D02*
X012184Y016593D01*
X012178Y016691D02*
X012138Y016691D01*
X012138Y016790D02*
X012178Y016790D01*
X012216Y016888D02*
X012100Y016888D01*
X012052Y016987D02*
X012264Y016987D01*
X013037Y017002D02*
X013279Y017002D01*
X013251Y016974D01*
X013178Y016797D01*
X013178Y016606D01*
X013251Y016430D01*
X013299Y016382D01*
X013017Y016382D01*
X013065Y016430D01*
X013138Y016606D01*
X013138Y016797D01*
X013065Y016974D01*
X013037Y017002D01*
X013052Y016987D02*
X013264Y016987D01*
X013216Y016888D02*
X013100Y016888D01*
X013138Y016790D02*
X013178Y016790D01*
X013178Y016691D02*
X013138Y016691D01*
X013132Y016593D02*
X013184Y016593D01*
X013225Y016494D02*
X013092Y016494D01*
X013031Y016396D02*
X013286Y016396D01*
X014017Y016382D02*
X014065Y016430D01*
X014138Y016606D01*
X014138Y016797D01*
X014065Y016974D01*
X014037Y017002D01*
X014279Y017002D01*
X014251Y016974D01*
X014178Y016797D01*
X014178Y016606D01*
X014251Y016430D01*
X014299Y016382D01*
X014017Y016382D01*
X014031Y016396D02*
X014286Y016396D01*
X014225Y016494D02*
X014092Y016494D01*
X014132Y016593D02*
X014184Y016593D01*
X014178Y016691D02*
X014138Y016691D01*
X014138Y016790D02*
X014178Y016790D01*
X014216Y016888D02*
X014100Y016888D01*
X014052Y016987D02*
X014264Y016987D01*
X015037Y017002D02*
X015279Y017002D01*
X015251Y016974D01*
X015178Y016797D01*
X015178Y016606D01*
X015251Y016430D01*
X015359Y016322D01*
X015238Y016322D01*
X015138Y016222D01*
X015138Y016002D01*
X015458Y016002D01*
X015458Y015902D01*
X015183Y015902D01*
X015138Y015947D01*
X015138Y016206D01*
X015062Y016282D01*
X014898Y016282D01*
X014930Y016295D01*
X015065Y016430D01*
X015138Y016606D01*
X015138Y016797D01*
X015065Y016974D01*
X015037Y017002D01*
X015052Y016987D02*
X015264Y016987D01*
X015216Y016888D02*
X015100Y016888D01*
X015138Y016790D02*
X015178Y016790D01*
X015178Y016691D02*
X015138Y016691D01*
X015132Y016593D02*
X015184Y016593D01*
X015225Y016494D02*
X015092Y016494D01*
X015031Y016396D02*
X015286Y016396D01*
X015213Y016297D02*
X014932Y016297D01*
X015138Y016198D02*
X015138Y016198D01*
X015138Y016100D02*
X015138Y016100D01*
X015138Y016001D02*
X015458Y016001D01*
X015458Y015903D02*
X015182Y015903D01*
X015558Y015903D02*
X016058Y015903D01*
X016058Y015902D02*
X015878Y015902D01*
X015558Y015902D01*
X015558Y016002D01*
X015878Y016002D01*
X016058Y016002D01*
X016058Y016322D01*
X015957Y016322D01*
X016065Y016430D01*
X016138Y016606D01*
X016138Y016797D01*
X016065Y016974D01*
X016037Y017002D01*
X016279Y017002D01*
X016251Y016974D01*
X016178Y016797D01*
X016178Y016606D01*
X016251Y016430D01*
X016359Y016322D01*
X016158Y016322D01*
X016158Y016002D01*
X016058Y016002D01*
X016058Y015902D01*
X016158Y015902D01*
X016158Y016002D01*
X016338Y016002D01*
X016658Y016002D01*
X016658Y015902D01*
X016338Y015902D01*
X016158Y015902D01*
X016158Y015582D01*
X016379Y015582D01*
X016408Y015611D01*
X016438Y015582D01*
X016658Y015582D01*
X016658Y015902D01*
X016758Y015902D01*
X016758Y016002D01*
X017078Y016002D01*
X017258Y016002D01*
X017258Y016322D01*
X017038Y016322D01*
X017008Y016292D01*
X016979Y016322D01*
X016957Y016322D01*
X017065Y016430D01*
X017138Y016606D01*
X017138Y016797D01*
X017065Y016974D01*
X017037Y017002D01*
X017279Y017002D01*
X017251Y016974D01*
X017178Y016797D01*
X017178Y016606D01*
X017251Y016430D01*
X017359Y016322D01*
X017358Y016322D01*
X017358Y016002D01*
X017258Y016002D01*
X017258Y015902D01*
X017078Y015902D01*
X016758Y015902D01*
X016758Y015582D01*
X016979Y015582D01*
X017008Y015611D01*
X017038Y015582D01*
X017258Y015582D01*
X017258Y015902D01*
X017358Y015902D01*
X017358Y015582D01*
X017528Y015582D01*
X017054Y015582D01*
X017008Y015536D01*
X016962Y015582D01*
X016454Y015582D01*
X016408Y015536D01*
X016362Y015582D01*
X015854Y015582D01*
X015778Y015506D01*
X015778Y015318D01*
X015778Y015182D01*
X015670Y015182D01*
X015670Y015582D01*
X015779Y015582D01*
X015808Y015611D01*
X015838Y015582D01*
X016058Y015582D01*
X016058Y015902D01*
X016058Y015804D02*
X016158Y015804D01*
X016158Y015706D02*
X016058Y015706D01*
X016058Y015607D02*
X016158Y015607D01*
X016404Y015607D02*
X016412Y015607D01*
X016658Y015607D02*
X016758Y015607D01*
X016758Y015706D02*
X016658Y015706D01*
X016658Y015804D02*
X016758Y015804D01*
X016758Y015903D02*
X017258Y015903D01*
X017258Y016001D02*
X016758Y016001D01*
X016658Y016001D02*
X016158Y016001D01*
X016158Y015903D02*
X016658Y015903D01*
X017003Y016297D02*
X017013Y016297D01*
X017031Y016396D02*
X017286Y016396D01*
X017258Y016297D02*
X017358Y016297D01*
X017358Y016198D02*
X017258Y016198D01*
X017258Y016100D02*
X017358Y016100D01*
X017358Y015804D02*
X017258Y015804D01*
X017258Y015706D02*
X017358Y015706D01*
X017358Y015607D02*
X017258Y015607D01*
X017012Y015607D02*
X017004Y015607D01*
X017528Y015582D02*
X017528Y015582D01*
X017776Y015810D02*
X017776Y016092D01*
X017678Y016092D01*
X017678Y016222D01*
X017754Y016222D01*
X017930Y016295D01*
X018065Y016430D01*
X018138Y016606D01*
X018138Y016797D01*
X018065Y016974D01*
X018037Y017002D01*
X018279Y017002D01*
X018251Y016974D01*
X018178Y016797D01*
X018178Y016606D01*
X018251Y016430D01*
X018359Y016322D01*
X018308Y016322D01*
X018308Y016002D01*
X018208Y016002D01*
X018208Y016322D01*
X017988Y016322D01*
X017888Y016222D01*
X017888Y016092D01*
X017791Y016092D01*
X017791Y015810D01*
X017776Y015810D01*
X017776Y015903D02*
X017791Y015903D01*
X017791Y016001D02*
X017776Y016001D01*
X017678Y016100D02*
X017888Y016100D01*
X017888Y016198D02*
X017678Y016198D01*
X017932Y016297D02*
X017963Y016297D01*
X018031Y016396D02*
X018286Y016396D01*
X018308Y016297D02*
X018208Y016297D01*
X018208Y016198D02*
X018308Y016198D01*
X018308Y016100D02*
X018208Y016100D01*
X018308Y016002D02*
X018628Y016002D01*
X018628Y016222D01*
X018644Y016222D01*
X018628Y016206D01*
X018628Y015698D01*
X018678Y015648D01*
X018678Y015556D01*
X018628Y015506D01*
X018628Y014998D01*
X018654Y014972D01*
X018618Y014972D01*
X018628Y014981D01*
X018628Y015202D01*
X018308Y015202D01*
X018308Y015302D01*
X018208Y015302D01*
X018208Y015622D01*
X018208Y015902D01*
X018308Y015902D01*
X018308Y016002D01*
X018308Y016001D02*
X018628Y016001D01*
X018628Y015903D02*
X018308Y015903D01*
X018308Y015902D02*
X018628Y015902D01*
X018628Y015681D01*
X018548Y015602D01*
X018628Y015522D01*
X018628Y015302D01*
X018308Y015302D01*
X018308Y015622D01*
X018308Y015902D01*
X018308Y015804D02*
X018208Y015804D01*
X018208Y015706D02*
X018308Y015706D01*
X018308Y015607D02*
X018208Y015607D01*
X018208Y015509D02*
X018308Y015509D01*
X018308Y015410D02*
X018208Y015410D01*
X018208Y015312D02*
X018308Y015312D01*
X018308Y015213D02*
X018628Y015213D01*
X018628Y015114D02*
X018628Y015114D01*
X018628Y015016D02*
X018628Y015016D01*
X018878Y014922D02*
X018935Y014922D01*
X019080Y014777D01*
X019680Y014777D01*
X019730Y014727D01*
X019911Y014727D01*
X019888Y014671D01*
X019888Y014583D01*
X019922Y014502D01*
X019983Y014440D01*
X020064Y014407D01*
X020152Y014407D01*
X020233Y014440D01*
X020295Y014502D01*
X020328Y014583D01*
X020328Y014671D01*
X020298Y014743D01*
X020853Y014188D01*
X020853Y014188D01*
X020862Y014179D01*
X020838Y014121D01*
X020838Y014033D01*
X020872Y013952D01*
X020933Y013890D01*
X021014Y013857D01*
X021095Y013857D01*
X021097Y013852D01*
X021158Y013790D01*
X021239Y013757D01*
X021259Y013757D01*
X020944Y013757D01*
X020853Y013666D01*
X020553Y013366D01*
X020553Y013238D01*
X020553Y012366D01*
X020350Y012163D01*
X020345Y012176D01*
X020283Y012238D01*
X020202Y012272D01*
X020193Y012272D01*
X020158Y012307D01*
X020009Y012307D01*
X019303Y012307D01*
X019328Y012331D01*
X019328Y012552D01*
X019008Y012552D01*
X019008Y012652D01*
X018908Y012652D01*
X018908Y012972D01*
X018873Y012972D01*
X019212Y012972D01*
X019288Y013048D01*
X019288Y013556D01*
X019212Y013632D01*
X018872Y013632D01*
X018888Y013648D01*
X018888Y013672D01*
X018978Y013672D01*
X019108Y013802D01*
X019202Y013802D01*
X019222Y013822D01*
X019353Y013822D01*
X019504Y013972D01*
X019549Y013991D01*
X019619Y014061D01*
X019638Y014106D01*
X019638Y014107D01*
X019657Y014152D01*
X019657Y014251D01*
X019642Y014288D01*
X019649Y014291D01*
X019719Y014361D01*
X019757Y014452D01*
X019757Y014551D01*
X019719Y014643D01*
X019649Y014713D01*
X019558Y014751D01*
X019459Y014751D01*
X019367Y014713D01*
X019307Y014653D01*
X019219Y014742D01*
X019041Y014742D01*
X019041Y014460D01*
X019026Y014460D01*
X019026Y014742D01*
X018928Y014742D01*
X018928Y014872D01*
X018878Y014922D01*
X018883Y014917D02*
X018939Y014917D01*
X018928Y014819D02*
X019038Y014819D01*
X019026Y014720D02*
X019041Y014720D01*
X019041Y014622D02*
X019026Y014622D01*
X019026Y014523D02*
X019041Y014523D01*
X019240Y014720D02*
X019386Y014720D01*
X019631Y014720D02*
X019909Y014720D01*
X019888Y014622D02*
X019728Y014622D01*
X019757Y014523D02*
X019913Y014523D01*
X020021Y014425D02*
X019745Y014425D01*
X019684Y014326D02*
X020715Y014326D01*
X020813Y014228D02*
X019657Y014228D01*
X019647Y014129D02*
X020842Y014129D01*
X020839Y014031D02*
X020216Y014031D01*
X020177Y014047D02*
X020089Y014047D01*
X020008Y014013D01*
X019947Y013951D01*
X019913Y013871D01*
X019913Y013783D01*
X019947Y013702D01*
X020008Y013640D01*
X020089Y013607D01*
X020177Y013607D01*
X020258Y013640D01*
X020320Y013702D01*
X020353Y013783D01*
X020353Y013871D01*
X020320Y013951D01*
X020258Y014013D01*
X020177Y014047D01*
X020050Y014031D02*
X019588Y014031D01*
X019638Y014107D02*
X019638Y014107D01*
X019659Y013876D02*
X019567Y013838D01*
X019497Y013768D01*
X019459Y013676D01*
X019459Y013577D01*
X019497Y013486D01*
X019567Y013416D01*
X019659Y013378D01*
X019758Y013378D01*
X019849Y013416D01*
X019919Y013486D01*
X019957Y013577D01*
X019957Y013676D01*
X019919Y013768D01*
X019849Y013838D01*
X019758Y013876D01*
X019659Y013876D01*
X019563Y013833D02*
X019365Y013833D01*
X019463Y013932D02*
X019939Y013932D01*
X019913Y013833D02*
X019853Y013833D01*
X019933Y013735D02*
X019933Y013735D01*
X019957Y013636D02*
X020018Y013636D01*
X019940Y013538D02*
X020725Y013538D01*
X020823Y013636D02*
X020248Y013636D01*
X020333Y013735D02*
X020922Y013735D01*
X020892Y013932D02*
X020328Y013932D01*
X020353Y013833D02*
X021115Y013833D01*
X021259Y013757D02*
X021259Y013757D01*
X020626Y013439D02*
X019872Y013439D01*
X020033Y013188D02*
X019972Y013126D01*
X019938Y013046D01*
X019938Y012958D01*
X019972Y012877D01*
X020033Y012815D01*
X020114Y012782D01*
X020202Y012782D01*
X020283Y012815D01*
X020345Y012877D01*
X020378Y012958D01*
X020378Y013046D01*
X020345Y013126D01*
X020283Y013188D01*
X020202Y013222D01*
X020114Y013222D01*
X020033Y013188D01*
X019989Y013144D02*
X019288Y013144D01*
X019288Y013242D02*
X020553Y013242D01*
X020553Y013144D02*
X020327Y013144D01*
X020378Y013045D02*
X020553Y013045D01*
X020553Y012947D02*
X020373Y012947D01*
X020315Y012848D02*
X020553Y012848D01*
X020553Y012749D02*
X019328Y012749D01*
X019328Y012652D02*
X019328Y012872D01*
X019229Y012972D01*
X019008Y012972D01*
X019008Y012652D01*
X019328Y012652D01*
X019328Y012848D02*
X020001Y012848D01*
X019943Y012947D02*
X019254Y012947D01*
X019285Y013045D02*
X019938Y013045D01*
X020553Y012651D02*
X019008Y012651D01*
X019008Y012749D02*
X018908Y012749D01*
X018908Y012652D02*
X018908Y012552D01*
X018728Y012552D01*
X018408Y012552D01*
X018408Y012652D01*
X018308Y012652D01*
X018308Y012972D01*
X018088Y012972D01*
X018058Y012942D01*
X018029Y012972D01*
X017808Y012972D01*
X017808Y012652D01*
X017708Y012652D01*
X017708Y012927D01*
X017753Y012972D01*
X018012Y012972D01*
X018058Y013018D01*
X018104Y012972D01*
X018443Y012972D01*
X018443Y012972D01*
X018408Y012972D01*
X018408Y012652D01*
X018728Y012652D01*
X018908Y012652D01*
X018908Y012651D02*
X018408Y012651D01*
X018408Y012749D02*
X018308Y012749D01*
X018308Y012652D02*
X018308Y012552D01*
X017988Y012552D01*
X017808Y012552D01*
X017808Y012652D01*
X017988Y012652D01*
X018308Y012652D01*
X018308Y012651D02*
X017808Y012651D01*
X017808Y012749D02*
X017708Y012749D01*
X017708Y012848D02*
X017808Y012848D01*
X017808Y012947D02*
X017728Y012947D01*
X018054Y012947D02*
X018062Y012947D01*
X018308Y012947D02*
X018408Y012947D01*
X018408Y012848D02*
X018308Y012848D01*
X018308Y012552D02*
X017808Y012552D01*
X017808Y012232D01*
X018029Y012232D01*
X018058Y012261D01*
X018088Y012232D01*
X018308Y012232D01*
X018308Y012552D01*
X018408Y012552D01*
X018408Y012402D01*
X018318Y012312D01*
X018318Y012134D01*
X018600Y012134D01*
X018600Y012119D01*
X018318Y012119D01*
X018318Y011941D01*
X018328Y011932D01*
X018034Y011932D01*
X018033Y011932D01*
X017884Y011932D01*
X017783Y011932D01*
X017634Y011932D01*
X017354Y011932D01*
X017308Y011886D01*
X017262Y011932D01*
X017053Y011932D01*
X016863Y011932D01*
X016818Y011932D01*
X016818Y011956D01*
X016742Y012032D01*
X016442Y012032D01*
X016338Y012032D01*
X016338Y012047D01*
X016238Y012147D01*
X016103Y012282D01*
X015826Y012282D01*
X016366Y012822D01*
X016946Y012822D01*
X016901Y012713D01*
X016901Y012591D01*
X016948Y012478D01*
X017034Y012391D01*
X017147Y012345D01*
X017269Y012345D01*
X017382Y012391D01*
X017388Y012398D01*
X017388Y012331D01*
X017488Y012232D01*
X017708Y012232D01*
X017708Y012552D01*
X017808Y012552D01*
X017808Y012454D02*
X017708Y012454D01*
X017708Y012355D02*
X017808Y012355D01*
X017808Y012257D02*
X017708Y012257D01*
X017463Y012257D02*
X016128Y012257D01*
X016227Y012158D02*
X018318Y012158D01*
X018318Y012060D02*
X016326Y012060D01*
X016813Y011961D02*
X018318Y011961D01*
X018188Y011752D02*
X018288Y011652D01*
X018188Y011752D02*
X017958Y011752D01*
X017958Y011677D01*
X017958Y011752D02*
X017708Y011752D01*
X017608Y011652D01*
X017658Y011352D02*
X017608Y011302D01*
X017658Y011352D02*
X017958Y011352D01*
X018238Y011352D01*
X018288Y011302D01*
X018238Y011052D02*
X017958Y011052D01*
X017958Y011077D01*
X017958Y011052D02*
X017658Y011052D01*
X017608Y011002D01*
X017708Y010752D02*
X017608Y010652D01*
X017708Y010752D02*
X017958Y010752D01*
X017958Y010827D01*
X017958Y010752D02*
X018188Y010752D01*
X018288Y010652D01*
X017958Y010572D02*
X017958Y010448D01*
X018034Y010372D01*
X018542Y010372D01*
X018560Y010390D01*
X018618Y010332D01*
X018863Y010332D01*
X018863Y010627D01*
X018913Y010627D01*
X018913Y010677D01*
X018863Y010677D01*
X018863Y010732D01*
X018888Y010732D01*
X018888Y011001D01*
X018888Y011001D01*
X018888Y010732D01*
X018913Y010732D01*
X018913Y010677D01*
X019158Y010677D01*
X019108Y010627D01*
X018913Y010627D01*
X018913Y010332D01*
X019068Y010332D01*
X019068Y010272D01*
X019032Y010272D01*
X018997Y010307D01*
X016777Y010307D01*
X016818Y010348D01*
X016818Y010372D01*
X017053Y010372D01*
X017262Y010372D01*
X017308Y010418D01*
X017354Y010372D01*
X017862Y010372D01*
X017938Y010448D01*
X017938Y010572D01*
X017958Y010572D01*
X017958Y010483D02*
X017938Y010483D01*
X017874Y010384D02*
X018022Y010384D01*
X018554Y010384D02*
X018565Y010384D01*
X018863Y010384D02*
X018913Y010384D01*
X018913Y010483D02*
X018863Y010483D01*
X018863Y010581D02*
X018913Y010581D01*
X018913Y010680D02*
X018863Y010680D01*
X018888Y010779D02*
X018888Y010779D01*
X018888Y010877D02*
X018888Y010877D01*
X018888Y010976D02*
X018888Y010976D01*
X018889Y011002D02*
X018889Y011002D01*
X019258Y011002D01*
X019258Y011131D01*
X019258Y011302D01*
X019258Y011472D01*
X019258Y011627D01*
X018913Y011627D01*
X018913Y011572D01*
X018888Y011572D01*
X018863Y011572D01*
X018863Y011627D01*
X018913Y011627D01*
X018913Y011677D01*
X018863Y011677D01*
X018863Y011882D01*
X018913Y011882D01*
X018913Y011677D01*
X019258Y011677D01*
X019258Y011872D01*
X019215Y011915D01*
X019247Y011947D01*
X019964Y011947D01*
X019972Y011927D01*
X020033Y011865D01*
X020047Y011860D01*
X019874Y011687D01*
X019849Y011713D01*
X019758Y011751D01*
X019659Y011751D01*
X019567Y011713D01*
X019497Y011643D01*
X019459Y011551D01*
X019459Y011472D01*
X019374Y011386D01*
X019374Y011229D01*
X019374Y011217D01*
X019355Y011199D01*
X019355Y010540D01*
X019366Y010529D01*
X019366Y010410D01*
X019351Y010410D01*
X019351Y010687D01*
X019258Y010687D01*
X019258Y010831D01*
X019258Y011002D01*
X018889Y011002D01*
X018888Y011002D02*
X018888Y011002D01*
X018888Y011032D01*
X018888Y011301D01*
X018888Y011301D01*
X018888Y011032D01*
X018888Y011002D01*
X018888Y011074D02*
X018888Y011074D01*
X018888Y011173D02*
X018888Y011173D01*
X018888Y011271D02*
X018888Y011271D01*
X018889Y011302D02*
X018889Y011302D01*
X019258Y011302D01*
X018889Y011302D01*
X018888Y011302D02*
X018888Y011302D01*
X018888Y011572D01*
X018888Y011302D01*
X018888Y011370D02*
X018888Y011370D01*
X018888Y011468D02*
X018888Y011468D01*
X018888Y011567D02*
X018888Y011567D01*
X018913Y011665D02*
X019520Y011665D01*
X019466Y011567D02*
X019258Y011567D01*
X019258Y011468D02*
X019456Y011468D01*
X019374Y011370D02*
X019258Y011370D01*
X019258Y011271D02*
X019374Y011271D01*
X019355Y011173D02*
X019258Y011173D01*
X019258Y011074D02*
X019355Y011074D01*
X019355Y010976D02*
X019258Y010976D01*
X019258Y010877D02*
X019355Y010877D01*
X019355Y010779D02*
X019258Y010779D01*
X019351Y010680D02*
X019355Y010680D01*
X019351Y010581D02*
X019355Y010581D01*
X019351Y010483D02*
X019366Y010483D01*
X019350Y010409D02*
X019236Y010409D01*
X019221Y010394D01*
X019350Y010394D01*
X019350Y010409D01*
X019068Y010286D02*
X019018Y010286D01*
X018288Y011002D02*
X018238Y011052D01*
X017958Y011352D02*
X017958Y011427D01*
X018863Y011764D02*
X018913Y011764D01*
X018913Y011863D02*
X018863Y011863D01*
X018758Y012119D02*
X018616Y012119D01*
X018616Y012134D01*
X018758Y012134D01*
X018758Y012119D01*
X019008Y012127D02*
X020083Y012127D01*
X020158Y012052D01*
X020238Y012257D02*
X020444Y012257D01*
X020542Y012355D02*
X019328Y012355D01*
X019328Y012454D02*
X020553Y012454D01*
X020553Y012552D02*
X019008Y012552D01*
X018908Y012552D02*
X018408Y012552D01*
X018408Y012454D02*
X018308Y012454D01*
X018308Y012355D02*
X018361Y012355D01*
X018318Y012257D02*
X018308Y012257D01*
X018063Y012257D02*
X018053Y012257D01*
X017388Y012355D02*
X017295Y012355D01*
X017121Y012355D02*
X015900Y012355D01*
X015998Y012454D02*
X016972Y012454D01*
X016917Y012552D02*
X016097Y012552D01*
X016195Y012651D02*
X016901Y012651D01*
X016916Y012749D02*
X016294Y012749D01*
X015713Y013045D02*
X015471Y013045D01*
X015471Y012947D02*
X015614Y012947D01*
X015516Y012848D02*
X015437Y012848D01*
X015417Y012827D02*
X015471Y012881D01*
X015471Y013352D01*
X015001Y013352D01*
X015001Y013452D01*
X015471Y013452D01*
X015471Y013922D01*
X015371Y014022D01*
X015275Y014022D01*
X015277Y014024D01*
X015594Y014024D01*
X015670Y014100D01*
X015670Y014622D01*
X015728Y014622D01*
X015728Y014439D01*
X015728Y014165D01*
X015828Y014065D01*
X016185Y013708D01*
X016185Y013517D01*
X015441Y012773D01*
X015418Y012826D01*
X015417Y012827D01*
X014880Y012782D02*
X014851Y012713D01*
X014851Y012591D01*
X014860Y012570D01*
X014783Y012538D01*
X014722Y012476D01*
X014688Y012396D01*
X014688Y012382D01*
X014678Y012382D01*
X014678Y012383D01*
X014678Y012471D01*
X014645Y012551D01*
X014583Y012613D01*
X014502Y012647D01*
X014414Y012647D01*
X014333Y012613D01*
X014272Y012551D01*
X014238Y012471D01*
X014238Y012383D01*
X014243Y012372D01*
X014197Y012326D01*
X014163Y012246D01*
X014163Y012158D01*
X014197Y012077D01*
X014258Y012015D01*
X014339Y011982D01*
X014427Y011982D01*
X014428Y011982D01*
X014428Y011941D01*
X014294Y011807D01*
X013757Y011807D01*
X013778Y011858D01*
X013778Y011946D01*
X013745Y012026D01*
X013683Y012088D01*
X013602Y012122D01*
X013563Y012122D01*
X013563Y012766D01*
X013547Y012782D01*
X013758Y012782D01*
X013758Y013102D01*
X013438Y013102D01*
X013438Y012891D01*
X013413Y012916D01*
X013413Y013783D01*
X013438Y013773D01*
X013478Y013773D01*
X013478Y013598D01*
X013554Y013522D01*
X014062Y013522D01*
X014138Y013598D01*
X014138Y013897D01*
X014202Y013897D01*
X014233Y013865D01*
X014314Y013832D01*
X014402Y013832D01*
X014431Y013844D01*
X014431Y013452D01*
X014901Y013452D01*
X014901Y013352D01*
X014431Y013352D01*
X014431Y012881D01*
X014531Y012782D01*
X014880Y012782D01*
X014866Y012749D02*
X013563Y012749D01*
X013563Y012651D02*
X014851Y012651D01*
X014817Y012552D02*
X014644Y012552D01*
X014678Y012454D02*
X014712Y012454D01*
X014908Y012352D02*
X014908Y012202D01*
X014758Y012052D01*
X014792Y011722D02*
X014647Y011722D01*
X014458Y011533D01*
X014458Y011252D01*
X014558Y011252D01*
X014558Y011572D01*
X014738Y011572D01*
X014738Y011621D01*
X014772Y011701D01*
X014792Y011722D01*
X014757Y011665D02*
X014591Y011665D01*
X014558Y011567D02*
X014492Y011567D01*
X014458Y011468D02*
X014558Y011468D01*
X014558Y011370D02*
X014458Y011370D01*
X014458Y011271D02*
X014558Y011271D01*
X014558Y011252D02*
X014878Y011252D01*
X014878Y011372D01*
X014914Y011357D01*
X014978Y011357D01*
X014978Y011048D01*
X015054Y010972D01*
X015488Y010972D01*
X015488Y010932D01*
X015054Y010932D01*
X014978Y010856D01*
X014978Y010732D01*
X014838Y010732D01*
X014838Y010756D01*
X014762Y010832D01*
X014313Y010832D01*
X014458Y010832D01*
X014458Y011152D01*
X014138Y011152D01*
X014138Y010972D01*
X014128Y010972D01*
X014128Y011152D01*
X013808Y011152D01*
X013808Y011252D01*
X014128Y011252D01*
X014128Y011472D01*
X014103Y011497D01*
X014163Y011497D01*
X014138Y011472D01*
X014138Y011252D01*
X014458Y011252D01*
X014458Y011152D01*
X014558Y011152D01*
X014558Y011252D01*
X014558Y011173D02*
X014978Y011173D01*
X014978Y011271D02*
X014878Y011271D01*
X014878Y011370D02*
X014883Y011370D01*
X014878Y011152D02*
X014558Y011152D01*
X014558Y010832D01*
X014779Y010832D01*
X014878Y010931D01*
X014878Y011152D01*
X014878Y011074D02*
X014978Y011074D01*
X015050Y010976D02*
X014878Y010976D01*
X014824Y010877D02*
X015000Y010877D01*
X014978Y010779D02*
X014815Y010779D01*
X014558Y010877D02*
X014458Y010877D01*
X014458Y010976D02*
X014558Y010976D01*
X014558Y011074D02*
X014458Y011074D01*
X014458Y011173D02*
X013808Y011173D01*
X013808Y011152D02*
X013808Y010832D01*
X013903Y010832D01*
X013647Y010832D01*
X013708Y010832D01*
X013708Y011152D01*
X013808Y011152D01*
X013808Y011074D02*
X013708Y011074D01*
X013708Y010976D02*
X013808Y010976D01*
X013808Y010877D02*
X013708Y010877D01*
X013647Y010832D02*
X013647Y010832D01*
X013903Y010832D02*
X013903Y010832D01*
X014128Y010976D02*
X014138Y010976D01*
X014128Y011074D02*
X014138Y011074D01*
X014128Y011271D02*
X014138Y011271D01*
X014128Y011370D02*
X014138Y011370D01*
X014128Y011468D02*
X014138Y011468D01*
X014350Y011863D02*
X013778Y011863D01*
X013772Y011961D02*
X014428Y011961D01*
X014214Y012060D02*
X013711Y012060D01*
X013563Y012158D02*
X014163Y012158D01*
X014168Y012257D02*
X013563Y012257D01*
X013563Y012355D02*
X014225Y012355D01*
X014238Y012454D02*
X013563Y012454D01*
X013563Y012552D02*
X014272Y012552D01*
X014079Y012782D02*
X013858Y012782D01*
X013858Y013102D01*
X013858Y013202D01*
X013758Y013202D01*
X013758Y013522D01*
X013538Y013522D01*
X013438Y013422D01*
X013438Y013202D01*
X013758Y013202D01*
X013758Y013102D01*
X013858Y013102D01*
X014178Y013102D01*
X014178Y012881D01*
X014079Y012782D01*
X014145Y012848D02*
X014464Y012848D01*
X014431Y012947D02*
X014178Y012947D01*
X014178Y013045D02*
X014431Y013045D01*
X014431Y013144D02*
X013858Y013144D01*
X013858Y013202D02*
X014178Y013202D01*
X014178Y013422D01*
X014079Y013522D01*
X013858Y013522D01*
X013858Y013202D01*
X013858Y013242D02*
X013758Y013242D01*
X013758Y013144D02*
X013413Y013144D01*
X013413Y013242D02*
X013438Y013242D01*
X013438Y013341D02*
X013413Y013341D01*
X013413Y013439D02*
X013455Y013439D01*
X013413Y013538D02*
X013538Y013538D01*
X013478Y013636D02*
X013413Y013636D01*
X013413Y013735D02*
X013478Y013735D01*
X013483Y014002D02*
X013658Y014002D01*
X013808Y013852D01*
X014138Y013833D02*
X014311Y013833D01*
X014406Y013833D02*
X014431Y013833D01*
X014431Y013735D02*
X014138Y013735D01*
X014138Y013636D02*
X014431Y013636D01*
X014431Y013538D02*
X014078Y013538D01*
X014161Y013439D02*
X014901Y013439D01*
X015001Y013439D02*
X016107Y013439D01*
X016185Y013538D02*
X015471Y013538D01*
X015471Y013636D02*
X016185Y013636D01*
X016158Y013735D02*
X015471Y013735D01*
X015471Y013833D02*
X016060Y013833D01*
X015961Y013932D02*
X015461Y013932D01*
X015601Y014031D02*
X015863Y014031D01*
X015764Y014129D02*
X015670Y014129D01*
X015670Y014228D02*
X015728Y014228D01*
X015728Y014326D02*
X015670Y014326D01*
X015670Y014425D02*
X015728Y014425D01*
X015728Y014523D02*
X015670Y014523D01*
X015670Y014622D02*
X015728Y014622D01*
X016388Y014622D02*
X016708Y014622D01*
X016708Y014652D02*
X016708Y014552D01*
X016388Y014552D01*
X016388Y014438D01*
X016388Y014439D01*
X016388Y014739D01*
X016388Y014856D01*
X016338Y014906D01*
X016338Y014922D01*
X016362Y014922D01*
X016408Y014968D01*
X016446Y014930D01*
X016388Y014872D01*
X016388Y014652D01*
X016708Y014652D01*
X016808Y014652D02*
X016988Y014652D01*
X017308Y014652D01*
X017308Y014552D01*
X016988Y014552D01*
X016808Y014552D01*
X016808Y014652D01*
X016808Y014622D02*
X017308Y014622D01*
X017308Y014552D02*
X017308Y014277D01*
X017338Y014247D01*
X017353Y014232D01*
X017612Y014232D01*
X017658Y014186D01*
X017704Y014232D01*
X017722Y014232D01*
X017722Y014232D01*
X017688Y014232D01*
X017658Y014261D01*
X017629Y014232D01*
X017408Y014232D01*
X017408Y014552D01*
X017408Y014652D01*
X017588Y014652D01*
X017908Y014652D01*
X017908Y014552D01*
X017588Y014552D01*
X017408Y014552D01*
X017308Y014552D01*
X017308Y014523D02*
X017408Y014523D01*
X017408Y014425D02*
X017308Y014425D01*
X017308Y014326D02*
X017408Y014326D01*
X017616Y014228D02*
X017700Y014228D01*
X017908Y014622D02*
X017408Y014622D01*
X018008Y014622D02*
X018508Y014622D01*
X018508Y014652D02*
X018508Y014552D01*
X018328Y014552D01*
X018008Y014552D01*
X018008Y014652D01*
X018328Y014652D01*
X018508Y014652D01*
X018508Y014552D02*
X018608Y014552D01*
X018608Y014232D01*
X018778Y014232D01*
X018304Y014232D01*
X018258Y014186D01*
X018212Y014232D01*
X018194Y014232D01*
X018229Y014232D01*
X018258Y014261D01*
X018288Y014232D01*
X018508Y014232D01*
X018508Y014552D01*
X018508Y014523D02*
X018608Y014523D01*
X018608Y014425D02*
X018508Y014425D01*
X018508Y014326D02*
X018608Y014326D01*
X018778Y014232D02*
X018778Y014232D01*
X018300Y014228D02*
X018216Y014228D01*
X018194Y014232D02*
X018194Y014232D01*
X018876Y013636D02*
X019459Y013636D01*
X019476Y013538D02*
X019288Y013538D01*
X019288Y013439D02*
X019544Y013439D01*
X019288Y013341D02*
X020553Y013341D01*
X019484Y013735D02*
X019041Y013735D01*
X018873Y012972D02*
X018873Y012972D01*
X018908Y012947D02*
X019008Y012947D01*
X019008Y012848D02*
X018908Y012848D01*
X019258Y011863D02*
X020040Y011863D01*
X019951Y011764D02*
X019258Y011764D01*
X017342Y010384D02*
X017274Y010384D01*
X020037Y009402D02*
X020647Y009402D01*
X020638Y009405D01*
X020577Y009467D01*
X020550Y009532D01*
X020539Y009532D01*
X020458Y009565D01*
X020397Y009627D01*
X020388Y009648D01*
X020380Y009627D01*
X020318Y009565D01*
X020237Y009532D01*
X020149Y009532D01*
X020113Y009547D01*
X020065Y009430D01*
X020037Y009402D01*
X020093Y009498D02*
X020564Y009498D01*
X020428Y009596D02*
X020348Y009596D01*
X020308Y009477D02*
X020383Y009402D01*
X021108Y009402D01*
X021258Y009552D01*
X021208Y009602D02*
X021208Y009922D01*
X021178Y009922D01*
X021178Y009922D01*
X021512Y009922D01*
X021558Y009968D01*
X021604Y009922D01*
X022112Y009922D01*
X022188Y009998D01*
X022188Y010464D01*
X022228Y010464D01*
X022228Y010191D01*
X022218Y010181D01*
X022218Y009862D01*
X022144Y009862D01*
X022063Y009828D01*
X022008Y009773D01*
X021973Y009808D01*
X021892Y009842D01*
X021804Y009842D01*
X021723Y009808D01*
X021681Y009766D01*
X021667Y009772D01*
X021628Y009772D01*
X021628Y009822D01*
X021529Y009922D01*
X021308Y009922D01*
X021308Y009602D01*
X021208Y009602D01*
X021208Y009695D02*
X021308Y009695D01*
X021308Y009793D02*
X021208Y009793D01*
X021208Y009892D02*
X021308Y009892D01*
X021559Y009892D02*
X022218Y009892D01*
X022218Y009990D02*
X022180Y009990D01*
X022188Y010089D02*
X022218Y010089D01*
X022225Y010187D02*
X022188Y010187D01*
X022188Y010286D02*
X022228Y010286D01*
X022228Y010384D02*
X022188Y010384D01*
X022888Y010207D02*
X022888Y009998D01*
X022812Y009922D01*
X022759Y009922D01*
X022805Y009876D01*
X022838Y009796D01*
X022838Y009767D01*
X022838Y009767D01*
X022838Y009776D01*
X022872Y009856D01*
X022898Y009883D01*
X022898Y009989D01*
X023175Y009989D01*
X023175Y010004D01*
X022898Y010004D01*
X022898Y010187D01*
X022918Y010207D01*
X022888Y010207D01*
X022888Y010187D02*
X022898Y010187D01*
X022888Y010089D02*
X022898Y010089D01*
X022880Y009990D02*
X023175Y009990D01*
X022898Y009892D02*
X022789Y009892D01*
X022838Y009793D02*
X022845Y009793D01*
X022028Y009793D02*
X021988Y009793D01*
X021708Y009793D02*
X021628Y009793D01*
X021258Y010252D02*
X021158Y010152D01*
X021008Y010152D01*
X023443Y010212D02*
X023481Y010212D01*
X023929Y010212D01*
X023984Y010157D01*
X024328Y010157D01*
X024353Y010132D01*
X024104Y010132D01*
X024028Y010056D01*
X024028Y009741D01*
X024028Y009740D01*
X024028Y009752D01*
X023708Y009752D01*
X023708Y009852D01*
X023608Y009852D01*
X023608Y010172D01*
X023468Y010172D01*
X023468Y010187D01*
X023443Y010212D01*
X023468Y010187D02*
X023954Y010187D01*
X023929Y010172D02*
X023708Y010172D01*
X023708Y009852D01*
X024028Y009852D01*
X024028Y010072D01*
X023929Y010172D01*
X024033Y010177D02*
X025108Y010177D01*
X026808Y010177D01*
X027158Y010177D01*
X028158Y010177D01*
X028151Y010187D02*
X028166Y010187D01*
X028166Y010117D02*
X028349Y010117D01*
X028448Y010216D01*
X028448Y010394D01*
X028166Y010394D01*
X028166Y010409D01*
X028448Y010409D01*
X028448Y010572D01*
X028912Y010572D01*
X028988Y010648D01*
X028988Y010672D01*
X029028Y010672D01*
X029028Y010648D01*
X029104Y010572D01*
X029242Y010572D01*
X029222Y010551D01*
X029188Y010471D01*
X029188Y010383D01*
X029222Y010302D01*
X029283Y010240D01*
X029364Y010207D01*
X029452Y010207D01*
X029533Y010240D01*
X029571Y010278D01*
X029645Y010204D01*
X029698Y010182D01*
X029563Y010182D01*
X029386Y010109D01*
X029251Y009974D01*
X029178Y009797D01*
X029178Y009606D01*
X029251Y009430D01*
X029279Y009402D01*
X029037Y009402D01*
X029065Y009430D01*
X029138Y009606D01*
X029138Y009797D01*
X029065Y009974D01*
X028930Y010109D01*
X028754Y010182D01*
X028563Y010182D01*
X028386Y010109D01*
X028251Y009974D01*
X028178Y009797D01*
X028178Y009606D01*
X028251Y009430D01*
X028279Y009402D01*
X028037Y009402D01*
X028065Y009430D01*
X028138Y009606D01*
X028138Y009797D01*
X028065Y009974D01*
X027930Y010109D01*
X027814Y010157D01*
X027928Y010157D01*
X027968Y010117D01*
X028151Y010117D01*
X028151Y010394D01*
X028166Y010394D01*
X028166Y010117D01*
X028268Y009990D02*
X028049Y009990D01*
X028099Y009892D02*
X028217Y009892D01*
X028178Y009793D02*
X028138Y009793D01*
X028138Y009695D02*
X028178Y009695D01*
X028182Y009596D02*
X028134Y009596D01*
X028093Y009498D02*
X028223Y009498D01*
X029093Y009498D02*
X029223Y009498D01*
X029182Y009596D02*
X029134Y009596D01*
X029138Y009695D02*
X029178Y009695D01*
X029178Y009793D02*
X029138Y009793D01*
X029099Y009892D02*
X029217Y009892D01*
X029268Y009990D02*
X029049Y009990D01*
X028950Y010089D02*
X029366Y010089D01*
X029238Y010286D02*
X028448Y010286D01*
X028448Y010384D02*
X029188Y010384D01*
X029193Y010483D02*
X028448Y010483D01*
X028328Y010687D02*
X028166Y010687D01*
X028166Y010410D01*
X028151Y010410D01*
X028151Y010687D01*
X027968Y010687D01*
X027961Y010680D01*
X027961Y011199D01*
X027943Y011217D01*
X027943Y011268D01*
X028048Y011373D01*
X028048Y011390D01*
X028069Y011411D01*
X028107Y011502D01*
X028107Y011601D01*
X028069Y011693D01*
X027999Y011763D01*
X027908Y011801D01*
X027809Y011801D01*
X027717Y011763D01*
X027672Y011718D01*
X027602Y011747D01*
X027514Y011747D01*
X027433Y011713D01*
X027372Y011651D01*
X027338Y011571D01*
X027338Y011483D01*
X027349Y011457D01*
X027322Y011457D01*
X027263Y011516D01*
X027263Y011872D01*
X027308Y011890D01*
X027370Y011952D01*
X027403Y012033D01*
X027403Y012034D01*
X027497Y011995D01*
X027619Y011995D01*
X027732Y012041D01*
X027818Y012128D01*
X027865Y012241D01*
X027865Y012284D01*
X027938Y012357D01*
X027938Y013447D01*
X027803Y013582D01*
X027788Y013597D01*
X027894Y013597D01*
X028044Y013447D01*
X028172Y013447D01*
X029542Y013447D01*
X029564Y013393D01*
X029645Y013312D01*
X029751Y013268D01*
X029865Y013268D01*
X029971Y013312D01*
X030052Y013393D01*
X030074Y013447D01*
X030544Y013447D01*
X030672Y013447D01*
X030727Y013502D01*
X030858Y013502D01*
X030858Y013402D01*
X030538Y013402D01*
X030538Y013181D01*
X030553Y013166D01*
X030544Y013157D01*
X030453Y013066D01*
X030453Y012116D01*
X030291Y011954D01*
X030303Y011983D01*
X030303Y012071D01*
X030270Y012151D01*
X030208Y012213D01*
X030127Y012247D01*
X030039Y012247D01*
X029958Y012213D01*
X029897Y012151D01*
X029863Y012071D01*
X029863Y011983D01*
X029897Y011902D01*
X029958Y011840D01*
X030039Y011807D01*
X030127Y011807D01*
X030156Y011819D01*
X030128Y011791D01*
X030128Y011663D01*
X030128Y011432D01*
X030083Y011413D01*
X030022Y011351D01*
X030021Y011350D01*
X029971Y011400D01*
X029865Y011444D01*
X029751Y011444D01*
X029645Y011400D01*
X029564Y011319D01*
X029528Y011232D01*
X029104Y011232D01*
X029028Y011156D01*
X029028Y011132D01*
X028988Y011132D01*
X028988Y011156D01*
X028912Y011232D01*
X028588Y011232D01*
X028588Y011371D01*
X028620Y011402D01*
X028653Y011483D01*
X028653Y011571D01*
X028620Y011651D01*
X028558Y011713D01*
X028477Y011747D01*
X028389Y011747D01*
X028308Y011713D01*
X028247Y011651D01*
X028213Y011571D01*
X028213Y011483D01*
X028247Y011402D01*
X028278Y011371D01*
X028278Y011191D01*
X028278Y011063D01*
X028328Y011013D01*
X028328Y010687D01*
X028328Y010779D02*
X027961Y010779D01*
X027961Y010877D02*
X028328Y010877D01*
X028328Y010976D02*
X027961Y010976D01*
X027961Y011074D02*
X028278Y011074D01*
X028278Y011173D02*
X027961Y011173D01*
X027946Y011271D02*
X028278Y011271D01*
X028278Y011370D02*
X028045Y011370D01*
X028093Y011468D02*
X028219Y011468D01*
X028213Y011567D02*
X028107Y011567D01*
X028080Y011665D02*
X028261Y011665D01*
X028158Y011802D02*
X027558Y011802D01*
X027283Y011527D01*
X027263Y011567D02*
X027338Y011567D01*
X027344Y011468D02*
X027311Y011468D01*
X027263Y011665D02*
X027386Y011665D01*
X027263Y011764D02*
X027720Y011764D01*
X027996Y011764D02*
X030128Y011764D01*
X030128Y011665D02*
X028606Y011665D01*
X028653Y011567D02*
X030128Y011567D01*
X030128Y011468D02*
X028647Y011468D01*
X028588Y011370D02*
X029615Y011370D01*
X029544Y011271D02*
X028588Y011271D01*
X028971Y011173D02*
X029045Y011173D01*
X029358Y010902D02*
X029408Y010852D01*
X030058Y010852D01*
X030158Y010952D01*
X030258Y010952D01*
X030040Y011370D02*
X030001Y011370D01*
X029936Y011863D02*
X027263Y011863D01*
X027373Y011961D02*
X028520Y011961D01*
X028536Y011945D02*
X028713Y011872D01*
X028904Y011872D01*
X029080Y011945D01*
X029215Y012080D01*
X029288Y012256D01*
X029288Y012447D01*
X029215Y012624D01*
X029080Y012759D01*
X028904Y012832D01*
X028713Y012832D01*
X028536Y012759D01*
X028401Y012624D01*
X028328Y012447D01*
X028328Y012256D01*
X028401Y012080D01*
X028536Y011945D01*
X028421Y012060D02*
X027750Y012060D01*
X027831Y012158D02*
X028369Y012158D01*
X028328Y012257D02*
X027865Y012257D01*
X027937Y012355D02*
X028328Y012355D01*
X028331Y012454D02*
X027938Y012454D01*
X027938Y012552D02*
X028372Y012552D01*
X028428Y012651D02*
X027938Y012651D01*
X027938Y012749D02*
X028527Y012749D01*
X029089Y012749D02*
X029537Y012749D01*
X029520Y012790D02*
X029564Y012685D01*
X029645Y012604D01*
X029751Y012560D01*
X029865Y012560D01*
X029971Y012604D01*
X030052Y012685D01*
X030096Y012790D01*
X030096Y012905D01*
X030052Y013011D01*
X029971Y013091D01*
X029865Y013135D01*
X029751Y013135D01*
X029645Y013091D01*
X029564Y013011D01*
X029520Y012905D01*
X029520Y012790D01*
X029520Y012848D02*
X027938Y012848D01*
X027938Y012947D02*
X029538Y012947D01*
X029599Y013045D02*
X027938Y013045D01*
X027938Y013144D02*
X030531Y013144D01*
X030538Y013242D02*
X027938Y013242D01*
X027938Y013341D02*
X029617Y013341D01*
X029545Y013439D02*
X027938Y013439D01*
X027953Y013538D02*
X027847Y013538D01*
X029188Y012651D02*
X029598Y012651D01*
X029245Y012552D02*
X030453Y012552D01*
X030453Y012454D02*
X029285Y012454D01*
X029288Y012355D02*
X030453Y012355D01*
X030453Y012257D02*
X029288Y012257D01*
X029247Y012158D02*
X029903Y012158D01*
X029863Y012060D02*
X029195Y012060D01*
X029096Y011961D02*
X029872Y011961D01*
X030294Y011961D02*
X030298Y011961D01*
X030303Y012060D02*
X030397Y012060D01*
X030453Y012158D02*
X030263Y012158D01*
X030453Y012651D02*
X030018Y012651D01*
X030079Y012749D02*
X030453Y012749D01*
X030453Y012848D02*
X030096Y012848D01*
X030079Y012947D02*
X030453Y012947D01*
X030453Y013045D02*
X030018Y013045D01*
X030000Y013341D02*
X030538Y013341D01*
X030858Y013439D02*
X030071Y013439D01*
X030958Y013439D02*
X031458Y013439D01*
X031458Y013402D02*
X031138Y013402D01*
X030958Y013402D01*
X030958Y013502D01*
X031138Y013502D01*
X031458Y013502D01*
X031458Y013402D01*
X031558Y013402D02*
X031811Y013402D01*
X031822Y013426D01*
X031883Y013488D01*
X031964Y013522D01*
X032052Y013522D01*
X032133Y013488D01*
X032195Y013426D01*
X032228Y013346D01*
X032228Y013258D01*
X032228Y013257D01*
X032244Y013257D01*
X032344Y013357D01*
X032472Y013357D01*
X032572Y013357D01*
X032482Y013447D01*
X032440Y013547D01*
X031878Y013547D01*
X031878Y013502D01*
X031558Y013502D01*
X031558Y013402D01*
X031558Y013439D02*
X031834Y013439D01*
X031878Y013538D02*
X032444Y013538D01*
X032489Y013439D02*
X032182Y013439D01*
X032228Y013341D02*
X032328Y013341D01*
X031344Y012422D02*
X031254Y012422D01*
X031208Y012468D01*
X031162Y012422D01*
X031072Y012422D01*
X031072Y011874D01*
X030996Y011798D01*
X030823Y011798D01*
X030822Y011797D01*
X030722Y011797D01*
X030538Y011613D01*
X030538Y011541D01*
X030613Y011466D01*
X030613Y011447D01*
X030672Y011506D01*
X030989Y011506D01*
X031029Y011546D01*
X031204Y011546D01*
X031204Y011144D01*
X031212Y011144D01*
X031212Y011546D01*
X031387Y011546D01*
X031427Y011506D01*
X031744Y011506D01*
X031820Y011430D01*
X031820Y011282D01*
X031854Y011282D01*
X031904Y011332D01*
X032612Y011332D01*
X032628Y011316D01*
X032628Y011356D01*
X032694Y011422D01*
X032662Y011422D01*
X032612Y011372D01*
X031904Y011372D01*
X031828Y011448D01*
X031828Y012011D01*
X031820Y012019D01*
X031820Y011874D01*
X031744Y011798D01*
X031420Y011798D01*
X031344Y011874D01*
X031344Y012422D01*
X031344Y012355D02*
X031072Y012355D01*
X031072Y012257D02*
X031344Y012257D01*
X031344Y012158D02*
X031072Y012158D01*
X031072Y012060D02*
X031344Y012060D01*
X031344Y011961D02*
X031072Y011961D01*
X031061Y011863D02*
X031355Y011863D01*
X031212Y011468D02*
X031204Y011468D01*
X031204Y011370D02*
X031212Y011370D01*
X031204Y011271D02*
X031212Y011271D01*
X031204Y011173D02*
X031212Y011173D01*
X031088Y010734D02*
X031088Y010307D01*
X031088Y010307D01*
X031088Y010502D01*
X031408Y010502D01*
X031408Y010602D01*
X031088Y010602D01*
X031088Y010734D01*
X031088Y010734D01*
X031088Y010680D02*
X031088Y010680D01*
X031088Y010581D02*
X031408Y010581D01*
X031508Y010581D02*
X031895Y010581D01*
X031904Y010572D02*
X032588Y010572D01*
X032588Y010452D01*
X032908Y010452D01*
X032908Y010772D01*
X032688Y010772D01*
X032688Y010788D01*
X032704Y010772D01*
X033212Y010772D01*
X033304Y010772D01*
X033812Y010772D01*
X033888Y010848D01*
X033888Y011222D01*
X034062Y011222D01*
X034138Y011298D01*
X034138Y012106D01*
X034135Y012109D01*
X034163Y012138D01*
X034313Y012288D01*
X034313Y012416D01*
X034313Y013047D01*
X035084Y013047D01*
X034950Y012913D01*
X034862Y012702D01*
X034862Y012474D01*
X034950Y012264D01*
X035111Y012102D01*
X035321Y012015D01*
X035549Y012015D01*
X035760Y012102D01*
X035921Y012264D01*
X035958Y012353D01*
X035958Y010614D01*
X035793Y010779D01*
X035554Y010779D01*
X035554Y011128D01*
X035478Y011204D01*
X035351Y011204D01*
X035405Y011226D01*
X035527Y011349D01*
X035594Y011509D01*
X035594Y011557D01*
X035197Y011557D01*
X035197Y011634D01*
X035594Y011634D01*
X035594Y011682D01*
X035527Y011842D01*
X035405Y011965D01*
X035245Y012031D01*
X035197Y012031D01*
X035197Y011634D01*
X035119Y011634D01*
X035119Y011557D01*
X034722Y011557D01*
X034722Y011509D01*
X034725Y011502D01*
X034558Y011502D01*
X034558Y011602D01*
X034458Y011602D01*
X034458Y011922D01*
X034238Y011922D01*
X034138Y011822D01*
X034138Y011602D01*
X034458Y011602D01*
X034458Y011502D01*
X034138Y011502D01*
X034138Y011281D01*
X034238Y011182D01*
X034458Y011182D01*
X034458Y011502D01*
X034558Y011502D01*
X034558Y011182D01*
X034779Y011182D01*
X034867Y011270D01*
X034911Y011226D01*
X034965Y011204D01*
X034839Y011204D01*
X034789Y011155D01*
X034762Y011182D01*
X034254Y011182D01*
X034178Y011106D01*
X034178Y010598D01*
X034254Y010522D01*
X034360Y010522D01*
X034329Y010447D01*
X034329Y010356D01*
X034364Y010272D01*
X034428Y010208D01*
X034513Y010173D01*
X034541Y010173D01*
X034386Y010109D01*
X034251Y009974D01*
X034178Y009797D01*
X034178Y009606D01*
X034251Y009430D01*
X034279Y009402D01*
X034037Y009402D01*
X034065Y009430D01*
X034138Y009606D01*
X034138Y009797D01*
X034065Y009974D01*
X033930Y010109D01*
X033913Y010116D01*
X033928Y010131D01*
X033928Y010352D01*
X033608Y010352D01*
X033608Y010452D01*
X033508Y010452D01*
X033508Y010772D01*
X033288Y010772D01*
X033258Y010742D01*
X033229Y010772D01*
X033008Y010772D01*
X033008Y010452D01*
X032908Y010452D01*
X032908Y010352D01*
X032588Y010352D01*
X032588Y010238D01*
X032520Y010307D01*
X032246Y010307D01*
X031828Y010307D01*
X031828Y010502D01*
X031508Y010502D01*
X031508Y010602D01*
X031828Y010602D01*
X031828Y010822D01*
X031828Y010822D01*
X031828Y010648D01*
X031904Y010572D01*
X031828Y010483D02*
X032588Y010483D01*
X032588Y010286D02*
X032541Y010286D01*
X032908Y010286D02*
X033008Y010286D01*
X033008Y010352D02*
X033008Y010032D01*
X033229Y010032D01*
X033258Y010061D01*
X033288Y010032D01*
X033309Y010032D01*
X033251Y009974D01*
X033178Y009797D01*
X033178Y009606D01*
X033251Y009430D01*
X033279Y009402D01*
X033037Y009402D01*
X033065Y009430D01*
X033138Y009606D01*
X033138Y009797D01*
X033065Y009974D01*
X032930Y010109D01*
X032908Y010118D01*
X032908Y010352D01*
X033008Y010352D01*
X033008Y010452D01*
X033188Y010452D01*
X033508Y010452D01*
X033508Y010352D01*
X033188Y010352D01*
X033008Y010352D01*
X033008Y010384D02*
X033508Y010384D01*
X033508Y010483D02*
X033608Y010483D01*
X033608Y010452D02*
X033608Y010772D01*
X033829Y010772D01*
X033928Y010672D01*
X033928Y010452D01*
X033608Y010452D01*
X033608Y010384D02*
X034329Y010384D01*
X034344Y010483D02*
X033928Y010483D01*
X033928Y010581D02*
X034195Y010581D01*
X034178Y010680D02*
X033920Y010680D01*
X033819Y010779D02*
X034178Y010779D01*
X034178Y010877D02*
X033888Y010877D01*
X033888Y010976D02*
X034178Y010976D01*
X034178Y011074D02*
X033888Y011074D01*
X033888Y011173D02*
X034245Y011173D01*
X034148Y011271D02*
X034111Y011271D01*
X034138Y011370D02*
X034138Y011370D01*
X034138Y011468D02*
X034138Y011468D01*
X034138Y011567D02*
X034458Y011567D01*
X034458Y011665D02*
X034558Y011665D01*
X034558Y011602D02*
X034558Y011922D01*
X034779Y011922D01*
X034823Y011877D01*
X034911Y011965D01*
X035071Y012031D01*
X035119Y012031D01*
X035119Y011634D01*
X034878Y011634D01*
X034878Y011602D01*
X034558Y011602D01*
X034558Y011567D02*
X035119Y011567D01*
X035197Y011567D02*
X035958Y011567D01*
X035958Y011665D02*
X035594Y011665D01*
X035560Y011764D02*
X035958Y011764D01*
X035958Y011863D02*
X035507Y011863D01*
X035409Y011961D02*
X035958Y011961D01*
X035958Y012060D02*
X035656Y012060D01*
X035816Y012158D02*
X035958Y012158D01*
X035958Y012257D02*
X035914Y012257D01*
X035214Y012060D02*
X034138Y012060D01*
X034138Y011961D02*
X034907Y011961D01*
X035119Y011961D02*
X035197Y011961D01*
X035197Y011863D02*
X035119Y011863D01*
X035119Y011764D02*
X035197Y011764D01*
X035197Y011665D02*
X035119Y011665D01*
X035577Y011468D02*
X035958Y011468D01*
X035958Y011370D02*
X035536Y011370D01*
X035450Y011271D02*
X035958Y011271D01*
X035958Y011173D02*
X035509Y011173D01*
X035554Y011074D02*
X035958Y011074D01*
X035958Y010976D02*
X035554Y010976D01*
X035554Y010877D02*
X035958Y010877D01*
X035958Y010779D02*
X035794Y010779D01*
X035892Y010680D02*
X035958Y010680D01*
X034807Y011173D02*
X034771Y011173D01*
X034558Y011271D02*
X034458Y011271D01*
X034458Y011370D02*
X034558Y011370D01*
X034558Y011468D02*
X034458Y011468D01*
X034458Y011764D02*
X034558Y011764D01*
X034558Y011863D02*
X034458Y011863D01*
X034178Y011863D02*
X034138Y011863D01*
X034138Y011764D02*
X034138Y011764D01*
X034138Y011665D02*
X034138Y011665D01*
X034184Y012158D02*
X035055Y012158D01*
X034956Y012257D02*
X034282Y012257D01*
X034313Y012355D02*
X034912Y012355D01*
X034871Y012454D02*
X034313Y012454D01*
X034313Y012552D02*
X034862Y012552D01*
X034862Y012651D02*
X034313Y012651D01*
X034313Y012749D02*
X034882Y012749D01*
X034923Y012848D02*
X034313Y012848D01*
X034313Y012947D02*
X034984Y012947D01*
X035082Y013045D02*
X034313Y013045D01*
X034372Y014357D02*
X034172Y014557D01*
X034161Y014557D01*
X034178Y014598D01*
X034178Y014653D01*
X033707Y014653D01*
X033707Y014750D01*
X034178Y014750D01*
X034178Y014805D01*
X034099Y014996D01*
X033953Y015143D01*
X033810Y015202D01*
X033953Y015261D01*
X034099Y015407D01*
X034178Y015598D01*
X034178Y015653D01*
X033707Y015653D01*
X033707Y015750D01*
X034178Y015750D01*
X034178Y015805D01*
X034099Y015996D01*
X033953Y016143D01*
X033762Y016222D01*
X033707Y016222D01*
X033707Y015751D01*
X033610Y015751D01*
X033610Y016222D01*
X033555Y016222D01*
X033364Y016143D01*
X033217Y015996D01*
X033138Y015805D01*
X033138Y015750D01*
X033609Y015750D01*
X033609Y015653D01*
X033138Y015653D01*
X033138Y015598D01*
X033217Y015407D01*
X033364Y015261D01*
X033506Y015202D01*
X033364Y015143D01*
X033227Y015006D01*
X033165Y015157D01*
X033004Y015318D01*
X032968Y015333D01*
X033065Y015430D01*
X033138Y015606D01*
X033138Y015797D01*
X033065Y015974D01*
X032930Y016109D01*
X032754Y016182D01*
X032563Y016182D01*
X032386Y016109D01*
X032328Y016051D01*
X032328Y016072D01*
X032229Y016172D01*
X031908Y016172D01*
X031908Y015802D01*
X031808Y015802D01*
X031808Y016172D01*
X031488Y016172D01*
X031388Y016072D01*
X031388Y015802D01*
X031808Y015802D01*
X031808Y015702D01*
X031388Y015702D01*
X031388Y015679D01*
X030762Y015679D01*
X030686Y015603D01*
X030686Y015101D01*
X030762Y015025D01*
X031153Y015025D01*
X031153Y014809D01*
X031097Y014809D01*
X030984Y014762D01*
X030898Y014676D01*
X030851Y014563D01*
X030851Y014441D01*
X030886Y014357D01*
X030280Y014357D01*
X030315Y014441D01*
X030315Y014563D01*
X030279Y014651D01*
X030554Y014651D01*
X030631Y014727D01*
X030631Y015229D01*
X030554Y015305D01*
X030096Y015305D01*
X030068Y015372D01*
X030103Y015372D01*
X030131Y015399D01*
X030554Y015399D01*
X030631Y015475D01*
X030631Y015977D01*
X030554Y016053D01*
X030080Y016053D01*
X030052Y016119D01*
X029971Y016200D01*
X029865Y016244D01*
X029807Y016244D01*
X029930Y016295D01*
X030065Y016430D01*
X030138Y016606D01*
X030138Y016797D01*
X030065Y016974D01*
X030037Y017002D01*
X030279Y017002D01*
X030251Y016974D01*
X030178Y016797D01*
X030178Y016606D01*
X030251Y016430D01*
X030386Y016295D01*
X030563Y016222D01*
X030754Y016222D01*
X030930Y016295D01*
X030969Y016334D01*
X030972Y016327D01*
X031033Y016265D01*
X031114Y016232D01*
X031202Y016232D01*
X031283Y016265D01*
X031345Y016327D01*
X031347Y016334D01*
X031386Y016295D01*
X031563Y016222D01*
X031754Y016222D01*
X031930Y016295D01*
X032065Y016430D01*
X032138Y016606D01*
X032138Y016797D01*
X032065Y016974D01*
X032037Y017002D01*
X032279Y017002D01*
X032251Y016974D01*
X032178Y016797D01*
X032178Y016606D01*
X032251Y016430D01*
X032386Y016295D01*
X032563Y016222D01*
X032754Y016222D01*
X032930Y016295D01*
X033065Y016430D01*
X033138Y016606D01*
X033138Y016797D01*
X033065Y016974D01*
X033037Y017002D01*
X033279Y017002D01*
X033251Y016974D01*
X033178Y016797D01*
X033178Y016606D01*
X033251Y016430D01*
X033386Y016295D01*
X033563Y016222D01*
X033754Y016222D01*
X033930Y016295D01*
X034065Y016430D01*
X034138Y016606D01*
X034138Y016797D01*
X034065Y016974D01*
X034037Y017002D01*
X034279Y017002D01*
X034251Y016974D01*
X034178Y016797D01*
X034178Y016606D01*
X034251Y016430D01*
X034386Y016295D01*
X034563Y016222D01*
X034754Y016222D01*
X034930Y016295D01*
X035003Y016368D01*
X035003Y016338D01*
X035003Y016036D01*
X034930Y016109D01*
X034754Y016182D01*
X034563Y016182D01*
X034386Y016109D01*
X034251Y015974D01*
X034178Y015797D01*
X034178Y015606D01*
X034251Y015430D01*
X034386Y015295D01*
X034563Y015222D01*
X034659Y015222D01*
X034653Y015216D01*
X034653Y014557D01*
X034644Y014557D01*
X034553Y014466D01*
X034444Y014357D01*
X034372Y014357D01*
X034304Y014425D02*
X034512Y014425D01*
X034610Y014523D02*
X034206Y014523D01*
X034178Y014622D02*
X034653Y014622D01*
X034653Y014720D02*
X033707Y014720D01*
X033707Y014751D02*
X033610Y014751D01*
X033610Y015182D01*
X033610Y015653D01*
X033707Y015653D01*
X033707Y015182D01*
X033707Y014751D01*
X033707Y014819D02*
X033610Y014819D01*
X033610Y014917D02*
X033707Y014917D01*
X033707Y015016D02*
X033610Y015016D01*
X033610Y015114D02*
X033707Y015114D01*
X033707Y015213D02*
X033610Y015213D01*
X033610Y015312D02*
X033707Y015312D01*
X033707Y015410D02*
X033610Y015410D01*
X033610Y015509D02*
X033707Y015509D01*
X033707Y015607D02*
X033610Y015607D01*
X033609Y015706D02*
X033138Y015706D01*
X033135Y015804D02*
X033138Y015804D01*
X033179Y015903D02*
X033094Y015903D01*
X033037Y016001D02*
X033222Y016001D01*
X033321Y016100D02*
X032939Y016100D01*
X032932Y016297D02*
X033384Y016297D01*
X033286Y016396D02*
X033031Y016396D01*
X033092Y016494D02*
X033225Y016494D01*
X033184Y016593D02*
X033132Y016593D01*
X033138Y016691D02*
X033178Y016691D01*
X033178Y016790D02*
X033138Y016790D01*
X033100Y016888D02*
X033216Y016888D01*
X033264Y016987D02*
X033052Y016987D01*
X032264Y016987D02*
X032052Y016987D01*
X032100Y016888D02*
X032216Y016888D01*
X032178Y016790D02*
X032138Y016790D01*
X032138Y016691D02*
X032178Y016691D01*
X032184Y016593D02*
X032132Y016593D01*
X032092Y016494D02*
X032225Y016494D01*
X032286Y016396D02*
X032031Y016396D01*
X031932Y016297D02*
X032384Y016297D01*
X032377Y016100D02*
X032300Y016100D01*
X031908Y016100D02*
X031808Y016100D01*
X031808Y016001D02*
X031908Y016001D01*
X031908Y015903D02*
X031808Y015903D01*
X031808Y015804D02*
X031908Y015804D01*
X031908Y015702D02*
X031908Y015332D01*
X032229Y015332D01*
X032289Y015392D01*
X032361Y015320D01*
X032355Y015318D01*
X032288Y015251D01*
X032288Y015256D01*
X032212Y015332D01*
X031504Y015332D01*
X031497Y015324D01*
X031497Y015332D01*
X031808Y015332D01*
X031808Y015702D01*
X031908Y015702D01*
X031908Y015607D02*
X031808Y015607D01*
X031808Y015509D02*
X031908Y015509D01*
X031908Y015410D02*
X031808Y015410D01*
X032232Y015312D02*
X032349Y015312D01*
X033010Y015312D02*
X033313Y015312D01*
X033216Y015410D02*
X033045Y015410D01*
X033098Y015509D02*
X033175Y015509D01*
X033138Y015607D02*
X033138Y015607D01*
X033109Y015213D02*
X033479Y015213D01*
X033335Y015114D02*
X033183Y015114D01*
X033223Y015016D02*
X033237Y015016D01*
X033837Y015213D02*
X034653Y015213D01*
X034653Y015114D02*
X033981Y015114D01*
X034079Y015016D02*
X034653Y015016D01*
X034653Y014917D02*
X034132Y014917D01*
X034172Y014819D02*
X034653Y014819D01*
X034370Y015312D02*
X034003Y015312D01*
X034100Y015410D02*
X034271Y015410D01*
X034219Y015509D02*
X034141Y015509D01*
X034178Y015607D02*
X034178Y015607D01*
X034178Y015706D02*
X033707Y015706D01*
X033707Y015804D02*
X033610Y015804D01*
X033610Y015903D02*
X033707Y015903D01*
X033707Y016001D02*
X033610Y016001D01*
X033610Y016100D02*
X033707Y016100D01*
X033707Y016198D02*
X033610Y016198D01*
X033498Y016198D02*
X029973Y016198D01*
X029958Y016227D02*
X029558Y016227D01*
X029433Y016102D01*
X029528Y016032D02*
X029054Y016032D01*
X028978Y015956D01*
X028978Y015591D01*
X028853Y015466D01*
X028853Y015338D01*
X028853Y015224D01*
X028769Y015259D01*
X028647Y015259D01*
X028534Y015212D01*
X028448Y015126D01*
X028401Y015013D01*
X028401Y014891D01*
X028448Y014778D01*
X028534Y014691D01*
X028601Y014664D01*
X028394Y014457D01*
X027678Y014457D01*
X027678Y014458D01*
X027678Y014546D01*
X027645Y014626D01*
X027598Y014673D01*
X027657Y014732D01*
X027702Y014732D01*
X027783Y014765D01*
X027845Y014827D01*
X027878Y014908D01*
X027878Y014996D01*
X027845Y015076D01*
X027832Y015089D01*
X027902Y015089D01*
X028001Y015189D01*
X028001Y015534D01*
X027753Y015534D01*
X027753Y015535D01*
X027752Y015535D01*
X027752Y015980D01*
X027603Y015980D01*
X027598Y015975D01*
X027598Y015994D01*
X027316Y015994D01*
X027316Y016009D01*
X027598Y016009D01*
X027598Y016187D01*
X027563Y016222D01*
X027754Y016222D01*
X027930Y016295D01*
X028065Y016430D01*
X028138Y016606D01*
X028138Y016797D01*
X028065Y016974D01*
X028037Y017002D01*
X028279Y017002D01*
X028251Y016974D01*
X028178Y016797D01*
X028178Y016606D01*
X028251Y016430D01*
X028386Y016295D01*
X028563Y016222D01*
X028754Y016222D01*
X028930Y016295D01*
X029065Y016430D01*
X029138Y016606D01*
X029138Y016797D01*
X029065Y016974D01*
X029037Y017002D01*
X029279Y017002D01*
X029251Y016974D01*
X029178Y016797D01*
X029178Y016606D01*
X029251Y016430D01*
X029386Y016295D01*
X029563Y016222D01*
X029698Y016222D01*
X029645Y016200D01*
X029564Y016119D01*
X029528Y016032D01*
X029556Y016100D02*
X027598Y016100D01*
X027587Y016198D02*
X029643Y016198D01*
X029384Y016297D02*
X028932Y016297D01*
X029031Y016396D02*
X029286Y016396D01*
X029225Y016494D02*
X029092Y016494D01*
X029132Y016593D02*
X029184Y016593D01*
X029178Y016691D02*
X029138Y016691D01*
X029138Y016790D02*
X029178Y016790D01*
X029216Y016888D02*
X029100Y016888D01*
X029052Y016987D02*
X029264Y016987D01*
X030052Y016987D02*
X030264Y016987D01*
X030216Y016888D02*
X030100Y016888D01*
X030138Y016790D02*
X030178Y016790D01*
X030178Y016691D02*
X030138Y016691D01*
X030132Y016593D02*
X030184Y016593D01*
X030225Y016494D02*
X030092Y016494D01*
X030031Y016396D02*
X030286Y016396D01*
X030384Y016297D02*
X029932Y016297D01*
X029958Y016227D02*
X030083Y016102D01*
X030408Y016102D01*
X030458Y016152D01*
X030606Y016001D02*
X031388Y016001D01*
X031388Y015903D02*
X030631Y015903D01*
X030631Y015804D02*
X031388Y015804D01*
X031416Y016100D02*
X030060Y016100D01*
X030631Y015706D02*
X031808Y015706D01*
X031384Y016297D02*
X031314Y016297D01*
X031002Y016297D02*
X030932Y016297D01*
X030690Y015607D02*
X030631Y015607D01*
X030631Y015509D02*
X030686Y015509D01*
X030686Y015410D02*
X030566Y015410D01*
X030686Y015312D02*
X030093Y015312D01*
X030096Y015305D02*
X030096Y015305D01*
X030631Y015213D02*
X030686Y015213D01*
X030686Y015114D02*
X030631Y015114D01*
X030631Y015016D02*
X031153Y015016D01*
X031153Y014917D02*
X030631Y014917D01*
X030631Y014819D02*
X031153Y014819D01*
X030942Y014720D02*
X030624Y014720D01*
X030875Y014622D02*
X030291Y014622D01*
X030315Y014523D02*
X030851Y014523D01*
X030858Y014425D02*
X030309Y014425D01*
X028853Y015312D02*
X028001Y015312D01*
X028001Y015410D02*
X028239Y015410D01*
X028258Y015390D02*
X028339Y015357D01*
X028427Y015357D01*
X028508Y015390D01*
X028570Y015452D01*
X028603Y015533D01*
X028603Y015621D01*
X028570Y015701D01*
X028508Y015763D01*
X028427Y015797D01*
X028339Y015797D01*
X028258Y015763D01*
X028197Y015701D01*
X028163Y015621D01*
X028163Y015533D01*
X028197Y015452D01*
X028258Y015390D01*
X028173Y015509D02*
X028001Y015509D01*
X028001Y015535D02*
X028001Y015881D01*
X027902Y015980D01*
X027753Y015980D01*
X027753Y015535D01*
X028001Y015535D01*
X028001Y015607D02*
X028163Y015607D01*
X028201Y015706D02*
X028001Y015706D01*
X028001Y015804D02*
X028978Y015804D01*
X028978Y015706D02*
X028565Y015706D01*
X028603Y015607D02*
X028978Y015607D01*
X028896Y015509D02*
X028593Y015509D01*
X028527Y015410D02*
X028853Y015410D01*
X028536Y015213D02*
X028001Y015213D01*
X027927Y015114D02*
X028443Y015114D01*
X028402Y015016D02*
X027870Y015016D01*
X027878Y014917D02*
X028401Y014917D01*
X028431Y014819D02*
X027836Y014819D01*
X027646Y014720D02*
X028505Y014720D01*
X028559Y014622D02*
X027647Y014622D01*
X027678Y014523D02*
X028460Y014523D01*
X027752Y015607D02*
X027753Y015607D01*
X027752Y015706D02*
X027753Y015706D01*
X027752Y015804D02*
X027753Y015804D01*
X027752Y015903D02*
X027753Y015903D01*
X027979Y015903D02*
X028978Y015903D01*
X029024Y016001D02*
X027316Y016001D01*
X027316Y016010D02*
X027301Y016010D01*
X027301Y016287D01*
X027118Y016287D01*
X027078Y016247D01*
X026814Y016247D01*
X026930Y016295D01*
X027065Y016430D01*
X027138Y016606D01*
X027138Y016797D01*
X027065Y016974D01*
X027037Y017002D01*
X027279Y017002D01*
X027251Y016974D01*
X027178Y016797D01*
X027178Y016606D01*
X027251Y016430D01*
X027386Y016295D01*
X027406Y016287D01*
X027316Y016287D01*
X027316Y016010D01*
X027300Y016009D02*
X027158Y016009D01*
X027158Y015994D01*
X027300Y015994D01*
X027300Y016009D01*
X027300Y016001D02*
X027158Y016001D01*
X027301Y016100D02*
X027316Y016100D01*
X027316Y016198D02*
X027301Y016198D01*
X027384Y016297D02*
X026932Y016297D01*
X027031Y016396D02*
X027286Y016396D01*
X027225Y016494D02*
X027092Y016494D01*
X027132Y016593D02*
X027184Y016593D01*
X027178Y016691D02*
X027138Y016691D01*
X027138Y016790D02*
X027178Y016790D01*
X027216Y016888D02*
X027100Y016888D01*
X027052Y016987D02*
X027264Y016987D01*
X028052Y016987D02*
X028264Y016987D01*
X028216Y016888D02*
X028100Y016888D01*
X028138Y016790D02*
X028178Y016790D01*
X028178Y016691D02*
X028138Y016691D01*
X028132Y016593D02*
X028184Y016593D01*
X028225Y016494D02*
X028092Y016494D01*
X028031Y016396D02*
X028286Y016396D01*
X028384Y016297D02*
X027932Y016297D01*
X026551Y016227D02*
X026517Y016213D01*
X026447Y016143D01*
X026409Y016051D01*
X026409Y016022D01*
X026328Y015940D01*
X026085Y015940D01*
X025894Y015940D01*
X025854Y015980D01*
X025706Y015980D01*
X025706Y015535D01*
X025705Y015535D01*
X025705Y015980D01*
X025556Y015980D01*
X025516Y015940D01*
X025317Y015940D01*
X025148Y015940D01*
X025148Y016142D01*
X025149Y016142D01*
X025184Y016107D01*
X025528Y016107D01*
X025568Y016067D01*
X025751Y016067D01*
X025751Y016344D01*
X025766Y016344D01*
X025766Y016359D01*
X026048Y016359D01*
X026048Y016537D01*
X025949Y016637D01*
X025838Y016637D01*
X025838Y016737D01*
X025888Y016758D01*
X025952Y016822D01*
X025987Y016906D01*
X025987Y016997D01*
X025985Y017002D01*
X026279Y017002D01*
X026251Y016974D01*
X026178Y016797D01*
X026178Y016606D01*
X026251Y016430D01*
X026386Y016295D01*
X026551Y016227D01*
X026503Y016198D02*
X026048Y016198D01*
X026048Y016166D02*
X026048Y016344D01*
X025766Y016344D01*
X025766Y016067D01*
X025949Y016067D01*
X026048Y016166D01*
X025982Y016100D02*
X026430Y016100D01*
X026389Y016001D02*
X025148Y016001D01*
X025148Y016100D02*
X025535Y016100D01*
X025751Y016100D02*
X025766Y016100D01*
X025766Y016198D02*
X025751Y016198D01*
X025751Y016297D02*
X025766Y016297D01*
X026048Y016297D02*
X026384Y016297D01*
X026286Y016396D02*
X026048Y016396D01*
X026048Y016494D02*
X026225Y016494D01*
X026184Y016593D02*
X025993Y016593D01*
X025838Y016691D02*
X026178Y016691D01*
X026178Y016790D02*
X025920Y016790D01*
X025980Y016888D02*
X026216Y016888D01*
X026264Y016987D02*
X025987Y016987D01*
X024584Y016107D02*
X024558Y016133D01*
X024532Y016107D01*
X024184Y016107D01*
X024169Y016122D01*
X024013Y016122D01*
X023947Y016122D01*
X023932Y016107D01*
X023898Y016107D01*
X023898Y016073D01*
X023787Y015962D01*
X023787Y015962D01*
X023765Y015940D01*
X023791Y015940D01*
X023981Y015940D01*
X024021Y015980D01*
X024170Y015980D01*
X024170Y015535D01*
X024170Y015535D01*
X024170Y015980D01*
X024319Y015980D01*
X024359Y015940D01*
X024549Y015940D01*
X024728Y015940D01*
X024728Y016107D01*
X024584Y016107D01*
X024728Y016100D02*
X023898Y016100D01*
X023826Y016001D02*
X024728Y016001D01*
X024170Y015903D02*
X024170Y015903D01*
X024170Y015804D02*
X024170Y015804D01*
X024170Y015706D02*
X024170Y015706D01*
X024170Y015607D02*
X024170Y015607D01*
X024170Y015535D02*
X024170Y015240D01*
X024083Y015153D01*
X024083Y014977D01*
X024069Y014960D02*
X024069Y015089D01*
X024084Y015089D01*
X024084Y015027D01*
X024114Y014957D01*
X024072Y014957D01*
X024069Y014960D01*
X024069Y015016D02*
X024089Y015016D01*
X023146Y015535D02*
X023146Y015535D01*
X023146Y015956D01*
X023146Y015956D01*
X023146Y015535D01*
X023146Y015607D02*
X023146Y015607D01*
X023146Y015706D02*
X023146Y015706D01*
X023146Y015804D02*
X023146Y015804D01*
X023146Y015903D02*
X023146Y015903D01*
X023170Y015980D02*
X023268Y015980D01*
X023366Y016078D01*
X023366Y016344D01*
X023351Y016344D01*
X023351Y016067D01*
X023188Y016067D01*
X023188Y015998D01*
X023170Y015980D01*
X023188Y016001D02*
X023289Y016001D01*
X023351Y016100D02*
X023366Y016100D01*
X023366Y016198D02*
X023351Y016198D01*
X023351Y016297D02*
X023366Y016297D01*
X023366Y016360D02*
X023351Y016360D01*
X023351Y016637D01*
X023308Y016637D01*
X023308Y016802D01*
X023408Y016802D01*
X023408Y016902D01*
X023728Y016902D01*
X023728Y017002D01*
X023728Y017002D01*
X023728Y016598D01*
X023729Y016597D01*
X023728Y016597D01*
X023728Y016802D01*
X023408Y016802D01*
X023408Y016637D01*
X023366Y016637D01*
X023366Y016360D01*
X023366Y016396D02*
X023351Y016396D01*
X023351Y016494D02*
X023366Y016494D01*
X023366Y016593D02*
X023351Y016593D01*
X023308Y016691D02*
X023408Y016691D01*
X023408Y016790D02*
X023308Y016790D01*
X023408Y016888D02*
X023728Y016888D01*
X023728Y016790D02*
X023728Y016790D01*
X023728Y016691D02*
X023728Y016691D01*
X023728Y016987D02*
X023728Y016987D01*
X022608Y016802D02*
X022608Y016582D01*
X022604Y016582D01*
X022528Y016506D01*
X022528Y016191D01*
X022508Y016171D01*
X022488Y016191D01*
X022488Y016482D01*
X022508Y016482D01*
X022508Y016802D01*
X022608Y016802D01*
X022608Y016790D02*
X022508Y016790D01*
X022508Y016691D02*
X022608Y016691D01*
X022608Y016593D02*
X022508Y016593D01*
X022508Y016494D02*
X022528Y016494D01*
X022528Y016396D02*
X022488Y016396D01*
X022488Y016297D02*
X022528Y016297D01*
X022528Y016198D02*
X022488Y016198D01*
X020936Y015940D02*
X020837Y015940D01*
X020878Y015981D01*
X020878Y016202D01*
X020558Y016202D01*
X020558Y016302D01*
X020458Y016302D01*
X020458Y016482D01*
X020458Y016802D01*
X020307Y016802D01*
X020288Y016821D01*
X020204Y016856D01*
X020114Y016856D01*
X020065Y016974D01*
X020037Y017002D01*
X020138Y017002D01*
X020138Y016902D01*
X020458Y016902D01*
X020458Y016802D01*
X020558Y016802D01*
X020558Y016902D01*
X020878Y016902D01*
X020878Y017002D01*
X020878Y017002D01*
X020878Y016801D01*
X020878Y016802D01*
X020558Y016802D01*
X020558Y016482D01*
X020558Y016302D01*
X020878Y016302D01*
X020878Y016303D01*
X020878Y016303D01*
X020878Y015998D01*
X020936Y015940D01*
X020878Y016001D02*
X020878Y016001D01*
X020878Y016100D02*
X020878Y016100D01*
X020878Y016198D02*
X020878Y016198D01*
X020878Y016297D02*
X020558Y016297D01*
X020558Y016396D02*
X020458Y016396D01*
X020458Y016494D02*
X020558Y016494D01*
X020558Y016593D02*
X020458Y016593D01*
X020458Y016691D02*
X020558Y016691D01*
X020558Y016790D02*
X020458Y016790D01*
X020458Y016888D02*
X020100Y016888D01*
X020138Y016987D02*
X020052Y016987D01*
X020558Y016888D02*
X020878Y016888D01*
X020878Y016801D02*
X020878Y016801D01*
X020878Y016987D02*
X020878Y016987D01*
X019279Y017002D02*
X019251Y016974D01*
X019178Y016797D01*
X019178Y016606D01*
X019251Y016430D01*
X019386Y016295D01*
X019414Y016283D01*
X019318Y016187D01*
X019318Y016009D01*
X019600Y016009D01*
X019600Y015994D01*
X019318Y015994D01*
X019318Y015884D01*
X019315Y015881D01*
X019315Y015535D01*
X019563Y015535D01*
X019563Y015534D01*
X019315Y015534D01*
X019315Y015277D01*
X019288Y015277D01*
X019288Y015506D01*
X019238Y015556D01*
X019238Y015648D01*
X019288Y015698D01*
X019288Y016206D01*
X019212Y016282D01*
X018898Y016282D01*
X018930Y016295D01*
X019065Y016430D01*
X019138Y016606D01*
X019138Y016797D01*
X019065Y016974D01*
X019037Y017002D01*
X019279Y017002D01*
X019264Y016987D02*
X019052Y016987D01*
X019100Y016888D02*
X019216Y016888D01*
X019178Y016790D02*
X019138Y016790D01*
X019138Y016691D02*
X019178Y016691D01*
X019184Y016593D02*
X019132Y016593D01*
X019092Y016494D02*
X019225Y016494D01*
X019286Y016396D02*
X019031Y016396D01*
X018932Y016297D02*
X019384Y016297D01*
X019329Y016198D02*
X019288Y016198D01*
X019288Y016100D02*
X019318Y016100D01*
X019288Y016001D02*
X019600Y016001D01*
X019318Y015903D02*
X019288Y015903D01*
X019288Y015804D02*
X019315Y015804D01*
X019315Y015706D02*
X019288Y015706D01*
X019315Y015607D02*
X019238Y015607D01*
X019285Y015509D02*
X019315Y015509D01*
X019315Y015410D02*
X019288Y015410D01*
X019288Y015312D02*
X019315Y015312D01*
X018628Y015312D02*
X018628Y015312D01*
X018628Y015410D02*
X018628Y015410D01*
X018628Y015509D02*
X018631Y015509D01*
X018678Y015607D02*
X018554Y015607D01*
X018628Y015706D02*
X018628Y015706D01*
X018628Y015804D02*
X018628Y015804D01*
X018628Y016100D02*
X018628Y016100D01*
X018628Y016198D02*
X018628Y016198D01*
X018225Y016494D02*
X018092Y016494D01*
X018132Y016593D02*
X018184Y016593D01*
X018178Y016691D02*
X018138Y016691D01*
X018138Y016790D02*
X018178Y016790D01*
X018216Y016888D02*
X018100Y016888D01*
X018052Y016987D02*
X018264Y016987D01*
X017264Y016987D02*
X017052Y016987D01*
X017100Y016888D02*
X017216Y016888D01*
X017178Y016790D02*
X017138Y016790D01*
X017138Y016691D02*
X017178Y016691D01*
X017184Y016593D02*
X017132Y016593D01*
X017092Y016494D02*
X017225Y016494D01*
X016286Y016396D02*
X016031Y016396D01*
X016058Y016297D02*
X016158Y016297D01*
X016158Y016198D02*
X016058Y016198D01*
X016058Y016100D02*
X016158Y016100D01*
X016058Y016001D02*
X015558Y016001D01*
X015804Y015607D02*
X015812Y015607D01*
X015781Y015509D02*
X015670Y015509D01*
X015670Y015410D02*
X015778Y015410D01*
X015778Y015312D02*
X015670Y015312D01*
X015670Y015213D02*
X015778Y015213D01*
X016338Y014917D02*
X016433Y014917D01*
X016388Y014819D02*
X016388Y014819D01*
X016388Y014720D02*
X016388Y014720D01*
X016388Y014523D02*
X016388Y014523D01*
X016009Y013341D02*
X015471Y013341D01*
X015471Y013242D02*
X015910Y013242D01*
X015811Y013144D02*
X015471Y013144D01*
X014431Y013242D02*
X014178Y013242D01*
X014178Y013341D02*
X014431Y013341D01*
X013858Y013341D02*
X013758Y013341D01*
X013758Y013439D02*
X013858Y013439D01*
X013858Y013045D02*
X013758Y013045D01*
X013758Y012947D02*
X013858Y012947D01*
X013858Y012848D02*
X013758Y012848D01*
X013438Y012947D02*
X013413Y012947D01*
X013413Y013045D02*
X013438Y013045D01*
X012178Y012288D02*
X012144Y012322D01*
X012072Y012322D01*
X012038Y012288D01*
X012038Y012216D01*
X012062Y012192D01*
X012154Y012192D01*
X012178Y012216D01*
X012178Y012288D01*
X012178Y012257D02*
X012038Y012257D01*
X014313Y010832D02*
X014313Y010832D01*
X008808Y014102D02*
X008668Y013962D01*
X008808Y014102D02*
X009308Y014102D01*
X008067Y013962D02*
X007798Y013962D01*
X008056Y014523D02*
X011226Y014523D01*
X011153Y014622D02*
X007957Y014622D01*
X007859Y014720D02*
X011138Y014720D01*
X011168Y014819D02*
X007760Y014819D01*
X007662Y014917D02*
X011304Y014917D01*
X011413Y014917D02*
X012036Y014917D01*
X012026Y015016D02*
X007563Y015016D01*
X007465Y015114D02*
X012047Y015114D01*
X011560Y014523D02*
X011491Y014523D01*
X013058Y014152D02*
X013108Y014202D01*
X013308Y014202D01*
X011299Y016382D02*
X011017Y016382D01*
X011065Y016430D01*
X011138Y016606D01*
X011138Y016797D01*
X011065Y016974D01*
X011037Y017002D01*
X011279Y017002D01*
X011251Y016974D01*
X011178Y016797D01*
X011178Y016606D01*
X011251Y016430D01*
X011299Y016382D01*
X011286Y016396D02*
X011031Y016396D01*
X011092Y016494D02*
X011225Y016494D01*
X011184Y016593D02*
X011132Y016593D01*
X011138Y016691D02*
X011178Y016691D01*
X011178Y016790D02*
X011138Y016790D01*
X011100Y016888D02*
X011216Y016888D01*
X011264Y016987D02*
X011052Y016987D01*
X009061Y015903D02*
X008485Y015903D01*
X008485Y016001D02*
X008963Y016001D01*
X008864Y016100D02*
X008472Y016100D01*
X008374Y016198D02*
X008766Y016198D01*
X008384Y016297D02*
X007989Y016297D01*
X007953Y016261D02*
X008099Y016407D01*
X008178Y016598D01*
X008178Y016653D01*
X007707Y016653D01*
X007707Y016182D01*
X007762Y016182D01*
X007953Y016261D01*
X007942Y016198D02*
X007802Y016198D01*
X007707Y016198D02*
X007610Y016198D01*
X007515Y016198D02*
X007113Y016198D01*
X007134Y016100D02*
X007844Y016100D01*
X007831Y016001D02*
X007134Y016001D01*
X007134Y015903D02*
X007831Y015903D01*
X007843Y015804D02*
X007134Y015804D01*
X007134Y015706D02*
X007942Y015706D01*
X007707Y016297D02*
X007610Y016297D01*
X007610Y016396D02*
X007707Y016396D01*
X007707Y016494D02*
X007610Y016494D01*
X007610Y016593D02*
X007707Y016593D01*
X007707Y016691D02*
X008178Y016691D01*
X008176Y016593D02*
X008184Y016593D01*
X008225Y016494D02*
X008135Y016494D01*
X008087Y016396D02*
X008286Y016396D01*
X008178Y016790D02*
X008178Y016790D01*
X008144Y016888D02*
X008216Y016888D01*
X008264Y016987D02*
X008103Y016987D01*
X007609Y016691D02*
X007138Y016691D01*
X007138Y016593D02*
X007140Y016593D01*
X007138Y016494D02*
X007181Y016494D01*
X007138Y016396D02*
X007229Y016396D01*
X007137Y016297D02*
X007328Y016297D01*
X007138Y016790D02*
X007138Y016790D01*
X007138Y016888D02*
X007172Y016888D01*
X007138Y016987D02*
X007213Y016987D01*
X016052Y016987D02*
X016264Y016987D01*
X016216Y016888D02*
X016100Y016888D01*
X016138Y016790D02*
X016178Y016790D01*
X016178Y016691D02*
X016138Y016691D01*
X016132Y016593D02*
X016184Y016593D01*
X016225Y016494D02*
X016092Y016494D01*
X018208Y015202D02*
X018208Y014972D01*
X018229Y014972D01*
X018258Y014942D01*
X018288Y014972D01*
X018308Y014972D01*
X018308Y015202D01*
X018208Y015202D01*
X018208Y015114D02*
X018308Y015114D01*
X018308Y015016D02*
X018208Y015016D01*
X020195Y014425D02*
X020616Y014425D01*
X020518Y014523D02*
X020303Y014523D01*
X020328Y014622D02*
X020419Y014622D01*
X020321Y014720D02*
X020307Y014720D01*
X025705Y015607D02*
X025706Y015607D01*
X025705Y015706D02*
X025706Y015706D01*
X025705Y015804D02*
X025706Y015804D01*
X025705Y015903D02*
X025706Y015903D01*
X031194Y012454D02*
X031222Y012454D01*
X031820Y011961D02*
X031828Y011961D01*
X031828Y011863D02*
X031809Y011863D01*
X031828Y011764D02*
X030689Y011764D01*
X030591Y011665D02*
X031828Y011665D01*
X031828Y011567D02*
X030538Y011567D01*
X030611Y011468D02*
X030634Y011468D01*
X031782Y011468D02*
X031828Y011468D01*
X031820Y011370D02*
X032642Y011370D01*
X032688Y010779D02*
X032698Y010779D01*
X032908Y010680D02*
X033008Y010680D01*
X033008Y010581D02*
X032908Y010581D01*
X032908Y010483D02*
X033008Y010483D01*
X032908Y010384D02*
X031828Y010384D01*
X031828Y010680D02*
X031828Y010680D01*
X031828Y010779D02*
X031828Y010779D01*
X031088Y010483D02*
X031088Y010483D01*
X031088Y010384D02*
X031088Y010384D01*
X030419Y010122D02*
X030386Y010109D01*
X030251Y009974D01*
X030178Y009797D01*
X030178Y009606D01*
X030251Y009430D01*
X030279Y009402D01*
X030037Y009402D01*
X030065Y009430D01*
X030138Y009606D01*
X030138Y009797D01*
X030065Y009974D01*
X029930Y010109D01*
X029807Y010160D01*
X029865Y010160D01*
X029971Y010204D01*
X030052Y010285D01*
X030096Y010390D01*
X030096Y010485D01*
X030164Y010457D01*
X030252Y010457D01*
X030303Y010478D01*
X030303Y010366D01*
X030303Y010238D01*
X030419Y010122D01*
X030366Y010089D02*
X029950Y010089D01*
X029932Y010187D02*
X030353Y010187D01*
X030303Y010286D02*
X030053Y010286D01*
X030093Y010384D02*
X030303Y010384D01*
X030101Y010483D02*
X030096Y010483D01*
X029684Y010187D02*
X028419Y010187D01*
X028366Y010089D02*
X027950Y010089D01*
X028151Y010286D02*
X028166Y010286D01*
X028166Y010384D02*
X028151Y010384D01*
X028151Y010483D02*
X028166Y010483D01*
X028166Y010581D02*
X028151Y010581D01*
X028151Y010680D02*
X028166Y010680D01*
X028922Y010581D02*
X029095Y010581D01*
X030049Y009990D02*
X030268Y009990D01*
X030217Y009892D02*
X030099Y009892D01*
X030138Y009793D02*
X030178Y009793D01*
X030178Y009695D02*
X030138Y009695D01*
X030134Y009596D02*
X030182Y009596D01*
X030223Y009498D02*
X030093Y009498D01*
X027560Y010181D02*
X027386Y010109D01*
X027251Y009974D01*
X027178Y009797D01*
X027178Y009606D01*
X027251Y009430D01*
X027279Y009402D01*
X027037Y009402D01*
X027065Y009430D01*
X027138Y009606D01*
X027138Y009797D01*
X027065Y009974D01*
X026930Y010109D01*
X026910Y010117D01*
X026999Y010117D01*
X027039Y010157D01*
X027382Y010157D01*
X027437Y010212D01*
X027529Y010212D01*
X027560Y010181D01*
X027554Y010187D02*
X027412Y010187D01*
X027366Y010089D02*
X026950Y010089D01*
X027049Y009990D02*
X027268Y009990D01*
X027217Y009892D02*
X027099Y009892D01*
X027158Y009952D02*
X027158Y010177D01*
X026816Y010187D02*
X026801Y010187D01*
X026808Y010177D02*
X026808Y010402D01*
X026800Y010409D02*
X026800Y010394D01*
X026518Y010394D01*
X026518Y010216D01*
X026556Y010179D01*
X026386Y010109D01*
X026251Y009974D01*
X026178Y009797D01*
X026178Y009630D01*
X026102Y009662D01*
X026014Y009662D01*
X025943Y009632D01*
X025872Y009662D01*
X025784Y009662D01*
X025703Y009628D01*
X025701Y009626D01*
X025685Y009666D01*
X025623Y009728D01*
X025542Y009762D01*
X025479Y009762D01*
X025475Y009771D01*
X025413Y009833D01*
X025332Y009867D01*
X025244Y009867D01*
X025163Y009833D01*
X025102Y009771D01*
X025078Y009715D01*
X025078Y009726D01*
X025045Y009806D01*
X024983Y009868D01*
X024902Y009902D01*
X024814Y009902D01*
X024733Y009868D01*
X024688Y009823D01*
X024688Y010056D01*
X024627Y010117D01*
X024749Y010117D01*
X024833Y010201D01*
X024918Y010117D01*
X025101Y010117D01*
X025101Y010394D01*
X025116Y010394D01*
X025116Y010117D01*
X025299Y010117D01*
X025339Y010157D01*
X025682Y010157D01*
X025758Y010233D01*
X025758Y010333D01*
X025888Y010464D01*
X026094Y010464D01*
X026284Y010464D01*
X026324Y010424D01*
X026473Y010424D01*
X026473Y010869D01*
X026473Y010869D01*
X026473Y010424D01*
X026518Y010424D01*
X026518Y010409D01*
X026800Y010409D01*
X026801Y010394D02*
X026801Y010162D01*
X026816Y010156D01*
X026816Y010394D01*
X026801Y010394D01*
X026801Y010384D02*
X026816Y010384D01*
X026816Y010286D02*
X026801Y010286D01*
X026547Y010187D02*
X025712Y010187D01*
X025758Y010286D02*
X026518Y010286D01*
X026518Y010384D02*
X025809Y010384D01*
X026366Y010089D02*
X024655Y010089D01*
X024688Y009990D02*
X026268Y009990D01*
X026217Y009892D02*
X024926Y009892D01*
X024790Y009892D02*
X024688Y009892D01*
X024819Y010187D02*
X024847Y010187D01*
X024818Y010394D02*
X025100Y010394D01*
X025100Y010409D01*
X024818Y010409D01*
X024566Y010409D01*
X024566Y010394D01*
X024818Y010394D01*
X025101Y010384D02*
X025116Y010384D01*
X025108Y010402D02*
X025108Y010177D01*
X025101Y010187D02*
X025116Y010187D01*
X025116Y010286D02*
X025101Y010286D01*
X025123Y009793D02*
X025050Y009793D01*
X025453Y009793D02*
X026178Y009793D01*
X026178Y009695D02*
X025656Y009695D01*
X026473Y010483D02*
X026473Y010483D01*
X026473Y010581D02*
X026473Y010581D01*
X026473Y010680D02*
X026473Y010680D01*
X026473Y010779D02*
X026473Y010779D01*
X026473Y010870D02*
X026473Y011315D01*
X026324Y011315D01*
X026319Y011310D01*
X026213Y011416D01*
X026213Y011832D01*
X026214Y011832D01*
X026259Y011832D01*
X026574Y011517D01*
X026574Y011315D01*
X026473Y011315D01*
X026473Y010870D01*
X026473Y010870D01*
X026473Y010877D02*
X026473Y010877D01*
X026473Y010976D02*
X026473Y010976D01*
X026473Y011074D02*
X026473Y011074D01*
X026473Y011173D02*
X026473Y011173D01*
X026473Y011271D02*
X026473Y011271D01*
X026574Y011370D02*
X026259Y011370D01*
X026213Y011468D02*
X026574Y011468D01*
X026524Y011567D02*
X026213Y011567D01*
X026213Y011665D02*
X026425Y011665D01*
X026327Y011764D02*
X026213Y011764D01*
X024033Y010177D02*
X023658Y009802D01*
X023708Y009793D02*
X024028Y009793D01*
X024028Y009892D02*
X024028Y009892D01*
X024028Y009990D02*
X024028Y009990D01*
X024012Y010089D02*
X024061Y010089D01*
X023708Y010089D02*
X023608Y010089D01*
X023608Y009990D02*
X023708Y009990D01*
X023708Y009892D02*
X023608Y009892D01*
X027093Y009498D02*
X027223Y009498D01*
X027182Y009596D02*
X027134Y009596D01*
X027138Y009695D02*
X027178Y009695D01*
X027178Y009793D02*
X027138Y009793D01*
X032908Y010187D02*
X033008Y010187D01*
X033008Y010089D02*
X032950Y010089D01*
X033049Y009990D02*
X033268Y009990D01*
X033217Y009892D02*
X033099Y009892D01*
X033138Y009793D02*
X033178Y009793D01*
X033178Y009695D02*
X033138Y009695D01*
X033134Y009596D02*
X033182Y009596D01*
X033223Y009498D02*
X033093Y009498D01*
X034093Y009498D02*
X034223Y009498D01*
X034182Y009596D02*
X034134Y009596D01*
X034138Y009695D02*
X034178Y009695D01*
X034178Y009793D02*
X034138Y009793D01*
X034099Y009892D02*
X034217Y009892D01*
X034268Y009990D02*
X034049Y009990D01*
X033950Y010089D02*
X034366Y010089D01*
X034478Y010187D02*
X033928Y010187D01*
X033928Y010286D02*
X034358Y010286D01*
X033608Y010581D02*
X033508Y010581D01*
X033508Y010680D02*
X033608Y010680D01*
X034178Y015804D02*
X034181Y015804D01*
X034138Y015903D02*
X034222Y015903D01*
X034279Y016001D02*
X034094Y016001D01*
X033995Y016100D02*
X034377Y016100D01*
X034384Y016297D02*
X033932Y016297D01*
X034031Y016396D02*
X034286Y016396D01*
X034225Y016494D02*
X034092Y016494D01*
X034132Y016593D02*
X034184Y016593D01*
X034178Y016691D02*
X034138Y016691D01*
X034138Y016790D02*
X034178Y016790D01*
X034216Y016888D02*
X034100Y016888D01*
X034052Y016987D02*
X034264Y016987D01*
X033818Y016198D02*
X035003Y016198D01*
X035003Y016100D02*
X034939Y016100D01*
X034932Y016297D02*
X035003Y016297D01*
D38*
X027283Y011527D03*
X024158Y011262D03*
X023433Y011262D03*
X021008Y010152D03*
X024158Y009442D03*
X026118Y009682D03*
X031883Y010527D03*
X034558Y010402D03*
X034908Y010352D03*
X025758Y016952D03*
X025258Y016952D03*
X023608Y017002D03*
X023108Y017052D03*
X022808Y017052D03*
X022308Y016952D03*
X022108Y016752D03*
X021458Y016752D03*
X021458Y016952D03*
X020158Y016627D03*
X020108Y014377D03*
X020183Y013277D03*
X013483Y014002D03*
D39*
X013808Y013152D02*
X014183Y012777D01*
X014208Y012777D01*
X015158Y012652D02*
X015208Y012602D01*
X015208Y012302D01*
X015458Y012052D01*
X016008Y012052D01*
X016108Y011952D01*
X016108Y011752D01*
X016108Y011352D01*
X015408Y011352D01*
X014908Y010977D02*
X014783Y011102D01*
X014508Y011102D01*
X014508Y011202D01*
X014508Y011102D02*
X014108Y011102D01*
X013758Y011102D01*
X013758Y011202D01*
X013758Y010502D02*
X014508Y010502D01*
X015358Y010502D01*
X015408Y010552D01*
X016108Y010552D02*
X016108Y010952D01*
X016108Y011352D01*
X016288Y011352D01*
X016588Y011352D02*
X016638Y011302D01*
X017008Y011302D01*
X017008Y011002D02*
X016638Y011002D01*
X016588Y010952D01*
X016288Y010952D02*
X016108Y010952D01*
X016108Y010552D02*
X016288Y010552D01*
X016588Y010552D02*
X016638Y010602D01*
X016958Y010602D01*
X017008Y010652D01*
X017008Y011652D02*
X016958Y011702D01*
X016638Y011702D01*
X016588Y011752D01*
X016288Y011752D02*
X016108Y011752D01*
X017758Y012602D02*
X018358Y012602D01*
X018658Y012602D01*
X018658Y012127D01*
X018608Y012127D01*
X018658Y012127D02*
X018658Y011952D01*
X018888Y011722D01*
X018888Y011652D01*
X019108Y011652D01*
X019108Y011527D01*
X019308Y011527D01*
X019108Y011527D02*
X019108Y011302D01*
X019108Y011002D01*
X019108Y010652D01*
X019108Y010572D01*
X019278Y010402D01*
X019358Y010402D01*
X019108Y010652D02*
X018888Y010652D01*
X018888Y011002D02*
X019108Y011002D01*
X019108Y011302D02*
X018888Y011302D01*
X018958Y012602D02*
X018958Y012752D01*
X019108Y012752D01*
X019633Y013277D01*
X020183Y013277D01*
X018958Y013302D02*
X018658Y013302D01*
X018658Y013102D01*
X018658Y013302D02*
X018358Y013302D01*
X018358Y013452D01*
X017958Y013852D01*
X017958Y013902D01*
X017958Y014152D01*
X017358Y013902D02*
X017108Y014152D01*
X016958Y014152D01*
X016758Y014602D02*
X017358Y014602D01*
X017958Y014602D01*
X018258Y014602D02*
X018558Y014602D01*
X019033Y014602D01*
X019033Y014452D01*
X019033Y014052D02*
X019258Y014052D01*
X019408Y014202D01*
X019033Y014052D02*
X018883Y013902D01*
X018558Y013902D01*
X017758Y013302D02*
X017208Y012752D01*
X017208Y012652D01*
X018658Y012602D02*
X018658Y012752D01*
X018958Y012752D01*
X021808Y011952D02*
X021808Y011322D01*
X021808Y011952D02*
X022808Y012952D01*
X022858Y012952D01*
X027458Y013602D02*
X027708Y013352D01*
X027708Y012452D01*
X027558Y012302D01*
X028108Y012302D02*
X028158Y012302D01*
X028158Y013302D01*
X027858Y013602D01*
X029308Y015002D02*
X029808Y014502D01*
X030008Y014502D01*
X030008Y015602D02*
X029408Y015602D01*
X029308Y015702D01*
X030008Y015602D02*
X030132Y015726D01*
X030225Y015726D01*
X031858Y015752D02*
X032258Y016152D01*
X033208Y016152D02*
X033658Y015702D01*
X032679Y014832D02*
X032560Y014952D01*
X031858Y014952D01*
X031608Y013552D02*
X032718Y013552D01*
X032876Y013710D01*
X031608Y013552D02*
X031508Y013452D01*
X030908Y013452D01*
X030808Y013352D01*
X030658Y013352D01*
X030208Y012902D01*
X030208Y012727D01*
X030834Y012678D02*
X030834Y012164D01*
X030834Y012678D02*
X030908Y012752D01*
X031508Y012752D02*
X031582Y012752D01*
X031582Y012164D01*
X031983Y012202D02*
X031983Y012252D01*
X031983Y012202D02*
X032058Y012202D01*
X032058Y012452D01*
X031083Y011577D02*
X030583Y011577D01*
X031083Y011577D02*
X031208Y011452D01*
X031208Y011140D01*
X031208Y010802D01*
X031458Y010552D01*
X031883Y010527D02*
X031883Y010402D01*
X032258Y010952D02*
X032158Y011052D01*
X031582Y011052D01*
X031582Y011140D01*
X030834Y011140D02*
X030834Y010628D01*
X030758Y010552D01*
X028158Y010402D02*
X028158Y010177D01*
X028158Y009952D01*
X028158Y010402D02*
X028158Y011802D01*
X028158Y012302D01*
X033558Y010402D02*
X033858Y010402D01*
X034008Y010552D01*
X034008Y011052D01*
X034508Y011552D01*
X026333Y016077D02*
X026058Y016352D01*
X025758Y016352D01*
X025358Y016352D02*
X025358Y016702D01*
X025508Y016852D01*
X024808Y016852D02*
X024658Y016702D01*
X024108Y016702D01*
X024108Y016802D01*
X024058Y016852D01*
X024108Y016702D02*
X024108Y016352D01*
X024358Y016352D01*
X024108Y016352D02*
X023758Y016352D01*
X023358Y016352D02*
X023358Y016852D01*
X023458Y016852D01*
X023608Y017002D01*
X023358Y016852D02*
X023258Y016952D01*
X023108Y016952D01*
X023108Y017052D01*
X023108Y016952D02*
X022808Y016952D01*
X022808Y017052D01*
X022808Y016952D02*
X022658Y016952D01*
X022558Y016852D01*
X022458Y016952D01*
X022308Y016952D01*
X021208Y016852D02*
X021208Y016252D01*
X020783Y016002D02*
X020758Y016002D01*
X020508Y016252D01*
X020508Y016852D01*
X019608Y016002D02*
X019158Y016452D01*
X019158Y016502D01*
X018258Y015952D02*
X018158Y016052D01*
X018158Y016502D01*
X018258Y015952D02*
X018258Y015802D01*
X017783Y015802D01*
X017633Y015952D01*
X017308Y015952D01*
X017158Y015952D01*
X017158Y016502D01*
X017158Y015952D02*
X016708Y015952D01*
X016158Y015952D01*
X016158Y016452D01*
X016158Y015952D02*
X016108Y015952D01*
X015508Y015952D01*
X015208Y015552D02*
X014808Y015952D01*
X015208Y015552D02*
X015358Y015552D01*
X015432Y015478D01*
X015432Y015414D01*
X015432Y014902D02*
X015432Y014390D01*
X015058Y014390D02*
X015058Y013509D01*
X014951Y013402D01*
X014684Y014390D02*
X014684Y014902D01*
X016708Y015252D02*
X017308Y015252D01*
X017633Y015252D01*
X017658Y015277D01*
X017658Y014952D01*
X017658Y015277D02*
X017783Y015402D01*
X018258Y015252D02*
X018258Y015802D01*
D40*
X019564Y015957D02*
X019564Y015535D01*
X019564Y015957D02*
X019608Y016002D01*
X021208Y016852D02*
X021308Y016952D01*
X021458Y016952D01*
X021458Y016752D01*
X021308Y016752D01*
X021208Y016852D01*
X022158Y016252D02*
X022379Y016031D01*
X022379Y015535D01*
X022634Y015535D02*
X022634Y016028D01*
X022858Y016252D01*
X023146Y015890D02*
X023358Y016102D01*
X023358Y016352D01*
X023708Y016302D02*
X023758Y016352D01*
X023708Y016302D02*
X023708Y016152D01*
X023402Y015846D01*
X023402Y015535D01*
X023146Y015535D02*
X023146Y015890D01*
X025705Y015535D02*
X025705Y016299D01*
X025758Y016352D01*
X026473Y015817D02*
X026658Y016002D01*
X026908Y016002D01*
X027241Y016002D02*
X027241Y015535D01*
X027753Y015535D02*
X027753Y015857D01*
X027608Y016002D01*
X027558Y016002D01*
X027308Y016002D01*
X027241Y016002D01*
X026473Y015817D02*
X026473Y015535D01*
X032258Y016152D02*
X032308Y016202D01*
X033158Y016202D01*
X033208Y016152D01*
X027858Y011552D02*
X027858Y011452D01*
X027753Y011346D01*
X027753Y010869D01*
X027753Y010402D01*
X027241Y010402D01*
X027241Y010869D01*
X027241Y010402D02*
X027208Y010402D01*
X026808Y010402D02*
X026608Y010402D01*
X026473Y010537D01*
X026473Y010869D01*
X025705Y010869D02*
X025705Y011249D01*
X025783Y011327D01*
X025783Y011527D01*
X025705Y010869D02*
X025705Y010549D01*
X025558Y010402D01*
X025508Y010402D01*
X025108Y010402D02*
X024938Y010402D01*
X024558Y010402D01*
X024938Y010402D02*
X024938Y010869D01*
X024170Y010869D02*
X024170Y010414D01*
X024158Y010402D01*
X023402Y010402D01*
X023183Y010402D01*
X023183Y010397D01*
X022703Y010397D01*
X022558Y010252D01*
X022408Y010102D01*
X022408Y009652D01*
X022558Y009502D01*
X022558Y009442D01*
X023183Y009997D02*
X023228Y009952D01*
X023508Y009952D01*
X023658Y009802D01*
X024158Y009602D02*
X024158Y009442D01*
X024158Y009602D02*
X024358Y009802D01*
X023402Y010402D02*
X023402Y010869D01*
X023402Y011231D01*
X023433Y011262D01*
X024158Y011262D02*
X024170Y011250D01*
X024170Y010869D01*
X021867Y010869D02*
X021867Y010261D01*
X021858Y010252D01*
X019758Y010402D02*
X019564Y010596D01*
X019564Y010869D01*
X019564Y011307D01*
X019708Y011452D01*
X019708Y011502D01*
X020033Y014377D02*
X020108Y014377D01*
X020033Y014377D02*
X019658Y014752D01*
X019183Y014752D01*
X019033Y014602D01*
X027753Y010402D02*
X027758Y010402D01*
D41*
X028158Y009952D03*
X027158Y009952D03*
X029158Y009952D03*
X030158Y009952D03*
X030258Y010952D03*
X030583Y011577D03*
X032058Y012202D03*
X032058Y012452D03*
X027858Y011552D03*
X027858Y013602D03*
X027458Y013602D03*
X024333Y015077D03*
X026333Y016077D03*
X026658Y016002D03*
X027558Y016002D03*
X030458Y016152D03*
X022858Y012952D03*
X021508Y013802D03*
X019708Y013627D03*
X019408Y014202D03*
X019508Y014502D03*
X019833Y014977D03*
X018258Y014927D03*
X017658Y014952D03*
X017958Y014152D03*
X018658Y013102D03*
X018658Y012752D03*
X019708Y011502D03*
X021808Y011322D03*
X020308Y009477D03*
X014108Y011102D03*
X020783Y016002D03*
X020858Y016552D03*
X019158Y016502D03*
X018158Y016502D03*
X017158Y016502D03*
X016158Y016452D03*
X015158Y016452D03*
X014158Y016452D03*
X013158Y016452D03*
X012158Y016452D03*
X011158Y016452D03*
D42*
X012333Y016102D02*
X012333Y015002D01*
X012333Y016102D02*
X014658Y016102D01*
X014808Y015952D01*
X016058Y015202D02*
X016058Y014902D01*
X016058Y014602D01*
X016058Y014902D02*
X015432Y014902D01*
X014684Y014902D01*
X014608Y014902D01*
X014558Y014852D01*
X016058Y015202D02*
X016108Y015252D01*
X018958Y015252D02*
X018958Y015952D01*
X012333Y016102D02*
X009258Y016102D01*
X008658Y016702D01*
X008668Y013962D02*
X008067Y013962D01*
X008224Y013529D02*
X008681Y013529D01*
X008664Y013096D02*
X008067Y013096D01*
X007949Y012663D02*
X008697Y012663D01*
X008686Y012229D02*
X008067Y012229D01*
X007949Y011796D02*
X008564Y011796D01*
X008658Y011702D01*
X008397Y011363D02*
X008067Y011363D01*
X008067Y010930D02*
X008680Y010930D01*
X031458Y010552D02*
X031608Y010402D01*
X031883Y010402D01*
X032958Y010402D01*
X033558Y010402D01*
X034508Y010852D02*
X034552Y010808D01*
X035158Y010808D01*
X035158Y011596D02*
X034552Y011596D01*
X034508Y011552D01*
X031983Y012252D02*
X031983Y012627D01*
X031858Y012752D01*
X031582Y012752D01*
D43*
X030208Y012727D03*
X028108Y012302D03*
X027558Y012302D03*
X030008Y014502D03*
X031158Y014502D03*
X028708Y014952D03*
X034408Y014452D03*
X022583Y012227D03*
X019308Y011527D03*
X017208Y012652D03*
X015608Y012502D03*
X015158Y012652D03*
X013708Y012277D03*
X012108Y012252D03*
X009508Y011202D03*
X008658Y011702D03*
X013858Y014802D03*
X012333Y015002D03*
X016158Y014202D03*
X016958Y014152D03*
X014908Y010977D03*
D44*
X013708Y012277D02*
X014208Y012777D01*
X014833Y013402D01*
X014951Y013402D01*
X016058Y014302D02*
X016158Y014202D01*
X016665Y013695D01*
X016665Y013402D01*
X016058Y014302D02*
X016058Y014602D01*
X014558Y014852D02*
X013908Y014852D01*
X013858Y014802D01*
X032258Y011752D02*
X033508Y011752D01*
X033558Y011702D01*
X033558Y011102D01*
X032958Y011102D01*
X033558Y011702D02*
X033658Y011702D01*
X032383Y009977D02*
X032658Y009702D01*
X033658Y014702D02*
X033658Y015702D01*
X035308Y016552D02*
X035458Y016702D01*
X035658Y016702D01*
D45*
X019833Y014977D02*
X019783Y015027D01*
X019183Y015027D01*
X018958Y015252D01*
X018258Y015252D02*
X018258Y014927D01*
X018258Y014602D01*
X017958Y014602D01*
D46*
X021858Y016852D02*
X021958Y016752D01*
X022108Y016752D01*
X025838Y012952D02*
X026888Y014002D01*
X032188Y014002D01*
X032458Y014272D01*
X033438Y014272D01*
X033508Y014202D01*
X033959Y014202D01*
X034451Y013710D01*
X033664Y013710D02*
X033664Y013796D01*
X033348Y014112D01*
X032528Y014112D01*
X032258Y013842D01*
X026958Y013842D01*
X025908Y012792D01*
X024958Y012792D01*
X023968Y011802D01*
X023883Y011802D01*
X023833Y011752D01*
X023898Y011962D02*
X024888Y012952D01*
X025838Y012952D01*
X023898Y011962D02*
X023693Y011962D01*
X023633Y011902D01*
D47*
X016665Y013402D02*
X016508Y013402D01*
X015608Y012502D01*
D48*
X020008Y016002D02*
X020158Y016152D01*
X020158Y016627D01*
X024758Y016352D02*
X024938Y016352D01*
X025358Y016352D01*
X024938Y016352D02*
X024938Y015535D01*
M02*
