G75*
G70*
%OFA0B0*%
%FSLAX24Y24*%
%IPPOS*%
%LPD*%
%AMOC8*
5,1,8,0,0,1.08239X$1,22.5*
%
%ADD10C,0.0591*%
%ADD11C,0.0354*%
%ADD12C,0.0886*%
%ADD13C,0.0531*%
%ADD14C,0.0600*%
%ADD15C,0.0180*%
%ADD16C,0.0100*%
%ADD17C,0.0400*%
%ADD18C,0.0198*%
%ADD19C,0.0237*%
%ADD20C,0.0200*%
%ADD21C,0.0300*%
%ADD22C,0.0240*%
%ADD23C,0.0050*%
D10*
X006658Y009702D03*
X007658Y009702D03*
X008658Y009702D03*
X009658Y009702D03*
X010658Y009702D03*
X011658Y009702D03*
X012658Y009702D03*
X013658Y009702D03*
X014658Y009702D03*
X015658Y009702D03*
X016658Y009702D03*
X017658Y009702D03*
X018658Y009702D03*
X019658Y009702D03*
X026658Y009702D03*
X027658Y009702D03*
X028658Y009702D03*
X029658Y009702D03*
X030658Y009702D03*
X031658Y009702D03*
X032658Y009702D03*
X033658Y009702D03*
X034658Y009702D03*
X035658Y009702D03*
X033658Y011702D03*
X033658Y012702D03*
X033658Y013702D03*
X033664Y013710D03*
X034451Y013710D03*
X035238Y013710D03*
X033658Y014702D03*
X032876Y013710D03*
X032658Y015702D03*
X033658Y015702D03*
X034658Y015702D03*
X035658Y015702D03*
X035658Y016702D03*
X034658Y016702D03*
X033658Y016702D03*
X032658Y016702D03*
X031658Y016702D03*
X030658Y016702D03*
X029658Y016702D03*
X028658Y016702D03*
X027658Y016702D03*
X026658Y016702D03*
X019658Y016702D03*
X018658Y016702D03*
X017658Y016702D03*
X016658Y016702D03*
X015658Y016702D03*
X014658Y016702D03*
X013658Y016702D03*
X012658Y016702D03*
X011658Y016702D03*
X010658Y016702D03*
X009658Y016702D03*
X008658Y016702D03*
X007658Y016702D03*
X006658Y016702D03*
D11*
X006608Y014924D03*
X006608Y014432D03*
X006608Y013940D03*
X006608Y013448D03*
X006608Y012956D03*
X006608Y012464D03*
X006608Y011972D03*
X006608Y011479D03*
X008658Y011702D03*
X009508Y011202D03*
X012108Y012252D03*
X013708Y012277D03*
X015158Y012652D03*
X015608Y012502D03*
X017208Y012652D03*
X019308Y011527D03*
X022583Y012227D03*
X027558Y012302D03*
X028108Y012302D03*
X030208Y012727D03*
X030008Y014502D03*
X031158Y014502D03*
X028708Y014952D03*
X034408Y014452D03*
X016958Y014152D03*
X016158Y014202D03*
X013858Y014802D03*
X012333Y015002D03*
X014908Y010977D03*
D12*
X032679Y012588D03*
X035435Y012588D03*
X035435Y014832D03*
X032679Y014832D03*
D13*
X035158Y011596D03*
X035158Y010808D03*
D14*
X028808Y012352D03*
D15*
X028433Y011527D03*
X027558Y011527D03*
X027183Y012077D03*
X027208Y012352D03*
X026258Y012052D03*
X026158Y012277D03*
X025908Y012252D03*
X025783Y012052D03*
X025558Y012102D03*
X025333Y012177D03*
X025233Y011527D03*
X025783Y011527D03*
X024683Y011627D03*
X024233Y011627D03*
X023833Y011752D03*
X023633Y011902D03*
X023083Y011452D03*
X022833Y011402D03*
X021278Y011762D03*
X021048Y011762D03*
X020158Y012052D03*
X021283Y012402D03*
X021533Y012402D03*
X021458Y012952D03*
X021283Y013127D03*
X021133Y012952D03*
X021033Y013377D03*
X021283Y013977D03*
X021058Y014077D03*
X021783Y013827D03*
X022033Y013827D03*
X022283Y013827D03*
X021958Y013377D03*
X022133Y013202D03*
X021958Y013027D03*
X023408Y013452D03*
X023483Y013227D03*
X023658Y013477D03*
X023658Y013727D03*
X023883Y013827D03*
X024108Y013927D03*
X024333Y014027D03*
X024558Y014077D03*
X024783Y014127D03*
X024933Y014327D03*
X025158Y014052D03*
X025383Y013977D03*
X025733Y013977D03*
X025358Y013602D03*
X024958Y013902D03*
X025658Y014352D03*
X025758Y014577D03*
X025908Y014752D03*
X026133Y014827D03*
X026258Y015052D03*
X027158Y015052D03*
X027308Y014852D03*
X027133Y014677D03*
X027458Y014502D03*
X027658Y014952D03*
X028383Y015577D03*
X026208Y014452D03*
X024083Y014977D03*
X023283Y014977D03*
X022983Y014977D03*
X022733Y014977D03*
X021983Y014477D03*
X021733Y014477D03*
X021468Y014752D03*
X021233Y014752D03*
X020108Y014627D03*
X020133Y013827D03*
X020158Y013002D03*
X017958Y011677D03*
X017958Y011427D03*
X017958Y011077D03*
X017958Y010827D03*
X019033Y010052D03*
X019283Y010052D03*
X020193Y009752D03*
X020583Y009752D03*
X020763Y009592D03*
X020958Y009877D03*
X020758Y010127D03*
X020833Y010352D03*
X020258Y010227D03*
X020183Y010452D03*
X021623Y009552D03*
X021848Y009622D03*
X021998Y009442D03*
X022188Y009642D03*
X022328Y009442D03*
X022558Y009442D03*
X022758Y009562D03*
X022618Y009752D03*
X023058Y009732D03*
X022998Y009442D03*
X023228Y009442D03*
X023458Y009442D03*
X023688Y009442D03*
X023918Y009442D03*
X024398Y009442D03*
X024628Y009442D03*
X024858Y009442D03*
X025088Y009442D03*
X025288Y009647D03*
X025498Y009542D03*
X025828Y009442D03*
X026058Y009442D03*
X024858Y009682D03*
X029408Y010427D03*
X030208Y010677D03*
X030208Y011227D03*
X030083Y012027D03*
X032008Y013302D03*
X032258Y014402D03*
X032083Y014552D03*
X031158Y016452D03*
X027458Y012952D03*
X027208Y012952D03*
X026258Y012727D03*
X024158Y012877D03*
X022958Y016702D03*
X024433Y016957D03*
X014908Y012352D03*
X014458Y012427D03*
X014383Y012202D03*
X013558Y011902D03*
X013058Y012002D03*
X012908Y011302D03*
X013108Y011152D03*
X012908Y011002D03*
X012908Y010702D03*
X013133Y010627D03*
X013383Y010627D03*
X014108Y010752D03*
X014958Y011577D03*
X015708Y010952D03*
X013058Y013252D03*
X011708Y013102D03*
X011358Y012702D03*
X011358Y013702D03*
X011058Y013902D03*
X011358Y014702D03*
X012683Y015102D03*
X012808Y014902D03*
X013308Y014202D03*
X014208Y014252D03*
X014358Y014052D03*
X014383Y015227D03*
X011758Y015452D03*
X009308Y014102D03*
X009008Y013902D03*
X009258Y013252D03*
X009208Y012402D03*
X009558Y011952D03*
X009008Y011902D03*
D16*
X007019Y009461D02*
X006959Y009402D01*
X007300Y009402D01*
X007264Y009438D01*
X007193Y009609D01*
X007193Y009653D01*
X007609Y009653D01*
X007609Y009750D01*
X007193Y009750D01*
X007193Y009770D01*
X007083Y009660D01*
X007083Y009617D01*
X007019Y009461D01*
X007034Y009498D02*
X007239Y009498D01*
X007198Y009596D02*
X007075Y009596D01*
X007117Y009695D02*
X007609Y009695D01*
X007707Y009695D02*
X008233Y009695D01*
X008233Y009617D02*
X008298Y009461D01*
X008357Y009402D01*
X008016Y009402D01*
X008053Y009438D01*
X008123Y009609D01*
X008123Y009653D01*
X007707Y009653D01*
X007707Y009750D01*
X008123Y009750D01*
X008123Y009794D01*
X008053Y009965D01*
X007996Y010022D01*
X008377Y010022D01*
X008298Y009943D01*
X008233Y009786D01*
X008233Y009617D01*
X008242Y009596D02*
X008118Y009596D01*
X008077Y009498D02*
X008282Y009498D01*
X008236Y009793D02*
X008123Y009793D01*
X008083Y009892D02*
X008276Y009892D01*
X008345Y009990D02*
X008028Y009990D01*
X007171Y010682D02*
X006978Y010489D01*
X006617Y010127D01*
X006574Y010127D01*
X006417Y010062D01*
X006358Y010003D01*
X006358Y011295D01*
X006434Y011219D01*
X006547Y011172D01*
X006669Y011172D01*
X006782Y011219D01*
X006868Y011305D01*
X006915Y011418D01*
X006915Y011541D01*
X006868Y011653D01*
X006796Y011726D01*
X006868Y011798D01*
X006915Y011910D01*
X006915Y012033D01*
X006868Y012146D01*
X006825Y012189D01*
X006902Y012267D01*
X006955Y012395D01*
X006955Y012455D01*
X006617Y012455D01*
X006617Y012473D01*
X006955Y012473D01*
X006955Y012533D01*
X006902Y012660D01*
X006825Y012738D01*
X006868Y012782D01*
X006915Y012895D01*
X006915Y013017D01*
X006868Y013130D01*
X006796Y013202D01*
X006868Y013274D01*
X006915Y013387D01*
X006915Y013509D01*
X006868Y013622D01*
X006796Y013694D01*
X006868Y013766D01*
X006915Y013879D01*
X006915Y014001D01*
X006868Y014114D01*
X006796Y014186D01*
X006868Y014258D01*
X006915Y014371D01*
X006915Y014493D01*
X006868Y014606D01*
X006796Y014678D01*
X006868Y014750D01*
X006915Y014863D01*
X006915Y014985D01*
X006868Y015098D01*
X006782Y015185D01*
X006669Y015231D01*
X006547Y015231D01*
X006434Y015185D01*
X006358Y015109D01*
X006358Y016401D01*
X006417Y016341D01*
X006574Y016277D01*
X006743Y016277D01*
X006899Y016341D01*
X007019Y016461D01*
X007083Y016617D01*
X007083Y016786D01*
X007019Y016943D01*
X006959Y017002D01*
X007300Y017002D01*
X007264Y016965D01*
X007193Y016794D01*
X007193Y016750D01*
X007609Y016750D01*
X007609Y016653D01*
X007193Y016653D01*
X007193Y016609D01*
X007264Y016438D01*
X007395Y016307D01*
X007566Y016237D01*
X007610Y016237D01*
X007610Y016653D01*
X007707Y016653D01*
X007707Y016750D01*
X008123Y016750D01*
X008123Y016794D01*
X008053Y016965D01*
X008016Y017002D01*
X008357Y017002D01*
X008298Y016943D01*
X008233Y016786D01*
X008233Y016617D01*
X008298Y016461D01*
X008417Y016341D01*
X008574Y016277D01*
X008743Y016277D01*
X008899Y016341D01*
X009019Y016461D01*
X009083Y016617D01*
X009083Y016786D01*
X009019Y016943D01*
X008959Y017002D01*
X009357Y017002D01*
X009298Y016943D01*
X009233Y016786D01*
X009233Y016617D01*
X009298Y016461D01*
X009417Y016341D01*
X009574Y016277D01*
X009743Y016277D01*
X009899Y016341D01*
X010019Y016461D01*
X010083Y016617D01*
X010083Y016786D01*
X010019Y016943D01*
X009959Y017002D01*
X010357Y017002D01*
X010298Y016943D01*
X010233Y016786D01*
X010233Y016617D01*
X010298Y016461D01*
X010417Y016341D01*
X010574Y016277D01*
X010743Y016277D01*
X010899Y016341D01*
X011019Y016461D01*
X011083Y016617D01*
X011083Y016786D01*
X011019Y016943D01*
X010959Y017002D01*
X011357Y017002D01*
X011298Y016943D01*
X011233Y016786D01*
X011233Y016617D01*
X011298Y016461D01*
X011417Y016341D01*
X011477Y016317D01*
X011621Y016172D01*
X011834Y016172D01*
X012134Y015872D01*
X012283Y015872D01*
X013328Y015872D01*
X013328Y014422D01*
X013264Y014422D01*
X013183Y014388D01*
X013122Y014326D01*
X013121Y014326D02*
X012613Y014326D01*
X012613Y014228D02*
X013088Y014228D01*
X013088Y014246D02*
X013088Y014158D01*
X013122Y014077D01*
X013183Y014015D01*
X013254Y013986D01*
X013254Y013957D01*
X012696Y013957D01*
X012503Y013764D01*
X011916Y013176D01*
X011895Y013226D01*
X011833Y013288D01*
X011803Y013301D01*
X012449Y013947D01*
X012613Y014111D01*
X012613Y014798D01*
X012622Y014777D01*
X012683Y014715D01*
X012764Y014682D01*
X012852Y014682D01*
X012933Y014715D01*
X012995Y014777D01*
X013028Y014858D01*
X013028Y014946D01*
X012995Y015026D01*
X012933Y015088D01*
X012903Y015101D01*
X012903Y015146D01*
X012870Y015226D01*
X012808Y015288D01*
X012727Y015322D01*
X012639Y015322D01*
X012558Y015288D01*
X012520Y015250D01*
X012507Y015262D01*
X012394Y015309D01*
X012272Y015309D01*
X012159Y015262D01*
X012073Y015176D01*
X012026Y015063D01*
X012026Y014941D01*
X012053Y014875D01*
X012053Y014343D01*
X011541Y013830D01*
X011483Y013888D01*
X011402Y013922D01*
X011314Y013922D01*
X011278Y013907D01*
X011278Y013946D01*
X011245Y014026D01*
X011183Y014088D01*
X011102Y014122D01*
X011014Y014122D01*
X010933Y014088D01*
X010872Y014026D01*
X010838Y013946D01*
X010838Y013858D01*
X010872Y013777D01*
X010933Y013715D01*
X011014Y013682D01*
X011102Y013682D01*
X011138Y013697D01*
X011138Y013658D01*
X011172Y013577D01*
X011230Y013519D01*
X009757Y012047D01*
X009745Y012076D01*
X009683Y012138D01*
X009602Y012172D01*
X009514Y012172D01*
X009433Y012138D01*
X009372Y012076D01*
X009338Y011996D01*
X009338Y011908D01*
X009372Y011827D01*
X009433Y011765D01*
X009463Y011753D01*
X009228Y011518D01*
X009228Y011329D01*
X009201Y011263D01*
X009201Y011141D01*
X009248Y011028D01*
X009334Y010941D01*
X009447Y010895D01*
X009569Y010895D01*
X009680Y010941D01*
X009421Y010682D01*
X007171Y010682D01*
X007170Y010680D02*
X006358Y010680D01*
X006358Y010581D02*
X007071Y010581D01*
X006973Y010483D02*
X006358Y010483D01*
X006358Y010384D02*
X006874Y010384D01*
X006775Y010286D02*
X006358Y010286D01*
X006358Y010187D02*
X006677Y010187D01*
X006481Y010089D02*
X006358Y010089D01*
X006358Y010779D02*
X009518Y010779D01*
X009617Y010877D02*
X006358Y010877D01*
X006358Y010976D02*
X009300Y010976D01*
X009229Y011074D02*
X006358Y011074D01*
X006358Y011173D02*
X006546Y011173D01*
X006670Y011173D02*
X009201Y011173D01*
X009204Y011271D02*
X006834Y011271D01*
X006895Y011370D02*
X009228Y011370D01*
X009228Y011468D02*
X006915Y011468D01*
X006904Y011567D02*
X009277Y011567D01*
X009376Y011665D02*
X006856Y011665D01*
X006835Y011764D02*
X008835Y011764D01*
X008822Y011777D02*
X008883Y011715D01*
X008964Y011682D01*
X009052Y011682D01*
X009133Y011715D01*
X009195Y011777D01*
X009228Y011858D01*
X009228Y011946D01*
X009195Y012026D01*
X009133Y012088D01*
X009052Y012122D01*
X008964Y012122D01*
X008883Y012088D01*
X008822Y012026D01*
X008788Y011946D01*
X008788Y011858D01*
X008822Y011777D01*
X008788Y011863D02*
X006895Y011863D01*
X006915Y011961D02*
X008795Y011961D01*
X008855Y012060D02*
X006904Y012060D01*
X006856Y012158D02*
X009481Y012158D01*
X009374Y012257D02*
X009967Y012257D01*
X010066Y012355D02*
X009427Y012355D01*
X009428Y012358D02*
X009428Y012446D01*
X009395Y012526D01*
X009363Y012558D01*
X009363Y012838D01*
X011151Y014626D01*
X011172Y014577D01*
X011233Y014515D01*
X011314Y014482D01*
X011402Y014482D01*
X011483Y014515D01*
X011545Y014577D01*
X011578Y014658D01*
X011578Y014746D01*
X011545Y014826D01*
X011483Y014888D01*
X011434Y014909D01*
X011757Y015232D01*
X011802Y015232D01*
X011883Y015265D01*
X011945Y015327D01*
X011978Y015408D01*
X011978Y015496D01*
X011945Y015576D01*
X011883Y015638D01*
X011802Y015672D01*
X011714Y015672D01*
X011633Y015638D01*
X011572Y015576D01*
X011538Y015496D01*
X011538Y015451D01*
X009450Y013363D01*
X009445Y013376D01*
X009383Y013438D01*
X009302Y013472D01*
X009214Y013472D01*
X009133Y013438D01*
X009072Y013376D01*
X009038Y013296D01*
X009038Y013208D01*
X009072Y013127D01*
X009133Y013065D01*
X009147Y013060D01*
X009053Y012966D01*
X009053Y012838D01*
X009053Y012558D01*
X009022Y012526D01*
X008988Y012446D01*
X008988Y012358D01*
X009022Y012277D01*
X009083Y012215D01*
X009164Y012182D01*
X009252Y012182D01*
X009333Y012215D01*
X009395Y012277D01*
X009428Y012358D01*
X009425Y012454D02*
X010164Y012454D01*
X010263Y012552D02*
X009369Y012552D01*
X009363Y012651D02*
X010361Y012651D01*
X010460Y012749D02*
X009363Y012749D01*
X009373Y012848D02*
X010558Y012848D01*
X010657Y012947D02*
X009472Y012947D01*
X009570Y013045D02*
X010755Y013045D01*
X010854Y013144D02*
X009669Y013144D01*
X009768Y013242D02*
X010952Y013242D01*
X011051Y013341D02*
X009866Y013341D01*
X009965Y013439D02*
X011150Y013439D01*
X011211Y013538D02*
X010063Y013538D01*
X010162Y013636D02*
X011147Y013636D01*
X010914Y013735D02*
X010260Y013735D01*
X010359Y013833D02*
X010848Y013833D01*
X010838Y013932D02*
X010457Y013932D01*
X010556Y014031D02*
X010876Y014031D01*
X010753Y014228D02*
X011938Y014228D01*
X012036Y014326D02*
X010852Y014326D01*
X010950Y014425D02*
X012053Y014425D01*
X012053Y014523D02*
X011491Y014523D01*
X011563Y014622D02*
X012053Y014622D01*
X012053Y014720D02*
X011578Y014720D01*
X011548Y014819D02*
X012053Y014819D01*
X012036Y014917D02*
X011443Y014917D01*
X011541Y015016D02*
X012026Y015016D01*
X012047Y015114D02*
X011640Y015114D01*
X011738Y015213D02*
X012110Y015213D01*
X011929Y015312D02*
X012615Y015312D01*
X012752Y015312D02*
X013328Y015312D01*
X013328Y015410D02*
X011978Y015410D01*
X011973Y015509D02*
X013328Y015509D01*
X013328Y015607D02*
X011914Y015607D01*
X011602Y015607D02*
X006358Y015607D01*
X006358Y015509D02*
X011544Y015509D01*
X011497Y015410D02*
X006358Y015410D01*
X006358Y015312D02*
X011399Y015312D01*
X011300Y015213D02*
X006714Y015213D01*
X006852Y015114D02*
X011202Y015114D01*
X011103Y015016D02*
X006903Y015016D01*
X006915Y014917D02*
X011004Y014917D01*
X010906Y014819D02*
X006897Y014819D01*
X006838Y014720D02*
X010807Y014720D01*
X010709Y014622D02*
X006853Y014622D01*
X006903Y014523D02*
X010610Y014523D01*
X010512Y014425D02*
X006915Y014425D01*
X006897Y014326D02*
X010413Y014326D01*
X010315Y014228D02*
X009493Y014228D01*
X009495Y014226D02*
X009433Y014288D01*
X009352Y014322D01*
X009264Y014322D01*
X009183Y014288D01*
X009122Y014226D01*
X009088Y014146D01*
X009088Y014107D01*
X009052Y014122D01*
X008964Y014122D01*
X008883Y014088D01*
X008822Y014026D01*
X008788Y013946D01*
X008788Y013858D01*
X008822Y013777D01*
X008883Y013715D01*
X008964Y013682D01*
X009052Y013682D01*
X009133Y013715D01*
X009195Y013777D01*
X009228Y013858D01*
X009228Y013897D01*
X009264Y013882D01*
X009352Y013882D01*
X009433Y013915D01*
X009495Y013977D01*
X009528Y014058D01*
X009528Y014146D01*
X009495Y014226D01*
X009528Y014129D02*
X010216Y014129D01*
X010118Y014031D02*
X009517Y014031D01*
X009449Y013932D02*
X010019Y013932D01*
X009920Y013833D02*
X009218Y013833D01*
X009152Y013735D02*
X009822Y013735D01*
X009723Y013636D02*
X006854Y013636D01*
X006837Y013735D02*
X008864Y013735D01*
X008798Y013833D02*
X006896Y013833D01*
X006915Y013932D02*
X008788Y013932D01*
X008826Y014031D02*
X006903Y014031D01*
X006853Y014129D02*
X009088Y014129D01*
X009123Y014228D02*
X006838Y014228D01*
X006903Y013538D02*
X009625Y013538D01*
X009526Y013439D02*
X009381Y013439D01*
X009136Y013439D02*
X006915Y013439D01*
X006896Y013341D02*
X009057Y013341D01*
X009038Y013242D02*
X006837Y013242D01*
X006855Y013144D02*
X009065Y013144D01*
X009132Y013045D02*
X006904Y013045D01*
X006915Y012947D02*
X009053Y012947D01*
X009053Y012848D02*
X006896Y012848D01*
X006836Y012749D02*
X009053Y012749D01*
X009053Y012651D02*
X006906Y012651D01*
X006947Y012552D02*
X009047Y012552D01*
X008992Y012454D02*
X006955Y012454D01*
X006939Y012355D02*
X008989Y012355D01*
X009042Y012257D02*
X006892Y012257D01*
X006382Y011271D02*
X006358Y011271D01*
X009181Y011764D02*
X009437Y011764D01*
X009357Y011863D02*
X009228Y011863D01*
X009222Y011961D02*
X009338Y011961D01*
X009365Y012060D02*
X009161Y012060D01*
X009635Y012158D02*
X009869Y012158D01*
X009770Y012060D02*
X009752Y012060D01*
X010944Y011271D02*
X012688Y011271D01*
X012688Y011258D02*
X012722Y011177D01*
X012747Y011152D01*
X012722Y011126D01*
X012688Y011046D01*
X012688Y010958D01*
X012722Y010877D01*
X010550Y010877D01*
X010451Y010779D02*
X012702Y010779D01*
X012688Y010746D02*
X012722Y010826D01*
X012747Y010852D01*
X012722Y010877D01*
X012688Y010976D02*
X010649Y010976D01*
X010747Y011074D02*
X012700Y011074D01*
X012726Y011173D02*
X010846Y011173D01*
X011043Y011370D02*
X012698Y011370D01*
X012688Y011346D02*
X012722Y011426D01*
X012783Y011488D01*
X012864Y011522D01*
X012909Y011522D01*
X012944Y011557D01*
X014469Y011557D01*
X014728Y011816D01*
X014728Y011816D01*
X014819Y011907D01*
X014994Y011907D01*
X015122Y011907D01*
X015222Y011807D01*
X017294Y011807D01*
X017409Y011922D01*
X017292Y011922D01*
X015792Y011922D01*
X015628Y012086D01*
X015500Y012214D01*
X015434Y012241D01*
X015348Y012328D01*
X015323Y012388D01*
X015219Y012345D01*
X015128Y012345D01*
X015128Y012308D01*
X015095Y012227D01*
X015033Y012165D01*
X014952Y012132D01*
X014864Y012132D01*
X014783Y012165D01*
X014722Y012227D01*
X014688Y012308D01*
X014688Y012396D01*
X014722Y012476D01*
X014783Y012538D01*
X014860Y012570D01*
X014851Y012591D01*
X014851Y012713D01*
X014898Y012826D01*
X014984Y012912D01*
X015097Y012959D01*
X015219Y012959D01*
X015332Y012912D01*
X015418Y012826D01*
X015443Y012766D01*
X015547Y012809D01*
X015669Y012809D01*
X015782Y012762D01*
X015868Y012676D01*
X015896Y012610D01*
X016024Y012482D01*
X016946Y012482D01*
X016901Y012591D01*
X016901Y012713D01*
X016948Y012826D01*
X017034Y012912D01*
X017147Y012959D01*
X017269Y012959D01*
X017382Y012912D01*
X017468Y012826D01*
X017515Y012713D01*
X017515Y012632D01*
X019657Y012632D01*
X019467Y012822D01*
X018542Y012822D01*
X018471Y012822D01*
X017996Y013297D01*
X017821Y013297D01*
X013278Y013297D01*
X013278Y013296D01*
X013278Y013208D01*
X013245Y013127D01*
X013183Y013065D01*
X013102Y013032D01*
X013014Y013032D01*
X012933Y013065D01*
X012872Y013127D01*
X012851Y013178D01*
X009955Y010282D01*
X010019Y010282D01*
X010044Y010307D01*
X010894Y010307D01*
X010903Y010316D01*
X010994Y010407D01*
X011844Y010407D01*
X011853Y010416D01*
X011853Y010416D01*
X011944Y010507D01*
X012794Y010507D01*
X012797Y010510D01*
X012783Y010515D01*
X012722Y010577D01*
X012688Y010658D01*
X012688Y010746D01*
X012688Y010680D02*
X010353Y010680D01*
X010254Y010581D02*
X012720Y010581D01*
X013069Y010852D02*
X013095Y010877D01*
X013117Y010932D01*
X013152Y010932D01*
X013233Y010965D01*
X013295Y011027D01*
X013328Y011108D01*
X013328Y011147D01*
X014894Y011147D01*
X015022Y011147D01*
X015172Y011297D01*
X017394Y011297D01*
X017522Y011297D01*
X017768Y011543D01*
X017738Y011471D01*
X017738Y011383D01*
X017772Y011302D01*
X017822Y011252D01*
X017772Y011201D01*
X017738Y011121D01*
X017738Y011033D01*
X017772Y010952D01*
X017772Y010951D01*
X017738Y010871D01*
X017738Y010783D01*
X017748Y010760D01*
X017594Y010607D01*
X014274Y010607D01*
X014295Y010627D01*
X014328Y010708D01*
X014328Y010796D01*
X014295Y010876D01*
X014233Y010938D01*
X014152Y010972D01*
X014064Y010972D01*
X013983Y010938D01*
X013922Y010876D01*
X013888Y010796D01*
X013888Y010708D01*
X013922Y010627D01*
X013942Y010607D01*
X013603Y010607D01*
X013603Y010671D01*
X013570Y010751D01*
X013508Y010813D01*
X013427Y010847D01*
X013339Y010847D01*
X013258Y010813D01*
X013258Y010813D01*
X013258Y010813D01*
X013177Y010847D01*
X013089Y010847D01*
X013079Y010842D01*
X013069Y010852D01*
X013094Y010877D02*
X013922Y010877D01*
X013888Y010779D02*
X013542Y010779D01*
X013599Y010680D02*
X013900Y010680D01*
X014316Y010680D02*
X017667Y010680D01*
X017740Y010779D02*
X015846Y010779D01*
X015833Y010765D02*
X015895Y010827D01*
X015928Y010908D01*
X015928Y010996D01*
X015895Y011076D01*
X015833Y011138D01*
X015752Y011172D01*
X015664Y011172D01*
X015583Y011138D01*
X015522Y011076D01*
X015488Y010996D01*
X015488Y010908D01*
X015522Y010827D01*
X015583Y010765D01*
X015664Y010732D01*
X015752Y010732D01*
X015833Y010765D01*
X015915Y010877D02*
X017741Y010877D01*
X017772Y010952D02*
X017772Y010952D01*
X017762Y010976D02*
X015928Y010976D01*
X015896Y011074D02*
X017738Y011074D01*
X017760Y011173D02*
X015048Y011173D01*
X015147Y011271D02*
X017803Y011271D01*
X017744Y011370D02*
X017595Y011370D01*
X017694Y011468D02*
X017738Y011468D01*
X017350Y011863D02*
X015167Y011863D01*
X014775Y011863D02*
X013778Y011863D01*
X013778Y011858D02*
X013778Y011946D01*
X013745Y012026D01*
X013683Y012088D01*
X013602Y012122D01*
X013514Y012122D01*
X013433Y012088D01*
X013372Y012026D01*
X013338Y011946D01*
X013338Y011858D01*
X013372Y011777D01*
X013433Y011715D01*
X013514Y011682D01*
X013602Y011682D01*
X013683Y011715D01*
X013745Y011777D01*
X013778Y011858D01*
X013772Y011961D02*
X015753Y011961D01*
X015654Y012060D02*
X014552Y012060D01*
X014570Y012077D02*
X014603Y012158D01*
X014603Y012246D01*
X014599Y012256D01*
X014645Y012302D01*
X014678Y012383D01*
X014678Y012471D01*
X014645Y012551D01*
X014583Y012613D01*
X014502Y012647D01*
X014414Y012647D01*
X014333Y012613D01*
X014272Y012551D01*
X014238Y012471D01*
X014238Y012383D01*
X014243Y012372D01*
X014197Y012326D01*
X014163Y012246D01*
X014163Y012158D01*
X014197Y012077D01*
X014258Y012015D01*
X014339Y011982D01*
X014427Y011982D01*
X014508Y012015D01*
X014570Y012077D01*
X014603Y012158D02*
X014801Y012158D01*
X014709Y012257D02*
X014599Y012257D01*
X014667Y012355D02*
X014688Y012355D01*
X014678Y012454D02*
X014712Y012454D01*
X014644Y012552D02*
X014817Y012552D01*
X014851Y012651D02*
X012324Y012651D01*
X012422Y012749D02*
X014866Y012749D01*
X014920Y012848D02*
X012521Y012848D01*
X012619Y012947D02*
X015067Y012947D01*
X015249Y012947D02*
X017117Y012947D01*
X016970Y012848D02*
X015396Y012848D01*
X015795Y012749D02*
X016916Y012749D01*
X016901Y012651D02*
X015879Y012651D01*
X015954Y012552D02*
X016917Y012552D01*
X017299Y012947D02*
X018347Y012947D01*
X018248Y013045D02*
X013134Y013045D01*
X012982Y013045D02*
X012718Y013045D01*
X012816Y013144D02*
X012865Y013144D01*
X013251Y013144D02*
X018150Y013144D01*
X018051Y013242D02*
X013278Y013242D01*
X012474Y013735D02*
X012237Y013735D01*
X012336Y013833D02*
X012573Y013833D01*
X012672Y013932D02*
X012434Y013932D01*
X012533Y014031D02*
X013168Y014031D01*
X013100Y014129D02*
X012613Y014129D01*
X012613Y014425D02*
X013328Y014425D01*
X013328Y014523D02*
X012613Y014523D01*
X012613Y014622D02*
X013328Y014622D01*
X013328Y014720D02*
X012938Y014720D01*
X013012Y014819D02*
X013328Y014819D01*
X013328Y014917D02*
X013028Y014917D01*
X012999Y015016D02*
X013328Y015016D01*
X013328Y015114D02*
X012903Y015114D01*
X012875Y015213D02*
X013328Y015213D01*
X013688Y015213D02*
X014163Y015213D01*
X014163Y015183D02*
X014163Y015271D01*
X014197Y015351D01*
X014258Y015413D01*
X014339Y015447D01*
X014427Y015447D01*
X014508Y015413D01*
X014570Y015351D01*
X014603Y015271D01*
X014603Y015183D01*
X014570Y015102D01*
X014508Y015040D01*
X014427Y015007D01*
X014339Y015007D01*
X014258Y015040D01*
X014197Y015102D01*
X014163Y015183D01*
X014192Y015114D02*
X013688Y015114D01*
X013688Y015064D02*
X013688Y015872D01*
X013834Y015872D01*
X013934Y015772D01*
X014083Y015772D01*
X014784Y015772D01*
X014884Y015672D01*
X015033Y015672D01*
X015734Y015672D01*
X015834Y015572D01*
X015983Y015572D01*
X016684Y015572D01*
X016784Y015472D01*
X016933Y015472D01*
X017634Y015472D01*
X017734Y015372D01*
X017883Y015372D01*
X018584Y015372D01*
X018684Y015272D01*
X018833Y015272D01*
X018934Y015272D01*
X019324Y014882D01*
X017898Y014882D01*
X017907Y014902D01*
X017907Y015001D01*
X017869Y015093D01*
X017799Y015163D01*
X017708Y015201D01*
X017609Y015201D01*
X017517Y015163D01*
X017447Y015093D01*
X017409Y015001D01*
X017409Y014902D01*
X017418Y014882D01*
X016442Y014882D01*
X016278Y014718D01*
X016050Y014489D01*
X015984Y014462D01*
X015898Y014376D01*
X015851Y014263D01*
X015851Y014141D01*
X015898Y014028D01*
X015969Y013957D01*
X014557Y013957D01*
X014578Y014008D01*
X014578Y014096D01*
X014545Y014176D01*
X014483Y014238D01*
X014428Y014261D01*
X014428Y014296D01*
X014395Y014376D01*
X014333Y014438D01*
X014252Y014472D01*
X014164Y014472D01*
X014083Y014438D01*
X014022Y014376D01*
X013988Y014296D01*
X013988Y014208D01*
X014022Y014127D01*
X014083Y014065D01*
X014138Y014043D01*
X014138Y014008D01*
X014159Y013957D01*
X013712Y013957D01*
X013712Y014047D01*
X013688Y014105D01*
X013688Y014540D01*
X013797Y014495D01*
X013919Y014495D01*
X014032Y014541D01*
X014118Y014628D01*
X014165Y014741D01*
X014165Y014863D01*
X014118Y014976D01*
X014032Y015062D01*
X013919Y015109D01*
X013797Y015109D01*
X013688Y015064D01*
X013688Y015312D02*
X014180Y015312D01*
X014255Y015410D02*
X013688Y015410D01*
X013688Y015509D02*
X016747Y015509D01*
X016858Y015652D02*
X016758Y015752D01*
X015908Y015752D01*
X015808Y015852D01*
X014958Y015852D01*
X014858Y015952D01*
X014008Y015952D01*
X013908Y016052D01*
X013508Y016052D01*
X013508Y014027D01*
X013483Y014002D01*
X013712Y014031D02*
X014138Y014031D01*
X014021Y014129D02*
X013688Y014129D01*
X013688Y014228D02*
X013988Y014228D01*
X014001Y014326D02*
X013688Y014326D01*
X013688Y014425D02*
X014070Y014425D01*
X013988Y014523D02*
X016084Y014523D01*
X016182Y014622D02*
X014112Y014622D01*
X014157Y014720D02*
X016281Y014720D01*
X016379Y014819D02*
X014165Y014819D01*
X014143Y014917D02*
X017409Y014917D01*
X017415Y015016D02*
X014449Y015016D01*
X014317Y015016D02*
X014078Y015016D01*
X014575Y015114D02*
X017469Y015114D01*
X017695Y015410D02*
X014511Y015410D01*
X014586Y015312D02*
X018644Y015312D01*
X018758Y015452D02*
X018658Y015552D01*
X017808Y015552D01*
X017708Y015652D01*
X016858Y015652D01*
X015798Y015607D02*
X013688Y015607D01*
X013688Y015706D02*
X014850Y015706D01*
X014603Y015213D02*
X018992Y015213D01*
X019091Y015114D02*
X017847Y015114D01*
X017901Y015016D02*
X019189Y015016D01*
X019288Y014917D02*
X017907Y014917D01*
X018184Y014322D02*
X019189Y014322D01*
X019159Y014251D01*
X019159Y014152D01*
X019197Y014061D01*
X019267Y013991D01*
X019359Y013953D01*
X019458Y013953D01*
X019549Y013991D01*
X019619Y014061D01*
X019657Y014152D01*
X019657Y014251D01*
X019643Y014284D01*
X019758Y014398D01*
X019758Y014447D01*
X019759Y014447D01*
X019908Y014447D01*
X019977Y014447D01*
X019983Y014440D01*
X020064Y014407D01*
X020128Y014407D01*
X020128Y014291D01*
X019894Y014057D01*
X019803Y013966D01*
X019803Y013857D01*
X019758Y013876D01*
X019659Y013876D01*
X019567Y013838D01*
X019497Y013768D01*
X019459Y013676D01*
X019459Y013577D01*
X019497Y013486D01*
X019567Y013416D01*
X019650Y013382D01*
X018845Y013382D01*
X018463Y013764D01*
X018270Y013957D01*
X018238Y013957D01*
X018238Y014268D01*
X018184Y014322D01*
X018238Y014228D02*
X019159Y014228D01*
X019169Y014129D02*
X018238Y014129D01*
X018238Y014031D02*
X019228Y014031D01*
X019588Y014031D02*
X019868Y014031D01*
X019803Y013932D02*
X018295Y013932D01*
X018393Y013833D02*
X019563Y013833D01*
X019484Y013735D02*
X018492Y013735D01*
X018463Y013764D02*
X018463Y013764D01*
X018590Y013636D02*
X019459Y013636D01*
X019476Y013538D02*
X018689Y013538D01*
X018787Y013439D02*
X019544Y013439D01*
X020113Y013439D02*
X020627Y013439D01*
X020725Y013341D02*
X020113Y013341D01*
X020113Y013266D02*
X020113Y013607D01*
X020177Y013607D01*
X020258Y013640D01*
X020320Y013702D01*
X020332Y013733D01*
X020844Y013222D01*
X020877Y013222D01*
X020908Y013190D01*
X020928Y013182D01*
X020928Y013066D01*
X020928Y013032D01*
X020913Y012996D01*
X020913Y012908D01*
X020924Y012882D01*
X020463Y012882D01*
X020413Y012882D01*
X020346Y012882D01*
X020378Y012958D01*
X020378Y013046D01*
X020345Y013126D01*
X020283Y013188D01*
X020202Y013222D01*
X020157Y013222D01*
X020113Y013266D01*
X020137Y013242D02*
X020824Y013242D01*
X020928Y013144D02*
X020327Y013144D01*
X020378Y013045D02*
X020928Y013045D01*
X020913Y012947D02*
X020373Y012947D01*
X020528Y013538D02*
X020113Y013538D01*
X020248Y013636D02*
X020429Y013636D01*
X019966Y014129D02*
X019647Y014129D01*
X019657Y014228D02*
X020065Y014228D01*
X020128Y014326D02*
X019686Y014326D01*
X019758Y014425D02*
X020021Y014425D01*
X020108Y014627D02*
X019833Y014627D01*
X019008Y015452D01*
X018758Y015452D01*
X020082Y016297D02*
X021178Y016297D01*
X021178Y016198D02*
X020181Y016198D01*
X020279Y016100D02*
X021178Y016100D01*
X021178Y016001D02*
X020378Y016001D01*
X020476Y015903D02*
X021178Y015903D01*
X021178Y015804D02*
X020575Y015804D01*
X020673Y015706D02*
X021178Y015706D01*
X021178Y015607D02*
X020772Y015607D01*
X020870Y015509D02*
X021178Y015509D01*
X021178Y015410D02*
X020969Y015410D01*
X021068Y015312D02*
X021252Y015312D01*
X021178Y015386D02*
X021342Y015222D01*
X021342Y015222D01*
X021888Y014676D01*
X021858Y014663D01*
X021858Y014663D01*
X021858Y014663D01*
X021777Y014697D01*
X021689Y014697D01*
X021682Y014694D01*
X021688Y014708D01*
X021688Y014796D01*
X021655Y014876D01*
X021593Y014938D01*
X021512Y014972D01*
X021424Y014972D01*
X021351Y014941D01*
X021277Y014972D01*
X021189Y014972D01*
X021138Y014951D01*
X021138Y015113D01*
X021138Y015241D01*
X019988Y016391D01*
X019988Y016430D01*
X020009Y016451D01*
X020063Y016397D01*
X020253Y016397D01*
X020258Y016402D01*
X020287Y016402D01*
X020537Y016652D01*
X020630Y016652D01*
X020609Y016601D01*
X020609Y016502D01*
X020647Y016411D01*
X020717Y016341D01*
X020809Y016303D01*
X020908Y016303D01*
X020999Y016341D01*
X021069Y016411D01*
X021107Y016502D01*
X021107Y016601D01*
X021086Y016652D01*
X021178Y016652D01*
X021178Y015386D01*
X021138Y015213D02*
X021351Y015213D01*
X021450Y015114D02*
X021138Y015114D01*
X021138Y015016D02*
X021548Y015016D01*
X021614Y014917D02*
X021647Y014917D01*
X021678Y014819D02*
X021745Y014819D01*
X021688Y014720D02*
X021844Y014720D01*
X022241Y015114D02*
X022560Y015114D01*
X022547Y015101D02*
X022513Y015021D01*
X022513Y014933D01*
X022547Y014852D01*
X022608Y014790D01*
X022689Y014757D01*
X022777Y014757D01*
X022858Y014790D01*
X022858Y014791D01*
X022858Y014790D01*
X022939Y014757D01*
X023027Y014757D01*
X023108Y014790D01*
X023133Y014816D01*
X023158Y014790D01*
X023239Y014757D01*
X023327Y014757D01*
X023408Y014790D01*
X023470Y014852D01*
X023503Y014933D01*
X023503Y015021D01*
X023470Y015101D01*
X023408Y015163D01*
X023327Y015197D01*
X023239Y015197D01*
X023158Y015163D01*
X023133Y015138D01*
X023108Y015163D01*
X023027Y015197D01*
X022939Y015197D01*
X022858Y015163D01*
X022858Y015163D01*
X022858Y015163D01*
X022777Y015197D01*
X022689Y015197D01*
X022608Y015163D01*
X022547Y015101D01*
X022513Y015016D02*
X022340Y015016D01*
X022439Y014917D02*
X022520Y014917D01*
X022537Y014819D02*
X022580Y014819D01*
X022636Y014720D02*
X025590Y014720D01*
X025572Y014701D02*
X025633Y014763D01*
X025688Y014786D01*
X025688Y014796D01*
X025722Y014876D01*
X025783Y014938D01*
X025864Y014972D01*
X025952Y014972D01*
X025963Y014967D01*
X026008Y015013D01*
X026038Y015026D01*
X026038Y015096D01*
X026039Y015097D01*
X024749Y015097D01*
X024499Y014847D01*
X024428Y014847D01*
X024383Y014828D01*
X024284Y014828D01*
X024238Y014847D01*
X024238Y014847D01*
X024237Y014847D01*
X024192Y014866D01*
X024122Y014936D01*
X024104Y014981D01*
X024103Y014982D01*
X024103Y014982D01*
X024084Y015027D01*
X024084Y015126D01*
X024103Y015172D01*
X024103Y015243D01*
X024353Y015493D01*
X024517Y015657D01*
X026084Y015657D01*
X025244Y016497D01*
X023038Y016497D01*
X023002Y016482D01*
X022914Y016482D01*
X022833Y016515D01*
X022772Y016577D01*
X022738Y016658D01*
X022738Y016746D01*
X022772Y016826D01*
X022833Y016888D01*
X022296Y016888D01*
X022302Y016882D02*
X022238Y016946D01*
X022154Y016981D01*
X022063Y016981D01*
X021978Y016946D01*
X021914Y016882D01*
X021879Y016797D01*
X021879Y016706D01*
X021914Y016622D01*
X021978Y016558D01*
X022063Y016523D01*
X022154Y016523D01*
X022238Y016558D01*
X022302Y016622D01*
X022337Y016706D01*
X022337Y016797D01*
X022302Y016882D01*
X022337Y016790D02*
X022756Y016790D01*
X022738Y016691D02*
X022331Y016691D01*
X022273Y016593D02*
X022765Y016593D01*
X022885Y016494D02*
X021738Y016494D01*
X021738Y016396D02*
X025345Y016396D01*
X025247Y016494D02*
X023031Y016494D01*
X023153Y016807D02*
X023145Y016826D01*
X023083Y016888D01*
X024223Y016888D01*
X024213Y016913D02*
X024247Y016832D01*
X024272Y016807D01*
X023153Y016807D01*
X023083Y016888D02*
X023002Y016922D01*
X022914Y016922D01*
X022833Y016888D01*
X021921Y016888D02*
X021738Y016888D01*
X021738Y016868D02*
X021738Y015618D01*
X023138Y014218D01*
X023138Y013986D01*
X023138Y013153D01*
X023192Y013207D01*
X023263Y013207D01*
X023263Y013271D01*
X023268Y013281D01*
X023222Y013327D01*
X023188Y013408D01*
X023188Y013496D01*
X023222Y013576D01*
X023283Y013638D01*
X023364Y013672D01*
X023443Y013672D01*
X023438Y013683D01*
X023438Y013771D01*
X023472Y013851D01*
X023533Y013913D01*
X023614Y013947D01*
X023695Y013947D01*
X023697Y013951D01*
X023758Y014013D01*
X023839Y014047D01*
X023920Y014047D01*
X023922Y014051D01*
X023983Y014113D01*
X024064Y014147D01*
X024145Y014147D01*
X024147Y014151D01*
X024208Y014213D01*
X024289Y014247D01*
X024377Y014247D01*
X024405Y014235D01*
X024433Y014263D01*
X024514Y014297D01*
X024602Y014297D01*
X024630Y014285D01*
X024658Y014313D01*
X024713Y014336D01*
X024713Y014371D01*
X024747Y014451D01*
X024808Y014513D01*
X024889Y014547D01*
X024977Y014547D01*
X025058Y014513D01*
X025120Y014451D01*
X025153Y014371D01*
X025153Y014283D01*
X025148Y014272D01*
X025202Y014272D01*
X025283Y014238D01*
X025329Y014192D01*
X025339Y014197D01*
X025427Y014197D01*
X025508Y014163D01*
X025558Y014113D01*
X025588Y014143D01*
X025533Y014165D01*
X025472Y014227D01*
X025438Y014308D01*
X025438Y014396D01*
X025472Y014476D01*
X025533Y014538D01*
X025538Y014540D01*
X025538Y014621D01*
X025572Y014701D01*
X025539Y014622D02*
X022734Y014622D01*
X022833Y014523D02*
X024832Y014523D01*
X024736Y014425D02*
X022931Y014425D01*
X023030Y014326D02*
X024689Y014326D01*
X025034Y014523D02*
X025518Y014523D01*
X025450Y014425D02*
X025131Y014425D01*
X025153Y014326D02*
X025438Y014326D01*
X025471Y014228D02*
X025293Y014228D01*
X025542Y014129D02*
X025574Y014129D01*
X025698Y014819D02*
X023436Y014819D01*
X023497Y014917D02*
X024141Y014917D01*
X024089Y015016D02*
X023503Y015016D01*
X023457Y015114D02*
X024084Y015114D01*
X024103Y015213D02*
X022143Y015213D01*
X022044Y015312D02*
X024172Y015312D01*
X024270Y015410D02*
X021946Y015410D01*
X021847Y015509D02*
X024369Y015509D01*
X024467Y015607D02*
X021749Y015607D01*
X021738Y015706D02*
X026035Y015706D01*
X025936Y015804D02*
X021738Y015804D01*
X021738Y015903D02*
X025838Y015903D01*
X025739Y016001D02*
X021738Y016001D01*
X021738Y016100D02*
X025641Y016100D01*
X025542Y016198D02*
X021738Y016198D01*
X021738Y016297D02*
X025444Y016297D01*
X025835Y016494D02*
X026284Y016494D01*
X026298Y016461D02*
X026417Y016341D01*
X026574Y016277D01*
X026743Y016277D01*
X026899Y016341D01*
X027019Y016461D01*
X027083Y016617D01*
X027083Y016786D01*
X027019Y016943D01*
X026959Y017002D01*
X027357Y017002D01*
X027298Y016943D01*
X027233Y016786D01*
X027233Y016617D01*
X027298Y016461D01*
X027417Y016341D01*
X027574Y016277D01*
X027743Y016277D01*
X027829Y016312D01*
X028234Y015907D01*
X026888Y015907D01*
X026907Y015952D01*
X026907Y016051D01*
X026869Y016143D01*
X026799Y016213D01*
X026708Y016251D01*
X026609Y016251D01*
X026517Y016213D01*
X026447Y016143D01*
X026409Y016051D01*
X026409Y015952D01*
X026428Y015907D01*
X026422Y015907D01*
X025468Y016861D01*
X025487Y016906D01*
X025487Y016997D01*
X025485Y017002D01*
X025531Y017002D01*
X025529Y016997D01*
X025529Y016906D01*
X025564Y016822D01*
X025628Y016758D01*
X025713Y016723D01*
X025804Y016723D01*
X025888Y016758D01*
X025952Y016822D01*
X025987Y016906D01*
X025987Y016997D01*
X025985Y017002D01*
X026357Y017002D01*
X026298Y016943D01*
X026233Y016786D01*
X026233Y016617D01*
X026298Y016461D01*
X026363Y016396D02*
X025934Y016396D01*
X026032Y016297D02*
X026524Y016297D01*
X026503Y016198D02*
X026131Y016198D01*
X026229Y016100D02*
X026430Y016100D01*
X026409Y016001D02*
X026328Y016001D01*
X026813Y016198D02*
X027942Y016198D01*
X028041Y016100D02*
X026887Y016100D01*
X026907Y016001D02*
X028139Y016001D01*
X028381Y016198D02*
X029643Y016198D01*
X029645Y016200D02*
X029564Y016119D01*
X029520Y016013D01*
X029520Y015899D01*
X029559Y015807D01*
X028772Y015807D01*
X028048Y016531D01*
X028083Y016617D01*
X028083Y016786D01*
X028019Y016943D01*
X027959Y017002D01*
X028357Y017002D01*
X028298Y016943D01*
X028233Y016786D01*
X028233Y016617D01*
X028298Y016461D01*
X028417Y016341D01*
X028574Y016277D01*
X028743Y016277D01*
X028899Y016341D01*
X029019Y016461D01*
X029083Y016617D01*
X029083Y016786D01*
X029019Y016943D01*
X028959Y017002D01*
X029357Y017002D01*
X029298Y016943D01*
X029233Y016786D01*
X029233Y016617D01*
X029298Y016461D01*
X029417Y016341D01*
X029574Y016277D01*
X029743Y016277D01*
X029899Y016341D01*
X030019Y016461D01*
X030083Y016617D01*
X030083Y016786D01*
X030019Y016943D01*
X029959Y017002D01*
X030357Y017002D01*
X030298Y016943D01*
X030233Y016786D01*
X030233Y016617D01*
X030298Y016461D01*
X030417Y016341D01*
X030574Y016277D01*
X030743Y016277D01*
X030899Y016341D01*
X030946Y016389D01*
X030972Y016327D01*
X031033Y016265D01*
X031114Y016232D01*
X031202Y016232D01*
X031283Y016265D01*
X031345Y016327D01*
X031370Y016389D01*
X031417Y016341D01*
X031574Y016277D01*
X031743Y016277D01*
X031899Y016341D01*
X032019Y016461D01*
X032083Y016617D01*
X032083Y016786D01*
X032019Y016943D01*
X031959Y017002D01*
X032357Y017002D01*
X032298Y016943D01*
X032233Y016786D01*
X032233Y016617D01*
X032298Y016461D01*
X032402Y016357D01*
X032344Y016357D01*
X032253Y016266D01*
X031794Y015807D01*
X030058Y015807D01*
X030096Y015899D01*
X030096Y016013D01*
X030052Y016119D01*
X029971Y016200D01*
X029865Y016244D01*
X029751Y016244D01*
X029645Y016200D01*
X029556Y016100D02*
X028479Y016100D01*
X028578Y016001D02*
X029520Y016001D01*
X029520Y015903D02*
X028676Y015903D01*
X028792Y016297D02*
X029524Y016297D01*
X029363Y016396D02*
X028953Y016396D01*
X029032Y016494D02*
X029284Y016494D01*
X029243Y016593D02*
X029073Y016593D01*
X029083Y016691D02*
X029233Y016691D01*
X029234Y016790D02*
X029082Y016790D01*
X029041Y016888D02*
X029275Y016888D01*
X029342Y016987D02*
X028975Y016987D01*
X028342Y016987D02*
X027975Y016987D01*
X028041Y016888D02*
X028275Y016888D01*
X028234Y016790D02*
X028082Y016790D01*
X028083Y016691D02*
X028233Y016691D01*
X028243Y016593D02*
X028073Y016593D01*
X028085Y016494D02*
X028284Y016494D01*
X028363Y016396D02*
X028184Y016396D01*
X028282Y016297D02*
X028524Y016297D01*
X027844Y016297D02*
X027792Y016297D01*
X027524Y016297D02*
X026792Y016297D01*
X026953Y016396D02*
X027363Y016396D01*
X027284Y016494D02*
X027032Y016494D01*
X027073Y016593D02*
X027243Y016593D01*
X027233Y016691D02*
X027083Y016691D01*
X027082Y016790D02*
X027234Y016790D01*
X027275Y016888D02*
X027041Y016888D01*
X026975Y016987D02*
X027342Y016987D01*
X026342Y016987D02*
X025987Y016987D01*
X025980Y016888D02*
X026275Y016888D01*
X026234Y016790D02*
X025920Y016790D01*
X025736Y016593D02*
X026243Y016593D01*
X026233Y016691D02*
X025638Y016691D01*
X025596Y016790D02*
X025539Y016790D01*
X025536Y016888D02*
X025480Y016888D01*
X025487Y016987D02*
X025529Y016987D01*
X024214Y017002D02*
X024213Y017001D01*
X024213Y016913D01*
X024213Y016987D02*
X021738Y016987D01*
X021738Y017002D02*
X024214Y017002D01*
X021943Y016593D02*
X021738Y016593D01*
X021738Y016691D02*
X021885Y016691D01*
X021879Y016790D02*
X021738Y016790D01*
X021738Y016868D02*
X021738Y017002D01*
X021178Y016593D02*
X021107Y016593D01*
X021103Y016494D02*
X021178Y016494D01*
X021178Y016396D02*
X021054Y016396D01*
X020663Y016396D02*
X019988Y016396D01*
X020379Y016494D02*
X020613Y016494D01*
X020609Y016593D02*
X020477Y016593D01*
X019328Y016430D02*
X019328Y016365D01*
X019336Y016357D01*
X019172Y016357D01*
X019088Y016441D01*
X019088Y016689D01*
X019083Y016693D01*
X019083Y016786D01*
X019019Y016943D01*
X018959Y017002D01*
X019357Y017002D01*
X019298Y016943D01*
X019233Y016786D01*
X019233Y016617D01*
X019298Y016461D01*
X019328Y016430D01*
X019328Y016396D02*
X019134Y016396D01*
X019088Y016494D02*
X019284Y016494D01*
X019243Y016593D02*
X019088Y016593D01*
X019085Y016691D02*
X019233Y016691D01*
X019234Y016790D02*
X019082Y016790D01*
X019041Y016888D02*
X019275Y016888D01*
X019342Y016987D02*
X018975Y016987D01*
X018357Y017002D02*
X018298Y016943D01*
X018233Y016786D01*
X018233Y016617D01*
X018298Y016461D01*
X018402Y016357D01*
X018172Y016357D01*
X018088Y016441D01*
X018088Y016689D01*
X018083Y016693D01*
X018083Y016786D01*
X018019Y016943D01*
X017959Y017002D01*
X018357Y017002D01*
X018342Y016987D02*
X017975Y016987D01*
X018041Y016888D02*
X018275Y016888D01*
X018234Y016790D02*
X018082Y016790D01*
X018085Y016691D02*
X018233Y016691D01*
X018243Y016593D02*
X018088Y016593D01*
X018088Y016494D02*
X018284Y016494D01*
X018363Y016396D02*
X018134Y016396D01*
X017402Y016357D02*
X017172Y016357D01*
X017088Y016441D01*
X017088Y016689D01*
X017083Y016693D01*
X017083Y016786D01*
X017019Y016943D01*
X016959Y017002D01*
X017357Y017002D01*
X017298Y016943D01*
X017233Y016786D01*
X017233Y016617D01*
X017298Y016461D01*
X017402Y016357D01*
X017363Y016396D02*
X017134Y016396D01*
X017088Y016494D02*
X017284Y016494D01*
X017243Y016593D02*
X017088Y016593D01*
X017085Y016691D02*
X017233Y016691D01*
X017234Y016790D02*
X017082Y016790D01*
X017041Y016888D02*
X017275Y016888D01*
X017342Y016987D02*
X016975Y016987D01*
X016357Y017002D02*
X016298Y016943D01*
X016233Y016786D01*
X016233Y016617D01*
X016298Y016461D01*
X016402Y016357D01*
X016172Y016357D01*
X016088Y016441D01*
X016088Y016689D01*
X016083Y016693D01*
X016083Y016786D01*
X016019Y016943D01*
X015959Y017002D01*
X016357Y017002D01*
X016342Y016987D02*
X015975Y016987D01*
X016041Y016888D02*
X016275Y016888D01*
X016234Y016790D02*
X016082Y016790D01*
X016085Y016691D02*
X016233Y016691D01*
X016243Y016593D02*
X016088Y016593D01*
X016088Y016494D02*
X016284Y016494D01*
X016363Y016396D02*
X016134Y016396D01*
X015402Y016357D02*
X015172Y016357D01*
X015088Y016441D01*
X015088Y016689D01*
X015083Y016693D01*
X015083Y016786D01*
X015019Y016943D01*
X014959Y017002D01*
X015357Y017002D01*
X015298Y016943D01*
X015233Y016786D01*
X015233Y016617D01*
X015298Y016461D01*
X015402Y016357D01*
X015363Y016396D02*
X015134Y016396D01*
X015088Y016494D02*
X015284Y016494D01*
X015243Y016593D02*
X015088Y016593D01*
X015085Y016691D02*
X015233Y016691D01*
X015234Y016790D02*
X015082Y016790D01*
X015041Y016888D02*
X015275Y016888D01*
X015342Y016987D02*
X014975Y016987D01*
X014357Y017002D02*
X014298Y016943D01*
X014233Y016786D01*
X014233Y016617D01*
X014298Y016461D01*
X014402Y016357D01*
X014172Y016357D01*
X014088Y016441D01*
X014088Y016689D01*
X014083Y016693D01*
X014083Y016786D01*
X014019Y016943D01*
X013959Y017002D01*
X014357Y017002D01*
X014342Y016987D02*
X013975Y016987D01*
X014041Y016888D02*
X014275Y016888D01*
X014234Y016790D02*
X014082Y016790D01*
X014085Y016691D02*
X014233Y016691D01*
X014243Y016593D02*
X014088Y016593D01*
X014088Y016494D02*
X014284Y016494D01*
X014363Y016396D02*
X014134Y016396D01*
X013508Y016052D02*
X012208Y016052D01*
X011758Y016502D01*
X012088Y016494D02*
X012284Y016494D01*
X012298Y016461D02*
X012417Y016341D01*
X012562Y016281D01*
X012611Y016232D01*
X012283Y016232D01*
X012088Y016426D01*
X012088Y016639D01*
X012083Y016643D01*
X012083Y016786D01*
X012019Y016943D01*
X011959Y017002D01*
X012357Y017002D01*
X012298Y016943D01*
X012233Y016786D01*
X012233Y016617D01*
X012298Y016461D01*
X012363Y016396D02*
X012119Y016396D01*
X012217Y016297D02*
X012524Y016297D01*
X012103Y015903D02*
X006358Y015903D01*
X006358Y016001D02*
X012004Y016001D01*
X011906Y016100D02*
X006358Y016100D01*
X006358Y016198D02*
X011595Y016198D01*
X011496Y016297D02*
X010792Y016297D01*
X010953Y016396D02*
X011363Y016396D01*
X011284Y016494D02*
X011032Y016494D01*
X011073Y016593D02*
X011243Y016593D01*
X011233Y016691D02*
X011083Y016691D01*
X011082Y016790D02*
X011234Y016790D01*
X011275Y016888D02*
X011041Y016888D01*
X010975Y016987D02*
X011342Y016987D01*
X011975Y016987D02*
X012342Y016987D01*
X012275Y016888D02*
X012041Y016888D01*
X012082Y016790D02*
X012234Y016790D01*
X012233Y016691D02*
X012083Y016691D01*
X012088Y016593D02*
X012243Y016593D01*
X012959Y017002D02*
X013357Y017002D01*
X013298Y016943D01*
X013233Y016786D01*
X013233Y016617D01*
X013298Y016461D01*
X013402Y016357D01*
X013172Y016357D01*
X013088Y016441D01*
X013088Y016689D01*
X013083Y016693D01*
X013083Y016786D01*
X013019Y016943D01*
X012959Y017002D01*
X012975Y016987D02*
X013342Y016987D01*
X013275Y016888D02*
X013041Y016888D01*
X013082Y016790D02*
X013234Y016790D01*
X013233Y016691D02*
X013085Y016691D01*
X013088Y016593D02*
X013243Y016593D01*
X013284Y016494D02*
X013088Y016494D01*
X013134Y016396D02*
X013363Y016396D01*
X013328Y015804D02*
X006358Y015804D01*
X006358Y015706D02*
X013328Y015706D01*
X013688Y015804D02*
X013901Y015804D01*
X012679Y014720D02*
X012613Y014720D01*
X013122Y014326D02*
X013088Y014246D01*
X013688Y014523D02*
X013728Y014523D01*
X014346Y014425D02*
X015947Y014425D01*
X015877Y014326D02*
X014415Y014326D01*
X014493Y014228D02*
X015851Y014228D01*
X015856Y014129D02*
X014564Y014129D01*
X014578Y014031D02*
X015897Y014031D01*
X017446Y012848D02*
X018445Y012848D01*
X017500Y012749D02*
X019540Y012749D01*
X019638Y012651D02*
X017515Y012651D01*
X018357Y012072D02*
X019938Y012072D01*
X019938Y012008D01*
X019972Y011927D01*
X020033Y011865D01*
X020114Y011832D01*
X020202Y011832D01*
X020283Y011865D01*
X020345Y011927D01*
X020378Y012008D01*
X020378Y012072D01*
X020692Y012072D01*
X020778Y011986D01*
X020870Y011894D01*
X020862Y011886D01*
X020828Y011806D01*
X020828Y011718D01*
X020862Y011637D01*
X020923Y011575D01*
X021004Y011542D01*
X021092Y011542D01*
X021163Y011571D01*
X021234Y011542D01*
X021322Y011542D01*
X021403Y011575D01*
X021465Y011637D01*
X021498Y011718D01*
X021498Y011806D01*
X021491Y011822D01*
X021992Y011822D01*
X022128Y011686D01*
X022292Y011522D01*
X022645Y011522D01*
X022613Y011446D01*
X022613Y011358D01*
X022647Y011277D01*
X022692Y011232D01*
X022040Y011232D01*
X022057Y011272D01*
X022057Y011371D01*
X022019Y011463D01*
X021949Y011533D01*
X021858Y011571D01*
X021759Y011571D01*
X021667Y011533D01*
X021597Y011463D01*
X021559Y011371D01*
X021559Y011272D01*
X021576Y011232D01*
X021453Y011232D01*
X021203Y011482D01*
X021013Y011482D01*
X020053Y011482D01*
X019938Y011597D01*
X019919Y011643D01*
X019849Y011713D01*
X019804Y011731D01*
X019803Y011732D01*
X019758Y011751D01*
X019659Y011751D01*
X019613Y011732D01*
X019612Y011731D01*
X019567Y011713D01*
X019497Y011643D01*
X019479Y011597D01*
X019478Y011597D01*
X019478Y011597D01*
X019459Y011551D01*
X019459Y011452D01*
X019478Y011407D01*
X019478Y011407D01*
X019479Y011406D01*
X019497Y011361D01*
X019567Y011291D01*
X019612Y011272D01*
X019703Y011182D01*
X019247Y011182D01*
X018357Y012072D01*
X018369Y012060D02*
X019938Y012060D01*
X019958Y011961D02*
X018468Y011961D01*
X018567Y011863D02*
X020040Y011863D01*
X020276Y011863D02*
X020852Y011863D01*
X020828Y011764D02*
X018665Y011764D01*
X018764Y011665D02*
X019520Y011665D01*
X019466Y011567D02*
X018862Y011567D01*
X018961Y011468D02*
X019459Y011468D01*
X019494Y011370D02*
X019059Y011370D01*
X019158Y011271D02*
X019613Y011271D01*
X019968Y011567D02*
X020944Y011567D01*
X020850Y011665D02*
X019896Y011665D01*
X019803Y011732D02*
X019803Y011732D01*
X019613Y011732D02*
X019613Y011732D01*
X020359Y011961D02*
X020803Y011961D01*
X020704Y012060D02*
X020378Y012060D01*
X021152Y011567D02*
X021174Y011567D01*
X021217Y011468D02*
X021603Y011468D01*
X021559Y011370D02*
X021315Y011370D01*
X021414Y011271D02*
X021560Y011271D01*
X021382Y011567D02*
X021750Y011567D01*
X021866Y011567D02*
X022247Y011567D01*
X022149Y011665D02*
X021476Y011665D01*
X021498Y011764D02*
X022050Y011764D01*
X022013Y011468D02*
X022623Y011468D01*
X022613Y011370D02*
X022057Y011370D01*
X022056Y011271D02*
X022653Y011271D01*
X023078Y010772D02*
X023268Y010772D01*
X023528Y011032D01*
X024253Y011032D01*
X025423Y011032D01*
X025613Y011032D01*
X025878Y011297D01*
X026153Y011572D01*
X027213Y011572D01*
X027339Y011572D01*
X027338Y011571D01*
X027338Y011483D01*
X027372Y011402D01*
X027433Y011340D01*
X027514Y011307D01*
X027602Y011307D01*
X027683Y011340D01*
X027700Y011358D01*
X027717Y011341D01*
X027809Y011303D01*
X027908Y011303D01*
X027999Y011341D01*
X028069Y011411D01*
X028107Y011502D01*
X028107Y011601D01*
X028069Y011693D01*
X027999Y011763D01*
X027908Y011801D01*
X027809Y011801D01*
X027717Y011763D01*
X027672Y011718D01*
X027602Y011747D01*
X027578Y011747D01*
X027653Y011822D01*
X027788Y011957D01*
X027788Y012098D01*
X027818Y012128D01*
X027865Y012241D01*
X027865Y012363D01*
X027818Y012476D01*
X027732Y012562D01*
X027619Y012609D01*
X027497Y012609D01*
X027384Y012562D01*
X027346Y012525D01*
X027333Y012538D01*
X027252Y012572D01*
X027164Y012572D01*
X027083Y012538D01*
X027022Y012476D01*
X026988Y012396D01*
X026988Y012308D01*
X027022Y012227D01*
X026997Y012201D01*
X026963Y012121D01*
X026963Y012033D01*
X026964Y012032D01*
X026478Y012032D01*
X026478Y012096D01*
X026445Y012176D01*
X026383Y012238D01*
X026378Y012240D01*
X026378Y012321D01*
X026345Y012401D01*
X026283Y012463D01*
X026202Y012497D01*
X026114Y012497D01*
X026033Y012463D01*
X026016Y012445D01*
X025967Y012465D01*
X026088Y012586D01*
X026133Y012540D01*
X026214Y012507D01*
X026302Y012507D01*
X026383Y012540D01*
X026445Y012602D01*
X026478Y012683D01*
X026478Y012771D01*
X026445Y012851D01*
X026399Y012897D01*
X026499Y012997D01*
X026989Y012997D01*
X026988Y012996D01*
X026988Y012908D01*
X027022Y012827D01*
X027083Y012765D01*
X027164Y012732D01*
X027252Y012732D01*
X027333Y012765D01*
X027333Y012766D01*
X027333Y012765D01*
X027414Y012732D01*
X027502Y012732D01*
X027583Y012765D01*
X027645Y012827D01*
X027678Y012908D01*
X027678Y012996D01*
X027678Y012997D01*
X028592Y012997D01*
X028807Y012782D01*
X028723Y012782D01*
X028565Y012716D01*
X028444Y012595D01*
X028378Y012437D01*
X028378Y012266D01*
X028444Y012108D01*
X028565Y011987D01*
X028723Y011922D01*
X028894Y011922D01*
X029052Y011987D01*
X029173Y012108D01*
X029238Y012266D01*
X029238Y012351D01*
X029378Y012211D01*
X029542Y012047D01*
X029863Y012047D01*
X029863Y011983D01*
X029897Y011902D01*
X029958Y011840D01*
X030039Y011807D01*
X030127Y011807D01*
X030208Y011840D01*
X030270Y011902D01*
X030303Y011983D01*
X030303Y012047D01*
X031860Y012047D01*
X031955Y011952D01*
X032054Y011952D01*
X033678Y010327D01*
X033784Y010222D01*
X034414Y010222D01*
X034428Y010208D01*
X034513Y010173D01*
X034604Y010173D01*
X034688Y010208D01*
X034711Y010230D01*
X034714Y010222D01*
X034778Y010158D01*
X034863Y010123D01*
X034954Y010123D01*
X035038Y010158D01*
X035077Y010197D01*
X035472Y010197D01*
X035563Y010288D01*
X035958Y010683D01*
X035958Y010003D01*
X035899Y010062D01*
X035743Y010127D01*
X035574Y010127D01*
X035417Y010062D01*
X035298Y009943D01*
X035233Y009786D01*
X035233Y009617D01*
X035298Y009461D01*
X035357Y009402D01*
X034959Y009402D01*
X035019Y009461D01*
X035083Y009617D01*
X035083Y009786D01*
X035019Y009943D01*
X034899Y010062D01*
X034743Y010127D01*
X034574Y010127D01*
X034417Y010062D01*
X034298Y009943D01*
X034233Y009786D01*
X034233Y009617D01*
X034298Y009461D01*
X034357Y009402D01*
X033959Y009402D01*
X034019Y009461D01*
X034083Y009617D01*
X034083Y009786D01*
X034019Y009943D01*
X033899Y010062D01*
X033743Y010127D01*
X033574Y010127D01*
X033417Y010062D01*
X033298Y009943D01*
X033233Y009786D01*
X033233Y009617D01*
X033298Y009461D01*
X033357Y009402D01*
X032959Y009402D01*
X033019Y009461D01*
X033083Y009617D01*
X033083Y009786D01*
X033019Y009943D01*
X032899Y010062D01*
X032743Y010127D01*
X032574Y010127D01*
X032417Y010062D01*
X032298Y009943D01*
X032233Y009786D01*
X032233Y009617D01*
X032298Y009461D01*
X032357Y009402D01*
X031959Y009402D01*
X032019Y009461D01*
X032083Y009617D01*
X032083Y009786D01*
X032019Y009943D01*
X031899Y010062D01*
X031743Y010127D01*
X031574Y010127D01*
X031417Y010062D01*
X031298Y009943D01*
X031233Y009786D01*
X031233Y009617D01*
X031298Y009461D01*
X031357Y009402D01*
X030959Y009402D01*
X031019Y009461D01*
X031083Y009617D01*
X031083Y009786D01*
X031019Y009943D01*
X030899Y010062D01*
X030743Y010127D01*
X030574Y010127D01*
X030417Y010062D01*
X030298Y009943D01*
X030233Y009786D01*
X030233Y009617D01*
X030298Y009461D01*
X030357Y009402D01*
X029959Y009402D01*
X030019Y009461D01*
X030083Y009617D01*
X030083Y009786D01*
X030019Y009943D01*
X029899Y010062D01*
X029743Y010127D01*
X029574Y010127D01*
X029417Y010062D01*
X029298Y009943D01*
X029233Y009786D01*
X029233Y009617D01*
X029298Y009461D01*
X029357Y009402D01*
X028959Y009402D01*
X029019Y009461D01*
X029083Y009617D01*
X029083Y009786D01*
X029019Y009943D01*
X028899Y010062D01*
X028754Y010122D01*
X028695Y010182D01*
X028447Y010182D01*
X028432Y010197D01*
X029269Y010197D01*
X029397Y010197D01*
X029407Y010207D01*
X029452Y010207D01*
X029533Y010240D01*
X029570Y010278D01*
X029645Y010204D01*
X029751Y010160D01*
X029865Y010160D01*
X029971Y010204D01*
X030052Y010285D01*
X030096Y010390D01*
X030096Y010485D01*
X030164Y010457D01*
X030252Y010457D01*
X030333Y010490D01*
X030395Y010552D01*
X030428Y010633D01*
X030428Y010721D01*
X030414Y010756D01*
X030469Y010811D01*
X030507Y010902D01*
X030507Y011001D01*
X030469Y011093D01*
X030414Y011148D01*
X030428Y011183D01*
X030428Y011271D01*
X032734Y011271D01*
X032833Y011173D02*
X030424Y011173D01*
X030428Y011271D02*
X030395Y011351D01*
X030333Y011413D01*
X030252Y011447D01*
X030164Y011447D01*
X030083Y011413D01*
X030022Y011351D01*
X030021Y011350D01*
X029971Y011400D01*
X029865Y011444D01*
X029751Y011444D01*
X029645Y011400D01*
X029564Y011319D01*
X029520Y011213D01*
X029520Y011099D01*
X029564Y010993D01*
X029645Y010912D01*
X029751Y010868D01*
X029865Y010868D01*
X029971Y010912D01*
X030009Y010951D01*
X030009Y010902D01*
X030043Y010822D01*
X030022Y010801D01*
X029988Y010721D01*
X029988Y010674D01*
X029971Y010691D01*
X029865Y010735D01*
X029751Y010735D01*
X029645Y010691D01*
X029564Y010611D01*
X029556Y010590D01*
X029533Y010613D01*
X029452Y010647D01*
X029364Y010647D01*
X029283Y010613D01*
X029222Y010551D01*
X029203Y010507D01*
X025844Y010507D01*
X025753Y010416D01*
X025544Y010207D01*
X023722Y010207D01*
X023372Y010557D01*
X023244Y010557D01*
X021722Y010557D01*
X021507Y010772D01*
X023078Y010772D01*
X023275Y010779D02*
X030012Y010779D01*
X030020Y010877D02*
X029886Y010877D01*
X029730Y010877D02*
X023374Y010877D01*
X023472Y010976D02*
X029582Y010976D01*
X029531Y011074D02*
X025656Y011074D01*
X025754Y011173D02*
X029520Y011173D01*
X029544Y011271D02*
X025853Y011271D01*
X025951Y011370D02*
X027404Y011370D01*
X027344Y011468D02*
X026050Y011468D01*
X026148Y011567D02*
X027338Y011567D01*
X027595Y011764D02*
X027720Y011764D01*
X027694Y011863D02*
X029936Y011863D01*
X029872Y011961D02*
X028988Y011961D01*
X029124Y012060D02*
X029529Y012060D01*
X029431Y012158D02*
X029193Y012158D01*
X029234Y012257D02*
X029332Y012257D01*
X029974Y012607D02*
X030052Y012685D01*
X030096Y012790D01*
X030096Y012905D01*
X030052Y013011D01*
X029971Y013091D01*
X029865Y013135D01*
X029751Y013135D01*
X029645Y013091D01*
X029564Y013011D01*
X029520Y012905D01*
X029520Y012861D01*
X028824Y013557D01*
X028592Y013557D01*
X027707Y013557D01*
X027707Y013647D01*
X029188Y013647D01*
X029378Y013647D01*
X029932Y014201D01*
X029947Y014195D01*
X030069Y014195D01*
X030182Y014241D01*
X030268Y014328D01*
X030315Y014441D01*
X030315Y014563D01*
X030291Y014622D01*
X030642Y014622D01*
X030871Y014394D01*
X030898Y014328D01*
X030984Y014241D01*
X031097Y014195D01*
X031219Y014195D01*
X031332Y014241D01*
X031418Y014328D01*
X031465Y014441D01*
X031465Y014563D01*
X031418Y014676D01*
X031332Y014762D01*
X031266Y014789D01*
X030874Y015182D01*
X030642Y015182D01*
X030092Y015182D01*
X030096Y015190D01*
X030096Y015305D01*
X030058Y015397D01*
X032194Y015397D01*
X032246Y015397D01*
X032271Y015372D01*
X032387Y015372D01*
X032416Y015343D01*
X032355Y015318D01*
X032194Y015157D01*
X032106Y014946D01*
X032106Y014772D01*
X032039Y014772D01*
X031958Y014738D01*
X031897Y014676D01*
X031863Y014596D01*
X031863Y014508D01*
X031897Y014427D01*
X031958Y014365D01*
X032039Y014332D01*
X032049Y014332D01*
X032072Y014277D01*
X032133Y014215D01*
X032213Y014182D01*
X032128Y014097D01*
X032128Y013490D01*
X032052Y013522D01*
X031964Y013522D01*
X031883Y013488D01*
X031822Y013426D01*
X031788Y013346D01*
X031788Y013258D01*
X031822Y013177D01*
X031883Y013115D01*
X031964Y013082D01*
X032052Y013082D01*
X032133Y013115D01*
X032195Y013177D01*
X032228Y013257D01*
X032263Y013222D01*
X032395Y013090D01*
X032355Y013074D01*
X032194Y012913D01*
X032106Y012702D01*
X031955Y012702D01*
X031860Y012607D01*
X029974Y012607D01*
X030018Y012651D02*
X031904Y012651D01*
X032106Y012702D02*
X032106Y012702D01*
X032126Y012749D02*
X030079Y012749D01*
X030096Y012848D02*
X032167Y012848D01*
X032228Y012947D02*
X030079Y012947D01*
X030018Y013045D02*
X032326Y013045D01*
X032341Y013144D02*
X032161Y013144D01*
X032221Y013242D02*
X032243Y013242D01*
X032128Y013538D02*
X030096Y013538D01*
X030096Y013499D02*
X030096Y013613D01*
X030052Y013719D01*
X029971Y013800D01*
X029865Y013844D01*
X029751Y013844D01*
X029645Y013800D01*
X029564Y013719D01*
X029520Y013613D01*
X029520Y013499D01*
X029564Y013393D01*
X029645Y013312D01*
X029751Y013268D01*
X029865Y013268D01*
X029971Y013312D01*
X030052Y013393D01*
X030096Y013499D01*
X030071Y013439D02*
X031834Y013439D01*
X031788Y013341D02*
X030000Y013341D01*
X030086Y013636D02*
X032128Y013636D01*
X032128Y013735D02*
X030036Y013735D01*
X029891Y013833D02*
X032128Y013833D01*
X032128Y013932D02*
X029663Y013932D01*
X029725Y013833D02*
X029565Y013833D01*
X029580Y013735D02*
X029466Y013735D01*
X029530Y013636D02*
X027707Y013636D01*
X027678Y012947D02*
X028642Y012947D01*
X028741Y012848D02*
X027653Y012848D01*
X027544Y012749D02*
X028644Y012749D01*
X028499Y012651D02*
X026465Y012651D01*
X026478Y012749D02*
X027122Y012749D01*
X027013Y012848D02*
X026446Y012848D01*
X026449Y012947D02*
X026988Y012947D01*
X027294Y012749D02*
X027372Y012749D01*
X027374Y012552D02*
X027299Y012552D01*
X027117Y012552D02*
X026395Y012552D01*
X026292Y012454D02*
X027012Y012454D01*
X026988Y012355D02*
X026364Y012355D01*
X026378Y012257D02*
X027009Y012257D01*
X027022Y012227D02*
X027022Y012227D01*
X026979Y012158D02*
X026452Y012158D01*
X026478Y012060D02*
X026963Y012060D01*
X027788Y012060D02*
X028492Y012060D01*
X028423Y012158D02*
X027831Y012158D01*
X027865Y012257D02*
X028382Y012257D01*
X028378Y012355D02*
X027865Y012355D01*
X027828Y012454D02*
X028385Y012454D01*
X028426Y012552D02*
X027742Y012552D01*
X027788Y011961D02*
X028628Y011961D01*
X028558Y011713D02*
X028477Y011747D01*
X028389Y011747D01*
X028308Y011713D01*
X028247Y011651D01*
X028213Y011571D01*
X028213Y011483D01*
X028247Y011402D01*
X028308Y011340D01*
X028389Y011307D01*
X028477Y011307D01*
X028558Y011340D01*
X028620Y011402D01*
X028653Y011483D01*
X028653Y011571D01*
X028620Y011651D01*
X028558Y011713D01*
X028606Y011665D02*
X032340Y011665D01*
X032439Y011567D02*
X028653Y011567D01*
X028647Y011468D02*
X032537Y011468D01*
X032636Y011370D02*
X030376Y011370D01*
X030477Y011074D02*
X032931Y011074D01*
X033030Y010976D02*
X030507Y010976D01*
X030496Y010877D02*
X033128Y010877D01*
X033227Y010779D02*
X030436Y010779D01*
X030428Y010680D02*
X033325Y010680D01*
X033424Y010581D02*
X030407Y010581D01*
X030315Y010483D02*
X033523Y010483D01*
X033621Y010384D02*
X030093Y010384D01*
X030096Y010483D02*
X030101Y010483D01*
X030053Y010286D02*
X033720Y010286D01*
X033678Y010327D02*
X033678Y010327D01*
X033858Y010402D02*
X032058Y012202D01*
X031945Y011961D02*
X030294Y011961D01*
X030230Y011863D02*
X032143Y011863D01*
X032241Y011764D02*
X027996Y011764D01*
X028080Y011665D02*
X028261Y011665D01*
X028213Y011567D02*
X028107Y011567D01*
X028093Y011468D02*
X028219Y011468D01*
X028279Y011370D02*
X028028Y011370D01*
X028587Y011370D02*
X029615Y011370D01*
X030001Y011370D02*
X030040Y011370D01*
X029988Y010680D02*
X029983Y010680D01*
X029634Y010680D02*
X021599Y010680D01*
X021698Y010581D02*
X029252Y010581D01*
X029481Y010089D02*
X028835Y010089D01*
X028971Y009990D02*
X029345Y009990D01*
X029276Y009892D02*
X029040Y009892D01*
X029081Y009793D02*
X029236Y009793D01*
X029233Y009695D02*
X029083Y009695D01*
X029075Y009596D02*
X029242Y009596D01*
X029282Y009498D02*
X029034Y009498D01*
X028357Y009402D02*
X027959Y009402D01*
X028019Y009461D01*
X028083Y009617D01*
X028083Y009786D01*
X028019Y009943D01*
X027899Y010062D01*
X027816Y010097D01*
X028094Y010097D01*
X028228Y009963D01*
X028228Y009715D01*
X028233Y009710D01*
X028233Y009617D01*
X028298Y009461D01*
X028357Y009402D01*
X028282Y009498D02*
X028034Y009498D01*
X028075Y009596D02*
X028242Y009596D01*
X028233Y009695D02*
X028083Y009695D01*
X028081Y009793D02*
X028228Y009793D01*
X028228Y009892D02*
X028040Y009892D01*
X027971Y009990D02*
X028201Y009990D01*
X028102Y010089D02*
X027835Y010089D01*
X027228Y009963D02*
X027228Y009715D01*
X027233Y009711D01*
X027233Y009617D01*
X027298Y009461D01*
X027357Y009402D01*
X026959Y009402D01*
X027019Y009461D01*
X027083Y009617D01*
X027083Y009786D01*
X027019Y009943D01*
X026964Y009997D01*
X027194Y009997D01*
X027228Y009963D01*
X027201Y009990D02*
X026971Y009990D01*
X027040Y009892D02*
X027228Y009892D01*
X027228Y009793D02*
X027081Y009793D01*
X027083Y009695D02*
X027233Y009695D01*
X027242Y009596D02*
X027075Y009596D01*
X027034Y009498D02*
X027282Y009498D01*
X026357Y009402D02*
X026278Y009402D01*
X026278Y009486D01*
X026245Y009566D01*
X026183Y009628D01*
X026102Y009662D01*
X026017Y009662D01*
X026102Y009747D01*
X026178Y009747D01*
X026178Y009715D01*
X026233Y009660D01*
X026233Y009617D01*
X026298Y009461D01*
X026357Y009402D01*
X026282Y009498D02*
X026273Y009498D01*
X026242Y009596D02*
X026215Y009596D01*
X026199Y009695D02*
X026050Y009695D01*
X025623Y010286D02*
X023643Y010286D01*
X023545Y010384D02*
X025721Y010384D01*
X025820Y010483D02*
X023446Y010483D01*
X020464Y009402D02*
X019959Y009402D01*
X020019Y009461D01*
X020064Y009570D01*
X020068Y009565D01*
X020149Y009532D01*
X020237Y009532D01*
X020305Y009560D01*
X020464Y009402D01*
X020368Y009498D02*
X020034Y009498D01*
X015570Y010779D02*
X014328Y010779D01*
X014294Y010877D02*
X015501Y010877D01*
X015488Y010976D02*
X013243Y010976D01*
X013314Y011074D02*
X015521Y011074D01*
X014578Y011665D02*
X011338Y011665D01*
X011240Y011567D02*
X014479Y011567D01*
X014676Y011764D02*
X013731Y011764D01*
X013711Y012060D02*
X014214Y012060D01*
X014163Y012158D02*
X013213Y012158D01*
X013183Y012188D02*
X013102Y012222D01*
X013014Y012222D01*
X012933Y012188D01*
X012872Y012126D01*
X012838Y012046D01*
X012838Y011958D01*
X012872Y011877D01*
X012933Y011815D01*
X013014Y011782D01*
X013102Y011782D01*
X013183Y011815D01*
X013245Y011877D01*
X013278Y011958D01*
X013278Y012046D01*
X013245Y012126D01*
X013183Y012188D01*
X013272Y012060D02*
X013405Y012060D01*
X013345Y011961D02*
X013278Y011961D01*
X013230Y011863D02*
X013338Y011863D01*
X013385Y011764D02*
X011437Y011764D01*
X011535Y011863D02*
X012886Y011863D01*
X012838Y011961D02*
X011634Y011961D01*
X011732Y012060D02*
X012844Y012060D01*
X012903Y012158D02*
X011831Y012158D01*
X011930Y012257D02*
X014168Y012257D01*
X014225Y012355D02*
X012028Y012355D01*
X012127Y012454D02*
X014238Y012454D01*
X014272Y012552D02*
X012225Y012552D01*
X011982Y013242D02*
X011879Y013242D01*
X011843Y013341D02*
X012080Y013341D01*
X012179Y013439D02*
X011941Y013439D01*
X012040Y013538D02*
X012277Y013538D01*
X012376Y013636D02*
X012138Y013636D01*
X011642Y013932D02*
X011278Y013932D01*
X011241Y014031D02*
X011741Y014031D01*
X011839Y014129D02*
X010654Y014129D01*
X011049Y014523D02*
X011226Y014523D01*
X011153Y014622D02*
X011147Y014622D01*
X011538Y013833D02*
X011544Y013833D01*
X015015Y012158D02*
X015556Y012158D01*
X015419Y012257D02*
X015107Y012257D01*
X015245Y012355D02*
X015336Y012355D01*
X012764Y011468D02*
X011141Y011468D01*
X012688Y011346D02*
X012688Y011258D01*
X011920Y010483D02*
X010156Y010483D01*
X010057Y010384D02*
X010971Y010384D01*
X010023Y010286D02*
X009959Y010286D01*
X006364Y015114D02*
X006358Y015114D01*
X006358Y015213D02*
X006503Y015213D01*
X006524Y016297D02*
X006358Y016297D01*
X006358Y016396D02*
X006363Y016396D01*
X006792Y016297D02*
X007420Y016297D01*
X007306Y016396D02*
X006953Y016396D01*
X007032Y016494D02*
X007241Y016494D01*
X007200Y016593D02*
X007073Y016593D01*
X007083Y016691D02*
X007609Y016691D01*
X007707Y016691D02*
X008233Y016691D01*
X008234Y016790D02*
X008123Y016790D01*
X008084Y016888D02*
X008275Y016888D01*
X008342Y016987D02*
X008031Y016987D01*
X008123Y016653D02*
X007707Y016653D01*
X007707Y016237D01*
X007751Y016237D01*
X007922Y016307D01*
X008053Y016438D01*
X008123Y016609D01*
X008123Y016653D01*
X008116Y016593D02*
X008243Y016593D01*
X008284Y016494D02*
X008076Y016494D01*
X008010Y016396D02*
X008363Y016396D01*
X008524Y016297D02*
X007896Y016297D01*
X007707Y016297D02*
X007610Y016297D01*
X007610Y016396D02*
X007707Y016396D01*
X007707Y016494D02*
X007610Y016494D01*
X007610Y016593D02*
X007707Y016593D01*
X007193Y016790D02*
X007082Y016790D01*
X007041Y016888D02*
X007232Y016888D01*
X007285Y016987D02*
X006975Y016987D01*
X008792Y016297D02*
X009524Y016297D01*
X009363Y016396D02*
X008953Y016396D01*
X009032Y016494D02*
X009284Y016494D01*
X009243Y016593D02*
X009073Y016593D01*
X009083Y016691D02*
X009233Y016691D01*
X009234Y016790D02*
X009082Y016790D01*
X009041Y016888D02*
X009275Y016888D01*
X009342Y016987D02*
X008975Y016987D01*
X009975Y016987D02*
X010342Y016987D01*
X010275Y016888D02*
X010041Y016888D01*
X010082Y016790D02*
X010234Y016790D01*
X010233Y016691D02*
X010083Y016691D01*
X010073Y016593D02*
X010243Y016593D01*
X010284Y016494D02*
X010032Y016494D01*
X009953Y016396D02*
X010363Y016396D01*
X010524Y016297D02*
X009792Y016297D01*
X023128Y014228D02*
X024243Y014228D01*
X024021Y014129D02*
X023138Y014129D01*
X023138Y014031D02*
X023800Y014031D01*
X023578Y013932D02*
X023138Y013932D01*
X023138Y013833D02*
X023464Y013833D01*
X023438Y013735D02*
X023138Y013735D01*
X023138Y013636D02*
X023281Y013636D01*
X023206Y013538D02*
X023138Y013538D01*
X023138Y013439D02*
X023188Y013439D01*
X023216Y013341D02*
X023138Y013341D01*
X023138Y013242D02*
X023263Y013242D01*
X024570Y014917D02*
X025763Y014917D01*
X026015Y015016D02*
X024668Y015016D01*
X028843Y013538D02*
X029520Y013538D01*
X029545Y013439D02*
X028942Y013439D01*
X029040Y013341D02*
X029617Y013341D01*
X029237Y013144D02*
X031855Y013144D01*
X031795Y013242D02*
X029139Y013242D01*
X029336Y013045D02*
X029599Y013045D01*
X029538Y012947D02*
X029434Y012947D01*
X029762Y014031D02*
X032128Y014031D01*
X032160Y014129D02*
X029860Y014129D01*
X030149Y014228D02*
X031018Y014228D01*
X030899Y014326D02*
X030267Y014326D01*
X030309Y014425D02*
X030839Y014425D01*
X030741Y014523D02*
X030315Y014523D01*
X030291Y014622D02*
X030642Y014622D01*
X031139Y014917D02*
X032106Y014917D01*
X032106Y014819D02*
X031237Y014819D01*
X031374Y014720D02*
X031940Y014720D01*
X031874Y014622D02*
X031441Y014622D01*
X031465Y014523D02*
X031863Y014523D01*
X031899Y014425D02*
X031459Y014425D01*
X031417Y014326D02*
X032051Y014326D01*
X032121Y014228D02*
X031299Y014228D01*
X031040Y015016D02*
X032135Y015016D01*
X032176Y015114D02*
X030941Y015114D01*
X030096Y015213D02*
X032250Y015213D01*
X032349Y015312D02*
X030093Y015312D01*
X030096Y015903D02*
X031890Y015903D01*
X031988Y016001D02*
X030096Y016001D01*
X030060Y016100D02*
X032087Y016100D01*
X032186Y016198D02*
X029973Y016198D01*
X029953Y016396D02*
X030363Y016396D01*
X030284Y016494D02*
X030032Y016494D01*
X030073Y016593D02*
X030243Y016593D01*
X030233Y016691D02*
X030083Y016691D01*
X030082Y016790D02*
X030234Y016790D01*
X030275Y016888D02*
X030041Y016888D01*
X029975Y016987D02*
X030342Y016987D01*
X030524Y016297D02*
X029792Y016297D01*
X030792Y016297D02*
X031002Y016297D01*
X031314Y016297D02*
X031524Y016297D01*
X031792Y016297D02*
X032284Y016297D01*
X032363Y016396D02*
X031953Y016396D01*
X032032Y016494D02*
X032284Y016494D01*
X032243Y016593D02*
X032073Y016593D01*
X032083Y016691D02*
X032233Y016691D01*
X032234Y016790D02*
X032082Y016790D01*
X032041Y016888D02*
X032275Y016888D01*
X032342Y016987D02*
X031975Y016987D01*
X032914Y016047D02*
X033345Y016047D01*
X033264Y015965D01*
X033193Y015794D01*
X033193Y015750D01*
X033609Y015750D01*
X033609Y015653D01*
X033193Y015653D01*
X033193Y015609D01*
X033264Y015438D01*
X033395Y015307D01*
X033566Y015237D01*
X033610Y015237D01*
X033610Y015653D01*
X033707Y015653D01*
X033707Y015237D01*
X033751Y015237D01*
X033922Y015307D01*
X034003Y015389D01*
X034003Y015266D01*
X034003Y015138D01*
X034953Y014188D01*
X035044Y014097D01*
X035061Y014097D01*
X034998Y014071D01*
X034878Y013951D01*
X034845Y013871D01*
X034812Y013951D01*
X034692Y014071D01*
X034536Y014135D01*
X034366Y014135D01*
X034210Y014071D01*
X034090Y013951D01*
X034057Y013871D01*
X034024Y013951D01*
X033904Y014071D01*
X033748Y014135D01*
X033579Y014135D01*
X033423Y014071D01*
X033303Y013951D01*
X033301Y013946D01*
X033298Y013943D01*
X033291Y013926D01*
X033271Y013974D01*
X033140Y014105D01*
X032969Y014175D01*
X032925Y014175D01*
X032925Y013759D01*
X032828Y013759D01*
X032828Y014146D01*
X032909Y014228D01*
X032909Y014307D01*
X033004Y014346D01*
X033165Y014508D01*
X033200Y014592D01*
X033264Y014438D01*
X033395Y014307D01*
X033566Y014237D01*
X033610Y014237D01*
X033610Y014653D01*
X033707Y014653D01*
X033707Y014750D01*
X034123Y014750D01*
X034123Y014794D01*
X034053Y014965D01*
X033922Y015096D01*
X033751Y015167D01*
X033707Y015167D01*
X033707Y014751D01*
X033610Y014751D01*
X033610Y015167D01*
X033566Y015167D01*
X033395Y015096D01*
X033264Y014965D01*
X033252Y014938D01*
X033252Y014946D01*
X033165Y015157D01*
X033004Y015318D01*
X032913Y015355D01*
X033019Y015461D01*
X033083Y015617D01*
X033083Y015786D01*
X033019Y015943D01*
X032914Y016047D01*
X032960Y016001D02*
X033300Y016001D01*
X033238Y015903D02*
X033035Y015903D01*
X033076Y015804D02*
X033197Y015804D01*
X033083Y015706D02*
X033609Y015706D01*
X033610Y015607D02*
X033707Y015607D01*
X033707Y015509D02*
X033610Y015509D01*
X033610Y015410D02*
X033707Y015410D01*
X033707Y015312D02*
X033610Y015312D01*
X033610Y015114D02*
X033707Y015114D01*
X033707Y015016D02*
X033610Y015016D01*
X033610Y014917D02*
X033707Y014917D01*
X033707Y014819D02*
X033610Y014819D01*
X033707Y014720D02*
X034420Y014720D01*
X034322Y014819D02*
X034113Y014819D01*
X034072Y014917D02*
X034223Y014917D01*
X034125Y015016D02*
X034002Y015016D01*
X034026Y015114D02*
X033878Y015114D01*
X034003Y015213D02*
X033109Y015213D01*
X033183Y015114D02*
X033438Y015114D01*
X033314Y015016D02*
X033223Y015016D01*
X033390Y015312D02*
X033010Y015312D01*
X032968Y015410D02*
X033292Y015410D01*
X033234Y015509D02*
X033038Y015509D01*
X033079Y015607D02*
X033194Y015607D01*
X033926Y015312D02*
X034003Y015312D01*
X034123Y014653D02*
X033707Y014653D01*
X033707Y014237D01*
X033751Y014237D01*
X033922Y014307D01*
X034053Y014438D01*
X034123Y014609D01*
X034123Y014653D01*
X034123Y014622D02*
X034519Y014622D01*
X034618Y014523D02*
X034088Y014523D01*
X034039Y014425D02*
X034716Y014425D01*
X034815Y014326D02*
X033940Y014326D01*
X033707Y014326D02*
X033610Y014326D01*
X033610Y014425D02*
X033707Y014425D01*
X033707Y014523D02*
X033610Y014523D01*
X033610Y014622D02*
X033707Y014622D01*
X033376Y014326D02*
X032955Y014326D01*
X032909Y014228D02*
X034913Y014228D01*
X035012Y014129D02*
X034551Y014129D01*
X034351Y014129D02*
X033764Y014129D01*
X033564Y014129D02*
X033081Y014129D01*
X032925Y014129D02*
X032828Y014129D01*
X032828Y014031D02*
X032925Y014031D01*
X032925Y013932D02*
X032828Y013932D01*
X032828Y013833D02*
X032925Y013833D01*
X032925Y013661D02*
X032925Y013245D01*
X032969Y013245D01*
X033140Y013316D01*
X033271Y013447D01*
X033287Y013486D01*
X033298Y013461D01*
X033417Y013341D01*
X033574Y013277D01*
X033743Y013277D01*
X033899Y013341D01*
X034019Y013461D01*
X034021Y013466D01*
X034024Y013469D01*
X034057Y013549D01*
X034090Y013469D01*
X034210Y013350D01*
X034366Y013285D01*
X034536Y013285D01*
X034692Y013350D01*
X034812Y013469D01*
X034845Y013549D01*
X034878Y013469D01*
X034998Y013350D01*
X035154Y013285D01*
X035323Y013285D01*
X035479Y013350D01*
X035599Y013469D01*
X035664Y013626D01*
X035664Y013677D01*
X035828Y013513D01*
X035828Y013005D01*
X035760Y013074D01*
X035549Y013161D01*
X035321Y013161D01*
X035111Y013074D01*
X034950Y012913D01*
X034862Y012702D01*
X034862Y012474D01*
X034950Y012264D01*
X035111Y012102D01*
X035321Y012015D01*
X035549Y012015D01*
X035760Y012102D01*
X035828Y012171D01*
X035828Y010991D01*
X035545Y010708D01*
X035554Y010729D01*
X035554Y010887D01*
X035494Y011032D01*
X035382Y011144D01*
X035294Y011180D01*
X035405Y011226D01*
X035527Y011349D01*
X035594Y011509D01*
X035594Y011557D01*
X035197Y011557D01*
X035197Y011634D01*
X035594Y011634D01*
X035594Y011682D01*
X035527Y011842D01*
X035405Y011965D01*
X035245Y012031D01*
X035197Y012031D01*
X035197Y011634D01*
X035119Y011634D01*
X035119Y011557D01*
X034722Y011557D01*
X034722Y011509D01*
X034789Y011349D01*
X034911Y011226D01*
X035022Y011180D01*
X034934Y011144D01*
X034823Y011032D01*
X034762Y010887D01*
X034762Y010729D01*
X034823Y010584D01*
X034837Y010570D01*
X034778Y010546D01*
X034756Y010523D01*
X034752Y010532D01*
X034688Y010596D01*
X034604Y010631D01*
X034513Y010631D01*
X034428Y010596D01*
X034414Y010582D01*
X033933Y010582D01*
X032452Y012062D01*
X032565Y012015D01*
X032793Y012015D01*
X033004Y012102D01*
X033165Y012264D01*
X033252Y012474D01*
X033252Y012570D01*
X033298Y012461D01*
X033417Y012341D01*
X033574Y012277D01*
X033743Y012277D01*
X033899Y012341D01*
X034019Y012461D01*
X034083Y012617D01*
X034083Y012786D01*
X034019Y012943D01*
X033899Y013062D01*
X033743Y013127D01*
X033574Y013127D01*
X033417Y013062D01*
X033298Y012943D01*
X033233Y012786D01*
X033233Y012749D01*
X033165Y012913D01*
X033004Y013074D01*
X032909Y013113D01*
X032909Y013226D01*
X032828Y013307D01*
X032828Y013661D01*
X032925Y013661D01*
X032925Y013636D02*
X032828Y013636D01*
X032828Y013538D02*
X032925Y013538D01*
X032925Y013439D02*
X032828Y013439D01*
X032828Y013341D02*
X032925Y013341D01*
X032893Y013242D02*
X035828Y013242D01*
X035828Y013144D02*
X035591Y013144D01*
X035788Y013045D02*
X035828Y013045D01*
X035279Y013144D02*
X032909Y013144D01*
X033033Y013045D02*
X033400Y013045D01*
X033301Y012947D02*
X033131Y012947D01*
X033192Y012848D02*
X033258Y012848D01*
X033233Y012749D02*
X033233Y012749D01*
X033252Y012552D02*
X033260Y012552D01*
X033244Y012454D02*
X033305Y012454D01*
X033403Y012355D02*
X033203Y012355D01*
X033158Y012257D02*
X034956Y012257D01*
X034912Y012355D02*
X033913Y012355D01*
X034011Y012454D02*
X034871Y012454D01*
X034862Y012552D02*
X034056Y012552D01*
X034083Y012651D02*
X034862Y012651D01*
X034882Y012749D02*
X034083Y012749D01*
X034058Y012848D02*
X034923Y012848D01*
X034984Y012947D02*
X034015Y012947D01*
X033916Y013045D02*
X035082Y013045D01*
X035019Y013341D02*
X034670Y013341D01*
X034782Y013439D02*
X034908Y013439D01*
X034849Y013538D02*
X034840Y013538D01*
X035458Y013341D02*
X035828Y013341D01*
X035828Y013439D02*
X035569Y013439D01*
X035627Y013538D02*
X035803Y013538D01*
X035704Y013636D02*
X035664Y013636D01*
X034957Y014031D02*
X034732Y014031D01*
X034819Y013932D02*
X034870Y013932D01*
X034170Y014031D02*
X033945Y014031D01*
X034032Y013932D02*
X034083Y013932D01*
X034062Y013538D02*
X034053Y013538D01*
X033997Y013439D02*
X034120Y013439D01*
X034232Y013341D02*
X033897Y013341D01*
X033419Y013341D02*
X033165Y013341D01*
X033263Y013439D02*
X033319Y013439D01*
X033288Y013932D02*
X033293Y013932D01*
X033214Y014031D02*
X033383Y014031D01*
X033277Y014425D02*
X033082Y014425D01*
X033171Y014523D02*
X033229Y014523D01*
X033060Y012158D02*
X035055Y012158D01*
X035071Y012031D02*
X034911Y011965D01*
X034789Y011842D01*
X034722Y011682D01*
X034722Y011634D01*
X035119Y011634D01*
X035119Y012031D01*
X035071Y012031D01*
X035119Y011961D02*
X035197Y011961D01*
X035197Y011863D02*
X035119Y011863D01*
X035119Y011764D02*
X035197Y011764D01*
X035197Y011665D02*
X035119Y011665D01*
X035119Y011567D02*
X034062Y011567D01*
X034083Y011617D02*
X034083Y011786D01*
X034019Y011943D01*
X033899Y012062D01*
X033743Y012127D01*
X033574Y012127D01*
X033417Y012062D01*
X033298Y011943D01*
X033233Y011786D01*
X033233Y011617D01*
X033298Y011461D01*
X033417Y011341D01*
X033574Y011277D01*
X033743Y011277D01*
X033899Y011341D01*
X034019Y011461D01*
X034083Y011617D01*
X034083Y011665D02*
X034722Y011665D01*
X034756Y011764D02*
X034083Y011764D01*
X034052Y011863D02*
X034809Y011863D01*
X034907Y011961D02*
X034000Y011961D01*
X033902Y012060D02*
X035214Y012060D01*
X035409Y011961D02*
X035828Y011961D01*
X035828Y011863D02*
X035507Y011863D01*
X035560Y011764D02*
X035828Y011764D01*
X035828Y011665D02*
X035594Y011665D01*
X035577Y011468D02*
X035828Y011468D01*
X035828Y011370D02*
X035536Y011370D01*
X035450Y011271D02*
X035828Y011271D01*
X035828Y011173D02*
X035312Y011173D01*
X035452Y011074D02*
X035828Y011074D01*
X035813Y010976D02*
X035517Y010976D01*
X035554Y010877D02*
X035714Y010877D01*
X035616Y010779D02*
X035554Y010779D01*
X035857Y010581D02*
X035958Y010581D01*
X035958Y010483D02*
X035758Y010483D01*
X035660Y010384D02*
X035958Y010384D01*
X035958Y010286D02*
X035561Y010286D01*
X035481Y010089D02*
X034835Y010089D01*
X034749Y010187D02*
X034639Y010187D01*
X034478Y010187D02*
X029932Y010187D01*
X029835Y010089D02*
X030481Y010089D01*
X030345Y009990D02*
X029971Y009990D01*
X030040Y009892D02*
X030276Y009892D01*
X030236Y009793D02*
X030081Y009793D01*
X030083Y009695D02*
X030233Y009695D01*
X030242Y009596D02*
X030075Y009596D01*
X030034Y009498D02*
X030282Y009498D01*
X031034Y009498D02*
X031282Y009498D01*
X031242Y009596D02*
X031075Y009596D01*
X031083Y009695D02*
X031233Y009695D01*
X031236Y009793D02*
X031081Y009793D01*
X031040Y009892D02*
X031276Y009892D01*
X031345Y009990D02*
X030971Y009990D01*
X030835Y010089D02*
X031481Y010089D01*
X031835Y010089D02*
X032481Y010089D01*
X032345Y009990D02*
X031971Y009990D01*
X032040Y009892D02*
X032276Y009892D01*
X032236Y009793D02*
X032081Y009793D01*
X032083Y009695D02*
X032233Y009695D01*
X032242Y009596D02*
X032075Y009596D01*
X032034Y009498D02*
X032282Y009498D01*
X033034Y009498D02*
X033282Y009498D01*
X033242Y009596D02*
X033075Y009596D01*
X033083Y009695D02*
X033233Y009695D01*
X033236Y009793D02*
X033081Y009793D01*
X033040Y009892D02*
X033276Y009892D01*
X033345Y009990D02*
X032971Y009990D01*
X032835Y010089D02*
X033481Y010089D01*
X033835Y010089D02*
X034481Y010089D01*
X034345Y009990D02*
X033971Y009990D01*
X034040Y009892D02*
X034276Y009892D01*
X034236Y009793D02*
X034081Y009793D01*
X034083Y009695D02*
X034233Y009695D01*
X034242Y009596D02*
X034075Y009596D01*
X034034Y009498D02*
X034282Y009498D01*
X035034Y009498D02*
X035282Y009498D01*
X035242Y009596D02*
X035075Y009596D01*
X035083Y009695D02*
X035233Y009695D01*
X035236Y009793D02*
X035081Y009793D01*
X035040Y009892D02*
X035276Y009892D01*
X035345Y009990D02*
X034971Y009990D01*
X035067Y010187D02*
X035958Y010187D01*
X035958Y010089D02*
X035835Y010089D01*
X035955Y010680D02*
X035958Y010680D01*
X035004Y011173D02*
X033342Y011173D01*
X033440Y011074D02*
X034864Y011074D01*
X034799Y010976D02*
X033539Y010976D01*
X033637Y010877D02*
X034762Y010877D01*
X034762Y010779D02*
X033736Y010779D01*
X033834Y010680D02*
X034783Y010680D01*
X034825Y010581D02*
X034702Y010581D01*
X034558Y010402D02*
X033858Y010402D01*
X033927Y011370D02*
X034780Y011370D01*
X034739Y011468D02*
X034022Y011468D01*
X033389Y011370D02*
X033145Y011370D01*
X033243Y011271D02*
X034866Y011271D01*
X035197Y011567D02*
X035828Y011567D01*
X035828Y012060D02*
X035656Y012060D01*
X035816Y012158D02*
X035828Y012158D01*
X033414Y012060D02*
X032901Y012060D01*
X032652Y011863D02*
X033264Y011863D01*
X033233Y011764D02*
X032750Y011764D01*
X032849Y011665D02*
X033233Y011665D01*
X033254Y011567D02*
X032948Y011567D01*
X033046Y011468D02*
X033294Y011468D01*
X033316Y011961D02*
X032553Y011961D01*
X032458Y012060D02*
X032455Y012060D01*
X029684Y010187D02*
X028442Y010187D01*
X026121Y012552D02*
X026054Y012552D01*
X026024Y012454D02*
X025995Y012454D01*
D17*
X026508Y009852D02*
X026658Y009702D01*
X027558Y009852D02*
X027658Y009752D01*
X027658Y009702D01*
X028558Y009852D02*
X028658Y009752D01*
X028658Y009702D01*
X018658Y009702D02*
X018658Y009952D01*
X017658Y009827D02*
X017658Y009702D01*
X012808Y009852D02*
X012658Y009702D01*
X011808Y009852D02*
X011658Y009702D01*
X010808Y009852D02*
X010658Y009702D01*
X009908Y009952D02*
X009658Y009702D01*
X009558Y010352D02*
X012833Y013627D01*
X017958Y013627D01*
X018133Y013627D01*
X018608Y013152D01*
X018758Y016552D02*
X018658Y016652D01*
X018658Y016702D01*
X019658Y016702D02*
X019658Y016502D01*
X017758Y016552D02*
X017658Y016652D01*
X017658Y016702D01*
X016758Y016552D02*
X016658Y016652D01*
X016658Y016702D01*
X015758Y016552D02*
X015658Y016652D01*
X015658Y016702D01*
X014758Y016552D02*
X014658Y016652D01*
X014658Y016702D01*
X013758Y016552D02*
X013658Y016652D01*
X013658Y016702D01*
X012758Y016552D02*
X012658Y016652D01*
X012658Y016702D01*
X011758Y016502D02*
X011658Y016602D01*
X011658Y016702D01*
X009558Y010352D02*
X007308Y010352D01*
X006658Y009702D01*
X032408Y015702D02*
X032658Y015702D01*
D18*
X025758Y016952D03*
X025258Y016952D03*
X023608Y017002D03*
X023108Y017052D03*
X022808Y017052D03*
X022308Y016952D03*
X022108Y016752D03*
X021458Y016752D03*
X021458Y016952D03*
X020158Y016627D03*
X020108Y014377D03*
X020183Y013277D03*
X023433Y011262D03*
X024158Y011262D03*
X026118Y009682D03*
X024158Y009442D03*
X021008Y010152D03*
X027283Y011527D03*
X031883Y010527D03*
X034558Y010402D03*
X034908Y010352D03*
X013483Y014002D03*
D19*
X017658Y014952D03*
X018258Y014927D03*
X017958Y014152D03*
X019408Y014202D03*
X019508Y014502D03*
X019833Y014977D03*
X020783Y016002D03*
X020858Y016552D03*
X019158Y016502D03*
X018158Y016502D03*
X017158Y016502D03*
X016158Y016452D03*
X015158Y016452D03*
X014158Y016452D03*
X013158Y016452D03*
X012158Y016452D03*
X011158Y016452D03*
X018658Y013102D03*
X018658Y012752D03*
X019708Y013627D03*
X021508Y013802D03*
X022858Y012952D03*
X021808Y011322D03*
X019708Y011502D03*
X020308Y009477D03*
X014108Y011102D03*
X024333Y015077D03*
X026333Y016077D03*
X026658Y016002D03*
X027558Y016002D03*
X030458Y016152D03*
X027858Y013602D03*
X027458Y013602D03*
X027858Y011552D03*
X030258Y010952D03*
X030583Y011577D03*
X032058Y012202D03*
X032058Y012452D03*
X030158Y009952D03*
X029158Y009952D03*
X028158Y009952D03*
X027158Y009952D03*
D20*
X025783Y011527D02*
X025518Y011262D01*
X024158Y011262D01*
X023433Y011262D01*
X023173Y011002D01*
X021358Y011002D01*
X021108Y011252D01*
X019958Y011252D01*
X019708Y011502D01*
X020033Y012652D02*
X020558Y012652D01*
X021708Y012652D01*
X023033Y012652D01*
X023083Y012702D01*
X023458Y012602D02*
X024258Y012602D01*
X024558Y012902D01*
X025508Y012902D01*
X026483Y013877D01*
X029283Y013877D01*
X029908Y014502D01*
X030008Y014502D01*
X032358Y014002D02*
X032358Y013452D01*
X032679Y013131D01*
X032679Y012588D01*
X032058Y012327D02*
X032008Y012327D01*
X032358Y014002D02*
X032679Y014323D01*
X032679Y014832D01*
X027558Y012302D02*
X027558Y012052D01*
X027308Y011802D01*
X026058Y011802D01*
X025783Y011527D01*
X023458Y012602D02*
X023083Y012227D01*
X022583Y012227D01*
X021708Y012652D02*
X021708Y013502D01*
X021508Y013702D01*
X021508Y013802D01*
X020558Y012652D02*
X020508Y012652D01*
X020033Y012652D02*
X019983Y012702D01*
X024333Y015077D02*
X024383Y015127D01*
X021458Y016902D02*
X021458Y016952D01*
X020183Y016652D02*
X020158Y016627D01*
D21*
X021458Y016752D02*
X021458Y015502D01*
X022858Y014102D01*
X022858Y013002D01*
X023083Y012702D02*
X023308Y012927D01*
X023733Y012927D01*
X024058Y013252D01*
X025333Y013252D01*
X025658Y012552D02*
X024708Y012552D01*
X024408Y012252D01*
X023558Y012252D01*
X023108Y011802D01*
X022408Y011802D01*
X022108Y012102D01*
X021058Y012102D01*
X020808Y012352D01*
X017558Y012352D01*
X017408Y012202D01*
X015908Y012202D01*
X015608Y012502D01*
X017958Y013627D02*
X017958Y014152D01*
X016558Y014602D02*
X019358Y014602D01*
X019583Y013102D02*
X018658Y013102D01*
X018608Y013152D01*
X019583Y013102D02*
X019983Y012702D01*
X016558Y014602D02*
X016158Y014202D01*
X012333Y014227D02*
X012333Y015002D01*
X012333Y014227D02*
X009508Y011402D01*
X009508Y011202D01*
X021458Y016752D02*
X021458Y016902D01*
X024383Y015127D02*
X024633Y015377D01*
X028133Y015377D01*
X028558Y014952D01*
X028708Y014952D01*
X029108Y014202D02*
X029808Y014902D01*
X030758Y014902D01*
X031158Y014502D01*
X029108Y014202D02*
X026433Y014202D01*
X026383Y013277D02*
X028708Y013277D01*
X029658Y012327D01*
X032008Y012327D01*
X026383Y013277D02*
X025658Y012552D01*
D22*
X025408Y013252D02*
X025333Y013252D01*
X025408Y013252D02*
X026358Y014202D01*
X026433Y014202D01*
X022858Y013002D02*
X022858Y012952D01*
X019508Y014502D02*
X019408Y014602D01*
X019358Y014602D01*
X020183Y016652D02*
X020433Y016902D01*
X021458Y016902D01*
X032058Y012452D02*
X032058Y012327D01*
X032058Y012202D01*
D23*
X029408Y010427D02*
X029333Y010352D01*
X025908Y010352D01*
X025608Y010052D01*
X023658Y010052D01*
X023308Y010402D01*
X021658Y010402D01*
X021033Y011027D01*
X019183Y011027D01*
X018158Y012052D01*
X017758Y012052D01*
X017358Y011652D01*
X015158Y011652D01*
X015058Y011752D01*
X014883Y011752D01*
X014533Y011402D01*
X013008Y011402D01*
X012908Y011302D01*
X013108Y011152D02*
X013258Y011302D01*
X014958Y011302D01*
X015108Y011452D01*
X017458Y011452D01*
X017858Y011852D01*
X018058Y011852D01*
X018433Y011477D01*
X018433Y010827D01*
X020933Y010827D01*
X021558Y010202D01*
X023208Y010202D01*
X023558Y009852D01*
X024958Y009852D01*
X025023Y009787D01*
X025023Y009612D01*
X024858Y009447D01*
X024858Y009442D01*
X025088Y009442D02*
X025123Y009477D01*
X025123Y009837D01*
X025008Y009952D01*
X023608Y009952D01*
X023258Y010302D01*
X021608Y010302D01*
X020983Y010927D01*
X019133Y010927D01*
X018108Y011952D01*
X017808Y011952D01*
X017408Y011552D01*
X014983Y011552D01*
X014958Y011577D01*
X012958Y010452D02*
X012858Y010352D01*
X012008Y010352D01*
X011908Y010252D01*
X011058Y010252D01*
X010958Y010152D01*
X010108Y010152D01*
X009908Y009952D01*
X010808Y009852D02*
X011108Y010152D01*
X011958Y010152D01*
X012058Y010252D01*
X012908Y010252D01*
X013008Y010352D01*
X017733Y010352D01*
X018133Y010752D01*
X018133Y010902D01*
X017958Y011077D01*
X017958Y010827D02*
X017958Y010752D01*
X017658Y010452D01*
X012958Y010452D01*
X013058Y010252D02*
X017783Y010252D01*
X018233Y010702D01*
X018233Y011252D01*
X018058Y011427D01*
X017958Y011427D01*
X017958Y011677D02*
X018333Y011302D01*
X018333Y010652D01*
X017833Y010152D01*
X013108Y010152D01*
X012808Y009852D01*
X012958Y010152D02*
X013058Y010252D01*
X012958Y010152D02*
X012108Y010152D01*
X011808Y009852D01*
X009208Y012402D02*
X009208Y012902D01*
X011758Y015452D01*
X012758Y016552D02*
X013108Y016202D01*
X013958Y016202D01*
X014058Y016102D01*
X014908Y016102D01*
X015008Y016002D01*
X015858Y016002D01*
X015958Y015902D01*
X016808Y015902D01*
X016908Y015802D01*
X017758Y015802D01*
X017858Y015702D01*
X018708Y015702D01*
X018808Y015602D01*
X019508Y015602D01*
X020283Y014827D01*
X020283Y014227D01*
X019958Y013902D01*
X019958Y013202D01*
X020158Y013002D01*
X020908Y013377D02*
X020483Y013802D01*
X020483Y014927D01*
X019608Y015802D01*
X018908Y015802D01*
X018808Y015902D01*
X017958Y015902D01*
X017858Y016002D01*
X017008Y016002D01*
X016908Y016102D01*
X016058Y016102D01*
X015958Y016202D01*
X015108Y016202D01*
X014758Y016552D01*
X014958Y016202D02*
X014108Y016202D01*
X013758Y016552D01*
X014958Y016202D02*
X015058Y016102D01*
X015908Y016102D01*
X016008Y016002D01*
X016858Y016002D01*
X016958Y015902D01*
X017808Y015902D01*
X017908Y015802D01*
X018758Y015802D01*
X018858Y015702D01*
X019558Y015702D01*
X020383Y014877D01*
X020383Y014177D01*
X020133Y013927D01*
X020133Y013827D01*
X020583Y013852D02*
X020833Y013602D01*
X021058Y013602D01*
X021208Y013452D01*
X021208Y013302D01*
X021083Y013177D01*
X021083Y013002D01*
X021133Y012952D01*
X021283Y013127D02*
X021308Y013152D01*
X021308Y013502D01*
X021108Y013702D01*
X020883Y013702D01*
X020683Y013902D01*
X020683Y015027D01*
X019708Y016002D01*
X019008Y016002D01*
X018908Y016102D01*
X018058Y016102D01*
X017958Y016202D01*
X017108Y016202D01*
X016758Y016552D01*
X016958Y016202D02*
X016108Y016202D01*
X015758Y016552D01*
X016958Y016202D02*
X017058Y016102D01*
X017908Y016102D01*
X018008Y016002D01*
X018858Y016002D01*
X018958Y015902D01*
X019658Y015902D01*
X020583Y014977D01*
X020583Y013852D01*
X020783Y013952D02*
X020783Y015077D01*
X019758Y016102D01*
X019058Y016102D01*
X018958Y016202D01*
X018108Y016202D01*
X017758Y016552D01*
X018758Y016552D02*
X019108Y016202D01*
X019808Y016202D01*
X020883Y015127D01*
X020883Y014002D01*
X020983Y013902D01*
X021208Y013902D01*
X021283Y013977D01*
X021158Y013802D02*
X020933Y013802D01*
X020783Y013952D01*
X020983Y014152D02*
X020983Y015177D01*
X019658Y016502D01*
X022958Y016702D02*
X023008Y016652D01*
X025308Y016652D01*
X026308Y015652D01*
X028308Y015652D01*
X028383Y015577D01*
X028458Y015752D02*
X028658Y015552D01*
X032258Y015552D01*
X032408Y015702D01*
X032408Y016202D02*
X031858Y015652D01*
X028708Y015652D01*
X027658Y016702D01*
X028458Y015752D02*
X026358Y015752D01*
X025358Y016752D01*
X024638Y016752D01*
X024433Y016957D01*
X021058Y014077D02*
X020983Y014152D01*
X021158Y013802D02*
X021458Y013502D01*
X021458Y012952D01*
X021033Y013377D02*
X020908Y013377D01*
X018433Y010827D02*
X018433Y010602D01*
X017658Y009827D01*
X018658Y009952D02*
X019433Y010727D01*
X020883Y010727D01*
X021508Y010102D01*
X023158Y010102D01*
X023508Y009752D01*
X024788Y009752D01*
X024858Y009682D01*
X025088Y009442D02*
X025153Y009377D01*
X025573Y009377D01*
X025663Y009467D01*
X025663Y009527D01*
X026038Y009902D01*
X026458Y009902D01*
X026508Y009852D01*
X026008Y010152D02*
X027258Y010152D01*
X027558Y009852D01*
X028158Y010252D02*
X028558Y009852D01*
X028158Y010252D02*
X025958Y010252D01*
X025353Y009647D01*
X025288Y009647D01*
X025498Y009642D02*
X025498Y009542D01*
X025498Y009642D02*
X026008Y010152D01*
X023458Y009652D02*
X023458Y009442D01*
X023458Y009652D02*
X023108Y010002D01*
X021458Y010002D01*
X020833Y010627D01*
X019483Y010627D01*
X019033Y010177D01*
X019033Y010052D01*
X019283Y010052D02*
X019383Y010152D01*
X019883Y010152D01*
X020083Y009952D01*
X020648Y009952D01*
X020923Y009677D01*
X021358Y009677D01*
X021583Y009902D01*
X022168Y009902D01*
X022368Y009702D01*
X022368Y009482D01*
X022328Y009442D01*
X022188Y009642D02*
X022188Y009727D01*
X022113Y009802D01*
X021633Y009802D01*
X021233Y009402D01*
X020683Y009402D01*
X020333Y009752D01*
X020193Y009752D01*
X032408Y016202D02*
X033858Y016202D01*
X034158Y015902D01*
X034158Y015202D01*
X035108Y014252D01*
X035308Y014252D01*
X035983Y013577D01*
X035983Y010927D01*
X035408Y010352D01*
X034908Y010352D01*
M02*
