G75*
G70*
%OFA0B0*%
%FSLAX24Y24*%
%IPPOS*%
%LPD*%
%AMOC8*
5,1,8,0,0,1.08239X$1,22.5*
%
%ADD10R,0.0079X0.0591*%
%ADD11R,0.0591X0.0079*%
%ADD12R,0.0400X0.0400*%
%ADD13R,0.0240X0.0230*%
%ADD14R,0.0230X0.0240*%
%ADD15R,0.0551X0.0394*%
%ADD16C,0.0394*%
%ADD17R,0.0700X0.0700*%
%ADD18C,0.0700*%
%ADD19R,0.0400X0.0300*%
%ADD20R,0.0400X0.0200*%
%ADD21R,0.2756X0.1102*%
%ADD22R,0.0571X0.0709*%
%ADD23O,0.0780X0.0390*%
%ADD24R,0.0610X0.0591*%
%ADD25R,0.1673X0.0394*%
%ADD26C,0.0886*%
%ADD27C,0.0591*%
%ADD28R,0.0531X0.0531*%
%ADD29C,0.0531*%
%ADD30R,0.0945X0.0709*%
%ADD31R,0.0945X0.1024*%
%ADD32C,0.0080*%
%ADD33C,0.0180*%
%ADD34C,0.0198*%
%ADD35C,0.0100*%
%ADD36C,0.0200*%
%ADD37C,0.0237*%
%ADD38C,0.0120*%
%ADD39C,0.0400*%
%ADD40C,0.0354*%
%ADD41C,0.0360*%
%ADD42C,0.0300*%
%ADD43C,0.0160*%
%ADD44C,0.0240*%
%ADD45C,0.0050*%
D10*
X021217Y010151D03*
X021375Y010151D03*
X021532Y010151D03*
X021690Y010151D03*
X021847Y010151D03*
X022005Y010151D03*
X022162Y010151D03*
X022320Y010151D03*
X022477Y010151D03*
X022634Y010151D03*
X022792Y010151D03*
X022949Y010151D03*
X023107Y010151D03*
X023264Y010151D03*
X023422Y010151D03*
X023579Y010151D03*
X023737Y010151D03*
X023894Y010151D03*
X024052Y010151D03*
X024209Y010151D03*
X024367Y010151D03*
X024524Y010151D03*
X024682Y010151D03*
X024839Y010151D03*
X024997Y010151D03*
X025154Y010151D03*
X025312Y010151D03*
X025469Y010151D03*
X025627Y010151D03*
X025784Y010151D03*
X025942Y010151D03*
X026099Y010151D03*
X026099Y016253D03*
X025942Y016253D03*
X025784Y016253D03*
X025627Y016253D03*
X025469Y016253D03*
X025312Y016253D03*
X025154Y016253D03*
X024997Y016253D03*
X024839Y016253D03*
X024682Y016253D03*
X024524Y016253D03*
X024367Y016253D03*
X024209Y016253D03*
X024052Y016253D03*
X023894Y016253D03*
X023737Y016253D03*
X023579Y016253D03*
X023422Y016253D03*
X023264Y016253D03*
X023107Y016253D03*
X022949Y016253D03*
X022792Y016253D03*
X022634Y016253D03*
X022477Y016253D03*
X022320Y016253D03*
X022162Y016253D03*
X022005Y016253D03*
X021847Y016253D03*
X021690Y016253D03*
X021532Y016253D03*
X021375Y016253D03*
X021217Y016253D03*
D11*
X020607Y015643D03*
X020607Y015485D03*
X020607Y015328D03*
X020607Y015170D03*
X020607Y015013D03*
X020607Y014855D03*
X020607Y014698D03*
X020607Y014540D03*
X020607Y014383D03*
X020607Y014226D03*
X020607Y014068D03*
X020607Y013911D03*
X020607Y013753D03*
X020607Y013596D03*
X020607Y013438D03*
X020607Y013281D03*
X020607Y013123D03*
X020607Y012966D03*
X020607Y012808D03*
X020607Y012651D03*
X020607Y012493D03*
X020607Y012336D03*
X020607Y012178D03*
X020607Y012021D03*
X020607Y011863D03*
X020607Y011706D03*
X020607Y011548D03*
X020607Y011391D03*
X020607Y011233D03*
X020607Y011076D03*
X020607Y010918D03*
X020607Y010761D03*
X026709Y010761D03*
X026709Y010918D03*
X026709Y011076D03*
X026709Y011233D03*
X026709Y011391D03*
X026709Y011548D03*
X026709Y011706D03*
X026709Y011863D03*
X026709Y012021D03*
X026709Y012178D03*
X026709Y012336D03*
X026709Y012493D03*
X026709Y012651D03*
X026709Y012808D03*
X026709Y012966D03*
X026709Y013123D03*
X026709Y013281D03*
X026709Y013438D03*
X026709Y013596D03*
X026709Y013753D03*
X026709Y013911D03*
X026709Y014068D03*
X026709Y014226D03*
X026709Y014383D03*
X026709Y014540D03*
X026709Y014698D03*
X026709Y014855D03*
X026709Y015013D03*
X026709Y015170D03*
X026709Y015328D03*
X026709Y015485D03*
X026709Y015643D03*
D12*
X031358Y015952D03*
X031358Y015252D03*
X031358Y013802D03*
X031358Y013102D03*
X031358Y012502D03*
X031358Y011802D03*
X031508Y011152D03*
X031508Y010452D03*
X032208Y010452D03*
X032908Y010452D03*
X033508Y010452D03*
X034208Y010452D03*
X028258Y010402D03*
X027508Y010402D03*
X027508Y011102D03*
X028258Y011102D03*
X028258Y011902D03*
X027558Y011902D03*
X019758Y012952D03*
X019058Y012952D03*
X018358Y012352D03*
X018358Y011652D03*
X018358Y011052D03*
X018358Y010352D03*
X016008Y010352D03*
X015308Y010352D03*
X014508Y010352D03*
X014508Y011052D03*
X015308Y011052D03*
X016008Y011052D03*
X016008Y011652D03*
X016008Y012352D03*
X019058Y013902D03*
X019758Y013902D03*
X019758Y014502D03*
X019058Y014502D03*
X012408Y014602D03*
X011708Y014602D03*
X011708Y014002D03*
X011708Y013402D03*
X012408Y013402D03*
X012408Y014002D03*
X012408Y012702D03*
X011708Y012702D03*
D13*
X019008Y013427D03*
X019408Y013427D03*
X019508Y014977D03*
X019108Y014977D03*
X027458Y013952D03*
X027858Y013952D03*
X027958Y012652D03*
X027558Y012652D03*
D14*
X028758Y011702D03*
X028758Y011302D03*
D15*
X017541Y011076D03*
X016675Y010702D03*
X017541Y010328D03*
X016675Y011678D03*
X017541Y012052D03*
X016675Y012426D03*
D16*
X006658Y010452D03*
X006658Y015952D03*
X035658Y010452D03*
D17*
X033658Y011702D03*
X035658Y015702D03*
X006658Y016702D03*
X006658Y009702D03*
D18*
X007658Y009702D03*
X008658Y009702D03*
X009658Y009702D03*
X010658Y009702D03*
X011658Y009702D03*
X012658Y009702D03*
X013658Y009702D03*
X014658Y009702D03*
X015658Y009702D03*
X016658Y009702D03*
X017658Y009702D03*
X018658Y009702D03*
X019658Y009702D03*
X026658Y009702D03*
X027658Y009702D03*
X028658Y009702D03*
X029658Y009702D03*
X030658Y009702D03*
X031658Y009702D03*
X032658Y009702D03*
X033658Y009702D03*
X034658Y009702D03*
X035658Y009702D03*
X033658Y012702D03*
X033658Y013702D03*
X033658Y014702D03*
X033658Y015702D03*
X032658Y015702D03*
X032658Y016702D03*
X033658Y016702D03*
X034658Y016702D03*
X035658Y016702D03*
X034658Y015702D03*
X031658Y016702D03*
X030658Y016702D03*
X029658Y016702D03*
X028658Y016702D03*
X027658Y016702D03*
X026658Y016702D03*
X019658Y016702D03*
X018658Y016702D03*
X017658Y016702D03*
X016658Y016702D03*
X015658Y016702D03*
X014658Y016702D03*
X013658Y016702D03*
X012658Y016702D03*
X011658Y016702D03*
X010658Y016702D03*
X009658Y016702D03*
X008658Y016702D03*
X007658Y016702D03*
X028808Y012352D03*
D19*
X012608Y011352D03*
X012008Y011352D03*
X012008Y010352D03*
X012608Y010352D03*
D20*
X012608Y010702D03*
X012008Y010702D03*
X012008Y011002D03*
X012608Y011002D03*
D21*
X016908Y013321D03*
X016908Y015683D03*
D22*
X028846Y014402D03*
X030771Y014402D03*
D23*
X006608Y014432D03*
X006608Y013940D03*
X006608Y013448D03*
X006608Y012956D03*
X006608Y012464D03*
X006608Y011972D03*
X006608Y011479D03*
X006608Y014924D03*
D24*
X028922Y015602D03*
X030694Y015602D03*
X030694Y013202D03*
X028922Y013202D03*
X028922Y010802D03*
X030694Y010802D03*
D25*
X010538Y011202D03*
X010538Y012202D03*
X010538Y013202D03*
X010538Y014202D03*
X010538Y015202D03*
X008078Y015202D03*
X008078Y014202D03*
X008078Y013202D03*
X008078Y012202D03*
X008078Y011202D03*
D26*
X032679Y012588D03*
X035435Y012588D03*
X035435Y014832D03*
X032679Y014832D03*
D27*
X032876Y013710D03*
X033664Y013710D03*
X034451Y013710D03*
X035238Y013710D03*
D28*
X035158Y010808D03*
D29*
X035158Y011596D03*
D30*
X019358Y012189D03*
X019358Y010614D03*
D31*
X013708Y012992D03*
X013708Y015512D03*
D32*
X019058Y012952D02*
X019358Y012652D01*
X019883Y012652D01*
X020199Y012336D01*
X020607Y012336D01*
X020607Y012493D02*
X020267Y012493D01*
X020158Y012602D01*
X020158Y012627D01*
X019833Y012952D02*
X019758Y012952D01*
X020183Y013277D02*
X020187Y013281D01*
X020607Y013281D01*
X020607Y013438D02*
X020972Y013438D01*
X021033Y013377D01*
X020607Y013596D02*
X020102Y013596D01*
X020157Y014151D02*
X020232Y014226D01*
X020607Y014226D01*
X020607Y014383D02*
X020114Y014383D01*
X020108Y014377D01*
X020270Y014540D02*
X020183Y014627D01*
X020108Y014627D01*
X020270Y014540D02*
X020607Y014540D01*
X020607Y014698D02*
X021008Y014698D01*
X020607Y014855D02*
X020062Y014855D01*
X019908Y014702D01*
X019908Y014652D01*
X019758Y014502D01*
X019833Y014977D02*
X019869Y015013D01*
X020607Y015013D01*
X020607Y015170D02*
X020940Y015170D01*
X020607Y015328D02*
X020107Y015328D01*
X020083Y015352D01*
X020167Y015643D02*
X020058Y015752D01*
X020167Y015643D02*
X020607Y015643D01*
X020607Y015485D02*
X020992Y015485D01*
X021375Y015885D02*
X021375Y016253D01*
X021532Y016253D02*
X021532Y016678D01*
X021458Y016752D01*
X021458Y016952D02*
X021608Y016952D01*
X021690Y016870D01*
X021690Y016253D01*
X021847Y016253D02*
X021847Y015891D01*
X021822Y015866D01*
X021400Y015860D02*
X021375Y015885D01*
X021217Y016253D02*
X021217Y016443D01*
X021167Y016493D01*
X021847Y016641D02*
X021847Y016253D01*
X021847Y016641D02*
X021872Y016666D01*
X026709Y013911D02*
X027117Y013911D01*
X027107Y012651D02*
X026709Y012651D01*
X027133Y011677D02*
X027133Y011652D01*
X027030Y011548D01*
X026709Y011548D01*
X026709Y011076D02*
X026582Y011076D01*
X026709Y011076D02*
X027082Y011076D01*
X025784Y010151D02*
X025784Y009841D01*
X025873Y009752D01*
X026048Y009752D01*
X026118Y009682D01*
X023894Y009771D02*
X023894Y010151D01*
X021773Y011692D02*
X021472Y011391D01*
X020607Y011391D01*
X020607Y011548D02*
X021400Y011548D01*
X021703Y011852D01*
X023583Y011852D01*
X023633Y011902D01*
X023833Y011752D02*
X023773Y011692D01*
X021773Y011692D01*
X021333Y012127D02*
X021533Y012327D01*
X021533Y012402D01*
X021333Y012127D02*
X021133Y012127D01*
X021027Y012021D01*
X020607Y012021D01*
X020189Y012021D01*
X020158Y012052D01*
X020262Y011706D02*
X019758Y011202D01*
X019758Y010952D01*
X019421Y010614D01*
X019358Y010614D01*
X019096Y010352D01*
X018358Y010352D01*
X018208Y010502D01*
X017983Y010502D01*
X017783Y010702D01*
X016675Y010702D01*
X019358Y012102D02*
X019597Y011863D01*
X020607Y011863D01*
X020607Y011706D02*
X020262Y011706D01*
X019358Y012102D02*
X019358Y012189D01*
X019196Y012352D01*
X018358Y012352D01*
X021167Y010152D02*
X021217Y010152D01*
X021217Y010151D01*
X033658Y012702D02*
X034451Y013495D01*
X034451Y013710D01*
X033708Y013652D02*
X033664Y013696D01*
X033664Y013710D01*
X033658Y013702D02*
X033664Y013696D01*
D33*
X032258Y014402D03*
X032083Y014552D03*
X032008Y013302D03*
X030083Y012027D03*
X030208Y011227D03*
X030208Y010677D03*
X029408Y010427D03*
X028433Y011527D03*
X027558Y011527D03*
X027183Y012077D03*
X027208Y012352D03*
X026258Y012052D03*
X026158Y012277D03*
X025908Y012252D03*
X025783Y012052D03*
X025558Y012102D03*
X025333Y012177D03*
X025233Y011527D03*
X025783Y011527D03*
X024683Y011627D03*
X024233Y011627D03*
X023833Y011752D03*
X023633Y011902D03*
X023083Y011452D03*
X022833Y011402D03*
X021278Y011762D03*
X021048Y011762D03*
X020158Y012052D03*
X021283Y012402D03*
X021533Y012402D03*
X021458Y012952D03*
X021283Y013127D03*
X021133Y012952D03*
X021033Y013377D03*
X021283Y013977D03*
X021058Y014077D03*
X021783Y013827D03*
X022033Y013827D03*
X022283Y013827D03*
X021958Y013377D03*
X022133Y013202D03*
X021958Y013027D03*
X023408Y013452D03*
X023483Y013227D03*
X023658Y013477D03*
X023658Y013727D03*
X023883Y013827D03*
X024108Y013927D03*
X024333Y014027D03*
X024558Y014077D03*
X024783Y014127D03*
X024933Y014327D03*
X025158Y014052D03*
X025383Y013977D03*
X025733Y013977D03*
X025358Y013602D03*
X024958Y013902D03*
X025658Y014352D03*
X025758Y014577D03*
X025908Y014752D03*
X026133Y014827D03*
X026258Y015052D03*
X027158Y015052D03*
X027308Y014852D03*
X027133Y014677D03*
X027458Y014502D03*
X027658Y014952D03*
X028383Y015577D03*
X026208Y014452D03*
X024083Y014977D03*
X023283Y014977D03*
X022983Y014977D03*
X022733Y014977D03*
X021983Y014477D03*
X021733Y014477D03*
X021468Y014752D03*
X021233Y014752D03*
X020108Y014627D03*
X020133Y013827D03*
X020158Y013002D03*
X017958Y011677D03*
X017958Y011427D03*
X017958Y011077D03*
X017958Y010827D03*
X019033Y010052D03*
X019283Y010052D03*
X020193Y009752D03*
X020583Y009752D03*
X020763Y009592D03*
X020958Y009877D03*
X020758Y010127D03*
X020833Y010352D03*
X020258Y010227D03*
X020183Y010452D03*
X021623Y009552D03*
X021848Y009622D03*
X021998Y009442D03*
X022188Y009642D03*
X022328Y009442D03*
X022558Y009442D03*
X022758Y009562D03*
X022618Y009752D03*
X023058Y009732D03*
X022998Y009442D03*
X023228Y009442D03*
X023458Y009442D03*
X023688Y009442D03*
X023918Y009442D03*
X024398Y009442D03*
X024628Y009442D03*
X024858Y009442D03*
X025088Y009442D03*
X025288Y009647D03*
X025498Y009542D03*
X025828Y009442D03*
X026058Y009442D03*
X024858Y009682D03*
X026258Y012727D03*
X027208Y012952D03*
X027458Y012952D03*
X024158Y012877D03*
X022958Y016702D03*
X024433Y016957D03*
X031158Y016452D03*
X015708Y010952D03*
X014958Y011577D03*
X014908Y012352D03*
X014458Y012427D03*
X014383Y012202D03*
X013558Y011902D03*
X013058Y012002D03*
X012908Y011302D03*
X013108Y011152D03*
X012908Y011002D03*
X012908Y010702D03*
X013133Y010627D03*
X013383Y010627D03*
X014108Y010752D03*
X011358Y012702D03*
X011708Y013102D03*
X011358Y013702D03*
X011058Y013902D03*
X011358Y014702D03*
X012683Y015102D03*
X012808Y014902D03*
X013308Y014202D03*
X014208Y014252D03*
X014358Y014052D03*
X013058Y013252D03*
X009558Y011952D03*
X009008Y011902D03*
X009208Y012402D03*
X009258Y013252D03*
X009008Y013902D03*
X009308Y014102D03*
X011758Y015452D03*
X014383Y015227D03*
D34*
X013483Y014002D03*
X020108Y014377D03*
X020183Y013277D03*
X023433Y011262D03*
X024158Y011262D03*
X026118Y009682D03*
X024158Y009442D03*
X021008Y010152D03*
X027283Y011527D03*
X031883Y010527D03*
X034558Y010402D03*
X034908Y010352D03*
X025758Y016952D03*
X025258Y016952D03*
X023608Y017002D03*
X023108Y017052D03*
X022808Y017052D03*
X022308Y016952D03*
X022108Y016752D03*
X021458Y016752D03*
X021458Y016952D03*
X020158Y016627D03*
D35*
X007138Y010106D02*
X007138Y009402D01*
X007223Y009402D01*
X007217Y009407D01*
X007138Y009598D01*
X007138Y009653D01*
X007609Y009653D01*
X007609Y009750D01*
X007138Y009750D01*
X007138Y009805D01*
X007217Y009996D01*
X007364Y010143D01*
X007555Y010222D01*
X007610Y010222D01*
X007610Y009751D01*
X007707Y009751D01*
X007707Y010222D01*
X007762Y010222D01*
X007953Y010143D01*
X008099Y009996D01*
X008178Y009805D01*
X008178Y009750D01*
X007707Y009750D01*
X007707Y009653D01*
X008178Y009653D01*
X008178Y009598D01*
X008099Y009407D01*
X008093Y009402D01*
X008279Y009402D01*
X008251Y009430D01*
X008178Y009606D01*
X008178Y009797D01*
X008251Y009974D01*
X008386Y010109D01*
X008563Y010182D01*
X008671Y010182D01*
X009071Y010582D01*
X009213Y010582D01*
X011378Y010582D01*
X011378Y010607D01*
X011378Y010797D01*
X011378Y010875D01*
X010678Y010875D01*
X010675Y010872D01*
X009371Y010872D01*
X009178Y011065D01*
X009178Y011339D01*
X009371Y011532D01*
X010675Y011532D01*
X010678Y011529D01*
X011429Y011529D01*
X011505Y011453D01*
X011505Y011224D01*
X011513Y011232D01*
X011638Y011232D01*
X011638Y011327D01*
X011983Y011327D01*
X011983Y011377D01*
X011983Y011672D01*
X011738Y011672D01*
X011638Y011572D01*
X011638Y011377D01*
X011983Y011377D01*
X012033Y011377D01*
X012033Y011672D01*
X012279Y011672D01*
X012336Y011614D01*
X012354Y011632D01*
X012862Y011632D01*
X012938Y011556D01*
X012938Y011522D01*
X012952Y011522D01*
X013033Y011488D01*
X013095Y011426D01*
X013117Y011372D01*
X013152Y011372D01*
X013233Y011338D01*
X013279Y011292D01*
X014053Y012066D01*
X014053Y012310D01*
X013758Y012310D01*
X013758Y012942D01*
X013658Y012942D01*
X013066Y012942D01*
X013066Y012410D01*
X013165Y012310D01*
X013658Y012310D01*
X013658Y012942D01*
X013658Y013042D01*
X013126Y013042D01*
X013102Y013032D01*
X013014Y013032D01*
X012933Y013065D01*
X012872Y013127D01*
X012838Y013208D01*
X012838Y013296D01*
X012872Y013376D01*
X012933Y013438D01*
X013014Y013472D01*
X013066Y013472D01*
X013066Y013574D01*
X013165Y013674D01*
X013658Y013674D01*
X013658Y013042D01*
X013758Y013042D01*
X013758Y013674D01*
X014251Y013674D01*
X014351Y013574D01*
X014351Y013042D01*
X013758Y013042D01*
X013758Y012942D01*
X014351Y012942D01*
X014351Y012620D01*
X014414Y012647D01*
X014502Y012647D01*
X014553Y012626D01*
X014553Y013948D01*
X014545Y013927D01*
X014483Y013865D01*
X014402Y013832D01*
X014314Y013832D01*
X014233Y013865D01*
X014172Y013927D01*
X014138Y014008D01*
X014138Y014043D01*
X014083Y014065D01*
X014022Y014127D01*
X013988Y014208D01*
X013988Y014296D01*
X014022Y014376D01*
X014083Y014438D01*
X014164Y014472D01*
X014252Y014472D01*
X014333Y014438D01*
X014395Y014376D01*
X014428Y014296D01*
X014428Y014261D01*
X014483Y014238D01*
X014545Y014176D01*
X014553Y014156D01*
X014553Y014838D01*
X014384Y015007D01*
X014339Y015007D01*
X014311Y015019D01*
X014311Y014946D01*
X014234Y014870D01*
X014188Y014870D01*
X014188Y014665D01*
X013995Y014472D01*
X013721Y014472D01*
X013528Y014665D01*
X013528Y014870D01*
X013182Y014870D01*
X013106Y014946D01*
X013106Y015522D01*
X011967Y015522D01*
X011978Y015496D01*
X011978Y015432D01*
X012444Y015432D01*
X012572Y015432D01*
X012682Y015322D01*
X012727Y015322D01*
X012808Y015288D01*
X012870Y015226D01*
X012903Y015146D01*
X012903Y015101D01*
X012933Y015088D01*
X012995Y015026D01*
X013028Y014946D01*
X013028Y014858D01*
X012995Y014777D01*
X012933Y014715D01*
X012852Y014682D01*
X012764Y014682D01*
X012738Y014693D01*
X012738Y014348D01*
X012692Y014302D01*
X012738Y014256D01*
X012738Y013748D01*
X012692Y013702D01*
X012738Y013656D01*
X012738Y013148D01*
X012662Y013072D01*
X012154Y013072D01*
X012078Y013148D01*
X012078Y013656D01*
X012124Y013702D01*
X012078Y013748D01*
X012078Y014256D01*
X012124Y014302D01*
X012078Y014348D01*
X012078Y014536D01*
X012053Y014561D01*
X012053Y014875D01*
X012026Y014941D01*
X012026Y015063D01*
X012050Y015122D01*
X011813Y015122D01*
X011813Y015107D01*
X011678Y014972D01*
X011505Y014972D01*
X011505Y014951D01*
X011486Y014932D01*
X011962Y014932D01*
X012038Y014856D01*
X012038Y014348D01*
X011992Y014302D01*
X012038Y014256D01*
X012038Y013748D01*
X011992Y013702D01*
X012038Y013656D01*
X012038Y013148D01*
X011962Y013072D01*
X011938Y013072D01*
X011938Y013032D01*
X011962Y013032D01*
X012038Y012956D01*
X012038Y012448D01*
X011962Y012372D01*
X011505Y012372D01*
X011505Y011951D01*
X011429Y011875D01*
X009806Y011875D01*
X009653Y011722D01*
X009463Y011722D01*
X009328Y011857D01*
X009328Y012047D01*
X009572Y012291D01*
X009572Y012453D01*
X009648Y012529D01*
X011206Y012529D01*
X011188Y012547D01*
X009872Y012547D01*
X009744Y012547D01*
X009259Y013032D01*
X009214Y013032D01*
X009133Y013065D01*
X009072Y013127D01*
X009044Y013193D01*
X009044Y012951D01*
X008968Y012875D01*
X007187Y012875D01*
X007128Y012934D01*
X007128Y012821D01*
X007045Y012738D01*
X007168Y012615D01*
X007168Y012509D01*
X007187Y012529D01*
X008968Y012529D01*
X009007Y012490D01*
X009022Y012526D01*
X009083Y012588D01*
X009164Y012622D01*
X009252Y012622D01*
X009333Y012588D01*
X009395Y012526D01*
X009428Y012446D01*
X009428Y012358D01*
X009395Y012277D01*
X009333Y012215D01*
X009252Y012182D01*
X009164Y012182D01*
X009083Y012215D01*
X009044Y012255D01*
X009044Y012191D01*
X009238Y011997D01*
X009238Y011807D01*
X009103Y011672D01*
X008913Y011672D01*
X008710Y011875D01*
X007187Y011875D01*
X007128Y011934D01*
X007128Y011837D01*
X007017Y011726D01*
X007128Y011614D01*
X007128Y011526D01*
X007171Y011569D01*
X008029Y011569D01*
X008029Y011251D01*
X008126Y011251D01*
X008126Y011569D01*
X008985Y011569D01*
X009084Y011469D01*
X009084Y011250D01*
X008126Y011250D01*
X008126Y011153D01*
X008126Y010835D01*
X008985Y010835D01*
X009084Y010935D01*
X009084Y011153D01*
X008126Y011153D01*
X008029Y011153D01*
X008029Y010835D01*
X007171Y010835D01*
X007071Y010935D01*
X007071Y011153D01*
X008029Y011153D01*
X008029Y011250D01*
X007071Y011250D01*
X007071Y011288D01*
X006938Y011154D01*
X006358Y011154D01*
X006358Y010614D01*
X006523Y010779D01*
X006793Y010779D01*
X006985Y010587D01*
X006985Y010316D01*
X006850Y010182D01*
X007062Y010182D01*
X007138Y010106D01*
X007138Y010089D02*
X007310Y010089D01*
X007215Y009990D02*
X007138Y009990D01*
X007138Y009892D02*
X007174Y009892D01*
X007138Y009793D02*
X007138Y009793D01*
X007138Y009695D02*
X007609Y009695D01*
X007707Y009695D02*
X008178Y009695D01*
X008178Y009793D02*
X008178Y009793D01*
X008142Y009892D02*
X008217Y009892D01*
X008268Y009990D02*
X008101Y009990D01*
X008007Y010089D02*
X008366Y010089D01*
X008677Y010187D02*
X007845Y010187D01*
X007707Y010187D02*
X007610Y010187D01*
X007610Y010089D02*
X007707Y010089D01*
X007707Y009990D02*
X007610Y009990D01*
X007610Y009892D02*
X007707Y009892D01*
X007707Y009793D02*
X007610Y009793D01*
X007139Y009596D02*
X007138Y009596D01*
X007138Y009498D02*
X007180Y009498D01*
X007471Y010187D02*
X006856Y010187D01*
X006954Y010286D02*
X008775Y010286D01*
X008874Y010384D02*
X006985Y010384D01*
X006985Y010483D02*
X008973Y010483D01*
X009071Y010581D02*
X006985Y010581D01*
X006892Y010680D02*
X011378Y010680D01*
X011378Y010779D02*
X006794Y010779D01*
X006523Y010779D02*
X006358Y010779D01*
X006358Y010877D02*
X007129Y010877D01*
X007071Y010976D02*
X006358Y010976D01*
X006358Y011074D02*
X007071Y011074D01*
X006956Y011173D02*
X008029Y011173D01*
X008126Y011173D02*
X009178Y011173D01*
X009178Y011271D02*
X009084Y011271D01*
X009084Y011370D02*
X009209Y011370D01*
X009308Y011468D02*
X009084Y011468D01*
X008987Y011567D02*
X011638Y011567D01*
X011638Y011468D02*
X011489Y011468D01*
X011505Y011370D02*
X011983Y011370D01*
X011983Y011468D02*
X012033Y011468D01*
X012033Y011567D02*
X011983Y011567D01*
X011983Y011665D02*
X012033Y011665D01*
X012285Y011665D02*
X013653Y011665D01*
X013602Y011682D02*
X013514Y011682D01*
X013433Y011715D01*
X013372Y011777D01*
X013338Y011858D01*
X013338Y011946D01*
X013372Y012026D01*
X013433Y012088D01*
X013514Y012122D01*
X013602Y012122D01*
X013683Y012088D01*
X013745Y012026D01*
X013778Y011946D01*
X013778Y011858D01*
X013745Y011777D01*
X013683Y011715D01*
X013602Y011682D01*
X013554Y011567D02*
X012927Y011567D01*
X013053Y011468D02*
X013455Y011468D01*
X013357Y011370D02*
X013157Y011370D01*
X012908Y011302D02*
X012658Y011302D01*
X012608Y011352D01*
X012608Y011002D02*
X012908Y011002D01*
X013422Y010847D02*
X014463Y011888D01*
X014463Y011997D01*
X014508Y012015D01*
X014553Y012061D01*
X014553Y011763D01*
X014644Y011672D01*
X014738Y011578D01*
X014738Y011533D01*
X014772Y011452D01*
X014833Y011390D01*
X014914Y011357D01*
X014973Y011357D01*
X014938Y011322D01*
X014938Y011102D01*
X015258Y011102D01*
X015258Y011422D01*
X015114Y011422D01*
X015145Y011452D01*
X015178Y011533D01*
X015178Y011621D01*
X015145Y011701D01*
X015083Y011763D01*
X015002Y011797D01*
X014957Y011797D01*
X014863Y011891D01*
X014863Y012132D01*
X014864Y012132D01*
X014952Y012132D01*
X015033Y012165D01*
X015095Y012227D01*
X015128Y012308D01*
X015128Y012345D01*
X015219Y012345D01*
X015323Y012388D01*
X015348Y012328D01*
X015434Y012241D01*
X015547Y012195D01*
X015669Y012195D01*
X015678Y012198D01*
X015678Y012098D01*
X015754Y012022D01*
X016262Y012022D01*
X016314Y012074D01*
X016329Y012059D01*
X016627Y012059D01*
X016627Y012377D01*
X016723Y012377D01*
X016723Y012059D01*
X017021Y012059D01*
X017121Y012159D01*
X017121Y012342D01*
X017175Y012342D01*
X017136Y012303D01*
X017136Y011801D01*
X017212Y011725D01*
X017740Y011725D01*
X017738Y011721D01*
X017738Y011633D01*
X017772Y011552D01*
X017772Y011551D01*
X017738Y011471D01*
X017738Y011443D01*
X017590Y011443D01*
X017590Y011125D01*
X017493Y011125D01*
X017493Y011443D01*
X017195Y011443D01*
X017096Y011343D01*
X017096Y011124D01*
X017492Y011124D01*
X017492Y011027D01*
X017096Y011027D01*
X017096Y010872D01*
X017081Y010872D01*
X017081Y010953D01*
X017004Y011029D01*
X016346Y011029D01*
X016338Y011021D01*
X016338Y011306D01*
X016333Y011311D01*
X016627Y011311D01*
X016627Y011629D01*
X016723Y011629D01*
X016723Y011311D01*
X017021Y011311D01*
X017121Y011411D01*
X017121Y011629D01*
X016724Y011629D01*
X016724Y011726D01*
X017121Y011726D01*
X017121Y011945D01*
X017021Y012045D01*
X016723Y012045D01*
X016723Y011727D01*
X016627Y011727D01*
X016627Y012045D01*
X016329Y012045D01*
X016292Y012008D01*
X016279Y012022D01*
X016058Y012022D01*
X016058Y011702D01*
X015958Y011702D01*
X015958Y012022D01*
X015738Y012022D01*
X015638Y011922D01*
X015638Y011702D01*
X015958Y011702D01*
X015958Y011602D01*
X015638Y011602D01*
X015638Y011381D01*
X015696Y011324D01*
X015678Y011306D01*
X015678Y011172D01*
X015678Y011322D01*
X015579Y011422D01*
X015358Y011422D01*
X015358Y011102D01*
X015258Y011102D01*
X015258Y011002D01*
X014938Y011002D01*
X014938Y010781D01*
X015038Y010682D01*
X015258Y010682D01*
X015258Y011002D01*
X015358Y011002D01*
X015358Y010682D01*
X015579Y010682D01*
X015639Y010742D01*
X015664Y010732D01*
X015744Y010732D01*
X015754Y010722D01*
X016262Y010722D01*
X016269Y010729D01*
X016269Y010674D01*
X016262Y010682D01*
X015754Y010682D01*
X015678Y010606D01*
X015678Y010582D01*
X015638Y010582D01*
X015638Y010606D01*
X015562Y010682D01*
X015054Y010682D01*
X014978Y010606D01*
X014978Y010098D01*
X015054Y010022D01*
X015299Y010022D01*
X015251Y009974D01*
X015178Y009797D01*
X015178Y009606D01*
X015251Y009430D01*
X015279Y009402D01*
X015037Y009402D01*
X015065Y009430D01*
X015138Y009606D01*
X015138Y009797D01*
X015065Y009974D01*
X014930Y010109D01*
X014838Y010147D01*
X014838Y010489D01*
X014838Y010606D01*
X014762Y010682D01*
X014645Y010682D01*
X014433Y010682D01*
X014433Y010682D01*
X014458Y010682D01*
X014458Y011002D01*
X014138Y011002D01*
X014138Y010972D01*
X014064Y010972D01*
X013983Y010938D01*
X013922Y010876D01*
X013888Y010796D01*
X013888Y010708D01*
X013922Y010627D01*
X013983Y010565D01*
X014064Y010532D01*
X014074Y010532D01*
X014178Y010427D01*
X014178Y009715D01*
X014178Y009606D01*
X014251Y009430D01*
X014279Y009402D01*
X014037Y009402D01*
X014065Y009430D01*
X014138Y009606D01*
X014138Y009797D01*
X014065Y009974D01*
X013930Y010109D01*
X013754Y010182D01*
X013563Y010182D01*
X013386Y010109D01*
X013251Y009974D01*
X013178Y009797D01*
X013178Y009606D01*
X013251Y009430D01*
X013279Y009402D01*
X013037Y009402D01*
X013065Y009430D01*
X013138Y009606D01*
X013138Y009797D01*
X013065Y009974D01*
X012930Y010109D01*
X012908Y010118D01*
X012938Y010148D01*
X012938Y010177D01*
X013038Y010277D01*
X013168Y010407D01*
X013177Y010407D01*
X013258Y010440D01*
X013258Y010441D01*
X013258Y010440D01*
X013339Y010407D01*
X013427Y010407D01*
X013508Y010440D01*
X013570Y010502D01*
X013603Y010583D01*
X013603Y010671D01*
X013570Y010751D01*
X013508Y010813D01*
X013427Y010847D01*
X013422Y010847D01*
X013452Y010877D02*
X013922Y010877D01*
X013888Y010779D02*
X013542Y010779D01*
X013599Y010680D02*
X013900Y010680D01*
X013967Y010581D02*
X013602Y010581D01*
X013550Y010483D02*
X014122Y010483D01*
X014178Y010384D02*
X013145Y010384D01*
X013047Y010286D02*
X014178Y010286D01*
X014178Y010187D02*
X012948Y010187D01*
X012950Y010089D02*
X013366Y010089D01*
X013268Y009990D02*
X013049Y009990D01*
X013099Y009892D02*
X013217Y009892D01*
X013178Y009793D02*
X013138Y009793D01*
X013138Y009695D02*
X013178Y009695D01*
X013182Y009596D02*
X013134Y009596D01*
X013093Y009498D02*
X013223Y009498D01*
X014093Y009498D02*
X014223Y009498D01*
X014182Y009596D02*
X014134Y009596D01*
X014138Y009695D02*
X014178Y009695D01*
X014178Y009793D02*
X014138Y009793D01*
X014099Y009892D02*
X014178Y009892D01*
X014178Y009990D02*
X014049Y009990D01*
X013950Y010089D02*
X014178Y010089D01*
X014508Y010352D02*
X014108Y010752D01*
X014138Y010976D02*
X013551Y010976D01*
X013650Y011074D02*
X014458Y011074D01*
X014458Y011102D02*
X014458Y011002D01*
X014558Y011002D01*
X014558Y011102D01*
X014458Y011102D01*
X014458Y011422D01*
X014238Y011422D01*
X014138Y011322D01*
X014138Y011102D01*
X014458Y011102D01*
X014458Y011173D02*
X014558Y011173D01*
X014558Y011102D02*
X014558Y011422D01*
X014779Y011422D01*
X014878Y011322D01*
X014878Y011102D01*
X014558Y011102D01*
X014558Y011074D02*
X015258Y011074D01*
X015258Y010976D02*
X015358Y010976D01*
X015358Y010877D02*
X015258Y010877D01*
X015258Y010779D02*
X015358Y010779D01*
X015564Y010680D02*
X015752Y010680D01*
X016264Y010680D02*
X016269Y010680D01*
X016338Y011074D02*
X017492Y011074D01*
X017493Y011173D02*
X017590Y011173D01*
X017590Y011271D02*
X017493Y011271D01*
X017493Y011370D02*
X017590Y011370D01*
X017738Y011468D02*
X017121Y011468D01*
X017122Y011370D02*
X017080Y011370D01*
X017096Y011271D02*
X016338Y011271D01*
X016338Y011173D02*
X017096Y011173D01*
X017096Y010976D02*
X017057Y010976D01*
X017081Y010877D02*
X017096Y010877D01*
X016723Y011370D02*
X016627Y011370D01*
X016627Y011468D02*
X016723Y011468D01*
X016723Y011567D02*
X016627Y011567D01*
X016626Y011629D02*
X016229Y011629D01*
X016229Y011602D01*
X016058Y011602D01*
X016058Y011702D01*
X016378Y011702D01*
X016378Y011726D01*
X016626Y011726D01*
X016626Y011629D01*
X016626Y011665D02*
X016058Y011665D01*
X016058Y011764D02*
X015958Y011764D01*
X015958Y011863D02*
X016058Y011863D01*
X016058Y011961D02*
X015958Y011961D01*
X015716Y012060D02*
X014863Y012060D01*
X014863Y011961D02*
X015677Y011961D01*
X015638Y011863D02*
X014892Y011863D01*
X015081Y011764D02*
X015638Y011764D01*
X015638Y011567D02*
X015178Y011567D01*
X015160Y011665D02*
X015958Y011665D01*
X015638Y011468D02*
X015151Y011468D01*
X015258Y011370D02*
X015358Y011370D01*
X015358Y011271D02*
X015258Y011271D01*
X015258Y011173D02*
X015358Y011173D01*
X015678Y011173D02*
X015678Y011173D01*
X015678Y011172D02*
X015678Y011172D01*
X015678Y011271D02*
X015678Y011271D01*
X015650Y011370D02*
X015631Y011370D01*
X014938Y011271D02*
X014878Y011271D01*
X014878Y011173D02*
X014938Y011173D01*
X014878Y011002D02*
X014558Y011002D01*
X014558Y010682D01*
X014779Y010682D01*
X014878Y010781D01*
X014878Y011002D01*
X014878Y010976D02*
X014938Y010976D01*
X014938Y010877D02*
X014878Y010877D01*
X014875Y010779D02*
X014941Y010779D01*
X015052Y010680D02*
X014764Y010680D01*
X014838Y010581D02*
X014978Y010581D01*
X014978Y010483D02*
X014838Y010483D01*
X014838Y010384D02*
X014978Y010384D01*
X014978Y010286D02*
X014838Y010286D01*
X014838Y010187D02*
X014978Y010187D01*
X014987Y010089D02*
X014950Y010089D01*
X015049Y009990D02*
X015268Y009990D01*
X015217Y009892D02*
X015099Y009892D01*
X015138Y009793D02*
X015178Y009793D01*
X015178Y009695D02*
X015138Y009695D01*
X015134Y009596D02*
X015182Y009596D01*
X015223Y009498D02*
X015093Y009498D01*
X013133Y010627D02*
X012858Y010352D01*
X012608Y010352D01*
X012608Y010702D02*
X012908Y010702D01*
X013748Y011173D02*
X014138Y011173D01*
X014138Y011271D02*
X013847Y011271D01*
X013945Y011370D02*
X014186Y011370D01*
X014044Y011468D02*
X014765Y011468D01*
X014738Y011567D02*
X014142Y011567D01*
X014241Y011665D02*
X014650Y011665D01*
X014553Y011764D02*
X014339Y011764D01*
X014438Y011863D02*
X014553Y011863D01*
X014553Y011961D02*
X014463Y011961D01*
X014552Y012060D02*
X014553Y012060D01*
X015015Y012158D02*
X015678Y012158D01*
X015419Y012257D02*
X015107Y012257D01*
X015245Y012355D02*
X015336Y012355D01*
X015400Y012844D02*
X015332Y012912D01*
X015219Y012959D01*
X015097Y012959D01*
X014984Y012912D01*
X014898Y012826D01*
X014863Y012742D01*
X014863Y014838D01*
X014863Y014966D01*
X014603Y015226D01*
X014603Y015271D01*
X014570Y015351D01*
X014508Y015413D01*
X014427Y015447D01*
X014339Y015447D01*
X014311Y015435D01*
X014311Y016077D01*
X014234Y016154D01*
X013533Y016154D01*
X013505Y016182D01*
X007645Y016182D01*
X007610Y016217D01*
X007610Y016653D01*
X007707Y016653D01*
X007707Y016750D01*
X008178Y016750D01*
X008178Y016805D01*
X008099Y016996D01*
X008093Y017002D01*
X008279Y017002D01*
X008251Y016974D01*
X008178Y016797D01*
X008178Y016606D01*
X008251Y016430D01*
X008386Y016295D01*
X008563Y016222D01*
X008754Y016222D01*
X008930Y016295D01*
X009065Y016430D01*
X009138Y016606D01*
X009138Y016797D01*
X009065Y016974D01*
X009037Y017002D01*
X009279Y017002D01*
X009251Y016974D01*
X009178Y016797D01*
X009178Y016606D01*
X009251Y016430D01*
X009386Y016295D01*
X009563Y016222D01*
X009754Y016222D01*
X009930Y016295D01*
X010065Y016430D01*
X010138Y016606D01*
X010138Y016797D01*
X010065Y016974D01*
X010037Y017002D01*
X010279Y017002D01*
X010251Y016974D01*
X010178Y016797D01*
X010178Y016606D01*
X010251Y016430D01*
X010386Y016295D01*
X010563Y016222D01*
X010754Y016222D01*
X010930Y016295D01*
X011065Y016430D01*
X011138Y016606D01*
X011138Y016797D01*
X011065Y016974D01*
X011037Y017002D01*
X011279Y017002D01*
X011251Y016974D01*
X011178Y016797D01*
X011178Y016606D01*
X011251Y016430D01*
X011386Y016295D01*
X011563Y016222D01*
X011754Y016222D01*
X011930Y016295D01*
X012065Y016430D01*
X012138Y016606D01*
X012138Y016797D01*
X012065Y016974D01*
X012037Y017002D01*
X012279Y017002D01*
X012251Y016974D01*
X012178Y016797D01*
X012178Y016606D01*
X012251Y016430D01*
X012386Y016295D01*
X012563Y016222D01*
X012754Y016222D01*
X012930Y016295D01*
X013065Y016430D01*
X013138Y016606D01*
X013138Y016797D01*
X013065Y016974D01*
X013037Y017002D01*
X013279Y017002D01*
X013251Y016974D01*
X013178Y016797D01*
X013178Y016606D01*
X013251Y016430D01*
X013386Y016295D01*
X013563Y016222D01*
X013754Y016222D01*
X013930Y016295D01*
X014065Y016430D01*
X014138Y016606D01*
X014138Y016797D01*
X014065Y016974D01*
X014037Y017002D01*
X014279Y017002D01*
X014251Y016974D01*
X014178Y016797D01*
X014178Y016606D01*
X014251Y016430D01*
X014386Y016295D01*
X014563Y016222D01*
X014754Y016222D01*
X014930Y016295D01*
X015065Y016430D01*
X015138Y016606D01*
X015138Y016797D01*
X015065Y016974D01*
X015037Y017002D01*
X015279Y017002D01*
X015251Y016974D01*
X015178Y016797D01*
X015178Y016606D01*
X015251Y016430D01*
X015386Y016295D01*
X015401Y016289D01*
X015400Y016288D01*
X015400Y015107D01*
X015400Y013897D01*
X015400Y012844D01*
X015400Y012848D02*
X015396Y012848D01*
X015400Y012947D02*
X015249Y012947D01*
X015400Y013045D02*
X014863Y013045D01*
X014863Y012947D02*
X015067Y012947D01*
X014920Y012848D02*
X014863Y012848D01*
X014863Y012749D02*
X014866Y012749D01*
X014553Y012749D02*
X014351Y012749D01*
X014351Y012651D02*
X014553Y012651D01*
X014553Y012848D02*
X014351Y012848D01*
X014351Y013045D02*
X014553Y013045D01*
X014553Y012947D02*
X013758Y012947D01*
X013758Y013045D02*
X013658Y013045D01*
X013658Y012947D02*
X012778Y012947D01*
X012778Y012972D02*
X012679Y013072D01*
X012458Y013072D01*
X012458Y012752D01*
X012358Y012752D01*
X012358Y013072D01*
X012138Y013072D01*
X012038Y012972D01*
X012038Y012752D01*
X012358Y012752D01*
X012358Y012652D01*
X012038Y012652D01*
X012038Y012431D01*
X012138Y012332D01*
X012358Y012332D01*
X012358Y012652D01*
X012458Y012652D01*
X012458Y012752D01*
X012778Y012752D01*
X012778Y012972D01*
X012705Y013045D02*
X012982Y013045D01*
X012865Y013144D02*
X012734Y013144D01*
X012738Y013242D02*
X012838Y013242D01*
X012857Y013341D02*
X012738Y013341D01*
X012738Y013439D02*
X012936Y013439D01*
X013066Y013538D02*
X012738Y013538D01*
X012738Y013636D02*
X013128Y013636D01*
X013328Y013833D02*
X012738Y013833D01*
X012738Y013932D02*
X013264Y013932D01*
X013254Y013956D02*
X013254Y013986D01*
X013183Y014015D01*
X013122Y014077D01*
X013088Y014158D01*
X013088Y014246D01*
X013122Y014326D01*
X013121Y014326D02*
X012716Y014326D01*
X012738Y014228D02*
X013088Y014228D01*
X013100Y014129D02*
X012738Y014129D01*
X012738Y014031D02*
X013168Y014031D01*
X013254Y013956D02*
X013289Y013872D01*
X013353Y013808D01*
X013438Y013773D01*
X013529Y013773D01*
X013613Y013808D01*
X013677Y013872D01*
X013712Y013956D01*
X013712Y014047D01*
X013677Y014132D01*
X013613Y014196D01*
X013529Y014231D01*
X013528Y014231D01*
X013528Y014246D01*
X013495Y014326D01*
X014001Y014326D01*
X013988Y014228D02*
X013537Y014228D01*
X013495Y014326D02*
X013433Y014388D01*
X013352Y014422D01*
X013264Y014422D01*
X013183Y014388D01*
X013122Y014326D01*
X012738Y014425D02*
X014070Y014425D01*
X014046Y014523D02*
X014553Y014523D01*
X014553Y014425D02*
X014346Y014425D01*
X014415Y014326D02*
X014553Y014326D01*
X014553Y014228D02*
X014493Y014228D01*
X014546Y013932D02*
X014553Y013932D01*
X014553Y013833D02*
X014406Y013833D01*
X014311Y013833D02*
X013639Y013833D01*
X013702Y013932D02*
X014170Y013932D01*
X014138Y014031D02*
X013712Y014031D01*
X013678Y014129D02*
X014021Y014129D01*
X014145Y014622D02*
X014553Y014622D01*
X014553Y014720D02*
X014188Y014720D01*
X014188Y014819D02*
X014553Y014819D01*
X014473Y014917D02*
X014282Y014917D01*
X014311Y015016D02*
X014318Y015016D01*
X014616Y015213D02*
X015400Y015213D01*
X015400Y015114D02*
X014715Y015114D01*
X014813Y015016D02*
X015400Y015016D01*
X015400Y014917D02*
X014863Y014917D01*
X014863Y014819D02*
X015400Y014819D01*
X015400Y014720D02*
X014863Y014720D01*
X014863Y014622D02*
X015400Y014622D01*
X015400Y014523D02*
X014863Y014523D01*
X014863Y014425D02*
X015400Y014425D01*
X015400Y014326D02*
X014863Y014326D01*
X014863Y014228D02*
X015400Y014228D01*
X015400Y014129D02*
X014863Y014129D01*
X014863Y014031D02*
X015400Y014031D01*
X015400Y013932D02*
X014863Y013932D01*
X014863Y013833D02*
X015400Y013833D01*
X015400Y013735D02*
X014863Y013735D01*
X014863Y013636D02*
X015400Y013636D01*
X015400Y013538D02*
X014863Y013538D01*
X014863Y013439D02*
X015400Y013439D01*
X015400Y013341D02*
X014863Y013341D01*
X014863Y013242D02*
X015400Y013242D01*
X015400Y013144D02*
X014863Y013144D01*
X014553Y013144D02*
X014351Y013144D01*
X014351Y013242D02*
X014553Y013242D01*
X014553Y013341D02*
X014351Y013341D01*
X014351Y013439D02*
X014553Y013439D01*
X014553Y013538D02*
X014351Y013538D01*
X014288Y013636D02*
X014553Y013636D01*
X014553Y013735D02*
X012725Y013735D01*
X012091Y013735D02*
X012025Y013735D01*
X012038Y013833D02*
X012078Y013833D01*
X012078Y013932D02*
X012038Y013932D01*
X012038Y014031D02*
X012078Y014031D01*
X012078Y014129D02*
X012038Y014129D01*
X012038Y014228D02*
X012078Y014228D01*
X012100Y014326D02*
X012016Y014326D01*
X012038Y014425D02*
X012078Y014425D01*
X012078Y014523D02*
X012038Y014523D01*
X012038Y014622D02*
X012053Y014622D01*
X012053Y014720D02*
X012038Y014720D01*
X012038Y014819D02*
X012053Y014819D01*
X012036Y014917D02*
X011976Y014917D01*
X012026Y015016D02*
X011722Y015016D01*
X011813Y015114D02*
X012047Y015114D01*
X012594Y015410D02*
X013106Y015410D01*
X013106Y015312D02*
X012752Y015312D01*
X012875Y015213D02*
X013106Y015213D01*
X013106Y015114D02*
X012903Y015114D01*
X012999Y015016D02*
X013106Y015016D01*
X013134Y014917D02*
X013028Y014917D01*
X013012Y014819D02*
X013528Y014819D01*
X013528Y014720D02*
X012938Y014720D01*
X012738Y014622D02*
X013572Y014622D01*
X013670Y014523D02*
X012738Y014523D01*
X011708Y014602D02*
X011608Y014702D01*
X011358Y014702D01*
X011708Y014002D02*
X011408Y013702D01*
X011358Y013702D01*
X012038Y013636D02*
X012078Y013636D01*
X012078Y013538D02*
X012038Y013538D01*
X012038Y013439D02*
X012078Y013439D01*
X012078Y013341D02*
X012038Y013341D01*
X012038Y013242D02*
X012078Y013242D01*
X012083Y013144D02*
X012034Y013144D01*
X012111Y013045D02*
X011938Y013045D01*
X012038Y012947D02*
X012038Y012947D01*
X012038Y012848D02*
X012038Y012848D01*
X012038Y012749D02*
X012358Y012749D01*
X012358Y012651D02*
X012458Y012651D01*
X012458Y012652D02*
X012458Y012332D01*
X012679Y012332D01*
X012778Y012431D01*
X012778Y012652D01*
X012458Y012652D01*
X012458Y012749D02*
X013066Y012749D01*
X013066Y012651D02*
X012778Y012651D01*
X012778Y012552D02*
X013066Y012552D01*
X013066Y012454D02*
X012778Y012454D01*
X012702Y012355D02*
X013120Y012355D01*
X013102Y012222D02*
X013183Y012188D01*
X013245Y012126D01*
X013278Y012046D01*
X013278Y011958D01*
X013245Y011877D01*
X013183Y011815D01*
X013102Y011782D01*
X013014Y011782D01*
X012933Y011815D01*
X012872Y011877D01*
X012838Y011958D01*
X012838Y012046D01*
X012872Y012126D01*
X012933Y012188D01*
X013014Y012222D01*
X013102Y012222D01*
X013213Y012158D02*
X014053Y012158D01*
X014047Y012060D02*
X013711Y012060D01*
X013772Y011961D02*
X013948Y011961D01*
X013850Y011863D02*
X013778Y011863D01*
X013751Y011764D02*
X013731Y011764D01*
X013385Y011764D02*
X009695Y011764D01*
X009794Y011863D02*
X012886Y011863D01*
X012838Y011961D02*
X011505Y011961D01*
X011505Y012060D02*
X012844Y012060D01*
X012903Y012158D02*
X011505Y012158D01*
X011505Y012257D02*
X014053Y012257D01*
X013758Y012355D02*
X013658Y012355D01*
X013658Y012454D02*
X013758Y012454D01*
X013758Y012552D02*
X013658Y012552D01*
X013658Y012651D02*
X013758Y012651D01*
X013758Y012749D02*
X013658Y012749D01*
X013658Y012848D02*
X013758Y012848D01*
X013758Y013144D02*
X013658Y013144D01*
X013658Y013242D02*
X013758Y013242D01*
X013758Y013341D02*
X013658Y013341D01*
X013658Y013439D02*
X013758Y013439D01*
X013758Y013538D02*
X013658Y013538D01*
X013658Y013636D02*
X013758Y013636D01*
X012458Y013045D02*
X012358Y013045D01*
X012358Y012947D02*
X012458Y012947D01*
X012458Y012848D02*
X012358Y012848D01*
X012358Y012552D02*
X012458Y012552D01*
X012458Y012454D02*
X012358Y012454D01*
X012358Y012355D02*
X012458Y012355D01*
X012114Y012355D02*
X011505Y012355D01*
X012038Y012454D02*
X012038Y012454D01*
X012038Y012552D02*
X012038Y012552D01*
X012038Y012651D02*
X012038Y012651D01*
X012778Y012848D02*
X013066Y012848D01*
X013272Y012060D02*
X013405Y012060D01*
X013345Y011961D02*
X013278Y011961D01*
X013230Y011863D02*
X013338Y011863D01*
X014458Y011370D02*
X014558Y011370D01*
X014558Y011271D02*
X014458Y011271D01*
X014831Y011370D02*
X014883Y011370D01*
X014558Y010976D02*
X014458Y010976D01*
X014458Y010877D02*
X014558Y010877D01*
X014558Y010779D02*
X014458Y010779D01*
X016300Y012060D02*
X016328Y012060D01*
X016627Y012060D02*
X016723Y012060D01*
X016723Y012158D02*
X016627Y012158D01*
X016627Y012257D02*
X016723Y012257D01*
X016723Y012355D02*
X016627Y012355D01*
X016626Y012377D02*
X016338Y012377D01*
X016338Y012474D01*
X016626Y012474D01*
X016626Y012377D01*
X016626Y012454D02*
X016338Y012454D01*
X016627Y011961D02*
X016723Y011961D01*
X016723Y011863D02*
X016627Y011863D01*
X016627Y011764D02*
X016723Y011764D01*
X016724Y011665D02*
X017738Y011665D01*
X017766Y011567D02*
X017121Y011567D01*
X017121Y011764D02*
X017173Y011764D01*
X017136Y011863D02*
X017121Y011863D01*
X017105Y011961D02*
X017136Y011961D01*
X017136Y012060D02*
X017022Y012060D01*
X017120Y012158D02*
X017136Y012158D01*
X017136Y012257D02*
X017121Y012257D01*
X017947Y012122D02*
X017947Y011897D01*
X017988Y011897D01*
X017988Y011922D01*
X018088Y012022D01*
X018308Y012022D01*
X018308Y011702D01*
X018408Y011702D01*
X018408Y012022D01*
X018629Y012022D01*
X018728Y011922D01*
X018728Y011702D01*
X018408Y011702D01*
X018408Y011602D01*
X018728Y011602D01*
X018728Y011381D01*
X018698Y011352D01*
X018728Y011322D01*
X018728Y011102D01*
X018408Y011102D01*
X018308Y011102D01*
X018308Y011282D01*
X018308Y011602D01*
X018408Y011602D01*
X018408Y011282D01*
X018408Y011102D01*
X018408Y011002D01*
X018728Y011002D01*
X018728Y010781D01*
X018629Y010682D01*
X018408Y010682D01*
X018408Y011002D01*
X018308Y011002D01*
X018308Y010682D01*
X018124Y010682D01*
X018124Y010682D01*
X018612Y010682D01*
X018688Y010606D01*
X018688Y010522D01*
X018756Y010522D01*
X018756Y011023D01*
X018832Y011099D01*
X019588Y011099D01*
X019588Y011272D01*
X019595Y011279D01*
X019567Y011291D01*
X019497Y011361D01*
X019459Y011452D01*
X019459Y011551D01*
X019497Y011643D01*
X019548Y011693D01*
X019526Y011693D01*
X019515Y011705D01*
X018832Y011705D01*
X018756Y011781D01*
X018756Y012182D01*
X018688Y012182D01*
X018688Y012098D01*
X018612Y012022D01*
X018104Y012022D01*
X018028Y012098D01*
X018028Y012122D01*
X017947Y012122D01*
X017947Y012060D02*
X018066Y012060D01*
X018027Y011961D02*
X017947Y011961D01*
X018308Y011961D02*
X018408Y011961D01*
X018408Y011863D02*
X018308Y011863D01*
X018308Y011764D02*
X018408Y011764D01*
X018408Y011665D02*
X019520Y011665D01*
X019466Y011567D02*
X018728Y011567D01*
X018728Y011468D02*
X019459Y011468D01*
X019494Y011370D02*
X018716Y011370D01*
X018728Y011271D02*
X019588Y011271D01*
X019588Y011173D02*
X018728Y011173D01*
X018807Y011074D02*
X018408Y011074D01*
X018408Y010976D02*
X018308Y010976D01*
X018308Y010877D02*
X018408Y010877D01*
X018408Y010779D02*
X018308Y010779D01*
X018614Y010680D02*
X018756Y010680D01*
X018756Y010581D02*
X018688Y010581D01*
X018725Y010779D02*
X018756Y010779D01*
X018756Y010877D02*
X018728Y010877D01*
X018728Y010976D02*
X018756Y010976D01*
X018408Y011173D02*
X018308Y011173D01*
X018308Y011271D02*
X018408Y011271D01*
X018408Y011370D02*
X018308Y011370D01*
X018308Y011468D02*
X018408Y011468D01*
X018408Y011567D02*
X018308Y011567D01*
X018728Y011764D02*
X018773Y011764D01*
X018756Y011863D02*
X018728Y011863D01*
X018756Y011961D02*
X018689Y011961D01*
X018650Y012060D02*
X018756Y012060D01*
X018756Y012158D02*
X018688Y012158D01*
X018688Y012522D02*
X018688Y012606D01*
X018612Y012682D01*
X018382Y012682D01*
X018416Y012716D01*
X018416Y013036D01*
X018447Y012961D01*
X018517Y012891D01*
X018609Y012853D01*
X018688Y012853D01*
X018688Y012681D01*
X018764Y012606D01*
X018756Y012597D01*
X018756Y012522D01*
X018688Y012522D01*
X018688Y012552D02*
X018756Y012552D01*
X018719Y012651D02*
X018643Y012651D01*
X018658Y012752D02*
X018418Y012992D01*
X018418Y013302D01*
X018416Y013341D02*
X018585Y013341D01*
X018609Y013351D02*
X018517Y013313D01*
X018447Y013243D01*
X018416Y013167D01*
X018416Y013614D01*
X018724Y013922D01*
X018754Y013952D01*
X019008Y013952D01*
X019008Y014272D01*
X019008Y014452D01*
X019108Y014452D01*
X019108Y014272D01*
X019108Y013952D01*
X019008Y013952D01*
X019008Y013852D01*
X018688Y013852D01*
X018688Y013631D01*
X018718Y013601D01*
X018718Y013434D01*
X019000Y013434D01*
X019000Y013419D01*
X018718Y013419D01*
X018718Y013346D01*
X018708Y013351D01*
X018609Y013351D01*
X018718Y013439D02*
X018416Y013439D01*
X018416Y013538D02*
X018718Y013538D01*
X018688Y013636D02*
X018439Y013636D01*
X018537Y013735D02*
X018688Y013735D01*
X018688Y013833D02*
X018636Y013833D01*
X018734Y013932D02*
X019008Y013932D01*
X019008Y013852D02*
X019108Y013852D01*
X019108Y013712D01*
X019016Y013712D01*
X019016Y013435D01*
X019001Y013435D01*
X019001Y013532D01*
X019008Y013532D01*
X019008Y013852D01*
X019008Y013833D02*
X019108Y013833D01*
X019108Y013735D02*
X019008Y013735D01*
X019008Y013636D02*
X019016Y013636D01*
X019008Y013538D02*
X019016Y013538D01*
X019016Y013439D02*
X019001Y013439D01*
X019001Y013419D02*
X019016Y013419D01*
X019016Y013142D01*
X019108Y013142D01*
X019108Y013002D01*
X019008Y013002D01*
X019008Y013322D01*
X019001Y013322D01*
X019001Y013419D01*
X019001Y013341D02*
X019016Y013341D01*
X019008Y013242D02*
X019016Y013242D01*
X019008Y013144D02*
X019016Y013144D01*
X019008Y013045D02*
X019108Y013045D01*
X019108Y013002D02*
X019428Y013002D01*
X019428Y013142D01*
X019428Y013142D01*
X019428Y012698D01*
X019453Y012674D01*
X019420Y012674D01*
X019428Y012681D01*
X019428Y012902D01*
X019108Y012902D01*
X019108Y013002D01*
X019108Y012947D02*
X019428Y012947D01*
X019428Y013045D02*
X019428Y013045D01*
X019428Y012848D02*
X019428Y012848D01*
X019428Y012749D02*
X019428Y012749D01*
X018688Y012749D02*
X018416Y012749D01*
X018416Y012848D02*
X018688Y012848D01*
X018462Y012947D02*
X018416Y012947D01*
X018416Y013242D02*
X018447Y013242D01*
X019708Y013627D02*
X019708Y013852D01*
X019758Y013902D01*
X019108Y014031D02*
X019008Y014031D01*
X019008Y014129D02*
X019108Y014129D01*
X019108Y014228D02*
X019008Y014228D01*
X019008Y014326D02*
X019108Y014326D01*
X019108Y014425D02*
X019008Y014425D01*
X019008Y014552D02*
X019008Y014692D01*
X019101Y014692D01*
X019101Y014969D01*
X019116Y014969D01*
X019116Y014872D01*
X019108Y014872D01*
X019108Y014552D01*
X019008Y014552D01*
X019008Y014622D02*
X019108Y014622D01*
X019101Y014720D02*
X019108Y014720D01*
X019101Y014819D02*
X019108Y014819D01*
X019101Y014917D02*
X019116Y014917D01*
X020088Y014407D02*
X020088Y014340D01*
X020106Y014340D01*
X020142Y014376D01*
X020142Y014383D01*
X020149Y014383D01*
X020149Y014383D01*
X020142Y014383D01*
X020142Y014407D01*
X020088Y014407D01*
X021008Y014652D02*
X021008Y014698D01*
X021008Y015102D01*
X020940Y015170D01*
X021053Y015312D02*
X021528Y015312D01*
X021528Y015313D02*
X021528Y015266D01*
X021234Y014972D01*
X021189Y014972D01*
X021188Y014971D01*
X021188Y015176D01*
X021083Y015282D01*
X021032Y015332D01*
X021032Y015336D01*
X021072Y015376D01*
X021072Y015485D01*
X020968Y015485D01*
X020968Y015485D01*
X020968Y015486D01*
X021072Y015486D01*
X021072Y015595D01*
X021032Y015635D01*
X021032Y015736D01*
X020956Y015812D01*
X020678Y015812D01*
X020677Y015813D01*
X020338Y015813D01*
X020338Y015868D01*
X020174Y016032D01*
X018416Y016032D01*
X018416Y016283D01*
X018563Y016222D01*
X018754Y016222D01*
X018930Y016295D01*
X019065Y016430D01*
X019138Y016606D01*
X019138Y016797D01*
X019065Y016974D01*
X019037Y017002D01*
X019279Y017002D01*
X019251Y016974D01*
X019178Y016797D01*
X019178Y016606D01*
X019251Y016430D01*
X019386Y016295D01*
X019563Y016222D01*
X019754Y016222D01*
X019930Y016295D01*
X020047Y016412D01*
X020063Y016397D01*
X020253Y016397D01*
X020578Y016722D01*
X020676Y016722D01*
X020647Y016693D01*
X020609Y016601D01*
X020609Y016502D01*
X020647Y016411D01*
X020717Y016341D01*
X020809Y016303D01*
X020908Y016303D01*
X020999Y016341D01*
X021000Y016342D01*
X021021Y016342D01*
X021047Y016316D01*
X021047Y016183D01*
X021048Y016182D01*
X021048Y015904D01*
X021124Y015828D01*
X021205Y015828D01*
X021205Y015815D01*
X021210Y015810D01*
X021210Y015782D01*
X021268Y015723D01*
X021379Y015612D01*
X021699Y015612D01*
X021528Y015441D01*
X021528Y015313D01*
X021528Y015410D02*
X021072Y015410D01*
X021072Y015509D02*
X021596Y015509D01*
X021694Y015607D02*
X021060Y015607D01*
X021032Y015706D02*
X021286Y015706D01*
X021210Y015804D02*
X020964Y015804D01*
X021049Y015903D02*
X020303Y015903D01*
X020205Y016001D02*
X021048Y016001D01*
X021048Y016100D02*
X018416Y016100D01*
X018416Y016198D02*
X021047Y016198D01*
X021047Y016297D02*
X019932Y016297D01*
X020031Y016396D02*
X020663Y016396D01*
X020613Y016494D02*
X020351Y016494D01*
X020449Y016593D02*
X020609Y016593D01*
X020647Y016691D02*
X020548Y016691D01*
X019384Y016297D02*
X018932Y016297D01*
X019031Y016396D02*
X019286Y016396D01*
X019225Y016494D02*
X019092Y016494D01*
X019132Y016593D02*
X019184Y016593D01*
X019178Y016691D02*
X019138Y016691D01*
X019138Y016790D02*
X019178Y016790D01*
X019216Y016888D02*
X019100Y016888D01*
X019052Y016987D02*
X019264Y016987D01*
X018279Y017002D02*
X018251Y016974D01*
X018178Y016797D01*
X018178Y016606D01*
X018251Y016430D01*
X018317Y016364D01*
X017999Y016364D01*
X018065Y016430D01*
X018138Y016606D01*
X018138Y016797D01*
X018065Y016974D01*
X018037Y017002D01*
X018279Y017002D01*
X018264Y016987D02*
X018052Y016987D01*
X018100Y016888D02*
X018216Y016888D01*
X018178Y016790D02*
X018138Y016790D01*
X018138Y016691D02*
X018178Y016691D01*
X018184Y016593D02*
X018132Y016593D01*
X018092Y016494D02*
X018225Y016494D01*
X018286Y016396D02*
X018031Y016396D01*
X017317Y016364D02*
X016999Y016364D01*
X017065Y016430D01*
X017138Y016606D01*
X017138Y016797D01*
X017065Y016974D01*
X017037Y017002D01*
X017279Y017002D01*
X017251Y016974D01*
X017178Y016797D01*
X017178Y016606D01*
X017251Y016430D01*
X017317Y016364D01*
X017286Y016396D02*
X017031Y016396D01*
X017092Y016494D02*
X017225Y016494D01*
X017184Y016593D02*
X017132Y016593D01*
X017138Y016691D02*
X017178Y016691D01*
X017178Y016790D02*
X017138Y016790D01*
X017100Y016888D02*
X017216Y016888D01*
X017264Y016987D02*
X017052Y016987D01*
X016279Y017002D02*
X016251Y016974D01*
X016178Y016797D01*
X016178Y016606D01*
X016251Y016430D01*
X016317Y016364D01*
X015999Y016364D01*
X016065Y016430D01*
X016138Y016606D01*
X016138Y016797D01*
X016065Y016974D01*
X016037Y017002D01*
X016279Y017002D01*
X016264Y016987D02*
X016052Y016987D01*
X016100Y016888D02*
X016216Y016888D01*
X016178Y016790D02*
X016138Y016790D01*
X016138Y016691D02*
X016178Y016691D01*
X016184Y016593D02*
X016132Y016593D01*
X016092Y016494D02*
X016225Y016494D01*
X016286Y016396D02*
X016031Y016396D01*
X015384Y016297D02*
X014932Y016297D01*
X015031Y016396D02*
X015286Y016396D01*
X015225Y016494D02*
X015092Y016494D01*
X015132Y016593D02*
X015184Y016593D01*
X015178Y016691D02*
X015138Y016691D01*
X015138Y016790D02*
X015178Y016790D01*
X015216Y016888D02*
X015100Y016888D01*
X015052Y016987D02*
X015264Y016987D01*
X015400Y016198D02*
X007802Y016198D01*
X007762Y016182D02*
X007953Y016261D01*
X008099Y016407D01*
X008178Y016598D01*
X008178Y016653D01*
X007707Y016653D01*
X007707Y016182D01*
X007762Y016182D01*
X007707Y016198D02*
X007628Y016198D01*
X007610Y016297D02*
X007707Y016297D01*
X007707Y016396D02*
X007610Y016396D01*
X007610Y016494D02*
X007707Y016494D01*
X007707Y016593D02*
X007610Y016593D01*
X007609Y016653D02*
X007173Y016653D01*
X007138Y016689D01*
X007138Y017002D01*
X007223Y017002D01*
X007217Y016996D01*
X007138Y016805D01*
X007138Y016750D01*
X007609Y016750D01*
X007609Y016653D01*
X007609Y016691D02*
X007138Y016691D01*
X007138Y016790D02*
X007138Y016790D01*
X007138Y016888D02*
X007172Y016888D01*
X007138Y016987D02*
X007213Y016987D01*
X007707Y016691D02*
X008178Y016691D01*
X008176Y016593D02*
X008184Y016593D01*
X008225Y016494D02*
X008135Y016494D01*
X008087Y016396D02*
X008286Y016396D01*
X008384Y016297D02*
X007989Y016297D01*
X008178Y016790D02*
X008178Y016790D01*
X008144Y016888D02*
X008216Y016888D01*
X008264Y016987D02*
X008103Y016987D01*
X009052Y016987D02*
X009264Y016987D01*
X009216Y016888D02*
X009100Y016888D01*
X009138Y016790D02*
X009178Y016790D01*
X009178Y016691D02*
X009138Y016691D01*
X009132Y016593D02*
X009184Y016593D01*
X009225Y016494D02*
X009092Y016494D01*
X009031Y016396D02*
X009286Y016396D01*
X009384Y016297D02*
X008932Y016297D01*
X009932Y016297D02*
X010384Y016297D01*
X010286Y016396D02*
X010031Y016396D01*
X010092Y016494D02*
X010225Y016494D01*
X010184Y016593D02*
X010132Y016593D01*
X010138Y016691D02*
X010178Y016691D01*
X010178Y016790D02*
X010138Y016790D01*
X010100Y016888D02*
X010216Y016888D01*
X010264Y016987D02*
X010052Y016987D01*
X011052Y016987D02*
X011264Y016987D01*
X011216Y016888D02*
X011100Y016888D01*
X011138Y016790D02*
X011178Y016790D01*
X011178Y016691D02*
X011138Y016691D01*
X011132Y016593D02*
X011184Y016593D01*
X011225Y016494D02*
X011092Y016494D01*
X011031Y016396D02*
X011286Y016396D01*
X011384Y016297D02*
X010932Y016297D01*
X011932Y016297D02*
X012384Y016297D01*
X012286Y016396D02*
X012031Y016396D01*
X012092Y016494D02*
X012225Y016494D01*
X012184Y016593D02*
X012132Y016593D01*
X012138Y016691D02*
X012178Y016691D01*
X012178Y016790D02*
X012138Y016790D01*
X012100Y016888D02*
X012216Y016888D01*
X012264Y016987D02*
X012052Y016987D01*
X013052Y016987D02*
X013264Y016987D01*
X013216Y016888D02*
X013100Y016888D01*
X013138Y016790D02*
X013178Y016790D01*
X013178Y016691D02*
X013138Y016691D01*
X013132Y016593D02*
X013184Y016593D01*
X013225Y016494D02*
X013092Y016494D01*
X013031Y016396D02*
X013286Y016396D01*
X013384Y016297D02*
X012932Y016297D01*
X013932Y016297D02*
X014384Y016297D01*
X014286Y016396D02*
X014031Y016396D01*
X014092Y016494D02*
X014225Y016494D01*
X014184Y016593D02*
X014132Y016593D01*
X014138Y016691D02*
X014178Y016691D01*
X014178Y016790D02*
X014138Y016790D01*
X014100Y016888D02*
X014216Y016888D01*
X014264Y016987D02*
X014052Y016987D01*
X014288Y016100D02*
X015400Y016100D01*
X015400Y016001D02*
X014311Y016001D01*
X014311Y015903D02*
X015400Y015903D01*
X015400Y015804D02*
X014311Y015804D01*
X014311Y015706D02*
X015400Y015706D01*
X015400Y015607D02*
X014311Y015607D01*
X014311Y015509D02*
X015400Y015509D01*
X015400Y015410D02*
X014511Y015410D01*
X014586Y015312D02*
X015400Y015312D01*
X013106Y015509D02*
X011973Y015509D01*
X009065Y013144D02*
X009044Y013144D01*
X009044Y013045D02*
X009182Y013045D01*
X009040Y012947D02*
X009344Y012947D01*
X009443Y012848D02*
X007128Y012848D01*
X007056Y012749D02*
X009541Y012749D01*
X009640Y012651D02*
X007132Y012651D01*
X007168Y012552D02*
X009047Y012552D01*
X009369Y012552D02*
X009738Y012552D01*
X009573Y012454D02*
X009425Y012454D01*
X009427Y012355D02*
X009572Y012355D01*
X009538Y012257D02*
X009374Y012257D01*
X009439Y012158D02*
X009077Y012158D01*
X009176Y012060D02*
X009341Y012060D01*
X009328Y011961D02*
X009238Y011961D01*
X009238Y011863D02*
X009328Y011863D01*
X009421Y011764D02*
X009195Y011764D01*
X008821Y011764D02*
X007055Y011764D01*
X007077Y011665D02*
X011731Y011665D01*
X011638Y011271D02*
X011505Y011271D01*
X009366Y010877D02*
X009027Y010877D01*
X009084Y010976D02*
X009268Y010976D01*
X009178Y011074D02*
X009084Y011074D01*
X008126Y011074D02*
X008029Y011074D01*
X008029Y010976D02*
X008126Y010976D01*
X008126Y010877D02*
X008029Y010877D01*
X008029Y011271D02*
X008126Y011271D01*
X008126Y011370D02*
X008029Y011370D01*
X008029Y011468D02*
X008126Y011468D01*
X008126Y011567D02*
X008029Y011567D01*
X008722Y011863D02*
X007128Y011863D01*
X007128Y011567D02*
X007169Y011567D01*
X007071Y011271D02*
X007054Y011271D01*
X006424Y010680D02*
X006358Y010680D01*
X008177Y009596D02*
X008182Y009596D01*
X008223Y009498D02*
X008136Y009498D01*
X017772Y011552D02*
X017772Y011552D01*
X020048Y013245D02*
X020084Y013209D01*
X020114Y013222D01*
X020142Y013222D01*
X020142Y013280D01*
X020246Y013280D01*
X020246Y013281D01*
X020246Y013281D01*
X020142Y013281D01*
X020142Y013339D01*
X020048Y013245D01*
X020052Y013242D02*
X020142Y013242D01*
X021188Y015016D02*
X021278Y015016D01*
X021188Y015114D02*
X021377Y015114D01*
X021475Y015213D02*
X021151Y015213D01*
X022336Y016799D02*
X022302Y016882D01*
X022238Y016946D01*
X022154Y016981D01*
X022063Y016981D01*
X021978Y016946D01*
X021974Y016942D01*
X021879Y016942D01*
X021860Y016922D01*
X021860Y016941D01*
X021798Y017002D01*
X022539Y017002D01*
X022478Y016941D01*
X022336Y016799D01*
X022296Y016888D02*
X022425Y016888D01*
X022358Y017002D02*
X022808Y017002D01*
X023108Y017002D01*
X023608Y017002D01*
X023147Y016982D02*
X024213Y016982D01*
X024213Y017001D01*
X024214Y017002D01*
X023127Y017002D01*
X023147Y016982D01*
X023142Y016987D02*
X024213Y016987D01*
X023108Y017002D02*
X023108Y017052D01*
X022808Y017052D02*
X022808Y017002D01*
X022524Y016987D02*
X021814Y016987D01*
X022308Y016952D02*
X022358Y017002D01*
X024090Y015014D02*
X024122Y014936D01*
X024192Y014866D01*
X024200Y014863D01*
X024063Y014726D01*
X024063Y014988D01*
X024090Y015014D01*
X024063Y014917D02*
X024141Y014917D01*
X024156Y014819D02*
X024063Y014819D01*
X026254Y015717D02*
X026254Y015890D01*
X026268Y015904D01*
X026268Y016222D01*
X026394Y016097D01*
X026428Y016097D01*
X026428Y016097D01*
X026409Y016051D01*
X026409Y015952D01*
X026428Y015907D01*
X026428Y015907D01*
X026429Y015906D01*
X026447Y015861D01*
X026496Y015812D01*
X026360Y015812D01*
X026346Y015798D01*
X026335Y015798D01*
X026254Y015717D01*
X026254Y015804D02*
X026352Y015804D01*
X026430Y015903D02*
X026267Y015903D01*
X026268Y016001D02*
X026409Y016001D01*
X026391Y016100D02*
X026268Y016100D01*
X026268Y016198D02*
X026292Y016198D01*
X027238Y016097D02*
X027953Y015382D01*
X027953Y016088D01*
X027953Y016216D01*
X028078Y016341D01*
X028078Y016462D01*
X028065Y016430D01*
X027930Y016295D01*
X027754Y016222D01*
X027645Y016222D01*
X027545Y016122D01*
X027297Y016122D01*
X027272Y016097D01*
X027238Y016097D01*
X027275Y016100D02*
X027953Y016100D01*
X027953Y016198D02*
X027621Y016198D01*
X027932Y016297D02*
X028034Y016297D01*
X028031Y016396D02*
X028078Y016396D01*
X027953Y016001D02*
X027334Y016001D01*
X027432Y015903D02*
X027953Y015903D01*
X027953Y015804D02*
X027531Y015804D01*
X027629Y015706D02*
X027953Y015706D01*
X027953Y015607D02*
X027728Y015607D01*
X027826Y015509D02*
X027953Y015509D01*
X027953Y015410D02*
X027925Y015410D01*
X028918Y015177D02*
X029022Y015177D01*
X029577Y014622D01*
X029725Y014622D01*
X029261Y014622D01*
X029261Y014720D02*
X029479Y014720D01*
X029380Y014819D02*
X029252Y014819D01*
X029261Y014810D02*
X029185Y014886D01*
X029013Y014886D01*
X029015Y014891D01*
X029015Y015013D01*
X028968Y015126D01*
X028918Y015177D01*
X028973Y015114D02*
X029084Y015114D01*
X029014Y015016D02*
X029183Y015016D01*
X029281Y014917D02*
X029015Y014917D01*
X029261Y014810D02*
X029261Y013994D01*
X029185Y013918D01*
X028662Y013918D01*
X028672Y013907D01*
X029094Y013907D01*
X029222Y013907D01*
X029520Y013609D01*
X029520Y013613D01*
X029564Y013719D01*
X029645Y013800D01*
X029751Y013844D01*
X029865Y013844D01*
X029971Y013800D01*
X030052Y013719D01*
X030096Y013613D01*
X030096Y013499D01*
X030052Y013393D01*
X029971Y013312D01*
X029865Y013268D01*
X029751Y013268D01*
X029645Y013312D01*
X029613Y013344D01*
X029613Y013059D01*
X029645Y013091D01*
X029751Y013135D01*
X029865Y013135D01*
X029971Y013091D01*
X030052Y013011D01*
X030096Y012905D01*
X030096Y012790D01*
X030052Y012685D01*
X029971Y012604D01*
X029868Y012561D01*
X030022Y012407D01*
X030294Y012407D01*
X030422Y012407D01*
X031028Y011801D01*
X031028Y012056D01*
X031104Y012132D01*
X031528Y012132D01*
X031528Y012132D01*
X031408Y012132D01*
X031408Y012452D01*
X031308Y012452D01*
X030988Y012452D01*
X030988Y012231D01*
X031088Y012132D01*
X031308Y012132D01*
X031308Y012452D01*
X031308Y012552D01*
X030988Y012552D01*
X030988Y012772D01*
X030992Y012777D01*
X030335Y012777D01*
X030259Y012853D01*
X030259Y013551D01*
X030280Y013572D01*
X030263Y013572D01*
X029778Y014057D01*
X029778Y014247D01*
X029778Y014298D01*
X029748Y014328D01*
X029701Y014441D01*
X029701Y014563D01*
X029725Y014622D01*
X029701Y014523D02*
X029261Y014523D01*
X029261Y014425D02*
X029708Y014425D01*
X029749Y014326D02*
X029261Y014326D01*
X029261Y014228D02*
X029778Y014228D01*
X029778Y014129D02*
X029261Y014129D01*
X029261Y014031D02*
X029804Y014031D01*
X029903Y013932D02*
X029199Y013932D01*
X029296Y013833D02*
X029725Y013833D01*
X029891Y013833D02*
X030001Y013833D01*
X030036Y013735D02*
X030100Y013735D01*
X030086Y013636D02*
X030198Y013636D01*
X030259Y013538D02*
X030096Y013538D01*
X030071Y013439D02*
X030259Y013439D01*
X030259Y013341D02*
X030000Y013341D01*
X030259Y013242D02*
X029613Y013242D01*
X029613Y013144D02*
X030259Y013144D01*
X030259Y013045D02*
X030018Y013045D01*
X030079Y012947D02*
X030259Y012947D01*
X030264Y012848D02*
X030096Y012848D01*
X030079Y012749D02*
X030988Y012749D01*
X030988Y012651D02*
X030018Y012651D01*
X029877Y012552D02*
X030988Y012552D01*
X030988Y012355D02*
X030474Y012355D01*
X030572Y012257D02*
X030988Y012257D01*
X031061Y012158D02*
X030671Y012158D01*
X030769Y012060D02*
X031032Y012060D01*
X031028Y011961D02*
X030868Y011961D01*
X030967Y011863D02*
X031028Y011863D01*
X030674Y011567D02*
X029238Y011567D01*
X029238Y011665D02*
X030575Y011665D01*
X030477Y011764D02*
X029238Y011764D01*
X029238Y011863D02*
X029936Y011863D01*
X029958Y011840D02*
X030039Y011807D01*
X030127Y011807D01*
X030208Y011840D01*
X030239Y011872D01*
X030369Y011872D01*
X030953Y011288D01*
X030953Y011227D01*
X030428Y011227D01*
X030428Y011271D01*
X030953Y011271D01*
X030871Y011370D02*
X030376Y011370D01*
X030395Y011351D02*
X030333Y011413D01*
X030252Y011447D01*
X030164Y011447D01*
X030083Y011413D01*
X030022Y011351D01*
X030021Y011350D01*
X029971Y011400D01*
X029865Y011444D01*
X029751Y011444D01*
X029645Y011400D01*
X029564Y011319D01*
X029520Y011213D01*
X029520Y011099D01*
X029564Y010993D01*
X029645Y010912D01*
X029751Y010868D01*
X029865Y010868D01*
X029971Y010912D01*
X030009Y010951D01*
X030009Y010902D01*
X030043Y010822D01*
X030022Y010801D01*
X029988Y010721D01*
X029988Y010674D01*
X029971Y010691D01*
X029865Y010735D01*
X029751Y010735D01*
X029645Y010691D01*
X029564Y010611D01*
X029556Y010590D01*
X029533Y010613D01*
X029452Y010647D01*
X029364Y010647D01*
X029357Y010644D01*
X029357Y011151D01*
X029281Y011227D01*
X029238Y011227D01*
X029238Y012136D01*
X029288Y012256D01*
X029288Y012447D01*
X029238Y012568D01*
X029238Y012777D01*
X029281Y012777D01*
X029303Y012799D01*
X029303Y012688D01*
X029803Y012188D01*
X029880Y012111D01*
X029863Y012071D01*
X029863Y011983D01*
X029897Y011902D01*
X029958Y011840D01*
X029872Y011961D02*
X029238Y011961D01*
X029238Y012060D02*
X029863Y012060D01*
X029833Y012158D02*
X029247Y012158D01*
X029288Y012257D02*
X029734Y012257D01*
X029636Y012355D02*
X029288Y012355D01*
X029285Y012454D02*
X029537Y012454D01*
X029438Y012552D02*
X029245Y012552D01*
X029238Y012651D02*
X029340Y012651D01*
X029303Y012749D02*
X029238Y012749D01*
X029058Y013066D02*
X028922Y013202D01*
X029058Y013066D02*
X029058Y012352D01*
X028808Y012352D01*
X029058Y012352D02*
X029058Y010938D01*
X028922Y010802D01*
X028522Y010402D01*
X028258Y010402D01*
X028349Y010072D02*
X028004Y010072D01*
X027928Y010148D01*
X027928Y010172D01*
X027838Y010172D01*
X027838Y010148D01*
X027837Y010147D01*
X027930Y010109D01*
X028065Y009974D01*
X028138Y009797D01*
X028138Y009606D01*
X028065Y009430D01*
X028037Y009402D01*
X028279Y009402D01*
X028251Y009430D01*
X028178Y009606D01*
X028178Y009797D01*
X028251Y009974D01*
X028349Y010072D01*
X028268Y009990D02*
X028049Y009990D01*
X028099Y009892D02*
X028217Y009892D01*
X028178Y009793D02*
X028138Y009793D01*
X028138Y009695D02*
X028178Y009695D01*
X028182Y009596D02*
X028134Y009596D01*
X028093Y009498D02*
X028223Y009498D01*
X029037Y009402D02*
X029065Y009430D01*
X029138Y009606D01*
X029138Y009797D01*
X029065Y009974D01*
X028930Y010109D01*
X028754Y010182D01*
X028588Y010182D01*
X028588Y010222D01*
X028597Y010222D01*
X028702Y010327D01*
X028752Y010377D01*
X029128Y010377D01*
X029142Y010363D01*
X029233Y010272D01*
X029252Y010272D01*
X029283Y010240D01*
X029364Y010207D01*
X029452Y010207D01*
X029533Y010240D01*
X029570Y010278D01*
X029645Y010204D01*
X029698Y010182D01*
X029563Y010182D01*
X029386Y010109D01*
X029251Y009974D01*
X029178Y009797D01*
X029178Y009606D01*
X029251Y009430D01*
X029279Y009402D01*
X029037Y009402D01*
X029093Y009498D02*
X029223Y009498D01*
X029182Y009596D02*
X029134Y009596D01*
X029138Y009695D02*
X029178Y009695D01*
X029178Y009793D02*
X029138Y009793D01*
X029099Y009892D02*
X029217Y009892D01*
X029268Y009990D02*
X029049Y009990D01*
X028950Y010089D02*
X029366Y010089D01*
X029219Y010286D02*
X028661Y010286D01*
X028588Y010187D02*
X029684Y010187D01*
X029807Y010160D02*
X029865Y010160D01*
X029971Y010204D01*
X030052Y010285D01*
X030096Y010390D01*
X030096Y010445D01*
X030419Y010122D01*
X030386Y010109D01*
X030251Y009974D01*
X030178Y009797D01*
X030178Y009606D01*
X030251Y009430D01*
X030279Y009402D01*
X030037Y009402D01*
X030065Y009430D01*
X030138Y009606D01*
X030138Y009797D01*
X030065Y009974D01*
X029930Y010109D01*
X029807Y010160D01*
X029932Y010187D02*
X030354Y010187D01*
X030366Y010089D02*
X029950Y010089D01*
X030049Y009990D02*
X030268Y009990D01*
X030217Y009892D02*
X030099Y009892D01*
X030138Y009793D02*
X030178Y009793D01*
X030178Y009695D02*
X030138Y009695D01*
X030134Y009596D02*
X030182Y009596D01*
X030223Y009498D02*
X030093Y009498D01*
X030053Y010286D02*
X030255Y010286D01*
X030156Y010384D02*
X030093Y010384D01*
X029988Y010680D02*
X029983Y010680D01*
X030012Y010779D02*
X029357Y010779D01*
X029357Y010877D02*
X029730Y010877D01*
X029886Y010877D02*
X030020Y010877D01*
X030258Y010952D02*
X030544Y010952D01*
X030694Y010802D01*
X030428Y011271D02*
X030395Y011351D01*
X030040Y011370D02*
X030001Y011370D01*
X029615Y011370D02*
X029238Y011370D01*
X029238Y011468D02*
X030772Y011468D01*
X030378Y011863D02*
X030230Y011863D01*
X029544Y011271D02*
X029238Y011271D01*
X029336Y011173D02*
X029520Y011173D01*
X029531Y011074D02*
X029357Y011074D01*
X029357Y010976D02*
X029582Y010976D01*
X029634Y010680D02*
X029357Y010680D01*
X028487Y010732D02*
X028004Y010732D01*
X027928Y010656D01*
X027928Y010632D01*
X027838Y010632D01*
X027838Y010656D01*
X027762Y010732D01*
X027254Y010732D01*
X027178Y010656D01*
X027178Y010148D01*
X027254Y010072D01*
X027349Y010072D01*
X027251Y009974D01*
X027178Y009797D01*
X027178Y009606D01*
X027251Y009430D01*
X027279Y009402D01*
X027037Y009402D01*
X027065Y009430D01*
X027138Y009606D01*
X027138Y009797D01*
X027065Y009974D01*
X026930Y010109D01*
X026754Y010182D01*
X026563Y010182D01*
X026386Y010109D01*
X026268Y009991D01*
X026268Y010500D01*
X026254Y010514D01*
X026254Y010525D01*
X026163Y010616D01*
X025932Y010847D01*
X026094Y010847D01*
X026244Y010697D01*
X026335Y010606D01*
X026346Y010606D01*
X026360Y010592D01*
X027058Y010592D01*
X027135Y010668D01*
X027135Y010825D01*
X027135Y010926D01*
X027175Y010966D01*
X027175Y011076D01*
X027175Y011186D01*
X027135Y011226D01*
X027135Y011298D01*
X027135Y011413D01*
X027209Y011487D01*
X027212Y011487D01*
X027301Y011576D01*
X027304Y011572D01*
X027339Y011572D01*
X027338Y011571D01*
X027338Y011483D01*
X027359Y011432D01*
X027254Y011432D01*
X027178Y011356D01*
X027178Y010848D01*
X027254Y010772D01*
X027762Y010772D01*
X027838Y010848D01*
X027838Y011303D01*
X027908Y011303D01*
X027928Y011312D01*
X027928Y010848D01*
X028004Y010772D01*
X028487Y010772D01*
X028487Y010732D01*
X027998Y010779D02*
X027769Y010779D01*
X027814Y010680D02*
X027952Y010680D01*
X027928Y010877D02*
X027838Y010877D01*
X027838Y010976D02*
X027928Y010976D01*
X027928Y011074D02*
X027838Y011074D01*
X027838Y011173D02*
X027928Y011173D01*
X027928Y011271D02*
X027838Y011271D01*
X028078Y011432D02*
X028107Y011502D01*
X028107Y011532D01*
X028208Y011532D01*
X028208Y011852D01*
X027888Y011852D01*
X027888Y011840D01*
X027888Y011841D01*
X027888Y012156D01*
X027847Y012197D01*
X027865Y012241D01*
X027865Y012363D01*
X027864Y012367D01*
X027951Y012367D01*
X027951Y012644D01*
X027966Y012644D01*
X027966Y012659D01*
X028248Y012659D01*
X028248Y012837D01*
X028149Y012937D01*
X027966Y012937D01*
X027966Y012660D01*
X027951Y012660D01*
X027951Y012937D01*
X027768Y012937D01*
X027728Y012897D01*
X027673Y012897D01*
X027678Y012908D01*
X027678Y012996D01*
X027661Y013036D01*
X027722Y013097D01*
X027894Y013097D01*
X028022Y013097D01*
X028272Y013347D01*
X028363Y013438D01*
X028363Y013778D01*
X028539Y013602D01*
X028487Y013551D01*
X028487Y012853D01*
X028563Y012777D01*
X028579Y012777D01*
X028536Y012759D01*
X028401Y012624D01*
X028328Y012447D01*
X028328Y012272D01*
X028308Y012272D01*
X028308Y011952D01*
X028208Y011952D01*
X028208Y012272D01*
X027988Y012272D01*
X027888Y012172D01*
X027888Y011952D01*
X028208Y011952D01*
X028208Y011852D01*
X028308Y011852D01*
X028308Y011713D01*
X028247Y011651D01*
X028213Y011571D01*
X028213Y011483D01*
X028234Y011432D01*
X028078Y011432D01*
X028093Y011468D02*
X028219Y011468D01*
X028208Y011567D02*
X028213Y011567D01*
X028208Y011665D02*
X028261Y011665D01*
X028308Y011764D02*
X028208Y011764D01*
X028208Y011863D02*
X027888Y011863D01*
X027888Y011961D02*
X027888Y011961D01*
X027888Y012060D02*
X027888Y012060D01*
X027886Y012158D02*
X027888Y012158D01*
X027865Y012257D02*
X027973Y012257D01*
X027966Y012367D02*
X028149Y012367D01*
X028248Y012466D01*
X028248Y012644D01*
X027966Y012644D01*
X027966Y012367D01*
X027966Y012454D02*
X027951Y012454D01*
X027951Y012552D02*
X027966Y012552D01*
X027966Y012651D02*
X028428Y012651D01*
X028372Y012552D02*
X028248Y012552D01*
X028235Y012454D02*
X028331Y012454D01*
X028328Y012355D02*
X027865Y012355D01*
X028208Y012257D02*
X028308Y012257D01*
X028308Y012158D02*
X028208Y012158D01*
X028208Y012060D02*
X028308Y012060D01*
X028308Y011961D02*
X028208Y011961D01*
X027558Y011527D02*
X027558Y011152D01*
X027508Y011102D01*
X027178Y011074D02*
X027175Y011074D01*
X027175Y011076D02*
X027070Y011076D01*
X027070Y011076D01*
X027070Y011076D01*
X027175Y011076D01*
X027175Y011173D02*
X027178Y011173D01*
X027178Y011271D02*
X027135Y011271D01*
X027135Y011370D02*
X027192Y011370D01*
X027190Y011468D02*
X027344Y011468D01*
X027338Y011567D02*
X027292Y011567D01*
X027178Y010976D02*
X027175Y010976D01*
X027178Y010877D02*
X027135Y010877D01*
X027135Y010779D02*
X027248Y010779D01*
X027202Y010680D02*
X027135Y010680D01*
X027178Y010581D02*
X026198Y010581D01*
X026261Y010680D02*
X026099Y010680D01*
X026162Y010779D02*
X026001Y010779D01*
X026268Y010483D02*
X027178Y010483D01*
X027178Y010384D02*
X026268Y010384D01*
X026268Y010286D02*
X027178Y010286D01*
X027178Y010187D02*
X026268Y010187D01*
X026268Y010089D02*
X026366Y010089D01*
X026950Y010089D02*
X027237Y010089D01*
X027268Y009990D02*
X027049Y009990D01*
X027099Y009892D02*
X027217Y009892D01*
X027178Y009793D02*
X027138Y009793D01*
X027138Y009695D02*
X027178Y009695D01*
X027182Y009596D02*
X027134Y009596D01*
X027093Y009498D02*
X027223Y009498D01*
X027950Y010089D02*
X027987Y010089D01*
X026178Y009725D02*
X026024Y009725D01*
X026087Y009662D01*
X026102Y009662D01*
X026178Y009630D01*
X026178Y009725D01*
X026178Y009695D02*
X026055Y009695D01*
X024158Y009507D02*
X024158Y009442D01*
X024158Y009507D02*
X023894Y009771D01*
X020647Y009402D02*
X020037Y009402D01*
X020065Y009430D01*
X020113Y009547D01*
X020149Y009532D01*
X020237Y009532D01*
X020318Y009565D01*
X020380Y009627D01*
X020388Y009648D01*
X020397Y009627D01*
X020458Y009565D01*
X020539Y009532D01*
X020550Y009532D01*
X020577Y009467D01*
X020638Y009405D01*
X020647Y009402D01*
X020564Y009498D02*
X020093Y009498D01*
X020348Y009596D02*
X020428Y009596D01*
X027678Y012947D02*
X028487Y012947D01*
X028487Y013045D02*
X027670Y013045D01*
X027951Y012848D02*
X027966Y012848D01*
X027966Y012749D02*
X027951Y012749D01*
X028248Y012749D02*
X028527Y012749D01*
X028492Y012848D02*
X028237Y012848D01*
X028069Y013144D02*
X028487Y013144D01*
X028487Y013242D02*
X028168Y013242D01*
X028266Y013341D02*
X028487Y013341D01*
X028487Y013439D02*
X028363Y013439D01*
X028363Y013538D02*
X028487Y013538D01*
X028504Y013636D02*
X028363Y013636D01*
X028363Y013735D02*
X028406Y013735D01*
X027953Y013667D02*
X027953Y013616D01*
X027844Y013507D01*
X027688Y013507D01*
X027707Y013552D01*
X027707Y013651D01*
X027700Y013667D01*
X027851Y013667D01*
X027851Y013944D01*
X027866Y013944D01*
X027866Y013667D01*
X027953Y013667D01*
X027953Y013636D02*
X027707Y013636D01*
X027701Y013538D02*
X027875Y013538D01*
X027866Y013735D02*
X027851Y013735D01*
X027851Y013833D02*
X027866Y013833D01*
X027866Y013932D02*
X027851Y013932D01*
X029394Y013735D02*
X029580Y013735D01*
X029530Y013636D02*
X029493Y013636D01*
X029613Y013341D02*
X029617Y013341D01*
X029975Y012454D02*
X031308Y012454D01*
X031308Y012355D02*
X031408Y012355D01*
X031408Y012257D02*
X031308Y012257D01*
X031308Y012158D02*
X031408Y012158D01*
X031988Y012692D02*
X031988Y013082D01*
X032052Y013082D01*
X032133Y013115D01*
X032195Y013177D01*
X032228Y013258D01*
X032228Y013346D01*
X032195Y013426D01*
X032163Y013458D01*
X032163Y014028D01*
X032194Y013997D01*
X032322Y013997D01*
X032505Y013997D01*
X032482Y013974D01*
X032411Y013803D01*
X032411Y013759D01*
X032828Y013759D01*
X032828Y013662D01*
X032828Y013661D02*
X032925Y013661D01*
X032925Y013245D01*
X032969Y013245D01*
X033003Y013259D01*
X033003Y013074D01*
X032793Y013161D01*
X032565Y013161D01*
X032355Y013074D01*
X032194Y012913D01*
X032106Y012702D01*
X032106Y012701D01*
X032009Y012701D01*
X031988Y012692D01*
X031988Y012749D02*
X032126Y012749D01*
X032167Y012848D02*
X031988Y012848D01*
X031988Y012947D02*
X032228Y012947D01*
X032326Y013045D02*
X031988Y013045D01*
X032161Y013144D02*
X032524Y013144D01*
X032613Y013316D02*
X032482Y013447D01*
X032411Y013618D01*
X032411Y013662D01*
X032828Y013662D01*
X032828Y013661D02*
X032828Y013245D01*
X032784Y013245D01*
X032613Y013316D01*
X032588Y013341D02*
X032228Y013341D01*
X032221Y013242D02*
X033003Y013242D01*
X033003Y013144D02*
X032835Y013144D01*
X032828Y013341D02*
X032925Y013341D01*
X032925Y013439D02*
X032828Y013439D01*
X032828Y013538D02*
X032925Y013538D01*
X032925Y013636D02*
X032828Y013636D01*
X032828Y013735D02*
X032163Y013735D01*
X032163Y013833D02*
X032424Y013833D01*
X032464Y013932D02*
X032163Y013932D01*
X032163Y013636D02*
X032411Y013636D01*
X032444Y013538D02*
X032163Y013538D01*
X032182Y013439D02*
X032489Y013439D01*
X034132Y014307D02*
X034197Y014372D01*
X034288Y014463D01*
X034288Y015222D01*
X034371Y015222D01*
X034645Y015222D01*
X034754Y015222D01*
X034763Y015226D01*
X034553Y015016D01*
X034288Y015016D01*
X034288Y015114D02*
X034652Y015114D01*
X034553Y015016D02*
X034553Y014888D01*
X034553Y014366D01*
X034494Y014307D01*
X034132Y014307D01*
X034151Y014326D02*
X034513Y014326D01*
X034553Y014425D02*
X034250Y014425D01*
X034288Y014523D02*
X034553Y014523D01*
X034553Y014622D02*
X034288Y014622D01*
X034288Y014720D02*
X034553Y014720D01*
X034553Y014819D02*
X034288Y014819D01*
X034288Y014917D02*
X034553Y014917D01*
X034863Y014717D02*
X034950Y014508D01*
X035111Y014346D01*
X035321Y014259D01*
X035549Y014259D01*
X035760Y014346D01*
X035921Y014508D01*
X035958Y014597D01*
X035958Y012823D01*
X035921Y012913D01*
X035760Y013074D01*
X035549Y013161D01*
X035321Y013161D01*
X035111Y013074D01*
X034950Y012913D01*
X034862Y012702D01*
X034862Y012474D01*
X034950Y012264D01*
X035111Y012102D01*
X035321Y012015D01*
X035549Y012015D01*
X035760Y012102D01*
X035921Y012264D01*
X035958Y012353D01*
X035958Y010614D01*
X035793Y010779D01*
X035554Y010779D01*
X035554Y011128D01*
X035478Y011204D01*
X035351Y011204D01*
X035405Y011226D01*
X035527Y011349D01*
X035594Y011509D01*
X035594Y011557D01*
X035197Y011557D01*
X035197Y011634D01*
X035594Y011634D01*
X035594Y011682D01*
X035527Y011842D01*
X035405Y011965D01*
X035245Y012031D01*
X035197Y012031D01*
X035197Y011634D01*
X035119Y011634D01*
X035119Y011557D01*
X034722Y011557D01*
X034722Y011509D01*
X034775Y011382D01*
X034138Y011382D01*
X034138Y011786D01*
X034674Y012322D01*
X034838Y012486D01*
X034838Y012914D01*
X035209Y013285D01*
X035323Y013285D01*
X035479Y013350D01*
X035599Y013469D01*
X035664Y013626D01*
X035664Y013795D01*
X035599Y013951D01*
X035479Y014071D01*
X035323Y014135D01*
X035154Y014135D01*
X035147Y014132D01*
X034863Y014416D01*
X034863Y014717D01*
X034863Y014622D02*
X034902Y014622D01*
X034863Y014523D02*
X034943Y014523D01*
X034863Y014425D02*
X035033Y014425D01*
X034953Y014326D02*
X035160Y014326D01*
X035052Y014228D02*
X035958Y014228D01*
X035958Y014326D02*
X035711Y014326D01*
X035838Y014425D02*
X035958Y014425D01*
X035958Y014523D02*
X035927Y014523D01*
X035958Y014129D02*
X035338Y014129D01*
X035519Y014031D02*
X035958Y014031D01*
X035958Y013932D02*
X035607Y013932D01*
X035648Y013833D02*
X035958Y013833D01*
X035958Y013735D02*
X035664Y013735D01*
X035664Y013636D02*
X035958Y013636D01*
X035958Y013538D02*
X035627Y013538D01*
X035569Y013439D02*
X035958Y013439D01*
X035958Y013341D02*
X035458Y013341D01*
X035591Y013144D02*
X035958Y013144D01*
X035958Y013242D02*
X035166Y013242D01*
X035068Y013144D02*
X035279Y013144D01*
X035082Y013045D02*
X034969Y013045D01*
X034984Y012947D02*
X034871Y012947D01*
X034838Y012848D02*
X034923Y012848D01*
X034882Y012749D02*
X034838Y012749D01*
X034838Y012651D02*
X034862Y012651D01*
X034862Y012552D02*
X034838Y012552D01*
X034806Y012454D02*
X034871Y012454D01*
X034912Y012355D02*
X034707Y012355D01*
X034609Y012257D02*
X034956Y012257D01*
X035055Y012158D02*
X034510Y012158D01*
X034412Y012060D02*
X035214Y012060D01*
X035119Y012031D02*
X035071Y012031D01*
X034911Y011965D01*
X034789Y011842D01*
X034722Y011682D01*
X034722Y011634D01*
X035119Y011634D01*
X035119Y012031D01*
X035119Y011961D02*
X035197Y011961D01*
X035197Y011863D02*
X035119Y011863D01*
X035119Y011764D02*
X035197Y011764D01*
X035197Y011665D02*
X035119Y011665D01*
X035119Y011567D02*
X034138Y011567D01*
X034138Y011665D02*
X034722Y011665D01*
X034756Y011764D02*
X034138Y011764D01*
X034215Y011863D02*
X034809Y011863D01*
X034907Y011961D02*
X034313Y011961D01*
X034138Y011468D02*
X034739Y011468D01*
X035197Y011567D02*
X035958Y011567D01*
X035958Y011665D02*
X035594Y011665D01*
X035560Y011764D02*
X035958Y011764D01*
X035958Y011863D02*
X035507Y011863D01*
X035409Y011961D02*
X035958Y011961D01*
X035958Y012060D02*
X035656Y012060D01*
X035816Y012158D02*
X035958Y012158D01*
X035958Y012257D02*
X035914Y012257D01*
X035948Y012848D02*
X035958Y012848D01*
X035958Y012947D02*
X035887Y012947D01*
X035958Y013045D02*
X035788Y013045D01*
X035958Y011468D02*
X035577Y011468D01*
X035536Y011370D02*
X035958Y011370D01*
X035958Y011271D02*
X035450Y011271D01*
X035509Y011173D02*
X035958Y011173D01*
X035958Y011074D02*
X035554Y011074D01*
X035554Y010976D02*
X035958Y010976D01*
X035958Y010877D02*
X035554Y010877D01*
X035794Y010779D02*
X035958Y010779D01*
X035958Y010680D02*
X035892Y010680D01*
X033659Y010822D02*
X033653Y010816D01*
X033619Y010782D01*
X033254Y010782D01*
X033208Y010736D01*
X033162Y010782D01*
X032654Y010782D01*
X032578Y010706D01*
X032578Y010307D01*
X032578Y010402D01*
X032258Y010402D01*
X032258Y010502D01*
X032158Y010502D01*
X032158Y010822D01*
X031938Y010822D01*
X031838Y010722D01*
X031838Y010502D01*
X032158Y010502D01*
X032158Y010402D01*
X031838Y010402D01*
X031838Y010307D01*
X031838Y010706D01*
X031762Y010782D01*
X031397Y010782D01*
X031363Y010816D01*
X031363Y010822D01*
X031762Y010822D01*
X031838Y010898D01*
X031838Y011406D01*
X031762Y011482D01*
X031638Y011482D01*
X031638Y011498D01*
X031688Y011548D01*
X031688Y011626D01*
X032328Y010986D01*
X032492Y010822D01*
X033659Y010822D01*
X033251Y010779D02*
X033165Y010779D01*
X032651Y010779D02*
X032522Y010779D01*
X032479Y010822D02*
X032258Y010822D01*
X032258Y010502D01*
X032578Y010502D01*
X032578Y010722D01*
X032479Y010822D01*
X032437Y010877D02*
X031817Y010877D01*
X031838Y010976D02*
X032338Y010976D01*
X032240Y011074D02*
X031838Y011074D01*
X031838Y011173D02*
X032141Y011173D01*
X032043Y011271D02*
X031838Y011271D01*
X031838Y011370D02*
X031944Y011370D01*
X031846Y011468D02*
X031775Y011468D01*
X031747Y011567D02*
X031688Y011567D01*
X031765Y010779D02*
X031894Y010779D01*
X031838Y010680D02*
X031838Y010680D01*
X031838Y010581D02*
X031838Y010581D01*
X031838Y010483D02*
X032158Y010483D01*
X032158Y010581D02*
X032258Y010581D01*
X032258Y010483D02*
X032578Y010483D01*
X032578Y010581D02*
X032578Y010581D01*
X032578Y010680D02*
X032578Y010680D01*
X032578Y010384D02*
X032578Y010384D01*
X032578Y010307D02*
X032578Y010307D01*
X032258Y010680D02*
X032158Y010680D01*
X032158Y010779D02*
X032258Y010779D01*
X031838Y010384D02*
X031838Y010384D01*
X031838Y010307D02*
X031838Y010307D01*
X033610Y014751D02*
X033610Y015182D01*
X033610Y015653D01*
X033707Y015653D01*
X033707Y015182D01*
X033707Y014751D01*
X033610Y014751D01*
X033610Y014819D02*
X033707Y014819D01*
X033707Y014917D02*
X033610Y014917D01*
X033610Y015016D02*
X033707Y015016D01*
X033707Y015114D02*
X033610Y015114D01*
X033610Y015213D02*
X033707Y015213D01*
X033707Y015312D02*
X033610Y015312D01*
X033610Y015410D02*
X033707Y015410D01*
X033707Y015509D02*
X033610Y015509D01*
X033610Y015607D02*
X033707Y015607D01*
X033609Y015653D02*
X033138Y015653D01*
X033138Y015598D01*
X033217Y015407D01*
X033364Y015261D01*
X033506Y015202D01*
X033364Y015143D01*
X033227Y015006D01*
X033165Y015157D01*
X033004Y015318D01*
X032968Y015333D01*
X033065Y015430D01*
X033138Y015606D01*
X033138Y015797D01*
X033065Y015974D01*
X032930Y016109D01*
X032754Y016182D01*
X032563Y016182D01*
X032393Y016112D01*
X032503Y016222D01*
X032563Y016222D01*
X032754Y016222D01*
X032930Y016295D01*
X033065Y016430D01*
X033138Y016606D01*
X033138Y016797D01*
X033065Y016974D01*
X033037Y017002D01*
X033279Y017002D01*
X033251Y016974D01*
X033178Y016797D01*
X033178Y016606D01*
X033251Y016430D01*
X033386Y016295D01*
X033563Y016222D01*
X033754Y016222D01*
X033930Y016295D01*
X034065Y016430D01*
X034138Y016606D01*
X034138Y016797D01*
X034065Y016974D01*
X034037Y017002D01*
X034279Y017002D01*
X034251Y016974D01*
X034178Y016797D01*
X034178Y016606D01*
X034251Y016430D01*
X034386Y016295D01*
X034563Y016222D01*
X034754Y016222D01*
X034930Y016295D01*
X035065Y016430D01*
X035138Y016606D01*
X035138Y016797D01*
X035065Y016974D01*
X035037Y017002D01*
X035279Y017002D01*
X035251Y016974D01*
X035178Y016797D01*
X035178Y016606D01*
X035251Y016430D01*
X035386Y016295D01*
X035563Y016222D01*
X035754Y016222D01*
X035930Y016295D01*
X035958Y016323D01*
X035958Y016182D01*
X035254Y016182D01*
X035178Y016106D01*
X035178Y015882D01*
X035171Y015882D01*
X035123Y015834D01*
X035065Y015974D01*
X034930Y016109D01*
X034754Y016182D01*
X034563Y016182D01*
X034386Y016109D01*
X034251Y015974D01*
X034213Y015882D01*
X034171Y015882D01*
X034154Y015864D01*
X034099Y015996D01*
X033953Y016143D01*
X033762Y016222D01*
X033707Y016222D01*
X033707Y015751D01*
X033610Y015751D01*
X033610Y016222D01*
X033555Y016222D01*
X033364Y016143D01*
X033217Y015996D01*
X033138Y015805D01*
X033138Y015750D01*
X033609Y015750D01*
X033609Y015653D01*
X033609Y015706D02*
X033138Y015706D01*
X033135Y015804D02*
X033138Y015804D01*
X033179Y015903D02*
X033094Y015903D01*
X033037Y016001D02*
X033222Y016001D01*
X033321Y016100D02*
X032939Y016100D01*
X032932Y016297D02*
X033384Y016297D01*
X033286Y016396D02*
X033031Y016396D01*
X033092Y016494D02*
X033225Y016494D01*
X033184Y016593D02*
X033132Y016593D01*
X033138Y016691D02*
X033178Y016691D01*
X033178Y016790D02*
X033138Y016790D01*
X033100Y016888D02*
X033216Y016888D01*
X033264Y016987D02*
X033052Y016987D01*
X034052Y016987D02*
X034264Y016987D01*
X034216Y016888D02*
X034100Y016888D01*
X034138Y016790D02*
X034178Y016790D01*
X034178Y016691D02*
X034138Y016691D01*
X034132Y016593D02*
X034184Y016593D01*
X034225Y016494D02*
X034092Y016494D01*
X034031Y016396D02*
X034286Y016396D01*
X034384Y016297D02*
X033932Y016297D01*
X033818Y016198D02*
X035958Y016198D01*
X035958Y016297D02*
X035932Y016297D01*
X035384Y016297D02*
X034932Y016297D01*
X035031Y016396D02*
X035286Y016396D01*
X035225Y016494D02*
X035092Y016494D01*
X035132Y016593D02*
X035184Y016593D01*
X035178Y016691D02*
X035138Y016691D01*
X035138Y016790D02*
X035178Y016790D01*
X035216Y016888D02*
X035100Y016888D01*
X035052Y016987D02*
X035264Y016987D01*
X035178Y016100D02*
X034939Y016100D01*
X035037Y016001D02*
X035178Y016001D01*
X035178Y015903D02*
X035094Y015903D01*
X034377Y016100D02*
X033995Y016100D01*
X034094Y016001D02*
X034279Y016001D01*
X034222Y015903D02*
X034138Y015903D01*
X033707Y015903D02*
X033610Y015903D01*
X033610Y016001D02*
X033707Y016001D01*
X033707Y016100D02*
X033610Y016100D01*
X033610Y016198D02*
X033707Y016198D01*
X033498Y016198D02*
X032480Y016198D01*
X033138Y015607D02*
X033138Y015607D01*
X033175Y015509D02*
X033098Y015509D01*
X033045Y015410D02*
X033216Y015410D01*
X033313Y015312D02*
X033010Y015312D01*
X033109Y015213D02*
X033479Y015213D01*
X033335Y015114D02*
X033183Y015114D01*
X033223Y015016D02*
X033237Y015016D01*
X033610Y015804D02*
X033707Y015804D01*
X034288Y015213D02*
X034750Y015213D01*
X031158Y016452D02*
X030933Y016227D01*
X030933Y015841D01*
X030694Y015602D01*
X030259Y015607D02*
X029357Y015607D01*
X029357Y015509D02*
X029687Y015509D01*
X029645Y015491D02*
X029564Y015411D01*
X029527Y015322D01*
X029357Y015492D01*
X029357Y015951D01*
X029281Y016027D01*
X029202Y016027D01*
X029297Y016122D01*
X029545Y016122D01*
X029645Y016222D01*
X029698Y016222D01*
X029645Y016200D01*
X029564Y016119D01*
X029520Y016013D01*
X029520Y015899D01*
X029564Y015793D01*
X029645Y015712D01*
X029751Y015668D01*
X029865Y015668D01*
X029971Y015712D01*
X030052Y015793D01*
X030096Y015899D01*
X030096Y016013D01*
X030052Y016119D01*
X029971Y016200D01*
X029865Y016244D01*
X029807Y016244D01*
X029930Y016295D01*
X030065Y016430D01*
X030138Y016606D01*
X030138Y016797D01*
X030065Y016974D01*
X030037Y017002D01*
X030279Y017002D01*
X030251Y016974D01*
X030178Y016797D01*
X030178Y016606D01*
X030251Y016430D01*
X030386Y016295D01*
X030563Y016222D01*
X030753Y016222D01*
X030753Y016027D01*
X030335Y016027D01*
X030259Y015951D01*
X030259Y015253D01*
X030296Y015215D01*
X030228Y015147D01*
X030163Y015082D01*
X030049Y015082D01*
X030052Y015085D01*
X030096Y015190D01*
X030096Y015305D01*
X030052Y015411D01*
X029971Y015491D01*
X029865Y015535D01*
X029751Y015535D01*
X029645Y015491D01*
X029564Y015410D02*
X029439Y015410D01*
X029930Y015509D02*
X030259Y015509D01*
X030259Y015410D02*
X030052Y015410D01*
X030093Y015312D02*
X030259Y015312D01*
X030294Y015213D02*
X030096Y015213D01*
X030064Y015114D02*
X030195Y015114D01*
X030259Y015706D02*
X029955Y015706D01*
X030057Y015804D02*
X030259Y015804D01*
X030259Y015903D02*
X030096Y015903D01*
X030096Y016001D02*
X030309Y016001D01*
X030060Y016100D02*
X030753Y016100D01*
X030753Y016198D02*
X029973Y016198D01*
X029932Y016297D02*
X030384Y016297D01*
X030286Y016396D02*
X030031Y016396D01*
X030092Y016494D02*
X030225Y016494D01*
X030184Y016593D02*
X030132Y016593D01*
X030138Y016691D02*
X030178Y016691D01*
X030178Y016790D02*
X030138Y016790D01*
X030100Y016888D02*
X030216Y016888D01*
X030264Y016987D02*
X030052Y016987D01*
X029643Y016198D02*
X029621Y016198D01*
X029556Y016100D02*
X029275Y016100D01*
X029307Y016001D02*
X029520Y016001D01*
X029520Y015903D02*
X029357Y015903D01*
X029357Y015804D02*
X029560Y015804D01*
X029661Y015706D02*
X029357Y015706D01*
D36*
X028922Y015602D02*
X029672Y014852D01*
X030008Y014852D01*
X030258Y014852D01*
X030458Y015052D01*
X031158Y015052D01*
X031358Y015252D01*
X031358Y015952D02*
X031458Y016052D01*
X031908Y016052D01*
X032008Y016052D01*
X032508Y016552D01*
X030008Y014852D02*
X030008Y014502D01*
X030008Y014152D01*
X030358Y013802D01*
X031358Y013802D01*
X031758Y014177D02*
X031758Y011952D01*
X031808Y011902D01*
X031408Y011752D02*
X031358Y011802D01*
X031408Y011752D02*
X031408Y011252D01*
X031508Y011152D01*
X031883Y010527D02*
X032133Y010527D01*
X032208Y010452D01*
X032908Y010452D02*
X033508Y010452D01*
X034208Y010452D02*
X034258Y010402D01*
X034558Y010402D01*
X032058Y012202D02*
X032058Y012452D01*
X031358Y012502D02*
X031258Y012602D01*
X030333Y012602D01*
X030208Y012727D01*
X030694Y013202D02*
X030794Y013102D01*
X031358Y013102D01*
X031758Y014177D02*
X031658Y014277D01*
X028108Y012502D02*
X027958Y012652D01*
X028108Y012502D02*
X028108Y012302D01*
X027558Y012302D02*
X027558Y012652D01*
X028258Y011902D02*
X028358Y011802D01*
X028658Y011802D01*
X028758Y011702D01*
X028758Y011302D02*
X028733Y011277D01*
X028433Y011277D01*
X028258Y011102D01*
X028258Y010402D02*
X027508Y010402D01*
X027458Y013952D02*
X027458Y014102D01*
X027908Y014552D01*
X027908Y015102D01*
X027008Y016002D01*
X026658Y016002D01*
X021458Y016752D02*
X021458Y016952D01*
X020483Y016952D01*
X020158Y016627D01*
X019508Y014977D02*
X019508Y014502D01*
X019758Y014502D01*
X019108Y014552D02*
X019108Y014977D01*
X019108Y014552D02*
X019058Y014502D01*
X019058Y013902D01*
X019008Y013852D01*
X019008Y013427D01*
X019008Y013002D01*
X019058Y012952D01*
X018858Y012752D01*
X018658Y012752D01*
X018358Y012352D02*
X017841Y012352D01*
X017541Y012052D01*
X016832Y011678D02*
X017434Y011076D01*
X017541Y011076D01*
X018358Y011052D02*
X018358Y011527D01*
X019308Y011527D01*
X018358Y011527D02*
X018358Y011652D01*
X016832Y011678D02*
X016675Y011678D01*
X016558Y011678D01*
X016558Y012426D01*
X016675Y012426D01*
X016008Y012352D02*
X015858Y012502D01*
X015608Y012502D01*
X015908Y011652D02*
X015308Y011052D01*
X015233Y010977D01*
X014908Y010977D01*
X014583Y010977D01*
X014508Y011052D01*
X015308Y010352D02*
X016008Y010352D01*
X016108Y010252D01*
X017465Y010252D01*
X017541Y010328D01*
X016558Y011678D02*
X016034Y011678D01*
X016008Y011652D01*
X015908Y011652D01*
X012408Y012552D02*
X012108Y012252D01*
X012108Y011452D01*
X012008Y011352D01*
X012008Y011002D02*
X011608Y011002D01*
X011608Y010702D01*
X012008Y010702D01*
X012008Y010352D02*
X011608Y010352D01*
X009308Y010352D01*
X009208Y010252D01*
X011608Y010352D02*
X011608Y010702D01*
X009808Y012202D02*
X009558Y011952D01*
X009808Y012202D02*
X010538Y012202D01*
X011358Y012702D02*
X011708Y012702D01*
X011708Y013102D02*
X011708Y013202D01*
X011708Y013402D01*
X011708Y013202D02*
X010538Y013202D01*
X011058Y013902D02*
X011058Y014202D01*
X010538Y014202D01*
X009133Y014777D02*
X008708Y015202D01*
X008078Y015202D01*
X008078Y014202D02*
X008708Y014202D01*
X009008Y013902D01*
X009133Y013627D02*
X008708Y013202D01*
X008078Y013202D01*
X008078Y012202D02*
X008708Y012202D01*
X009008Y011902D01*
X012408Y012552D02*
X012408Y012702D01*
X012408Y013402D02*
X012408Y014002D01*
X012408Y014602D01*
X011583Y015202D02*
X010538Y015202D01*
D37*
X011158Y016452D03*
X012158Y016452D03*
X013158Y016452D03*
X014158Y016452D03*
X015158Y016452D03*
X016158Y016452D03*
X017158Y016502D03*
X018158Y016502D03*
X019158Y016502D03*
X020783Y016002D03*
X020858Y016552D03*
X019833Y014977D03*
X019508Y014502D03*
X019408Y014202D03*
X019708Y013627D03*
X018658Y013102D03*
X018658Y012752D03*
X019708Y011502D03*
X021808Y011322D03*
X022858Y012952D03*
X021508Y013802D03*
X024333Y015077D03*
X026333Y016077D03*
X026658Y016002D03*
X027558Y016002D03*
X030458Y016152D03*
X027858Y013602D03*
X027458Y013602D03*
X027858Y011552D03*
X030258Y010952D03*
X030583Y011577D03*
X032058Y012202D03*
X032058Y012452D03*
X030158Y009952D03*
X029158Y009952D03*
X028158Y009952D03*
X027158Y009952D03*
X020308Y009477D03*
X014108Y011102D03*
X017958Y014152D03*
X018258Y014927D03*
X017658Y014952D03*
D38*
X019758Y013902D02*
X019908Y014052D01*
X020058Y014052D01*
X020157Y014151D01*
X021008Y014652D02*
X021508Y014152D01*
X021508Y013802D01*
X020158Y012627D02*
X019833Y012952D01*
X023433Y011262D02*
X024158Y011262D01*
X027082Y011076D02*
X027158Y011152D01*
X027158Y011402D01*
X027283Y011527D01*
X027133Y011677D02*
X027233Y011777D01*
X027433Y011777D01*
X027558Y011902D01*
X027858Y011602D01*
X027858Y011552D01*
X027557Y012651D02*
X027107Y012651D01*
X027557Y012651D02*
X027558Y012652D01*
X027458Y013602D02*
X027458Y013952D01*
X027417Y013911D01*
X027117Y013911D01*
X027858Y013952D02*
X027858Y013602D01*
X022108Y016752D02*
X021958Y016752D01*
X021872Y016666D01*
X021058Y015727D02*
X020783Y016002D01*
X021058Y015727D02*
X021058Y015552D01*
X020992Y015485D01*
X021400Y015860D02*
X021458Y015802D01*
X021758Y015802D01*
X021822Y015866D01*
X021167Y010152D02*
X021008Y010152D01*
D39*
X019858Y009902D02*
X019658Y009702D01*
X014658Y009702D02*
X014508Y009852D01*
X014508Y010352D01*
X013708Y012277D02*
X013708Y012992D01*
X013418Y012702D01*
X012408Y012702D01*
X013708Y012992D02*
X013708Y013002D01*
X013858Y014802D02*
X013858Y015362D01*
X013708Y015512D01*
X013368Y015852D01*
X007508Y015852D01*
X006658Y016702D01*
X007658Y011202D02*
X007658Y009702D01*
X008658Y009702D02*
X009208Y010252D01*
X009508Y011202D02*
X010538Y011202D01*
X008078Y011202D02*
X007658Y011202D01*
X026483Y016727D02*
X026633Y016727D01*
X026658Y016702D01*
X027408Y016452D02*
X027658Y016702D01*
X028408Y016452D02*
X028658Y016702D01*
X029408Y016452D02*
X029658Y016702D01*
X032508Y016552D02*
X032658Y016702D01*
X034508Y015552D02*
X034658Y015702D01*
X034508Y015552D02*
X034308Y015552D01*
X035308Y015552D02*
X035508Y015552D01*
X035658Y015702D01*
X028108Y012302D02*
X028108Y012052D01*
X028258Y011902D01*
X031358Y009852D02*
X031508Y009702D01*
X031658Y009702D01*
X035408Y009952D02*
X035658Y009702D01*
D40*
X030208Y012727D03*
X028108Y012302D03*
X027558Y012302D03*
X030008Y014502D03*
X031158Y014502D03*
X028708Y014952D03*
X034408Y014452D03*
X022583Y012227D03*
X019308Y011527D03*
X017208Y012652D03*
X015608Y012502D03*
X015158Y012652D03*
X013708Y012277D03*
X012108Y012252D03*
X009508Y011202D03*
X008658Y011702D03*
X013858Y014802D03*
X012333Y015002D03*
X016158Y014202D03*
X016958Y014152D03*
X014908Y010977D03*
D41*
X017208Y012652D02*
X017208Y013021D01*
X016908Y013321D01*
X008658Y011702D02*
X008658Y011202D01*
X008078Y011202D01*
D42*
X012333Y014677D02*
X012333Y015002D01*
X012333Y014677D02*
X012408Y014602D01*
X016908Y015683D02*
X016908Y015702D01*
X016958Y015702D01*
X016958Y014152D01*
X016908Y013321D02*
X017727Y013321D01*
X018608Y014202D01*
X018608Y015102D01*
X018858Y015352D01*
X020083Y015352D01*
X020058Y015752D02*
X017008Y015752D01*
X016958Y015702D01*
X028708Y014952D02*
X028708Y014539D01*
X028846Y014402D01*
X030771Y014402D02*
X030871Y014502D01*
X031158Y014502D01*
X031433Y014502D01*
X031658Y014277D01*
X034558Y013030D02*
X035238Y013710D01*
X034558Y013030D02*
X034558Y012602D01*
X033658Y011702D01*
X032608Y011102D02*
X034864Y011102D01*
X035158Y010808D01*
X032608Y011102D02*
X031808Y011902D01*
D43*
X021167Y016493D02*
X021108Y016552D01*
X020858Y016552D01*
X019408Y014202D02*
X019408Y013427D01*
X019483Y013352D01*
X019858Y013352D01*
X020102Y013596D01*
D44*
X027558Y012302D02*
X027558Y011902D01*
D45*
X027183Y012077D02*
X027127Y012021D01*
X026709Y012021D01*
X026709Y012178D02*
X026384Y012178D01*
X026258Y012052D01*
X026158Y012277D02*
X026374Y012493D01*
X026709Y012493D01*
X026709Y012336D02*
X027192Y012336D01*
X027208Y012352D01*
X026709Y012808D02*
X026339Y012808D01*
X026258Y012727D01*
X026222Y012966D02*
X025908Y012652D01*
X025908Y012252D01*
X025733Y012102D02*
X025733Y012627D01*
X026229Y013123D01*
X026709Y013123D01*
X026709Y012966D02*
X026222Y012966D01*
X026237Y013281D02*
X025558Y012602D01*
X025558Y012102D01*
X025733Y012102D02*
X025783Y012052D01*
X025397Y011863D02*
X025158Y012102D01*
X025158Y012502D01*
X025733Y013077D01*
X025733Y013977D01*
X025558Y013802D02*
X025558Y014202D01*
X025483Y014277D01*
X025483Y014577D01*
X026392Y015485D01*
X026709Y015485D01*
X026709Y015328D02*
X027282Y015328D01*
X027658Y014952D01*
X027483Y014977D02*
X027233Y015227D01*
X027083Y015227D01*
X027027Y015170D01*
X026709Y015170D01*
X026709Y015013D02*
X027119Y015013D01*
X027158Y015052D01*
X027305Y014855D02*
X026709Y014855D01*
X026709Y014698D02*
X027112Y014698D01*
X027133Y014677D01*
X027305Y014855D02*
X027308Y014852D01*
X027483Y014977D02*
X027483Y014527D01*
X027458Y014502D01*
X026709Y014540D02*
X026370Y014540D01*
X026308Y014602D01*
X026308Y015002D01*
X026258Y015052D01*
X026133Y014827D02*
X026133Y014652D01*
X026033Y014552D01*
X026033Y014377D01*
X026184Y014226D01*
X026709Y014226D01*
X026709Y014383D02*
X026277Y014383D01*
X026208Y014452D01*
X025933Y014327D02*
X026192Y014068D01*
X026709Y014068D01*
X026709Y013753D02*
X026357Y013753D01*
X025833Y014277D01*
X025833Y014502D01*
X025758Y014577D01*
X025933Y014727D02*
X025933Y014327D01*
X025658Y014352D02*
X025658Y014302D01*
X026364Y013596D01*
X026709Y013596D01*
X026709Y013438D02*
X026244Y013438D01*
X025333Y012527D01*
X025333Y012177D01*
X025397Y011863D02*
X026709Y011863D01*
X026709Y011706D02*
X025412Y011706D01*
X025233Y011527D01*
X025158Y011352D02*
X025008Y011502D01*
X025008Y011752D01*
X024108Y012652D01*
X023608Y012652D01*
X022958Y013302D01*
X022958Y014952D01*
X022983Y014977D01*
X022858Y014852D02*
X022858Y013252D01*
X023558Y012552D01*
X024058Y012552D01*
X024908Y011702D01*
X024908Y011452D01*
X025108Y011252D01*
X026358Y011252D01*
X026377Y011233D01*
X026709Y011233D01*
X026709Y011391D02*
X026397Y011391D01*
X026358Y011352D01*
X025158Y011352D01*
X025058Y011102D02*
X024683Y011477D01*
X024683Y011627D01*
X024508Y011502D02*
X024508Y011802D01*
X023958Y012352D01*
X023158Y012352D01*
X022308Y013202D01*
X022308Y013277D01*
X022208Y013377D01*
X021958Y013377D01*
X021883Y013552D02*
X021733Y013402D01*
X021733Y012727D01*
X021808Y012652D01*
X021808Y012252D01*
X021318Y011762D01*
X021278Y011762D01*
X021253Y011977D02*
X021383Y011977D01*
X021708Y012302D01*
X021708Y012602D01*
X021633Y012677D01*
X021633Y013452D01*
X021833Y013652D01*
X022358Y013652D01*
X022458Y013752D01*
X022458Y015102D01*
X022708Y015352D01*
X023158Y015352D01*
X023737Y015931D01*
X023737Y016253D01*
X023894Y016253D02*
X023894Y015938D01*
X023208Y015252D01*
X022758Y015252D01*
X022558Y015052D01*
X022558Y013702D01*
X022408Y013552D01*
X021883Y013552D01*
X021783Y013827D02*
X022158Y014202D01*
X022158Y015252D01*
X022558Y015652D01*
X022658Y015652D01*
X022949Y015943D01*
X022949Y016253D01*
X022792Y016253D02*
X022792Y015936D01*
X022608Y015752D01*
X022508Y015752D01*
X022058Y015302D01*
X022058Y014552D01*
X021983Y014477D01*
X021958Y014702D02*
X021733Y014477D01*
X021958Y014702D02*
X021958Y015352D01*
X022458Y015852D01*
X022558Y015852D01*
X022634Y015928D01*
X022634Y016253D01*
X022477Y016253D02*
X022477Y016571D01*
X022608Y016702D01*
X022958Y016702D01*
X023083Y016827D02*
X024303Y016827D01*
X024433Y016957D01*
X023633Y016627D02*
X023579Y016573D01*
X023579Y016253D01*
X023422Y016253D02*
X023422Y016566D01*
X023583Y016727D01*
X026483Y016727D01*
X026233Y016577D02*
X026233Y016477D01*
X026458Y016252D01*
X027208Y016252D01*
X027408Y016452D01*
X028108Y016152D02*
X028408Y016452D01*
X028358Y016152D02*
X028208Y016002D01*
X028208Y013502D01*
X027958Y013252D01*
X027658Y013252D01*
X027458Y013052D01*
X027458Y012952D01*
X027208Y012952D02*
X027608Y013352D01*
X027908Y013352D01*
X028108Y013552D01*
X028108Y016152D01*
X028358Y016152D02*
X029108Y016152D01*
X029408Y016452D01*
X028383Y015577D02*
X028308Y015502D01*
X028308Y014052D01*
X028608Y013752D01*
X029158Y013752D01*
X029458Y013452D01*
X029458Y012752D01*
X029958Y012252D01*
X030358Y012252D01*
X031208Y011402D01*
X031208Y010752D01*
X031508Y010452D01*
X031258Y010152D02*
X035208Y010152D01*
X035408Y009952D01*
X034908Y010352D02*
X034508Y010752D01*
X033808Y010752D01*
X033508Y010452D01*
X031358Y009852D02*
X031058Y010152D01*
X030608Y010152D01*
X030208Y010552D01*
X030208Y010677D01*
X029408Y010427D02*
X029297Y010427D01*
X028922Y010802D01*
X030083Y012027D02*
X030433Y012027D01*
X031108Y011352D01*
X031108Y010302D01*
X031258Y010152D01*
X026709Y010761D02*
X026399Y010761D01*
X026158Y011002D01*
X025008Y011002D01*
X024508Y011502D01*
X024408Y011452D02*
X024958Y010902D01*
X025658Y010902D01*
X026099Y010461D01*
X026099Y010151D01*
X025942Y010151D02*
X025942Y010468D01*
X025608Y010802D01*
X024908Y010802D01*
X024233Y011477D01*
X024233Y011627D01*
X024233Y011777D01*
X023858Y012152D01*
X023058Y012152D01*
X022183Y013027D01*
X021958Y013027D01*
X022133Y013202D02*
X022158Y013202D01*
X023108Y012252D01*
X023908Y012252D01*
X024408Y011752D01*
X024408Y011452D01*
X025058Y011102D02*
X026208Y011102D01*
X026392Y010918D01*
X026709Y010918D01*
X025627Y010151D02*
X025627Y009833D01*
X025828Y009632D01*
X025898Y009632D01*
X026058Y009472D01*
X026058Y009442D01*
X025828Y009442D02*
X025828Y009487D01*
X025469Y009846D01*
X025469Y010151D01*
X025312Y010151D02*
X025312Y009858D01*
X025498Y009672D01*
X025498Y009542D01*
X025288Y009647D02*
X025288Y009707D01*
X025154Y009841D01*
X025154Y010151D01*
X024997Y010151D02*
X024997Y009828D01*
X025088Y009737D01*
X025088Y009442D01*
X024858Y009442D02*
X024858Y009447D01*
X024524Y009781D01*
X024524Y010151D01*
X024367Y010151D02*
X024367Y010493D01*
X024208Y010652D01*
X021108Y010652D01*
X020983Y010527D01*
X020758Y010527D01*
X020583Y010352D01*
X020583Y009752D01*
X020758Y009842D02*
X020923Y009677D01*
X021353Y009677D01*
X021532Y009856D01*
X021532Y010151D01*
X021375Y010151D02*
X021375Y009848D01*
X021303Y009777D01*
X021058Y009777D01*
X020958Y009877D01*
X020758Y009842D02*
X020758Y010127D01*
X020833Y010352D02*
X020958Y010352D01*
X021158Y010552D01*
X022708Y010552D01*
X022792Y010468D01*
X022792Y010151D01*
X022793Y010150D01*
X022793Y009597D01*
X022758Y009562D01*
X022893Y009662D02*
X022923Y009632D01*
X022923Y009517D01*
X022998Y009442D01*
X023228Y009442D02*
X023278Y009492D01*
X023278Y010137D01*
X023264Y010151D01*
X023107Y010151D02*
X023107Y009781D01*
X023058Y009732D01*
X022949Y009863D02*
X022893Y009807D01*
X022893Y009662D01*
X022949Y009863D02*
X022949Y010151D01*
X022634Y010151D02*
X022634Y009768D01*
X022618Y009752D01*
X022477Y009841D02*
X022413Y009777D01*
X022413Y009527D01*
X022328Y009442D01*
X022188Y009642D02*
X022188Y009702D01*
X022320Y009833D01*
X022320Y010151D01*
X022477Y010151D02*
X022477Y009841D01*
X022162Y009866D02*
X022023Y009727D01*
X022023Y009467D01*
X021998Y009442D01*
X021848Y009622D02*
X021848Y009702D01*
X022005Y009858D01*
X022005Y010151D01*
X022162Y010151D02*
X022162Y009866D01*
X021847Y009861D02*
X021623Y009637D01*
X021623Y009552D01*
X021408Y009572D02*
X021690Y009853D01*
X021690Y010151D01*
X021847Y010151D02*
X021847Y009861D01*
X021408Y009572D02*
X020783Y009572D01*
X020763Y009592D01*
X020333Y010052D02*
X020008Y010052D01*
X019858Y009902D01*
X020258Y010227D02*
X020383Y010352D01*
X020383Y010727D01*
X020417Y010761D01*
X020607Y010761D01*
X020607Y010918D02*
X020275Y010918D01*
X020183Y010827D01*
X020183Y010452D01*
X020483Y010402D02*
X020483Y010202D01*
X020333Y010052D01*
X020483Y010402D02*
X020708Y010627D01*
X020933Y010627D01*
X021058Y010752D01*
X024608Y010752D01*
X024839Y010521D01*
X024839Y010151D01*
X024682Y010151D02*
X024682Y009858D01*
X024858Y009682D01*
X024628Y009472D02*
X024628Y009442D01*
X024628Y009472D02*
X024488Y009612D01*
X024408Y009612D01*
X024209Y009811D01*
X024209Y010151D01*
X024052Y010151D02*
X024052Y009818D01*
X024398Y009472D01*
X024398Y009442D01*
X023918Y009442D02*
X023918Y009492D01*
X023737Y009673D01*
X023737Y010151D01*
X023579Y010151D02*
X023579Y009601D01*
X023688Y009492D01*
X023688Y009442D01*
X023458Y009442D02*
X023422Y009478D01*
X023422Y010151D01*
X022683Y011002D02*
X021658Y011002D01*
X021584Y011076D01*
X020607Y011076D01*
X020607Y011233D02*
X021577Y011233D01*
X021708Y011102D01*
X022608Y011102D01*
X022833Y011327D01*
X022833Y011402D01*
X023083Y011402D02*
X022683Y011002D01*
X023083Y011402D02*
X023083Y011452D01*
X021253Y011977D02*
X021048Y011772D01*
X021048Y011762D01*
X021009Y012178D02*
X020607Y012178D01*
X021009Y012178D02*
X021233Y012402D01*
X021283Y012402D01*
X021157Y012651D02*
X021458Y012952D01*
X021283Y013127D02*
X021058Y013127D01*
X020897Y012966D01*
X020607Y012966D01*
X020607Y013123D02*
X020279Y013123D01*
X020158Y013002D01*
X020607Y012808D02*
X020989Y012808D01*
X021133Y012952D01*
X021157Y012651D02*
X020607Y012651D01*
X020607Y013753D02*
X020207Y013753D01*
X020133Y013827D01*
X020607Y013911D02*
X021217Y013911D01*
X021283Y013977D01*
X021058Y014077D02*
X021049Y014068D01*
X020607Y014068D01*
X021233Y014752D02*
X021683Y015202D01*
X021683Y015377D01*
X022005Y015698D01*
X022005Y016253D01*
X022162Y016253D02*
X022162Y015706D01*
X021808Y015352D01*
X021808Y015092D01*
X021468Y014752D01*
X022258Y015202D02*
X022608Y015552D01*
X022708Y015552D01*
X023107Y015951D01*
X023107Y016253D01*
X023264Y016253D02*
X023264Y015958D01*
X022758Y015452D01*
X022658Y015452D01*
X022358Y015152D01*
X022358Y013902D01*
X022283Y013827D01*
X022258Y014052D02*
X022033Y013827D01*
X022258Y014052D02*
X022258Y015202D01*
X022733Y014977D02*
X022858Y014852D01*
X023283Y014977D02*
X023283Y015177D01*
X024052Y015946D01*
X024052Y016253D01*
X024209Y016253D02*
X024209Y015953D01*
X023508Y015252D01*
X023508Y014702D01*
X023108Y014302D01*
X023108Y013352D01*
X023558Y012902D01*
X024133Y012902D01*
X024158Y012877D01*
X023483Y013227D02*
X023383Y013227D01*
X023208Y013402D01*
X023208Y014252D01*
X023608Y014652D01*
X023608Y015202D01*
X024367Y015961D01*
X024367Y016253D01*
X024524Y016253D02*
X024524Y015918D01*
X024458Y015852D01*
X024408Y015852D01*
X023708Y015152D01*
X023708Y014602D01*
X023333Y014227D01*
X023333Y013527D01*
X023408Y013452D01*
X023483Y013652D02*
X023658Y013477D01*
X023483Y013652D02*
X023483Y014227D01*
X023808Y014552D01*
X023808Y015102D01*
X024458Y015752D01*
X024508Y015752D01*
X024682Y015926D01*
X024682Y016253D01*
X024839Y016253D02*
X024839Y015933D01*
X024558Y015652D01*
X024508Y015652D01*
X023908Y015052D01*
X023908Y014502D01*
X023658Y014252D01*
X023658Y013727D01*
X023883Y013827D02*
X023883Y014327D01*
X024997Y015440D01*
X024997Y016253D01*
X025154Y016253D02*
X025154Y015448D01*
X024108Y014402D01*
X024108Y013927D01*
X024333Y014027D02*
X024333Y014477D01*
X025312Y015455D01*
X025312Y016253D01*
X025469Y016253D02*
X025469Y015463D01*
X024558Y014552D01*
X024558Y014077D01*
X024758Y014152D02*
X024758Y014602D01*
X025627Y015470D01*
X025627Y016253D01*
X025784Y016253D02*
X025784Y015478D01*
X024933Y014627D01*
X024933Y014327D01*
X024958Y014102D02*
X025183Y014327D01*
X025183Y014727D01*
X025942Y015485D01*
X025942Y016253D01*
X026099Y016253D02*
X026099Y015493D01*
X025283Y014677D01*
X025283Y014177D01*
X025158Y014052D01*
X024958Y014102D02*
X024958Y013902D01*
X024783Y014127D02*
X024758Y014152D01*
X025383Y013977D02*
X025383Y014627D01*
X026399Y015643D01*
X026709Y015643D01*
X025908Y014752D02*
X025933Y014727D01*
X025558Y013802D02*
X025358Y013602D01*
X026237Y013281D02*
X026709Y013281D01*
X032008Y013302D02*
X032008Y014252D01*
X031908Y014352D01*
X031908Y016052D01*
X034133Y015377D02*
X034308Y015552D01*
X034133Y015377D02*
X034133Y014527D01*
X033858Y014252D01*
X032408Y014252D01*
X032258Y014402D01*
X032083Y014327D02*
X032083Y014552D01*
X032083Y014327D02*
X032258Y014152D01*
X034558Y014152D01*
X034708Y014302D01*
X034708Y014952D01*
X035308Y015552D01*
X026233Y016577D02*
X026183Y016627D01*
X023633Y016627D01*
X023083Y016827D02*
X023033Y016877D01*
X022633Y016877D01*
X022320Y016563D01*
X022320Y016253D01*
X014708Y014902D02*
X014383Y015227D01*
X014708Y014902D02*
X014708Y011827D01*
X014958Y011577D01*
X014308Y011952D02*
X013133Y010777D01*
X013133Y010627D01*
X012908Y010702D02*
X014208Y012002D01*
X014208Y012277D01*
X014358Y012427D01*
X014458Y012427D01*
X014383Y012202D02*
X014308Y012127D01*
X014308Y011952D01*
X015908Y010952D02*
X016008Y011052D01*
X015908Y010952D02*
X015708Y010952D01*
X011358Y012702D02*
X009808Y012702D01*
X009258Y013252D01*
X009133Y013627D02*
X009208Y013702D01*
X011358Y013702D01*
X011358Y014702D02*
X009208Y014702D01*
X009133Y014777D01*
X011583Y015202D02*
X011658Y015277D01*
X012508Y015277D01*
X012683Y015102D01*
M02*
