G75*
G70*
%OFA0B0*%
%FSLAX24Y24*%
%IPPOS*%
%LPD*%
%AMOC8*
5,1,8,0,0,1.08239X$1,22.5*
%
%ADD10C,0.0110*%
%ADD11C,0.0080*%
%ADD12C,0.0050*%
%ADD13C,0.0100*%
%ADD14C,0.0070*%
%ADD15C,0.0060*%
%ADD16C,0.0120*%
%ADD17C,0.0040*%
%ADD18R,0.0150X0.1300*%
%ADD19R,0.0200X0.0200*%
%ADD20R,0.0700X0.0250*%
D10*
X021157Y027437D02*
X021157Y027737D01*
X021307Y027887D01*
X021457Y027737D01*
X021457Y027437D01*
X021672Y027437D02*
X021973Y027737D01*
X021973Y027812D01*
X021897Y027887D01*
X021747Y027887D01*
X021672Y027812D01*
X021457Y027662D02*
X021157Y027662D01*
X021672Y027437D02*
X021973Y027437D01*
X022188Y027512D02*
X022488Y027812D01*
X022488Y027512D01*
X022413Y027437D01*
X022263Y027437D01*
X022188Y027512D01*
X022188Y027812D01*
X022263Y027887D01*
X022413Y027887D01*
X022488Y027812D01*
X022704Y027662D02*
X023004Y027662D01*
X023219Y027812D02*
X023219Y027512D01*
X023294Y027437D01*
X023444Y027437D01*
X023519Y027512D01*
X023519Y027812D01*
X023444Y027887D01*
X023294Y027887D01*
X023219Y027812D01*
X023735Y027887D02*
X023735Y027437D01*
X024035Y027437D01*
X024250Y027437D02*
X024401Y027437D01*
X024325Y027437D02*
X024325Y027737D01*
X024250Y027737D01*
X024325Y027887D02*
X024325Y027962D01*
X024594Y027737D02*
X024819Y027737D01*
X024894Y027662D01*
X024894Y027437D01*
X025110Y027512D02*
X025185Y027437D01*
X025410Y027437D01*
X025410Y027737D01*
X025625Y027887D02*
X025926Y027437D01*
X026141Y027437D02*
X026291Y027437D01*
X026216Y027437D02*
X026216Y027737D01*
X026141Y027737D01*
X026216Y027887D02*
X026216Y027962D01*
X025926Y027887D02*
X025625Y027437D01*
X025110Y027512D02*
X025110Y027737D01*
X024594Y027737D02*
X024594Y027437D01*
X026485Y027437D02*
X026485Y027737D01*
X026710Y027737D01*
X026785Y027662D01*
X026785Y027437D01*
X027000Y027512D02*
X027075Y027437D01*
X027226Y027437D01*
X027301Y027512D01*
X027301Y027662D01*
X027226Y027737D01*
X027075Y027737D01*
X027000Y027662D01*
X027000Y027512D01*
X027516Y027662D02*
X027816Y027662D01*
X028032Y027887D02*
X028032Y027437D01*
X028332Y027437D01*
X028547Y027437D02*
X028697Y027437D01*
X028622Y027437D02*
X028622Y027737D01*
X028547Y027737D01*
X028622Y027887D02*
X028622Y027962D01*
X028891Y027737D02*
X028891Y027437D01*
X029041Y027437D02*
X029041Y027662D01*
X029116Y027737D01*
X029191Y027662D01*
X029191Y027437D01*
X029407Y027512D02*
X029407Y027662D01*
X029482Y027737D01*
X029632Y027737D01*
X029707Y027662D01*
X029707Y027587D01*
X029407Y027587D01*
X029407Y027512D02*
X029482Y027437D01*
X029632Y027437D01*
X029922Y027437D02*
X030223Y027737D01*
X030223Y027812D01*
X030147Y027887D01*
X029997Y027887D01*
X029922Y027812D01*
X029922Y027437D02*
X030223Y027437D01*
X029041Y027662D02*
X028966Y027737D01*
X028891Y027737D01*
D11*
X011413Y009781D02*
X011467Y009728D01*
X011574Y009728D01*
X011627Y009781D01*
X011627Y010048D01*
X011782Y009995D02*
X011782Y009941D01*
X011835Y009888D01*
X011942Y009888D01*
X011995Y009835D01*
X011995Y009781D01*
X011942Y009728D01*
X011835Y009728D01*
X011782Y009781D01*
X011782Y009995D02*
X011835Y010048D01*
X011942Y010048D01*
X011995Y009995D01*
X012150Y010048D02*
X012310Y010048D01*
X012364Y009995D01*
X012364Y009941D01*
X012310Y009888D01*
X012150Y009888D01*
X012150Y009728D02*
X012310Y009728D01*
X012364Y009781D01*
X012364Y009835D01*
X012310Y009888D01*
X012150Y009728D02*
X012150Y010048D01*
X012518Y009675D02*
X012732Y009675D01*
X012887Y009781D02*
X012940Y009728D01*
X013047Y009728D01*
X013100Y009781D01*
X013100Y009995D01*
X013047Y010048D01*
X012940Y010048D01*
X012887Y009995D01*
X012887Y009781D01*
X013255Y010048D02*
X013469Y010048D01*
X013362Y010048D02*
X013362Y009728D01*
X013623Y009781D02*
X013677Y009728D01*
X013783Y009728D01*
X013837Y009781D01*
X013837Y009888D01*
X013730Y009888D01*
X013623Y009995D02*
X013623Y009781D01*
X013623Y009995D02*
X013677Y010048D01*
X013783Y010048D01*
X013837Y009995D01*
X014691Y010367D02*
X014691Y010527D01*
X014745Y010580D01*
X014852Y010580D01*
X014905Y010527D01*
X014905Y010367D01*
X014905Y010473D02*
X015012Y010580D01*
X014958Y010735D02*
X015012Y010788D01*
X015012Y010895D01*
X014958Y010949D01*
X014852Y010949D01*
X014798Y010895D01*
X014798Y010842D01*
X014852Y010735D01*
X014691Y010735D01*
X014691Y010949D01*
X014691Y011103D02*
X014852Y011103D01*
X014798Y011210D01*
X014798Y011263D01*
X014852Y011317D01*
X014958Y011317D01*
X015012Y011263D01*
X015012Y011157D01*
X014958Y011103D01*
X014691Y011103D02*
X014691Y011317D01*
X014002Y011592D02*
X014002Y011805D01*
X014002Y011960D02*
X013948Y011960D01*
X013735Y012173D01*
X013681Y012173D01*
X013681Y011960D01*
X013681Y011592D02*
X014002Y011592D01*
X014691Y010367D02*
X015012Y010367D01*
X011413Y010048D02*
X011413Y009781D01*
X008402Y015682D02*
X008152Y015682D01*
X008152Y023382D01*
X008402Y023382D01*
X008402Y022482D01*
X008552Y022482D01*
X008552Y016582D01*
X008402Y016582D01*
X008402Y015682D01*
X011741Y015972D02*
X011741Y016292D01*
X011741Y016132D02*
X011955Y016132D01*
X011955Y016292D02*
X011955Y015972D01*
X012109Y015972D02*
X012270Y015972D01*
X012323Y016025D01*
X012323Y016239D01*
X012270Y016292D01*
X012109Y016292D01*
X012109Y015972D01*
X012478Y015972D02*
X012478Y016292D01*
X012585Y016185D01*
X012691Y016292D01*
X012691Y015972D01*
X012846Y015972D02*
X012953Y015972D01*
X012899Y015972D02*
X012899Y016292D01*
X012846Y016292D02*
X012953Y016292D01*
X014755Y017860D02*
X015149Y017860D01*
X015345Y017988D02*
X015347Y017994D01*
X015352Y017998D01*
X015358Y017998D01*
X015363Y017994D01*
X015365Y017988D01*
X015363Y017982D01*
X015358Y017978D01*
X015352Y017978D01*
X015347Y017982D01*
X015345Y017988D01*
X015149Y018903D02*
X014755Y018903D01*
X014755Y019060D02*
X015149Y019060D01*
X015345Y019188D02*
X015347Y019194D01*
X015352Y019198D01*
X015358Y019198D01*
X015363Y019194D01*
X015365Y019188D01*
X015363Y019182D01*
X015358Y019178D01*
X015352Y019178D01*
X015347Y019182D01*
X015345Y019188D01*
X015149Y020103D02*
X014755Y020103D01*
X014755Y020210D02*
X015149Y020210D01*
X015345Y020338D02*
X015347Y020344D01*
X015352Y020348D01*
X015358Y020348D01*
X015363Y020344D01*
X015365Y020338D01*
X015363Y020332D01*
X015358Y020328D01*
X015352Y020328D01*
X015347Y020332D01*
X015345Y020338D01*
X015149Y021253D02*
X014755Y021253D01*
X014902Y023835D02*
X015099Y024229D01*
X014705Y024229D01*
X014902Y023835D01*
X014458Y025622D02*
X014512Y025675D01*
X014512Y025782D01*
X014458Y025835D01*
X014405Y025835D01*
X014352Y025782D01*
X014352Y025675D01*
X014298Y025622D01*
X014245Y025622D01*
X014191Y025675D01*
X014191Y025782D01*
X014245Y025835D01*
X014298Y025990D02*
X014191Y026097D01*
X014298Y026203D01*
X014512Y026203D01*
X014352Y026203D02*
X014352Y025990D01*
X014298Y025990D02*
X014512Y025990D01*
X014512Y026465D02*
X014191Y026465D01*
X014191Y026358D02*
X014191Y026572D01*
X014298Y026727D02*
X014191Y026833D01*
X014298Y026940D01*
X014512Y026940D01*
X014352Y026940D02*
X014352Y026727D01*
X014298Y026727D02*
X014512Y026727D01*
X014445Y027972D02*
X014658Y027972D01*
X014712Y028025D01*
X014712Y028132D01*
X014658Y028185D01*
X014552Y028185D01*
X014552Y028078D01*
X014445Y027972D02*
X014391Y028025D01*
X014391Y028132D01*
X014445Y028185D01*
X014391Y028340D02*
X014391Y028500D01*
X014445Y028553D01*
X014552Y028553D01*
X014605Y028500D01*
X014605Y028340D01*
X014712Y028340D02*
X014391Y028340D01*
X014391Y028708D02*
X014391Y028815D01*
X014391Y028762D02*
X014712Y028762D01*
X014712Y028815D02*
X014712Y028708D01*
X014658Y028954D02*
X014712Y029007D01*
X014712Y029114D01*
X014658Y029167D01*
X014445Y029167D01*
X014391Y029114D01*
X014391Y029007D01*
X014445Y028954D01*
X014658Y028954D01*
X014552Y029322D02*
X014552Y029536D01*
X014552Y029690D02*
X014552Y029904D01*
X014712Y029851D02*
X014391Y029851D01*
X014552Y029690D01*
X015595Y027835D02*
X015541Y027782D01*
X015541Y027675D01*
X015595Y027622D01*
X015595Y027835D02*
X015648Y027835D01*
X015862Y027622D01*
X015862Y027835D01*
X016141Y027728D02*
X016462Y027728D01*
X016462Y027622D02*
X016462Y027835D01*
X016248Y027622D02*
X016141Y027728D01*
X018855Y027625D02*
X018908Y027572D01*
X019015Y027572D01*
X019068Y027625D01*
X019068Y027732D01*
X018961Y027732D01*
X018855Y027839D02*
X018855Y027625D01*
X018855Y027839D02*
X018908Y027892D01*
X019015Y027892D01*
X019068Y027839D01*
X019223Y027892D02*
X019383Y027892D01*
X019436Y027839D01*
X019436Y027732D01*
X019383Y027678D01*
X019223Y027678D01*
X019223Y027572D02*
X019223Y027892D01*
X019591Y027892D02*
X019698Y027892D01*
X019645Y027892D02*
X019645Y027572D01*
X019698Y027572D02*
X019591Y027572D01*
X019837Y027625D02*
X019890Y027572D01*
X019997Y027572D01*
X020050Y027625D01*
X020050Y027839D01*
X019997Y027892D01*
X019890Y027892D01*
X019837Y027839D01*
X019837Y027625D01*
X020205Y027732D02*
X020419Y027732D01*
X020573Y027785D02*
X020680Y027892D01*
X020680Y027572D01*
X020573Y027572D02*
X020787Y027572D01*
X020005Y028872D02*
X019792Y028872D01*
X019898Y028872D02*
X019898Y029192D01*
X019792Y029085D01*
X019792Y029472D02*
X020005Y029685D01*
X020005Y029739D01*
X019952Y029792D01*
X019845Y029792D01*
X019792Y029739D01*
X019792Y029472D02*
X020005Y029472D01*
X022542Y031372D02*
X022755Y031372D01*
X022648Y031372D02*
X022648Y031692D01*
X022542Y031585D01*
X022542Y031972D02*
X022755Y032185D01*
X022755Y032239D01*
X022702Y032292D01*
X022595Y032292D01*
X022542Y032239D01*
X022542Y031972D02*
X022755Y031972D01*
X027592Y027242D02*
X027752Y027242D01*
X027805Y027189D01*
X027805Y027082D01*
X027752Y027028D01*
X027592Y027028D01*
X027592Y026922D02*
X027592Y027242D01*
X027698Y027028D02*
X027805Y026922D01*
X027960Y026975D02*
X027960Y027082D01*
X028013Y027135D01*
X028120Y027135D01*
X028173Y027082D01*
X028173Y027028D01*
X027960Y027028D01*
X027960Y026975D02*
X028013Y026922D01*
X028120Y026922D01*
X028241Y026692D02*
X028348Y026692D01*
X028401Y026639D01*
X028188Y026425D01*
X028241Y026372D01*
X028348Y026372D01*
X028401Y026425D01*
X028401Y026639D01*
X028556Y026585D02*
X028663Y026692D01*
X028663Y026372D01*
X028769Y026372D02*
X028556Y026372D01*
X028924Y026425D02*
X028924Y026478D01*
X028978Y026532D01*
X029084Y026532D01*
X029138Y026478D01*
X029138Y026425D01*
X029084Y026372D01*
X028978Y026372D01*
X028924Y026425D01*
X028978Y026532D02*
X028924Y026585D01*
X028924Y026639D01*
X028978Y026692D01*
X029084Y026692D01*
X029138Y026639D01*
X029138Y026585D01*
X029084Y026532D01*
X029094Y026922D02*
X028934Y027082D01*
X028881Y027028D02*
X029094Y027242D01*
X028881Y027242D02*
X028881Y026922D01*
X028750Y026922D02*
X028697Y026922D01*
X028697Y026975D01*
X028750Y026975D01*
X028750Y026922D01*
X028542Y027135D02*
X028435Y026922D01*
X028328Y027135D01*
X028241Y026692D02*
X028188Y026639D01*
X028188Y026425D01*
X028033Y026372D02*
X027819Y026372D01*
X028033Y026585D01*
X028033Y026639D01*
X027979Y026692D01*
X027873Y026692D01*
X027819Y026639D01*
X027312Y026585D02*
X027205Y026692D01*
X027312Y026585D02*
X027312Y026478D01*
X027205Y026372D01*
X027051Y026425D02*
X026997Y026372D01*
X026891Y026372D01*
X026837Y026425D01*
X026837Y026639D01*
X026891Y026692D01*
X026997Y026692D01*
X027051Y026639D01*
X026698Y026692D02*
X026592Y026585D01*
X026592Y026478D01*
X026698Y026372D01*
X026558Y025922D02*
X026612Y025868D01*
X026612Y025762D01*
X026558Y025708D01*
X026505Y025708D01*
X026452Y025762D01*
X026452Y025868D01*
X026505Y025922D01*
X026558Y025922D01*
X026452Y025868D02*
X026398Y025922D01*
X026345Y025922D01*
X026291Y025868D01*
X026291Y025762D01*
X026345Y025708D01*
X026398Y025708D01*
X026452Y025762D01*
X026452Y025553D02*
X026452Y025340D01*
X026291Y025500D01*
X026612Y025500D01*
X026612Y025185D02*
X026505Y025078D01*
X026505Y025132D02*
X026505Y024972D01*
X026612Y024972D02*
X026291Y024972D01*
X026291Y025132D01*
X026345Y025185D01*
X026452Y025185D01*
X026505Y025132D01*
X026010Y025625D02*
X026010Y025839D01*
X025957Y025892D01*
X025850Y025892D01*
X025797Y025839D01*
X025797Y025785D01*
X025850Y025732D01*
X026010Y025732D01*
X026010Y025625D02*
X025957Y025572D01*
X025850Y025572D01*
X025797Y025625D01*
X025642Y025625D02*
X025642Y025839D01*
X025588Y025892D01*
X025482Y025892D01*
X025428Y025839D01*
X025428Y025785D01*
X025482Y025732D01*
X025642Y025732D01*
X025642Y025625D02*
X025588Y025572D01*
X025482Y025572D01*
X025428Y025625D01*
X025273Y025572D02*
X025060Y025572D01*
X025167Y025572D02*
X025167Y025892D01*
X025060Y025785D01*
X024905Y025839D02*
X024852Y025892D01*
X024745Y025892D01*
X024692Y025839D01*
X024692Y025625D01*
X024745Y025572D01*
X024852Y025572D01*
X024905Y025625D01*
X024852Y026172D02*
X024905Y026225D01*
X024852Y026172D02*
X024745Y026172D01*
X024692Y026225D01*
X024692Y026439D01*
X024745Y026492D01*
X024852Y026492D01*
X024905Y026439D01*
X025060Y026385D02*
X025167Y026492D01*
X025167Y026172D01*
X025273Y026172D02*
X025060Y026172D01*
X025428Y026225D02*
X025482Y026172D01*
X025588Y026172D01*
X025642Y026225D01*
X025642Y026439D01*
X025588Y026492D01*
X025482Y026492D01*
X025428Y026439D01*
X025428Y026385D01*
X025482Y026332D01*
X025642Y026332D01*
X025797Y026225D02*
X025797Y026172D01*
X025797Y026225D02*
X026010Y026439D01*
X026010Y026492D01*
X025797Y026492D01*
X025850Y026772D02*
X025797Y026825D01*
X025850Y026772D02*
X025957Y026772D01*
X026010Y026825D01*
X026010Y026932D01*
X025957Y026985D01*
X025903Y026985D01*
X025797Y026932D01*
X025797Y027092D01*
X026010Y027092D01*
X025642Y027039D02*
X025588Y027092D01*
X025482Y027092D01*
X025428Y027039D01*
X025428Y026985D01*
X025482Y026932D01*
X025642Y026932D01*
X025642Y026825D02*
X025642Y027039D01*
X025642Y026825D02*
X025588Y026772D01*
X025482Y026772D01*
X025428Y026825D01*
X025273Y026772D02*
X025060Y026772D01*
X025167Y026772D02*
X025167Y027092D01*
X025060Y026985D01*
X024905Y027039D02*
X024852Y027092D01*
X024745Y027092D01*
X024692Y027039D01*
X024692Y026825D01*
X024745Y026772D01*
X024852Y026772D01*
X024905Y026825D01*
X025000Y025042D02*
X025107Y025042D01*
X025160Y024989D01*
X025160Y024935D01*
X025107Y024882D01*
X025160Y024828D01*
X025160Y024775D01*
X025107Y024722D01*
X025000Y024722D01*
X024947Y024775D01*
X025053Y024882D02*
X025107Y024882D01*
X024947Y024989D02*
X025000Y025042D01*
X024792Y024989D02*
X024792Y024935D01*
X024738Y024882D01*
X024792Y024828D01*
X024792Y024775D01*
X024738Y024722D01*
X024632Y024722D01*
X024578Y024775D01*
X024685Y024882D02*
X024738Y024882D01*
X024792Y024989D02*
X024738Y025042D01*
X024632Y025042D01*
X024578Y024989D01*
X024317Y025042D02*
X024317Y024722D01*
X024423Y024722D02*
X024210Y024722D01*
X024055Y024775D02*
X024002Y024722D01*
X023895Y024722D01*
X023842Y024775D01*
X023842Y024989D01*
X023895Y025042D01*
X024002Y025042D01*
X024055Y024989D01*
X024210Y024935D02*
X024317Y025042D01*
X021825Y024500D02*
X028911Y024500D01*
X029148Y024264D02*
X029148Y017335D01*
X029148Y017256D01*
X028833Y016941D01*
X028754Y016941D01*
X029148Y017335D01*
X028754Y016941D02*
X021825Y016941D01*
X021589Y017177D02*
X021589Y024264D01*
X021520Y025322D02*
X021520Y025642D01*
X021360Y025482D01*
X021573Y025482D01*
X021205Y025375D02*
X021152Y025322D01*
X021045Y025322D01*
X020992Y025375D01*
X020992Y025642D01*
X021205Y025642D02*
X021205Y025375D01*
X021108Y020022D02*
X021055Y020022D01*
X021002Y019968D01*
X021002Y019915D01*
X021002Y019968D02*
X020948Y020022D01*
X020895Y020022D01*
X020841Y019968D01*
X020841Y019862D01*
X020895Y019808D01*
X020895Y019653D02*
X020841Y019600D01*
X020841Y019493D01*
X020895Y019440D01*
X020841Y019285D02*
X021108Y019285D01*
X021162Y019232D01*
X021162Y019125D01*
X021108Y019072D01*
X020841Y019072D01*
X021162Y019440D02*
X020948Y019653D01*
X020895Y019653D01*
X021108Y019808D02*
X021162Y019862D01*
X021162Y019968D01*
X021108Y020022D01*
X021162Y019653D02*
X021162Y019440D01*
X021415Y016295D02*
X021415Y016242D01*
X021415Y016135D02*
X021415Y015922D01*
X021468Y015922D02*
X021361Y015922D01*
X021222Y015922D02*
X021116Y015922D01*
X021169Y015922D02*
X021169Y016242D01*
X021116Y016242D01*
X020961Y016082D02*
X020908Y016135D01*
X020801Y016135D01*
X020747Y016082D01*
X020747Y015975D01*
X020801Y015922D01*
X020908Y015922D01*
X020961Y015975D01*
X020961Y016082D01*
X020617Y015975D02*
X020617Y015922D01*
X020563Y015922D01*
X020563Y015975D01*
X020617Y015975D01*
X020408Y015975D02*
X020408Y016135D01*
X020408Y015975D02*
X020355Y015922D01*
X020302Y015975D01*
X020248Y015922D01*
X020195Y015975D01*
X020195Y016135D01*
X020040Y016135D02*
X020040Y015975D01*
X019987Y015922D01*
X019933Y015975D01*
X019880Y015922D01*
X019827Y015975D01*
X019827Y016135D01*
X019672Y016135D02*
X019672Y015975D01*
X019618Y015922D01*
X019565Y015975D01*
X019512Y015922D01*
X019458Y015975D01*
X019458Y016135D01*
X019304Y016242D02*
X019090Y015922D01*
X018935Y016242D02*
X018722Y015922D01*
X018591Y015922D02*
X018538Y015922D01*
X018538Y015975D01*
X018591Y015975D01*
X018591Y015922D01*
X018591Y016082D02*
X018538Y016082D01*
X018538Y016135D01*
X018591Y016135D01*
X018591Y016082D01*
X018383Y016135D02*
X018223Y016135D01*
X018169Y016082D01*
X018223Y016028D01*
X018329Y016028D01*
X018383Y015975D01*
X018329Y015922D01*
X018169Y015922D01*
X018014Y015975D02*
X017961Y015922D01*
X017801Y015922D01*
X017801Y015815D02*
X017801Y016135D01*
X017961Y016135D01*
X018014Y016082D01*
X018014Y015975D01*
X017662Y015922D02*
X017609Y015975D01*
X017609Y016189D01*
X017662Y016135D02*
X017555Y016135D01*
X017417Y016135D02*
X017310Y016135D01*
X017363Y016189D02*
X017363Y015975D01*
X017417Y015922D01*
X017155Y015922D02*
X017155Y016082D01*
X017102Y016135D01*
X016995Y016135D01*
X016942Y016082D01*
X016942Y016242D02*
X016942Y015922D01*
X019792Y013739D02*
X019845Y013792D01*
X019952Y013792D01*
X020005Y013739D01*
X020005Y013685D01*
X019792Y013472D01*
X020005Y013472D01*
X019898Y013192D02*
X019898Y012872D01*
X019792Y012872D02*
X020005Y012872D01*
X019792Y013085D02*
X019898Y013192D01*
X020208Y012042D02*
X020155Y011989D01*
X020155Y011775D01*
X020208Y011722D01*
X020315Y011722D01*
X020368Y011775D01*
X020368Y011882D01*
X020261Y011882D01*
X020368Y011989D02*
X020315Y012042D01*
X020208Y012042D01*
X020523Y012042D02*
X020683Y012042D01*
X020736Y011989D01*
X020736Y011882D01*
X020683Y011828D01*
X020523Y011828D01*
X020523Y011722D02*
X020523Y012042D01*
X020891Y012042D02*
X020998Y012042D01*
X020945Y012042D02*
X020945Y011722D01*
X020998Y011722D02*
X020891Y011722D01*
X020891Y011492D02*
X020998Y011492D01*
X020945Y011492D02*
X020945Y011172D01*
X020998Y011172D02*
X020891Y011172D01*
X020736Y011332D02*
X020683Y011278D01*
X020523Y011278D01*
X020523Y011172D02*
X020523Y011492D01*
X020683Y011492D01*
X020736Y011439D01*
X020736Y011332D01*
X020368Y011332D02*
X020261Y011332D01*
X020368Y011332D02*
X020368Y011225D01*
X020315Y011172D01*
X020208Y011172D01*
X020155Y011225D01*
X020155Y011439D01*
X020208Y011492D01*
X020315Y011492D01*
X020368Y011439D01*
X021137Y011439D02*
X021137Y011225D01*
X021190Y011172D01*
X021297Y011172D01*
X021350Y011225D01*
X021350Y011439D01*
X021297Y011492D01*
X021190Y011492D01*
X021137Y011439D01*
X021190Y011722D02*
X021297Y011722D01*
X021350Y011775D01*
X021350Y011989D01*
X021297Y012042D01*
X021190Y012042D01*
X021137Y011989D01*
X021137Y011775D01*
X021190Y011722D01*
X021505Y011882D02*
X021719Y011882D01*
X021873Y011989D02*
X021927Y012042D01*
X022033Y012042D01*
X022087Y011989D01*
X022087Y011935D01*
X021873Y011722D01*
X022087Y011722D01*
X022033Y011492D02*
X022087Y011439D01*
X022087Y011385D01*
X022033Y011332D01*
X022087Y011278D01*
X022087Y011225D01*
X022033Y011172D01*
X021927Y011172D01*
X021873Y011225D01*
X021980Y011332D02*
X022033Y011332D01*
X022033Y011492D02*
X021927Y011492D01*
X021873Y011439D01*
X021719Y011332D02*
X021505Y011332D01*
X021602Y010532D02*
X021302Y010532D01*
X021452Y010332D01*
X021602Y010532D01*
X021602Y010332D02*
X021452Y010332D01*
X021302Y010332D01*
X022542Y010372D02*
X022755Y010372D01*
X022648Y010372D02*
X022648Y010692D01*
X022542Y010585D01*
X022542Y010972D02*
X022755Y011185D01*
X022755Y011239D01*
X022702Y011292D01*
X022595Y011292D01*
X022542Y011239D01*
X022542Y010972D02*
X022755Y010972D01*
X026002Y015482D02*
X026252Y015391D01*
X026252Y015582D01*
X026002Y015482D01*
X030252Y015482D01*
X029073Y016372D02*
X028860Y016372D01*
X028967Y016372D02*
X028967Y016692D01*
X028860Y016585D01*
X028705Y016692D02*
X028705Y016425D01*
X028652Y016372D01*
X028545Y016372D01*
X028492Y016425D01*
X028492Y016692D01*
X030492Y017172D02*
X030492Y017385D01*
X030598Y017492D01*
X030705Y017385D01*
X030705Y017172D01*
X030705Y017332D02*
X030492Y017332D01*
X030825Y017330D02*
X030872Y017186D01*
X030981Y017277D01*
X030825Y017330D01*
X030972Y017177D01*
X035747Y017177D01*
X037963Y019236D02*
X038177Y019236D01*
X038070Y019343D02*
X038070Y019129D01*
X038332Y019129D02*
X038332Y019343D01*
X038385Y019396D01*
X038545Y019396D01*
X038545Y019076D01*
X038385Y019076D01*
X038332Y019129D01*
X038631Y020433D02*
X038845Y020433D01*
X039000Y020540D02*
X039053Y020593D01*
X039213Y020593D01*
X039213Y020273D01*
X039053Y020273D01*
X039000Y020326D01*
X039000Y020540D01*
X038545Y022876D02*
X038385Y022876D01*
X038332Y022929D01*
X038332Y023143D01*
X038385Y023196D01*
X038545Y023196D01*
X038545Y022876D01*
X038177Y023036D02*
X037963Y023036D01*
X038070Y023143D02*
X038070Y022929D01*
X038631Y024233D02*
X038845Y024233D01*
X039000Y024340D02*
X039053Y024393D01*
X039213Y024393D01*
X039213Y024073D01*
X039053Y024073D01*
X039000Y024126D01*
X039000Y024340D01*
X040702Y025582D02*
X040702Y025732D01*
X040902Y025582D01*
X040902Y025882D01*
X040702Y025732D01*
X040702Y025882D01*
X036983Y026101D02*
X036983Y026288D01*
X036983Y026101D02*
X036796Y026101D01*
X034808Y026101D02*
X034621Y026101D01*
X034621Y026288D01*
X033437Y026947D02*
X033437Y027160D01*
X033437Y027315D02*
X033437Y027528D01*
X033437Y027422D02*
X033116Y027422D01*
X033223Y027315D01*
X033170Y027683D02*
X033116Y027737D01*
X033116Y027843D01*
X033170Y027897D01*
X033223Y027897D01*
X033277Y027843D01*
X033330Y027897D01*
X033383Y027897D01*
X033437Y027843D01*
X033437Y027737D01*
X033383Y027683D01*
X033277Y027790D02*
X033277Y027843D01*
X033116Y026947D02*
X033437Y026947D01*
X034621Y028276D02*
X034621Y028463D01*
X034808Y028463D01*
X033612Y029172D02*
X033612Y029385D01*
X033612Y029540D02*
X033612Y029753D01*
X033612Y029647D02*
X033291Y029647D01*
X033398Y029540D01*
X033345Y029908D02*
X033291Y029962D01*
X033291Y030068D01*
X033345Y030122D01*
X033398Y030122D01*
X033612Y029908D01*
X033612Y030122D01*
X033612Y029172D02*
X033291Y029172D01*
X036796Y028463D02*
X036904Y028463D01*
X036983Y028384D01*
X036983Y028276D01*
X041002Y032482D02*
X041002Y032782D01*
X041202Y032632D01*
X041002Y032482D01*
X041202Y032482D02*
X041202Y032632D01*
X041202Y032782D01*
X030574Y021899D02*
X030467Y021899D01*
X030414Y021846D01*
X030259Y021899D02*
X030259Y021632D01*
X030205Y021579D01*
X030099Y021579D01*
X030045Y021632D01*
X030045Y021899D01*
X030414Y021579D02*
X030627Y021793D01*
X030627Y021846D01*
X030574Y021899D01*
X030627Y021579D02*
X030414Y021579D01*
X030468Y019195D02*
X030575Y019195D01*
X030628Y019141D01*
X030628Y019088D01*
X030575Y019035D01*
X030628Y018981D01*
X030628Y018928D01*
X030575Y018874D01*
X030468Y018874D01*
X030415Y018928D01*
X030521Y019035D02*
X030575Y019035D01*
X030415Y019141D02*
X030468Y019195D01*
X030260Y019195D02*
X030260Y018928D01*
X030206Y018874D01*
X030100Y018874D01*
X030046Y018928D01*
X030046Y019195D01*
X026305Y016035D02*
X026305Y015822D01*
X026305Y015982D02*
X026092Y015982D01*
X026092Y016035D02*
X026198Y016142D01*
X026305Y016035D01*
X026092Y016035D02*
X026092Y015822D01*
X023846Y015922D02*
X023846Y016082D01*
X023793Y016135D01*
X023739Y016082D01*
X023739Y015922D01*
X023632Y015922D02*
X023632Y016135D01*
X023686Y016135D01*
X023739Y016082D01*
X023478Y016082D02*
X023424Y016135D01*
X023317Y016135D01*
X023264Y016082D01*
X023264Y015975D01*
X023317Y015922D01*
X023424Y015922D01*
X023478Y015975D01*
X023478Y016082D01*
X023109Y016135D02*
X022949Y016135D01*
X022896Y016082D01*
X022896Y015975D01*
X022949Y015922D01*
X023109Y015922D01*
X022765Y015922D02*
X022712Y015922D01*
X022712Y015975D01*
X022765Y015975D01*
X022765Y015922D01*
X022557Y015922D02*
X022343Y016135D01*
X022189Y016082D02*
X022189Y016028D01*
X021975Y016028D01*
X021975Y015975D02*
X021975Y016082D01*
X022028Y016135D01*
X022135Y016135D01*
X022189Y016082D01*
X022135Y015922D02*
X022028Y015922D01*
X021975Y015975D01*
X021820Y015922D02*
X021820Y016082D01*
X021767Y016135D01*
X021713Y016082D01*
X021713Y015922D01*
X021607Y015922D02*
X021607Y016135D01*
X021660Y016135D01*
X021713Y016082D01*
X021415Y016135D02*
X021361Y016135D01*
X022343Y015922D02*
X022557Y016135D01*
X034300Y010042D02*
X034300Y009775D01*
X034353Y009722D01*
X034460Y009722D01*
X034514Y009775D01*
X034514Y010042D01*
X034668Y009935D02*
X034775Y010042D01*
X034882Y009935D01*
X034882Y009722D01*
X035037Y009722D02*
X035037Y010042D01*
X035197Y010042D01*
X035250Y009989D01*
X035250Y009882D01*
X035197Y009828D01*
X035037Y009828D01*
X035143Y009828D02*
X035250Y009722D01*
X035512Y009722D02*
X035512Y010042D01*
X035405Y010042D02*
X035619Y010042D01*
X035773Y009989D02*
X035827Y010042D01*
X035933Y010042D01*
X035987Y009989D01*
X035773Y009775D01*
X035827Y009722D01*
X035933Y009722D01*
X035987Y009775D01*
X035987Y009989D01*
X035773Y009989D02*
X035773Y009775D01*
X034882Y009882D02*
X034668Y009882D01*
X034668Y009935D02*
X034668Y009722D01*
X012102Y030222D02*
X012102Y030435D01*
X012398Y031875D02*
X012398Y032089D01*
X012292Y031982D02*
X012505Y031982D01*
X012660Y031982D02*
X012767Y032035D01*
X012820Y032035D01*
X012873Y031982D01*
X012873Y031875D01*
X012820Y031822D01*
X012713Y031822D01*
X012660Y031875D01*
X012660Y031982D02*
X012660Y032142D01*
X012873Y032142D01*
X013028Y032142D02*
X013028Y031928D01*
X013135Y031822D01*
X013242Y031928D01*
X013242Y032142D01*
X008702Y029282D02*
X008702Y023682D01*
D12*
X014326Y022900D02*
X014326Y022767D01*
X014427Y022767D01*
X014393Y022834D01*
X014393Y022867D01*
X014427Y022900D01*
X014493Y022900D01*
X014527Y022867D01*
X014527Y022800D01*
X014493Y022767D01*
X014427Y022670D02*
X014427Y022537D01*
X014326Y022637D01*
X014527Y022637D01*
X014527Y022440D02*
X014460Y022373D01*
X014460Y022407D02*
X014460Y022307D01*
X014527Y022307D02*
X014326Y022307D01*
X014326Y022407D01*
X014360Y022440D01*
X014427Y022440D01*
X014460Y022407D01*
X014527Y022150D02*
X014527Y022017D01*
X014527Y022084D02*
X014326Y022084D01*
X014393Y022017D01*
X014393Y021920D02*
X014427Y021887D01*
X014460Y021920D01*
X014493Y021920D01*
X014527Y021887D01*
X014527Y021820D01*
X014493Y021787D01*
X014427Y021854D02*
X014427Y021887D01*
X014393Y021920D02*
X014360Y021920D01*
X014326Y021887D01*
X014326Y021820D01*
X014360Y021787D01*
X014360Y021690D02*
X014427Y021690D01*
X014460Y021657D01*
X014460Y021557D01*
X014460Y021623D02*
X014527Y021690D01*
X014527Y021557D02*
X014326Y021557D01*
X014326Y021657D01*
X014360Y021690D01*
X014777Y021557D02*
X014777Y021390D01*
X014810Y021357D01*
X014877Y021357D01*
X014910Y021390D01*
X014910Y021557D01*
X015007Y021523D02*
X015007Y021490D01*
X015040Y021457D01*
X015140Y021457D01*
X015140Y021523D02*
X015107Y021557D01*
X015040Y021557D01*
X015007Y021523D01*
X015007Y021390D02*
X015040Y021357D01*
X015107Y021357D01*
X015140Y021390D01*
X015140Y021523D01*
X015326Y021957D02*
X015326Y022057D01*
X015360Y022090D01*
X015427Y022090D01*
X015460Y022057D01*
X015460Y021957D01*
X015460Y022023D02*
X015527Y022090D01*
X015527Y021957D02*
X015326Y021957D01*
X015427Y022187D02*
X015326Y022287D01*
X015527Y022287D01*
X015427Y022320D02*
X015427Y022187D01*
X015427Y022417D02*
X015360Y022484D01*
X015326Y022550D01*
X015427Y022517D02*
X015427Y022417D01*
X015493Y022417D01*
X015527Y022450D01*
X015527Y022517D01*
X015493Y022550D01*
X015460Y022550D01*
X015427Y022517D01*
X015460Y022757D02*
X015460Y022857D01*
X015427Y022890D01*
X015360Y022890D01*
X015326Y022857D01*
X015326Y022757D01*
X015527Y022757D01*
X015460Y022823D02*
X015527Y022890D01*
X015493Y022987D02*
X015527Y023020D01*
X015527Y023087D01*
X015493Y023120D01*
X015460Y023120D01*
X015427Y023087D01*
X015427Y023054D01*
X015427Y023087D02*
X015393Y023120D01*
X015360Y023120D01*
X015326Y023087D01*
X015326Y023020D01*
X015360Y022987D01*
X015360Y023217D02*
X015326Y023250D01*
X015326Y023317D01*
X015360Y023350D01*
X015393Y023350D01*
X015527Y023217D01*
X015527Y023350D01*
X019077Y026007D02*
X019077Y026207D01*
X019177Y026207D01*
X019210Y026173D01*
X019210Y026107D01*
X019177Y026073D01*
X019077Y026073D01*
X019143Y026073D02*
X019210Y026007D01*
X019307Y026007D02*
X019440Y026140D01*
X019440Y026173D01*
X019407Y026207D01*
X019340Y026207D01*
X019307Y026173D01*
X019307Y026007D02*
X019440Y026007D01*
X019537Y026007D02*
X019670Y026140D01*
X019670Y026173D01*
X019637Y026207D01*
X019570Y026207D01*
X019537Y026173D01*
X019537Y026007D02*
X019670Y026007D01*
X019643Y028036D02*
X019510Y028036D01*
X019476Y028069D01*
X019476Y028136D01*
X019510Y028169D01*
X019543Y028266D02*
X019476Y028333D01*
X019677Y028333D01*
X019677Y028399D02*
X019677Y028266D01*
X019643Y028169D02*
X019677Y028136D01*
X019677Y028069D01*
X019643Y028036D01*
X019327Y028069D02*
X019327Y028136D01*
X019293Y028169D01*
X019327Y028266D02*
X019327Y028399D01*
X019327Y028333D02*
X019126Y028333D01*
X019193Y028266D01*
X019160Y028169D02*
X019126Y028136D01*
X019126Y028069D01*
X019160Y028036D01*
X019293Y028036D01*
X019327Y028069D01*
X019227Y028496D02*
X019227Y028630D01*
X019193Y028726D02*
X019126Y028793D01*
X019327Y028793D01*
X019327Y028726D02*
X019327Y028860D01*
X019476Y028826D02*
X019476Y028760D01*
X019510Y028726D01*
X019543Y028726D01*
X019577Y028760D01*
X019577Y028860D01*
X019643Y028860D02*
X019510Y028860D01*
X019476Y028826D01*
X019643Y028860D02*
X019677Y028826D01*
X019677Y028760D01*
X019643Y028726D01*
X019643Y028630D02*
X019677Y028596D01*
X019677Y028530D01*
X019643Y028496D01*
X019577Y028563D02*
X019577Y028596D01*
X019610Y028630D01*
X019643Y028630D01*
X019577Y028596D02*
X019543Y028630D01*
X019510Y028630D01*
X019476Y028596D01*
X019476Y028530D01*
X019510Y028496D01*
X019327Y028596D02*
X019126Y028596D01*
X019227Y028496D01*
X018476Y029807D02*
X018342Y029807D01*
X018409Y029807D02*
X018409Y030007D01*
X018342Y029940D01*
X018245Y029907D02*
X018145Y029907D01*
X018112Y029940D01*
X018112Y029973D01*
X018145Y030007D01*
X018212Y030007D01*
X018245Y029973D01*
X018245Y029840D01*
X018212Y029807D01*
X018145Y029807D01*
X018112Y029840D01*
X018015Y029807D02*
X017882Y029807D01*
X017949Y029807D02*
X017949Y030007D01*
X017882Y029940D01*
X017785Y029973D02*
X017752Y030007D01*
X017685Y030007D01*
X017652Y029973D01*
X017652Y029840D01*
X017685Y029807D01*
X017752Y029807D01*
X017785Y029840D01*
X015493Y020070D02*
X015527Y020037D01*
X015527Y019970D01*
X015493Y019937D01*
X015460Y019937D01*
X015427Y019970D01*
X015427Y020037D01*
X015460Y020070D01*
X015493Y020070D01*
X015427Y020037D02*
X015393Y020070D01*
X015360Y020070D01*
X015326Y020037D01*
X015326Y019970D01*
X015360Y019937D01*
X015393Y019937D01*
X015427Y019970D01*
X015493Y019840D02*
X015326Y019840D01*
X015326Y019707D02*
X015493Y019707D01*
X015527Y019740D01*
X015527Y019807D01*
X015493Y019840D01*
X009934Y013569D02*
X009777Y013412D01*
X009777Y013018D01*
X009934Y012860D01*
X009934Y012309D02*
X009777Y012152D01*
X009777Y011719D01*
X009934Y011561D01*
X021172Y010522D02*
X021172Y010472D01*
X021222Y010472D01*
X021172Y010472D02*
X021242Y010542D01*
X021242Y010402D02*
X021172Y010332D01*
X021172Y010382D01*
X021172Y010332D02*
X021222Y010332D01*
X029477Y015090D02*
X029510Y015057D01*
X029577Y015057D01*
X029610Y015090D01*
X029707Y015057D02*
X029840Y015190D01*
X029840Y015223D01*
X029807Y015257D01*
X029740Y015257D01*
X029707Y015223D01*
X029610Y015223D02*
X029577Y015257D01*
X029510Y015257D01*
X029477Y015223D01*
X029477Y015090D01*
X029707Y015057D02*
X029840Y015057D01*
X029937Y015090D02*
X029970Y015057D01*
X030037Y015057D01*
X030070Y015090D01*
X030070Y015157D01*
X030037Y015190D01*
X030004Y015190D01*
X029937Y015157D01*
X029937Y015257D01*
X030070Y015257D01*
X030167Y015223D02*
X030167Y015190D01*
X030200Y015157D01*
X030267Y015157D01*
X030301Y015123D01*
X030301Y015090D01*
X030267Y015057D01*
X030200Y015057D01*
X030167Y015090D01*
X030167Y015123D01*
X030200Y015157D01*
X030267Y015157D02*
X030301Y015190D01*
X030301Y015223D01*
X030267Y015257D01*
X030200Y015257D01*
X030167Y015223D01*
X032812Y016193D02*
X032812Y016393D01*
X032912Y016393D01*
X032945Y016360D01*
X032945Y016293D01*
X032912Y016260D01*
X032812Y016260D01*
X032878Y016260D02*
X032945Y016193D01*
X033042Y016193D02*
X033175Y016193D01*
X033109Y016193D02*
X033109Y016393D01*
X033042Y016326D01*
X033272Y016360D02*
X033305Y016393D01*
X033372Y016393D01*
X033405Y016360D01*
X033405Y016326D01*
X033272Y016193D01*
X033405Y016193D01*
X033502Y016226D02*
X033536Y016193D01*
X033602Y016193D01*
X033636Y016226D01*
X033636Y016293D01*
X033602Y016326D01*
X033569Y016326D01*
X033502Y016293D01*
X033502Y016393D01*
X033636Y016393D01*
X033656Y016057D02*
X033589Y016057D01*
X033556Y016023D01*
X033556Y015890D01*
X033589Y015857D01*
X033656Y015857D01*
X033689Y015890D01*
X033786Y015857D02*
X033919Y015990D01*
X033919Y016023D01*
X033886Y016057D01*
X033819Y016057D01*
X033786Y016023D01*
X033689Y016023D02*
X033656Y016057D01*
X033786Y015857D02*
X033919Y015857D01*
X034016Y015890D02*
X034050Y015857D01*
X034116Y015857D01*
X034150Y015890D01*
X034150Y015957D01*
X034116Y015990D01*
X034083Y015990D01*
X034016Y015957D01*
X034016Y016057D01*
X034150Y016057D01*
X034246Y016023D02*
X034280Y016057D01*
X034346Y016057D01*
X034380Y016023D01*
X034246Y015890D01*
X034280Y015857D01*
X034346Y015857D01*
X034380Y015890D01*
X034380Y016023D01*
X034246Y016023D02*
X034246Y015890D01*
X033727Y015470D02*
X033727Y015337D01*
X033593Y015470D01*
X033560Y015470D01*
X033526Y015437D01*
X033526Y015370D01*
X033560Y015337D01*
X033727Y015240D02*
X033727Y015107D01*
X033526Y015107D01*
X033377Y015137D02*
X033243Y015270D01*
X033210Y015270D01*
X033176Y015237D01*
X033176Y015170D01*
X033210Y015137D01*
X033210Y015040D02*
X033176Y015007D01*
X033176Y014940D01*
X033210Y014907D01*
X033343Y014907D01*
X033377Y014940D01*
X033377Y015007D01*
X033343Y015040D01*
X033377Y015137D02*
X033377Y015270D01*
X033343Y015367D02*
X033377Y015400D01*
X033377Y015467D01*
X033343Y015500D01*
X033277Y015500D01*
X033243Y015467D01*
X033243Y015434D01*
X033277Y015367D01*
X033176Y015367D01*
X033176Y015500D01*
X033176Y015597D02*
X033176Y015731D01*
X033210Y015731D01*
X033343Y015597D01*
X033377Y015597D01*
X033386Y014007D02*
X033319Y014007D01*
X033286Y013973D01*
X033189Y013973D02*
X033156Y014007D01*
X033089Y014007D01*
X033056Y013973D01*
X033056Y013840D01*
X033089Y013807D01*
X033156Y013807D01*
X033189Y013840D01*
X033286Y013807D02*
X033419Y013940D01*
X033419Y013973D01*
X033386Y014007D01*
X033516Y013907D02*
X033616Y014007D01*
X033616Y013807D01*
X033650Y013907D02*
X033516Y013907D01*
X033419Y013807D02*
X033286Y013807D01*
X033746Y013840D02*
X033780Y013807D01*
X033846Y013807D01*
X033880Y013840D01*
X033880Y013873D01*
X033846Y013907D01*
X033746Y013907D01*
X033746Y013840D01*
X033746Y013907D02*
X033813Y013973D01*
X033880Y014007D01*
X035277Y013940D02*
X035310Y013907D01*
X035377Y013907D01*
X035410Y013940D01*
X035507Y013907D02*
X035640Y014040D01*
X035640Y014073D01*
X035607Y014107D01*
X035540Y014107D01*
X035507Y014073D01*
X035410Y014073D02*
X035377Y014107D01*
X035310Y014107D01*
X035277Y014073D01*
X035277Y013940D01*
X035507Y013907D02*
X035640Y013907D01*
X035737Y013940D02*
X035770Y013907D01*
X035837Y013907D01*
X035870Y013940D01*
X035870Y014007D01*
X035837Y014040D01*
X035804Y014040D01*
X035737Y014007D01*
X035737Y014107D01*
X035870Y014107D01*
X035967Y014073D02*
X036000Y014107D01*
X036067Y014107D01*
X036101Y014073D01*
X036101Y014040D01*
X036067Y014007D01*
X036101Y013973D01*
X036101Y013940D01*
X036067Y013907D01*
X036000Y013907D01*
X035967Y013940D01*
X036034Y014007D02*
X036067Y014007D01*
X036101Y014807D02*
X035967Y014807D01*
X036101Y014940D01*
X036101Y014973D01*
X036067Y015007D01*
X036000Y015007D01*
X035967Y014973D01*
X035870Y015007D02*
X035737Y015007D01*
X035737Y014907D01*
X035804Y014940D01*
X035837Y014940D01*
X035870Y014907D01*
X035870Y014840D01*
X035837Y014807D01*
X035770Y014807D01*
X035737Y014840D01*
X035640Y014807D02*
X035507Y014807D01*
X035640Y014940D01*
X035640Y014973D01*
X035607Y015007D01*
X035540Y015007D01*
X035507Y014973D01*
X035410Y014973D02*
X035377Y015007D01*
X035310Y015007D01*
X035277Y014973D01*
X035277Y014840D01*
X035310Y014807D01*
X035377Y014807D01*
X035410Y014840D01*
X035377Y015207D02*
X035377Y015340D01*
X035377Y015437D02*
X035377Y015570D01*
X035377Y015504D02*
X035176Y015504D01*
X035243Y015437D01*
X035243Y015667D02*
X035210Y015667D01*
X035176Y015700D01*
X035176Y015767D01*
X035210Y015800D01*
X035243Y015800D01*
X035277Y015767D01*
X035277Y015700D01*
X035243Y015667D01*
X035277Y015700D02*
X035310Y015667D01*
X035343Y015667D01*
X035377Y015700D01*
X035377Y015767D01*
X035343Y015800D01*
X035310Y015800D01*
X035277Y015767D01*
X035377Y015207D02*
X035176Y015207D01*
X033060Y012260D02*
X033193Y012126D01*
X033227Y012126D01*
X033193Y012030D02*
X033227Y011996D01*
X033227Y011930D01*
X033193Y011896D01*
X033127Y011963D02*
X033127Y011996D01*
X033160Y012030D01*
X033193Y012030D01*
X033127Y011996D02*
X033093Y012030D01*
X033060Y012030D01*
X033026Y011996D01*
X033026Y011930D01*
X033060Y011896D01*
X033060Y011799D02*
X033026Y011766D01*
X033026Y011699D01*
X033060Y011666D01*
X033060Y011569D02*
X033026Y011536D01*
X033026Y011469D01*
X033060Y011436D01*
X033193Y011436D01*
X033227Y011469D01*
X033227Y011536D01*
X033193Y011569D01*
X033227Y011666D02*
X033093Y011799D01*
X033060Y011799D01*
X033227Y011799D02*
X033227Y011666D01*
X033410Y011431D02*
X033376Y011397D01*
X033376Y011330D01*
X033410Y011297D01*
X033410Y011200D02*
X033376Y011167D01*
X033376Y011100D01*
X033410Y011067D01*
X033410Y011200D02*
X033443Y011200D01*
X033577Y011067D01*
X033577Y011200D01*
X033577Y011297D02*
X033443Y011431D01*
X033410Y011431D01*
X033577Y011431D02*
X033577Y011297D01*
X033577Y010970D02*
X033577Y010837D01*
X033577Y010904D02*
X033376Y010904D01*
X033443Y010837D01*
X033410Y010740D02*
X033477Y010740D01*
X033510Y010707D01*
X033510Y010607D01*
X033510Y010673D02*
X033577Y010740D01*
X033577Y010607D02*
X033376Y010607D01*
X033376Y010707D01*
X033410Y010740D01*
X033926Y010497D02*
X033960Y010531D01*
X033993Y010531D01*
X034027Y010497D01*
X034060Y010531D01*
X034093Y010531D01*
X034127Y010497D01*
X034127Y010430D01*
X034093Y010397D01*
X034027Y010464D02*
X034027Y010497D01*
X033926Y010497D02*
X033926Y010430D01*
X033960Y010397D01*
X033926Y010234D02*
X034127Y010234D01*
X034127Y010300D02*
X034127Y010167D01*
X034127Y010070D02*
X034127Y009937D01*
X034127Y010004D02*
X033926Y010004D01*
X033993Y009937D01*
X033960Y009840D02*
X034027Y009840D01*
X034060Y009807D01*
X034060Y009707D01*
X034060Y009773D02*
X034127Y009840D01*
X034127Y009707D02*
X033926Y009707D01*
X033926Y009807D01*
X033960Y009840D01*
X033993Y010167D02*
X033926Y010234D01*
X033026Y012126D02*
X033026Y012260D01*
X033060Y012260D01*
X032730Y012257D02*
X032663Y012223D01*
X032596Y012157D01*
X032696Y012157D01*
X032730Y012123D01*
X032730Y012090D01*
X032696Y012057D01*
X032630Y012057D01*
X032596Y012090D01*
X032596Y012157D01*
X032500Y012157D02*
X032500Y012090D01*
X032466Y012057D01*
X032400Y012057D01*
X032366Y012090D01*
X032366Y012157D02*
X032433Y012190D01*
X032466Y012190D01*
X032500Y012157D01*
X032500Y012257D02*
X032366Y012257D01*
X032366Y012157D01*
X032269Y012190D02*
X032269Y012223D01*
X032236Y012257D01*
X032169Y012257D01*
X032136Y012223D01*
X032039Y012223D02*
X032006Y012257D01*
X031939Y012257D01*
X031906Y012223D01*
X031906Y012090D01*
X031939Y012057D01*
X032006Y012057D01*
X032039Y012090D01*
X032136Y012057D02*
X032269Y012190D01*
X032269Y012057D02*
X032136Y012057D01*
X031680Y012323D02*
X031546Y012190D01*
X031546Y012157D01*
X031450Y012157D02*
X031316Y012157D01*
X031450Y012290D01*
X031450Y012323D01*
X031416Y012357D01*
X031350Y012357D01*
X031316Y012323D01*
X031153Y012357D02*
X031153Y012157D01*
X031219Y012157D02*
X031086Y012157D01*
X030989Y012157D02*
X030923Y012223D01*
X030956Y012223D02*
X030856Y012223D01*
X030856Y012157D02*
X030856Y012357D01*
X030956Y012357D01*
X030989Y012323D01*
X030989Y012257D01*
X030956Y012223D01*
X031086Y012290D02*
X031153Y012357D01*
X031546Y012357D02*
X031680Y012357D01*
X031680Y012323D01*
X038227Y010948D02*
X038227Y010815D01*
X038260Y010782D01*
X038327Y010782D01*
X038360Y010815D01*
X038360Y010882D01*
X038293Y010882D01*
X038227Y010948D02*
X038260Y010982D01*
X038327Y010982D01*
X038360Y010948D01*
X038457Y010982D02*
X038590Y010782D01*
X038590Y010982D01*
X038687Y010982D02*
X038787Y010982D01*
X038820Y010948D01*
X038820Y010815D01*
X038787Y010782D01*
X038687Y010782D01*
X038687Y010982D01*
X038457Y010982D02*
X038457Y010782D01*
X029830Y018490D02*
X029796Y018457D01*
X029730Y018457D01*
X029696Y018490D01*
X029830Y018623D01*
X029830Y018490D01*
X029830Y018623D02*
X029796Y018657D01*
X029730Y018657D01*
X029696Y018623D01*
X029696Y018490D01*
X029600Y018457D02*
X029466Y018457D01*
X029600Y018590D01*
X029600Y018623D01*
X029566Y018657D01*
X029500Y018657D01*
X029466Y018623D01*
X029370Y018623D02*
X029336Y018657D01*
X029269Y018657D01*
X029236Y018623D01*
X029236Y018490D01*
X029269Y018457D01*
X029336Y018457D01*
X029370Y018490D01*
X029336Y018807D02*
X029370Y018840D01*
X029336Y018807D02*
X029269Y018807D01*
X029236Y018840D01*
X029236Y018973D01*
X029269Y019007D01*
X029336Y019007D01*
X029370Y018973D01*
X029466Y019007D02*
X029466Y018907D01*
X029533Y018940D01*
X029566Y018940D01*
X029600Y018907D01*
X029600Y018840D01*
X029566Y018807D01*
X029500Y018807D01*
X029466Y018840D01*
X029466Y019007D02*
X029600Y019007D01*
X029696Y018973D02*
X029730Y019007D01*
X029796Y019007D01*
X029830Y018973D01*
X029830Y018940D01*
X029696Y018807D01*
X029830Y018807D01*
X035686Y021190D02*
X035719Y021157D01*
X035786Y021157D01*
X035820Y021190D01*
X035916Y021190D02*
X035950Y021157D01*
X036016Y021157D01*
X036050Y021190D01*
X036050Y021223D01*
X036016Y021257D01*
X035983Y021257D01*
X036016Y021257D02*
X036050Y021290D01*
X036050Y021323D01*
X036016Y021357D01*
X035950Y021357D01*
X035916Y021323D01*
X035820Y021323D02*
X035786Y021357D01*
X035719Y021357D01*
X035686Y021323D01*
X035686Y021190D01*
X036146Y021190D02*
X036280Y021323D01*
X036280Y021190D01*
X036246Y021157D01*
X036180Y021157D01*
X036146Y021190D01*
X036146Y021323D01*
X036180Y021357D01*
X036246Y021357D01*
X036280Y021323D01*
X036627Y021515D02*
X036660Y021482D01*
X036727Y021482D01*
X036760Y021515D01*
X036857Y021515D02*
X036890Y021482D01*
X036957Y021482D01*
X036990Y021515D01*
X036990Y021548D01*
X036957Y021582D01*
X036924Y021582D01*
X036957Y021582D02*
X036990Y021615D01*
X036990Y021648D01*
X036957Y021682D01*
X036890Y021682D01*
X036857Y021648D01*
X036760Y021648D02*
X036727Y021682D01*
X036660Y021682D01*
X036627Y021648D01*
X036627Y021515D01*
X036660Y021807D02*
X036727Y021807D01*
X036760Y021840D01*
X036857Y021840D02*
X036890Y021807D01*
X036957Y021807D01*
X036990Y021840D01*
X036990Y021907D01*
X036957Y021940D01*
X036924Y021940D01*
X036857Y021907D01*
X036857Y022007D01*
X036990Y022007D01*
X037087Y021907D02*
X037187Y021907D01*
X037220Y021873D01*
X037220Y021840D01*
X037187Y021807D01*
X037120Y021807D01*
X037087Y021840D01*
X037087Y021907D01*
X037154Y021973D01*
X037220Y022007D01*
X037187Y021682D02*
X037120Y021682D01*
X037087Y021648D01*
X037187Y021682D02*
X037220Y021648D01*
X037220Y021615D01*
X037087Y021482D01*
X037220Y021482D01*
X036660Y021807D02*
X036627Y021840D01*
X036627Y021973D01*
X036660Y022007D01*
X036727Y022007D01*
X036760Y021973D01*
X036793Y023066D02*
X036827Y023099D01*
X036827Y023166D01*
X036793Y023200D01*
X036793Y023296D02*
X036827Y023330D01*
X036827Y023396D01*
X036793Y023430D01*
X036760Y023430D01*
X036727Y023396D01*
X036727Y023296D01*
X036793Y023296D01*
X036727Y023296D02*
X036660Y023363D01*
X036626Y023430D01*
X036693Y023526D02*
X036626Y023593D01*
X036827Y023593D01*
X036827Y023526D02*
X036827Y023660D01*
X036793Y023816D02*
X036827Y023849D01*
X036827Y023916D01*
X036793Y023950D01*
X036827Y024046D02*
X036693Y024180D01*
X036660Y024180D01*
X036626Y024146D01*
X036626Y024080D01*
X036660Y024046D01*
X036660Y023950D02*
X036626Y023916D01*
X036626Y023849D01*
X036660Y023816D01*
X036793Y023816D01*
X036827Y024046D02*
X036827Y024180D01*
X036793Y024276D02*
X036827Y024310D01*
X036827Y024376D01*
X036793Y024410D01*
X036660Y024410D01*
X036626Y024376D01*
X036626Y024310D01*
X036660Y024276D01*
X036693Y024276D01*
X036727Y024310D01*
X036727Y024410D01*
X036660Y023200D02*
X036626Y023166D01*
X036626Y023099D01*
X036660Y023066D01*
X036793Y023066D01*
X036793Y020460D02*
X036827Y020426D01*
X036827Y020360D01*
X036793Y020326D01*
X036660Y020460D01*
X036793Y020460D01*
X036660Y020460D02*
X036626Y020426D01*
X036626Y020360D01*
X036660Y020326D01*
X036793Y020326D01*
X036793Y020230D02*
X036760Y020230D01*
X036727Y020196D01*
X036727Y020096D01*
X036793Y020096D01*
X036827Y020130D01*
X036827Y020196D01*
X036793Y020230D01*
X036660Y020163D02*
X036727Y020096D01*
X036660Y020163D02*
X036626Y020230D01*
X036660Y020000D02*
X036626Y019966D01*
X036626Y019899D01*
X036660Y019866D01*
X036793Y019866D01*
X036827Y019899D01*
X036827Y019966D01*
X036793Y020000D01*
X036827Y019660D02*
X036827Y019526D01*
X036827Y019593D02*
X036626Y019593D01*
X036693Y019526D01*
X036693Y019430D02*
X036727Y019396D01*
X036760Y019430D01*
X036793Y019430D01*
X036827Y019396D01*
X036827Y019330D01*
X036793Y019296D01*
X036727Y019363D02*
X036727Y019396D01*
X036693Y019430D02*
X036660Y019430D01*
X036626Y019396D01*
X036626Y019330D01*
X036660Y019296D01*
X036660Y019200D02*
X036626Y019166D01*
X036626Y019099D01*
X036660Y019066D01*
X036793Y019066D01*
X036827Y019099D01*
X036827Y019166D01*
X036793Y019200D01*
X040502Y024857D02*
X040502Y025057D01*
X040602Y025057D01*
X040635Y025023D01*
X040635Y024957D01*
X040602Y024923D01*
X040502Y024923D01*
X040568Y024923D02*
X040635Y024857D01*
X040732Y024857D02*
X040732Y024890D01*
X040865Y025023D01*
X040865Y025057D01*
X040732Y025057D01*
X040962Y025023D02*
X040995Y025057D01*
X041062Y025057D01*
X041095Y025023D01*
X040962Y024890D01*
X040995Y024857D01*
X041062Y024857D01*
X041095Y024890D01*
X041095Y025023D01*
X040962Y025023D02*
X040962Y024890D01*
X041387Y024857D02*
X041387Y025057D01*
X041387Y024857D02*
X041520Y024857D01*
X041617Y024857D02*
X041684Y024857D01*
X041650Y024857D02*
X041650Y025057D01*
X041617Y025057D02*
X041684Y025057D01*
X041770Y025057D02*
X041871Y025057D01*
X041904Y025023D01*
X041904Y024957D01*
X041871Y024923D01*
X041770Y024923D01*
X041770Y024857D02*
X041770Y025057D01*
X041807Y025157D02*
X041807Y025357D01*
X041807Y025257D02*
X041940Y025257D01*
X041940Y025357D02*
X041940Y025157D01*
X042037Y025190D02*
X042070Y025157D01*
X042137Y025157D01*
X042170Y025190D01*
X042170Y025257D01*
X042104Y025257D01*
X042170Y025323D02*
X042137Y025357D01*
X042070Y025357D01*
X042037Y025323D01*
X042037Y025190D01*
X042034Y025057D02*
X042001Y025023D01*
X042001Y024890D01*
X042034Y024857D01*
X042101Y024857D01*
X042134Y024890D01*
X042134Y025023D01*
X042101Y025057D01*
X042034Y025057D01*
X042267Y025157D02*
X042401Y025157D01*
X042497Y025157D02*
X042631Y025157D01*
X042727Y025157D02*
X042828Y025157D01*
X042861Y025190D01*
X042861Y025323D01*
X042828Y025357D01*
X042727Y025357D01*
X042727Y025157D01*
X042758Y025057D02*
X042824Y024990D01*
X042824Y024857D01*
X042824Y024957D02*
X042691Y024957D01*
X042691Y024990D02*
X042758Y025057D01*
X042691Y024990D02*
X042691Y024857D01*
X042594Y024890D02*
X042561Y024857D01*
X042461Y024857D01*
X042461Y025057D01*
X042561Y025057D01*
X042594Y025023D01*
X042594Y024990D01*
X042561Y024957D01*
X042461Y024957D01*
X042561Y024957D02*
X042594Y024923D01*
X042594Y024890D01*
X042364Y024823D02*
X042231Y024823D01*
X042267Y025157D02*
X042267Y025357D01*
X042093Y025507D02*
X042160Y025573D01*
X042160Y025707D01*
X042026Y025707D02*
X042026Y025573D01*
X042093Y025507D01*
X041930Y025673D02*
X041796Y025540D01*
X041796Y025507D01*
X041714Y025507D02*
X041681Y025507D01*
X041681Y025540D01*
X041714Y025540D01*
X041714Y025507D01*
X041584Y025540D02*
X041551Y025507D01*
X041484Y025507D01*
X041451Y025540D01*
X041518Y025607D02*
X041551Y025607D01*
X041584Y025573D01*
X041584Y025540D01*
X041551Y025607D02*
X041584Y025640D01*
X041584Y025673D01*
X041551Y025707D01*
X041484Y025707D01*
X041451Y025673D01*
X041796Y025707D02*
X041930Y025707D01*
X041930Y025673D01*
X041677Y025357D02*
X041610Y025357D01*
X041577Y025323D01*
X041577Y025190D01*
X041610Y025157D01*
X041677Y025157D01*
X041710Y025190D01*
X041710Y025323D02*
X041677Y025357D01*
X042497Y025357D02*
X042497Y025157D01*
X042497Y025257D02*
X042564Y025257D01*
X042631Y025357D02*
X042497Y025357D01*
X042921Y025057D02*
X043055Y025057D01*
X042988Y025057D02*
X042988Y024857D01*
X040912Y025942D02*
X040842Y026012D01*
X040892Y026012D01*
X040842Y026012D02*
X040842Y025962D01*
X040772Y025942D02*
X040702Y026012D01*
X040752Y026012D01*
X040702Y026012D02*
X040702Y025962D01*
X040713Y026091D02*
X040533Y026091D01*
X040511Y026068D01*
X040467Y026157D02*
X040422Y026157D01*
X040377Y026202D01*
X040377Y026247D01*
X040556Y026247D01*
X040467Y026157D01*
X040556Y026247D02*
X040556Y026292D01*
X040512Y026336D01*
X040467Y026336D01*
X040377Y026247D01*
X040288Y026291D02*
X040198Y026381D01*
X040378Y026381D01*
X040400Y026403D01*
X040400Y026448D01*
X040355Y026493D01*
X040311Y026493D01*
X040244Y026559D02*
X040244Y026604D01*
X040199Y026649D01*
X040154Y026649D01*
X040065Y026559D01*
X040065Y026515D01*
X040109Y026470D01*
X040154Y026470D01*
X040645Y026203D02*
X040735Y026113D01*
X040713Y026091D01*
X041627Y032057D02*
X041627Y032247D01*
X041722Y032247D01*
X041753Y032215D01*
X041753Y032152D01*
X041722Y032120D01*
X041627Y032120D01*
X041848Y032057D02*
X041911Y032120D01*
X041974Y032057D01*
X041974Y032247D01*
X042069Y032247D02*
X042164Y032247D01*
X042195Y032215D01*
X042195Y032152D01*
X042164Y032120D01*
X042069Y032120D01*
X042132Y032120D02*
X042195Y032057D01*
X042290Y032025D02*
X042416Y032025D01*
X042511Y032057D02*
X042637Y032057D01*
X042732Y032057D02*
X042858Y032057D01*
X042953Y032057D02*
X043048Y032057D01*
X043079Y032088D01*
X043079Y032215D01*
X043048Y032247D01*
X042953Y032247D01*
X042953Y032057D01*
X042795Y032152D02*
X042732Y032152D01*
X042732Y032247D02*
X042732Y032057D01*
X042732Y032247D02*
X042858Y032247D01*
X042511Y032247D02*
X042511Y032057D01*
X042069Y032057D02*
X042069Y032247D01*
X041848Y032247D02*
X041848Y032057D01*
X041202Y032352D02*
X041202Y032402D01*
X041202Y032352D02*
X041132Y032422D01*
X041152Y032352D02*
X041202Y032352D01*
X041062Y032352D02*
X041062Y032402D01*
X041062Y032352D02*
X040992Y032422D01*
X041012Y032352D02*
X041062Y032352D01*
X031702Y030517D02*
X031668Y030517D01*
X031535Y030651D01*
X031501Y030651D01*
X031501Y030517D01*
X031501Y030420D02*
X031535Y030354D01*
X031602Y030287D01*
X031602Y030387D01*
X031635Y030420D01*
X031668Y030420D01*
X031702Y030387D01*
X031702Y030320D01*
X031668Y030287D01*
X031602Y030287D01*
X031702Y030190D02*
X031702Y030057D01*
X031702Y030124D02*
X031501Y030124D01*
X031568Y030057D01*
X031535Y029960D02*
X031501Y029927D01*
X031501Y029860D01*
X031535Y029827D01*
X031668Y029827D01*
X031702Y029860D01*
X031702Y029927D01*
X031668Y029960D01*
D13*
X031911Y029710D02*
X031911Y029553D01*
X032069Y029592D02*
X032147Y029592D01*
X032203Y029648D01*
X032259Y029671D02*
X032272Y029671D01*
X032328Y029648D02*
X032384Y029592D01*
X032439Y029648D01*
X032495Y029671D02*
X032508Y029671D01*
X032564Y029648D02*
X032620Y029592D01*
X032675Y029648D01*
X032731Y029671D02*
X032745Y029671D01*
X032800Y029648D02*
X032856Y029592D01*
X032935Y029592D01*
X033092Y029553D02*
X033092Y029710D01*
X032801Y029648D02*
X032789Y029658D01*
X032775Y029665D01*
X032760Y029669D01*
X032745Y029671D01*
X032731Y029671D02*
X032716Y029669D01*
X032701Y029665D01*
X032687Y029658D01*
X032675Y029648D01*
X032564Y029648D02*
X032552Y029658D01*
X032538Y029665D01*
X032523Y029669D01*
X032508Y029671D01*
X032495Y029671D02*
X032480Y029669D01*
X032465Y029665D01*
X032451Y029658D01*
X032439Y029648D01*
X032328Y029648D02*
X032316Y029658D01*
X032302Y029665D01*
X032287Y029669D01*
X032272Y029671D01*
X032259Y029671D02*
X032244Y029669D01*
X032229Y029665D01*
X032215Y029658D01*
X032203Y029648D01*
X032352Y031232D02*
X032402Y031232D01*
X032402Y031832D01*
X032402Y032432D01*
X032352Y032432D02*
X032452Y032432D01*
X032852Y032432D02*
X032902Y032432D01*
X032902Y031832D01*
X032402Y031832D01*
X031902Y031832D01*
X031902Y031232D01*
X031952Y031232D01*
X031902Y031232D02*
X031852Y031232D01*
X031452Y031232D02*
X031402Y031232D01*
X031402Y031832D01*
X031402Y032432D01*
X031452Y032432D01*
X031402Y032432D02*
X031352Y032432D01*
X030952Y032432D02*
X030902Y032432D01*
X030902Y031832D01*
X030902Y031232D01*
X030952Y031232D01*
X030902Y031232D02*
X030852Y031232D01*
X030452Y031232D02*
X030402Y031232D01*
X030402Y031832D01*
X030402Y032432D01*
X030452Y032432D01*
X030402Y032432D02*
X030352Y032432D01*
X029952Y032432D02*
X029902Y032432D01*
X029902Y031832D01*
X029902Y031232D01*
X029952Y031232D01*
X029902Y031232D02*
X029852Y031232D01*
X029452Y031232D02*
X029402Y031232D01*
X029402Y031832D01*
X029402Y032432D01*
X029452Y032432D01*
X029402Y032432D02*
X029352Y032432D01*
X028952Y032432D02*
X028902Y032432D01*
X028902Y031832D01*
X028902Y031232D01*
X028952Y031232D01*
X028902Y031232D02*
X028852Y031232D01*
X028452Y031232D02*
X028402Y031232D01*
X028402Y031832D01*
X028402Y032432D01*
X028452Y032432D01*
X028402Y032432D02*
X028352Y032432D01*
X027952Y032432D02*
X027902Y032432D01*
X027902Y031832D01*
X027902Y031232D01*
X027952Y031232D01*
X027902Y031232D02*
X027852Y031232D01*
X027452Y031232D02*
X027402Y031232D01*
X027402Y031832D01*
X027402Y032432D01*
X027452Y032432D01*
X027402Y032432D02*
X027352Y032432D01*
X026952Y032432D02*
X026902Y032432D01*
X026902Y031832D01*
X026902Y031232D01*
X026952Y031232D01*
X026902Y031232D02*
X026852Y031232D01*
X026452Y031232D02*
X026402Y031232D01*
X026402Y031832D01*
X026402Y032432D01*
X026452Y032432D01*
X026402Y032432D02*
X026352Y032432D01*
X025952Y032432D02*
X025902Y032432D01*
X025902Y031832D01*
X025902Y031232D01*
X025952Y031232D01*
X025902Y031232D02*
X025852Y031232D01*
X025452Y031232D02*
X025402Y031232D01*
X025402Y031832D01*
X025402Y032432D01*
X025452Y032432D01*
X025402Y032432D02*
X025352Y032432D01*
X024952Y032432D02*
X024902Y032432D01*
X024902Y031832D01*
X024902Y031232D01*
X024952Y031232D01*
X024902Y031232D02*
X024852Y031232D01*
X024452Y031232D02*
X024402Y031232D01*
X024402Y031832D01*
X024402Y032432D01*
X024452Y032432D01*
X024402Y032432D02*
X024352Y032432D01*
X023952Y032432D02*
X023902Y032432D01*
X023902Y031832D01*
X023902Y031232D01*
X023952Y031232D01*
X023902Y031232D02*
X023852Y031232D01*
X023452Y031232D02*
X023402Y031232D01*
X023402Y031832D01*
X023402Y032432D01*
X023452Y032432D01*
X023402Y032432D02*
X023352Y032432D01*
X022952Y032432D02*
X022902Y032432D01*
X022902Y031832D01*
X023402Y031832D01*
X023902Y031832D01*
X024402Y031832D01*
X024902Y031832D01*
X025402Y031832D01*
X025902Y031832D01*
X026402Y031832D01*
X026902Y031832D01*
X027402Y031832D01*
X027902Y031832D01*
X028402Y031832D01*
X028902Y031832D01*
X029402Y031832D01*
X029902Y031832D01*
X030402Y031832D01*
X030902Y031832D01*
X031402Y031832D01*
X031902Y031832D01*
X031902Y032432D01*
X031952Y032432D01*
X031902Y032432D02*
X031852Y032432D01*
X030902Y032432D02*
X030852Y032432D01*
X029902Y032432D02*
X029852Y032432D01*
X028902Y032432D02*
X028852Y032432D01*
X027902Y032432D02*
X027852Y032432D01*
X026902Y032432D02*
X026852Y032432D01*
X025902Y032432D02*
X025852Y032432D01*
X024902Y032432D02*
X024852Y032432D01*
X023902Y032432D02*
X023852Y032432D01*
X022902Y031832D02*
X022902Y031232D01*
X022952Y031232D01*
X023352Y031232D02*
X023402Y031232D01*
X024352Y031232D02*
X024402Y031232D01*
X025352Y031232D02*
X025402Y031232D01*
X026352Y031232D02*
X026402Y031232D01*
X027352Y031232D02*
X027402Y031232D01*
X028352Y031232D02*
X028402Y031232D01*
X029352Y031232D02*
X029402Y031232D01*
X030352Y031232D02*
X030402Y031232D01*
X031352Y031232D02*
X031402Y031232D01*
X032402Y031232D02*
X032452Y031232D01*
X032852Y031232D02*
X032902Y031232D01*
X032902Y031832D01*
X030152Y029932D02*
X030152Y029332D01*
X029652Y029332D01*
X029652Y029932D01*
X029602Y029932D02*
X029702Y029932D01*
X030102Y029932D02*
X030152Y029932D01*
X030152Y029332D02*
X030152Y028732D01*
X030102Y028732D01*
X029702Y028732D02*
X029652Y028732D01*
X029652Y029332D01*
X029152Y029332D01*
X029152Y028732D01*
X029202Y028732D01*
X029152Y028732D02*
X029102Y028732D01*
X028702Y028732D02*
X028652Y028732D01*
X028652Y029332D01*
X028652Y029932D01*
X028702Y029932D01*
X028652Y029932D02*
X028602Y029932D01*
X028202Y029932D02*
X028152Y029932D01*
X028152Y029332D01*
X028152Y028732D01*
X028202Y028732D01*
X028152Y028732D02*
X028102Y028732D01*
X027702Y028732D02*
X027652Y028732D01*
X027652Y029332D01*
X027652Y029932D01*
X027702Y029932D01*
X027652Y029932D02*
X027602Y029932D01*
X027202Y029932D02*
X027152Y029932D01*
X027152Y029332D01*
X027152Y028732D01*
X027202Y028732D01*
X027152Y028732D02*
X027102Y028732D01*
X026702Y028732D02*
X026652Y028732D01*
X026652Y029332D01*
X026652Y029932D01*
X026702Y029932D01*
X026652Y029932D02*
X026602Y029932D01*
X026202Y029932D02*
X026152Y029932D01*
X026152Y029332D01*
X026152Y028732D01*
X026202Y028732D01*
X026152Y028732D02*
X026102Y028732D01*
X025702Y028732D02*
X025652Y028732D01*
X025652Y029332D01*
X025652Y029932D01*
X025702Y029932D01*
X025652Y029932D02*
X025602Y029932D01*
X025202Y029932D02*
X025152Y029932D01*
X025152Y029332D01*
X025152Y028732D01*
X025202Y028732D01*
X025152Y028732D02*
X025102Y028732D01*
X024702Y028732D02*
X024652Y028732D01*
X024652Y029332D01*
X025152Y029332D01*
X025652Y029332D01*
X026152Y029332D01*
X026652Y029332D01*
X027152Y029332D01*
X027652Y029332D01*
X028152Y029332D01*
X028652Y029332D01*
X029152Y029332D01*
X029152Y029932D01*
X029202Y029932D01*
X029152Y029932D02*
X029102Y029932D01*
X028152Y029932D02*
X028102Y029932D01*
X027152Y029932D02*
X027102Y029932D01*
X026152Y029932D02*
X026102Y029932D01*
X025152Y029932D02*
X025102Y029932D01*
X024702Y029932D02*
X024652Y029932D01*
X024652Y029332D01*
X024152Y029332D01*
X024152Y029932D01*
X024202Y029932D01*
X024152Y029932D02*
X024102Y029932D01*
X023702Y029932D02*
X023652Y029932D01*
X023652Y029332D01*
X023652Y028732D01*
X023702Y028732D01*
X023652Y028732D02*
X023602Y028732D01*
X023202Y028732D02*
X023152Y028732D01*
X023152Y029332D01*
X023152Y029932D01*
X023202Y029932D01*
X023152Y029932D02*
X023102Y029932D01*
X022702Y029932D02*
X022652Y029932D01*
X022652Y029332D01*
X022652Y028732D01*
X022702Y028732D01*
X022652Y028732D02*
X022602Y028732D01*
X022202Y028732D02*
X022152Y028732D01*
X022152Y029332D01*
X022152Y029932D01*
X022202Y029932D01*
X022152Y029932D02*
X022102Y029932D01*
X021702Y029932D02*
X021652Y029932D01*
X021652Y029332D01*
X021652Y028732D01*
X021702Y028732D01*
X021652Y028732D02*
X021602Y028732D01*
X021202Y028732D02*
X021152Y028732D01*
X021152Y029332D01*
X021152Y029932D01*
X021202Y029932D01*
X021152Y029932D02*
X021102Y029932D01*
X020702Y029932D02*
X020652Y029932D01*
X020652Y029332D01*
X020652Y028732D01*
X020702Y028732D01*
X020652Y028732D02*
X020602Y028732D01*
X020202Y028732D02*
X020152Y028732D01*
X020152Y029332D01*
X020652Y029332D01*
X021152Y029332D01*
X021652Y029332D01*
X022152Y029332D01*
X022652Y029332D01*
X023152Y029332D01*
X023652Y029332D01*
X024152Y029332D01*
X024152Y028732D01*
X024202Y028732D01*
X024152Y028732D02*
X024102Y028732D01*
X024602Y028732D02*
X024652Y028732D01*
X025602Y028732D02*
X025652Y028732D01*
X026602Y028732D02*
X026652Y028732D01*
X027602Y028732D02*
X027652Y028732D01*
X028602Y028732D02*
X028652Y028732D01*
X029602Y028732D02*
X029652Y028732D01*
X031711Y027460D02*
X031711Y027303D01*
X031869Y027342D02*
X031947Y027342D01*
X032003Y027398D01*
X032059Y027421D02*
X032072Y027421D01*
X032128Y027398D02*
X032184Y027342D01*
X032239Y027398D01*
X032295Y027421D02*
X032308Y027421D01*
X032364Y027398D02*
X032420Y027342D01*
X032475Y027398D01*
X032531Y027421D02*
X032545Y027421D01*
X032600Y027398D02*
X032656Y027342D01*
X032735Y027342D01*
X032892Y027303D02*
X032892Y027460D01*
X032601Y027398D02*
X032589Y027408D01*
X032575Y027415D01*
X032560Y027419D01*
X032545Y027421D01*
X032531Y027421D02*
X032516Y027419D01*
X032501Y027415D01*
X032487Y027408D01*
X032475Y027398D01*
X032364Y027398D02*
X032352Y027408D01*
X032338Y027415D01*
X032323Y027419D01*
X032308Y027421D01*
X032295Y027421D02*
X032280Y027419D01*
X032265Y027415D01*
X032251Y027408D01*
X032239Y027398D01*
X032128Y027398D02*
X032116Y027408D01*
X032102Y027415D01*
X032087Y027419D01*
X032072Y027421D01*
X032059Y027421D02*
X032044Y027419D01*
X032029Y027415D01*
X032015Y027408D01*
X032003Y027398D01*
X031097Y025288D02*
X035959Y025288D01*
X035959Y021843D01*
X035703Y021587D02*
X031136Y021587D01*
X030841Y021980D01*
X030841Y025032D01*
X031097Y020996D02*
X035959Y020996D01*
X035959Y017551D01*
X036252Y017442D02*
X036252Y011222D01*
X044752Y011222D01*
X044752Y011232D01*
X044085Y010898D01*
X044702Y011232D02*
X044702Y011832D01*
X041952Y012332D01*
X041952Y012832D01*
X044702Y013332D01*
X044702Y017432D01*
X044752Y017432D02*
X044085Y017765D01*
X044752Y017442D02*
X036252Y017442D01*
X035703Y017295D02*
X031136Y017295D01*
X030841Y017689D01*
X030841Y020740D01*
X036956Y020962D02*
X036956Y018718D01*
X044515Y018718D01*
X044752Y018482D01*
X044752Y021198D01*
X044515Y020962D01*
X044515Y018718D01*
X044082Y019427D02*
X042508Y019663D01*
X042508Y020017D01*
X044082Y020253D01*
X044515Y020962D02*
X036956Y020962D01*
X037290Y020354D02*
X037557Y020354D01*
X039470Y019300D02*
X039737Y019300D01*
X039603Y019433D02*
X039603Y019166D01*
X042202Y018082D02*
X042743Y018082D01*
X041952Y016332D02*
X041952Y015832D01*
X044702Y015332D01*
X044702Y016832D02*
X041952Y016332D01*
X042743Y018082D02*
X042850Y018080D01*
X042957Y018074D01*
X043063Y018065D01*
X043170Y018052D01*
X043275Y018034D01*
X043380Y018014D01*
X043484Y017989D01*
X043587Y017961D01*
X043690Y017929D01*
X043790Y017893D01*
X043890Y017854D01*
X043988Y017811D01*
X044085Y017765D01*
X044752Y017442D02*
X044752Y017432D01*
X044752Y011232D01*
X044702Y011832D02*
X044702Y013332D01*
X044085Y010899D02*
X043988Y010853D01*
X043890Y010810D01*
X043790Y010771D01*
X043690Y010735D01*
X043587Y010703D01*
X043484Y010675D01*
X043380Y010650D01*
X043275Y010630D01*
X043170Y010612D01*
X043063Y010599D01*
X042957Y010590D01*
X042850Y010584D01*
X042743Y010582D01*
X042202Y010582D01*
X041652Y010532D02*
X041652Y009832D01*
X041502Y009682D01*
X040802Y009682D01*
X040652Y009832D01*
X040502Y009682D01*
X039802Y009682D01*
X039652Y009682D01*
X039652Y009832D01*
X039802Y009682D01*
X039652Y009832D02*
X039652Y010532D01*
X039652Y010682D01*
X039802Y010682D01*
X040502Y010682D01*
X040652Y010532D01*
X040802Y010682D01*
X041502Y010682D01*
X041652Y010532D01*
X039802Y010682D02*
X039652Y010532D01*
X039152Y010532D02*
X039152Y009832D01*
X039002Y009682D01*
X038302Y009682D01*
X038152Y009832D01*
X038002Y009682D01*
X037302Y009682D01*
X037152Y009832D01*
X037152Y010532D01*
X037302Y010682D01*
X038002Y010682D01*
X038152Y010532D01*
X038302Y010682D01*
X039002Y010682D01*
X039152Y010532D01*
X037152Y010532D02*
X037002Y010682D01*
X036302Y010682D01*
X036152Y010682D01*
X036152Y010532D01*
X036302Y010682D01*
X036152Y010532D02*
X036152Y009832D01*
X036152Y009682D01*
X036302Y009682D01*
X037002Y009682D01*
X037152Y009832D01*
X036302Y009682D02*
X036152Y009832D01*
X032902Y010232D02*
X032852Y010232D01*
X032902Y010232D02*
X032902Y010832D01*
X032402Y010832D01*
X032402Y011432D01*
X032352Y011432D02*
X032452Y011432D01*
X032852Y011432D02*
X032902Y011432D01*
X032902Y010832D01*
X032402Y010832D02*
X032402Y010232D01*
X032452Y010232D01*
X032402Y010232D02*
X032352Y010232D01*
X031952Y010232D02*
X031902Y010232D01*
X031902Y010832D01*
X031902Y011432D01*
X031952Y011432D01*
X031902Y011432D02*
X031852Y011432D01*
X031452Y011432D02*
X031402Y011432D01*
X031402Y010832D01*
X031402Y010232D01*
X031452Y010232D01*
X031402Y010232D02*
X031352Y010232D01*
X030952Y010232D02*
X030902Y010232D01*
X030902Y010832D01*
X030902Y011432D01*
X030952Y011432D01*
X030902Y011432D02*
X030852Y011432D01*
X030452Y011432D02*
X030402Y011432D01*
X030402Y010832D01*
X030402Y010232D01*
X030452Y010232D01*
X030402Y010232D02*
X030352Y010232D01*
X029952Y010232D02*
X029902Y010232D01*
X029902Y010832D01*
X029902Y011432D01*
X029952Y011432D01*
X029902Y011432D02*
X029852Y011432D01*
X029452Y011432D02*
X029402Y011432D01*
X029402Y010832D01*
X029402Y010232D01*
X029452Y010232D01*
X029402Y010232D02*
X029352Y010232D01*
X028952Y010232D02*
X028902Y010232D01*
X028902Y010832D01*
X028902Y011432D01*
X028952Y011432D01*
X028902Y011432D02*
X028852Y011432D01*
X028452Y011432D02*
X028402Y011432D01*
X028402Y010832D01*
X028402Y010232D01*
X028452Y010232D01*
X028402Y010232D02*
X028352Y010232D01*
X027952Y010232D02*
X027902Y010232D01*
X027902Y010832D01*
X027902Y011432D01*
X027952Y011432D01*
X027902Y011432D02*
X027852Y011432D01*
X027452Y011432D02*
X027402Y011432D01*
X027402Y010832D01*
X027402Y010232D01*
X027452Y010232D01*
X027402Y010232D02*
X027352Y010232D01*
X026952Y010232D02*
X026902Y010232D01*
X026902Y010832D01*
X026902Y011432D01*
X026952Y011432D01*
X026902Y011432D02*
X026852Y011432D01*
X026452Y011432D02*
X026402Y011432D01*
X026402Y010832D01*
X026402Y010232D01*
X026452Y010232D01*
X026402Y010232D02*
X026352Y010232D01*
X025952Y010232D02*
X025902Y010232D01*
X025902Y010832D01*
X025902Y011432D01*
X025952Y011432D01*
X025902Y011432D02*
X025852Y011432D01*
X025452Y011432D02*
X025402Y011432D01*
X025402Y010832D01*
X025402Y010232D01*
X025452Y010232D01*
X025402Y010232D02*
X025352Y010232D01*
X024952Y010232D02*
X024902Y010232D01*
X024902Y010832D01*
X024902Y011432D01*
X024952Y011432D01*
X024902Y011432D02*
X024852Y011432D01*
X024452Y011432D02*
X024402Y011432D01*
X024402Y010832D01*
X024402Y010232D01*
X024452Y010232D01*
X024402Y010232D02*
X024352Y010232D01*
X023952Y010232D02*
X023902Y010232D01*
X023902Y010832D01*
X023902Y011432D01*
X023952Y011432D01*
X023902Y011432D02*
X023852Y011432D01*
X023452Y011432D02*
X023402Y011432D01*
X023402Y010832D01*
X023402Y010232D01*
X023452Y010232D01*
X023402Y010232D02*
X023352Y010232D01*
X022952Y010232D02*
X022902Y010232D01*
X022902Y010832D01*
X023402Y010832D01*
X023902Y010832D01*
X024402Y010832D01*
X024902Y010832D01*
X025402Y010832D01*
X025902Y010832D01*
X026402Y010832D01*
X026902Y010832D01*
X027402Y010832D01*
X027902Y010832D01*
X028402Y010832D01*
X028902Y010832D01*
X029402Y010832D01*
X029902Y010832D01*
X030402Y010832D01*
X030902Y010832D01*
X031402Y010832D01*
X031902Y010832D01*
X032402Y010832D01*
X031902Y010232D02*
X031852Y010232D01*
X030902Y010232D02*
X030852Y010232D01*
X029902Y010232D02*
X029852Y010232D01*
X028902Y010232D02*
X028852Y010232D01*
X027902Y010232D02*
X027852Y010232D01*
X026902Y010232D02*
X026852Y010232D01*
X025902Y010232D02*
X025852Y010232D01*
X024902Y010232D02*
X024852Y010232D01*
X023902Y010232D02*
X023852Y010232D01*
X022902Y010832D02*
X022902Y011432D01*
X022952Y011432D01*
X023352Y011432D02*
X023402Y011432D01*
X024352Y011432D02*
X024402Y011432D01*
X025352Y011432D02*
X025402Y011432D01*
X026352Y011432D02*
X026402Y011432D01*
X027352Y011432D02*
X027402Y011432D01*
X028352Y011432D02*
X028402Y011432D01*
X029352Y011432D02*
X029402Y011432D01*
X030352Y011432D02*
X030402Y011432D01*
X031352Y011432D02*
X031402Y011432D01*
X030152Y012732D02*
X030102Y012732D01*
X030152Y012732D02*
X030152Y013332D01*
X029652Y013332D01*
X029652Y013932D01*
X029602Y013932D02*
X029702Y013932D01*
X030102Y013932D02*
X030152Y013932D01*
X030152Y013332D01*
X029652Y013332D02*
X029652Y012732D01*
X029702Y012732D01*
X029652Y012732D02*
X029602Y012732D01*
X029202Y012732D02*
X029152Y012732D01*
X029152Y013332D01*
X029152Y013932D01*
X029202Y013932D01*
X029152Y013932D02*
X029102Y013932D01*
X028702Y013932D02*
X028652Y013932D01*
X028652Y013332D01*
X028652Y012732D01*
X028702Y012732D01*
X028652Y012732D02*
X028602Y012732D01*
X028202Y012732D02*
X028152Y012732D01*
X028152Y013332D01*
X028152Y013932D01*
X028202Y013932D01*
X028152Y013932D02*
X028102Y013932D01*
X027702Y013932D02*
X027652Y013932D01*
X027652Y013332D01*
X027652Y012732D01*
X027702Y012732D01*
X027652Y012732D02*
X027602Y012732D01*
X027202Y012732D02*
X027152Y012732D01*
X027152Y013332D01*
X027152Y013932D01*
X027202Y013932D01*
X027152Y013932D02*
X027102Y013932D01*
X026702Y013932D02*
X026652Y013932D01*
X026652Y013332D01*
X026652Y012732D01*
X026702Y012732D01*
X026652Y012732D02*
X026602Y012732D01*
X026202Y012732D02*
X026152Y012732D01*
X026152Y013332D01*
X026152Y013932D01*
X026202Y013932D01*
X026152Y013932D02*
X026102Y013932D01*
X025702Y013932D02*
X025652Y013932D01*
X025652Y013332D01*
X025652Y012732D01*
X025702Y012732D01*
X025652Y012732D02*
X025602Y012732D01*
X025202Y012732D02*
X025152Y012732D01*
X025152Y013332D01*
X025152Y013932D01*
X025202Y013932D01*
X025152Y013932D02*
X025102Y013932D01*
X024702Y013932D02*
X024652Y013932D01*
X024652Y013332D01*
X025152Y013332D01*
X025652Y013332D01*
X026152Y013332D01*
X026652Y013332D01*
X027152Y013332D01*
X027652Y013332D01*
X028152Y013332D01*
X028652Y013332D01*
X029152Y013332D01*
X029652Y013332D01*
X029152Y012732D02*
X029102Y012732D01*
X028152Y012732D02*
X028102Y012732D01*
X027152Y012732D02*
X027102Y012732D01*
X026152Y012732D02*
X026102Y012732D01*
X025152Y012732D02*
X025102Y012732D01*
X024702Y012732D02*
X024652Y012732D01*
X024652Y013332D01*
X024152Y013332D01*
X024152Y013932D01*
X024202Y013932D01*
X024152Y013932D02*
X024102Y013932D01*
X023702Y013932D02*
X023652Y013932D01*
X023652Y013332D01*
X023652Y012732D01*
X023702Y012732D01*
X023652Y012732D02*
X023602Y012732D01*
X023202Y012732D02*
X023152Y012732D01*
X023152Y013332D01*
X023152Y013932D01*
X023202Y013932D01*
X023152Y013932D02*
X023102Y013932D01*
X022702Y013932D02*
X022652Y013932D01*
X022652Y013332D01*
X022652Y012732D01*
X022702Y012732D01*
X022652Y012732D02*
X022602Y012732D01*
X022202Y012732D02*
X022152Y012732D01*
X022152Y013332D01*
X022152Y013932D01*
X022202Y013932D01*
X022152Y013932D02*
X022102Y013932D01*
X021702Y013932D02*
X021652Y013932D01*
X021652Y013332D01*
X021652Y012732D01*
X021702Y012732D01*
X021652Y012732D02*
X021602Y012732D01*
X021202Y012732D02*
X021152Y012732D01*
X021152Y013332D01*
X021152Y013932D01*
X021202Y013932D01*
X021152Y013932D02*
X021102Y013932D01*
X020702Y013932D02*
X020652Y013932D01*
X020652Y013332D01*
X020652Y012732D01*
X020702Y012732D01*
X020652Y012732D02*
X020602Y012732D01*
X020202Y012732D02*
X020152Y012732D01*
X020152Y013332D01*
X020652Y013332D01*
X021152Y013332D01*
X021652Y013332D01*
X022152Y013332D01*
X022652Y013332D01*
X023152Y013332D01*
X023652Y013332D01*
X024152Y013332D01*
X024152Y012732D01*
X024202Y012732D01*
X024152Y012732D02*
X024102Y012732D01*
X024602Y012732D02*
X024652Y012732D01*
X024652Y013932D02*
X024602Y013932D01*
X023652Y013932D02*
X023602Y013932D01*
X022652Y013932D02*
X022602Y013932D01*
X021652Y013932D02*
X021602Y013932D01*
X020652Y013932D02*
X020602Y013932D01*
X020202Y013932D02*
X020152Y013932D01*
X020152Y013332D01*
X021102Y012732D02*
X021152Y012732D01*
X022102Y012732D02*
X022152Y012732D01*
X023102Y012732D02*
X023152Y012732D01*
X021702Y010982D02*
X021202Y010982D01*
X021202Y010632D01*
X021202Y010232D02*
X021202Y009882D01*
X021702Y009882D01*
X021702Y010232D01*
X021702Y009882D02*
X021652Y009832D01*
X021252Y009832D01*
X021202Y009882D01*
X021702Y010632D02*
X021702Y010982D01*
X025602Y013932D02*
X025652Y013932D01*
X026602Y013932D02*
X026652Y013932D01*
X027602Y013932D02*
X027652Y013932D01*
X028602Y013932D02*
X028652Y013932D01*
X030412Y013932D02*
X030412Y015332D01*
X032992Y015332D01*
X032992Y013932D01*
X030412Y013932D01*
X034152Y013682D02*
X034152Y012782D01*
X034208Y013232D02*
X034799Y012838D01*
X034799Y013625D01*
X034208Y013232D01*
X036956Y022518D02*
X036956Y024762D01*
X044515Y024762D01*
X044752Y024998D01*
X044752Y022282D01*
X044515Y022518D01*
X044515Y024762D01*
X044732Y025501D02*
X042252Y025501D01*
X042252Y025914D01*
X042687Y026275D02*
X043087Y026275D01*
X043087Y026408D02*
X043087Y026141D01*
X042821Y026141D02*
X042687Y026275D01*
X042252Y026662D02*
X042252Y026701D01*
X042687Y026995D02*
X042687Y027129D01*
X042754Y027195D01*
X042821Y027195D01*
X043087Y026929D01*
X043087Y027195D01*
X042754Y026929D02*
X042687Y026995D01*
X042252Y027449D02*
X042252Y027863D01*
X044732Y027863D01*
X044732Y025501D01*
X044082Y024053D02*
X042508Y023817D01*
X042508Y023463D01*
X044082Y023227D01*
X044515Y022518D02*
X036956Y022518D01*
X037290Y024154D02*
X037557Y024154D01*
X039470Y023100D02*
X039737Y023100D01*
X039603Y023233D02*
X039603Y022966D01*
X040252Y025482D02*
X040252Y025982D01*
X040202Y025932D01*
X040202Y025532D01*
X040252Y025482D01*
X040602Y025482D01*
X041002Y025482D02*
X041352Y025482D01*
X041352Y025982D01*
X041002Y025982D01*
X040602Y025982D02*
X040252Y025982D01*
X039667Y026750D02*
X041636Y026750D01*
X040902Y027132D02*
X040902Y027632D01*
X040502Y027382D01*
X040902Y027132D01*
X040502Y027132D02*
X040502Y027632D01*
X039667Y028013D02*
X041636Y028013D01*
X039402Y028200D02*
X039402Y029082D01*
X038862Y029522D02*
X038602Y029522D01*
X038862Y029522D02*
X038862Y029832D01*
X038382Y030042D02*
X038222Y030042D01*
X037742Y029832D02*
X037742Y029522D01*
X038002Y029522D01*
X036852Y030882D02*
X036852Y031032D01*
X036702Y031032D01*
X036852Y031032D02*
X036852Y031182D01*
X036852Y031032D02*
X037002Y031032D01*
X036419Y030632D02*
X036152Y030632D01*
X036285Y030765D02*
X036285Y030498D01*
X036132Y031682D02*
X036137Y031793D01*
X036152Y031903D01*
X036177Y032011D01*
X036212Y032117D01*
X036256Y032218D01*
X036310Y032316D01*
X036372Y032408D01*
X036442Y032494D01*
X036519Y032574D01*
X036604Y032646D01*
X036695Y032710D01*
X036791Y032765D01*
X036892Y032812D01*
X036996Y032849D01*
X037104Y032876D01*
X037213Y032894D01*
X037324Y032902D01*
X037435Y032899D01*
X037546Y032887D01*
X037654Y032864D01*
X037761Y032832D01*
X037863Y032790D01*
X037962Y032739D01*
X038056Y032679D01*
X038143Y032611D01*
X038224Y032535D01*
X038298Y032452D01*
X038364Y032363D01*
X038422Y032268D01*
X038471Y032168D01*
X038511Y032064D01*
X038541Y031957D01*
X038561Y031848D01*
X038571Y031738D01*
X038571Y031626D01*
X038561Y031516D01*
X038541Y031407D01*
X038511Y031300D01*
X038471Y031196D01*
X038422Y031096D01*
X038364Y031001D01*
X038298Y030912D01*
X038224Y030829D01*
X038143Y030753D01*
X038056Y030685D01*
X037962Y030625D01*
X037863Y030574D01*
X037761Y030532D01*
X037654Y030500D01*
X037546Y030477D01*
X037435Y030465D01*
X037324Y030462D01*
X037213Y030470D01*
X037104Y030488D01*
X036996Y030515D01*
X036892Y030552D01*
X036791Y030599D01*
X036695Y030654D01*
X036604Y030718D01*
X036519Y030790D01*
X036442Y030870D01*
X036372Y030956D01*
X036310Y031048D01*
X036256Y031146D01*
X036212Y031247D01*
X036177Y031353D01*
X036152Y031461D01*
X036137Y031571D01*
X036132Y031682D01*
X039402Y031764D02*
X039402Y030882D01*
X039402Y031764D02*
X039852Y031764D01*
X040552Y032382D02*
X040902Y032382D01*
X040552Y032382D02*
X040552Y032882D01*
X040902Y032882D01*
X041302Y032882D02*
X041652Y032882D01*
X041652Y032382D01*
X041702Y032432D01*
X041702Y032832D01*
X041652Y032882D01*
X041652Y032382D02*
X041302Y032382D01*
X041552Y031764D02*
X044717Y031764D01*
X044717Y028200D01*
X039402Y028200D01*
X039242Y027860D02*
X039242Y027703D01*
X039085Y027742D02*
X039006Y027742D01*
X038950Y027798D01*
X038895Y027821D02*
X038881Y027821D01*
X038825Y027798D02*
X038770Y027742D01*
X038714Y027798D01*
X038658Y027821D02*
X038645Y027821D01*
X038589Y027798D02*
X038534Y027742D01*
X038478Y027798D01*
X038422Y027821D02*
X038409Y027821D01*
X038353Y027798D02*
X038297Y027742D01*
X038219Y027742D01*
X038061Y027703D02*
X038061Y027860D01*
X038353Y027798D02*
X038365Y027808D01*
X038379Y027815D01*
X038394Y027819D01*
X038409Y027821D01*
X038422Y027821D02*
X038437Y027819D01*
X038452Y027815D01*
X038466Y027808D01*
X038478Y027798D01*
X038589Y027798D02*
X038601Y027808D01*
X038615Y027815D01*
X038630Y027819D01*
X038645Y027821D01*
X038658Y027821D02*
X038673Y027819D01*
X038688Y027815D01*
X038702Y027808D01*
X038714Y027798D01*
X038825Y027798D02*
X038837Y027808D01*
X038851Y027815D01*
X038866Y027819D01*
X038881Y027821D01*
X038895Y027821D02*
X038910Y027819D01*
X038925Y027815D01*
X038939Y027808D01*
X038951Y027798D01*
X024652Y029932D02*
X024602Y029932D01*
X023652Y029932D02*
X023602Y029932D01*
X022652Y029932D02*
X022602Y029932D01*
X021652Y029932D02*
X021602Y029932D01*
X020652Y029932D02*
X020602Y029932D01*
X020202Y029932D02*
X020152Y029932D01*
X020152Y029332D01*
X021102Y028732D02*
X021152Y028732D01*
X022102Y028732D02*
X022152Y028732D01*
X023102Y028732D02*
X023152Y028732D01*
X020673Y025031D02*
X020675Y025059D01*
X020681Y025087D01*
X020691Y025113D01*
X020704Y025138D01*
X020721Y025160D01*
X020741Y025180D01*
X020763Y025197D01*
X020788Y025210D01*
X020814Y025220D01*
X020842Y025226D01*
X020870Y025228D01*
X020898Y025226D01*
X020926Y025220D01*
X020952Y025210D01*
X020977Y025197D01*
X020999Y025180D01*
X021019Y025160D01*
X021036Y025138D01*
X021049Y025113D01*
X021059Y025087D01*
X021065Y025059D01*
X021067Y025031D01*
X021065Y025003D01*
X021059Y024975D01*
X021049Y024949D01*
X021036Y024924D01*
X021019Y024902D01*
X020999Y024882D01*
X020977Y024865D01*
X020952Y024852D01*
X020926Y024842D01*
X020898Y024836D01*
X020870Y024834D01*
X020842Y024836D01*
X020814Y024842D01*
X020788Y024852D01*
X020763Y024865D01*
X020741Y024882D01*
X020721Y024902D01*
X020704Y024924D01*
X020691Y024949D01*
X020681Y024975D01*
X020675Y025003D01*
X020673Y025031D01*
X020460Y024757D02*
X020541Y024676D01*
X020541Y017908D01*
X015663Y017908D01*
X015663Y024757D01*
X020460Y024757D01*
X020191Y024126D02*
X016057Y024126D01*
X016093Y024082D02*
X015826Y024082D01*
X016093Y024349D01*
X016093Y024416D01*
X016026Y024483D01*
X015893Y024483D01*
X015826Y024416D01*
X016286Y024283D02*
X016553Y024283D01*
X016486Y024483D02*
X016286Y024283D01*
X016486Y024483D02*
X016486Y024082D01*
X015860Y023929D02*
X015860Y019205D01*
X016057Y019008D02*
X019994Y019008D01*
X020388Y019402D01*
X020388Y023929D01*
X020018Y023945D02*
X019751Y023945D01*
X019884Y023945D02*
X019884Y024345D01*
X019751Y024212D01*
X019618Y024166D02*
X019620Y024205D01*
X019626Y024244D01*
X019636Y024281D01*
X019650Y024318D01*
X019668Y024352D01*
X019689Y024385D01*
X019714Y024416D01*
X019741Y024443D01*
X019772Y024468D01*
X019804Y024489D01*
X019839Y024507D01*
X019876Y024521D01*
X019913Y024531D01*
X019952Y024537D01*
X019991Y024539D01*
X020030Y024537D01*
X020069Y024531D01*
X020106Y024521D01*
X020143Y024507D01*
X020177Y024489D01*
X020210Y024468D01*
X020241Y024443D01*
X020268Y024416D01*
X020293Y024385D01*
X020314Y024353D01*
X020332Y024318D01*
X020346Y024281D01*
X020356Y024244D01*
X020362Y024205D01*
X020364Y024166D01*
X020362Y024127D01*
X020356Y024088D01*
X020346Y024051D01*
X020332Y024014D01*
X020314Y023980D01*
X020293Y023947D01*
X020268Y023916D01*
X020241Y023889D01*
X020210Y023864D01*
X020178Y023843D01*
X020143Y023825D01*
X020106Y023811D01*
X020069Y023801D01*
X020030Y023795D01*
X019991Y023793D01*
X019952Y023795D01*
X019913Y023801D01*
X019876Y023811D01*
X019839Y023825D01*
X019805Y023843D01*
X019772Y023864D01*
X019741Y023889D01*
X019714Y023916D01*
X019689Y023947D01*
X019668Y023979D01*
X019650Y024014D01*
X019636Y024051D01*
X019626Y024088D01*
X019620Y024127D01*
X019618Y024166D01*
X016602Y027982D02*
X016002Y027982D01*
X016002Y028482D01*
X015402Y028482D01*
X015402Y028532D01*
X015402Y028482D02*
X015402Y028432D01*
X015402Y028032D02*
X015402Y027982D01*
X016002Y027982D01*
X016602Y027982D02*
X016602Y028032D01*
X016602Y028432D02*
X016602Y028482D01*
X016002Y028482D01*
X016002Y028982D01*
X015402Y028982D01*
X015402Y029032D01*
X015402Y028982D02*
X015402Y028932D01*
X015402Y029432D02*
X015402Y029482D01*
X016002Y029482D01*
X016602Y029482D01*
X016602Y029532D01*
X016602Y029482D02*
X016602Y029432D01*
X016602Y029032D02*
X016602Y028982D01*
X016002Y028982D01*
X016002Y029482D01*
X016002Y029982D01*
X015402Y029982D01*
X015402Y030032D01*
X015402Y029982D02*
X015402Y029932D01*
X015402Y029532D02*
X015402Y029482D01*
X016002Y029982D02*
X016002Y030482D01*
X015402Y030482D01*
X015402Y030532D01*
X015402Y030482D02*
X015402Y030432D01*
X015402Y030932D02*
X015402Y030982D01*
X016002Y030982D01*
X016602Y030982D01*
X016602Y031032D01*
X016602Y030982D02*
X016602Y030932D01*
X016602Y030532D02*
X016602Y030482D01*
X016002Y030482D01*
X016002Y030982D01*
X016002Y031482D01*
X015402Y031482D01*
X015402Y031532D01*
X015402Y031482D02*
X015402Y031432D01*
X015402Y031032D02*
X015402Y030982D01*
X016002Y031482D02*
X016602Y031482D01*
X016602Y031532D01*
X016602Y031482D02*
X016602Y031432D01*
X016002Y031482D02*
X016002Y031982D01*
X015402Y031982D01*
X015402Y032032D01*
X015402Y031982D02*
X015402Y031932D01*
X015402Y032432D02*
X015402Y032532D01*
X015402Y032482D02*
X016002Y032482D01*
X016602Y032482D01*
X016602Y032532D01*
X016602Y032482D02*
X016602Y032432D01*
X016602Y032032D02*
X016602Y031982D01*
X016002Y031982D01*
X016002Y032482D01*
X016002Y032982D01*
X016602Y032982D01*
X016602Y032932D01*
X016002Y032982D02*
X015402Y032982D01*
X015402Y032932D01*
X016602Y031982D02*
X016602Y031932D01*
X016602Y030482D02*
X016602Y030432D01*
X016602Y030032D02*
X016602Y029982D01*
X016002Y029982D01*
X016602Y029982D02*
X016602Y029932D01*
X016602Y028982D02*
X016602Y028932D01*
X016602Y028532D02*
X016602Y028482D01*
X017442Y028651D02*
X017442Y028013D01*
X017479Y028013D01*
X017796Y028013D02*
X018207Y028013D01*
X018524Y028013D02*
X018562Y028013D01*
X018562Y028651D01*
X018524Y028651D01*
X018207Y028651D02*
X018170Y028651D01*
X017833Y028651D02*
X017796Y028651D01*
X017479Y028651D02*
X017442Y028651D01*
X014002Y028307D02*
X014002Y029449D01*
X013411Y029921D01*
X009435Y029921D01*
X009435Y029134D01*
X011403Y029134D01*
X011403Y028543D01*
X009435Y028543D01*
X009435Y024528D01*
X011403Y024528D01*
X011403Y023858D01*
X009435Y023858D01*
X009435Y023032D01*
X014002Y023032D01*
X014002Y024291D01*
X012427Y024291D01*
X012427Y028307D01*
X014002Y028307D01*
X011902Y030051D02*
X009421Y030051D01*
X009421Y032413D01*
X011902Y032413D01*
X011902Y031999D01*
X011466Y031679D02*
X011466Y031412D01*
X011466Y031545D02*
X011066Y031545D01*
X011199Y031412D01*
X011199Y030891D02*
X011132Y030891D01*
X011066Y030825D01*
X011066Y030691D01*
X011132Y030624D01*
X011199Y030891D02*
X011466Y030624D01*
X011466Y030891D01*
X011902Y031212D02*
X011902Y031251D01*
X011902Y030464D02*
X011902Y030051D01*
X011821Y022484D02*
X012668Y022484D01*
X014006Y022051D02*
X014006Y021697D01*
X014203Y021697D01*
X014203Y022243D01*
X014006Y021697D02*
X014006Y021461D01*
X011676Y021106D02*
X011676Y020713D01*
X010101Y020319D01*
X010101Y021500D02*
X011676Y021106D01*
X010561Y022484D02*
X009416Y022484D01*
X009416Y016579D01*
X010561Y016579D01*
X010101Y017563D02*
X011676Y017957D01*
X011676Y018351D01*
X010101Y018744D01*
X011821Y016579D02*
X012668Y016579D01*
X014006Y017012D02*
X014006Y017366D01*
X014203Y017366D01*
X014203Y016825D01*
X014006Y017366D02*
X014006Y017603D01*
X015826Y018118D02*
X016093Y018385D01*
X016093Y018451D01*
X016026Y018518D01*
X015893Y018518D01*
X015826Y018451D01*
X015826Y018118D02*
X016093Y018118D01*
X016286Y018185D02*
X016353Y018118D01*
X016486Y018118D01*
X016553Y018185D01*
X016553Y018318D01*
X016486Y018385D01*
X016420Y018385D01*
X016286Y018318D01*
X016286Y018518D01*
X016553Y018518D01*
X019487Y018318D02*
X019754Y018318D01*
X019948Y018251D02*
X020014Y018318D01*
X020148Y018318D01*
X020215Y018251D01*
X020215Y018185D01*
X020148Y018118D01*
X020014Y018118D01*
X019948Y018185D01*
X019948Y018251D01*
X020014Y018318D02*
X019948Y018385D01*
X019948Y018451D01*
X020014Y018518D01*
X020148Y018518D01*
X020215Y018451D01*
X020215Y018385D01*
X020148Y018318D01*
X019687Y018118D02*
X019687Y018518D01*
X019487Y018318D01*
X019994Y019008D02*
X020093Y019008D01*
X020388Y019303D01*
X020388Y019402D01*
X020388Y019303D02*
X020388Y019205D01*
X020191Y019008D01*
X020289Y019008D01*
X020388Y019106D01*
X020388Y019205D01*
X020388Y019106D02*
X020388Y019008D01*
X020289Y019008D01*
X020191Y019008D02*
X020093Y019008D01*
X020542Y018722D02*
X020544Y018743D01*
X020550Y018764D01*
X020560Y018783D01*
X020573Y018799D01*
X020589Y018813D01*
X020607Y018824D01*
X020628Y018831D01*
X020649Y018834D01*
X020670Y018833D01*
X020691Y018828D01*
X020710Y018819D01*
X020727Y018807D01*
X020742Y018791D01*
X020754Y018773D01*
X020761Y018754D01*
X020765Y018733D01*
X020765Y018711D01*
X020761Y018690D01*
X020754Y018671D01*
X020742Y018653D01*
X020727Y018637D01*
X020710Y018625D01*
X020691Y018616D01*
X020670Y018611D01*
X020649Y018610D01*
X020628Y018613D01*
X020607Y018620D01*
X020589Y018631D01*
X020573Y018645D01*
X020560Y018661D01*
X020550Y018680D01*
X020544Y018701D01*
X020542Y018722D01*
X010952Y013156D02*
X010952Y012956D01*
X010551Y012956D01*
X010551Y013156D01*
X010618Y013222D01*
X010685Y013222D01*
X010751Y013156D01*
X010751Y012956D01*
X010751Y013156D02*
X010818Y013222D01*
X010885Y013222D01*
X010952Y013156D01*
X010885Y012762D02*
X010952Y012695D01*
X010952Y012562D01*
X010885Y012495D01*
X010751Y012562D02*
X010751Y012695D01*
X010818Y012762D01*
X010885Y012762D01*
X010751Y012562D02*
X010685Y012495D01*
X010618Y012495D01*
X010551Y012562D01*
X010551Y012695D01*
X010618Y012762D01*
X010551Y012302D02*
X010885Y012302D01*
X010952Y012235D01*
X010952Y012101D01*
X010885Y012035D01*
X010551Y012035D01*
D14*
X014922Y017407D02*
X014874Y017455D01*
X014874Y017697D01*
X015067Y017697D02*
X015067Y017455D01*
X015019Y017407D01*
X014922Y017407D01*
X015205Y017407D02*
X015205Y017455D01*
X015399Y017649D01*
X015399Y017697D01*
X015205Y017697D01*
X021794Y024717D02*
X021888Y024717D01*
X021934Y024763D01*
X022070Y024717D02*
X022257Y024717D01*
X022163Y024717D02*
X022163Y024997D01*
X022070Y024903D01*
X021934Y024950D02*
X021888Y024997D01*
X021794Y024997D01*
X021748Y024950D01*
X021748Y024763D01*
X021794Y024717D01*
X021794Y025167D02*
X021888Y025167D01*
X021934Y025213D01*
X022070Y025167D02*
X022257Y025167D01*
X022163Y025167D02*
X022163Y025447D01*
X022070Y025353D01*
X021934Y025400D02*
X021888Y025447D01*
X021794Y025447D01*
X021748Y025400D01*
X021748Y025213D01*
X021794Y025167D01*
X022392Y025167D02*
X022579Y025353D01*
X022579Y025400D01*
X022532Y025447D01*
X022439Y025447D01*
X022392Y025400D01*
X022392Y025167D02*
X022579Y025167D01*
X022714Y025213D02*
X022901Y025400D01*
X022901Y025213D01*
X022854Y025167D01*
X022761Y025167D01*
X022714Y025213D01*
X022714Y025400D01*
X022761Y025447D01*
X022854Y025447D01*
X022901Y025400D01*
X022854Y024997D02*
X022761Y024997D01*
X022714Y024950D01*
X022579Y024950D02*
X022579Y024903D01*
X022532Y024857D01*
X022579Y024810D01*
X022579Y024763D01*
X022532Y024717D01*
X022439Y024717D01*
X022392Y024763D01*
X022485Y024857D02*
X022532Y024857D01*
X022579Y024950D02*
X022532Y024997D01*
X022439Y024997D01*
X022392Y024950D01*
X022714Y024717D02*
X022901Y024903D01*
X022901Y024950D01*
X022854Y024997D01*
X022901Y024717D02*
X022714Y024717D01*
X022778Y026617D02*
X022871Y026617D01*
X022918Y026663D01*
X022918Y026850D01*
X022871Y026897D01*
X022778Y026897D01*
X022731Y026850D01*
X022731Y026803D01*
X022778Y026757D01*
X022918Y026757D01*
X023053Y026803D02*
X023053Y026850D01*
X023100Y026897D01*
X023194Y026897D01*
X023240Y026850D01*
X023240Y026803D01*
X023194Y026757D01*
X023100Y026757D01*
X023053Y026803D01*
X023100Y026757D02*
X023053Y026710D01*
X023053Y026663D01*
X023100Y026617D01*
X023194Y026617D01*
X023240Y026663D01*
X023240Y026710D01*
X023194Y026757D01*
X022778Y026617D02*
X022731Y026663D01*
X022596Y026617D02*
X022409Y026617D01*
X022502Y026617D02*
X022502Y026897D01*
X022409Y026803D01*
X022273Y026850D02*
X022227Y026897D01*
X022133Y026897D01*
X022087Y026850D01*
X022087Y026663D01*
X022133Y026617D01*
X022227Y026617D01*
X022273Y026663D01*
X021017Y030600D02*
X020736Y030600D01*
X020736Y030740D01*
X020783Y030787D01*
X020877Y030787D01*
X020923Y030740D01*
X020923Y030600D01*
X020923Y030693D02*
X021017Y030787D01*
X020970Y030922D02*
X021017Y030969D01*
X021017Y031062D01*
X020970Y031109D01*
X020783Y031109D01*
X020736Y031062D01*
X020736Y030969D01*
X020783Y030922D01*
X020830Y030922D01*
X020877Y030969D01*
X020877Y031109D01*
X020830Y031244D02*
X020736Y031338D01*
X021017Y031338D01*
X021017Y031431D02*
X021017Y031244D01*
X020467Y031222D02*
X020467Y031409D01*
X020467Y031315D02*
X020186Y031315D01*
X020280Y031222D01*
X020280Y031087D02*
X020233Y031087D01*
X020186Y031040D01*
X020186Y030946D01*
X020233Y030900D01*
X020233Y030764D02*
X020186Y030718D01*
X020186Y030624D01*
X020233Y030578D01*
X020420Y030578D01*
X020467Y030624D01*
X020467Y030718D01*
X020420Y030764D01*
X020467Y030900D02*
X020280Y031087D01*
X020467Y031087D02*
X020467Y030900D01*
X020467Y031544D02*
X020467Y031731D01*
X020467Y031638D02*
X020186Y031638D01*
X020280Y031544D01*
X014546Y032567D02*
X014452Y032660D01*
X014499Y032660D02*
X014359Y032660D01*
X014359Y032567D02*
X014359Y032847D01*
X014499Y032847D01*
X014546Y032800D01*
X014546Y032707D01*
X014499Y032660D01*
X014224Y032567D02*
X014224Y032847D01*
X014037Y032847D02*
X014037Y032567D01*
X014130Y032660D01*
X014224Y032567D01*
X013901Y032707D02*
X013855Y032660D01*
X013715Y032660D01*
X013715Y032567D02*
X013715Y032847D01*
X013855Y032847D01*
X013901Y032800D01*
X013901Y032707D01*
X013579Y032520D02*
X013392Y032520D01*
X013257Y032567D02*
X013257Y032753D01*
X013164Y032847D01*
X013070Y032753D01*
X013070Y032567D01*
X013070Y032707D02*
X013257Y032707D01*
X012935Y032847D02*
X012748Y032847D01*
X012841Y032847D02*
X012841Y032567D01*
X012612Y032567D02*
X012612Y032753D01*
X012519Y032847D01*
X012426Y032753D01*
X012426Y032567D01*
X012426Y032707D02*
X012612Y032707D01*
X012290Y032660D02*
X012290Y032613D01*
X012244Y032567D01*
X012150Y032567D01*
X012103Y032613D01*
X012150Y032707D02*
X012244Y032707D01*
X012290Y032660D01*
X012290Y032800D02*
X012244Y032847D01*
X012150Y032847D01*
X012103Y032800D01*
X012103Y032753D01*
X012150Y032707D01*
X011968Y032520D02*
X011781Y032520D01*
X011646Y032660D02*
X011646Y032847D01*
X011646Y032660D02*
X011552Y032567D01*
X011459Y032660D01*
X011459Y032847D01*
X011323Y032847D02*
X011137Y032847D01*
X011137Y032707D01*
X011230Y032753D01*
X011277Y032753D01*
X011323Y032707D01*
X011323Y032613D01*
X011277Y032567D01*
X011183Y032567D01*
X011137Y032613D01*
X030186Y024680D02*
X030332Y024535D01*
X030332Y024729D01*
X030477Y024680D02*
X030186Y024680D01*
X030186Y024397D02*
X030186Y024204D01*
X030332Y024204D01*
X030283Y024300D01*
X030283Y024349D01*
X030332Y024397D01*
X030428Y024397D01*
X030477Y024349D01*
X030477Y024252D01*
X030428Y024204D01*
X030428Y024066D02*
X030477Y024017D01*
X030477Y023921D01*
X030428Y023872D01*
X030235Y023872D01*
X030186Y023921D01*
X030186Y024017D01*
X030235Y024066D01*
X036660Y022252D02*
X036802Y022182D01*
X036731Y022111D01*
X036660Y022252D01*
X036833Y022080D01*
X040286Y022963D02*
X040333Y022917D01*
X040426Y022917D01*
X040473Y022963D01*
X040473Y023197D01*
X040608Y023150D02*
X040608Y023103D01*
X040655Y023057D01*
X040749Y023057D01*
X040795Y023010D01*
X040795Y022963D01*
X040749Y022917D01*
X040655Y022917D01*
X040608Y022963D01*
X040608Y023150D02*
X040655Y023197D01*
X040749Y023197D01*
X040795Y023150D01*
X040931Y023197D02*
X040931Y022917D01*
X041071Y022917D01*
X041117Y022963D01*
X041117Y023010D01*
X041071Y023057D01*
X040931Y023057D01*
X041071Y023057D02*
X041117Y023103D01*
X041117Y023150D01*
X041071Y023197D01*
X040931Y023197D01*
X041253Y022870D02*
X041440Y022870D01*
X041575Y022917D02*
X041575Y023197D01*
X041575Y023057D02*
X041762Y023057D01*
X041762Y023197D02*
X041762Y022917D01*
X041897Y022963D02*
X041944Y022917D01*
X042038Y022917D01*
X042084Y022963D01*
X042084Y023150D01*
X042038Y023197D01*
X041944Y023197D01*
X041897Y023150D01*
X041897Y022963D01*
X042220Y022963D02*
X042266Y022917D01*
X042360Y022917D01*
X042406Y022963D01*
X042406Y023010D01*
X042360Y023057D01*
X042266Y023057D01*
X042220Y023103D01*
X042220Y023150D01*
X042266Y023197D01*
X042360Y023197D01*
X042406Y023150D01*
X042542Y023197D02*
X042729Y023197D01*
X042635Y023197D02*
X042635Y022917D01*
X042864Y022917D02*
X043051Y022917D01*
X042958Y022917D02*
X042958Y023197D01*
X042864Y023103D01*
X040286Y023197D02*
X040286Y022963D01*
X041822Y025867D02*
X041822Y026060D01*
X041918Y025963D02*
X041725Y025963D01*
X042032Y027435D02*
X042032Y027629D01*
X033417Y030617D02*
X033417Y030803D01*
X033370Y030939D02*
X033417Y030986D01*
X033417Y031079D01*
X033370Y031126D01*
X033417Y031261D02*
X033136Y031261D01*
X033136Y031401D01*
X033183Y031448D01*
X033370Y031448D01*
X033417Y031401D01*
X033417Y031261D01*
X033183Y031126D02*
X033136Y031079D01*
X033136Y030986D01*
X033183Y030939D01*
X033370Y030939D01*
X033417Y030617D02*
X033136Y030617D01*
X033463Y031583D02*
X033463Y031770D01*
X033370Y031906D02*
X033417Y031952D01*
X033417Y032046D01*
X033370Y032092D01*
X033370Y032228D02*
X033417Y032275D01*
X033417Y032368D01*
X033370Y032415D01*
X033183Y032415D01*
X033136Y032368D01*
X033136Y032275D01*
X033183Y032228D01*
X033370Y032228D01*
X033183Y032092D02*
X033136Y032046D01*
X033136Y031952D01*
X033183Y031906D01*
X033370Y031906D01*
X033417Y032550D02*
X033136Y032550D01*
X033417Y032737D01*
X033136Y032737D01*
X040286Y019397D02*
X040286Y019163D01*
X040333Y019117D01*
X040426Y019117D01*
X040473Y019163D01*
X040473Y019397D01*
X040608Y019350D02*
X040608Y019303D01*
X040655Y019257D01*
X040749Y019257D01*
X040795Y019210D01*
X040795Y019163D01*
X040749Y019117D01*
X040655Y019117D01*
X040608Y019163D01*
X040608Y019350D02*
X040655Y019397D01*
X040749Y019397D01*
X040795Y019350D01*
X040931Y019397D02*
X041071Y019397D01*
X041117Y019350D01*
X041117Y019303D01*
X041071Y019257D01*
X040931Y019257D01*
X041071Y019257D02*
X041117Y019210D01*
X041117Y019163D01*
X041071Y019117D01*
X040931Y019117D01*
X040931Y019397D01*
X041253Y019070D02*
X041440Y019070D01*
X041575Y019117D02*
X041575Y019397D01*
X041575Y019257D02*
X041762Y019257D01*
X041762Y019397D02*
X041762Y019117D01*
X041897Y019163D02*
X041944Y019117D01*
X042038Y019117D01*
X042084Y019163D01*
X042084Y019350D01*
X042038Y019397D01*
X041944Y019397D01*
X041897Y019350D01*
X041897Y019163D01*
X042220Y019163D02*
X042266Y019117D01*
X042360Y019117D01*
X042406Y019163D01*
X042406Y019210D01*
X042360Y019257D01*
X042266Y019257D01*
X042220Y019303D01*
X042220Y019350D01*
X042266Y019397D01*
X042360Y019397D01*
X042406Y019350D01*
X042542Y019397D02*
X042729Y019397D01*
X042635Y019397D02*
X042635Y019117D01*
X042864Y019117D02*
X043051Y019303D01*
X043051Y019350D01*
X043004Y019397D01*
X042911Y019397D01*
X042864Y019350D01*
X042864Y019117D02*
X043051Y019117D01*
X037068Y017897D02*
X036975Y017850D01*
X036881Y017757D01*
X037021Y017757D01*
X037068Y017710D01*
X037068Y017663D01*
X037021Y017617D01*
X036928Y017617D01*
X036881Y017663D01*
X036881Y017757D01*
X036746Y017803D02*
X036699Y017757D01*
X036746Y017710D01*
X036746Y017663D01*
X036699Y017617D01*
X036606Y017617D01*
X036559Y017663D01*
X036652Y017757D02*
X036699Y017757D01*
X036746Y017803D02*
X036746Y017850D01*
X036699Y017897D01*
X036606Y017897D01*
X036559Y017850D01*
X036423Y017850D02*
X036377Y017897D01*
X036283Y017897D01*
X036237Y017850D01*
X036237Y017663D01*
X036283Y017617D01*
X036377Y017617D01*
X036423Y017663D01*
X036459Y011072D02*
X036646Y010792D01*
X036781Y010838D02*
X036968Y011025D01*
X036968Y010838D01*
X036921Y010792D01*
X036828Y010792D01*
X036781Y010838D01*
X036781Y011025D01*
X036828Y011072D01*
X036921Y011072D01*
X036968Y011025D01*
X037187Y011072D02*
X037187Y010792D01*
X037187Y010885D02*
X037327Y010885D01*
X037373Y010932D01*
X037373Y011025D01*
X037327Y011072D01*
X037187Y011072D01*
X037280Y010885D02*
X037373Y010792D01*
X037509Y010792D02*
X037696Y011072D01*
X037831Y011025D02*
X037878Y011072D01*
X037971Y011072D01*
X038018Y011025D01*
X037831Y010838D01*
X037878Y010792D01*
X037971Y010792D01*
X038018Y010838D01*
X038018Y011025D01*
X037831Y011025D02*
X037831Y010838D01*
X037696Y010792D02*
X037509Y011072D01*
X036646Y011072D02*
X036459Y010792D01*
X036230Y010792D02*
X036230Y011072D01*
X036137Y011072D02*
X036323Y011072D01*
X022718Y010050D02*
X022718Y010003D01*
X022671Y009957D01*
X022578Y009957D01*
X022531Y010003D01*
X022531Y010050D01*
X022578Y010097D01*
X022671Y010097D01*
X022718Y010050D01*
X022671Y009957D02*
X022718Y009910D01*
X022718Y009863D01*
X022671Y009817D01*
X022578Y009817D01*
X022531Y009863D01*
X022531Y009910D01*
X022578Y009957D01*
X022396Y010003D02*
X022349Y009957D01*
X022256Y009957D01*
X022209Y010003D01*
X022209Y010050D01*
X022256Y010097D01*
X022349Y010097D01*
X022396Y010050D01*
X022396Y010003D01*
X022349Y009957D02*
X022396Y009910D01*
X022396Y009863D01*
X022349Y009817D01*
X022256Y009817D01*
X022209Y009863D01*
X022209Y009910D01*
X022256Y009957D01*
X022073Y009957D02*
X022027Y009910D01*
X021887Y009910D01*
X021980Y009910D02*
X022073Y009817D01*
X022073Y009957D02*
X022073Y010050D01*
X022027Y010097D01*
X021887Y010097D01*
X021887Y009817D01*
D15*
X021010Y010642D02*
X020837Y010642D01*
X020924Y010642D02*
X020924Y010902D01*
X020837Y010815D01*
X020716Y010859D02*
X020672Y010902D01*
X020542Y010902D01*
X020542Y010642D01*
X020672Y010642D01*
X020716Y010685D01*
X020716Y010859D01*
X020421Y010902D02*
X020248Y010902D01*
X020248Y010642D01*
X020421Y010642D01*
X020334Y010772D02*
X020248Y010772D01*
X020127Y010642D02*
X019953Y010642D01*
X019953Y010902D01*
X019965Y010052D02*
X019965Y009812D01*
X019805Y010052D01*
X019805Y009812D01*
X019701Y009812D02*
X019621Y009812D01*
X019661Y009812D02*
X019661Y010052D01*
X019621Y010052D02*
X019701Y010052D01*
X019505Y010012D02*
X019505Y009932D01*
X019465Y009892D01*
X019345Y009892D01*
X019345Y009812D02*
X019345Y010052D01*
X019465Y010052D01*
X019505Y010012D01*
X019229Y009772D02*
X019069Y009772D01*
X018953Y009852D02*
X018953Y010012D01*
X018913Y010052D01*
X018793Y010052D01*
X018793Y009812D01*
X018913Y009812D01*
X018953Y009852D01*
X018676Y009812D02*
X018676Y010052D01*
X018516Y010052D02*
X018676Y009812D01*
X018516Y009812D02*
X018516Y010052D01*
X018400Y010012D02*
X018360Y010052D01*
X018280Y010052D01*
X018240Y010012D01*
X018240Y009852D01*
X018280Y009812D01*
X018360Y009812D01*
X018400Y009852D01*
X018400Y009932D01*
X018320Y009932D01*
X019972Y014812D02*
X020052Y014812D01*
X020092Y014852D01*
X020208Y014852D02*
X020208Y014812D01*
X020208Y014852D02*
X020368Y015012D01*
X020368Y015052D01*
X020208Y015052D01*
X020092Y015012D02*
X020052Y015052D01*
X019972Y015052D01*
X019932Y015012D01*
X019932Y014852D01*
X019972Y014812D01*
X020484Y014812D02*
X020484Y014852D01*
X020644Y015012D01*
X020644Y015052D01*
X020484Y015052D01*
X019480Y016662D02*
X019480Y016902D01*
X019360Y016782D01*
X019520Y016782D01*
X019244Y016662D02*
X019084Y016662D01*
X019164Y016662D02*
X019164Y016902D01*
X019084Y016822D01*
X018968Y016662D02*
X018808Y016662D01*
X018888Y016662D02*
X018888Y016902D01*
X018808Y016822D01*
X018692Y016862D02*
X018652Y016902D01*
X018572Y016902D01*
X018532Y016862D01*
X018532Y016702D01*
X018572Y016662D01*
X018652Y016662D01*
X018692Y016702D01*
X014622Y017412D02*
X014622Y017572D01*
X014622Y017492D02*
X014381Y017492D01*
X014462Y017412D01*
X014422Y024612D02*
X014422Y024772D01*
X014422Y024692D02*
X014181Y024692D01*
X014262Y024612D01*
X014582Y025112D02*
X014702Y025112D01*
X014742Y025152D01*
X014742Y025312D01*
X014702Y025352D01*
X014582Y025352D01*
X014582Y025112D01*
X014858Y025112D02*
X014858Y025152D01*
X015018Y025312D01*
X015018Y025352D01*
X014858Y025352D01*
X016027Y025577D02*
X016067Y025537D01*
X016147Y025537D01*
X016187Y025577D01*
X016303Y025537D02*
X016463Y025537D01*
X016383Y025537D02*
X016383Y025777D01*
X016303Y025697D01*
X016187Y025737D02*
X016147Y025777D01*
X016067Y025777D01*
X016027Y025737D01*
X016027Y025577D01*
X016303Y025912D02*
X016303Y026152D01*
X016423Y026152D01*
X016463Y026112D01*
X016463Y026032D01*
X016423Y025992D01*
X016303Y025992D01*
X016383Y025992D02*
X016463Y025912D01*
X016579Y025912D02*
X016739Y026072D01*
X016739Y026112D01*
X016699Y026152D01*
X016619Y026152D01*
X016579Y026112D01*
X016579Y025912D02*
X016739Y025912D01*
X016855Y025952D02*
X016895Y025912D01*
X016975Y025912D01*
X017016Y025952D01*
X017016Y026112D01*
X016975Y026152D01*
X016895Y026152D01*
X016855Y026112D01*
X016855Y026072D01*
X016895Y026032D01*
X017016Y026032D01*
X016975Y025777D02*
X016895Y025777D01*
X016855Y025737D01*
X016975Y025777D02*
X017016Y025737D01*
X017016Y025697D01*
X016855Y025537D01*
X017016Y025537D01*
X016739Y025537D02*
X016579Y025537D01*
X016659Y025537D02*
X016659Y025777D01*
X016579Y025697D01*
X017055Y026462D02*
X017228Y026462D01*
X017272Y026505D01*
X017272Y026592D01*
X017228Y026635D01*
X017272Y026756D02*
X017272Y026930D01*
X017272Y026843D02*
X017011Y026843D01*
X017098Y026756D01*
X017055Y026635D02*
X017011Y026592D01*
X017011Y026505D01*
X017055Y026462D01*
X017055Y027051D02*
X017098Y027051D01*
X017142Y027094D01*
X017142Y027224D01*
X017228Y027224D02*
X017055Y027224D01*
X017011Y027181D01*
X017011Y027094D01*
X017055Y027051D01*
X017228Y027051D02*
X017272Y027094D01*
X017272Y027181D01*
X017228Y027224D01*
X017272Y027346D02*
X017098Y027519D01*
X017055Y027519D01*
X017011Y027476D01*
X017011Y027389D01*
X017055Y027346D01*
X017272Y027346D02*
X017272Y027519D01*
X018482Y027379D02*
X018482Y027205D01*
X018525Y027162D01*
X018612Y027162D01*
X018655Y027205D01*
X018776Y027162D02*
X018950Y027162D01*
X018863Y027162D02*
X018863Y027422D01*
X018776Y027335D01*
X018655Y027379D02*
X018612Y027422D01*
X018525Y027422D01*
X018482Y027379D01*
X019071Y027379D02*
X019071Y027335D01*
X019114Y027292D01*
X019244Y027292D01*
X019244Y027379D02*
X019201Y027422D01*
X019114Y027422D01*
X019071Y027379D01*
X019244Y027379D02*
X019244Y027205D01*
X019201Y027162D01*
X019114Y027162D01*
X019071Y027205D01*
X019366Y027205D02*
X019409Y027162D01*
X019496Y027162D01*
X019539Y027205D01*
X019539Y027248D01*
X019496Y027292D01*
X019452Y027292D01*
X019496Y027292D02*
X019539Y027335D01*
X019539Y027379D01*
X019496Y027422D01*
X019409Y027422D01*
X019366Y027379D01*
X019234Y026642D02*
X019274Y026602D01*
X019274Y026562D01*
X019234Y026522D01*
X019274Y026482D01*
X019274Y026442D01*
X019234Y026402D01*
X019154Y026402D01*
X019114Y026442D01*
X019194Y026522D02*
X019234Y026522D01*
X019234Y026642D02*
X019154Y026642D01*
X019114Y026602D01*
X018998Y026602D02*
X018958Y026642D01*
X018878Y026642D01*
X018838Y026602D01*
X018722Y026602D02*
X018722Y026522D01*
X018682Y026482D01*
X018562Y026482D01*
X018642Y026482D02*
X018722Y026402D01*
X018838Y026402D02*
X018998Y026562D01*
X018998Y026602D01*
X018998Y026402D02*
X018838Y026402D01*
X018722Y026602D02*
X018682Y026642D01*
X018562Y026642D01*
X018562Y026402D01*
X018711Y028062D02*
X018885Y028062D01*
X018972Y028148D01*
X018885Y028235D01*
X018711Y028235D01*
X018711Y028356D02*
X018711Y028486D01*
X018755Y028530D01*
X018842Y028530D01*
X018885Y028486D01*
X018885Y028356D01*
X018972Y028356D02*
X018711Y028356D01*
X018885Y028443D02*
X018972Y028530D01*
X018972Y028651D02*
X018972Y028824D01*
X018972Y028738D02*
X018711Y028738D01*
X018798Y028651D01*
X020982Y027112D02*
X020982Y026952D01*
X021022Y026912D01*
X021102Y026912D01*
X021142Y026952D01*
X021258Y026912D02*
X021418Y026912D01*
X021338Y026912D02*
X021338Y027152D01*
X021258Y027072D01*
X021142Y027112D02*
X021102Y027152D01*
X021022Y027152D01*
X020982Y027112D01*
X020982Y026602D02*
X021102Y026602D01*
X021142Y026562D01*
X021142Y026482D01*
X021102Y026442D01*
X020982Y026442D01*
X021062Y026442D02*
X021142Y026362D01*
X020982Y026362D02*
X020982Y026602D01*
X021258Y026482D02*
X021418Y026482D01*
X021378Y026602D02*
X021258Y026482D01*
X021378Y026362D02*
X021378Y026602D01*
X021534Y026562D02*
X021574Y026602D01*
X021654Y026602D01*
X021694Y026562D01*
X021694Y026522D01*
X021654Y026482D01*
X021694Y026442D01*
X021694Y026402D01*
X021654Y026362D01*
X021574Y026362D01*
X021534Y026402D01*
X021614Y026482D02*
X021654Y026482D01*
X021654Y026102D02*
X021574Y026102D01*
X021534Y026062D01*
X021654Y026102D02*
X021694Y026062D01*
X021694Y026022D01*
X021534Y025862D01*
X021694Y025862D01*
X021810Y025862D02*
X021810Y025902D01*
X021970Y026062D01*
X021970Y026102D01*
X021810Y026102D01*
X021418Y025862D02*
X021258Y025862D01*
X021338Y025862D02*
X021338Y026102D01*
X021258Y026022D01*
X021142Y026062D02*
X021102Y026102D01*
X021022Y026102D01*
X020982Y026062D01*
X020982Y025902D01*
X021022Y025862D01*
X021102Y025862D01*
X021142Y025902D01*
X021534Y026912D02*
X021694Y027072D01*
X021694Y027112D01*
X021654Y027152D01*
X021574Y027152D01*
X021534Y027112D01*
X021534Y026912D02*
X021694Y026912D01*
X021810Y026952D02*
X021810Y026992D01*
X021850Y027032D01*
X021930Y027032D01*
X021970Y026992D01*
X021970Y026952D01*
X021930Y026912D01*
X021850Y026912D01*
X021810Y026952D01*
X021850Y027032D02*
X021810Y027072D01*
X021810Y027112D01*
X021850Y027152D01*
X021930Y027152D01*
X021970Y027112D01*
X021970Y027072D01*
X021930Y027032D01*
X021732Y031462D02*
X021772Y031502D01*
X021772Y031582D01*
X021732Y031622D01*
X021772Y031738D02*
X021612Y031898D01*
X021571Y031898D01*
X021531Y031858D01*
X021531Y031778D01*
X021571Y031738D01*
X021571Y031622D02*
X021531Y031582D01*
X021531Y031502D01*
X021571Y031462D01*
X021732Y031462D01*
X021772Y031738D02*
X021772Y031898D01*
X021732Y032014D02*
X021571Y032174D01*
X021732Y032174D01*
X021772Y032134D01*
X021772Y032054D01*
X021732Y032014D01*
X021571Y032014D01*
X021531Y032054D01*
X021531Y032134D01*
X021571Y032174D01*
X021571Y032290D02*
X021612Y032290D01*
X021652Y032330D01*
X021652Y032450D01*
X021732Y032450D02*
X021571Y032450D01*
X021531Y032410D01*
X021531Y032330D01*
X021571Y032290D01*
X021732Y032290D02*
X021772Y032330D01*
X021772Y032410D01*
X021732Y032450D01*
X022031Y032514D02*
X022031Y032674D01*
X022071Y032674D01*
X022232Y032514D01*
X022272Y032514D01*
X022232Y032398D02*
X022272Y032358D01*
X022272Y032278D01*
X022232Y032238D01*
X022192Y032238D01*
X022152Y032278D01*
X022152Y032358D01*
X022192Y032398D01*
X022232Y032398D01*
X022152Y032358D02*
X022112Y032398D01*
X022071Y032398D01*
X022031Y032358D01*
X022031Y032278D01*
X022071Y032238D01*
X022112Y032238D01*
X022152Y032278D01*
X022152Y032122D02*
X022192Y032082D01*
X022192Y031962D01*
X022272Y031962D02*
X022031Y031962D01*
X022031Y032082D01*
X022071Y032122D01*
X022152Y032122D01*
X022192Y032042D02*
X022272Y032122D01*
X014472Y031250D02*
X014472Y031090D01*
X014312Y031250D01*
X014271Y031250D01*
X014231Y031210D01*
X014231Y031130D01*
X014271Y031090D01*
X014271Y030974D02*
X014312Y030974D01*
X014352Y030934D01*
X014392Y030974D01*
X014432Y030974D01*
X014472Y030934D01*
X014472Y030854D01*
X014432Y030814D01*
X014352Y030894D02*
X014352Y030934D01*
X014271Y030974D02*
X014231Y030934D01*
X014231Y030854D01*
X014271Y030814D01*
X014271Y030698D02*
X014231Y030658D01*
X014231Y030578D01*
X014271Y030538D01*
X014271Y030422D02*
X014231Y030382D01*
X014231Y030302D01*
X014271Y030262D01*
X014432Y030262D01*
X014472Y030302D01*
X014472Y030382D01*
X014432Y030422D01*
X014472Y030538D02*
X014312Y030698D01*
X014271Y030698D01*
X014072Y030698D02*
X014072Y030538D01*
X013912Y030698D01*
X013871Y030698D01*
X013831Y030658D01*
X013831Y030578D01*
X013871Y030538D01*
X013871Y030422D02*
X013831Y030382D01*
X013831Y030302D01*
X013871Y030262D01*
X014032Y030262D01*
X014072Y030302D01*
X014072Y030382D01*
X014032Y030422D01*
X014072Y030814D02*
X013912Y030974D01*
X013871Y030974D01*
X013831Y030934D01*
X013831Y030854D01*
X013871Y030814D01*
X014072Y030814D02*
X014072Y030974D01*
X013952Y031090D02*
X013831Y031210D01*
X014072Y031210D01*
X013952Y031250D02*
X013952Y031090D01*
X014472Y030698D02*
X014472Y030538D01*
X029181Y025665D02*
X029422Y025665D01*
X029422Y025585D02*
X029422Y025746D01*
X029262Y025585D02*
X029181Y025665D01*
X029221Y025469D02*
X029262Y025469D01*
X029302Y025429D01*
X029302Y025349D01*
X029262Y025309D01*
X029221Y025309D01*
X029181Y025349D01*
X029181Y025429D01*
X029221Y025469D01*
X029302Y025429D02*
X029342Y025469D01*
X029382Y025469D01*
X029422Y025429D01*
X029422Y025349D01*
X029382Y025309D01*
X029342Y025309D01*
X029302Y025349D01*
X029422Y025193D02*
X029422Y025033D01*
X029422Y025113D02*
X029181Y025113D01*
X029262Y025033D01*
X029221Y024917D02*
X029181Y024877D01*
X029181Y024797D01*
X029221Y024757D01*
X029382Y024757D01*
X029422Y024797D01*
X029422Y024877D01*
X029382Y024917D01*
X029781Y024802D02*
X029781Y024722D01*
X029821Y024682D01*
X029982Y024682D01*
X030022Y024722D01*
X030022Y024802D01*
X029982Y024842D01*
X030022Y024958D02*
X030022Y025118D01*
X030022Y025038D02*
X029781Y025038D01*
X029862Y024958D01*
X029821Y024842D02*
X029781Y024802D01*
X029902Y025234D02*
X029781Y025354D01*
X030022Y025354D01*
X029902Y025394D02*
X029902Y025234D01*
X029902Y025510D02*
X029781Y025510D01*
X029781Y025671D01*
X029862Y025630D02*
X029902Y025671D01*
X029982Y025671D01*
X030022Y025630D01*
X030022Y025550D01*
X029982Y025510D01*
X029902Y025510D02*
X029862Y025590D01*
X029862Y025630D01*
X031082Y025802D02*
X031122Y025762D01*
X031202Y025762D01*
X031242Y025802D01*
X031358Y025802D02*
X031398Y025762D01*
X031478Y025762D01*
X031518Y025802D01*
X031518Y025882D01*
X031478Y025922D01*
X031438Y025922D01*
X031358Y025882D01*
X031358Y026002D01*
X031518Y026002D01*
X031634Y025962D02*
X031674Y026002D01*
X031754Y026002D01*
X031794Y025962D01*
X031634Y025802D01*
X031674Y025762D01*
X031754Y025762D01*
X031794Y025802D01*
X031794Y025962D01*
X031634Y025962D02*
X031634Y025802D01*
X031982Y025802D02*
X031982Y025962D01*
X032022Y026002D01*
X032102Y026002D01*
X032142Y025962D01*
X032258Y025882D02*
X032418Y025882D01*
X032534Y025922D02*
X032534Y025962D01*
X032574Y026002D01*
X032654Y026002D01*
X032694Y025962D01*
X032694Y025922D01*
X032654Y025882D01*
X032574Y025882D01*
X032534Y025922D01*
X032574Y025882D02*
X032534Y025842D01*
X032534Y025802D01*
X032574Y025762D01*
X032654Y025762D01*
X032694Y025802D01*
X032694Y025842D01*
X032654Y025882D01*
X032378Y026002D02*
X032258Y025882D01*
X032142Y025802D02*
X032102Y025762D01*
X032022Y025762D01*
X031982Y025802D01*
X032378Y025762D02*
X032378Y026002D01*
X032396Y026217D02*
X032309Y026303D01*
X032353Y026303D02*
X032223Y026303D01*
X032223Y026217D02*
X032223Y026477D01*
X032353Y026477D01*
X032396Y026434D01*
X032396Y026347D01*
X032353Y026303D01*
X032517Y026260D02*
X032517Y026217D01*
X032517Y026260D02*
X032691Y026434D01*
X032691Y026477D01*
X032517Y026477D01*
X032812Y026347D02*
X032985Y026347D01*
X032942Y026477D02*
X032812Y026347D01*
X032942Y026217D02*
X032942Y026477D01*
X034417Y025662D02*
X034417Y025502D01*
X034457Y025462D01*
X034537Y025462D01*
X034577Y025502D01*
X034693Y025462D02*
X034853Y025462D01*
X034773Y025462D02*
X034773Y025702D01*
X034693Y025622D01*
X034577Y025662D02*
X034537Y025702D01*
X034457Y025702D01*
X034417Y025662D01*
X034969Y025662D02*
X034969Y025622D01*
X035009Y025582D01*
X035089Y025582D01*
X035129Y025542D01*
X035129Y025502D01*
X035089Y025462D01*
X035009Y025462D01*
X034969Y025502D01*
X034969Y025542D01*
X035009Y025582D01*
X035089Y025582D02*
X035129Y025622D01*
X035129Y025662D01*
X035089Y025702D01*
X035009Y025702D01*
X034969Y025662D01*
X035245Y025662D02*
X035285Y025702D01*
X035365Y025702D01*
X035405Y025662D01*
X035245Y025502D01*
X035285Y025462D01*
X035365Y025462D01*
X035405Y025502D01*
X035405Y025662D01*
X035245Y025662D02*
X035245Y025502D01*
X036577Y025652D02*
X036617Y025612D01*
X036697Y025612D01*
X036737Y025652D01*
X036853Y025612D02*
X037013Y025612D01*
X036933Y025612D02*
X036933Y025852D01*
X036853Y025772D01*
X036737Y025812D02*
X036697Y025852D01*
X036617Y025852D01*
X036577Y025812D01*
X036577Y025652D01*
X037103Y025502D02*
X037103Y025262D01*
X037103Y025342D02*
X037223Y025342D01*
X037263Y025382D01*
X037263Y025462D01*
X037223Y025502D01*
X037103Y025502D01*
X037169Y025612D02*
X037129Y025652D01*
X037129Y025692D01*
X037169Y025732D01*
X037249Y025732D01*
X037289Y025692D01*
X037289Y025652D01*
X037249Y025612D01*
X037169Y025612D01*
X037169Y025732D02*
X037129Y025772D01*
X037129Y025812D01*
X037169Y025852D01*
X037249Y025852D01*
X037289Y025812D01*
X037289Y025772D01*
X037249Y025732D01*
X037405Y025732D02*
X037525Y025732D01*
X037566Y025692D01*
X037566Y025652D01*
X037525Y025612D01*
X037445Y025612D01*
X037405Y025652D01*
X037405Y025732D01*
X037485Y025812D01*
X037566Y025852D01*
X037521Y026062D02*
X037682Y026062D01*
X037722Y026102D01*
X037722Y026182D01*
X037682Y026222D01*
X037722Y026338D02*
X037722Y026498D01*
X037722Y026418D02*
X037481Y026418D01*
X037562Y026338D01*
X037521Y026222D02*
X037481Y026182D01*
X037481Y026102D01*
X037521Y026062D01*
X037521Y026614D02*
X037481Y026654D01*
X037481Y026734D01*
X037521Y026774D01*
X037562Y026774D01*
X037602Y026734D01*
X037602Y026654D01*
X037562Y026614D01*
X037521Y026614D01*
X037602Y026654D02*
X037642Y026614D01*
X037682Y026614D01*
X037722Y026654D01*
X037722Y026734D01*
X037682Y026774D01*
X037642Y026774D01*
X037602Y026734D01*
X037602Y026890D02*
X037562Y026970D01*
X037562Y027010D01*
X037602Y027050D01*
X037682Y027050D01*
X037722Y027010D01*
X037722Y026930D01*
X037682Y026890D01*
X037602Y026890D02*
X037481Y026890D01*
X037481Y027050D01*
X037721Y027307D02*
X037882Y027307D01*
X037922Y027347D01*
X037922Y027427D01*
X037882Y027467D01*
X037922Y027583D02*
X037922Y027743D01*
X037922Y027663D02*
X037681Y027663D01*
X037762Y027583D01*
X037721Y027467D02*
X037681Y027427D01*
X037681Y027347D01*
X037721Y027307D01*
X037542Y027528D02*
X037281Y027528D01*
X037281Y027658D01*
X037325Y027701D01*
X037412Y027701D01*
X037455Y027658D01*
X037455Y027528D01*
X037455Y027614D02*
X037542Y027701D01*
X037542Y027822D02*
X037498Y027822D01*
X037325Y027996D01*
X037281Y027996D01*
X037281Y027822D01*
X037281Y028117D02*
X037412Y028117D01*
X037368Y028204D01*
X037368Y028247D01*
X037412Y028290D01*
X037498Y028290D01*
X037542Y028247D01*
X037542Y028160D01*
X037498Y028117D01*
X037681Y028135D02*
X037681Y028296D01*
X037721Y028296D01*
X037882Y028135D01*
X037922Y028135D01*
X037882Y028019D02*
X037922Y027979D01*
X037922Y027899D01*
X037882Y027859D01*
X037842Y027859D01*
X037802Y027899D01*
X037802Y027979D01*
X037842Y028019D01*
X037882Y028019D01*
X037802Y027979D02*
X037762Y028019D01*
X037721Y028019D01*
X037681Y027979D01*
X037681Y027899D01*
X037721Y027859D01*
X037762Y027859D01*
X037802Y027899D01*
X037281Y028117D02*
X037281Y028290D01*
X036951Y028762D02*
X036864Y028762D01*
X036821Y028805D01*
X036908Y028892D02*
X036951Y028892D01*
X036994Y028848D01*
X036994Y028805D01*
X036951Y028762D01*
X036951Y028892D02*
X036994Y028935D01*
X036994Y028979D01*
X036951Y029022D01*
X036864Y029022D01*
X036821Y028979D01*
X036613Y029022D02*
X036613Y028762D01*
X036526Y028762D02*
X036700Y028762D01*
X036526Y028935D02*
X036613Y029022D01*
X036405Y029022D02*
X036405Y028805D01*
X036362Y028762D01*
X036275Y028762D01*
X036232Y028805D01*
X036232Y029022D01*
X035624Y029382D02*
X035624Y029418D01*
X035771Y029565D01*
X035771Y029602D01*
X035624Y029602D01*
X035513Y029602D02*
X035513Y029565D01*
X035366Y029418D01*
X035366Y029382D01*
X035255Y029382D02*
X035182Y029455D01*
X035218Y029455D02*
X035108Y029455D01*
X035108Y029382D02*
X035108Y029602D01*
X035218Y029602D01*
X035255Y029565D01*
X035255Y029492D01*
X035218Y029455D01*
X035366Y029602D02*
X035513Y029602D01*
X035416Y029782D02*
X035416Y029818D01*
X035563Y029965D01*
X035563Y030002D01*
X035416Y030002D01*
X035232Y030002D02*
X035232Y029782D01*
X035305Y029782D02*
X035158Y029782D01*
X035047Y029818D02*
X035010Y029782D01*
X034937Y029782D01*
X034900Y029818D01*
X034900Y029965D01*
X034937Y030002D01*
X035010Y030002D01*
X035047Y029965D01*
X035158Y029928D02*
X035232Y030002D01*
X035674Y029965D02*
X035710Y030002D01*
X035784Y030002D01*
X035821Y029965D01*
X035674Y029818D01*
X035710Y029782D01*
X035784Y029782D01*
X035821Y029818D01*
X035821Y029965D01*
X035674Y029965D02*
X035674Y029818D01*
X037281Y029864D02*
X037281Y030024D01*
X037281Y029944D02*
X037522Y029944D01*
X037522Y029748D02*
X037522Y029588D01*
X037281Y029588D01*
X037281Y029748D01*
X037402Y029668D02*
X037402Y029588D01*
X037281Y029472D02*
X037281Y029312D01*
X037522Y029312D01*
X037402Y029312D02*
X037402Y029392D01*
X037402Y030140D02*
X037402Y030300D01*
X037522Y030260D02*
X037281Y030260D01*
X037402Y030140D01*
X038831Y030762D02*
X038831Y030882D01*
X038871Y030922D01*
X038952Y030922D01*
X038992Y030882D01*
X038992Y030762D01*
X039072Y030762D02*
X038831Y030762D01*
X038831Y031038D02*
X039072Y031038D01*
X038992Y031118D01*
X039072Y031198D01*
X038831Y031198D01*
X038831Y031314D02*
X038831Y031434D01*
X038871Y031474D01*
X038952Y031474D01*
X038992Y031434D01*
X038992Y031314D01*
X039072Y031314D02*
X038831Y031314D01*
X038992Y031394D02*
X039072Y031474D01*
X039112Y031590D02*
X039112Y031750D01*
X039032Y031867D02*
X039072Y031907D01*
X039072Y031947D01*
X039032Y031987D01*
X038831Y031987D01*
X038831Y031947D02*
X038831Y032027D01*
X038912Y032143D02*
X038831Y032223D01*
X038912Y032303D01*
X039072Y032303D01*
X038952Y032303D02*
X038952Y032143D01*
X038912Y032143D02*
X039072Y032143D01*
X039032Y032419D02*
X039072Y032459D01*
X039072Y032539D01*
X039032Y032579D01*
X039072Y032695D02*
X038831Y032695D01*
X038871Y032579D02*
X038831Y032539D01*
X038831Y032459D01*
X038871Y032419D01*
X039032Y032419D01*
X038992Y032695D02*
X038831Y032855D01*
X038952Y032735D02*
X039072Y032855D01*
X039503Y032352D02*
X039623Y032352D01*
X039663Y032312D01*
X039663Y032232D01*
X039623Y032192D01*
X039503Y032192D01*
X039583Y032192D02*
X039663Y032112D01*
X039779Y032152D02*
X039779Y032192D01*
X039819Y032232D01*
X039899Y032232D01*
X039939Y032192D01*
X039939Y032152D01*
X039899Y032112D01*
X039819Y032112D01*
X039779Y032152D01*
X039819Y032232D02*
X039779Y032272D01*
X039779Y032312D01*
X039819Y032352D01*
X039899Y032352D01*
X039939Y032312D01*
X039939Y032272D01*
X039899Y032232D01*
X040055Y032312D02*
X040095Y032352D01*
X040175Y032352D01*
X040216Y032312D01*
X040216Y032272D01*
X040055Y032112D01*
X040216Y032112D01*
X039503Y032112D02*
X039503Y032352D01*
X036216Y032502D02*
X036175Y032462D01*
X036095Y032462D01*
X036055Y032502D01*
X036216Y032662D01*
X036216Y032502D01*
X036216Y032662D02*
X036175Y032702D01*
X036095Y032702D01*
X036055Y032662D01*
X036055Y032502D01*
X035939Y032502D02*
X035899Y032462D01*
X035819Y032462D01*
X035779Y032502D01*
X035939Y032662D01*
X035939Y032502D01*
X035939Y032662D02*
X035899Y032702D01*
X035819Y032702D01*
X035779Y032662D01*
X035779Y032502D01*
X035663Y032462D02*
X035503Y032462D01*
X035663Y032622D01*
X035663Y032662D01*
X035623Y032702D01*
X035543Y032702D01*
X035503Y032662D01*
X035387Y032662D02*
X035347Y032702D01*
X035267Y032702D01*
X035227Y032662D01*
X035227Y032502D01*
X035267Y032462D01*
X035347Y032462D01*
X035387Y032502D01*
X031320Y030152D02*
X031240Y030112D01*
X031160Y030032D01*
X031280Y030032D01*
X031320Y029992D01*
X031320Y029952D01*
X031280Y029912D01*
X031200Y029912D01*
X031160Y029952D01*
X031160Y030032D01*
X031044Y029992D02*
X031004Y030032D01*
X030884Y030032D01*
X030884Y029952D01*
X030924Y029912D01*
X031004Y029912D01*
X031044Y029952D01*
X031044Y029992D01*
X030964Y030112D02*
X030884Y030032D01*
X030964Y030112D02*
X031044Y030152D01*
X030688Y030152D02*
X030688Y029912D01*
X030608Y029912D02*
X030768Y029912D01*
X030608Y030072D02*
X030688Y030152D01*
X030492Y030112D02*
X030452Y030152D01*
X030372Y030152D01*
X030332Y030112D01*
X030332Y029952D01*
X030372Y029912D01*
X030452Y029912D01*
X030492Y029952D01*
X030621Y028500D02*
X030662Y028500D01*
X030702Y028460D01*
X030742Y028500D01*
X030782Y028500D01*
X030822Y028460D01*
X030822Y028380D01*
X030782Y028340D01*
X030702Y028420D02*
X030702Y028460D01*
X030621Y028500D02*
X030581Y028460D01*
X030581Y028380D01*
X030621Y028340D01*
X030621Y028224D02*
X030782Y028064D01*
X030822Y028064D01*
X030822Y027948D02*
X030822Y027788D01*
X030822Y027868D02*
X030581Y027868D01*
X030662Y027788D01*
X030621Y027672D02*
X030581Y027632D01*
X030581Y027552D01*
X030621Y027512D01*
X030782Y027512D01*
X030822Y027552D01*
X030822Y027632D01*
X030782Y027672D01*
X031181Y027727D02*
X031221Y027687D01*
X031382Y027687D01*
X031422Y027727D01*
X031422Y027807D01*
X031382Y027847D01*
X031422Y027963D02*
X031422Y028123D01*
X031422Y028043D02*
X031181Y028043D01*
X031262Y027963D01*
X031221Y027847D02*
X031181Y027807D01*
X031181Y027727D01*
X031181Y028239D02*
X031181Y028399D01*
X031221Y028399D01*
X031382Y028239D01*
X031422Y028239D01*
X031422Y028515D02*
X031262Y028675D01*
X031221Y028675D01*
X031181Y028635D01*
X031181Y028555D01*
X031221Y028515D01*
X031422Y028515D02*
X031422Y028675D01*
X030621Y028224D02*
X030581Y028224D01*
X030581Y028064D01*
X031122Y026002D02*
X031082Y025962D01*
X031082Y025802D01*
X031122Y026002D02*
X031202Y026002D01*
X031242Y025962D01*
X030404Y023352D02*
X030444Y023312D01*
X030284Y023152D01*
X030324Y023112D01*
X030404Y023112D01*
X030444Y023152D01*
X030444Y023312D01*
X030404Y023352D02*
X030324Y023352D01*
X030284Y023312D01*
X030284Y023152D01*
X030168Y023112D02*
X030008Y023112D01*
X030088Y023112D02*
X030088Y023352D01*
X030008Y023272D01*
X029892Y023312D02*
X029892Y023232D01*
X029852Y023192D01*
X029732Y023192D01*
X029812Y023192D02*
X029892Y023112D01*
X029732Y023112D02*
X029732Y023352D01*
X029852Y023352D01*
X029892Y023312D01*
X029852Y022302D02*
X029732Y022302D01*
X029732Y022062D01*
X029732Y022142D02*
X029852Y022142D01*
X029892Y022182D01*
X029892Y022262D01*
X029852Y022302D01*
X030008Y022262D02*
X030008Y022222D01*
X030048Y022182D01*
X030168Y022182D01*
X030168Y022262D02*
X030128Y022302D01*
X030048Y022302D01*
X030008Y022262D01*
X030168Y022262D02*
X030168Y022102D01*
X030128Y022062D01*
X030048Y022062D01*
X030008Y022102D01*
X029892Y022062D02*
X029812Y022142D01*
X029582Y017250D02*
X029622Y017210D01*
X029622Y017130D01*
X029582Y017090D01*
X029502Y017090D02*
X029462Y017170D01*
X029462Y017210D01*
X029502Y017250D01*
X029582Y017250D01*
X029502Y017090D02*
X029381Y017090D01*
X029381Y017250D01*
X029502Y016974D02*
X029502Y016814D01*
X029381Y016934D01*
X029622Y016934D01*
X029622Y016698D02*
X029622Y016538D01*
X029462Y016698D01*
X029421Y016698D01*
X029381Y016658D01*
X029381Y016578D01*
X029421Y016538D01*
X029421Y016422D02*
X029381Y016382D01*
X029381Y016302D01*
X029421Y016262D01*
X029582Y016262D01*
X029622Y016302D01*
X029622Y016382D01*
X029582Y016422D01*
X029635Y016002D02*
X029635Y015762D01*
X029555Y015762D02*
X029716Y015762D01*
X029555Y015922D02*
X029635Y016002D01*
X029439Y015962D02*
X029399Y016002D01*
X029319Y016002D01*
X029279Y015962D01*
X029439Y015962D02*
X029439Y015922D01*
X029279Y015762D01*
X029439Y015762D01*
X029163Y015762D02*
X029003Y015762D01*
X029083Y015762D02*
X029083Y016002D01*
X029003Y015922D01*
X028887Y015962D02*
X028887Y015882D01*
X028847Y015842D01*
X028727Y015842D01*
X028807Y015842D02*
X028887Y015762D01*
X028727Y015762D02*
X028727Y016002D01*
X028847Y016002D01*
X028887Y015962D01*
X028882Y015302D02*
X029002Y015302D01*
X029042Y015262D01*
X029042Y015182D01*
X029002Y015142D01*
X028882Y015142D01*
X028962Y015142D02*
X029042Y015062D01*
X028882Y015062D02*
X028882Y015302D01*
X028722Y015096D02*
X028722Y014935D01*
X028722Y015015D02*
X028481Y015015D01*
X028562Y014935D01*
X028521Y014819D02*
X028481Y014779D01*
X028481Y014699D01*
X028521Y014659D01*
X028682Y014659D01*
X028722Y014699D01*
X028722Y014779D01*
X028682Y014819D01*
X028882Y014862D02*
X028922Y014902D01*
X029002Y014902D01*
X029042Y014862D01*
X029158Y014822D02*
X029238Y014902D01*
X029238Y014662D01*
X029158Y014662D02*
X029318Y014662D01*
X029434Y014782D02*
X029594Y014782D01*
X029554Y014902D02*
X029434Y014782D01*
X029554Y014662D02*
X029554Y014902D01*
X029278Y015062D02*
X029278Y015302D01*
X029158Y015182D01*
X029318Y015182D01*
X028882Y014862D02*
X028882Y014702D01*
X028922Y014662D01*
X029002Y014662D01*
X029042Y014702D01*
X028322Y014659D02*
X028081Y014659D01*
X028081Y014779D01*
X028121Y014819D01*
X028202Y014819D01*
X028242Y014779D01*
X028242Y014659D01*
X028242Y014739D02*
X028322Y014819D01*
X028322Y014935D02*
X028322Y015096D01*
X028322Y015015D02*
X028081Y015015D01*
X028162Y014935D01*
X027966Y015102D02*
X027926Y015062D01*
X027845Y015062D01*
X027805Y015102D01*
X027885Y015182D02*
X027926Y015182D01*
X027966Y015142D01*
X027966Y015102D01*
X027926Y015182D02*
X027966Y015222D01*
X027966Y015262D01*
X027926Y015302D01*
X027845Y015302D01*
X027805Y015262D01*
X027689Y015262D02*
X027689Y015182D01*
X027649Y015142D01*
X027529Y015142D01*
X027609Y015142D02*
X027689Y015062D01*
X027529Y015062D02*
X027529Y015302D01*
X027649Y015302D01*
X027689Y015262D01*
X027422Y015096D02*
X027422Y014935D01*
X027262Y015096D01*
X027221Y015096D01*
X027181Y015056D01*
X027181Y014975D01*
X027221Y014935D01*
X027221Y014819D02*
X027181Y014779D01*
X027181Y014659D01*
X027422Y014659D01*
X027342Y014659D02*
X027342Y014779D01*
X027302Y014819D01*
X027221Y014819D01*
X027342Y014739D02*
X027422Y014819D01*
X027022Y014779D02*
X026982Y014819D01*
X027022Y014779D02*
X027022Y014699D01*
X026982Y014659D01*
X026821Y014659D01*
X026781Y014699D01*
X026781Y014779D01*
X026821Y014819D01*
X026821Y014935D02*
X026781Y014975D01*
X026781Y015056D01*
X026821Y015096D01*
X026862Y015096D01*
X027022Y014935D01*
X027022Y015096D01*
X026622Y015069D02*
X026622Y014909D01*
X026622Y014989D02*
X026381Y014989D01*
X026462Y014909D01*
X026421Y014793D02*
X026381Y014753D01*
X026381Y014673D01*
X026421Y014633D01*
X026582Y014633D01*
X026622Y014673D01*
X026622Y014753D01*
X026582Y014793D01*
X026222Y014819D02*
X026142Y014739D01*
X026142Y014779D02*
X026142Y014659D01*
X026222Y014659D02*
X025981Y014659D01*
X025981Y014779D01*
X026021Y014819D01*
X026102Y014819D01*
X026142Y014779D01*
X026182Y014935D02*
X026222Y014975D01*
X026222Y015056D01*
X026182Y015096D01*
X026102Y015096D01*
X026062Y015056D01*
X026062Y015015D01*
X026102Y014935D01*
X025981Y014935D01*
X025981Y015096D01*
X025822Y015029D02*
X025822Y014949D01*
X025782Y014909D01*
X025742Y014909D01*
X025702Y014949D01*
X025702Y015029D01*
X025742Y015069D01*
X025782Y015069D01*
X025822Y015029D01*
X025702Y015029D02*
X025662Y015069D01*
X025621Y015069D01*
X025581Y015029D01*
X025581Y014949D01*
X025621Y014909D01*
X025662Y014909D01*
X025702Y014949D01*
X025782Y014793D02*
X025822Y014753D01*
X025822Y014673D01*
X025782Y014633D01*
X025621Y014633D01*
X025581Y014673D01*
X025581Y014753D01*
X025621Y014793D01*
X025621Y015185D02*
X025581Y015225D01*
X025581Y015305D01*
X025621Y015346D01*
X025782Y015185D01*
X025822Y015225D01*
X025822Y015305D01*
X025782Y015346D01*
X025621Y015346D01*
X025621Y015185D02*
X025782Y015185D01*
X026381Y015225D02*
X026381Y015305D01*
X026421Y015346D01*
X026462Y015346D01*
X026502Y015305D01*
X026542Y015346D01*
X026582Y015346D01*
X026622Y015305D01*
X026622Y015225D01*
X026582Y015185D01*
X026502Y015265D02*
X026502Y015305D01*
X026421Y015185D02*
X026381Y015225D01*
X025820Y015802D02*
X025820Y015962D01*
X025780Y016002D01*
X025700Y016002D01*
X025660Y015962D01*
X025660Y015922D01*
X025700Y015882D01*
X025820Y015882D01*
X025820Y015802D02*
X025780Y015762D01*
X025700Y015762D01*
X025660Y015802D01*
X025544Y015802D02*
X025504Y015762D01*
X025424Y015762D01*
X025384Y015802D01*
X025544Y015962D01*
X025544Y015802D01*
X025544Y015962D02*
X025504Y016002D01*
X025424Y016002D01*
X025384Y015962D01*
X025384Y015802D01*
X025268Y015762D02*
X025108Y015762D01*
X025188Y015762D02*
X025188Y016002D01*
X025108Y015922D01*
X024992Y015962D02*
X024952Y016002D01*
X024872Y016002D01*
X024832Y015962D01*
X024832Y015802D01*
X024872Y015762D01*
X024952Y015762D01*
X024992Y015802D01*
X025032Y016362D02*
X025032Y016602D01*
X025152Y016602D01*
X025192Y016562D01*
X025192Y016482D01*
X025152Y016442D01*
X025032Y016442D01*
X025112Y016442D02*
X025192Y016362D01*
X025308Y016402D02*
X025348Y016362D01*
X025428Y016362D01*
X025468Y016402D01*
X025468Y016442D01*
X025428Y016482D01*
X025388Y016482D01*
X025428Y016482D02*
X025468Y016522D01*
X025468Y016562D01*
X025428Y016602D01*
X025348Y016602D01*
X025308Y016562D01*
X025584Y016562D02*
X025624Y016602D01*
X025704Y016602D01*
X025744Y016562D01*
X025584Y016402D01*
X025624Y016362D01*
X025704Y016362D01*
X025744Y016402D01*
X025744Y016562D01*
X025584Y016562D02*
X025584Y016402D01*
X025175Y015002D02*
X025095Y015002D01*
X025055Y014962D01*
X025055Y014922D01*
X025095Y014882D01*
X025175Y014882D01*
X025216Y014842D01*
X025216Y014802D01*
X025175Y014762D01*
X025095Y014762D01*
X025055Y014802D01*
X025055Y014842D01*
X025095Y014882D01*
X025175Y014882D02*
X025216Y014922D01*
X025216Y014962D01*
X025175Y015002D01*
X024939Y014962D02*
X024779Y014802D01*
X024819Y014762D01*
X024899Y014762D01*
X024939Y014802D01*
X024939Y014962D01*
X024899Y015002D01*
X024819Y015002D01*
X024779Y014962D01*
X024779Y014802D01*
X024663Y014762D02*
X024503Y014762D01*
X024583Y014762D02*
X024583Y015002D01*
X024503Y014922D01*
X024387Y014962D02*
X024347Y015002D01*
X024267Y015002D01*
X024227Y014962D01*
X024227Y014802D01*
X024267Y014762D01*
X024347Y014762D01*
X024387Y014802D01*
X030381Y012805D02*
X030421Y012846D01*
X030462Y012846D01*
X030502Y012805D01*
X030542Y012846D01*
X030582Y012846D01*
X030622Y012805D01*
X030622Y012725D01*
X030582Y012685D01*
X030502Y012765D02*
X030502Y012805D01*
X030381Y012805D02*
X030381Y012725D01*
X030421Y012685D01*
X030421Y012569D02*
X030502Y012569D01*
X030542Y012529D01*
X030542Y012409D01*
X030622Y012409D02*
X030381Y012409D01*
X030381Y012529D01*
X030421Y012569D01*
X030542Y012489D02*
X030622Y012569D01*
X030542Y012293D02*
X030381Y012293D01*
X030381Y012133D02*
X030542Y012133D01*
X030622Y012213D01*
X030542Y012293D01*
X033031Y013062D02*
X033031Y013182D01*
X033071Y013222D01*
X033232Y013222D01*
X033272Y013182D01*
X033272Y013062D01*
X033031Y013062D01*
X033152Y013338D02*
X033152Y013458D01*
X033192Y013498D01*
X033232Y013498D01*
X033272Y013458D01*
X033272Y013378D01*
X033232Y013338D01*
X033152Y013338D01*
X033071Y013418D01*
X033031Y013498D01*
X037482Y017862D02*
X037482Y018102D01*
X037482Y017982D02*
X037642Y017982D01*
X037642Y018102D02*
X037642Y017862D01*
X037758Y017902D02*
X037798Y017862D01*
X037878Y017862D01*
X037918Y017902D01*
X037918Y018062D01*
X037878Y018102D01*
X037798Y018102D01*
X037758Y018062D01*
X037758Y017902D01*
X038034Y017902D02*
X038074Y017862D01*
X038154Y017862D01*
X038194Y017902D01*
X038194Y017942D01*
X038154Y017982D01*
X038074Y017982D01*
X038034Y018022D01*
X038034Y018062D01*
X038074Y018102D01*
X038154Y018102D01*
X038194Y018062D01*
X038310Y018102D02*
X038470Y018102D01*
X038390Y018102D02*
X038390Y017862D01*
X038587Y017862D02*
X038747Y018022D01*
X038747Y018062D01*
X038707Y018102D01*
X038627Y018102D01*
X038587Y018062D01*
X038587Y017862D02*
X038747Y017862D01*
X039203Y018002D02*
X039243Y017962D01*
X039323Y017962D01*
X039363Y018002D01*
X039479Y018002D02*
X039479Y017962D01*
X039479Y018002D02*
X039639Y018162D01*
X039639Y018202D01*
X039479Y018202D01*
X039363Y018162D02*
X039323Y018202D01*
X039243Y018202D01*
X039203Y018162D01*
X039203Y018002D01*
X039755Y018002D02*
X039755Y018042D01*
X039795Y018082D01*
X039875Y018082D01*
X039916Y018042D01*
X039916Y018002D01*
X039875Y017962D01*
X039795Y017962D01*
X039755Y018002D01*
X039795Y018082D02*
X039755Y018122D01*
X039755Y018162D01*
X039795Y018202D01*
X039875Y018202D01*
X039916Y018162D01*
X039916Y018122D01*
X039875Y018082D01*
X040753Y018352D02*
X040793Y018312D01*
X040873Y018312D01*
X040913Y018352D01*
X041029Y018352D02*
X041029Y018312D01*
X041029Y018352D02*
X041189Y018512D01*
X041189Y018552D01*
X041029Y018552D01*
X040913Y018512D02*
X040873Y018552D01*
X040793Y018552D01*
X040753Y018512D01*
X040753Y018352D01*
X041305Y018352D02*
X041345Y018312D01*
X041425Y018312D01*
X041466Y018352D01*
X041466Y018512D01*
X041425Y018552D01*
X041345Y018552D01*
X041305Y018512D01*
X041305Y018472D01*
X041345Y018432D01*
X041466Y018432D01*
X038469Y018392D02*
X038469Y018352D01*
X038429Y018312D01*
X038309Y018312D01*
X038309Y018552D01*
X038429Y018552D01*
X038469Y018512D01*
X038469Y018472D01*
X038429Y018432D01*
X038309Y018432D01*
X038429Y018432D02*
X038469Y018392D01*
X038193Y018392D02*
X038193Y018352D01*
X038153Y018312D01*
X038073Y018312D01*
X038033Y018352D01*
X038073Y018432D02*
X038153Y018432D01*
X038193Y018392D01*
X038193Y018512D02*
X038153Y018552D01*
X038073Y018552D01*
X038033Y018512D01*
X038033Y018472D01*
X038073Y018432D01*
X037917Y018352D02*
X037917Y018552D01*
X037757Y018552D02*
X037757Y018352D01*
X037797Y018312D01*
X037877Y018312D01*
X037917Y018352D01*
X037898Y021612D02*
X037978Y021612D01*
X038018Y021652D01*
X038018Y021812D01*
X037978Y021852D01*
X037898Y021852D01*
X037858Y021812D01*
X037858Y021652D01*
X037898Y021612D01*
X037742Y021612D02*
X037742Y021852D01*
X037742Y021732D02*
X037582Y021732D01*
X037582Y021612D02*
X037582Y021852D01*
X037782Y022052D02*
X037822Y022012D01*
X037902Y022012D01*
X037942Y022052D01*
X037942Y022252D01*
X038058Y022212D02*
X038058Y022172D01*
X038098Y022132D01*
X038178Y022132D01*
X038218Y022092D01*
X038218Y022052D01*
X038178Y022012D01*
X038098Y022012D01*
X038058Y022052D01*
X038058Y022212D02*
X038098Y022252D01*
X038178Y022252D01*
X038218Y022212D01*
X038334Y022252D02*
X038454Y022252D01*
X038494Y022212D01*
X038494Y022172D01*
X038454Y022132D01*
X038334Y022132D01*
X038334Y022012D02*
X038334Y022252D01*
X038454Y022132D02*
X038494Y022092D01*
X038494Y022052D01*
X038454Y022012D01*
X038334Y022012D01*
X038410Y021852D02*
X038570Y021852D01*
X038490Y021852D02*
X038490Y021612D01*
X038687Y021612D02*
X038847Y021612D01*
X038767Y021612D02*
X038767Y021852D01*
X038687Y021772D01*
X038294Y021812D02*
X038254Y021852D01*
X038174Y021852D01*
X038134Y021812D01*
X038134Y021772D01*
X038174Y021732D01*
X038254Y021732D01*
X038294Y021692D01*
X038294Y021652D01*
X038254Y021612D01*
X038174Y021612D01*
X038134Y021652D01*
X037782Y022052D02*
X037782Y022252D01*
X037775Y025262D02*
X037695Y025262D01*
X037655Y025302D01*
X037655Y025382D02*
X037735Y025422D01*
X037775Y025422D01*
X037816Y025382D01*
X037816Y025302D01*
X037775Y025262D01*
X037655Y025382D02*
X037655Y025502D01*
X037816Y025502D01*
X037539Y025502D02*
X037459Y025462D01*
X037379Y025382D01*
X037499Y025382D01*
X037539Y025342D01*
X037539Y025302D01*
X037499Y025262D01*
X037419Y025262D01*
X037379Y025302D01*
X037379Y025382D01*
X037263Y025262D02*
X037183Y025342D01*
X039281Y025332D02*
X039281Y025252D01*
X039321Y025212D01*
X039482Y025212D01*
X039522Y025252D01*
X039522Y025332D01*
X039482Y025372D01*
X039522Y025488D02*
X039522Y025648D01*
X039522Y025568D02*
X039281Y025568D01*
X039362Y025488D01*
X039321Y025372D02*
X039281Y025332D01*
X039402Y025764D02*
X039402Y025884D01*
X039442Y025924D01*
X039482Y025924D01*
X039522Y025884D01*
X039522Y025804D01*
X039482Y025764D01*
X039402Y025764D01*
X039321Y025844D01*
X039281Y025924D01*
X039321Y026040D02*
X039281Y026080D01*
X039281Y026160D01*
X039321Y026200D01*
X039482Y026040D01*
X039522Y026080D01*
X039522Y026160D01*
X039482Y026200D01*
X039321Y026200D01*
X039321Y026040D02*
X039482Y026040D01*
X039476Y026637D02*
X039395Y026637D01*
X039355Y026677D01*
X039435Y026757D02*
X039476Y026757D01*
X039516Y026717D01*
X039516Y026677D01*
X039476Y026637D01*
X039476Y026757D02*
X039516Y026797D01*
X039516Y026837D01*
X039476Y026877D01*
X039395Y026877D01*
X039355Y026837D01*
X039239Y026837D02*
X039199Y026877D01*
X039079Y026877D01*
X039079Y026637D01*
X039199Y026637D01*
X039239Y026677D01*
X039239Y026837D01*
X039218Y028687D02*
X039218Y028947D01*
X039131Y028860D01*
X039131Y028687D02*
X039304Y028687D01*
X039010Y028687D02*
X038836Y028687D01*
X038923Y028687D02*
X038923Y028947D01*
X038836Y028860D01*
X038715Y028687D02*
X038542Y028687D01*
X038542Y028947D01*
X042272Y021852D02*
X042232Y021812D01*
X042232Y021652D01*
X042272Y021612D01*
X042352Y021612D01*
X042392Y021652D01*
X042508Y021652D02*
X042508Y021612D01*
X042508Y021652D02*
X042668Y021812D01*
X042668Y021852D01*
X042508Y021852D01*
X042392Y021812D02*
X042352Y021852D01*
X042272Y021852D01*
X042784Y021812D02*
X042824Y021852D01*
X042904Y021852D01*
X042944Y021812D01*
X042944Y021772D01*
X042784Y021612D01*
X042944Y021612D01*
X042744Y011052D02*
X042744Y010812D01*
X042584Y011052D01*
X042584Y010812D01*
X042468Y010812D02*
X042468Y010972D01*
X042388Y011052D01*
X042308Y010972D01*
X042308Y010812D01*
X042192Y010812D02*
X042032Y010812D01*
X042032Y011052D01*
X042308Y010932D02*
X042468Y010932D01*
X041473Y010932D02*
X041433Y010892D01*
X041313Y010892D01*
X041313Y010812D02*
X041313Y011052D01*
X041433Y011052D01*
X041473Y011012D01*
X041473Y010932D01*
X041197Y010852D02*
X041197Y011052D01*
X041037Y011052D02*
X041037Y010852D01*
X041077Y010812D01*
X041157Y010812D01*
X041197Y010852D01*
X040920Y010812D02*
X040800Y010932D01*
X040760Y010892D02*
X040920Y011052D01*
X040760Y011052D02*
X040760Y010812D01*
X040644Y010852D02*
X040604Y010812D01*
X040524Y010812D01*
X040484Y010852D01*
X040484Y011012D01*
X040524Y011052D01*
X040604Y011052D01*
X040644Y011012D01*
X040368Y010972D02*
X040368Y010812D01*
X040368Y010932D02*
X040208Y010932D01*
X040208Y010972D02*
X040208Y010812D01*
X040092Y010852D02*
X040052Y010812D01*
X039932Y010812D01*
X039932Y011052D01*
X040052Y011052D01*
X040092Y011012D01*
X040092Y010972D01*
X040052Y010932D01*
X039932Y010932D01*
X040052Y010932D02*
X040092Y010892D01*
X040092Y010852D01*
X040208Y010972D02*
X040288Y011052D01*
X040368Y010972D01*
D16*
X013163Y011167D02*
X013163Y011719D01*
X013163Y013451D02*
X013163Y014002D01*
X010098Y014110D02*
X010098Y011049D01*
X009541Y011049D01*
X009541Y011522D01*
X009541Y011916D02*
X009541Y012388D01*
X009541Y012782D02*
X009541Y013254D01*
X009541Y013648D02*
X009541Y014120D01*
X010098Y014120D01*
D17*
X011871Y012965D02*
X011951Y012965D01*
X011978Y012938D01*
X011978Y012831D01*
X011951Y012805D01*
X011871Y012805D01*
X011871Y012965D01*
X012055Y012885D02*
X012162Y012885D01*
X012108Y012638D02*
X012108Y012531D01*
X012055Y012585D02*
X012162Y012585D01*
X011978Y012638D02*
X011951Y012665D01*
X011871Y012665D01*
X011871Y012505D01*
X011951Y012505D01*
X011978Y012531D01*
X011978Y012638D01*
X011994Y012365D02*
X012074Y012365D01*
X012100Y012338D01*
X012100Y012231D01*
X012074Y012205D01*
X011994Y012205D01*
X011994Y012365D01*
X011924Y012365D02*
X011871Y012365D01*
X011898Y012365D02*
X011898Y012205D01*
X011924Y012205D02*
X011871Y012205D01*
X012473Y011672D02*
X012473Y011565D01*
X012499Y011539D01*
X012553Y011539D01*
X012579Y011565D01*
X012579Y011619D01*
X012526Y011619D01*
X012473Y011672D02*
X012499Y011699D01*
X012553Y011699D01*
X012579Y011672D01*
X012657Y011699D02*
X012764Y011539D01*
X012764Y011699D01*
X012841Y011699D02*
X012921Y011699D01*
X012948Y011672D01*
X012948Y011565D01*
X012921Y011539D01*
X012841Y011539D01*
X012841Y011699D01*
X012657Y011699D02*
X012657Y011539D01*
X012684Y013468D02*
X012737Y013468D01*
X012764Y013494D01*
X012764Y013628D01*
X012841Y013601D02*
X012841Y013575D01*
X012868Y013548D01*
X012921Y013548D01*
X012948Y013521D01*
X012948Y013494D01*
X012921Y013468D01*
X012868Y013468D01*
X012841Y013494D01*
X012841Y013601D02*
X012868Y013628D01*
X012921Y013628D01*
X012948Y013601D01*
X012657Y013628D02*
X012657Y013494D01*
X012684Y013468D01*
X012579Y013494D02*
X012553Y013468D01*
X012473Y013468D01*
X012473Y013628D01*
X012553Y013628D01*
X012579Y013601D01*
X012579Y013575D01*
X012553Y013548D01*
X012473Y013548D01*
X012553Y013548D02*
X012579Y013521D01*
X012579Y013494D01*
X012395Y013521D02*
X012395Y013628D01*
X012289Y013628D02*
X012289Y013521D01*
X012342Y013468D01*
X012395Y013521D01*
X017883Y025965D02*
X017920Y025965D01*
X017958Y026002D01*
X017958Y026040D01*
X018032Y026076D02*
X018107Y026151D01*
X018070Y026114D02*
X017956Y026227D01*
X017956Y026151D01*
X017883Y026116D02*
X017845Y026116D01*
X017807Y026078D01*
X017807Y026040D01*
X017883Y025965D01*
X018162Y026206D02*
X018237Y026282D01*
X018200Y026244D02*
X018087Y026357D01*
X018087Y026282D01*
X018198Y026431D02*
X018198Y026468D01*
X018236Y026506D01*
X018273Y026506D01*
X018292Y026487D01*
X018292Y026450D01*
X018330Y026450D01*
X018349Y026431D01*
X018349Y026393D01*
X018311Y026355D01*
X018273Y026355D01*
X018273Y026431D02*
X018292Y026450D01*
D18*
X040277Y027382D03*
D19*
X032652Y031582D03*
X032652Y032082D03*
X032152Y032082D03*
X032152Y031582D03*
X031652Y031582D03*
X031652Y032082D03*
X031152Y032082D03*
X031152Y031582D03*
X030652Y031582D03*
X030652Y032082D03*
X030152Y032082D03*
X030152Y031582D03*
X029652Y031582D03*
X029652Y032082D03*
X029152Y032082D03*
X029152Y031582D03*
X028652Y031582D03*
X028652Y032082D03*
X028152Y032082D03*
X028152Y031582D03*
X027652Y031582D03*
X027652Y032082D03*
X027152Y032082D03*
X027152Y031582D03*
X026652Y031582D03*
X026652Y032082D03*
X026152Y032082D03*
X026152Y031582D03*
X025652Y031582D03*
X025652Y032082D03*
X025152Y032082D03*
X025152Y031582D03*
X024652Y031582D03*
X024652Y032082D03*
X024152Y032082D03*
X024152Y031582D03*
X023652Y031582D03*
X023652Y032082D03*
X023152Y032082D03*
X023152Y031582D03*
X023402Y029582D03*
X023902Y029582D03*
X024402Y029582D03*
X024902Y029582D03*
X025402Y029582D03*
X025902Y029582D03*
X026402Y029582D03*
X026902Y029582D03*
X027402Y029582D03*
X027902Y029582D03*
X028402Y029582D03*
X028902Y029582D03*
X029402Y029582D03*
X029902Y029582D03*
X029902Y029082D03*
X029402Y029082D03*
X028902Y029082D03*
X028402Y029082D03*
X027902Y029082D03*
X027402Y029082D03*
X026902Y029082D03*
X026402Y029082D03*
X025902Y029082D03*
X025402Y029082D03*
X024902Y029082D03*
X024402Y029082D03*
X023902Y029082D03*
X023402Y029082D03*
X022902Y029082D03*
X022902Y029582D03*
X022402Y029582D03*
X022402Y029082D03*
X021902Y029082D03*
X021902Y029582D03*
X021402Y029582D03*
X021402Y029082D03*
X020902Y029082D03*
X020902Y029582D03*
X020402Y029582D03*
X020402Y029082D03*
X016252Y029232D03*
X016252Y029732D03*
X015752Y029732D03*
X015752Y029232D03*
X015752Y028732D03*
X016252Y028732D03*
X016252Y028232D03*
X015752Y028232D03*
X015752Y030232D03*
X015752Y030732D03*
X015752Y031232D03*
X015752Y031732D03*
X015752Y032232D03*
X015752Y032732D03*
X016252Y032732D03*
X016252Y032232D03*
X016252Y031732D03*
X016252Y031232D03*
X016252Y030732D03*
X016252Y030232D03*
X020402Y013582D03*
X020902Y013582D03*
X021402Y013582D03*
X021902Y013582D03*
X022402Y013582D03*
X022902Y013582D03*
X023402Y013582D03*
X023902Y013582D03*
X024402Y013582D03*
X024902Y013582D03*
X025402Y013582D03*
X025902Y013582D03*
X026402Y013582D03*
X026902Y013582D03*
X027402Y013582D03*
X027902Y013582D03*
X028402Y013582D03*
X028902Y013582D03*
X029402Y013582D03*
X029902Y013582D03*
X029902Y013082D03*
X029402Y013082D03*
X028902Y013082D03*
X028402Y013082D03*
X027902Y013082D03*
X027402Y013082D03*
X026902Y013082D03*
X026402Y013082D03*
X025902Y013082D03*
X025402Y013082D03*
X024902Y013082D03*
X024402Y013082D03*
X023902Y013082D03*
X023402Y013082D03*
X022902Y013082D03*
X022402Y013082D03*
X021902Y013082D03*
X021402Y013082D03*
X020902Y013082D03*
X020402Y013082D03*
X023152Y011082D03*
X023652Y011082D03*
X024152Y011082D03*
X024652Y011082D03*
X025152Y011082D03*
X025652Y011082D03*
X026152Y011082D03*
X026652Y011082D03*
X027152Y011082D03*
X027652Y011082D03*
X028152Y011082D03*
X028652Y011082D03*
X029152Y011082D03*
X029652Y011082D03*
X030152Y011082D03*
X030652Y011082D03*
X031152Y011082D03*
X031652Y011082D03*
X032152Y011082D03*
X032652Y011082D03*
X032652Y010582D03*
X032152Y010582D03*
X031652Y010582D03*
X031152Y010582D03*
X030652Y010582D03*
X030152Y010582D03*
X029652Y010582D03*
X029152Y010582D03*
X028652Y010582D03*
X028152Y010582D03*
X027652Y010582D03*
X027152Y010582D03*
X026652Y010582D03*
X026152Y010582D03*
X025652Y010582D03*
X025152Y010582D03*
X024652Y010582D03*
X024152Y010582D03*
X023652Y010582D03*
X023152Y010582D03*
D20*
X014902Y023807D03*
M02*
