M48
; DRILL file {KiCad 5.1.6-c6e7f7d~87~ubuntu18.04.1} date Thu Oct  7 16:54:34 2021
; FORMAT={-:-/ absolute / inch / decimal}
; #@! TF.CreationDate,2021-10-07T16:54:34+03:00
; #@! TF.GenerationSoftware,Kicad,Pcbnew,5.1.6-c6e7f7d~87~ubuntu18.04.1
; #@! TF.FileFunction,Plated,1,8,PTH
FMAT,2
INCH
T1C0.0079
T2C0.0118
T3C0.0157
T4C0.0197
T5C0.0236
T6C0.0276
T7C0.0315
T8C0.0354
T9C0.0394
T10C0.0433
T11C0.0472
T12C0.0591
T13C0.1299
%
G90
G05
T1
X4.05Y-3.435
X4.15Y-3.4
X4.175Y-3.42
X4.175Y-3.685
X4.18Y-2.53
X4.29Y-3.215
X4.295Y-2.13
X4.305Y-2.645
X4.325Y-2.66
X4.335Y-2.615
X4.345Y-2.675
X4.355Y-2.625
X4.365Y-2.6
X4.4Y-3.93
X4.425Y-3.465
X4.465Y-3.24
X4.465Y-3.26
X4.465Y-3.28
X4.465Y-3.3
X4.47Y-3.17
X4.505Y-2.715
X4.515Y-2.79
X4.515Y-3.17
X4.52Y-2.835
X4.52Y-2.855
X4.52Y-2.875
X4.52Y-2.895
X4.52Y-2.915
X4.52Y-2.95
X4.52Y-2.97
X4.52Y-2.99
X4.52Y-3.01
X4.52Y-3.03
X4.52Y-3.065
X4.52Y-3.085
X4.52Y-3.105
X4.52Y-3.125
X4.52Y-3.145
X4.555Y-1.905
X4.555Y-1.93
X4.555Y-1.97
X4.56Y-2.14
X4.56Y-2.715
X4.58Y-1.97
X4.58Y-2.68
X4.58Y-3.975
X4.585Y-2.14
X4.5906Y-3.2087
X4.5906Y-3.2402
X4.5906Y-3.3661
X4.6Y-1.93
X4.605Y-1.97
X4.615Y-2.12
X4.62Y-3.58
X4.622Y-2.6732
X4.622Y-2.7047
X4.622Y-2.7362
X4.622Y-2.7677
X4.622Y-2.8622
X4.622Y-2.8937
X4.622Y-2.9252
X4.622Y-2.9567
X4.622Y-3.0472
X4.622Y-3.1457
X4.622Y-3.1772
X4.622Y-3.2441
X4.622Y-3.3346
X4.622Y-3.3661
X4.622Y-3.3976
X4.625Y-2.44
X4.645Y-2.17
X4.645Y-2.19
X4.645Y-2.225
X4.645Y-2.245
X4.645Y-2.28
X4.645Y-2.3
X4.645Y-2.335
X4.645Y-2.355
X4.65Y-2.44
X4.6535Y-2.6732
X4.6535Y-2.7047
X4.6535Y-2.7362
X4.6535Y-2.7677
X4.6535Y-2.8622
X4.6535Y-2.8937
X4.6535Y-2.9252
X4.6535Y-3.1457
X4.6535Y-3.2087
X4.6535Y-3.2402
X4.6535Y-3.3346
X4.6535Y-3.3976
X4.655Y-2.555
X4.665Y-2.21
X4.665Y-2.26
X4.665Y-2.315
X4.665Y-3.58
X4.67Y-3.56
X4.675Y-2.44
X4.685Y-2.6732
X4.685Y-2.7362
X4.685Y-2.8937
X4.685Y-2.9567
X4.685Y-3.1457
X4.685Y-3.1772
X4.685Y-3.3346
X4.685Y-3.3661
X4.685Y-3.3976
X4.685Y-3.4291
X4.695Y-2.555
X4.7119Y-2.095
X4.7165Y-2.6732
X4.7165Y-2.7362
X4.7165Y-2.7677
X4.7165Y-2.8622
X4.7165Y-2.8937
X4.7165Y-2.9252
X4.7165Y-2.9567
X4.7165Y-3.1457
X4.7165Y-3.1772
X4.7165Y-3.2087
X4.7165Y-3.2402
X4.7165Y-3.3346
X4.7165Y-3.3661
X4.748Y-2.6732
X4.748Y-2.7047
X4.748Y-2.7677
X4.748Y-2.8937
X4.748Y-2.9252
X4.748Y-2.9567
X4.748Y-3.2402
X4.748Y-3.3346
X4.748Y-3.3661
X4.748Y-3.4291
X4.755Y-2.51
X4.755Y-3.56
X4.77Y-2.555
X4.77Y-3.58
X4.775Y-3.91
X4.7795Y-2.6732
X4.7795Y-2.7047
X4.7795Y-2.7362
X4.7795Y-2.7677
X4.7795Y-3.1181
X4.7795Y-3.1457
X4.7795Y-3.1772
X4.7795Y-3.2087
X4.7795Y-3.2402
X4.7795Y-3.3346
X4.7795Y-3.3661
X4.78Y-3.56
X4.7854Y-3.315
X4.79Y-3.275
X4.79Y-3.295
X4.811Y-2.8622
X4.811Y-2.8937
X4.811Y-2.9252
X4.811Y-2.9567
X4.811Y-3.3346
X4.811Y-3.3661
X4.811Y-3.3976
X4.83Y-2.555
X4.83Y-3.58
X4.835Y-3.56
X4.84Y-2.53
X4.84Y-2.815
X4.84Y-2.835
X4.8425Y-2.7362
X4.8425Y-2.8937
X4.8425Y-2.9252
X4.8425Y-3.1457
X4.8425Y-3.1772
X4.8425Y-3.2087
X4.8425Y-3.2402
X4.8425Y-3.3661
X4.8425Y-3.3976
X4.8583Y-2.6693
X4.874Y-3.122
X4.874Y-3.1457
X4.874Y-3.1772
X4.874Y-3.2087
X4.874Y-3.2402
X4.874Y-3.3346
X4.874Y-3.3976
X4.88Y-2.55
X4.885Y-3.58
X4.89Y-3.285
X4.895Y-2.51
X4.9055Y-2.6732
X4.9055Y-2.7047
X4.9055Y-2.7362
X4.9055Y-2.7677
X4.9055Y-2.9252
X4.9055Y-2.9567
X4.9055Y-3.3661
X4.9055Y-3.4291
X4.91Y-3.285
X4.92Y-2.51
X4.937Y-3.1457
X4.937Y-3.1772
X4.937Y-3.2087
X4.937Y-3.2402
X4.937Y-3.3661
X4.937Y-3.4291
X4.9685Y-2.7047
X4.9685Y-2.7362
X4.9685Y-2.9252
X4.9685Y-2.9567
X4.9685Y-3.1457
X4.9685Y-3.1772
X4.9685Y-3.3661
X4.9685Y-3.3976
X4.9685Y-3.4291
X4.975Y-2.38
X4.975Y-2.51
X4.99Y-1.77
X5.0Y-2.7047
X5.0Y-2.7362
X5.0Y-2.7677
X5.0Y-2.8937
X5.0Y-2.9252
X5.0Y-2.9567
X5.0Y-3.3976
X5.0Y-3.4291
X5.0Y-3.975
X5.0315Y-2.7047
X5.0315Y-2.7362
X5.0315Y-2.7677
X5.0315Y-2.8937
X5.0315Y-2.9252
X5.0315Y-2.9567
X5.0315Y-3.1457
X5.0315Y-3.1772
X5.0315Y-3.3661
X5.0315Y-3.4291
X5.035Y-1.775
X5.035Y-2.51
X5.06Y-1.77
X5.063Y-2.7047
X5.063Y-2.7362
X5.063Y-2.7677
X5.063Y-2.8937
X5.063Y-2.9252
X5.063Y-2.9567
X5.063Y-3.3661
X5.063Y-3.4291
X5.09Y-2.51
X5.0945Y-2.7047
X5.0945Y-2.7362
X5.0945Y-2.7677
X5.0945Y-2.8937
X5.0945Y-2.9252
X5.0945Y-2.9567
X5.0945Y-3.1457
X5.0945Y-3.1772
X5.0945Y-3.4291
X5.1Y-2.37
X5.145Y-2.915
X5.15Y-2.51
X5.165Y-2.915
X5.175Y-1.855
X5.195Y-2.47
X5.195Y-2.49
X5.2Y-1.855
X5.2Y-2.425
X5.2Y-2.445
X5.205Y-3.595
X5.205Y-3.62
X5.21Y-3.975
X5.215Y-2.51
X5.2362Y-2.622
X5.24Y-3.635
X5.26Y-2.045
X5.26Y-2.99
X5.26Y-3.01
X5.2677Y-2.6378
X5.2677Y-2.6693
X5.2677Y-2.8268
X5.2717Y-2.5906
X5.2717Y-2.874
X5.2717Y-2.9055
X5.2717Y-3.063
X5.2717Y-3.189
X5.275Y-3.66
X5.29Y-2.045
X5.3031Y-2.5276
X5.3031Y-2.5591
X5.3031Y-2.5906
X5.3031Y-2.874
X5.3031Y-2.9055
X5.3031Y-2.9685
X5.3031Y-3.0
X5.3031Y-3.0315
X5.3031Y-3.063
X5.305Y-1.995
X5.315Y-2.045
X5.32Y-3.66
X5.3346Y-2.5276
X5.3346Y-2.5591
X5.3346Y-2.5906
X5.3346Y-2.622
X5.3346Y-2.811
X5.3346Y-2.874
X5.3346Y-2.9055
X5.3346Y-2.9685
X5.3346Y-3.0
X5.3346Y-3.0315
X5.3346Y-3.063
X5.3346Y-3.0945
X5.3346Y-3.1575
X5.355Y-3.61
X5.3661Y-2.5276
X5.3661Y-2.5591
X5.3661Y-2.5906
X5.3661Y-2.622
X5.3661Y-2.6535
X5.3661Y-2.685
X5.3661Y-2.7165
X5.3661Y-2.7795
X5.3661Y-2.811
X5.3661Y-2.8425
X5.3661Y-2.874
X5.3661Y-2.9055
X5.3661Y-2.937
X5.3661Y-2.9685
X5.3661Y-3.0
X5.3661Y-3.0315
X5.3661Y-3.063
X5.3661Y-3.0945
X5.3661Y-3.126
X5.375Y-3.62
X5.385Y-2.19
X5.395Y-3.455
X5.395Y-3.65
X5.3976Y-2.5276
X5.3976Y-2.622
X5.3976Y-2.685
X5.3976Y-2.7165
X5.3976Y-2.748
X5.3976Y-2.7795
X5.3976Y-2.811
X5.3976Y-2.8425
X5.3976Y-2.874
X5.3976Y-2.9055
X5.3976Y-2.937
X5.3976Y-2.9685
X5.3976Y-3.0
X5.3976Y-3.0315
X5.3976Y-3.063
X5.3976Y-3.0945
X5.3976Y-3.126
X5.3976Y-3.1575
X5.3976Y-3.189
X5.3976Y-3.2205
X5.4Y-3.9
X5.4134Y-2.5118
X5.42Y-1.8
X5.42Y-2.315
X5.4291Y-2.5906
X5.4291Y-2.622
X5.4291Y-2.6535
X5.4291Y-2.685
X5.4291Y-2.7165
X5.4291Y-2.7795
X5.4291Y-2.8425
X5.4291Y-2.9055
X5.4291Y-2.9685
X5.4291Y-3.0315
X5.4291Y-3.063
X5.4291Y-3.126
X5.4318Y-3.6089
X5.435Y-1.99
X5.435Y-3.89
X5.44Y-1.8
X5.445Y-2.315
X5.46Y-1.805
X5.4606Y-2.5906
X5.4606Y-2.622
X5.4606Y-2.6535
X5.4606Y-2.685
X5.4606Y-2.7165
X5.4606Y-2.748
X5.4606Y-2.7795
X5.4606Y-2.811
X5.4606Y-2.8425
X5.4606Y-2.9055
X5.4606Y-2.937
X5.4606Y-2.9685
X5.4606Y-3.0315
X5.4606Y-3.063
X5.4606Y-3.0945
X5.4606Y-3.126
X5.4606Y-3.1575
X5.465Y-1.785
X5.465Y-2.16
X5.47Y-2.31
X5.47Y-3.9
X5.4764Y-2.8819
X5.4794Y-3.5927
X5.4802Y-3.6339
X5.49Y-1.805
X5.4921Y-2.4567
X5.4921Y-2.4803
X5.4921Y-2.5906
X5.4921Y-2.622
X5.4921Y-2.6535
X5.4921Y-2.685
X5.4921Y-2.7165
X5.4921Y-2.9685
X5.4921Y-3.0315
X5.4921Y-3.063
X5.4921Y-3.0945
X5.4921Y-3.126
X5.4921Y-3.1575
X5.4921Y-3.2441
X5.4925Y-3.2208
X5.495Y-2.315
X5.5Y-1.995
X5.5Y-3.64
X5.505Y-3.29
X5.51Y-1.785
X5.515Y-2.05
X5.515Y-3.625
X5.515Y-3.89
X5.5236Y-2.4724
X5.5236Y-2.5
X5.5236Y-2.5276
X5.5236Y-2.5591
X5.5236Y-2.5906
X5.5236Y-2.622
X5.5236Y-2.6535
X5.5236Y-2.685
X5.5236Y-2.7165
X5.5236Y-2.748
X5.5236Y-2.7795
X5.5236Y-2.811
X5.5236Y-2.8425
X5.5236Y-2.9055
X5.5236Y-2.937
X5.5236Y-2.9685
X5.5236Y-3.0315
X5.5236Y-3.063
X5.5236Y-3.0945
X5.5236Y-3.126
X5.5236Y-3.1575
X5.525Y-2.03
X5.525Y-3.29
X5.535Y-2.285
X5.54Y-1.81
X5.54Y-1.995
X5.54Y-3.45
X5.54Y-3.475
X5.5551Y-2.5276
X5.5551Y-2.5591
X5.5551Y-2.5906
X5.5551Y-2.622
X5.5551Y-2.6535
X5.5551Y-2.685
X5.5551Y-2.748
X5.5551Y-2.7795
X5.5551Y-2.8425
X5.5551Y-2.874
X5.5551Y-2.9055
X5.5551Y-2.937
X5.5551Y-2.9685
X5.5551Y-3.0
X5.5551Y-3.0315
X5.5551Y-3.063
X5.5551Y-3.0945
X5.5551Y-3.126
X5.5551Y-3.1575
X5.5551Y-3.189
X5.56Y-1.785
X5.56Y-3.445
X5.56Y-3.495
X5.565Y-2.285
X5.575Y-2.195
X5.575Y-3.46
X5.58Y-2.3
X5.5866Y-2.5276
X5.5866Y-2.5591
X5.5866Y-2.5906
X5.5866Y-2.622
X5.5866Y-2.6535
X5.5866Y-2.685
X5.5866Y-2.7165
X5.5866Y-2.748
X5.5866Y-2.7795
X5.5866Y-2.811
X5.5866Y-2.8425
X5.5866Y-2.874
X5.5866Y-2.9055
X5.5866Y-2.937
X5.5866Y-3.0
X5.59Y-3.445
X5.595Y-3.635
X5.605Y-3.485
X5.6181Y-2.748
X5.6181Y-2.8425
X5.6181Y-2.874
X5.6181Y-2.9055
X5.6181Y-2.937
X5.6181Y-3.0
X5.6181Y-3.063
X5.6181Y-3.0945
X5.6181Y-3.126
X5.6181Y-3.1575
X5.6181Y-3.189
X5.62Y-1.99
X5.62Y-2.155
X5.62Y-3.87
X5.625Y-3.495
X5.625Y-3.605
X5.625Y-3.655
X5.625Y-3.84
X5.63Y-1.81
X5.64Y-2.05
X5.64Y-3.47
X5.64Y-3.855
X5.645Y-2.29
X5.645Y-3.885
X5.6496Y-2.5039
X5.6496Y-2.5276
X5.6496Y-2.5591
X5.6496Y-2.5906
X5.6496Y-2.622
X5.6496Y-2.6535
X5.6496Y-2.685
X5.6496Y-2.748
X5.6496Y-2.7795
X5.6496Y-2.811
X5.6496Y-2.8425
X5.6496Y-2.874
X5.6496Y-2.9055
X5.6496Y-2.9685
X5.6496Y-3.0
X5.6496Y-3.0315
X5.6496Y-3.063
X5.6496Y-3.0945
X5.6496Y-3.126
X5.6496Y-3.1575
X5.655Y-3.495
X5.6572Y-3.4467
X5.66Y-1.8
X5.66Y-2.305
X5.66Y-3.845
X5.675Y-1.99
X5.675Y-2.32
X5.675Y-3.625
X5.675Y-3.895
X5.68Y-1.775
X5.68Y-2.155
X5.6811Y-2.5276
X5.6811Y-2.5591
X5.6811Y-2.5906
X5.6811Y-2.622
X5.6811Y-2.6535
X5.6811Y-2.685
X5.6811Y-2.7795
X5.6811Y-2.811
X5.6811Y-2.8425
X5.6811Y-2.874
X5.6811Y-2.9055
X5.6811Y-2.937
X5.6811Y-2.9685
X5.6811Y-3.0
X5.6811Y-3.0315
X5.6811Y-3.063
X5.6811Y-3.0945
X5.6811Y-3.126
X5.6811Y-3.1575
X5.695Y-2.24
X5.7Y-2.17
X5.7Y-3.845
X5.71Y-3.885
X5.7126Y-2.5906
X5.7126Y-2.622
X5.7126Y-2.6535
X5.7126Y-2.685
X5.7126Y-2.7165
X5.7126Y-2.7795
X5.7126Y-2.811
X5.7126Y-2.8425
X5.7126Y-2.874
X5.7126Y-2.9055
X5.7126Y-2.937
X5.7126Y-3.0
X5.7126Y-3.063
X5.7126Y-3.0945
X5.7126Y-3.126
X5.7126Y-3.1575
X5.7126Y-3.189
X5.72Y-2.0
X5.725Y-1.77
X5.725Y-1.79
X5.725Y-2.24
X5.725Y-2.315
X5.73Y-3.66
X5.735Y-3.895
X5.74Y-2.01
X5.7441Y-2.5906
X5.7441Y-2.622
X5.7441Y-2.6535
X5.7441Y-2.685
X5.7441Y-2.7165
X5.7441Y-2.748
X5.7441Y-2.7795
X5.7441Y-2.811
X5.7441Y-2.9055
X5.7441Y-2.9685
X5.7441Y-3.0315
X5.7441Y-3.063
X5.7441Y-3.0945
X5.7441Y-3.126
X5.7441Y-3.1575
X5.745Y-2.05
X5.75Y-3.65
X5.75Y-3.86
X5.77Y-2.01
X5.7756Y-2.5906
X5.7756Y-2.622
X5.7756Y-2.6535
X5.7756Y-2.811
X5.7756Y-2.8425
X5.7756Y-2.874
X5.7756Y-2.9055
X5.7756Y-2.937
X5.7756Y-2.9685
X5.7756Y-3.063
X5.7756Y-3.0945
X5.7756Y-3.126
X5.7756Y-3.1575
X5.7756Y-3.189
X5.7756Y-3.2205
X5.78Y-3.88
X5.785Y-1.99
X5.785Y-3.66
X5.795Y-3.84
X5.8Y-3.64
X5.805Y-1.775
X5.8071Y-2.5906
X5.8071Y-2.622
X5.8071Y-2.6535
X5.8071Y-2.7165
X5.8071Y-2.748
X5.8071Y-2.7795
X5.8071Y-2.811
X5.8071Y-2.8425
X5.8071Y-2.874
X5.8071Y-2.9055
X5.8071Y-3.0
X5.8071Y-3.0315
X5.8071Y-3.063
X5.8071Y-3.0945
X5.8071Y-3.126
X5.8071Y-3.1575
X5.8071Y-3.189
X5.8071Y-3.2205
X5.815Y-2.05
X5.825Y-3.885
X5.83Y-1.77
X5.83Y-1.8
X5.8386Y-2.5906
X5.8386Y-2.622
X5.8386Y-2.6535
X5.8386Y-2.7165
X5.8386Y-2.748
X5.8386Y-2.7795
X5.8386Y-2.811
X5.8386Y-2.8425
X5.8386Y-2.874
X5.8386Y-2.937
X5.8386Y-2.9685
X5.8386Y-3.0
X5.8386Y-3.0315
X5.8386Y-3.063
X5.8386Y-3.0945
X5.8386Y-3.126
X5.845Y-3.65
X5.8543Y-2.5
X5.86Y-1.77
X5.86Y-1.8
X5.865Y-3.66
X5.87Y-3.845
X5.87Y-1.995
X5.8701Y-2.622
X5.8701Y-2.6535
X5.8701Y-2.7165
X5.8701Y-2.748
X5.8701Y-2.7795
X5.8701Y-2.811
X5.8701Y-2.8425
X5.8701Y-2.874
X5.8701Y-2.937
X5.8701Y-2.9685
X5.8701Y-3.0
X5.8701Y-3.0315
X5.8701Y-3.063
X5.8701Y-3.0945
X5.8701Y-3.126
X5.8701Y-3.1575
X5.8701Y-3.189
X5.878Y-2.5079
X5.88Y-2.16
X5.88Y-3.3314
X5.89Y-2.49
X5.8996Y-2.6516
X5.9Y-3.845
X5.9Y-3.895
X5.9016Y-2.5591
X5.9016Y-2.5906
X5.9016Y-2.622
X5.9016Y-2.7165
X5.9016Y-2.748
X5.9016Y-2.7795
X5.9016Y-2.811
X5.9016Y-2.8425
X5.9016Y-2.874
X5.9016Y-2.937
X5.9016Y-2.9685
X5.9016Y-3.0
X5.9016Y-3.0315
X5.9016Y-3.063
X5.9016Y-3.0945
X5.9016Y-3.126
X5.9016Y-3.1575
X5.9016Y-3.189
X5.91Y-1.77
X5.91Y-1.805
X5.91Y-3.335
X5.9139Y-2.03
X5.915Y-2.49
X5.925Y-2.18
X5.9289Y-1.9911
X5.93Y-2.25
X5.9331Y-2.5276
X5.9331Y-2.5591
X5.9331Y-2.622
X5.9331Y-2.7165
X5.9331Y-2.811
X5.9331Y-2.8425
X5.9331Y-2.874
X5.9331Y-3.0
X5.9331Y-3.063
X5.9331Y-3.0945
X5.9331Y-3.126
X5.9331Y-3.2205
X5.935Y-3.85
X5.95Y-1.8
X5.95Y-2.065
X5.95Y-2.2
X5.95Y-3.865
X5.96Y-1.77
X5.9611Y-2.8113
X5.9611Y-2.8425
X5.9611Y-2.874
X5.9618Y-2.6194
X5.9646Y-3.0
X5.9646Y-3.063
X5.9646Y-3.0945
X5.9646Y-3.126
X5.965Y-2.275
X5.965Y-2.465
X5.965Y-3.845
X5.97Y-3.865
X5.98Y-3.895
X5.985Y-1.79
X5.985Y-2.18
X5.985Y-2.21
X5.985Y-2.26
X5.985Y-2.285
X5.99Y-3.865
X5.995Y-3.0
X6.005Y-3.605
X6.005Y-3.63
X6.005Y-3.655
X6.005Y-3.68
X6.005Y-3.705
X6.01Y-1.965
X6.01Y-2.065
X6.01Y-2.09
X6.015Y-2.045
X6.02Y-1.79
X6.035Y-1.965
X6.04Y-1.805
X6.05Y-3.89
X6.055Y-2.8161
X6.055Y-3.445
X6.06Y-2.5
X6.06Y-2.53
X6.06Y-2.55
X6.0614Y-2.4739
X6.065Y-1.8
X6.065Y-1.945
X6.065Y-2.865
X6.08Y-2.4879
X6.08Y-2.5157
X6.08Y-2.55
X6.085Y-3.235
X6.09Y-1.805
X6.095Y-3.215
X6.095Y-3.62
X6.095Y-3.645
X6.095Y-3.67
X6.095Y-3.695
X6.0989Y-3.1864
X6.1Y-3.89
X6.115Y-3.2
X6.13Y-1.77
X6.165Y-2.03
X6.17Y-1.77
X6.171Y-3.72
X6.175Y-3.74
X6.1801Y-2.7402
X6.1869Y-3.7069
X6.195Y-1.77
X6.195Y-3.74
X6.215Y-3.74
X6.2193Y-2.5611
X6.2213Y-2.5904
X6.2281Y-2.4969
X6.23Y-3.725
X6.2375Y-3.3675
X6.2389Y-2.5739
X6.239Y-2.518
X6.255Y-1.77
X6.255Y-1.81
X6.26Y-1.91
X6.2745Y-2.8443
X6.2809Y-3.0256
X6.285Y-1.89
X6.285Y-1.915
X6.295Y-3.98
X6.2976Y-3.1085
X6.2986Y-2.8605
X6.3039Y-2.9423
X6.31Y-3.195
X6.315Y-3.0256
X6.3193Y-2.8593
X6.332Y-2.945
X6.3333Y-2.845
X6.3514Y-2.9551
X6.3541Y-2.5879
X6.355Y-2.6275
X6.3574Y-2.918
X6.365Y-3.69
X6.37Y-3.085
X6.379Y-2.914
X6.38Y-2.6124
X6.3813Y-3.04
X6.3822Y-2.8932
X6.39Y-3.01
X6.3957Y-2.9514
X6.3983Y-2.597
X6.4Y-3.07
X6.4026Y-2.89
X6.405Y-3.695
X6.41Y-3.02
X6.41Y-3.98
X6.4151Y-2.6269
X6.43Y-2.565
X6.434Y-2.6135
X6.455Y-2.005
X6.465Y-1.985
X6.485Y-1.985
X6.485Y-2.005
X6.4914Y-2.94
X6.495Y-2.92
X6.5Y-2.8836
X6.5121Y-2.7819
X6.5196Y-2.8468
X6.5225Y-2.8975
X6.5293Y-2.385
X6.53Y-3.98
X6.5325Y-2.7819
X6.5375Y-2.8275
X6.56Y-3.21
X6.56Y-3.24
X6.562Y-1.96
X6.575Y-3.87
X6.58Y-3.21
X6.583Y-1.942
X6.59Y-2.785
X6.6Y-3.21
X6.605Y-3.12
X6.6171Y-2.2586
X6.6246Y-2.2235
X6.635Y-2.245
X6.6475Y-2.2775
X6.6559Y-2.245
X6.6686Y-2.2779
X6.675Y-1.725
X6.755Y-3.05
X6.795Y-1.945
X6.91Y-3.055
X6.955Y-1.7
T2
X4.03Y-2.365
X4.03Y-2.46
X4.03Y-2.57
X4.03Y-2.785
X4.03Y-2.9
X4.03Y-3.01
X4.03Y-3.18
X4.03Y-3.45
X4.03Y-3.67
X4.03Y-3.81
X4.035Y-2.155
X4.055Y-1.84
X4.135Y-1.685
X4.145Y-1.88
X4.1482Y-1.83
X4.175Y-1.79
X4.18Y-1.7
X4.185Y-3.975
X4.225Y-1.72
X4.295Y-3.03
X4.31Y-3.975
X4.315Y-2.86
X4.32Y-3.19
X4.33Y-3.005
X4.33Y-3.055
X4.33Y-3.09
X4.335Y-3.6697
X4.335Y-3.7003
X4.345Y-3.74
X4.39Y-2.47
X4.41Y-3.235
X4.43Y-3.36
X4.43Y-3.935
X4.435Y-3.835
X4.445Y-1.835
X4.465Y-3.21
X4.465Y-3.33
X4.47Y-3.445
X4.475Y-3.495
X4.505Y-2.625
X4.51Y-2.66
X4.54Y-2.59
X4.555Y-3.525
X4.565Y-1.685
X4.565Y-3.56
X4.605Y-3.555
X4.74Y-2.22
X4.74Y-2.31
X4.745Y-2.415
X4.755Y-2.355
X4.78Y-2.4
X4.785Y-2.505
X4.8Y-2.15
X4.835Y-2.405
X4.865Y-2.515
X4.874Y-3.4409
X4.9Y-3.555
X4.99Y-2.36
X5.015Y-2.285
X5.02Y-2.36
X5.065Y-1.995
X5.075Y-3.475
X5.085Y-3.93
X5.135Y-3.455
X5.1655Y-3.9309
X5.19Y-3.455
X5.26Y-3.455
X5.2874Y-2.5039
X5.295Y-3.455
X5.36Y-3.455
X5.3857Y-3.4071
X5.395Y-3.315
X5.3957Y-3.252
X5.5Y-3.43
X5.5Y-3.46
X5.56Y-3.305
X5.58Y-3.36
X5.595Y-3.33
X6.0Y-3.485
X6.02Y-3.505
X6.02Y-3.535
X6.04Y-3.13
X6.05Y-3.105
X6.125Y-3.11
X6.1399Y-3.6749
X6.14Y-1.955
X6.155Y-3.455
X6.16Y-3.565
X6.17Y-3.885
X6.175Y-1.805
X6.2Y-1.955
X6.2293Y-2.9427
X6.2302Y-3.7
X6.2314Y-2.5412
X6.2612Y-3.3512
X6.27Y-3.1139
X6.2743Y-3.24
X6.285Y-3.33
X6.335Y-3.35
X6.345Y-3.705
X6.355Y-3.735
X6.375Y-3.305
X6.3763Y-2.5782
X6.421Y-2.5922
X6.475Y-2.175
X6.475Y-3.68
X6.485Y-2.07
X6.505Y-2.09
X6.505Y-2.175
X6.505Y-3.12
X6.51Y-3.585
X6.515Y-3.39
X6.515Y-3.66
X6.52Y-3.425
X6.535Y-3.485
X6.54Y-3.12
X6.55Y-2.2275
X6.55Y-2.255
X6.565Y-3.945
X6.575Y-3.695
X6.595Y-3.605
X6.62Y-1.885
X6.62Y-1.91
X6.7052Y-2.2582
X6.715Y-1.925
X6.7158Y-1.9
X6.7324Y-2.2492
X6.745Y-1.905
X6.745Y-1.93
X6.78Y-1.92
X6.795Y-2.36
X6.805Y-1.71
X6.82Y-2.31
X6.835Y-2.28
X6.84Y-1.99
X6.84Y-2.015
X6.84Y-2.085
X6.84Y-2.11
X6.84Y-2.17
X6.865Y-1.685
X6.87Y-1.99
X6.87Y-2.015
X6.87Y-2.05
X6.87Y-2.075
X6.89Y-3.12
X6.9Y-2.05
X6.9Y-2.075
X6.905Y-3.305
X6.905Y-3.405
X6.905Y-3.53
X6.905Y-3.65
X6.905Y-3.745
X6.915Y-2.445
X6.96Y-2.15
X6.965Y-2.065
X6.97Y-3.47
X6.97Y-3.595
X6.99Y-2.16
X7.025Y-3.405
X7.025Y-3.53
X7.025Y-3.65
X7.075Y-3.47
X7.075Y-3.595
X7.125Y-3.405
X7.125Y-3.53
X7.125Y-3.65
X7.17Y-1.685
X7.175Y-3.33
X7.175Y-3.47
X7.175Y-3.6
X7.175Y-3.725
X7.21Y-3.12
X7.215Y-2.765
X7.22Y-3.405
X7.22Y-3.53
X7.22Y-3.65
X7.275Y-1.855
X7.275Y-2.085
X7.275Y-2.445
X7.275Y-2.64
X7.275Y-3.03
X7.28Y-3.865
T3
X4.035Y-3.955
X4.07Y-3.585
X4.12Y-3.395
X4.43Y-3.97
X4.565Y-1.84
X4.605Y-1.87
X6.075Y-3.735
X6.33Y-3.43
X6.365Y-3.43
X6.3962Y-2.165
X6.56Y-2.9
X4.8052Y-2.28
X4.8347Y-2.28
X4.88Y-2.2052
X4.88Y-2.2347
X4.88Y-2.3253
X4.88Y-2.3548
X4.9253Y-2.28
X4.9548Y-2.28
T4
X6.0706Y-2.5893
T5
X4.135Y-2.075
X4.135Y-2.115
X4.155Y-3.735
X4.175Y-2.075
X4.19Y-3.825
X4.23Y-3.825
X4.255Y-1.85
X4.295Y-2.97
X4.3Y-1.85
X4.32Y-2.82
X4.34Y-3.59
X4.34Y-3.63
X4.405Y-2.06
X4.405Y-2.1
X4.415Y-2.295
X4.42Y-2.395
X4.42Y-2.435
X4.44Y-1.75
X4.44Y-1.79
X4.44Y-1.98
X4.44Y-2.02
X4.57Y-3.89
X4.585Y-2.595
X4.61Y-3.89
X4.625Y-2.575
X4.71Y-3.815
X4.72Y-3.72
X4.74Y-3.9
X4.7547Y-2.1543
X4.96Y-3.72
X4.985Y-3.54
X4.995Y-3.755
X5.005Y-1.815
X5.015Y-2.05
X5.025Y-3.485
X5.04Y-3.77
X5.095Y-2.03
X5.23Y-1.78
X5.255Y-1.825
X5.26Y-3.79
X5.265Y-3.95
X5.27Y-1.78
X5.365Y-1.795
X5.365Y-3.895
X5.43Y-2.045
X5.6748Y-3.2702
X5.8Y-3.455
X5.83Y-3.485
X5.91Y-3.605
X5.91Y-3.645
X6.03Y-3.735
X6.073Y-2.7932
X6.12Y-3.855
X6.185Y-2.06
X6.189Y-2.096
X6.21Y-1.995
X6.25Y-1.995
X6.3Y-2.08
X6.3Y-2.12
X6.3269Y-2.4308
X6.335Y-1.79
X6.355Y-1.755
X6.3777Y-2.4123
X6.4245Y-2.2605
X6.5042Y-2.5002
X6.51Y-2.255
X6.53Y-2.93
X6.61Y-3.02
X6.635Y-2.41
X6.675Y-2.41
X6.715Y-2.41
X6.78Y-2.45
X6.82Y-2.45
X6.86Y-2.45
X7.135Y-2.81
X7.15Y-3.18
X7.175Y-2.81
X7.19Y-3.18
X7.2Y-2.705
X7.2Y-3.08
X7.21Y-2.19
X7.24Y-2.705
X7.24Y-3.08
X4.761Y-1.8423
X4.761Y-3.8108
X4.7827Y-1.7852
X4.7827Y-1.8974
X4.7827Y-3.7537
X4.7827Y-3.8659
X4.8476Y-1.7557
X4.8476Y-1.9289
X4.8476Y-3.7242
X4.8476Y-3.8974
X4.9146Y-1.7852
X4.9146Y-1.8974
X4.9146Y-3.7537
X4.9146Y-3.8659
X4.9362Y-1.8423
X4.9362Y-3.8108
X6.3693Y-1.8423
X6.3693Y-3.8108
X6.3909Y-1.7852
X6.3909Y-1.8974
X6.3909Y-3.7537
X6.3909Y-3.8659
X6.4559Y-1.7557
X6.4559Y-1.9289
X6.4559Y-3.7242
X6.4559Y-3.8974
X6.5228Y-1.7852
X6.5228Y-1.8974
X6.5228Y-3.7537
X6.5228Y-3.8659
X6.5445Y-1.8423
X6.5445Y-3.8108
T6
X6.609Y-2.0299
X6.609Y-2.1401
X6.7193Y-2.0299
X6.7193Y-2.1401
T8
X7.2098Y-2.2515
X7.2099Y-2.3307
T9
X6.65Y-3.94
X6.75Y-3.94
X6.85Y-3.94
X4.19Y-2.1722
X4.19Y-2.31
X4.19Y-2.4478
X6.7228Y-2.976
X6.8015Y-2.976
X6.8803Y-2.976
X6.959Y-2.976
X6.7228Y-2.596
X6.8015Y-2.596
X6.8803Y-2.596
X6.959Y-2.596
X7.0Y-3.94
X7.1Y-3.94
T10
X6.68Y-3.35
X6.68Y-3.45
X6.68Y-3.55
X6.68Y-3.65
X6.68Y-3.75
X6.78Y-3.3
X6.78Y-3.4
X6.78Y-3.5
X6.78Y-3.6
X6.78Y-3.7
X7.13Y-3.26
X7.13Y-3.79
X7.21Y-3.26
X7.21Y-3.79
T11
X6.6641Y-2.085
X6.335Y-3.53
X5.105Y-3.8
X4.88Y-2.28
T12
X6.7031Y-2.8638
X6.7031Y-3.0882
X6.9787Y-2.8638
X6.9787Y-3.0882
X6.7031Y-2.4838
X6.7031Y-2.7082
X6.9787Y-2.4838
X6.9787Y-2.7082
T13
X4.8484Y-1.8421
X4.8484Y-3.8106
X6.4571Y-1.8421
X6.4571Y-3.8106
T5
G00X6.9327Y-2.0043
M15
G01X6.9327Y-1.9098
M16
G05
G00X7.1041Y-1.7818
M15
G01X7.0175Y-1.7818
M16
G05
G00X7.1689Y-2.0043
M15
G01X7.1689Y-1.9216
M16
G05
T7
G00X4.0882Y-2.7176
M15
G01X4.1276Y-2.7176
M16
G05
G00X4.0882Y-3.2924
M15
G01X4.1276Y-3.2924
M16
G05
G00X4.3185Y-2.7176
M15
G01X4.3737Y-2.7176
M16
G05
G00X4.3185Y-3.2924
M15
G01X4.3737Y-3.2924
M16
G05
T9
G00X6.9198Y-3.214
M15
G01X6.8883Y-3.214
M16
G05
G00X6.9198Y-3.836
M15
G01X6.8883Y-3.836
M16
G05
T0
M30
