M48
; DRILL file {KiCad 5.1.6-c6e7f7d~87~ubuntu18.04.1} date Thu Oct  7 16:54:34 2021
; FORMAT={-:-/ absolute / inch / decimal}
; #@! TF.CreationDate,2021-10-07T16:54:34+03:00
; #@! TF.GenerationSoftware,Kicad,Pcbnew,5.1.6-c6e7f7d~87~ubuntu18.04.1
; #@! TF.FileFunction,NonPlated,1,8,NPTH
FMAT,2
INCH
T1C0.0236
T2C0.0276
T3C0.0315
T4C0.0394
T5C0.1299
%
G90
G05
T1
X6.0617Y-2.6759
X6.5183Y-2.6759
T2
X5.05Y-3.625
X5.95Y-3.625
X5.05Y-2.025
X5.95Y-2.025
X5.325Y-1.775
X6.225Y-1.775
X5.325Y-3.875
X6.225Y-3.875
X4.585Y-1.71
X4.585Y-2.11
T3
X4.005Y-1.86
X4.11Y-1.86
X4.005Y-2.185
X4.11Y-2.185
T4
X4.087Y-3.54
X4.087Y-3.855
X4.16Y-3.6134
X4.16Y-3.7866
T5
X7.03Y-3.3
X7.03Y-3.75
T0
M30
