%TF.GenerationSoftware,KiCad,Pcbnew,5.1.6-c6e7f7d~87~ubuntu18.04.1*%
%TF.CreationDate,2021-10-07T16:54:21+03:00*%
%TF.ProjectId,STMP157-OLinuXino-LIME2_Rev_B1,53544d50-3135-4372-9d4f-4c696e755869,B1*%
%TF.SameCoordinates,Original*%
%TF.FileFunction,Paste,Bot*%
%TF.FilePolarity,Positive*%
%FSLAX46Y46*%
G04 Gerber Fmt 4.6, Leading zero omitted, Abs format (unit mm)*
G04 Created by KiCad (PCBNEW 5.1.6-c6e7f7d~87~ubuntu18.04.1) date 2021-10-07 16:54:21*
%MOMM*%
%LPD*%
G01*
G04 APERTURE LIST*
%ADD10R,0.914400X2.438400*%
%ADD11R,0.550000X0.500000*%
%ADD12R,1.016000X1.016000*%
%ADD13R,1.400000X1.200000*%
%ADD14R,0.500000X0.550000*%
%ADD15R,0.605000X0.305000*%
%ADD16R,0.605000X0.230000*%
%ADD17R,1.800000X1.000000*%
%ADD18R,0.550000X1.200000*%
%ADD19R,0.230000X0.980000*%
%ADD20R,2.000000X2.200000*%
%ADD21R,0.880000X0.230000*%
%ADD22R,1.800000X2.000000*%
%ADD23R,0.230000X0.880000*%
%ADD24R,1.524000X1.270000*%
%ADD25R,1.270000X1.524000*%
%ADD26R,0.420000X0.420000*%
%ADD27R,1.016000X1.778000*%
%ADD28R,1.700000X2.000000*%
%ADD29R,2.000000X1.700000*%
%ADD30R,2.286000X1.778000*%
%ADD31R,1.400000X1.000000*%
%ADD32R,1.800000X1.600000*%
%ADD33R,2.700000X1.800000*%
%ADD34R,1.100000X0.700000*%
%ADD35R,1.800000X1.400000*%
%ADD36R,1.800000X1.800000*%
%ADD37R,2.600000X1.400000*%
%ADD38R,1.778000X1.524000*%
%ADD39R,1.000000X1.000000*%
%ADD40R,0.630000X0.230000*%
%ADD41R,0.230000X0.630000*%
%ADD42R,2.200000X0.600000*%
%ADD43R,0.600000X2.200000*%
%ADD44R,1.000000X1.400000*%
%ADD45R,1.200000X0.550000*%
G04 APERTURE END LIST*
D10*
%TO.C,PWRON1*%
X103759000Y-49784000D03*
X102235000Y-49784000D03*
X103759000Y-44704000D03*
X102235000Y-44704000D03*
%TD*%
%TO.C,RESET1*%
X103759000Y-58039000D03*
X102235000Y-58039000D03*
X103759000Y-52959000D03*
X102235000Y-52959000D03*
%TD*%
D11*
%TO.C,R61*%
X145542000Y-61849000D03*
X145542000Y-62865000D03*
%TD*%
D12*
%TO.C,R59*%
X164973000Y-85090000D03*
X166751000Y-85090000D03*
%TD*%
D13*
%TO.C,Q3*%
X165057000Y-82588000D03*
X162857000Y-80988000D03*
X162857000Y-82588000D03*
X165057000Y-80988000D03*
%TD*%
D14*
%TO.C,C50*%
X162560000Y-83820000D03*
X163576000Y-83820000D03*
%TD*%
D12*
%TO.C,C58*%
X163068000Y-79248000D03*
X161290000Y-79248000D03*
%TD*%
D14*
%TO.C,R82*%
X156845000Y-47371000D03*
X157861000Y-47371000D03*
%TD*%
D15*
%TO.C,RM3*%
X154182500Y-92301000D03*
X153157500Y-92301000D03*
D16*
X154182500Y-92841000D03*
X153157500Y-92841000D03*
X154182500Y-93341000D03*
X153157500Y-93341000D03*
D15*
X154182500Y-93881000D03*
X153157500Y-93881000D03*
%TD*%
D17*
%TO.C,Q1*%
X157607000Y-73172000D03*
X157607000Y-75672000D03*
%TD*%
D15*
%TO.C,RM4*%
X153928500Y-80617000D03*
X152903500Y-80617000D03*
D16*
X153928500Y-81157000D03*
X152903500Y-81157000D03*
X153928500Y-81657000D03*
X152903500Y-81657000D03*
D15*
X153928500Y-82197000D03*
X152903500Y-82197000D03*
%TD*%
D18*
%TO.C,U13*%
X181930000Y-67407000D03*
X182880000Y-67407000D03*
X183830000Y-67407000D03*
X181930000Y-70007000D03*
X183830000Y-70007000D03*
%TD*%
D19*
%TO.C,U19*%
X128667000Y-94120000D03*
X129167000Y-94120000D03*
X129667000Y-94120000D03*
X130167000Y-94120000D03*
X130667000Y-94120000D03*
X130667000Y-98920000D03*
X130167000Y-98920000D03*
X129667000Y-98920000D03*
X129167000Y-98920000D03*
X128667000Y-98920000D03*
D20*
X129667000Y-96520000D03*
%TD*%
D14*
%TO.C,R78*%
X113030000Y-72009000D03*
X114046000Y-72009000D03*
%TD*%
D11*
%TO.C,R80*%
X113919000Y-70993000D03*
X113919000Y-69977000D03*
%TD*%
D21*
%TO.C,U8*%
X128402000Y-55162000D03*
X128402000Y-55662000D03*
X128402000Y-56162000D03*
X128402000Y-56662000D03*
X128402000Y-57162000D03*
X128402000Y-57662000D03*
X128402000Y-58162000D03*
X128402000Y-58662000D03*
X128402000Y-59162000D03*
X128402000Y-59662000D03*
D22*
X125252000Y-56712000D03*
D23*
X121202000Y-62362000D03*
X120702000Y-62362000D03*
X121702000Y-62362000D03*
X120202000Y-62362000D03*
D21*
X119502000Y-54662000D03*
X119502000Y-54162000D03*
X119502000Y-55662000D03*
X119502000Y-55162000D03*
D23*
X126202000Y-53462000D03*
X127702000Y-53462000D03*
X126702000Y-53462000D03*
X127202000Y-53462000D03*
D21*
X128402000Y-61662000D03*
X128402000Y-60162000D03*
X128402000Y-60662000D03*
X128402000Y-61162000D03*
D22*
X122652000Y-56712000D03*
X125252000Y-59112000D03*
X122652000Y-59112000D03*
D23*
X127702000Y-62362000D03*
X127202000Y-62362000D03*
X126702000Y-62362000D03*
X126202000Y-62362000D03*
X125702000Y-62362000D03*
X125202000Y-62362000D03*
X124702000Y-62362000D03*
X124202000Y-62362000D03*
X123702000Y-62362000D03*
X123202000Y-62362000D03*
X122702000Y-62362000D03*
X122202000Y-62362000D03*
D21*
X119502000Y-61662000D03*
X119502000Y-61162000D03*
X119502000Y-60662000D03*
X119502000Y-60162000D03*
X119502000Y-59662000D03*
X119502000Y-59162000D03*
X119502000Y-58662000D03*
X119502000Y-58162000D03*
X119502000Y-57662000D03*
X119502000Y-57162000D03*
X119502000Y-56662000D03*
X119502000Y-56162000D03*
D23*
X120202000Y-53462000D03*
X120702000Y-53462000D03*
X121202000Y-53462000D03*
X121702000Y-53462000D03*
X122202000Y-53462000D03*
X122702000Y-53462000D03*
X123202000Y-53462000D03*
X123702000Y-53462000D03*
X124202000Y-53462000D03*
X124702000Y-53462000D03*
X125202000Y-53462000D03*
X125702000Y-53462000D03*
D21*
X128402000Y-54162000D03*
X128402000Y-54662000D03*
%TD*%
D12*
%TO.C,C107*%
X161163000Y-53340000D03*
X162941000Y-53340000D03*
%TD*%
D24*
%TO.C,C88*%
X177419000Y-60960000D03*
X177419000Y-58928000D03*
%TD*%
%TO.C,L13*%
X168148000Y-75565000D03*
X166116000Y-75565000D03*
%TD*%
D25*
%TO.C,C46*%
X118618000Y-93599000D03*
X116586000Y-93599000D03*
%TD*%
D26*
%TO.C,U2*%
X121800000Y-74700000D03*
X121800000Y-73100000D03*
X121000000Y-73100000D03*
X120200000Y-74700000D03*
X120200000Y-73900000D03*
X122600000Y-74700000D03*
X122600000Y-73100000D03*
X122600000Y-73900000D03*
X121800000Y-73900000D03*
X121000000Y-73900000D03*
X120200000Y-73100000D03*
X121000000Y-74700000D03*
X125000000Y-74700000D03*
X125000000Y-73100000D03*
X124200000Y-73100000D03*
X123400000Y-74700000D03*
X123400000Y-73900000D03*
X125800000Y-74700000D03*
X125800000Y-73100000D03*
X125800000Y-73900000D03*
X125000000Y-73900000D03*
X124200000Y-73900000D03*
X123400000Y-73100000D03*
X124200000Y-74700000D03*
X128200000Y-74700000D03*
X128200000Y-73100000D03*
X127400000Y-73100000D03*
X126600000Y-74700000D03*
X126600000Y-73900000D03*
X129000000Y-74700000D03*
X129000000Y-73100000D03*
X129000000Y-73900000D03*
X128200000Y-73900000D03*
X127400000Y-73900000D03*
X126600000Y-73100000D03*
X127400000Y-74700000D03*
X118600000Y-69900000D03*
X118600000Y-68300000D03*
X117800000Y-68300000D03*
X117000000Y-69900000D03*
X117000000Y-69100000D03*
X118600000Y-69100000D03*
X117800000Y-69100000D03*
X117000000Y-68300000D03*
X117800000Y-69900000D03*
X121000000Y-69900000D03*
X121000000Y-68300000D03*
X120200000Y-68300000D03*
X119400000Y-69900000D03*
X119400000Y-69100000D03*
X121800000Y-69900000D03*
X121800000Y-68300000D03*
X121800000Y-69100000D03*
X121000000Y-69100000D03*
X120200000Y-69100000D03*
X119400000Y-68300000D03*
X120200000Y-69900000D03*
X124200000Y-69900000D03*
X124200000Y-68300000D03*
X123400000Y-68300000D03*
X122600000Y-69900000D03*
X122600000Y-69100000D03*
X125000000Y-69900000D03*
X125000000Y-68300000D03*
X125000000Y-69100000D03*
X124200000Y-69100000D03*
X123400000Y-69100000D03*
X122600000Y-68300000D03*
X123400000Y-69900000D03*
X127400000Y-69900000D03*
X127400000Y-68300000D03*
X126600000Y-68300000D03*
X125800000Y-69900000D03*
X125800000Y-69100000D03*
X128200000Y-69900000D03*
X128200000Y-68300000D03*
X128200000Y-69100000D03*
X127400000Y-69100000D03*
X126600000Y-69100000D03*
X125800000Y-68300000D03*
X126600000Y-69900000D03*
X119400000Y-74700000D03*
X119400000Y-73100000D03*
X119400000Y-73900000D03*
X118600000Y-73100000D03*
X118600000Y-73900000D03*
X118600000Y-74700000D03*
X117800000Y-74700000D03*
X117800000Y-73900000D03*
X117800000Y-73100000D03*
X117000000Y-74700000D03*
X117000000Y-73900000D03*
X129000000Y-69900000D03*
X129000000Y-69100000D03*
X129000000Y-68300000D03*
X117000000Y-73100000D03*
%TD*%
D14*
%TO.C,R88*%
X117475000Y-51562000D03*
X118491000Y-51562000D03*
%TD*%
%TO.C,R90*%
X163703000Y-75565000D03*
X164719000Y-75565000D03*
%TD*%
%TO.C,R93*%
X118491000Y-52578000D03*
X117475000Y-52578000D03*
%TD*%
D26*
%TO.C,U1*%
X139900000Y-64600000D03*
X144700000Y-64600000D03*
X147900000Y-64600000D03*
X145500000Y-64600000D03*
X143100000Y-64600000D03*
X135900000Y-64600000D03*
X141500000Y-64600000D03*
X137500000Y-64600000D03*
X136700000Y-64600000D03*
X150300000Y-64600000D03*
X139100000Y-64600000D03*
X142300000Y-64600000D03*
X147100000Y-64600000D03*
X149500000Y-64600000D03*
X138300000Y-64600000D03*
X140700000Y-64600000D03*
X148700000Y-64600000D03*
X134300000Y-64600000D03*
X151100000Y-64600000D03*
X146300000Y-64600000D03*
X143900000Y-64600000D03*
X135100000Y-64600000D03*
X139900000Y-65400000D03*
X144700000Y-65400000D03*
X147900000Y-65400000D03*
X145500000Y-65400000D03*
X143100000Y-65400000D03*
X135900000Y-65400000D03*
X141500000Y-65400000D03*
X137500000Y-65400000D03*
X136700000Y-65400000D03*
X150300000Y-65400000D03*
X139100000Y-65400000D03*
X142300000Y-65400000D03*
X147100000Y-65400000D03*
X149500000Y-65400000D03*
X138300000Y-65400000D03*
X140700000Y-65400000D03*
X148700000Y-65400000D03*
X134300000Y-65400000D03*
X151100000Y-65400000D03*
X146300000Y-65400000D03*
X143900000Y-65400000D03*
X135100000Y-65400000D03*
X139900000Y-66200000D03*
X144700000Y-66200000D03*
X147900000Y-66200000D03*
X145500000Y-66200000D03*
X143100000Y-66200000D03*
X135900000Y-66200000D03*
X141500000Y-66200000D03*
X137500000Y-66200000D03*
X136700000Y-66200000D03*
X150300000Y-66200000D03*
X139100000Y-66200000D03*
X142300000Y-66200000D03*
X147100000Y-66200000D03*
X149500000Y-66200000D03*
X138300000Y-66200000D03*
X140700000Y-66200000D03*
X148700000Y-66200000D03*
X134300000Y-66200000D03*
X151100000Y-66200000D03*
X146300000Y-66200000D03*
X143900000Y-66200000D03*
X135100000Y-66200000D03*
X139900000Y-67000000D03*
X144700000Y-67000000D03*
X147900000Y-67000000D03*
X145500000Y-67000000D03*
X143100000Y-67000000D03*
X135900000Y-67000000D03*
X141500000Y-67000000D03*
X137500000Y-67000000D03*
X136700000Y-67000000D03*
X150300000Y-67000000D03*
X139100000Y-67000000D03*
X142300000Y-67000000D03*
X147100000Y-67000000D03*
X149500000Y-67000000D03*
X138300000Y-67000000D03*
X140700000Y-67000000D03*
X148700000Y-67000000D03*
X134300000Y-67000000D03*
X151100000Y-67000000D03*
X146300000Y-67000000D03*
X143900000Y-67000000D03*
X135100000Y-67000000D03*
X139900000Y-67800000D03*
X144700000Y-67800000D03*
X147900000Y-67800000D03*
X145500000Y-67800000D03*
X143100000Y-67800000D03*
X135900000Y-67800000D03*
X141500000Y-67800000D03*
X137500000Y-67800000D03*
X136700000Y-67800000D03*
X150300000Y-67800000D03*
X139100000Y-67800000D03*
X142300000Y-67800000D03*
X147100000Y-67800000D03*
X149500000Y-67800000D03*
X138300000Y-67800000D03*
X140700000Y-67800000D03*
X148700000Y-67800000D03*
X134300000Y-67800000D03*
X151100000Y-67800000D03*
X146300000Y-67800000D03*
X143900000Y-67800000D03*
X135100000Y-67800000D03*
X139900000Y-68600000D03*
X144700000Y-68600000D03*
X147900000Y-68600000D03*
X145500000Y-68600000D03*
X143100000Y-68600000D03*
X135900000Y-68600000D03*
X141500000Y-68600000D03*
X137500000Y-68600000D03*
X136700000Y-68600000D03*
X150300000Y-68600000D03*
X139100000Y-68600000D03*
X142300000Y-68600000D03*
X147100000Y-68600000D03*
X149500000Y-68600000D03*
X138300000Y-68600000D03*
X140700000Y-68600000D03*
X148700000Y-68600000D03*
X151100000Y-68600000D03*
X146300000Y-68600000D03*
X143900000Y-68600000D03*
X135100000Y-68600000D03*
X147900000Y-69400000D03*
X145500000Y-69400000D03*
X135900000Y-69400000D03*
X137500000Y-69400000D03*
X136700000Y-69400000D03*
X150300000Y-69400000D03*
X139100000Y-69400000D03*
X142300000Y-69400000D03*
X147100000Y-69400000D03*
X149500000Y-69400000D03*
X138300000Y-69400000D03*
X140700000Y-69400000D03*
X148700000Y-69400000D03*
X134300000Y-69400000D03*
X151100000Y-69400000D03*
X143900000Y-69400000D03*
X135100000Y-69400000D03*
X139900000Y-70200000D03*
X144700000Y-70200000D03*
X147900000Y-70200000D03*
X143100000Y-70200000D03*
X135900000Y-70200000D03*
X141500000Y-70200000D03*
X137500000Y-70200000D03*
X136700000Y-70200000D03*
X150300000Y-70200000D03*
X147100000Y-70200000D03*
X149500000Y-70200000D03*
X138300000Y-70200000D03*
X148700000Y-70200000D03*
X134300000Y-70200000D03*
X151100000Y-70200000D03*
X146300000Y-70200000D03*
X135100000Y-70200000D03*
X144700000Y-71000000D03*
X147900000Y-71000000D03*
X145500000Y-71000000D03*
X143100000Y-71000000D03*
X135900000Y-71000000D03*
X141500000Y-71000000D03*
X137500000Y-71000000D03*
X136700000Y-71000000D03*
X150300000Y-71000000D03*
X139100000Y-71000000D03*
X142300000Y-71000000D03*
X147100000Y-71000000D03*
X149500000Y-71000000D03*
X138300000Y-71000000D03*
X140700000Y-71000000D03*
X148700000Y-71000000D03*
X151100000Y-71000000D03*
X143900000Y-71000000D03*
X135100000Y-71000000D03*
X139900000Y-71800000D03*
X144700000Y-71800000D03*
X147900000Y-71800000D03*
X143100000Y-71800000D03*
X135900000Y-71800000D03*
X141500000Y-71800000D03*
X137500000Y-71800000D03*
X136700000Y-71800000D03*
X150300000Y-71800000D03*
X142300000Y-71800000D03*
X147100000Y-71800000D03*
X149500000Y-71800000D03*
X138300000Y-71800000D03*
X140700000Y-71800000D03*
X148700000Y-71800000D03*
X134300000Y-71800000D03*
X151100000Y-71800000D03*
X146300000Y-71800000D03*
X143900000Y-71800000D03*
X135100000Y-71800000D03*
X144700000Y-72600000D03*
X147900000Y-72600000D03*
X145500000Y-72600000D03*
X143100000Y-72600000D03*
X135900000Y-72600000D03*
X141500000Y-72600000D03*
X137500000Y-72600000D03*
X136700000Y-72600000D03*
X150300000Y-72600000D03*
X139100000Y-72600000D03*
X142300000Y-72600000D03*
X147100000Y-72600000D03*
X149500000Y-72600000D03*
X138300000Y-72600000D03*
X140700000Y-72600000D03*
X148700000Y-72600000D03*
X134300000Y-72600000D03*
X151100000Y-72600000D03*
X143900000Y-72600000D03*
X135100000Y-72600000D03*
X140700000Y-78200000D03*
X148700000Y-78200000D03*
X134300000Y-78200000D03*
X151100000Y-78200000D03*
X146300000Y-78200000D03*
X143900000Y-78200000D03*
X135100000Y-78200000D03*
X141500000Y-79000000D03*
X137500000Y-79000000D03*
X134300000Y-73400000D03*
X135900000Y-74200000D03*
X141500000Y-74200000D03*
X137500000Y-74200000D03*
X149500000Y-73400000D03*
X136700000Y-73400000D03*
X137500000Y-73400000D03*
X139900000Y-73400000D03*
X144700000Y-77400000D03*
X138300000Y-73400000D03*
X143100000Y-73400000D03*
X143100000Y-80600000D03*
X135900000Y-80600000D03*
X139900000Y-80600000D03*
X141500000Y-80600000D03*
X137500000Y-80600000D03*
X136700000Y-80600000D03*
X150300000Y-80600000D03*
X139100000Y-80600000D03*
X142300000Y-80600000D03*
X147100000Y-80600000D03*
X149500000Y-80600000D03*
X138300000Y-80600000D03*
X140700000Y-80600000D03*
X148700000Y-80600000D03*
X134300000Y-80600000D03*
X151100000Y-80600000D03*
X146300000Y-80600000D03*
X143900000Y-80600000D03*
X135100000Y-80600000D03*
X144700000Y-81400000D03*
X139900000Y-77400000D03*
X135900000Y-76600000D03*
X141500000Y-76600000D03*
X136700000Y-74200000D03*
X150300000Y-74200000D03*
X139100000Y-74200000D03*
X142300000Y-74200000D03*
X147100000Y-74200000D03*
X149500000Y-74200000D03*
X138300000Y-74200000D03*
X140700000Y-74200000D03*
X148700000Y-74200000D03*
X134300000Y-74200000D03*
X151100000Y-74200000D03*
X143900000Y-74200000D03*
X135100000Y-74200000D03*
X143100000Y-75000000D03*
X145500000Y-74200000D03*
X143100000Y-74200000D03*
X143900000Y-73400000D03*
X148700000Y-73400000D03*
X135900000Y-73400000D03*
X147100000Y-73400000D03*
X144700000Y-79800000D03*
X147900000Y-79000000D03*
X143100000Y-79000000D03*
X144700000Y-79000000D03*
X136700000Y-79000000D03*
X150300000Y-79000000D03*
X139100000Y-79000000D03*
X142300000Y-79000000D03*
X147100000Y-79000000D03*
X149500000Y-79000000D03*
X138300000Y-79000000D03*
X140700000Y-79000000D03*
X148700000Y-79000000D03*
X134300000Y-79000000D03*
X151100000Y-79000000D03*
X146300000Y-79000000D03*
X143900000Y-79000000D03*
X135100000Y-79000000D03*
X147900000Y-81400000D03*
X150300000Y-73400000D03*
X135100000Y-73400000D03*
X151100000Y-73400000D03*
X146300000Y-73400000D03*
X139900000Y-79000000D03*
X143100000Y-78200000D03*
X145500000Y-81400000D03*
X143100000Y-81400000D03*
X135900000Y-81400000D03*
X141500000Y-81400000D03*
X137500000Y-81400000D03*
X136700000Y-81400000D03*
X150300000Y-81400000D03*
X139100000Y-81400000D03*
X142300000Y-81400000D03*
X147100000Y-81400000D03*
X149500000Y-81400000D03*
X138300000Y-81400000D03*
X140700000Y-81400000D03*
X148700000Y-81400000D03*
X134300000Y-81400000D03*
X151100000Y-81400000D03*
X146300000Y-81400000D03*
X143900000Y-81400000D03*
X135100000Y-81400000D03*
X148700000Y-76600000D03*
X134300000Y-76600000D03*
X151100000Y-76600000D03*
X146300000Y-76600000D03*
X145500000Y-78200000D03*
X147900000Y-78200000D03*
X147900000Y-79800000D03*
X145500000Y-79800000D03*
X141500000Y-79800000D03*
X137500000Y-79800000D03*
X136700000Y-79800000D03*
X143100000Y-79800000D03*
X135900000Y-79800000D03*
X150300000Y-79800000D03*
X139100000Y-79800000D03*
X142300000Y-79800000D03*
X147100000Y-79800000D03*
X149500000Y-79800000D03*
X138300000Y-79800000D03*
X140700000Y-79800000D03*
X148700000Y-79800000D03*
X134300000Y-79800000D03*
X151100000Y-79800000D03*
X146300000Y-79800000D03*
X143900000Y-79800000D03*
X135100000Y-79800000D03*
X139900000Y-81400000D03*
X147900000Y-80600000D03*
X145500000Y-80600000D03*
X144700000Y-80600000D03*
X147100000Y-76600000D03*
X149500000Y-76600000D03*
X138300000Y-76600000D03*
X141500000Y-73400000D03*
X147900000Y-74200000D03*
X139900000Y-75000000D03*
X147900000Y-75000000D03*
X147900000Y-73400000D03*
X147900000Y-76600000D03*
X143100000Y-76600000D03*
X137500000Y-76600000D03*
X136700000Y-76600000D03*
X150300000Y-76600000D03*
X144700000Y-78200000D03*
X145500000Y-75800000D03*
X145500000Y-77400000D03*
X135900000Y-75800000D03*
X137500000Y-75800000D03*
X136700000Y-75800000D03*
X150300000Y-75800000D03*
X139100000Y-75800000D03*
X142300000Y-75800000D03*
X147100000Y-75800000D03*
X149500000Y-75800000D03*
X138300000Y-75800000D03*
X140700000Y-75800000D03*
X148700000Y-75800000D03*
X134300000Y-75800000D03*
X151100000Y-75800000D03*
X143900000Y-75800000D03*
X135100000Y-75800000D03*
X144700000Y-76600000D03*
X139900000Y-79800000D03*
X139900000Y-76600000D03*
X143100000Y-77400000D03*
X137500000Y-77400000D03*
X136700000Y-77400000D03*
X150300000Y-77400000D03*
X139100000Y-77400000D03*
X142300000Y-77400000D03*
X147100000Y-77400000D03*
X149500000Y-77400000D03*
X138300000Y-77400000D03*
X140700000Y-77400000D03*
X148700000Y-77400000D03*
X151100000Y-77400000D03*
X146300000Y-77400000D03*
X143900000Y-77400000D03*
X135100000Y-77400000D03*
X139900000Y-78200000D03*
X135900000Y-78200000D03*
X135900000Y-79000000D03*
X144700000Y-75000000D03*
X135900000Y-75000000D03*
X141500000Y-77400000D03*
X141500000Y-75000000D03*
X137500000Y-75000000D03*
X136700000Y-75000000D03*
X150300000Y-75000000D03*
X142300000Y-75000000D03*
X147100000Y-75000000D03*
X149500000Y-75000000D03*
X138300000Y-75000000D03*
X140700000Y-75000000D03*
X148700000Y-75000000D03*
X151100000Y-75000000D03*
X146300000Y-75000000D03*
X143900000Y-75000000D03*
X135100000Y-75000000D03*
X141500000Y-78200000D03*
X137500000Y-78200000D03*
X136700000Y-78200000D03*
X150300000Y-78200000D03*
X139100000Y-78200000D03*
X142300000Y-78200000D03*
X147100000Y-78200000D03*
X149500000Y-78200000D03*
X138300000Y-78200000D03*
X135100000Y-76600000D03*
X135900000Y-77400000D03*
X147900000Y-75800000D03*
X147900000Y-77400000D03*
X145500000Y-79000000D03*
X144700000Y-73400000D03*
X140700000Y-73400000D03*
X142300000Y-73400000D03*
X144700000Y-74200000D03*
%TD*%
D11*
%TO.C,C40*%
X153035000Y-76835000D03*
X153035000Y-75819000D03*
%TD*%
%TO.C,C42*%
X155956000Y-73025000D03*
X155956000Y-74041000D03*
%TD*%
%TO.C,C43*%
X155956000Y-75946000D03*
X155956000Y-74930000D03*
%TD*%
D12*
%TO.C,C48*%
X146304000Y-88392000D03*
X146304000Y-90170000D03*
%TD*%
D14*
%TO.C,C49*%
X165481000Y-83820000D03*
X164465000Y-83820000D03*
%TD*%
D25*
%TO.C,C51*%
X152146000Y-96393000D03*
X154178000Y-96393000D03*
%TD*%
D14*
%TO.C,C53*%
X161798000Y-84709000D03*
X162814000Y-84709000D03*
%TD*%
%TO.C,C54*%
X154559000Y-87757000D03*
X155575000Y-87757000D03*
%TD*%
D11*
%TO.C,C59*%
X166243000Y-93091000D03*
X166243000Y-94107000D03*
%TD*%
D14*
%TO.C,C60*%
X167005000Y-91059000D03*
X165989000Y-91059000D03*
%TD*%
D24*
%TO.C,C61*%
X160020000Y-98044000D03*
X160020000Y-96012000D03*
%TD*%
D11*
%TO.C,C62*%
X158877000Y-83185000D03*
X158877000Y-84201000D03*
%TD*%
D12*
%TO.C,C63*%
X155829000Y-94615000D03*
X155829000Y-96393000D03*
%TD*%
D11*
%TO.C,C65*%
X157988000Y-83185000D03*
X157988000Y-84201000D03*
%TD*%
D14*
%TO.C,C66*%
X153670000Y-85852000D03*
X152654000Y-85852000D03*
%TD*%
D11*
%TO.C,C67*%
X151130000Y-84836000D03*
X151130000Y-85852000D03*
%TD*%
%TO.C,C68*%
X160020000Y-82677000D03*
X160020000Y-81661000D03*
%TD*%
D27*
%TO.C,C71*%
X169672000Y-80772000D03*
X173228000Y-80772000D03*
%TD*%
D25*
%TO.C,C89*%
X179451000Y-60833000D03*
X181483000Y-60833000D03*
%TD*%
D12*
%TO.C,C94*%
X114300000Y-63119000D03*
X112522000Y-63119000D03*
%TD*%
%TO.C,C98*%
X174244000Y-49657000D03*
X174244000Y-47879000D03*
%TD*%
%TO.C,C99*%
X172466000Y-52197000D03*
X172466000Y-50419000D03*
%TD*%
%TO.C,C100*%
X172466000Y-55372000D03*
X172466000Y-53594000D03*
%TD*%
%TO.C,C104*%
X167894000Y-46990000D03*
X167894000Y-45212000D03*
%TD*%
%TO.C,C105*%
X166243000Y-52832000D03*
X166243000Y-54610000D03*
%TD*%
%TO.C,C111*%
X170942000Y-45212000D03*
X170942000Y-46990000D03*
%TD*%
%TO.C,C113*%
X127000000Y-94107000D03*
X127000000Y-92329000D03*
%TD*%
%TO.C,C114*%
X127000000Y-98171000D03*
X127000000Y-99949000D03*
%TD*%
%TO.C,C115*%
X172466000Y-46482000D03*
X174244000Y-46482000D03*
%TD*%
%TO.C,C116*%
X167894000Y-58166000D03*
X167894000Y-59944000D03*
%TD*%
%TO.C,C117*%
X161925000Y-59944000D03*
X161925000Y-58166000D03*
%TD*%
%TO.C,C118*%
X131191000Y-90678000D03*
X129413000Y-90678000D03*
%TD*%
%TO.C,C119*%
X131191000Y-92202000D03*
X129413000Y-92202000D03*
%TD*%
%TO.C,C121*%
X166878000Y-55880000D03*
X168656000Y-55880000D03*
%TD*%
%TO.C,C122*%
X125349000Y-92964000D03*
X125349000Y-91186000D03*
%TD*%
%TO.C,C124*%
X163449000Y-54991000D03*
X161671000Y-54991000D03*
%TD*%
%TO.C,C134*%
X141351000Y-61341000D03*
X143129000Y-61341000D03*
%TD*%
%TO.C,C136*%
X141351000Y-62865000D03*
X143129000Y-62865000D03*
%TD*%
%TO.C,C163*%
X138938000Y-85217000D03*
X137160000Y-85217000D03*
%TD*%
%TO.C,C164*%
X143002000Y-85979000D03*
X143002000Y-84201000D03*
%TD*%
D11*
%TO.C,C167*%
X140208000Y-85598000D03*
X140208000Y-84582000D03*
%TD*%
D24*
%TO.C,C169*%
X179959000Y-69088000D03*
X179959000Y-71120000D03*
%TD*%
D25*
%TO.C,C170*%
X178435000Y-80391000D03*
X180467000Y-80391000D03*
%TD*%
D14*
%TO.C,C173*%
X110363000Y-43434000D03*
X109347000Y-43434000D03*
%TD*%
D25*
%TO.C,C175*%
X184150000Y-65532000D03*
X182118000Y-65532000D03*
%TD*%
%TO.C,C176*%
X182118000Y-75057000D03*
X184150000Y-75057000D03*
%TD*%
D24*
%TO.C,C179*%
X183388000Y-61595000D03*
X183388000Y-63627000D03*
%TD*%
%TO.C,C180*%
X180086000Y-78486000D03*
X180086000Y-76454000D03*
%TD*%
%TO.C,C182*%
X179959000Y-65532000D03*
X179959000Y-67564000D03*
%TD*%
D25*
%TO.C,C183*%
X182118000Y-73025000D03*
X184150000Y-73025000D03*
%TD*%
D11*
%TO.C,C184*%
X178435000Y-66040000D03*
X178435000Y-67056000D03*
%TD*%
%TO.C,C185*%
X178435000Y-77089000D03*
X178435000Y-76073000D03*
%TD*%
D28*
%TO.C,D1*%
X148717000Y-91400000D03*
X148717000Y-86400000D03*
%TD*%
D29*
%TO.C,D2*%
X162727000Y-62484000D03*
X167727000Y-62484000D03*
%TD*%
D30*
%TO.C,D4*%
X179070000Y-51580000D03*
X179070000Y-47226000D03*
%TD*%
D31*
%TO.C,FET2*%
X172049440Y-59121040D03*
X172049440Y-61023500D03*
X169839640Y-60068460D03*
%TD*%
D32*
%TO.C,FUSE1*%
X111506000Y-74933000D03*
X111506000Y-72133000D03*
%TD*%
D33*
%TO.C,FUSE2*%
X180340000Y-58461000D03*
X180340000Y-54061000D03*
%TD*%
D24*
%TO.C,L1*%
X117348000Y-95758000D03*
X119380000Y-95758000D03*
%TD*%
D25*
%TO.C,L4*%
X150368000Y-96012000D03*
X150368000Y-93980000D03*
%TD*%
D11*
%TO.C,L5*%
X152654000Y-86741000D03*
X152654000Y-87757000D03*
%TD*%
D14*
%TO.C,L6*%
X150114000Y-83947000D03*
X151130000Y-83947000D03*
%TD*%
D24*
%TO.C,L15*%
X181483000Y-63627000D03*
X179451000Y-63627000D03*
%TD*%
%TO.C,L16*%
X178435000Y-74676000D03*
X180467000Y-74676000D03*
%TD*%
D34*
%TO.C,MICRO_SD1*%
X114692000Y-90714000D03*
X114692000Y-91814000D03*
X114692000Y-92914000D03*
X114692000Y-94014000D03*
X114692000Y-95114000D03*
X114692000Y-96214000D03*
X114692000Y-97314000D03*
X114692000Y-98414000D03*
X114692000Y-99514000D03*
D35*
X113812000Y-100814000D03*
D36*
X113812000Y-86014000D03*
D37*
X104212000Y-85114000D03*
X104212000Y-100814000D03*
%TD*%
D11*
%TO.C,R15*%
X119253000Y-89662000D03*
X119253000Y-90678000D03*
%TD*%
D14*
%TO.C,R19*%
X115189000Y-81534000D03*
X114173000Y-81534000D03*
%TD*%
D11*
%TO.C,R25*%
X123317000Y-90678000D03*
X123317000Y-89662000D03*
%TD*%
D14*
%TO.C,R27*%
X114173000Y-83312000D03*
X115189000Y-83312000D03*
%TD*%
%TO.C,R30*%
X114173000Y-84201000D03*
X115189000Y-84201000D03*
%TD*%
D11*
%TO.C,R31*%
X122047000Y-89662000D03*
X122047000Y-90678000D03*
%TD*%
D14*
%TO.C,R32*%
X115189000Y-82423000D03*
X114173000Y-82423000D03*
%TD*%
D11*
%TO.C,R33*%
X120142000Y-89662000D03*
X120142000Y-90678000D03*
%TD*%
D14*
%TO.C,R40*%
X112649000Y-67183000D03*
X113665000Y-67183000D03*
%TD*%
%TO.C,R42*%
X162814000Y-75565000D03*
X161798000Y-75565000D03*
%TD*%
%TO.C,R43*%
X160909000Y-75819000D03*
X159893000Y-75819000D03*
%TD*%
D11*
%TO.C,R45*%
X167640000Y-73152000D03*
X167640000Y-74168000D03*
%TD*%
D14*
%TO.C,R48*%
X161290000Y-70739000D03*
X162306000Y-70739000D03*
%TD*%
%TO.C,R49*%
X162306000Y-71755000D03*
X161290000Y-71755000D03*
%TD*%
%TO.C,R50*%
X161290000Y-72771000D03*
X162306000Y-72771000D03*
%TD*%
D11*
%TO.C,R51*%
X160147000Y-78232000D03*
X160147000Y-77216000D03*
%TD*%
D14*
%TO.C,R53*%
X113665000Y-68199000D03*
X112649000Y-68199000D03*
%TD*%
D11*
%TO.C,R54*%
X119126000Y-98425000D03*
X119126000Y-99441000D03*
%TD*%
D14*
%TO.C,R55*%
X117221000Y-92075000D03*
X116205000Y-92075000D03*
%TD*%
D11*
%TO.C,R58*%
X157099000Y-84201000D03*
X157099000Y-83185000D03*
%TD*%
%TO.C,R60*%
X160147000Y-80518000D03*
X160147000Y-79502000D03*
%TD*%
%TO.C,R62*%
X166243000Y-77470000D03*
X166243000Y-78486000D03*
%TD*%
%TO.C,R63*%
X160909000Y-81661000D03*
X160909000Y-82677000D03*
%TD*%
D14*
%TO.C,R64*%
X159893000Y-83693000D03*
X160909000Y-83693000D03*
%TD*%
%TO.C,R65*%
X180848000Y-98171000D03*
X179832000Y-98171000D03*
%TD*%
%TO.C,R66*%
X183134000Y-98171000D03*
X182118000Y-98171000D03*
%TD*%
D11*
%TO.C,R67*%
X175006000Y-78613000D03*
X175006000Y-77597000D03*
%TD*%
D14*
%TO.C,R68*%
X172974000Y-78613000D03*
X173990000Y-78613000D03*
%TD*%
%TO.C,R69*%
X155575000Y-86741000D03*
X154559000Y-86741000D03*
%TD*%
%TO.C,R70*%
X157861000Y-46482000D03*
X156845000Y-46482000D03*
%TD*%
%TO.C,R71*%
X154559000Y-85852000D03*
X155575000Y-85852000D03*
%TD*%
D11*
%TO.C,R72*%
X154305000Y-89535000D03*
X154305000Y-90551000D03*
%TD*%
D14*
%TO.C,R73*%
X154559000Y-88646000D03*
X155575000Y-88646000D03*
%TD*%
D11*
%TO.C,R74*%
X148717000Y-83820000D03*
X148717000Y-82804000D03*
%TD*%
%TO.C,R75*%
X147574000Y-84074000D03*
X147574000Y-83058000D03*
%TD*%
%TO.C,R76*%
X156210000Y-83185000D03*
X156210000Y-84201000D03*
%TD*%
D14*
%TO.C,R77*%
X114046000Y-73025000D03*
X113030000Y-73025000D03*
%TD*%
%TO.C,R81*%
X114046000Y-74041000D03*
X113030000Y-74041000D03*
%TD*%
%TO.C,R91*%
X118491000Y-62611000D03*
X117475000Y-62611000D03*
%TD*%
%TO.C,R92*%
X117475000Y-63500000D03*
X118491000Y-63500000D03*
%TD*%
%TO.C,R100*%
X167132000Y-77470000D03*
X168148000Y-77470000D03*
%TD*%
%TO.C,R103*%
X105283000Y-43942000D03*
X106299000Y-43942000D03*
%TD*%
%TO.C,R104*%
X159004000Y-51689000D03*
X157988000Y-51689000D03*
%TD*%
D11*
%TO.C,R105*%
X158242000Y-53721000D03*
X158242000Y-52705000D03*
%TD*%
D14*
%TO.C,R106*%
X109601000Y-63627000D03*
X110617000Y-63627000D03*
%TD*%
D11*
%TO.C,R111*%
X155829000Y-48514000D03*
X155829000Y-47498000D03*
%TD*%
D14*
%TO.C,R114*%
X137922000Y-83312000D03*
X136906000Y-83312000D03*
%TD*%
D11*
%TO.C,R118*%
X167894000Y-69723000D03*
X167894000Y-70739000D03*
%TD*%
%TO.C,R119*%
X172085000Y-78613000D03*
X172085000Y-77597000D03*
%TD*%
%TO.C,R120*%
X106299000Y-47625000D03*
X106299000Y-48641000D03*
%TD*%
%TO.C,R121*%
X106299000Y-50800000D03*
X106299000Y-49784000D03*
%TD*%
D38*
%TO.C,R122*%
X109601000Y-59817000D03*
X109601000Y-57023000D03*
%TD*%
D14*
%TO.C,R123*%
X114935000Y-50419000D03*
X113919000Y-50419000D03*
%TD*%
%TO.C,R125*%
X184404000Y-71374000D03*
X183388000Y-71374000D03*
%TD*%
%TO.C,R126*%
X184531000Y-80899000D03*
X183515000Y-80899000D03*
%TD*%
%TO.C,R129*%
X114046000Y-47498000D03*
X113030000Y-47498000D03*
%TD*%
%TO.C,R131*%
X113030000Y-48387000D03*
X114046000Y-48387000D03*
%TD*%
D26*
%TO.C,U3*%
X121800000Y-86700000D03*
X121800000Y-85100000D03*
X121000000Y-85100000D03*
X120200000Y-86700000D03*
X120200000Y-85900000D03*
X122600000Y-86700000D03*
X122600000Y-85100000D03*
X122600000Y-85900000D03*
X121800000Y-85900000D03*
X121000000Y-85900000D03*
X120200000Y-85100000D03*
X121000000Y-86700000D03*
X125000000Y-86700000D03*
X125000000Y-85100000D03*
X124200000Y-85100000D03*
X123400000Y-86700000D03*
X123400000Y-85900000D03*
X125800000Y-86700000D03*
X125800000Y-85100000D03*
X125800000Y-85900000D03*
X125000000Y-85900000D03*
X124200000Y-85900000D03*
X123400000Y-85100000D03*
X124200000Y-86700000D03*
X128200000Y-86700000D03*
X128200000Y-85100000D03*
X127400000Y-85100000D03*
X126600000Y-86700000D03*
X126600000Y-85900000D03*
X129000000Y-86700000D03*
X129000000Y-85100000D03*
X129000000Y-85900000D03*
X128200000Y-85900000D03*
X127400000Y-85900000D03*
X126600000Y-85100000D03*
X127400000Y-86700000D03*
X118600000Y-81900000D03*
X118600000Y-80300000D03*
X117800000Y-80300000D03*
X117000000Y-81900000D03*
X117000000Y-81100000D03*
X118600000Y-81100000D03*
X117800000Y-81100000D03*
X117000000Y-80300000D03*
X117800000Y-81900000D03*
X121000000Y-81900000D03*
X121000000Y-80300000D03*
X120200000Y-80300000D03*
X119400000Y-81900000D03*
X119400000Y-81100000D03*
X121800000Y-81900000D03*
X121800000Y-80300000D03*
X121800000Y-81100000D03*
X121000000Y-81100000D03*
X120200000Y-81100000D03*
X119400000Y-80300000D03*
X120200000Y-81900000D03*
X124200000Y-81900000D03*
X124200000Y-80300000D03*
X123400000Y-80300000D03*
X122600000Y-81900000D03*
X122600000Y-81100000D03*
X125000000Y-81900000D03*
X125000000Y-80300000D03*
X125000000Y-81100000D03*
X124200000Y-81100000D03*
X123400000Y-81100000D03*
X122600000Y-80300000D03*
X123400000Y-81900000D03*
X127400000Y-81900000D03*
X127400000Y-80300000D03*
X126600000Y-80300000D03*
X125800000Y-81900000D03*
X125800000Y-81100000D03*
X128200000Y-81900000D03*
X128200000Y-80300000D03*
X128200000Y-81100000D03*
X127400000Y-81100000D03*
X126600000Y-81100000D03*
X125800000Y-80300000D03*
X126600000Y-81900000D03*
X119400000Y-86700000D03*
X119400000Y-85100000D03*
X119400000Y-85900000D03*
X118600000Y-85100000D03*
X118600000Y-85900000D03*
X118600000Y-86700000D03*
X117800000Y-86700000D03*
X117800000Y-85900000D03*
X117800000Y-85100000D03*
X117000000Y-86700000D03*
X117000000Y-85900000D03*
X129000000Y-81900000D03*
X129000000Y-81100000D03*
X129000000Y-80300000D03*
X117000000Y-85100000D03*
%TD*%
D39*
%TO.C,U4*%
X162204400Y-88366600D03*
X160909000Y-88366600D03*
X162204400Y-89662000D03*
X162204400Y-90957400D03*
X160909000Y-90957400D03*
X159613600Y-90957400D03*
X159613600Y-89662000D03*
D40*
X164384000Y-86912000D03*
X164384000Y-87412000D03*
X164384000Y-87912000D03*
X164384000Y-88412000D03*
X164384000Y-88912000D03*
X164384000Y-89412000D03*
X164384000Y-89912000D03*
X164384000Y-90412000D03*
X164384000Y-90912000D03*
X164384000Y-91412000D03*
X164384000Y-91912000D03*
X164384000Y-92412000D03*
D41*
X163659000Y-93137000D03*
X163159000Y-93137000D03*
X162659000Y-93137000D03*
X162159000Y-93137000D03*
X161659000Y-93137000D03*
X161159000Y-93137000D03*
X160659000Y-93137000D03*
X160159000Y-93137000D03*
X159659000Y-93137000D03*
X159159000Y-93137000D03*
X158659000Y-93137000D03*
X158159000Y-93137000D03*
D40*
X157434000Y-92412000D03*
X157434000Y-91912000D03*
X157434000Y-91412000D03*
X157434000Y-90912000D03*
X157434000Y-90412000D03*
X157434000Y-89912000D03*
X157434000Y-89412000D03*
X157434000Y-88912000D03*
X157434000Y-88412000D03*
X157434000Y-87912000D03*
X157434000Y-87412000D03*
X157434000Y-86912000D03*
D41*
X158159000Y-86187000D03*
X158659000Y-86187000D03*
X159159000Y-86187000D03*
X159659000Y-86187000D03*
X160159000Y-86187000D03*
X160659000Y-86187000D03*
X161159000Y-86187000D03*
X161659000Y-86187000D03*
X162159000Y-86187000D03*
X162659000Y-86187000D03*
X163159000Y-86187000D03*
X163659000Y-86187000D03*
D39*
X159613600Y-88366600D03*
%TD*%
D42*
%TO.C,U9*%
X136485000Y-49403000D03*
X136485000Y-50673000D03*
X136485000Y-51943000D03*
X136485000Y-53213000D03*
X131485000Y-53213000D03*
X131485000Y-51943000D03*
X131485000Y-50673000D03*
X131485000Y-49403000D03*
%TD*%
D18*
%TO.C,U14*%
X183830000Y-79532000D03*
X181930000Y-79532000D03*
X183830000Y-76932000D03*
X182880000Y-76932000D03*
X181930000Y-76932000D03*
%TD*%
D43*
%TO.C,U15*%
X107823000Y-50252000D03*
X109093000Y-50252000D03*
X110363000Y-50252000D03*
X111633000Y-50252000D03*
X111633000Y-45252000D03*
X110363000Y-45252000D03*
X109093000Y-45252000D03*
X107823000Y-45252000D03*
%TD*%
D11*
%TO.C,C187*%
X117856000Y-89662000D03*
X117856000Y-90678000D03*
%TD*%
%TO.C,C188*%
X112776000Y-83439000D03*
X112776000Y-84455000D03*
%TD*%
%TO.C,C189*%
X112776000Y-81661000D03*
X112776000Y-82677000D03*
%TD*%
%TO.C,C96*%
X169926000Y-55626000D03*
X169926000Y-56642000D03*
%TD*%
D14*
%TO.C,C97*%
X168402000Y-49911000D03*
X167386000Y-49911000D03*
%TD*%
%TO.C,C120*%
X132969000Y-98171000D03*
X131953000Y-98171000D03*
%TD*%
D11*
%TO.C,C123*%
X129413000Y-50673000D03*
X129413000Y-49657000D03*
%TD*%
D44*
%TO.C,D3*%
X161290000Y-100076000D03*
X157490000Y-100076000D03*
%TD*%
%TO.C,D5*%
X161295000Y-77343000D03*
X165095000Y-77343000D03*
%TD*%
%TO.C,FET4*%
X174627540Y-58674000D03*
X173672500Y-60883800D03*
X175574960Y-60883800D03*
%TD*%
D11*
%TO.C,R107*%
X111760000Y-56007000D03*
X111760000Y-57023000D03*
%TD*%
%TO.C,R108*%
X172847000Y-47752000D03*
X172847000Y-48768000D03*
%TD*%
%TO.C,R109*%
X165227000Y-51943000D03*
X165227000Y-50927000D03*
%TD*%
D14*
%TO.C,R110*%
X158623000Y-47371000D03*
X159639000Y-47371000D03*
%TD*%
%TO.C,R133*%
X132842000Y-100330000D03*
X131826000Y-100330000D03*
%TD*%
%TO.C,R134*%
X132842000Y-99314000D03*
X131826000Y-99314000D03*
%TD*%
D11*
%TO.C,R135*%
X166370000Y-51308000D03*
X166370000Y-50292000D03*
%TD*%
D14*
%TO.C,R136*%
X178181000Y-57277000D03*
X177165000Y-57277000D03*
%TD*%
%TO.C,R139*%
X168148000Y-78486000D03*
X167132000Y-78486000D03*
%TD*%
D11*
%TO.C,R140*%
X156083000Y-100076000D03*
X156083000Y-99060000D03*
%TD*%
D31*
%TO.C,T1*%
X162392360Y-50421540D03*
X160182560Y-49466500D03*
X160182560Y-51368960D03*
%TD*%
D44*
%TO.C,U20*%
X177988000Y-55837000D03*
X176088000Y-55837000D03*
X177038000Y-53637000D03*
%TD*%
D45*
%TO.C,VR2*%
X166273000Y-58232000D03*
X166273000Y-59182000D03*
X166273000Y-60132000D03*
X163673000Y-58232000D03*
X163673000Y-60132000D03*
%TD*%
D14*
%TO.C,C127*%
X157480000Y-81153000D03*
X156464000Y-81153000D03*
%TD*%
D13*
%TO.C,CR1*%
X158242000Y-79883000D03*
X155702000Y-79883000D03*
X155702000Y-77343000D03*
X158242000Y-77343000D03*
%TD*%
D11*
%TO.C,R2*%
X132715000Y-75057000D03*
X132715000Y-76073000D03*
%TD*%
%TO.C,R3*%
X131826000Y-76073000D03*
X131826000Y-75057000D03*
%TD*%
D14*
%TO.C,R46*%
X153924000Y-74930000D03*
X154940000Y-74930000D03*
%TD*%
M02*
