%TF.GenerationSoftware,KiCad,Pcbnew,5.1.6-c6e7f7d~87~ubuntu18.04.1*%
%TF.CreationDate,2021-10-07T16:54:21+03:00*%
%TF.ProjectId,STMP157-OLinuXino-LIME2_Rev_B1,53544d50-3135-4372-9d4f-4c696e755869,B1*%
%TF.SameCoordinates,Original*%
%TF.FileFunction,Paste,Top*%
%TF.FilePolarity,Positive*%
%FSLAX46Y46*%
G04 Gerber Fmt 4.6, Leading zero omitted, Abs format (unit mm)*
G04 Created by KiCad (PCBNEW 5.1.6-c6e7f7d~87~ubuntu18.04.1) date 2021-10-07 16:54:21*
%MOMM*%
%LPD*%
G01*
G04 APERTURE LIST*
%ADD10C,0.100000*%
%ADD11R,0.230000X1.600000*%
%ADD12R,2.000000X2.000000*%
%ADD13R,2.000000X0.900000*%
%ADD14R,0.900000X2.000000*%
%ADD15O,1.800000X1.400000*%
%ADD16O,1.400000X1.800000*%
%ADD17R,0.211000X0.811000*%
%ADD18R,0.811000X0.211000*%
%ADD19R,0.500000X0.550000*%
%ADD20R,1.524000X1.270000*%
%ADD21R,0.550000X0.500000*%
%ADD22R,1.016000X1.016000*%
%ADD23R,0.550000X1.200000*%
%ADD24R,2.250000X0.500000*%
%ADD25R,1.580000X0.230000*%
%ADD26R,0.800000X0.800000*%
%ADD27R,3.200000X6.000000*%
%ADD28R,1.600000X3.000000*%
%ADD29R,1.270000X1.524000*%
%ADD30R,1.016000X0.762000*%
%ADD31R,1.016000X0.508000*%
%ADD32R,0.605000X0.305000*%
%ADD33R,0.605000X0.230000*%
%ADD34R,0.675000X0.200000*%
%ADD35R,0.775000X0.300000*%
%ADD36R,1.200000X0.550000*%
%ADD37R,2.235200X1.219200*%
%ADD38R,2.200000X3.600000*%
%ADD39R,3.000000X1.600000*%
%ADD40R,1.400000X1.000000*%
%ADD41R,1.778000X1.524000*%
G04 APERTURE END LIST*
D10*
%TO.C,USB-OTG1*%
G36*
X104208000Y-88280000D02*
G01*
X103198000Y-88280000D01*
X103198000Y-89280000D01*
X104208000Y-89280000D01*
X104208000Y-88280000D01*
G37*
G36*
X103198000Y-88280000D02*
G01*
X101728000Y-88280000D01*
X101728000Y-90110000D01*
X103198000Y-90110000D01*
X103198000Y-88280000D01*
G37*
G36*
X109548000Y-88280000D02*
G01*
X107198000Y-88280000D01*
X107198000Y-90080000D01*
X109548000Y-90080000D01*
X109548000Y-88280000D01*
G37*
G36*
X109548000Y-97880000D02*
G01*
X107198000Y-97880000D01*
X107198000Y-99680000D01*
X109548000Y-99680000D01*
X109548000Y-97880000D01*
G37*
G36*
X104208000Y-98680000D02*
G01*
X103198000Y-98680000D01*
X103198000Y-99680000D01*
X104208000Y-99680000D01*
X104208000Y-98680000D01*
G37*
G36*
X103198000Y-97850000D02*
G01*
X101728000Y-97850000D01*
X101728000Y-99680000D01*
X103198000Y-99680000D01*
X103198000Y-97850000D01*
G37*
%TD*%
D11*
%TO.C,Flash_Con1*%
X155016000Y-71269000D03*
X161016000Y-71269000D03*
X162516000Y-67669000D03*
X161016000Y-67669000D03*
X160016000Y-67669000D03*
X160516000Y-71269000D03*
X162016000Y-67669000D03*
X159016000Y-67669000D03*
X157016000Y-71269000D03*
X155516000Y-71269000D03*
X156016000Y-71269000D03*
X164016000Y-67669000D03*
X159016000Y-71269000D03*
X156516000Y-71269000D03*
X156016000Y-67669000D03*
X162016000Y-71269000D03*
X163516000Y-67669000D03*
X164516000Y-71269000D03*
X163516000Y-71269000D03*
X157516000Y-71269000D03*
X158516000Y-71269000D03*
X157516000Y-67669000D03*
X159516000Y-67669000D03*
X163016000Y-67669000D03*
X158016000Y-71269000D03*
X161516000Y-67669000D03*
X164016000Y-71269000D03*
X163016000Y-71269000D03*
X162516000Y-71269000D03*
X157016000Y-67669000D03*
X155016000Y-67669000D03*
X159516000Y-71269000D03*
X160516000Y-67669000D03*
X161516000Y-71269000D03*
X164516000Y-67669000D03*
X158016000Y-67669000D03*
X156516000Y-67669000D03*
X155516000Y-67669000D03*
X158516000Y-67669000D03*
X160016000Y-71269000D03*
D12*
X166166000Y-69469000D03*
X153366000Y-69469000D03*
%TD*%
D13*
%TO.C,GPIO4*%
X118491000Y-54229000D03*
X114427000Y-54229000D03*
X118491000Y-52959000D03*
X114427000Y-52959000D03*
X118491000Y-51689000D03*
X114427000Y-51689000D03*
X118491000Y-50419000D03*
X114427000Y-50419000D03*
X118491000Y-49149000D03*
X114427000Y-49149000D03*
X118491000Y-47879000D03*
X114427000Y-47879000D03*
X118491000Y-46609000D03*
X114427000Y-46609000D03*
X118491000Y-45339000D03*
X114427000Y-45339000D03*
X118491000Y-44069000D03*
X114427000Y-44069000D03*
X118491000Y-42799000D03*
X114427000Y-42799000D03*
%TD*%
D14*
%TO.C,GPIO-1*%
X139065000Y-49403000D03*
X139065000Y-53467000D03*
X137795000Y-49403000D03*
X137795000Y-53467000D03*
X136525000Y-49403000D03*
X136525000Y-53467000D03*
X135255000Y-49403000D03*
X135255000Y-53467000D03*
X133985000Y-49403000D03*
X133985000Y-53467000D03*
X132715000Y-49403000D03*
X132715000Y-53467000D03*
X131445000Y-49403000D03*
X131445000Y-53467000D03*
X130175000Y-49403000D03*
X130175000Y-53467000D03*
X128905000Y-49403000D03*
X128905000Y-53467000D03*
X127635000Y-49403000D03*
X127635000Y-53467000D03*
X140335000Y-53467000D03*
X140335000Y-49403000D03*
X141605000Y-53467000D03*
X141605000Y-49403000D03*
X142875000Y-53467000D03*
X142875000Y-49403000D03*
X144145000Y-53467000D03*
X144145000Y-49403000D03*
X145415000Y-53467000D03*
X145415000Y-49403000D03*
X146685000Y-53467000D03*
X146685000Y-49403000D03*
X147955000Y-53467000D03*
X147955000Y-49403000D03*
X149225000Y-53467000D03*
X149225000Y-49403000D03*
X150495000Y-53467000D03*
X150495000Y-49403000D03*
X151765000Y-53467000D03*
X151765000Y-49403000D03*
%TD*%
%TO.C,GPIO-2*%
X151765000Y-90043000D03*
X151765000Y-94107000D03*
X150495000Y-90043000D03*
X150495000Y-94107000D03*
X149225000Y-90043000D03*
X149225000Y-94107000D03*
X147955000Y-90043000D03*
X147955000Y-94107000D03*
X146685000Y-90043000D03*
X146685000Y-94107000D03*
X145415000Y-90043000D03*
X145415000Y-94107000D03*
X144145000Y-90043000D03*
X144145000Y-94107000D03*
X142875000Y-90043000D03*
X142875000Y-94107000D03*
X141605000Y-90043000D03*
X141605000Y-94107000D03*
X140335000Y-90043000D03*
X140335000Y-94107000D03*
X127635000Y-94107000D03*
X127635000Y-90043000D03*
X128905000Y-94107000D03*
X128905000Y-90043000D03*
X130175000Y-94107000D03*
X130175000Y-90043000D03*
X131445000Y-94107000D03*
X131445000Y-90043000D03*
X132715000Y-94107000D03*
X132715000Y-90043000D03*
X133985000Y-94107000D03*
X133985000Y-90043000D03*
X135255000Y-94107000D03*
X135255000Y-90043000D03*
X136525000Y-94107000D03*
X136525000Y-90043000D03*
X137795000Y-94107000D03*
X137795000Y-90043000D03*
X139065000Y-94107000D03*
X139065000Y-90043000D03*
%TD*%
D15*
%TO.C,U18*%
X169269000Y-54559000D03*
X169269000Y-51359000D03*
D16*
X170869000Y-52959000D03*
X167669000Y-52959000D03*
D17*
X167069000Y-50039000D03*
X167469000Y-50039000D03*
X167869000Y-50039000D03*
X168269000Y-50039000D03*
X168669000Y-50039000D03*
X169069000Y-50039000D03*
X169469000Y-50039000D03*
X169869000Y-50039000D03*
X170269000Y-50039000D03*
X170669000Y-50039000D03*
X171069000Y-50039000D03*
X171469000Y-50039000D03*
D18*
X172189000Y-50759000D03*
X172189000Y-51159000D03*
X172189000Y-51559000D03*
X172189000Y-51959000D03*
X172189000Y-52359000D03*
X172189000Y-52759000D03*
X172189000Y-53159000D03*
X172189000Y-53559000D03*
X172189000Y-53959000D03*
X172189000Y-54359000D03*
X172189000Y-54759000D03*
X172189000Y-55159000D03*
D17*
X171469000Y-55879000D03*
X171069000Y-55879000D03*
X170669000Y-55879000D03*
X170269000Y-55879000D03*
X169869000Y-55879000D03*
X169469000Y-55879000D03*
X169069000Y-55879000D03*
X168669000Y-55879000D03*
X168269000Y-55879000D03*
X167869000Y-55879000D03*
X167469000Y-55879000D03*
X167069000Y-55879000D03*
D18*
X166349000Y-55159000D03*
X166349000Y-54759000D03*
X166349000Y-54359000D03*
X166349000Y-53959000D03*
X166349000Y-53559000D03*
X166349000Y-53159000D03*
X166349000Y-52759000D03*
X166349000Y-52359000D03*
X166349000Y-51959000D03*
X166349000Y-51559000D03*
X166349000Y-51159000D03*
X166349000Y-50759000D03*
%TD*%
D19*
%TO.C,R130*%
X112014000Y-97409000D03*
X110998000Y-97409000D03*
%TD*%
D20*
%TO.C,L7*%
X126873000Y-62484000D03*
X128905000Y-62484000D03*
%TD*%
D21*
%TO.C,C13*%
X133350000Y-85471000D03*
X133350000Y-86487000D03*
%TD*%
D22*
%TO.C,C90*%
X156718000Y-50673000D03*
X156718000Y-48895000D03*
%TD*%
D23*
%TO.C,U12*%
X115128000Y-100106000D03*
X117028000Y-100106000D03*
X115128000Y-97506000D03*
X116078000Y-97506000D03*
X117028000Y-97506000D03*
%TD*%
D24*
%TO.C,USB-OTG1*%
X108370000Y-92380000D03*
X108370000Y-93180000D03*
X108370000Y-93980000D03*
X108370000Y-94780000D03*
X108370000Y-95580000D03*
%TD*%
D21*
%TO.C,R18*%
X117348000Y-89662000D03*
X117348000Y-88646000D03*
%TD*%
%TO.C,C75*%
X122301000Y-61976000D03*
X122301000Y-62992000D03*
%TD*%
D19*
%TO.C,C78*%
X120650000Y-55499000D03*
X121666000Y-55499000D03*
%TD*%
D22*
%TO.C,C79*%
X125476000Y-58928000D03*
X127254000Y-58928000D03*
%TD*%
D21*
%TO.C,C80*%
X122682000Y-55753000D03*
X122682000Y-54737000D03*
%TD*%
D19*
%TO.C,C82*%
X122174000Y-60325000D03*
X123190000Y-60325000D03*
%TD*%
D21*
%TO.C,C83*%
X121158000Y-56515000D03*
X121158000Y-57531000D03*
%TD*%
D19*
%TO.C,C84*%
X121031000Y-58801000D03*
X122047000Y-58801000D03*
%TD*%
%TO.C,C85*%
X118999000Y-60706000D03*
X120015000Y-60706000D03*
%TD*%
%TO.C,R87*%
X120015000Y-59690000D03*
X118999000Y-59690000D03*
%TD*%
D20*
%TO.C,C87*%
X180975000Y-59182000D03*
X180975000Y-57150000D03*
%TD*%
D25*
%TO.C,HDMI1*%
X111341000Y-71827000D03*
X111341000Y-72327000D03*
X111341000Y-72827000D03*
X111341000Y-73327000D03*
X111341000Y-73827000D03*
X111341000Y-74327000D03*
X111341000Y-74827000D03*
X111341000Y-75327000D03*
X111341000Y-75827000D03*
X111341000Y-76327000D03*
X111341000Y-76827000D03*
X111341000Y-77327000D03*
X111341000Y-77827000D03*
X111341000Y-78327000D03*
X111341000Y-78827000D03*
X111341000Y-79327000D03*
X111341000Y-79827000D03*
X111341000Y-80327000D03*
X111341000Y-80827000D03*
%TD*%
D22*
%TO.C,C1*%
X138049000Y-84582000D03*
X138049000Y-82804000D03*
%TD*%
%TO.C,C2*%
X137989000Y-81300000D03*
X136211000Y-81300000D03*
%TD*%
D19*
%TO.C,C3*%
X138292000Y-71200000D03*
X139308000Y-71200000D03*
%TD*%
D22*
%TO.C,C4*%
X138211000Y-72900000D03*
X139989000Y-72900000D03*
%TD*%
D21*
%TO.C,C5*%
X138000000Y-78408000D03*
X138000000Y-77392000D03*
%TD*%
D22*
%TO.C,C6*%
X137100000Y-67399000D03*
X137100000Y-65621000D03*
%TD*%
D19*
%TO.C,C7*%
X139108000Y-69800000D03*
X138092000Y-69800000D03*
%TD*%
%TO.C,C8*%
X137558000Y-80000000D03*
X136542000Y-80000000D03*
%TD*%
%TO.C,C9*%
X135255000Y-84582000D03*
X136271000Y-84582000D03*
%TD*%
D21*
%TO.C,C10*%
X136271000Y-82550000D03*
X136271000Y-83566000D03*
%TD*%
D19*
%TO.C,C11*%
X134366000Y-82550000D03*
X135382000Y-82550000D03*
%TD*%
D21*
%TO.C,C12*%
X130556000Y-86487000D03*
X130556000Y-85471000D03*
%TD*%
%TO.C,C14*%
X119800000Y-67108000D03*
X119800000Y-66092000D03*
%TD*%
%TO.C,C15*%
X118600000Y-67108000D03*
X118600000Y-66092000D03*
%TD*%
D19*
%TO.C,C16*%
X124608000Y-67200000D03*
X123592000Y-67200000D03*
%TD*%
%TO.C,C17*%
X124008000Y-69977000D03*
X122992000Y-69977000D03*
%TD*%
%TO.C,C18*%
X127408000Y-75700000D03*
X126392000Y-75700000D03*
%TD*%
D21*
%TO.C,C19*%
X117400000Y-75692000D03*
X117400000Y-76708000D03*
%TD*%
D19*
%TO.C,C20*%
X128292000Y-75700000D03*
X129308000Y-75700000D03*
%TD*%
D21*
%TO.C,C21*%
X124100000Y-75208000D03*
X124100000Y-74192000D03*
%TD*%
D19*
%TO.C,C22*%
X126608000Y-68000000D03*
X125592000Y-68000000D03*
%TD*%
D22*
%TO.C,C23*%
X117289000Y-67000000D03*
X115511000Y-67000000D03*
%TD*%
%TO.C,C24*%
X129589000Y-67800000D03*
X127811000Y-67800000D03*
%TD*%
D21*
%TO.C,C25*%
X126365000Y-88773000D03*
X126365000Y-87757000D03*
%TD*%
D19*
%TO.C,C26*%
X117092000Y-79000000D03*
X118108000Y-79000000D03*
%TD*%
%TO.C,C27*%
X124592000Y-86300000D03*
X125608000Y-86300000D03*
%TD*%
D21*
%TO.C,C28*%
X129300000Y-86508000D03*
X129300000Y-85492000D03*
%TD*%
%TO.C,C29*%
X122200000Y-82208000D03*
X122200000Y-81192000D03*
%TD*%
D19*
%TO.C,C30*%
X119592000Y-86200000D03*
X120608000Y-86200000D03*
%TD*%
%TO.C,C31*%
X125608000Y-79375000D03*
X124592000Y-79375000D03*
%TD*%
D21*
%TO.C,C32*%
X124400000Y-80392000D03*
X124400000Y-81408000D03*
%TD*%
%TO.C,C33*%
X128600000Y-81108000D03*
X128600000Y-80092000D03*
%TD*%
D22*
%TO.C,C34*%
X119789000Y-87376000D03*
X118011000Y-87376000D03*
%TD*%
%TO.C,C35*%
X127800000Y-86289000D03*
X127800000Y-84511000D03*
%TD*%
D19*
%TO.C,C36*%
X115189000Y-85979000D03*
X114173000Y-85979000D03*
%TD*%
%TO.C,C37*%
X115062000Y-89535000D03*
X114046000Y-89535000D03*
%TD*%
D21*
%TO.C,C38*%
X119126000Y-89662000D03*
X119126000Y-88646000D03*
%TD*%
%TO.C,C39*%
X125349000Y-89662000D03*
X125349000Y-88646000D03*
%TD*%
D19*
%TO.C,C41*%
X151808000Y-76900000D03*
X150792000Y-76900000D03*
%TD*%
D22*
%TO.C,C47*%
X155448000Y-90297000D03*
X155448000Y-88519000D03*
%TD*%
%TO.C,C52*%
X164846000Y-90043000D03*
X163068000Y-90043000D03*
%TD*%
D19*
%TO.C,C55*%
X164211000Y-92837000D03*
X163195000Y-92837000D03*
%TD*%
%TO.C,C56*%
X158242000Y-93218000D03*
X157226000Y-93218000D03*
%TD*%
%TO.C,C57*%
X158242000Y-90551000D03*
X157226000Y-90551000D03*
%TD*%
D22*
%TO.C,C64*%
X160782000Y-91313000D03*
X160782000Y-93091000D03*
%TD*%
D21*
%TO.C,C69*%
X166116000Y-90551000D03*
X166116000Y-89535000D03*
%TD*%
%TO.C,C70*%
X167005000Y-89535000D03*
X167005000Y-90551000D03*
%TD*%
D22*
%TO.C,C72*%
X125095000Y-62611000D03*
X125095000Y-60833000D03*
%TD*%
D19*
%TO.C,C73*%
X121412000Y-62230000D03*
X120396000Y-62230000D03*
%TD*%
D21*
%TO.C,C74*%
X123571000Y-61976000D03*
X123571000Y-62992000D03*
%TD*%
D22*
%TO.C,C76*%
X122682000Y-53594000D03*
X120904000Y-53594000D03*
%TD*%
D19*
%TO.C,C77*%
X126492000Y-61087000D03*
X127508000Y-61087000D03*
%TD*%
%TO.C,C81*%
X127508000Y-57404000D03*
X126492000Y-57404000D03*
%TD*%
D22*
%TO.C,C86*%
X170180000Y-60071000D03*
X170180000Y-58293000D03*
%TD*%
%TO.C,C91*%
X155194000Y-48895000D03*
X155194000Y-50673000D03*
%TD*%
%TO.C,C95*%
X172593000Y-57150000D03*
X174371000Y-57150000D03*
%TD*%
%TO.C,C101*%
X106299000Y-48387000D03*
X106299000Y-46609000D03*
%TD*%
%TO.C,C102*%
X116713000Y-64516000D03*
X114935000Y-64516000D03*
%TD*%
%TO.C,C103*%
X105664000Y-51562000D03*
X105664000Y-49784000D03*
%TD*%
%TO.C,C106*%
X172466000Y-44577000D03*
X174244000Y-44577000D03*
%TD*%
%TO.C,C108*%
X174752000Y-55626000D03*
X174752000Y-53848000D03*
%TD*%
%TO.C,C109*%
X165227000Y-56261000D03*
X163449000Y-56261000D03*
%TD*%
%TO.C,C112*%
X171958000Y-45847000D03*
X171958000Y-47625000D03*
%TD*%
%TO.C,C135*%
X142700000Y-67739000D03*
X142700000Y-65961000D03*
%TD*%
%TO.C,C137*%
X138511000Y-76200000D03*
X140289000Y-76200000D03*
%TD*%
%TO.C,C138*%
X141111000Y-69000000D03*
X142889000Y-69000000D03*
%TD*%
%TO.C,C139*%
X146700000Y-70089000D03*
X146700000Y-68311000D03*
%TD*%
D21*
%TO.C,C140*%
X145500000Y-69492000D03*
X145500000Y-70508000D03*
%TD*%
%TO.C,C141*%
X141500000Y-73208000D03*
X141500000Y-72192000D03*
%TD*%
D19*
%TO.C,C142*%
X142592000Y-73400000D03*
X143608000Y-73400000D03*
%TD*%
%TO.C,C143*%
X141208000Y-74200000D03*
X140192000Y-74200000D03*
%TD*%
%TO.C,C144*%
X142608000Y-75500000D03*
X141592000Y-75500000D03*
%TD*%
%TO.C,C145*%
X140292000Y-71000000D03*
X141308000Y-71000000D03*
%TD*%
D21*
%TO.C,C146*%
X144700000Y-72308000D03*
X144700000Y-71292000D03*
%TD*%
D22*
%TO.C,C147*%
X149689000Y-68200000D03*
X147911000Y-68200000D03*
%TD*%
%TO.C,C148*%
X141900000Y-79011000D03*
X141900000Y-80789000D03*
%TD*%
%TO.C,C149*%
X150589000Y-73800000D03*
X148811000Y-73800000D03*
%TD*%
%TO.C,C150*%
X145850000Y-74511000D03*
X145850000Y-76289000D03*
%TD*%
D21*
%TO.C,C151*%
X143600000Y-75808000D03*
X143600000Y-74792000D03*
%TD*%
D19*
%TO.C,C152*%
X142808000Y-76900000D03*
X141792000Y-76900000D03*
%TD*%
D21*
%TO.C,C153*%
X144700000Y-77208000D03*
X144700000Y-76192000D03*
%TD*%
D19*
%TO.C,C154*%
X140692000Y-77900000D03*
X141708000Y-77900000D03*
%TD*%
D21*
%TO.C,C155*%
X144700000Y-75408000D03*
X144700000Y-74392000D03*
%TD*%
%TO.C,C156*%
X147800000Y-75608000D03*
X147800000Y-74592000D03*
%TD*%
D22*
%TO.C,C157*%
X150749000Y-75311000D03*
X152527000Y-75311000D03*
%TD*%
D21*
%TO.C,C158*%
X146900000Y-76908000D03*
X146900000Y-75892000D03*
%TD*%
%TO.C,C159*%
X147100000Y-72792000D03*
X147100000Y-73808000D03*
%TD*%
D19*
%TO.C,C160*%
X139016000Y-64600000D03*
X138000000Y-64600000D03*
%TD*%
D21*
%TO.C,C161*%
X146000000Y-73208000D03*
X146000000Y-72192000D03*
%TD*%
D19*
%TO.C,C162*%
X139608000Y-63700000D03*
X138592000Y-63700000D03*
%TD*%
D21*
%TO.C,C165*%
X139900000Y-64992000D03*
X139900000Y-66008000D03*
%TD*%
D22*
%TO.C,C166*%
X136906000Y-63119000D03*
X135128000Y-63119000D03*
%TD*%
D20*
%TO.C,C168*%
X118872000Y-100203000D03*
X118872000Y-98171000D03*
%TD*%
%TO.C,C172*%
X117602000Y-93853000D03*
X117602000Y-95885000D03*
%TD*%
%TO.C,C174*%
X115570000Y-93853000D03*
X115570000Y-95885000D03*
%TD*%
%TO.C,C178*%
X113538000Y-95885000D03*
X113538000Y-93853000D03*
%TD*%
D21*
%TO.C,C181*%
X111379000Y-90805000D03*
X111379000Y-91821000D03*
%TD*%
D26*
%TO.C,CHGLED1*%
X172085000Y-43053000D03*
X170561000Y-43053000D03*
%TD*%
D14*
%TO.C,GPIO-3*%
X146050000Y-96393000D03*
X146050000Y-100457000D03*
X144780000Y-96393000D03*
X144780000Y-100457000D03*
X143510000Y-96393000D03*
X143510000Y-100457000D03*
X142240000Y-96393000D03*
X142240000Y-100457000D03*
X140970000Y-96393000D03*
X140970000Y-100457000D03*
X139700000Y-96393000D03*
X139700000Y-100457000D03*
X138430000Y-96393000D03*
X138430000Y-100457000D03*
X137160000Y-96393000D03*
X137160000Y-100457000D03*
X135890000Y-96393000D03*
X135890000Y-100457000D03*
X134620000Y-96393000D03*
X134620000Y-100457000D03*
X147320000Y-100457000D03*
X147320000Y-96393000D03*
X148590000Y-100457000D03*
X148590000Y-96393000D03*
X149860000Y-100457000D03*
X149860000Y-96393000D03*
X151130000Y-100457000D03*
X151130000Y-96393000D03*
X152400000Y-100457000D03*
X152400000Y-96393000D03*
X153670000Y-100457000D03*
X153670000Y-96393000D03*
X154940000Y-100457000D03*
X154940000Y-96393000D03*
X156210000Y-100457000D03*
X156210000Y-96393000D03*
X157480000Y-100457000D03*
X157480000Y-96393000D03*
X158750000Y-100457000D03*
X158750000Y-96393000D03*
%TD*%
D20*
%TO.C,L2*%
X164719000Y-88392000D03*
X162687000Y-88392000D03*
%TD*%
%TO.C,L3*%
X159766000Y-88011000D03*
X157734000Y-88011000D03*
%TD*%
D27*
%TO.C,L8*%
X154072000Y-58166000D03*
X159872000Y-58166000D03*
%TD*%
D28*
%TO.C,L10*%
X109912000Y-51308000D03*
X107512000Y-51308000D03*
%TD*%
D29*
%TO.C,L14*%
X111633000Y-93853000D03*
X111633000Y-95885000D03*
%TD*%
D14*
%TO.C,LCD_CON1*%
X158750000Y-43053000D03*
X158750000Y-47117000D03*
X157480000Y-43053000D03*
X157480000Y-47117000D03*
X156210000Y-43053000D03*
X156210000Y-47117000D03*
X154940000Y-43053000D03*
X154940000Y-47117000D03*
X153670000Y-43053000D03*
X153670000Y-47117000D03*
X152400000Y-43053000D03*
X152400000Y-47117000D03*
X151130000Y-43053000D03*
X151130000Y-47117000D03*
X149860000Y-43053000D03*
X149860000Y-47117000D03*
X148590000Y-43053000D03*
X148590000Y-47117000D03*
X147320000Y-43053000D03*
X147320000Y-47117000D03*
X134620000Y-47117000D03*
X134620000Y-43053000D03*
X135890000Y-47117000D03*
X135890000Y-43053000D03*
X137160000Y-47117000D03*
X137160000Y-43053000D03*
X138430000Y-47117000D03*
X138430000Y-43053000D03*
X139700000Y-47117000D03*
X139700000Y-43053000D03*
X140970000Y-47117000D03*
X140970000Y-43053000D03*
X142240000Y-47117000D03*
X142240000Y-43053000D03*
X143510000Y-47117000D03*
X143510000Y-43053000D03*
X144780000Y-47117000D03*
X144780000Y-43053000D03*
X146050000Y-47117000D03*
X146050000Y-43053000D03*
%TD*%
D26*
%TO.C,PWRLED1*%
X179451000Y-43053000D03*
X180975000Y-43053000D03*
%TD*%
D19*
%TO.C,R1*%
X135255000Y-85471000D03*
X136271000Y-85471000D03*
%TD*%
%TO.C,R4*%
X134747000Y-71247000D03*
X133731000Y-71247000D03*
%TD*%
%TO.C,R5*%
X135382000Y-83439000D03*
X134366000Y-83439000D03*
%TD*%
D21*
%TO.C,R6*%
X131445000Y-86487000D03*
X131445000Y-85471000D03*
%TD*%
%TO.C,R7*%
X132461000Y-85471000D03*
X132461000Y-86487000D03*
%TD*%
%TO.C,R8*%
X121600000Y-67100000D03*
X121600000Y-66084000D03*
%TD*%
%TO.C,R9*%
X120700000Y-66092000D03*
X120700000Y-67108000D03*
%TD*%
D19*
%TO.C,R10*%
X114808000Y-68326000D03*
X115824000Y-68326000D03*
%TD*%
D21*
%TO.C,R11*%
X123317000Y-84074000D03*
X123317000Y-83058000D03*
%TD*%
%TO.C,R12*%
X134239000Y-85471000D03*
X134239000Y-86487000D03*
%TD*%
%TO.C,R13*%
X122300000Y-79092000D03*
X122300000Y-80108000D03*
%TD*%
D19*
%TO.C,R14*%
X122108000Y-78200000D03*
X121092000Y-78200000D03*
%TD*%
%TO.C,R16*%
X115189000Y-85090000D03*
X114173000Y-85090000D03*
%TD*%
%TO.C,R17*%
X115443000Y-86868000D03*
X114427000Y-86868000D03*
%TD*%
D21*
%TO.C,R20*%
X118237000Y-88646000D03*
X118237000Y-89662000D03*
%TD*%
D19*
%TO.C,R21*%
X115189000Y-81153000D03*
X114173000Y-81153000D03*
%TD*%
D21*
%TO.C,R22*%
X116459000Y-89662000D03*
X116459000Y-88646000D03*
%TD*%
D19*
%TO.C,R23*%
X115189000Y-82042000D03*
X114173000Y-82042000D03*
%TD*%
%TO.C,R24*%
X114554000Y-88646000D03*
X115570000Y-88646000D03*
%TD*%
%TO.C,R26*%
X114173000Y-84201000D03*
X115189000Y-84201000D03*
%TD*%
%TO.C,R28*%
X114554000Y-87757000D03*
X115570000Y-87757000D03*
%TD*%
%TO.C,R29*%
X115189000Y-82931000D03*
X114173000Y-82931000D03*
%TD*%
D21*
%TO.C,R34*%
X120015000Y-89662000D03*
X120015000Y-88646000D03*
%TD*%
%TO.C,R35*%
X120904000Y-88646000D03*
X120904000Y-89662000D03*
%TD*%
%TO.C,R36*%
X121793000Y-89662000D03*
X121793000Y-88646000D03*
%TD*%
%TO.C,R37*%
X123571000Y-89662000D03*
X123571000Y-88646000D03*
%TD*%
%TO.C,R38*%
X124460000Y-88646000D03*
X124460000Y-89662000D03*
%TD*%
%TO.C,R39*%
X122682000Y-89662000D03*
X122682000Y-88646000D03*
%TD*%
%TO.C,R44*%
X175641000Y-56896000D03*
X175641000Y-57912000D03*
%TD*%
%TO.C,R47*%
X135128000Y-87503000D03*
X135128000Y-86487000D03*
%TD*%
D19*
%TO.C,R52*%
X169291000Y-43180000D03*
X168275000Y-43180000D03*
%TD*%
D22*
%TO.C,R57*%
X153924000Y-90297000D03*
X153924000Y-88519000D03*
%TD*%
D19*
%TO.C,R89*%
X129413000Y-60833000D03*
X128397000Y-60833000D03*
%TD*%
D21*
%TO.C,R97*%
X162179000Y-56261000D03*
X162179000Y-57277000D03*
%TD*%
%TO.C,R98*%
X159766000Y-50800000D03*
X159766000Y-51816000D03*
%TD*%
D19*
%TO.C,R99*%
X171450000Y-58420000D03*
X172466000Y-58420000D03*
%TD*%
%TO.C,R101*%
X177165000Y-43180000D03*
X178181000Y-43180000D03*
%TD*%
D21*
%TO.C,R112*%
X115697000Y-58928000D03*
X115697000Y-57912000D03*
%TD*%
%TO.C,R113*%
X114808000Y-58928000D03*
X114808000Y-57912000D03*
%TD*%
%TO.C,R115*%
X106807000Y-45466000D03*
X106807000Y-44450000D03*
%TD*%
D19*
%TO.C,R116*%
X108077000Y-44196000D03*
X109093000Y-44196000D03*
%TD*%
D21*
%TO.C,R117*%
X113792000Y-99314000D03*
X113792000Y-100330000D03*
%TD*%
%TO.C,R124*%
X113792000Y-98298000D03*
X113792000Y-97282000D03*
%TD*%
D30*
%TO.C,RM1*%
X111760000Y-67310000D03*
X113284000Y-67310000D03*
X111760000Y-64770000D03*
X113284000Y-64770000D03*
D31*
X111760000Y-66421000D03*
X111760000Y-65659000D03*
X113284000Y-66421000D03*
X113284000Y-65659000D03*
%TD*%
D32*
%TO.C,RM2*%
X154309500Y-93627000D03*
X153284500Y-93627000D03*
D33*
X154309500Y-93087000D03*
X153284500Y-93087000D03*
X154309500Y-92587000D03*
X153284500Y-92587000D03*
D32*
X154309500Y-92047000D03*
X153284500Y-92047000D03*
%TD*%
D34*
%TO.C,U5*%
X114229500Y-79867000D03*
X114229500Y-79367000D03*
D35*
X114179500Y-78867000D03*
D34*
X114229500Y-78367000D03*
X114229500Y-77867000D03*
X113354500Y-77867000D03*
X113354500Y-78367000D03*
D35*
X113404500Y-78867000D03*
D34*
X113354500Y-79367000D03*
X113354500Y-79867000D03*
%TD*%
%TO.C,U6*%
X113354500Y-76946000D03*
X113354500Y-76446000D03*
D35*
X113404500Y-75946000D03*
D34*
X113354500Y-75446000D03*
X113354500Y-74946000D03*
X114229500Y-74946000D03*
X114229500Y-75446000D03*
D35*
X114179500Y-75946000D03*
D34*
X114229500Y-76446000D03*
X114229500Y-76946000D03*
%TD*%
%TO.C,U7*%
X113354500Y-74025000D03*
X113354500Y-73525000D03*
D35*
X113404500Y-73025000D03*
D34*
X113354500Y-72525000D03*
X113354500Y-72025000D03*
X114229500Y-72025000D03*
X114229500Y-72525000D03*
D35*
X114179500Y-73025000D03*
D34*
X114229500Y-73525000D03*
X114229500Y-74025000D03*
%TD*%
D36*
%TO.C,U10*%
X155798900Y-53782000D03*
X155798900Y-52832000D03*
X155798900Y-51882000D03*
X158399100Y-51882000D03*
X158399100Y-52832000D03*
X158399100Y-53782000D03*
%TD*%
D37*
%TO.C,VR1*%
X145745200Y-83032600D03*
X145745200Y-85344000D03*
X145745200Y-87655400D03*
D38*
X151943000Y-85344000D03*
%TD*%
D28*
%TO.C,L11*%
X167837000Y-45720000D03*
X170237000Y-45720000D03*
%TD*%
D39*
%TO.C,L12*%
X162052000Y-53524000D03*
X162052000Y-51124000D03*
%TD*%
D19*
%TO.C,C186*%
X138292000Y-74600000D03*
X139308000Y-74600000D03*
%TD*%
D21*
%TO.C,R132*%
X122500000Y-66092000D03*
X122500000Y-67108000D03*
%TD*%
D19*
%TO.C,C190*%
X117094000Y-83058000D03*
X116078000Y-83058000D03*
%TD*%
D22*
%TO.C,C92*%
X111125000Y-55372000D03*
X112903000Y-55372000D03*
%TD*%
%TO.C,C93*%
X111506000Y-45593000D03*
X111506000Y-47371000D03*
%TD*%
D21*
%TO.C,C125*%
X142700000Y-71408000D03*
X142700000Y-70392000D03*
%TD*%
%TO.C,C126*%
X144300000Y-70108000D03*
X144300000Y-69092000D03*
%TD*%
D40*
%TO.C,FET3*%
X178780440Y-61020960D03*
X178780440Y-59118500D03*
X176570640Y-60073540D03*
%TD*%
D28*
%TO.C,L9*%
X113862000Y-61976000D03*
X116262000Y-61976000D03*
%TD*%
D41*
%TO.C,R128*%
X173863000Y-49149000D03*
X173863000Y-46355000D03*
%TD*%
D19*
%TO.C,R137*%
X176530000Y-55753000D03*
X177546000Y-55753000D03*
%TD*%
%TO.C,R138*%
X175641000Y-61214000D03*
X174625000Y-61214000D03*
%TD*%
D23*
%TO.C,U11*%
X113345000Y-56993000D03*
X111445000Y-56993000D03*
X113345000Y-59593000D03*
X112395000Y-59593000D03*
X111445000Y-59593000D03*
%TD*%
%TO.C,U17*%
X109916000Y-45660000D03*
X108016000Y-45660000D03*
X109916000Y-48260000D03*
X108966000Y-48260000D03*
X108016000Y-48260000D03*
%TD*%
D19*
%TO.C,R102*%
X105029000Y-48641000D03*
X104013000Y-48641000D03*
%TD*%
D26*
%TO.C,LED1*%
X130302000Y-98679000D03*
X130302000Y-100203000D03*
%TD*%
D19*
%TO.C,R41*%
X132588000Y-95885000D03*
X131572000Y-95885000D03*
%TD*%
D22*
%TO.C,C44*%
X168656000Y-58674000D03*
X166878000Y-58674000D03*
%TD*%
D28*
%TO.C,L17*%
X164535000Y-61087000D03*
X166935000Y-61087000D03*
%TD*%
D21*
%TO.C,R79*%
X111887000Y-50419000D03*
X111887000Y-51435000D03*
%TD*%
%TO.C,R83*%
X103124000Y-48641000D03*
X103124000Y-47625000D03*
%TD*%
M02*
