G75*
G70*
%OFA0B0*%
%FSLAX24Y24*%
%IPPOS*%
%LPD*%
%AMOC8*
5,1,8,0,0,1.08239X$1,22.5*
%
%ADD10R,0.0480X0.0480*%
%ADD11R,0.0280X0.0380*%
%ADD12R,0.0237X0.0631*%
%ADD13R,0.0780X0.0780*%
%ADD14C,0.0780*%
%ADD15R,0.0680X0.0680*%
%ADD16C,0.0680*%
%ADD17O,0.0860X0.0470*%
%ADD18O,0.1261X0.0671*%
%ADD19C,0.1346*%
%ADD20R,0.0480X0.0380*%
%ADD21R,0.0480X0.0280*%
%ADD22R,0.0474X0.0631*%
%ADD23C,0.0671*%
%ADD24C,0.0966*%
%ADD25C,0.1582*%
%ADD26C,0.1261*%
%ADD27C,0.0474*%
D10*
X016723Y006966D03*
X017423Y006966D03*
X019282Y007281D03*
X019982Y007281D03*
X020818Y007281D03*
X021518Y007281D03*
X023845Y008624D03*
X024829Y008782D03*
X023845Y009324D03*
X024829Y009482D03*
X023845Y010514D03*
X023845Y011214D03*
X019982Y013344D03*
X019282Y013344D03*
X017896Y014033D03*
X018569Y014136D03*
X019553Y014136D03*
X020380Y014136D03*
X020990Y014136D03*
X021601Y014136D03*
X021601Y014836D03*
X020990Y014836D03*
X020380Y014836D03*
X019553Y014836D03*
X018569Y014836D03*
X017196Y014033D03*
X012427Y015396D03*
X012427Y016096D03*
X009947Y012553D03*
X009947Y011853D03*
X013372Y010230D03*
X013372Y009530D03*
D11*
X015899Y006494D03*
X016199Y006494D03*
X016199Y005943D03*
X015899Y005943D03*
X015899Y005391D03*
X016199Y005391D03*
X016199Y004840D03*
X015899Y004840D03*
D12*
X015872Y007941D03*
X015616Y007941D03*
X015360Y007941D03*
X015105Y007941D03*
X014849Y007941D03*
X014593Y007941D03*
X016128Y007941D03*
X016384Y007941D03*
X016640Y007941D03*
X016896Y007941D03*
X017152Y007941D03*
X017408Y007941D03*
X017664Y007941D03*
X017920Y007941D03*
X018175Y007941D03*
X018431Y007941D03*
X018687Y007941D03*
X018943Y007941D03*
X019199Y007941D03*
X019455Y007941D03*
X019711Y007941D03*
X019967Y007941D03*
X020223Y007941D03*
X020479Y007941D03*
X020734Y007941D03*
X020990Y007941D03*
X021246Y007941D03*
X021502Y007941D03*
X021758Y007941D03*
X022014Y007941D03*
X022270Y007941D03*
X022526Y007941D03*
X022782Y007941D03*
X022782Y012606D03*
X022526Y012606D03*
X022270Y012606D03*
X022014Y012606D03*
X021758Y012606D03*
X021502Y012606D03*
X021246Y012606D03*
X020990Y012606D03*
X020734Y012606D03*
X020479Y012606D03*
X020223Y012606D03*
X019967Y012606D03*
X019711Y012606D03*
X019455Y012606D03*
X019199Y012606D03*
X018943Y012606D03*
X018687Y012606D03*
X018431Y012606D03*
X018175Y012606D03*
X017920Y012606D03*
X017664Y012606D03*
X017408Y012606D03*
X017152Y012606D03*
X016896Y012606D03*
X016640Y012606D03*
X016384Y012606D03*
X016128Y012606D03*
X015872Y012606D03*
X015616Y012606D03*
X015360Y012606D03*
X015105Y012606D03*
X014849Y012606D03*
X014593Y012606D03*
D13*
X003282Y002506D03*
X032282Y003506D03*
X032282Y017506D03*
X003282Y018506D03*
D14*
X004282Y018506D03*
X005282Y018506D03*
X006282Y018506D03*
X007282Y018506D03*
X008282Y018506D03*
X009282Y018506D03*
X010282Y018506D03*
X011282Y018506D03*
X012282Y018506D03*
X013282Y018506D03*
X014282Y018506D03*
X015282Y018506D03*
X016282Y018506D03*
X017282Y018506D03*
X018282Y018506D03*
X019282Y018506D03*
X020282Y018506D03*
X021282Y018506D03*
X022282Y018506D03*
X023282Y018506D03*
X024282Y018506D03*
X025282Y018506D03*
X026282Y018506D03*
X027282Y018506D03*
X028282Y018506D03*
X029282Y018506D03*
X030282Y018506D03*
X031282Y018506D03*
X032282Y018506D03*
X031282Y017506D03*
X030282Y017506D03*
X029282Y017506D03*
X029282Y003506D03*
X030282Y003506D03*
X031282Y003506D03*
X031282Y002506D03*
X030282Y002506D03*
X029282Y002506D03*
X028282Y002506D03*
X027282Y002506D03*
X026282Y002506D03*
X025282Y002506D03*
X024282Y002506D03*
X023282Y002506D03*
X022282Y002506D03*
X021282Y002506D03*
X020282Y002506D03*
X019282Y002506D03*
X018282Y002506D03*
X017282Y002506D03*
X016282Y002506D03*
X015282Y002506D03*
X014282Y002506D03*
X013282Y002506D03*
X012282Y002506D03*
X011282Y002506D03*
X010282Y002506D03*
X009282Y002506D03*
X008282Y002506D03*
X007282Y002506D03*
X006282Y002506D03*
X005282Y002506D03*
X004282Y002506D03*
X032282Y002506D03*
D15*
X027597Y006218D03*
X027597Y009132D03*
X007282Y009256D03*
D16*
X007282Y010256D03*
X028597Y009132D03*
X028597Y006218D03*
D17*
X032153Y012189D03*
X032153Y012681D03*
X032153Y013173D03*
X032153Y013665D03*
X032153Y014157D03*
X032153Y014649D03*
X032153Y015141D03*
X032153Y015634D03*
D18*
X005349Y008946D03*
X005349Y007962D03*
X005349Y007175D03*
X005349Y006190D03*
D19*
X004282Y005179D03*
X004282Y009958D03*
D20*
X013112Y006088D03*
X013712Y006088D03*
X014686Y006088D03*
X015286Y006088D03*
X015286Y005088D03*
X014686Y005088D03*
X013712Y005088D03*
X013112Y005088D03*
D21*
X013112Y005438D03*
X013112Y005738D03*
X013712Y005738D03*
X013712Y005438D03*
X014686Y005438D03*
X015286Y005438D03*
X015286Y005738D03*
X014686Y005738D03*
D22*
X009888Y006769D03*
X009140Y006769D03*
X009514Y007636D03*
X009849Y008384D03*
X009101Y008384D03*
X009475Y009250D03*
X009849Y009998D03*
X009101Y009998D03*
X009475Y010864D03*
X031660Y004525D03*
X032408Y004525D03*
X032034Y005391D03*
D23*
X032328Y006345D03*
X032328Y006542D03*
X032328Y006739D03*
X032328Y006936D03*
X032328Y007132D03*
X032328Y007329D03*
X032328Y007526D03*
X031659Y008688D03*
X031462Y008688D03*
X031265Y008688D03*
X031068Y008688D03*
X030871Y008688D03*
X030675Y008688D03*
X030478Y008688D03*
X029769Y007526D03*
X029769Y007329D03*
X029769Y007132D03*
X029769Y006936D03*
X029769Y006739D03*
X029769Y006542D03*
X029769Y006345D03*
D24*
X006231Y012298D03*
X006034Y012298D03*
X005837Y012298D03*
X005640Y012298D03*
X005444Y012298D03*
X005247Y012298D03*
X005247Y016471D03*
X005444Y016471D03*
X005640Y016471D03*
X005837Y016471D03*
X006034Y016471D03*
X006231Y016471D03*
D25*
X003682Y014384D03*
D26*
X005729Y014384D03*
D27*
X030416Y014880D03*
X030416Y011731D03*
M02*
