G75*
G70*
%OFA0B0*%
%FSLAX24Y24*%
%IPPOS*%
%LPD*%
%AMOC8*
5,1,8,0,0,1.08239X$1,22.5*
%
%ADD10R,0.0079X0.0591*%
%ADD11R,0.0591X0.0079*%
%ADD12R,0.0400X0.0400*%
%ADD13R,0.0709X0.0630*%
%ADD14R,0.0394X0.1969*%
%ADD15R,0.0394X0.0551*%
%ADD16R,0.0600X0.0500*%
%ADD17R,0.0400X0.0300*%
%ADD18R,0.0400X0.0200*%
%ADD19R,0.1102X0.2756*%
%ADD20R,0.0571X0.0709*%
%ADD21R,0.0472X0.0217*%
%ADD22R,0.0500X0.0600*%
%ADD23R,0.0700X0.0900*%
%ADD24R,0.0630X0.0276*%
%ADD25R,0.0551X0.0472*%
%ADD26R,0.0551X0.0630*%
%ADD27R,0.0866X0.0472*%
D10*
X016246Y007222D03*
X016404Y007222D03*
X016561Y007222D03*
X016719Y007222D03*
X016876Y007222D03*
X017034Y007222D03*
X017191Y007222D03*
X017349Y007222D03*
X017506Y007222D03*
X017664Y007222D03*
X017821Y007222D03*
X017979Y007222D03*
X018136Y007222D03*
X018294Y007222D03*
X018451Y007222D03*
X018609Y007222D03*
X018766Y007222D03*
X018923Y007222D03*
X019081Y007222D03*
X019238Y007222D03*
X019396Y007222D03*
X019553Y007222D03*
X019711Y007222D03*
X019868Y007222D03*
X020026Y007222D03*
X020183Y007222D03*
X020341Y007222D03*
X020498Y007222D03*
X020656Y007222D03*
X020813Y007222D03*
X020971Y007222D03*
X021128Y007222D03*
X021128Y013325D03*
X020971Y013325D03*
X020813Y013325D03*
X020656Y013325D03*
X020498Y013325D03*
X020341Y013325D03*
X020183Y013325D03*
X020026Y013325D03*
X019868Y013325D03*
X019711Y013325D03*
X019553Y013325D03*
X019396Y013325D03*
X019238Y013325D03*
X019081Y013325D03*
X018923Y013325D03*
X018766Y013325D03*
X018609Y013325D03*
X018451Y013325D03*
X018294Y013325D03*
X018136Y013325D03*
X017979Y013325D03*
X017821Y013325D03*
X017664Y013325D03*
X017506Y013325D03*
X017349Y013325D03*
X017191Y013325D03*
X017034Y013325D03*
X016876Y013325D03*
X016719Y013325D03*
X016561Y013325D03*
X016404Y013325D03*
X016246Y013325D03*
D11*
X015636Y012714D03*
X015636Y012557D03*
X015636Y012399D03*
X015636Y012242D03*
X015636Y012084D03*
X015636Y011927D03*
X015636Y011769D03*
X015636Y011612D03*
X015636Y011454D03*
X015636Y011297D03*
X015636Y011140D03*
X015636Y010982D03*
X015636Y010825D03*
X015636Y010667D03*
X015636Y010510D03*
X015636Y010352D03*
X015636Y010195D03*
X015636Y010037D03*
X015636Y009880D03*
X015636Y009722D03*
X015636Y009565D03*
X015636Y009407D03*
X015636Y009250D03*
X015636Y009092D03*
X015636Y008935D03*
X015636Y008777D03*
X015636Y008620D03*
X015636Y008462D03*
X015636Y008305D03*
X015636Y008147D03*
X015636Y007990D03*
X015636Y007832D03*
X021738Y007832D03*
X021738Y007990D03*
X021738Y008147D03*
X021738Y008305D03*
X021738Y008462D03*
X021738Y008620D03*
X021738Y008777D03*
X021738Y008935D03*
X021738Y009092D03*
X021738Y009250D03*
X021738Y009407D03*
X021738Y009565D03*
X021738Y009722D03*
X021738Y009880D03*
X021738Y010037D03*
X021738Y010195D03*
X021738Y010352D03*
X021738Y010510D03*
X021738Y010667D03*
X021738Y010825D03*
X021738Y010982D03*
X021738Y011140D03*
X021738Y011297D03*
X021738Y011454D03*
X021738Y011612D03*
X021738Y011769D03*
X021738Y011927D03*
X021738Y012084D03*
X021738Y012242D03*
X021738Y012399D03*
X021738Y012557D03*
X021738Y012714D03*
D12*
X003872Y003348D03*
X004472Y003348D03*
X005072Y003348D03*
X005672Y003348D03*
X005672Y004048D03*
X006272Y004048D03*
X006972Y004048D03*
X005072Y004048D03*
X004472Y004048D03*
X003872Y004048D03*
X007191Y005947D03*
X007191Y006647D03*
X008874Y007195D03*
X009574Y007195D03*
X009574Y007795D03*
X008874Y007795D03*
X010374Y008556D03*
X010374Y009256D03*
X010374Y010206D03*
X010374Y010906D03*
X009588Y011691D03*
X008888Y011691D03*
X010699Y012675D03*
X011399Y012675D03*
X010065Y013230D03*
X009435Y013230D03*
X009435Y013930D03*
X010065Y013930D03*
X009042Y014687D03*
X009042Y015387D03*
X008250Y015903D03*
X007550Y015903D03*
X006837Y015702D03*
X006837Y015002D03*
X007555Y016616D03*
X008156Y016616D03*
X008756Y016616D03*
X008756Y017316D03*
X008156Y017316D03*
X007555Y017316D03*
X006955Y017089D03*
X006955Y017789D03*
X004357Y017789D03*
X004357Y017089D03*
X013451Y013419D03*
X014081Y013309D03*
X014711Y013309D03*
X015498Y013309D03*
X015498Y014009D03*
X014711Y014009D03*
X014081Y014009D03*
X013451Y012719D03*
X013298Y011258D03*
X013998Y011258D03*
X013959Y010382D03*
X013259Y010382D03*
X013259Y009732D03*
X013959Y009732D03*
X013845Y007041D03*
X014652Y007041D03*
X015262Y007041D03*
X015262Y006341D03*
X014652Y006341D03*
X013845Y006341D03*
X010538Y005112D03*
X009829Y005112D03*
X009829Y004412D03*
X010538Y004412D03*
X023259Y008738D03*
X023959Y008738D03*
X023919Y009722D03*
X023219Y009722D03*
X023219Y010588D03*
X023919Y010588D03*
X025105Y010632D03*
X025105Y011332D03*
X023919Y011415D03*
X023219Y011415D03*
X024833Y013305D03*
X025533Y013305D03*
X024770Y016144D03*
X024120Y016144D03*
X024120Y016844D03*
X024770Y016844D03*
X018963Y017001D03*
X018294Y017001D03*
X017624Y017001D03*
X016675Y017222D03*
X015975Y017222D03*
X015975Y016523D03*
X016675Y016523D03*
X017624Y016301D03*
X018294Y016301D03*
X018963Y016301D03*
X016675Y015647D03*
X015975Y015647D03*
X015134Y015553D03*
X014435Y015553D03*
X014435Y016253D03*
X015134Y016253D03*
X024632Y006175D03*
X025233Y006175D03*
X025833Y006175D03*
X026433Y006175D03*
X026433Y005475D03*
X025833Y005475D03*
X025233Y005475D03*
X024632Y005475D03*
D13*
X021797Y005982D03*
X021797Y007084D03*
D14*
X011634Y007588D03*
X011634Y010788D03*
D15*
X009598Y010989D03*
X008850Y010989D03*
X009224Y010123D03*
X009224Y009339D03*
X008850Y008473D03*
X009598Y008473D03*
X007939Y014329D03*
X007565Y015195D03*
X008313Y015195D03*
D16*
X006443Y006697D03*
X006443Y005897D03*
X012182Y004256D03*
X015382Y004256D03*
X019682Y004256D03*
X022882Y004256D03*
X024564Y004256D03*
X027764Y004256D03*
X025538Y016094D03*
X025538Y016894D03*
D17*
X025509Y015376D03*
X024909Y015376D03*
X024909Y014376D03*
X025509Y014376D03*
D18*
X025509Y014726D03*
X025509Y015026D03*
X024909Y015026D03*
X024909Y014726D03*
D19*
X012585Y015864D03*
X010223Y015864D03*
D20*
X010835Y013817D03*
X012760Y013817D03*
D21*
X006049Y017143D03*
X005026Y017143D03*
X005026Y017517D03*
X005026Y017891D03*
X006049Y017891D03*
X007782Y004821D03*
X007782Y004447D03*
X007782Y004073D03*
X008805Y004073D03*
X008805Y004821D03*
D22*
X008772Y005628D03*
X007972Y005628D03*
D23*
X029975Y009706D03*
X031689Y009706D03*
D24*
X026233Y011101D03*
X026233Y011534D03*
X026233Y011967D03*
X026233Y012400D03*
X026233Y012833D03*
X026233Y013266D03*
X026233Y013699D03*
X026233Y014132D03*
X026233Y014566D03*
D25*
X026479Y010629D03*
D26*
X026479Y016377D03*
D27*
X030258Y016731D03*
X030258Y010629D03*
M02*
