G75*
G70*
%OFA0B0*%
%FSLAX24Y24*%
%IPPOS*%
%LPD*%
%AMOC8*
5,1,8,0,0,1.08239X$1,22.5*
%
%ADD10R,0.0660X0.0660*%
%ADD11C,0.0660*%
%ADD12C,0.0886*%
%ADD13C,0.0591*%
%ADD14C,0.0531*%
%ADD15C,0.0650*%
%ADD16C,0.0472*%
%ADD17R,0.0700X0.0700*%
%ADD18C,0.0700*%
%ADD19C,0.1250*%
%ADD20C,0.1000*%
%ADD21R,0.1200X0.1200*%
%ADD22C,0.1200*%
%ADD23R,0.0531X0.0531*%
%ADD24R,0.0300X0.0400*%
%ADD25C,0.0354*%
%ADD26C,0.0200*%
%ADD27C,0.0400*%
%ADD28C,0.0100*%
%ADD29C,0.0070*%
%ADD30C,0.0500*%
%ADD31C,0.0080*%
%ADD32C,0.0320*%
%ADD33C,0.0240*%
%ADD34C,0.2480*%
%ADD35C,0.0300*%
%ADD36C,0.0160*%
%ADD37C,0.1200*%
%ADD38C,0.1000*%
D10*
X019652Y012157D03*
X022652Y012157D03*
X026902Y012657D03*
X019652Y026157D03*
X026902Y035657D03*
X004652Y030157D03*
D11*
X005652Y030157D03*
X006652Y030157D03*
X007652Y030157D03*
X008652Y030157D03*
X009652Y030157D03*
X009652Y027157D03*
X009652Y026157D03*
X008652Y026157D03*
X008652Y027157D03*
X007652Y027157D03*
X007652Y026157D03*
X010652Y026157D03*
X010652Y027157D03*
X011652Y027157D03*
X011652Y026157D03*
X012652Y026157D03*
X012652Y027157D03*
X013652Y027157D03*
X013652Y026157D03*
X014652Y026157D03*
X014652Y027157D03*
X015652Y027157D03*
X015652Y026157D03*
X016652Y026157D03*
X016652Y027157D03*
X017652Y027157D03*
X017652Y026157D03*
X018652Y026157D03*
X018652Y027157D03*
X019652Y027157D03*
X022652Y027157D03*
X022652Y026157D03*
X022652Y025157D03*
X022652Y024157D03*
X022652Y023157D03*
X022652Y022157D03*
X022652Y021157D03*
X022652Y020157D03*
X022652Y019157D03*
X022652Y018157D03*
X022652Y017157D03*
X022652Y016157D03*
X022652Y015157D03*
X022652Y014157D03*
X022652Y013157D03*
X019652Y013157D03*
X018652Y013157D03*
X018652Y012157D03*
X017652Y012157D03*
X017652Y013157D03*
X016652Y013157D03*
X016652Y012157D03*
X015652Y012157D03*
X015652Y013157D03*
X014652Y013157D03*
X014652Y012157D03*
X013652Y012157D03*
X013652Y013157D03*
X012652Y013157D03*
X012652Y012157D03*
X011652Y012157D03*
X011652Y013157D03*
X010652Y013157D03*
X010652Y012157D03*
X009652Y012157D03*
X009652Y013157D03*
X008652Y013157D03*
X008652Y012157D03*
X007652Y012157D03*
X007652Y013157D03*
X026902Y011657D03*
X026902Y010657D03*
X026902Y009657D03*
X026902Y008657D03*
X027902Y008657D03*
X027902Y009657D03*
X027902Y010657D03*
X027902Y011657D03*
X027902Y012657D03*
X027902Y016657D03*
X027902Y017657D03*
X027902Y018657D03*
X027902Y019657D03*
X027902Y020657D03*
X027902Y021657D03*
X026902Y021657D03*
X026902Y020657D03*
X026902Y019657D03*
X026902Y018657D03*
X026902Y017657D03*
X026902Y016657D03*
X026902Y022657D03*
X026902Y023657D03*
X026902Y024657D03*
X026902Y025657D03*
X026902Y026657D03*
X026902Y027657D03*
X026902Y028657D03*
X026902Y029657D03*
X026902Y030657D03*
X026902Y031657D03*
X026902Y032657D03*
X026902Y033657D03*
X026902Y034657D03*
X027902Y034657D03*
X027902Y035657D03*
X027902Y033657D03*
X027902Y032657D03*
X027902Y031657D03*
X027902Y030657D03*
X027902Y029657D03*
X027902Y028657D03*
X027902Y027657D03*
X027902Y026657D03*
X027902Y025657D03*
X027902Y024657D03*
X027902Y023657D03*
X027902Y022657D03*
D12*
X024533Y009686D03*
X024533Y006930D03*
X022289Y006930D03*
X022289Y009686D03*
D13*
X023411Y009489D03*
X023411Y008701D03*
X023411Y007914D03*
X023411Y007127D03*
X011345Y037034D03*
X011227Y037034D03*
X011109Y037034D03*
X010991Y037034D03*
X010873Y037034D03*
X010754Y037034D03*
X010636Y037034D03*
X010518Y037034D03*
X010400Y037034D03*
X009121Y037880D03*
X009121Y037959D03*
X009121Y038077D03*
X009121Y038195D03*
X009121Y038314D03*
X009121Y038432D03*
X009121Y038550D03*
X009121Y038668D03*
X009121Y038747D03*
X010518Y039396D03*
X010636Y039396D03*
X010754Y039396D03*
X010873Y039396D03*
X010991Y039396D03*
X011109Y039396D03*
X011227Y039396D03*
X011345Y039396D03*
D14*
X010849Y010095D03*
X011349Y009095D03*
X011849Y010095D03*
X012349Y009095D03*
X012849Y010095D03*
X010349Y009095D03*
X009849Y010095D03*
X009349Y009095D03*
X006652Y009263D03*
X016549Y009095D03*
X017049Y010095D03*
X017549Y009095D03*
X018049Y010095D03*
X018549Y009095D03*
X019049Y010095D03*
X019549Y009095D03*
X020049Y010095D03*
D15*
X019905Y004587D03*
X020905Y004587D03*
X016700Y004587D03*
X015700Y004587D03*
X013705Y004587D03*
X012705Y004587D03*
X009500Y004587D03*
X008500Y004587D03*
D16*
X007953Y007441D03*
X007953Y007520D03*
X007953Y007599D03*
X007953Y007677D03*
X007953Y007756D03*
X007953Y007835D03*
X014252Y007835D03*
X014252Y007756D03*
X014252Y007677D03*
X014252Y007599D03*
X014252Y007520D03*
X014252Y007441D03*
X015153Y007441D03*
X015153Y007520D03*
X015153Y007599D03*
X015153Y007677D03*
X015153Y007756D03*
X015153Y007835D03*
X021452Y007835D03*
X021452Y007756D03*
X021452Y007677D03*
X021452Y007599D03*
X021452Y007520D03*
X021452Y007441D03*
D17*
X008652Y029157D03*
X010652Y030157D03*
X004652Y029157D03*
X004652Y006607D03*
D18*
X005652Y029157D03*
X006652Y029157D03*
X009652Y029157D03*
X010652Y029157D03*
X011902Y029607D03*
X018202Y029607D03*
D19*
X015852Y031207D03*
X022152Y031207D03*
D20*
X019802Y032007D03*
X018202Y032007D03*
X018202Y036807D03*
X019802Y036807D03*
X024502Y036807D03*
X024502Y032007D03*
X013502Y032007D03*
X013502Y036807D03*
X007402Y037457D03*
X005402Y037457D03*
X005402Y032457D03*
X007402Y032457D03*
D21*
X011637Y040507D03*
X017821Y040507D03*
X024121Y040507D03*
D22*
X022152Y040507D03*
X020184Y040507D03*
X015852Y040507D03*
X013884Y040507D03*
X009668Y040507D03*
D23*
X006652Y010051D03*
D24*
X023802Y015407D03*
X024252Y015407D03*
X024702Y015407D03*
X026902Y015107D03*
X027352Y015107D03*
X027802Y015107D03*
X026052Y008657D03*
X025602Y008657D03*
X025152Y008657D03*
X026052Y007357D03*
X026502Y007357D03*
X026952Y007357D03*
D25*
X027802Y007157D03*
X028302Y006507D03*
X027152Y005107D03*
X027824Y004829D03*
X028102Y004157D03*
X027824Y003485D03*
X027152Y003207D03*
X026481Y003485D03*
X026202Y004157D03*
X026481Y004829D03*
X024752Y003957D03*
X024752Y003407D03*
X023802Y002657D03*
X022352Y002657D03*
X021102Y003057D03*
X022552Y005057D03*
X019102Y007057D03*
X018602Y006057D03*
X018102Y007057D03*
X017602Y006057D03*
X017102Y007057D03*
X014702Y010857D03*
X015152Y011707D03*
X013052Y011507D03*
X010552Y014307D03*
X010852Y016707D03*
X011252Y016707D03*
X012602Y016757D03*
X012902Y017057D03*
X013202Y017357D03*
X012652Y018557D03*
X012752Y020557D03*
X012802Y021807D03*
X012552Y022407D03*
X012552Y022857D03*
X013302Y021807D03*
X014052Y021757D03*
X014502Y021157D03*
X014852Y020857D03*
X015102Y021507D03*
X015102Y022057D03*
X014852Y022507D03*
X015652Y021557D03*
X016352Y021657D03*
X016802Y021657D03*
X017802Y019857D03*
X017302Y019357D03*
X016902Y019357D03*
X015402Y020557D03*
X017152Y025457D03*
X014902Y028207D03*
X011802Y024907D03*
X011402Y025157D03*
X009752Y022807D03*
X009202Y023907D03*
X007902Y023907D03*
X007902Y022757D03*
X007902Y021657D03*
X009202Y021657D03*
X009702Y021457D03*
X009202Y019657D03*
X009402Y017607D03*
X009402Y017207D03*
X011302Y019457D03*
X007552Y025057D03*
X006952Y026307D03*
X006752Y025857D03*
X006202Y025407D03*
X005752Y024007D03*
X004552Y025107D03*
X004502Y022757D03*
X004502Y021507D03*
X004502Y020157D03*
X004502Y018857D03*
X005702Y019607D03*
X006402Y019657D03*
X005902Y017107D03*
X005902Y016757D03*
X006402Y016857D03*
X006402Y016507D03*
X005802Y015407D03*
X005002Y014857D03*
X005002Y014457D03*
X006002Y013957D03*
X006002Y013607D03*
X005252Y012907D03*
X005502Y012157D03*
X004502Y012907D03*
X004552Y010507D03*
X005452Y009557D03*
X004552Y008457D03*
X005852Y006357D03*
X006152Y005107D03*
X006824Y004829D03*
X007102Y004157D03*
X006824Y003485D03*
X006152Y003207D03*
X005452Y003507D03*
X005202Y004157D03*
X005481Y004829D03*
X009102Y003107D03*
X010602Y004607D03*
X011602Y004607D03*
X011102Y003107D03*
X013102Y003107D03*
X011602Y006107D03*
X011102Y007107D03*
X010602Y006107D03*
X010102Y007107D03*
X012102Y007107D03*
X015602Y003057D03*
X017602Y003057D03*
X019102Y003057D03*
X021602Y010857D03*
X022352Y011257D03*
X022802Y011257D03*
X023352Y011257D03*
X023602Y010857D03*
X023852Y012157D03*
X023852Y013807D03*
X024702Y014607D03*
X025402Y014607D03*
X025602Y015357D03*
X026902Y015607D03*
X026902Y014607D03*
X027052Y013807D03*
X026852Y013457D03*
X028302Y013357D03*
X025452Y013807D03*
X025502Y009557D03*
X022002Y019157D03*
X021852Y019957D03*
X021652Y020357D03*
X020802Y019157D03*
X020102Y019157D03*
X019702Y019357D03*
X019702Y019807D03*
X020102Y020057D03*
X019652Y020407D03*
X019752Y021057D03*
X020802Y026007D03*
X022602Y028807D03*
X023452Y025757D03*
X018552Y030257D03*
X012352Y035407D03*
X012152Y033757D03*
X011252Y033007D03*
X010602Y031107D03*
X008652Y032407D03*
X008102Y032957D03*
X007752Y033307D03*
X007402Y033657D03*
X006402Y034807D03*
X005402Y033657D03*
X004552Y031657D03*
X005752Y028207D03*
X007750Y031005D03*
X007952Y029007D03*
X008752Y028007D03*
X009152Y028007D03*
X009552Y028007D03*
X006252Y022357D03*
X006952Y013807D03*
X006952Y013407D03*
X006952Y011807D03*
X007152Y011507D03*
X007702Y011007D03*
X017602Y013857D03*
X026402Y033157D03*
X028352Y034157D03*
X028652Y036657D03*
X027652Y037657D03*
X026652Y036657D03*
X027152Y039207D03*
X027824Y039485D03*
X028102Y040157D03*
X027824Y040829D03*
X027152Y041107D03*
X026481Y040829D03*
X026202Y040157D03*
X026481Y039485D03*
X028652Y038657D03*
X011502Y037857D03*
X008902Y041257D03*
X007802Y041757D03*
X006824Y040829D03*
X006152Y041107D03*
X005481Y040829D03*
X005202Y040157D03*
X005481Y039485D03*
X006152Y039207D03*
X006824Y039485D03*
X007102Y040157D03*
X006552Y038307D03*
X007402Y036157D03*
X008002Y035657D03*
X008652Y034907D03*
X005052Y036157D03*
X010702Y041657D03*
D26*
X015502Y022657D02*
X015502Y021907D01*
X015102Y021507D01*
X014052Y021757D02*
X013602Y022207D01*
X013152Y022207D01*
X012802Y021857D01*
X012802Y021807D01*
X019402Y021707D02*
X019402Y020657D01*
X019652Y020407D01*
X019402Y021707D02*
X019702Y022007D01*
X022652Y016157D02*
X023202Y016157D01*
X023802Y015557D01*
X023802Y015407D01*
X024252Y015407D02*
X024252Y014957D01*
X024702Y014607D02*
X024702Y015407D01*
X026902Y015107D02*
X026902Y014607D01*
X027352Y014707D02*
X027352Y015107D01*
X027802Y015107D02*
X028102Y015407D01*
X026052Y009057D02*
X026052Y008657D01*
X025602Y008657D02*
X025602Y008307D01*
X025752Y007657D02*
X026052Y007357D01*
X026502Y007357D02*
X026502Y007057D01*
X026952Y007357D02*
X026952Y007757D01*
X025352Y007257D02*
X025352Y006707D01*
X025352Y007257D02*
X024052Y008557D01*
X024052Y008807D01*
X023411Y009449D01*
X023411Y009415D01*
X022702Y008707D01*
X022702Y008257D01*
X023411Y009449D02*
X023411Y009489D01*
X025152Y009107D02*
X025152Y008657D01*
X026402Y033157D02*
X027402Y033157D01*
X027902Y033657D01*
X028352Y034157D02*
X027402Y034157D01*
X026902Y034657D01*
D27*
X026902Y035657D02*
X025152Y033907D01*
X025152Y032657D01*
X024502Y032007D01*
X024502Y030657D01*
X022652Y028807D01*
X022602Y028807D01*
X021802Y028807D01*
X020802Y027807D01*
X020802Y028007D01*
X018552Y030257D01*
X018202Y030257D01*
X017902Y030257D01*
X016852Y029207D01*
X015402Y029207D01*
X015152Y029457D01*
X014402Y029457D01*
X012152Y031707D01*
X012152Y033757D01*
X011052Y032107D02*
X009802Y032107D01*
X009202Y031507D01*
X007552Y031507D01*
X007052Y031007D01*
X005502Y031007D01*
X004652Y030157D01*
X004652Y029157D02*
X004652Y027707D01*
X004952Y027707D01*
X006152Y027707D01*
X006952Y028507D01*
X009202Y028507D01*
X009652Y028957D01*
X009652Y029157D01*
X009152Y029657D02*
X008652Y029157D01*
X008752Y028007D02*
X009152Y028007D01*
X009552Y028007D01*
X008752Y028007D02*
X007252Y028007D01*
X005202Y025957D01*
X005202Y019257D01*
X005902Y018557D01*
X005902Y017107D01*
X005902Y016757D01*
X005902Y016207D01*
X005002Y015307D01*
X005002Y014857D01*
X005002Y014457D01*
X006002Y014857D02*
X006002Y013957D01*
X006002Y013607D01*
X006002Y013957D01*
X006002Y013607D02*
X006002Y011307D01*
X006652Y010657D01*
X006652Y010051D01*
X007152Y011507D02*
X013052Y011507D01*
X015152Y011507D01*
X020952Y011507D01*
X020952Y012007D01*
X019802Y013157D01*
X019652Y013157D01*
X018652Y012157D02*
X018602Y012157D01*
X018352Y012407D01*
X020952Y011507D02*
X021602Y010857D01*
X021652Y010807D01*
X023552Y010807D01*
X023602Y010857D01*
X023852Y010357D02*
X024102Y010607D01*
X024102Y011207D01*
X023302Y012007D01*
X023302Y013507D01*
X022652Y014157D01*
X022252Y014157D01*
X018302Y018107D01*
X018302Y022207D01*
X021302Y025207D01*
X021302Y027557D01*
X022052Y028307D01*
X022902Y028307D01*
X025352Y030757D01*
X025352Y032157D01*
X025652Y032457D01*
X025652Y033157D01*
X026152Y033657D01*
X026902Y033657D01*
X026402Y033157D02*
X026152Y032907D01*
X026152Y032207D01*
X025852Y031907D01*
X025852Y030507D01*
X023152Y027807D01*
X022302Y027807D01*
X021802Y027307D01*
X021802Y025007D01*
X018802Y022007D01*
X018802Y018407D01*
X022052Y015157D01*
X022652Y015157D01*
X022652Y016157D02*
X022352Y016157D01*
X022652Y017157D02*
X022402Y017407D01*
X022652Y017157D02*
X023002Y017157D01*
X022652Y018157D02*
X022342Y018157D01*
X022652Y020157D02*
X023102Y020607D01*
X022652Y021157D02*
X023102Y021607D01*
X022652Y022157D02*
X025152Y024657D01*
X026902Y024657D01*
X027402Y025157D02*
X027902Y025657D01*
X027402Y026157D02*
X027902Y026657D01*
X026902Y026657D02*
X026402Y026657D01*
X026402Y025657D02*
X026902Y025657D01*
X027902Y024657D02*
X027402Y024157D01*
X026902Y023657D02*
X026152Y023657D01*
X023152Y023657D02*
X022652Y023157D01*
X022652Y024157D02*
X023002Y024507D01*
X023002Y025157D02*
X022652Y025157D01*
X022652Y026157D02*
X023152Y026657D01*
X023252Y027157D02*
X022652Y027157D01*
X023252Y027157D02*
X026252Y030157D01*
X026902Y030657D02*
X027152Y030407D01*
X028802Y031157D02*
X028802Y032157D01*
X028802Y034407D01*
X028552Y034657D01*
X027902Y034657D01*
X028802Y031157D02*
X028802Y012657D01*
X028802Y006857D01*
X028802Y005557D01*
X027902Y008307D02*
X027902Y008657D01*
X026902Y009657D02*
X026552Y009657D01*
X027652Y010907D02*
X027902Y010657D01*
X028152Y010407D01*
X027902Y012657D02*
X028802Y012657D01*
X027902Y012657D02*
X027602Y012957D01*
X027602Y013257D01*
X027052Y013807D01*
X023852Y013807D02*
X023852Y012157D01*
X022652Y012157D02*
X017302Y017507D01*
X017302Y019357D01*
X016902Y019357D01*
X017302Y019357D02*
X017302Y022607D01*
X020302Y025607D01*
X020302Y026207D01*
X020802Y026707D01*
X020802Y027807D01*
X020302Y027457D02*
X020302Y026907D01*
X019652Y026257D01*
X019652Y026157D01*
X019652Y027157D02*
X018602Y028207D01*
X014902Y028207D01*
X014652Y028457D01*
X013502Y028457D01*
X012552Y029407D01*
X012552Y029907D01*
X010852Y031607D01*
X010102Y031607D01*
X009652Y031157D01*
X009652Y030157D01*
X010152Y029657D02*
X010652Y030157D01*
X011052Y029757D01*
X010652Y029157D02*
X010652Y028807D01*
X011152Y027657D02*
X011652Y027157D01*
X012152Y026657D02*
X011652Y026157D01*
X010652Y026157D02*
X010652Y025907D01*
X009652Y027157D02*
X009352Y026857D01*
X009752Y022807D02*
X010752Y021807D01*
X012802Y021807D01*
X013652Y026857D02*
X013652Y027157D01*
X014202Y028957D02*
X011052Y032107D01*
X008652Y034907D02*
X007402Y033657D01*
X005652Y029457D02*
X005652Y029157D01*
X004952Y027707D02*
X004952Y026507D01*
X004502Y026057D01*
X004502Y022757D01*
X004502Y021507D01*
X004502Y020157D01*
X004502Y012907D01*
X004502Y006757D01*
X004652Y006607D01*
X007953Y007507D02*
X009952Y007507D01*
X007953Y007507D02*
X007953Y007677D01*
X008202Y004907D02*
X008500Y004609D01*
X008500Y004587D01*
X013252Y007607D02*
X014252Y007607D01*
X014252Y007677D01*
X015153Y007677D02*
X015153Y007557D01*
X016552Y007557D01*
X015381Y004907D02*
X015700Y004587D01*
X020053Y007557D02*
X021452Y007557D01*
X022452Y013157D02*
X017802Y017807D01*
X017802Y019857D01*
X017802Y022407D01*
X020802Y025407D01*
X020802Y026007D01*
X020302Y027457D02*
X019052Y028707D01*
X015152Y028707D01*
X014902Y028957D01*
X014202Y028957D01*
X016652Y026157D02*
X016652Y025807D01*
X017652Y026157D02*
X017652Y026457D01*
X018502Y025907D02*
X018652Y026057D01*
X018652Y026157D01*
X018652Y026907D02*
X018652Y027157D01*
X018202Y030257D02*
X018202Y032007D01*
X011392Y039396D02*
X011637Y039641D01*
X011637Y040507D01*
X011392Y039396D02*
X010873Y039396D01*
X009742Y039396D01*
X009152Y038807D01*
X009152Y038124D01*
X006402Y016857D02*
X006402Y016507D01*
X006402Y015257D01*
X006002Y014857D01*
X006952Y013407D02*
X007852Y014307D01*
X010552Y014307D01*
X007952Y012457D02*
X007652Y012157D01*
X006952Y011807D02*
X006902Y011857D01*
X006902Y013357D01*
X006952Y013407D01*
X006952Y011807D02*
X006952Y011707D01*
X007152Y011507D01*
X022452Y013157D02*
X022652Y013157D01*
D28*
X004412Y006057D02*
X004412Y002417D01*
X007492Y002417D01*
X007492Y005065D01*
X007585Y005157D01*
X006995Y005747D01*
X006842Y005899D01*
X006842Y008838D01*
X006745Y008797D01*
X006691Y008797D01*
X006691Y009224D01*
X006614Y009224D01*
X006614Y008797D01*
X006560Y008797D01*
X006389Y008868D01*
X006258Y008999D01*
X006187Y009170D01*
X006187Y009224D01*
X006614Y009224D01*
X006614Y009302D01*
X006187Y009302D01*
X006187Y009356D01*
X006258Y009527D01*
X006305Y009575D01*
X006300Y009575D01*
X006177Y009698D01*
X006177Y010403D01*
X006242Y010469D01*
X006242Y010487D01*
X005592Y011137D01*
X005592Y011477D01*
X005592Y011775D01*
X005579Y011770D01*
X005425Y011770D01*
X005283Y011829D01*
X005174Y011938D01*
X005115Y012080D01*
X005115Y012234D01*
X005174Y012376D01*
X005283Y012485D01*
X005392Y012530D01*
X005392Y014267D01*
X005172Y014047D01*
X004833Y014047D01*
X004592Y014287D01*
X004592Y014687D01*
X004592Y015137D01*
X004592Y015477D01*
X005492Y016377D01*
X005492Y016587D01*
X005492Y016937D01*
X005492Y018387D01*
X004792Y019087D01*
X004792Y019427D01*
X004792Y025787D01*
X004792Y026127D01*
X005228Y026562D01*
X005141Y026649D01*
X005085Y026784D01*
X005085Y026930D01*
X005141Y027065D01*
X005244Y027168D01*
X005379Y027224D01*
X005526Y027224D01*
X005661Y027168D01*
X005747Y027082D01*
X006842Y028177D01*
X006842Y028177D01*
X007083Y028417D01*
X008583Y028417D01*
X008983Y028417D01*
X009722Y028417D01*
X009962Y028177D01*
X009962Y027917D01*
X010833Y027917D01*
X010983Y028067D01*
X011322Y028067D01*
X011692Y027697D01*
X011745Y027697D01*
X011145Y028297D01*
X011010Y028297D01*
X010795Y028297D01*
X010695Y028397D01*
X010483Y028397D01*
X010242Y028637D01*
X010242Y028775D01*
X010178Y028840D01*
X010147Y028914D01*
X010119Y028845D01*
X009964Y028691D01*
X009762Y028607D01*
X009702Y028607D01*
X009702Y029107D01*
X009602Y029107D01*
X009602Y028607D01*
X009543Y028607D01*
X009341Y028691D01*
X009212Y028819D01*
X009212Y028720D01*
X009089Y028597D01*
X008215Y028597D01*
X008145Y028667D01*
X008029Y028620D01*
X007875Y028620D01*
X007733Y028679D01*
X007624Y028788D01*
X007608Y028827D01*
X007114Y028827D01*
X006970Y028682D01*
X006764Y028597D01*
X006541Y028597D01*
X006412Y028650D01*
X006412Y028499D01*
X006140Y028226D01*
X006140Y028130D01*
X006081Y027988D01*
X005972Y027879D01*
X005829Y027820D01*
X005675Y027820D01*
X005533Y027879D01*
X005424Y027988D01*
X005365Y028130D01*
X005365Y028284D01*
X005424Y028426D01*
X005533Y028535D01*
X005675Y028594D01*
X005772Y028594D01*
X005783Y028605D01*
X005764Y028597D01*
X005541Y028597D01*
X005335Y028682D01*
X005202Y028815D01*
X005202Y028724D01*
X005085Y028607D01*
X004701Y028607D01*
X004701Y029108D01*
X004604Y029108D01*
X004604Y028607D01*
X004412Y028607D01*
X004412Y027224D01*
X004476Y027224D01*
X004611Y027168D01*
X004714Y027065D01*
X004770Y026930D01*
X004770Y026784D01*
X004714Y026649D01*
X004611Y026545D01*
X004476Y026489D01*
X004412Y026489D01*
X004412Y007157D01*
X004602Y007157D01*
X004602Y006657D01*
X004702Y006657D01*
X004702Y007157D01*
X005085Y007157D01*
X005202Y007040D01*
X005202Y006657D01*
X004703Y006657D01*
X004703Y006557D01*
X005202Y006557D01*
X005202Y006174D01*
X005085Y006057D01*
X004702Y006057D01*
X004702Y006557D01*
X004602Y006557D01*
X004602Y006057D01*
X004412Y006057D01*
X004412Y006000D02*
X006842Y006000D01*
X006842Y005901D02*
X004412Y005901D01*
X004412Y005803D02*
X006939Y005803D01*
X007037Y005704D02*
X004412Y005704D01*
X004412Y005606D02*
X007136Y005606D01*
X007234Y005507D02*
X004412Y005507D01*
X004412Y005409D02*
X007333Y005409D01*
X007431Y005310D02*
X004412Y005310D01*
X004412Y005212D02*
X007530Y005212D01*
X007541Y005113D02*
X004412Y005113D01*
X004412Y005015D02*
X007492Y005015D01*
X007492Y004916D02*
X004412Y004916D01*
X004412Y004818D02*
X007492Y004818D01*
X007492Y004719D02*
X004412Y004719D01*
X004412Y004620D02*
X007492Y004620D01*
X007492Y004522D02*
X004412Y004522D01*
X004412Y004423D02*
X007492Y004423D01*
X007492Y004325D02*
X004412Y004325D01*
X004412Y004226D02*
X007492Y004226D01*
X007492Y004128D02*
X004412Y004128D01*
X004412Y004029D02*
X007492Y004029D01*
X007492Y003931D02*
X004412Y003931D01*
X004412Y003832D02*
X007492Y003832D01*
X007492Y003734D02*
X004412Y003734D01*
X004412Y003635D02*
X007492Y003635D01*
X007492Y003536D02*
X004412Y003536D01*
X004412Y003438D02*
X007492Y003438D01*
X007492Y003339D02*
X004412Y003339D01*
X004412Y003241D02*
X007492Y003241D01*
X007492Y003142D02*
X004412Y003142D01*
X004412Y003044D02*
X007492Y003044D01*
X007492Y002945D02*
X004412Y002945D01*
X004412Y002847D02*
X007492Y002847D01*
X007492Y002748D02*
X004412Y002748D01*
X004412Y002650D02*
X007492Y002650D01*
X007492Y002551D02*
X004412Y002551D01*
X004412Y002452D02*
X007492Y002452D01*
X008092Y002497D02*
X008092Y004126D01*
X008152Y004066D01*
X008378Y003973D01*
X008622Y003973D01*
X008848Y004066D01*
X009000Y004218D01*
X009152Y004066D01*
X009378Y003973D01*
X009622Y003973D01*
X009848Y004066D01*
X010021Y004239D01*
X010115Y004465D01*
X010115Y004710D01*
X010021Y004936D01*
X009848Y005109D01*
X009622Y005202D01*
X009378Y005202D01*
X009152Y005109D01*
X009000Y004957D01*
X008848Y005109D01*
X008622Y005202D01*
X008600Y005202D01*
X008405Y005397D01*
X008193Y005397D01*
X007952Y005638D01*
X007952Y006226D01*
X008073Y005936D01*
X008331Y005677D01*
X008669Y005537D01*
X009035Y005537D01*
X009374Y005677D01*
X009632Y005936D01*
X009772Y006274D01*
X009772Y006640D01*
X009632Y006978D01*
X009374Y007237D01*
X009035Y007377D01*
X008669Y007377D01*
X008460Y007290D01*
X008479Y007336D01*
X008479Y007546D01*
X008479Y007624D01*
X008479Y007703D01*
X008479Y007861D01*
X008479Y007939D01*
X008451Y008007D01*
X013754Y008007D01*
X013726Y007939D01*
X013726Y007861D01*
X013726Y007703D01*
X013726Y007624D01*
X013726Y007546D01*
X013726Y007336D01*
X013745Y007290D01*
X013535Y007377D01*
X013169Y007377D01*
X012831Y007237D01*
X012573Y006978D01*
X012433Y006640D01*
X012433Y006274D01*
X012573Y005936D01*
X012831Y005677D01*
X013169Y005537D01*
X013535Y005537D01*
X013874Y005677D01*
X014132Y005936D01*
X014202Y006105D01*
X014202Y004959D01*
X014053Y005109D01*
X013827Y005202D01*
X013582Y005202D01*
X013357Y005109D01*
X013205Y004957D01*
X013053Y005109D01*
X012827Y005202D01*
X012582Y005202D01*
X012357Y005109D01*
X012184Y004936D01*
X012090Y004710D01*
X012090Y004465D01*
X012184Y004239D01*
X012357Y004066D01*
X012582Y003973D01*
X012827Y003973D01*
X013053Y004066D01*
X013205Y004218D01*
X013357Y004066D01*
X013582Y003973D01*
X013827Y003973D01*
X014053Y004066D01*
X014202Y004216D01*
X014202Y002497D01*
X008092Y002497D01*
X008092Y002551D02*
X014202Y002551D01*
X014202Y002650D02*
X008092Y002650D01*
X008092Y002748D02*
X014202Y002748D01*
X014202Y002847D02*
X008092Y002847D01*
X008092Y002945D02*
X014202Y002945D01*
X014202Y003044D02*
X008092Y003044D01*
X008092Y003142D02*
X014202Y003142D01*
X014202Y003241D02*
X008092Y003241D01*
X008092Y003339D02*
X014202Y003339D01*
X014202Y003438D02*
X008092Y003438D01*
X008092Y003536D02*
X014202Y003536D01*
X014202Y003635D02*
X008092Y003635D01*
X008092Y003734D02*
X014202Y003734D01*
X014202Y003832D02*
X008092Y003832D01*
X008092Y003931D02*
X014202Y003931D01*
X014202Y004029D02*
X013964Y004029D01*
X014115Y004128D02*
X014202Y004128D01*
X013446Y004029D02*
X012964Y004029D01*
X013115Y004128D02*
X013295Y004128D01*
X013263Y005015D02*
X013147Y005015D01*
X013042Y005113D02*
X013368Y005113D01*
X013702Y005606D02*
X014202Y005606D01*
X014202Y005704D02*
X013901Y005704D01*
X013999Y005803D02*
X014202Y005803D01*
X014202Y005901D02*
X014098Y005901D01*
X014159Y006000D02*
X014202Y006000D01*
X014200Y006099D02*
X014202Y006099D01*
X014202Y005507D02*
X008083Y005507D01*
X008181Y005409D02*
X014202Y005409D01*
X014202Y005310D02*
X008492Y005310D01*
X008590Y005212D02*
X014202Y005212D01*
X014202Y005113D02*
X014042Y005113D01*
X014147Y005015D02*
X014202Y005015D01*
X014702Y005585D02*
X015381Y004907D01*
X015371Y005397D02*
X015152Y005616D01*
X015152Y006226D01*
X015273Y005936D01*
X015531Y005677D01*
X015869Y005537D01*
X016235Y005537D01*
X016574Y005677D01*
X016832Y005936D01*
X016972Y006274D01*
X016972Y006640D01*
X016832Y006978D01*
X016574Y007237D01*
X016235Y007377D01*
X015869Y007377D01*
X015660Y007290D01*
X015679Y007336D01*
X015679Y007546D01*
X015679Y007624D01*
X015679Y007703D01*
X015679Y007757D01*
X020926Y007757D01*
X020926Y007651D01*
X020926Y007624D01*
X020926Y007546D01*
X020926Y007336D01*
X020945Y007290D01*
X020735Y007377D01*
X020369Y007377D01*
X020031Y007237D01*
X019773Y006978D01*
X019633Y006640D01*
X019633Y006274D01*
X019773Y005936D01*
X020031Y005677D01*
X020369Y005537D01*
X020735Y005537D01*
X021074Y005677D01*
X021332Y005936D01*
X021362Y006009D01*
X021362Y004999D01*
X021253Y005109D01*
X021027Y005202D01*
X020782Y005202D01*
X020557Y005109D01*
X020405Y004957D01*
X020253Y005109D01*
X020027Y005202D01*
X019782Y005202D01*
X019557Y005109D01*
X019384Y004936D01*
X019290Y004710D01*
X019290Y004465D01*
X019384Y004239D01*
X019557Y004066D01*
X019782Y003973D01*
X020027Y003973D01*
X020253Y004066D01*
X020405Y004218D01*
X020557Y004066D01*
X020782Y003973D01*
X021027Y003973D01*
X021253Y004066D01*
X021362Y004176D01*
X021362Y002497D01*
X015152Y002497D01*
X015152Y004303D01*
X015179Y004239D01*
X015352Y004066D01*
X015578Y003973D01*
X015822Y003973D01*
X016048Y004066D01*
X016200Y004218D01*
X016352Y004066D01*
X016578Y003973D01*
X016822Y003973D01*
X017048Y004066D01*
X017221Y004239D01*
X017315Y004465D01*
X017315Y004710D01*
X017221Y004936D01*
X017048Y005109D01*
X016822Y005202D01*
X016578Y005202D01*
X016352Y005109D01*
X016200Y004957D01*
X016048Y005109D01*
X015822Y005202D01*
X015778Y005202D01*
X015584Y005397D01*
X015371Y005397D01*
X015359Y005409D02*
X021362Y005409D01*
X021362Y005507D02*
X015261Y005507D01*
X015162Y005606D02*
X015703Y005606D01*
X015504Y005704D02*
X015152Y005704D01*
X015152Y005803D02*
X015405Y005803D01*
X015307Y005901D02*
X015152Y005901D01*
X015152Y006000D02*
X015246Y006000D01*
X015205Y006099D02*
X015152Y006099D01*
X015152Y006197D02*
X015164Y006197D01*
X014702Y005585D02*
X014702Y010107D01*
X013852Y010957D01*
X008202Y010957D01*
X007952Y010707D01*
X007452Y010707D01*
X006552Y011607D01*
X006552Y014557D01*
X006952Y014957D01*
X006952Y023727D01*
X005802Y024877D01*
X005802Y025707D01*
X006752Y026657D01*
X009152Y026657D01*
X009352Y026857D01*
X009152Y025953D02*
X009195Y025851D01*
X009347Y025699D01*
X009545Y025617D01*
X009760Y025617D01*
X009958Y025699D01*
X010110Y025851D01*
X010152Y025953D01*
X010195Y025851D01*
X010242Y025803D01*
X010242Y025737D01*
X010483Y025497D01*
X010695Y025497D01*
X011015Y025176D01*
X011015Y025080D01*
X011074Y024938D01*
X011183Y024829D01*
X011325Y024770D01*
X011440Y024770D01*
X011474Y024688D01*
X011583Y024579D01*
X011725Y024520D01*
X011879Y024520D01*
X012022Y024579D01*
X012131Y024688D01*
X012190Y024830D01*
X012190Y024984D01*
X012131Y025126D01*
X012062Y025194D01*
X012062Y025199D01*
X012062Y025415D01*
X011831Y025646D01*
X011958Y025699D01*
X012110Y025851D01*
X012152Y025953D01*
X012195Y025851D01*
X012347Y025699D01*
X012545Y025617D01*
X012760Y025617D01*
X012958Y025699D01*
X013110Y025851D01*
X013152Y025953D01*
X013195Y025851D01*
X013347Y025699D01*
X013545Y025617D01*
X013760Y025617D01*
X013892Y025672D01*
X013892Y023315D01*
X013892Y023117D01*
X013210Y023117D01*
X012860Y023467D01*
X012645Y023467D01*
X012460Y023467D01*
X010762Y025165D01*
X010610Y025317D01*
X008160Y025317D01*
X007831Y025646D01*
X007958Y025699D01*
X008110Y025851D01*
X008152Y025953D01*
X008195Y025851D01*
X008347Y025699D01*
X008545Y025617D01*
X008760Y025617D01*
X008958Y025699D01*
X009110Y025851D01*
X009152Y025953D01*
X009133Y025906D02*
X009172Y025906D01*
X009238Y025807D02*
X009066Y025807D01*
X008968Y025709D02*
X009337Y025709D01*
X009968Y025709D02*
X010271Y025709D01*
X010238Y025807D02*
X010066Y025807D01*
X010133Y025906D02*
X010172Y025906D01*
X010369Y025610D02*
X007867Y025610D01*
X007965Y025512D02*
X010468Y025512D01*
X010612Y025315D02*
X010877Y025315D01*
X010779Y025413D02*
X008064Y025413D01*
X007968Y025709D02*
X008337Y025709D01*
X008238Y025807D02*
X008066Y025807D01*
X008133Y025906D02*
X008172Y025906D01*
X008052Y025057D02*
X010502Y025057D01*
X012352Y023207D01*
X012752Y023207D01*
X013102Y022857D01*
X014052Y022857D01*
X014852Y022057D01*
X015102Y022057D01*
X015236Y022421D02*
X015240Y022430D01*
X015240Y022584D01*
X015181Y022726D01*
X015072Y022835D01*
X014929Y022894D01*
X014833Y022894D01*
X014412Y023315D01*
X014412Y025672D01*
X014545Y025617D01*
X014760Y025617D01*
X014958Y025699D01*
X015110Y025851D01*
X015152Y025953D01*
X015195Y025851D01*
X015347Y025699D01*
X015545Y025617D01*
X015760Y025617D01*
X015958Y025699D01*
X016110Y025851D01*
X016152Y025953D01*
X016195Y025851D01*
X016242Y025803D01*
X016242Y025637D01*
X016392Y025487D01*
X016392Y025265D01*
X016245Y025117D01*
X016092Y024965D01*
X016092Y022515D01*
X015484Y021906D01*
X015454Y021894D01*
X015490Y021980D01*
X015490Y022134D01*
X015431Y022276D01*
X015322Y022385D01*
X015236Y022421D01*
X015240Y022457D02*
X016035Y022457D01*
X016092Y022555D02*
X015240Y022555D01*
X015211Y022654D02*
X016092Y022654D01*
X016092Y022752D02*
X015154Y022752D01*
X015033Y022851D02*
X016092Y022851D01*
X016092Y022949D02*
X014777Y022949D01*
X014679Y023048D02*
X016092Y023048D01*
X016092Y023147D02*
X014580Y023147D01*
X014482Y023245D02*
X016092Y023245D01*
X016092Y023344D02*
X014412Y023344D01*
X014412Y023442D02*
X016092Y023442D01*
X016092Y023541D02*
X014412Y023541D01*
X014412Y023639D02*
X016092Y023639D01*
X016092Y023738D02*
X014412Y023738D01*
X014412Y023836D02*
X016092Y023836D01*
X016092Y023935D02*
X014412Y023935D01*
X014412Y024033D02*
X016092Y024033D01*
X016092Y024132D02*
X014412Y024132D01*
X014412Y024231D02*
X016092Y024231D01*
X016092Y024329D02*
X014412Y024329D01*
X014412Y024428D02*
X016092Y024428D01*
X016092Y024526D02*
X014412Y024526D01*
X014412Y024625D02*
X016092Y024625D01*
X016092Y024723D02*
X014412Y024723D01*
X014412Y024822D02*
X016092Y024822D01*
X016092Y024920D02*
X014412Y024920D01*
X014412Y025019D02*
X016147Y025019D01*
X016245Y025117D02*
X014412Y025117D01*
X014412Y025216D02*
X016344Y025216D01*
X016392Y025315D02*
X014412Y025315D01*
X014412Y025413D02*
X016392Y025413D01*
X016368Y025512D02*
X014412Y025512D01*
X014412Y025610D02*
X016269Y025610D01*
X016242Y025709D02*
X015968Y025709D01*
X016066Y025807D02*
X016238Y025807D01*
X016172Y025906D02*
X016133Y025906D01*
X016652Y025807D02*
X016652Y025157D01*
X016352Y024857D01*
X016352Y022407D01*
X015652Y021707D01*
X015652Y021557D01*
X016002Y021507D02*
X016002Y021757D01*
X016552Y022307D01*
X016552Y024707D01*
X017152Y025307D01*
X017152Y025457D01*
X017152Y027357D01*
X016852Y027657D01*
X014552Y027657D01*
X014302Y027907D01*
X012202Y027907D01*
X011152Y028957D01*
X011152Y029657D01*
X011052Y029757D01*
X011402Y030307D02*
X010602Y031107D01*
X010329Y030833D02*
X008098Y030833D01*
X008079Y030786D02*
X008138Y030928D01*
X008138Y031082D01*
X008131Y031097D01*
X009372Y031097D01*
X009612Y031337D01*
X009972Y031697D01*
X010883Y031697D01*
X014033Y028547D01*
X014372Y028547D01*
X014733Y028547D01*
X014983Y028297D01*
X015322Y028297D01*
X018883Y028297D01*
X019509Y027671D01*
X019352Y027606D01*
X019203Y027457D01*
X019158Y027348D01*
X019110Y027463D01*
X018958Y027615D01*
X018760Y027697D01*
X018545Y027697D01*
X018347Y027615D01*
X018304Y027572D01*
X017912Y027965D01*
X017760Y028117D01*
X014760Y028117D01*
X014510Y028367D01*
X014295Y028367D01*
X012410Y028367D01*
X011687Y029090D01*
X011791Y029047D01*
X012014Y029047D01*
X012220Y029132D01*
X012377Y029290D01*
X012462Y029495D01*
X012462Y029718D01*
X012377Y029924D01*
X012220Y030082D01*
X012014Y030167D01*
X011791Y030167D01*
X011662Y030114D01*
X011662Y030199D01*
X011662Y030415D01*
X010990Y031087D01*
X010990Y031184D01*
X010931Y031326D01*
X011254Y031326D01*
X011155Y031424D02*
X010833Y031424D01*
X010822Y031435D02*
X010679Y031494D01*
X010525Y031494D01*
X010383Y031435D01*
X010274Y031326D01*
X010215Y031184D01*
X010215Y031030D01*
X008138Y031030D01*
X008138Y030931D02*
X010256Y030931D01*
X010274Y030888D02*
X010383Y030779D01*
X010525Y030720D01*
X010622Y030720D01*
X010625Y030717D01*
X010215Y030717D01*
X010092Y030594D01*
X010092Y030466D01*
X009953Y030606D01*
X009758Y030687D01*
X009702Y030687D01*
X009702Y030207D01*
X009602Y030207D01*
X009602Y030687D01*
X009547Y030687D01*
X009352Y030606D01*
X009203Y030457D01*
X009158Y030348D01*
X009110Y030463D01*
X008958Y030615D01*
X008760Y030697D01*
X008545Y030697D01*
X008347Y030615D01*
X008195Y030463D01*
X008152Y030361D01*
X008110Y030463D01*
X007958Y030615D01*
X007889Y030643D01*
X007970Y030677D01*
X008079Y030786D01*
X008028Y030734D02*
X010490Y030734D01*
X010274Y030888D02*
X010215Y031030D01*
X010215Y031129D02*
X009404Y031129D01*
X009503Y031227D02*
X010233Y031227D01*
X010274Y031326D02*
X009601Y031326D01*
X009700Y031424D02*
X010372Y031424D01*
X010822Y031435D02*
X010931Y031326D01*
X010972Y031227D02*
X011352Y031227D01*
X011451Y031129D02*
X010990Y031129D01*
X011047Y031030D02*
X011549Y031030D01*
X011648Y030931D02*
X011145Y030931D01*
X011244Y030833D02*
X011746Y030833D01*
X011845Y030734D02*
X011343Y030734D01*
X011441Y030636D02*
X011944Y030636D01*
X012042Y030537D02*
X011540Y030537D01*
X011638Y030439D02*
X012141Y030439D01*
X012239Y030340D02*
X011662Y030340D01*
X011662Y030242D02*
X012338Y030242D01*
X012436Y030143D02*
X012071Y030143D01*
X012257Y030045D02*
X012535Y030045D01*
X012633Y029946D02*
X012355Y029946D01*
X012409Y029848D02*
X012732Y029848D01*
X012830Y029749D02*
X012450Y029749D01*
X012462Y029650D02*
X012929Y029650D01*
X013028Y029552D02*
X012462Y029552D01*
X012445Y029453D02*
X013126Y029453D01*
X013225Y029355D02*
X012404Y029355D01*
X012344Y029256D02*
X013323Y029256D01*
X013422Y029158D02*
X012245Y029158D01*
X012044Y029059D02*
X013520Y029059D01*
X013619Y028961D02*
X011816Y028961D01*
X011761Y029059D02*
X011718Y029059D01*
X011915Y028862D02*
X013717Y028862D01*
X013816Y028764D02*
X012013Y028764D01*
X012112Y028665D02*
X013914Y028665D01*
X014013Y028566D02*
X012210Y028566D01*
X012309Y028468D02*
X014812Y028468D01*
X014910Y028369D02*
X012408Y028369D01*
X012302Y028107D02*
X014402Y028107D01*
X014652Y027857D01*
X017652Y027857D01*
X018152Y027357D01*
X018152Y026957D01*
X017652Y026457D01*
X018152Y026407D02*
X018152Y025957D01*
X016752Y024557D01*
X016752Y022057D01*
X016352Y021657D01*
X016002Y021507D02*
X016552Y020957D01*
X016552Y019207D01*
X016952Y018807D01*
X016952Y017257D01*
X017152Y017057D01*
X017152Y012857D01*
X017352Y012657D01*
X018102Y012657D01*
X018352Y012407D01*
X018152Y011953D02*
X018195Y011851D01*
X018347Y011699D01*
X018545Y011617D01*
X018760Y011617D01*
X019235Y011617D01*
X020069Y011617D01*
X020192Y011740D01*
X020192Y012574D01*
X020069Y012697D01*
X019927Y012697D01*
X019953Y012708D01*
X020102Y012857D01*
X020170Y013022D01*
X021965Y011226D01*
X021965Y011180D01*
X022024Y011038D01*
X022133Y010929D01*
X022275Y010870D01*
X022429Y010870D01*
X022572Y010929D01*
X022577Y010934D01*
X022583Y010929D01*
X022725Y010870D01*
X022879Y010870D01*
X023022Y010929D01*
X023131Y011038D01*
X023190Y011180D01*
X023190Y011334D01*
X023131Y011476D01*
X023022Y011585D01*
X022945Y011617D01*
X023069Y011617D01*
X023091Y011638D01*
X023692Y011037D01*
X023692Y010777D01*
X023633Y010717D01*
X021602Y010717D01*
X020902Y011417D01*
X020603Y011417D01*
X015052Y011417D01*
X014753Y011417D01*
X014549Y011212D01*
X014483Y011185D01*
X014388Y011089D01*
X014060Y011417D01*
X013845Y011417D01*
X007745Y011417D01*
X007722Y011394D01*
X007625Y011394D01*
X007483Y011335D01*
X007374Y011226D01*
X007353Y011174D01*
X006812Y011715D01*
X006812Y014449D01*
X007060Y014697D01*
X007212Y014849D01*
X007212Y023619D01*
X007212Y023835D01*
X006062Y024985D01*
X006062Y025046D01*
X006125Y025020D01*
X006222Y025020D01*
X007045Y024197D01*
X007260Y024197D01*
X007845Y024197D01*
X008192Y023849D01*
X008192Y021665D01*
X008192Y021449D01*
X009192Y020449D01*
X009345Y020297D01*
X012465Y020297D01*
X012533Y020229D01*
X012675Y020170D01*
X012829Y020170D01*
X012972Y020229D01*
X012990Y020247D01*
X015165Y020247D01*
X015183Y020229D01*
X015325Y020170D01*
X015479Y020170D01*
X015622Y020229D01*
X015731Y020338D01*
X015790Y020480D01*
X015790Y020634D01*
X015731Y020776D01*
X015622Y020885D01*
X015479Y020944D01*
X015325Y020944D01*
X015240Y020908D01*
X015240Y020934D01*
X015181Y021076D01*
X015112Y021144D01*
X015112Y021415D01*
X015012Y021515D01*
X015012Y021675D01*
X015025Y021670D01*
X015179Y021670D01*
X015301Y021720D01*
X015265Y021634D01*
X015265Y021480D01*
X015324Y021338D01*
X015433Y021229D01*
X015575Y021170D01*
X015729Y021170D01*
X015872Y021229D01*
X015892Y021249D01*
X016292Y020849D01*
X016292Y019099D01*
X016445Y018947D01*
X016692Y018699D01*
X016692Y017149D01*
X016845Y016997D01*
X016892Y016949D01*
X016892Y013642D01*
X016760Y013697D01*
X016545Y013697D01*
X016347Y013615D01*
X016195Y013463D01*
X016152Y013361D01*
X016110Y013463D01*
X015958Y013615D01*
X015760Y013697D01*
X015545Y013697D01*
X015347Y013615D01*
X015195Y013463D01*
X015152Y013361D01*
X015110Y013463D01*
X014958Y013615D01*
X014760Y013697D01*
X014545Y013697D01*
X014347Y013615D01*
X014195Y013463D01*
X014152Y013361D01*
X014110Y013463D01*
X013958Y013615D01*
X013760Y013697D01*
X013545Y013697D01*
X013347Y013615D01*
X013195Y013463D01*
X013152Y013361D01*
X013110Y013463D01*
X012958Y013615D01*
X012760Y013697D01*
X012545Y013697D01*
X012347Y013615D01*
X012195Y013463D01*
X012152Y013361D01*
X012110Y013463D01*
X011958Y013615D01*
X011760Y013697D01*
X011545Y013697D01*
X011347Y013615D01*
X011195Y013463D01*
X011152Y013361D01*
X011110Y013463D01*
X010958Y013615D01*
X010831Y013667D01*
X010962Y013799D01*
X011010Y013847D01*
X011162Y013999D01*
X011162Y014449D01*
X012310Y015597D01*
X012462Y015749D01*
X012462Y017999D01*
X012633Y018170D01*
X012729Y018170D01*
X012872Y018229D01*
X012981Y018338D01*
X013040Y018480D01*
X013040Y018634D01*
X012981Y018776D01*
X012872Y018885D01*
X012729Y018944D01*
X012575Y018944D01*
X012433Y018885D01*
X012324Y018776D01*
X012265Y018634D01*
X012265Y018537D01*
X011942Y018215D01*
X011942Y017999D01*
X011942Y015965D01*
X010642Y014665D01*
X010642Y014449D01*
X010642Y014215D01*
X010595Y014167D01*
X008445Y014167D01*
X008292Y014015D01*
X007912Y013634D01*
X007760Y013697D01*
X007545Y013697D01*
X007347Y013615D01*
X007195Y013463D01*
X007112Y013264D01*
X007112Y013049D01*
X007195Y012851D01*
X007347Y012699D01*
X007449Y012657D01*
X007347Y012615D01*
X007195Y012463D01*
X007112Y012264D01*
X007112Y012049D01*
X007195Y011851D01*
X007347Y011699D01*
X007545Y011617D01*
X007760Y011617D01*
X008545Y011617D01*
X008760Y011617D01*
X009545Y011617D01*
X009760Y011617D01*
X010545Y011617D01*
X010760Y011617D01*
X011545Y011617D01*
X011760Y011617D01*
X012545Y011617D01*
X012760Y011617D01*
X013545Y011617D01*
X013760Y011617D01*
X014545Y011617D01*
X014760Y011617D01*
X015545Y011617D01*
X015760Y011617D01*
X016545Y011617D01*
X016760Y011617D01*
X017545Y011617D01*
X017760Y011617D01*
X018545Y011617D01*
X018760Y011617D02*
X018958Y011699D01*
X019110Y011851D01*
X019112Y011856D01*
X019112Y011740D01*
X019235Y011617D01*
X019137Y011716D02*
X018975Y011716D01*
X019073Y011814D02*
X019112Y011814D01*
X019937Y012701D02*
X020491Y012701D01*
X020589Y012602D02*
X020164Y012602D01*
X020192Y012504D02*
X020688Y012504D01*
X020786Y012405D02*
X020192Y012405D01*
X020192Y012307D02*
X020885Y012307D01*
X020983Y012208D02*
X020192Y012208D01*
X020192Y012110D02*
X021082Y012110D01*
X021180Y012011D02*
X020192Y012011D01*
X020192Y011913D02*
X021279Y011913D01*
X021378Y011814D02*
X020192Y011814D01*
X020168Y011716D02*
X021476Y011716D01*
X021575Y011617D02*
X020070Y011617D01*
X020997Y011321D02*
X021870Y011321D01*
X021965Y011223D02*
X021096Y011223D01*
X021194Y011124D02*
X021988Y011124D01*
X022036Y011026D02*
X021293Y011026D01*
X021391Y010927D02*
X022136Y010927D01*
X022302Y011257D02*
X019602Y013957D01*
X018352Y013957D01*
X018152Y013757D01*
X018152Y013557D01*
X018352Y013357D01*
X018452Y013357D01*
X017952Y013407D02*
X017952Y013857D01*
X018252Y014157D01*
X019702Y014157D01*
X022252Y011607D01*
X022452Y011607D01*
X022802Y011257D01*
X023088Y011518D02*
X023211Y011518D01*
X023154Y011420D02*
X023310Y011420D01*
X023408Y011321D02*
X023190Y011321D01*
X023190Y011223D02*
X023507Y011223D01*
X023605Y011124D02*
X023167Y011124D01*
X023119Y011026D02*
X023692Y011026D01*
X023692Y010927D02*
X023018Y010927D01*
X022586Y010927D02*
X022568Y010927D01*
X022352Y011257D02*
X022302Y011257D01*
X021772Y011420D02*
X007107Y011420D01*
X007008Y011518D02*
X021673Y011518D01*
X021490Y010829D02*
X023692Y010829D01*
X023646Y010730D02*
X021588Y010730D01*
X020602Y010757D02*
X021652Y009707D01*
X021652Y009407D01*
X022002Y009057D01*
X022702Y009057D01*
X022952Y009307D01*
X022952Y009757D01*
X023202Y010007D01*
X023652Y010007D01*
X023902Y009757D01*
X023902Y009307D01*
X024702Y008507D01*
X024702Y008307D01*
X024902Y008107D01*
X025302Y008107D01*
X025752Y007657D01*
X025442Y007599D02*
X025442Y007528D01*
X025692Y007278D01*
X025692Y007070D01*
X025815Y006947D01*
X026192Y006947D01*
X026192Y006928D01*
X026374Y006747D01*
X026445Y006747D01*
X026595Y006597D01*
X027310Y006597D01*
X027462Y006749D01*
X027560Y006847D01*
X027560Y006847D01*
X027562Y006849D01*
X027583Y006829D01*
X027725Y006770D01*
X027879Y006770D01*
X028022Y006829D01*
X028131Y006938D01*
X028190Y007080D01*
X028190Y007176D01*
X028510Y007497D01*
X028662Y007649D01*
X028662Y010049D01*
X028662Y010265D01*
X028562Y010365D01*
X028562Y010577D01*
X028442Y010697D01*
X028442Y010764D01*
X028360Y010963D01*
X028208Y011115D01*
X028106Y011157D01*
X028208Y011199D01*
X028360Y011351D01*
X028442Y011549D01*
X028442Y011764D01*
X028360Y011963D01*
X028208Y012115D01*
X028093Y012162D01*
X028203Y012208D01*
X028892Y012208D01*
X028892Y012110D02*
X028213Y012110D01*
X028203Y012208D02*
X028352Y012357D01*
X028432Y012551D01*
X028432Y012607D01*
X027953Y012607D01*
X027953Y012707D01*
X028432Y012707D01*
X028432Y012762D01*
X028352Y012957D01*
X028339Y012970D01*
X028379Y012970D01*
X028522Y013029D01*
X028631Y013138D01*
X028690Y013280D01*
X028690Y013434D01*
X028631Y013576D01*
X028522Y013685D01*
X028379Y013744D01*
X028283Y013744D01*
X027612Y014415D01*
X027612Y014528D01*
X027662Y014578D01*
X027662Y014697D01*
X028039Y014697D01*
X028162Y014820D01*
X028162Y015028D01*
X028412Y015278D01*
X028412Y015349D01*
X028712Y015649D01*
X028712Y015865D01*
X028712Y030015D01*
X028560Y030167D01*
X028365Y030362D01*
X028442Y030549D01*
X028442Y030764D01*
X028360Y030963D01*
X028208Y031115D01*
X028106Y031157D01*
X028208Y031199D01*
X028360Y031351D01*
X028442Y031549D01*
X028442Y031764D01*
X028360Y031963D01*
X028208Y032115D01*
X028106Y032157D01*
X028208Y032199D01*
X028360Y032351D01*
X028442Y032549D01*
X028442Y032764D01*
X028360Y032963D01*
X028208Y033115D01*
X028106Y033157D01*
X028208Y033199D01*
X028360Y033351D01*
X028442Y033549D01*
X028442Y033764D01*
X028439Y033773D01*
X028572Y033829D01*
X028681Y033938D01*
X028740Y034080D01*
X028740Y034234D01*
X028681Y034376D01*
X028572Y034485D01*
X028429Y034544D01*
X028432Y034551D01*
X028432Y034607D01*
X027953Y034607D01*
X027953Y034707D01*
X028432Y034707D01*
X028432Y034762D01*
X028352Y034957D01*
X028203Y035106D01*
X028080Y035157D01*
X028203Y035208D01*
X028352Y035357D01*
X028432Y035551D01*
X028432Y035607D01*
X027953Y035607D01*
X027953Y035707D01*
X028432Y035707D01*
X028432Y035762D01*
X028352Y035957D01*
X028203Y036106D01*
X028008Y036187D01*
X027952Y036187D01*
X027952Y035707D01*
X027852Y035707D01*
X027852Y036187D01*
X027797Y036187D01*
X027602Y036106D01*
X027453Y035957D01*
X027442Y035931D01*
X027442Y036074D01*
X027319Y036197D01*
X026485Y036197D01*
X026362Y036074D01*
X026362Y035697D01*
X024983Y034317D01*
X024762Y034097D01*
X024762Y034699D01*
X025962Y035899D01*
X025962Y035933D01*
X026152Y036123D01*
X026152Y037490D01*
X025962Y037680D01*
X025962Y041897D01*
X028892Y041897D01*
X028892Y002417D01*
X021962Y002417D01*
X021962Y006358D01*
X022159Y006277D01*
X022419Y006277D01*
X022659Y006376D01*
X022842Y006560D01*
X022942Y006800D01*
X022942Y006939D01*
X022982Y006840D01*
X023124Y006698D01*
X023310Y006621D01*
X023511Y006621D01*
X023697Y006698D01*
X023839Y006840D01*
X023880Y006939D01*
X023880Y006800D01*
X023979Y006560D01*
X024163Y006376D01*
X024403Y006277D01*
X024663Y006277D01*
X024903Y006376D01*
X025086Y006560D01*
X025186Y006800D01*
X025186Y007060D01*
X025086Y007300D01*
X024903Y007483D01*
X024663Y007583D01*
X024403Y007583D01*
X024163Y007483D01*
X023979Y007300D01*
X023916Y007147D01*
X023916Y007227D01*
X023839Y007413D01*
X023731Y007520D01*
X023839Y007628D01*
X023916Y007813D01*
X023916Y008014D01*
X023839Y008200D01*
X023731Y008308D01*
X023839Y008415D01*
X023916Y008601D01*
X023916Y008802D01*
X023839Y008988D01*
X023724Y009102D01*
X023732Y009110D01*
X024442Y008399D01*
X024442Y008199D01*
X024642Y007999D01*
X024795Y007847D01*
X025195Y007847D01*
X025442Y007599D01*
X025442Y007577D02*
X024677Y007577D01*
X024908Y007478D02*
X025493Y007478D01*
X025591Y007380D02*
X025006Y007380D01*
X025094Y007281D02*
X025690Y007281D01*
X025692Y007183D02*
X025135Y007183D01*
X025176Y007084D02*
X025692Y007084D01*
X025777Y006985D02*
X025186Y006985D01*
X025186Y006887D02*
X026234Y006887D01*
X026332Y006788D02*
X025181Y006788D01*
X025140Y006690D02*
X026502Y006690D01*
X026602Y006517D02*
X026303Y006517D01*
X024392Y004606D01*
X024392Y004308D01*
X024392Y004099D01*
X024365Y004034D01*
X024365Y003880D01*
X024392Y003814D01*
X024392Y003808D01*
X024397Y003803D01*
X024424Y003738D01*
X024533Y003629D01*
X024599Y003601D01*
X024603Y003597D01*
X024610Y003597D01*
X024675Y003570D01*
X024829Y003570D01*
X024895Y003597D01*
X024902Y003597D01*
X024906Y003601D01*
X024972Y003629D01*
X025081Y003738D01*
X025108Y003803D01*
X025112Y003808D01*
X025112Y003814D01*
X025140Y003880D01*
X025140Y004034D01*
X025112Y004099D01*
X025112Y004308D01*
X026602Y005797D01*
X027803Y005797D01*
X028102Y005797D01*
X028456Y006151D01*
X028522Y006179D01*
X028631Y006288D01*
X028658Y006353D01*
X028662Y006358D01*
X028662Y006364D01*
X028690Y006430D01*
X028690Y006584D01*
X028662Y006649D01*
X028662Y006656D01*
X028658Y006661D01*
X028631Y006726D01*
X028522Y006835D01*
X028456Y006862D01*
X028452Y006867D01*
X028445Y006867D01*
X028379Y006894D01*
X028225Y006894D01*
X028160Y006867D01*
X028153Y006867D01*
X028149Y006862D01*
X028083Y006835D01*
X027974Y006726D01*
X027947Y006661D01*
X027803Y006517D01*
X026602Y006517D01*
X026279Y006493D02*
X025019Y006493D01*
X025099Y006591D02*
X027878Y006591D01*
X027959Y006690D02*
X027403Y006690D01*
X027462Y006749D02*
X027462Y006749D01*
X027502Y006788D02*
X027680Y006788D01*
X027925Y006788D02*
X028036Y006788D01*
X028102Y006857D02*
X027702Y006457D01*
X025952Y006457D01*
X026082Y006296D02*
X024708Y006296D01*
X024921Y006394D02*
X026181Y006394D01*
X025984Y006197D02*
X021962Y006197D01*
X021962Y006099D02*
X025885Y006099D01*
X025787Y006000D02*
X021962Y006000D01*
X021962Y005901D02*
X025688Y005901D01*
X025589Y005803D02*
X021962Y005803D01*
X021962Y005704D02*
X025491Y005704D01*
X025392Y005606D02*
X021962Y005606D01*
X021962Y005507D02*
X025294Y005507D01*
X025195Y005409D02*
X021962Y005409D01*
X021962Y005310D02*
X025097Y005310D01*
X024998Y005212D02*
X021962Y005212D01*
X021962Y005113D02*
X024900Y005113D01*
X024801Y005015D02*
X021962Y005015D01*
X021962Y004916D02*
X024703Y004916D01*
X024604Y004818D02*
X021962Y004818D01*
X021962Y004719D02*
X024505Y004719D01*
X024407Y004620D02*
X021962Y004620D01*
X021962Y004522D02*
X024392Y004522D01*
X024392Y004423D02*
X021962Y004423D01*
X021962Y004325D02*
X024392Y004325D01*
X024392Y004226D02*
X021962Y004226D01*
X021962Y004128D02*
X024392Y004128D01*
X024365Y004029D02*
X021962Y004029D01*
X021962Y003931D02*
X024365Y003931D01*
X024385Y003832D02*
X021962Y003832D01*
X021962Y003734D02*
X024428Y003734D01*
X024527Y003635D02*
X021962Y003635D01*
X021962Y003536D02*
X028892Y003536D01*
X028892Y003438D02*
X021962Y003438D01*
X021962Y003339D02*
X028892Y003339D01*
X028892Y003241D02*
X021962Y003241D01*
X021962Y003142D02*
X028892Y003142D01*
X028892Y003044D02*
X021962Y003044D01*
X021962Y002945D02*
X028892Y002945D01*
X028892Y002847D02*
X021962Y002847D01*
X021962Y002748D02*
X028892Y002748D01*
X028892Y002650D02*
X021962Y002650D01*
X021962Y002551D02*
X028892Y002551D01*
X028892Y002452D02*
X021962Y002452D01*
X021362Y002551D02*
X015152Y002551D01*
X015152Y002650D02*
X021362Y002650D01*
X021362Y002748D02*
X015152Y002748D01*
X015152Y002847D02*
X021362Y002847D01*
X021362Y002945D02*
X015152Y002945D01*
X015152Y003044D02*
X021362Y003044D01*
X021362Y003142D02*
X015152Y003142D01*
X015152Y003241D02*
X021362Y003241D01*
X021362Y003339D02*
X015152Y003339D01*
X015152Y003438D02*
X021362Y003438D01*
X021362Y003536D02*
X015152Y003536D01*
X015152Y003635D02*
X021362Y003635D01*
X021362Y003734D02*
X015152Y003734D01*
X015152Y003832D02*
X021362Y003832D01*
X021362Y003931D02*
X015152Y003931D01*
X015152Y004029D02*
X015441Y004029D01*
X015290Y004128D02*
X015152Y004128D01*
X015152Y004226D02*
X015192Y004226D01*
X015959Y004029D02*
X016441Y004029D01*
X016290Y004128D02*
X016110Y004128D01*
X016142Y005015D02*
X016258Y005015D01*
X016363Y005113D02*
X016037Y005113D01*
X015769Y005212D02*
X021362Y005212D01*
X021362Y005310D02*
X015670Y005310D01*
X016402Y005606D02*
X020203Y005606D01*
X020004Y005704D02*
X016601Y005704D01*
X016699Y005803D02*
X019905Y005803D01*
X019807Y005901D02*
X016798Y005901D01*
X016859Y006000D02*
X019746Y006000D01*
X019705Y006099D02*
X016900Y006099D01*
X016941Y006197D02*
X019664Y006197D01*
X019633Y006296D02*
X016972Y006296D01*
X016972Y006394D02*
X019633Y006394D01*
X019633Y006493D02*
X016972Y006493D01*
X016972Y006591D02*
X019633Y006591D01*
X019653Y006690D02*
X016952Y006690D01*
X016911Y006788D02*
X019694Y006788D01*
X019735Y006887D02*
X016870Y006887D01*
X016825Y006985D02*
X019780Y006985D01*
X019879Y007084D02*
X016726Y007084D01*
X016628Y007183D02*
X019977Y007183D01*
X020139Y007281D02*
X016466Y007281D01*
X015679Y007380D02*
X020926Y007380D01*
X020926Y007478D02*
X015679Y007478D01*
X015679Y007577D02*
X020926Y007577D01*
X020926Y007675D02*
X015679Y007675D01*
X017037Y005113D02*
X019568Y005113D01*
X019463Y005015D02*
X017142Y005015D01*
X017229Y004916D02*
X019376Y004916D01*
X019335Y004818D02*
X017270Y004818D01*
X017311Y004719D02*
X019294Y004719D01*
X019290Y004620D02*
X017315Y004620D01*
X017315Y004522D02*
X019290Y004522D01*
X019307Y004423D02*
X017298Y004423D01*
X017257Y004325D02*
X019348Y004325D01*
X019396Y004226D02*
X017208Y004226D01*
X017110Y004128D02*
X019495Y004128D01*
X019646Y004029D02*
X016959Y004029D01*
X020164Y004029D02*
X020646Y004029D01*
X020495Y004128D02*
X020315Y004128D01*
X020347Y005015D02*
X020463Y005015D01*
X020568Y005113D02*
X020242Y005113D01*
X020902Y005606D02*
X021362Y005606D01*
X021362Y005704D02*
X021101Y005704D01*
X021199Y005803D02*
X021362Y005803D01*
X021362Y005901D02*
X021298Y005901D01*
X021359Y006000D02*
X021362Y006000D01*
X021962Y006296D02*
X022113Y006296D01*
X022464Y006296D02*
X024357Y006296D01*
X024145Y006394D02*
X022677Y006394D01*
X022775Y006493D02*
X024046Y006493D01*
X023966Y006591D02*
X022855Y006591D01*
X022896Y006690D02*
X023145Y006690D01*
X023034Y006788D02*
X022937Y006788D01*
X022942Y006887D02*
X022963Y006887D01*
X022905Y007147D02*
X022842Y007300D01*
X022659Y007483D01*
X022419Y007583D01*
X022312Y007583D01*
X022312Y007899D01*
X022312Y008115D01*
X021962Y008465D01*
X021962Y008797D01*
X022110Y008797D01*
X022595Y008797D01*
X022810Y008797D01*
X022969Y008956D01*
X022905Y008802D01*
X022905Y008601D01*
X022982Y008415D01*
X023090Y008308D01*
X022982Y008200D01*
X022905Y008014D01*
X022905Y007813D01*
X022982Y007628D01*
X023090Y007520D01*
X022982Y007413D01*
X022905Y007227D01*
X022905Y007147D01*
X022905Y007183D02*
X022891Y007183D01*
X022928Y007281D02*
X022850Y007281D01*
X022762Y007380D02*
X022969Y007380D01*
X023048Y007478D02*
X022663Y007478D01*
X022433Y007577D02*
X023033Y007577D01*
X022952Y007507D02*
X022952Y005907D01*
X023677Y006690D02*
X023925Y006690D01*
X023885Y006788D02*
X023787Y006788D01*
X023858Y006887D02*
X023880Y006887D01*
X023916Y007183D02*
X023931Y007183D01*
X023894Y007281D02*
X023972Y007281D01*
X024059Y007380D02*
X023853Y007380D01*
X023774Y007478D02*
X024158Y007478D01*
X024389Y007577D02*
X023788Y007577D01*
X023859Y007675D02*
X025366Y007675D01*
X025268Y007774D02*
X023900Y007774D01*
X023916Y007872D02*
X024769Y007872D01*
X024671Y007971D02*
X023916Y007971D01*
X023893Y008069D02*
X024572Y008069D01*
X024474Y008168D02*
X023852Y008168D01*
X023773Y008267D02*
X024442Y008267D01*
X024442Y008365D02*
X023789Y008365D01*
X023859Y008464D02*
X024378Y008464D01*
X024279Y008562D02*
X023900Y008562D01*
X023916Y008661D02*
X024181Y008661D01*
X024082Y008759D02*
X023916Y008759D01*
X023893Y008858D02*
X023984Y008858D01*
X023885Y008956D02*
X023852Y008956D01*
X023787Y009055D02*
X023772Y009055D01*
X023459Y009207D02*
X023459Y009440D01*
X023362Y009440D01*
X023362Y009207D01*
X023459Y009207D01*
X023459Y009252D02*
X023362Y009252D01*
X023362Y009351D02*
X023459Y009351D01*
X022929Y008858D02*
X022871Y008858D01*
X022905Y008759D02*
X021962Y008759D01*
X021962Y008661D02*
X022905Y008661D01*
X022921Y008562D02*
X021962Y008562D01*
X021963Y008464D02*
X022962Y008464D01*
X023032Y008365D02*
X022062Y008365D01*
X022160Y008267D02*
X023049Y008267D01*
X022969Y008168D02*
X022259Y008168D01*
X022312Y008069D02*
X022928Y008069D01*
X022905Y007971D02*
X022312Y007971D01*
X022312Y007872D02*
X022905Y007872D01*
X022922Y007774D02*
X022312Y007774D01*
X022312Y007675D02*
X022963Y007675D01*
X021362Y005113D02*
X021242Y005113D01*
X021347Y005015D02*
X021362Y005015D01*
X021362Y004128D02*
X021315Y004128D01*
X021362Y004029D02*
X021164Y004029D01*
X024978Y003635D02*
X028892Y003635D01*
X028892Y003734D02*
X025077Y003734D01*
X025120Y003832D02*
X028892Y003832D01*
X028892Y003931D02*
X025140Y003931D01*
X025140Y004029D02*
X028892Y004029D01*
X028892Y004128D02*
X025112Y004128D01*
X025112Y004226D02*
X028892Y004226D01*
X028892Y004325D02*
X025129Y004325D01*
X025228Y004423D02*
X028892Y004423D01*
X028892Y004522D02*
X025327Y004522D01*
X025425Y004620D02*
X028892Y004620D01*
X028892Y004719D02*
X025524Y004719D01*
X025622Y004818D02*
X028892Y004818D01*
X028892Y004916D02*
X025721Y004916D01*
X025819Y005015D02*
X028892Y005015D01*
X028892Y005113D02*
X025918Y005113D01*
X026016Y005212D02*
X028892Y005212D01*
X028892Y005310D02*
X026115Y005310D01*
X026213Y005409D02*
X028892Y005409D01*
X028892Y005507D02*
X026312Y005507D01*
X026411Y005606D02*
X028892Y005606D01*
X028892Y005704D02*
X026509Y005704D01*
X026702Y006857D02*
X027202Y006857D01*
X027452Y007107D01*
X027452Y007357D01*
X027902Y007807D01*
X027902Y008307D01*
X028402Y007757D02*
X028402Y010157D01*
X028152Y010407D01*
X028562Y010434D02*
X028892Y010434D01*
X028892Y010336D02*
X028591Y010336D01*
X028662Y010237D02*
X028892Y010237D01*
X028892Y010139D02*
X028662Y010139D01*
X028662Y010040D02*
X028892Y010040D01*
X028892Y009942D02*
X028662Y009942D01*
X028662Y009843D02*
X028892Y009843D01*
X028892Y009745D02*
X028662Y009745D01*
X028662Y009646D02*
X028892Y009646D01*
X028892Y009548D02*
X028662Y009548D01*
X028662Y009449D02*
X028892Y009449D01*
X028892Y009351D02*
X028662Y009351D01*
X028662Y009252D02*
X028892Y009252D01*
X028892Y009153D02*
X028662Y009153D01*
X028662Y009055D02*
X028892Y009055D01*
X028892Y008956D02*
X028662Y008956D01*
X028662Y008858D02*
X028892Y008858D01*
X028892Y008759D02*
X028662Y008759D01*
X028662Y008661D02*
X028892Y008661D01*
X028892Y008562D02*
X028662Y008562D01*
X028662Y008464D02*
X028892Y008464D01*
X028892Y008365D02*
X028662Y008365D01*
X028662Y008267D02*
X028892Y008267D01*
X028892Y008168D02*
X028662Y008168D01*
X028662Y008069D02*
X028892Y008069D01*
X028892Y007971D02*
X028662Y007971D01*
X028662Y007872D02*
X028892Y007872D01*
X028892Y007774D02*
X028662Y007774D01*
X028662Y007675D02*
X028892Y007675D01*
X028892Y007577D02*
X028590Y007577D01*
X028491Y007478D02*
X028892Y007478D01*
X028892Y007380D02*
X028393Y007380D01*
X028294Y007281D02*
X028892Y007281D01*
X028892Y007183D02*
X028196Y007183D01*
X028190Y007084D02*
X028892Y007084D01*
X028892Y006985D02*
X028150Y006985D01*
X028208Y006887D02*
X028080Y006887D01*
X028102Y006857D02*
X028802Y006857D01*
X028892Y006887D02*
X028396Y006887D01*
X028568Y006788D02*
X028892Y006788D01*
X028892Y006690D02*
X028646Y006690D01*
X028686Y006591D02*
X028892Y006591D01*
X028892Y006493D02*
X028690Y006493D01*
X028675Y006394D02*
X028892Y006394D01*
X028892Y006296D02*
X028634Y006296D01*
X028540Y006197D02*
X028892Y006197D01*
X028892Y006099D02*
X028403Y006099D01*
X028305Y006000D02*
X028892Y006000D01*
X028892Y005901D02*
X028206Y005901D01*
X028108Y005803D02*
X028892Y005803D01*
X027802Y007157D02*
X028402Y007757D01*
X027402Y008207D02*
X026952Y007757D01*
X027402Y008207D02*
X027402Y009907D01*
X027152Y010157D01*
X026402Y010157D01*
X026202Y010357D01*
X026202Y010807D01*
X025502Y011507D01*
X025502Y013107D01*
X025052Y013557D01*
X025052Y015807D01*
X024902Y015957D01*
X023902Y015957D01*
X023202Y016657D01*
X022252Y016657D01*
X022002Y016907D01*
X022002Y017507D01*
X020802Y018707D01*
X020802Y019157D01*
X021152Y019257D02*
X020702Y019707D01*
X019802Y019707D01*
X019702Y019807D01*
X019502Y020107D02*
X019352Y019957D01*
X019352Y018657D01*
X022267Y015742D01*
X022122Y015587D02*
X019152Y018557D01*
X019152Y021857D01*
X022152Y024857D01*
X022152Y025457D01*
X022352Y025657D01*
X023352Y025657D01*
X023452Y025757D01*
X023352Y025157D02*
X023002Y025157D01*
X023352Y025157D02*
X024352Y026157D01*
X027402Y026157D01*
X027402Y025157D02*
X024652Y025157D01*
X023152Y023657D01*
X022449Y023657D02*
X022347Y023615D01*
X022195Y023463D01*
X022112Y023264D01*
X022112Y023049D01*
X022195Y022851D01*
X020514Y022851D01*
X020416Y022752D02*
X022293Y022752D01*
X022347Y022699D02*
X022195Y022851D01*
X022154Y022949D02*
X020613Y022949D01*
X020711Y023048D02*
X022113Y023048D01*
X022112Y023147D02*
X020810Y023147D01*
X020908Y023245D02*
X022112Y023245D01*
X022145Y023344D02*
X021007Y023344D01*
X021105Y023442D02*
X022186Y023442D01*
X022273Y023541D02*
X021204Y023541D01*
X021303Y023639D02*
X022406Y023639D01*
X022449Y023657D02*
X022347Y023699D01*
X022195Y023851D01*
X022112Y024049D01*
X022112Y024264D01*
X022195Y024463D01*
X022347Y024615D01*
X022449Y024657D01*
X022358Y024694D01*
X019412Y021749D01*
X019412Y021248D01*
X019424Y021276D01*
X019533Y021385D01*
X019675Y021444D01*
X019829Y021444D01*
X019972Y021385D01*
X020081Y021276D01*
X020084Y021267D01*
X020110Y021267D01*
X020262Y021115D01*
X021242Y020134D01*
X021242Y020315D01*
X021265Y020337D01*
X021265Y020434D01*
X021324Y020576D01*
X021433Y020685D01*
X021575Y020744D01*
X021729Y020744D01*
X021872Y020685D01*
X021981Y020576D01*
X022040Y020434D01*
X022040Y020298D01*
X022072Y020285D01*
X022112Y020244D01*
X022112Y020264D01*
X022195Y020463D01*
X022347Y020615D01*
X022449Y020657D01*
X022347Y020699D01*
X022195Y020851D01*
X022112Y021049D01*
X022112Y021264D01*
X022195Y021463D01*
X022347Y021615D01*
X022449Y021657D01*
X022347Y021699D01*
X022195Y021851D01*
X022112Y022049D01*
X022112Y022264D01*
X022195Y022463D01*
X022347Y022615D01*
X022449Y022657D01*
X022347Y022699D01*
X022441Y022654D02*
X020317Y022654D01*
X020219Y022555D02*
X022287Y022555D01*
X022192Y022457D02*
X020120Y022457D01*
X020021Y022358D02*
X022151Y022358D01*
X022112Y022260D02*
X019923Y022260D01*
X019824Y022161D02*
X022112Y022161D01*
X022112Y022063D02*
X019726Y022063D01*
X019627Y021964D02*
X022148Y021964D01*
X022189Y021866D02*
X019529Y021866D01*
X019430Y021767D02*
X022279Y021767D01*
X022420Y021668D02*
X019412Y021668D01*
X019412Y021570D02*
X022302Y021570D01*
X022203Y021471D02*
X019412Y021471D01*
X019412Y021373D02*
X019521Y021373D01*
X019423Y021274D02*
X019412Y021274D01*
X019752Y021057D02*
X019802Y021007D01*
X020002Y021007D01*
X021652Y019357D01*
X021652Y019027D01*
X022082Y018597D01*
X022317Y018742D02*
X022002Y019057D01*
X022002Y019157D01*
X022062Y019597D02*
X021712Y019597D01*
X021502Y019807D01*
X021502Y020207D01*
X021652Y020357D01*
X022018Y020486D02*
X022218Y020486D01*
X022163Y020387D02*
X022040Y020387D01*
X022063Y020289D02*
X022123Y020289D01*
X021972Y020584D02*
X022316Y020584D01*
X022385Y020683D02*
X021874Y020683D01*
X022183Y020880D02*
X020497Y020880D01*
X020595Y020782D02*
X022264Y020782D01*
X022142Y020979D02*
X020398Y020979D01*
X020300Y021077D02*
X022112Y021077D01*
X022112Y021176D02*
X020201Y021176D01*
X020081Y021274D02*
X022117Y021274D01*
X022157Y021373D02*
X019984Y021373D01*
X019412Y020866D02*
X019412Y020367D01*
X019610Y020367D01*
X019865Y020367D01*
X019883Y020385D01*
X020025Y020444D01*
X020179Y020444D01*
X020211Y020431D01*
X019930Y020711D01*
X019829Y020670D01*
X019675Y020670D01*
X019533Y020729D01*
X019424Y020838D01*
X019412Y020866D01*
X019412Y020782D02*
X019480Y020782D01*
X019412Y020683D02*
X019643Y020683D01*
X019862Y020683D02*
X019959Y020683D01*
X020057Y020584D02*
X019412Y020584D01*
X019412Y020486D02*
X020156Y020486D01*
X019889Y020387D02*
X019412Y020387D01*
X019502Y020107D02*
X020052Y020107D01*
X020102Y020057D01*
X020652Y020057D01*
X021402Y019307D01*
X021402Y018957D01*
X022202Y018157D01*
X022342Y018157D01*
X022856Y017657D02*
X022958Y017699D01*
X023110Y017851D01*
X023192Y018049D01*
X023192Y018247D01*
X023295Y018247D01*
X025642Y015899D01*
X025642Y014914D01*
X025622Y014935D01*
X025512Y014980D01*
X025512Y016015D01*
X025360Y016167D01*
X025110Y016417D01*
X024895Y016417D01*
X024110Y016417D01*
X023412Y017115D01*
X023412Y017327D01*
X023172Y017567D01*
X023006Y017567D01*
X022958Y017615D01*
X022856Y017657D01*
X022926Y017628D02*
X023913Y017628D01*
X023815Y017727D02*
X022986Y017727D01*
X023084Y017825D02*
X023716Y017825D01*
X023618Y017924D02*
X023140Y017924D01*
X023181Y018022D02*
X023519Y018022D01*
X023421Y018121D02*
X023192Y018121D01*
X023192Y018219D02*
X023322Y018219D01*
X023402Y018507D02*
X023002Y018507D01*
X022937Y018572D01*
X023092Y018717D02*
X023492Y018717D01*
X026102Y016107D01*
X026102Y013557D01*
X025902Y013357D01*
X025902Y011707D01*
X026452Y011157D01*
X027402Y011157D01*
X027652Y010907D01*
X028185Y011124D02*
X028892Y011124D01*
X028892Y011026D02*
X028297Y011026D01*
X028375Y010927D02*
X028892Y010927D01*
X028892Y010829D02*
X028416Y010829D01*
X028442Y010730D02*
X028892Y010730D01*
X028892Y010632D02*
X028507Y010632D01*
X028562Y010533D02*
X028892Y010533D01*
X028892Y011223D02*
X028232Y011223D01*
X028331Y011321D02*
X028892Y011321D01*
X028892Y011420D02*
X028389Y011420D01*
X028430Y011518D02*
X028892Y011518D01*
X028892Y011617D02*
X028442Y011617D01*
X028442Y011716D02*
X028892Y011716D01*
X028892Y011814D02*
X028422Y011814D01*
X028381Y011913D02*
X028892Y011913D01*
X028892Y012011D02*
X028312Y012011D01*
X028302Y012307D02*
X028892Y012307D01*
X028892Y012405D02*
X028372Y012405D01*
X028413Y012504D02*
X028892Y012504D01*
X028892Y012602D02*
X028432Y012602D01*
X028417Y012800D02*
X028892Y012800D01*
X028892Y012898D02*
X028376Y012898D01*
X028444Y012997D02*
X028892Y012997D01*
X028892Y013095D02*
X028588Y013095D01*
X028654Y013194D02*
X028892Y013194D01*
X028892Y013292D02*
X028690Y013292D01*
X028690Y013391D02*
X028892Y013391D01*
X028892Y013489D02*
X028667Y013489D01*
X028619Y013588D02*
X028892Y013588D01*
X028892Y013686D02*
X028518Y013686D01*
X028242Y013785D02*
X028892Y013785D01*
X028892Y013884D02*
X028143Y013884D01*
X028045Y013982D02*
X028892Y013982D01*
X028892Y014081D02*
X027946Y014081D01*
X027848Y014179D02*
X028892Y014179D01*
X028892Y014278D02*
X027749Y014278D01*
X027651Y014376D02*
X028892Y014376D01*
X028892Y014475D02*
X027612Y014475D01*
X027657Y014573D02*
X028892Y014573D01*
X028892Y014672D02*
X027662Y014672D01*
X027352Y014707D02*
X027352Y014307D01*
X028302Y013357D01*
X027951Y013194D02*
X027323Y013194D01*
X027319Y013197D02*
X026710Y013197D01*
X026762Y013249D01*
X026762Y013465D01*
X026762Y014246D01*
X026825Y014220D01*
X026979Y014220D01*
X027092Y014266D01*
X027092Y014199D01*
X027915Y013376D01*
X027915Y013280D01*
X027954Y013187D01*
X027952Y013187D01*
X027952Y012707D01*
X027852Y012707D01*
X027852Y013187D01*
X027797Y013187D01*
X027602Y013106D01*
X027453Y012957D01*
X027442Y012931D01*
X027442Y013074D01*
X027319Y013197D01*
X027421Y013095D02*
X027591Y013095D01*
X027493Y012997D02*
X027442Y012997D01*
X027704Y013588D02*
X026762Y013588D01*
X026762Y013686D02*
X027605Y013686D01*
X027507Y013785D02*
X026762Y013785D01*
X026762Y013884D02*
X027408Y013884D01*
X027310Y013982D02*
X026762Y013982D01*
X026762Y014081D02*
X027211Y014081D01*
X027112Y014179D02*
X026762Y014179D01*
X026762Y013489D02*
X027802Y013489D01*
X027901Y013391D02*
X026762Y013391D01*
X026762Y013292D02*
X027915Y013292D01*
X027952Y013095D02*
X027852Y013095D01*
X027852Y012997D02*
X027952Y012997D01*
X027952Y012898D02*
X027852Y012898D01*
X027852Y012800D02*
X027952Y012800D01*
X027953Y012701D02*
X028892Y012701D01*
X027702Y011857D02*
X027402Y012157D01*
X026402Y012157D01*
X026302Y012257D01*
X026302Y013157D01*
X026502Y013357D01*
X026502Y016307D01*
X023092Y019717D01*
X022937Y019572D02*
X026302Y016207D01*
X026302Y013457D01*
X026102Y013257D01*
X026102Y012107D01*
X026552Y011657D01*
X025702Y011607D02*
X026652Y010657D01*
X026002Y010707D02*
X026002Y010207D01*
X026552Y009657D01*
X026052Y009857D02*
X026052Y009057D01*
X025742Y009067D02*
X025462Y009067D01*
X025462Y009235D01*
X025412Y009285D01*
X025412Y010629D01*
X025542Y010499D01*
X025542Y010215D01*
X025542Y009999D01*
X025792Y009749D01*
X025792Y009235D01*
X025742Y009185D01*
X025742Y009067D01*
X025742Y009153D02*
X025462Y009153D01*
X025446Y009252D02*
X025792Y009252D01*
X025792Y009351D02*
X025412Y009351D01*
X025412Y009449D02*
X025792Y009449D01*
X025792Y009548D02*
X025412Y009548D01*
X025412Y009646D02*
X025792Y009646D01*
X025792Y009745D02*
X025412Y009745D01*
X025412Y009843D02*
X025698Y009843D01*
X025600Y009942D02*
X025412Y009942D01*
X025412Y010040D02*
X025542Y010040D01*
X025542Y010139D02*
X025412Y010139D01*
X025412Y010237D02*
X025542Y010237D01*
X025542Y010336D02*
X025412Y010336D01*
X025412Y010434D02*
X025542Y010434D01*
X025509Y010533D02*
X025412Y010533D01*
X025802Y010607D02*
X025802Y010107D01*
X026052Y009857D01*
X025802Y010607D02*
X025102Y011307D01*
X025102Y012907D01*
X024652Y013357D01*
X024652Y013807D01*
X023402Y015057D01*
X023402Y015457D01*
X023147Y015712D01*
X022987Y015572D02*
X023202Y015357D01*
X023202Y014957D01*
X024452Y013707D01*
X024452Y013257D01*
X024902Y012807D01*
X024902Y011207D01*
X025152Y010957D01*
X025152Y009107D01*
X025602Y008307D02*
X025802Y008107D01*
X026352Y008107D01*
X026702Y008457D01*
X026502Y007057D02*
X026702Y006857D01*
X024892Y010243D02*
X024663Y010338D01*
X024414Y010338D01*
X024512Y010437D01*
X024512Y011037D01*
X024512Y011377D01*
X023712Y012177D01*
X023712Y013677D01*
X023472Y013917D01*
X023192Y014197D01*
X023192Y014264D01*
X023110Y014463D01*
X022958Y014615D01*
X022856Y014657D01*
X022958Y014699D01*
X023025Y014766D01*
X023095Y014697D01*
X024192Y013599D01*
X024192Y013149D01*
X024345Y012997D01*
X024642Y012699D01*
X024642Y011315D01*
X024642Y011099D01*
X024892Y010849D01*
X024892Y010243D01*
X024892Y010336D02*
X024669Y010336D01*
X024510Y010434D02*
X024892Y010434D01*
X024892Y010533D02*
X024512Y010533D01*
X024512Y010632D02*
X024892Y010632D01*
X024892Y010730D02*
X024512Y010730D01*
X024512Y010829D02*
X024892Y010829D01*
X024814Y010927D02*
X024512Y010927D01*
X024512Y011026D02*
X024716Y011026D01*
X024642Y011124D02*
X024512Y011124D01*
X024512Y011223D02*
X024642Y011223D01*
X024642Y011321D02*
X024512Y011321D01*
X024469Y011420D02*
X024642Y011420D01*
X024602Y011407D02*
X024602Y010607D01*
X024602Y011407D02*
X023852Y012157D01*
X023779Y012110D02*
X024642Y012110D01*
X024642Y012208D02*
X023712Y012208D01*
X023712Y012307D02*
X024642Y012307D01*
X024642Y012405D02*
X023712Y012405D01*
X023712Y012504D02*
X024642Y012504D01*
X024642Y012602D02*
X023712Y012602D01*
X023712Y012701D02*
X024641Y012701D01*
X024542Y012800D02*
X023712Y012800D01*
X023712Y012898D02*
X024444Y012898D01*
X024345Y012997D02*
X023712Y012997D01*
X023712Y013095D02*
X024246Y013095D01*
X024192Y013194D02*
X023712Y013194D01*
X023712Y013292D02*
X024192Y013292D01*
X024192Y013391D02*
X023712Y013391D01*
X023712Y013489D02*
X024192Y013489D01*
X024192Y013588D02*
X023712Y013588D01*
X023703Y013686D02*
X024105Y013686D01*
X024007Y013785D02*
X023604Y013785D01*
X023506Y013884D02*
X023908Y013884D01*
X023810Y013982D02*
X023407Y013982D01*
X023308Y014081D02*
X023711Y014081D01*
X023612Y014179D02*
X023210Y014179D01*
X023187Y014278D02*
X023514Y014278D01*
X023415Y014376D02*
X023146Y014376D01*
X023098Y014475D02*
X023317Y014475D01*
X023218Y014573D02*
X023000Y014573D01*
X022893Y014672D02*
X023120Y014672D01*
X022352Y016157D02*
X021802Y016707D01*
X021802Y017357D01*
X020452Y018707D01*
X020452Y019357D01*
X020302Y019507D01*
X019952Y019507D01*
X019802Y019357D01*
X019702Y019357D01*
X019871Y019008D02*
X020192Y019008D01*
X020192Y019106D02*
X019999Y019106D01*
X020031Y019138D02*
X020076Y019247D01*
X020192Y019247D01*
X020192Y018815D01*
X020192Y018599D01*
X021542Y017249D01*
X021542Y016834D01*
X019612Y018765D01*
X019612Y018975D01*
X019625Y018970D01*
X019779Y018970D01*
X019922Y019029D01*
X020031Y019138D01*
X020059Y019205D02*
X020192Y019205D01*
X020192Y018909D02*
X019612Y018909D01*
X019612Y018811D02*
X020192Y018811D01*
X020192Y018712D02*
X019665Y018712D01*
X019763Y018614D02*
X020192Y018614D01*
X020277Y018515D02*
X019862Y018515D01*
X019960Y018416D02*
X020375Y018416D01*
X020474Y018318D02*
X020059Y018318D01*
X020158Y018219D02*
X020572Y018219D01*
X020671Y018121D02*
X020256Y018121D01*
X020355Y018022D02*
X020769Y018022D01*
X020868Y017924D02*
X020453Y017924D01*
X020552Y017825D02*
X020966Y017825D01*
X021065Y017727D02*
X020650Y017727D01*
X020749Y017628D02*
X021163Y017628D01*
X021262Y017530D02*
X020847Y017530D01*
X020946Y017431D02*
X021361Y017431D01*
X021459Y017333D02*
X021044Y017333D01*
X021143Y017234D02*
X021542Y017234D01*
X021542Y017135D02*
X021241Y017135D01*
X021340Y017037D02*
X021542Y017037D01*
X021542Y016938D02*
X021439Y016938D01*
X021537Y016840D02*
X021542Y016840D01*
X022352Y017457D02*
X022402Y017407D01*
X022352Y017457D02*
X022352Y017477D01*
X021152Y018677D01*
X021152Y019257D01*
X021187Y020190D02*
X021242Y020190D01*
X021242Y020289D02*
X021088Y020289D01*
X020990Y020387D02*
X021265Y020387D01*
X021287Y020486D02*
X020891Y020486D01*
X020792Y020584D02*
X021333Y020584D01*
X021431Y020683D02*
X020694Y020683D01*
X021852Y019957D02*
X022152Y019957D01*
X022367Y019742D01*
X023162Y019977D02*
X023192Y020049D01*
X023192Y020117D01*
X023512Y020437D01*
X023512Y020649D01*
X026110Y023247D01*
X026549Y023247D01*
X026597Y023199D01*
X026699Y023157D01*
X026597Y023115D01*
X026445Y022963D01*
X026362Y022764D01*
X026362Y022549D01*
X026445Y022351D01*
X026597Y022199D01*
X026699Y022157D01*
X026597Y022115D01*
X026445Y021963D01*
X026362Y021764D01*
X026362Y021549D01*
X026445Y021351D01*
X026597Y021199D01*
X026699Y021157D01*
X026597Y021115D01*
X026445Y020963D01*
X026362Y020764D01*
X026362Y020549D01*
X026445Y020351D01*
X026597Y020199D01*
X026699Y020157D01*
X026597Y020115D01*
X026445Y019963D01*
X026362Y019764D01*
X026362Y019549D01*
X026445Y019351D01*
X026597Y019199D01*
X026699Y019157D01*
X026597Y019115D01*
X026445Y018963D01*
X026362Y018764D01*
X026362Y018549D01*
X026445Y018351D01*
X026597Y018199D01*
X026699Y018157D01*
X026597Y018115D01*
X026445Y017963D01*
X026362Y017764D01*
X026362Y017549D01*
X026445Y017351D01*
X026597Y017199D01*
X026699Y017157D01*
X026597Y017115D01*
X026445Y016963D01*
X026377Y016800D01*
X023200Y019977D01*
X023162Y019977D01*
X023169Y019993D02*
X026475Y019993D01*
X026416Y019895D02*
X023282Y019895D01*
X023381Y019796D02*
X026376Y019796D01*
X026362Y019698D02*
X023479Y019698D01*
X023578Y019599D02*
X026362Y019599D01*
X026383Y019500D02*
X023676Y019500D01*
X023775Y019402D02*
X026424Y019402D01*
X026492Y019303D02*
X023874Y019303D01*
X023972Y019205D02*
X026591Y019205D01*
X026588Y019106D02*
X024071Y019106D01*
X024169Y019008D02*
X026490Y019008D01*
X026423Y018909D02*
X024268Y018909D01*
X024366Y018811D02*
X026382Y018811D01*
X026362Y018712D02*
X024465Y018712D01*
X024563Y018614D02*
X026362Y018614D01*
X026377Y018515D02*
X024662Y018515D01*
X024760Y018416D02*
X026417Y018416D01*
X026478Y018318D02*
X024859Y018318D01*
X024958Y018219D02*
X026576Y018219D01*
X026612Y018121D02*
X025056Y018121D01*
X025155Y018022D02*
X026504Y018022D01*
X026429Y017924D02*
X025253Y017924D01*
X025352Y017825D02*
X026388Y017825D01*
X026362Y017727D02*
X025450Y017727D01*
X025549Y017628D02*
X026362Y017628D01*
X026371Y017530D02*
X025647Y017530D01*
X025746Y017431D02*
X026411Y017431D01*
X026463Y017333D02*
X025844Y017333D01*
X025943Y017234D02*
X026562Y017234D01*
X026647Y017135D02*
X026041Y017135D01*
X026140Y017037D02*
X026519Y017037D01*
X026435Y016938D02*
X026239Y016938D01*
X026337Y016840D02*
X026394Y016840D01*
X026402Y017157D02*
X027402Y017157D01*
X027402Y018157D01*
X027402Y019157D01*
X026402Y019157D01*
X027106Y019157D02*
X027208Y019199D01*
X027360Y019351D01*
X027402Y019453D01*
X027445Y019351D01*
X027597Y019199D01*
X027699Y019157D01*
X027597Y019115D01*
X027445Y018963D01*
X027402Y018861D01*
X027360Y018963D01*
X027208Y019115D01*
X027106Y019157D01*
X027214Y019205D02*
X027591Y019205D01*
X027588Y019106D02*
X027217Y019106D01*
X027315Y019008D02*
X027490Y019008D01*
X027423Y018909D02*
X027382Y018909D01*
X027313Y019303D02*
X027492Y019303D01*
X027424Y019402D02*
X027381Y019402D01*
X026574Y020092D02*
X023192Y020092D01*
X023266Y020190D02*
X026618Y020190D01*
X026507Y020289D02*
X023364Y020289D01*
X023463Y020387D02*
X026430Y020387D01*
X026389Y020486D02*
X023512Y020486D01*
X023512Y020584D02*
X026362Y020584D01*
X026362Y020683D02*
X023546Y020683D01*
X023645Y020782D02*
X026370Y020782D01*
X026410Y020880D02*
X023743Y020880D01*
X023842Y020979D02*
X026461Y020979D01*
X026559Y021077D02*
X023940Y021077D01*
X024039Y021176D02*
X026653Y021176D01*
X026521Y021274D02*
X024138Y021274D01*
X024236Y021373D02*
X026436Y021373D01*
X026395Y021471D02*
X024335Y021471D01*
X024433Y021570D02*
X026362Y021570D01*
X026362Y021668D02*
X024532Y021668D01*
X024630Y021767D02*
X026364Y021767D01*
X026404Y021866D02*
X024729Y021866D01*
X024827Y021964D02*
X026446Y021964D01*
X026545Y022063D02*
X024926Y022063D01*
X025024Y022161D02*
X026688Y022161D01*
X026536Y022260D02*
X025123Y022260D01*
X025221Y022358D02*
X026442Y022358D01*
X026401Y022457D02*
X025320Y022457D01*
X025419Y022555D02*
X026362Y022555D01*
X026362Y022654D02*
X025517Y022654D01*
X025616Y022752D02*
X026362Y022752D01*
X026398Y022851D02*
X025714Y022851D01*
X025813Y022949D02*
X026439Y022949D01*
X026530Y023048D02*
X025911Y023048D01*
X026010Y023147D02*
X026674Y023147D01*
X026550Y023245D02*
X026108Y023245D01*
X026152Y023657D02*
X023102Y020607D01*
X023102Y021607D02*
X025652Y024157D01*
X027402Y024157D01*
X026402Y025657D02*
X024152Y025657D01*
X023002Y024507D01*
X022371Y024625D02*
X022288Y024625D01*
X022258Y024526D02*
X022189Y024526D01*
X022180Y024428D02*
X022091Y024428D01*
X022139Y024329D02*
X021992Y024329D01*
X021894Y024231D02*
X022112Y024231D01*
X022112Y024132D02*
X021795Y024132D01*
X021697Y024033D02*
X022119Y024033D01*
X022160Y023935D02*
X021598Y023935D01*
X021500Y023836D02*
X022209Y023836D01*
X022308Y023738D02*
X021401Y023738D01*
X019726Y025610D02*
X018786Y025610D01*
X018815Y025640D02*
X018958Y025699D01*
X019110Y025851D01*
X019112Y025856D01*
X019112Y025740D01*
X019235Y025617D01*
X019733Y025617D01*
X017212Y023097D01*
X017212Y024249D01*
X018460Y025497D01*
X018672Y025497D01*
X018815Y025640D01*
X018968Y025709D02*
X019144Y025709D01*
X019112Y025807D02*
X019066Y025807D01*
X019152Y025557D02*
X019152Y026657D01*
X019652Y027157D01*
X019158Y026966D02*
X019203Y026857D01*
X019352Y026708D01*
X019378Y026697D01*
X019235Y026697D01*
X019112Y026574D01*
X019112Y026457D01*
X019110Y026463D01*
X018958Y026615D01*
X018945Y026620D01*
X019062Y026737D01*
X019062Y026803D01*
X019110Y026851D01*
X019158Y026966D01*
X019127Y026891D02*
X019189Y026891D01*
X019267Y026793D02*
X019062Y026793D01*
X019019Y026694D02*
X019233Y026694D01*
X019134Y026596D02*
X018977Y026596D01*
X019076Y026497D02*
X019112Y026497D01*
X018652Y026907D02*
X018152Y026407D01*
X018502Y025907D02*
X016952Y024357D01*
X016952Y021807D01*
X016802Y021657D01*
X016163Y020979D02*
X015221Y020979D01*
X015180Y021077D02*
X016064Y021077D01*
X015966Y021176D02*
X015744Y021176D01*
X015561Y021176D02*
X015112Y021176D01*
X015112Y021274D02*
X015387Y021274D01*
X015310Y021373D02*
X015112Y021373D01*
X015056Y021471D02*
X015269Y021471D01*
X015265Y021570D02*
X015012Y021570D01*
X015012Y021668D02*
X015280Y021668D01*
X015483Y021964D02*
X015542Y021964D01*
X015490Y022063D02*
X015641Y022063D01*
X015739Y022161D02*
X015478Y022161D01*
X015437Y022260D02*
X015838Y022260D01*
X015936Y022358D02*
X015349Y022358D01*
X015502Y022657D02*
X015152Y023007D01*
X015152Y026507D01*
X015002Y026657D01*
X014402Y026657D01*
X014152Y026907D01*
X014152Y027507D01*
X014002Y027657D01*
X013302Y027657D01*
X013152Y027507D01*
X013152Y025557D01*
X012968Y025709D02*
X013337Y025709D01*
X013238Y025807D02*
X013066Y025807D01*
X013133Y025906D02*
X013172Y025906D01*
X013892Y025610D02*
X011867Y025610D01*
X011965Y025512D02*
X013892Y025512D01*
X013892Y025413D02*
X012062Y025413D01*
X012062Y025315D02*
X013892Y025315D01*
X013892Y025216D02*
X012062Y025216D01*
X012134Y025117D02*
X013892Y025117D01*
X013892Y025019D02*
X012175Y025019D01*
X012190Y024920D02*
X013892Y024920D01*
X013892Y024822D02*
X012186Y024822D01*
X012145Y024723D02*
X013892Y024723D01*
X013892Y024625D02*
X012068Y024625D01*
X011895Y024526D02*
X013892Y024526D01*
X013892Y024428D02*
X011499Y024428D01*
X011401Y024526D02*
X011710Y024526D01*
X011537Y024625D02*
X011302Y024625D01*
X011204Y024723D02*
X011459Y024723D01*
X011200Y024822D02*
X011105Y024822D01*
X011091Y024920D02*
X011007Y024920D01*
X011040Y025019D02*
X010908Y025019D01*
X010809Y025117D02*
X011015Y025117D01*
X010976Y025216D02*
X010711Y025216D01*
X010402Y024857D02*
X012402Y022857D01*
X012552Y022857D01*
X012752Y022657D01*
X013952Y022657D01*
X014752Y021857D01*
X014752Y021407D01*
X014852Y021307D01*
X014852Y020857D01*
X014471Y020767D02*
X013084Y020767D01*
X013081Y020776D01*
X012972Y020885D01*
X012829Y020944D01*
X012675Y020944D01*
X012533Y020885D01*
X012465Y020817D01*
X009560Y020817D01*
X008712Y021665D01*
X008712Y024065D01*
X008560Y024217D01*
X008380Y024397D01*
X010195Y024397D01*
X012165Y022426D01*
X012165Y022330D01*
X012224Y022188D01*
X012333Y022079D01*
X012475Y022020D01*
X012629Y022020D01*
X012772Y022079D01*
X012881Y022188D01*
X012884Y022197D01*
X013745Y022197D01*
X014292Y021649D01*
X014292Y021489D01*
X014283Y021485D01*
X014174Y021376D01*
X014115Y021234D01*
X014115Y021080D01*
X014174Y020938D01*
X014283Y020829D01*
X014425Y020770D01*
X014469Y020770D01*
X014471Y020767D01*
X014397Y020782D02*
X013075Y020782D01*
X012977Y020880D02*
X014232Y020880D01*
X014157Y020979D02*
X009398Y020979D01*
X009300Y021077D02*
X009607Y021077D01*
X009625Y021070D02*
X009779Y021070D01*
X009922Y021129D01*
X009990Y021197D01*
X013060Y021197D01*
X013212Y021349D01*
X013283Y021420D01*
X013379Y021420D01*
X013522Y021479D01*
X013631Y021588D01*
X013690Y021730D01*
X013690Y021884D01*
X013631Y022026D01*
X013522Y022135D01*
X013379Y022194D01*
X013225Y022194D01*
X013083Y022135D01*
X012974Y022026D01*
X012915Y021884D01*
X012915Y021787D01*
X012845Y021717D01*
X009990Y021717D01*
X009922Y021785D01*
X009779Y021844D01*
X009625Y021844D01*
X009483Y021785D01*
X009374Y021676D01*
X009315Y021534D01*
X009315Y021380D01*
X009374Y021238D01*
X009483Y021129D01*
X009625Y021070D01*
X009797Y021077D02*
X014116Y021077D01*
X014115Y021176D02*
X009969Y021176D01*
X009702Y021457D02*
X012952Y021457D01*
X013302Y021807D01*
X012949Y021964D02*
X008712Y021964D01*
X008712Y021866D02*
X012915Y021866D01*
X012895Y021767D02*
X009940Y021767D01*
X009465Y021767D02*
X008712Y021767D01*
X008712Y021668D02*
X009371Y021668D01*
X009330Y021570D02*
X008807Y021570D01*
X008906Y021471D02*
X009315Y021471D01*
X009318Y021373D02*
X009004Y021373D01*
X009103Y021274D02*
X009359Y021274D01*
X009436Y021176D02*
X009201Y021176D01*
X009497Y020880D02*
X012528Y020880D01*
X012752Y020557D02*
X012802Y020507D01*
X015352Y020507D01*
X015402Y020557D01*
X015682Y020289D02*
X016292Y020289D01*
X016292Y020387D02*
X015751Y020387D01*
X015790Y020486D02*
X016292Y020486D01*
X016292Y020584D02*
X015790Y020584D01*
X015769Y020683D02*
X016292Y020683D01*
X016292Y020782D02*
X015725Y020782D01*
X015627Y020880D02*
X016261Y020880D01*
X016292Y020190D02*
X015529Y020190D01*
X015276Y020190D02*
X012879Y020190D01*
X012626Y020190D02*
X007212Y020190D01*
X007212Y020092D02*
X016292Y020092D01*
X016292Y019993D02*
X007212Y019993D01*
X007212Y019895D02*
X016292Y019895D01*
X016292Y019796D02*
X007212Y019796D01*
X007212Y019698D02*
X016292Y019698D01*
X016292Y019599D02*
X007212Y019599D01*
X007212Y019500D02*
X016292Y019500D01*
X016292Y019402D02*
X007212Y019402D01*
X007212Y019303D02*
X016292Y019303D01*
X016292Y019205D02*
X007212Y019205D01*
X007212Y019106D02*
X016292Y019106D01*
X016384Y019008D02*
X007212Y019008D01*
X007212Y018909D02*
X012491Y018909D01*
X012359Y018811D02*
X007212Y018811D01*
X007212Y018712D02*
X012298Y018712D01*
X012265Y018614D02*
X007212Y018614D01*
X007212Y018515D02*
X012243Y018515D01*
X012144Y018416D02*
X007212Y018416D01*
X007212Y018318D02*
X012046Y018318D01*
X011947Y018219D02*
X007212Y018219D01*
X007212Y018121D02*
X011942Y018121D01*
X011942Y018022D02*
X007212Y018022D01*
X007212Y017924D02*
X011942Y017924D01*
X011942Y017825D02*
X007212Y017825D01*
X007212Y017727D02*
X011942Y017727D01*
X011942Y017628D02*
X007212Y017628D01*
X007212Y017530D02*
X011942Y017530D01*
X011942Y017431D02*
X007212Y017431D01*
X007212Y017333D02*
X011942Y017333D01*
X011942Y017234D02*
X007212Y017234D01*
X007212Y017135D02*
X011942Y017135D01*
X011942Y017037D02*
X007212Y017037D01*
X007212Y016938D02*
X011942Y016938D01*
X011942Y016840D02*
X007212Y016840D01*
X007212Y016741D02*
X011942Y016741D01*
X011942Y016643D02*
X007212Y016643D01*
X007212Y016544D02*
X011942Y016544D01*
X011942Y016446D02*
X007212Y016446D01*
X007212Y016347D02*
X011942Y016347D01*
X011942Y016249D02*
X007212Y016249D01*
X007212Y016150D02*
X011942Y016150D01*
X011942Y016051D02*
X007212Y016051D01*
X007212Y015953D02*
X011931Y015953D01*
X011832Y015854D02*
X007212Y015854D01*
X007212Y015756D02*
X011734Y015756D01*
X011635Y015657D02*
X007212Y015657D01*
X007212Y015559D02*
X011537Y015559D01*
X011438Y015460D02*
X007212Y015460D01*
X007212Y015362D02*
X011340Y015362D01*
X011241Y015263D02*
X007212Y015263D01*
X007212Y015165D02*
X011142Y015165D01*
X011044Y015066D02*
X007212Y015066D01*
X007212Y014967D02*
X010945Y014967D01*
X010847Y014869D02*
X007212Y014869D01*
X007134Y014770D02*
X010748Y014770D01*
X010650Y014672D02*
X007035Y014672D01*
X006937Y014573D02*
X010642Y014573D01*
X010642Y014475D02*
X006838Y014475D01*
X006812Y014376D02*
X010642Y014376D01*
X010642Y014278D02*
X006812Y014278D01*
X006812Y014179D02*
X010607Y014179D01*
X010702Y013907D02*
X008552Y013907D01*
X008152Y013507D01*
X008152Y012657D01*
X007952Y012457D01*
X008152Y011953D02*
X008195Y011851D01*
X008347Y011699D01*
X008545Y011617D01*
X008760Y011617D02*
X008958Y011699D01*
X009110Y011851D01*
X009152Y011953D01*
X009195Y011851D01*
X009347Y011699D01*
X009545Y011617D01*
X009760Y011617D02*
X009958Y011699D01*
X010110Y011851D01*
X010152Y011953D01*
X010195Y011851D01*
X010347Y011699D01*
X010545Y011617D01*
X010760Y011617D02*
X010958Y011699D01*
X011110Y011851D01*
X011152Y011953D01*
X011195Y011851D01*
X011347Y011699D01*
X011545Y011617D01*
X011760Y011617D02*
X011958Y011699D01*
X012110Y011851D01*
X012152Y011953D01*
X012195Y011851D01*
X012347Y011699D01*
X012545Y011617D01*
X012760Y011617D02*
X012958Y011699D01*
X013110Y011851D01*
X013152Y011953D01*
X013195Y011851D01*
X013347Y011699D01*
X013545Y011617D01*
X013760Y011617D02*
X013958Y011699D01*
X014110Y011851D01*
X014152Y011953D01*
X014195Y011851D01*
X014347Y011699D01*
X014545Y011617D01*
X014760Y011617D02*
X014958Y011699D01*
X015110Y011851D01*
X015152Y011953D01*
X015195Y011851D01*
X015347Y011699D01*
X015545Y011617D01*
X015760Y011617D02*
X015958Y011699D01*
X016110Y011851D01*
X016152Y011953D01*
X016195Y011851D01*
X016347Y011699D01*
X016545Y011617D01*
X016760Y011617D02*
X016958Y011699D01*
X017110Y011851D01*
X017152Y011953D01*
X017195Y011851D01*
X017347Y011699D01*
X017545Y011617D01*
X017760Y011617D02*
X017958Y011699D01*
X018110Y011851D01*
X018152Y011953D01*
X018136Y011913D02*
X018169Y011913D01*
X018231Y011814D02*
X018073Y011814D01*
X017975Y011716D02*
X018330Y011716D01*
X017330Y011716D02*
X016975Y011716D01*
X017073Y011814D02*
X017231Y011814D01*
X017169Y011913D02*
X017136Y011913D01*
X016330Y011716D02*
X015975Y011716D01*
X016073Y011814D02*
X016231Y011814D01*
X016169Y011913D02*
X016136Y011913D01*
X015330Y011716D02*
X014975Y011716D01*
X015073Y011814D02*
X015231Y011814D01*
X015169Y011913D02*
X015136Y011913D01*
X014658Y011321D02*
X014156Y011321D01*
X014254Y011223D02*
X014559Y011223D01*
X014422Y011124D02*
X014353Y011124D01*
X013952Y011157D02*
X014552Y010557D01*
X014952Y010557D01*
X015152Y010757D01*
X020602Y010757D01*
X021920Y012307D02*
X021923Y012307D01*
X022019Y012208D02*
X022021Y012208D01*
X022112Y012117D02*
X022112Y012114D01*
X019962Y014265D01*
X019810Y014417D01*
X018145Y014417D01*
X017992Y014265D01*
X017845Y014117D01*
X017692Y013965D01*
X017692Y013697D01*
X017545Y013697D01*
X017412Y013642D01*
X017412Y016817D01*
X022112Y012117D01*
X021824Y012405D02*
X021822Y012405D01*
X021726Y012504D02*
X021723Y012504D01*
X021627Y012602D02*
X021624Y012602D01*
X021528Y012701D02*
X021526Y012701D01*
X021430Y012800D02*
X021427Y012800D01*
X021331Y012898D02*
X021329Y012898D01*
X021233Y012997D02*
X021230Y012997D01*
X021134Y013095D02*
X021132Y013095D01*
X021036Y013194D02*
X021033Y013194D01*
X020937Y013292D02*
X020935Y013292D01*
X020839Y013391D02*
X020836Y013391D01*
X020740Y013489D02*
X020738Y013489D01*
X020642Y013588D02*
X020639Y013588D01*
X020543Y013686D02*
X020541Y013686D01*
X020444Y013785D02*
X020442Y013785D01*
X020346Y013884D02*
X020343Y013884D01*
X020247Y013982D02*
X020245Y013982D01*
X020149Y014081D02*
X020146Y014081D01*
X020050Y014179D02*
X020048Y014179D01*
X019952Y014278D02*
X019949Y014278D01*
X019853Y014376D02*
X019851Y014376D01*
X019755Y014475D02*
X017412Y014475D01*
X017412Y014573D02*
X019656Y014573D01*
X019558Y014672D02*
X017412Y014672D01*
X017412Y014770D02*
X019459Y014770D01*
X019361Y014869D02*
X017412Y014869D01*
X017412Y014967D02*
X019262Y014967D01*
X019163Y015066D02*
X017412Y015066D01*
X017412Y015165D02*
X019065Y015165D01*
X018966Y015263D02*
X017412Y015263D01*
X017412Y015362D02*
X018868Y015362D01*
X018769Y015460D02*
X017412Y015460D01*
X017412Y015559D02*
X018671Y015559D01*
X018572Y015657D02*
X017412Y015657D01*
X017412Y015756D02*
X018474Y015756D01*
X018375Y015854D02*
X017412Y015854D01*
X017412Y015953D02*
X018277Y015953D01*
X018178Y016051D02*
X017412Y016051D01*
X017412Y016150D02*
X018079Y016150D01*
X017981Y016249D02*
X017412Y016249D01*
X017412Y016347D02*
X017882Y016347D01*
X017784Y016446D02*
X017412Y016446D01*
X017412Y016544D02*
X017685Y016544D01*
X017587Y016643D02*
X017412Y016643D01*
X017412Y016741D02*
X017488Y016741D01*
X016892Y016741D02*
X012462Y016741D01*
X012462Y016643D02*
X016892Y016643D01*
X016892Y016544D02*
X012462Y016544D01*
X012462Y016446D02*
X016892Y016446D01*
X016892Y016347D02*
X012462Y016347D01*
X012462Y016249D02*
X016892Y016249D01*
X016892Y016150D02*
X012462Y016150D01*
X012462Y016051D02*
X016892Y016051D01*
X016892Y015953D02*
X012462Y015953D01*
X012462Y015854D02*
X016892Y015854D01*
X016892Y015756D02*
X012462Y015756D01*
X012371Y015657D02*
X016892Y015657D01*
X016892Y015559D02*
X012272Y015559D01*
X012173Y015460D02*
X016892Y015460D01*
X016892Y015362D02*
X012075Y015362D01*
X011976Y015263D02*
X016892Y015263D01*
X016892Y015165D02*
X011878Y015165D01*
X011779Y015066D02*
X016892Y015066D01*
X016892Y014967D02*
X011681Y014967D01*
X011582Y014869D02*
X016892Y014869D01*
X016892Y014770D02*
X011484Y014770D01*
X011385Y014672D02*
X016892Y014672D01*
X016892Y014573D02*
X011287Y014573D01*
X011188Y014475D02*
X016892Y014475D01*
X016892Y014376D02*
X011162Y014376D01*
X011162Y014278D02*
X016892Y014278D01*
X016892Y014179D02*
X011162Y014179D01*
X011162Y014081D02*
X016892Y014081D01*
X016892Y013982D02*
X011145Y013982D01*
X011047Y013884D02*
X016892Y013884D01*
X016892Y013785D02*
X010948Y013785D01*
X010962Y013799D02*
X010962Y013799D01*
X010850Y013686D02*
X011520Y013686D01*
X011320Y013588D02*
X010985Y013588D01*
X011084Y013489D02*
X011221Y013489D01*
X011165Y013391D02*
X011140Y013391D01*
X010702Y013907D02*
X010902Y014107D01*
X010902Y014557D01*
X012202Y015857D01*
X012202Y018107D01*
X012652Y018557D01*
X012813Y018909D02*
X016482Y018909D01*
X016445Y018947D02*
X016445Y018947D01*
X016581Y018811D02*
X012946Y018811D01*
X013007Y018712D02*
X016679Y018712D01*
X016692Y018614D02*
X013040Y018614D01*
X013040Y018515D02*
X016692Y018515D01*
X016692Y018416D02*
X013013Y018416D01*
X012961Y018318D02*
X016692Y018318D01*
X016692Y018219D02*
X012849Y018219D01*
X012584Y018121D02*
X016692Y018121D01*
X016692Y018022D02*
X012486Y018022D01*
X012462Y017924D02*
X016692Y017924D01*
X016692Y017825D02*
X012462Y017825D01*
X012462Y017727D02*
X016692Y017727D01*
X016692Y017628D02*
X012462Y017628D01*
X012462Y017530D02*
X016692Y017530D01*
X016692Y017431D02*
X012462Y017431D01*
X012462Y017333D02*
X016692Y017333D01*
X016692Y017234D02*
X012462Y017234D01*
X012462Y017135D02*
X016706Y017135D01*
X016805Y017037D02*
X012462Y017037D01*
X012462Y016938D02*
X016892Y016938D01*
X016845Y016997D02*
X016845Y016997D01*
X016892Y016840D02*
X012462Y016840D01*
X012520Y013686D02*
X011785Y013686D01*
X011985Y013588D02*
X012320Y013588D01*
X012221Y013489D02*
X012084Y013489D01*
X012140Y013391D02*
X012165Y013391D01*
X012785Y013686D02*
X013520Y013686D01*
X013320Y013588D02*
X012985Y013588D01*
X013084Y013489D02*
X013221Y013489D01*
X013165Y013391D02*
X013140Y013391D01*
X013785Y013686D02*
X014520Y013686D01*
X014320Y013588D02*
X013985Y013588D01*
X014084Y013489D02*
X014221Y013489D01*
X014165Y013391D02*
X014140Y013391D01*
X014785Y013686D02*
X015520Y013686D01*
X015320Y013588D02*
X014985Y013588D01*
X015084Y013489D02*
X015221Y013489D01*
X015165Y013391D02*
X015140Y013391D01*
X015785Y013686D02*
X016520Y013686D01*
X016320Y013588D02*
X015985Y013588D01*
X016084Y013489D02*
X016221Y013489D01*
X016165Y013391D02*
X016140Y013391D01*
X016785Y013686D02*
X016892Y013686D01*
X017412Y013686D02*
X017520Y013686D01*
X017412Y013785D02*
X017692Y013785D01*
X017692Y013884D02*
X017412Y013884D01*
X017412Y013982D02*
X017710Y013982D01*
X017809Y014081D02*
X017412Y014081D01*
X017412Y014179D02*
X017907Y014179D01*
X018006Y014278D02*
X017412Y014278D01*
X017412Y014376D02*
X018104Y014376D01*
X017952Y013407D02*
X017902Y013357D01*
X019703Y013207D02*
X019985Y013207D01*
X020085Y013107D01*
X019703Y013107D01*
X019703Y013207D01*
X019703Y013194D02*
X019998Y013194D01*
X020160Y012997D02*
X020195Y012997D01*
X020119Y012898D02*
X020294Y012898D01*
X020392Y012800D02*
X020045Y012800D01*
X023070Y011617D02*
X023112Y011617D01*
X023878Y012011D02*
X024642Y012011D01*
X024642Y011913D02*
X023976Y011913D01*
X024075Y011814D02*
X024642Y011814D01*
X024642Y011716D02*
X024174Y011716D01*
X024272Y011617D02*
X024642Y011617D01*
X024642Y011518D02*
X024371Y011518D01*
X025302Y011407D02*
X026002Y010707D01*
X025702Y011607D02*
X025702Y013457D01*
X025902Y013657D01*
X025902Y016007D01*
X023402Y018507D01*
X023209Y017530D02*
X024012Y017530D01*
X024111Y017431D02*
X023308Y017431D01*
X023407Y017333D02*
X024209Y017333D01*
X024308Y017234D02*
X023412Y017234D01*
X023412Y017135D02*
X024406Y017135D01*
X024505Y017037D02*
X023490Y017037D01*
X023589Y016938D02*
X024603Y016938D01*
X024702Y016840D02*
X023687Y016840D01*
X023786Y016741D02*
X024800Y016741D01*
X024899Y016643D02*
X023884Y016643D01*
X023983Y016544D02*
X024997Y016544D01*
X025096Y016446D02*
X024081Y016446D01*
X024002Y016157D02*
X025002Y016157D01*
X025252Y015907D01*
X025252Y014857D01*
X025402Y014707D01*
X025402Y014607D01*
X025543Y014967D02*
X025642Y014967D01*
X025642Y015066D02*
X025512Y015066D01*
X025512Y015165D02*
X025642Y015165D01*
X025642Y015263D02*
X025512Y015263D01*
X025512Y015362D02*
X025642Y015362D01*
X025602Y015357D02*
X025702Y015257D01*
X025702Y014057D01*
X025452Y013807D01*
X025312Y013785D02*
X025642Y013785D01*
X025642Y013765D02*
X025642Y014299D01*
X025622Y014279D01*
X025479Y014220D01*
X025325Y014220D01*
X025312Y014225D01*
X025312Y013665D01*
X025442Y013534D01*
X025442Y013565D01*
X025642Y013765D01*
X025564Y013686D02*
X025312Y013686D01*
X025389Y013588D02*
X025466Y013588D01*
X025312Y013884D02*
X025642Y013884D01*
X025642Y013982D02*
X025312Y013982D01*
X025312Y014081D02*
X025642Y014081D01*
X025642Y014179D02*
X025312Y014179D01*
X025619Y014278D02*
X025642Y014278D01*
X024852Y013457D02*
X025302Y013007D01*
X025302Y011407D01*
X024852Y013457D02*
X024852Y013907D01*
X024252Y014507D01*
X024252Y014957D01*
X024002Y016157D02*
X023002Y017157D01*
X025180Y016347D02*
X025194Y016347D01*
X025278Y016249D02*
X025293Y016249D01*
X025377Y016150D02*
X025392Y016150D01*
X025475Y016051D02*
X025490Y016051D01*
X025512Y015953D02*
X025589Y015953D01*
X025642Y015854D02*
X025512Y015854D01*
X025512Y015756D02*
X025642Y015756D01*
X025642Y015657D02*
X025512Y015657D01*
X025512Y015559D02*
X025642Y015559D01*
X025642Y015460D02*
X025512Y015460D01*
X026762Y015517D02*
X026762Y016130D01*
X026795Y016117D01*
X027010Y016117D01*
X027208Y016199D01*
X027360Y016351D01*
X027402Y016453D01*
X027445Y016351D01*
X027597Y016199D01*
X027795Y016117D01*
X028010Y016117D01*
X028192Y016193D01*
X028192Y015865D01*
X028045Y015717D01*
X027974Y015717D01*
X027774Y015517D01*
X027589Y015517D01*
X027139Y015517D01*
X026762Y015517D01*
X026762Y015559D02*
X027816Y015559D01*
X027914Y015657D02*
X026762Y015657D01*
X026762Y015756D02*
X028084Y015756D01*
X028182Y015854D02*
X026762Y015854D01*
X026762Y015953D02*
X028192Y015953D01*
X028192Y016051D02*
X026762Y016051D01*
X027090Y016150D02*
X027715Y016150D01*
X027547Y016249D02*
X027258Y016249D01*
X027356Y016347D02*
X027449Y016347D01*
X027405Y016446D02*
X027399Y016446D01*
X027402Y016107D02*
X027402Y017157D01*
X027286Y017037D02*
X027519Y017037D01*
X027445Y016963D02*
X027597Y017115D01*
X027699Y017157D01*
X027597Y017199D01*
X027445Y017351D01*
X027402Y017453D01*
X027360Y017351D01*
X027208Y017199D01*
X027106Y017157D01*
X027208Y017115D01*
X027360Y016963D01*
X027402Y016861D01*
X027445Y016963D01*
X027435Y016938D02*
X027370Y016938D01*
X027158Y017135D02*
X027647Y017135D01*
X027562Y017234D02*
X027243Y017234D01*
X027342Y017333D02*
X027463Y017333D01*
X027411Y017431D02*
X027393Y017431D01*
X027402Y017861D02*
X027360Y017963D01*
X027208Y018115D01*
X027106Y018157D01*
X027208Y018199D01*
X027360Y018351D01*
X027402Y018453D01*
X027445Y018351D01*
X027597Y018199D01*
X027699Y018157D01*
X027597Y018115D01*
X027445Y017963D01*
X027402Y017861D01*
X027376Y017924D02*
X027429Y017924D01*
X027504Y018022D02*
X027301Y018022D01*
X027193Y018121D02*
X027612Y018121D01*
X027576Y018219D02*
X027229Y018219D01*
X027327Y018318D02*
X027478Y018318D01*
X027417Y018416D02*
X027387Y018416D01*
X027402Y018157D02*
X026402Y018157D01*
X026252Y018307D01*
X027402Y016107D02*
X026902Y015607D01*
X028102Y015407D02*
X028452Y015757D01*
X028452Y029907D01*
X028202Y030157D01*
X027402Y030157D01*
X027152Y030407D01*
X027402Y030861D02*
X027360Y030963D01*
X027208Y031115D01*
X027106Y031157D01*
X027208Y031199D01*
X027360Y031351D01*
X027402Y031453D01*
X027445Y031351D01*
X027597Y031199D01*
X027699Y031157D01*
X027597Y031115D01*
X027445Y030963D01*
X027402Y030861D01*
X027373Y030931D02*
X027432Y030931D01*
X027512Y031030D02*
X027293Y031030D01*
X027175Y031129D02*
X027630Y031129D01*
X027568Y031227D02*
X027236Y031227D01*
X027335Y031326D02*
X027470Y031326D01*
X027414Y031424D02*
X027391Y031424D01*
X027402Y031861D02*
X027360Y031963D01*
X027208Y032115D01*
X027106Y032157D01*
X027208Y032199D01*
X027360Y032351D01*
X027402Y032453D01*
X027445Y032351D01*
X027597Y032199D01*
X027699Y032157D01*
X027597Y032115D01*
X027445Y031963D01*
X027402Y031861D01*
X027379Y031917D02*
X027426Y031917D01*
X027497Y032015D02*
X027307Y032015D01*
X027209Y032114D02*
X027596Y032114D01*
X027583Y032213D02*
X027222Y032213D01*
X027320Y032311D02*
X027484Y032311D01*
X027420Y032410D02*
X027384Y032410D01*
X026699Y032157D02*
X026597Y032115D01*
X026562Y032080D01*
X026562Y032233D01*
X026597Y032199D01*
X026699Y032157D01*
X026596Y032114D02*
X026562Y032114D01*
X026562Y032213D02*
X026583Y032213D01*
X026414Y031889D02*
X026362Y031764D01*
X026362Y031549D01*
X026445Y031351D01*
X026597Y031199D01*
X026699Y031157D01*
X026597Y031115D01*
X026445Y030963D01*
X026362Y030764D01*
X026362Y030549D01*
X026445Y030351D01*
X026597Y030199D01*
X026699Y030157D01*
X026597Y030115D01*
X026445Y029963D01*
X026362Y029764D01*
X026362Y029549D01*
X026445Y029351D01*
X026597Y029199D01*
X026699Y029157D01*
X026597Y029115D01*
X026445Y028963D01*
X026362Y028764D01*
X026362Y028549D01*
X026445Y028351D01*
X026597Y028199D01*
X026699Y028157D01*
X026597Y028115D01*
X026445Y027963D01*
X026362Y027764D01*
X026362Y027549D01*
X026445Y027351D01*
X026597Y027199D01*
X026699Y027157D01*
X026597Y027115D01*
X026549Y027067D01*
X026233Y027067D01*
X026083Y026917D01*
X023472Y026917D01*
X023322Y027067D01*
X023182Y027067D01*
X023182Y027107D01*
X022703Y027107D01*
X022703Y027207D01*
X023182Y027207D01*
X023182Y027262D01*
X023127Y027397D01*
X023322Y027397D01*
X026262Y030337D01*
X026262Y030677D01*
X026262Y031737D01*
X026322Y031797D01*
X026322Y031797D01*
X026414Y031889D01*
X026385Y031818D02*
X026344Y031818D01*
X026362Y031720D02*
X026262Y031720D01*
X026262Y031621D02*
X026362Y031621D01*
X026373Y031523D02*
X026262Y031523D01*
X026262Y031424D02*
X026414Y031424D01*
X026470Y031326D02*
X026262Y031326D01*
X026262Y031227D02*
X026568Y031227D01*
X026630Y031129D02*
X026262Y031129D01*
X026262Y031030D02*
X026512Y031030D01*
X026432Y030931D02*
X026262Y030931D01*
X026262Y030833D02*
X026391Y030833D01*
X026362Y030734D02*
X026262Y030734D01*
X026262Y030636D02*
X026362Y030636D01*
X026367Y030537D02*
X026262Y030537D01*
X026262Y030439D02*
X026408Y030439D01*
X026455Y030340D02*
X026262Y030340D01*
X026167Y030242D02*
X026554Y030242D01*
X026665Y030143D02*
X026069Y030143D01*
X025970Y030045D02*
X026527Y030045D01*
X026438Y029946D02*
X025871Y029946D01*
X025773Y029848D02*
X026397Y029848D01*
X026362Y029749D02*
X025674Y029749D01*
X025576Y029650D02*
X026362Y029650D01*
X026362Y029552D02*
X025477Y029552D01*
X025379Y029453D02*
X026402Y029453D01*
X026443Y029355D02*
X025280Y029355D01*
X025182Y029256D02*
X026539Y029256D01*
X026696Y029158D02*
X025083Y029158D01*
X024985Y029059D02*
X026541Y029059D01*
X026444Y028961D02*
X024886Y028961D01*
X024787Y028862D02*
X026403Y028862D01*
X026362Y028764D02*
X024689Y028764D01*
X024590Y028665D02*
X026362Y028665D01*
X026362Y028566D02*
X024492Y028566D01*
X024393Y028468D02*
X026396Y028468D01*
X026437Y028369D02*
X024295Y028369D01*
X024196Y028271D02*
X026525Y028271D01*
X026661Y028172D02*
X024098Y028172D01*
X023999Y028074D02*
X026556Y028074D01*
X026457Y027975D02*
X023901Y027975D01*
X023802Y027877D02*
X026409Y027877D01*
X026368Y027778D02*
X023704Y027778D01*
X023605Y027680D02*
X026362Y027680D01*
X026362Y027581D02*
X023506Y027581D01*
X023408Y027482D02*
X026390Y027482D01*
X026431Y027384D02*
X023132Y027384D01*
X023173Y027285D02*
X026510Y027285D01*
X026626Y027187D02*
X022703Y027187D01*
X023182Y027088D02*
X026570Y027088D01*
X026402Y026657D02*
X023152Y026657D01*
X023399Y026990D02*
X026156Y026990D01*
X028387Y030340D02*
X028892Y030340D01*
X028892Y030242D02*
X028485Y030242D01*
X028584Y030143D02*
X028892Y030143D01*
X028892Y030045D02*
X028682Y030045D01*
X028712Y029946D02*
X028892Y029946D01*
X028892Y029848D02*
X028712Y029848D01*
X028712Y029749D02*
X028892Y029749D01*
X028892Y029650D02*
X028712Y029650D01*
X028712Y029552D02*
X028892Y029552D01*
X028892Y029453D02*
X028712Y029453D01*
X028712Y029355D02*
X028892Y029355D01*
X028892Y029256D02*
X028712Y029256D01*
X028712Y029158D02*
X028892Y029158D01*
X028892Y029059D02*
X028712Y029059D01*
X028712Y028961D02*
X028892Y028961D01*
X028892Y028862D02*
X028712Y028862D01*
X028712Y028764D02*
X028892Y028764D01*
X028892Y028665D02*
X028712Y028665D01*
X028712Y028566D02*
X028892Y028566D01*
X028892Y028468D02*
X028712Y028468D01*
X028712Y028369D02*
X028892Y028369D01*
X028892Y028271D02*
X028712Y028271D01*
X028712Y028172D02*
X028892Y028172D01*
X028892Y028074D02*
X028712Y028074D01*
X028712Y027975D02*
X028892Y027975D01*
X028892Y027877D02*
X028712Y027877D01*
X028712Y027778D02*
X028892Y027778D01*
X028892Y027680D02*
X028712Y027680D01*
X028712Y027581D02*
X028892Y027581D01*
X028892Y027482D02*
X028712Y027482D01*
X028712Y027384D02*
X028892Y027384D01*
X028892Y027285D02*
X028712Y027285D01*
X028712Y027187D02*
X028892Y027187D01*
X028892Y027088D02*
X028712Y027088D01*
X028712Y026990D02*
X028892Y026990D01*
X028892Y026891D02*
X028712Y026891D01*
X028712Y026793D02*
X028892Y026793D01*
X028892Y026694D02*
X028712Y026694D01*
X028712Y026596D02*
X028892Y026596D01*
X028892Y026497D02*
X028712Y026497D01*
X028712Y026399D02*
X028892Y026399D01*
X028892Y026300D02*
X028712Y026300D01*
X028712Y026201D02*
X028892Y026201D01*
X028892Y026103D02*
X028712Y026103D01*
X028712Y026004D02*
X028892Y026004D01*
X028892Y025906D02*
X028712Y025906D01*
X028712Y025807D02*
X028892Y025807D01*
X028892Y025709D02*
X028712Y025709D01*
X028712Y025610D02*
X028892Y025610D01*
X028892Y025512D02*
X028712Y025512D01*
X028712Y025413D02*
X028892Y025413D01*
X028892Y025315D02*
X028712Y025315D01*
X028712Y025216D02*
X028892Y025216D01*
X028892Y025117D02*
X028712Y025117D01*
X028712Y025019D02*
X028892Y025019D01*
X028892Y024920D02*
X028712Y024920D01*
X028712Y024822D02*
X028892Y024822D01*
X028892Y024723D02*
X028712Y024723D01*
X028712Y024625D02*
X028892Y024625D01*
X028892Y024526D02*
X028712Y024526D01*
X028712Y024428D02*
X028892Y024428D01*
X028892Y024329D02*
X028712Y024329D01*
X028712Y024231D02*
X028892Y024231D01*
X028892Y024132D02*
X028712Y024132D01*
X028712Y024033D02*
X028892Y024033D01*
X028892Y023935D02*
X028712Y023935D01*
X028712Y023836D02*
X028892Y023836D01*
X028892Y023738D02*
X028712Y023738D01*
X028712Y023639D02*
X028892Y023639D01*
X028892Y023541D02*
X028712Y023541D01*
X028712Y023442D02*
X028892Y023442D01*
X028892Y023344D02*
X028712Y023344D01*
X028712Y023245D02*
X028892Y023245D01*
X028892Y023147D02*
X028712Y023147D01*
X028712Y023048D02*
X028892Y023048D01*
X028892Y022949D02*
X028712Y022949D01*
X028712Y022851D02*
X028892Y022851D01*
X028892Y022752D02*
X028712Y022752D01*
X028712Y022654D02*
X028892Y022654D01*
X028892Y022555D02*
X028712Y022555D01*
X028712Y022457D02*
X028892Y022457D01*
X028892Y022358D02*
X028712Y022358D01*
X028712Y022260D02*
X028892Y022260D01*
X028892Y022161D02*
X028712Y022161D01*
X028712Y022063D02*
X028892Y022063D01*
X028892Y021964D02*
X028712Y021964D01*
X028712Y021866D02*
X028892Y021866D01*
X028892Y021767D02*
X028712Y021767D01*
X028712Y021668D02*
X028892Y021668D01*
X028892Y021570D02*
X028712Y021570D01*
X028712Y021471D02*
X028892Y021471D01*
X028892Y021373D02*
X028712Y021373D01*
X028712Y021274D02*
X028892Y021274D01*
X028892Y021176D02*
X028712Y021176D01*
X028712Y021077D02*
X028892Y021077D01*
X028892Y020979D02*
X028712Y020979D01*
X028712Y020880D02*
X028892Y020880D01*
X028892Y020782D02*
X028712Y020782D01*
X028712Y020683D02*
X028892Y020683D01*
X028892Y020584D02*
X028712Y020584D01*
X028712Y020486D02*
X028892Y020486D01*
X028892Y020387D02*
X028712Y020387D01*
X028712Y020289D02*
X028892Y020289D01*
X028892Y020190D02*
X028712Y020190D01*
X028712Y020092D02*
X028892Y020092D01*
X028892Y019993D02*
X028712Y019993D01*
X028712Y019895D02*
X028892Y019895D01*
X028892Y019796D02*
X028712Y019796D01*
X028712Y019698D02*
X028892Y019698D01*
X028892Y019599D02*
X028712Y019599D01*
X028712Y019500D02*
X028892Y019500D01*
X028892Y019402D02*
X028712Y019402D01*
X028712Y019303D02*
X028892Y019303D01*
X028892Y019205D02*
X028712Y019205D01*
X028712Y019106D02*
X028892Y019106D01*
X028892Y019008D02*
X028712Y019008D01*
X028712Y018909D02*
X028892Y018909D01*
X028892Y018811D02*
X028712Y018811D01*
X028712Y018712D02*
X028892Y018712D01*
X028892Y018614D02*
X028712Y018614D01*
X028712Y018515D02*
X028892Y018515D01*
X028892Y018416D02*
X028712Y018416D01*
X028712Y018318D02*
X028892Y018318D01*
X028892Y018219D02*
X028712Y018219D01*
X028712Y018121D02*
X028892Y018121D01*
X028892Y018022D02*
X028712Y018022D01*
X028712Y017924D02*
X028892Y017924D01*
X028892Y017825D02*
X028712Y017825D01*
X028712Y017727D02*
X028892Y017727D01*
X028892Y017628D02*
X028712Y017628D01*
X028712Y017530D02*
X028892Y017530D01*
X028892Y017431D02*
X028712Y017431D01*
X028712Y017333D02*
X028892Y017333D01*
X028892Y017234D02*
X028712Y017234D01*
X028712Y017135D02*
X028892Y017135D01*
X028892Y017037D02*
X028712Y017037D01*
X028712Y016938D02*
X028892Y016938D01*
X028892Y016840D02*
X028712Y016840D01*
X028712Y016741D02*
X028892Y016741D01*
X028892Y016643D02*
X028712Y016643D01*
X028712Y016544D02*
X028892Y016544D01*
X028892Y016446D02*
X028712Y016446D01*
X028712Y016347D02*
X028892Y016347D01*
X028892Y016249D02*
X028712Y016249D01*
X028712Y016150D02*
X028892Y016150D01*
X028892Y016051D02*
X028712Y016051D01*
X028712Y015953D02*
X028892Y015953D01*
X028892Y015854D02*
X028712Y015854D01*
X028712Y015756D02*
X028892Y015756D01*
X028892Y015657D02*
X028712Y015657D01*
X028622Y015559D02*
X028892Y015559D01*
X028892Y015460D02*
X028523Y015460D01*
X028425Y015362D02*
X028892Y015362D01*
X028892Y015263D02*
X028397Y015263D01*
X028299Y015165D02*
X028892Y015165D01*
X028892Y015066D02*
X028200Y015066D01*
X028162Y014967D02*
X028892Y014967D01*
X028892Y014869D02*
X028162Y014869D01*
X028113Y014770D02*
X028892Y014770D01*
X028192Y016150D02*
X028090Y016150D01*
X019430Y025315D02*
X018278Y025315D01*
X018376Y025413D02*
X019529Y025413D01*
X019627Y025512D02*
X018687Y025512D01*
X018179Y025216D02*
X019332Y025216D01*
X019233Y025117D02*
X018081Y025117D01*
X017982Y025019D02*
X019135Y025019D01*
X019036Y024920D02*
X017884Y024920D01*
X017785Y024822D02*
X018938Y024822D01*
X018839Y024723D02*
X017686Y024723D01*
X017588Y024625D02*
X018741Y024625D01*
X018642Y024526D02*
X017489Y024526D01*
X017391Y024428D02*
X018543Y024428D01*
X018445Y024329D02*
X017292Y024329D01*
X017212Y024231D02*
X018346Y024231D01*
X018248Y024132D02*
X017212Y024132D01*
X017212Y024033D02*
X018149Y024033D01*
X018051Y023935D02*
X017212Y023935D01*
X017212Y023836D02*
X017952Y023836D01*
X017854Y023738D02*
X017212Y023738D01*
X017212Y023639D02*
X017755Y023639D01*
X017657Y023541D02*
X017212Y023541D01*
X017212Y023442D02*
X017558Y023442D01*
X017459Y023344D02*
X017212Y023344D01*
X017212Y023245D02*
X017361Y023245D01*
X017262Y023147D02*
X017212Y023147D01*
X015337Y025709D02*
X014968Y025709D01*
X015066Y025807D02*
X015238Y025807D01*
X015172Y025906D02*
X015133Y025906D01*
X015152Y026361D02*
X015110Y026463D01*
X014958Y026615D01*
X014856Y026657D01*
X014958Y026699D01*
X015110Y026851D01*
X015152Y026953D01*
X015195Y026851D01*
X015347Y026699D01*
X015449Y026657D01*
X015347Y026615D01*
X015195Y026463D01*
X015152Y026361D01*
X015137Y026399D02*
X015168Y026399D01*
X015229Y026497D02*
X015076Y026497D01*
X014977Y026596D02*
X015328Y026596D01*
X015358Y026694D02*
X014946Y026694D01*
X015052Y026793D02*
X015253Y026793D01*
X015178Y026891D02*
X015127Y026891D01*
X014449Y026657D02*
X014347Y026615D01*
X014304Y026572D01*
X014260Y026617D01*
X014068Y026809D01*
X014110Y026851D01*
X014152Y026953D01*
X014195Y026851D01*
X014347Y026699D01*
X014449Y026657D01*
X014358Y026694D02*
X014183Y026694D01*
X014253Y026793D02*
X014084Y026793D01*
X014127Y026891D02*
X014178Y026891D01*
X014281Y026596D02*
X014328Y026596D01*
X014152Y026357D02*
X014152Y023207D01*
X014852Y022507D01*
X014552Y021757D02*
X013852Y022457D01*
X012602Y022457D01*
X012552Y022407D01*
X010302Y024657D01*
X007352Y024657D01*
X006752Y025257D01*
X006752Y025857D01*
X006952Y026157D02*
X006952Y026307D01*
X006952Y026157D02*
X008052Y025057D01*
X007752Y024857D02*
X010402Y024857D01*
X010262Y024329D02*
X008448Y024329D01*
X008546Y024231D02*
X010361Y024231D01*
X010460Y024132D02*
X008645Y024132D01*
X008712Y024033D02*
X010558Y024033D01*
X010657Y023935D02*
X008712Y023935D01*
X008712Y023836D02*
X010755Y023836D01*
X010854Y023738D02*
X008712Y023738D01*
X008712Y023639D02*
X010952Y023639D01*
X011051Y023541D02*
X008712Y023541D01*
X008712Y023442D02*
X011149Y023442D01*
X011248Y023344D02*
X008712Y023344D01*
X008712Y023245D02*
X011346Y023245D01*
X011445Y023147D02*
X008712Y023147D01*
X008712Y023048D02*
X011544Y023048D01*
X011642Y022949D02*
X008712Y022949D01*
X008712Y022851D02*
X011741Y022851D01*
X011839Y022752D02*
X008712Y022752D01*
X008712Y022654D02*
X011938Y022654D01*
X012036Y022555D02*
X008712Y022555D01*
X008712Y022457D02*
X012135Y022457D01*
X012165Y022358D02*
X008712Y022358D01*
X008712Y022260D02*
X012194Y022260D01*
X012251Y022161D02*
X008712Y022161D01*
X008712Y022063D02*
X012372Y022063D01*
X012733Y022063D02*
X013011Y022063D01*
X013146Y022161D02*
X012854Y022161D01*
X013236Y021373D02*
X014173Y021373D01*
X014132Y021274D02*
X013138Y021274D01*
X013504Y021471D02*
X014269Y021471D01*
X014292Y021570D02*
X013613Y021570D01*
X013664Y021668D02*
X014273Y021668D01*
X014175Y021767D02*
X013690Y021767D01*
X013690Y021866D02*
X014076Y021866D01*
X013978Y021964D02*
X013656Y021964D01*
X013594Y022063D02*
X013879Y022063D01*
X013780Y022161D02*
X013459Y022161D01*
X013180Y023147D02*
X013892Y023147D01*
X013892Y023245D02*
X013082Y023245D01*
X012983Y023344D02*
X013892Y023344D01*
X013892Y023442D02*
X012885Y023442D01*
X012386Y023541D02*
X013892Y023541D01*
X013892Y023639D02*
X012288Y023639D01*
X012189Y023738D02*
X013892Y023738D01*
X013892Y023836D02*
X012091Y023836D01*
X011992Y023935D02*
X013892Y023935D01*
X013892Y024033D02*
X011893Y024033D01*
X011795Y024132D02*
X013892Y024132D01*
X013892Y024231D02*
X011696Y024231D01*
X011598Y024329D02*
X013892Y024329D01*
X012337Y025709D02*
X011968Y025709D01*
X012066Y025807D02*
X012238Y025807D01*
X012172Y025906D02*
X012133Y025906D01*
X012152Y026657D02*
X012152Y027657D01*
X011252Y028557D01*
X010902Y028557D01*
X010652Y028807D01*
X010242Y028764D02*
X010037Y028764D01*
X010126Y028862D02*
X010168Y028862D01*
X010242Y028665D02*
X009902Y028665D01*
X009702Y028665D02*
X009602Y028665D01*
X009602Y028764D02*
X009702Y028764D01*
X009702Y028862D02*
X009602Y028862D01*
X009602Y028961D02*
X009702Y028961D01*
X009702Y029059D02*
X009602Y029059D01*
X009403Y028665D02*
X009158Y028665D01*
X009212Y028764D02*
X009268Y028764D01*
X009770Y028369D02*
X010722Y028369D01*
X010412Y028468D02*
X006381Y028468D01*
X006412Y028566D02*
X010313Y028566D01*
X009962Y028172D02*
X011269Y028172D01*
X011171Y028271D02*
X009868Y028271D01*
X009962Y028074D02*
X011368Y028074D01*
X011414Y027975D02*
X011466Y027975D01*
X011512Y027877D02*
X011565Y027877D01*
X011611Y027778D02*
X011663Y027778D01*
X011152Y027657D02*
X007402Y027657D01*
X005602Y025857D01*
X005602Y024797D01*
X006752Y023647D01*
X006752Y015057D01*
X006352Y014657D01*
X006352Y011507D01*
X007102Y010757D01*
X007102Y006007D01*
X008202Y004907D01*
X008837Y005113D02*
X009163Y005113D01*
X009058Y005015D02*
X008942Y005015D01*
X009202Y005606D02*
X013003Y005606D01*
X012804Y005704D02*
X009401Y005704D01*
X009499Y005803D02*
X012705Y005803D01*
X012607Y005901D02*
X009598Y005901D01*
X009659Y006000D02*
X012546Y006000D01*
X012505Y006099D02*
X009700Y006099D01*
X009741Y006197D02*
X012464Y006197D01*
X012433Y006296D02*
X009772Y006296D01*
X009772Y006394D02*
X012433Y006394D01*
X012433Y006493D02*
X009772Y006493D01*
X009772Y006591D02*
X012433Y006591D01*
X012453Y006690D02*
X009752Y006690D01*
X009711Y006788D02*
X012494Y006788D01*
X012535Y006887D02*
X009670Y006887D01*
X009625Y006985D02*
X012580Y006985D01*
X012679Y007084D02*
X009526Y007084D01*
X009428Y007183D02*
X012777Y007183D01*
X012939Y007281D02*
X009266Y007281D01*
X008479Y007380D02*
X013726Y007380D01*
X013726Y007478D02*
X008479Y007478D01*
X008479Y007577D02*
X013726Y007577D01*
X013726Y007675D02*
X008479Y007675D01*
X008479Y007774D02*
X013726Y007774D01*
X013726Y007872D02*
X008479Y007872D01*
X008466Y007971D02*
X013739Y007971D01*
X012368Y005113D02*
X009837Y005113D01*
X009942Y005015D02*
X012263Y005015D01*
X012176Y004916D02*
X010029Y004916D01*
X010070Y004818D02*
X012135Y004818D01*
X012094Y004719D02*
X010111Y004719D01*
X010115Y004620D02*
X012090Y004620D01*
X012090Y004522D02*
X010115Y004522D01*
X010098Y004423D02*
X012107Y004423D01*
X012148Y004325D02*
X010057Y004325D01*
X010008Y004226D02*
X012196Y004226D01*
X012295Y004128D02*
X009910Y004128D01*
X009759Y004029D02*
X012446Y004029D01*
X009241Y004029D02*
X008759Y004029D01*
X008910Y004128D02*
X009090Y004128D01*
X008241Y004029D02*
X008092Y004029D01*
X007984Y005606D02*
X008503Y005606D01*
X008304Y005704D02*
X007952Y005704D01*
X007952Y005803D02*
X008205Y005803D01*
X008107Y005901D02*
X007952Y005901D01*
X007952Y006000D02*
X008046Y006000D01*
X008005Y006099D02*
X007952Y006099D01*
X007952Y006197D02*
X007964Y006197D01*
X006842Y006197D02*
X005202Y006197D01*
X005202Y006296D02*
X006842Y006296D01*
X006842Y006394D02*
X005202Y006394D01*
X005202Y006493D02*
X006842Y006493D01*
X006842Y006591D02*
X004703Y006591D01*
X004702Y006493D02*
X004602Y006493D01*
X004602Y006394D02*
X004702Y006394D01*
X004702Y006296D02*
X004602Y006296D01*
X004602Y006197D02*
X004702Y006197D01*
X004702Y006099D02*
X004602Y006099D01*
X005127Y006099D02*
X006842Y006099D01*
X006842Y006690D02*
X005202Y006690D01*
X005202Y006788D02*
X006842Y006788D01*
X006842Y006887D02*
X005202Y006887D01*
X005202Y006985D02*
X006842Y006985D01*
X006842Y007084D02*
X005158Y007084D01*
X004702Y007084D02*
X004602Y007084D01*
X004602Y006985D02*
X004702Y006985D01*
X004702Y006887D02*
X004602Y006887D01*
X004602Y006788D02*
X004702Y006788D01*
X004702Y006690D02*
X004602Y006690D01*
X004412Y007183D02*
X006842Y007183D01*
X006842Y007281D02*
X004412Y007281D01*
X004412Y007380D02*
X006842Y007380D01*
X006842Y007478D02*
X004412Y007478D01*
X004412Y007577D02*
X006842Y007577D01*
X006842Y007675D02*
X004412Y007675D01*
X004412Y007774D02*
X006842Y007774D01*
X006842Y007872D02*
X004412Y007872D01*
X004412Y007971D02*
X006842Y007971D01*
X006842Y008069D02*
X004412Y008069D01*
X004412Y008168D02*
X006842Y008168D01*
X006842Y008267D02*
X004412Y008267D01*
X004412Y008365D02*
X006842Y008365D01*
X006842Y008464D02*
X004412Y008464D01*
X004412Y008562D02*
X006842Y008562D01*
X006842Y008661D02*
X004412Y008661D01*
X004412Y008759D02*
X006842Y008759D01*
X006691Y008858D02*
X006614Y008858D01*
X006614Y008956D02*
X006691Y008956D01*
X006691Y009055D02*
X006614Y009055D01*
X006614Y009153D02*
X006691Y009153D01*
X006614Y009252D02*
X004412Y009252D01*
X004412Y009351D02*
X006187Y009351D01*
X006225Y009449D02*
X004412Y009449D01*
X004412Y009548D02*
X006278Y009548D01*
X006228Y009646D02*
X004412Y009646D01*
X004412Y009745D02*
X006177Y009745D01*
X006177Y009843D02*
X004412Y009843D01*
X004412Y009942D02*
X006177Y009942D01*
X006177Y010040D02*
X004412Y010040D01*
X004412Y010139D02*
X006177Y010139D01*
X006177Y010237D02*
X004412Y010237D01*
X004412Y010336D02*
X006177Y010336D01*
X006208Y010434D02*
X004412Y010434D01*
X004412Y010533D02*
X006196Y010533D01*
X006098Y010632D02*
X004412Y010632D01*
X004412Y010730D02*
X005999Y010730D01*
X005901Y010829D02*
X004412Y010829D01*
X004412Y010927D02*
X005802Y010927D01*
X005704Y011026D02*
X004412Y011026D01*
X004412Y011124D02*
X005605Y011124D01*
X005592Y011223D02*
X004412Y011223D01*
X004412Y011321D02*
X005592Y011321D01*
X005592Y011420D02*
X004412Y011420D01*
X004412Y011518D02*
X005592Y011518D01*
X005592Y011617D02*
X004412Y011617D01*
X004412Y011716D02*
X005592Y011716D01*
X005318Y011814D02*
X004412Y011814D01*
X004412Y011913D02*
X005199Y011913D01*
X005144Y012011D02*
X004412Y012011D01*
X004412Y012110D02*
X005115Y012110D01*
X005115Y012208D02*
X004412Y012208D01*
X004412Y012307D02*
X005146Y012307D01*
X005203Y012405D02*
X004412Y012405D01*
X004412Y012504D02*
X005329Y012504D01*
X005392Y012602D02*
X004412Y012602D01*
X004412Y012701D02*
X005392Y012701D01*
X005392Y012800D02*
X004412Y012800D01*
X004412Y012898D02*
X005392Y012898D01*
X005392Y012997D02*
X004412Y012997D01*
X004412Y013095D02*
X005392Y013095D01*
X005392Y013194D02*
X004412Y013194D01*
X004412Y013292D02*
X005392Y013292D01*
X005392Y013391D02*
X004412Y013391D01*
X004412Y013489D02*
X005392Y013489D01*
X005392Y013588D02*
X004412Y013588D01*
X004412Y013686D02*
X005392Y013686D01*
X005392Y013785D02*
X004412Y013785D01*
X004412Y013884D02*
X005392Y013884D01*
X005392Y013982D02*
X004412Y013982D01*
X004412Y014081D02*
X004799Y014081D01*
X004700Y014179D02*
X004412Y014179D01*
X004412Y014278D02*
X004602Y014278D01*
X004592Y014376D02*
X004412Y014376D01*
X004412Y014475D02*
X004592Y014475D01*
X004592Y014573D02*
X004412Y014573D01*
X004412Y014672D02*
X004592Y014672D01*
X004592Y014770D02*
X004412Y014770D01*
X004412Y014869D02*
X004592Y014869D01*
X004592Y014967D02*
X004412Y014967D01*
X004412Y015066D02*
X004592Y015066D01*
X004592Y015165D02*
X004412Y015165D01*
X004412Y015263D02*
X004592Y015263D01*
X004592Y015362D02*
X004412Y015362D01*
X004412Y015460D02*
X004592Y015460D01*
X004675Y015559D02*
X004412Y015559D01*
X004412Y015657D02*
X004773Y015657D01*
X004872Y015756D02*
X004412Y015756D01*
X004412Y015854D02*
X004970Y015854D01*
X005069Y015953D02*
X004412Y015953D01*
X004412Y016051D02*
X005167Y016051D01*
X005266Y016150D02*
X004412Y016150D01*
X004412Y016249D02*
X005364Y016249D01*
X005463Y016347D02*
X004412Y016347D01*
X004412Y016446D02*
X005492Y016446D01*
X005492Y016544D02*
X004412Y016544D01*
X004412Y016643D02*
X005492Y016643D01*
X005492Y016741D02*
X004412Y016741D01*
X004412Y016840D02*
X005492Y016840D01*
X005492Y016938D02*
X004412Y016938D01*
X004412Y017037D02*
X005492Y017037D01*
X005492Y017135D02*
X004412Y017135D01*
X004412Y017234D02*
X005492Y017234D01*
X005492Y017333D02*
X004412Y017333D01*
X004412Y017431D02*
X005492Y017431D01*
X005492Y017530D02*
X004412Y017530D01*
X004412Y017628D02*
X005492Y017628D01*
X005492Y017727D02*
X004412Y017727D01*
X004412Y017825D02*
X005492Y017825D01*
X005492Y017924D02*
X004412Y017924D01*
X004412Y018022D02*
X005492Y018022D01*
X005492Y018121D02*
X004412Y018121D01*
X004412Y018219D02*
X005492Y018219D01*
X005492Y018318D02*
X004412Y018318D01*
X004412Y018416D02*
X005463Y018416D01*
X005364Y018515D02*
X004412Y018515D01*
X004412Y018614D02*
X005266Y018614D01*
X005167Y018712D02*
X004412Y018712D01*
X004412Y018811D02*
X005069Y018811D01*
X004970Y018909D02*
X004412Y018909D01*
X004412Y019008D02*
X004872Y019008D01*
X004792Y019106D02*
X004412Y019106D01*
X004412Y019205D02*
X004792Y019205D01*
X004792Y019303D02*
X004412Y019303D01*
X004412Y019402D02*
X004792Y019402D01*
X004792Y019500D02*
X004412Y019500D01*
X004412Y019599D02*
X004792Y019599D01*
X004792Y019698D02*
X004412Y019698D01*
X004412Y019796D02*
X004792Y019796D01*
X004792Y019895D02*
X004412Y019895D01*
X004412Y019993D02*
X004792Y019993D01*
X004792Y020092D02*
X004412Y020092D01*
X004412Y020190D02*
X004792Y020190D01*
X004792Y020289D02*
X004412Y020289D01*
X004412Y020387D02*
X004792Y020387D01*
X004792Y020486D02*
X004412Y020486D01*
X004412Y020584D02*
X004792Y020584D01*
X004792Y020683D02*
X004412Y020683D01*
X004412Y020782D02*
X004792Y020782D01*
X004792Y020880D02*
X004412Y020880D01*
X004412Y020979D02*
X004792Y020979D01*
X004792Y021077D02*
X004412Y021077D01*
X004412Y021176D02*
X004792Y021176D01*
X004792Y021274D02*
X004412Y021274D01*
X004412Y021373D02*
X004792Y021373D01*
X004792Y021471D02*
X004412Y021471D01*
X004412Y021570D02*
X004792Y021570D01*
X004792Y021668D02*
X004412Y021668D01*
X004412Y021767D02*
X004792Y021767D01*
X004792Y021866D02*
X004412Y021866D01*
X004412Y021964D02*
X004792Y021964D01*
X004792Y022063D02*
X004412Y022063D01*
X004412Y022161D02*
X004792Y022161D01*
X004792Y022260D02*
X004412Y022260D01*
X004412Y022358D02*
X004792Y022358D01*
X004792Y022457D02*
X004412Y022457D01*
X004412Y022555D02*
X004792Y022555D01*
X004792Y022654D02*
X004412Y022654D01*
X004412Y022752D02*
X004792Y022752D01*
X004792Y022851D02*
X004412Y022851D01*
X004412Y022949D02*
X004792Y022949D01*
X004792Y023048D02*
X004412Y023048D01*
X004412Y023147D02*
X004792Y023147D01*
X004792Y023245D02*
X004412Y023245D01*
X004412Y023344D02*
X004792Y023344D01*
X004792Y023442D02*
X004412Y023442D01*
X004412Y023541D02*
X004792Y023541D01*
X004792Y023639D02*
X004412Y023639D01*
X004412Y023738D02*
X004792Y023738D01*
X004792Y023836D02*
X004412Y023836D01*
X004412Y023935D02*
X004792Y023935D01*
X004792Y024033D02*
X004412Y024033D01*
X004412Y024132D02*
X004792Y024132D01*
X004792Y024231D02*
X004412Y024231D01*
X004412Y024329D02*
X004792Y024329D01*
X004792Y024428D02*
X004412Y024428D01*
X004412Y024526D02*
X004792Y024526D01*
X004792Y024625D02*
X004412Y024625D01*
X004412Y024723D02*
X004792Y024723D01*
X004792Y024822D02*
X004412Y024822D01*
X004412Y024920D02*
X004792Y024920D01*
X004792Y025019D02*
X004412Y025019D01*
X004412Y025117D02*
X004792Y025117D01*
X004792Y025216D02*
X004412Y025216D01*
X004412Y025315D02*
X004792Y025315D01*
X004792Y025413D02*
X004412Y025413D01*
X004412Y025512D02*
X004792Y025512D01*
X004792Y025610D02*
X004412Y025610D01*
X004412Y025709D02*
X004792Y025709D01*
X004792Y025807D02*
X004412Y025807D01*
X004412Y025906D02*
X004792Y025906D01*
X004792Y026004D02*
X004412Y026004D01*
X004412Y026103D02*
X004792Y026103D01*
X004867Y026201D02*
X004412Y026201D01*
X004412Y026300D02*
X004966Y026300D01*
X005064Y026399D02*
X004412Y026399D01*
X004494Y026497D02*
X005163Y026497D01*
X005194Y026596D02*
X004661Y026596D01*
X004733Y026694D02*
X005122Y026694D01*
X005085Y026793D02*
X004770Y026793D01*
X004770Y026891D02*
X005085Y026891D01*
X005110Y026990D02*
X004745Y026990D01*
X004691Y027088D02*
X005164Y027088D01*
X005289Y027187D02*
X004566Y027187D01*
X004412Y027285D02*
X005951Y027285D01*
X005853Y027187D02*
X005616Y027187D01*
X005741Y027088D02*
X005754Y027088D01*
X006050Y027384D02*
X004412Y027384D01*
X004412Y027482D02*
X006148Y027482D01*
X006247Y027581D02*
X004412Y027581D01*
X004412Y027680D02*
X006345Y027680D01*
X006444Y027778D02*
X004412Y027778D01*
X004412Y027877D02*
X005538Y027877D01*
X005437Y027975D02*
X004412Y027975D01*
X004412Y028074D02*
X005388Y028074D01*
X005365Y028172D02*
X004412Y028172D01*
X004412Y028271D02*
X005365Y028271D01*
X005401Y028369D02*
X004412Y028369D01*
X004412Y028468D02*
X005466Y028468D01*
X005609Y028566D02*
X004412Y028566D01*
X004604Y028665D02*
X004701Y028665D01*
X004701Y028764D02*
X004604Y028764D01*
X004604Y028862D02*
X004701Y028862D01*
X004701Y028961D02*
X004604Y028961D01*
X004604Y029059D02*
X004701Y029059D01*
X005143Y028665D02*
X005376Y028665D01*
X005254Y028764D02*
X005202Y028764D01*
X005752Y028207D02*
X006152Y028607D01*
X006152Y029457D01*
X006352Y029657D01*
X008152Y029657D01*
X008252Y029557D01*
X008185Y030439D02*
X008120Y030439D01*
X008036Y030537D02*
X008269Y030537D01*
X008398Y030636D02*
X007907Y030636D01*
X007750Y031005D02*
X007402Y030657D01*
X006402Y030657D01*
X006152Y030407D01*
X006152Y029957D01*
X005652Y029457D01*
X006283Y028369D02*
X007035Y028369D01*
X006937Y028271D02*
X006184Y028271D01*
X006140Y028172D02*
X006838Y028172D01*
X006740Y028074D02*
X006116Y028074D01*
X006068Y027975D02*
X006641Y027975D01*
X006542Y027877D02*
X005967Y027877D01*
X006928Y028665D02*
X007766Y028665D01*
X007648Y028764D02*
X007051Y028764D01*
X008139Y028665D02*
X008147Y028665D01*
X009152Y029657D02*
X010152Y029657D01*
X009702Y030242D02*
X009602Y030242D01*
X009602Y030340D02*
X009702Y030340D01*
X009702Y030439D02*
X009602Y030439D01*
X009602Y030537D02*
X009702Y030537D01*
X009702Y030636D02*
X009602Y030636D01*
X009424Y030636D02*
X008907Y030636D01*
X009036Y030537D02*
X009283Y030537D01*
X009196Y030439D02*
X009120Y030439D01*
X009881Y030636D02*
X010134Y030636D01*
X010092Y030537D02*
X010021Y030537D01*
X009798Y031523D02*
X011057Y031523D01*
X010958Y031621D02*
X009897Y031621D01*
X009427Y032311D02*
X008111Y032311D01*
X008112Y032316D02*
X008112Y032598D01*
X008004Y032859D01*
X007805Y033059D01*
X007544Y033167D01*
X007261Y033167D01*
X007000Y033059D01*
X006801Y032859D01*
X006692Y032598D01*
X006692Y032316D01*
X006801Y032055D01*
X007000Y031855D01*
X007227Y031761D01*
X006883Y031417D01*
X005672Y031417D01*
X005333Y031417D01*
X004613Y030697D01*
X004412Y030697D01*
X004412Y041897D01*
X011792Y041897D01*
X011792Y041307D01*
X011687Y041307D01*
X011687Y040557D01*
X011587Y040557D01*
X011587Y041307D01*
X010954Y041307D01*
X010837Y041190D01*
X010837Y040557D01*
X011586Y040557D01*
X011586Y040457D01*
X010837Y040457D01*
X010837Y039901D01*
X010737Y039901D01*
X010619Y039901D01*
X010418Y039901D01*
X010232Y039825D01*
X010090Y039682D01*
X010013Y039497D01*
X010013Y039296D01*
X010090Y039110D01*
X010232Y038968D01*
X010418Y038891D01*
X010619Y038891D01*
X010737Y038891D01*
X010855Y038891D01*
X010873Y038898D01*
X010890Y038891D01*
X011008Y038891D01*
X011126Y038891D01*
X011244Y038891D01*
X011445Y038891D01*
X011631Y038968D01*
X011692Y039029D01*
X011692Y037401D01*
X011631Y037462D01*
X011445Y037539D01*
X011244Y037539D01*
X011126Y037539D01*
X011008Y037539D01*
X010890Y037539D01*
X010855Y037539D01*
X010737Y037539D01*
X010619Y037539D01*
X010501Y037539D01*
X010300Y037539D01*
X010114Y037462D01*
X009972Y037320D01*
X009895Y037135D01*
X009895Y036933D01*
X009972Y036748D01*
X010114Y036606D01*
X010300Y036529D01*
X010501Y036529D01*
X010619Y036529D01*
X010737Y036529D01*
X010855Y036529D01*
X010890Y036529D01*
X011008Y036529D01*
X011126Y036529D01*
X011244Y036529D01*
X011445Y036529D01*
X011631Y036606D01*
X011692Y036667D01*
X011692Y036515D01*
X011692Y036299D01*
X011852Y036139D01*
X011852Y036123D01*
X012819Y035157D01*
X012835Y035157D01*
X013242Y034749D01*
X013242Y032668D01*
X013100Y032609D01*
X012901Y032409D01*
X012792Y032148D01*
X012792Y032115D01*
X012642Y031965D01*
X012642Y031845D01*
X012647Y031792D01*
X012562Y031877D01*
X012562Y033927D01*
X012322Y034167D01*
X011983Y034167D01*
X011742Y033927D01*
X011742Y031997D01*
X011462Y032277D01*
X011222Y032517D01*
X009972Y032517D01*
X009633Y032517D01*
X009033Y031917D01*
X007867Y031917D01*
X007866Y031917D02*
X008004Y032055D01*
X008112Y032316D01*
X008112Y032410D02*
X009525Y032410D01*
X009624Y032508D02*
X008112Y032508D01*
X008109Y032607D02*
X011742Y032607D01*
X011742Y032705D02*
X008068Y032705D01*
X008027Y032804D02*
X011742Y032804D01*
X011742Y032902D02*
X007961Y032902D01*
X007862Y033001D02*
X011742Y033001D01*
X011742Y033099D02*
X007706Y033099D01*
X007099Y033099D02*
X005706Y033099D01*
X005805Y033059D02*
X005544Y033167D01*
X005261Y033167D01*
X005000Y033059D01*
X004801Y032859D01*
X004692Y032598D01*
X004692Y032316D01*
X004801Y032055D01*
X005000Y031855D01*
X005261Y031747D01*
X005544Y031747D01*
X005805Y031855D01*
X006004Y032055D01*
X006112Y032316D01*
X006112Y032598D01*
X006004Y032859D01*
X005805Y033059D01*
X005862Y033001D02*
X006942Y033001D01*
X006844Y032902D02*
X005961Y032902D01*
X006027Y032804D02*
X006778Y032804D01*
X006737Y032705D02*
X006068Y032705D01*
X006109Y032607D02*
X006696Y032607D01*
X006692Y032508D02*
X006112Y032508D01*
X006112Y032410D02*
X006692Y032410D01*
X006694Y032311D02*
X006111Y032311D01*
X006070Y032213D02*
X006735Y032213D01*
X006776Y032114D02*
X006029Y032114D01*
X005965Y032015D02*
X006840Y032015D01*
X006938Y031917D02*
X005867Y031917D01*
X005716Y031818D02*
X007088Y031818D01*
X007186Y031720D02*
X004412Y031720D01*
X004412Y031818D02*
X005088Y031818D01*
X004938Y031917D02*
X004412Y031917D01*
X004412Y032015D02*
X004840Y032015D01*
X004776Y032114D02*
X004412Y032114D01*
X004412Y032213D02*
X004735Y032213D01*
X004694Y032311D02*
X004412Y032311D01*
X004412Y032410D02*
X004692Y032410D01*
X004692Y032508D02*
X004412Y032508D01*
X004412Y032607D02*
X004696Y032607D01*
X004737Y032705D02*
X004412Y032705D01*
X004412Y032804D02*
X004778Y032804D01*
X004844Y032902D02*
X004412Y032902D01*
X004412Y033001D02*
X004942Y033001D01*
X005099Y033099D02*
X004412Y033099D01*
X004412Y033198D02*
X011742Y033198D01*
X011742Y033297D02*
X004412Y033297D01*
X004412Y033395D02*
X011742Y033395D01*
X011742Y033494D02*
X004412Y033494D01*
X004412Y033592D02*
X011742Y033592D01*
X011742Y033691D02*
X004412Y033691D01*
X004412Y033789D02*
X011742Y033789D01*
X011742Y033888D02*
X004412Y033888D01*
X004412Y033986D02*
X011802Y033986D01*
X011901Y034085D02*
X004412Y034085D01*
X004412Y034183D02*
X013242Y034183D01*
X013242Y034085D02*
X012404Y034085D01*
X012503Y033986D02*
X013242Y033986D01*
X013242Y033888D02*
X012562Y033888D01*
X012562Y033789D02*
X013242Y033789D01*
X013242Y033691D02*
X012562Y033691D01*
X012562Y033592D02*
X013242Y033592D01*
X013242Y033494D02*
X012562Y033494D01*
X012562Y033395D02*
X013242Y033395D01*
X013242Y033297D02*
X012562Y033297D01*
X012562Y033198D02*
X013242Y033198D01*
X013242Y033099D02*
X012562Y033099D01*
X012562Y033001D02*
X013242Y033001D01*
X013242Y032902D02*
X012562Y032902D01*
X012562Y032804D02*
X013242Y032804D01*
X013242Y032705D02*
X012562Y032705D01*
X012562Y032607D02*
X013098Y032607D01*
X013000Y032508D02*
X012562Y032508D01*
X012562Y032410D02*
X012901Y032410D01*
X012860Y032311D02*
X012562Y032311D01*
X012562Y032213D02*
X012819Y032213D01*
X012792Y032114D02*
X012562Y032114D01*
X012562Y032015D02*
X012693Y032015D01*
X012642Y031917D02*
X012562Y031917D01*
X012621Y031818D02*
X012645Y031818D01*
X011742Y032015D02*
X011724Y032015D01*
X011742Y032114D02*
X011625Y032114D01*
X011526Y032213D02*
X011742Y032213D01*
X011742Y032311D02*
X011428Y032311D01*
X011329Y032410D02*
X011742Y032410D01*
X011742Y032508D02*
X011231Y032508D01*
X011402Y030307D02*
X011402Y029007D01*
X012302Y028107D01*
X012880Y027647D02*
X013424Y027647D01*
X013347Y027615D01*
X013195Y027463D01*
X013152Y027361D01*
X013110Y027463D01*
X012958Y027615D01*
X012880Y027647D01*
X012992Y027581D02*
X013313Y027581D01*
X013214Y027482D02*
X013090Y027482D01*
X013143Y027384D02*
X013162Y027384D01*
X013652Y026857D02*
X014152Y026357D01*
X014152Y027361D02*
X014110Y027463D01*
X013958Y027615D01*
X013880Y027647D01*
X014195Y027647D01*
X014287Y027555D01*
X014195Y027463D01*
X014152Y027361D01*
X014143Y027384D02*
X014162Y027384D01*
X014214Y027482D02*
X014090Y027482D01*
X013992Y027581D02*
X014261Y027581D01*
X014705Y028172D02*
X019007Y028172D01*
X019106Y028074D02*
X017803Y028074D01*
X017902Y027975D02*
X019204Y027975D01*
X019303Y027877D02*
X018000Y027877D01*
X018099Y027778D02*
X019401Y027778D01*
X019500Y027680D02*
X018801Y027680D01*
X018992Y027581D02*
X019327Y027581D01*
X019229Y027482D02*
X019090Y027482D01*
X019143Y027384D02*
X019173Y027384D01*
X018503Y027680D02*
X018197Y027680D01*
X018296Y027581D02*
X018313Y027581D01*
X018909Y028271D02*
X014606Y028271D01*
X011734Y030143D02*
X011662Y030143D01*
X010891Y027975D02*
X009962Y027975D01*
X011152Y026657D02*
X011152Y025957D01*
X011802Y025307D01*
X011802Y024907D01*
X011402Y025157D02*
X010652Y025907D01*
X008452Y023957D02*
X008452Y021557D01*
X009452Y020557D01*
X012752Y020557D01*
X012473Y020289D02*
X007212Y020289D01*
X007212Y020387D02*
X009254Y020387D01*
X009156Y020486D02*
X007212Y020486D01*
X007212Y020584D02*
X009057Y020584D01*
X008959Y020683D02*
X007212Y020683D01*
X007212Y020782D02*
X008860Y020782D01*
X008761Y020880D02*
X007212Y020880D01*
X007212Y020979D02*
X008663Y020979D01*
X008564Y021077D02*
X007212Y021077D01*
X007212Y021176D02*
X008466Y021176D01*
X008367Y021274D02*
X007212Y021274D01*
X007212Y021373D02*
X008269Y021373D01*
X008192Y021471D02*
X007212Y021471D01*
X007212Y021570D02*
X008192Y021570D01*
X008192Y021668D02*
X007212Y021668D01*
X007212Y021767D02*
X008192Y021767D01*
X008192Y021866D02*
X007212Y021866D01*
X007212Y021964D02*
X008192Y021964D01*
X008192Y022063D02*
X007212Y022063D01*
X007212Y022161D02*
X008192Y022161D01*
X008192Y022260D02*
X007212Y022260D01*
X007212Y022358D02*
X008192Y022358D01*
X008192Y022457D02*
X007212Y022457D01*
X007212Y022555D02*
X008192Y022555D01*
X008192Y022654D02*
X007212Y022654D01*
X007212Y022752D02*
X008192Y022752D01*
X008192Y022851D02*
X007212Y022851D01*
X007212Y022949D02*
X008192Y022949D01*
X008192Y023048D02*
X007212Y023048D01*
X007212Y023147D02*
X008192Y023147D01*
X008192Y023245D02*
X007212Y023245D01*
X007212Y023344D02*
X008192Y023344D01*
X008192Y023442D02*
X007212Y023442D01*
X007212Y023541D02*
X008192Y023541D01*
X008192Y023639D02*
X007212Y023639D01*
X007212Y023738D02*
X008192Y023738D01*
X008192Y023836D02*
X007211Y023836D01*
X007112Y023935D02*
X008107Y023935D01*
X008008Y024033D02*
X007013Y024033D01*
X006915Y024132D02*
X007910Y024132D01*
X007952Y024457D02*
X007152Y024457D01*
X006202Y025407D01*
X006223Y025019D02*
X006062Y025019D01*
X006127Y024920D02*
X006321Y024920D01*
X006225Y024822D02*
X006420Y024822D01*
X006324Y024723D02*
X006518Y024723D01*
X006422Y024625D02*
X006617Y024625D01*
X006521Y024526D02*
X006715Y024526D01*
X006619Y024428D02*
X006814Y024428D01*
X006718Y024329D02*
X006912Y024329D01*
X006816Y024231D02*
X007011Y024231D01*
X007752Y024857D02*
X007552Y025057D01*
X007952Y024457D02*
X008452Y023957D01*
X006492Y023300D02*
X006492Y020662D01*
X006403Y020751D01*
X006254Y020813D01*
X006092Y020813D01*
X006062Y020801D01*
X006062Y023161D01*
X006092Y023149D01*
X006254Y023149D01*
X006403Y023211D01*
X006492Y023300D01*
X006492Y023245D02*
X006438Y023245D01*
X006492Y023147D02*
X006062Y023147D01*
X006062Y023048D02*
X006492Y023048D01*
X006492Y022949D02*
X006062Y022949D01*
X006062Y022851D02*
X006492Y022851D01*
X006492Y022752D02*
X006062Y022752D01*
X006062Y022654D02*
X006492Y022654D01*
X006492Y022555D02*
X006062Y022555D01*
X006062Y022457D02*
X006492Y022457D01*
X006492Y022358D02*
X006062Y022358D01*
X006062Y022260D02*
X006492Y022260D01*
X006492Y022161D02*
X006062Y022161D01*
X006062Y022063D02*
X006492Y022063D01*
X006492Y021964D02*
X006062Y021964D01*
X006062Y021866D02*
X006492Y021866D01*
X006492Y021767D02*
X006062Y021767D01*
X006062Y021668D02*
X006492Y021668D01*
X006492Y021570D02*
X006062Y021570D01*
X006062Y021471D02*
X006492Y021471D01*
X006492Y021373D02*
X006062Y021373D01*
X006062Y021274D02*
X006492Y021274D01*
X006492Y021176D02*
X006062Y021176D01*
X006062Y021077D02*
X006492Y021077D01*
X006492Y020979D02*
X006062Y020979D01*
X006062Y020880D02*
X006492Y020880D01*
X006492Y020782D02*
X006329Y020782D01*
X006471Y020683D02*
X006492Y020683D01*
X006492Y020150D02*
X006403Y020061D01*
X006254Y019999D01*
X006092Y019999D01*
X006062Y020011D01*
X006062Y019749D01*
X006090Y019684D01*
X006090Y019530D01*
X006062Y019464D01*
X006062Y019458D01*
X006058Y019453D01*
X006031Y019388D01*
X005922Y019279D01*
X005856Y019251D01*
X005852Y019247D01*
X005845Y019247D01*
X005808Y019231D01*
X006312Y018727D01*
X006312Y018387D01*
X006312Y017267D01*
X006492Y017267D01*
X006492Y020150D01*
X006492Y020092D02*
X006434Y020092D01*
X006492Y019993D02*
X006062Y019993D01*
X006062Y019895D02*
X006492Y019895D01*
X006492Y019796D02*
X006062Y019796D01*
X006084Y019698D02*
X006492Y019698D01*
X006492Y019599D02*
X006090Y019599D01*
X006077Y019500D02*
X006492Y019500D01*
X006492Y019402D02*
X006037Y019402D01*
X005946Y019303D02*
X006492Y019303D01*
X006492Y019205D02*
X005834Y019205D01*
X005933Y019106D02*
X006492Y019106D01*
X006492Y019008D02*
X006031Y019008D01*
X006130Y018909D02*
X006492Y018909D01*
X006492Y018811D02*
X006228Y018811D01*
X006312Y018712D02*
X006492Y018712D01*
X006492Y018614D02*
X006312Y018614D01*
X006312Y018515D02*
X006492Y018515D01*
X006492Y018416D02*
X006312Y018416D01*
X006312Y018318D02*
X006492Y018318D01*
X006492Y018219D02*
X006312Y018219D01*
X006312Y018121D02*
X006492Y018121D01*
X006492Y018022D02*
X006312Y018022D01*
X006312Y017924D02*
X006492Y017924D01*
X006492Y017825D02*
X006312Y017825D01*
X006312Y017727D02*
X006492Y017727D01*
X006492Y017628D02*
X006312Y017628D01*
X006312Y017530D02*
X006492Y017530D01*
X006492Y017431D02*
X006312Y017431D01*
X006312Y017333D02*
X006492Y017333D01*
X005802Y015407D02*
X005652Y015257D01*
X005652Y012307D01*
X005502Y012157D01*
X006812Y012110D02*
X007112Y012110D01*
X007112Y012208D02*
X006812Y012208D01*
X006812Y012307D02*
X007130Y012307D01*
X007171Y012405D02*
X006812Y012405D01*
X006812Y012504D02*
X007236Y012504D01*
X007334Y012602D02*
X006812Y012602D01*
X006812Y012701D02*
X007345Y012701D01*
X007246Y012800D02*
X006812Y012800D01*
X006812Y012898D02*
X007175Y012898D01*
X007134Y012997D02*
X006812Y012997D01*
X006812Y013095D02*
X007112Y013095D01*
X007112Y013194D02*
X006812Y013194D01*
X006812Y013292D02*
X007124Y013292D01*
X007165Y013391D02*
X006812Y013391D01*
X006812Y013489D02*
X007221Y013489D01*
X007320Y013588D02*
X006812Y013588D01*
X006812Y013686D02*
X007520Y013686D01*
X007785Y013686D02*
X007964Y013686D01*
X008063Y013785D02*
X006812Y013785D01*
X006812Y013884D02*
X008161Y013884D01*
X008260Y013982D02*
X006812Y013982D01*
X006812Y014081D02*
X008359Y014081D01*
X007128Y012011D02*
X006812Y012011D01*
X006812Y011913D02*
X007169Y011913D01*
X007231Y011814D02*
X006812Y011814D01*
X006812Y011716D02*
X007330Y011716D01*
X007545Y011617D02*
X006910Y011617D01*
X007206Y011321D02*
X007469Y011321D01*
X007373Y011223D02*
X007304Y011223D01*
X007702Y011007D02*
X007852Y011157D01*
X013952Y011157D01*
X013975Y011716D02*
X014330Y011716D01*
X014231Y011814D02*
X014073Y011814D01*
X014136Y011913D02*
X014169Y011913D01*
X013330Y011716D02*
X012975Y011716D01*
X013073Y011814D02*
X013231Y011814D01*
X013169Y011913D02*
X013136Y011913D01*
X012330Y011716D02*
X011975Y011716D01*
X012073Y011814D02*
X012231Y011814D01*
X012169Y011913D02*
X012136Y011913D01*
X011330Y011716D02*
X010975Y011716D01*
X011073Y011814D02*
X011231Y011814D01*
X011169Y011913D02*
X011136Y011913D01*
X010330Y011716D02*
X009975Y011716D01*
X010073Y011814D02*
X010231Y011814D01*
X010169Y011913D02*
X010136Y011913D01*
X009330Y011716D02*
X008975Y011716D01*
X009073Y011814D02*
X009231Y011814D01*
X009169Y011913D02*
X009136Y011913D01*
X008330Y011716D02*
X007975Y011716D01*
X007958Y011699D02*
X008110Y011851D01*
X008152Y011953D01*
X008136Y011913D02*
X008169Y011913D01*
X008231Y011814D02*
X008073Y011814D01*
X007958Y011699D02*
X007760Y011617D01*
X006194Y009153D02*
X004412Y009153D01*
X004412Y009055D02*
X006235Y009055D01*
X006301Y008956D02*
X004412Y008956D01*
X004412Y008858D02*
X006414Y008858D01*
X005392Y014081D02*
X005206Y014081D01*
X005304Y014179D02*
X005392Y014179D01*
X014502Y021157D02*
X014552Y021207D01*
X014552Y021757D01*
X009033Y031917D02*
X007866Y031917D01*
X007965Y032015D02*
X009131Y032015D01*
X009230Y032114D02*
X008029Y032114D01*
X008070Y032213D02*
X009328Y032213D01*
X007087Y031621D02*
X004412Y031621D01*
X004412Y031523D02*
X006989Y031523D01*
X006890Y031424D02*
X004412Y031424D01*
X004412Y031326D02*
X005241Y031326D01*
X005143Y031227D02*
X004412Y031227D01*
X004412Y031129D02*
X005044Y031129D01*
X004946Y031030D02*
X004412Y031030D01*
X004412Y030931D02*
X004847Y030931D01*
X004749Y030833D02*
X004412Y030833D01*
X004412Y030734D02*
X004650Y030734D01*
X004412Y034282D02*
X013242Y034282D01*
X013242Y034381D02*
X004412Y034381D01*
X004412Y034479D02*
X013242Y034479D01*
X013242Y034578D02*
X004412Y034578D01*
X004412Y034676D02*
X013242Y034676D01*
X013217Y034775D02*
X004412Y034775D01*
X004412Y034873D02*
X013118Y034873D01*
X013020Y034972D02*
X004412Y034972D01*
X004412Y035070D02*
X012921Y035070D01*
X012807Y035169D02*
X004412Y035169D01*
X004412Y035267D02*
X012708Y035267D01*
X012610Y035366D02*
X004412Y035366D01*
X004412Y035464D02*
X012511Y035464D01*
X012413Y035563D02*
X004412Y035563D01*
X004412Y035662D02*
X012314Y035662D01*
X012216Y035760D02*
X004412Y035760D01*
X004412Y035859D02*
X012117Y035859D01*
X012019Y035957D02*
X004412Y035957D01*
X004412Y036056D02*
X011920Y036056D01*
X011837Y036154D02*
X004412Y036154D01*
X004412Y036253D02*
X011739Y036253D01*
X011692Y036351D02*
X004412Y036351D01*
X004412Y036450D02*
X011692Y036450D01*
X011692Y036548D02*
X011493Y036548D01*
X011672Y036647D02*
X011692Y036647D01*
X011658Y037435D02*
X011692Y037435D01*
X011692Y037534D02*
X011458Y037534D01*
X011692Y037632D02*
X009565Y037632D01*
X009549Y037594D02*
X009626Y037780D01*
X009626Y037859D01*
X009626Y038060D01*
X009626Y038178D01*
X009626Y038296D01*
X009619Y038314D01*
X009626Y038331D01*
X009626Y038449D01*
X009626Y038567D01*
X009626Y038768D01*
X009626Y038847D01*
X009549Y039033D01*
X009407Y039175D01*
X009221Y039252D01*
X009020Y039252D01*
X008834Y039175D01*
X008692Y039033D01*
X008615Y038847D01*
X008615Y038768D01*
X008615Y038567D01*
X008615Y038449D01*
X008615Y038331D01*
X008623Y038314D01*
X008615Y038296D01*
X008615Y038178D01*
X008615Y038060D01*
X008615Y037859D01*
X008615Y037780D01*
X008692Y037594D01*
X008834Y037452D01*
X009020Y037375D01*
X009221Y037375D01*
X009407Y037452D01*
X009549Y037594D01*
X009489Y037534D02*
X010287Y037534D01*
X010087Y037435D02*
X009366Y037435D01*
X009605Y037731D02*
X011692Y037731D01*
X011692Y037830D02*
X009626Y037830D01*
X009626Y037928D02*
X011692Y037928D01*
X011692Y038027D02*
X009626Y038027D01*
X009626Y038125D02*
X011692Y038125D01*
X011692Y038224D02*
X009626Y038224D01*
X009622Y038322D02*
X011692Y038322D01*
X011692Y038421D02*
X009626Y038421D01*
X009626Y038519D02*
X011692Y038519D01*
X011692Y038618D02*
X009626Y038618D01*
X009626Y038716D02*
X011692Y038716D01*
X011692Y038815D02*
X009626Y038815D01*
X009598Y038914D02*
X010363Y038914D01*
X010188Y039012D02*
X009557Y039012D01*
X009471Y039111D02*
X010090Y039111D01*
X010049Y039209D02*
X009324Y039209D01*
X008917Y039209D02*
X004412Y039209D01*
X004412Y039111D02*
X008770Y039111D01*
X008684Y039012D02*
X004412Y039012D01*
X004412Y038914D02*
X008643Y038914D01*
X008615Y038815D02*
X004412Y038815D01*
X004412Y038716D02*
X008615Y038716D01*
X008615Y038618D02*
X004412Y038618D01*
X004412Y038519D02*
X008615Y038519D01*
X008615Y038421D02*
X004412Y038421D01*
X004412Y038322D02*
X008619Y038322D01*
X008615Y038224D02*
X004412Y038224D01*
X004412Y038125D02*
X005161Y038125D01*
X005261Y038167D02*
X005000Y038059D01*
X004801Y037859D01*
X004692Y037598D01*
X004692Y037316D01*
X004801Y037055D01*
X005000Y036855D01*
X005261Y036747D01*
X005544Y036747D01*
X005805Y036855D01*
X006004Y037055D01*
X006112Y037316D01*
X006112Y037598D01*
X006004Y037859D01*
X005805Y038059D01*
X005544Y038167D01*
X005261Y038167D01*
X004968Y038027D02*
X004412Y038027D01*
X004412Y037928D02*
X004870Y037928D01*
X004788Y037830D02*
X004412Y037830D01*
X004412Y037731D02*
X004748Y037731D01*
X004707Y037632D02*
X004412Y037632D01*
X004412Y037534D02*
X004692Y037534D01*
X004692Y037435D02*
X004412Y037435D01*
X004412Y037337D02*
X004692Y037337D01*
X004724Y037238D02*
X004412Y037238D01*
X004412Y037140D02*
X004765Y037140D01*
X004814Y037041D02*
X004412Y037041D01*
X004412Y036943D02*
X004913Y036943D01*
X005026Y036844D02*
X004412Y036844D01*
X004412Y036746D02*
X009974Y036746D01*
X009932Y036844D02*
X007778Y036844D01*
X007805Y036855D02*
X008004Y037055D01*
X008112Y037316D01*
X008112Y037598D01*
X008004Y037859D01*
X007805Y038059D01*
X007544Y038167D01*
X007261Y038167D01*
X007000Y038059D01*
X006801Y037859D01*
X006692Y037598D01*
X006692Y037316D01*
X006801Y037055D01*
X007000Y036855D01*
X007261Y036747D01*
X007544Y036747D01*
X007805Y036855D01*
X007892Y036943D02*
X009895Y036943D01*
X009895Y037041D02*
X007991Y037041D01*
X008040Y037140D02*
X009897Y037140D01*
X009938Y037238D02*
X008080Y037238D01*
X008112Y037337D02*
X009988Y037337D01*
X010073Y036647D02*
X004412Y036647D01*
X004412Y036548D02*
X010252Y036548D01*
X008875Y037435D02*
X008112Y037435D01*
X008112Y037534D02*
X008753Y037534D01*
X008676Y037632D02*
X008098Y037632D01*
X008057Y037731D02*
X008636Y037731D01*
X008615Y037830D02*
X008017Y037830D01*
X007935Y037928D02*
X008615Y037928D01*
X008615Y038027D02*
X007837Y038027D01*
X007644Y038125D02*
X008615Y038125D01*
X009209Y039820D02*
X009507Y039697D01*
X009829Y039697D01*
X010127Y039820D01*
X010355Y040048D01*
X010478Y040346D01*
X010478Y040668D01*
X010355Y040966D01*
X010127Y041194D01*
X009829Y041317D01*
X009507Y041317D01*
X009209Y041194D01*
X008981Y040966D01*
X008858Y040668D01*
X008858Y040346D01*
X008981Y040048D01*
X009209Y039820D01*
X009257Y039800D02*
X004412Y039800D01*
X004412Y039702D02*
X009495Y039702D01*
X009841Y039702D02*
X010109Y039702D01*
X010079Y039800D02*
X010208Y039800D01*
X010206Y039899D02*
X010412Y039899D01*
X010304Y039997D02*
X010837Y039997D01*
X010837Y040096D02*
X010375Y040096D01*
X010416Y040195D02*
X010837Y040195D01*
X010837Y040293D02*
X010456Y040293D01*
X010478Y040392D02*
X010837Y040392D01*
X010837Y040589D02*
X010478Y040589D01*
X010470Y040687D02*
X010837Y040687D01*
X010837Y040786D02*
X010429Y040786D01*
X010389Y040884D02*
X010837Y040884D01*
X010837Y040983D02*
X010338Y040983D01*
X010239Y041081D02*
X010837Y041081D01*
X010837Y041180D02*
X010141Y041180D01*
X009922Y041279D02*
X010926Y041279D01*
X011587Y041279D02*
X011687Y041279D01*
X011687Y041180D02*
X011587Y041180D01*
X011587Y041081D02*
X011687Y041081D01*
X011687Y040983D02*
X011587Y040983D01*
X011587Y040884D02*
X011687Y040884D01*
X011687Y040786D02*
X011587Y040786D01*
X011587Y040687D02*
X011687Y040687D01*
X011687Y040589D02*
X011587Y040589D01*
X011586Y040490D02*
X010478Y040490D01*
X010057Y039603D02*
X004412Y039603D01*
X004412Y039505D02*
X010016Y039505D01*
X010013Y039406D02*
X004412Y039406D01*
X004412Y039308D02*
X010013Y039308D01*
X009131Y039899D02*
X004412Y039899D01*
X004412Y039997D02*
X009032Y039997D01*
X008962Y040096D02*
X004412Y040096D01*
X004412Y040195D02*
X008921Y040195D01*
X008880Y040293D02*
X004412Y040293D01*
X004412Y040392D02*
X008858Y040392D01*
X008858Y040490D02*
X004412Y040490D01*
X004412Y040589D02*
X008858Y040589D01*
X008866Y040687D02*
X004412Y040687D01*
X004412Y040786D02*
X008907Y040786D01*
X008948Y040884D02*
X004412Y040884D01*
X004412Y040983D02*
X008999Y040983D01*
X009097Y041081D02*
X004412Y041081D01*
X004412Y041180D02*
X009196Y041180D01*
X009415Y041279D02*
X004412Y041279D01*
X004412Y041377D02*
X011792Y041377D01*
X011792Y041476D02*
X004412Y041476D01*
X004412Y041574D02*
X011792Y041574D01*
X011792Y041673D02*
X004412Y041673D01*
X004412Y041771D02*
X011792Y041771D01*
X011792Y041870D02*
X004412Y041870D01*
X005644Y038125D02*
X007161Y038125D01*
X006968Y038027D02*
X005837Y038027D01*
X005935Y037928D02*
X006870Y037928D01*
X006788Y037830D02*
X006017Y037830D01*
X006057Y037731D02*
X006748Y037731D01*
X006707Y037632D02*
X006098Y037632D01*
X006112Y037534D02*
X006692Y037534D01*
X006692Y037435D02*
X006112Y037435D01*
X006112Y037337D02*
X006692Y037337D01*
X006724Y037238D02*
X006080Y037238D01*
X006040Y037140D02*
X006765Y037140D01*
X006814Y037041D02*
X005991Y037041D01*
X005892Y036943D02*
X006913Y036943D01*
X007026Y036844D02*
X005778Y036844D01*
X011500Y038914D02*
X011692Y038914D01*
X011692Y039012D02*
X011675Y039012D01*
X024762Y034676D02*
X025342Y034676D01*
X025243Y034578D02*
X024762Y034578D01*
X024762Y034479D02*
X025145Y034479D01*
X025046Y034381D02*
X024762Y034381D01*
X024762Y034282D02*
X024948Y034282D01*
X024849Y034183D02*
X024762Y034183D01*
X024838Y034775D02*
X025440Y034775D01*
X025539Y034873D02*
X024936Y034873D01*
X025035Y034972D02*
X025638Y034972D01*
X025736Y035070D02*
X025134Y035070D01*
X025232Y035169D02*
X025835Y035169D01*
X025933Y035267D02*
X025331Y035267D01*
X025429Y035366D02*
X026032Y035366D01*
X026130Y035464D02*
X025528Y035464D01*
X025626Y035563D02*
X026229Y035563D01*
X026327Y035662D02*
X025725Y035662D01*
X025823Y035760D02*
X026362Y035760D01*
X026362Y035859D02*
X025922Y035859D01*
X025986Y035957D02*
X026362Y035957D01*
X026362Y036056D02*
X026085Y036056D01*
X026152Y036154D02*
X026443Y036154D01*
X026152Y036253D02*
X028892Y036253D01*
X028892Y036351D02*
X026152Y036351D01*
X026152Y036450D02*
X028892Y036450D01*
X028892Y036548D02*
X026152Y036548D01*
X026152Y036647D02*
X028892Y036647D01*
X028892Y036746D02*
X026152Y036746D01*
X026152Y036844D02*
X028892Y036844D01*
X028892Y036943D02*
X026152Y036943D01*
X026152Y037041D02*
X028892Y037041D01*
X028892Y037140D02*
X026152Y037140D01*
X026152Y037238D02*
X028892Y037238D01*
X028892Y037337D02*
X026152Y037337D01*
X026152Y037435D02*
X028892Y037435D01*
X028892Y037534D02*
X026109Y037534D01*
X026010Y037632D02*
X028892Y037632D01*
X028892Y037731D02*
X025962Y037731D01*
X025962Y037830D02*
X028892Y037830D01*
X028892Y037928D02*
X025962Y037928D01*
X025962Y038027D02*
X028892Y038027D01*
X028892Y038125D02*
X025962Y038125D01*
X025962Y038224D02*
X028892Y038224D01*
X028892Y038322D02*
X025962Y038322D01*
X025962Y038421D02*
X028892Y038421D01*
X028892Y038519D02*
X025962Y038519D01*
X025962Y038618D02*
X028892Y038618D01*
X028892Y038716D02*
X025962Y038716D01*
X025962Y038815D02*
X028892Y038815D01*
X028892Y038914D02*
X025962Y038914D01*
X025962Y039012D02*
X028892Y039012D01*
X028892Y039111D02*
X025962Y039111D01*
X025962Y039209D02*
X028892Y039209D01*
X028892Y039308D02*
X025962Y039308D01*
X025962Y039406D02*
X028892Y039406D01*
X028892Y039505D02*
X025962Y039505D01*
X025962Y039603D02*
X028892Y039603D01*
X028892Y039702D02*
X025962Y039702D01*
X025962Y039800D02*
X028892Y039800D01*
X028892Y039899D02*
X025962Y039899D01*
X025962Y039997D02*
X028892Y039997D01*
X028892Y040096D02*
X025962Y040096D01*
X025962Y040195D02*
X028892Y040195D01*
X028892Y040293D02*
X025962Y040293D01*
X025962Y040392D02*
X028892Y040392D01*
X028892Y040490D02*
X025962Y040490D01*
X025962Y040589D02*
X028892Y040589D01*
X028892Y040687D02*
X025962Y040687D01*
X025962Y040786D02*
X028892Y040786D01*
X028892Y040884D02*
X025962Y040884D01*
X025962Y040983D02*
X028892Y040983D01*
X028892Y041081D02*
X025962Y041081D01*
X025962Y041180D02*
X028892Y041180D01*
X028892Y041279D02*
X025962Y041279D01*
X025962Y041377D02*
X028892Y041377D01*
X028892Y041476D02*
X025962Y041476D01*
X025962Y041574D02*
X028892Y041574D01*
X028892Y041673D02*
X025962Y041673D01*
X025962Y041771D02*
X028892Y041771D01*
X028892Y041870D02*
X025962Y041870D01*
X027362Y036154D02*
X027718Y036154D01*
X027852Y036154D02*
X027952Y036154D01*
X027952Y036056D02*
X027852Y036056D01*
X027852Y035957D02*
X027952Y035957D01*
X027952Y035859D02*
X027852Y035859D01*
X027852Y035760D02*
X027952Y035760D01*
X027953Y035662D02*
X028892Y035662D01*
X028892Y035760D02*
X028432Y035760D01*
X028393Y035859D02*
X028892Y035859D01*
X028892Y035957D02*
X028352Y035957D01*
X028253Y036056D02*
X028892Y036056D01*
X028892Y036154D02*
X028086Y036154D01*
X027552Y036056D02*
X027442Y036056D01*
X027442Y035957D02*
X027453Y035957D01*
X027852Y035607D02*
X027852Y035187D01*
X027852Y034707D01*
X027952Y034707D01*
X027952Y035187D01*
X027952Y035607D01*
X027852Y035607D01*
X027852Y035563D02*
X027952Y035563D01*
X027952Y035464D02*
X027852Y035464D01*
X027852Y035366D02*
X027952Y035366D01*
X027952Y035267D02*
X027852Y035267D01*
X027852Y035169D02*
X027952Y035169D01*
X027952Y035070D02*
X027852Y035070D01*
X027852Y034972D02*
X027952Y034972D01*
X027952Y034873D02*
X027852Y034873D01*
X027852Y034775D02*
X027952Y034775D01*
X027953Y034676D02*
X028892Y034676D01*
X028892Y034578D02*
X028432Y034578D01*
X028429Y034544D02*
X028429Y034544D01*
X028578Y034479D02*
X028892Y034479D01*
X028892Y034381D02*
X028676Y034381D01*
X028720Y034282D02*
X028892Y034282D01*
X028892Y034183D02*
X028740Y034183D01*
X028740Y034085D02*
X028892Y034085D01*
X028892Y033986D02*
X028701Y033986D01*
X028631Y033888D02*
X028892Y033888D01*
X028892Y033789D02*
X028477Y033789D01*
X028442Y033691D02*
X028892Y033691D01*
X028892Y033592D02*
X028442Y033592D01*
X028419Y033494D02*
X028892Y033494D01*
X028892Y033395D02*
X028378Y033395D01*
X028306Y033297D02*
X028892Y033297D01*
X028892Y033198D02*
X028206Y033198D01*
X028223Y033099D02*
X028892Y033099D01*
X028892Y033001D02*
X028322Y033001D01*
X028385Y032902D02*
X028892Y032902D01*
X028892Y032804D02*
X028426Y032804D01*
X028442Y032705D02*
X028892Y032705D01*
X028892Y032607D02*
X028442Y032607D01*
X028425Y032508D02*
X028892Y032508D01*
X028892Y032410D02*
X028384Y032410D01*
X028320Y032311D02*
X028892Y032311D01*
X028892Y032213D02*
X028222Y032213D01*
X028209Y032114D02*
X028892Y032114D01*
X028892Y032015D02*
X028307Y032015D01*
X028379Y031917D02*
X028892Y031917D01*
X028892Y031818D02*
X028420Y031818D01*
X028442Y031720D02*
X028892Y031720D01*
X028892Y031621D02*
X028442Y031621D01*
X028431Y031523D02*
X028892Y031523D01*
X028892Y031424D02*
X028391Y031424D01*
X028335Y031326D02*
X028892Y031326D01*
X028892Y031227D02*
X028236Y031227D01*
X028175Y031129D02*
X028892Y031129D01*
X028892Y031030D02*
X028293Y031030D01*
X028373Y030931D02*
X028892Y030931D01*
X028892Y030833D02*
X028414Y030833D01*
X028442Y030734D02*
X028892Y030734D01*
X028892Y030636D02*
X028442Y030636D01*
X028437Y030537D02*
X028892Y030537D01*
X028892Y030439D02*
X028397Y030439D01*
X028427Y034775D02*
X028892Y034775D01*
X028892Y034873D02*
X028386Y034873D01*
X028337Y034972D02*
X028892Y034972D01*
X028892Y035070D02*
X028238Y035070D01*
X028109Y035169D02*
X028892Y035169D01*
X028892Y035267D02*
X028263Y035267D01*
X028356Y035366D02*
X028892Y035366D01*
X028892Y035464D02*
X028396Y035464D01*
X028432Y035563D02*
X028892Y035563D01*
D29*
X023082Y019727D02*
X022382Y019727D01*
X022367Y019742D01*
X022072Y019587D02*
X022922Y019587D01*
X022937Y019572D01*
X023082Y019727D02*
X023092Y019717D01*
X023082Y018727D02*
X022332Y018727D01*
X022317Y018742D01*
X022092Y018587D02*
X022922Y018587D01*
X022937Y018572D01*
X023132Y015727D02*
X022282Y015727D01*
X022267Y015742D01*
X022122Y015587D02*
X022972Y015587D01*
X022987Y015572D01*
X023132Y015727D02*
X023147Y015712D01*
D30*
X026552Y011657D02*
X026902Y011657D01*
X027702Y011857D02*
X027902Y011657D01*
X026902Y010657D02*
X026652Y010657D01*
X026902Y008657D02*
X026702Y008457D01*
D31*
X023092Y018717D02*
X023082Y018727D01*
X022092Y018587D02*
X022082Y018597D01*
X022072Y019587D02*
X022062Y019597D01*
D32*
X018452Y013357D02*
X018652Y013157D01*
X017902Y013357D02*
X017702Y013157D01*
X017652Y013157D01*
X011152Y026657D02*
X010652Y027157D01*
X008652Y029157D02*
X008252Y029557D01*
D33*
X007802Y029157D02*
X006652Y029157D01*
X007802Y029157D02*
X007952Y029007D01*
D34*
X006152Y040157D03*
X027152Y040157D03*
X027152Y004157D03*
X006152Y004157D03*
D35*
X014702Y010857D02*
X014902Y011057D01*
X020752Y011057D01*
X021452Y010357D01*
X023852Y010357D01*
X026452Y006157D02*
X024752Y004457D01*
X024752Y003957D01*
X026452Y006157D02*
X027952Y006157D01*
X028302Y006507D01*
X015152Y011507D02*
X015152Y011707D01*
X005702Y019607D02*
X005702Y023957D01*
X005752Y024007D01*
X026252Y030157D02*
X026302Y030207D01*
X026302Y031157D01*
X027902Y034657D02*
X027902Y035657D01*
D36*
X027402Y032157D02*
X026652Y032157D01*
X026302Y031807D01*
X026302Y031157D01*
X027402Y031157D01*
X027402Y032157D01*
X028802Y032157D01*
X028802Y031157D02*
X027402Y031157D01*
X024952Y016557D02*
X024502Y016557D01*
X024952Y016557D02*
X025602Y015907D01*
X025602Y015357D01*
D37*
X022152Y031207D02*
X022152Y040507D01*
X020184Y040507D02*
X020184Y037188D01*
X017821Y037188D02*
X017821Y040507D01*
X015852Y040507D02*
X015852Y031207D01*
X013502Y036807D02*
X013884Y037188D01*
X013884Y040507D01*
X024121Y040507D02*
X024121Y037188D01*
X024502Y036807D01*
D38*
X020184Y037188D02*
X019802Y036807D01*
X018202Y036807D02*
X017821Y037188D01*
M02*
