G75*
G70*
%OFA0B0*%
%FSLAX24Y24*%
%IPPOS*%
%LPD*%
%AMOC8*
5,1,8,0,0,1.08239X$1,22.5*
%
%ADD10R,0.0700X0.0700*%
%ADD11C,0.0700*%
%ADD12C,0.0926*%
%ADD13C,0.0631*%
%ADD14C,0.1300*%
%ADD15C,0.0571*%
%ADD16C,0.0690*%
%ADD17C,0.0512*%
%ADD18R,0.0740X0.0740*%
%ADD19C,0.0740*%
%ADD20C,0.1290*%
%ADD21C,0.1040*%
%ADD22R,0.1240X0.1240*%
%ADD23C,0.1240*%
%ADD24C,0.0434*%
%ADD25R,0.0571X0.0571*%
%ADD26R,0.0340X0.0440*%
%ADD27C,0.0100*%
%ADD28C,0.0355*%
%ADD29C,0.2520*%
D10*
X019652Y012157D03*
X022652Y012157D03*
X026902Y012657D03*
X019652Y026157D03*
X026902Y035657D03*
X004652Y030157D03*
D11*
X005652Y030157D03*
X006652Y030157D03*
X007652Y030157D03*
X008652Y030157D03*
X009652Y030157D03*
X009652Y027157D03*
X009652Y026157D03*
X008652Y026157D03*
X008652Y027157D03*
X007652Y027157D03*
X007652Y026157D03*
X010652Y026157D03*
X010652Y027157D03*
X011652Y027157D03*
X011652Y026157D03*
X012652Y026157D03*
X012652Y027157D03*
X013652Y027157D03*
X013652Y026157D03*
X014652Y026157D03*
X014652Y027157D03*
X015652Y027157D03*
X015652Y026157D03*
X016652Y026157D03*
X016652Y027157D03*
X017652Y027157D03*
X017652Y026157D03*
X018652Y026157D03*
X018652Y027157D03*
X019652Y027157D03*
X022652Y027157D03*
X022652Y026157D03*
X022652Y025157D03*
X022652Y024157D03*
X022652Y023157D03*
X022652Y022157D03*
X022652Y021157D03*
X022652Y020157D03*
X022652Y019157D03*
X022652Y018157D03*
X022652Y017157D03*
X022652Y016157D03*
X022652Y015157D03*
X022652Y014157D03*
X022652Y013157D03*
X019652Y013157D03*
X018652Y013157D03*
X018652Y012157D03*
X017652Y012157D03*
X017652Y013157D03*
X016652Y013157D03*
X016652Y012157D03*
X015652Y012157D03*
X015652Y013157D03*
X014652Y013157D03*
X014652Y012157D03*
X013652Y012157D03*
X013652Y013157D03*
X012652Y013157D03*
X012652Y012157D03*
X011652Y012157D03*
X011652Y013157D03*
X010652Y013157D03*
X010652Y012157D03*
X009652Y012157D03*
X009652Y013157D03*
X008652Y013157D03*
X008652Y012157D03*
X007652Y012157D03*
X007652Y013157D03*
X026902Y011657D03*
X026902Y010657D03*
X026902Y009657D03*
X026902Y008657D03*
X027902Y008657D03*
X027902Y009657D03*
X027902Y010657D03*
X027902Y011657D03*
X027902Y012657D03*
X027902Y016657D03*
X027902Y017657D03*
X027902Y018657D03*
X027902Y019657D03*
X027902Y020657D03*
X027902Y021657D03*
X026902Y021657D03*
X026902Y020657D03*
X026902Y019657D03*
X026902Y018657D03*
X026902Y017657D03*
X026902Y016657D03*
X026902Y022657D03*
X026902Y023657D03*
X026902Y024657D03*
X026902Y025657D03*
X026902Y026657D03*
X026902Y027657D03*
X026902Y028657D03*
X026902Y029657D03*
X026902Y030657D03*
X026902Y031657D03*
X026902Y032657D03*
X026902Y033657D03*
X026902Y034657D03*
X027902Y034657D03*
X027902Y035657D03*
X027902Y033657D03*
X027902Y032657D03*
X027902Y031657D03*
X027902Y030657D03*
X027902Y029657D03*
X027902Y028657D03*
X027902Y027657D03*
X027902Y026657D03*
X027902Y025657D03*
X027902Y024657D03*
X027902Y023657D03*
X027902Y022657D03*
D12*
X024533Y009686D03*
X024533Y006930D03*
X022289Y006930D03*
X022289Y009686D03*
D13*
X023411Y009489D03*
X023411Y008701D03*
X023411Y007914D03*
X023411Y007127D03*
X011345Y037034D03*
X011227Y037034D03*
X011109Y037034D03*
X010991Y037034D03*
X010873Y037034D03*
X010754Y037034D03*
X010636Y037034D03*
X010518Y037034D03*
X010400Y037034D03*
X009121Y037880D03*
X009121Y037959D03*
X009121Y038077D03*
X009121Y038195D03*
X009121Y038314D03*
X009121Y038432D03*
X009121Y038550D03*
X009121Y038668D03*
X009121Y038747D03*
X010518Y039396D03*
X010636Y039396D03*
X010754Y039396D03*
X010873Y039396D03*
X010991Y039396D03*
X011109Y039396D03*
X011227Y039396D03*
X011345Y039396D03*
D14*
X013352Y006457D03*
X016052Y006457D03*
X020552Y006457D03*
X008852Y006457D03*
D15*
X009349Y009095D03*
X009849Y010095D03*
X010349Y009095D03*
X010849Y010095D03*
X011349Y009095D03*
X011849Y010095D03*
X012349Y009095D03*
X012849Y010095D03*
X016549Y009095D03*
X017049Y010095D03*
X017549Y009095D03*
X018049Y010095D03*
X018549Y009095D03*
X019049Y010095D03*
X019549Y009095D03*
X020049Y010095D03*
X006652Y009263D03*
D16*
X008500Y004587D03*
X009500Y004587D03*
X012705Y004587D03*
X013705Y004587D03*
X015700Y004587D03*
X016700Y004587D03*
X019905Y004587D03*
X020905Y004587D03*
D17*
X021452Y007441D03*
X021452Y007520D03*
X021452Y007599D03*
X021452Y007677D03*
X021452Y007756D03*
X021452Y007835D03*
X015153Y007835D03*
X015153Y007756D03*
X015153Y007677D03*
X015153Y007599D03*
X015153Y007520D03*
X015153Y007441D03*
X014252Y007441D03*
X014252Y007520D03*
X014252Y007599D03*
X014252Y007677D03*
X014252Y007756D03*
X014252Y007835D03*
X007953Y007835D03*
X007953Y007756D03*
X007953Y007677D03*
X007953Y007599D03*
X007953Y007520D03*
X007953Y007441D03*
D18*
X004652Y006607D03*
X004652Y029157D03*
X008652Y029157D03*
X010652Y030157D03*
D19*
X010652Y029157D03*
X009652Y029157D03*
X011902Y029607D03*
X006652Y029157D03*
X005652Y029157D03*
X018202Y029607D03*
D20*
X015852Y031207D03*
X022152Y031207D03*
D21*
X019802Y032007D03*
X018202Y032007D03*
X018202Y036807D03*
X019802Y036807D03*
X024502Y036807D03*
X024502Y032007D03*
X013502Y032007D03*
X013502Y036807D03*
X007402Y037457D03*
X005402Y037457D03*
X005402Y032457D03*
X007402Y032457D03*
D22*
X011637Y040507D03*
X017821Y040507D03*
X024121Y040507D03*
D23*
X022152Y040507D03*
X020184Y040507D03*
X015852Y040507D03*
X013884Y040507D03*
X009668Y040507D03*
D24*
X006173Y023556D03*
X006173Y020406D03*
D25*
X006652Y010051D03*
D26*
X023802Y015407D03*
X024252Y015407D03*
X024702Y015407D03*
X026902Y015107D03*
X027352Y015107D03*
X027802Y015107D03*
X026052Y008657D03*
X025602Y008657D03*
X025152Y008657D03*
X026052Y007357D03*
X026502Y007357D03*
X026952Y007357D03*
D27*
X026727Y007549D02*
X026727Y007165D01*
X026277Y007165D02*
X026277Y007549D01*
X025827Y008465D02*
X025827Y008849D01*
X025377Y008849D02*
X025377Y008465D01*
X027127Y014915D02*
X027127Y015299D01*
X027577Y015299D02*
X027577Y014915D01*
X024477Y015215D02*
X024477Y015599D01*
X024027Y015599D02*
X024027Y015215D01*
D28*
X005452Y026857D03*
X004402Y026857D03*
D29*
X006152Y040157D03*
X027152Y040157D03*
X027152Y004157D03*
X006152Y004157D03*
M02*
