G04 #@! TF.GenerationSoftware,KiCad,Pcbnew,no-vcs-found-ddec803~58~ubuntu14.04.1*
G04 #@! TF.CreationDate,2017-06-02T15:46:54+03:00*
G04 #@! TF.ProjectId,A64-OlinuXino_Rev_D,4136342D4F6C696E7558696E6F5F5265,D*
G04 #@! TF.FileFunction,Soldermask,Bot*
G04 #@! TF.FilePolarity,Negative*
%FSLAX46Y46*%
G04 Gerber Fmt 4.6, Leading zero omitted, Abs format (unit mm)*
G04 Created by KiCad (PCBNEW no-vcs-found-ddec803~58~ubuntu14.04.1) date Fri Jun  2 15:46:54 2017*
%MOMM*%
%LPD*%
G01*
G04 APERTURE LIST*
%ADD10C,0.100000*%
%ADD11C,0.254000*%
%ADD12C,3.700000*%
%ADD13C,2.800000*%
%ADD14C,2.050000*%
%ADD15O,2.200000X1.600000*%
%ADD16C,0.700000*%
%ADD17C,2.100000*%
%ADD18R,2.501600X2.701600*%
%ADD19R,0.351600X1.401600*%
%ADD20R,1.822400X1.822400*%
%ADD21R,4.400000X4.400000*%
%ADD22R,0.351600X1.001600*%
%ADD23R,1.001600X0.351600*%
%ADD24R,1.600000X2.200000*%
%ADD25C,1.254000*%
%ADD26O,2.700000X1.700000*%
%ADD27O,3.100000X1.700000*%
%ADD28C,1.900000*%
%ADD29C,2.600000*%
%ADD30C,5.900000*%
%ADD31R,0.863600X1.117600*%
%ADD32R,0.609600X1.117600*%
%ADD33R,0.651600X0.601600*%
%ADD34R,1.001600X0.451600*%
%ADD35R,0.901600X1.051600*%
%ADD36R,0.701600X0.451600*%
%ADD37R,1.701800X1.270000*%
%ADD38R,0.601600X0.651600*%
%ADD39R,1.117600X1.117600*%
%ADD40R,1.625600X1.371600*%
%ADD41R,2.100000X2.400000*%
%ADD42R,1.101600X1.501600*%
%ADD43R,1.501600X1.101600*%
%ADD44R,2.200000X2.000000*%
%ADD45R,2.801600X1.901600*%
%ADD46R,1.371600X1.625600*%
%ADD47R,1.117600X0.863600*%
%ADD48R,1.117600X0.609600*%
%ADD49R,1.270000X1.701800*%
%ADD50R,1.625600X1.879600*%
%ADD51C,1.100000*%
%ADD52R,1.117600X1.879600*%
%ADD53R,2.301600X0.701600*%
%ADD54R,2.686000X2.178000*%
%ADD55C,1.400000*%
%ADD56R,1.601600X1.601600*%
%ADD57C,1.601600*%
%ADD58C,1.879600*%
%ADD59R,1.879600X1.879600*%
%ADD60R,1.800000X1.800000*%
%ADD61C,1.800000*%
%ADD62R,1.901600X1.901600*%
%ADD63C,1.901600*%
%ADD64R,1.699260X0.800100*%
%ADD65R,1.501140X1.300480*%
%ADD66R,1.501140X1.699260*%
%ADD67R,2.301240X1.300480*%
%ADD68O,1.601600X4.001600*%
%ADD69O,1.601600X3.701600*%
%ADD70O,3.801600X1.601600*%
%ADD71R,0.726600X0.426600*%
%ADD72R,0.726600X0.351600*%
%ADD73R,0.426600X0.726600*%
%ADD74R,0.351600X0.726600*%
%ADD75R,2.500000X2.800000*%
G04 APERTURE END LIST*
D10*
D11*
X100000000Y-37500000D02*
X100000000Y-100000000D01*
X190000000Y-37500000D02*
X100000000Y-37500000D01*
X190000000Y-100000000D02*
X190000000Y-37500000D01*
X100000000Y-100000000D02*
X190000000Y-100000000D01*
D12*
X184023000Y-77851000D03*
X184023000Y-66421000D03*
D13*
X180975000Y-79883000D03*
X180975000Y-64389000D03*
D14*
X188595000Y-78867000D03*
X186563000Y-78867000D03*
X188595000Y-65405000D03*
X186563000Y-65405000D03*
X175133000Y-77851000D03*
X177673000Y-76581000D03*
X175133000Y-75311000D03*
X177673000Y-74041000D03*
X175133000Y-72771000D03*
X177673000Y-71501000D03*
X175133000Y-70231000D03*
X177673000Y-68961000D03*
X175133000Y-67691000D03*
X177673000Y-66421000D03*
D15*
X187842000Y-53550000D03*
X184372000Y-53550000D03*
X184372000Y-60750000D03*
X187842000Y-60750000D03*
D16*
X185692000Y-55150000D03*
X185692000Y-59150000D03*
D17*
X107981000Y-78232000D03*
X101981000Y-78232000D03*
X107981000Y-92710000D03*
X101981000Y-92710000D03*
D18*
X133011000Y-95870000D03*
X119211000Y-95870000D03*
D19*
X130861000Y-93770000D03*
X130361000Y-93770000D03*
X129861000Y-93770000D03*
X129361000Y-93770000D03*
X128861000Y-93770000D03*
X128361000Y-93770000D03*
X127861000Y-93770000D03*
X127361000Y-93770000D03*
X126861000Y-93770000D03*
X126361000Y-93770000D03*
X125861000Y-93770000D03*
X125361000Y-93770000D03*
X124861000Y-93770000D03*
X124361000Y-93770000D03*
X123861000Y-93770000D03*
X123361000Y-93770000D03*
X122861000Y-93770000D03*
X122361000Y-93770000D03*
X121861000Y-93770000D03*
X121361000Y-93770000D03*
D20*
X166624000Y-67310000D03*
D21*
X166624000Y-67310000D03*
D22*
X169374000Y-63710000D03*
X168874000Y-63710000D03*
X168374000Y-63710000D03*
X167874000Y-63710000D03*
X167374000Y-63710000D03*
X166874000Y-63710000D03*
X166374000Y-63710000D03*
X165874000Y-63710000D03*
X165374000Y-63710000D03*
X164874000Y-63710000D03*
X164374000Y-63710000D03*
X163874000Y-63710000D03*
D23*
X163024000Y-64560000D03*
X163024000Y-65060000D03*
X163024000Y-65560000D03*
X163024000Y-66060000D03*
X163024000Y-66560000D03*
X163024000Y-67060000D03*
X163024000Y-67560000D03*
X163024000Y-68060000D03*
X163024000Y-68560000D03*
X163024000Y-69060000D03*
X163024000Y-69560000D03*
X163024000Y-70060000D03*
D22*
X163874000Y-70910000D03*
X164374000Y-70910000D03*
X164874000Y-70910000D03*
X165374000Y-70910000D03*
X165874000Y-70910000D03*
X166374000Y-70910000D03*
X166874000Y-70910000D03*
X167374000Y-70910000D03*
X167874000Y-70910000D03*
X168374000Y-70910000D03*
X168874000Y-70910000D03*
X169374000Y-70910000D03*
D23*
X170224000Y-70060000D03*
X170224000Y-69560000D03*
X170224000Y-69060000D03*
X170224000Y-68560000D03*
X170224000Y-68060000D03*
X170224000Y-67560000D03*
X170224000Y-67060000D03*
X170224000Y-66560000D03*
X170224000Y-66060000D03*
X170224000Y-65560000D03*
X170224000Y-65060000D03*
X170224000Y-64560000D03*
D24*
X126155000Y-59360000D03*
X126155000Y-62560000D03*
X131655000Y-62560000D03*
X131655000Y-59360000D03*
D25*
X104394000Y-39116000D03*
X104394000Y-98552000D03*
X187452000Y-98552000D03*
D26*
X101547000Y-39182000D03*
X101547000Y-53782000D03*
D27*
X107597000Y-53782000D03*
X107597000Y-39182000D03*
D20*
X165862000Y-84645500D03*
D28*
X114712000Y-65532000D03*
X112712000Y-65532000D03*
X110712000Y-65532000D03*
X108712000Y-65532000D03*
D29*
X108212000Y-68382000D03*
X108212000Y-62682000D03*
X115212000Y-68382000D03*
X115212000Y-62682000D03*
D30*
X172800000Y-96600000D03*
D31*
X179324000Y-51054000D03*
X179324000Y-52578000D03*
X176784000Y-51054000D03*
X176784000Y-52578000D03*
D32*
X178435000Y-51054000D03*
X177673000Y-51054000D03*
X178435000Y-52578000D03*
X177673000Y-52578000D03*
D33*
X133604000Y-60452000D03*
X133604000Y-61468000D03*
X111252000Y-44196000D03*
X111252000Y-45212000D03*
D34*
X173652000Y-84089000D03*
X173652000Y-83439000D03*
X173652000Y-82789000D03*
X175852000Y-82789000D03*
X175852000Y-83439000D03*
X175852000Y-84089000D03*
D35*
X174752000Y-83789000D03*
D36*
X174752000Y-82789000D03*
D31*
X143764000Y-55245000D03*
X143764000Y-56769000D03*
X141224000Y-55245000D03*
X141224000Y-56769000D03*
D32*
X142875000Y-55245000D03*
X142113000Y-55245000D03*
X142875000Y-56769000D03*
X142113000Y-56769000D03*
D37*
X159004000Y-92329000D03*
X159004000Y-92329000D03*
X159004000Y-93853000D03*
D33*
X135400000Y-84892000D03*
X135400000Y-85908000D03*
D38*
X135382000Y-83566000D03*
X134366000Y-83566000D03*
X133477000Y-83566000D03*
X132461000Y-83566000D03*
X131572000Y-83566000D03*
X130556000Y-83566000D03*
D39*
X134366000Y-91694000D03*
X136144000Y-91694000D03*
D33*
X129800000Y-91192000D03*
X129800000Y-92208000D03*
X124900000Y-91192000D03*
X124900000Y-92208000D03*
X125200000Y-82208000D03*
X125200000Y-81192000D03*
X129413000Y-75692000D03*
X129413000Y-74676000D03*
D39*
X123711000Y-68500000D03*
X125489000Y-68500000D03*
D33*
X119100000Y-81808000D03*
X119100000Y-80792000D03*
D38*
X132992000Y-85700000D03*
X134008000Y-85700000D03*
D33*
X133096000Y-91186000D03*
X133096000Y-92202000D03*
X132207000Y-91186000D03*
X132207000Y-92202000D03*
X133400000Y-70792000D03*
X133400000Y-71808000D03*
D39*
X123689000Y-91500000D03*
X121911000Y-91500000D03*
D38*
X143592000Y-75100000D03*
X144608000Y-75100000D03*
X145692000Y-75700000D03*
X146708000Y-75700000D03*
X130556000Y-76581000D03*
X129540000Y-76581000D03*
X127692000Y-70200000D03*
X128708000Y-70200000D03*
D39*
X133223000Y-68199000D03*
X131445000Y-68199000D03*
D38*
X141908000Y-75000000D03*
X140892000Y-75000000D03*
X119108000Y-78500000D03*
X118092000Y-78500000D03*
D33*
X127200000Y-89692000D03*
X127200000Y-90708000D03*
D38*
X127392000Y-68300000D03*
X128408000Y-68300000D03*
D39*
X122389000Y-68500000D03*
X120611000Y-68500000D03*
X147828000Y-86614000D03*
X147828000Y-84836000D03*
D33*
X127900000Y-74292000D03*
X127900000Y-75308000D03*
D38*
X143708000Y-76000000D03*
X142692000Y-76000000D03*
X133292000Y-75100000D03*
X134308000Y-75100000D03*
D33*
X126900000Y-76108000D03*
X126900000Y-75092000D03*
D38*
X148608000Y-69200000D03*
X147592000Y-69200000D03*
X138492000Y-54700000D03*
X139508000Y-54700000D03*
D39*
X144018000Y-52705000D03*
X142240000Y-52705000D03*
D38*
X148590000Y-48641000D03*
X147574000Y-48641000D03*
D39*
X148844000Y-49911000D03*
X147066000Y-49911000D03*
X146685000Y-47371000D03*
X148463000Y-47371000D03*
X147066000Y-51435000D03*
X148844000Y-51435000D03*
D38*
X146812000Y-52705000D03*
X147828000Y-52705000D03*
X140908000Y-70500000D03*
X139892000Y-70500000D03*
D33*
X139425000Y-71317000D03*
X139425000Y-72333000D03*
D38*
X138108000Y-72500000D03*
X137092000Y-72500000D03*
D39*
X136398000Y-69977000D03*
X134620000Y-69977000D03*
X134620000Y-65786000D03*
X136398000Y-65786000D03*
X136398000Y-68580000D03*
X134620000Y-68580000D03*
X134620000Y-67183000D03*
X136398000Y-67183000D03*
X134620000Y-71374000D03*
X136398000Y-71374000D03*
X141050000Y-71586000D03*
X141050000Y-73364000D03*
D40*
X116840000Y-85979000D03*
X116840000Y-88011000D03*
D33*
X179959000Y-61087000D03*
X179959000Y-60071000D03*
X144625000Y-66442000D03*
X144625000Y-67458000D03*
D38*
X143792000Y-68500000D03*
X144808000Y-68500000D03*
D33*
X147900000Y-70192000D03*
X147900000Y-71208000D03*
X142700000Y-68908000D03*
X142700000Y-67892000D03*
D38*
X148608000Y-68300000D03*
X147592000Y-68300000D03*
D33*
X148800000Y-71208000D03*
X148800000Y-70192000D03*
D39*
X145542000Y-59309000D03*
X143764000Y-59309000D03*
D33*
X142600000Y-70808000D03*
X142600000Y-69792000D03*
D40*
X180467000Y-90043000D03*
X180467000Y-92075000D03*
X178435000Y-90043000D03*
X178435000Y-92075000D03*
D39*
X147320000Y-55880000D03*
X145542000Y-55880000D03*
X169799000Y-84709000D03*
X168021000Y-84709000D03*
D38*
X148492000Y-77400000D03*
X149508000Y-77400000D03*
D39*
X158242000Y-80264000D03*
X160020000Y-80264000D03*
X163576000Y-82931000D03*
X161798000Y-82931000D03*
D38*
X153289000Y-79756000D03*
X152273000Y-79756000D03*
D39*
X169799000Y-86360000D03*
X168021000Y-86360000D03*
D38*
X153289000Y-78867000D03*
X152273000Y-78867000D03*
D33*
X149200000Y-74692000D03*
X149200000Y-75708000D03*
D39*
X165862000Y-86741000D03*
X165862000Y-88519000D03*
D38*
X148492000Y-78700000D03*
X149508000Y-78700000D03*
D39*
X177673000Y-84963000D03*
X179451000Y-84963000D03*
X151765000Y-82804000D03*
X151765000Y-81026000D03*
X146939000Y-80899000D03*
X148717000Y-80899000D03*
X164211000Y-86741000D03*
X164211000Y-88519000D03*
X172466000Y-80772000D03*
X172466000Y-78994000D03*
X148336000Y-82423000D03*
X150114000Y-82423000D03*
X162687000Y-88519000D03*
X162687000Y-86741000D03*
X160274000Y-89408000D03*
X158496000Y-89408000D03*
X169164000Y-90551000D03*
X167386000Y-90551000D03*
X166624000Y-75946000D03*
X166624000Y-77724000D03*
D33*
X142200000Y-73408000D03*
X142200000Y-72392000D03*
D38*
X184277000Y-47625000D03*
X185293000Y-47625000D03*
D39*
X165862000Y-82677000D03*
X165862000Y-80899000D03*
D33*
X144900000Y-71908000D03*
X144900000Y-70892000D03*
D39*
X158242000Y-82169000D03*
X160020000Y-82169000D03*
X158115000Y-78105000D03*
X158115000Y-76327000D03*
X164592000Y-80645000D03*
X162814000Y-80645000D03*
X161290000Y-77724000D03*
X161290000Y-79502000D03*
X163576000Y-75946000D03*
X163576000Y-77724000D03*
X165100000Y-75946000D03*
X165100000Y-77724000D03*
X166370000Y-79248000D03*
X168148000Y-79248000D03*
X159639000Y-78105000D03*
X159639000Y-76327000D03*
X167386000Y-80772000D03*
X169164000Y-80772000D03*
X161798000Y-84709000D03*
X163576000Y-84709000D03*
X158623000Y-85598000D03*
X156845000Y-85598000D03*
X171196000Y-76835000D03*
X171196000Y-78613000D03*
X167894000Y-82296000D03*
X169672000Y-82296000D03*
D38*
X184150000Y-51054000D03*
X185166000Y-51054000D03*
D39*
X169672000Y-75565000D03*
X169672000Y-77343000D03*
X168148000Y-75565000D03*
X168148000Y-77343000D03*
D40*
X185801000Y-85852000D03*
X185801000Y-87884000D03*
D39*
X167894000Y-87884000D03*
X169672000Y-87884000D03*
D38*
X131191000Y-57404000D03*
X130175000Y-57404000D03*
D33*
X133223000Y-64262000D03*
X133223000Y-63246000D03*
D39*
X147320000Y-57277000D03*
X145542000Y-57277000D03*
D38*
X140692000Y-68500000D03*
X141708000Y-68500000D03*
D39*
X119634000Y-64643000D03*
X117856000Y-64643000D03*
D33*
X146000000Y-67892000D03*
X146000000Y-68908000D03*
D39*
X134620000Y-64135000D03*
X136398000Y-64135000D03*
X150876000Y-62611000D03*
X152654000Y-62611000D03*
D41*
X161925000Y-96353000D03*
X161925000Y-91353000D03*
D42*
X168524000Y-96520000D03*
X164724000Y-96520000D03*
D43*
X107609640Y-44828460D03*
X109819440Y-45783500D03*
X109819440Y-43881040D03*
X164378640Y-93596460D03*
X166588440Y-94551500D03*
X166588440Y-92649040D03*
D44*
X104521000Y-45215000D03*
X104521000Y-42415000D03*
D45*
X178943000Y-94193000D03*
X178943000Y-98593000D03*
D40*
X146050000Y-45593000D03*
X148082000Y-45593000D03*
D46*
X118745000Y-85979000D03*
X118745000Y-88011000D03*
D37*
X152146000Y-51562000D03*
X152146000Y-51562000D03*
X152146000Y-53086000D03*
D38*
X127092000Y-72500000D03*
X128108000Y-72500000D03*
D33*
X140843000Y-83058000D03*
X140843000Y-82042000D03*
X139954000Y-83058000D03*
X139954000Y-82042000D03*
D38*
X169037000Y-51435000D03*
X168021000Y-51435000D03*
D33*
X169799000Y-54864000D03*
X169799000Y-53848000D03*
D38*
X138938000Y-64135000D03*
X137922000Y-64135000D03*
X151638000Y-73152000D03*
X152654000Y-73152000D03*
D47*
X141338000Y-45230000D03*
X142862000Y-45230000D03*
X141338000Y-47770000D03*
X142862000Y-47770000D03*
D48*
X141338000Y-46119000D03*
X141338000Y-46881000D03*
X142862000Y-46119000D03*
X142862000Y-46881000D03*
D31*
X120015000Y-91313000D03*
X120015000Y-92837000D03*
X117475000Y-91313000D03*
X117475000Y-92837000D03*
D32*
X119126000Y-91313000D03*
X118364000Y-91313000D03*
X119126000Y-92837000D03*
X118364000Y-92837000D03*
D31*
X175006000Y-51054000D03*
X175006000Y-52578000D03*
X172466000Y-51054000D03*
X172466000Y-52578000D03*
D32*
X174117000Y-51054000D03*
X173355000Y-51054000D03*
X174117000Y-52578000D03*
X173355000Y-52578000D03*
D38*
X184023000Y-56261000D03*
X185039000Y-56261000D03*
D33*
X181864000Y-60071000D03*
X181864000Y-61087000D03*
D38*
X174498000Y-59563000D03*
X173482000Y-59563000D03*
D33*
X180975000Y-61087000D03*
X180975000Y-60071000D03*
D38*
X169799000Y-52578000D03*
X170815000Y-52578000D03*
D49*
X128397000Y-44069000D03*
X128397000Y-44069000D03*
X126873000Y-44069000D03*
D33*
X143700000Y-69592000D03*
X143700000Y-70608000D03*
X170434000Y-89662000D03*
X170434000Y-90678000D03*
X171196000Y-82804000D03*
X171196000Y-83820000D03*
D50*
X178181000Y-86868000D03*
X180975000Y-86868000D03*
D38*
X170053000Y-83566000D03*
X169037000Y-83566000D03*
D33*
X157099000Y-87884000D03*
X157099000Y-86868000D03*
X157988000Y-87884000D03*
X157988000Y-86868000D03*
D38*
X188087000Y-47625000D03*
X187071000Y-47625000D03*
D33*
X158877000Y-86868000D03*
X158877000Y-87884000D03*
D38*
X188214000Y-51054000D03*
X187198000Y-51054000D03*
D33*
X158496000Y-98044000D03*
X158496000Y-99060000D03*
D38*
X115951000Y-83566000D03*
X116967000Y-83566000D03*
X115951000Y-84455000D03*
X116967000Y-84455000D03*
D33*
X154305000Y-52324000D03*
X154305000Y-51308000D03*
D38*
X138811000Y-49403000D03*
X139827000Y-49403000D03*
D33*
X140800000Y-51192000D03*
X140800000Y-52208000D03*
D38*
X135255000Y-72517000D03*
X136271000Y-72517000D03*
D33*
X120000000Y-71008000D03*
X120000000Y-69992000D03*
X118200000Y-80792000D03*
X118200000Y-81808000D03*
D38*
X118092000Y-79400000D03*
X119108000Y-79400000D03*
X128808000Y-91600000D03*
X127792000Y-91600000D03*
X125892000Y-91600000D03*
X126908000Y-91600000D03*
D47*
X151892000Y-58801000D03*
X151892000Y-57658000D03*
X151892000Y-56515000D03*
D51*
X186182000Y-51904000D03*
X186182000Y-50204000D03*
X186182000Y-48475000D03*
X186182000Y-46775000D03*
X123063000Y-63793000D03*
X123063000Y-65493000D03*
D38*
X181356000Y-56769000D03*
X182372000Y-56769000D03*
X181356000Y-57658000D03*
X182372000Y-57658000D03*
D39*
X131445000Y-66548000D03*
X133223000Y-66548000D03*
D52*
X186436000Y-81153000D03*
X182880000Y-81153000D03*
D46*
X171958000Y-62865000D03*
X173990000Y-62865000D03*
D39*
X162179000Y-58420000D03*
X162179000Y-60198000D03*
X171704000Y-57531000D03*
X171704000Y-59309000D03*
X167767000Y-56134000D03*
X165989000Y-56134000D03*
D38*
X161925000Y-61341000D03*
X162941000Y-61341000D03*
X164719000Y-61722000D03*
X165735000Y-61722000D03*
D33*
X188976000Y-80899000D03*
X188976000Y-81915000D03*
D39*
X171704000Y-61087000D03*
X173482000Y-61087000D03*
D31*
X158242000Y-74676000D03*
X158242000Y-73152000D03*
X160782000Y-74676000D03*
X160782000Y-73152000D03*
D32*
X159131000Y-74676000D03*
X159893000Y-74676000D03*
X159131000Y-73152000D03*
X159893000Y-73152000D03*
D38*
X161925000Y-62357000D03*
X162941000Y-62357000D03*
D33*
X171450000Y-71755000D03*
X171450000Y-70739000D03*
X149733000Y-47371000D03*
X149733000Y-46355000D03*
D38*
X160274000Y-45974000D03*
X161290000Y-45974000D03*
X160274000Y-48260000D03*
X161290000Y-48260000D03*
X160274000Y-47371000D03*
X161290000Y-47371000D03*
D33*
X155194000Y-51308000D03*
X155194000Y-52324000D03*
D53*
X158302000Y-45593000D03*
X158302000Y-46863000D03*
X158302000Y-48133000D03*
X158302000Y-49403000D03*
X151832000Y-49403000D03*
X151832000Y-48133000D03*
X151832000Y-46863000D03*
X151832000Y-45593000D03*
D54*
X184912000Y-92565000D03*
X184912000Y-96919000D03*
D55*
X110744000Y-70993000D03*
X110109000Y-74549000D03*
X112649000Y-44958000D03*
X178054000Y-53975000D03*
X156972000Y-76454000D03*
X117221000Y-65913000D03*
X182118000Y-84963000D03*
X168529000Y-49022000D03*
X158623000Y-84201000D03*
D56*
X118793000Y-45720000D03*
D57*
X120793000Y-45720000D03*
X122793000Y-45720000D03*
X124793000Y-45720000D03*
D58*
X166370000Y-38989000D03*
X166370000Y-41529000D03*
X163830000Y-38989000D03*
X163830000Y-41529000D03*
X161290000Y-38989000D03*
X161290000Y-41529000D03*
X158750000Y-38989000D03*
X158750000Y-41529000D03*
X156210000Y-38989000D03*
X156210000Y-41529000D03*
X146050000Y-38989000D03*
X146050000Y-41529000D03*
X143510000Y-38989000D03*
X143510000Y-41529000D03*
X148590000Y-41529000D03*
X148590000Y-38989000D03*
X151130000Y-38989000D03*
X151130000Y-41529000D03*
X153670000Y-41529000D03*
X153670000Y-38989000D03*
X128270000Y-38989000D03*
X128270000Y-41529000D03*
X125730000Y-41529000D03*
X125730000Y-38989000D03*
X123190000Y-38989000D03*
X123190000Y-41529000D03*
D59*
X118110000Y-41529000D03*
D58*
X118110000Y-38989000D03*
X120650000Y-41529000D03*
X120650000Y-38989000D03*
X130810000Y-41529000D03*
X130810000Y-38989000D03*
X133350000Y-41529000D03*
X133350000Y-38989000D03*
X135890000Y-41529000D03*
X135890000Y-38989000D03*
X138430000Y-41529000D03*
X138430000Y-38989000D03*
X140970000Y-41529000D03*
X140970000Y-38989000D03*
X156210000Y-96139000D03*
X156210000Y-98679000D03*
X153670000Y-98679000D03*
X153670000Y-96139000D03*
X151130000Y-96139000D03*
X151130000Y-98679000D03*
D59*
X146050000Y-98679000D03*
D58*
X146050000Y-96139000D03*
X148590000Y-98679000D03*
X148590000Y-96139000D03*
D59*
X162560000Y-98679000D03*
D58*
X165100000Y-98679000D03*
X167640000Y-98679000D03*
D60*
X187982860Y-87749380D03*
D61*
X187980320Y-85737700D03*
D62*
X157988000Y-65024000D03*
D63*
X160528000Y-65024000D03*
D64*
X114307620Y-82334100D03*
X114307620Y-83433920D03*
X114307620Y-84533740D03*
X114307620Y-85631020D03*
X114307620Y-86730840D03*
X114307620Y-87830660D03*
X114307620Y-88930480D03*
X114307620Y-90030300D03*
X114307620Y-91130120D03*
D65*
X113682780Y-92331540D03*
D66*
X113682780Y-77734160D03*
D67*
X104084120Y-92331540D03*
X104084120Y-76832460D03*
D55*
X103682800Y-81534000D03*
X103682800Y-89535000D03*
D38*
X112014000Y-73914000D03*
X113030000Y-73914000D03*
X112014000Y-74803000D03*
X113030000Y-74803000D03*
D68*
X182441000Y-95174000D03*
D69*
X188441000Y-95324000D03*
D70*
X185695000Y-90724000D03*
D30*
X114500000Y-96600000D03*
X113000000Y-40900000D03*
D12*
X171300000Y-40900000D03*
D33*
X166370000Y-43561000D03*
X166370000Y-44577000D03*
X165481000Y-43561000D03*
X165481000Y-44577000D03*
D31*
X167132000Y-47625000D03*
X168275000Y-47625000D03*
X169418000Y-47625000D03*
D39*
X164592000Y-94361000D03*
X166370000Y-94361000D03*
D71*
X135987500Y-47390000D03*
X137012500Y-47390000D03*
D72*
X135987500Y-46850000D03*
X137012500Y-46850000D03*
X135987500Y-46350000D03*
X137012500Y-46350000D03*
D71*
X135987500Y-45810000D03*
X137012500Y-45810000D03*
D73*
X135354000Y-50287500D03*
X135354000Y-51312500D03*
D74*
X135894000Y-50287500D03*
X135894000Y-51312500D03*
X136394000Y-50287500D03*
X136394000Y-51312500D03*
D73*
X136934000Y-50287500D03*
X136934000Y-51312500D03*
D71*
X143012500Y-49610000D03*
X141987500Y-49610000D03*
D72*
X143012500Y-50150000D03*
X141987500Y-50150000D03*
X143012500Y-50650000D03*
X141987500Y-50650000D03*
D71*
X143012500Y-51190000D03*
X141987500Y-51190000D03*
D75*
X169617000Y-58801000D03*
X165917000Y-58801000D03*
M02*
