M48
;DRILL file {KiCad 5.0.0-rc2-unknown-4959f91~65~ubuntu16.04.1} date Mon Jun 18 15:39:51 2018
;FORMAT={-:-/ absolute / inch / decimal}
FMAT,2
INCH,TZ
T1C0.0157
T2C0.0236
%
G90
G05
M72
T1
X2.855Y-3.775
X2.88Y-3.49
X2.88Y-3.9
X2.89Y-3.615
X2.9141Y-3.1377
X2.9322Y-3.2733
X2.9335Y-4.1373
X2.935Y-3.7217
X2.99Y-3.1467
X2.9989Y-3.39
X2.9989Y-3.42
X3.075Y-3.375
X3.09Y-4.29
X3.0947Y-3.3553
X3.105Y-3.665
X3.105Y-3.695
X3.1101Y-3.4587
X3.1133Y-3.2258
X3.1134Y-3.5367
X3.1262Y-3.2
X3.14Y-4.285
X3.1673Y-4.3133
X3.1688Y-3.269
X3.205Y-2.565
X3.25Y-3.105
X3.265Y-4.06
X3.3249Y-4.255
X3.35Y-4.035
X3.36Y-4.25
X3.3697Y-3.5364
X3.3862Y-3.23
X3.415Y-3.955
X3.43Y-3.09
X3.435Y-3.29
X3.445Y-2.81
X3.4516Y-3.9561
X3.475Y-3.615
X3.4888Y-3.9574
X3.4894Y-3.9957
X3.505Y-3.215
X3.5097Y-2.8124
X3.5107Y-2.7767
X3.515Y-3.575
X3.55Y-3.175
X3.555Y-3.615
X3.5801Y-2.6915
X3.585Y-4.42
X3.59Y-3.155
X3.5917Y-3.4467
X3.595Y-3.485
X3.5951Y-3.5331
X3.6Y-2.59
X3.61Y-4.035
X3.6142Y-2.7683
X3.615Y-2.715
X3.6163Y-3.5615
X3.625Y-4.42
X3.6286Y-3.5948
X3.6293Y-3.4991
X3.6299Y-3.1594
X3.6345Y-3.1945
X3.64Y-2.59
X3.645Y-2.99
X3.6492Y-4.0583
X3.6543Y-2.7575
X3.6647Y-3.4987
X3.6671Y-3.5878
X3.6713Y-2.5617
X3.68Y-4.2117
X3.6815Y-3.6443
X3.695Y-4.585
X3.7001Y-3.4987
X3.7017Y-3.3406
X3.7023Y-3.701
X3.7033Y-3.7364
X3.705Y-2.82
X3.705Y-3.6138
X3.7055Y-2.5878
X3.715Y-2.75
X3.7176Y-3.6671
X3.723Y-3.3099
X3.725Y-4.54
X3.7323Y-2.8493
X3.7334Y-3.4864
X3.7533Y-4.585
X3.755Y-3.3251
X3.7551Y-3.7183
X3.7555Y-3.7557
X3.7774Y-3.2956
X3.78Y-4.54
X3.7907Y-3.7596
X3.8Y-3.7942
X3.8066Y-4.585
X3.8067Y-3.6916
X3.8084Y-3.3493
X3.81Y-4.795
X3.8293Y-3.6643
X3.8304Y-3.3119
X3.8352Y-3.7981
X3.8354Y-4.6199
X3.8504Y-4.795
X3.8625Y-3.3367
X3.8708Y-4.6243
X3.8734Y-3.8099
X3.8805Y-4.5845
X3.8838Y-3.3084
X3.8904Y-4.795
X3.9046Y-3.7873
X3.9105Y-3.62
X3.9151Y-4.5921
X3.9158Y-3.3394
X3.93Y-4.795
X3.9312Y-3.8198
X3.9371Y-3.311
X3.9376Y-3.5929
X3.9447Y-4.5448
X3.9552Y-3.5432
X3.9576Y-4.5853
X3.9579Y-3.7963
X3.9691Y-3.3407
X3.97Y-4.7953
X3.9707Y-3.4616
X3.9731Y-3.4985
X3.9845Y-3.8275
X3.9904Y-3.3124
X3.998Y-4.5453
X4.0109Y-4.5927
X4.0112Y-3.8039
X4.0224Y-3.3413
X4.0378Y-3.828
X4.044Y-3.3132
X4.0446Y-3.5887
X4.0513Y-4.5514
X4.0664Y-4.5986
X4.07Y-3.705
X4.0701Y-3.6133
X4.0711Y-3.8158
X4.0758Y-3.3351
X4.0843Y-3.5362
X4.095Y-3.86
X4.1Y-3.585
X4.1Y-3.735
X4.1023Y-3.3114
X4.1225Y-4.5511
X4.1235Y-4.6046
X4.125Y-3.84
X4.1295Y-3.3342
X4.1524Y-4.6251
X4.1533Y-3.8708
X4.1556Y-3.3097
X4.165Y-3.9353
X4.175Y-3.9
X4.1758Y-4.5492
X4.1842Y-3.3306
X4.2062Y-4.5682
X4.2125Y-3.3092
X4.2135Y-4.6315
X4.2245Y-3.8623
X4.2391Y-3.3474
X4.2462Y-3.8928
X4.2609Y-4.5491
X4.2658Y-3.3222
X4.2696Y-4.46
X4.275Y-4.585
X4.2778Y-3.8612
X4.2887Y-4.5213
X4.2924Y-3.3504
X4.2996Y-3.8891
X4.305Y-4.46
X4.315Y-2.75
X4.3191Y-3.3252
X4.3311Y-3.8607
X4.3441Y-4.46
X4.3457Y-3.3512
X4.3566Y-3.8853
X4.3744Y-3.3304
X4.3808Y-4.4588
X4.3844Y-3.8593
X4.4036Y-4.1367
X4.4043Y-3.3494
X4.4108Y-2.8033
X4.412Y-3.8815
X4.4184Y-4.4611
X4.4374Y-2.995
X4.4395Y-3.3526
X4.4401Y-3.8599
X4.445Y-4.175
X4.455Y-4.46
X4.47Y-3.88
X4.4749Y-3.3496
X4.475Y-4.105
X4.5Y-3.425
X4.5Y-3.505
X4.5Y-3.86
X4.5Y-3.3217
X4.51Y-2.585
X4.5226Y-3.0163
X4.5236Y-2.9796
X4.5236Y-3.055
X4.53Y-3.615
X4.53Y-3.88
X4.5311Y-3.3455
X4.555Y-4.45
X4.5599Y-3.3248
X4.56Y-3.425
X4.56Y-3.505
X4.56Y-3.86
X4.588Y-3.3465
X4.59Y-3.88
X4.595Y-2.695
X4.6172Y-3.3264
X4.62Y-3.86
X4.635Y-4.07
X4.6448Y-3.3485
X4.65Y-3.88
X4.67Y-3.0667
X4.6738Y-3.3281
X4.68Y-3.86
X4.7099Y-3.28
X4.71Y-3.065
X4.71Y-3.345
X4.71Y-3.88
X4.731Y-4.0425
X4.7387Y-3.8591
X4.74Y-4.2833
X4.7446Y-3.3
X4.7466Y-3.0639
X4.765Y-3.27
X4.7681Y-3.8788
X4.775Y-4.265
X4.7837Y-3.1931
X4.7844Y-3.0656
X4.7956Y-3.8565
X4.8Y-4.34
X4.803Y-3.257
X4.8047Y-3.2216
X4.8229Y-3.8791
X4.83Y-3.19
X4.845Y-3.305
X4.8534Y-3.86
X4.86Y-3.34
X4.86Y-4.3558
X4.875Y-3.4621
X4.8764Y-3.4987
X4.88Y-3.8853
X4.905Y-3.9767
X4.9067Y-3.86
X4.915Y-3.65
X4.925Y-2.63
X4.925Y-3.19
X4.925Y-3.36
X4.9333Y-3.8851
X4.94Y-3.9967
X4.95Y-3.525
X4.95Y-3.6
X4.95Y-3.7
X4.96Y-3.86
X4.975Y-2.63
X4.975Y-3.19
X4.9772Y-3.01
X4.99Y-3.835
X5.005Y-3.325
X5.015Y-4.015
X5.025Y-2.63
X5.025Y-3.045
X5.025Y-3.355
X5.025Y-3.525
X5.025Y-3.6
X5.025Y-3.7
X5.025Y-3.765
X5.025Y-3.82
X5.0251Y-3.2949
X5.045Y-4.32
X5.0567Y-3.845
X5.075Y-2.63
X5.075Y-3.045
X5.075Y-3.295
X5.075Y-3.355
X5.095Y-3.52
X5.095Y-3.6
X5.095Y-3.7
X5.095Y-3.81
X5.095Y-3.94
X5.1Y-3.765
X5.125Y-2.63
X5.125Y-3.045
X5.125Y-3.305
X5.125Y-3.355
X5.125Y-3.47
X5.135Y-3.94
X5.145Y-3.765
X5.165Y-3.92
X5.175Y-3.4549
X5.175Y-2.63
X5.175Y-3.045
X5.185Y-4.3003
X5.19Y-3.585
X5.19Y-3.7
X5.19Y-3.81
X5.2Y-3.485
X5.2Y-3.94
X5.225Y-3.4549
X5.225Y-2.63
X5.225Y-3.045
X5.235Y-3.585
X5.235Y-3.8472
X5.2393Y-4.2467
X5.2493Y-3.485
X5.275Y-3.4549
X5.275Y-2.63
X5.275Y-3.045
X5.275Y-3.7
X5.275Y-3.765
X5.275Y-3.81
X5.28Y-3.585
X5.2847Y-4.2474
X5.2996Y-3.485
X5.305Y-3.9045
X5.305Y-4.3244
X5.3051Y-3.9399
X5.3247Y-3.4539
X5.3247Y-4.0317
X5.325Y-2.63
X5.325Y-3.045
X5.325Y-3.585
X5.325Y-3.725
X5.325Y-3.8
X5.325Y-4.25
X5.325Y-3.9784
X5.3489Y-3.4806
X5.355Y-3.65
X5.3605Y-3.997
X5.3608Y-3.514
X5.365Y-3.61
X5.3682Y-3.5486
X5.37Y-4.25
X5.375Y-2.63
X5.375Y-3.045
X5.375Y-3.81
X5.3792Y-4.0495
X5.3851Y-3.5799
X5.3919Y-3.6383
X5.3948Y-3.5249
X5.4025Y-3.6721
X5.405Y-3.94
X5.425Y-2.63
X5.425Y-3.045
X5.43Y-3.755
X5.435Y-3.9718
X5.4447Y-3.673
X5.445Y-4.265
X5.4617Y-3.8738
X5.47Y-3.7
X5.475Y-2.63
X5.475Y-3.045
X5.4864Y-3.6563
X5.4883Y-3.9489
X5.5Y-4.3
X5.5176Y-3.9051
X5.5244Y-3.045
X5.525Y-2.63
X5.525Y-3.005
X5.535Y-4.25
X5.5621Y-3.9855
X5.5747Y-3.0354
X5.575Y-2.63
X5.5752Y-3.
X5.5883Y-3.95
X5.625Y-2.63
X5.625Y-3.0352
X5.6251Y-3.1723
X5.6261Y-2.9984
X5.6291Y-4.2091
X5.63Y-3.875
X5.63Y-3.93
X5.63Y-3.985
X5.645Y-3.7417
X5.675Y-2.63
X5.6754Y-2.995
X5.6755Y-3.0354
X5.695Y-4.205
X5.7247Y-3.0049
X5.7248Y-3.0455
X5.725Y-2.63
X5.7748Y-2.9948
X5.7748Y-3.0552
X5.775Y-4.2295
X5.795Y-4.02
X5.805Y-3.955
X5.8232Y-3.86
X5.825Y-2.63
X5.835Y-4.165
X5.845Y-3.06
X5.8498Y-3.8344
X5.8717Y-4.7834
X5.875Y-2.945
X5.8778Y-3.8596
X5.8996Y-4.7217
X5.9012Y-3.124
X5.9045Y-3.83
X5.9149Y-3.6185
X5.9244Y-3.6724
X5.925Y-2.63
X5.9321Y-3.4702
X5.935Y-4.695
X5.9449Y-3.7914
X5.945Y-2.99
X5.9451Y-3.6
X5.9601Y-3.5646
X5.9679Y-4.6805
X5.97Y-3.47
X5.978Y-2.8917
X5.9794Y-3.5329
X5.9903Y-3.499
X6.0049Y-4.686
X6.005Y-3.06
X6.0194Y-3.3917
X6.025Y-2.61
X6.025Y-2.65
X6.0272Y-4.6585
X6.035Y-2.99
X6.0548Y-3.3882
X6.0567Y-4.6388
X6.075Y-2.865
X6.0847Y-3.5748
X6.0862Y-4.6192
X6.1008Y-3.8638
X6.116Y-4.6
X6.1201Y-3.5748
X6.1241Y-3.8372
X6.125Y-2.61
X6.125Y-2.65
X6.142Y-3.8019
X6.1433Y-4.5774
X6.1555Y-3.5748
X6.165Y-2.99
X6.175Y-2.65
X6.1764Y-4.5648
X6.1783Y-2.9476
X6.191Y-3.5744
X6.1982Y-2.9183
X6.2045Y-4.5433
X6.2224Y-2.8917
X6.225Y-2.65
X6.2265Y-3.5733
X6.23Y-3.535
X6.2353Y-4.5257
X6.25Y-2.865
X6.265Y-3.225
X6.2687Y-3.5346
X6.2688Y-4.5143
X6.2949Y-4.4903
X6.3Y-2.99
X6.3029Y-3.544
X6.31Y-3.285
X6.32Y-3.58
X6.327Y-4.4752
X6.335Y-3.06
X6.345Y-3.385
X6.365Y-4.49
X6.37Y-2.99
X6.375Y-3.575
X6.3841Y-4.4299
X6.3846Y-4.39
X6.395Y-4.465
X6.415Y-3.275
X6.42Y-4.43
X6.425Y-2.61
X6.425Y-2.65
X6.4391Y-4.39
X6.4407Y-3.5748
X6.47Y-3.455
X6.4746Y-4.39
X6.4767Y-3.4946
X6.51Y-4.3443
X6.51Y-4.39
X6.5221Y-4.0883
X6.5368Y-4.3211
X6.545Y-3.435
X6.55Y-3.135
X6.555Y-4.055
X6.5566Y-3.1719
X6.5699Y-3.5248
X6.57Y-4.125
X6.58Y-3.56
X6.589Y-3.2769
X6.5962Y-3.3838
X6.645Y-4.02
X6.6483Y-3.5695
X6.655Y-3.49
X6.705Y-3.3
X6.715Y-3.52
X6.755Y-3.685
T2
X2.795Y-3.15
X2.795Y-3.375
X2.795Y-3.55
X2.795Y-3.715
X2.795Y-3.82
X2.795Y-4.23
X2.795Y-4.325
X2.795Y-4.425
X2.795Y-4.515
X2.795Y-4.555
X2.8Y-4.785
X2.8Y-4.825
X2.845Y-3.09
X2.85Y-3.19
X2.855Y-3.28
X2.875Y-4.225
X2.875Y-4.325
X2.875Y-4.425
X2.875Y-4.515
X2.91Y-4.825
X2.91Y-4.935
X2.945Y-2.42
X2.945Y-2.525
X2.945Y-2.625
X2.945Y-2.75
X2.945Y-2.86
X2.95Y-4.875
X2.96Y-4.515
X3.Y-2.575
X3.Y-2.8
X3.Y-4.935
X3.015Y-3.785
X3.035Y-3.19
X3.035Y-4.175
X3.045Y-4.715
X3.05Y-2.86
X3.075Y-2.42
X3.075Y-2.525
X3.075Y-4.935
X3.1Y-3.895
X3.15Y-4.935
X3.16Y-2.52
X3.175Y-2.42
X3.225Y-4.935
X3.255Y-2.915
X3.295Y-2.42
X3.295Y-2.7
X3.295Y-2.915
X3.325Y-4.935
X3.34Y-2.915
X3.34Y-4.73
X3.35Y-3.895
X3.35Y-3.975
X3.375Y-3.675
X3.375Y-3.775
X3.375Y-4.525
X3.38Y-4.73
X3.39Y-2.7
X3.4Y-2.42
X3.425Y-3.725
X3.425Y-3.825
X3.425Y-4.475
X3.425Y-4.575
X3.425Y-4.775
X3.425Y-4.935
X3.43Y-2.86
X3.43Y-2.925
X3.475Y-3.675
X3.475Y-3.775
X3.475Y-3.875
X3.475Y-4.525
X3.475Y-4.625
X3.475Y-4.725
X3.49Y-2.42
X3.505Y-3.105
X3.525Y-4.475
X3.525Y-4.575
X3.525Y-4.675
X3.525Y-4.775
X3.525Y-4.935
X3.575Y-4.525
X3.575Y-4.625
X3.575Y-4.725
X3.6Y-2.42
X3.625Y-4.475
X3.625Y-4.575
X3.625Y-4.675
X3.625Y-4.775
X3.625Y-4.935
X3.675Y-4.725
X3.7Y-2.42
X3.725Y-4.775
X3.725Y-4.935
X3.8Y-2.42
X3.825Y-4.935
X3.9Y-2.42
X3.925Y-4.935
X4.Y-2.42
X4.025Y-4.935
X4.1Y-2.42
X4.1249Y-4.9406
X4.2Y-2.42
X4.225Y-4.9406
X4.285Y-2.42
X4.315Y-2.52
X4.325Y-4.9406
X4.35Y-2.42
X4.35Y-2.47
X4.425Y-2.42
X4.425Y-4.9406
X4.5Y-2.42
X4.525Y-4.9406
X4.545Y-2.775
X4.545Y-2.825
X4.545Y-2.875
X4.575Y-2.42
X4.625Y-4.9406
X4.645Y-2.47
X4.665Y-2.52
X4.675Y-2.42
X4.7188Y-2.9662
X4.725Y-4.9406
X4.75Y-2.875
X4.775Y-2.42
X4.785Y-2.47
X4.805Y-2.875
X4.85Y-4.9406
X4.855Y-2.875
X4.875Y-2.42
X4.9368Y-3.0479
X4.95Y-4.9406
X4.975Y-2.42
X5.0501Y-4.9406
X5.075Y-2.42
X5.15Y-4.9406
X5.175Y-2.42
X5.2499Y-4.9415
X5.275Y-2.42
X5.35Y-4.9406
X5.375Y-2.42
X5.45Y-4.9406
X5.475Y-2.42
X5.55Y-4.9406
X5.575Y-2.42
X5.65Y-4.9406
X5.675Y-2.42
X5.75Y-4.9402
X5.775Y-2.42
X5.85Y-4.94
X5.875Y-2.42
X5.9Y-4.85
X5.95Y-4.94
X5.975Y-2.42
X6.Y-4.85
X6.05Y-4.75
X6.05Y-4.94
X6.075Y-2.42
X6.1Y-4.85
X6.15Y-4.65
X6.15Y-4.75
X6.15Y-4.94
X6.175Y-2.42
X6.19Y-2.5844
X6.2Y-4.85
X6.25Y-4.65
X6.25Y-4.75
X6.25Y-4.94
X6.275Y-2.42
X6.29Y-2.585
X6.3Y-4.85
X6.325Y-2.645
X6.35Y-4.65
X6.35Y-4.75
X6.35Y-4.94
X6.375Y-2.42
X6.38Y-2.47
X6.4Y-4.85
X6.45Y-4.55
X6.45Y-4.65
X6.45Y-4.75
X6.45Y-4.94
X6.47Y-3.34
X6.475Y-2.42
X6.485Y-2.565
X6.5Y-4.85
X6.52Y-2.645
X6.55Y-2.9
X6.56Y-4.43
X6.56Y-4.51
X6.56Y-4.6
X6.56Y-4.65
X6.56Y-4.75
X6.56Y-4.85
X6.56Y-4.94
X6.575Y-2.42
X6.585Y-2.555
X6.605Y-4.555
X6.625Y-4.85
X6.625Y-4.94
X6.65Y-3.34
X6.65Y-4.43
X6.65Y-4.51
X6.6535Y-4.3563
X6.665Y-2.645
X6.675Y-2.42
X6.7Y-2.725
X6.7Y-2.825
X6.7Y-4.85
X6.7Y-4.94
X6.725Y-4.43
X6.725Y-4.51
X6.75Y-2.42
X6.75Y-2.475
X6.75Y-2.575
X6.75Y-2.675
X6.75Y-2.775
X6.805Y-3.67
X6.805Y-3.73
X6.805Y-3.8
X6.805Y-3.9
X6.805Y-4.
X6.805Y-4.1
X6.805Y-4.2
X6.805Y-4.285
X6.805Y-4.43
X6.805Y-4.51
X6.805Y-4.825
X6.815Y-2.42
X6.815Y-2.525
X6.815Y-2.625
X6.815Y-2.725
X6.815Y-2.825
X6.815Y-3.08
X6.815Y-3.165
X6.815Y-3.265
X6.815Y-3.365
X6.815Y-3.46
X6.815Y-3.555
X6.765Y-3.1885
X6.765Y-3.2378
X6.765Y-3.287
X6.765Y-3.3362
X6.765Y-3.3854
X6.765Y-3.4346
X6.765Y-3.4838
X6.765Y-3.533
X6.765Y-3.5822
X6.765Y-3.6315
T0
M30
