G04 #@! TF.FileFunction,Soldermask,Top*
%FSLAX46Y46*%
G04 Gerber Fmt 4.6, Leading zero omitted, Abs format (unit mm)*
G04 Created by KiCad (PCBNEW 201609201018+7184~55~ubuntu14.04.1-) date Fri Sep 23 16:33:06 2016*
%MOMM*%
%LPD*%
G01*
G04 APERTURE LIST*
%ADD10C,0.100000*%
%ADD11C,0.254000*%
%ADD12C,0.600000*%
%ADD13C,0.500000*%
%ADD14C,5.900000*%
%ADD15R,0.901600X0.901600*%
%ADD16R,3.301600X6.101600*%
%ADD17R,0.601600X0.651600*%
%ADD18R,1.117600X1.117600*%
%ADD19R,0.651600X0.601600*%
%ADD20R,1.625600X1.371600*%
%ADD21R,1.371600X1.625600*%
%ADD22R,2.400000X2.100000*%
%ADD23R,2.100000X2.100000*%
%ADD24R,0.351600X0.726600*%
%ADD25R,1.301600X0.651600*%
%ADD26R,0.651600X1.301600*%
%ADD27C,1.254000*%
%ADD28R,1.900000X1.800000*%
%ADD29C,1.100000*%
%ADD30R,0.863600X1.117600*%
%ADD31R,0.609600X1.117600*%
%ADD32R,4.000000X2.600000*%
%ADD33R,1.619200X2.635200*%
%ADD34C,1.400000*%
%ADD35O,3.100000X1.700000*%
%ADD36O,2.700000X1.700000*%
%ADD37R,1.700000X0.350000*%
%ADD38R,0.776600X0.301600*%
%ADD39R,0.876600X0.501600*%
%ADD40C,2.600000*%
%ADD41C,1.900000*%
%ADD42R,0.351600X1.401600*%
%ADD43R,2.501600X2.701600*%
%ADD44R,1.601600X1.601600*%
%ADD45C,1.601600*%
%ADD46C,1.879600*%
%ADD47R,1.879600X1.879600*%
%ADD48R,1.300000X0.350000*%
%ADD49C,0.400000*%
%ADD50C,0.401600*%
%ADD51R,0.301600X1.001600*%
%ADD52R,1.001600X0.301600*%
%ADD53R,5.601600X5.601600*%
%ADD54R,1.822400X1.822400*%
%ADD55R,0.800000X0.800000*%
%ADD56R,1.800000X1.800000*%
%ADD57C,1.800000*%
%ADD58C,2.050000*%
%ADD59C,2.800000*%
%ADD60C,3.700000*%
%ADD61R,1.901600X1.901600*%
%ADD62C,1.901600*%
%ADD63R,0.600000X1.400000*%
%ADD64R,1.400000X0.600000*%
%ADD65R,4.601600X1.851600*%
%ADD66R,3.601600X1.701600*%
%ADD67R,2.250000X0.450000*%
%ADD68C,0.650000*%
%ADD69R,1.100000X1.200000*%
%ADD70O,2.200000X1.600000*%
%ADD71O,1.601600X4.001600*%
%ADD72O,1.601600X3.701600*%
%ADD73O,3.801600X1.601600*%
%ADD74C,2.100000*%
%ADD75R,2.201600X3.101600*%
%ADD76R,2.601600X3.101600*%
G04 APERTURE END LIST*
D10*
D11*
X100000000Y-37500000D02*
X100000000Y-100000000D01*
X190000000Y-37500000D02*
X100000000Y-37500000D01*
X190000000Y-100000000D02*
X190000000Y-37500000D01*
X100000000Y-100000000D02*
X190000000Y-100000000D01*
D12*
X150400000Y-46200000D03*
X150400000Y-47200000D03*
X150400000Y-54200000D03*
X150400000Y-55200000D03*
X149400000Y-46200000D03*
X149400000Y-55200000D03*
X147400000Y-47200000D03*
X147400000Y-48200000D03*
X147400000Y-49200000D03*
X147400000Y-50200000D03*
X147400000Y-51200000D03*
X147400000Y-52200000D03*
X147400000Y-53200000D03*
X147400000Y-54200000D03*
X146400000Y-47200000D03*
X146400000Y-48200000D03*
X146400000Y-49200000D03*
X146400000Y-50200000D03*
X146400000Y-51200000D03*
X146400000Y-52200000D03*
X146400000Y-53200000D03*
X146400000Y-54200000D03*
X145400000Y-47200000D03*
X145400000Y-48200000D03*
X145400000Y-49200000D03*
X145400000Y-50200000D03*
X145400000Y-51200000D03*
X145400000Y-52200000D03*
X145400000Y-53200000D03*
X145400000Y-54200000D03*
D13*
X133400000Y-43700000D03*
X151400000Y-57700000D03*
D12*
X144400000Y-47200000D03*
X144400000Y-48200000D03*
X144400000Y-49200000D03*
X144400000Y-50200000D03*
X144400000Y-51200000D03*
X144400000Y-52200000D03*
X144400000Y-53200000D03*
X144400000Y-54200000D03*
X143400000Y-47200000D03*
X143400000Y-48200000D03*
X143400000Y-49200000D03*
X143400000Y-50200000D03*
X143400000Y-51200000D03*
X143400000Y-52200000D03*
X143400000Y-53200000D03*
X143400000Y-54200000D03*
X142400000Y-47200000D03*
X142400000Y-48200000D03*
X142400000Y-49200000D03*
X142400000Y-50200000D03*
X142400000Y-51200000D03*
X142400000Y-52200000D03*
X142400000Y-53200000D03*
X142400000Y-54200000D03*
X141400000Y-47200000D03*
X141400000Y-48200000D03*
X141400000Y-49200000D03*
X141400000Y-50200000D03*
X141400000Y-51200000D03*
X141400000Y-52200000D03*
X141400000Y-53200000D03*
X141400000Y-54200000D03*
X140400000Y-47200000D03*
X140400000Y-48200000D03*
X140400000Y-49200000D03*
X140400000Y-50200000D03*
X140400000Y-51200000D03*
X140400000Y-52200000D03*
X140400000Y-53200000D03*
X140400000Y-54200000D03*
X139400000Y-47200000D03*
X139400000Y-48200000D03*
X139400000Y-49200000D03*
X139400000Y-50200000D03*
X139400000Y-51200000D03*
X139400000Y-52200000D03*
X139400000Y-53200000D03*
X139400000Y-54200000D03*
X138400000Y-47200000D03*
X138400000Y-48200000D03*
X138400000Y-49200000D03*
X138400000Y-50200000D03*
X138400000Y-51200000D03*
X138400000Y-52200000D03*
X138400000Y-53200000D03*
X138400000Y-54200000D03*
X137400000Y-47200000D03*
X137400000Y-48200000D03*
X137400000Y-49200000D03*
X137400000Y-50200000D03*
X137400000Y-51200000D03*
X137400000Y-52200000D03*
X137400000Y-53200000D03*
X137400000Y-54200000D03*
X135400000Y-46200000D03*
X135400000Y-55200000D03*
X134400000Y-46200000D03*
X134400000Y-47200000D03*
X134400000Y-54200000D03*
X134400000Y-55200000D03*
D14*
X172800000Y-96600000D03*
D15*
X179578000Y-97155000D03*
X179578000Y-98679000D03*
D16*
X185018000Y-85217000D03*
X179218000Y-85217000D03*
D17*
X144145000Y-62738000D03*
X143129000Y-62738000D03*
D18*
X165608000Y-54737000D03*
X165608000Y-56515000D03*
D17*
X121008000Y-81300000D03*
X119992000Y-81300000D03*
X119992000Y-84000000D03*
X121008000Y-84000000D03*
D19*
X153797000Y-47117000D03*
X153797000Y-46101000D03*
X154178000Y-50927000D03*
X154178000Y-49911000D03*
X131191000Y-50673000D03*
X131191000Y-49657000D03*
D18*
X130556000Y-63754000D03*
X128778000Y-63754000D03*
D19*
X114808000Y-86360000D03*
X114808000Y-87376000D03*
D18*
X128778000Y-65278000D03*
X130556000Y-65278000D03*
D19*
X116586000Y-87376000D03*
X116586000Y-86360000D03*
D18*
X115697000Y-84201000D03*
X113919000Y-84201000D03*
D19*
X111125000Y-86360000D03*
X111125000Y-85344000D03*
X117475000Y-87376000D03*
X117475000Y-86360000D03*
X119253000Y-87376000D03*
X119253000Y-86360000D03*
D18*
X133604000Y-65278000D03*
X131826000Y-65278000D03*
D19*
X115570000Y-80264000D03*
X115570000Y-79248000D03*
D17*
X113284000Y-71501000D03*
X114300000Y-71501000D03*
X182245000Y-57912000D03*
X181229000Y-57912000D03*
D20*
X175895000Y-59690000D03*
X175895000Y-61722000D03*
X177927000Y-59690000D03*
X177927000Y-61722000D03*
X179959000Y-59690000D03*
X179959000Y-61722000D03*
X168402000Y-61722000D03*
X168402000Y-59690000D03*
D19*
X110871000Y-58166000D03*
X110871000Y-57150000D03*
D20*
X120650000Y-58166000D03*
X120650000Y-60198000D03*
X118618000Y-58166000D03*
X118618000Y-60198000D03*
X116459000Y-56134000D03*
X116459000Y-58166000D03*
D21*
X120777000Y-56261000D03*
X118745000Y-56261000D03*
D18*
X175260000Y-44577000D03*
X173482000Y-44577000D03*
D17*
X170561000Y-44831000D03*
X171577000Y-44831000D03*
D19*
X167132000Y-55626000D03*
X167132000Y-56642000D03*
D17*
X178054000Y-44577000D03*
X179070000Y-44577000D03*
D19*
X184023000Y-45593000D03*
X184023000Y-44577000D03*
D17*
X187960000Y-44577000D03*
X186944000Y-44577000D03*
D18*
X160147000Y-79121000D03*
X158369000Y-79121000D03*
X173101000Y-86614000D03*
X173101000Y-88392000D03*
X160147000Y-98425000D03*
X160147000Y-96647000D03*
X158623000Y-98425000D03*
X158623000Y-96647000D03*
X157226000Y-90805000D03*
X155448000Y-90805000D03*
X176403000Y-87122000D03*
X176403000Y-88900000D03*
X156337000Y-87884000D03*
X154559000Y-87884000D03*
X178308000Y-94996000D03*
X180086000Y-94996000D03*
X179578000Y-89789000D03*
X181356000Y-89789000D03*
X168402000Y-95758000D03*
X168402000Y-93980000D03*
X174625000Y-86614000D03*
X174625000Y-88392000D03*
X148971000Y-82677000D03*
X150749000Y-82677000D03*
X171069000Y-73152000D03*
X169291000Y-73152000D03*
X160147000Y-77724000D03*
X160147000Y-75946000D03*
X158877000Y-77724000D03*
X158877000Y-75946000D03*
X157607000Y-77724000D03*
X157607000Y-75946000D03*
X159385000Y-87884000D03*
X157607000Y-87884000D03*
X171577000Y-78359000D03*
X171577000Y-80137000D03*
X158623000Y-86360000D03*
X156845000Y-86360000D03*
X158115000Y-89408000D03*
X159893000Y-89408000D03*
D17*
X147447000Y-62738000D03*
X148463000Y-62738000D03*
D19*
X156337000Y-77470000D03*
X156337000Y-78486000D03*
D17*
X132715000Y-64135000D03*
X133731000Y-64135000D03*
D19*
X155448000Y-77470000D03*
X155448000Y-78486000D03*
D22*
X170474000Y-90805000D03*
X175474000Y-90805000D03*
D21*
X112268000Y-79883000D03*
X112268000Y-77851000D03*
D20*
X103378000Y-70104000D03*
X101346000Y-70104000D03*
D21*
X114173000Y-79883000D03*
X114173000Y-77851000D03*
X181991000Y-59690000D03*
X181991000Y-61722000D03*
D20*
X112395000Y-58166000D03*
X114427000Y-58166000D03*
D23*
X149048000Y-60579000D03*
X144068000Y-60579000D03*
D17*
X154940000Y-54102000D03*
X153924000Y-54102000D03*
X154559000Y-74676000D03*
X153543000Y-74676000D03*
D19*
X114935000Y-52578000D03*
X114935000Y-53594000D03*
X114935000Y-51816000D03*
X114935000Y-50800000D03*
X114935000Y-49022000D03*
X114935000Y-50038000D03*
X114935000Y-48260000D03*
X114935000Y-47244000D03*
D17*
X153543000Y-72136000D03*
X154559000Y-72136000D03*
D24*
X146800000Y-93086500D03*
X146800000Y-94111500D03*
X146300000Y-93086500D03*
X146300000Y-94111500D03*
X145800000Y-93086500D03*
X145800000Y-94111500D03*
X145300000Y-93086500D03*
X145300000Y-94111500D03*
D25*
X170531000Y-59629000D03*
X170531000Y-61529000D03*
X173131000Y-59629000D03*
X173131000Y-60579000D03*
X173131000Y-61529000D03*
D26*
X124648000Y-57628000D03*
X122748000Y-57628000D03*
X124648000Y-60228000D03*
X123698000Y-60228000D03*
X122748000Y-60228000D03*
D25*
X178023900Y-91506000D03*
X178023900Y-92456000D03*
X178023900Y-93406000D03*
X180624100Y-93406000D03*
X180624100Y-92456000D03*
X180624100Y-91506000D03*
D19*
X167259000Y-58547000D03*
X167259000Y-57531000D03*
D17*
X120269000Y-92075000D03*
X119253000Y-92075000D03*
X120269000Y-92964000D03*
X119253000Y-92964000D03*
D19*
X180848000Y-96901000D03*
X180848000Y-97917000D03*
X176276000Y-94234000D03*
X176276000Y-95250000D03*
X153543000Y-65151000D03*
X153543000Y-64135000D03*
D17*
X152527000Y-63119000D03*
X153543000Y-63119000D03*
X132715000Y-63246000D03*
X133731000Y-63246000D03*
X168910000Y-90805000D03*
X167894000Y-90805000D03*
X175768000Y-93345000D03*
X176784000Y-93345000D03*
D19*
X177165000Y-94234000D03*
X177165000Y-95250000D03*
X149987000Y-93091000D03*
X149987000Y-94107000D03*
X147828000Y-93091000D03*
X147828000Y-94107000D03*
X149098000Y-93091000D03*
X149098000Y-94107000D03*
X145796000Y-90805000D03*
X145796000Y-91821000D03*
X113665000Y-86360000D03*
X113665000Y-85344000D03*
D17*
X117348000Y-89281000D03*
X118364000Y-89281000D03*
X114808000Y-88392000D03*
X113792000Y-88392000D03*
D19*
X109855000Y-71374000D03*
X109855000Y-72390000D03*
D17*
X115062000Y-70612000D03*
X116078000Y-70612000D03*
X123063000Y-56261000D03*
X124079000Y-56261000D03*
D19*
X125857000Y-59436000D03*
X125857000Y-60452000D03*
D17*
X116078000Y-45974000D03*
X115062000Y-45974000D03*
X116078000Y-45085000D03*
X115062000Y-45085000D03*
D19*
X110871000Y-44958000D03*
X110871000Y-43942000D03*
D17*
X115062000Y-44196000D03*
X116078000Y-44196000D03*
X154178000Y-51943000D03*
X155194000Y-51943000D03*
X153924000Y-54991000D03*
X154940000Y-54991000D03*
D19*
X131191000Y-46482000D03*
X131191000Y-47498000D03*
D17*
X154178000Y-52832000D03*
X155194000Y-52832000D03*
X155702000Y-45085000D03*
X154686000Y-45085000D03*
D19*
X129540000Y-48514000D03*
X129540000Y-49530000D03*
X148717000Y-81534000D03*
X148717000Y-80518000D03*
D17*
X121008000Y-82200000D03*
X119992000Y-82200000D03*
X119992000Y-83100000D03*
X121008000Y-83100000D03*
X119992000Y-80400000D03*
X121008000Y-80400000D03*
X124206000Y-79248000D03*
X125222000Y-79248000D03*
X123444000Y-79248000D03*
X122428000Y-79248000D03*
D27*
X185166000Y-94869000D03*
X104648000Y-94869000D03*
X104648000Y-39116000D03*
D19*
X125857000Y-58674000D03*
X125857000Y-57658000D03*
D28*
X188282000Y-51054000D03*
X184082000Y-51054000D03*
D29*
X186182000Y-51904000D03*
X186182000Y-50204000D03*
D28*
X188282000Y-47625000D03*
X184082000Y-47625000D03*
D29*
X186182000Y-48475000D03*
X186182000Y-46775000D03*
D28*
X120963000Y-64643000D03*
X125163000Y-64643000D03*
D29*
X123063000Y-63793000D03*
X123063000Y-65493000D03*
D19*
X112014000Y-72390000D03*
X112014000Y-71374000D03*
D17*
X185039000Y-44577000D03*
X186055000Y-44577000D03*
X145288000Y-62738000D03*
X146304000Y-62738000D03*
D21*
X170307000Y-68834000D03*
X168275000Y-68834000D03*
D18*
X158496000Y-62611000D03*
X160274000Y-62611000D03*
X166370000Y-68834000D03*
X164592000Y-68834000D03*
X168275000Y-67056000D03*
X170053000Y-67056000D03*
X155829000Y-46863000D03*
X155829000Y-48641000D03*
X158877000Y-58928000D03*
X157099000Y-58928000D03*
D21*
X165608000Y-59182000D03*
X165608000Y-61214000D03*
X162179000Y-58801000D03*
X162179000Y-60833000D03*
X160401000Y-58801000D03*
X160401000Y-60833000D03*
D17*
X156972000Y-67183000D03*
X157988000Y-67183000D03*
X161036000Y-68072000D03*
X162052000Y-68072000D03*
X163195000Y-69088000D03*
X162179000Y-69088000D03*
D19*
X158877000Y-68072000D03*
X158877000Y-67056000D03*
X163449000Y-61722000D03*
X163449000Y-60706000D03*
X188976000Y-80899000D03*
X188976000Y-81915000D03*
D17*
X187960000Y-63119000D03*
X186944000Y-63119000D03*
X184912000Y-63119000D03*
X185928000Y-63119000D03*
X162179000Y-70104000D03*
X163195000Y-70104000D03*
D19*
X156337000Y-68199000D03*
X156337000Y-69215000D03*
D17*
X164465000Y-72771000D03*
X165481000Y-72771000D03*
D19*
X164338000Y-61722000D03*
X164338000Y-60706000D03*
D18*
X164846000Y-48641000D03*
X164846000Y-46863000D03*
D30*
X158242000Y-69977000D03*
X158242000Y-71501000D03*
X160782000Y-69977000D03*
X160782000Y-71501000D03*
D31*
X159131000Y-69977000D03*
X159893000Y-69977000D03*
X159131000Y-71501000D03*
X159893000Y-71501000D03*
D17*
X171323000Y-70993000D03*
X172339000Y-70993000D03*
X171323000Y-71882000D03*
X172339000Y-71882000D03*
X166878000Y-62611000D03*
X165862000Y-62611000D03*
X165354000Y-67310000D03*
X164338000Y-67310000D03*
D19*
X171704000Y-66929000D03*
X171704000Y-67945000D03*
X167259000Y-69977000D03*
X167259000Y-70993000D03*
D17*
X166243000Y-70231000D03*
X165227000Y-70231000D03*
D19*
X166497000Y-66040000D03*
X166497000Y-65024000D03*
D17*
X165227000Y-66167000D03*
X164211000Y-66167000D03*
D19*
X159766000Y-67056000D03*
X159766000Y-68072000D03*
D22*
X157520000Y-45212000D03*
X162520000Y-45212000D03*
D32*
X160655000Y-54406800D03*
D33*
X158343600Y-48209200D03*
X160655000Y-48209200D03*
X162966400Y-48209200D03*
D19*
X167767000Y-43688000D03*
X167767000Y-44704000D03*
D34*
X119507000Y-68707000D03*
X165608000Y-57658000D03*
X181864000Y-56769000D03*
X163068000Y-96647000D03*
X130302000Y-47879000D03*
X162052000Y-78867000D03*
X155194000Y-57658000D03*
X104140000Y-58420000D03*
D19*
X110744000Y-71374000D03*
X110744000Y-72390000D03*
X115570000Y-78359000D03*
X115570000Y-77343000D03*
D17*
X115062000Y-71501000D03*
X116078000Y-71501000D03*
D35*
X107597000Y-39182000D03*
X107597000Y-53782000D03*
D36*
X101547000Y-53782000D03*
D37*
X108547000Y-50982000D03*
X108547000Y-50482000D03*
X108547000Y-49982000D03*
X108547000Y-49482000D03*
X108547000Y-48982000D03*
X108547000Y-48482000D03*
X108547000Y-47982000D03*
X108547000Y-47482000D03*
X108547000Y-46982000D03*
X108547000Y-46482000D03*
X108547000Y-45982000D03*
X108547000Y-45482000D03*
X108547000Y-44982000D03*
X108547000Y-44482000D03*
X108547000Y-43982000D03*
X108547000Y-43482000D03*
X108547000Y-42982000D03*
X108547000Y-42482000D03*
X108547000Y-41982000D03*
D36*
X101547000Y-39182000D03*
D38*
X113086500Y-46974000D03*
X113086500Y-46474000D03*
D39*
X113036500Y-45974000D03*
D38*
X113086500Y-45474000D03*
X113086500Y-44974000D03*
X112211500Y-44974000D03*
X112211500Y-45474000D03*
D39*
X112261500Y-45974000D03*
D38*
X112211500Y-46474000D03*
X112211500Y-46974000D03*
X113086500Y-49895000D03*
X113086500Y-49395000D03*
D39*
X113036500Y-48895000D03*
D38*
X113086500Y-48395000D03*
X113086500Y-47895000D03*
X112211500Y-47895000D03*
X112211500Y-48395000D03*
D39*
X112261500Y-48895000D03*
D38*
X112211500Y-49395000D03*
X112211500Y-49895000D03*
X113086500Y-52816000D03*
X113086500Y-52316000D03*
D39*
X113036500Y-51816000D03*
D38*
X113086500Y-51316000D03*
X113086500Y-50816000D03*
X112211500Y-50816000D03*
X112211500Y-51316000D03*
D39*
X112261500Y-51816000D03*
D38*
X112211500Y-52316000D03*
X112211500Y-52816000D03*
D40*
X115212000Y-62682000D03*
X115212000Y-68382000D03*
X108212000Y-62682000D03*
X108212000Y-68382000D03*
D41*
X108712000Y-65532000D03*
X110712000Y-65532000D03*
X112712000Y-65532000D03*
X114712000Y-65532000D03*
D42*
X140941000Y-93770000D03*
X140441000Y-93770000D03*
X139941000Y-93770000D03*
X139441000Y-93770000D03*
X138941000Y-93770000D03*
X138441000Y-93770000D03*
X137941000Y-93770000D03*
X137441000Y-93770000D03*
X136941000Y-93770000D03*
X136441000Y-93770000D03*
X135941000Y-93770000D03*
X135441000Y-93770000D03*
X134941000Y-93770000D03*
X134441000Y-93770000D03*
X133941000Y-93770000D03*
X133441000Y-93770000D03*
X132941000Y-93770000D03*
X132441000Y-93770000D03*
X131941000Y-93770000D03*
X131441000Y-93770000D03*
X130941000Y-93770000D03*
X130441000Y-93770000D03*
X129941000Y-93770000D03*
X129441000Y-93770000D03*
X128941000Y-93770000D03*
X128441000Y-93770000D03*
X127941000Y-93770000D03*
X127441000Y-93770000D03*
X126941000Y-93770000D03*
X126441000Y-93770000D03*
X125941000Y-93770000D03*
X125441000Y-93770000D03*
X124941000Y-93770000D03*
X124441000Y-93770000D03*
X123941000Y-93770000D03*
X123441000Y-93770000D03*
X122941000Y-93770000D03*
X122441000Y-93770000D03*
X121941000Y-93770000D03*
X121441000Y-93770000D03*
D43*
X143091000Y-95870000D03*
X119291000Y-95870000D03*
D13*
X135000000Y-83800000D03*
X135000000Y-84600000D03*
X135000000Y-85400000D03*
X135000000Y-88600000D03*
X135000000Y-89400000D03*
X135000000Y-90200000D03*
X134200000Y-83800000D03*
X134200000Y-84600000D03*
X134200000Y-85400000D03*
X134200000Y-88600000D03*
X134200000Y-89400000D03*
X134200000Y-90200000D03*
X133400000Y-83800000D03*
X133400000Y-84600000D03*
X133400000Y-85400000D03*
X133400000Y-88600000D03*
X133400000Y-89400000D03*
X133400000Y-90200000D03*
X132600000Y-83800000D03*
X132600000Y-84600000D03*
X132600000Y-85400000D03*
X132600000Y-88600000D03*
X132600000Y-89400000D03*
X132600000Y-90200000D03*
X131800000Y-83800000D03*
X131800000Y-84600000D03*
X131800000Y-85400000D03*
X131800000Y-88600000D03*
X131800000Y-89400000D03*
X131800000Y-90200000D03*
X131000000Y-83800000D03*
X131000000Y-84600000D03*
X131000000Y-85400000D03*
X131000000Y-88600000D03*
X131000000Y-89400000D03*
X131000000Y-90200000D03*
X122500000Y-82500000D03*
X135500000Y-91500000D03*
X122350000Y-81500000D03*
X135650000Y-92500000D03*
X130200000Y-83800000D03*
X130200000Y-84600000D03*
X130200000Y-85400000D03*
X130200000Y-88600000D03*
X130200000Y-89400000D03*
X130200000Y-90200000D03*
X129400000Y-83800000D03*
X129400000Y-84600000D03*
X129400000Y-85400000D03*
X129400000Y-88600000D03*
X129400000Y-89400000D03*
X129400000Y-90200000D03*
X128600000Y-83800000D03*
X128600000Y-84600000D03*
X128600000Y-85400000D03*
X128600000Y-88600000D03*
X128600000Y-89400000D03*
X128600000Y-90200000D03*
X127800000Y-83800000D03*
X127800000Y-84600000D03*
X127800000Y-85400000D03*
X127800000Y-88600000D03*
X127800000Y-89400000D03*
X127800000Y-90200000D03*
X127000000Y-83800000D03*
X127000000Y-84600000D03*
X127000000Y-85400000D03*
X127000000Y-88600000D03*
X127000000Y-89400000D03*
X127000000Y-90200000D03*
X126200000Y-83800000D03*
X126200000Y-84600000D03*
X126200000Y-85400000D03*
X126200000Y-88600000D03*
X126200000Y-89400000D03*
X126200000Y-90200000D03*
X125400000Y-83800000D03*
X125400000Y-84600000D03*
X125400000Y-85400000D03*
X125400000Y-88600000D03*
X125400000Y-89400000D03*
X125400000Y-90200000D03*
X124600000Y-83800000D03*
X124600000Y-84600000D03*
X124600000Y-85400000D03*
X124600000Y-88600000D03*
X124600000Y-89400000D03*
X124600000Y-90200000D03*
X123800000Y-83800000D03*
X123800000Y-84600000D03*
X123800000Y-85400000D03*
X123800000Y-88600000D03*
X123800000Y-89400000D03*
X123800000Y-90200000D03*
X123000000Y-83800000D03*
X123000000Y-84600000D03*
X123000000Y-85400000D03*
X123000000Y-88600000D03*
X123000000Y-89400000D03*
X123000000Y-90200000D03*
X133000000Y-69800000D03*
X133000000Y-70600000D03*
X133000000Y-71400000D03*
X133000000Y-74600000D03*
X133000000Y-75400000D03*
X133000000Y-76200000D03*
X132200000Y-69800000D03*
X132200000Y-70600000D03*
X132200000Y-71400000D03*
X132200000Y-74600000D03*
X132200000Y-75400000D03*
X132200000Y-76200000D03*
X131400000Y-69800000D03*
X131400000Y-70600000D03*
X131400000Y-71400000D03*
X131400000Y-74600000D03*
X131400000Y-75400000D03*
X131400000Y-76200000D03*
X130600000Y-69800000D03*
X130600000Y-70600000D03*
X130600000Y-71400000D03*
X130600000Y-74600000D03*
X130600000Y-75400000D03*
X130600000Y-76200000D03*
X129800000Y-69800000D03*
X129800000Y-70600000D03*
X129800000Y-71400000D03*
X129800000Y-74600000D03*
X129800000Y-75400000D03*
X129800000Y-76200000D03*
X129000000Y-69800000D03*
X129000000Y-70600000D03*
X129000000Y-71400000D03*
X129000000Y-74600000D03*
X129000000Y-75400000D03*
X129000000Y-76200000D03*
X120500000Y-68500000D03*
X133500000Y-77500000D03*
X120350000Y-67500000D03*
X133650000Y-78500000D03*
X128200000Y-69800000D03*
X128200000Y-70600000D03*
X128200000Y-71400000D03*
X128200000Y-74600000D03*
X128200000Y-75400000D03*
X128200000Y-76200000D03*
X127400000Y-69800000D03*
X127400000Y-70600000D03*
X127400000Y-71400000D03*
X127400000Y-74600000D03*
X127400000Y-75400000D03*
X127400000Y-76200000D03*
X126600000Y-69800000D03*
X126600000Y-70600000D03*
X126600000Y-71400000D03*
X126600000Y-74600000D03*
X126600000Y-75400000D03*
X126600000Y-76200000D03*
X125800000Y-69800000D03*
X125800000Y-70600000D03*
X125800000Y-71400000D03*
X125800000Y-74600000D03*
X125800000Y-75400000D03*
X125800000Y-76200000D03*
X125000000Y-69800000D03*
X125000000Y-70600000D03*
X125000000Y-71400000D03*
X125000000Y-74600000D03*
X125000000Y-75400000D03*
X125000000Y-76200000D03*
X124200000Y-69800000D03*
X124200000Y-70600000D03*
X124200000Y-71400000D03*
X124200000Y-74600000D03*
X124200000Y-75400000D03*
X124200000Y-76200000D03*
X123400000Y-69800000D03*
X123400000Y-70600000D03*
X123400000Y-71400000D03*
X123400000Y-74600000D03*
X123400000Y-75400000D03*
X123400000Y-76200000D03*
X122600000Y-69800000D03*
X122600000Y-70600000D03*
X122600000Y-71400000D03*
X122600000Y-74600000D03*
X122600000Y-75400000D03*
X122600000Y-76200000D03*
X121800000Y-69800000D03*
X121800000Y-70600000D03*
X121800000Y-71400000D03*
X121800000Y-74600000D03*
X121800000Y-75400000D03*
X121800000Y-76200000D03*
X121000000Y-69800000D03*
X121000000Y-70600000D03*
X121000000Y-71400000D03*
X121000000Y-74600000D03*
X121000000Y-75400000D03*
X121000000Y-76200000D03*
D44*
X118793000Y-45720000D03*
D45*
X120793000Y-45720000D03*
X122793000Y-45720000D03*
X124793000Y-45720000D03*
D46*
X166370000Y-38989000D03*
X166370000Y-41529000D03*
X163830000Y-38989000D03*
X163830000Y-41529000D03*
X161290000Y-38989000D03*
X161290000Y-41529000D03*
X158750000Y-38989000D03*
X158750000Y-41529000D03*
X156210000Y-38989000D03*
X156210000Y-41529000D03*
X146050000Y-38989000D03*
X146050000Y-41529000D03*
X143510000Y-38989000D03*
X143510000Y-41529000D03*
X148590000Y-41529000D03*
X148590000Y-38989000D03*
X151130000Y-38989000D03*
X151130000Y-41529000D03*
X153670000Y-41529000D03*
X153670000Y-38989000D03*
X128270000Y-38989000D03*
X128270000Y-41529000D03*
X125730000Y-41529000D03*
X125730000Y-38989000D03*
X123190000Y-38989000D03*
X123190000Y-41529000D03*
D47*
X118110000Y-41529000D03*
D46*
X118110000Y-38989000D03*
X120650000Y-41529000D03*
X120650000Y-38989000D03*
X130810000Y-41529000D03*
X130810000Y-38989000D03*
X133350000Y-41529000D03*
X133350000Y-38989000D03*
X135890000Y-41529000D03*
X135890000Y-38989000D03*
X138430000Y-41529000D03*
X138430000Y-38989000D03*
X140970000Y-41529000D03*
X140970000Y-38989000D03*
D48*
X152394000Y-56296000D03*
X152394000Y-55796000D03*
X152394000Y-55296000D03*
X152394000Y-54796000D03*
X152394000Y-54296000D03*
X152394000Y-53796000D03*
X152394000Y-53296000D03*
X152394000Y-52796000D03*
X152394000Y-52296000D03*
X152394000Y-51796000D03*
X152394000Y-51296000D03*
X152394000Y-50796000D03*
X152394000Y-50296000D03*
X152394000Y-49796000D03*
X152394000Y-49296000D03*
X152394000Y-48796000D03*
X152394000Y-48296000D03*
X152394000Y-47796000D03*
X152394000Y-47296000D03*
X152394000Y-46796000D03*
X152394000Y-46296000D03*
X152394000Y-45796000D03*
X152394000Y-45296000D03*
X152394000Y-44796000D03*
X132594000Y-44796000D03*
X132594000Y-45296000D03*
X132594000Y-45796000D03*
X132594000Y-46296000D03*
X132594000Y-46796000D03*
X132594000Y-47296000D03*
X132594000Y-47796000D03*
X132594000Y-48296000D03*
X132594000Y-48796000D03*
X132594000Y-49296000D03*
X132594000Y-49796000D03*
X132594000Y-50296000D03*
X132594000Y-50796000D03*
X132594000Y-51296000D03*
X132594000Y-51796000D03*
X132594000Y-52296000D03*
X132594000Y-52796000D03*
X132594000Y-53296000D03*
X132594000Y-53796000D03*
X132594000Y-54296000D03*
X132594000Y-54796000D03*
X132594000Y-55296000D03*
X132594000Y-55796000D03*
X132594000Y-56296000D03*
D12*
X152550000Y-64550000D03*
D49*
X152100000Y-65000000D03*
X144950000Y-72150000D03*
X144300000Y-72150000D03*
X143650000Y-72150000D03*
X141700000Y-72800000D03*
X144950000Y-74750000D03*
X143650000Y-74750000D03*
X146900000Y-76050000D03*
X148200000Y-76700000D03*
X148200000Y-78650000D03*
X146900000Y-76700000D03*
X146250000Y-75400000D03*
X146900000Y-75400000D03*
X148200000Y-75400000D03*
X146250000Y-74750000D03*
X146900000Y-74750000D03*
X147550000Y-74750000D03*
X148200000Y-74750000D03*
X148850000Y-74750000D03*
X143650000Y-74100000D03*
X144300000Y-74100000D03*
X144950000Y-74100000D03*
X145600000Y-74100000D03*
X146250000Y-74100000D03*
X146900000Y-74100000D03*
X147550000Y-74100000D03*
X143000000Y-74100000D03*
X148200000Y-74100000D03*
X146900000Y-73450000D03*
X146250000Y-73450000D03*
X145600000Y-73450000D03*
X144950000Y-73450000D03*
X144300000Y-73450000D03*
X143650000Y-73450000D03*
X143000000Y-73450000D03*
X147550000Y-73450000D03*
X143000000Y-72800000D03*
X143650000Y-72800000D03*
X144300000Y-72800000D03*
X144950000Y-72800000D03*
X145600000Y-72800000D03*
X146250000Y-72800000D03*
X147550000Y-72800000D03*
X145600000Y-72150000D03*
X146250000Y-72150000D03*
X145600000Y-71500000D03*
X146250000Y-71500000D03*
X146900000Y-72800000D03*
X146900000Y-72150000D03*
X147550000Y-72150000D03*
X147550000Y-71500000D03*
X148200000Y-72800000D03*
X148200000Y-72150000D03*
X148850000Y-70850000D03*
X143650000Y-71500000D03*
X142350000Y-71500000D03*
X143000000Y-70850000D03*
X146900000Y-70200000D03*
X145600000Y-70200000D03*
X144950000Y-70200000D03*
X144300000Y-70200000D03*
X143000000Y-70200000D03*
X145600000Y-77350000D03*
X144950000Y-78000000D03*
X144300000Y-76700000D03*
X144300000Y-77350000D03*
X142350000Y-77350000D03*
X141700000Y-76050000D03*
X139750000Y-75400000D03*
X139100000Y-75400000D03*
X139100000Y-78000000D03*
X137800000Y-65000000D03*
X137800000Y-79300000D03*
X151450000Y-65000000D03*
X150150000Y-65000000D03*
X149500000Y-65000000D03*
X148200000Y-65000000D03*
X147550000Y-65000000D03*
X146250000Y-65000000D03*
X145600000Y-65000000D03*
X144300000Y-65000000D03*
X143650000Y-65000000D03*
X142350000Y-65000000D03*
X141700000Y-65000000D03*
X140400000Y-65000000D03*
X139750000Y-65000000D03*
X138450000Y-65000000D03*
X137800000Y-65650000D03*
X138450000Y-65650000D03*
X139100000Y-65650000D03*
X139750000Y-65650000D03*
X140400000Y-65650000D03*
X141050000Y-65650000D03*
X141700000Y-65650000D03*
X142350000Y-65650000D03*
X143650000Y-65650000D03*
X144300000Y-65650000D03*
X144950000Y-65650000D03*
X145600000Y-65650000D03*
X146250000Y-65650000D03*
X146900000Y-65650000D03*
X147550000Y-65650000D03*
X148200000Y-65650000D03*
X148850000Y-65650000D03*
X149500000Y-65650000D03*
X150150000Y-65650000D03*
X150800000Y-65650000D03*
X151450000Y-65650000D03*
X152100000Y-65650000D03*
X151450000Y-66300000D03*
X150800000Y-66300000D03*
X150150000Y-66300000D03*
X149500000Y-66300000D03*
X148850000Y-66300000D03*
X148200000Y-66300000D03*
X147550000Y-66300000D03*
X146900000Y-66300000D03*
X144950000Y-66300000D03*
X143000000Y-66300000D03*
X141700000Y-66300000D03*
X141050000Y-66300000D03*
X140400000Y-66300000D03*
X139750000Y-66300000D03*
X138450000Y-66300000D03*
X137800000Y-66950000D03*
X138450000Y-66950000D03*
X139100000Y-66950000D03*
X139750000Y-66950000D03*
X140400000Y-66950000D03*
X141700000Y-66950000D03*
X142350000Y-66950000D03*
X143650000Y-66950000D03*
X144300000Y-66950000D03*
X145600000Y-66950000D03*
X146250000Y-66950000D03*
X147550000Y-66950000D03*
X148200000Y-66950000D03*
X149500000Y-66950000D03*
X150800000Y-66950000D03*
X151450000Y-66950000D03*
X152100000Y-66950000D03*
X152100000Y-67600000D03*
X151450000Y-67600000D03*
X150800000Y-67600000D03*
X150150000Y-67600000D03*
X149500000Y-67600000D03*
X148200000Y-67600000D03*
X147550000Y-67600000D03*
X146250000Y-67600000D03*
X145600000Y-67600000D03*
X144300000Y-67600000D03*
X143650000Y-67600000D03*
X142350000Y-67600000D03*
X141700000Y-67600000D03*
X140400000Y-67600000D03*
X139750000Y-67600000D03*
X139100000Y-67600000D03*
X138450000Y-67600000D03*
X137800000Y-67600000D03*
X138450000Y-79300000D03*
X139750000Y-79300000D03*
X140400000Y-79300000D03*
X141700000Y-79300000D03*
X142350000Y-79300000D03*
X143650000Y-79300000D03*
X144300000Y-79300000D03*
X145600000Y-79300000D03*
X146250000Y-79300000D03*
X147550000Y-79300000D03*
X148200000Y-79300000D03*
X149500000Y-79300000D03*
X150800000Y-79300000D03*
X152100000Y-79300000D03*
X137800000Y-78650000D03*
X138450000Y-78650000D03*
X139100000Y-78650000D03*
X139750000Y-78650000D03*
X140400000Y-78650000D03*
X141050000Y-78650000D03*
X141700000Y-78650000D03*
X142350000Y-78650000D03*
X143000000Y-78650000D03*
X143650000Y-78650000D03*
X144300000Y-78650000D03*
X144950000Y-78650000D03*
X145600000Y-78650000D03*
X146250000Y-78650000D03*
X146900000Y-78650000D03*
X147550000Y-78650000D03*
X148850000Y-78650000D03*
X150150000Y-78650000D03*
X151450000Y-78650000D03*
X152100000Y-78650000D03*
X138450000Y-78000000D03*
X139750000Y-78000000D03*
X140400000Y-78000000D03*
X141050000Y-78000000D03*
X141700000Y-78000000D03*
X142350000Y-78000000D03*
X143000000Y-78000000D03*
X143650000Y-78000000D03*
X144300000Y-78000000D03*
X145600000Y-78000000D03*
X146250000Y-78000000D03*
X146900000Y-78000000D03*
X147550000Y-78000000D03*
X148850000Y-78000000D03*
X149500000Y-78000000D03*
X150150000Y-78000000D03*
X150800000Y-78000000D03*
X137800000Y-77350000D03*
X138450000Y-77350000D03*
X139100000Y-77350000D03*
X140400000Y-77350000D03*
X141700000Y-77350000D03*
X143650000Y-77350000D03*
X144950000Y-77350000D03*
X146900000Y-77350000D03*
X147550000Y-77350000D03*
X148200000Y-77350000D03*
X148850000Y-77350000D03*
X149500000Y-77350000D03*
X150150000Y-77350000D03*
X151450000Y-77350000D03*
X152100000Y-77350000D03*
X137800000Y-76700000D03*
X138450000Y-76700000D03*
X139100000Y-76700000D03*
X139750000Y-76700000D03*
X140400000Y-76700000D03*
X141700000Y-76700000D03*
X142350000Y-76700000D03*
X143650000Y-76700000D03*
X145600000Y-76700000D03*
X146250000Y-76700000D03*
X148850000Y-76700000D03*
X149500000Y-76700000D03*
X150800000Y-76700000D03*
X151450000Y-76700000D03*
X152100000Y-76700000D03*
X138450000Y-76050000D03*
X139100000Y-76050000D03*
X142350000Y-76050000D03*
X143650000Y-76050000D03*
X144300000Y-76050000D03*
X145600000Y-76050000D03*
X146250000Y-76050000D03*
X147550000Y-76050000D03*
X148200000Y-76050000D03*
X148850000Y-76050000D03*
X150150000Y-76050000D03*
X150800000Y-76050000D03*
X151450000Y-76050000D03*
X137800000Y-75400000D03*
X138450000Y-75400000D03*
X140400000Y-75400000D03*
X141050000Y-75400000D03*
X141700000Y-75400000D03*
X143650000Y-75400000D03*
X144300000Y-75400000D03*
X145600000Y-75400000D03*
X149500000Y-75400000D03*
X150150000Y-75400000D03*
X150800000Y-75400000D03*
X151450000Y-75400000D03*
X152100000Y-75400000D03*
X137800000Y-74750000D03*
X138450000Y-74750000D03*
X139100000Y-74750000D03*
X139750000Y-74750000D03*
X140400000Y-74750000D03*
X141700000Y-74750000D03*
X143000000Y-74750000D03*
X144300000Y-74750000D03*
X145600000Y-74750000D03*
X149500000Y-74750000D03*
X150150000Y-74750000D03*
X150800000Y-74750000D03*
X151450000Y-74750000D03*
X152100000Y-74750000D03*
X138450000Y-74100000D03*
X139100000Y-74100000D03*
X141700000Y-74100000D03*
X148850000Y-74100000D03*
X149500000Y-74100000D03*
X150800000Y-74100000D03*
X151450000Y-74100000D03*
X138450000Y-73450000D03*
X139100000Y-73450000D03*
X139750000Y-73450000D03*
X140400000Y-73450000D03*
X148850000Y-73450000D03*
X149500000Y-73450000D03*
X150150000Y-73450000D03*
X150800000Y-73450000D03*
X151450000Y-73450000D03*
X152100000Y-73450000D03*
X137800000Y-72800000D03*
X138450000Y-72800000D03*
X139100000Y-72800000D03*
X139750000Y-72800000D03*
X140400000Y-72800000D03*
X149500000Y-72800000D03*
X150150000Y-72800000D03*
X150800000Y-72800000D03*
X151450000Y-72800000D03*
X152100000Y-72800000D03*
X138450000Y-72150000D03*
X139100000Y-72150000D03*
X141050000Y-72150000D03*
X143000000Y-72150000D03*
X150800000Y-72150000D03*
X151450000Y-72150000D03*
X137800000Y-71500000D03*
X138450000Y-71500000D03*
X139100000Y-71500000D03*
X139750000Y-71500000D03*
X140400000Y-71500000D03*
X141700000Y-71500000D03*
X143000000Y-71500000D03*
X144300000Y-71500000D03*
X144950000Y-71500000D03*
X146900000Y-71500000D03*
X149500000Y-71500000D03*
X150150000Y-71500000D03*
X150800000Y-71500000D03*
X151450000Y-71500000D03*
X152100000Y-71500000D03*
X137800000Y-70850000D03*
X138450000Y-70850000D03*
X139100000Y-70850000D03*
X139750000Y-70850000D03*
X140400000Y-70850000D03*
X141700000Y-70850000D03*
X142350000Y-70850000D03*
X143650000Y-70850000D03*
X144300000Y-70850000D03*
X144950000Y-70850000D03*
X145600000Y-70850000D03*
X146250000Y-70850000D03*
X146900000Y-70850000D03*
X147550000Y-70850000D03*
X150150000Y-70850000D03*
X150800000Y-70850000D03*
X151450000Y-70850000D03*
X152100000Y-70850000D03*
X138450000Y-70200000D03*
X142350000Y-70200000D03*
X147550000Y-70200000D03*
X148200000Y-70200000D03*
X150800000Y-70200000D03*
X151450000Y-70200000D03*
X137800000Y-69550000D03*
X138450000Y-69550000D03*
X139100000Y-69550000D03*
X139750000Y-69550000D03*
X140400000Y-69550000D03*
X141050000Y-69550000D03*
X141700000Y-69550000D03*
X142350000Y-69550000D03*
X143000000Y-69550000D03*
X143650000Y-69550000D03*
X144300000Y-69550000D03*
X144950000Y-69550000D03*
X145600000Y-69550000D03*
X146250000Y-69550000D03*
X146900000Y-69550000D03*
X148200000Y-69550000D03*
X149500000Y-69550000D03*
X150150000Y-69550000D03*
X150800000Y-69550000D03*
X151450000Y-69550000D03*
X152100000Y-69550000D03*
X137800000Y-68900000D03*
X138450000Y-68900000D03*
X139100000Y-68900000D03*
X139750000Y-68900000D03*
X140400000Y-68900000D03*
X141050000Y-68900000D03*
X147550000Y-68900000D03*
X148850000Y-68900000D03*
X149500000Y-68900000D03*
X150150000Y-68900000D03*
X150800000Y-68900000D03*
X151450000Y-68900000D03*
X152100000Y-68900000D03*
X138450000Y-68250000D03*
X139100000Y-68250000D03*
X141700000Y-68250000D03*
X143650000Y-68250000D03*
X145600000Y-68250000D03*
X146250000Y-68250000D03*
X148200000Y-68250000D03*
X148850000Y-68250000D03*
X150800000Y-68250000D03*
X151450000Y-68250000D03*
D12*
X152550000Y-79750000D03*
X137350000Y-64550000D03*
D46*
X156210000Y-96139000D03*
X156210000Y-98679000D03*
X153670000Y-98679000D03*
X153670000Y-96139000D03*
X151130000Y-96139000D03*
X151130000Y-98679000D03*
D47*
X146050000Y-98679000D03*
D46*
X146050000Y-96139000D03*
X148590000Y-98679000D03*
X148590000Y-96139000D03*
D47*
X162560000Y-98679000D03*
D46*
X165100000Y-98679000D03*
X167640000Y-98679000D03*
D50*
X161544000Y-80327500D03*
D51*
X169062000Y-80645500D03*
X168662000Y-80645500D03*
X168262000Y-80645500D03*
X167862000Y-80645500D03*
X167462000Y-80645500D03*
X167062000Y-80645500D03*
X166662000Y-80645500D03*
X166262000Y-80645500D03*
X165862000Y-80645500D03*
X165462000Y-80645500D03*
X165062000Y-80645500D03*
X164662000Y-80645500D03*
X164262000Y-80645500D03*
X163862000Y-80645500D03*
X163462000Y-80645500D03*
X163062000Y-80645500D03*
X162662000Y-80645500D03*
D52*
X161862000Y-81445500D03*
X161862000Y-81845500D03*
X161862000Y-82245500D03*
X161862000Y-82645500D03*
X161862000Y-83045500D03*
X161862000Y-83445500D03*
X161862000Y-83845500D03*
X161862000Y-84245500D03*
X161862000Y-84645500D03*
X161862000Y-85045500D03*
X161862000Y-85445500D03*
X161862000Y-85845500D03*
X161862000Y-86245500D03*
X161862000Y-86645500D03*
X161862000Y-87045500D03*
X161862000Y-87445500D03*
X161862000Y-87845500D03*
D51*
X162662000Y-88645500D03*
X163062000Y-88645500D03*
X163462000Y-88645500D03*
X163862000Y-88645500D03*
X164262000Y-88645500D03*
X164662000Y-88645500D03*
X165062000Y-88645500D03*
X165462000Y-88645500D03*
X165862000Y-88645500D03*
X166262000Y-88645500D03*
X166662000Y-88645500D03*
X167062000Y-88645500D03*
X167462000Y-88645500D03*
X167862000Y-88645500D03*
X168262000Y-88645500D03*
X168662000Y-88645500D03*
X169062000Y-88645500D03*
D52*
X169862000Y-87845500D03*
X169862000Y-87445500D03*
X169862000Y-87045500D03*
X169862000Y-86645500D03*
X169862000Y-86245500D03*
X169862000Y-85845500D03*
X169862000Y-85445500D03*
X169862000Y-85045500D03*
X169862000Y-84645500D03*
X169862000Y-84245500D03*
X169862000Y-83845500D03*
X169862000Y-83445500D03*
X169862000Y-83045500D03*
X169862000Y-82645500D03*
X169862000Y-82245500D03*
X169862000Y-81845500D03*
X169862000Y-81445500D03*
D53*
X165862000Y-84645500D03*
D54*
X165862000Y-84645500D03*
D55*
X168062000Y-83845500D03*
X167362000Y-83845500D03*
X166662000Y-83845500D03*
X166662000Y-83145500D03*
X166662000Y-82445500D03*
X165062000Y-82445500D03*
X165062000Y-83145500D03*
X165062000Y-83845500D03*
X164362000Y-83845500D03*
X163662000Y-83845500D03*
X163662000Y-85445500D03*
X164362000Y-85445500D03*
X165062000Y-85445500D03*
X165062000Y-86145500D03*
X165062000Y-86845500D03*
X166662000Y-86845500D03*
X166662000Y-86145500D03*
X166662000Y-85445500D03*
X167362000Y-85445500D03*
X168062000Y-85445500D03*
D50*
X170180000Y-88963500D03*
D56*
X187982860Y-87749380D03*
D57*
X187980320Y-85737700D03*
D58*
X177673000Y-66421000D03*
X175133000Y-67691000D03*
X177673000Y-68961000D03*
X175133000Y-70231000D03*
X177673000Y-71501000D03*
X175133000Y-72771000D03*
X177673000Y-74041000D03*
X175133000Y-75311000D03*
X177673000Y-76581000D03*
X175133000Y-77851000D03*
X186563000Y-65405000D03*
X188595000Y-65405000D03*
X186563000Y-78867000D03*
X188595000Y-78867000D03*
D59*
X180975000Y-64389000D03*
X180975000Y-79883000D03*
D60*
X184023000Y-66421000D03*
X184023000Y-77851000D03*
D61*
X157988000Y-65024000D03*
D62*
X160528000Y-65024000D03*
D12*
X180340000Y-58039000D03*
D63*
X178871000Y-46295000D03*
X177971000Y-46295000D03*
X177071000Y-46295000D03*
X176171000Y-46295000D03*
X175271000Y-46295000D03*
X174371000Y-46295000D03*
X173471000Y-46295000D03*
X172571000Y-46295000D03*
X171671000Y-46295000D03*
X170771000Y-46295000D03*
X169871000Y-46295000D03*
D64*
X168596000Y-47570000D03*
X168596000Y-48470000D03*
X168596000Y-49370000D03*
X168596000Y-50270000D03*
X168596000Y-51170000D03*
X168596000Y-52070000D03*
X168596000Y-52970000D03*
X168596000Y-53870000D03*
X168596000Y-54770000D03*
X168596000Y-55670000D03*
X168596000Y-56570000D03*
D63*
X169871000Y-57845000D03*
X170771000Y-57845000D03*
X171671000Y-57845000D03*
X172571000Y-57845000D03*
X173471000Y-57845000D03*
X174371000Y-57845000D03*
X175271000Y-57845000D03*
X176171000Y-57845000D03*
X177071000Y-57845000D03*
X177971000Y-57845000D03*
X178871000Y-57845000D03*
D64*
X180146000Y-56570000D03*
X180146000Y-55670000D03*
X180146000Y-54770000D03*
X180146000Y-53870000D03*
X180146000Y-52970000D03*
X180146000Y-52070000D03*
X180146000Y-51170000D03*
X180146000Y-50270000D03*
X180146000Y-49370000D03*
X180146000Y-48470000D03*
X180146000Y-47570000D03*
D12*
X168402000Y-46101000D03*
D34*
X103682800Y-81534000D03*
X103682800Y-89535000D03*
D65*
X174879000Y-84785000D03*
X174879000Y-81585000D03*
X165100000Y-91745000D03*
X165100000Y-94945000D03*
X160274000Y-91364000D03*
X160274000Y-94564000D03*
D66*
X157226000Y-83242000D03*
X157226000Y-80842000D03*
X163957000Y-77273000D03*
X163957000Y-74873000D03*
X168783000Y-77146000D03*
X168783000Y-74746000D03*
D67*
X184692000Y-58450000D03*
X184692000Y-57800000D03*
X184692000Y-57150000D03*
X184692000Y-56500000D03*
X184692000Y-55850000D03*
D68*
X185692000Y-59150000D03*
X185692000Y-55150000D03*
D69*
X188992000Y-58650000D03*
X188992000Y-55650000D03*
D70*
X187842000Y-60750000D03*
X184372000Y-60750000D03*
X184372000Y-53550000D03*
X187842000Y-53550000D03*
D19*
X112014000Y-86360000D03*
X112014000Y-85344000D03*
X115697000Y-87376000D03*
X115697000Y-86360000D03*
X118364000Y-87376000D03*
X118364000Y-86360000D03*
D17*
X116586000Y-88392000D03*
X115570000Y-88392000D03*
X117348000Y-88392000D03*
X118364000Y-88392000D03*
D34*
X101092000Y-84963000D03*
D71*
X182441000Y-95174000D03*
D72*
X188441000Y-95324000D03*
D73*
X185695000Y-90724000D03*
D14*
X114500000Y-96600000D03*
D30*
X115189000Y-92456000D03*
X114046000Y-92456000D03*
X112903000Y-92456000D03*
X115189000Y-89916000D03*
X114046000Y-89916000D03*
X112903000Y-89916000D03*
X115951000Y-75692000D03*
X114808000Y-75692000D03*
X113665000Y-75692000D03*
X115951000Y-73152000D03*
X114808000Y-73152000D03*
X113665000Y-73152000D03*
D14*
X113000000Y-40900000D03*
D60*
X171300000Y-40900000D03*
D15*
X166497000Y-45085000D03*
X164973000Y-45085000D03*
X177165000Y-97155000D03*
X177165000Y-98679000D03*
D74*
X107981000Y-78232000D03*
X101981000Y-78232000D03*
D75*
X104881000Y-72932000D03*
X104081000Y-83532000D03*
X107981000Y-72932000D03*
D76*
X108281000Y-83532000D03*
X101781000Y-72932000D03*
X101781000Y-87410000D03*
X108281000Y-98010000D03*
D75*
X107981000Y-87410000D03*
X104081000Y-98010000D03*
X104881000Y-87410000D03*
D74*
X101981000Y-92710000D03*
X107981000Y-92710000D03*
M02*
