G75*
G70*
%OFA0B0*%
%FSLAX24Y24*%
%IPPOS*%
%LPD*%
%AMOC8*
5,1,8,0,0,1.08239X$1,22.5*
%
%ADD10C,0.0631*%
%ADD11R,0.0740X0.0740*%
%ADD12R,0.0700X0.0700*%
%ADD13C,0.0700*%
%ADD14R,0.0278X0.0278*%
%ADD15R,0.1103X0.1103*%
%ADD16C,0.0740*%
%ADD17C,0.0571*%
%ADD18OC8,0.0571*%
%ADD19C,0.2040*%
%ADD20C,0.0788*%
%ADD21R,0.0640X0.0640*%
%ADD22C,0.0640*%
%ADD23C,0.0434*%
%ADD24O,0.1221X0.0631*%
%ADD25C,0.1306*%
%ADD26C,0.0440*%
%ADD27C,0.2205*%
D10*
X006653Y007771D03*
X006850Y007771D03*
X007047Y007771D03*
X007244Y007771D03*
X007441Y007771D03*
X007637Y007771D03*
X007834Y007771D03*
X008543Y008932D03*
X008543Y009129D03*
X008543Y009326D03*
X008543Y009523D03*
X008543Y009719D03*
X008543Y009916D03*
X008543Y010113D03*
X005984Y010113D03*
X005984Y009916D03*
X005984Y009719D03*
X005984Y009523D03*
X005984Y009326D03*
X005984Y009129D03*
X005984Y008932D03*
D11*
X034293Y008302D03*
X036343Y008302D03*
X044343Y008652D03*
X041343Y034152D03*
X041993Y036402D03*
D12*
X034743Y035402D03*
X011743Y035402D03*
X014853Y014972D03*
X006593Y013102D03*
X030743Y006402D03*
X038743Y006402D03*
D13*
X037743Y006402D03*
X036743Y006402D03*
X036743Y005402D03*
X037743Y005402D03*
X038743Y005402D03*
X035743Y005402D03*
X034743Y005402D03*
X034743Y006402D03*
X035743Y006402D03*
X030743Y005402D03*
X029743Y005402D03*
X028743Y005402D03*
X027743Y005402D03*
X026743Y005402D03*
X025743Y005402D03*
X024743Y005402D03*
X023743Y005402D03*
X022743Y005402D03*
X021743Y005402D03*
X020743Y005402D03*
X019743Y005402D03*
X018743Y005402D03*
X017743Y005402D03*
X016743Y005402D03*
X015743Y005402D03*
X014743Y005402D03*
X013743Y005402D03*
X012743Y005402D03*
X011743Y005402D03*
X011743Y006402D03*
X012743Y006402D03*
X013743Y006402D03*
X014743Y006402D03*
X015743Y006402D03*
X016743Y006402D03*
X017743Y006402D03*
X018743Y006402D03*
X019743Y006402D03*
X020743Y006402D03*
X021743Y006402D03*
X022743Y006402D03*
X023743Y006402D03*
X024743Y006402D03*
X025743Y006402D03*
X026743Y006402D03*
X027743Y006402D03*
X028743Y006402D03*
X029743Y006402D03*
X014853Y013572D03*
X007993Y013102D03*
X012743Y035402D03*
X013743Y035402D03*
X014743Y035402D03*
X015743Y035402D03*
X016743Y035402D03*
X017743Y035402D03*
X018743Y035402D03*
X019743Y035402D03*
X020743Y035402D03*
X021743Y035402D03*
X022743Y035402D03*
X023743Y035402D03*
X024743Y035402D03*
X025743Y035402D03*
X026743Y035402D03*
X027743Y035402D03*
X028743Y035402D03*
X029743Y035402D03*
X030743Y035402D03*
X030743Y036402D03*
X029743Y036402D03*
X028743Y036402D03*
X027743Y036402D03*
X026743Y036402D03*
X025743Y036402D03*
X024743Y036402D03*
X023743Y036402D03*
X022743Y036402D03*
X021743Y036402D03*
X020743Y036402D03*
X019743Y036402D03*
X018743Y036402D03*
X017743Y036402D03*
X016743Y036402D03*
X015743Y036402D03*
X014743Y036402D03*
X013743Y036402D03*
X012743Y036402D03*
X011743Y036402D03*
X034743Y036402D03*
X035743Y036402D03*
X035743Y035402D03*
X036743Y035402D03*
X037743Y035402D03*
X038743Y035402D03*
X038743Y036402D03*
X037743Y036402D03*
X036743Y036402D03*
D14*
X024457Y024496D03*
X024457Y024181D03*
X024772Y023866D03*
X025087Y023866D03*
X025087Y023079D03*
X024772Y023079D03*
X024457Y022764D03*
X024457Y022449D03*
X023669Y022449D03*
X023669Y022764D03*
X023354Y023079D03*
X023039Y023079D03*
X023039Y023866D03*
X023354Y023866D03*
X023669Y024181D03*
X023669Y024496D03*
D15*
X024063Y023472D03*
D16*
X031293Y008302D03*
X032293Y008302D03*
X033293Y008302D03*
X037343Y008302D03*
X038343Y008302D03*
X039343Y008302D03*
X040343Y008302D03*
X041343Y008302D03*
X044343Y007652D03*
X044343Y034152D03*
X043343Y034152D03*
X042343Y034152D03*
D17*
X041833Y029207D03*
X042833Y028757D03*
X042833Y027857D03*
X042833Y026957D03*
X042833Y026057D03*
X042833Y025157D03*
X041833Y025607D03*
X041833Y026507D03*
X041833Y027407D03*
X041833Y028307D03*
X040833Y027857D03*
X040833Y026957D03*
X040833Y026057D03*
X040833Y025157D03*
D18*
X040833Y028757D03*
D19*
X041833Y031972D03*
X041833Y022132D03*
D20*
X042731Y010571D03*
X039975Y010571D03*
D21*
X012783Y029192D03*
X011663Y018922D03*
D22*
X011663Y019922D03*
X012783Y028192D03*
D23*
X007243Y020419D03*
X007243Y018686D03*
D24*
X010010Y024124D03*
X010010Y025109D03*
X010010Y025896D03*
X010010Y026880D03*
D25*
X008943Y027892D03*
X008943Y023113D03*
D26*
X013993Y015152D03*
X013993Y014152D03*
X013993Y013152D03*
X013993Y012152D03*
X013993Y011152D03*
X013993Y010152D03*
X013993Y009152D03*
X013993Y008152D03*
D27*
X006792Y005452D03*
X006792Y036353D03*
X043694Y036353D03*
X043694Y005452D03*
M02*
