G75*
G70*
%OFA0B0*%
%FSLAX24Y24*%
%IPPOS*%
%LPD*%
%AMOC8*
5,1,8,0,0,1.08239X$1,22.5*
%
%ADD10C,0.0100*%
%ADD11C,0.0000*%
D10*
X005727Y007310D02*
X061727Y007310D01*
X061727Y039810D01*
X005727Y039810D01*
X005727Y007310D01*
D11*
X007497Y008560D02*
X007500Y008617D01*
X007507Y008674D01*
X007520Y008730D01*
X007538Y008784D01*
X007561Y008837D01*
X007589Y008887D01*
X007621Y008935D01*
X007657Y008979D01*
X007697Y009020D01*
X007741Y009058D01*
X007787Y009091D01*
X007837Y009119D01*
X007889Y009143D01*
X007943Y009163D01*
X007999Y009177D01*
X008055Y009186D01*
X008113Y009190D01*
X008170Y009189D01*
X008227Y009182D01*
X008283Y009170D01*
X008338Y009154D01*
X008391Y009132D01*
X008442Y009106D01*
X008490Y009075D01*
X008536Y009040D01*
X008578Y009000D01*
X008616Y008958D01*
X008650Y008911D01*
X008680Y008862D01*
X008705Y008811D01*
X008725Y008757D01*
X008741Y008702D01*
X008751Y008646D01*
X008756Y008589D01*
X008756Y008531D01*
X008751Y008474D01*
X008741Y008418D01*
X008725Y008363D01*
X008705Y008309D01*
X008680Y008258D01*
X008650Y008209D01*
X008616Y008162D01*
X008578Y008120D01*
X008536Y008080D01*
X008490Y008045D01*
X008442Y008014D01*
X008391Y007988D01*
X008338Y007966D01*
X008283Y007950D01*
X008227Y007938D01*
X008170Y007931D01*
X008113Y007930D01*
X008055Y007934D01*
X007999Y007943D01*
X007943Y007957D01*
X007889Y007977D01*
X007837Y008001D01*
X007787Y008029D01*
X007741Y008062D01*
X007697Y008100D01*
X007657Y008141D01*
X007621Y008185D01*
X007589Y008233D01*
X007561Y008283D01*
X007538Y008336D01*
X007520Y008390D01*
X007507Y008446D01*
X007500Y008503D01*
X007497Y008560D01*
X007497Y013060D02*
X007500Y013117D01*
X007507Y013174D01*
X007520Y013230D01*
X007538Y013284D01*
X007561Y013337D01*
X007589Y013387D01*
X007621Y013435D01*
X007657Y013479D01*
X007697Y013520D01*
X007741Y013558D01*
X007787Y013591D01*
X007837Y013619D01*
X007889Y013643D01*
X007943Y013663D01*
X007999Y013677D01*
X008055Y013686D01*
X008113Y013690D01*
X008170Y013689D01*
X008227Y013682D01*
X008283Y013670D01*
X008338Y013654D01*
X008391Y013632D01*
X008442Y013606D01*
X008490Y013575D01*
X008536Y013540D01*
X008578Y013500D01*
X008616Y013458D01*
X008650Y013411D01*
X008680Y013362D01*
X008705Y013311D01*
X008725Y013257D01*
X008741Y013202D01*
X008751Y013146D01*
X008756Y013089D01*
X008756Y013031D01*
X008751Y012974D01*
X008741Y012918D01*
X008725Y012863D01*
X008705Y012809D01*
X008680Y012758D01*
X008650Y012709D01*
X008616Y012662D01*
X008578Y012620D01*
X008536Y012580D01*
X008490Y012545D01*
X008442Y012514D01*
X008391Y012488D01*
X008338Y012466D01*
X008283Y012450D01*
X008227Y012438D01*
X008170Y012431D01*
X008113Y012430D01*
X008055Y012434D01*
X007999Y012443D01*
X007943Y012457D01*
X007889Y012477D01*
X007837Y012501D01*
X007787Y012529D01*
X007741Y012562D01*
X007697Y012600D01*
X007657Y012641D01*
X007621Y012685D01*
X007589Y012733D01*
X007561Y012783D01*
X007538Y012836D01*
X007520Y012890D01*
X007507Y012946D01*
X007500Y013003D01*
X007497Y013060D01*
X007230Y015797D02*
X007232Y015825D01*
X007238Y015853D01*
X007248Y015879D01*
X007261Y015904D01*
X007278Y015926D01*
X007298Y015946D01*
X007320Y015963D01*
X007345Y015976D01*
X007371Y015986D01*
X007399Y015992D01*
X007427Y015994D01*
X007455Y015992D01*
X007483Y015986D01*
X007509Y015976D01*
X007534Y015963D01*
X007556Y015946D01*
X007576Y015926D01*
X007593Y015904D01*
X007606Y015879D01*
X007616Y015853D01*
X007622Y015825D01*
X007624Y015797D01*
X007622Y015769D01*
X007616Y015741D01*
X007606Y015715D01*
X007593Y015690D01*
X007576Y015668D01*
X007556Y015648D01*
X007534Y015631D01*
X007509Y015618D01*
X007483Y015608D01*
X007455Y015602D01*
X007427Y015600D01*
X007399Y015602D01*
X007371Y015608D01*
X007345Y015618D01*
X007320Y015631D01*
X007298Y015648D01*
X007278Y015668D01*
X007261Y015690D01*
X007248Y015715D01*
X007238Y015741D01*
X007232Y015769D01*
X007230Y015797D01*
X007230Y017530D02*
X007232Y017558D01*
X007238Y017586D01*
X007248Y017612D01*
X007261Y017637D01*
X007278Y017659D01*
X007298Y017679D01*
X007320Y017696D01*
X007345Y017709D01*
X007371Y017719D01*
X007399Y017725D01*
X007427Y017727D01*
X007455Y017725D01*
X007483Y017719D01*
X007509Y017709D01*
X007534Y017696D01*
X007556Y017679D01*
X007576Y017659D01*
X007593Y017637D01*
X007606Y017612D01*
X007616Y017586D01*
X007622Y017558D01*
X007624Y017530D01*
X007622Y017502D01*
X007616Y017474D01*
X007606Y017448D01*
X007593Y017423D01*
X007576Y017401D01*
X007556Y017381D01*
X007534Y017364D01*
X007509Y017351D01*
X007483Y017341D01*
X007455Y017335D01*
X007427Y017333D01*
X007399Y017335D01*
X007371Y017341D01*
X007345Y017351D01*
X007320Y017364D01*
X007298Y017381D01*
X007278Y017401D01*
X007261Y017423D01*
X007248Y017448D01*
X007238Y017474D01*
X007232Y017502D01*
X007230Y017530D01*
X014912Y014560D02*
X014914Y014596D01*
X014920Y014631D01*
X014930Y014666D01*
X014944Y014699D01*
X014962Y014730D01*
X014983Y014759D01*
X015007Y014786D01*
X015035Y014809D01*
X015064Y014830D01*
X015096Y014847D01*
X015130Y014860D01*
X015164Y014869D01*
X015200Y014874D01*
X015236Y014875D01*
X015272Y014872D01*
X015307Y014865D01*
X015341Y014854D01*
X015374Y014839D01*
X015405Y014820D01*
X015433Y014798D01*
X015459Y014773D01*
X015482Y014745D01*
X015501Y014715D01*
X015517Y014683D01*
X015529Y014649D01*
X015537Y014614D01*
X015541Y014578D01*
X015541Y014542D01*
X015537Y014506D01*
X015529Y014471D01*
X015517Y014437D01*
X015501Y014405D01*
X015482Y014375D01*
X015459Y014347D01*
X015433Y014322D01*
X015405Y014300D01*
X015374Y014281D01*
X015341Y014266D01*
X015307Y014255D01*
X015272Y014248D01*
X015236Y014245D01*
X015200Y014246D01*
X015164Y014251D01*
X015130Y014260D01*
X015096Y014273D01*
X015064Y014290D01*
X015035Y014311D01*
X015007Y014334D01*
X014983Y014361D01*
X014962Y014390D01*
X014944Y014421D01*
X014930Y014454D01*
X014920Y014489D01*
X014914Y014524D01*
X014912Y014560D01*
X019912Y009560D02*
X019914Y009596D01*
X019920Y009631D01*
X019930Y009666D01*
X019944Y009699D01*
X019962Y009730D01*
X019983Y009759D01*
X020007Y009786D01*
X020035Y009809D01*
X020064Y009830D01*
X020096Y009847D01*
X020130Y009860D01*
X020164Y009869D01*
X020200Y009874D01*
X020236Y009875D01*
X020272Y009872D01*
X020307Y009865D01*
X020341Y009854D01*
X020374Y009839D01*
X020405Y009820D01*
X020433Y009798D01*
X020459Y009773D01*
X020482Y009745D01*
X020501Y009715D01*
X020517Y009683D01*
X020529Y009649D01*
X020537Y009614D01*
X020541Y009578D01*
X020541Y009542D01*
X020537Y009506D01*
X020529Y009471D01*
X020517Y009437D01*
X020501Y009405D01*
X020482Y009375D01*
X020459Y009347D01*
X020433Y009322D01*
X020405Y009300D01*
X020374Y009281D01*
X020341Y009266D01*
X020307Y009255D01*
X020272Y009248D01*
X020236Y009245D01*
X020200Y009246D01*
X020164Y009251D01*
X020130Y009260D01*
X020096Y009273D01*
X020064Y009290D01*
X020035Y009311D01*
X020007Y009334D01*
X019983Y009361D01*
X019962Y009390D01*
X019944Y009421D01*
X019930Y009454D01*
X019920Y009489D01*
X019914Y009524D01*
X019912Y009560D01*
X021070Y008610D02*
X021072Y008635D01*
X021078Y008660D01*
X021088Y008683D01*
X021101Y008704D01*
X021118Y008723D01*
X021138Y008739D01*
X021160Y008752D01*
X021183Y008761D01*
X021208Y008766D01*
X021233Y008767D01*
X021258Y008764D01*
X021283Y008757D01*
X021305Y008746D01*
X021326Y008732D01*
X021345Y008714D01*
X021360Y008694D01*
X021371Y008672D01*
X021379Y008648D01*
X021383Y008623D01*
X021383Y008597D01*
X021379Y008572D01*
X021371Y008548D01*
X021360Y008526D01*
X021345Y008506D01*
X021326Y008488D01*
X021306Y008474D01*
X021283Y008463D01*
X021258Y008456D01*
X021233Y008453D01*
X021208Y008454D01*
X021183Y008459D01*
X021160Y008468D01*
X021138Y008481D01*
X021118Y008497D01*
X021101Y008516D01*
X021088Y008537D01*
X021078Y008560D01*
X021072Y008585D01*
X021070Y008610D01*
X021070Y007560D02*
X021072Y007585D01*
X021078Y007610D01*
X021088Y007633D01*
X021101Y007654D01*
X021118Y007673D01*
X021138Y007689D01*
X021160Y007702D01*
X021183Y007711D01*
X021208Y007716D01*
X021233Y007717D01*
X021258Y007714D01*
X021283Y007707D01*
X021305Y007696D01*
X021326Y007682D01*
X021345Y007664D01*
X021360Y007644D01*
X021371Y007622D01*
X021379Y007598D01*
X021383Y007573D01*
X021383Y007547D01*
X021379Y007522D01*
X021371Y007498D01*
X021360Y007476D01*
X021345Y007456D01*
X021326Y007438D01*
X021306Y007424D01*
X021283Y007413D01*
X021258Y007406D01*
X021233Y007403D01*
X021208Y007404D01*
X021183Y007409D01*
X021160Y007418D01*
X021138Y007431D01*
X021118Y007447D01*
X021101Y007466D01*
X021088Y007487D01*
X021078Y007510D01*
X021072Y007535D01*
X021070Y007560D01*
X025070Y007560D02*
X025072Y007585D01*
X025078Y007610D01*
X025088Y007633D01*
X025101Y007654D01*
X025118Y007673D01*
X025138Y007689D01*
X025160Y007702D01*
X025183Y007711D01*
X025208Y007716D01*
X025233Y007717D01*
X025258Y007714D01*
X025283Y007707D01*
X025305Y007696D01*
X025326Y007682D01*
X025345Y007664D01*
X025360Y007644D01*
X025371Y007622D01*
X025379Y007598D01*
X025383Y007573D01*
X025383Y007547D01*
X025379Y007522D01*
X025371Y007498D01*
X025360Y007476D01*
X025345Y007456D01*
X025326Y007438D01*
X025306Y007424D01*
X025283Y007413D01*
X025258Y007406D01*
X025233Y007403D01*
X025208Y007404D01*
X025183Y007409D01*
X025160Y007418D01*
X025138Y007431D01*
X025118Y007447D01*
X025101Y007466D01*
X025088Y007487D01*
X025078Y007510D01*
X025072Y007535D01*
X025070Y007560D01*
X025070Y008610D02*
X025072Y008635D01*
X025078Y008660D01*
X025088Y008683D01*
X025101Y008704D01*
X025118Y008723D01*
X025138Y008739D01*
X025160Y008752D01*
X025183Y008761D01*
X025208Y008766D01*
X025233Y008767D01*
X025258Y008764D01*
X025283Y008757D01*
X025305Y008746D01*
X025326Y008732D01*
X025345Y008714D01*
X025360Y008694D01*
X025371Y008672D01*
X025379Y008648D01*
X025383Y008623D01*
X025383Y008597D01*
X025379Y008572D01*
X025371Y008548D01*
X025360Y008526D01*
X025345Y008506D01*
X025326Y008488D01*
X025306Y008474D01*
X025283Y008463D01*
X025258Y008456D01*
X025233Y008453D01*
X025208Y008454D01*
X025183Y008459D01*
X025160Y008468D01*
X025138Y008481D01*
X025118Y008497D01*
X025101Y008516D01*
X025088Y008537D01*
X025078Y008560D01*
X025072Y008585D01*
X025070Y008610D01*
X029070Y008610D02*
X029072Y008635D01*
X029078Y008660D01*
X029088Y008683D01*
X029101Y008704D01*
X029118Y008723D01*
X029138Y008739D01*
X029160Y008752D01*
X029183Y008761D01*
X029208Y008766D01*
X029233Y008767D01*
X029258Y008764D01*
X029283Y008757D01*
X029305Y008746D01*
X029326Y008732D01*
X029345Y008714D01*
X029360Y008694D01*
X029371Y008672D01*
X029379Y008648D01*
X029383Y008623D01*
X029383Y008597D01*
X029379Y008572D01*
X029371Y008548D01*
X029360Y008526D01*
X029345Y008506D01*
X029326Y008488D01*
X029306Y008474D01*
X029283Y008463D01*
X029258Y008456D01*
X029233Y008453D01*
X029208Y008454D01*
X029183Y008459D01*
X029160Y008468D01*
X029138Y008481D01*
X029118Y008497D01*
X029101Y008516D01*
X029088Y008537D01*
X029078Y008560D01*
X029072Y008585D01*
X029070Y008610D01*
X029070Y007560D02*
X029072Y007585D01*
X029078Y007610D01*
X029088Y007633D01*
X029101Y007654D01*
X029118Y007673D01*
X029138Y007689D01*
X029160Y007702D01*
X029183Y007711D01*
X029208Y007716D01*
X029233Y007717D01*
X029258Y007714D01*
X029283Y007707D01*
X029305Y007696D01*
X029326Y007682D01*
X029345Y007664D01*
X029360Y007644D01*
X029371Y007622D01*
X029379Y007598D01*
X029383Y007573D01*
X029383Y007547D01*
X029379Y007522D01*
X029371Y007498D01*
X029360Y007476D01*
X029345Y007456D01*
X029326Y007438D01*
X029306Y007424D01*
X029283Y007413D01*
X029258Y007406D01*
X029233Y007403D01*
X029208Y007404D01*
X029183Y007409D01*
X029160Y007418D01*
X029138Y007431D01*
X029118Y007447D01*
X029101Y007466D01*
X029088Y007487D01*
X029078Y007510D01*
X029072Y007535D01*
X029070Y007560D01*
X033070Y007560D02*
X033072Y007585D01*
X033078Y007610D01*
X033088Y007633D01*
X033101Y007654D01*
X033118Y007673D01*
X033138Y007689D01*
X033160Y007702D01*
X033183Y007711D01*
X033208Y007716D01*
X033233Y007717D01*
X033258Y007714D01*
X033283Y007707D01*
X033305Y007696D01*
X033326Y007682D01*
X033345Y007664D01*
X033360Y007644D01*
X033371Y007622D01*
X033379Y007598D01*
X033383Y007573D01*
X033383Y007547D01*
X033379Y007522D01*
X033371Y007498D01*
X033360Y007476D01*
X033345Y007456D01*
X033326Y007438D01*
X033306Y007424D01*
X033283Y007413D01*
X033258Y007406D01*
X033233Y007403D01*
X033208Y007404D01*
X033183Y007409D01*
X033160Y007418D01*
X033138Y007431D01*
X033118Y007447D01*
X033101Y007466D01*
X033088Y007487D01*
X033078Y007510D01*
X033072Y007535D01*
X033070Y007560D01*
X033070Y008610D02*
X033072Y008635D01*
X033078Y008660D01*
X033088Y008683D01*
X033101Y008704D01*
X033118Y008723D01*
X033138Y008739D01*
X033160Y008752D01*
X033183Y008761D01*
X033208Y008766D01*
X033233Y008767D01*
X033258Y008764D01*
X033283Y008757D01*
X033305Y008746D01*
X033326Y008732D01*
X033345Y008714D01*
X033360Y008694D01*
X033371Y008672D01*
X033379Y008648D01*
X033383Y008623D01*
X033383Y008597D01*
X033379Y008572D01*
X033371Y008548D01*
X033360Y008526D01*
X033345Y008506D01*
X033326Y008488D01*
X033306Y008474D01*
X033283Y008463D01*
X033258Y008456D01*
X033233Y008453D01*
X033208Y008454D01*
X033183Y008459D01*
X033160Y008468D01*
X033138Y008481D01*
X033118Y008497D01*
X033101Y008516D01*
X033088Y008537D01*
X033078Y008560D01*
X033072Y008585D01*
X033070Y008610D01*
X037070Y008610D02*
X037072Y008635D01*
X037078Y008660D01*
X037088Y008683D01*
X037101Y008704D01*
X037118Y008723D01*
X037138Y008739D01*
X037160Y008752D01*
X037183Y008761D01*
X037208Y008766D01*
X037233Y008767D01*
X037258Y008764D01*
X037283Y008757D01*
X037305Y008746D01*
X037326Y008732D01*
X037345Y008714D01*
X037360Y008694D01*
X037371Y008672D01*
X037379Y008648D01*
X037383Y008623D01*
X037383Y008597D01*
X037379Y008572D01*
X037371Y008548D01*
X037360Y008526D01*
X037345Y008506D01*
X037326Y008488D01*
X037306Y008474D01*
X037283Y008463D01*
X037258Y008456D01*
X037233Y008453D01*
X037208Y008454D01*
X037183Y008459D01*
X037160Y008468D01*
X037138Y008481D01*
X037118Y008497D01*
X037101Y008516D01*
X037088Y008537D01*
X037078Y008560D01*
X037072Y008585D01*
X037070Y008610D01*
X037912Y009560D02*
X037914Y009596D01*
X037920Y009631D01*
X037930Y009666D01*
X037944Y009699D01*
X037962Y009730D01*
X037983Y009759D01*
X038007Y009786D01*
X038035Y009809D01*
X038064Y009830D01*
X038096Y009847D01*
X038130Y009860D01*
X038164Y009869D01*
X038200Y009874D01*
X038236Y009875D01*
X038272Y009872D01*
X038307Y009865D01*
X038341Y009854D01*
X038374Y009839D01*
X038405Y009820D01*
X038433Y009798D01*
X038459Y009773D01*
X038482Y009745D01*
X038501Y009715D01*
X038517Y009683D01*
X038529Y009649D01*
X038537Y009614D01*
X038541Y009578D01*
X038541Y009542D01*
X038537Y009506D01*
X038529Y009471D01*
X038517Y009437D01*
X038501Y009405D01*
X038482Y009375D01*
X038459Y009347D01*
X038433Y009322D01*
X038405Y009300D01*
X038374Y009281D01*
X038341Y009266D01*
X038307Y009255D01*
X038272Y009248D01*
X038236Y009245D01*
X038200Y009246D01*
X038164Y009251D01*
X038130Y009260D01*
X038096Y009273D01*
X038064Y009290D01*
X038035Y009311D01*
X038007Y009334D01*
X037983Y009361D01*
X037962Y009390D01*
X037944Y009421D01*
X037930Y009454D01*
X037920Y009489D01*
X037914Y009524D01*
X037912Y009560D01*
X037070Y007560D02*
X037072Y007585D01*
X037078Y007610D01*
X037088Y007633D01*
X037101Y007654D01*
X037118Y007673D01*
X037138Y007689D01*
X037160Y007702D01*
X037183Y007711D01*
X037208Y007716D01*
X037233Y007717D01*
X037258Y007714D01*
X037283Y007707D01*
X037305Y007696D01*
X037326Y007682D01*
X037345Y007664D01*
X037360Y007644D01*
X037371Y007622D01*
X037379Y007598D01*
X037383Y007573D01*
X037383Y007547D01*
X037379Y007522D01*
X037371Y007498D01*
X037360Y007476D01*
X037345Y007456D01*
X037326Y007438D01*
X037306Y007424D01*
X037283Y007413D01*
X037258Y007406D01*
X037233Y007403D01*
X037208Y007404D01*
X037183Y007409D01*
X037160Y007418D01*
X037138Y007431D01*
X037118Y007447D01*
X037101Y007466D01*
X037088Y007487D01*
X037078Y007510D01*
X037072Y007535D01*
X037070Y007560D01*
X041070Y007560D02*
X041072Y007585D01*
X041078Y007610D01*
X041088Y007633D01*
X041101Y007654D01*
X041118Y007673D01*
X041138Y007689D01*
X041160Y007702D01*
X041183Y007711D01*
X041208Y007716D01*
X041233Y007717D01*
X041258Y007714D01*
X041283Y007707D01*
X041305Y007696D01*
X041326Y007682D01*
X041345Y007664D01*
X041360Y007644D01*
X041371Y007622D01*
X041379Y007598D01*
X041383Y007573D01*
X041383Y007547D01*
X041379Y007522D01*
X041371Y007498D01*
X041360Y007476D01*
X041345Y007456D01*
X041326Y007438D01*
X041306Y007424D01*
X041283Y007413D01*
X041258Y007406D01*
X041233Y007403D01*
X041208Y007404D01*
X041183Y007409D01*
X041160Y007418D01*
X041138Y007431D01*
X041118Y007447D01*
X041101Y007466D01*
X041088Y007487D01*
X041078Y007510D01*
X041072Y007535D01*
X041070Y007560D01*
X041070Y008610D02*
X041072Y008635D01*
X041078Y008660D01*
X041088Y008683D01*
X041101Y008704D01*
X041118Y008723D01*
X041138Y008739D01*
X041160Y008752D01*
X041183Y008761D01*
X041208Y008766D01*
X041233Y008767D01*
X041258Y008764D01*
X041283Y008757D01*
X041305Y008746D01*
X041326Y008732D01*
X041345Y008714D01*
X041360Y008694D01*
X041371Y008672D01*
X041379Y008648D01*
X041383Y008623D01*
X041383Y008597D01*
X041379Y008572D01*
X041371Y008548D01*
X041360Y008526D01*
X041345Y008506D01*
X041326Y008488D01*
X041306Y008474D01*
X041283Y008463D01*
X041258Y008456D01*
X041233Y008453D01*
X041208Y008454D01*
X041183Y008459D01*
X041160Y008468D01*
X041138Y008481D01*
X041118Y008497D01*
X041101Y008516D01*
X041088Y008537D01*
X041078Y008560D01*
X041072Y008585D01*
X041070Y008610D01*
X042912Y009560D02*
X042914Y009596D01*
X042920Y009631D01*
X042930Y009666D01*
X042944Y009699D01*
X042962Y009730D01*
X042983Y009759D01*
X043007Y009786D01*
X043035Y009809D01*
X043064Y009830D01*
X043096Y009847D01*
X043130Y009860D01*
X043164Y009869D01*
X043200Y009874D01*
X043236Y009875D01*
X043272Y009872D01*
X043307Y009865D01*
X043341Y009854D01*
X043374Y009839D01*
X043405Y009820D01*
X043433Y009798D01*
X043459Y009773D01*
X043482Y009745D01*
X043501Y009715D01*
X043517Y009683D01*
X043529Y009649D01*
X043537Y009614D01*
X043541Y009578D01*
X043541Y009542D01*
X043537Y009506D01*
X043529Y009471D01*
X043517Y009437D01*
X043501Y009405D01*
X043482Y009375D01*
X043459Y009347D01*
X043433Y009322D01*
X043405Y009300D01*
X043374Y009281D01*
X043341Y009266D01*
X043307Y009255D01*
X043272Y009248D01*
X043236Y009245D01*
X043200Y009246D01*
X043164Y009251D01*
X043130Y009260D01*
X043096Y009273D01*
X043064Y009290D01*
X043035Y009311D01*
X043007Y009334D01*
X042983Y009361D01*
X042962Y009390D01*
X042944Y009421D01*
X042930Y009454D01*
X042920Y009489D01*
X042914Y009524D01*
X042912Y009560D01*
X045070Y008610D02*
X045072Y008635D01*
X045078Y008660D01*
X045088Y008683D01*
X045101Y008704D01*
X045118Y008723D01*
X045138Y008739D01*
X045160Y008752D01*
X045183Y008761D01*
X045208Y008766D01*
X045233Y008767D01*
X045258Y008764D01*
X045283Y008757D01*
X045305Y008746D01*
X045326Y008732D01*
X045345Y008714D01*
X045360Y008694D01*
X045371Y008672D01*
X045379Y008648D01*
X045383Y008623D01*
X045383Y008597D01*
X045379Y008572D01*
X045371Y008548D01*
X045360Y008526D01*
X045345Y008506D01*
X045326Y008488D01*
X045306Y008474D01*
X045283Y008463D01*
X045258Y008456D01*
X045233Y008453D01*
X045208Y008454D01*
X045183Y008459D01*
X045160Y008468D01*
X045138Y008481D01*
X045118Y008497D01*
X045101Y008516D01*
X045088Y008537D01*
X045078Y008560D01*
X045072Y008585D01*
X045070Y008610D01*
X045912Y009560D02*
X045914Y009596D01*
X045920Y009631D01*
X045930Y009666D01*
X045944Y009699D01*
X045962Y009730D01*
X045983Y009759D01*
X046007Y009786D01*
X046035Y009809D01*
X046064Y009830D01*
X046096Y009847D01*
X046130Y009860D01*
X046164Y009869D01*
X046200Y009874D01*
X046236Y009875D01*
X046272Y009872D01*
X046307Y009865D01*
X046341Y009854D01*
X046374Y009839D01*
X046405Y009820D01*
X046433Y009798D01*
X046459Y009773D01*
X046482Y009745D01*
X046501Y009715D01*
X046517Y009683D01*
X046529Y009649D01*
X046537Y009614D01*
X046541Y009578D01*
X046541Y009542D01*
X046537Y009506D01*
X046529Y009471D01*
X046517Y009437D01*
X046501Y009405D01*
X046482Y009375D01*
X046459Y009347D01*
X046433Y009322D01*
X046405Y009300D01*
X046374Y009281D01*
X046341Y009266D01*
X046307Y009255D01*
X046272Y009248D01*
X046236Y009245D01*
X046200Y009246D01*
X046164Y009251D01*
X046130Y009260D01*
X046096Y009273D01*
X046064Y009290D01*
X046035Y009311D01*
X046007Y009334D01*
X045983Y009361D01*
X045962Y009390D01*
X045944Y009421D01*
X045930Y009454D01*
X045920Y009489D01*
X045914Y009524D01*
X045912Y009560D01*
X045070Y007560D02*
X045072Y007585D01*
X045078Y007610D01*
X045088Y007633D01*
X045101Y007654D01*
X045118Y007673D01*
X045138Y007689D01*
X045160Y007702D01*
X045183Y007711D01*
X045208Y007716D01*
X045233Y007717D01*
X045258Y007714D01*
X045283Y007707D01*
X045305Y007696D01*
X045326Y007682D01*
X045345Y007664D01*
X045360Y007644D01*
X045371Y007622D01*
X045379Y007598D01*
X045383Y007573D01*
X045383Y007547D01*
X045379Y007522D01*
X045371Y007498D01*
X045360Y007476D01*
X045345Y007456D01*
X045326Y007438D01*
X045306Y007424D01*
X045283Y007413D01*
X045258Y007406D01*
X045233Y007403D01*
X045208Y007404D01*
X045183Y007409D01*
X045160Y007418D01*
X045138Y007431D01*
X045118Y007447D01*
X045101Y007466D01*
X045088Y007487D01*
X045078Y007510D01*
X045072Y007535D01*
X045070Y007560D01*
X050912Y014560D02*
X050914Y014596D01*
X050920Y014631D01*
X050930Y014666D01*
X050944Y014699D01*
X050962Y014730D01*
X050983Y014759D01*
X051007Y014786D01*
X051035Y014809D01*
X051064Y014830D01*
X051096Y014847D01*
X051130Y014860D01*
X051164Y014869D01*
X051200Y014874D01*
X051236Y014875D01*
X051272Y014872D01*
X051307Y014865D01*
X051341Y014854D01*
X051374Y014839D01*
X051405Y014820D01*
X051433Y014798D01*
X051459Y014773D01*
X051482Y014745D01*
X051501Y014715D01*
X051517Y014683D01*
X051529Y014649D01*
X051537Y014614D01*
X051541Y014578D01*
X051541Y014542D01*
X051537Y014506D01*
X051529Y014471D01*
X051517Y014437D01*
X051501Y014405D01*
X051482Y014375D01*
X051459Y014347D01*
X051433Y014322D01*
X051405Y014300D01*
X051374Y014281D01*
X051341Y014266D01*
X051307Y014255D01*
X051272Y014248D01*
X051236Y014245D01*
X051200Y014246D01*
X051164Y014251D01*
X051130Y014260D01*
X051096Y014273D01*
X051064Y014290D01*
X051035Y014311D01*
X051007Y014334D01*
X050983Y014361D01*
X050962Y014390D01*
X050944Y014421D01*
X050930Y014454D01*
X050920Y014489D01*
X050914Y014524D01*
X050912Y014560D01*
X055970Y008610D02*
X055972Y008635D01*
X055978Y008660D01*
X055988Y008683D01*
X056001Y008704D01*
X056018Y008723D01*
X056038Y008739D01*
X056060Y008752D01*
X056083Y008761D01*
X056108Y008766D01*
X056133Y008767D01*
X056158Y008764D01*
X056183Y008757D01*
X056205Y008746D01*
X056226Y008732D01*
X056245Y008714D01*
X056260Y008694D01*
X056271Y008672D01*
X056279Y008648D01*
X056283Y008623D01*
X056283Y008597D01*
X056279Y008572D01*
X056271Y008548D01*
X056260Y008526D01*
X056245Y008506D01*
X056226Y008488D01*
X056206Y008474D01*
X056183Y008463D01*
X056158Y008456D01*
X056133Y008453D01*
X056108Y008454D01*
X056083Y008459D01*
X056060Y008468D01*
X056038Y008481D01*
X056018Y008497D01*
X056001Y008516D01*
X055988Y008537D01*
X055978Y008560D01*
X055972Y008585D01*
X055970Y008610D01*
X055970Y007560D02*
X055972Y007585D01*
X055978Y007610D01*
X055988Y007633D01*
X056001Y007654D01*
X056018Y007673D01*
X056038Y007689D01*
X056060Y007702D01*
X056083Y007711D01*
X056108Y007716D01*
X056133Y007717D01*
X056158Y007714D01*
X056183Y007707D01*
X056205Y007696D01*
X056226Y007682D01*
X056245Y007664D01*
X056260Y007644D01*
X056271Y007622D01*
X056279Y007598D01*
X056283Y007573D01*
X056283Y007547D01*
X056279Y007522D01*
X056271Y007498D01*
X056260Y007476D01*
X056245Y007456D01*
X056226Y007438D01*
X056206Y007424D01*
X056183Y007413D01*
X056158Y007406D01*
X056133Y007403D01*
X056108Y007404D01*
X056083Y007409D01*
X056060Y007418D01*
X056038Y007431D01*
X056018Y007447D01*
X056001Y007466D01*
X055988Y007487D01*
X055978Y007510D01*
X055972Y007535D01*
X055970Y007560D01*
X059314Y024446D02*
X059316Y024482D01*
X059322Y024517D01*
X059332Y024552D01*
X059346Y024585D01*
X059364Y024616D01*
X059385Y024645D01*
X059409Y024672D01*
X059437Y024695D01*
X059466Y024716D01*
X059498Y024733D01*
X059532Y024746D01*
X059566Y024755D01*
X059602Y024760D01*
X059638Y024761D01*
X059674Y024758D01*
X059709Y024751D01*
X059743Y024740D01*
X059776Y024725D01*
X059807Y024706D01*
X059835Y024684D01*
X059861Y024659D01*
X059884Y024631D01*
X059903Y024601D01*
X059919Y024569D01*
X059931Y024535D01*
X059939Y024500D01*
X059943Y024464D01*
X059943Y024428D01*
X059939Y024392D01*
X059931Y024357D01*
X059919Y024323D01*
X059903Y024291D01*
X059884Y024261D01*
X059861Y024233D01*
X059835Y024208D01*
X059807Y024186D01*
X059776Y024167D01*
X059743Y024152D01*
X059709Y024141D01*
X059674Y024134D01*
X059638Y024131D01*
X059602Y024132D01*
X059566Y024137D01*
X059532Y024146D01*
X059498Y024159D01*
X059466Y024176D01*
X059437Y024197D01*
X059409Y024220D01*
X059385Y024247D01*
X059364Y024276D01*
X059346Y024307D01*
X059332Y024340D01*
X059322Y024375D01*
X059316Y024410D01*
X059314Y024446D01*
X059021Y026549D02*
X059023Y026588D01*
X059029Y026627D01*
X059039Y026665D01*
X059053Y026701D01*
X059071Y026736D01*
X059092Y026769D01*
X059117Y026799D01*
X059145Y026827D01*
X059175Y026852D01*
X059208Y026873D01*
X059243Y026891D01*
X059279Y026905D01*
X059317Y026915D01*
X059356Y026921D01*
X059395Y026923D01*
X059434Y026921D01*
X059473Y026915D01*
X059511Y026905D01*
X059547Y026891D01*
X059582Y026873D01*
X059615Y026852D01*
X059645Y026827D01*
X059673Y026799D01*
X059698Y026769D01*
X059719Y026736D01*
X059737Y026701D01*
X059751Y026665D01*
X059761Y026627D01*
X059767Y026588D01*
X059769Y026549D01*
X059767Y026510D01*
X059761Y026471D01*
X059751Y026433D01*
X059737Y026397D01*
X059719Y026362D01*
X059698Y026329D01*
X059673Y026299D01*
X059645Y026271D01*
X059615Y026246D01*
X059582Y026225D01*
X059547Y026207D01*
X059511Y026193D01*
X059473Y026183D01*
X059434Y026177D01*
X059395Y026175D01*
X059356Y026177D01*
X059317Y026183D01*
X059279Y026193D01*
X059243Y026207D01*
X059208Y026225D01*
X059175Y026246D01*
X059145Y026271D01*
X059117Y026299D01*
X059092Y026329D01*
X059071Y026362D01*
X059053Y026397D01*
X059039Y026433D01*
X059029Y026471D01*
X059023Y026510D01*
X059021Y026549D01*
X056265Y026549D02*
X056267Y026588D01*
X056273Y026627D01*
X056283Y026665D01*
X056297Y026701D01*
X056315Y026736D01*
X056336Y026769D01*
X056361Y026799D01*
X056389Y026827D01*
X056419Y026852D01*
X056452Y026873D01*
X056487Y026891D01*
X056523Y026905D01*
X056561Y026915D01*
X056600Y026921D01*
X056639Y026923D01*
X056678Y026921D01*
X056717Y026915D01*
X056755Y026905D01*
X056791Y026891D01*
X056826Y026873D01*
X056859Y026852D01*
X056889Y026827D01*
X056917Y026799D01*
X056942Y026769D01*
X056963Y026736D01*
X056981Y026701D01*
X056995Y026665D01*
X057005Y026627D01*
X057011Y026588D01*
X057013Y026549D01*
X057011Y026510D01*
X057005Y026471D01*
X056995Y026433D01*
X056981Y026397D01*
X056963Y026362D01*
X056942Y026329D01*
X056917Y026299D01*
X056889Y026271D01*
X056859Y026246D01*
X056826Y026225D01*
X056791Y026207D01*
X056755Y026193D01*
X056717Y026183D01*
X056678Y026177D01*
X056639Y026175D01*
X056600Y026177D01*
X056561Y026183D01*
X056523Y026193D01*
X056487Y026207D01*
X056452Y026225D01*
X056419Y026246D01*
X056389Y026271D01*
X056361Y026299D01*
X056336Y026329D01*
X056315Y026362D01*
X056297Y026397D01*
X056283Y026433D01*
X056273Y026471D01*
X056267Y026510D01*
X056265Y026549D01*
X056265Y030649D02*
X056267Y030688D01*
X056273Y030727D01*
X056283Y030765D01*
X056297Y030801D01*
X056315Y030836D01*
X056336Y030869D01*
X056361Y030899D01*
X056389Y030927D01*
X056419Y030952D01*
X056452Y030973D01*
X056487Y030991D01*
X056523Y031005D01*
X056561Y031015D01*
X056600Y031021D01*
X056639Y031023D01*
X056678Y031021D01*
X056717Y031015D01*
X056755Y031005D01*
X056791Y030991D01*
X056826Y030973D01*
X056859Y030952D01*
X056889Y030927D01*
X056917Y030899D01*
X056942Y030869D01*
X056963Y030836D01*
X056981Y030801D01*
X056995Y030765D01*
X057005Y030727D01*
X057011Y030688D01*
X057013Y030649D01*
X057011Y030610D01*
X057005Y030571D01*
X056995Y030533D01*
X056981Y030497D01*
X056963Y030462D01*
X056942Y030429D01*
X056917Y030399D01*
X056889Y030371D01*
X056859Y030346D01*
X056826Y030325D01*
X056791Y030307D01*
X056755Y030293D01*
X056717Y030283D01*
X056678Y030277D01*
X056639Y030275D01*
X056600Y030277D01*
X056561Y030283D01*
X056523Y030293D01*
X056487Y030307D01*
X056452Y030325D01*
X056419Y030346D01*
X056389Y030371D01*
X056361Y030399D01*
X056336Y030429D01*
X056315Y030462D01*
X056297Y030497D01*
X056283Y030533D01*
X056273Y030571D01*
X056267Y030610D01*
X056265Y030649D01*
X059021Y030649D02*
X059023Y030688D01*
X059029Y030727D01*
X059039Y030765D01*
X059053Y030801D01*
X059071Y030836D01*
X059092Y030869D01*
X059117Y030899D01*
X059145Y030927D01*
X059175Y030952D01*
X059208Y030973D01*
X059243Y030991D01*
X059279Y031005D01*
X059317Y031015D01*
X059356Y031021D01*
X059395Y031023D01*
X059434Y031021D01*
X059473Y031015D01*
X059511Y031005D01*
X059547Y030991D01*
X059582Y030973D01*
X059615Y030952D01*
X059645Y030927D01*
X059673Y030899D01*
X059698Y030869D01*
X059719Y030836D01*
X059737Y030801D01*
X059751Y030765D01*
X059761Y030727D01*
X059767Y030688D01*
X059769Y030649D01*
X059767Y030610D01*
X059761Y030571D01*
X059751Y030533D01*
X059737Y030497D01*
X059719Y030462D01*
X059698Y030429D01*
X059673Y030399D01*
X059645Y030371D01*
X059615Y030346D01*
X059582Y030325D01*
X059547Y030307D01*
X059511Y030293D01*
X059473Y030283D01*
X059434Y030277D01*
X059395Y030275D01*
X059356Y030277D01*
X059317Y030283D01*
X059279Y030293D01*
X059243Y030307D01*
X059208Y030325D01*
X059175Y030346D01*
X059145Y030371D01*
X059117Y030399D01*
X059092Y030429D01*
X059071Y030462D01*
X059053Y030497D01*
X059039Y030533D01*
X059029Y030571D01*
X059023Y030610D01*
X059021Y030649D01*
X059314Y033970D02*
X059316Y034006D01*
X059322Y034041D01*
X059332Y034076D01*
X059346Y034109D01*
X059364Y034140D01*
X059385Y034169D01*
X059409Y034196D01*
X059437Y034219D01*
X059466Y034240D01*
X059498Y034257D01*
X059532Y034270D01*
X059566Y034279D01*
X059602Y034284D01*
X059638Y034285D01*
X059674Y034282D01*
X059709Y034275D01*
X059743Y034264D01*
X059776Y034249D01*
X059807Y034230D01*
X059835Y034208D01*
X059861Y034183D01*
X059884Y034155D01*
X059903Y034125D01*
X059919Y034093D01*
X059931Y034059D01*
X059939Y034024D01*
X059943Y033988D01*
X059943Y033952D01*
X059939Y033916D01*
X059931Y033881D01*
X059919Y033847D01*
X059903Y033815D01*
X059884Y033785D01*
X059861Y033757D01*
X059835Y033732D01*
X059807Y033710D01*
X059776Y033691D01*
X059743Y033676D01*
X059709Y033665D01*
X059674Y033658D01*
X059638Y033655D01*
X059602Y033656D01*
X059566Y033661D01*
X059532Y033670D01*
X059498Y033683D01*
X059466Y033700D01*
X059437Y033721D01*
X059409Y033744D01*
X059385Y033771D01*
X059364Y033800D01*
X059346Y033831D01*
X059332Y033864D01*
X059322Y033899D01*
X059316Y033934D01*
X059314Y033970D01*
X059464Y034510D02*
X059466Y034538D01*
X059472Y034566D01*
X059482Y034592D01*
X059495Y034617D01*
X059512Y034639D01*
X059532Y034659D01*
X059554Y034676D01*
X059579Y034689D01*
X059605Y034699D01*
X059633Y034705D01*
X059661Y034707D01*
X059689Y034705D01*
X059717Y034699D01*
X059743Y034689D01*
X059768Y034676D01*
X059790Y034659D01*
X059810Y034639D01*
X059827Y034617D01*
X059840Y034592D01*
X059850Y034566D01*
X059856Y034538D01*
X059858Y034510D01*
X059856Y034482D01*
X059850Y034454D01*
X059840Y034428D01*
X059827Y034403D01*
X059810Y034381D01*
X059790Y034361D01*
X059768Y034344D01*
X059743Y034331D01*
X059717Y034321D01*
X059689Y034315D01*
X059661Y034313D01*
X059633Y034315D01*
X059605Y034321D01*
X059579Y034331D01*
X059554Y034344D01*
X059532Y034361D01*
X059512Y034381D01*
X059495Y034403D01*
X059482Y034428D01*
X059472Y034454D01*
X059466Y034482D01*
X059464Y034510D01*
X059464Y037660D02*
X059466Y037688D01*
X059472Y037716D01*
X059482Y037742D01*
X059495Y037767D01*
X059512Y037789D01*
X059532Y037809D01*
X059554Y037826D01*
X059579Y037839D01*
X059605Y037849D01*
X059633Y037855D01*
X059661Y037857D01*
X059689Y037855D01*
X059717Y037849D01*
X059743Y037839D01*
X059768Y037826D01*
X059790Y037809D01*
X059810Y037789D01*
X059827Y037767D01*
X059840Y037742D01*
X059850Y037716D01*
X059856Y037688D01*
X059858Y037660D01*
X059856Y037632D01*
X059850Y037604D01*
X059840Y037578D01*
X059827Y037553D01*
X059810Y037531D01*
X059790Y037511D01*
X059768Y037494D01*
X059743Y037481D01*
X059717Y037471D01*
X059689Y037465D01*
X059661Y037463D01*
X059633Y037465D01*
X059605Y037471D01*
X059579Y037481D01*
X059554Y037494D01*
X059532Y037511D01*
X059512Y037531D01*
X059495Y037553D01*
X059482Y037578D01*
X059472Y037604D01*
X059466Y037632D01*
X059464Y037660D01*
X055970Y038510D02*
X055972Y038535D01*
X055978Y038560D01*
X055988Y038583D01*
X056001Y038604D01*
X056018Y038623D01*
X056038Y038639D01*
X056060Y038652D01*
X056083Y038661D01*
X056108Y038666D01*
X056133Y038667D01*
X056158Y038664D01*
X056183Y038657D01*
X056205Y038646D01*
X056226Y038632D01*
X056245Y038614D01*
X056260Y038594D01*
X056271Y038572D01*
X056279Y038548D01*
X056283Y038523D01*
X056283Y038497D01*
X056279Y038472D01*
X056271Y038448D01*
X056260Y038426D01*
X056245Y038406D01*
X056226Y038388D01*
X056206Y038374D01*
X056183Y038363D01*
X056158Y038356D01*
X056133Y038353D01*
X056108Y038354D01*
X056083Y038359D01*
X056060Y038368D01*
X056038Y038381D01*
X056018Y038397D01*
X056001Y038416D01*
X055988Y038437D01*
X055978Y038460D01*
X055972Y038485D01*
X055970Y038510D01*
X055970Y039560D02*
X055972Y039585D01*
X055978Y039610D01*
X055988Y039633D01*
X056001Y039654D01*
X056018Y039673D01*
X056038Y039689D01*
X056060Y039702D01*
X056083Y039711D01*
X056108Y039716D01*
X056133Y039717D01*
X056158Y039714D01*
X056183Y039707D01*
X056205Y039696D01*
X056226Y039682D01*
X056245Y039664D01*
X056260Y039644D01*
X056271Y039622D01*
X056279Y039598D01*
X056283Y039573D01*
X056283Y039547D01*
X056279Y039522D01*
X056271Y039498D01*
X056260Y039476D01*
X056245Y039456D01*
X056226Y039438D01*
X056206Y039424D01*
X056183Y039413D01*
X056158Y039406D01*
X056133Y039403D01*
X056108Y039404D01*
X056083Y039409D01*
X056060Y039418D01*
X056038Y039431D01*
X056018Y039447D01*
X056001Y039466D01*
X055988Y039487D01*
X055978Y039510D01*
X055972Y039535D01*
X055970Y039560D01*
X047820Y039560D02*
X047822Y039585D01*
X047828Y039610D01*
X047838Y039633D01*
X047851Y039654D01*
X047868Y039673D01*
X047888Y039689D01*
X047910Y039702D01*
X047933Y039711D01*
X047958Y039716D01*
X047983Y039717D01*
X048008Y039714D01*
X048033Y039707D01*
X048055Y039696D01*
X048076Y039682D01*
X048095Y039664D01*
X048110Y039644D01*
X048121Y039622D01*
X048129Y039598D01*
X048133Y039573D01*
X048133Y039547D01*
X048129Y039522D01*
X048121Y039498D01*
X048110Y039476D01*
X048095Y039456D01*
X048076Y039438D01*
X048056Y039424D01*
X048033Y039413D01*
X048008Y039406D01*
X047983Y039403D01*
X047958Y039404D01*
X047933Y039409D01*
X047910Y039418D01*
X047888Y039431D01*
X047868Y039447D01*
X047851Y039466D01*
X047838Y039487D01*
X047828Y039510D01*
X047822Y039535D01*
X047820Y039560D01*
X047820Y038510D02*
X047822Y038535D01*
X047828Y038560D01*
X047838Y038583D01*
X047851Y038604D01*
X047868Y038623D01*
X047888Y038639D01*
X047910Y038652D01*
X047933Y038661D01*
X047958Y038666D01*
X047983Y038667D01*
X048008Y038664D01*
X048033Y038657D01*
X048055Y038646D01*
X048076Y038632D01*
X048095Y038614D01*
X048110Y038594D01*
X048121Y038572D01*
X048129Y038548D01*
X048133Y038523D01*
X048133Y038497D01*
X048129Y038472D01*
X048121Y038448D01*
X048110Y038426D01*
X048095Y038406D01*
X048076Y038388D01*
X048056Y038374D01*
X048033Y038363D01*
X048008Y038356D01*
X047983Y038353D01*
X047958Y038354D01*
X047933Y038359D01*
X047910Y038368D01*
X047888Y038381D01*
X047868Y038397D01*
X047851Y038416D01*
X047838Y038437D01*
X047828Y038460D01*
X047822Y038485D01*
X047820Y038510D01*
X045912Y037560D02*
X045914Y037596D01*
X045920Y037631D01*
X045930Y037666D01*
X045944Y037699D01*
X045962Y037730D01*
X045983Y037759D01*
X046007Y037786D01*
X046035Y037809D01*
X046064Y037830D01*
X046096Y037847D01*
X046130Y037860D01*
X046164Y037869D01*
X046200Y037874D01*
X046236Y037875D01*
X046272Y037872D01*
X046307Y037865D01*
X046341Y037854D01*
X046374Y037839D01*
X046405Y037820D01*
X046433Y037798D01*
X046459Y037773D01*
X046482Y037745D01*
X046501Y037715D01*
X046517Y037683D01*
X046529Y037649D01*
X046537Y037614D01*
X046541Y037578D01*
X046541Y037542D01*
X046537Y037506D01*
X046529Y037471D01*
X046517Y037437D01*
X046501Y037405D01*
X046482Y037375D01*
X046459Y037347D01*
X046433Y037322D01*
X046405Y037300D01*
X046374Y037281D01*
X046341Y037266D01*
X046307Y037255D01*
X046272Y037248D01*
X046236Y037245D01*
X046200Y037246D01*
X046164Y037251D01*
X046130Y037260D01*
X046096Y037273D01*
X046064Y037290D01*
X046035Y037311D01*
X046007Y037334D01*
X045983Y037361D01*
X045962Y037390D01*
X045944Y037421D01*
X045930Y037454D01*
X045920Y037489D01*
X045914Y037524D01*
X045912Y037560D01*
X042912Y037560D02*
X042914Y037596D01*
X042920Y037631D01*
X042930Y037666D01*
X042944Y037699D01*
X042962Y037730D01*
X042983Y037759D01*
X043007Y037786D01*
X043035Y037809D01*
X043064Y037830D01*
X043096Y037847D01*
X043130Y037860D01*
X043164Y037869D01*
X043200Y037874D01*
X043236Y037875D01*
X043272Y037872D01*
X043307Y037865D01*
X043341Y037854D01*
X043374Y037839D01*
X043405Y037820D01*
X043433Y037798D01*
X043459Y037773D01*
X043482Y037745D01*
X043501Y037715D01*
X043517Y037683D01*
X043529Y037649D01*
X043537Y037614D01*
X043541Y037578D01*
X043541Y037542D01*
X043537Y037506D01*
X043529Y037471D01*
X043517Y037437D01*
X043501Y037405D01*
X043482Y037375D01*
X043459Y037347D01*
X043433Y037322D01*
X043405Y037300D01*
X043374Y037281D01*
X043341Y037266D01*
X043307Y037255D01*
X043272Y037248D01*
X043236Y037245D01*
X043200Y037246D01*
X043164Y037251D01*
X043130Y037260D01*
X043096Y037273D01*
X043064Y037290D01*
X043035Y037311D01*
X043007Y037334D01*
X042983Y037361D01*
X042962Y037390D01*
X042944Y037421D01*
X042930Y037454D01*
X042920Y037489D01*
X042914Y037524D01*
X042912Y037560D01*
X037912Y037560D02*
X037914Y037596D01*
X037920Y037631D01*
X037930Y037666D01*
X037944Y037699D01*
X037962Y037730D01*
X037983Y037759D01*
X038007Y037786D01*
X038035Y037809D01*
X038064Y037830D01*
X038096Y037847D01*
X038130Y037860D01*
X038164Y037869D01*
X038200Y037874D01*
X038236Y037875D01*
X038272Y037872D01*
X038307Y037865D01*
X038341Y037854D01*
X038374Y037839D01*
X038405Y037820D01*
X038433Y037798D01*
X038459Y037773D01*
X038482Y037745D01*
X038501Y037715D01*
X038517Y037683D01*
X038529Y037649D01*
X038537Y037614D01*
X038541Y037578D01*
X038541Y037542D01*
X038537Y037506D01*
X038529Y037471D01*
X038517Y037437D01*
X038501Y037405D01*
X038482Y037375D01*
X038459Y037347D01*
X038433Y037322D01*
X038405Y037300D01*
X038374Y037281D01*
X038341Y037266D01*
X038307Y037255D01*
X038272Y037248D01*
X038236Y037245D01*
X038200Y037246D01*
X038164Y037251D01*
X038130Y037260D01*
X038096Y037273D01*
X038064Y037290D01*
X038035Y037311D01*
X038007Y037334D01*
X037983Y037361D01*
X037962Y037390D01*
X037944Y037421D01*
X037930Y037454D01*
X037920Y037489D01*
X037914Y037524D01*
X037912Y037560D01*
X050912Y032560D02*
X050914Y032596D01*
X050920Y032631D01*
X050930Y032666D01*
X050944Y032699D01*
X050962Y032730D01*
X050983Y032759D01*
X051007Y032786D01*
X051035Y032809D01*
X051064Y032830D01*
X051096Y032847D01*
X051130Y032860D01*
X051164Y032869D01*
X051200Y032874D01*
X051236Y032875D01*
X051272Y032872D01*
X051307Y032865D01*
X051341Y032854D01*
X051374Y032839D01*
X051405Y032820D01*
X051433Y032798D01*
X051459Y032773D01*
X051482Y032745D01*
X051501Y032715D01*
X051517Y032683D01*
X051529Y032649D01*
X051537Y032614D01*
X051541Y032578D01*
X051541Y032542D01*
X051537Y032506D01*
X051529Y032471D01*
X051517Y032437D01*
X051501Y032405D01*
X051482Y032375D01*
X051459Y032347D01*
X051433Y032322D01*
X051405Y032300D01*
X051374Y032281D01*
X051341Y032266D01*
X051307Y032255D01*
X051272Y032248D01*
X051236Y032245D01*
X051200Y032246D01*
X051164Y032251D01*
X051130Y032260D01*
X051096Y032273D01*
X051064Y032290D01*
X051035Y032311D01*
X051007Y032334D01*
X050983Y032361D01*
X050962Y032390D01*
X050944Y032421D01*
X050930Y032454D01*
X050920Y032489D01*
X050914Y032524D01*
X050912Y032560D01*
X019912Y037560D02*
X019914Y037596D01*
X019920Y037631D01*
X019930Y037666D01*
X019944Y037699D01*
X019962Y037730D01*
X019983Y037759D01*
X020007Y037786D01*
X020035Y037809D01*
X020064Y037830D01*
X020096Y037847D01*
X020130Y037860D01*
X020164Y037869D01*
X020200Y037874D01*
X020236Y037875D01*
X020272Y037872D01*
X020307Y037865D01*
X020341Y037854D01*
X020374Y037839D01*
X020405Y037820D01*
X020433Y037798D01*
X020459Y037773D01*
X020482Y037745D01*
X020501Y037715D01*
X020517Y037683D01*
X020529Y037649D01*
X020537Y037614D01*
X020541Y037578D01*
X020541Y037542D01*
X020537Y037506D01*
X020529Y037471D01*
X020517Y037437D01*
X020501Y037405D01*
X020482Y037375D01*
X020459Y037347D01*
X020433Y037322D01*
X020405Y037300D01*
X020374Y037281D01*
X020341Y037266D01*
X020307Y037255D01*
X020272Y037248D01*
X020236Y037245D01*
X020200Y037246D01*
X020164Y037251D01*
X020130Y037260D01*
X020096Y037273D01*
X020064Y037290D01*
X020035Y037311D01*
X020007Y037334D01*
X019983Y037361D01*
X019962Y037390D01*
X019944Y037421D01*
X019930Y037454D01*
X019920Y037489D01*
X019914Y037524D01*
X019912Y037560D01*
X014912Y032560D02*
X014914Y032596D01*
X014920Y032631D01*
X014930Y032666D01*
X014944Y032699D01*
X014962Y032730D01*
X014983Y032759D01*
X015007Y032786D01*
X015035Y032809D01*
X015064Y032830D01*
X015096Y032847D01*
X015130Y032860D01*
X015164Y032869D01*
X015200Y032874D01*
X015236Y032875D01*
X015272Y032872D01*
X015307Y032865D01*
X015341Y032854D01*
X015374Y032839D01*
X015405Y032820D01*
X015433Y032798D01*
X015459Y032773D01*
X015482Y032745D01*
X015501Y032715D01*
X015517Y032683D01*
X015529Y032649D01*
X015537Y032614D01*
X015541Y032578D01*
X015541Y032542D01*
X015537Y032506D01*
X015529Y032471D01*
X015517Y032437D01*
X015501Y032405D01*
X015482Y032375D01*
X015459Y032347D01*
X015433Y032322D01*
X015405Y032300D01*
X015374Y032281D01*
X015341Y032266D01*
X015307Y032255D01*
X015272Y032248D01*
X015236Y032245D01*
X015200Y032246D01*
X015164Y032251D01*
X015130Y032260D01*
X015096Y032273D01*
X015064Y032290D01*
X015035Y032311D01*
X015007Y032334D01*
X014983Y032361D01*
X014962Y032390D01*
X014944Y032421D01*
X014930Y032454D01*
X014920Y032489D01*
X014914Y032524D01*
X014912Y032560D01*
M02*
