M48
;DRILL file {KiCad no-vcs-found-f3908bd~61~ubuntu16.04.1} date Wed Nov 15 13:55:07 2017
;FORMAT={-:-/ absolute / inch / decimal}
FMAT,2
INCH,TZ
T1C0.008
T2C0.010
T3C0.012
T4C0.016
T5C0.020
T6C0.024
T7C0.031
T8C0.035
T9C0.039
T10C0.043
T11C0.047
T12C0.059
T13C0.063
T14C0.130
%
G90
G05
M72
T1
X4.385Y-2.83
X4.52Y-2.84
X4.545Y-3.215
X4.555Y-3.2
X4.585Y-3.255
X4.595Y-3.24
X4.625Y-3.12
X4.625Y-3.14
X4.64Y-3.845
X4.66Y-3.845
X4.68Y-3.845
X4.7Y-3.845
X4.72Y-2.5
X4.72Y-3.845
X4.74Y-3.845
X4.76Y-3.845
X4.8052Y-3.7848
X4.845Y-3.785
X4.875Y-3.79
X4.895Y-3.765
X4.895Y-3.785
X4.905Y-2.33
X4.925Y-3.76
X4.93Y-3.79
X4.955Y-2.59
X4.955Y-3.735
X4.955Y-3.755
X4.955Y-3.775
X4.975Y-3.775
X4.985Y-3.755
X5.Y-3.77
X5.015Y-3.735
X5.015Y-3.755
X5.065Y-3.735
X5.065Y-3.755
X5.095Y-2.115
X5.1Y-1.665
X5.105Y-1.975
X5.105Y-1.995
X5.105Y-2.075
X5.105Y-2.1
X5.115Y-2.06
X5.1176Y-3.7526
X5.1178Y-3.7327
X5.125Y-2.015
X5.125Y-2.035
X5.15Y-2.05
X5.15Y-2.07
X5.177Y-3.793
X5.265Y-2.47
X5.285Y-2.47
X5.3Y-3.735
X5.3Y-3.755
X5.3031Y-1.9154
X5.305Y-2.47
X5.305Y-2.49
X5.31Y-1.8
X5.32Y-3.735
X5.32Y-3.765
X5.3248Y-1.874
X5.325Y-1.845
X5.34Y-3.735
X5.35Y-3.765
X5.355Y-2.455
X5.36Y-3.735
X5.365Y-3.79
X5.375Y-2.455
X5.3759Y-1.9096
X5.376Y-1.878
X5.38Y-3.735
X5.4Y-3.735
X5.4029Y-1.9091
X5.405Y-2.47
X5.405Y-2.49
X5.405Y-2.51
X5.4124Y-2.8789
X5.4124Y-2.9301
X5.4124Y-2.9557
X5.4124Y-3.0581
X5.4124Y-3.1348
X5.415Y-3.745
X5.4193Y-1.8957
X5.4193Y-1.9232
X5.4272Y-2.0177
X5.4367Y-1.9088
X5.438Y-2.5463
X5.438Y-2.5719
X5.438Y-2.6486
X5.438Y-2.751
X5.438Y-2.8278
X5.438Y-2.8789
X5.438Y-2.9045
X5.438Y-2.9301
X5.438Y-2.9557
X5.438Y-2.9813
X5.438Y-3.0069
X5.438Y-3.0325
X5.438Y-3.0581
X5.45Y-3.765
X5.4619Y-2.0374
X5.4626Y-2.0571
X5.4626Y-2.0768
X5.4626Y-2.0965
X5.4636Y-2.5719
X5.4636Y-2.5974
X5.4636Y-2.623
X5.4636Y-2.6486
X5.4636Y-2.6742
X5.4636Y-2.6998
X5.4636Y-2.751
X5.4636Y-2.8022
X5.4636Y-2.8278
X5.4636Y-2.8789
X5.4636Y-2.9045
X5.4636Y-2.9557
X5.4636Y-3.0069
X5.4636Y-3.0325
X5.4636Y-3.0581
X5.4636Y-3.0837
X5.475Y-3.785
X5.4892Y-2.5974
X5.4892Y-2.623
X5.4892Y-2.6486
X5.4892Y-2.6998
X5.4892Y-2.7254
X5.4892Y-2.8789
X5.4892Y-2.9045
X5.4892Y-2.9301
X5.4892Y-2.9557
X5.4892Y-2.9813
X5.4892Y-3.0837
X5.495Y-3.785
X5.4988Y-2.2121
X5.502Y-2.15
X5.5148Y-2.5974
X5.5148Y-2.623
X5.5148Y-2.6742
X5.5148Y-2.6998
X5.5148Y-2.7254
X5.5148Y-2.8022
X5.5148Y-2.8278
X5.5148Y-2.8789
X5.5148Y-2.9045
X5.5148Y-2.9301
X5.5148Y-2.9557
X5.5148Y-2.9813
X5.5148Y-3.0069
X5.5148Y-3.0325
X5.5148Y-3.0581
X5.515Y-3.785
X5.5204Y-2.1957
X5.5217Y-2.1457
X5.5325Y-2.2465
X5.535Y-3.785
X5.5401Y-2.1956
X5.5404Y-2.5974
X5.5404Y-2.623
X5.5404Y-2.6486
X5.5404Y-2.6742
X5.5404Y-2.7254
X5.5413Y-1.998
X5.5413Y-2.0177
X5.5413Y-2.0374
X5.5413Y-2.1457
X5.56Y-2.15
X5.565Y-2.275
X5.5659Y-2.7254
X5.5659Y-2.751
X5.5659Y-2.7766
X5.5659Y-2.8533
X5.5659Y-2.9301
X5.5659Y-2.9813
X5.5659Y-3.0069
X5.5659Y-3.0325
X5.5659Y-3.0581
X5.5659Y-3.0837
X5.5659Y-3.1093
X5.5659Y-3.1348
X5.5807Y-2.0177
X5.5807Y-2.0571
X5.5915Y-2.5974
X5.5915Y-2.623
X5.5915Y-2.6486
X5.5915Y-2.6742
X5.5915Y-2.751
X5.5915Y-2.7766
X5.5915Y-2.8022
X5.5915Y-2.8278
X5.5915Y-2.9045
X5.5915Y-2.9301
X5.5915Y-2.9813
X5.5915Y-3.0069
X5.5915Y-3.0325
X5.5915Y-3.0581
X5.5915Y-3.0837
X5.5915Y-3.1093
X5.5915Y-3.1348
X5.6004Y-1.998
X5.6004Y-2.0177
X5.6004Y-2.0571
X5.61Y-3.695
X5.6171Y-2.5974
X5.6171Y-2.623
X5.6171Y-2.6486
X5.6171Y-2.7254
X5.6171Y-2.8022
X5.6171Y-2.8278
X5.6171Y-2.8533
X5.6171Y-2.9557
X5.6201Y-1.9213
X5.6201Y-1.9587
X5.6201Y-1.9783
X5.6398Y-1.9213
X5.6398Y-1.9587
X5.6398Y-2.0177
X5.6398Y-2.0571
X5.6427Y-2.623
X5.6427Y-2.6486
X5.6427Y-2.6742
X5.6427Y-2.7254
X5.6427Y-2.7766
X5.6427Y-2.8022
X5.6427Y-2.8278
X5.6427Y-2.8533
X5.6427Y-2.9301
X5.6427Y-2.9557
X5.6427Y-3.0325
X5.6427Y-3.0581
X5.6427Y-3.0837
X5.6427Y-3.1093
X5.6427Y-3.1348
X5.645Y-3.18
X5.6525Y-2.2525
X5.6594Y-2.0571
X5.6683Y-2.5463
X5.6683Y-2.5719
X5.6683Y-2.5974
X5.6683Y-2.623
X5.6683Y-2.6486
X5.6683Y-2.8022
X5.6683Y-2.8278
X5.6683Y-2.9301
X5.6683Y-2.9557
X5.6683Y-2.9813
X5.6683Y-3.0069
X5.6683Y-3.0325
X5.6683Y-3.0581
X5.6683Y-3.0837
X5.6683Y-3.1093
X5.6683Y-3.1348
X5.6791Y-2.0177
X5.6791Y-2.0374
X5.6791Y-2.0571
X5.6939Y-2.7254
X5.6939Y-2.751
X5.6939Y-2.7766
X5.6939Y-2.8022
X5.6939Y-2.8278
X5.6939Y-3.0325
X5.6939Y-3.0581
X5.7175Y-2.1694
X5.7195Y-2.5719
X5.7195Y-2.5974
X5.7195Y-2.623
X5.7195Y-2.6486
X5.7195Y-2.6742
X5.7195Y-2.7254
X5.7195Y-2.751
X5.7195Y-2.7766
X5.7195Y-2.8022
X5.7195Y-2.8278
X5.7195Y-2.9301
X5.7195Y-2.9557
X5.7195Y-2.9813
X5.7195Y-3.0069
X5.7195Y-3.0325
X5.7195Y-3.0581
X5.7218Y-2.2918
X5.7451Y-2.5463
X5.7451Y-2.5719
X5.7451Y-2.5974
X5.7451Y-2.623
X5.7451Y-2.6486
X5.7451Y-2.7254
X5.7451Y-2.751
X5.7451Y-2.7766
X5.7451Y-2.8022
X5.7451Y-2.8278
X5.7451Y-2.9301
X5.7451Y-3.0069
X5.7451Y-3.0325
X5.75Y-3.465
X5.7618Y-2.0374
X5.77Y-3.465
X5.7707Y-2.5719
X5.7707Y-2.5974
X5.7707Y-2.623
X5.7707Y-2.6486
X5.7707Y-2.7254
X5.7707Y-2.751
X5.7707Y-2.7766
X5.7707Y-2.8022
X5.7707Y-2.8278
X5.7707Y-3.0325
X5.7707Y-3.0837
X5.7795Y-2.0768
X5.79Y-3.465
X5.7953Y-2.0965
X5.7963Y-2.5463
X5.7963Y-2.5719
X5.7963Y-2.5974
X5.7963Y-2.623
X5.7963Y-2.6486
X5.7963Y-2.6998
X5.7963Y-2.7254
X5.7963Y-2.751
X5.7963Y-2.7766
X5.7963Y-2.8022
X5.7963Y-2.8278
X5.7963Y-2.9813
X5.7963Y-3.0069
X5.7963Y-3.0325
X5.7963Y-3.0581
X5.81Y-3.465
X5.8219Y-2.751
X5.8219Y-2.7766
X5.8219Y-2.8278
X5.8219Y-2.9813
X5.8219Y-3.0325
X5.8219Y-3.0837
X5.8228Y-2.0177
X5.8228Y-2.0571
X5.83Y-3.465
X5.8474Y-2.623
X5.8474Y-2.6486
X5.8474Y-2.751
X5.8474Y-2.8533
X5.8474Y-2.8789
X5.8474Y-2.9045
X5.8474Y-2.9301
X5.8474Y-2.9557
X5.8474Y-2.9813
X5.8474Y-3.0325
X5.8484Y-1.939
X5.8484Y-2.0413
X5.8622Y-1.876
X5.8642Y-1.9528
X5.8642Y-2.063
X5.873Y-2.5974
X5.873Y-2.6486
X5.873Y-2.6742
X5.873Y-2.8022
X5.873Y-2.8789
X5.873Y-2.9045
X5.873Y-2.9301
X5.873Y-3.0069
X5.873Y-3.0325
X5.873Y-3.0581
X5.873Y-3.0837
X5.873Y-3.1093
X5.8753Y-2.2411
X5.8986Y-2.5974
X5.8986Y-2.623
X5.8986Y-2.6486
X5.8986Y-2.6742
X5.8986Y-2.6998
X5.8986Y-2.7254
X5.8986Y-2.8022
X5.8986Y-2.8789
X5.8986Y-2.9045
X5.8986Y-2.9557
X5.8986Y-2.9813
X5.8986Y-3.0325
X5.8986Y-3.0581
X5.8986Y-3.0837
X5.9Y-3.335
X5.9242Y-2.5974
X5.9242Y-2.623
X5.9242Y-2.6486
X5.9242Y-2.6998
X5.9242Y-2.7254
X5.9242Y-2.7766
X5.9242Y-2.8022
X5.9242Y-2.8789
X5.9242Y-2.9045
X5.9242Y-2.9301
X5.9242Y-2.9813
X5.9242Y-3.0069
X5.9242Y-3.0581
X5.9242Y-3.0837
X5.9242Y-3.1093
X5.9498Y-2.5719
X5.9498Y-2.5974
X5.9498Y-2.623
X5.9498Y-2.6486
X5.9498Y-2.6742
X5.9498Y-2.6998
X5.9498Y-2.7254
X5.9498Y-2.7766
X5.9498Y-2.8022
X5.9498Y-2.8789
X5.9498Y-2.9301
X5.9498Y-2.9557
X5.9498Y-3.0069
X5.9498Y-3.0325
X5.9498Y-3.0837
X5.9498Y-3.1093
X5.955Y-2.17
X5.9754Y-2.5463
X5.9754Y-2.5719
X5.9754Y-2.5974
X5.9754Y-2.623
X5.9754Y-2.9045
X5.9754Y-3.0069
X5.9754Y-3.0325
X5.9754Y-3.0837
X5.9754Y-3.1093
X5.98Y-2.505
X5.99Y-3.585
X5.99Y-3.605
X6.001Y-2.5719
X6.001Y-2.5974
X6.001Y-2.623
X6.001Y-2.9045
X6.001Y-2.9813
X6.001Y-3.0069
X6.001Y-3.0325
X6.045Y-1.885
X6.045Y-2.04
X6.045Y-2.06
X6.05Y-2.685
X6.07Y-2.695
X6.075Y-1.885
X6.08Y-1.8
X6.0887Y-2.9153
X6.09Y-2.96
X6.09Y-3.365
X6.095Y-1.985
X6.105Y-1.745
X6.1058Y-2.9149
X6.11Y-3.725
X6.1171Y-2.9021
X6.125Y-1.745
X6.1293Y-2.7646
X6.13Y-2.975
X6.1307Y-2.7886
X6.135Y-1.985
X6.135Y-2.005
X6.135Y-2.025
X6.135Y-2.54
X6.135Y-2.56
X6.135Y-2.58
X6.135Y-2.6
X6.135Y-2.62
X6.1445Y-2.9102
X6.145Y-1.745
X6.145Y-1.805
X6.1463Y-2.7663
X6.1463Y-2.7968
X6.1469Y-2.8556
X6.15Y-2.975
X6.155Y-2.41
X6.155Y-2.43
X6.1694Y-2.9772
X6.17Y-1.88
X6.17Y-1.9
X6.17Y-1.92
X6.175Y-2.41
X6.1826Y-2.7749
X6.185Y-1.99
X6.195Y-2.41
X6.2025Y-2.7525
X6.2031Y-2.7996
X6.2031Y-2.82
X6.2031Y-2.8406
X6.2031Y-2.8622
X6.2047Y-2.7146
X6.215Y-2.41
X6.28Y-3.325
X6.28Y-3.345
X6.28Y-3.395
X6.2854Y-2.7146
X6.2854Y-2.7343
X6.2854Y-2.7539
X6.2854Y-2.7752
X6.2895Y-2.663
X6.3Y-1.61
X6.305Y-1.835
X6.3091Y-2.876
X6.3189Y-2.6666
X6.3202Y-2.6494
X6.325Y-1.835
X6.345Y-1.835
X6.355Y-2.88
X6.3772Y-2.8629
X6.4006Y-2.9036
X6.4093Y-2.8576
X6.415Y-1.715
X6.4176Y-2.9036
X6.4301Y-2.8586
X6.4344Y-2.8986
X6.435Y-1.715
X6.45Y-1.705
X6.45Y-1.73
X6.4514Y-2.9056
X6.4536Y-2.8234
X6.4542Y-2.8405
X6.4542Y-2.8668
X6.4646Y-2.8937
X6.48Y-1.705
X6.485Y-1.735
X6.515Y-1.685
X6.525Y-1.855
X6.53Y-1.885
X6.54Y-1.865
X6.55Y-1.935
X6.55Y-2.025
X6.555Y-1.685
X6.57Y-2.01
X6.575Y-1.7
X6.575Y-2.035
X6.575Y-3.52
X6.58Y-1.72
X6.595Y-2.
X6.595Y-3.52
X6.595Y-3.81
X6.6Y-1.975
X6.61Y-2.86
X6.61Y-3.53
X6.655Y-2.47
X6.675Y-2.035
X6.68Y-1.915
X6.68Y-3.505
X6.685Y-1.965
X6.685Y-2.19
X6.7Y-1.98
X6.7Y-2.015
X6.7Y-2.035
X6.705Y-2.095
X6.715Y-2.165
X6.72Y-3.49
X6.72Y-3.51
X6.73Y-2.035
X6.73Y-2.15
X6.74Y-1.98
X6.74Y-3.315
X6.745Y-2.135
X6.755Y-2.005
X6.755Y-3.325
X6.775Y-3.33
X6.795Y-3.285
X6.805Y-1.975
X6.81Y-2.105
X6.828Y-2.322
X6.83Y-1.875
X6.85Y-1.875
X6.97Y-1.915
X6.97Y-1.935
X7.2Y-2.435
T2
X5.6171Y-2.8789
X5.6171Y-2.9045
X5.6427Y-2.8789
X5.6427Y-2.9045
X5.6683Y-2.8533
X5.6683Y-2.8789
X5.6683Y-2.9045
X5.6939Y-2.8533
X5.6939Y-2.8789
X5.6939Y-2.9045
X5.7195Y-2.8533
X5.7195Y-2.8789
X5.7195Y-2.9045
X5.7451Y-2.8533
X5.7451Y-2.8789
X5.7451Y-2.9045
X5.7707Y-2.8533
X5.7707Y-2.8789
X5.7707Y-2.9045
X5.7707Y-2.9301
X5.7707Y-2.9557
X5.7963Y-2.8533
X5.7963Y-2.8789
X5.7963Y-2.9045
X5.7963Y-2.9301
X5.7963Y-2.9557
X5.8219Y-2.8533
X5.8219Y-2.8789
X5.8219Y-2.9045
X5.8219Y-2.9301
X5.8219Y-2.9557
T3
X3.97Y-3.275
X4.22Y-1.705
X4.22Y-1.73
X4.22Y-1.82
X4.22Y-1.88
X4.22Y-1.94
X4.22Y-2.
X4.33Y-2.765
X4.335Y-3.82
X4.35Y-2.975
X4.36Y-3.745
X4.38Y-2.935
X4.385Y-2.91
X4.39Y-1.81
X4.39Y-1.925
X4.39Y-2.04
X4.3925Y-1.8475
X4.41Y-3.505
X4.41Y-3.69
X4.44Y-3.28
X4.45Y-2.89
X4.45Y-2.965
X4.45Y-3.305
X4.45Y-3.33
X4.45Y-3.37
X4.45Y-3.395
X4.455Y-3.43
X4.48Y-1.81
X4.48Y-1.855
X4.48Y-1.925
X4.48Y-2.04
X4.49Y-1.76
X4.49Y-1.785
X4.535Y-1.83
X4.545Y-2.93
X4.57Y-2.93
X4.58Y-3.68
X4.585Y-3.03
X4.585Y-3.05
X4.6Y-3.7
X4.605Y-1.775
X4.605Y-2.54
X4.63Y-1.74
X4.66Y-3.29
X4.66Y-3.315
X4.66Y-3.34
X4.66Y-3.555
X4.69Y-3.51
X4.6929Y-3.1575
X4.6929Y-3.2441
X4.6929Y-3.2717
X4.7Y-2.93
X4.7Y-3.555
X4.7205Y-3.3346
X4.725Y-3.55
X4.748Y-2.7953
X4.748Y-2.8268
X4.748Y-2.9528
X4.748Y-2.9843
X4.748Y-3.0157
X4.748Y-3.1339
X4.7677Y-2.6575
X4.7795Y-2.7323
X4.7795Y-2.7638
X4.7795Y-2.7953
X4.7795Y-2.9213
X4.7795Y-2.9528
X4.7795Y-2.9843
X4.7795Y-3.0157
X4.7986Y-2.655
X4.811Y-2.7323
X4.811Y-2.8268
X4.811Y-2.9055
X4.811Y-2.9528
X4.811Y-2.9843
X4.811Y-3.0157
X4.82Y-3.095
X4.8228Y-3.0669
X4.8268Y-3.315
X4.8268Y-3.378
X4.8268Y-3.5039
X4.8268Y-3.5669
X4.835Y-1.91
X4.8425Y-2.7323
X4.8425Y-2.7638
X4.8425Y-2.7953
X4.8425Y-2.8268
X4.8583Y-3.1614
X4.8583Y-3.2835
X4.8583Y-3.315
X4.8583Y-3.378
X4.8583Y-3.4724
X4.8583Y-3.5039
X4.8583Y-3.5669
X4.86Y-2.655
X4.874Y-2.7323
X4.874Y-2.7953
X4.874Y-2.9528
X4.874Y-2.9843
X4.874Y-3.0157
X4.875Y-1.91
X4.8898Y-3.1732
X4.8898Y-3.2835
X4.8898Y-3.315
X4.8898Y-3.3465
X4.8898Y-3.378
X4.8898Y-3.4724
X4.8898Y-3.5039
X4.8898Y-3.5669
X4.9055Y-2.7323
X4.9055Y-2.7638
X4.9055Y-2.7953
X4.91Y-1.945
X4.92Y-2.315
X4.9213Y-3.2835
X4.9213Y-3.3465
X4.9213Y-3.5039
X4.9213Y-3.5669
X4.93Y-2.585
X4.93Y-3.095
X4.935Y-2.655
X4.937Y-2.7323
X4.937Y-2.7638
X4.937Y-2.7953
X4.9528Y-3.2835
X4.9528Y-3.315
X4.9528Y-3.3465
X4.9528Y-3.378
X4.9528Y-3.5039
X4.9528Y-3.5354
X4.9528Y-3.5669
X4.9685Y-2.7323
X4.9685Y-2.7638
X4.9685Y-2.7953
X4.9685Y-2.9528
X4.9685Y-2.9843
X4.975Y-2.01
X4.9843Y-3.3465
X4.9843Y-3.378
X4.9843Y-3.5039
X4.9843Y-3.5354
X4.9843Y-3.5669
X5.Y-2.7323
X5.Y-2.7638
X5.Y-2.7953
X5.01Y-2.655
X5.0118Y-2.8819
X5.0157Y-2.7126
X5.0157Y-3.0236
X5.0157Y-3.2835
X5.0157Y-3.315
X5.0157Y-3.3465
X5.0157Y-3.378
X5.0157Y-3.5039
X5.035Y-2.875
X5.0472Y-2.7244
X5.0472Y-3.0236
X5.0472Y-3.2835
X5.0472Y-3.315
X5.0472Y-3.3465
X5.0472Y-3.5039
X5.0472Y-3.5354
X5.0472Y-3.5709
X5.063Y-2.9213
X5.063Y-2.9528
X5.066Y-3.419
X5.0787Y-2.7244
X5.0787Y-3.0236
X5.0787Y-3.5039
X5.0787Y-3.5354
X5.089Y-3.419
X5.0945Y-2.7638
X5.1102Y-2.7244
X5.1102Y-3.3465
X5.1102Y-3.378
X5.1102Y-3.5039
X5.1102Y-3.5669
X5.126Y-2.9213
X5.126Y-2.9528
X5.126Y-2.9843
X5.13Y-1.935
X5.1417Y-3.315
X5.1417Y-3.3465
X5.1417Y-3.4724
X5.1417Y-3.5039
X5.1417Y-3.5354
X5.1417Y-3.5669
X5.1435Y-3.4187
X5.1575Y-2.7323
X5.1575Y-2.7638
X5.1575Y-2.8268
X5.1575Y-2.9528
X5.1575Y-2.9843
X5.1575Y-3.0157
X5.1595Y-3.4026
X5.16Y-1.935
X5.1732Y-3.315
X5.1732Y-3.3465
X5.1732Y-3.4724
X5.1732Y-3.5039
X5.1732Y-3.5354
X5.1732Y-3.5669
X5.189Y-2.7323
X5.189Y-2.7638
X5.189Y-2.7953
X5.189Y-2.8268
X5.189Y-2.9213
X5.189Y-2.9528
X5.189Y-2.9843
X5.189Y-3.0157
X5.2Y-2.53
X5.2047Y-3.315
X5.2047Y-3.3465
X5.2047Y-3.378
X5.2047Y-3.5354
X5.2047Y-3.5669
X5.22Y-2.56
X5.22Y-2.58
X5.2205Y-2.7323
X5.2205Y-2.7638
X5.2205Y-2.7953
X5.2205Y-2.8268
X5.2205Y-2.9213
X5.2205Y-2.9528
X5.2205Y-2.9843
X5.2205Y-3.0157
X5.2362Y-3.315
X5.2362Y-3.3465
X5.2362Y-3.5354
X5.2362Y-3.5669
X5.252Y-2.7638
X5.252Y-2.9843
X5.2677Y-3.315
X5.2677Y-3.5669
X5.2992Y-3.315
X5.2992Y-3.3465
X5.2992Y-3.378
X5.2992Y-3.5669
X5.3Y-2.875
X5.3289Y-3.3129
X5.3307Y-3.5669
X5.34Y-2.575
X5.3504Y-3.5236
X5.635Y-3.69
X5.648Y-3.677
X5.655Y-3.84
X5.665Y-3.66
X5.678Y-3.647
X5.68Y-3.91
X5.695Y-3.63
X5.7Y-2.19
X5.708Y-3.617
X5.745Y-2.29
X5.78Y-3.42
X5.815Y-1.7525
X5.835Y-1.7525
X5.84Y-2.285
X5.84Y-2.305
X5.91Y-2.285
X5.91Y-2.305
X5.9154Y-1.9646
X5.9154Y-1.9862
X5.98Y-2.525
X6.045Y-1.925
X6.045Y-1.975
X6.045Y-2.015
X6.075Y-2.82
X6.085Y-2.185
X6.095Y-1.925
X6.195Y-3.85
X6.21Y-3.91
X6.275Y-3.865
X6.275Y-3.885
X6.285Y-3.42
X6.3Y-3.2
X6.305Y-3.35
X6.305Y-3.375
X6.305Y-3.42
X6.31Y-3.45
X6.31Y-3.47
X6.32Y-3.2
X6.325Y-3.35
X6.325Y-3.375
X6.33Y-3.175
X6.3442Y-2.6492
X6.345Y-3.505
X6.35Y-2.46
X6.36Y-3.525
X6.365Y-2.5
X6.365Y-3.485
X6.375Y-3.51
X6.38Y-3.14
X6.38Y-3.165
X6.38Y-3.185
X6.3906Y-2.784
X6.4Y-3.14
X6.415Y-3.1
X6.415Y-3.12
X6.4325Y-2.785
X6.44Y-3.095
X6.44Y-3.115
X6.445Y-2.475
X6.45Y-2.66
X6.455Y-2.74
X6.46Y-2.58
X6.465Y-2.24
X6.465Y-3.105
X6.47Y-2.475
X6.475Y-2.755
X6.48Y-3.09
X6.485Y-2.24
X6.485Y-3.12
X6.485Y-3.14
X6.51Y-2.465
X6.51Y-3.53
X6.56Y-2.835
X6.57Y-2.415
X6.585Y-2.54
X6.59Y-3.11
X6.595Y-1.915
X6.595Y-1.935
X6.605Y-2.825
X6.605Y-3.095
X6.615Y-2.29
X6.63Y-2.76
X6.63Y-3.525
X6.63Y-3.545
X6.655Y-2.825
X6.655Y-3.085
X6.655Y-3.11
X6.655Y-3.525
X6.675Y-3.085
X6.675Y-3.11
X6.695Y-3.165
X6.695Y-3.19
X6.7Y-3.095
X6.7Y-3.115
X6.705Y-3.14
X6.715Y-3.165
X6.715Y-3.19
X6.75Y-2.605
X6.75Y-2.7
X6.75Y-2.76
X6.765Y-2.875
X6.765Y-2.895
X6.77Y-2.945
X6.77Y-3.285
X6.775Y-2.605
X6.85Y-1.71
X6.855Y-2.165
X6.855Y-2.185
X6.875Y-1.71
X6.88Y-1.955
X6.88Y-2.115
X6.88Y-2.145
X6.88Y-2.165
X6.9Y-1.955
X6.905Y-1.71
X6.91Y-3.475
X6.91Y-3.505
X6.93Y-2.115
X6.93Y-2.135
X6.94Y-1.71
X6.94Y-1.755
X6.965Y-1.71
X7.015Y-1.71
X7.035Y-2.215
X7.035Y-2.235
X7.05Y-2.115
X7.05Y-2.135
X7.06Y-1.71
X7.0642Y-1.7931
X7.065Y-3.57
X7.075Y-2.285
X7.075Y-2.31
X7.08Y-2.26
X7.08Y-3.5
X7.085Y-1.81
X7.1Y-3.5
X7.11Y-1.71
X7.11Y-1.785
X7.12Y-1.755
X7.125Y-3.7
X7.135Y-1.81
X7.14Y-1.735
X7.16Y-1.71
X7.16Y-1.785
X7.185Y-1.725
X7.185Y-1.81
X7.19Y-2.19
X7.205Y-2.245
X7.205Y-2.27
X7.21Y-1.71
X7.21Y-1.785
X7.235Y-1.725
X7.245Y-1.825
X7.26Y-1.71
X7.28Y-2.46
X7.285Y-1.725
X7.285Y-1.795
X7.31Y-1.71
X7.315Y-2.01
X7.32Y-1.875
X7.33Y-1.725
X7.335Y-2.2
X7.34Y-1.795
X7.34Y-2.485
X7.35Y-1.71
X7.37Y-1.725
X7.39Y-1.71
X7.405Y-1.725
X7.405Y-1.92
X7.41Y-1.965
X7.425Y-1.71
X7.44Y-1.725
X7.45Y-3.255
X7.455Y-1.71
X7.455Y-1.735
X7.455Y-1.76
X7.455Y-1.785
X6.4434Y-3.301
X6.4434Y-3.364
X6.4709Y-3.301
X6.4709Y-3.364
X6.4985Y-3.2459
X6.4985Y-3.2734
X6.4985Y-3.301
X6.4985Y-3.364
X6.4985Y-3.3916
X6.4985Y-3.4191
X6.5615Y-3.2459
X6.5615Y-3.2734
X6.5615Y-3.301
X6.5615Y-3.364
X6.5615Y-3.3916
X6.5615Y-3.4191
X6.5891Y-3.301
X6.5891Y-3.364
X6.6166Y-3.301
X6.6166Y-3.364
T4
X4.335Y-2.895
X4.375Y-2.76
X4.42Y-2.76
X4.435Y-2.825
X6.615Y-2.315
T5
X4.445Y-3.22
X4.445Y-3.46
X4.5Y-2.755
X5.625Y-2.31
X5.77Y-2.31
X6.29Y-3.295
X6.325Y-3.295
X6.725Y-3.365
X6.725Y-3.4
X6.735Y-3.435
X6.76Y-3.365
X6.76Y-3.4
X6.77Y-3.435
X6.795Y-1.875
X6.905Y-1.885
T6
X3.97Y-3.19
X3.98Y-1.615
X3.98Y-1.68
X3.98Y-1.745
X3.98Y-1.815
X3.98Y-1.89
X3.98Y-1.96
X3.98Y-2.03
X3.98Y-3.005
X3.98Y-3.715
X3.98Y-3.81
X3.98Y-3.9
X4.02Y-3.005
X4.025Y-3.855
X4.03Y-3.715
X4.03Y-3.76
X4.035Y-2.02
X4.115Y-1.83
X4.155Y-1.83
X4.175Y-1.67
X4.175Y-1.78
X4.185Y-1.97
X4.185Y-2.045
X4.22Y-3.53
X4.22Y-3.565
X4.22Y-3.6
X4.235Y-3.15
X4.235Y-3.195
X4.35Y-3.695
X4.385Y-3.71
X4.47Y-2.2
X4.515Y-2.2
X4.66Y-1.9
X4.72Y-3.495
X4.73Y-1.9
X4.795Y-1.9
X4.7997Y-2.2153
X4.825Y-2.32
X4.865Y-2.32
X4.99Y-2.575
X5.025Y-2.32
X5.025Y-2.36
X5.035Y-2.575
X5.045Y-1.845
X5.06Y-2.36
X5.08Y-1.845
X5.11Y-2.645
X5.115Y-1.755
X5.115Y-1.845
X5.1496Y-3.1575
X5.15Y-1.755
X5.43Y-3.5848
X5.49Y-3.5848
X5.7677Y-2.3465
X5.7677Y-2.3858
X5.805Y-2.31
X5.865Y-3.3
X5.865Y-3.34
X5.895Y-3.16
X5.895Y-3.2
X5.9Y-1.7848
X5.925Y-2.1
X5.935Y-3.1602
X5.935Y-3.2
X5.945Y-2.2
X5.9748Y-2.38
X5.99Y-3.65
X6.02Y-3.68
X6.05Y-1.785
X6.055Y-2.205
X6.135Y-3.335
X6.135Y-3.415
X6.14Y-3.13
X6.1402Y-2.9477
X6.145Y-3.52
X6.1748Y-3.13
X6.1778Y-2.9477
X6.185Y-3.52
X6.205Y-1.71
X6.31Y-1.77
X6.345Y-1.7698
X6.35Y-3.025
X6.39Y-1.8402
X6.43Y-1.8402
X6.44Y-2.345
X6.445Y-3.55
X6.465Y-2.3
X6.475Y-3.53
X6.555Y-2.94
X6.5613Y-2.9
X6.58Y-2.155
X6.645Y-1.73
X6.67Y-3.73
X6.68Y-1.755
X6.695Y-3.7
X6.6952Y-2.455
X6.73Y-3.225
X6.765Y-3.225
X6.765Y-3.475
X6.775Y-2.985
X6.79Y-1.755
X6.8Y-2.53
X6.8702Y-2.3852
X6.925Y-3.39
X6.96Y-3.39
X6.96Y-3.63
X6.965Y-2.5
X7.005Y-2.5
X7.035Y-1.925
X7.125Y-2.825
X7.125Y-2.925
X7.15Y-2.165
X7.15Y-2.725
X7.155Y-1.955
X7.175Y-2.775
X7.175Y-2.875
X7.175Y-2.975
X7.19Y-1.865
X7.195Y-1.955
X7.215Y-2.335
X7.23Y-2.17
X7.25Y-2.825
X7.25Y-2.925
X7.255Y-2.335
X7.27Y-2.17
X7.275Y-2.725
X7.3Y-2.775
X7.3Y-2.875
X7.3Y-2.975
X7.365Y-3.285
X7.365Y-3.325
X7.375Y-1.815
X7.375Y-2.725
X7.375Y-2.825
X7.375Y-2.925
X7.38Y-3.19
X7.38Y-3.235
X7.425Y-2.775
X7.425Y-2.875
X7.425Y-2.975
X7.445Y-1.815
T8
X7.4008Y-3.3755
X7.4009Y-3.4547
T9
X6.22Y-2.56
X6.32Y-2.56
X4.28Y-2.58
X4.3587Y-2.58
X4.4375Y-2.58
X4.5162Y-2.58
X5.75Y-3.785
X5.75Y-3.885
X5.85Y-3.785
X5.85Y-3.885
X5.95Y-3.785
X5.95Y-3.885
X6.05Y-3.785
X6.05Y-3.885
X6.15Y-3.785
X6.15Y-3.885
X4.6769Y-1.8
X4.7556Y-1.8
X4.8344Y-1.8
X4.9131Y-1.8
X4.65Y-1.535
X4.65Y-1.635
X4.75Y-1.535
X4.75Y-1.635
X4.85Y-1.535
X4.85Y-1.635
X4.95Y-1.535
X4.95Y-1.635
X5.05Y-1.535
X5.05Y-1.635
X5.15Y-1.535
X5.15Y-1.635
X5.25Y-1.535
X5.25Y-1.635
X5.35Y-1.535
X5.35Y-1.635
X5.45Y-1.535
X5.45Y-1.635
X5.55Y-1.535
X5.55Y-1.635
X5.65Y-1.535
X5.65Y-1.635
X5.75Y-1.535
X5.75Y-1.635
X5.85Y-1.535
X5.85Y-1.635
X5.95Y-1.535
X5.95Y-1.635
X6.05Y-1.535
X6.05Y-1.635
X6.15Y-1.535
X6.15Y-1.635
X6.25Y-1.535
X6.25Y-1.635
X6.35Y-1.535
X6.35Y-1.635
X6.45Y-1.535
X6.45Y-1.635
X6.55Y-1.535
X6.55Y-1.635
X6.4Y-3.885
X6.5Y-3.885
X6.6Y-3.885
T10
X6.895Y-2.665
X6.895Y-2.765
X6.895Y-2.865
X6.895Y-2.965
X6.895Y-3.065
X6.995Y-2.615
X6.995Y-2.715
X6.995Y-2.815
X6.995Y-2.915
X6.995Y-3.015
X7.345Y-2.575
X7.345Y-3.105
X7.425Y-2.575
X7.425Y-3.105
T11
X6.56Y-2.65
X6.53Y-3.3325
T12
X4.2603Y-2.4678
X4.2603Y-2.6922
X4.5359Y-2.4678
X4.5359Y-2.6922
T13
X7.125Y-2.535
X7.125Y-3.145
T14
X4.5079Y-3.8031
X4.5079Y-3.8031
X6.8031Y-3.8031
X4.4488Y-1.6102
X4.4488Y-1.6102
T6
X7.2469Y-2.1083G85X7.2706Y-2.1083
G05
X7.2469Y-2.3917G85X7.2706Y-2.3917
G05
X7.3835Y-2.1083G85X7.4072Y-2.1083
G05
X7.3835Y-2.3917G85X7.4072Y-2.3917
G05
X7.1827Y-3.7943G85X7.1827Y-3.6998
G05
X7.3541Y-3.5718G85X7.2675Y-3.5718
G05
X7.4189Y-3.7943G85X7.4189Y-3.7116
G05
T7
X3.9782Y-1.5426G85X4.0176Y-1.5426
G05
X3.9782Y-2.1174G85X4.0176Y-2.1174
G05
X4.2085Y-1.5426G85X4.2637Y-1.5426
G05
X4.2085Y-2.1174G85X4.2637Y-2.1174
G05
T0
M30
