G75*
G70*
%OFA0B0*%
%FSLAX24Y24*%
%IPPOS*%
%LPD*%
%AMOC8*
5,1,8,0,0,1.08239X$1,22.5*
%
%ADD10C,0.0140*%
%ADD11C,0.0080*%
%ADD12C,0.0100*%
%ADD13C,0.0060*%
%ADD14C,0.0240*%
%ADD15C,0.0120*%
%ADD16C,0.0220*%
%ADD17C,0.0260*%
%ADD18C,0.0050*%
%ADD19C,0.0070*%
%ADD20R,0.0709X0.0197*%
%ADD21C,0.0079*%
%ADD22C,0.0040*%
D10*
X024526Y023217D02*
X024528Y023241D01*
X024534Y023264D01*
X024544Y023285D01*
X024557Y023305D01*
X024574Y023322D01*
X024593Y023336D01*
X024614Y023347D01*
X024637Y023354D01*
X024660Y023357D01*
X024684Y023356D01*
X024707Y023351D01*
X024729Y023342D01*
X024749Y023330D01*
X024767Y023314D01*
X024782Y023295D01*
X024794Y023275D01*
X024801Y023252D01*
X024805Y023229D01*
X024805Y023205D01*
X024801Y023182D01*
X024794Y023159D01*
X024782Y023139D01*
X024767Y023120D01*
X024749Y023104D01*
X024729Y023092D01*
X024707Y023083D01*
X024684Y023078D01*
X024660Y023077D01*
X024637Y023080D01*
X024614Y023087D01*
X024593Y023098D01*
X024574Y023112D01*
X024557Y023129D01*
X024544Y023149D01*
X024534Y023170D01*
X024528Y023193D01*
X024526Y023217D01*
X025008Y023212D02*
X025010Y023236D01*
X025016Y023259D01*
X025026Y023280D01*
X025039Y023300D01*
X025056Y023317D01*
X025075Y023331D01*
X025096Y023342D01*
X025119Y023349D01*
X025142Y023352D01*
X025166Y023351D01*
X025189Y023346D01*
X025211Y023337D01*
X025231Y023325D01*
X025249Y023309D01*
X025264Y023290D01*
X025276Y023270D01*
X025283Y023247D01*
X025287Y023224D01*
X025287Y023200D01*
X025283Y023177D01*
X025276Y023154D01*
X025264Y023134D01*
X025249Y023115D01*
X025231Y023099D01*
X025211Y023087D01*
X025189Y023078D01*
X025166Y023073D01*
X025142Y023072D01*
X025119Y023075D01*
X025096Y023082D01*
X025075Y023093D01*
X025056Y023107D01*
X025039Y023124D01*
X025026Y023144D01*
X025016Y023165D01*
X025010Y023188D01*
X025008Y023212D01*
X025617Y023772D02*
X025619Y023796D01*
X025625Y023819D01*
X025635Y023841D01*
X025648Y023861D01*
X025665Y023878D01*
X025684Y023892D01*
X025705Y023903D01*
X025728Y023910D01*
X025752Y023913D01*
X025776Y023912D01*
X025799Y023907D01*
X025821Y023898D01*
X025842Y023885D01*
X025860Y023870D01*
X025875Y023851D01*
X025886Y023830D01*
X025894Y023808D01*
X025898Y023784D01*
X025898Y023760D01*
X025894Y023736D01*
X025886Y023714D01*
X025875Y023693D01*
X025860Y023674D01*
X025842Y023659D01*
X025821Y023646D01*
X025799Y023637D01*
X025776Y023632D01*
X025752Y023631D01*
X025728Y023634D01*
X025705Y023641D01*
X025684Y023652D01*
X025665Y023666D01*
X025648Y023683D01*
X025635Y023703D01*
X025625Y023725D01*
X025619Y023748D01*
X025617Y023772D01*
X025088Y024402D02*
X025088Y024512D01*
X024518Y024487D02*
X024520Y024511D01*
X024526Y024534D01*
X024536Y024555D01*
X024549Y024575D01*
X024566Y024592D01*
X024585Y024606D01*
X024606Y024617D01*
X024629Y024624D01*
X024652Y024627D01*
X024676Y024626D01*
X024699Y024621D01*
X024721Y024612D01*
X024741Y024600D01*
X024759Y024584D01*
X024774Y024565D01*
X024786Y024545D01*
X024793Y024522D01*
X024797Y024499D01*
X024797Y024475D01*
X024793Y024452D01*
X024786Y024429D01*
X024774Y024409D01*
X024759Y024390D01*
X024741Y024374D01*
X024721Y024362D01*
X024699Y024353D01*
X024676Y024348D01*
X024652Y024347D01*
X024629Y024350D01*
X024606Y024357D01*
X024585Y024368D01*
X024566Y024382D01*
X024549Y024399D01*
X024536Y024419D01*
X024526Y024440D01*
X024520Y024463D01*
X024518Y024487D01*
X026458Y024452D02*
X026458Y024522D01*
X027407Y023842D02*
X027409Y023866D01*
X027415Y023889D01*
X027425Y023910D01*
X027439Y023929D01*
X027456Y023946D01*
X027475Y023960D01*
X027496Y023970D01*
X027519Y023976D01*
X027543Y023978D01*
X027567Y023976D01*
X027590Y023970D01*
X027611Y023960D01*
X027630Y023946D01*
X027647Y023929D01*
X027661Y023910D01*
X027671Y023889D01*
X027677Y023866D01*
X027679Y023842D01*
X027677Y023818D01*
X027671Y023795D01*
X027661Y023774D01*
X027647Y023755D01*
X027630Y023738D01*
X027611Y023724D01*
X027590Y023714D01*
X027567Y023708D01*
X027543Y023706D01*
X027519Y023708D01*
X027496Y023714D01*
X027475Y023724D01*
X027456Y023738D01*
X027439Y023755D01*
X027425Y023774D01*
X027415Y023795D01*
X027409Y023818D01*
X027407Y023842D01*
X026256Y023212D02*
X026258Y023236D01*
X026264Y023259D01*
X026274Y023281D01*
X026288Y023301D01*
X026304Y023319D01*
X026324Y023333D01*
X026345Y023344D01*
X026368Y023351D01*
X026392Y023354D01*
X026416Y023353D01*
X026440Y023348D01*
X026462Y023339D01*
X026482Y023326D01*
X026501Y023310D01*
X026516Y023292D01*
X026527Y023270D01*
X026535Y023248D01*
X026539Y023224D01*
X026539Y023200D01*
X026535Y023176D01*
X026527Y023154D01*
X026516Y023132D01*
X026501Y023114D01*
X026482Y023098D01*
X026462Y023085D01*
X026440Y023076D01*
X026416Y023071D01*
X026392Y023070D01*
X026368Y023073D01*
X026345Y023080D01*
X026324Y023091D01*
X026304Y023105D01*
X026288Y023123D01*
X026274Y023143D01*
X026264Y023165D01*
X026258Y023188D01*
X026256Y023212D01*
X028563Y023207D02*
X028565Y023230D01*
X028571Y023253D01*
X028581Y023275D01*
X028595Y023294D01*
X028611Y023310D01*
X028630Y023324D01*
X028652Y023334D01*
X028675Y023340D01*
X028698Y023342D01*
X028721Y023340D01*
X028744Y023334D01*
X028765Y023324D01*
X028785Y023310D01*
X028801Y023294D01*
X028815Y023275D01*
X028825Y023253D01*
X028831Y023230D01*
X028833Y023207D01*
X028831Y023184D01*
X028825Y023161D01*
X028815Y023140D01*
X028801Y023120D01*
X028785Y023104D01*
X028766Y023090D01*
X028744Y023080D01*
X028721Y023074D01*
X028698Y023072D01*
X028675Y023074D01*
X028652Y023080D01*
X028630Y023090D01*
X028611Y023104D01*
X028595Y023120D01*
X028581Y023139D01*
X028571Y023161D01*
X028565Y023184D01*
X028563Y023207D01*
X028555Y024477D02*
X028557Y024501D01*
X028563Y024524D01*
X028573Y024546D01*
X028587Y024566D01*
X028604Y024583D01*
X028624Y024597D01*
X028646Y024607D01*
X028669Y024613D01*
X028693Y024615D01*
X028717Y024613D01*
X028740Y024607D01*
X028762Y024597D01*
X028782Y024583D01*
X028799Y024566D01*
X028813Y024546D01*
X028823Y024524D01*
X028829Y024501D01*
X028831Y024477D01*
X028829Y024453D01*
X028823Y024430D01*
X028813Y024408D01*
X028799Y024388D01*
X028782Y024371D01*
X028762Y024357D01*
X028740Y024347D01*
X028717Y024341D01*
X028693Y024339D01*
X028669Y024341D01*
X028646Y024347D01*
X028624Y024357D01*
X028604Y024371D01*
X028587Y024388D01*
X028573Y024408D01*
X028563Y024430D01*
X028557Y024453D01*
X028555Y024477D01*
X024113Y029572D02*
X023926Y029572D01*
X023833Y029666D01*
X023833Y029853D01*
X023926Y029946D01*
X024113Y029946D01*
X024206Y029853D01*
X024206Y029666D01*
X024113Y029572D01*
X023562Y029572D02*
X023562Y029853D01*
X023468Y029946D01*
X023188Y029946D01*
X023188Y029572D01*
X022945Y029572D02*
X022759Y029572D01*
X022852Y029572D02*
X022852Y029946D01*
X022759Y029946D01*
X022852Y030133D02*
X022852Y030226D01*
X022488Y030133D02*
X022114Y029572D01*
X021843Y029572D02*
X021843Y029946D01*
X022114Y030133D02*
X022488Y029572D01*
X021843Y029572D02*
X021563Y029572D01*
X021469Y029666D01*
X021469Y029946D01*
X021199Y029853D02*
X021199Y029572D01*
X021199Y029853D02*
X021105Y029946D01*
X020825Y029946D01*
X020825Y029572D01*
X020582Y029572D02*
X020395Y029572D01*
X020489Y029572D02*
X020489Y029946D01*
X020395Y029946D01*
X020489Y030133D02*
X020489Y030226D01*
X019751Y030133D02*
X019751Y029572D01*
X020124Y029572D01*
X019480Y029666D02*
X019480Y030039D01*
X019386Y030133D01*
X019200Y030133D01*
X019106Y030039D01*
X019106Y029666D01*
X019200Y029572D01*
X019386Y029572D01*
X019480Y029666D01*
X018835Y029853D02*
X018462Y029853D01*
X018191Y029946D02*
X018097Y029853D01*
X018191Y029759D01*
X018191Y029666D01*
X018097Y029572D01*
X017911Y029572D01*
X017817Y029666D01*
X018004Y029853D02*
X018097Y029853D01*
X018191Y029946D02*
X018191Y030039D01*
X018097Y030133D01*
X017911Y030133D01*
X017817Y030039D01*
X017546Y030039D02*
X017453Y030133D01*
X017266Y030133D01*
X017173Y030039D01*
X017359Y029853D02*
X017453Y029853D01*
X017546Y029759D01*
X017546Y029666D01*
X017453Y029572D01*
X017266Y029572D01*
X017173Y029666D01*
X016902Y029572D02*
X016902Y029946D01*
X016715Y030133D01*
X016528Y029946D01*
X016528Y029572D01*
X016528Y029853D02*
X016902Y029853D01*
X017453Y029853D02*
X017546Y029946D01*
X017546Y030039D01*
D11*
X016865Y028543D02*
X016651Y028543D01*
X016598Y028489D01*
X016598Y028382D01*
X016651Y028329D01*
X016705Y028329D01*
X016758Y028382D01*
X016758Y028543D01*
X016865Y028543D02*
X016918Y028489D01*
X016918Y028382D01*
X016865Y028329D01*
X016865Y028174D02*
X016811Y028174D01*
X016758Y028121D01*
X016758Y027961D01*
X016865Y027961D01*
X016918Y028014D01*
X016918Y028121D01*
X016865Y028174D01*
X016758Y027961D02*
X016651Y028067D01*
X016598Y028174D01*
X016651Y027806D02*
X016598Y027753D01*
X016598Y027646D01*
X016651Y027592D01*
X016865Y027592D01*
X016918Y027646D01*
X016918Y027753D01*
X016865Y027806D01*
X019104Y027252D02*
X019232Y027252D01*
X019232Y027528D01*
X019379Y027528D02*
X019379Y026977D01*
X019537Y026977D01*
X019537Y027528D01*
X019379Y027528D01*
X019684Y027528D02*
X019684Y027252D01*
X019684Y026977D01*
X019684Y027252D02*
X019803Y027252D01*
X019232Y027252D02*
X019232Y026977D01*
X019201Y026463D02*
X019308Y026463D01*
X019362Y026409D01*
X019362Y026196D01*
X019308Y026142D01*
X019201Y026142D01*
X019148Y026196D01*
X019148Y026409D01*
X019201Y026463D01*
X019255Y026249D02*
X019362Y026142D01*
X019516Y026142D02*
X019730Y026142D01*
X019623Y026142D02*
X019623Y026463D01*
X019516Y026356D01*
X021298Y029042D02*
X021298Y029363D01*
X021458Y029363D01*
X021512Y029309D01*
X021512Y029203D01*
X021458Y029149D01*
X021298Y029149D01*
X021405Y029149D02*
X021512Y029042D01*
X021666Y029096D02*
X021720Y029042D01*
X021827Y029042D01*
X021880Y029149D02*
X021666Y029149D01*
X021666Y029096D02*
X021666Y029203D01*
X021720Y029256D01*
X021827Y029256D01*
X021880Y029203D01*
X021880Y029149D01*
X022035Y029256D02*
X022141Y029042D01*
X022248Y029256D01*
X022403Y029096D02*
X022456Y029096D01*
X022456Y029042D01*
X022403Y029042D01*
X022403Y029096D01*
X022587Y029096D02*
X022641Y029042D01*
X022747Y029042D01*
X022801Y029096D01*
X022801Y029309D02*
X022747Y029363D01*
X022641Y029363D01*
X022587Y029309D01*
X022587Y029096D01*
X022694Y028483D02*
X022694Y028404D01*
X022694Y028483D02*
X027103Y028483D01*
X027103Y028168D01*
X022940Y028168D01*
X022694Y027922D02*
X022694Y025363D01*
X022694Y025048D01*
X022881Y024861D01*
X027103Y024861D01*
X027103Y024940D01*
X026857Y025176D02*
X022881Y025176D01*
X022694Y025363D01*
X022518Y025346D02*
X022518Y025453D01*
X022465Y025506D01*
X022198Y025506D01*
X022251Y025661D02*
X022198Y025714D01*
X022198Y025821D01*
X022251Y025874D01*
X022305Y025874D01*
X022358Y025821D01*
X022411Y025874D01*
X022465Y025874D01*
X022518Y025821D01*
X022518Y025714D01*
X022465Y025661D01*
X022358Y025767D02*
X022358Y025821D01*
X022518Y025346D02*
X022465Y025292D01*
X022198Y025292D01*
X022298Y022713D02*
X022298Y022392D01*
X022298Y022553D02*
X022351Y022606D01*
X022458Y022606D01*
X022512Y022553D01*
X022512Y022392D01*
X022720Y022446D02*
X022720Y022659D01*
X022773Y022606D02*
X022666Y022606D01*
X022720Y022446D02*
X022773Y022392D01*
X022965Y022446D02*
X022965Y022659D01*
X022912Y022606D02*
X023019Y022606D01*
X023157Y022606D02*
X023318Y022606D01*
X023371Y022553D01*
X023371Y022446D01*
X023318Y022392D01*
X023157Y022392D01*
X023157Y022286D02*
X023157Y022606D01*
X022965Y022446D02*
X023019Y022392D01*
X023526Y022392D02*
X023686Y022392D01*
X023739Y022446D01*
X023686Y022499D01*
X023579Y022499D01*
X023526Y022553D01*
X023579Y022606D01*
X023739Y022606D01*
X023894Y022606D02*
X023894Y022553D01*
X023947Y022553D01*
X023947Y022606D01*
X023894Y022606D01*
X023894Y022446D02*
X023894Y022392D01*
X023947Y022392D01*
X023947Y022446D01*
X023894Y022446D01*
X024078Y022392D02*
X024292Y022713D01*
X024446Y022392D02*
X024660Y022713D01*
X024815Y022606D02*
X024815Y022446D01*
X024868Y022392D01*
X024922Y022446D01*
X024975Y022392D01*
X025028Y022446D01*
X025028Y022606D01*
X025183Y022606D02*
X025183Y022446D01*
X025236Y022392D01*
X025290Y022446D01*
X025343Y022392D01*
X025397Y022446D01*
X025397Y022606D01*
X025551Y022606D02*
X025551Y022446D01*
X025605Y022392D01*
X025658Y022446D01*
X025712Y022392D01*
X025765Y022446D01*
X025765Y022606D01*
X025920Y022446D02*
X025973Y022446D01*
X025973Y022392D01*
X025920Y022392D01*
X025920Y022446D01*
X026104Y022446D02*
X026157Y022392D01*
X026264Y022392D01*
X026317Y022446D01*
X026317Y022553D01*
X026264Y022606D01*
X026157Y022606D01*
X026104Y022553D01*
X026104Y022446D01*
X026472Y022392D02*
X026579Y022392D01*
X026526Y022392D02*
X026526Y022713D01*
X026472Y022713D01*
X026718Y022606D02*
X026771Y022606D01*
X026771Y022392D01*
X026718Y022392D02*
X026824Y022392D01*
X026963Y022392D02*
X026963Y022606D01*
X027017Y022606D01*
X027070Y022553D01*
X027123Y022606D01*
X027177Y022553D01*
X027177Y022392D01*
X027070Y022392D02*
X027070Y022553D01*
X027331Y022553D02*
X027331Y022446D01*
X027385Y022392D01*
X027492Y022392D01*
X027545Y022499D02*
X027331Y022499D01*
X027331Y022553D02*
X027385Y022606D01*
X027492Y022606D01*
X027545Y022553D01*
X027545Y022499D01*
X027700Y022392D02*
X027913Y022606D01*
X027700Y022606D02*
X027913Y022392D01*
X028068Y022392D02*
X028121Y022392D01*
X028121Y022446D01*
X028068Y022446D01*
X028068Y022392D01*
X028252Y022446D02*
X028306Y022392D01*
X028466Y022392D01*
X028621Y022446D02*
X028674Y022392D01*
X028781Y022392D01*
X028834Y022446D01*
X028834Y022553D01*
X028781Y022606D01*
X028674Y022606D01*
X028621Y022553D01*
X028621Y022446D01*
X028466Y022606D02*
X028306Y022606D01*
X028252Y022553D01*
X028252Y022446D01*
X028245Y022163D02*
X028138Y022163D01*
X028085Y022109D01*
X028085Y022056D01*
X028138Y022003D01*
X028298Y022003D01*
X028298Y022109D02*
X028245Y022163D01*
X028298Y022109D02*
X028298Y021896D01*
X028245Y021842D01*
X028138Y021842D01*
X028085Y021896D01*
X027930Y021842D02*
X027716Y021842D01*
X027823Y021842D02*
X027823Y022163D01*
X027716Y022056D01*
X027562Y022109D02*
X027508Y022163D01*
X027348Y022163D01*
X027348Y021842D01*
X027348Y021949D02*
X027508Y021949D01*
X027562Y022003D01*
X027562Y022109D01*
X027455Y021949D02*
X027562Y021842D01*
X027103Y021475D02*
X022694Y021475D01*
X022694Y021397D01*
X022940Y021160D02*
X027103Y021160D01*
X027103Y021475D01*
X027103Y021160D02*
X027103Y018414D01*
X026857Y018168D02*
X022881Y018168D01*
X022694Y018355D01*
X022694Y020914D01*
X021280Y020442D02*
X021066Y020442D01*
X021173Y020442D02*
X021173Y020763D01*
X021066Y020656D01*
X020912Y020763D02*
X020912Y020496D01*
X020858Y020442D01*
X020751Y020442D01*
X020698Y020496D01*
X020698Y020763D01*
X022251Y018774D02*
X022198Y018721D01*
X022198Y018614D01*
X022251Y018561D01*
X022198Y018406D02*
X022465Y018406D01*
X022518Y018353D01*
X022518Y018246D01*
X022465Y018192D01*
X022198Y018192D01*
X022518Y018561D02*
X022305Y018774D01*
X022251Y018774D01*
X022518Y018774D02*
X022518Y018561D01*
X022694Y018355D02*
X022694Y018040D01*
X022881Y017853D01*
X027103Y017853D01*
X027103Y017932D01*
X027648Y018192D02*
X027648Y018513D01*
X027648Y018353D02*
X027862Y018353D01*
X028016Y018353D02*
X028123Y018353D01*
X028016Y018513D02*
X028016Y018192D01*
X028230Y018192D01*
X028385Y018192D02*
X028385Y018406D01*
X028491Y018513D01*
X028598Y018406D01*
X028598Y018192D01*
X028753Y018192D02*
X028913Y018192D01*
X028967Y018246D01*
X028967Y018459D01*
X028913Y018513D01*
X028753Y018513D01*
X028753Y018192D01*
X028598Y018353D02*
X028385Y018353D01*
X028230Y018513D02*
X028016Y018513D01*
X027862Y018513D02*
X027862Y018192D01*
X029121Y018192D02*
X029121Y018513D01*
X029281Y018513D01*
X029335Y018459D01*
X029335Y018353D01*
X029281Y018299D01*
X029121Y018299D01*
X029490Y018353D02*
X029703Y018353D01*
X029703Y018513D02*
X029703Y018192D01*
X029858Y018246D02*
X029911Y018192D01*
X030018Y018192D01*
X030071Y018246D01*
X030071Y018459D01*
X030018Y018513D01*
X029911Y018513D01*
X029858Y018459D01*
X029858Y018246D01*
X030226Y018192D02*
X030226Y018513D01*
X030440Y018192D01*
X030440Y018513D01*
X030595Y018513D02*
X030595Y018192D01*
X030808Y018192D01*
X030963Y018246D02*
X031016Y018192D01*
X031123Y018192D01*
X031176Y018246D01*
X031176Y018299D01*
X031123Y018353D01*
X031016Y018353D01*
X030963Y018406D01*
X030963Y018459D01*
X031016Y018513D01*
X031123Y018513D01*
X031176Y018459D01*
X030808Y018513D02*
X030595Y018513D01*
X030595Y018353D02*
X030701Y018353D01*
X029490Y018192D02*
X029490Y018513D01*
X028245Y020342D02*
X028138Y020342D01*
X028085Y020396D01*
X028298Y020609D01*
X028298Y020396D01*
X028245Y020342D01*
X028085Y020396D02*
X028085Y020609D01*
X028138Y020663D01*
X028245Y020663D01*
X028298Y020609D01*
X027930Y020609D02*
X027877Y020663D01*
X027770Y020663D01*
X027716Y020609D01*
X027562Y020609D02*
X027562Y020503D01*
X027508Y020449D01*
X027348Y020449D01*
X027348Y020342D02*
X027348Y020663D01*
X027508Y020663D01*
X027562Y020609D01*
X027455Y020449D02*
X027562Y020342D01*
X027716Y020342D02*
X027930Y020556D01*
X027930Y020609D01*
X027930Y020342D02*
X027716Y020342D01*
X028989Y022392D02*
X028989Y022606D01*
X029042Y022606D01*
X029096Y022553D01*
X029149Y022606D01*
X029202Y022553D01*
X029202Y022392D01*
X029096Y022392D02*
X029096Y022553D01*
X026771Y022713D02*
X026771Y022766D01*
X027103Y025422D02*
X027103Y028168D01*
X027593Y028263D02*
X027593Y027942D01*
X027593Y028049D02*
X027753Y028049D01*
X027807Y028103D01*
X027807Y028209D01*
X027753Y028263D01*
X027593Y028263D01*
X027700Y028049D02*
X027807Y027942D01*
X027961Y028103D02*
X028175Y028103D01*
X028122Y028263D02*
X027961Y028103D01*
X028122Y028263D02*
X028122Y027942D01*
X028330Y027996D02*
X028383Y027942D01*
X028490Y027942D01*
X028543Y027996D01*
X028543Y028049D01*
X028490Y028103D01*
X028437Y028103D01*
X028490Y028103D02*
X028543Y028156D01*
X028543Y028209D01*
X028490Y028263D01*
X028383Y028263D01*
X028330Y028209D01*
X028848Y028186D02*
X028848Y028079D01*
X028848Y028133D02*
X029168Y028133D01*
X029168Y028186D02*
X029168Y028079D01*
X029115Y027925D02*
X029168Y027871D01*
X029168Y027765D01*
X029115Y027711D01*
X029008Y027765D02*
X029008Y027871D01*
X029061Y027925D01*
X029115Y027925D01*
X029008Y027765D02*
X028955Y027711D01*
X028901Y027711D01*
X028848Y027765D01*
X028848Y027871D01*
X028901Y027925D01*
X028901Y027556D02*
X028848Y027503D01*
X028848Y027343D01*
X029168Y027343D01*
X029168Y027503D01*
X029115Y027556D01*
X028901Y027556D01*
X028848Y027188D02*
X029168Y026975D01*
X029168Y026836D02*
X029168Y026729D01*
X029168Y026782D02*
X028848Y026782D01*
X028848Y026729D02*
X028848Y026836D01*
X028901Y026574D02*
X028848Y026521D01*
X028848Y026414D01*
X028901Y026361D01*
X028955Y026361D01*
X029008Y026414D01*
X029008Y026521D01*
X029061Y026574D01*
X029115Y026574D01*
X029168Y026521D01*
X029168Y026414D01*
X029115Y026361D01*
X029115Y026206D02*
X029168Y026153D01*
X029168Y026046D01*
X029115Y025992D01*
X028901Y025992D01*
X028848Y026046D01*
X028848Y026153D01*
X028901Y026206D01*
X022190Y015713D02*
X022083Y015713D01*
X022030Y015659D01*
X022030Y015606D01*
X022083Y015553D01*
X022243Y015553D01*
X022243Y015659D02*
X022243Y015446D01*
X022190Y015392D01*
X022083Y015392D01*
X022030Y015446D01*
X021875Y015446D02*
X021822Y015392D01*
X021715Y015392D01*
X021661Y015446D01*
X021661Y015659D01*
X021715Y015713D01*
X021822Y015713D01*
X021875Y015659D01*
X022190Y015713D02*
X022243Y015659D01*
X023948Y015209D02*
X023948Y014996D01*
X024001Y014942D01*
X024108Y014942D01*
X024162Y014996D01*
X024316Y014996D02*
X024316Y015049D01*
X024370Y015103D01*
X024477Y015103D01*
X024530Y015049D01*
X024530Y014996D01*
X024477Y014942D01*
X024370Y014942D01*
X024316Y014996D01*
X024370Y015103D02*
X024316Y015156D01*
X024316Y015209D01*
X024370Y015263D01*
X024477Y015263D01*
X024530Y015209D01*
X024530Y015156D01*
X024477Y015103D01*
X024162Y015209D02*
X024108Y015263D01*
X024001Y015263D01*
X023948Y015209D01*
X023268Y013624D02*
X023268Y013411D01*
X023268Y013517D02*
X022948Y013517D01*
X023055Y013411D01*
X023001Y013256D02*
X022948Y013203D01*
X022948Y013096D01*
X023001Y013042D01*
X023215Y013042D01*
X023268Y013096D01*
X023268Y013203D01*
X023215Y013256D01*
X023188Y012163D02*
X023135Y012109D01*
X023188Y012163D02*
X023295Y012163D01*
X023348Y012109D01*
X023348Y012056D01*
X023135Y011842D01*
X023348Y011842D01*
X023648Y011842D02*
X023648Y012163D01*
X023808Y012163D01*
X023862Y012109D01*
X023862Y012003D01*
X023808Y011949D01*
X023648Y011949D01*
X023755Y011949D02*
X023862Y011842D01*
X024016Y011842D02*
X024016Y011896D01*
X024230Y012109D01*
X024230Y012163D01*
X024016Y012163D01*
X024385Y012109D02*
X024385Y011896D01*
X024598Y012109D01*
X024598Y011896D01*
X024545Y011842D01*
X024438Y011842D01*
X024385Y011896D01*
X024385Y012109D02*
X024438Y012163D01*
X024545Y012163D01*
X024598Y012109D01*
X022980Y012109D02*
X022766Y011896D01*
X022766Y011842D01*
X022612Y011842D02*
X022505Y011949D01*
X022558Y011949D02*
X022398Y011949D01*
X022398Y011842D02*
X022398Y012163D01*
X022558Y012163D01*
X022612Y012109D01*
X022612Y012003D01*
X022558Y011949D01*
X022766Y012163D02*
X022980Y012163D01*
X022980Y012109D01*
X023027Y010962D02*
X022389Y010962D01*
X022389Y010925D01*
X022389Y010608D02*
X022389Y010571D01*
X022389Y010234D02*
X022389Y010197D01*
X022389Y009880D02*
X022389Y009842D01*
X023027Y009842D01*
X023027Y009880D01*
X023090Y009741D02*
X023092Y009754D01*
X023098Y009765D01*
X023108Y009774D01*
X023119Y009779D01*
X023132Y009780D01*
X023145Y009777D01*
X023155Y009770D01*
X023163Y009760D01*
X023167Y009747D01*
X023167Y009735D01*
X023163Y009722D01*
X023155Y009712D01*
X023145Y009705D01*
X023132Y009702D01*
X023119Y009703D01*
X023108Y009708D01*
X023098Y009717D01*
X023092Y009728D01*
X023090Y009741D01*
X022719Y010038D02*
X022721Y010057D01*
X022727Y010075D01*
X022737Y010091D01*
X022750Y010105D01*
X022766Y010116D01*
X022783Y010123D01*
X022802Y010126D01*
X022821Y010125D01*
X022840Y010120D01*
X022856Y010111D01*
X022871Y010099D01*
X022882Y010083D01*
X022890Y010066D01*
X022894Y010048D01*
X022894Y010028D01*
X022890Y010010D01*
X022882Y009993D01*
X022871Y009977D01*
X022856Y009965D01*
X022840Y009956D01*
X022821Y009951D01*
X022802Y009950D01*
X022783Y009953D01*
X022766Y009960D01*
X022750Y009971D01*
X022737Y009985D01*
X022727Y010001D01*
X022721Y010019D01*
X022719Y010038D01*
X023027Y010197D02*
X023027Y010234D01*
X023027Y010571D02*
X023027Y010608D01*
X023027Y010925D02*
X023027Y010962D01*
X023598Y010113D02*
X023598Y009846D01*
X023651Y009792D01*
X023758Y009792D01*
X023812Y009846D01*
X023812Y010113D01*
X023966Y010113D02*
X024180Y010113D01*
X024180Y010059D01*
X023966Y009846D01*
X023966Y009792D01*
X024893Y009863D02*
X024893Y009542D01*
X024893Y009649D02*
X025053Y009649D01*
X025107Y009703D01*
X025107Y009809D01*
X025053Y009863D01*
X024893Y009863D01*
X025000Y009649D02*
X025107Y009542D01*
X025261Y009703D02*
X025475Y009703D01*
X025422Y009863D02*
X025422Y009542D01*
X025630Y009542D02*
X025630Y009596D01*
X025843Y009809D01*
X025843Y009863D01*
X025630Y009863D01*
X025422Y009863D02*
X025261Y009703D01*
X025951Y008813D02*
X025898Y008759D01*
X025898Y008546D01*
X025951Y008492D01*
X026058Y008492D01*
X026112Y008546D01*
X026266Y008492D02*
X026480Y008492D01*
X026373Y008492D02*
X026373Y008813D01*
X026266Y008706D01*
X026112Y008759D02*
X026058Y008813D01*
X025951Y008813D01*
X026635Y008759D02*
X026688Y008813D01*
X026795Y008813D01*
X026848Y008759D01*
X026848Y008706D01*
X026635Y008492D01*
X026848Y008492D01*
X027003Y008546D02*
X027217Y008759D01*
X027217Y008546D01*
X027163Y008492D01*
X027056Y008492D01*
X027003Y008546D01*
X027003Y008759D01*
X027056Y008813D01*
X027163Y008813D01*
X027217Y008759D01*
X027398Y008594D02*
X027718Y008594D01*
X027718Y008488D02*
X027718Y008701D01*
X027718Y008856D02*
X027718Y009069D01*
X027718Y008963D02*
X027398Y008963D01*
X027505Y008856D01*
X027398Y008594D02*
X027505Y008488D01*
X027451Y008333D02*
X027398Y008279D01*
X027398Y008173D01*
X027451Y008119D01*
X027665Y008119D01*
X027718Y008173D01*
X027718Y008279D01*
X027665Y008333D01*
X027648Y007263D02*
X027755Y007156D01*
X027862Y007263D01*
X027862Y006942D01*
X028016Y006942D02*
X028123Y006942D01*
X028070Y006942D02*
X028070Y007263D01*
X028123Y007263D02*
X028016Y007263D01*
X028262Y007209D02*
X028315Y007263D01*
X028422Y007263D01*
X028475Y007209D01*
X028262Y007209D02*
X028262Y006996D01*
X028315Y006942D01*
X028422Y006942D01*
X028475Y006996D01*
X027648Y006942D02*
X027648Y007263D01*
X027718Y009224D02*
X027718Y009438D01*
X027718Y009331D02*
X027398Y009331D01*
X027505Y009224D01*
X025527Y006663D02*
X025366Y006503D01*
X025580Y006503D01*
X025527Y006663D02*
X025527Y006342D01*
X025212Y006396D02*
X025212Y006609D01*
X025158Y006663D01*
X024998Y006663D01*
X024998Y006342D01*
X025158Y006342D01*
X025212Y006396D01*
X020668Y006342D02*
X020668Y006556D01*
X020668Y006711D02*
X020668Y006924D01*
X020668Y006817D02*
X020348Y006817D01*
X020455Y006711D01*
X020118Y006773D02*
X020118Y006879D01*
X020065Y006933D01*
X020118Y007088D02*
X020118Y007301D01*
X020118Y007194D02*
X019798Y007194D01*
X019905Y007088D01*
X019851Y006933D02*
X019798Y006879D01*
X019798Y006773D01*
X019851Y006719D01*
X020065Y006719D01*
X020118Y006773D01*
X019863Y006463D02*
X019756Y006463D01*
X019703Y006409D01*
X019703Y006356D01*
X019756Y006303D01*
X019917Y006303D01*
X019917Y006409D02*
X019863Y006463D01*
X019917Y006409D02*
X019917Y006196D01*
X019863Y006142D01*
X019756Y006142D01*
X019703Y006196D01*
X019548Y006142D02*
X019335Y006142D01*
X019441Y006142D02*
X019441Y006463D01*
X019335Y006356D01*
X019180Y006142D02*
X018966Y006142D01*
X019073Y006142D02*
X019073Y006463D01*
X018966Y006356D01*
X018812Y006409D02*
X018758Y006463D01*
X018651Y006463D01*
X018598Y006409D01*
X018598Y006196D01*
X018651Y006142D01*
X018758Y006142D01*
X018812Y006196D01*
X018165Y007492D02*
X017951Y007492D01*
X017898Y007546D01*
X017898Y007653D01*
X017951Y007706D01*
X018005Y007861D02*
X017898Y007967D01*
X018218Y007967D01*
X018218Y007861D02*
X018218Y008074D01*
X018165Y008229D02*
X017951Y008443D01*
X018165Y008443D01*
X018218Y008389D01*
X018218Y008282D01*
X018165Y008229D01*
X017951Y008229D01*
X017898Y008282D01*
X017898Y008389D01*
X017951Y008443D01*
X018058Y008597D02*
X018058Y008757D01*
X018111Y008811D01*
X018165Y008811D01*
X018218Y008757D01*
X018218Y008651D01*
X018165Y008597D01*
X018058Y008597D01*
X017951Y008704D01*
X017898Y008811D01*
X017665Y008443D02*
X017718Y008389D01*
X017718Y008282D01*
X017665Y008229D01*
X017558Y008229D02*
X017505Y008336D01*
X017505Y008389D01*
X017558Y008443D01*
X017665Y008443D01*
X017558Y008229D02*
X017398Y008229D01*
X017398Y008443D01*
X017558Y008074D02*
X017558Y007861D01*
X017398Y008021D01*
X017718Y008021D01*
X017718Y007706D02*
X017611Y007599D01*
X017611Y007653D02*
X017611Y007492D01*
X017718Y007492D02*
X017398Y007492D01*
X017398Y007653D01*
X017451Y007706D01*
X017558Y007706D01*
X017611Y007653D01*
X018165Y007706D02*
X018218Y007653D01*
X018218Y007546D01*
X018165Y007492D01*
X019798Y007509D02*
X019798Y007616D01*
X019851Y007669D01*
X020065Y007456D01*
X020118Y007509D01*
X020118Y007616D01*
X020065Y007669D01*
X019851Y007669D01*
X019798Y007824D02*
X019958Y007824D01*
X019905Y007931D01*
X019905Y007984D01*
X019958Y008038D01*
X020065Y008038D01*
X020118Y007984D01*
X020118Y007877D01*
X020065Y007824D01*
X019798Y007824D02*
X019798Y008038D01*
X019798Y007509D02*
X019851Y007456D01*
X020065Y007456D01*
X020348Y007239D02*
X020401Y007293D01*
X020455Y007293D01*
X020508Y007239D01*
X020561Y007293D01*
X020615Y007293D01*
X020668Y007239D01*
X020668Y007132D01*
X020615Y007079D01*
X020508Y007186D02*
X020508Y007239D01*
X020348Y007239D02*
X020348Y007132D01*
X020401Y007079D01*
X020348Y006342D02*
X020668Y006342D01*
X020515Y009442D02*
X020301Y009442D01*
X020248Y009496D01*
X020248Y009603D01*
X020301Y009656D01*
X020301Y009811D02*
X020355Y009811D01*
X020408Y009864D01*
X020408Y010024D01*
X020515Y010024D02*
X020301Y010024D01*
X020248Y009971D01*
X020248Y009864D01*
X020301Y009811D01*
X020515Y009811D02*
X020568Y009864D01*
X020568Y009971D01*
X020515Y010024D01*
X020408Y010179D02*
X020248Y010339D01*
X020568Y010339D01*
X020408Y010393D02*
X020408Y010179D01*
X020515Y009656D02*
X020568Y009603D01*
X020568Y009496D01*
X020515Y009442D01*
X021451Y011342D02*
X021398Y011396D01*
X021398Y011503D01*
X021451Y011556D01*
X021505Y011711D02*
X021398Y011817D01*
X021718Y011817D01*
X021718Y011711D02*
X021718Y011924D01*
X021558Y012079D02*
X021398Y012239D01*
X021718Y012239D01*
X021558Y012293D02*
X021558Y012079D01*
X021505Y012447D02*
X021398Y012554D01*
X021718Y012554D01*
X021718Y012447D02*
X021718Y012661D01*
X020935Y013327D02*
X020722Y013327D01*
X020829Y013327D02*
X020829Y013647D01*
X020722Y013541D01*
X020567Y013647D02*
X020354Y013647D01*
X020460Y013647D02*
X020460Y013327D01*
X019468Y013542D02*
X019148Y013542D01*
X019148Y013703D01*
X019201Y013756D01*
X019308Y013756D01*
X019361Y013703D01*
X019361Y013542D01*
X019361Y013649D02*
X019468Y013756D01*
X019415Y013911D02*
X019468Y013964D01*
X019468Y014071D01*
X019415Y014124D01*
X019361Y014124D01*
X019308Y014071D01*
X019308Y014017D01*
X019308Y014071D02*
X019255Y014124D01*
X019201Y014124D01*
X019148Y014071D01*
X019148Y013964D01*
X019201Y013911D01*
X019148Y014279D02*
X019308Y014279D01*
X019255Y014386D01*
X019255Y014439D01*
X019308Y014493D01*
X019415Y014493D01*
X019468Y014439D01*
X019468Y014332D01*
X019415Y014279D01*
X019148Y014279D02*
X019148Y014493D01*
X021665Y011556D02*
X021718Y011503D01*
X021718Y011396D01*
X021665Y011342D01*
X021451Y011342D01*
X018068Y010221D02*
X018068Y010114D01*
X018015Y010061D01*
X017908Y010061D01*
X017908Y010221D01*
X017961Y010274D01*
X018015Y010274D01*
X018068Y010221D01*
X017908Y010061D02*
X017801Y010167D01*
X017748Y010274D01*
X018068Y009906D02*
X018068Y009692D01*
X017748Y009692D01*
X015980Y008213D02*
X015766Y008213D01*
X015766Y008053D01*
X015873Y008106D01*
X015927Y008106D01*
X015980Y008053D01*
X015980Y007946D01*
X015927Y007892D01*
X015820Y007892D01*
X015766Y007946D01*
X015612Y007892D02*
X015398Y007892D01*
X015398Y008213D01*
X013318Y008542D02*
X013318Y008756D01*
X013318Y008542D02*
X012998Y008542D01*
X013158Y008911D02*
X012998Y009071D01*
X013318Y009071D01*
X013158Y009124D02*
X013158Y008911D01*
X013268Y010356D02*
X012948Y010356D01*
X013268Y010356D02*
X013268Y010569D01*
X013215Y010724D02*
X013268Y010777D01*
X013268Y010884D01*
X013215Y010938D01*
X013001Y010938D01*
X012948Y010884D01*
X012948Y010777D01*
X013001Y010724D01*
X013055Y010724D01*
X013108Y010777D01*
X013108Y010938D01*
X013448Y011042D02*
X013715Y011042D01*
X013768Y011096D01*
X013768Y011203D01*
X013715Y011256D01*
X013448Y011256D01*
X013608Y011411D02*
X013608Y011571D01*
X013661Y011624D01*
X013715Y011624D01*
X013768Y011571D01*
X013768Y011464D01*
X013715Y011411D01*
X013608Y011411D01*
X013501Y011517D01*
X013448Y011624D01*
X011743Y012559D02*
X011530Y012346D01*
X011530Y012292D01*
X011375Y012346D02*
X011322Y012292D01*
X011215Y012292D01*
X011161Y012346D01*
X011375Y012559D01*
X011375Y012346D01*
X011375Y012559D02*
X011322Y012613D01*
X011215Y012613D01*
X011161Y012559D01*
X011161Y012346D01*
X011007Y012292D02*
X010793Y012292D01*
X010900Y012292D02*
X010900Y012613D01*
X010793Y012506D01*
X010638Y012559D02*
X010585Y012613D01*
X010478Y012613D01*
X010425Y012559D01*
X010425Y012346D01*
X010478Y012292D01*
X010585Y012292D01*
X010638Y012346D01*
X010585Y012842D02*
X010478Y012842D01*
X010425Y012896D01*
X010425Y013109D01*
X010478Y013163D01*
X010585Y013163D01*
X010638Y013109D01*
X010793Y013056D02*
X010900Y013163D01*
X010900Y012842D01*
X010793Y012842D02*
X011007Y012842D01*
X011161Y012896D02*
X011375Y013109D01*
X011375Y012896D01*
X011322Y012842D01*
X011215Y012842D01*
X011161Y012896D01*
X011161Y013109D01*
X011215Y013163D01*
X011322Y013163D01*
X011375Y013109D01*
X011530Y013056D02*
X011637Y013163D01*
X011637Y012842D01*
X011743Y012842D02*
X011530Y012842D01*
X011530Y012613D02*
X011743Y012613D01*
X011743Y012559D01*
X010638Y012896D02*
X010585Y012842D01*
X009968Y012819D02*
X009755Y012819D01*
X009648Y012712D01*
X009755Y012606D01*
X009968Y012606D01*
X009808Y012606D02*
X009808Y012819D01*
X009648Y012974D02*
X009648Y013188D01*
X009648Y013081D02*
X009968Y013081D01*
X009915Y012451D02*
X009968Y012398D01*
X009968Y012237D01*
X009648Y012237D01*
X009648Y012398D01*
X009701Y012451D01*
X009755Y012451D01*
X009808Y012398D01*
X009808Y012237D01*
X009808Y012398D02*
X009861Y012451D01*
X009915Y012451D01*
X010021Y012083D02*
X010021Y011869D01*
X009915Y011714D02*
X009701Y011714D01*
X009648Y011661D01*
X009648Y011554D01*
X009701Y011501D01*
X009915Y011501D01*
X009968Y011554D01*
X009968Y011661D01*
X009915Y011714D01*
X009808Y011346D02*
X009701Y011346D01*
X009648Y011293D01*
X009648Y011133D01*
X009968Y011133D01*
X009861Y011133D02*
X009861Y011293D01*
X009808Y011346D01*
X009648Y010994D02*
X009648Y010887D01*
X009648Y010940D02*
X009968Y010940D01*
X009968Y010887D02*
X009968Y010994D01*
X009968Y010732D02*
X009968Y010519D01*
X009648Y010519D01*
X008815Y013419D02*
X008868Y013473D01*
X008868Y013579D01*
X008815Y013633D01*
X008708Y013633D01*
X008655Y013579D01*
X008655Y013526D01*
X008708Y013419D01*
X008548Y013419D01*
X008548Y013633D01*
X008548Y013788D02*
X008761Y013788D01*
X008868Y013894D01*
X008761Y014001D01*
X008548Y014001D01*
X008921Y014156D02*
X008921Y014369D01*
X008868Y014524D02*
X008548Y014524D01*
X008548Y014738D01*
X008708Y014631D02*
X008708Y014524D01*
X008868Y014524D02*
X008868Y014738D01*
X008933Y015742D02*
X008880Y015796D01*
X008933Y015742D02*
X009040Y015742D01*
X009093Y015796D01*
X009093Y015849D01*
X009040Y015903D01*
X008987Y015903D01*
X009040Y015903D02*
X009093Y015956D01*
X009093Y016009D01*
X009040Y016063D01*
X008933Y016063D01*
X008880Y016009D01*
X008725Y016009D02*
X008672Y016063D01*
X008511Y016063D01*
X008511Y015742D01*
X008672Y015742D01*
X008725Y015796D01*
X008725Y016009D01*
X008658Y016852D02*
X008658Y017002D01*
X008858Y016852D01*
X008858Y017152D01*
X008658Y017002D01*
X008658Y017152D01*
X008658Y017852D02*
X008658Y018002D01*
X008858Y017852D01*
X008858Y018152D01*
X008658Y018002D01*
X008658Y018152D01*
X008658Y018852D02*
X008658Y019002D01*
X008858Y018852D01*
X008858Y019152D01*
X008658Y019002D01*
X008658Y019152D01*
X008748Y019692D02*
X008908Y019692D01*
X008962Y019746D01*
X008962Y019959D01*
X008908Y020013D01*
X008748Y020013D01*
X008748Y019692D01*
X009116Y019692D02*
X009330Y019692D01*
X009223Y019692D02*
X009223Y020013D01*
X009116Y019906D01*
X009398Y020456D02*
X009398Y020616D01*
X009451Y020669D01*
X009558Y020669D01*
X009611Y020616D01*
X009611Y020456D01*
X009611Y020563D02*
X009718Y020669D01*
X009718Y020824D02*
X009718Y021038D01*
X009718Y020931D02*
X009398Y020931D01*
X009505Y020824D01*
X009398Y020456D02*
X009718Y020456D01*
X009848Y019663D02*
X010008Y019663D01*
X010062Y019609D01*
X010062Y019503D01*
X010008Y019449D01*
X009848Y019449D01*
X009848Y019342D02*
X009848Y019663D01*
X009955Y019449D02*
X010062Y019342D01*
X010216Y019342D02*
X010430Y019556D01*
X010430Y019609D01*
X010377Y019663D01*
X010270Y019663D01*
X010216Y019609D01*
X010216Y019342D02*
X010430Y019342D01*
X010948Y019071D02*
X011001Y019124D01*
X011055Y019124D01*
X011108Y019071D01*
X011108Y018964D01*
X011055Y018911D01*
X011001Y018911D01*
X010948Y018964D01*
X010948Y019071D01*
X011108Y019071D02*
X011161Y019124D01*
X011215Y019124D01*
X011268Y019071D01*
X011268Y018964D01*
X011215Y018911D01*
X011161Y018911D01*
X011108Y018964D01*
X011108Y018756D02*
X011161Y018703D01*
X011161Y018542D01*
X011268Y018542D02*
X010948Y018542D01*
X010948Y018703D01*
X011001Y018756D01*
X011108Y018756D01*
X011161Y018649D02*
X011268Y018756D01*
X011351Y018174D02*
X011405Y018174D01*
X011458Y018121D01*
X011511Y018174D01*
X011565Y018174D01*
X011618Y018121D01*
X011618Y018014D01*
X011565Y017961D01*
X011458Y018067D02*
X011458Y018121D01*
X011351Y018174D02*
X011298Y018121D01*
X011298Y018014D01*
X011351Y017961D01*
X011351Y017806D02*
X011458Y017806D01*
X011511Y017753D01*
X011511Y017592D01*
X011618Y017592D02*
X011298Y017592D01*
X011298Y017753D01*
X011351Y017806D01*
X011511Y017699D02*
X011618Y017806D01*
X010648Y017609D02*
X010595Y017663D01*
X010488Y017663D01*
X010435Y017609D01*
X010280Y017503D02*
X010066Y017503D01*
X010227Y017663D01*
X010227Y017342D01*
X010435Y017342D02*
X010648Y017556D01*
X010648Y017609D01*
X010648Y017342D02*
X010435Y017342D01*
X009912Y017342D02*
X009805Y017449D01*
X009858Y017449D02*
X009698Y017449D01*
X009698Y017342D02*
X009698Y017663D01*
X009858Y017663D01*
X009912Y017609D01*
X009912Y017503D01*
X009858Y017449D01*
X009912Y018342D02*
X009805Y018449D01*
X009858Y018449D02*
X009698Y018449D01*
X009698Y018342D02*
X009698Y018663D01*
X009858Y018663D01*
X009912Y018609D01*
X009912Y018503D01*
X009858Y018449D01*
X010066Y018396D02*
X010120Y018342D01*
X010227Y018342D01*
X010280Y018396D01*
X010280Y018449D01*
X010227Y018503D01*
X010066Y018503D01*
X010066Y018396D01*
X010066Y018503D02*
X010173Y018609D01*
X010280Y018663D01*
X010435Y018609D02*
X010435Y018556D01*
X010488Y018503D01*
X010648Y018503D01*
X010648Y018609D02*
X010648Y018396D01*
X010595Y018342D01*
X010488Y018342D01*
X010435Y018396D01*
X010435Y018609D02*
X010488Y018663D01*
X010595Y018663D01*
X010648Y018609D01*
X011598Y019792D02*
X011598Y020113D01*
X011758Y020113D01*
X011812Y020059D01*
X011812Y019953D01*
X011758Y019899D01*
X011598Y019899D01*
X011705Y019899D02*
X011812Y019792D01*
X011966Y019953D02*
X012180Y019953D01*
X012127Y020113D02*
X012127Y019792D01*
X011966Y019953D02*
X012127Y020113D01*
X012561Y020146D02*
X012561Y020413D01*
X012775Y020413D02*
X012775Y020146D01*
X012722Y020092D01*
X012615Y020092D01*
X012561Y020146D01*
X012930Y020253D02*
X013143Y020253D01*
X013090Y020413D02*
X013090Y020092D01*
X012930Y020253D02*
X013090Y020413D01*
X013548Y020842D02*
X013548Y021163D01*
X013708Y021163D01*
X013762Y021109D01*
X013762Y021003D01*
X013708Y020949D01*
X013548Y020949D01*
X013655Y020949D02*
X013762Y020842D01*
X013916Y021003D02*
X014077Y021163D01*
X014077Y020842D01*
X014130Y021003D02*
X013916Y021003D01*
X014285Y021056D02*
X014391Y021163D01*
X014391Y020842D01*
X014285Y020842D02*
X014498Y020842D01*
X014498Y021392D02*
X014285Y021392D01*
X014498Y021606D01*
X014498Y021659D01*
X014445Y021713D01*
X014338Y021713D01*
X014285Y021659D01*
X014130Y021659D02*
X014077Y021713D01*
X013970Y021713D01*
X013916Y021659D01*
X013916Y021606D01*
X013970Y021553D01*
X014130Y021553D01*
X014130Y021659D02*
X014130Y021446D01*
X014077Y021392D01*
X013970Y021392D01*
X013916Y021446D01*
X013762Y021446D02*
X013708Y021392D01*
X013601Y021392D01*
X013548Y021446D01*
X013548Y021659D01*
X013601Y021713D01*
X013708Y021713D01*
X013762Y021659D01*
X011943Y021992D02*
X011730Y021992D01*
X011837Y021992D02*
X011837Y022313D01*
X011730Y022206D01*
X011575Y022259D02*
X011575Y022046D01*
X011522Y021992D01*
X011415Y021992D01*
X011361Y022046D01*
X011415Y022153D02*
X011575Y022153D01*
X011575Y022259D02*
X011522Y022313D01*
X011415Y022313D01*
X011361Y022259D01*
X011361Y022206D01*
X011415Y022153D01*
X011207Y022259D02*
X011153Y022313D01*
X011047Y022313D01*
X010993Y022259D01*
X010993Y022046D01*
X011047Y021992D01*
X011153Y021992D01*
X011207Y022046D01*
X011153Y022492D02*
X011207Y022546D01*
X011153Y022492D02*
X011047Y022492D01*
X010993Y022546D01*
X010993Y022759D01*
X011047Y022813D01*
X011153Y022813D01*
X011207Y022759D01*
X011361Y022759D02*
X011361Y022706D01*
X011415Y022653D01*
X011575Y022653D01*
X011575Y022759D02*
X011522Y022813D01*
X011415Y022813D01*
X011361Y022759D01*
X011361Y022546D02*
X011415Y022492D01*
X011522Y022492D01*
X011575Y022546D01*
X011575Y022759D01*
X011730Y022813D02*
X011730Y022653D01*
X011837Y022706D01*
X011890Y022706D01*
X011943Y022653D01*
X011943Y022546D01*
X011890Y022492D01*
X011783Y022492D01*
X011730Y022546D01*
X011730Y022813D02*
X011943Y022813D01*
X012040Y023442D02*
X012040Y023763D01*
X011880Y023603D01*
X012093Y023603D01*
X011725Y023656D02*
X011672Y023603D01*
X011565Y023603D01*
X011511Y023656D01*
X011511Y023709D01*
X011565Y023763D01*
X011672Y023763D01*
X011725Y023709D01*
X011725Y023656D01*
X011672Y023603D02*
X011725Y023549D01*
X011725Y023496D01*
X011672Y023442D01*
X011565Y023442D01*
X011511Y023496D01*
X011511Y023549D01*
X011565Y023603D01*
X011357Y023709D02*
X011303Y023763D01*
X011197Y023763D01*
X011143Y023709D01*
X011143Y023496D01*
X011197Y023442D01*
X011303Y023442D01*
X011357Y023496D01*
X012248Y024592D02*
X012248Y024913D01*
X012408Y024913D01*
X012462Y024859D01*
X012462Y024753D01*
X012408Y024699D01*
X012248Y024699D01*
X012355Y024699D02*
X012462Y024592D01*
X012616Y024646D02*
X012670Y024592D01*
X012777Y024592D01*
X012830Y024646D01*
X012830Y024699D01*
X012777Y024753D01*
X012723Y024753D01*
X012777Y024753D02*
X012830Y024806D01*
X012830Y024859D01*
X012777Y024913D01*
X012670Y024913D01*
X012616Y024859D01*
X012985Y024753D02*
X013198Y024753D01*
X013145Y024913D02*
X012985Y024753D01*
X013145Y024592D02*
X013145Y024913D01*
X012365Y026288D02*
X012151Y026288D01*
X012098Y026341D01*
X012098Y026448D01*
X012151Y026501D01*
X012098Y026656D02*
X012258Y026656D01*
X012205Y026763D01*
X012205Y026816D01*
X012258Y026869D01*
X012365Y026869D01*
X012418Y026816D01*
X012418Y026709D01*
X012365Y026656D01*
X012365Y026501D02*
X012418Y026448D01*
X012418Y026341D01*
X012365Y026288D01*
X012098Y026656D02*
X012098Y026869D01*
X012151Y027024D02*
X012205Y027024D01*
X012258Y027077D01*
X012258Y027184D01*
X012311Y027238D01*
X012365Y027238D01*
X012418Y027184D01*
X012418Y027077D01*
X012365Y027024D01*
X012311Y027024D01*
X012258Y027077D01*
X012258Y027184D02*
X012205Y027238D01*
X012151Y027238D01*
X012098Y027184D01*
X012098Y027077D01*
X012151Y027024D01*
X011918Y027077D02*
X011918Y027184D01*
X011865Y027238D01*
X011651Y027238D01*
X011598Y027184D01*
X011598Y027077D01*
X011651Y027024D01*
X011705Y027024D01*
X011758Y027077D01*
X011758Y027238D01*
X011918Y027077D02*
X011865Y027024D01*
X011865Y026869D02*
X011918Y026816D01*
X011918Y026709D01*
X011865Y026656D01*
X011758Y026656D02*
X011705Y026763D01*
X011705Y026816D01*
X011758Y026869D01*
X011865Y026869D01*
X011758Y026656D02*
X011598Y026656D01*
X011598Y026869D01*
X011418Y026816D02*
X011365Y026869D01*
X011258Y026869D01*
X011205Y026816D01*
X011205Y026763D01*
X011258Y026656D01*
X011098Y026656D01*
X011098Y026869D01*
X011098Y027024D02*
X011098Y027238D01*
X011151Y027238D01*
X011365Y027024D01*
X011418Y027024D01*
X011418Y026816D02*
X011418Y026709D01*
X011365Y026656D01*
X011365Y026501D02*
X011418Y026448D01*
X011418Y026341D01*
X011365Y026288D01*
X011151Y026288D01*
X011098Y026341D01*
X011098Y026448D01*
X011151Y026501D01*
X010818Y026582D02*
X010818Y026689D01*
X010765Y026743D01*
X010711Y026743D01*
X010658Y026689D01*
X010658Y026529D01*
X010765Y026529D01*
X010818Y026582D01*
X010658Y026529D02*
X010551Y026636D01*
X010498Y026743D01*
X010218Y026689D02*
X010165Y026743D01*
X009951Y026743D01*
X009898Y026689D01*
X009898Y026582D01*
X009951Y026529D01*
X010005Y026529D01*
X010058Y026582D01*
X010058Y026743D01*
X010218Y026689D02*
X010218Y026582D01*
X010165Y026529D01*
X010218Y026374D02*
X010218Y026161D01*
X010005Y026374D01*
X009951Y026374D01*
X009898Y026321D01*
X009898Y026214D01*
X009951Y026161D01*
X009951Y026006D02*
X010058Y026006D01*
X010111Y025953D01*
X010111Y025792D01*
X010218Y025792D02*
X009898Y025792D01*
X009898Y025953D01*
X009951Y026006D01*
X010111Y025899D02*
X010218Y026006D01*
X010498Y025953D02*
X010551Y026006D01*
X010658Y026006D01*
X010711Y025953D01*
X010711Y025792D01*
X010818Y025792D02*
X010498Y025792D01*
X010498Y025953D01*
X010711Y025899D02*
X010818Y026006D01*
X010765Y026161D02*
X010818Y026214D01*
X010818Y026321D01*
X010765Y026374D01*
X010711Y026374D01*
X010658Y026321D01*
X010658Y026161D01*
X010765Y026161D01*
X010658Y026161D02*
X010551Y026267D01*
X010498Y026374D01*
X011598Y026341D02*
X011651Y026288D01*
X011865Y026288D01*
X011918Y026341D01*
X011918Y026448D01*
X011865Y026501D01*
X011651Y026501D02*
X011598Y026448D01*
X011598Y026341D01*
X013298Y027446D02*
X013351Y027392D01*
X013565Y027392D01*
X013618Y027446D01*
X013618Y027553D01*
X013565Y027606D01*
X013565Y027761D02*
X013618Y027814D01*
X013618Y027921D01*
X013565Y027974D01*
X013511Y027974D01*
X013458Y027921D01*
X013458Y027761D01*
X013565Y027761D01*
X013458Y027761D02*
X013351Y027867D01*
X013298Y027974D01*
X013351Y028129D02*
X013405Y028129D01*
X013458Y028182D01*
X013458Y028289D01*
X013511Y028343D01*
X013565Y028343D01*
X013618Y028289D01*
X013618Y028182D01*
X013565Y028129D01*
X013511Y028129D01*
X013458Y028182D01*
X013458Y028289D02*
X013405Y028343D01*
X013351Y028343D01*
X013298Y028289D01*
X013298Y028182D01*
X013351Y028129D01*
X013351Y027606D02*
X013298Y027553D01*
X013298Y027446D01*
X013293Y029942D02*
X013400Y029942D01*
X013453Y029996D01*
X013608Y029996D02*
X013661Y029942D01*
X013768Y029942D01*
X013821Y029996D01*
X013608Y029996D02*
X013608Y030209D01*
X013661Y030263D01*
X013768Y030263D01*
X013821Y030209D01*
X013453Y030209D02*
X013400Y030263D01*
X013293Y030263D01*
X013240Y030209D01*
X013240Y029996D01*
X013293Y029942D01*
X013085Y030049D02*
X013085Y030263D01*
X012871Y030263D02*
X012871Y030049D01*
X012978Y029942D01*
X013085Y030049D01*
X012717Y029889D02*
X012503Y029889D01*
X012348Y029996D02*
X012348Y030209D01*
X012295Y030263D01*
X012135Y030263D01*
X012135Y029942D01*
X012295Y029942D01*
X012348Y029996D01*
X011980Y029996D02*
X011927Y029942D01*
X011820Y029942D01*
X011766Y029996D01*
X011766Y030209D01*
X011820Y030263D01*
X011927Y030263D01*
X011980Y030209D01*
X011612Y029942D02*
X011398Y029942D01*
X011398Y030263D01*
X010830Y030109D02*
X010830Y030056D01*
X010777Y030003D01*
X010830Y029949D01*
X010830Y029896D01*
X010777Y029842D01*
X010670Y029842D01*
X010616Y029896D01*
X010723Y030003D02*
X010777Y030003D01*
X010830Y030109D02*
X010777Y030163D01*
X010670Y030163D01*
X010616Y030109D01*
X010462Y029842D02*
X010248Y029842D01*
X010248Y030163D01*
X009782Y030001D02*
X009728Y030054D01*
X009622Y030054D01*
X009568Y030001D01*
X009568Y029788D01*
X009622Y029734D01*
X009728Y029734D01*
X009782Y029788D01*
X009782Y029894D01*
X009675Y029894D01*
X009413Y030054D02*
X009200Y030054D01*
X009307Y030054D02*
X009307Y029734D01*
X009045Y029788D02*
X009045Y030001D01*
X008992Y030054D01*
X008885Y030054D01*
X008832Y030001D01*
X008832Y029788D01*
X008885Y029734D01*
X008992Y029734D01*
X009045Y029788D01*
X008677Y029681D02*
X008463Y029681D01*
X008308Y029788D02*
X008255Y029734D01*
X008095Y029734D01*
X008095Y030054D01*
X008255Y030054D01*
X008308Y030001D01*
X008308Y029948D01*
X008255Y029894D01*
X008095Y029894D01*
X008255Y029894D02*
X008308Y029841D01*
X008308Y029788D01*
X007940Y029788D02*
X007887Y029734D01*
X007780Y029734D01*
X007727Y029788D01*
X007780Y029894D02*
X007887Y029894D01*
X007940Y029841D01*
X007940Y029788D01*
X007780Y029894D02*
X007727Y029948D01*
X007727Y030001D01*
X007780Y030054D01*
X007887Y030054D01*
X007940Y030001D01*
X007572Y030054D02*
X007572Y029788D01*
X007518Y029734D01*
X007412Y029734D01*
X007358Y029788D01*
X007358Y030054D01*
X007798Y024238D02*
X007798Y024024D01*
X007798Y024131D02*
X008118Y024131D01*
X008118Y023869D02*
X008118Y023656D01*
X007798Y023656D01*
X007798Y023869D01*
X007958Y023763D02*
X007958Y023656D01*
X008011Y023501D02*
X007958Y023448D01*
X007958Y023341D01*
X007905Y023288D01*
X007851Y023288D01*
X007798Y023341D01*
X007798Y023448D01*
X007851Y023501D01*
X008011Y023501D02*
X008065Y023501D01*
X008118Y023448D01*
X008118Y023341D01*
X008065Y023288D01*
X008118Y023133D02*
X008118Y022919D01*
X007798Y022919D01*
X007798Y023133D01*
X007958Y023026D02*
X007958Y022919D01*
X007958Y022764D02*
X008011Y022711D01*
X008011Y022551D01*
X008011Y022658D02*
X008118Y022764D01*
X007958Y022764D02*
X007851Y022764D01*
X007798Y022711D01*
X007798Y022551D01*
X008118Y022551D01*
X008798Y021913D02*
X008958Y021913D01*
X009012Y021859D01*
X009012Y021753D01*
X008958Y021699D01*
X008798Y021699D01*
X008798Y021592D02*
X008798Y021913D01*
X008905Y021699D02*
X009012Y021592D01*
X009166Y021646D02*
X009220Y021592D01*
X009327Y021592D01*
X009380Y021646D01*
X009380Y021753D01*
X009327Y021806D01*
X009273Y021806D01*
X009166Y021753D01*
X009166Y021913D01*
X009380Y021913D01*
X009535Y021913D02*
X009535Y021753D01*
X009641Y021806D01*
X009695Y021806D01*
X009748Y021753D01*
X009748Y021646D01*
X009695Y021592D01*
X009588Y021592D01*
X009535Y021646D01*
X009535Y021913D02*
X009748Y021913D01*
X010893Y021009D02*
X010893Y020796D01*
X010947Y020742D01*
X011053Y020742D01*
X011107Y020796D01*
X011261Y020796D02*
X011315Y020742D01*
X011422Y020742D01*
X011475Y020796D01*
X011475Y020849D01*
X011422Y020903D01*
X011261Y020903D01*
X011261Y020796D01*
X011261Y020903D02*
X011368Y021009D01*
X011475Y021063D01*
X011630Y021009D02*
X011683Y021063D01*
X011790Y021063D01*
X011843Y021009D01*
X011630Y020796D01*
X011683Y020742D01*
X011790Y020742D01*
X011843Y020796D01*
X011843Y021009D01*
X011630Y021009D02*
X011630Y020796D01*
X011107Y021009D02*
X011053Y021063D01*
X010947Y021063D01*
X010893Y021009D01*
X007918Y020913D02*
X007598Y020913D01*
X007598Y021019D02*
X007598Y020806D01*
X007651Y020651D02*
X007598Y020598D01*
X007598Y020438D01*
X007918Y020438D01*
X007811Y020438D02*
X007811Y020598D01*
X007758Y020651D01*
X007651Y020651D01*
X007811Y020544D02*
X007918Y020651D01*
X007918Y020283D02*
X007705Y020283D01*
X007598Y020176D01*
X007705Y020069D01*
X007918Y020069D01*
X007758Y020069D02*
X007758Y020283D01*
X007865Y019914D02*
X007598Y019914D01*
X007598Y019701D02*
X007865Y019701D01*
X007918Y019754D01*
X007918Y019861D01*
X007865Y019914D01*
X007865Y021174D02*
X007651Y021388D01*
X007865Y021388D01*
X007918Y021334D01*
X007918Y021227D01*
X007865Y021174D01*
X007651Y021174D01*
X007598Y021227D01*
X007598Y021334D01*
X007651Y021388D01*
X013198Y014563D02*
X013198Y014242D01*
X013412Y014242D01*
X013566Y014296D02*
X013566Y014349D01*
X013620Y014403D01*
X013727Y014403D01*
X013780Y014349D01*
X013780Y014296D01*
X013727Y014242D01*
X013620Y014242D01*
X013566Y014296D01*
X013620Y014403D02*
X013566Y014456D01*
X013566Y014509D01*
X013620Y014563D01*
X013727Y014563D01*
X013780Y014509D01*
X013780Y014456D01*
X013727Y014403D01*
X015248Y014563D02*
X015248Y014242D01*
X015462Y014242D01*
X015616Y014242D02*
X015616Y014296D01*
X015830Y014509D01*
X015830Y014563D01*
X015616Y014563D01*
X011667Y014092D02*
X011453Y014092D01*
X011560Y014092D02*
X011560Y014413D01*
X011453Y014306D01*
X011298Y014413D02*
X011085Y014413D01*
X011191Y014413D02*
X011191Y014092D01*
X010930Y014092D02*
X010716Y014092D01*
X010716Y014413D01*
X010930Y014413D01*
X010823Y014253D02*
X010716Y014253D01*
X010562Y014413D02*
X010348Y014413D01*
X010348Y014092D01*
X010348Y014253D02*
X010455Y014253D01*
X009443Y006413D02*
X009230Y006199D01*
X009283Y006253D02*
X009443Y006092D01*
X009230Y006092D02*
X009230Y006413D01*
X009075Y006359D02*
X009022Y006413D01*
X008915Y006413D01*
X008861Y006359D01*
X008861Y006146D01*
X008915Y006092D01*
X009022Y006092D01*
X009075Y006146D01*
X008707Y006092D02*
X008707Y006306D01*
X008600Y006413D01*
X008493Y006306D01*
X008493Y006092D01*
X008493Y006253D02*
X008707Y006253D01*
X008338Y006413D02*
X008232Y006413D01*
X008285Y006413D02*
X008285Y006146D01*
X008232Y006092D01*
X008178Y006092D01*
X008125Y006146D01*
X007970Y006039D02*
X007757Y006039D01*
X007602Y006092D02*
X007495Y006199D01*
X007548Y006199D02*
X007388Y006199D01*
X007388Y006092D02*
X007388Y006413D01*
X007548Y006413D01*
X007602Y006359D01*
X007602Y006253D01*
X007548Y006199D01*
X007233Y006092D02*
X007233Y006413D01*
X007020Y006413D02*
X007020Y006092D01*
X007127Y006199D01*
X007233Y006092D01*
X006865Y006253D02*
X006812Y006199D01*
X006652Y006199D01*
X006652Y006092D02*
X006652Y006413D01*
X006812Y006413D01*
X006865Y006359D01*
X006865Y006253D01*
X008087Y004459D02*
X008087Y004246D01*
X008193Y004353D02*
X007980Y004353D01*
X008880Y004353D02*
X009093Y004353D01*
X026148Y013292D02*
X026148Y013613D01*
X026308Y013613D01*
X026362Y013559D01*
X026362Y013453D01*
X026308Y013399D01*
X026148Y013399D01*
X026255Y013399D02*
X026362Y013292D01*
X026516Y013346D02*
X026570Y013292D01*
X026677Y013292D01*
X026730Y013346D01*
X026730Y013453D01*
X026677Y013506D01*
X026623Y013506D01*
X026516Y013453D01*
X026516Y013613D01*
X026730Y013613D01*
X026885Y013559D02*
X026885Y013506D01*
X026938Y013453D01*
X027045Y013453D01*
X027098Y013399D01*
X027098Y013346D01*
X027045Y013292D01*
X026938Y013292D01*
X026885Y013346D01*
X026885Y013399D01*
X026938Y013453D01*
X027045Y013453D02*
X027098Y013506D01*
X027098Y013559D01*
X027045Y013613D01*
X026938Y013613D01*
X026885Y013559D01*
X026865Y013792D02*
X026972Y013792D01*
X027025Y013846D01*
X027025Y013899D01*
X026972Y013953D01*
X026811Y013953D01*
X026811Y013846D01*
X026865Y013792D01*
X026811Y013953D02*
X026918Y014059D01*
X027025Y014113D01*
X027180Y014059D02*
X027233Y014113D01*
X027340Y014113D01*
X027393Y014059D01*
X027393Y014006D01*
X027180Y013792D01*
X027393Y013792D01*
X026657Y013792D02*
X026550Y013899D01*
X026603Y013899D02*
X026443Y013899D01*
X026443Y013792D02*
X026443Y014113D01*
X026603Y014113D01*
X026657Y014059D01*
X026657Y013953D01*
X026603Y013899D01*
X015380Y029792D02*
X015166Y029792D01*
X015380Y030006D01*
X015380Y030059D01*
X015327Y030113D01*
X015220Y030113D01*
X015166Y030059D01*
X015012Y030059D02*
X015012Y029846D01*
X014958Y029792D01*
X014851Y029792D01*
X014798Y029846D01*
X014798Y030059D01*
X014851Y030113D01*
X014958Y030113D01*
X015012Y030059D01*
X014905Y029899D02*
X015012Y029792D01*
D12*
X008108Y006771D02*
X004943Y006771D01*
X004943Y010334D01*
X010258Y010334D01*
X010258Y009452D01*
X010508Y009344D02*
X010575Y009411D01*
X010841Y009411D01*
X010908Y009344D01*
X010908Y009211D01*
X010841Y009144D01*
X010575Y009144D01*
X010508Y009211D01*
X010508Y009344D01*
X010641Y009604D02*
X010641Y009804D01*
X010708Y009871D01*
X010908Y009871D01*
X010908Y010065D02*
X010908Y010198D01*
X010908Y010131D02*
X010508Y010131D01*
X010508Y010065D01*
X010641Y010371D02*
X010841Y010371D01*
X010908Y010438D01*
X010908Y010638D01*
X010975Y010638D02*
X011042Y010572D01*
X011042Y010505D01*
X010975Y010638D02*
X010641Y010638D01*
X010708Y010832D02*
X010441Y010832D01*
X010441Y010985D02*
X010708Y010985D01*
X010841Y010985D02*
X010908Y010985D01*
X010908Y010832D02*
X010841Y010832D01*
X010841Y011139D02*
X010908Y011139D01*
X010708Y011139D02*
X010441Y011139D01*
X011131Y011440D02*
X011131Y009865D01*
X010908Y009604D02*
X010641Y009604D01*
X011131Y009340D02*
X011131Y007765D01*
X010908Y007829D02*
X010841Y007763D01*
X010908Y007829D02*
X010908Y007963D01*
X010841Y008030D01*
X010708Y008030D01*
X010641Y007963D01*
X010641Y007896D01*
X010708Y007763D01*
X010508Y007763D01*
X010508Y008030D01*
X010508Y008223D02*
X010775Y008223D01*
X010908Y008357D01*
X010775Y008490D01*
X010508Y008490D01*
X010975Y008684D02*
X010975Y008950D01*
X011525Y008513D02*
X011604Y008513D01*
X011659Y008569D01*
X011715Y008592D02*
X011729Y008592D01*
X011784Y008569D02*
X011840Y008513D01*
X011896Y008569D01*
X011951Y008592D02*
X011965Y008592D01*
X012021Y008569D02*
X012076Y008513D01*
X012132Y008569D01*
X012188Y008592D02*
X012201Y008592D01*
X012257Y008569D02*
X012312Y008513D01*
X012391Y008513D01*
X012257Y008569D02*
X012245Y008579D01*
X012231Y008586D01*
X012216Y008590D01*
X012201Y008592D01*
X012188Y008592D02*
X012173Y008590D01*
X012158Y008586D01*
X012144Y008579D01*
X012132Y008569D01*
X012021Y008569D02*
X012009Y008579D01*
X011995Y008586D01*
X011980Y008590D01*
X011965Y008592D01*
X011951Y008592D02*
X011936Y008590D01*
X011921Y008586D01*
X011907Y008579D01*
X011895Y008569D01*
X011785Y008569D02*
X011773Y008579D01*
X011759Y008586D01*
X011744Y008590D01*
X011729Y008592D01*
X011715Y008592D02*
X011700Y008590D01*
X011685Y008586D01*
X011671Y008579D01*
X011659Y008569D01*
X012785Y009340D02*
X012785Y007765D01*
X012508Y006752D02*
X011308Y006752D01*
X011288Y006750D01*
X011270Y006744D01*
X011252Y006735D01*
X011237Y006723D01*
X011225Y006708D01*
X011216Y006690D01*
X011210Y006672D01*
X011208Y006652D01*
X011208Y006252D01*
X011210Y006232D01*
X011216Y006214D01*
X011225Y006196D01*
X011237Y006181D01*
X011252Y006169D01*
X011270Y006160D01*
X011288Y006154D01*
X011308Y006152D01*
X012508Y006152D01*
X012528Y006154D01*
X012546Y006160D01*
X012564Y006169D01*
X012579Y006181D01*
X012591Y006196D01*
X012600Y006214D01*
X012606Y006232D01*
X012608Y006252D01*
X012608Y006652D01*
X012606Y006672D01*
X012600Y006690D01*
X012591Y006708D01*
X012579Y006723D01*
X012564Y006735D01*
X012546Y006744D01*
X012528Y006750D01*
X012508Y006752D01*
X010841Y007436D02*
X010575Y007436D01*
X010708Y007302D02*
X010708Y007569D01*
X010258Y007652D02*
X010258Y006771D01*
X009808Y006771D01*
X008558Y005952D02*
X009058Y004952D01*
X008058Y004952D01*
X008558Y005952D01*
X008408Y004752D02*
X008435Y004766D01*
X008464Y004776D01*
X008494Y004782D01*
X008524Y004784D01*
X008555Y004782D01*
X008585Y004776D01*
X008614Y004767D01*
X008641Y004753D01*
X008667Y004737D01*
X008689Y004717D01*
X008710Y004694D01*
X008727Y004668D01*
X008740Y004641D01*
X008750Y004612D01*
X008756Y004582D01*
X008758Y004552D01*
X008756Y004522D01*
X008750Y004492D01*
X008740Y004463D01*
X008727Y004436D01*
X008710Y004410D01*
X008689Y004387D01*
X008667Y004367D01*
X008641Y004351D01*
X008614Y004337D01*
X008585Y004328D01*
X008555Y004322D01*
X008524Y004320D01*
X008494Y004322D01*
X008464Y004328D01*
X008435Y004338D01*
X008408Y004352D01*
X008458Y004552D02*
X007908Y004552D01*
X008458Y004552D02*
X008460Y004566D01*
X008466Y004579D01*
X008475Y004590D01*
X008487Y004597D01*
X008501Y004601D01*
X008515Y004601D01*
X008529Y004597D01*
X008541Y004590D01*
X008550Y004579D01*
X008556Y004566D01*
X008558Y004552D01*
X008556Y004538D01*
X008550Y004525D01*
X008541Y004514D01*
X008529Y004507D01*
X008515Y004503D01*
X008501Y004503D01*
X008487Y004507D01*
X008475Y004514D01*
X008466Y004525D01*
X008460Y004538D01*
X008458Y004552D01*
X008758Y004552D02*
X009208Y004552D01*
X014033Y008637D02*
X014092Y008578D01*
X014151Y008578D01*
X014033Y008637D02*
X014033Y008696D01*
X014871Y007729D02*
X016446Y007729D01*
X015697Y007336D02*
X015697Y007257D01*
X015642Y007201D01*
X015619Y007145D02*
X015619Y007132D01*
X015642Y007076D02*
X015697Y007021D01*
X015642Y006965D01*
X015619Y006909D02*
X015619Y006896D01*
X015642Y006840D02*
X015697Y006784D01*
X015642Y006729D01*
X015619Y006673D02*
X015619Y006659D01*
X015642Y006604D02*
X015697Y006548D01*
X015697Y006469D01*
X015642Y006603D02*
X015632Y006615D01*
X015625Y006629D01*
X015621Y006644D01*
X015619Y006659D01*
X015619Y006673D02*
X015621Y006688D01*
X015625Y006703D01*
X015632Y006717D01*
X015642Y006729D01*
X015642Y006840D02*
X015632Y006852D01*
X015625Y006866D01*
X015621Y006881D01*
X015619Y006896D01*
X015619Y006909D02*
X015621Y006924D01*
X015625Y006939D01*
X015632Y006953D01*
X015642Y006965D01*
X015642Y007076D02*
X015632Y007088D01*
X015625Y007102D01*
X015621Y007117D01*
X015619Y007132D01*
X015619Y007145D02*
X015621Y007160D01*
X015625Y007175D01*
X015632Y007189D01*
X015642Y007201D01*
X014871Y006076D02*
X016446Y006076D01*
X017065Y008578D02*
X017124Y008578D01*
X017183Y008637D01*
X017183Y008696D01*
X018281Y008965D02*
X018281Y010540D01*
X018675Y009713D02*
X018754Y009713D01*
X018809Y009769D01*
X018865Y009792D02*
X018879Y009792D01*
X018934Y009769D02*
X018990Y009713D01*
X019046Y009769D01*
X019101Y009792D02*
X019115Y009792D01*
X019171Y009769D02*
X019226Y009713D01*
X019282Y009769D01*
X019338Y009792D02*
X019351Y009792D01*
X019407Y009769D02*
X019462Y009713D01*
X019541Y009713D01*
X019407Y009769D02*
X019395Y009779D01*
X019381Y009786D01*
X019366Y009790D01*
X019351Y009792D01*
X019338Y009792D02*
X019323Y009790D01*
X019308Y009786D01*
X019294Y009779D01*
X019282Y009769D01*
X019171Y009769D02*
X019159Y009779D01*
X019145Y009786D01*
X019130Y009790D01*
X019115Y009792D01*
X019101Y009792D02*
X019086Y009790D01*
X019071Y009786D01*
X019057Y009779D01*
X019045Y009769D01*
X018935Y009769D02*
X018923Y009779D01*
X018909Y009786D01*
X018894Y009790D01*
X018879Y009792D01*
X018865Y009792D02*
X018850Y009790D01*
X018835Y009786D01*
X018821Y009779D01*
X018809Y009769D01*
X019935Y010540D02*
X019935Y008965D01*
X021105Y009302D02*
X021105Y009656D01*
X024412Y009656D01*
X024412Y009302D01*
X024858Y008352D02*
X025758Y008352D01*
X025308Y008346D02*
X024914Y007756D01*
X025702Y007756D01*
X025308Y008346D01*
X024412Y006703D02*
X024412Y006349D01*
X021105Y006349D01*
X021105Y006703D01*
X017183Y011609D02*
X017183Y011668D01*
X017124Y011727D01*
X017065Y011727D01*
X016346Y012426D02*
X014771Y012426D01*
X014296Y012426D02*
X012721Y012426D01*
X013469Y012819D02*
X013469Y012898D01*
X013524Y012954D01*
X013547Y013009D02*
X013547Y013023D01*
X013524Y013079D02*
X013469Y013134D01*
X013524Y013190D01*
X013547Y013246D02*
X013547Y013259D01*
X013524Y013315D02*
X013469Y013371D01*
X013524Y013426D01*
X013547Y013482D02*
X013547Y013495D01*
X013524Y013551D02*
X013469Y013607D01*
X013469Y013686D01*
X013525Y013551D02*
X013535Y013539D01*
X013542Y013525D01*
X013546Y013510D01*
X013548Y013495D01*
X013548Y013482D02*
X013546Y013467D01*
X013542Y013452D01*
X013535Y013438D01*
X013525Y013426D01*
X013525Y013315D02*
X013535Y013303D01*
X013542Y013289D01*
X013546Y013274D01*
X013548Y013259D01*
X013548Y013246D02*
X013546Y013231D01*
X013542Y013216D01*
X013535Y013202D01*
X013525Y013190D01*
X013525Y013079D02*
X013535Y013067D01*
X013542Y013053D01*
X013546Y013038D01*
X013548Y013023D01*
X013548Y013009D02*
X013546Y012994D01*
X013542Y012979D01*
X013535Y012965D01*
X013525Y012953D01*
X013694Y011924D02*
X013696Y011948D01*
X013702Y011971D01*
X013712Y011993D01*
X013726Y012013D01*
X013742Y012031D01*
X013762Y012045D01*
X013783Y012056D01*
X013806Y012063D01*
X013830Y012066D01*
X013854Y012065D01*
X013878Y012060D01*
X013900Y012051D01*
X013920Y012038D01*
X013939Y012022D01*
X013954Y012004D01*
X013965Y011982D01*
X013973Y011960D01*
X013977Y011936D01*
X013977Y011912D01*
X013973Y011888D01*
X013965Y011866D01*
X013954Y011844D01*
X013939Y011826D01*
X013920Y011810D01*
X013900Y011797D01*
X013878Y011788D01*
X013854Y011783D01*
X013830Y011782D01*
X013806Y011785D01*
X013783Y011792D01*
X013762Y011803D01*
X013742Y011817D01*
X013726Y011835D01*
X013712Y011855D01*
X013702Y011877D01*
X013696Y011900D01*
X013694Y011924D01*
X014033Y011609D02*
X014151Y011727D01*
X012785Y011440D02*
X012785Y009865D01*
X012391Y010692D02*
X012312Y010692D01*
X012257Y010636D01*
X012201Y010613D02*
X012188Y010613D01*
X012132Y010636D02*
X012076Y010692D01*
X012021Y010636D01*
X011965Y010613D02*
X011951Y010613D01*
X011896Y010636D02*
X011840Y010692D01*
X011784Y010636D01*
X011729Y010613D02*
X011715Y010613D01*
X011659Y010636D02*
X011604Y010692D01*
X011525Y010692D01*
X011659Y010636D02*
X011671Y010626D01*
X011685Y010619D01*
X011700Y010615D01*
X011715Y010613D01*
X011729Y010613D02*
X011744Y010615D01*
X011759Y010619D01*
X011773Y010626D01*
X011785Y010636D01*
X011895Y010636D02*
X011907Y010626D01*
X011921Y010619D01*
X011936Y010615D01*
X011951Y010613D01*
X011965Y010613D02*
X011980Y010615D01*
X011995Y010619D01*
X012009Y010626D01*
X012021Y010636D01*
X012132Y010636D02*
X012144Y010626D01*
X012158Y010619D01*
X012173Y010615D01*
X012188Y010613D01*
X012201Y010613D02*
X012216Y010615D01*
X012231Y010619D01*
X012245Y010626D01*
X012257Y010636D01*
X009425Y010803D02*
X009158Y010803D01*
X008958Y010885D02*
X008958Y010471D01*
X006478Y010471D01*
X006478Y012834D01*
X008958Y012834D01*
X008958Y012420D01*
X009158Y012603D02*
X009425Y012603D01*
X009292Y012736D02*
X009292Y012469D01*
X008522Y012100D02*
X008522Y011833D01*
X008522Y011966D02*
X008122Y011966D01*
X008255Y011833D01*
X008255Y011312D02*
X008189Y011312D01*
X008122Y011245D01*
X008122Y011112D01*
X008189Y011045D01*
X008255Y011312D02*
X008522Y011045D01*
X008522Y011312D01*
X008958Y011633D02*
X008958Y011672D01*
X007658Y013702D02*
X007558Y013702D01*
X007658Y013702D02*
X007658Y015602D01*
X007558Y015602D01*
X007258Y016402D02*
X006558Y016402D01*
X006408Y016552D01*
X006408Y017252D01*
X006558Y017402D01*
X006408Y017552D01*
X006408Y018252D01*
X006558Y018402D01*
X006408Y018552D01*
X006408Y019252D01*
X006558Y019402D01*
X006408Y019552D01*
X006408Y020252D01*
X006558Y020402D01*
X007258Y020402D01*
X007408Y020252D01*
X007408Y019552D01*
X007258Y019402D01*
X007408Y019252D01*
X007408Y018552D01*
X007258Y018402D01*
X007408Y018252D01*
X007408Y017552D01*
X007258Y017402D01*
X007408Y017252D01*
X007408Y016552D01*
X007258Y016402D01*
X008158Y016802D02*
X008158Y017202D01*
X008208Y017252D01*
X008208Y016752D01*
X008558Y016752D01*
X008208Y016752D02*
X008158Y016802D01*
X008208Y017252D02*
X008558Y017252D01*
X008958Y017252D02*
X009308Y017252D01*
X009308Y016752D01*
X008958Y016752D01*
X008958Y017752D02*
X009308Y017752D01*
X009308Y018252D01*
X008958Y018252D01*
X008558Y018252D02*
X008208Y018252D01*
X008208Y017752D01*
X008558Y017752D01*
X008208Y017752D02*
X008158Y017802D01*
X008158Y018202D01*
X008208Y018252D01*
X008208Y018752D02*
X008208Y019252D01*
X008158Y019202D01*
X008158Y018802D01*
X008208Y018752D01*
X008558Y018752D01*
X008958Y018752D02*
X009308Y018752D01*
X009308Y019252D01*
X008958Y019252D01*
X008558Y019252D02*
X008208Y019252D01*
X007258Y020402D02*
X007408Y020552D01*
X007408Y021252D01*
X007408Y021402D01*
X007258Y021402D01*
X007408Y021252D01*
X007258Y021402D02*
X006558Y021402D01*
X006408Y021402D01*
X006408Y021252D01*
X006408Y020552D01*
X006558Y020402D01*
X006408Y021252D02*
X006558Y021402D01*
X006258Y022202D02*
X006158Y022202D01*
X006158Y022902D01*
X005908Y022902D01*
X005908Y022602D01*
X005758Y022602D01*
X005758Y023152D01*
X006158Y023152D01*
X006158Y023402D01*
X005908Y023402D01*
X005908Y023702D01*
X005758Y023702D01*
X005758Y023152D01*
X006158Y023152D02*
X006158Y022902D01*
X006158Y023402D02*
X006158Y024102D01*
X006258Y024102D01*
X007558Y024102D02*
X007658Y024102D01*
X007658Y022202D01*
X007558Y022202D01*
X008671Y022562D02*
X008671Y022680D01*
X008671Y022562D02*
X010246Y022562D01*
X010246Y022680D01*
X010246Y023625D02*
X010246Y023743D01*
X008671Y023743D01*
X008671Y023625D01*
X008608Y023902D02*
X008675Y023969D01*
X008675Y024303D01*
X008868Y024303D02*
X008868Y023902D01*
X009069Y023902D01*
X009135Y023969D01*
X009135Y024036D01*
X009069Y024103D01*
X008868Y024103D01*
X008868Y024303D02*
X009069Y024303D01*
X009135Y024236D01*
X009135Y024169D01*
X009069Y024103D01*
X009329Y024236D02*
X009329Y023969D01*
X009396Y023902D01*
X009529Y023902D01*
X009596Y023969D01*
X009596Y024236D01*
X009529Y024303D01*
X009396Y024303D01*
X009329Y024236D01*
X009789Y024236D02*
X009789Y023969D01*
X009856Y023902D01*
X009989Y023902D01*
X010056Y023969D01*
X010056Y024236D01*
X009989Y024303D01*
X009856Y024303D01*
X009789Y024236D01*
X010250Y024303D02*
X010516Y024303D01*
X010383Y024303D02*
X010383Y023902D01*
X008608Y023902D02*
X008475Y023902D01*
X008408Y023969D01*
X008408Y024303D01*
X007141Y026652D02*
X006808Y026652D01*
X006808Y026919D02*
X007141Y026919D01*
X007208Y026853D01*
X007208Y026719D01*
X007141Y026652D01*
X007141Y027113D02*
X007208Y027179D01*
X007208Y027313D01*
X007141Y027380D01*
X007075Y027380D01*
X007008Y027313D01*
X007008Y027179D01*
X006941Y027113D01*
X006875Y027113D01*
X006808Y027179D01*
X006808Y027313D01*
X006875Y027380D01*
X006808Y027573D02*
X006808Y027773D01*
X006875Y027840D01*
X006941Y027840D01*
X007008Y027773D01*
X007008Y027573D01*
X007208Y027573D02*
X007208Y027773D01*
X007141Y027840D01*
X007075Y027840D01*
X007008Y027773D01*
X007208Y027573D02*
X006808Y027573D01*
X012008Y029302D02*
X012008Y029702D01*
X012010Y029722D01*
X012016Y029740D01*
X012025Y029758D01*
X012037Y029773D01*
X012052Y029785D01*
X012070Y029794D01*
X012088Y029800D01*
X012108Y029802D01*
X013308Y029802D01*
X013328Y029800D01*
X013346Y029794D01*
X013364Y029785D01*
X013379Y029773D01*
X013391Y029758D01*
X013400Y029740D01*
X013406Y029722D01*
X013408Y029702D01*
X013408Y029302D01*
X013406Y029282D01*
X013400Y029264D01*
X013391Y029246D01*
X013379Y029231D01*
X013364Y029219D01*
X013346Y029210D01*
X013328Y029204D01*
X013308Y029202D01*
X012108Y029202D01*
X012088Y029204D01*
X012070Y029210D01*
X012052Y029219D01*
X012037Y029231D01*
X012025Y029246D01*
X012016Y029264D01*
X012010Y029282D01*
X012008Y029302D01*
X014360Y029509D02*
X014360Y029627D01*
X015856Y029627D01*
X015856Y029509D01*
X015856Y028761D02*
X015856Y027344D01*
X015708Y027502D02*
X015558Y027652D01*
X015358Y027652D01*
X015358Y027952D01*
X015208Y027952D02*
X015208Y027352D01*
X015008Y027352D01*
X015008Y027952D01*
X015208Y027952D01*
X015358Y027652D02*
X015358Y027352D01*
X014858Y027352D02*
X014858Y027652D01*
X014658Y027652D01*
X014508Y027502D01*
X014360Y027344D02*
X014360Y028761D01*
X014858Y027952D02*
X014858Y027652D01*
X014360Y026596D02*
X014360Y026478D01*
X014872Y026478D01*
X015344Y026478D01*
X015856Y026478D01*
X015856Y026596D01*
X015344Y026478D02*
X015342Y026508D01*
X015337Y026537D01*
X015327Y026565D01*
X015315Y026592D01*
X015299Y026617D01*
X015280Y026640D01*
X015258Y026660D01*
X015234Y026677D01*
X015208Y026692D01*
X015181Y026702D01*
X015152Y026710D01*
X015123Y026714D01*
X015093Y026714D01*
X015064Y026710D01*
X015035Y026702D01*
X015008Y026692D01*
X014982Y026677D01*
X014958Y026660D01*
X014936Y026640D01*
X014917Y026617D01*
X014901Y026592D01*
X014889Y026565D01*
X014879Y026537D01*
X014874Y026508D01*
X014872Y026478D01*
X015134Y025924D02*
X020174Y025924D01*
X020410Y025688D02*
X020410Y020570D01*
X020253Y020412D01*
X015134Y020412D01*
X014898Y020649D02*
X014898Y025688D01*
X018474Y026623D02*
X020442Y026623D01*
X020442Y026682D01*
X020442Y027823D02*
X020442Y027882D01*
X018474Y027882D01*
X018474Y027823D01*
X018474Y026682D02*
X018474Y026623D01*
X023838Y024532D02*
X023838Y024502D01*
X023838Y024532D02*
X023978Y024532D01*
X023978Y024502D01*
X024608Y023642D02*
X024608Y023612D01*
X024728Y023612D01*
X024728Y023642D01*
X024375Y022103D02*
X024509Y021969D01*
X024509Y021836D01*
X024375Y021702D01*
X024182Y021769D02*
X024115Y021702D01*
X023982Y021702D01*
X023915Y021769D01*
X023915Y022036D01*
X023982Y022103D01*
X024115Y022103D01*
X024182Y022036D01*
X023742Y022103D02*
X023608Y021969D01*
X023608Y021836D01*
X023742Y021702D01*
X025143Y021702D02*
X025409Y021969D01*
X025409Y022036D01*
X025343Y022103D01*
X025209Y022103D01*
X025143Y022036D01*
X025143Y021702D02*
X025409Y021702D01*
X025603Y021769D02*
X025603Y022036D01*
X025670Y022103D01*
X025803Y022103D01*
X025870Y022036D01*
X025603Y021769D01*
X025670Y021702D01*
X025803Y021702D01*
X025870Y021769D01*
X025870Y022036D01*
X026063Y021969D02*
X026197Y022103D01*
X026197Y021702D01*
X026330Y021702D02*
X026063Y021702D01*
X026524Y021769D02*
X026524Y021836D01*
X026590Y021903D01*
X026724Y021903D01*
X026791Y021836D01*
X026791Y021769D01*
X026724Y021702D01*
X026590Y021702D01*
X026524Y021769D01*
X026590Y021903D02*
X026524Y021969D01*
X026524Y022036D01*
X026590Y022103D01*
X026724Y022103D01*
X026791Y022036D01*
X026791Y021969D01*
X026724Y021903D01*
X029713Y020324D02*
X029713Y019560D01*
X031209Y019127D02*
X031603Y019127D01*
X031603Y029678D01*
X031209Y029678D01*
X029713Y029245D02*
X029713Y028487D01*
X020575Y020137D02*
X020577Y020158D01*
X020583Y020178D01*
X020593Y020197D01*
X020606Y020214D01*
X020622Y020227D01*
X020640Y020238D01*
X020660Y020245D01*
X020681Y020248D01*
X020702Y020247D01*
X020722Y020242D01*
X020741Y020233D01*
X020759Y020221D01*
X020773Y020206D01*
X020785Y020188D01*
X020793Y020168D01*
X020796Y020148D01*
X020796Y020126D01*
X020793Y020106D01*
X020785Y020086D01*
X020773Y020068D01*
X020759Y020053D01*
X020742Y020041D01*
X020722Y020032D01*
X020702Y020027D01*
X020681Y020026D01*
X020660Y020029D01*
X020640Y020036D01*
X020622Y020047D01*
X020606Y020060D01*
X020593Y020077D01*
X020583Y020096D01*
X020577Y020116D01*
X020575Y020137D01*
X020681Y019991D02*
X020681Y015113D01*
X013833Y015113D01*
X013833Y019911D01*
X013914Y019991D01*
X020681Y019991D01*
X020405Y019665D02*
X020472Y019599D01*
X020472Y019465D01*
X020405Y019398D01*
X020338Y019398D01*
X020272Y019465D01*
X020272Y019599D01*
X020338Y019665D01*
X020405Y019665D01*
X020272Y019599D02*
X020205Y019665D01*
X020138Y019665D01*
X020072Y019599D01*
X020072Y019465D01*
X020138Y019398D01*
X020205Y019398D01*
X020272Y019465D01*
X020272Y019205D02*
X020272Y018938D01*
X020072Y019138D01*
X020472Y019138D01*
X020405Y016004D02*
X020272Y016004D01*
X020205Y015937D01*
X020205Y015870D01*
X020272Y015737D01*
X020072Y015737D01*
X020072Y016004D01*
X020405Y016004D02*
X020472Y015937D01*
X020472Y015804D01*
X020405Y015737D01*
X020472Y015544D02*
X020472Y015277D01*
X020205Y015544D01*
X020138Y015544D01*
X020072Y015477D01*
X020072Y015343D01*
X020138Y015277D01*
X019667Y013332D02*
X019669Y013353D01*
X019675Y013373D01*
X019685Y013392D01*
X019698Y013409D01*
X019714Y013422D01*
X019732Y013433D01*
X019752Y013440D01*
X019773Y013443D01*
X019794Y013442D01*
X019814Y013437D01*
X019833Y013428D01*
X019851Y013416D01*
X019865Y013401D01*
X019877Y013383D01*
X019885Y013363D01*
X019888Y013343D01*
X019888Y013321D01*
X019885Y013301D01*
X019877Y013281D01*
X019865Y013263D01*
X019851Y013248D01*
X019834Y013236D01*
X019814Y013227D01*
X019794Y013222D01*
X019773Y013221D01*
X019752Y013224D01*
X019732Y013231D01*
X019714Y013242D01*
X019698Y013255D01*
X019685Y013272D01*
X019675Y013291D01*
X019669Y013311D01*
X019667Y013332D01*
X020014Y013136D02*
X020802Y013136D01*
X020802Y012269D02*
X020014Y012269D01*
X016346Y014079D02*
X014771Y014079D01*
X014296Y014079D02*
X012721Y014079D01*
X011268Y014592D02*
X010958Y014592D01*
X011268Y014592D02*
X011268Y014852D01*
X010748Y015072D02*
X010748Y015232D01*
X010958Y015712D02*
X011268Y015712D01*
X011268Y015452D01*
X010002Y015399D02*
X009214Y015399D01*
X009608Y014809D01*
X010002Y015399D01*
X010058Y014802D02*
X009158Y014802D01*
X006258Y015602D02*
X006158Y015602D01*
X006158Y014902D01*
X005908Y014902D01*
X005908Y015202D01*
X005758Y015202D01*
X005758Y014652D01*
X006158Y014652D01*
X006158Y014902D01*
X006158Y014652D02*
X006158Y014402D01*
X005908Y014402D01*
X005908Y014102D01*
X005758Y014102D01*
X005758Y014652D01*
X006158Y014402D02*
X006158Y013702D01*
X006258Y013702D01*
X013362Y020321D02*
X013364Y020349D01*
X013370Y020377D01*
X013380Y020403D01*
X013393Y020428D01*
X013410Y020450D01*
X013430Y020470D01*
X013452Y020487D01*
X013477Y020500D01*
X013503Y020510D01*
X013531Y020516D01*
X013559Y020518D01*
X013587Y020516D01*
X013615Y020510D01*
X013641Y020500D01*
X013666Y020487D01*
X013688Y020470D01*
X013708Y020450D01*
X013725Y020428D01*
X013738Y020403D01*
X013748Y020377D01*
X013754Y020349D01*
X013756Y020321D01*
X013754Y020293D01*
X013748Y020265D01*
X013738Y020239D01*
X013725Y020214D01*
X013708Y020192D01*
X013688Y020172D01*
X013666Y020155D01*
X013641Y020142D01*
X013615Y020132D01*
X013587Y020126D01*
X013559Y020124D01*
X013531Y020126D01*
X013503Y020132D01*
X013477Y020142D01*
X013452Y020155D01*
X013430Y020172D01*
X013410Y020192D01*
X013393Y020214D01*
X013380Y020239D01*
X013370Y020265D01*
X013364Y020293D01*
X013362Y020321D01*
X014245Y019335D02*
X014378Y019202D01*
X014245Y019335D02*
X014645Y019335D01*
X014645Y019202D02*
X014645Y019469D01*
X014050Y019442D02*
X014052Y019481D01*
X014058Y019520D01*
X014068Y019557D01*
X014082Y019594D01*
X014100Y019628D01*
X014121Y019661D01*
X014146Y019692D01*
X014173Y019719D01*
X014204Y019744D01*
X014236Y019765D01*
X014271Y019783D01*
X014308Y019797D01*
X014345Y019807D01*
X014384Y019813D01*
X014423Y019815D01*
X014462Y019813D01*
X014501Y019807D01*
X014538Y019797D01*
X014575Y019783D01*
X014609Y019765D01*
X014642Y019744D01*
X014673Y019719D01*
X014700Y019692D01*
X014725Y019661D01*
X014746Y019629D01*
X014764Y019594D01*
X014778Y019557D01*
X014788Y019520D01*
X014794Y019481D01*
X014796Y019442D01*
X014794Y019403D01*
X014788Y019364D01*
X014778Y019327D01*
X014764Y019290D01*
X014746Y019256D01*
X014725Y019223D01*
X014700Y019192D01*
X014673Y019165D01*
X014642Y019140D01*
X014610Y019119D01*
X014575Y019101D01*
X014538Y019087D01*
X014501Y019077D01*
X014462Y019071D01*
X014423Y019069D01*
X014384Y019071D01*
X014345Y019077D01*
X014308Y019087D01*
X014271Y019101D01*
X014237Y019119D01*
X014204Y019140D01*
X014173Y019165D01*
X014146Y019192D01*
X014121Y019223D01*
X014100Y019255D01*
X014082Y019290D01*
X014068Y019327D01*
X014058Y019364D01*
X014052Y019403D01*
X014050Y019442D01*
X014307Y016004D02*
X014307Y015737D01*
X014107Y015937D01*
X014507Y015937D01*
X014507Y015544D02*
X014507Y015277D01*
X014240Y015544D01*
X014174Y015544D01*
X014107Y015477D01*
X014107Y015343D01*
X014174Y015277D01*
X015519Y013686D02*
X015519Y013607D01*
X015574Y013551D01*
X015597Y013495D02*
X015597Y013482D01*
X015574Y013426D02*
X015519Y013371D01*
X015574Y013315D01*
X015597Y013259D02*
X015597Y013246D01*
X015574Y013190D02*
X015519Y013134D01*
X015574Y013079D01*
X015597Y013023D02*
X015597Y013009D01*
X015574Y012954D02*
X015519Y012898D01*
X015519Y012819D01*
X015575Y012953D02*
X015585Y012965D01*
X015592Y012979D01*
X015596Y012994D01*
X015598Y013009D01*
X015598Y013023D02*
X015596Y013038D01*
X015592Y013053D01*
X015585Y013067D01*
X015575Y013079D01*
X015575Y013190D02*
X015585Y013202D01*
X015592Y013216D01*
X015596Y013231D01*
X015598Y013246D01*
X015598Y013259D02*
X015596Y013274D01*
X015592Y013289D01*
X015585Y013303D01*
X015575Y013315D01*
X015575Y013426D02*
X015585Y013438D01*
X015592Y013452D01*
X015596Y013467D01*
X015598Y013482D01*
X015598Y013495D02*
X015596Y013510D01*
X015592Y013525D01*
X015585Y013539D01*
X015575Y013551D01*
X027865Y013532D02*
X027865Y017273D01*
X028298Y017273D01*
X029558Y017273D02*
X030109Y017273D01*
X031211Y017273D02*
X032589Y017273D01*
X032589Y016387D01*
X032589Y014418D01*
X032589Y013532D01*
X032117Y013532D01*
X032589Y014418D02*
X033770Y014418D01*
X033770Y016387D01*
X032589Y016387D01*
X030896Y013532D02*
X030778Y013532D01*
X029755Y013532D02*
X029558Y013532D01*
X028495Y013532D02*
X027865Y013532D01*
X027865Y011273D02*
X028298Y011273D01*
X027865Y011273D02*
X027865Y007532D01*
X028495Y007532D01*
X029558Y007532D02*
X029755Y007532D01*
X030778Y007532D02*
X030896Y007532D01*
X032117Y007532D02*
X032589Y007532D01*
X032589Y008418D01*
X032589Y010387D01*
X032589Y011273D01*
X031211Y011273D01*
X030109Y011273D02*
X029558Y011273D01*
X032589Y010387D02*
X033770Y010387D01*
X033770Y008418D01*
X032589Y008418D01*
D13*
X027878Y012072D02*
X027878Y012153D01*
X027838Y012193D01*
X027878Y012309D02*
X027878Y012469D01*
X027878Y012389D02*
X027638Y012389D01*
X027718Y012309D01*
X027678Y012193D02*
X027638Y012153D01*
X027638Y012072D01*
X027678Y012032D01*
X027838Y012032D01*
X027878Y012072D01*
X027478Y012032D02*
X027238Y012032D01*
X027238Y012153D01*
X027278Y012193D01*
X027358Y012193D01*
X027398Y012153D01*
X027398Y012032D01*
X027398Y012112D02*
X027478Y012193D01*
X027438Y012309D02*
X027478Y012349D01*
X027478Y012429D01*
X027438Y012469D01*
X027358Y012469D01*
X027318Y012429D01*
X027318Y012389D01*
X027358Y012309D01*
X027238Y012309D01*
X027238Y012469D01*
X027238Y012585D02*
X027238Y012745D01*
X027278Y012745D01*
X027438Y012585D01*
X027478Y012585D01*
X027638Y012625D02*
X027678Y012585D01*
X027638Y012625D02*
X027638Y012705D01*
X027678Y012745D01*
X027718Y012745D01*
X027878Y012585D01*
X027878Y012745D01*
X027878Y012861D02*
X027838Y012861D01*
X027678Y013021D01*
X027638Y013021D01*
X027638Y012861D01*
X025792Y012870D02*
X025632Y013030D01*
X025592Y013030D01*
X025552Y012990D01*
X025552Y012910D01*
X025592Y012870D01*
X025792Y012870D02*
X025792Y013030D01*
X025752Y013146D02*
X025792Y013186D01*
X025792Y013266D01*
X025752Y013306D01*
X025712Y013306D01*
X025672Y013266D01*
X025672Y013226D01*
X025672Y013266D02*
X025632Y013306D01*
X025592Y013306D01*
X025552Y013266D01*
X025552Y013186D01*
X025592Y013146D01*
X025292Y013186D02*
X025252Y013146D01*
X025292Y013186D02*
X025292Y013266D01*
X025252Y013306D01*
X025172Y013306D01*
X025132Y013266D01*
X025132Y013226D01*
X025172Y013146D01*
X025052Y013146D01*
X025052Y013306D01*
X025052Y012950D02*
X025292Y012950D01*
X025292Y012870D02*
X025292Y013030D01*
X025132Y012870D02*
X025052Y012950D01*
X025052Y012674D02*
X025292Y012674D01*
X025292Y012594D02*
X025292Y012754D01*
X025132Y012594D02*
X025052Y012674D01*
X025092Y012478D02*
X025052Y012438D01*
X025052Y012357D01*
X025092Y012317D01*
X025252Y012317D01*
X025292Y012357D01*
X025292Y012438D01*
X025252Y012478D01*
X025552Y012438D02*
X025552Y012357D01*
X025592Y012317D01*
X025752Y012317D01*
X025792Y012357D01*
X025792Y012438D01*
X025752Y012478D01*
X025792Y012594D02*
X025792Y012754D01*
X025792Y012674D02*
X025552Y012674D01*
X025632Y012594D01*
X025592Y012478D02*
X025552Y012438D01*
X025628Y011171D02*
X025588Y011131D01*
X025588Y011051D01*
X025628Y011011D01*
X025628Y011171D02*
X025668Y011171D01*
X025828Y011011D01*
X025828Y011171D01*
X025828Y010895D02*
X025828Y010735D01*
X025828Y010815D02*
X025588Y010815D01*
X025668Y010735D01*
X025828Y010619D02*
X025828Y010459D01*
X025828Y010539D02*
X025588Y010539D01*
X025668Y010459D01*
X025628Y010343D02*
X025588Y010303D01*
X025588Y010222D01*
X025628Y010182D01*
X025788Y010182D01*
X025828Y010222D01*
X025828Y010303D01*
X025788Y010343D01*
X025428Y010343D02*
X025348Y010262D01*
X025348Y010303D02*
X025348Y010182D01*
X025428Y010182D02*
X025188Y010182D01*
X025188Y010303D01*
X025228Y010343D01*
X025308Y010343D01*
X025348Y010303D01*
X025308Y010459D02*
X025268Y010539D01*
X025268Y010579D01*
X025308Y010619D01*
X025388Y010619D01*
X025428Y010579D01*
X025428Y010499D01*
X025388Y010459D01*
X025308Y010459D02*
X025188Y010459D01*
X025188Y010619D01*
X025228Y010735D02*
X025188Y010775D01*
X025188Y010855D01*
X025228Y010895D01*
X025268Y010895D01*
X025428Y010735D01*
X025428Y010895D01*
X025428Y013828D02*
X025388Y013868D01*
X025388Y013948D01*
X025428Y013988D01*
X025468Y014104D02*
X025388Y014184D01*
X025628Y014184D01*
X025628Y014104D02*
X025628Y014264D01*
X025588Y014380D02*
X025628Y014420D01*
X025628Y014500D01*
X025588Y014540D01*
X025548Y014540D01*
X025508Y014500D01*
X025508Y014460D01*
X025508Y014500D02*
X025468Y014540D01*
X025428Y014540D01*
X025388Y014500D01*
X025388Y014420D01*
X025428Y014380D01*
X025508Y014656D02*
X025508Y014776D01*
X025548Y014816D01*
X025588Y014816D01*
X025628Y014776D01*
X025628Y014696D01*
X025588Y014656D01*
X025508Y014656D01*
X025428Y014736D01*
X025388Y014816D01*
X025888Y014816D02*
X025928Y014816D01*
X026088Y014656D01*
X026128Y014656D01*
X026088Y014540D02*
X026048Y014540D01*
X026008Y014500D01*
X026008Y014380D01*
X026088Y014380D01*
X026128Y014420D01*
X026128Y014500D01*
X026088Y014540D01*
X025928Y014460D02*
X025888Y014540D01*
X025928Y014460D02*
X026008Y014380D01*
X026008Y014264D02*
X026048Y014224D01*
X026048Y014104D01*
X026048Y014184D02*
X026128Y014264D01*
X026008Y014264D02*
X025928Y014264D01*
X025888Y014224D01*
X025888Y014104D01*
X026128Y014104D01*
X025628Y013948D02*
X025588Y013988D01*
X025628Y013948D02*
X025628Y013868D01*
X025588Y013828D01*
X025428Y013828D01*
X025888Y014656D02*
X025888Y014816D01*
X025288Y015482D02*
X025328Y015522D01*
X025328Y015603D01*
X025288Y015643D01*
X025328Y015759D02*
X025328Y015919D01*
X025328Y015839D02*
X025088Y015839D01*
X025168Y015759D01*
X025128Y015643D02*
X025088Y015603D01*
X025088Y015522D01*
X025128Y015482D01*
X025288Y015482D01*
X025288Y016035D02*
X025328Y016075D01*
X025328Y016155D01*
X025288Y016195D01*
X025248Y016195D01*
X025208Y016155D01*
X025208Y016115D01*
X025208Y016155D02*
X025168Y016195D01*
X025128Y016195D01*
X025088Y016155D01*
X025088Y016075D01*
X025128Y016035D01*
X025088Y016311D02*
X025208Y016311D01*
X025168Y016391D01*
X025168Y016431D01*
X025208Y016471D01*
X025288Y016471D01*
X025328Y016431D01*
X025328Y016351D01*
X025288Y016311D01*
X025088Y016311D02*
X025088Y016471D01*
X025128Y016632D02*
X025288Y016632D01*
X025328Y016672D01*
X025328Y016753D01*
X025288Y016793D01*
X025328Y016909D02*
X025328Y017069D01*
X025328Y016989D02*
X025088Y016989D01*
X025168Y016909D01*
X025128Y016793D02*
X025088Y016753D01*
X025088Y016672D01*
X025128Y016632D01*
X025588Y016623D02*
X025708Y016623D01*
X025748Y016583D01*
X025748Y016503D01*
X025708Y016462D01*
X025588Y016462D01*
X025588Y016382D02*
X025588Y016623D01*
X025668Y016462D02*
X025748Y016382D01*
X025864Y016422D02*
X025904Y016382D01*
X025984Y016382D01*
X026024Y016422D01*
X026024Y016462D01*
X025984Y016503D01*
X025864Y016503D01*
X025864Y016422D01*
X025864Y016503D02*
X025944Y016583D01*
X026024Y016623D01*
X026141Y016623D02*
X026141Y016503D01*
X026221Y016543D01*
X026261Y016543D01*
X026301Y016503D01*
X026301Y016422D01*
X026261Y016382D01*
X026181Y016382D01*
X026141Y016422D01*
X026141Y016623D02*
X026301Y016623D01*
X026588Y016623D02*
X026588Y016382D01*
X026748Y016382D01*
X026864Y016382D02*
X027024Y016382D01*
X026944Y016382D02*
X026944Y016623D01*
X026864Y016543D01*
X027141Y016583D02*
X027181Y016623D01*
X027261Y016623D01*
X027301Y016583D01*
X027141Y016422D01*
X027181Y016382D01*
X027261Y016382D01*
X027301Y016422D01*
X027301Y016583D01*
X027141Y016583D02*
X027141Y016422D01*
X027124Y017432D02*
X026964Y017432D01*
X027044Y017432D02*
X027044Y017673D01*
X026964Y017593D01*
X026848Y017432D02*
X026688Y017432D01*
X026688Y017673D01*
X026301Y017633D02*
X026301Y017593D01*
X026261Y017553D01*
X026181Y017553D01*
X026141Y017593D01*
X026141Y017633D01*
X026181Y017673D01*
X026261Y017673D01*
X026301Y017633D01*
X026261Y017553D02*
X026301Y017512D01*
X026301Y017472D01*
X026261Y017432D01*
X026181Y017432D01*
X026141Y017472D01*
X026141Y017512D01*
X026181Y017553D01*
X026024Y017512D02*
X025984Y017553D01*
X025864Y017553D01*
X025864Y017472D01*
X025904Y017432D01*
X025984Y017432D01*
X026024Y017472D01*
X026024Y017512D01*
X025944Y017633D02*
X025864Y017553D01*
X025944Y017633D02*
X026024Y017673D01*
X025748Y017633D02*
X025748Y017553D01*
X025708Y017512D01*
X025588Y017512D01*
X025588Y017432D02*
X025588Y017673D01*
X025708Y017673D01*
X025748Y017633D01*
X025668Y017512D02*
X025748Y017432D01*
X025328Y017461D02*
X025288Y017461D01*
X025128Y017621D01*
X025088Y017621D01*
X025088Y017461D01*
X025128Y017345D02*
X025168Y017345D01*
X025208Y017305D01*
X025248Y017345D01*
X025288Y017345D01*
X025328Y017305D01*
X025328Y017225D01*
X025288Y017185D01*
X025208Y017265D02*
X025208Y017305D01*
X025128Y017345D02*
X025088Y017305D01*
X025088Y017225D01*
X025128Y017185D01*
X024872Y017430D02*
X024712Y017430D01*
X024872Y017590D01*
X024872Y017630D01*
X024832Y017670D01*
X024752Y017670D01*
X024712Y017630D01*
X024595Y017630D02*
X024555Y017670D01*
X024475Y017670D01*
X024435Y017630D01*
X024435Y017470D01*
X024475Y017430D01*
X024555Y017430D01*
X024595Y017470D01*
X024451Y016173D02*
X024371Y016133D01*
X024291Y016053D01*
X024411Y016053D01*
X024451Y016012D01*
X024451Y015972D01*
X024411Y015932D01*
X024331Y015932D01*
X024291Y015972D01*
X024291Y016053D01*
X024174Y015932D02*
X024014Y015932D01*
X024094Y015932D02*
X024094Y016173D01*
X024014Y016093D01*
X023898Y016133D02*
X023898Y016053D01*
X023858Y016012D01*
X023738Y016012D01*
X023738Y015932D02*
X023738Y016173D01*
X023858Y016173D01*
X023898Y016133D01*
X023818Y016012D02*
X023898Y015932D01*
X023128Y016682D02*
X022888Y016682D01*
X022888Y016803D01*
X022928Y016843D01*
X023008Y016843D01*
X023048Y016803D01*
X023048Y016682D01*
X023048Y016762D02*
X023128Y016843D01*
X023128Y016959D02*
X023128Y017119D01*
X023128Y017039D02*
X022888Y017039D01*
X022968Y016959D01*
X022928Y017235D02*
X022888Y017275D01*
X022888Y017355D01*
X022928Y017395D01*
X022968Y017395D01*
X023008Y017355D01*
X023048Y017395D01*
X023088Y017395D01*
X023128Y017355D01*
X023128Y017275D01*
X023088Y017235D01*
X023008Y017315D02*
X023008Y017355D01*
X022301Y017372D02*
X022301Y017412D01*
X022261Y017453D01*
X022141Y017453D01*
X022141Y017372D01*
X022181Y017332D01*
X022261Y017332D01*
X022301Y017372D01*
X022221Y017533D02*
X022141Y017453D01*
X022221Y017533D02*
X022301Y017573D01*
X021944Y017573D02*
X021944Y017332D01*
X021864Y017332D02*
X022024Y017332D01*
X021864Y017493D02*
X021944Y017573D01*
X021748Y017533D02*
X021708Y017573D01*
X021628Y017573D01*
X021588Y017533D01*
X021588Y017372D01*
X021628Y017332D01*
X021708Y017332D01*
X021748Y017372D01*
X021738Y021154D02*
X021738Y021274D01*
X021778Y021314D01*
X021858Y021314D01*
X021898Y021274D01*
X021898Y021154D01*
X021898Y021234D02*
X021978Y021314D01*
X021978Y021430D02*
X021978Y021590D01*
X021978Y021510D02*
X021738Y021510D01*
X021818Y021430D01*
X021818Y021706D02*
X021738Y021786D01*
X021978Y021786D01*
X021978Y021706D02*
X021978Y021866D01*
X021501Y021783D02*
X021501Y021743D01*
X021461Y021703D01*
X021381Y021703D01*
X021341Y021743D01*
X021341Y021783D01*
X021381Y021823D01*
X021461Y021823D01*
X021501Y021783D01*
X021461Y021703D02*
X021501Y021662D01*
X021501Y021622D01*
X021461Y021582D01*
X021381Y021582D01*
X021341Y021622D01*
X021341Y021662D01*
X021381Y021703D01*
X021224Y021582D02*
X021064Y021582D01*
X021144Y021582D02*
X021144Y021823D01*
X021064Y021743D01*
X020948Y021783D02*
X020948Y021703D01*
X020908Y021662D01*
X020788Y021662D01*
X020788Y021582D02*
X020788Y021823D01*
X020908Y021823D01*
X020948Y021783D01*
X020868Y021662D02*
X020948Y021582D01*
X021738Y021154D02*
X021978Y021154D01*
X021341Y022632D02*
X021341Y022672D01*
X021501Y022833D01*
X021501Y022873D01*
X021341Y022873D01*
X021144Y022873D02*
X021144Y022632D01*
X021064Y022632D02*
X021224Y022632D01*
X021064Y022793D02*
X021144Y022873D01*
X020948Y022833D02*
X020948Y022753D01*
X020908Y022712D01*
X020788Y022712D01*
X020788Y022632D02*
X020788Y022873D01*
X020908Y022873D01*
X020948Y022833D01*
X020868Y022712D02*
X020948Y022632D01*
X016851Y026172D02*
X016811Y026132D01*
X016731Y026132D01*
X016691Y026172D01*
X016691Y026253D02*
X016771Y026293D01*
X016811Y026293D01*
X016851Y026253D01*
X016851Y026172D01*
X016691Y026253D02*
X016691Y026373D01*
X016851Y026373D01*
X016574Y026373D02*
X016574Y026333D01*
X016414Y026172D01*
X016414Y026132D01*
X016298Y026132D02*
X016218Y026212D01*
X016258Y026212D02*
X016138Y026212D01*
X016138Y026132D02*
X016138Y026373D01*
X016258Y026373D01*
X016298Y026333D01*
X016298Y026253D01*
X016258Y026212D01*
X016414Y026373D02*
X016574Y026373D01*
X014278Y026155D02*
X014278Y026075D01*
X014238Y026035D01*
X014078Y026195D01*
X014238Y026195D01*
X014278Y026155D01*
X014238Y026035D02*
X014078Y026035D01*
X014038Y026075D01*
X014038Y026155D01*
X014078Y026195D01*
X014078Y025919D02*
X014118Y025919D01*
X014158Y025879D01*
X014158Y025799D01*
X014118Y025759D01*
X014078Y025759D01*
X014038Y025799D01*
X014038Y025879D01*
X014078Y025919D01*
X014158Y025879D02*
X014198Y025919D01*
X014238Y025919D01*
X014278Y025879D01*
X014278Y025799D01*
X014238Y025759D01*
X014198Y025759D01*
X014158Y025799D01*
X014078Y025643D02*
X014038Y025603D01*
X014038Y025522D01*
X014078Y025482D01*
X014238Y025482D01*
X014278Y025522D01*
X014278Y025603D01*
X014238Y025643D01*
X014028Y024345D02*
X014028Y024185D01*
X013868Y024345D01*
X013828Y024345D01*
X013788Y024305D01*
X013788Y024225D01*
X013828Y024185D01*
X013828Y024069D02*
X013868Y024069D01*
X013908Y024029D01*
X013908Y023949D01*
X013868Y023909D01*
X013828Y023909D01*
X013788Y023949D01*
X013788Y024029D01*
X013828Y024069D01*
X013908Y024029D02*
X013948Y024069D01*
X013988Y024069D01*
X014028Y024029D01*
X014028Y023949D01*
X013988Y023909D01*
X013948Y023909D01*
X013908Y023949D01*
X013828Y023793D02*
X013788Y023753D01*
X013788Y023672D01*
X013828Y023632D01*
X013988Y023632D01*
X014028Y023672D01*
X014028Y023753D01*
X013988Y023793D01*
X013828Y023495D02*
X013788Y023495D01*
X013788Y023335D01*
X013828Y023219D02*
X013788Y023179D01*
X013788Y023099D01*
X013828Y023059D01*
X013868Y023059D01*
X013908Y023099D01*
X013908Y023219D01*
X013988Y023219D02*
X013828Y023219D01*
X013988Y023219D02*
X014028Y023179D01*
X014028Y023099D01*
X013988Y023059D01*
X013988Y022943D02*
X014028Y022903D01*
X014028Y022822D01*
X013988Y022782D01*
X013828Y022782D01*
X013788Y022822D01*
X013788Y022903D01*
X013828Y022943D01*
X013988Y023335D02*
X014028Y023335D01*
X013988Y023335D02*
X013828Y023495D01*
X010648Y022718D02*
X010388Y022718D01*
X010518Y022588D01*
X010518Y022761D01*
X010431Y022467D02*
X010605Y022293D01*
X010648Y022293D01*
X010648Y022172D02*
X010561Y022085D01*
X010561Y022129D02*
X010561Y021999D01*
X010648Y021999D02*
X010388Y021999D01*
X010388Y022129D01*
X010431Y022172D01*
X010518Y022172D01*
X010561Y022129D01*
X010388Y022293D02*
X010388Y022467D01*
X010431Y022467D01*
X007928Y019371D02*
X007928Y019211D01*
X007928Y019291D02*
X007688Y019291D01*
X007768Y019211D01*
X007728Y019095D02*
X007688Y019055D01*
X007688Y018935D01*
X007928Y018935D01*
X007928Y019055D01*
X007888Y019095D01*
X007728Y019095D01*
X007688Y018819D02*
X007688Y018659D01*
X007928Y018659D01*
X007928Y018819D01*
X007808Y018739D02*
X007808Y018659D01*
X007928Y018543D02*
X007928Y018382D01*
X007688Y018382D01*
X007729Y017623D02*
X007609Y017623D01*
X007609Y017382D01*
X007609Y017462D02*
X007729Y017462D01*
X007770Y017503D01*
X007770Y017583D01*
X007729Y017623D01*
X007886Y017623D02*
X007886Y017382D01*
X007966Y017462D01*
X008046Y017382D01*
X008046Y017623D01*
X008162Y017623D02*
X008282Y017623D01*
X008322Y017583D01*
X008322Y017503D01*
X008282Y017462D01*
X008162Y017462D01*
X008162Y017382D02*
X008162Y017623D01*
X008242Y017462D02*
X008322Y017382D01*
X008253Y016573D02*
X008173Y016573D01*
X008133Y016533D01*
X008133Y016372D01*
X008173Y016332D01*
X008253Y016332D01*
X008293Y016372D01*
X008293Y016453D01*
X008213Y016453D01*
X008293Y016533D02*
X008253Y016573D01*
X008409Y016573D02*
X008409Y016332D01*
X008569Y016332D01*
X008686Y016332D02*
X008846Y016332D01*
X008962Y016332D02*
X009082Y016332D01*
X009122Y016372D01*
X009122Y016533D01*
X009082Y016573D01*
X008962Y016573D01*
X008962Y016332D01*
X008766Y016453D02*
X008686Y016453D01*
X008686Y016573D02*
X008686Y016332D01*
X008686Y016573D02*
X008846Y016573D01*
X008178Y016086D02*
X007938Y016086D01*
X007938Y016006D02*
X007938Y016166D01*
X008017Y016332D02*
X008017Y016573D01*
X008017Y016453D02*
X007857Y016453D01*
X007857Y016573D02*
X007857Y016332D01*
X007741Y016372D02*
X007701Y016332D01*
X007621Y016332D01*
X007581Y016372D01*
X007581Y016533D01*
X007621Y016573D01*
X007701Y016573D01*
X007741Y016533D01*
X007938Y015890D02*
X008138Y015890D01*
X008178Y015850D01*
X008178Y015770D01*
X008138Y015730D01*
X007938Y015730D01*
X007978Y015614D02*
X008018Y015614D01*
X008058Y015574D01*
X008058Y015454D01*
X008058Y015574D02*
X008098Y015614D01*
X008138Y015614D01*
X008178Y015574D01*
X008178Y015454D01*
X007938Y015454D01*
X007938Y015574D01*
X007978Y015614D01*
X008218Y015338D02*
X008218Y015177D01*
X008178Y015061D02*
X008098Y014981D01*
X008098Y015021D02*
X008098Y014901D01*
X008178Y014901D02*
X007938Y014901D01*
X007938Y015021D01*
X007978Y015061D01*
X008058Y015061D01*
X008098Y015021D01*
X008178Y014785D02*
X007938Y014785D01*
X007938Y014625D02*
X008178Y014625D01*
X008098Y014705D01*
X008178Y014785D01*
X008058Y014509D02*
X007978Y014509D01*
X007938Y014469D01*
X007938Y014349D01*
X008178Y014349D01*
X008098Y014349D02*
X008098Y014469D01*
X008058Y014509D01*
X008608Y014852D02*
X008808Y014852D01*
X008828Y014854D01*
X008846Y014860D01*
X008864Y014869D01*
X008879Y014881D01*
X008891Y014896D01*
X008900Y014914D01*
X008906Y014932D01*
X008908Y014952D01*
X008908Y015152D01*
X008908Y015352D01*
X008906Y015372D01*
X008900Y015390D01*
X008891Y015408D01*
X008879Y015423D01*
X008864Y015435D01*
X008846Y015444D01*
X008828Y015450D01*
X008808Y015452D01*
X008608Y015452D01*
X008588Y015450D01*
X008570Y015444D01*
X008552Y015435D01*
X008537Y015423D01*
X008525Y015408D01*
X008516Y015390D01*
X008510Y015372D01*
X008508Y015352D01*
X008508Y015152D01*
X008508Y014952D01*
X008510Y014932D01*
X008516Y014914D01*
X008525Y014896D01*
X008537Y014881D01*
X008552Y014869D01*
X008570Y014860D01*
X008588Y014854D01*
X008608Y014852D01*
X008508Y013223D02*
X008548Y013183D01*
X008548Y013103D01*
X008508Y013062D01*
X008388Y013062D01*
X008388Y012982D02*
X008388Y013223D01*
X008508Y013223D01*
X008468Y013062D02*
X008548Y012982D01*
X008664Y013103D02*
X008824Y013103D01*
X008941Y013103D02*
X009061Y013103D01*
X009101Y013062D01*
X009101Y013022D01*
X009061Y012982D01*
X008981Y012982D01*
X008941Y013022D01*
X008941Y013103D01*
X009021Y013183D01*
X009101Y013223D01*
X008784Y013223D02*
X008784Y012982D01*
X008664Y013103D02*
X008784Y013223D01*
X012038Y015284D02*
X012038Y015404D01*
X012078Y015444D01*
X012158Y015444D01*
X012198Y015404D01*
X012198Y015284D01*
X012198Y015364D02*
X012278Y015444D01*
X012278Y015560D02*
X012278Y015720D01*
X012278Y015640D02*
X012038Y015640D01*
X012118Y015560D01*
X012158Y015836D02*
X012158Y015996D01*
X012038Y015956D02*
X012158Y015836D01*
X012278Y015956D02*
X012038Y015956D01*
X012338Y016222D02*
X012378Y016182D01*
X012538Y016182D01*
X012578Y016222D01*
X012578Y016303D01*
X012538Y016343D01*
X012578Y016459D02*
X012578Y016619D01*
X012578Y016539D02*
X012338Y016539D01*
X012418Y016459D01*
X012378Y016343D02*
X012338Y016303D01*
X012338Y016222D01*
X012458Y016735D02*
X012338Y016855D01*
X012578Y016855D01*
X012458Y016895D02*
X012458Y016735D01*
X012429Y017882D02*
X012470Y017922D01*
X012429Y017882D02*
X012349Y017882D01*
X012309Y017922D01*
X012309Y018083D01*
X012349Y018123D01*
X012429Y018123D01*
X012470Y018083D01*
X012586Y018043D02*
X012666Y018123D01*
X012666Y017882D01*
X012586Y017882D02*
X012746Y017882D01*
X012862Y017922D02*
X012902Y017882D01*
X012982Y017882D01*
X013022Y017922D01*
X013022Y018003D01*
X012982Y018043D01*
X012942Y018043D01*
X012862Y018003D01*
X012862Y018123D01*
X013022Y018123D01*
X012982Y018282D02*
X013022Y018322D01*
X013022Y018362D01*
X012982Y018403D01*
X012862Y018403D01*
X012862Y018322D01*
X012902Y018282D01*
X012982Y018282D01*
X012862Y018403D02*
X012942Y018483D01*
X013022Y018523D01*
X012746Y018483D02*
X012746Y018403D01*
X012706Y018362D01*
X012586Y018362D01*
X012586Y018282D02*
X012586Y018523D01*
X012706Y018523D01*
X012746Y018483D01*
X012666Y018362D02*
X012746Y018282D01*
X012278Y015284D02*
X012038Y015284D01*
X011979Y007123D02*
X011819Y006882D01*
X011703Y006882D02*
X011703Y007123D01*
X011543Y007123D02*
X011543Y006882D01*
X011427Y006922D02*
X011387Y006882D01*
X011307Y006882D01*
X011267Y006922D01*
X011267Y007083D01*
X011307Y007123D01*
X011387Y007123D01*
X011427Y007083D01*
X011427Y006922D01*
X011543Y007123D02*
X011703Y006882D01*
X012095Y006882D02*
X012095Y007123D01*
X012216Y007123D01*
X012256Y007083D01*
X012256Y007003D01*
X012216Y006962D01*
X012095Y006962D01*
X012372Y006882D02*
X012532Y006882D01*
X012648Y006882D02*
X012808Y006882D01*
X012728Y006882D02*
X012728Y007123D01*
X012648Y007043D01*
X012924Y007043D02*
X013004Y007123D01*
X013004Y006882D01*
X012924Y006882D02*
X013084Y006882D01*
X012372Y006882D02*
X012372Y007123D01*
X011151Y007083D02*
X011151Y007003D01*
X011111Y006962D01*
X010991Y006962D01*
X010991Y006882D02*
X010991Y007123D01*
X011111Y007123D01*
X011151Y007083D01*
X011071Y006962D02*
X011151Y006882D01*
X010874Y006882D02*
X010874Y007123D01*
X010714Y007123D02*
X010714Y006882D01*
X010794Y006962D01*
X010874Y006882D01*
X010598Y007003D02*
X010558Y006962D01*
X010438Y006962D01*
X010438Y006882D02*
X010438Y007123D01*
X010558Y007123D01*
X010598Y007083D01*
X010598Y007003D01*
X027241Y017432D02*
X027401Y017593D01*
X027401Y017633D01*
X027361Y017673D01*
X027281Y017673D01*
X027241Y017633D01*
X027241Y017432D02*
X027401Y017432D01*
X029469Y019825D02*
X029349Y019945D01*
X029590Y019945D01*
X029469Y019985D02*
X029469Y019825D01*
X029389Y020101D02*
X029349Y020141D01*
X029349Y020221D01*
X029389Y020261D01*
X029550Y020101D01*
X029590Y020141D01*
X029590Y020221D01*
X029550Y020261D01*
X029389Y020261D01*
X029389Y020101D02*
X029550Y020101D01*
X022278Y027982D02*
X022038Y027982D01*
X022038Y028103D01*
X022078Y028143D01*
X022158Y028143D01*
X022198Y028103D01*
X022198Y027982D01*
X022198Y028062D02*
X022278Y028143D01*
X022238Y028259D02*
X022278Y028299D01*
X022278Y028379D01*
X022238Y028419D01*
X022198Y028419D01*
X022158Y028379D01*
X022158Y028339D01*
X022158Y028379D02*
X022118Y028419D01*
X022078Y028419D01*
X022038Y028379D01*
X022038Y028299D01*
X022078Y028259D01*
X022078Y028535D02*
X022038Y028575D01*
X022038Y028655D01*
X022078Y028695D01*
X022118Y028695D01*
X022278Y028535D01*
X022278Y028695D01*
X022959Y028682D02*
X022959Y028923D01*
X023079Y028923D01*
X023120Y028883D01*
X023120Y028803D01*
X023079Y028762D01*
X022959Y028762D01*
X023039Y028762D02*
X023120Y028682D01*
X023236Y028682D02*
X023396Y028843D01*
X023396Y028883D01*
X023356Y028923D01*
X023276Y028923D01*
X023236Y028883D01*
X023236Y028682D02*
X023396Y028682D01*
X023512Y028682D02*
X023672Y028843D01*
X023672Y028883D01*
X023632Y028923D01*
X023552Y028923D01*
X023512Y028883D01*
X023512Y028682D02*
X023672Y028682D01*
X024538Y029482D02*
X024538Y029603D01*
X024578Y029643D01*
X024658Y029643D01*
X024698Y029603D01*
X024698Y029482D01*
X024778Y029482D02*
X024538Y029482D01*
X024698Y029562D02*
X024778Y029643D01*
X024738Y029759D02*
X024778Y029799D01*
X024778Y029879D01*
X024738Y029919D01*
X024698Y029919D01*
X024658Y029879D01*
X024658Y029839D01*
X024658Y029879D02*
X024618Y029919D01*
X024578Y029919D01*
X024538Y029879D01*
X024538Y029799D01*
X024578Y029759D01*
X024658Y030035D02*
X024658Y030155D01*
X024698Y030195D01*
X024738Y030195D01*
X024778Y030155D01*
X024778Y030075D01*
X024738Y030035D01*
X024658Y030035D01*
X024578Y030115D01*
X024538Y030195D01*
X024938Y030195D02*
X024938Y030035D01*
X024978Y029919D02*
X025018Y029919D01*
X025058Y029879D01*
X025098Y029919D01*
X025138Y029919D01*
X025178Y029879D01*
X025178Y029799D01*
X025138Y029759D01*
X025058Y029839D02*
X025058Y029879D01*
X024978Y029919D02*
X024938Y029879D01*
X024938Y029799D01*
X024978Y029759D01*
X024978Y029643D02*
X025058Y029643D01*
X025098Y029603D01*
X025098Y029482D01*
X025178Y029482D02*
X024938Y029482D01*
X024938Y029603D01*
X024978Y029643D01*
X025098Y029562D02*
X025178Y029643D01*
X025338Y029603D02*
X025378Y029643D01*
X025458Y029643D01*
X025498Y029603D01*
X025498Y029482D01*
X025578Y029482D02*
X025338Y029482D01*
X025338Y029603D01*
X025378Y029759D02*
X025338Y029799D01*
X025338Y029879D01*
X025378Y029919D01*
X025418Y029919D01*
X025458Y029879D01*
X025498Y029919D01*
X025538Y029919D01*
X025578Y029879D01*
X025578Y029799D01*
X025538Y029759D01*
X025458Y029839D02*
X025458Y029879D01*
X025418Y030035D02*
X025378Y030035D01*
X025338Y030075D01*
X025338Y030155D01*
X025378Y030195D01*
X025418Y030195D01*
X025458Y030155D01*
X025458Y030075D01*
X025418Y030035D01*
X025458Y030075D02*
X025498Y030035D01*
X025538Y030035D01*
X025578Y030075D01*
X025578Y030155D01*
X025538Y030195D01*
X025498Y030195D01*
X025458Y030155D01*
X025738Y030155D02*
X025738Y030075D01*
X025778Y030035D01*
X025818Y030035D01*
X025858Y030075D01*
X025858Y030195D01*
X025938Y030195D02*
X025778Y030195D01*
X025738Y030155D01*
X025938Y030195D02*
X025978Y030155D01*
X025978Y030075D01*
X025938Y030035D01*
X025938Y029919D02*
X025978Y029879D01*
X025978Y029799D01*
X025938Y029759D01*
X025858Y029839D02*
X025858Y029879D01*
X025898Y029919D01*
X025938Y029919D01*
X025858Y029879D02*
X025818Y029919D01*
X025778Y029919D01*
X025738Y029879D01*
X025738Y029799D01*
X025778Y029759D01*
X025778Y029643D02*
X025858Y029643D01*
X025898Y029603D01*
X025898Y029482D01*
X025978Y029482D02*
X025738Y029482D01*
X025738Y029603D01*
X025778Y029643D01*
X025898Y029562D02*
X025978Y029643D01*
X026138Y029603D02*
X026178Y029643D01*
X026258Y029643D01*
X026298Y029603D01*
X026298Y029482D01*
X026378Y029482D02*
X026138Y029482D01*
X026138Y029603D01*
X026298Y029562D02*
X026378Y029643D01*
X026258Y029759D02*
X026258Y029919D01*
X026258Y030035D02*
X026258Y030195D01*
X026378Y030155D02*
X026138Y030155D01*
X026258Y030035D01*
X026378Y029879D02*
X026138Y029879D01*
X026258Y029759D01*
X025578Y029643D02*
X025498Y029562D01*
X025178Y030035D02*
X025138Y030035D01*
X024978Y030195D01*
X024938Y030195D01*
X026288Y028923D02*
X026408Y028923D01*
X026448Y028883D01*
X026448Y028803D01*
X026408Y028762D01*
X026288Y028762D01*
X026288Y028682D02*
X026288Y028923D01*
X026368Y028762D02*
X026448Y028682D01*
X026564Y028682D02*
X026724Y028843D01*
X026724Y028883D01*
X026684Y028923D01*
X026604Y028923D01*
X026564Y028883D01*
X026564Y028682D02*
X026724Y028682D01*
X026841Y028682D02*
X027001Y028682D01*
X026921Y028682D02*
X026921Y028923D01*
X026841Y028843D01*
X029310Y028488D02*
X029550Y028488D01*
X029550Y028408D02*
X029550Y028568D01*
X029390Y028408D02*
X029310Y028488D01*
X021501Y028833D02*
X021341Y028672D01*
X021341Y028632D01*
X021224Y028833D02*
X021064Y028672D01*
X021064Y028632D01*
X020948Y028672D02*
X020908Y028632D01*
X020828Y028632D01*
X020788Y028672D01*
X020788Y028833D01*
X020828Y028873D01*
X020908Y028873D01*
X020948Y028833D01*
X021064Y028873D02*
X021224Y028873D01*
X021224Y028833D01*
X021341Y028873D02*
X021501Y028873D01*
X021501Y028833D01*
X020551Y028833D02*
X020391Y028672D01*
X020391Y028632D01*
X020274Y028672D02*
X020274Y028712D01*
X020234Y028753D01*
X020114Y028753D01*
X020114Y028672D01*
X020154Y028632D01*
X020234Y028632D01*
X020274Y028672D01*
X020194Y028833D02*
X020114Y028753D01*
X020194Y028833D02*
X020274Y028873D01*
X020391Y028873D02*
X020551Y028873D01*
X020551Y028833D01*
X019998Y028833D02*
X019958Y028873D01*
X019878Y028873D01*
X019838Y028833D01*
X019838Y028672D01*
X019878Y028632D01*
X019958Y028632D01*
X019998Y028672D01*
X018951Y028672D02*
X018951Y028712D01*
X018911Y028753D01*
X018791Y028753D01*
X018791Y028672D01*
X018831Y028632D01*
X018911Y028632D01*
X018951Y028672D01*
X018871Y028833D02*
X018791Y028753D01*
X018871Y028833D02*
X018951Y028873D01*
X018674Y028873D02*
X018594Y028833D01*
X018514Y028753D01*
X018634Y028753D01*
X018674Y028712D01*
X018674Y028672D01*
X018634Y028632D01*
X018554Y028632D01*
X018514Y028672D01*
X018514Y028753D01*
X018398Y028833D02*
X018358Y028873D01*
X018278Y028873D01*
X018238Y028833D01*
X018238Y028672D01*
X018278Y028632D01*
X018358Y028632D01*
X018398Y028672D01*
D14*
X022798Y024472D02*
X022578Y024252D01*
X022578Y024182D01*
X022798Y024472D02*
X023218Y024472D01*
X023448Y024242D01*
X023448Y023422D01*
X023238Y023212D01*
X022798Y023212D01*
X022578Y023432D01*
X022578Y023772D01*
X023908Y023392D02*
X024088Y023212D01*
X024478Y023212D01*
X023908Y023392D02*
X023908Y024452D01*
X025718Y024262D02*
X025758Y024262D01*
D15*
X022439Y023972D02*
X022441Y023995D01*
X022447Y024018D01*
X022457Y024040D01*
X022470Y024059D01*
X022486Y024076D01*
X022505Y024090D01*
X022526Y024101D01*
X022549Y024108D01*
X022572Y024111D01*
X022596Y024110D01*
X022619Y024105D01*
X022641Y024096D01*
X022661Y024084D01*
X022678Y024068D01*
X022693Y024050D01*
X022705Y024029D01*
X022713Y024007D01*
X022716Y023984D01*
X022716Y023960D01*
X022713Y023937D01*
X022705Y023915D01*
X022693Y023894D01*
X022678Y023876D01*
X022661Y023860D01*
X022641Y023848D01*
X022619Y023839D01*
X022596Y023834D01*
X022572Y023833D01*
X022549Y023836D01*
X022526Y023843D01*
X022505Y023854D01*
X022486Y023868D01*
X022470Y023885D01*
X022457Y023904D01*
X022447Y023926D01*
X022441Y023949D01*
X022439Y023972D01*
X009419Y025785D02*
X009419Y026336D01*
X009419Y028069D02*
X009419Y028620D01*
X006355Y028728D02*
X006355Y025667D01*
X005797Y025667D01*
X005797Y026139D01*
X005797Y026533D02*
X005797Y027006D01*
X005797Y027399D02*
X005797Y027872D01*
X005797Y028265D02*
X005797Y028738D01*
X006355Y028738D01*
D16*
X024668Y024262D02*
X024668Y023682D01*
X026898Y023847D02*
X027373Y023847D01*
X028048Y023662D02*
X028068Y023682D01*
X028203Y023682D01*
X028223Y023662D01*
X028218Y024002D02*
X028078Y024002D01*
D17*
X028048Y024022D02*
X027598Y024462D01*
X027088Y024462D01*
X026898Y024262D01*
X026898Y023847D01*
X026903Y023852D02*
X026903Y023382D01*
X027073Y023212D01*
X027598Y023212D01*
X028048Y023662D01*
X028223Y023662D02*
X028558Y023342D01*
X028228Y024022D02*
X028548Y024342D01*
X026398Y024452D02*
X026398Y023412D01*
X025758Y023972D02*
X025758Y024262D01*
X025718Y024262D02*
X025488Y024452D01*
X025148Y024452D01*
X025148Y023412D01*
X025808Y024262D02*
X026048Y024452D01*
X026398Y024452D01*
D18*
X021503Y026677D02*
X021503Y026878D01*
X021403Y026778D01*
X021536Y026778D01*
X021306Y026844D02*
X021306Y026878D01*
X021173Y026878D01*
X021076Y026844D02*
X021043Y026878D01*
X020976Y026878D01*
X020943Y026844D01*
X020943Y026711D01*
X020976Y026677D01*
X021043Y026677D01*
X021076Y026711D01*
X021173Y026711D02*
X021173Y026677D01*
X021173Y026711D02*
X021306Y026844D01*
X026633Y014858D02*
X026633Y014657D01*
X026767Y014657D01*
X026863Y014657D02*
X026997Y014657D01*
X026930Y014657D02*
X026930Y014858D01*
X026863Y014791D01*
X027093Y014791D02*
X027160Y014858D01*
X027160Y014657D01*
X027093Y014657D02*
X027227Y014657D01*
X008868Y017212D02*
X008798Y017282D01*
X008848Y017282D01*
X008798Y017282D02*
X008798Y017232D01*
X008728Y017212D02*
X008658Y017282D01*
X008708Y017282D01*
X008658Y017282D02*
X008658Y017232D01*
X008728Y018212D02*
X008658Y018282D01*
X008708Y018282D01*
X008658Y018282D02*
X008658Y018232D01*
X008798Y018232D02*
X008798Y018282D01*
X008848Y018282D01*
X008798Y018282D02*
X008868Y018212D01*
X008868Y019212D02*
X008798Y019282D01*
X008848Y019282D01*
X008798Y019282D02*
X008798Y019232D01*
X008728Y019212D02*
X008658Y019282D01*
X008708Y019282D01*
X008658Y019282D02*
X008658Y019232D01*
X006191Y026179D02*
X006033Y026336D01*
X006033Y026769D01*
X006191Y026927D01*
X006191Y027478D02*
X006033Y027636D01*
X006033Y028029D01*
X006191Y028187D01*
X008554Y005592D02*
X008562Y005592D01*
X008558Y005592D02*
X008558Y005222D01*
X008614Y005487D01*
X008502Y005488D02*
X008499Y005505D01*
X008499Y005522D01*
X008503Y005539D01*
X008509Y005555D01*
X008517Y005570D01*
X008528Y005583D01*
X008538Y005572D02*
X008538Y005402D01*
X008578Y005382D02*
X008578Y005562D01*
X008588Y005582D02*
X008578Y005588D01*
X008566Y005591D01*
X008554Y005592D01*
X008562Y005592D02*
X008550Y005591D01*
X008538Y005588D01*
X008528Y005582D01*
X008588Y005583D02*
X008599Y005570D01*
X008607Y005555D01*
X008613Y005539D01*
X008617Y005522D01*
X008617Y005505D01*
X008614Y005488D01*
X008502Y005487D02*
X008558Y005222D01*
X008538Y005102D02*
X008540Y005111D01*
X008546Y005118D01*
X008554Y005121D01*
X008562Y005121D01*
X008570Y005118D01*
X008576Y005111D01*
X008578Y005102D01*
X008576Y005093D01*
X008570Y005086D01*
X008562Y005083D01*
X008554Y005083D01*
X008546Y005086D01*
X008540Y005093D01*
X008538Y005102D01*
D19*
X009193Y013537D02*
X009333Y013537D01*
X009379Y013584D01*
X009379Y013771D01*
X009333Y013818D01*
X009193Y013818D01*
X009193Y013537D01*
X009515Y013584D02*
X009562Y013537D01*
X009655Y013537D01*
X009702Y013584D01*
X009837Y013537D02*
X009837Y013818D01*
X009977Y013818D01*
X010024Y013771D01*
X010024Y013584D01*
X009977Y013537D01*
X009837Y013537D01*
X009702Y013771D02*
X009655Y013818D01*
X009562Y013818D01*
X009515Y013771D01*
X009515Y013584D01*
X010159Y013584D02*
X010206Y013537D01*
X010299Y013537D01*
X010346Y013584D01*
X010482Y013678D02*
X010668Y013678D01*
X010622Y013818D02*
X010622Y013537D01*
X010804Y013491D02*
X010991Y013491D01*
X011126Y013584D02*
X011173Y013537D01*
X011266Y013537D01*
X011313Y013584D01*
X011313Y013771D01*
X011266Y013818D01*
X011173Y013818D01*
X011126Y013771D01*
X011126Y013584D01*
X011448Y013584D02*
X011448Y013818D01*
X011635Y013818D02*
X011635Y013584D01*
X011588Y013537D01*
X011495Y013537D01*
X011448Y013584D01*
X011771Y013818D02*
X011957Y013818D01*
X011864Y013818D02*
X011864Y013537D01*
X010622Y013818D02*
X010482Y013678D01*
X010346Y013771D02*
X010299Y013818D01*
X010206Y013818D01*
X010159Y013771D01*
X010159Y013584D01*
X010843Y016537D02*
X010843Y016818D01*
X010983Y016818D01*
X011030Y016771D01*
X011030Y016678D01*
X010983Y016631D01*
X010843Y016631D01*
X010936Y016631D02*
X011030Y016537D01*
X011165Y016537D02*
X011165Y016584D01*
X011352Y016771D01*
X011352Y016818D01*
X011165Y016818D01*
X011488Y016724D02*
X011581Y016818D01*
X011581Y016537D01*
X011488Y016537D02*
X011674Y016537D01*
X016793Y014822D02*
X016840Y014869D01*
X016886Y014869D01*
X016933Y014822D01*
X016933Y014729D01*
X016886Y014682D01*
X016840Y014682D01*
X016793Y014729D01*
X016793Y014822D01*
X016933Y014822D02*
X016980Y014869D01*
X017026Y014869D01*
X017073Y014822D01*
X017073Y014729D01*
X017026Y014682D01*
X016980Y014682D01*
X016933Y014729D01*
X016933Y014546D02*
X016933Y014406D01*
X016886Y014360D01*
X016840Y014360D01*
X016793Y014406D01*
X016793Y014500D01*
X016840Y014546D01*
X017026Y014546D01*
X017073Y014500D01*
X017073Y014406D01*
X017026Y014360D01*
X017026Y014224D02*
X017073Y014178D01*
X017073Y014084D01*
X017026Y014037D01*
X016840Y014037D01*
X016793Y014084D01*
X016793Y014178D01*
X016840Y014224D01*
X017843Y014228D02*
X017843Y014134D01*
X017890Y014087D01*
X018076Y014087D01*
X018123Y014134D01*
X018123Y014228D01*
X018076Y014274D01*
X018076Y014410D02*
X018030Y014410D01*
X017983Y014456D01*
X017983Y014550D01*
X018030Y014596D01*
X018076Y014596D01*
X018123Y014550D01*
X018123Y014456D01*
X018076Y014410D01*
X017983Y014456D02*
X017936Y014410D01*
X017890Y014410D01*
X017843Y014456D01*
X017843Y014550D01*
X017890Y014596D01*
X017936Y014596D01*
X017983Y014550D01*
X017936Y014732D02*
X017983Y014779D01*
X017983Y014919D01*
X017890Y014919D02*
X017843Y014872D01*
X017843Y014779D01*
X017890Y014732D01*
X017936Y014732D01*
X018076Y014732D02*
X018123Y014779D01*
X018123Y014872D01*
X018076Y014919D01*
X017890Y014919D01*
X017890Y014274D02*
X017843Y014228D01*
X017845Y012418D02*
X017939Y012418D01*
X017985Y012371D01*
X017985Y012324D01*
X017939Y012278D01*
X017845Y012278D01*
X017799Y012324D01*
X017799Y012371D01*
X017845Y012418D01*
X017845Y012278D02*
X017799Y012231D01*
X017799Y012184D01*
X017845Y012137D01*
X017939Y012137D01*
X017985Y012184D01*
X017985Y012231D01*
X017939Y012278D01*
X018121Y012278D02*
X018214Y012324D01*
X018261Y012324D01*
X018308Y012278D01*
X018308Y012184D01*
X018261Y012137D01*
X018167Y012137D01*
X018121Y012184D01*
X018121Y012278D02*
X018121Y012418D01*
X018308Y012418D01*
X017663Y012371D02*
X017616Y012418D01*
X017523Y012418D01*
X017476Y012371D01*
X017476Y012184D01*
X017523Y012137D01*
X017616Y012137D01*
X017663Y012184D01*
X023693Y010471D02*
X023693Y010284D01*
X023740Y010237D01*
X023833Y010237D01*
X023880Y010284D01*
X024015Y010237D02*
X024202Y010237D01*
X024109Y010237D02*
X024109Y010518D01*
X024015Y010424D01*
X023880Y010471D02*
X023833Y010518D01*
X023740Y010518D01*
X023693Y010471D01*
X024338Y010378D02*
X024524Y010378D01*
X024478Y010518D02*
X024338Y010378D01*
X024478Y010518D02*
X024478Y010237D01*
X024660Y010284D02*
X024847Y010471D01*
X024847Y010284D01*
X024800Y010237D01*
X024707Y010237D01*
X024660Y010284D01*
X024660Y010471D01*
X024707Y010518D01*
X024800Y010518D01*
X024847Y010471D01*
X028043Y011437D02*
X028043Y011578D01*
X028090Y011624D01*
X028183Y011624D01*
X028230Y011578D01*
X028230Y011437D01*
X028323Y011437D02*
X028043Y011437D01*
X028230Y011531D02*
X028323Y011624D01*
X028323Y011760D02*
X028276Y011760D01*
X028090Y011946D01*
X028043Y011946D01*
X028043Y011760D01*
X028043Y012082D02*
X028043Y012269D01*
X028090Y012269D01*
X028276Y012082D01*
X028323Y012082D01*
X029991Y018687D02*
X030085Y018687D01*
X030131Y018734D01*
X030131Y018828D01*
X030038Y018828D01*
X029945Y018921D02*
X029945Y018734D01*
X029991Y018687D01*
X029945Y018921D02*
X029991Y018968D01*
X030085Y018968D01*
X030131Y018921D01*
X030267Y018968D02*
X030454Y018687D01*
X030454Y018968D01*
X030589Y018968D02*
X030589Y018687D01*
X030729Y018687D01*
X030776Y018734D01*
X030776Y018921D01*
X030729Y018968D01*
X030589Y018968D01*
X030267Y018968D02*
X030267Y018687D01*
X030911Y018641D02*
X031098Y018641D01*
X031234Y018687D02*
X031234Y018968D01*
X031374Y018968D01*
X031420Y018921D01*
X031420Y018828D01*
X031374Y018781D01*
X031234Y018781D01*
X031556Y018687D02*
X031649Y018687D01*
X031603Y018687D02*
X031603Y018968D01*
X031649Y018968D02*
X031556Y018968D01*
X031771Y018968D02*
X031771Y018687D01*
X031958Y018687D02*
X031771Y018968D01*
X031958Y018968D02*
X031958Y018687D01*
D20*
X008358Y020497D03*
D21*
X008358Y020516D02*
X008594Y021067D01*
X008122Y021067D01*
X008358Y020516D01*
D22*
X008756Y026156D02*
X008809Y026156D01*
X008836Y026183D01*
X008836Y026236D01*
X008783Y026236D01*
X008836Y026290D02*
X008809Y026316D01*
X008756Y026316D01*
X008729Y026290D01*
X008729Y026183D01*
X008756Y026156D01*
X008913Y026156D02*
X008913Y026316D01*
X009020Y026156D01*
X009020Y026316D01*
X009097Y026316D02*
X009178Y026316D01*
X009204Y026290D01*
X009204Y026183D01*
X009178Y026156D01*
X009097Y026156D01*
X009097Y026316D01*
X008357Y026849D02*
X008357Y026956D01*
X008330Y026983D01*
X008250Y026983D01*
X008250Y026822D01*
X008330Y026822D01*
X008357Y026849D01*
X008181Y026822D02*
X008127Y026822D01*
X008154Y026822D02*
X008154Y026983D01*
X008127Y026983D02*
X008181Y026983D01*
X008207Y027122D02*
X008234Y027149D01*
X008234Y027256D01*
X008207Y027283D01*
X008127Y027283D01*
X008127Y027122D01*
X008207Y027122D01*
X008311Y027202D02*
X008418Y027202D01*
X008365Y027149D02*
X008365Y027256D01*
X008207Y027422D02*
X008234Y027449D01*
X008234Y027556D01*
X008207Y027583D01*
X008127Y027583D01*
X008127Y027422D01*
X008207Y027422D01*
X008311Y027502D02*
X008418Y027502D01*
X008598Y028085D02*
X008652Y028139D01*
X008652Y028246D01*
X008729Y028246D02*
X008809Y028246D01*
X008836Y028219D01*
X008836Y028192D01*
X008809Y028165D01*
X008729Y028165D01*
X008729Y028085D02*
X008809Y028085D01*
X008836Y028112D01*
X008836Y028139D01*
X008809Y028165D01*
X008729Y028085D02*
X008729Y028246D01*
X008545Y028246D02*
X008545Y028139D01*
X008598Y028085D01*
X008913Y028112D02*
X008940Y028085D01*
X008993Y028085D01*
X009020Y028112D01*
X009020Y028246D01*
X009097Y028219D02*
X009097Y028192D01*
X009124Y028165D01*
X009177Y028165D01*
X009204Y028139D01*
X009204Y028112D01*
X009177Y028085D01*
X009124Y028085D01*
X009097Y028112D01*
X009097Y028219D02*
X009124Y028246D01*
X009177Y028246D01*
X009204Y028219D01*
X008913Y028246D02*
X008913Y028112D01*
M02*
