G75*
G70*
%OFA0B0*%
%FSLAX24Y24*%
%IPPOS*%
%LPD*%
%AMOC8*
5,1,8,0,0,1.08239X$1,22.5*
%
%ADD10C,0.1339*%
%ADD11R,0.0440X0.0440*%
%ADD12R,0.0270X0.0280*%
%ADD13C,0.0434*%
%ADD14C,0.0500*%
%ADD15R,0.0340X0.0240*%
%ADD16R,0.0355X0.0355*%
%ADD17R,0.0512X0.0257*%
%ADD18R,0.1457X0.2402*%
%ADD19R,0.0631X0.1497*%
%ADD20R,0.0740X0.0690*%
%ADD21R,0.0591X0.0434*%
%ADD22R,0.0749X0.0611*%
%ADD23R,0.0700X0.0700*%
%ADD24C,0.0700*%
%ADD25R,0.0512X0.0138*%
%ADD26R,0.0280X0.0270*%
%ADD27C,0.0440*%
%ADD28R,0.0749X0.0985*%
%ADD29C,0.0355*%
%ADD30R,0.0440X0.0620*%
%ADD31R,0.0552X0.0139*%
%ADD32R,0.0984X0.0984*%
%ADD33R,0.0355X0.0119*%
%ADD34R,0.0119X0.0355*%
%ADD35R,0.2201X0.2201*%
%ADD36C,0.0926*%
%ADD37C,0.0515*%
%ADD38R,0.1497X0.0631*%
%ADD39R,0.0394X0.0178*%
%ADD40R,0.0355X0.0414*%
%ADD41R,0.0276X0.0178*%
%ADD42R,0.0788X0.0552*%
%ADD43R,0.0340X0.0440*%
%ADD44C,0.0100*%
%ADD45R,0.0740X0.0740*%
%ADD46R,0.0540X0.0640*%
%ADD47R,0.0926X0.0237*%
%ADD48R,0.0846X0.0630*%
%ADD49R,0.0571X0.0571*%
%ADD50C,0.0571*%
%ADD51C,0.0197*%
%ADD52C,0.0709*%
%ADD53R,0.1024X0.1221*%
%ADD54R,0.0867X0.1221*%
%ADD55C,0.0276*%
%ADD56R,0.0640X0.0540*%
%ADD57C,0.0740*%
%ADD58C,0.0631*%
%ADD59R,0.0650X0.0631*%
%ADD60C,0.0316*%
%ADD61R,0.0237X0.0257*%
D10*
X007408Y005402D03*
X030908Y005402D03*
X030908Y030902D03*
X007408Y030902D03*
D11*
X010058Y025452D03*
X010658Y025452D03*
X010658Y024752D03*
X010058Y024752D03*
X012308Y022852D03*
X012308Y022252D03*
X012508Y021602D03*
X012508Y021002D03*
X013208Y021002D03*
X013208Y021602D03*
X013008Y022252D03*
X013008Y022852D03*
X013058Y023652D03*
X013058Y024252D03*
X012358Y024252D03*
X012358Y023652D03*
X011708Y021402D03*
X011008Y021402D03*
X010108Y022202D03*
X009408Y022202D03*
X008808Y022202D03*
X008108Y022202D03*
X009108Y021102D03*
X009108Y020402D03*
X009808Y019002D03*
X010508Y019002D03*
X010508Y018002D03*
X009808Y018002D03*
X009808Y017002D03*
X010508Y017002D03*
X010658Y016252D03*
X011358Y016252D03*
X011958Y016252D03*
X011958Y016952D03*
X011958Y017552D03*
X011958Y018252D03*
X012258Y018852D03*
X012258Y019452D03*
X011558Y019452D03*
X011558Y018852D03*
X008108Y014052D03*
X008108Y013352D03*
X011458Y012002D03*
X012158Y012002D03*
X012158Y012602D03*
X012158Y013302D03*
X016958Y013552D03*
X016958Y012852D03*
X018008Y013102D03*
X018608Y013102D03*
X018608Y012402D03*
X018008Y013802D03*
X021558Y011002D03*
X021558Y010302D03*
X022558Y011502D03*
X023258Y011502D03*
X023858Y011502D03*
X023858Y010802D03*
X024558Y010802D03*
X024558Y011502D03*
X023608Y013002D03*
X023608Y013702D03*
X023858Y015552D03*
X023258Y015552D03*
X022558Y015552D03*
X023458Y016452D03*
X024058Y016452D03*
X024658Y016452D03*
X024658Y017152D03*
X024058Y017152D03*
X023458Y017152D03*
X024558Y015552D03*
X026558Y014402D03*
X027258Y014402D03*
X026958Y013002D03*
X026858Y012402D03*
X026258Y012402D03*
X026258Y013002D03*
X026258Y011702D03*
X026858Y011702D03*
X027458Y011702D03*
X027458Y011002D03*
X027458Y010402D03*
X027458Y009702D03*
X026858Y009702D03*
X026858Y009102D03*
X026158Y009102D03*
X026158Y009702D03*
X026158Y010302D03*
X026758Y010302D03*
X026758Y011002D03*
X026158Y011002D03*
X020408Y009102D03*
X020408Y008402D03*
X019458Y007852D03*
X018858Y007502D03*
X019458Y007152D03*
X018858Y006802D03*
X018058Y007102D03*
X018058Y006402D03*
X017308Y006402D03*
X017308Y007102D03*
X027708Y020952D03*
X027708Y021552D03*
X028408Y021552D03*
X028408Y020952D03*
X021708Y027652D03*
X021108Y027652D03*
X021108Y028352D03*
X021708Y028352D03*
X020508Y028302D03*
X019808Y028302D03*
X019208Y028302D03*
X018508Y028302D03*
X016308Y028402D03*
X016308Y027702D03*
X013908Y027702D03*
X013908Y028402D03*
X024008Y028952D03*
X024708Y028952D03*
X025308Y028952D03*
X026008Y028952D03*
X026708Y029202D03*
X027408Y029202D03*
X028008Y029202D03*
X028608Y029202D03*
X028658Y028602D03*
X027958Y028602D03*
X028008Y029902D03*
X028608Y029902D03*
X029308Y029952D03*
X029308Y029252D03*
X027408Y029902D03*
X026708Y029902D03*
D12*
X021708Y022452D03*
X021708Y022052D03*
X025558Y017202D03*
X025908Y017202D03*
X025908Y016802D03*
X025558Y016802D03*
X025558Y016202D03*
X025908Y016202D03*
X025908Y015802D03*
X025558Y015802D03*
X025558Y015402D03*
X025908Y015402D03*
X025908Y015002D03*
X025558Y015002D03*
X025408Y012102D03*
X025758Y012102D03*
X025758Y011702D03*
X025408Y011702D03*
X013558Y022952D03*
X013558Y023352D03*
X013558Y023752D03*
X013558Y024152D03*
X014158Y024852D03*
X014158Y025252D03*
X012808Y019202D03*
X012808Y018802D03*
X012808Y017652D03*
X012808Y017252D03*
X012808Y016702D03*
X012808Y016302D03*
D13*
X008008Y026336D03*
X008008Y028069D03*
X006658Y031652D03*
X030838Y013701D03*
X030838Y010552D03*
X031658Y004652D03*
X031658Y031652D03*
D14*
X031323Y031652D02*
X031325Y031689D01*
X031331Y031725D01*
X031341Y031761D01*
X031355Y031795D01*
X031373Y031827D01*
X031394Y031858D01*
X031418Y031886D01*
X031445Y031911D01*
X031475Y031932D01*
X031507Y031951D01*
X031541Y031966D01*
X031576Y031977D01*
X031612Y031984D01*
X031649Y031987D01*
X031686Y031986D01*
X031722Y031981D01*
X031758Y031972D01*
X031793Y031959D01*
X031825Y031942D01*
X031856Y031922D01*
X031885Y031898D01*
X031911Y031872D01*
X031933Y031843D01*
X031953Y031811D01*
X031968Y031778D01*
X031980Y031743D01*
X031988Y031707D01*
X031992Y031670D01*
X031992Y031634D01*
X031988Y031597D01*
X031980Y031561D01*
X031968Y031526D01*
X031953Y031493D01*
X031933Y031461D01*
X031911Y031432D01*
X031885Y031406D01*
X031856Y031382D01*
X031826Y031362D01*
X031793Y031345D01*
X031758Y031332D01*
X031722Y031323D01*
X031686Y031318D01*
X031649Y031317D01*
X031612Y031320D01*
X031576Y031327D01*
X031541Y031338D01*
X031507Y031353D01*
X031475Y031372D01*
X031445Y031393D01*
X031418Y031418D01*
X031394Y031446D01*
X031373Y031477D01*
X031355Y031509D01*
X031341Y031543D01*
X031331Y031579D01*
X031325Y031615D01*
X031323Y031652D01*
X006323Y031652D02*
X006325Y031689D01*
X006331Y031725D01*
X006341Y031761D01*
X006355Y031795D01*
X006373Y031827D01*
X006394Y031858D01*
X006418Y031886D01*
X006445Y031911D01*
X006475Y031932D01*
X006507Y031951D01*
X006541Y031966D01*
X006576Y031977D01*
X006612Y031984D01*
X006649Y031987D01*
X006686Y031986D01*
X006722Y031981D01*
X006758Y031972D01*
X006793Y031959D01*
X006825Y031942D01*
X006856Y031922D01*
X006885Y031898D01*
X006911Y031872D01*
X006933Y031843D01*
X006953Y031811D01*
X006968Y031778D01*
X006980Y031743D01*
X006988Y031707D01*
X006992Y031670D01*
X006992Y031634D01*
X006988Y031597D01*
X006980Y031561D01*
X006968Y031526D01*
X006953Y031493D01*
X006933Y031461D01*
X006911Y031432D01*
X006885Y031406D01*
X006856Y031382D01*
X006826Y031362D01*
X006793Y031345D01*
X006758Y031332D01*
X006722Y031323D01*
X006686Y031318D01*
X006649Y031317D01*
X006612Y031320D01*
X006576Y031327D01*
X006541Y031338D01*
X006507Y031353D01*
X006475Y031372D01*
X006445Y031393D01*
X006418Y031418D01*
X006394Y031446D01*
X006373Y031477D01*
X006355Y031509D01*
X006341Y031543D01*
X006331Y031579D01*
X006325Y031615D01*
X006323Y031652D01*
X031323Y004652D02*
X031325Y004689D01*
X031331Y004725D01*
X031341Y004761D01*
X031355Y004795D01*
X031373Y004827D01*
X031394Y004858D01*
X031418Y004886D01*
X031445Y004911D01*
X031475Y004932D01*
X031507Y004951D01*
X031541Y004966D01*
X031576Y004977D01*
X031612Y004984D01*
X031649Y004987D01*
X031686Y004986D01*
X031722Y004981D01*
X031758Y004972D01*
X031793Y004959D01*
X031825Y004942D01*
X031856Y004922D01*
X031885Y004898D01*
X031911Y004872D01*
X031933Y004843D01*
X031953Y004811D01*
X031968Y004778D01*
X031980Y004743D01*
X031988Y004707D01*
X031992Y004670D01*
X031992Y004634D01*
X031988Y004597D01*
X031980Y004561D01*
X031968Y004526D01*
X031953Y004493D01*
X031933Y004461D01*
X031911Y004432D01*
X031885Y004406D01*
X031856Y004382D01*
X031826Y004362D01*
X031793Y004345D01*
X031758Y004332D01*
X031722Y004323D01*
X031686Y004318D01*
X031649Y004317D01*
X031612Y004320D01*
X031576Y004327D01*
X031541Y004338D01*
X031507Y004353D01*
X031475Y004372D01*
X031445Y004393D01*
X031418Y004418D01*
X031394Y004446D01*
X031373Y004477D01*
X031355Y004509D01*
X031341Y004543D01*
X031331Y004579D01*
X031325Y004615D01*
X031323Y004652D01*
D15*
X008708Y015002D03*
X008708Y015302D03*
D16*
X008458Y017002D03*
X009058Y017002D03*
X009058Y018002D03*
X008458Y018002D03*
X008458Y019002D03*
X009058Y019002D03*
D17*
X022196Y010776D03*
X022196Y010402D03*
X022196Y010028D03*
X023220Y010028D03*
X023220Y010402D03*
X023220Y010776D03*
D18*
X023979Y008002D03*
X021538Y008002D03*
D19*
X016327Y006902D03*
X014989Y006902D03*
X014889Y013252D03*
X014177Y013252D03*
X012839Y013252D03*
X016227Y013252D03*
D20*
X019308Y013077D03*
X019308Y011927D03*
D21*
X011441Y015152D03*
X010575Y014778D03*
X010575Y015526D03*
X008358Y020004D03*
X008358Y021500D03*
D22*
X009608Y016115D03*
X009608Y014190D03*
X025308Y008965D03*
X025308Y007040D03*
D23*
X009658Y005652D03*
X009658Y031652D03*
D24*
X009658Y030652D03*
X010658Y030652D03*
X011658Y030652D03*
X012658Y030652D03*
X013658Y030652D03*
X014658Y030652D03*
X015658Y030652D03*
X016658Y030652D03*
X017658Y030652D03*
X018658Y030652D03*
X019658Y030652D03*
X020658Y030652D03*
X021658Y030652D03*
X022658Y030652D03*
X023658Y030652D03*
X024658Y030652D03*
X025658Y030652D03*
X026658Y030652D03*
X027658Y030652D03*
X028658Y030652D03*
X028658Y031652D03*
X027658Y031652D03*
X026658Y031652D03*
X025658Y031652D03*
X024658Y031652D03*
X023658Y031652D03*
X022658Y031652D03*
X021658Y031652D03*
X020658Y031652D03*
X019658Y031652D03*
X018658Y031652D03*
X017658Y031652D03*
X016658Y031652D03*
X015658Y031652D03*
X014658Y031652D03*
X013658Y031652D03*
X012658Y031652D03*
X011658Y031652D03*
X010658Y031652D03*
X010658Y005652D03*
X010658Y004652D03*
X009658Y004652D03*
X011658Y004652D03*
X012658Y004652D03*
X013658Y004652D03*
X014658Y004652D03*
X015658Y004652D03*
X016658Y004652D03*
X017658Y004652D03*
X018658Y004652D03*
X019658Y004652D03*
X020658Y004652D03*
X021658Y004652D03*
X022658Y004652D03*
X023658Y004652D03*
X024658Y004652D03*
X025658Y004652D03*
X026658Y004652D03*
X027658Y004652D03*
X028658Y004652D03*
X028658Y005652D03*
X027658Y005652D03*
X026658Y005652D03*
X025658Y005652D03*
X024658Y005652D03*
X023658Y005652D03*
X022658Y005652D03*
X021658Y005652D03*
X020658Y005652D03*
X019658Y005652D03*
X018658Y005652D03*
X017658Y005652D03*
X016658Y005652D03*
X015658Y005652D03*
X014658Y005652D03*
X013658Y005652D03*
X012658Y005652D03*
X011658Y005652D03*
D25*
X013360Y015289D03*
X013360Y015486D03*
X013360Y015682D03*
X013360Y015879D03*
X013360Y016076D03*
X013360Y016273D03*
X013360Y016470D03*
X013360Y016667D03*
X013360Y016863D03*
X013360Y017060D03*
X013360Y017257D03*
X013360Y017454D03*
X013360Y017651D03*
X013360Y017848D03*
X013360Y018045D03*
X013360Y018241D03*
X013360Y018438D03*
X013360Y018635D03*
X013360Y018832D03*
X013360Y019029D03*
X013360Y019226D03*
X013360Y019423D03*
X013360Y019619D03*
X013360Y019816D03*
X021156Y019816D03*
X021156Y019619D03*
X021156Y019423D03*
X021156Y019226D03*
X021156Y019029D03*
X021156Y018832D03*
X021156Y018635D03*
X021156Y018438D03*
X021156Y018241D03*
X021156Y018045D03*
X021156Y017848D03*
X021156Y017651D03*
X021156Y017454D03*
X021156Y017257D03*
X021156Y017060D03*
X021156Y016863D03*
X021156Y016667D03*
X021156Y016470D03*
X021156Y016273D03*
X021156Y016076D03*
X021156Y015879D03*
X021156Y015682D03*
X021156Y015486D03*
X021156Y015289D03*
D26*
X021708Y017102D03*
X022108Y017102D03*
X021308Y022052D03*
X021308Y022402D03*
X020908Y022402D03*
X020908Y022052D03*
X021008Y027052D03*
X021408Y027052D03*
D27*
X012258Y013752D03*
D28*
X018671Y027252D03*
X020246Y027252D03*
D29*
X007458Y023152D03*
X006408Y023152D03*
X006408Y014652D03*
X007458Y014652D03*
D30*
X007258Y013442D03*
X006558Y013442D03*
X006558Y015862D03*
X007258Y015862D03*
X007258Y021942D03*
X006558Y021942D03*
X006558Y024362D03*
X007258Y024362D03*
D31*
X029575Y024304D03*
X029575Y024107D03*
X029575Y023910D03*
X029575Y023713D03*
X029575Y023517D03*
X029575Y023320D03*
X029575Y023123D03*
X029575Y022926D03*
X029575Y022729D03*
X029575Y022532D03*
X029575Y022336D03*
X029575Y022139D03*
X029575Y021942D03*
X029575Y021745D03*
X029575Y021548D03*
X029575Y021351D03*
X029575Y021154D03*
X029575Y020958D03*
X029575Y020761D03*
X029575Y020564D03*
X029575Y024501D03*
X029575Y024698D03*
X029575Y024895D03*
X029575Y025091D03*
X029575Y025288D03*
X029575Y025485D03*
X029575Y025682D03*
X029575Y025879D03*
X029575Y026076D03*
X029575Y026273D03*
X029575Y026469D03*
X029575Y026666D03*
X029575Y026863D03*
X029575Y027060D03*
X029575Y027257D03*
X029575Y027454D03*
X029575Y027650D03*
X029575Y027847D03*
X029575Y028044D03*
X029575Y028241D03*
D32*
X030383Y029127D03*
X030383Y019678D03*
D33*
X017163Y011412D03*
X017163Y011255D03*
X017163Y011097D03*
X017163Y010940D03*
X017163Y010782D03*
X017163Y010625D03*
X017163Y010467D03*
X017163Y010310D03*
X017163Y010152D03*
X017163Y009995D03*
X017163Y009837D03*
X017163Y009680D03*
X017163Y009523D03*
X017163Y009365D03*
X017163Y009208D03*
X017163Y009050D03*
X017163Y008893D03*
X014053Y008893D03*
X014053Y009050D03*
X014053Y009208D03*
X014053Y009365D03*
X014053Y009523D03*
X014053Y009680D03*
X014053Y009837D03*
X014053Y009995D03*
X014053Y010152D03*
X014053Y010310D03*
X014053Y010467D03*
X014053Y010625D03*
X014053Y010782D03*
X014053Y010940D03*
X014053Y011097D03*
X014053Y011255D03*
X014053Y011412D03*
D34*
X014348Y011708D03*
X014506Y011708D03*
X014663Y011708D03*
X014821Y011708D03*
X014978Y011708D03*
X015136Y011708D03*
X015293Y011708D03*
X015451Y011708D03*
X015608Y011708D03*
X015766Y011708D03*
X015923Y011708D03*
X016081Y011708D03*
X016238Y011708D03*
X016396Y011708D03*
X016553Y011708D03*
X016710Y011708D03*
X016868Y011708D03*
X016868Y008597D03*
X016710Y008597D03*
X016553Y008597D03*
X016396Y008597D03*
X016238Y008597D03*
X016081Y008597D03*
X015923Y008597D03*
X015766Y008597D03*
X015608Y008597D03*
X015451Y008597D03*
X015293Y008597D03*
X015136Y008597D03*
X014978Y008597D03*
X014821Y008597D03*
X014663Y008597D03*
X014506Y008597D03*
X014348Y008597D03*
D35*
X015608Y010152D03*
D36*
X015608Y010152D03*
D37*
X014821Y009365D03*
X016396Y009365D03*
X016396Y010940D03*
X014821Y010940D03*
D38*
X011958Y011322D03*
X011958Y009983D03*
X011958Y009222D03*
X011958Y007883D03*
X019108Y009083D03*
X019108Y010422D03*
D39*
X019975Y012447D03*
X019975Y012702D03*
X019975Y012958D03*
X020841Y012958D03*
X020841Y012702D03*
X020841Y012447D03*
D40*
X020408Y012840D03*
D41*
X020408Y012447D03*
D42*
X015738Y026970D03*
X014478Y026970D03*
X014478Y029135D03*
X015738Y029135D03*
D43*
X013158Y029502D03*
X012708Y029502D03*
X012258Y029502D03*
X012358Y006452D03*
X011908Y006452D03*
X011458Y006452D03*
D44*
X011683Y006644D02*
X011683Y006261D01*
X012133Y006261D02*
X012133Y006644D01*
X012483Y029311D02*
X012483Y029694D01*
X012933Y029694D02*
X012933Y029311D01*
D45*
X006908Y020902D03*
X031658Y018152D03*
D46*
X027308Y017002D03*
X026508Y017002D03*
X026508Y016002D03*
X027308Y016002D03*
X027308Y015202D03*
X026508Y015202D03*
X010958Y029402D03*
X010158Y029402D03*
D47*
X009073Y027832D03*
X009073Y027517D03*
X009073Y027202D03*
X009073Y026887D03*
X009073Y026573D03*
D48*
X009114Y025352D03*
X006909Y025352D03*
X006909Y029053D03*
X009114Y029053D03*
D49*
X008958Y012046D03*
D50*
X008958Y011259D03*
D51*
X014898Y020412D03*
X015134Y020649D03*
X015134Y020963D03*
X015134Y021278D03*
X015134Y021593D03*
X015134Y021908D03*
X015134Y022223D03*
X015134Y022538D03*
X015134Y022853D03*
X015134Y023168D03*
X015134Y023483D03*
X015134Y023798D03*
X015134Y024113D03*
X015134Y024428D03*
X015134Y024743D03*
X015134Y025058D03*
X015134Y025373D03*
X015134Y025688D03*
X015449Y025688D03*
X015449Y025373D03*
X015449Y025058D03*
X015449Y024743D03*
X015449Y024428D03*
X015449Y024113D03*
X015449Y023798D03*
X015449Y023483D03*
X015449Y023168D03*
X015449Y022853D03*
X015449Y022538D03*
X015449Y022223D03*
X015449Y021908D03*
X015449Y021593D03*
X015449Y021278D03*
X015449Y020963D03*
X015449Y020649D03*
X015764Y020649D03*
X015764Y020963D03*
X016079Y020963D03*
X016079Y020649D03*
X016394Y020649D03*
X016394Y020963D03*
X016394Y021278D03*
X016079Y021278D03*
X015764Y021278D03*
X015764Y021593D03*
X015764Y021908D03*
X015764Y022223D03*
X015764Y022538D03*
X015764Y022853D03*
X015764Y023168D03*
X015764Y023483D03*
X015764Y023798D03*
X015764Y024113D03*
X015764Y024428D03*
X015764Y024743D03*
X015764Y025058D03*
X015764Y025373D03*
X015764Y025688D03*
X016079Y025688D03*
X016079Y025373D03*
X016079Y025058D03*
X016079Y024743D03*
X016079Y024428D03*
X016079Y024113D03*
X016079Y023798D03*
X016079Y023483D03*
X016079Y023168D03*
X016079Y022853D03*
X016079Y022538D03*
X016079Y022223D03*
X016079Y021908D03*
X016079Y021593D03*
X016394Y021593D03*
X016709Y021593D03*
X016709Y021278D03*
X017024Y021278D03*
X017024Y020963D03*
X017024Y020649D03*
X016709Y020649D03*
X017339Y020649D03*
X017339Y020963D03*
X017654Y020963D03*
X017654Y020649D03*
X017969Y020649D03*
X017969Y020963D03*
X018284Y020963D03*
X018284Y020649D03*
X018599Y020649D03*
X018599Y020963D03*
X018914Y020963D03*
X018914Y020649D03*
X019229Y020649D03*
X019229Y020963D03*
X019544Y020963D03*
X019544Y020649D03*
X019859Y020649D03*
X019859Y020963D03*
X020174Y020963D03*
X020174Y020649D03*
X020174Y021278D03*
X019859Y021278D03*
X019544Y021278D03*
X019229Y021278D03*
X018914Y021278D03*
X018599Y021278D03*
X018284Y021278D03*
X017969Y021278D03*
X017654Y021278D03*
X017339Y021278D03*
X017339Y021593D03*
X017024Y021593D03*
X017024Y021908D03*
X016709Y021908D03*
X016709Y022223D03*
X017024Y022223D03*
X017339Y022223D03*
X017339Y021908D03*
X017654Y021908D03*
X017654Y021593D03*
X017969Y021593D03*
X018284Y021593D03*
X018599Y021593D03*
X018914Y021593D03*
X019229Y021593D03*
X019544Y021593D03*
X019859Y021593D03*
X020174Y021593D03*
X020174Y021908D03*
X019859Y021908D03*
X019544Y021908D03*
X019229Y021908D03*
X018914Y021908D03*
X018599Y021908D03*
X018284Y021908D03*
X017969Y021908D03*
X017969Y022223D03*
X017654Y022223D03*
X017654Y022538D03*
X017339Y022538D03*
X017024Y022538D03*
X016709Y022538D03*
X016709Y022853D03*
X016394Y022853D03*
X016709Y023168D03*
X016709Y023483D03*
X016394Y023483D03*
X016709Y023798D03*
X016709Y024113D03*
X016394Y024113D03*
X016709Y024428D03*
X016709Y024743D03*
X016394Y024743D03*
X016394Y025058D03*
X016394Y025373D03*
X016394Y025688D03*
X016709Y025688D03*
X016709Y025373D03*
X016709Y025058D03*
X017024Y025058D03*
X017024Y025373D03*
X017024Y025688D03*
X017339Y025688D03*
X017339Y025373D03*
X017339Y025058D03*
X017339Y024743D03*
X017024Y024743D03*
X017024Y024428D03*
X017024Y024113D03*
X017024Y023798D03*
X017024Y023483D03*
X017024Y023168D03*
X017024Y022853D03*
X017339Y022853D03*
X017654Y022853D03*
X017969Y022853D03*
X017969Y022538D03*
X018284Y022538D03*
X018284Y022223D03*
X018599Y022223D03*
X018914Y022223D03*
X019229Y022223D03*
X019544Y022223D03*
X019859Y022223D03*
X020174Y022223D03*
X020174Y022538D03*
X019859Y022538D03*
X019544Y022538D03*
X019229Y022538D03*
X018914Y022538D03*
X018599Y022538D03*
X018599Y022853D03*
X018284Y022853D03*
X018284Y023168D03*
X017969Y023168D03*
X017654Y023168D03*
X017339Y023168D03*
X017339Y023483D03*
X017339Y023798D03*
X017339Y024113D03*
X017339Y024428D03*
X017654Y024428D03*
X017654Y024113D03*
X017654Y023798D03*
X017654Y023483D03*
X017969Y023483D03*
X018284Y023483D03*
X018599Y023483D03*
X018599Y023168D03*
X018914Y023168D03*
X018914Y022853D03*
X019229Y022853D03*
X019544Y022853D03*
X019859Y022853D03*
X020174Y022853D03*
X020174Y023168D03*
X019859Y023168D03*
X019544Y023168D03*
X019229Y023168D03*
X019229Y023483D03*
X019544Y023483D03*
X019859Y023483D03*
X020174Y023483D03*
X020174Y023798D03*
X020174Y024113D03*
X020174Y024428D03*
X020174Y024743D03*
X020174Y025058D03*
X020174Y025373D03*
X020174Y025688D03*
X019859Y025688D03*
X019859Y025373D03*
X019859Y025058D03*
X019859Y024743D03*
X019859Y024428D03*
X019859Y024113D03*
X019859Y023798D03*
X019544Y023798D03*
X019229Y023798D03*
X018914Y023798D03*
X018914Y023483D03*
X018599Y023798D03*
X018284Y023798D03*
X017969Y023798D03*
X017969Y024113D03*
X017969Y024428D03*
X017969Y024743D03*
X017654Y024743D03*
X017654Y025058D03*
X017654Y025373D03*
X017654Y025688D03*
X017969Y025688D03*
X017969Y025373D03*
X017969Y025058D03*
X018284Y025058D03*
X018284Y025373D03*
X018284Y025688D03*
X018599Y025688D03*
X018914Y025688D03*
X019229Y025688D03*
X019544Y025688D03*
X019544Y025373D03*
X019544Y025058D03*
X019544Y024743D03*
X019544Y024428D03*
X019544Y024113D03*
X019229Y024113D03*
X018914Y024113D03*
X018599Y024113D03*
X018284Y024113D03*
X018284Y024428D03*
X018284Y024743D03*
X018599Y024743D03*
X018599Y024428D03*
X018914Y024428D03*
X019229Y024428D03*
X019229Y024743D03*
X019229Y025058D03*
X019229Y025373D03*
X018914Y025373D03*
X018599Y025373D03*
X018599Y025058D03*
X018914Y025058D03*
X018914Y024743D03*
X020410Y025924D03*
X023009Y026042D03*
X023323Y026042D03*
X023323Y025727D03*
X023009Y025727D03*
X023009Y025412D03*
X023323Y025412D03*
X023638Y025412D03*
X023638Y025727D03*
X023638Y026042D03*
X023953Y026042D03*
X023953Y025727D03*
X023953Y025412D03*
X024268Y025412D03*
X024268Y025727D03*
X024268Y026042D03*
X024583Y026042D03*
X024583Y025727D03*
X024583Y025412D03*
X024898Y025412D03*
X024898Y025727D03*
X024898Y026042D03*
X025213Y026042D03*
X025213Y025727D03*
X025213Y025412D03*
X025528Y025412D03*
X025843Y025412D03*
X026158Y025412D03*
X026473Y025412D03*
X026788Y025412D03*
X026788Y025727D03*
X026473Y025727D03*
X026158Y025727D03*
X025843Y025727D03*
X025528Y025727D03*
X025528Y026042D03*
X025843Y026042D03*
X026158Y026042D03*
X026473Y026042D03*
X026788Y026042D03*
X026788Y027302D03*
X026473Y027302D03*
X026158Y027302D03*
X025843Y027302D03*
X025528Y027302D03*
X025213Y027302D03*
X024898Y027302D03*
X024583Y027302D03*
X024268Y027302D03*
X023953Y027302D03*
X023638Y027302D03*
X023323Y027302D03*
X023009Y027302D03*
X023009Y027617D03*
X023323Y027617D03*
X023323Y027932D03*
X023009Y027932D03*
X023638Y027932D03*
X023638Y027617D03*
X023953Y027617D03*
X023953Y027932D03*
X024268Y027932D03*
X024268Y027617D03*
X024583Y027617D03*
X024583Y027932D03*
X024898Y027932D03*
X024898Y027617D03*
X025213Y027617D03*
X025213Y027932D03*
X025528Y027932D03*
X025528Y027617D03*
X025843Y027617D03*
X025843Y027932D03*
X026158Y027932D03*
X026158Y027617D03*
X026473Y027617D03*
X026473Y027932D03*
X026788Y027932D03*
X026788Y027617D03*
X026788Y020924D03*
X026788Y020609D03*
X026788Y020294D03*
X026473Y020294D03*
X026158Y020294D03*
X025843Y020294D03*
X025528Y020294D03*
X025213Y020294D03*
X024898Y020294D03*
X024583Y020294D03*
X024268Y020294D03*
X023953Y020294D03*
X023638Y020294D03*
X023323Y020294D03*
X023009Y020294D03*
X023009Y020609D03*
X023323Y020609D03*
X023323Y020924D03*
X023009Y020924D03*
X023638Y020924D03*
X023638Y020609D03*
X023953Y020609D03*
X023953Y020924D03*
X024268Y020924D03*
X024268Y020609D03*
X024583Y020609D03*
X024583Y020924D03*
X024898Y020924D03*
X024898Y020609D03*
X025213Y020609D03*
X025213Y020924D03*
X025528Y020924D03*
X025528Y020609D03*
X025843Y020609D03*
X025843Y020924D03*
X026158Y020924D03*
X026158Y020609D03*
X026473Y020609D03*
X026473Y020924D03*
X026473Y019034D03*
X026473Y018719D03*
X026473Y018404D03*
X026158Y018404D03*
X025843Y018404D03*
X025528Y018404D03*
X025213Y018404D03*
X024898Y018404D03*
X024583Y018404D03*
X024268Y018404D03*
X023953Y018404D03*
X023638Y018404D03*
X023323Y018404D03*
X023009Y018404D03*
X023009Y018719D03*
X023323Y018719D03*
X023323Y019034D03*
X023009Y019034D03*
X023638Y019034D03*
X023638Y018719D03*
X023953Y018719D03*
X023953Y019034D03*
X024268Y019034D03*
X024268Y018719D03*
X024583Y018719D03*
X024898Y018719D03*
X025213Y018719D03*
X025528Y018719D03*
X025843Y018719D03*
X026158Y018719D03*
X026158Y019034D03*
X025843Y019034D03*
X025528Y019034D03*
X025213Y019034D03*
X024898Y019034D03*
X024583Y019034D03*
X026788Y019034D03*
X026788Y018719D03*
X026788Y018404D03*
X014898Y025924D03*
D52*
X029046Y015402D03*
X031408Y015402D03*
X031408Y009402D03*
X029046Y009402D03*
D53*
X028928Y011489D03*
X031487Y013316D03*
X028928Y017489D03*
X031487Y007316D03*
D54*
X030266Y007316D03*
X029046Y007316D03*
X030660Y011489D03*
X030266Y013316D03*
X029046Y013316D03*
X030660Y017489D03*
D55*
X027103Y018168D03*
X022694Y021160D03*
X027103Y025176D03*
X022694Y028168D03*
D56*
X012608Y028452D03*
X012608Y027652D03*
X011808Y027652D03*
X011008Y027652D03*
X011008Y028452D03*
X011808Y028452D03*
D57*
X006908Y019902D03*
X006908Y018902D03*
X006908Y017902D03*
X006908Y016902D03*
D58*
X007719Y008995D03*
X007719Y008877D03*
X007719Y008759D03*
X007719Y008641D03*
X007719Y008523D03*
X007719Y008404D03*
X007719Y008286D03*
X007719Y008168D03*
X008368Y006771D03*
X008447Y006771D03*
X008565Y006771D03*
X008683Y006771D03*
X008801Y006771D03*
X008920Y006771D03*
X009038Y006771D03*
X009156Y006771D03*
X009234Y006771D03*
X010081Y008050D03*
X010081Y008168D03*
X010081Y008286D03*
X010081Y008404D03*
X010081Y008523D03*
X010081Y008641D03*
X010081Y008759D03*
X010081Y008877D03*
X010081Y008995D03*
D59*
X010344Y023152D03*
X008572Y023152D03*
D60*
X009458Y022798D03*
X009458Y023507D03*
D61*
X015508Y026202D03*
X015908Y026202D03*
M02*
