G75*
G70*
%OFA0B0*%
%FSLAX24Y24*%
%IPPOS*%
%LPD*%
%AMOC8*
5,1,8,0,0,1.08239X$1,22.5*
%
%ADD10C,0.0100*%
%ADD11C,0.0000*%
D10*
X004152Y002157D02*
X029152Y002157D01*
X029152Y042157D01*
X004152Y042157D01*
X004152Y002157D01*
D11*
X008222Y006457D02*
X008225Y006514D01*
X008232Y006571D01*
X008245Y006627D01*
X008263Y006681D01*
X008286Y006734D01*
X008314Y006784D01*
X008346Y006832D01*
X008382Y006876D01*
X008422Y006917D01*
X008466Y006955D01*
X008512Y006988D01*
X008562Y007016D01*
X008614Y007040D01*
X008668Y007060D01*
X008724Y007074D01*
X008780Y007083D01*
X008838Y007087D01*
X008895Y007086D01*
X008952Y007079D01*
X009008Y007067D01*
X009063Y007051D01*
X009116Y007029D01*
X009167Y007003D01*
X009215Y006972D01*
X009261Y006937D01*
X009303Y006897D01*
X009341Y006855D01*
X009375Y006808D01*
X009405Y006759D01*
X009430Y006708D01*
X009450Y006654D01*
X009466Y006599D01*
X009476Y006543D01*
X009481Y006486D01*
X009481Y006428D01*
X009476Y006371D01*
X009466Y006315D01*
X009450Y006260D01*
X009430Y006206D01*
X009405Y006155D01*
X009375Y006106D01*
X009341Y006059D01*
X009303Y006017D01*
X009261Y005977D01*
X009215Y005942D01*
X009167Y005911D01*
X009116Y005885D01*
X009063Y005863D01*
X009008Y005847D01*
X008952Y005835D01*
X008895Y005828D01*
X008838Y005827D01*
X008780Y005831D01*
X008724Y005840D01*
X008668Y005854D01*
X008614Y005874D01*
X008562Y005898D01*
X008512Y005926D01*
X008466Y005959D01*
X008422Y005997D01*
X008382Y006038D01*
X008346Y006082D01*
X008314Y006130D01*
X008286Y006180D01*
X008263Y006233D01*
X008245Y006287D01*
X008232Y006343D01*
X008225Y006400D01*
X008222Y006457D01*
X012722Y006457D02*
X012725Y006514D01*
X012732Y006571D01*
X012745Y006627D01*
X012763Y006681D01*
X012786Y006734D01*
X012814Y006784D01*
X012846Y006832D01*
X012882Y006876D01*
X012922Y006917D01*
X012966Y006955D01*
X013012Y006988D01*
X013062Y007016D01*
X013114Y007040D01*
X013168Y007060D01*
X013224Y007074D01*
X013280Y007083D01*
X013338Y007087D01*
X013395Y007086D01*
X013452Y007079D01*
X013508Y007067D01*
X013563Y007051D01*
X013616Y007029D01*
X013667Y007003D01*
X013715Y006972D01*
X013761Y006937D01*
X013803Y006897D01*
X013841Y006855D01*
X013875Y006808D01*
X013905Y006759D01*
X013930Y006708D01*
X013950Y006654D01*
X013966Y006599D01*
X013976Y006543D01*
X013981Y006486D01*
X013981Y006428D01*
X013976Y006371D01*
X013966Y006315D01*
X013950Y006260D01*
X013930Y006206D01*
X013905Y006155D01*
X013875Y006106D01*
X013841Y006059D01*
X013803Y006017D01*
X013761Y005977D01*
X013715Y005942D01*
X013667Y005911D01*
X013616Y005885D01*
X013563Y005863D01*
X013508Y005847D01*
X013452Y005835D01*
X013395Y005828D01*
X013338Y005827D01*
X013280Y005831D01*
X013224Y005840D01*
X013168Y005854D01*
X013114Y005874D01*
X013062Y005898D01*
X013012Y005926D01*
X012966Y005959D01*
X012922Y005997D01*
X012882Y006038D01*
X012846Y006082D01*
X012814Y006130D01*
X012786Y006180D01*
X012763Y006233D01*
X012745Y006287D01*
X012732Y006343D01*
X012725Y006400D01*
X012722Y006457D01*
X015422Y006457D02*
X015425Y006514D01*
X015432Y006571D01*
X015445Y006627D01*
X015463Y006681D01*
X015486Y006734D01*
X015514Y006784D01*
X015546Y006832D01*
X015582Y006876D01*
X015622Y006917D01*
X015666Y006955D01*
X015712Y006988D01*
X015762Y007016D01*
X015814Y007040D01*
X015868Y007060D01*
X015924Y007074D01*
X015980Y007083D01*
X016038Y007087D01*
X016095Y007086D01*
X016152Y007079D01*
X016208Y007067D01*
X016263Y007051D01*
X016316Y007029D01*
X016367Y007003D01*
X016415Y006972D01*
X016461Y006937D01*
X016503Y006897D01*
X016541Y006855D01*
X016575Y006808D01*
X016605Y006759D01*
X016630Y006708D01*
X016650Y006654D01*
X016666Y006599D01*
X016676Y006543D01*
X016681Y006486D01*
X016681Y006428D01*
X016676Y006371D01*
X016666Y006315D01*
X016650Y006260D01*
X016630Y006206D01*
X016605Y006155D01*
X016575Y006106D01*
X016541Y006059D01*
X016503Y006017D01*
X016461Y005977D01*
X016415Y005942D01*
X016367Y005911D01*
X016316Y005885D01*
X016263Y005863D01*
X016208Y005847D01*
X016152Y005835D01*
X016095Y005828D01*
X016038Y005827D01*
X015980Y005831D01*
X015924Y005840D01*
X015868Y005854D01*
X015814Y005874D01*
X015762Y005898D01*
X015712Y005926D01*
X015666Y005959D01*
X015622Y005997D01*
X015582Y006038D01*
X015546Y006082D01*
X015514Y006130D01*
X015486Y006180D01*
X015463Y006233D01*
X015445Y006287D01*
X015432Y006343D01*
X015425Y006400D01*
X015422Y006457D01*
X019922Y006457D02*
X019925Y006514D01*
X019932Y006571D01*
X019945Y006627D01*
X019963Y006681D01*
X019986Y006734D01*
X020014Y006784D01*
X020046Y006832D01*
X020082Y006876D01*
X020122Y006917D01*
X020166Y006955D01*
X020212Y006988D01*
X020262Y007016D01*
X020314Y007040D01*
X020368Y007060D01*
X020424Y007074D01*
X020480Y007083D01*
X020538Y007087D01*
X020595Y007086D01*
X020652Y007079D01*
X020708Y007067D01*
X020763Y007051D01*
X020816Y007029D01*
X020867Y007003D01*
X020915Y006972D01*
X020961Y006937D01*
X021003Y006897D01*
X021041Y006855D01*
X021075Y006808D01*
X021105Y006759D01*
X021130Y006708D01*
X021150Y006654D01*
X021166Y006599D01*
X021176Y006543D01*
X021181Y006486D01*
X021181Y006428D01*
X021176Y006371D01*
X021166Y006315D01*
X021150Y006260D01*
X021130Y006206D01*
X021105Y006155D01*
X021075Y006106D01*
X021041Y006059D01*
X021003Y006017D01*
X020961Y005977D01*
X020915Y005942D01*
X020867Y005911D01*
X020816Y005885D01*
X020763Y005863D01*
X020708Y005847D01*
X020652Y005835D01*
X020595Y005828D01*
X020538Y005827D01*
X020480Y005831D01*
X020424Y005840D01*
X020368Y005854D01*
X020314Y005874D01*
X020262Y005898D01*
X020212Y005926D01*
X020166Y005959D01*
X020122Y005997D01*
X020082Y006038D01*
X020046Y006082D01*
X020014Y006130D01*
X019986Y006180D01*
X019963Y006233D01*
X019945Y006287D01*
X019932Y006343D01*
X019925Y006400D01*
X019922Y006457D01*
X005976Y020406D02*
X005978Y020434D01*
X005984Y020462D01*
X005994Y020488D01*
X006007Y020513D01*
X006024Y020535D01*
X006044Y020555D01*
X006066Y020572D01*
X006091Y020585D01*
X006117Y020595D01*
X006145Y020601D01*
X006173Y020603D01*
X006201Y020601D01*
X006229Y020595D01*
X006255Y020585D01*
X006280Y020572D01*
X006302Y020555D01*
X006322Y020535D01*
X006339Y020513D01*
X006352Y020488D01*
X006362Y020462D01*
X006368Y020434D01*
X006370Y020406D01*
X006368Y020378D01*
X006362Y020350D01*
X006352Y020324D01*
X006339Y020299D01*
X006322Y020277D01*
X006302Y020257D01*
X006280Y020240D01*
X006255Y020227D01*
X006229Y020217D01*
X006201Y020211D01*
X006173Y020209D01*
X006145Y020211D01*
X006117Y020217D01*
X006091Y020227D01*
X006066Y020240D01*
X006044Y020257D01*
X006024Y020277D01*
X006007Y020299D01*
X005994Y020324D01*
X005984Y020350D01*
X005978Y020378D01*
X005976Y020406D01*
X005976Y023556D02*
X005978Y023584D01*
X005984Y023612D01*
X005994Y023638D01*
X006007Y023663D01*
X006024Y023685D01*
X006044Y023705D01*
X006066Y023722D01*
X006091Y023735D01*
X006117Y023745D01*
X006145Y023751D01*
X006173Y023753D01*
X006201Y023751D01*
X006229Y023745D01*
X006255Y023735D01*
X006280Y023722D01*
X006302Y023705D01*
X006322Y023685D01*
X006339Y023663D01*
X006352Y023638D01*
X006362Y023612D01*
X006368Y023584D01*
X006370Y023556D01*
X006368Y023528D01*
X006362Y023500D01*
X006352Y023474D01*
X006339Y023449D01*
X006322Y023427D01*
X006302Y023407D01*
X006280Y023390D01*
X006255Y023377D01*
X006229Y023367D01*
X006201Y023361D01*
X006173Y023359D01*
X006145Y023361D01*
X006117Y023367D01*
X006091Y023377D01*
X006066Y023390D01*
X006044Y023407D01*
X006024Y023427D01*
X006007Y023449D01*
X005994Y023474D01*
X005984Y023500D01*
X005978Y023528D01*
X005976Y023556D01*
X005295Y026857D02*
X005297Y026882D01*
X005303Y026907D01*
X005313Y026930D01*
X005326Y026951D01*
X005343Y026970D01*
X005363Y026986D01*
X005385Y026999D01*
X005408Y027008D01*
X005433Y027013D01*
X005458Y027014D01*
X005483Y027011D01*
X005508Y027004D01*
X005530Y026993D01*
X005551Y026979D01*
X005570Y026961D01*
X005585Y026941D01*
X005596Y026919D01*
X005604Y026895D01*
X005608Y026870D01*
X005608Y026844D01*
X005604Y026819D01*
X005596Y026795D01*
X005585Y026773D01*
X005570Y026753D01*
X005551Y026735D01*
X005531Y026721D01*
X005508Y026710D01*
X005483Y026703D01*
X005458Y026700D01*
X005433Y026701D01*
X005408Y026706D01*
X005385Y026715D01*
X005363Y026728D01*
X005343Y026744D01*
X005326Y026763D01*
X005313Y026784D01*
X005303Y026807D01*
X005297Y026832D01*
X005295Y026857D01*
X004245Y026857D02*
X004247Y026882D01*
X004253Y026907D01*
X004263Y026930D01*
X004276Y026951D01*
X004293Y026970D01*
X004313Y026986D01*
X004335Y026999D01*
X004358Y027008D01*
X004383Y027013D01*
X004408Y027014D01*
X004433Y027011D01*
X004458Y027004D01*
X004480Y026993D01*
X004501Y026979D01*
X004520Y026961D01*
X004535Y026941D01*
X004546Y026919D01*
X004554Y026895D01*
X004558Y026870D01*
X004558Y026844D01*
X004554Y026819D01*
X004546Y026795D01*
X004535Y026773D01*
X004520Y026753D01*
X004501Y026735D01*
X004481Y026721D01*
X004458Y026710D01*
X004433Y026703D01*
X004408Y026700D01*
X004383Y026701D01*
X004358Y026706D01*
X004335Y026715D01*
X004313Y026728D01*
X004293Y026744D01*
X004276Y026763D01*
X004263Y026784D01*
X004253Y026807D01*
X004247Y026832D01*
X004245Y026857D01*
M02*
