G75*
G70*
%OFA0B0*%
%FSLAX24Y24*%
%IPPOS*%
%LPD*%
%AMOC8*
5,1,8,0,0,1.08239X$1,22.5*
%
%ADD10C,0.0160*%
%ADD11C,0.0120*%
%ADD12C,0.0080*%
%ADD13C,0.0070*%
%ADD14C,0.0060*%
%ADD15C,0.0100*%
%ADD16C,0.0240*%
%ADD17C,0.0220*%
%ADD18C,0.0260*%
%ADD19C,0.0140*%
%ADD20C,0.0050*%
%ADD21R,0.0197X0.0709*%
%ADD22C,0.0079*%
%ADD23R,0.0150X0.1300*%
%ADD24C,0.0020*%
%ADD25C,0.0090*%
D10*
X023482Y013187D02*
X023482Y013507D01*
X023589Y013614D01*
X023802Y013614D01*
X023909Y013507D01*
X023909Y013187D01*
X023909Y013400D02*
X024122Y013614D01*
X024122Y013187D02*
X023482Y013187D01*
X023482Y013923D02*
X023482Y014350D01*
X023482Y014137D02*
X024122Y014137D01*
X024016Y014660D02*
X024122Y014767D01*
X024122Y014980D01*
X024016Y015087D01*
X023802Y015087D01*
X023695Y014980D01*
X023695Y014874D01*
X023802Y014660D01*
X023482Y014660D01*
X023482Y015087D01*
X023589Y015397D02*
X023482Y015503D01*
X023482Y015717D01*
X023589Y015824D01*
X023695Y015824D01*
X023802Y015717D01*
X023909Y015824D01*
X024016Y015824D01*
X024122Y015717D01*
X024122Y015503D01*
X024016Y015397D01*
X023802Y015610D02*
X023802Y015717D01*
X023802Y016133D02*
X023695Y016347D01*
X023695Y016454D01*
X023802Y016560D01*
X024016Y016560D01*
X024122Y016454D01*
X024122Y016240D01*
X024016Y016133D01*
X023802Y016133D02*
X023482Y016133D01*
X023482Y016560D01*
X023589Y016870D02*
X023482Y016977D01*
X023482Y017190D01*
X023589Y017297D01*
X024016Y016870D01*
X024122Y016977D01*
X024122Y017190D01*
X024016Y017297D01*
X023589Y017297D01*
X023482Y017607D02*
X023482Y018034D01*
X023802Y017820D02*
X023802Y017607D01*
X024122Y017607D02*
X023482Y017607D01*
X023802Y018343D02*
X023802Y018770D01*
X023589Y019080D02*
X023482Y019186D01*
X023482Y019400D01*
X023589Y019507D01*
X024016Y019507D01*
X024122Y019400D01*
X024122Y019186D01*
X024016Y019080D01*
X023589Y019080D01*
X023482Y019816D02*
X024122Y019816D01*
X024122Y020243D01*
X024122Y020553D02*
X024122Y020766D01*
X024122Y020660D02*
X023695Y020660D01*
X023695Y020553D01*
X023482Y020660D02*
X023375Y020660D01*
X023695Y021044D02*
X023695Y021364D01*
X023802Y021471D01*
X024122Y021471D01*
X024016Y021781D02*
X023695Y021781D01*
X024016Y021781D02*
X024122Y021887D01*
X024122Y022208D01*
X023695Y022208D01*
X023482Y022517D02*
X024122Y022944D01*
X024122Y023254D02*
X024122Y023467D01*
X024122Y023361D02*
X023695Y023361D01*
X023695Y023254D01*
X023482Y023361D02*
X023375Y023361D01*
X023482Y022944D02*
X024122Y022517D01*
X024122Y023745D02*
X023695Y023745D01*
X023695Y024065D01*
X023802Y024172D01*
X024122Y024172D01*
X024016Y024482D02*
X023802Y024482D01*
X023695Y024588D01*
X023695Y024802D01*
X023802Y024909D01*
X024016Y024909D01*
X024122Y024802D01*
X024122Y024588D01*
X024016Y024482D01*
X023802Y025218D02*
X023802Y025645D01*
X023802Y025955D02*
X023802Y026168D01*
X023482Y026382D02*
X023482Y025955D01*
X024122Y025955D01*
X024122Y026382D01*
X023909Y026691D02*
X024122Y026905D01*
X023909Y027118D01*
X023482Y027118D01*
X023482Y027428D02*
X023482Y027748D01*
X023589Y027855D01*
X023695Y027855D01*
X023802Y027748D01*
X023802Y027428D01*
X024122Y027428D02*
X023482Y027428D01*
X023802Y027748D02*
X023909Y027855D01*
X024016Y027855D01*
X024122Y027748D01*
X024122Y027428D01*
X023909Y026691D02*
X023482Y026691D01*
X023695Y021044D02*
X024122Y021044D01*
X024016Y016870D02*
X023589Y016870D01*
D11*
X024722Y016872D02*
X025042Y017032D01*
X024722Y017192D01*
X024962Y017424D02*
X024962Y017504D01*
X025042Y017504D01*
X025042Y017424D01*
X024962Y017424D01*
X024962Y017700D02*
X024642Y017700D01*
X024562Y017780D01*
X024562Y017941D01*
X024642Y018021D01*
X024962Y018021D02*
X025042Y017941D01*
X025042Y017780D01*
X024962Y017700D01*
X024882Y016640D02*
X024802Y016640D01*
X024722Y016559D01*
X024722Y016399D01*
X024802Y016319D01*
X024962Y016319D01*
X025042Y016399D01*
X025042Y016559D01*
X024882Y016640D02*
X024882Y016319D01*
X024802Y016087D02*
X024882Y016007D01*
X024882Y015767D01*
X024882Y015927D02*
X025042Y016087D01*
X024802Y016087D02*
X024642Y016087D01*
X024562Y016007D01*
X024562Y015767D01*
X025042Y015767D01*
X024882Y019067D02*
X024722Y019067D01*
X024562Y019227D01*
X024642Y019435D02*
X024962Y019435D01*
X025042Y019515D01*
X025042Y019675D01*
X024962Y019755D01*
X025042Y019988D02*
X024882Y020148D01*
X024722Y020148D01*
X024562Y019988D01*
X024642Y019755D02*
X024562Y019675D01*
X024562Y019515D01*
X024642Y019435D01*
X024882Y019067D02*
X025042Y019227D01*
X025042Y020908D02*
X024722Y021229D01*
X024642Y021229D01*
X024562Y021149D01*
X024562Y020988D01*
X024642Y020908D01*
X025042Y020908D02*
X025042Y021229D01*
X024962Y021461D02*
X024642Y021461D01*
X024562Y021541D01*
X024562Y021701D01*
X024642Y021781D01*
X024962Y021461D01*
X025042Y021541D01*
X025042Y021701D01*
X024962Y021781D01*
X024642Y021781D01*
X024722Y022013D02*
X024562Y022173D01*
X025042Y022173D01*
X025042Y022013D02*
X025042Y022333D01*
X024962Y022566D02*
X024882Y022566D01*
X024802Y022646D01*
X024802Y022806D01*
X024882Y022886D01*
X024962Y022886D01*
X025042Y022806D01*
X025042Y022646D01*
X024962Y022566D01*
X024802Y022646D02*
X024722Y022566D01*
X024642Y022566D01*
X024562Y022646D01*
X024562Y022806D01*
X024642Y022886D01*
X024722Y022886D01*
X024802Y022806D01*
X014683Y018177D02*
X014685Y018200D01*
X014691Y018223D01*
X014701Y018245D01*
X014714Y018264D01*
X014730Y018281D01*
X014749Y018295D01*
X014770Y018306D01*
X014793Y018313D01*
X014816Y018316D01*
X014840Y018315D01*
X014863Y018310D01*
X014885Y018301D01*
X014905Y018289D01*
X014922Y018273D01*
X014937Y018255D01*
X014949Y018234D01*
X014957Y018212D01*
X014960Y018189D01*
X014960Y018165D01*
X014957Y018142D01*
X014949Y018120D01*
X014937Y018099D01*
X014922Y018081D01*
X014905Y018065D01*
X014885Y018053D01*
X014863Y018044D01*
X014840Y018039D01*
X014816Y018038D01*
X014793Y018041D01*
X014770Y018048D01*
X014749Y018059D01*
X014730Y018073D01*
X014714Y018090D01*
X014701Y018109D01*
X014691Y018131D01*
X014685Y018154D01*
X014683Y018177D01*
D12*
X014706Y019397D02*
X014599Y019504D01*
X014653Y019504D02*
X014492Y019504D01*
X014492Y019397D02*
X014492Y019717D01*
X014653Y019717D01*
X014706Y019664D01*
X014706Y019557D01*
X014653Y019504D01*
X014861Y019504D02*
X014914Y019557D01*
X015021Y019557D01*
X015074Y019504D01*
X015074Y019450D01*
X015021Y019397D01*
X014914Y019397D01*
X014861Y019450D01*
X014861Y019504D01*
X014914Y019557D02*
X014861Y019610D01*
X014861Y019664D01*
X014914Y019717D01*
X015021Y019717D01*
X015074Y019664D01*
X015074Y019610D01*
X015021Y019557D01*
X015021Y019997D02*
X015074Y020050D01*
X015074Y020264D01*
X015021Y020317D01*
X014914Y020317D01*
X014861Y020264D01*
X014861Y020210D01*
X014914Y020157D01*
X015074Y020157D01*
X015021Y019997D02*
X014914Y019997D01*
X014861Y020050D01*
X014706Y019997D02*
X014599Y020104D01*
X014653Y020104D02*
X014492Y020104D01*
X014492Y019997D02*
X014492Y020317D01*
X014653Y020317D01*
X014706Y020264D01*
X014706Y020157D01*
X014653Y020104D01*
X014711Y021347D02*
X014924Y021347D01*
X014817Y021347D02*
X014817Y021667D01*
X014711Y021560D01*
X014556Y021347D02*
X014342Y021347D01*
X014342Y021667D01*
X013943Y023697D02*
X013729Y023697D01*
X013836Y023697D02*
X013836Y024017D01*
X013729Y023910D01*
X013574Y024017D02*
X013574Y023697D01*
X013361Y023697D02*
X013361Y024017D01*
X013467Y023910D01*
X013574Y024017D01*
X013206Y023964D02*
X013206Y023857D01*
X013153Y023804D01*
X012992Y023804D01*
X013099Y023804D02*
X013206Y023697D01*
X012992Y023697D02*
X012992Y024017D01*
X013153Y024017D01*
X013206Y023964D01*
X012243Y023954D02*
X012243Y023900D01*
X012189Y023847D01*
X012082Y023847D01*
X012029Y023900D01*
X012029Y023954D01*
X012082Y024007D01*
X012189Y024007D01*
X012243Y023954D01*
X012189Y024007D02*
X012243Y024060D01*
X012243Y024114D01*
X012189Y024167D01*
X012082Y024167D01*
X012029Y024114D01*
X012029Y024060D01*
X012082Y024007D01*
X011874Y023847D02*
X011661Y023847D01*
X011767Y023847D02*
X011767Y024167D01*
X011661Y024060D01*
X011506Y024007D02*
X011453Y023954D01*
X011292Y023954D01*
X011292Y023847D02*
X011292Y024167D01*
X011453Y024167D01*
X011506Y024114D01*
X011506Y024007D01*
X011399Y023954D02*
X011506Y023847D01*
X011453Y023667D02*
X011506Y023614D01*
X011506Y023507D01*
X011453Y023454D01*
X011292Y023454D01*
X011292Y023347D02*
X011292Y023667D01*
X011453Y023667D01*
X011399Y023454D02*
X011506Y023347D01*
X011661Y023347D02*
X011874Y023347D01*
X011767Y023347D02*
X011767Y023667D01*
X011661Y023560D01*
X012029Y023667D02*
X012243Y023667D01*
X012243Y023614D01*
X012029Y023400D01*
X012029Y023347D01*
X011109Y020947D02*
X010896Y020947D01*
X011109Y020733D01*
X011162Y020787D01*
X011162Y020894D01*
X011109Y020947D01*
X010896Y020947D02*
X010842Y020894D01*
X010842Y020787D01*
X010896Y020733D01*
X011109Y020733D01*
X011162Y020579D02*
X011162Y020365D01*
X011162Y020472D02*
X010842Y020472D01*
X010949Y020365D01*
X010896Y020210D02*
X011002Y020210D01*
X011056Y020157D01*
X011056Y019997D01*
X011162Y019997D02*
X010842Y019997D01*
X010842Y020157D01*
X010896Y020210D01*
X011056Y020104D02*
X011162Y020210D01*
X011592Y020447D02*
X011592Y020767D01*
X011753Y020767D01*
X011806Y020714D01*
X011806Y020607D01*
X011753Y020554D01*
X011592Y020554D01*
X011699Y020554D02*
X011806Y020447D01*
X011961Y020447D02*
X012174Y020447D01*
X012067Y020447D02*
X012067Y020767D01*
X011961Y020660D01*
X012329Y020714D02*
X012382Y020767D01*
X012489Y020767D01*
X012543Y020714D01*
X012543Y020660D01*
X012329Y020447D01*
X012543Y020447D01*
X012646Y017917D02*
X012592Y017864D01*
X012592Y017650D01*
X012646Y017597D01*
X012753Y017597D01*
X012806Y017650D01*
X012961Y017597D02*
X013174Y017597D01*
X013067Y017597D02*
X013067Y017917D01*
X012961Y017810D01*
X012806Y017864D02*
X012753Y017917D01*
X012646Y017917D01*
X013329Y017917D02*
X013543Y017917D01*
X013543Y017864D01*
X013329Y017650D01*
X013329Y017597D01*
X014492Y016717D02*
X014492Y016397D01*
X014492Y016557D02*
X014546Y016610D01*
X014653Y016610D01*
X014706Y016557D01*
X014706Y016397D01*
X014914Y016450D02*
X014914Y016664D01*
X014861Y016610D02*
X014967Y016610D01*
X015106Y016610D02*
X015213Y016610D01*
X015160Y016664D02*
X015160Y016450D01*
X015213Y016397D01*
X015352Y016397D02*
X015512Y016397D01*
X015565Y016450D01*
X015565Y016557D01*
X015512Y016610D01*
X015352Y016610D01*
X015352Y016290D01*
X015720Y016397D02*
X015880Y016397D01*
X015934Y016450D01*
X015880Y016504D01*
X015773Y016504D01*
X015720Y016557D01*
X015773Y016610D01*
X015934Y016610D01*
X016088Y016610D02*
X016088Y016557D01*
X016142Y016557D01*
X016142Y016610D01*
X016088Y016610D01*
X016088Y016450D02*
X016088Y016397D01*
X016142Y016397D01*
X016142Y016450D01*
X016088Y016450D01*
X016273Y016397D02*
X016486Y016717D01*
X016641Y016397D02*
X016854Y016717D01*
X017009Y016610D02*
X017009Y016450D01*
X017062Y016397D01*
X017116Y016450D01*
X017169Y016397D01*
X017223Y016450D01*
X017223Y016610D01*
X017377Y016610D02*
X017377Y016450D01*
X017431Y016397D01*
X017484Y016450D01*
X017538Y016397D01*
X017591Y016450D01*
X017591Y016610D01*
X017746Y016610D02*
X017746Y016450D01*
X017799Y016397D01*
X017852Y016450D01*
X017906Y016397D01*
X017959Y016450D01*
X017959Y016610D01*
X018114Y016450D02*
X018167Y016450D01*
X018167Y016397D01*
X018114Y016397D01*
X018114Y016450D01*
X018298Y016450D02*
X018352Y016397D01*
X018458Y016397D01*
X018512Y016450D01*
X018512Y016557D01*
X018458Y016610D01*
X018352Y016610D01*
X018298Y016557D01*
X018298Y016450D01*
X018666Y016397D02*
X018773Y016397D01*
X018720Y016397D02*
X018720Y016717D01*
X018666Y016717D01*
X018912Y016610D02*
X018965Y016610D01*
X018965Y016397D01*
X018912Y016397D02*
X019019Y016397D01*
X019158Y016397D02*
X019158Y016610D01*
X019211Y016610D01*
X019264Y016557D01*
X019318Y016610D01*
X019371Y016557D01*
X019371Y016397D01*
X019264Y016397D02*
X019264Y016557D01*
X019526Y016557D02*
X019579Y016610D01*
X019686Y016610D01*
X019739Y016557D01*
X019739Y016504D01*
X019526Y016504D01*
X019526Y016557D02*
X019526Y016450D01*
X019579Y016397D01*
X019686Y016397D01*
X019894Y016397D02*
X020108Y016610D01*
X020108Y016397D02*
X019894Y016610D01*
X020262Y016450D02*
X020316Y016450D01*
X020316Y016397D01*
X020262Y016397D01*
X020262Y016450D01*
X020447Y016450D02*
X020500Y016397D01*
X020660Y016397D01*
X020815Y016450D02*
X020868Y016397D01*
X020975Y016397D01*
X021028Y016450D01*
X021028Y016557D01*
X020975Y016610D01*
X020868Y016610D01*
X020815Y016557D01*
X020815Y016450D01*
X020660Y016610D02*
X020500Y016610D01*
X020447Y016557D01*
X020447Y016450D01*
X021183Y016397D02*
X021183Y016610D01*
X021237Y016610D01*
X021290Y016557D01*
X021343Y016610D01*
X021397Y016557D01*
X021397Y016397D01*
X021290Y016397D02*
X021290Y016557D01*
X021093Y015567D02*
X020879Y015567D01*
X020724Y015514D02*
X020724Y015460D01*
X020671Y015407D01*
X020564Y015407D01*
X020511Y015460D01*
X020511Y015514D01*
X020564Y015567D01*
X020671Y015567D01*
X020724Y015514D01*
X020671Y015407D02*
X020724Y015354D01*
X020724Y015300D01*
X020671Y015247D01*
X020564Y015247D01*
X020511Y015300D01*
X020511Y015354D01*
X020564Y015407D01*
X020356Y015514D02*
X020303Y015567D01*
X020196Y015567D01*
X020142Y015514D01*
X020142Y015300D01*
X020196Y015247D01*
X020303Y015247D01*
X020356Y015300D01*
X020879Y015300D02*
X020879Y015247D01*
X020879Y015300D02*
X021093Y015514D01*
X021093Y015567D01*
X021039Y014567D02*
X020932Y014567D01*
X020879Y014514D01*
X020879Y014460D01*
X020932Y014407D01*
X021039Y014407D01*
X021093Y014354D01*
X021093Y014300D01*
X021039Y014247D01*
X020932Y014247D01*
X020879Y014300D01*
X020879Y014354D01*
X020932Y014407D01*
X021039Y014407D02*
X021093Y014460D01*
X021093Y014514D01*
X021039Y014567D01*
X020724Y014514D02*
X020724Y014460D01*
X020671Y014407D01*
X020564Y014407D01*
X020511Y014460D01*
X020511Y014514D01*
X020564Y014567D01*
X020671Y014567D01*
X020724Y014514D01*
X020671Y014407D02*
X020724Y014354D01*
X020724Y014300D01*
X020671Y014247D01*
X020564Y014247D01*
X020511Y014300D01*
X020511Y014354D01*
X020564Y014407D01*
X020356Y014514D02*
X020303Y014567D01*
X020196Y014567D01*
X020142Y014514D01*
X020142Y014300D01*
X020196Y014247D01*
X020303Y014247D01*
X020356Y014300D01*
X020842Y013944D02*
X021002Y013783D01*
X021002Y013997D01*
X021162Y013944D02*
X020842Y013944D01*
X020842Y013522D02*
X021162Y013522D01*
X021162Y013415D02*
X021162Y013629D01*
X020949Y013415D02*
X020842Y013522D01*
X020896Y013260D02*
X020842Y013207D01*
X020842Y013100D01*
X020896Y013047D01*
X021109Y013047D01*
X021162Y013100D01*
X021162Y013207D01*
X021109Y013260D01*
X021642Y011754D02*
X021962Y011754D01*
X021962Y011860D02*
X021962Y011647D01*
X021749Y011647D02*
X021642Y011754D01*
X021909Y010617D02*
X021856Y010564D01*
X021856Y010350D01*
X021909Y010297D01*
X022016Y010297D01*
X022069Y010350D01*
X022224Y010297D02*
X022438Y010510D01*
X022438Y010564D01*
X022384Y010617D01*
X022277Y010617D01*
X022224Y010564D01*
X022069Y010564D02*
X022016Y010617D01*
X021909Y010617D01*
X022224Y010297D02*
X022438Y010297D01*
X022756Y010350D02*
X022809Y010297D01*
X022916Y010297D01*
X022969Y010350D01*
X023124Y010297D02*
X023338Y010297D01*
X023231Y010297D02*
X023231Y010617D01*
X023124Y010510D01*
X022969Y010564D02*
X022916Y010617D01*
X022809Y010617D01*
X022756Y010564D01*
X022756Y010350D01*
X022807Y008895D02*
X022807Y008682D01*
X022914Y008788D02*
X022700Y008788D01*
X022700Y008527D02*
X022914Y008527D01*
X022967Y008474D01*
X022967Y008313D01*
X022647Y008313D01*
X022647Y008474D01*
X022700Y008527D01*
X023844Y007805D02*
X023897Y007859D01*
X024111Y007859D01*
X024164Y007805D01*
X024164Y007645D01*
X023844Y007645D01*
X023844Y007805D01*
X024004Y008014D02*
X024004Y008227D01*
X025142Y007294D02*
X025302Y007133D01*
X025302Y007347D01*
X025462Y007294D02*
X025142Y007294D01*
X025196Y006979D02*
X025249Y006979D01*
X025302Y006925D01*
X025302Y006819D01*
X025249Y006765D01*
X025196Y006765D01*
X025142Y006819D01*
X025142Y006925D01*
X025196Y006979D01*
X025302Y006925D02*
X025356Y006979D01*
X025409Y006979D01*
X025462Y006925D01*
X025462Y006819D01*
X025409Y006765D01*
X025356Y006765D01*
X025302Y006819D01*
X025302Y006610D02*
X025356Y006557D01*
X025356Y006397D01*
X025462Y006397D02*
X025142Y006397D01*
X025142Y006557D01*
X025196Y006610D01*
X025302Y006610D01*
X025356Y006504D02*
X025462Y006610D01*
X026152Y007157D02*
X026152Y008857D01*
X026152Y009457D01*
X026152Y009857D01*
X026152Y009457D02*
X026052Y009457D01*
X025852Y009457D01*
X025852Y008857D02*
X026052Y008857D01*
X026152Y008857D01*
X025412Y009300D02*
X025412Y009407D01*
X025359Y009460D01*
X025412Y009615D02*
X025412Y009829D01*
X025412Y009722D02*
X025092Y009722D01*
X025199Y009615D01*
X025146Y009460D02*
X025092Y009407D01*
X025092Y009300D01*
X025146Y009247D01*
X025359Y009247D01*
X025412Y009300D01*
X025359Y009983D02*
X025306Y009983D01*
X025252Y010037D01*
X025252Y010144D01*
X025306Y010197D01*
X025359Y010197D01*
X025412Y010144D01*
X025412Y010037D01*
X025359Y009983D01*
X025252Y010037D02*
X025199Y009983D01*
X025146Y009983D01*
X025092Y010037D01*
X025092Y010144D01*
X025146Y010197D01*
X025199Y010197D01*
X025252Y010144D01*
X024312Y010847D02*
X024312Y011060D01*
X024259Y011215D02*
X024312Y011269D01*
X024312Y011375D01*
X024259Y011429D01*
X024046Y011429D01*
X023992Y011375D01*
X023992Y011269D01*
X024046Y011215D01*
X024099Y011215D01*
X024152Y011269D01*
X024152Y011429D01*
X023992Y010847D02*
X024312Y010847D01*
X023709Y012260D02*
X023496Y012260D01*
X023442Y012314D01*
X023442Y012420D01*
X023496Y012474D01*
X023496Y012629D02*
X023442Y012682D01*
X023442Y012789D01*
X023496Y012842D01*
X023549Y012842D01*
X023602Y012789D01*
X023656Y012842D01*
X023709Y012842D01*
X023762Y012789D01*
X023762Y012682D01*
X023709Y012629D01*
X023602Y012735D02*
X023602Y012789D01*
X023709Y012474D02*
X023762Y012420D01*
X023762Y012314D01*
X023709Y012260D01*
X025142Y012270D02*
X025142Y012164D01*
X025196Y012110D01*
X025409Y012110D01*
X025462Y012164D01*
X025462Y012270D01*
X025409Y012324D01*
X025302Y012479D02*
X025142Y012639D01*
X025462Y012639D01*
X025302Y012692D02*
X025302Y012479D01*
X025196Y012324D02*
X025142Y012270D01*
X025159Y013197D02*
X025212Y013250D01*
X025212Y013357D01*
X025159Y013410D01*
X024892Y013410D01*
X024892Y013565D02*
X025212Y013565D01*
X025212Y013779D01*
X025212Y013933D02*
X024892Y014147D01*
X024892Y014302D02*
X024892Y014515D01*
X024892Y014409D02*
X025212Y014409D01*
X025212Y014147D02*
X024892Y013933D01*
X024892Y013779D02*
X024892Y013565D01*
X025052Y013565D02*
X025052Y013672D01*
X025159Y013197D02*
X024892Y013197D01*
X026152Y014157D02*
X026152Y011457D01*
X026152Y014157D02*
X028652Y014157D01*
X028652Y007157D01*
X026152Y007157D01*
X026198Y005767D02*
X026038Y005767D01*
X026038Y005447D01*
X026038Y005554D02*
X026198Y005554D01*
X026251Y005607D01*
X026251Y005714D01*
X026198Y005767D01*
X026406Y005714D02*
X026406Y005660D01*
X026459Y005607D01*
X026566Y005607D01*
X026619Y005554D01*
X026619Y005500D01*
X026566Y005447D01*
X026459Y005447D01*
X026406Y005500D01*
X026406Y005554D01*
X026459Y005607D01*
X026566Y005607D02*
X026619Y005660D01*
X026619Y005714D01*
X026566Y005767D01*
X026459Y005767D01*
X026406Y005714D01*
X026144Y005554D02*
X026251Y005447D01*
X025912Y005339D02*
X025592Y005339D01*
X025752Y005179D01*
X025752Y005392D01*
X025752Y005024D02*
X025806Y004970D01*
X025806Y004810D01*
X025912Y004810D02*
X025592Y004810D01*
X025592Y004970D01*
X025646Y005024D01*
X025752Y005024D01*
X025806Y004917D02*
X025912Y005024D01*
X026774Y005447D02*
X026988Y005660D01*
X026988Y005714D01*
X026934Y005767D01*
X026827Y005767D01*
X026774Y005714D01*
X026774Y005447D02*
X026988Y005447D01*
X025912Y003742D02*
X025912Y003529D01*
X025699Y003742D01*
X025646Y003742D01*
X025592Y003689D01*
X025592Y003582D01*
X025646Y003529D01*
X025646Y003374D02*
X025752Y003374D01*
X025806Y003320D01*
X025806Y003160D01*
X025912Y003160D02*
X025592Y003160D01*
X025592Y003320D01*
X025646Y003374D01*
X025806Y003267D02*
X025912Y003374D01*
X025889Y002717D02*
X025729Y002717D01*
X025729Y002397D01*
X025889Y002397D01*
X025943Y002450D01*
X025943Y002504D01*
X025889Y002557D01*
X025729Y002557D01*
X025889Y002557D02*
X025943Y002610D01*
X025943Y002664D01*
X025889Y002717D01*
X025574Y002664D02*
X025521Y002717D01*
X025414Y002717D01*
X025361Y002664D01*
X025361Y002610D01*
X025414Y002557D01*
X025521Y002557D01*
X025574Y002504D01*
X025574Y002450D01*
X025521Y002397D01*
X025414Y002397D01*
X025361Y002450D01*
X025206Y002450D02*
X025206Y002717D01*
X024992Y002717D02*
X024992Y002450D01*
X025046Y002397D01*
X025153Y002397D01*
X025206Y002450D01*
X026097Y002344D02*
X026311Y002344D01*
X026466Y002397D02*
X026466Y002717D01*
X026466Y002557D02*
X026679Y002557D01*
X026679Y002717D02*
X026679Y002397D01*
X026834Y002450D02*
X026887Y002397D01*
X026994Y002397D01*
X027047Y002450D01*
X027047Y002664D01*
X026994Y002717D01*
X026887Y002717D01*
X026834Y002664D01*
X026834Y002450D01*
X027202Y002450D02*
X027256Y002397D01*
X027362Y002397D01*
X027416Y002450D01*
X027416Y002504D01*
X027362Y002557D01*
X027256Y002557D01*
X027202Y002610D01*
X027202Y002664D01*
X027256Y002717D01*
X027362Y002717D01*
X027416Y002664D01*
X027571Y002717D02*
X027784Y002717D01*
X027677Y002717D02*
X027677Y002397D01*
X028492Y004692D02*
X028492Y004852D01*
X028546Y004905D01*
X028652Y004905D01*
X028706Y004852D01*
X028706Y004692D01*
X028812Y004692D02*
X028492Y004692D01*
X028706Y004799D02*
X028812Y004905D01*
X028759Y005060D02*
X028706Y005060D01*
X028652Y005114D01*
X028652Y005220D01*
X028706Y005274D01*
X028759Y005274D01*
X028812Y005220D01*
X028812Y005114D01*
X028759Y005060D01*
X028652Y005114D02*
X028599Y005060D01*
X028546Y005060D01*
X028492Y005114D01*
X028492Y005220D01*
X028546Y005274D01*
X028599Y005274D01*
X028652Y005220D01*
X028546Y005429D02*
X028492Y005482D01*
X028492Y005589D01*
X028546Y005642D01*
X028599Y005642D01*
X028652Y005589D01*
X028706Y005642D01*
X028759Y005642D01*
X028812Y005589D01*
X028812Y005482D01*
X028759Y005429D01*
X028652Y005535D02*
X028652Y005589D01*
X020161Y011147D02*
X019947Y011147D01*
X020054Y011147D02*
X020054Y011467D01*
X019947Y011360D01*
X019793Y011467D02*
X019579Y011467D01*
X019686Y011467D02*
X019686Y011147D01*
X019424Y011147D02*
X019211Y011467D01*
X019056Y011467D02*
X018842Y011467D01*
X018842Y011147D01*
X019056Y011147D01*
X019211Y011147D02*
X019424Y011467D01*
X018949Y011307D02*
X018842Y011307D01*
X018261Y011047D02*
X018047Y011047D01*
X018154Y011047D02*
X018154Y011367D01*
X018047Y011260D01*
X017893Y011367D02*
X017893Y011047D01*
X017679Y011367D01*
X017679Y011047D01*
X017524Y011047D02*
X017524Y011260D01*
X017417Y011367D01*
X017311Y011260D01*
X017311Y011047D01*
X017156Y011047D02*
X016942Y011047D01*
X016942Y011367D01*
X017311Y011207D02*
X017524Y011207D01*
X017512Y014447D02*
X017192Y014447D01*
X017192Y014607D01*
X017246Y014660D01*
X017352Y014660D01*
X017406Y014607D01*
X017406Y014447D01*
X017406Y014554D02*
X017512Y014660D01*
X017512Y014815D02*
X017192Y014815D01*
X017299Y014922D01*
X017192Y015029D01*
X017512Y015029D01*
X017459Y015183D02*
X017512Y015237D01*
X017512Y015344D01*
X017459Y015397D01*
X017406Y015397D01*
X017352Y015344D01*
X017352Y015290D01*
X017352Y015344D02*
X017299Y015397D01*
X017246Y015397D01*
X017192Y015344D01*
X017192Y015237D01*
X017246Y015183D01*
X018965Y016717D02*
X018965Y016770D01*
X014967Y016397D02*
X014914Y016450D01*
X012012Y015939D02*
X012012Y015832D01*
X011959Y015779D01*
X011852Y015779D02*
X011799Y015885D01*
X011799Y015939D01*
X011852Y015992D01*
X011959Y015992D01*
X012012Y015939D01*
X011852Y015779D02*
X011692Y015779D01*
X011692Y015992D01*
X011746Y015624D02*
X011692Y015570D01*
X011692Y015410D01*
X012012Y015410D01*
X012012Y015570D01*
X011959Y015624D01*
X011746Y015624D01*
X011271Y015017D02*
X011324Y014964D01*
X011324Y014910D01*
X011111Y014697D01*
X011324Y014697D01*
X011271Y015017D02*
X011164Y015017D01*
X011111Y014964D01*
X010956Y014697D02*
X010742Y014697D01*
X010742Y015017D01*
X010603Y014167D02*
X010496Y014167D01*
X010442Y014114D01*
X010442Y013900D01*
X010496Y013847D01*
X010603Y013847D01*
X010656Y013900D01*
X010811Y013847D02*
X011024Y013847D01*
X010917Y013847D02*
X010917Y014167D01*
X010811Y014060D01*
X010656Y014114D02*
X010603Y014167D01*
X011179Y014060D02*
X011286Y014167D01*
X011286Y013847D01*
X011179Y013847D02*
X011393Y013847D01*
X012241Y011367D02*
X012188Y011314D01*
X012188Y011100D01*
X012241Y011047D01*
X012348Y011047D01*
X012401Y011100D01*
X012556Y011047D02*
X012769Y011047D01*
X012663Y011047D02*
X012663Y011367D01*
X012556Y011260D01*
X012401Y011314D02*
X012348Y011367D01*
X012241Y011367D01*
X012924Y011314D02*
X012977Y011367D01*
X013084Y011367D01*
X013138Y011314D01*
X013138Y011260D01*
X013084Y011207D01*
X013138Y011154D01*
X013138Y011100D01*
X013084Y011047D01*
X012977Y011047D01*
X012924Y011100D01*
X013031Y011207D02*
X013084Y011207D01*
X009511Y011260D02*
X009511Y011314D01*
X009457Y011367D01*
X009351Y011367D01*
X009297Y011314D01*
X009143Y011367D02*
X009143Y011047D01*
X008929Y011367D01*
X008929Y011047D01*
X008774Y011047D02*
X008774Y011260D01*
X008667Y011367D01*
X008561Y011260D01*
X008561Y011047D01*
X008406Y011047D02*
X008192Y011047D01*
X008192Y011367D01*
X008561Y011207D02*
X008774Y011207D01*
X009297Y011047D02*
X009511Y011260D01*
X009511Y011047D02*
X009297Y011047D01*
X007462Y010875D02*
X007462Y010769D01*
X007409Y010715D01*
X007356Y010715D01*
X007302Y010769D01*
X007302Y010875D01*
X007356Y010929D01*
X007409Y010929D01*
X007462Y010875D01*
X007302Y010875D02*
X007249Y010929D01*
X007196Y010929D01*
X007142Y010875D01*
X007142Y010769D01*
X007196Y010715D01*
X007249Y010715D01*
X007302Y010769D01*
X007196Y010560D02*
X007142Y010507D01*
X007142Y010400D01*
X007196Y010347D01*
X007409Y010347D01*
X007462Y010400D01*
X007462Y010507D01*
X007409Y010560D01*
X005338Y008267D02*
X005124Y008267D01*
X005231Y008267D02*
X005231Y007947D01*
X004969Y007947D02*
X004969Y008160D01*
X004863Y008267D01*
X004756Y008160D01*
X004756Y007947D01*
X004756Y008107D02*
X004969Y008107D01*
X004601Y008054D02*
X004601Y008000D01*
X004548Y007947D01*
X004388Y007947D01*
X004388Y008267D01*
X004548Y008267D01*
X004601Y008214D01*
X004601Y008160D01*
X004548Y008107D01*
X004388Y008107D01*
X004548Y008107D02*
X004601Y008054D01*
X004641Y007667D02*
X004588Y007614D01*
X004588Y007400D01*
X004641Y007347D01*
X004748Y007347D01*
X004801Y007400D01*
X004956Y007347D02*
X005169Y007347D01*
X005063Y007347D02*
X005063Y007667D01*
X004956Y007560D01*
X004801Y007614D02*
X004748Y007667D01*
X004641Y007667D01*
X005324Y007667D02*
X005324Y007507D01*
X005431Y007560D01*
X005484Y007560D01*
X005538Y007507D01*
X005538Y007400D01*
X005484Y007347D01*
X005377Y007347D01*
X005324Y007400D01*
X005324Y007667D02*
X005538Y007667D01*
X005152Y016007D02*
X004952Y016157D01*
X005152Y016307D01*
X005152Y016007D01*
X004952Y016007D02*
X004952Y016157D01*
X004952Y016307D01*
X004952Y017507D02*
X004952Y017657D01*
X005152Y017507D01*
X005152Y017807D01*
X004952Y017657D01*
X004952Y017807D01*
X007792Y018197D02*
X007953Y018197D01*
X008006Y018250D01*
X008006Y018464D01*
X007953Y018517D01*
X007792Y018517D01*
X007792Y018197D01*
X008161Y018357D02*
X008321Y018517D01*
X008321Y018197D01*
X008374Y018357D02*
X008161Y018357D01*
X009083Y017767D02*
X009083Y017730D01*
X009083Y017767D02*
X009721Y017767D01*
X009721Y017730D01*
X009721Y017413D02*
X009721Y017375D01*
X009721Y017039D02*
X009721Y017001D01*
X009413Y016843D02*
X009415Y016862D01*
X009421Y016880D01*
X009431Y016896D01*
X009444Y016910D01*
X009460Y016921D01*
X009477Y016928D01*
X009496Y016931D01*
X009515Y016930D01*
X009534Y016925D01*
X009550Y016916D01*
X009565Y016904D01*
X009576Y016888D01*
X009584Y016871D01*
X009588Y016853D01*
X009588Y016833D01*
X009584Y016815D01*
X009576Y016798D01*
X009565Y016782D01*
X009550Y016770D01*
X009534Y016761D01*
X009515Y016756D01*
X009496Y016755D01*
X009477Y016758D01*
X009460Y016765D01*
X009444Y016776D01*
X009431Y016790D01*
X009421Y016806D01*
X009415Y016824D01*
X009413Y016843D01*
X009721Y016684D02*
X009721Y016647D01*
X009083Y016647D01*
X009083Y016684D01*
X009084Y017001D02*
X009084Y017039D01*
X009084Y017375D02*
X009084Y017413D01*
X009785Y016545D02*
X009787Y016558D01*
X009793Y016569D01*
X009803Y016578D01*
X009814Y016583D01*
X009827Y016584D01*
X009840Y016581D01*
X009850Y016574D01*
X009858Y016564D01*
X009862Y016551D01*
X009862Y016539D01*
X009858Y016526D01*
X009850Y016516D01*
X009840Y016509D01*
X009827Y016506D01*
X009814Y016507D01*
X009803Y016512D01*
X009793Y016521D01*
X009787Y016532D01*
X009785Y016545D01*
X009461Y028094D02*
X009247Y028094D01*
X008986Y028147D02*
X008986Y028467D01*
X008879Y028467D02*
X009093Y028467D01*
X008724Y028414D02*
X008671Y028467D01*
X008564Y028467D01*
X008511Y028414D01*
X008511Y028360D01*
X008564Y028307D01*
X008671Y028307D01*
X008724Y028254D01*
X008724Y028200D01*
X008671Y028147D01*
X008564Y028147D01*
X008511Y028200D01*
X008356Y028147D02*
X008249Y028254D01*
X008303Y028254D02*
X008142Y028254D01*
X008142Y028147D02*
X008142Y028467D01*
X008303Y028467D01*
X008356Y028414D01*
X008356Y028307D01*
X008303Y028254D01*
X007729Y028200D02*
X007676Y028147D01*
X007569Y028147D01*
X007516Y028200D01*
X007729Y028414D01*
X007729Y028200D01*
X007516Y028200D02*
X007516Y028414D01*
X007569Y028467D01*
X007676Y028467D01*
X007729Y028414D01*
X007361Y028467D02*
X007147Y028467D01*
X007254Y028467D02*
X007254Y028147D01*
X006993Y028147D02*
X006886Y028254D01*
X006939Y028254D02*
X006779Y028254D01*
X006779Y028147D02*
X006779Y028467D01*
X006939Y028467D01*
X006993Y028414D01*
X006993Y028307D01*
X006939Y028254D01*
X006624Y028307D02*
X006411Y028307D01*
X006411Y028360D02*
X006517Y028467D01*
X006624Y028360D01*
X006624Y028147D01*
X006411Y028147D02*
X006411Y028360D01*
X006256Y028467D02*
X006256Y028200D01*
X006203Y028147D01*
X006096Y028147D01*
X006042Y028200D01*
X006042Y028467D01*
X006051Y030847D02*
X006157Y030847D01*
X006211Y030900D01*
X006211Y031007D01*
X006104Y031007D01*
X005997Y031114D02*
X005997Y030900D01*
X006051Y030847D01*
X005843Y030900D02*
X005843Y031114D01*
X005789Y031167D01*
X005682Y031167D01*
X005629Y031114D01*
X005629Y030900D01*
X005682Y030847D01*
X005789Y030847D01*
X005843Y030900D01*
X005997Y031114D02*
X006051Y031167D01*
X006157Y031167D01*
X006211Y031114D01*
X005474Y031114D02*
X005474Y031007D01*
X005421Y030954D01*
X005261Y030954D01*
X005367Y030954D02*
X005474Y030847D01*
X005261Y030847D02*
X005261Y031167D01*
X005421Y031167D01*
X005474Y031114D01*
X005106Y031114D02*
X005106Y031007D01*
X005053Y030954D01*
X004892Y030954D01*
X004892Y030847D02*
X004892Y031167D01*
X005053Y031167D01*
X005106Y031114D01*
X004556Y030847D02*
X004342Y030847D01*
X004449Y030847D02*
X004449Y031167D01*
X004342Y031060D01*
X008742Y031297D02*
X008903Y031297D01*
X008956Y031350D01*
X008956Y031564D01*
X008903Y031617D01*
X008742Y031617D01*
X008742Y031297D01*
X009111Y031297D02*
X009324Y031510D01*
X009324Y031564D01*
X009271Y031617D01*
X009164Y031617D01*
X009111Y031564D01*
X009111Y031297D02*
X009324Y031297D01*
X010388Y030917D02*
X010548Y030917D01*
X010601Y030864D01*
X010601Y030757D01*
X010548Y030704D01*
X010388Y030704D01*
X010494Y030704D02*
X010601Y030597D01*
X010756Y030650D02*
X010809Y030597D01*
X010916Y030597D01*
X010969Y030650D01*
X010969Y030704D01*
X010916Y030757D01*
X010809Y030757D01*
X010756Y030810D01*
X010756Y030864D01*
X010809Y030917D01*
X010916Y030917D01*
X010969Y030864D01*
X011124Y030917D02*
X011338Y030917D01*
X011231Y030917D02*
X011231Y030597D01*
X011492Y030417D02*
X011653Y030417D01*
X011706Y030364D01*
X011706Y030257D01*
X011653Y030204D01*
X011492Y030204D01*
X011599Y030204D02*
X011706Y030097D01*
X011861Y030097D02*
X011967Y030097D01*
X011914Y030097D02*
X011914Y030417D01*
X011861Y030417D02*
X011967Y030417D01*
X012106Y030417D02*
X012320Y030097D01*
X012320Y030417D01*
X012106Y030417D02*
X012106Y030097D01*
X011492Y030097D02*
X011492Y030417D01*
X011542Y031297D02*
X011542Y031617D01*
X011703Y031617D01*
X011756Y031564D01*
X011756Y031457D01*
X011703Y031404D01*
X011542Y031404D01*
X011649Y031404D02*
X011756Y031297D01*
X011911Y031297D02*
X012124Y031297D01*
X012017Y031297D02*
X012017Y031617D01*
X011911Y031510D01*
X012279Y031510D02*
X012332Y031457D01*
X012493Y031457D01*
X012493Y031564D02*
X012439Y031617D01*
X012332Y031617D01*
X012279Y031564D01*
X012279Y031510D01*
X012279Y031350D02*
X012332Y031297D01*
X012439Y031297D01*
X012493Y031350D01*
X012493Y031564D01*
X012389Y032897D02*
X012282Y032897D01*
X012229Y032950D01*
X012443Y033164D01*
X012443Y032950D01*
X012389Y032897D01*
X012229Y032950D02*
X012229Y033164D01*
X012282Y033217D01*
X012389Y033217D01*
X012443Y033164D01*
X012074Y033164D02*
X012021Y033217D01*
X011914Y033217D01*
X011861Y033164D01*
X011706Y033164D02*
X011706Y033057D01*
X011653Y033004D01*
X011492Y033004D01*
X011599Y033004D02*
X011706Y032897D01*
X011861Y032897D02*
X012074Y033110D01*
X012074Y033164D01*
X012074Y032897D02*
X011861Y032897D01*
X011706Y033164D02*
X011653Y033217D01*
X011492Y033217D01*
X011492Y032897D01*
X010388Y030917D02*
X010388Y030597D01*
X010197Y028467D02*
X009984Y028467D01*
X010091Y028467D02*
X010091Y028147D01*
X009829Y028147D02*
X009722Y028254D01*
X009776Y028254D02*
X009616Y028254D01*
X009616Y028147D02*
X009616Y028467D01*
X009776Y028467D01*
X009829Y028414D01*
X009829Y028307D01*
X009776Y028254D01*
X011788Y028267D02*
X011788Y027947D01*
X011788Y028054D02*
X011948Y028054D01*
X012001Y028107D01*
X012001Y028214D01*
X011948Y028267D01*
X011788Y028267D01*
X011894Y028054D02*
X012001Y027947D01*
X012156Y027947D02*
X012369Y027947D01*
X012263Y027947D02*
X012263Y028267D01*
X012156Y028160D01*
X012524Y028107D02*
X012524Y028267D01*
X012738Y028267D01*
X012684Y028160D02*
X012738Y028107D01*
X012738Y028000D01*
X012684Y027947D01*
X012577Y027947D01*
X012524Y028000D01*
X012524Y028107D02*
X012631Y028160D01*
X012684Y028160D01*
X014006Y028167D02*
X014219Y028167D01*
X014113Y028167D02*
X014113Y027847D01*
X014374Y027847D02*
X014588Y028060D01*
X014588Y028114D01*
X014534Y028167D01*
X014427Y028167D01*
X014374Y028114D01*
X014374Y027847D02*
X014588Y027847D01*
X015956Y027847D02*
X016116Y027847D01*
X016169Y027900D01*
X016169Y028114D01*
X016116Y028167D01*
X015956Y028167D01*
X015956Y027847D01*
X016324Y027900D02*
X016377Y027847D01*
X016484Y027847D01*
X016538Y027900D01*
X016538Y028114D01*
X016484Y028167D01*
X016377Y028167D01*
X016324Y028114D01*
X016324Y028060D01*
X016377Y028007D01*
X016538Y028007D01*
X016952Y029207D02*
X016952Y029357D01*
X017152Y029207D01*
X017152Y029507D01*
X016952Y029357D01*
X016952Y029507D01*
X016889Y029797D02*
X016729Y029797D01*
X016729Y030117D01*
X016889Y030117D01*
X016943Y030064D01*
X016943Y029850D01*
X016889Y029797D01*
X017097Y029797D02*
X017311Y029797D01*
X017204Y029797D02*
X017204Y030117D01*
X017097Y030010D01*
X016574Y030117D02*
X016361Y030117D01*
X016361Y029797D01*
X016574Y029797D01*
X016467Y029957D02*
X016361Y029957D01*
X016206Y029797D02*
X015992Y029797D01*
X015992Y030117D01*
X015674Y030117D02*
X015461Y030117D01*
X015461Y029957D01*
X015567Y030010D01*
X015621Y030010D01*
X015674Y029957D01*
X015674Y029850D01*
X015621Y029797D01*
X015514Y029797D01*
X015461Y029850D01*
X015306Y029797D02*
X015199Y029904D01*
X015253Y029904D02*
X015092Y029904D01*
X015092Y029797D02*
X015092Y030117D01*
X015253Y030117D01*
X015306Y030064D01*
X015306Y029957D01*
X015253Y029904D01*
X017892Y030097D02*
X018053Y030097D01*
X018106Y030150D01*
X018106Y030364D01*
X018053Y030417D01*
X017892Y030417D01*
X017892Y030097D01*
X018261Y030150D02*
X018314Y030097D01*
X018421Y030097D01*
X018474Y030150D01*
X018629Y030097D02*
X018789Y030097D01*
X018843Y030150D01*
X018843Y030364D01*
X018789Y030417D01*
X018629Y030417D01*
X018629Y030097D01*
X018474Y030364D02*
X018421Y030417D01*
X018314Y030417D01*
X018261Y030364D01*
X018261Y030150D01*
X018997Y030044D02*
X019211Y030044D01*
X019366Y030097D02*
X019366Y030417D01*
X019579Y030097D01*
X019579Y030417D01*
X018989Y028217D02*
X019043Y028164D01*
X019043Y028110D01*
X018989Y028057D01*
X019043Y028004D01*
X019043Y027950D01*
X018989Y027897D01*
X018882Y027897D01*
X018829Y027950D01*
X018936Y028057D02*
X018989Y028057D01*
X018989Y028217D02*
X018882Y028217D01*
X018829Y028164D01*
X018567Y028217D02*
X018567Y027897D01*
X018461Y027897D02*
X018674Y027897D01*
X018461Y028110D02*
X018567Y028217D01*
X018306Y028164D02*
X018306Y028057D01*
X018253Y028004D01*
X018092Y028004D01*
X018092Y027897D02*
X018092Y028217D01*
X018253Y028217D01*
X018306Y028164D01*
X018199Y028004D02*
X018306Y027897D01*
X018719Y025467D02*
X018719Y025147D01*
X018933Y025147D01*
X019088Y025147D02*
X019301Y025467D01*
X019456Y025467D02*
X019669Y025467D01*
X019563Y025467D02*
X019563Y025147D01*
X019824Y025147D02*
X020038Y025360D01*
X020038Y025414D01*
X019984Y025467D01*
X019877Y025467D01*
X019824Y025414D01*
X019824Y025147D02*
X020038Y025147D01*
X019301Y025147D02*
X019088Y025467D01*
X018933Y025467D02*
X018719Y025467D01*
X018719Y025307D02*
X018826Y025307D01*
X020463Y027897D02*
X020463Y028217D01*
X020569Y028217D02*
X020356Y028217D01*
X020724Y028110D02*
X020831Y028217D01*
X020831Y027897D01*
X020724Y027897D02*
X020938Y027897D01*
X022092Y029797D02*
X022092Y030117D01*
X022253Y030117D01*
X022306Y030064D01*
X022306Y029957D01*
X022253Y029904D01*
X022092Y029904D01*
X022199Y029904D02*
X022306Y029797D01*
X022461Y029850D02*
X022514Y029797D01*
X022621Y029797D01*
X022674Y029850D01*
X022674Y029904D01*
X022621Y029957D01*
X022461Y029957D01*
X022461Y029850D01*
X022461Y029957D02*
X022567Y030064D01*
X022674Y030117D01*
X023092Y030117D02*
X023092Y029797D01*
X023306Y029797D01*
X023461Y029797D02*
X023674Y029797D01*
X023829Y029797D02*
X023989Y029797D01*
X024043Y029850D01*
X024043Y030064D01*
X023989Y030117D01*
X023829Y030117D01*
X023829Y029797D01*
X023567Y029957D02*
X023461Y029957D01*
X023461Y030117D02*
X023461Y029797D01*
X023452Y029507D02*
X023252Y029357D01*
X023452Y029207D01*
X023452Y029507D01*
X023252Y029507D02*
X023252Y029357D01*
X023252Y029207D01*
X023461Y030117D02*
X023674Y030117D01*
X024197Y030064D02*
X024251Y030117D01*
X024357Y030117D01*
X024411Y030064D01*
X024411Y030010D01*
X024197Y029797D01*
X024411Y029797D01*
X009212Y033224D02*
X009212Y033384D01*
X009159Y033437D01*
X009106Y033437D01*
X009052Y033384D01*
X009052Y033224D01*
X009052Y033384D02*
X008999Y033437D01*
X008946Y033437D01*
X008892Y033384D01*
X008892Y033224D01*
X009212Y033224D01*
X009159Y033592D02*
X008892Y033592D01*
X008892Y033805D02*
X009159Y033805D01*
X009212Y033752D01*
X009212Y033645D01*
X009159Y033592D01*
X008892Y033960D02*
X008892Y034174D01*
X008892Y034067D02*
X009212Y034067D01*
X009052Y034329D02*
X008892Y034489D01*
X009212Y034489D01*
X009052Y034542D02*
X009052Y034329D01*
X007574Y038697D02*
X007361Y038697D01*
X007467Y038697D02*
X007467Y039017D01*
X007361Y038910D01*
X007206Y038857D02*
X007153Y038804D01*
X006992Y038804D01*
X007099Y038804D02*
X007206Y038697D01*
X007206Y038857D02*
X007206Y038964D01*
X007153Y039017D01*
X006992Y039017D01*
X006992Y038697D01*
X007692Y039047D02*
X007692Y039207D01*
X007746Y039260D01*
X007852Y039260D01*
X007906Y039207D01*
X007906Y039047D01*
X008012Y039047D02*
X007692Y039047D01*
X007692Y039415D02*
X008012Y039415D01*
X007906Y039522D01*
X008012Y039629D01*
X007692Y039629D01*
X007692Y039783D02*
X007692Y039944D01*
X007746Y039997D01*
X007852Y039997D01*
X007906Y039944D01*
X007906Y039783D01*
X008012Y039783D02*
X007692Y039783D01*
X007906Y039890D02*
X008012Y039997D01*
X005024Y038964D02*
X005024Y038910D01*
X004971Y038857D01*
X005024Y038804D01*
X005024Y038750D01*
X004971Y038697D01*
X004864Y038697D01*
X004811Y038750D01*
X004917Y038857D02*
X004971Y038857D01*
X005024Y038964D02*
X004971Y039017D01*
X004864Y039017D01*
X004811Y038964D01*
X004656Y038964D02*
X004656Y038857D01*
X004603Y038804D01*
X004442Y038804D01*
X004442Y038697D02*
X004442Y039017D01*
X004603Y039017D01*
X004656Y038964D01*
X004549Y038804D02*
X004656Y038697D01*
D13*
X009337Y041489D02*
X009384Y041442D01*
X009478Y041442D01*
X009524Y041489D01*
X009524Y041582D01*
X009478Y041629D01*
X009431Y041629D01*
X009337Y041582D01*
X009337Y041722D01*
X009524Y041722D01*
X009660Y041722D02*
X009660Y041535D01*
X009753Y041442D01*
X009846Y041535D01*
X009846Y041722D01*
X009982Y041722D02*
X010122Y041722D01*
X010169Y041675D01*
X010169Y041489D01*
X010122Y041442D01*
X009982Y041442D01*
X009982Y041722D01*
X010304Y041675D02*
X010304Y041489D01*
X010351Y041442D01*
X010444Y041442D01*
X010491Y041489D01*
X010491Y041675D02*
X010444Y041722D01*
X010351Y041722D01*
X010304Y041675D01*
X010949Y041675D02*
X010949Y041489D01*
X010995Y041442D01*
X011089Y041442D01*
X011135Y041489D01*
X011135Y041675D01*
X011089Y041722D01*
X010995Y041722D01*
X010949Y041675D01*
X011271Y041629D02*
X011271Y041442D01*
X011271Y041629D02*
X011411Y041629D01*
X011458Y041582D01*
X011458Y041442D01*
X011593Y041442D02*
X011687Y041442D01*
X011640Y041442D02*
X011640Y041722D01*
X011593Y041722D01*
X011808Y041629D02*
X011808Y041489D01*
X011855Y041442D01*
X011995Y041442D01*
X011995Y041395D02*
X011948Y041348D01*
X011901Y041348D01*
X011995Y041395D02*
X011995Y041629D01*
X012130Y041582D02*
X012130Y041769D01*
X012238Y041769D02*
X012238Y041582D01*
X012238Y041489D02*
X012238Y041442D01*
X012345Y041442D02*
X012345Y041489D01*
X012345Y041582D02*
X012345Y041769D01*
X012130Y041489D02*
X012130Y041442D01*
X014917Y023573D02*
X014917Y023386D01*
X014917Y023480D02*
X014637Y023480D01*
X014731Y023386D01*
X014731Y023251D02*
X014684Y023251D01*
X014637Y023204D01*
X014637Y023111D01*
X014684Y023064D01*
X014684Y022929D02*
X014777Y022929D01*
X014824Y022882D01*
X014824Y022742D01*
X014824Y022835D02*
X014917Y022929D01*
X014917Y023064D02*
X014731Y023251D01*
X014917Y023251D02*
X014917Y023064D01*
X014684Y022929D02*
X014637Y022882D01*
X014637Y022742D01*
X014917Y022742D01*
D14*
X004382Y004316D02*
X004426Y004273D01*
X004599Y004273D01*
X004642Y004316D01*
X004642Y004403D01*
X004599Y004446D01*
X004512Y004446D01*
X004512Y004359D01*
X004426Y004446D02*
X004382Y004403D01*
X004382Y004316D01*
X004382Y004567D02*
X004642Y004741D01*
X004382Y004741D01*
X004382Y004862D02*
X004382Y004992D01*
X004426Y005035D01*
X004599Y005035D01*
X004642Y004992D01*
X004642Y004862D01*
X004382Y004862D01*
X004382Y004567D02*
X004642Y004567D01*
X004686Y005156D02*
X004686Y005330D01*
X004642Y005451D02*
X004382Y005451D01*
X004382Y005581D01*
X004426Y005625D01*
X004512Y005625D01*
X004556Y005581D01*
X004556Y005451D01*
X004642Y005746D02*
X004642Y005832D01*
X004642Y005789D02*
X004382Y005789D01*
X004382Y005746D02*
X004382Y005832D01*
X004382Y005942D02*
X004642Y006116D01*
X004382Y006116D01*
X004382Y005942D02*
X004642Y005942D01*
X005299Y005917D02*
X005299Y006177D01*
X005429Y006177D01*
X005472Y006134D01*
X005472Y006047D01*
X005429Y006004D01*
X005299Y006004D01*
X005385Y006004D02*
X005472Y005917D01*
X005593Y005960D02*
X005636Y005917D01*
X005723Y005917D01*
X005767Y005960D01*
X005767Y006047D01*
X005723Y006090D01*
X005680Y006090D01*
X005593Y006047D01*
X005593Y006177D01*
X005767Y006177D01*
X005888Y006047D02*
X006061Y006047D01*
X006018Y006177D02*
X005888Y006047D01*
X006018Y005917D02*
X006018Y006177D01*
X006018Y006567D02*
X005931Y006567D01*
X005888Y006610D01*
X005767Y006610D02*
X005723Y006567D01*
X005636Y006567D01*
X005593Y006610D01*
X005593Y006697D02*
X005680Y006740D01*
X005723Y006740D01*
X005767Y006697D01*
X005767Y006610D01*
X005593Y006697D02*
X005593Y006827D01*
X005767Y006827D01*
X005888Y006784D02*
X005931Y006827D01*
X006018Y006827D01*
X006061Y006784D01*
X006061Y006740D01*
X006018Y006697D01*
X006061Y006654D01*
X006061Y006610D01*
X006018Y006567D01*
X006018Y006697D02*
X005975Y006697D01*
X005472Y006697D02*
X005429Y006654D01*
X005299Y006654D01*
X005385Y006654D02*
X005472Y006567D01*
X005472Y006697D02*
X005472Y006784D01*
X005429Y006827D01*
X005299Y006827D01*
X005299Y006567D01*
X006032Y011487D02*
X006032Y011747D01*
X006163Y011747D01*
X006206Y011704D01*
X006206Y011617D01*
X006163Y011574D01*
X006032Y011574D01*
X006119Y011574D02*
X006206Y011487D01*
X006327Y011530D02*
X006370Y011487D01*
X006457Y011487D01*
X006501Y011530D01*
X006501Y011574D01*
X006457Y011617D01*
X006414Y011617D01*
X006457Y011617D02*
X006501Y011660D01*
X006501Y011704D01*
X006457Y011747D01*
X006370Y011747D01*
X006327Y011704D01*
X006622Y011660D02*
X006708Y011747D01*
X006708Y011487D01*
X006622Y011487D02*
X006795Y011487D01*
X006582Y013208D02*
X006422Y013208D01*
X006382Y013248D01*
X006382Y013328D01*
X006422Y013368D01*
X006462Y013484D02*
X006382Y013564D01*
X006622Y013564D01*
X006622Y013484D02*
X006622Y013644D01*
X006622Y013761D02*
X006462Y013921D01*
X006422Y013921D01*
X006382Y013881D01*
X006382Y013801D01*
X006422Y013761D01*
X006622Y013761D02*
X006622Y013921D01*
X006129Y014637D02*
X006172Y014680D01*
X006172Y014767D01*
X006129Y014810D01*
X006172Y014931D02*
X005912Y014931D01*
X005956Y014810D02*
X005912Y014767D01*
X005912Y014680D01*
X005956Y014637D01*
X006129Y014637D01*
X006042Y014931D02*
X006042Y015105D01*
X006042Y015226D02*
X006042Y015400D01*
X005999Y015400D02*
X006172Y015400D01*
X006172Y015521D02*
X005912Y015521D01*
X005912Y015651D01*
X005956Y015694D01*
X006042Y015694D01*
X006086Y015651D01*
X006086Y015521D01*
X006086Y015608D02*
X006172Y015694D01*
X006129Y015815D02*
X006172Y015859D01*
X006172Y015946D01*
X006129Y015989D01*
X006042Y015989D01*
X006042Y015902D01*
X005956Y015815D02*
X006129Y015815D01*
X005956Y015815D02*
X005912Y015859D01*
X005912Y015946D01*
X005956Y015989D01*
X005912Y016110D02*
X006172Y016110D01*
X006172Y016284D01*
X006042Y016197D02*
X006042Y016110D01*
X005912Y016110D02*
X005912Y016284D01*
X006012Y016487D02*
X006012Y016617D01*
X006056Y016660D01*
X006142Y016660D01*
X006186Y016617D01*
X006186Y016487D01*
X006272Y016487D02*
X006012Y016487D01*
X006186Y016574D02*
X006272Y016660D01*
X006229Y016781D02*
X006272Y016825D01*
X006272Y016912D01*
X006229Y016955D01*
X006186Y016955D01*
X006142Y016912D01*
X006142Y016868D01*
X006142Y016912D02*
X006099Y016955D01*
X006056Y016955D01*
X006012Y016912D01*
X006012Y016825D01*
X006056Y016781D01*
X006056Y017076D02*
X006012Y017119D01*
X006012Y017206D01*
X006056Y017250D01*
X006099Y017250D01*
X006142Y017206D01*
X006186Y017250D01*
X006229Y017250D01*
X006272Y017206D01*
X006272Y017119D01*
X006229Y017076D01*
X006142Y017163D02*
X006142Y017206D01*
X005684Y018187D02*
X005598Y018274D01*
X005641Y018274D02*
X005511Y018274D01*
X005511Y018187D02*
X005511Y018447D01*
X005641Y018447D01*
X005684Y018404D01*
X005684Y018317D01*
X005641Y018274D01*
X005390Y018187D02*
X005216Y018187D01*
X005216Y018447D01*
X005390Y018447D01*
X005303Y018317D02*
X005216Y018317D01*
X005095Y018187D02*
X005095Y018447D01*
X004922Y018447D02*
X004922Y018187D01*
X005008Y018274D01*
X005095Y018187D01*
X004801Y018230D02*
X004801Y018404D01*
X004757Y018447D01*
X004670Y018447D01*
X004627Y018404D01*
X004627Y018230D01*
X004670Y018187D01*
X004757Y018187D01*
X004801Y018230D01*
X004506Y018317D02*
X004463Y018274D01*
X004332Y018274D01*
X004332Y018187D02*
X004332Y018447D01*
X004463Y018447D01*
X004506Y018404D01*
X004506Y018317D01*
X005999Y015400D02*
X005912Y015313D01*
X005999Y015226D01*
X006172Y015226D01*
X006172Y015105D02*
X005912Y015105D01*
X005751Y014597D02*
X005751Y014554D01*
X005577Y014380D01*
X005577Y014337D01*
X005456Y014380D02*
X005413Y014337D01*
X005326Y014337D01*
X005282Y014380D01*
X005282Y014554D01*
X005326Y014597D01*
X005413Y014597D01*
X005456Y014554D01*
X005577Y014597D02*
X005751Y014597D01*
X005195Y014737D02*
X005022Y014737D01*
X005195Y014910D01*
X005195Y014954D01*
X005152Y014997D01*
X005065Y014997D01*
X005022Y014954D01*
X004901Y014954D02*
X004901Y014910D01*
X004857Y014867D01*
X004901Y014824D01*
X004901Y014780D01*
X004857Y014737D01*
X004770Y014737D01*
X004727Y014780D01*
X004814Y014867D02*
X004857Y014867D01*
X004901Y014954D02*
X004857Y014997D01*
X004770Y014997D01*
X004727Y014954D01*
X004606Y014954D02*
X004606Y014867D01*
X004563Y014824D01*
X004432Y014824D01*
X004519Y014824D02*
X004606Y014737D01*
X004432Y014737D02*
X004432Y014997D01*
X004563Y014997D01*
X004606Y014954D01*
X006582Y013368D02*
X006622Y013328D01*
X006622Y013248D01*
X006582Y013208D01*
X008332Y013837D02*
X008332Y014077D01*
X008453Y014077D01*
X008493Y014037D01*
X008493Y013957D01*
X008453Y013917D01*
X008332Y013917D01*
X008412Y013917D02*
X008493Y013837D01*
X008609Y013837D02*
X008609Y014077D01*
X008689Y013997D01*
X008769Y014077D01*
X008769Y013837D01*
X008885Y013957D02*
X009045Y013957D01*
X009005Y014077D02*
X008885Y013957D01*
X009005Y013837D02*
X009005Y014077D01*
X008299Y015203D02*
X008342Y015246D01*
X008342Y015333D01*
X008299Y015376D01*
X008342Y015498D02*
X008342Y015671D01*
X008342Y015584D02*
X008082Y015584D01*
X008169Y015498D01*
X008126Y015376D02*
X008082Y015333D01*
X008082Y015246D01*
X008126Y015203D01*
X008299Y015203D01*
X007872Y015632D02*
X007632Y015632D01*
X007632Y015792D01*
X007632Y015908D02*
X007872Y015908D01*
X007872Y016068D01*
X007752Y015988D02*
X007752Y015908D01*
X007632Y015908D02*
X007632Y016068D01*
X007632Y016184D02*
X007632Y016344D01*
X007632Y016264D02*
X007872Y016264D01*
X007872Y016461D02*
X007872Y016621D01*
X007872Y016541D02*
X007632Y016541D01*
X007712Y016461D01*
X007752Y015712D02*
X007752Y015632D01*
X008082Y015836D02*
X008082Y015922D01*
X008126Y015966D01*
X008299Y015792D01*
X008342Y015836D01*
X008342Y015922D01*
X008299Y015966D01*
X008126Y015966D01*
X008082Y015836D02*
X008126Y015792D01*
X008299Y015792D01*
X008582Y017803D02*
X008582Y017933D01*
X008626Y017976D01*
X008712Y017976D01*
X008756Y017933D01*
X008756Y017803D01*
X008842Y017803D02*
X008582Y017803D01*
X008756Y017890D02*
X008842Y017976D01*
X008799Y018098D02*
X008842Y018141D01*
X008842Y018228D01*
X008799Y018271D01*
X008756Y018271D01*
X008712Y018228D01*
X008712Y018184D01*
X008712Y018228D02*
X008669Y018271D01*
X008626Y018271D01*
X008582Y018228D01*
X008582Y018141D01*
X008626Y018098D01*
X008626Y018392D02*
X008582Y018436D01*
X008582Y018522D01*
X008626Y018566D01*
X008799Y018392D01*
X008842Y018436D01*
X008842Y018522D01*
X008799Y018566D01*
X008626Y018566D01*
X008626Y018392D02*
X008799Y018392D01*
X010262Y017005D02*
X010262Y016831D01*
X010392Y016831D01*
X010349Y016918D01*
X010349Y016962D01*
X010392Y017005D01*
X010479Y017005D01*
X010522Y016962D01*
X010522Y016875D01*
X010479Y016831D01*
X010479Y016710D02*
X010262Y016710D01*
X010262Y016537D02*
X010479Y016537D01*
X010522Y016580D01*
X010522Y016667D01*
X010479Y016710D01*
X011532Y018087D02*
X011532Y018347D01*
X011663Y018347D01*
X011706Y018304D01*
X011706Y018217D01*
X011663Y018174D01*
X011532Y018174D01*
X011619Y018174D02*
X011706Y018087D01*
X011827Y018087D02*
X012001Y018260D01*
X012001Y018304D01*
X011957Y018347D01*
X011870Y018347D01*
X011827Y018304D01*
X011827Y018087D02*
X012001Y018087D01*
X012122Y018130D02*
X012165Y018087D01*
X012252Y018087D01*
X012295Y018130D01*
X012295Y018304D01*
X012252Y018347D01*
X012165Y018347D01*
X012122Y018304D01*
X012122Y018260D01*
X012165Y018217D01*
X012295Y018217D01*
X012982Y018787D02*
X012982Y019047D01*
X013113Y019047D01*
X013156Y019004D01*
X013156Y018917D01*
X013113Y018874D01*
X012982Y018874D01*
X013069Y018874D02*
X013156Y018787D01*
X013277Y018787D02*
X013277Y018830D01*
X013451Y019004D01*
X013451Y019047D01*
X013277Y019047D01*
X011622Y019187D02*
X011362Y019187D01*
X011362Y019317D01*
X011406Y019360D01*
X011492Y019360D01*
X011536Y019317D01*
X011536Y019187D01*
X011536Y019274D02*
X011622Y019360D01*
X011622Y019481D02*
X011622Y019655D01*
X011622Y019568D02*
X011362Y019568D01*
X011449Y019481D01*
X011449Y019776D02*
X011362Y019863D01*
X011622Y019863D01*
X011622Y019776D02*
X011622Y019950D01*
X011379Y021237D02*
X011206Y021237D01*
X011162Y021280D01*
X011162Y021367D01*
X011206Y021410D01*
X011162Y021531D02*
X011292Y021531D01*
X011249Y021618D01*
X011249Y021662D01*
X011292Y021705D01*
X011379Y021705D01*
X011422Y021662D01*
X011422Y021575D01*
X011379Y021531D01*
X011379Y021410D02*
X011422Y021367D01*
X011422Y021280D01*
X011379Y021237D01*
X011022Y021280D02*
X011022Y021367D01*
X010979Y021410D01*
X010979Y021531D02*
X011022Y021575D01*
X011022Y021662D01*
X010979Y021705D01*
X010936Y021705D01*
X010892Y021662D01*
X010892Y021531D01*
X010979Y021531D01*
X010892Y021531D02*
X010806Y021618D01*
X010762Y021705D01*
X010806Y021410D02*
X010762Y021367D01*
X010762Y021280D01*
X010806Y021237D01*
X010979Y021237D01*
X011022Y021280D01*
X011162Y021531D02*
X011162Y021705D01*
X012582Y028987D02*
X012582Y029107D01*
X012622Y029147D01*
X012702Y029147D01*
X012742Y029107D01*
X012742Y028987D01*
X012742Y029067D02*
X012822Y029147D01*
X012822Y029263D02*
X012822Y029423D01*
X012822Y029343D02*
X012582Y029343D01*
X012662Y029263D01*
X012702Y029539D02*
X012702Y029659D01*
X012742Y029699D01*
X012782Y029699D01*
X012822Y029659D01*
X012822Y029579D01*
X012782Y029539D01*
X012702Y029539D01*
X012622Y029619D01*
X012582Y029699D01*
X012582Y028987D02*
X012822Y028987D01*
X011802Y033557D02*
X011602Y033557D01*
X011402Y033557D01*
X011382Y033559D01*
X011364Y033565D01*
X011346Y033574D01*
X011331Y033586D01*
X011319Y033601D01*
X011310Y033619D01*
X011304Y033637D01*
X011302Y033657D01*
X011302Y033857D01*
X011304Y033877D01*
X011310Y033895D01*
X011319Y033913D01*
X011331Y033928D01*
X011346Y033940D01*
X011364Y033949D01*
X011382Y033955D01*
X011402Y033957D01*
X011602Y033957D01*
X011802Y033957D01*
X011822Y033955D01*
X011840Y033949D01*
X011858Y033940D01*
X011873Y033928D01*
X011885Y033913D01*
X011894Y033895D01*
X011900Y033877D01*
X011902Y033857D01*
X011902Y033657D01*
X011900Y033637D01*
X011894Y033619D01*
X011885Y033601D01*
X011873Y033586D01*
X011858Y033574D01*
X011840Y033565D01*
X011822Y033559D01*
X011802Y033557D01*
X008382Y039037D02*
X008422Y039077D01*
X008422Y039157D01*
X008382Y039197D01*
X008302Y039197D01*
X008262Y039157D01*
X008262Y039117D01*
X008302Y039037D01*
X008182Y039037D01*
X008182Y039197D01*
X008182Y039313D02*
X008342Y039313D01*
X008422Y039393D01*
X008342Y039473D01*
X008182Y039473D01*
X008182Y039589D02*
X008182Y039709D01*
X008222Y039749D01*
X008382Y039749D01*
X008422Y039709D01*
X008422Y039589D01*
X008182Y039589D01*
X008222Y039866D02*
X008382Y039866D01*
X008422Y039906D01*
X008422Y039986D01*
X008382Y040026D01*
X008222Y040026D02*
X008182Y039986D01*
X008182Y039906D01*
X008222Y039866D01*
X008222Y040418D02*
X008382Y040418D01*
X008422Y040458D01*
X008422Y040538D01*
X008382Y040578D01*
X008222Y040578D01*
X008182Y040538D01*
X008182Y040458D01*
X008222Y040418D01*
X008262Y040694D02*
X008262Y040814D01*
X008302Y040854D01*
X008422Y040854D01*
X008422Y040970D02*
X008422Y041050D01*
X008422Y041010D02*
X008182Y041010D01*
X008182Y040970D01*
X008262Y041155D02*
X008382Y041155D01*
X008422Y041195D01*
X008422Y041315D01*
X008462Y041315D02*
X008502Y041275D01*
X008502Y041235D01*
X008462Y041315D02*
X008262Y041315D01*
X008302Y041431D02*
X008142Y041431D01*
X008142Y041523D02*
X008302Y041523D01*
X008382Y041523D02*
X008422Y041523D01*
X008422Y041615D02*
X008382Y041615D01*
X008302Y041615D02*
X008142Y041615D01*
X008382Y041431D02*
X008422Y041431D01*
X008422Y040694D02*
X008262Y040694D01*
X005005Y032077D02*
X004885Y031957D01*
X005045Y031957D01*
X005005Y031837D02*
X005005Y032077D01*
X004769Y032077D02*
X004689Y032037D01*
X004609Y031957D01*
X004729Y031957D01*
X004769Y031917D01*
X004769Y031877D01*
X004729Y031837D01*
X004649Y031837D01*
X004609Y031877D01*
X004609Y031957D01*
X004493Y031957D02*
X004453Y031917D01*
X004332Y031917D01*
X004332Y031837D02*
X004332Y032077D01*
X004453Y032077D01*
X004493Y032037D01*
X004493Y031957D01*
X004412Y031917D02*
X004493Y031837D01*
X004912Y028527D02*
X004832Y028447D01*
X004912Y028527D02*
X004912Y028287D01*
X004832Y028287D02*
X004993Y028287D01*
X007382Y028827D02*
X007422Y028787D01*
X007503Y028787D01*
X007543Y028827D01*
X007543Y028867D01*
X007503Y028907D01*
X007462Y028907D01*
X007503Y028907D02*
X007543Y028947D01*
X007543Y028987D01*
X007503Y029027D01*
X007422Y029027D01*
X007382Y028987D01*
X018882Y028987D02*
X018882Y029107D01*
X018922Y029147D01*
X019002Y029147D01*
X019042Y029107D01*
X019042Y028987D01*
X019042Y029067D02*
X019122Y029147D01*
X019122Y029263D02*
X019122Y029423D01*
X019122Y029343D02*
X018882Y029343D01*
X018962Y029263D01*
X019002Y029539D02*
X019002Y029699D01*
X018882Y029659D02*
X019002Y029539D01*
X019122Y029659D02*
X018882Y029659D01*
X018882Y028987D02*
X019122Y028987D01*
X019082Y040982D02*
X018922Y040982D01*
X018882Y041022D01*
X018882Y041102D01*
X018922Y041142D01*
X018922Y041258D02*
X019082Y041258D01*
X019122Y041298D01*
X019122Y041378D01*
X019082Y041418D01*
X018922Y041418D01*
X018882Y041378D01*
X018882Y041298D01*
X018922Y041258D01*
X019082Y041142D02*
X019122Y041102D01*
X019122Y041022D01*
X019082Y040982D01*
X019122Y041534D02*
X018882Y041534D01*
X019122Y041694D01*
X018882Y041694D01*
X018962Y041811D02*
X018882Y041891D01*
X019122Y041891D01*
X019122Y041811D02*
X019122Y041971D01*
X016505Y011377D02*
X016425Y011377D01*
X016385Y011337D01*
X016385Y011297D01*
X016425Y011257D01*
X016545Y011257D01*
X016545Y011337D02*
X016505Y011377D01*
X016545Y011337D02*
X016545Y011177D01*
X016505Y011137D01*
X016425Y011137D01*
X016385Y011177D01*
X016269Y011177D02*
X016229Y011137D01*
X016149Y011137D01*
X016109Y011177D01*
X016109Y011217D01*
X016149Y011257D01*
X016229Y011257D01*
X016269Y011217D01*
X016269Y011177D01*
X016229Y011257D02*
X016269Y011297D01*
X016269Y011337D01*
X016229Y011377D01*
X016149Y011377D01*
X016109Y011337D01*
X016109Y011297D01*
X016149Y011257D01*
X015993Y011337D02*
X015953Y011377D01*
X015872Y011377D01*
X015832Y011337D01*
X015832Y011177D01*
X015872Y011137D01*
X015953Y011137D01*
X015993Y011177D01*
D15*
X015153Y010788D02*
X015153Y008327D01*
X014252Y008327D02*
X014252Y010788D01*
X007953Y010788D01*
X007953Y008327D01*
X007953Y006949D02*
X007953Y002126D01*
X007559Y002126D01*
X007559Y004882D01*
X008504Y004184D02*
X008504Y003386D01*
X008780Y003386D01*
X008819Y003071D02*
X009134Y003386D01*
X008819Y003701D01*
X008819Y003071D01*
X008858Y002914D02*
X009016Y002717D01*
X009016Y002795D01*
X009016Y002717D02*
X008937Y002717D01*
X009213Y002717D02*
X009291Y002717D01*
X009291Y002795D01*
X009291Y002717D02*
X009134Y002914D01*
X009173Y003071D02*
X009173Y003701D01*
X009213Y003386D02*
X009488Y003386D01*
X009488Y004149D01*
X010079Y004291D02*
X010473Y004291D01*
X010866Y002126D01*
X010630Y002126D02*
X009921Y002126D01*
X010236Y004016D01*
X010315Y004016D01*
X010630Y002126D01*
X010625Y002157D02*
X009926Y002157D01*
X009943Y002255D02*
X010608Y002255D01*
X010592Y002354D02*
X009959Y002354D01*
X009976Y002452D02*
X010576Y002452D01*
X010559Y002551D02*
X009992Y002551D01*
X010009Y002650D02*
X010543Y002650D01*
X010526Y002748D02*
X010025Y002748D01*
X010041Y002847D02*
X010510Y002847D01*
X010493Y002945D02*
X010058Y002945D01*
X010074Y003044D02*
X010477Y003044D01*
X010461Y003142D02*
X010091Y003142D01*
X010107Y003241D02*
X010444Y003241D01*
X010428Y003339D02*
X010124Y003339D01*
X010140Y003438D02*
X010411Y003438D01*
X010395Y003536D02*
X010156Y003536D01*
X010173Y003635D02*
X010379Y003635D01*
X010362Y003734D02*
X010189Y003734D01*
X010206Y003832D02*
X010346Y003832D01*
X010329Y003931D02*
X010222Y003931D01*
X010079Y004291D02*
X009685Y002126D01*
X007953Y002126D02*
X014252Y002126D01*
X014646Y002126D01*
X014646Y004882D01*
X014759Y004882D02*
X014759Y002126D01*
X015153Y002126D01*
X015153Y006949D01*
X014252Y006949D02*
X014252Y002126D01*
X015153Y002126D02*
X021452Y002126D01*
X021846Y002126D01*
X021846Y004882D01*
X020888Y004184D02*
X020888Y003386D01*
X020613Y003386D01*
X020534Y003386D02*
X020219Y003701D01*
X020219Y003071D01*
X020534Y003386D01*
X020573Y003071D02*
X020573Y003701D01*
X020180Y003386D02*
X019904Y003386D01*
X019904Y004149D01*
X019326Y004291D02*
X019720Y002126D01*
X019484Y002126D02*
X018775Y002126D01*
X019090Y004016D01*
X019169Y004016D01*
X019484Y002126D01*
X019478Y002157D02*
X018780Y002157D01*
X018796Y002255D02*
X019462Y002255D01*
X019446Y002354D02*
X018813Y002354D01*
X018829Y002452D02*
X019429Y002452D01*
X019413Y002551D02*
X018846Y002551D01*
X018862Y002650D02*
X019396Y002650D01*
X019380Y002748D02*
X018879Y002748D01*
X018895Y002847D02*
X019363Y002847D01*
X019347Y002945D02*
X018911Y002945D01*
X018928Y003044D02*
X019331Y003044D01*
X019314Y003142D02*
X018944Y003142D01*
X018961Y003241D02*
X019298Y003241D01*
X019281Y003339D02*
X018977Y003339D01*
X018994Y003438D02*
X019265Y003438D01*
X019248Y003536D02*
X019010Y003536D01*
X019026Y003635D02*
X019232Y003635D01*
X019216Y003734D02*
X019043Y003734D01*
X019059Y003832D02*
X019199Y003832D01*
X019183Y003931D02*
X019076Y003931D01*
X018932Y004291D02*
X019326Y004291D01*
X018932Y004291D02*
X018539Y002126D01*
X018066Y002126D02*
X017673Y004291D01*
X017279Y004291D01*
X016885Y002126D01*
X017121Y002126D02*
X017830Y002126D01*
X017515Y004016D01*
X017436Y004016D01*
X017121Y002126D01*
X017126Y002157D02*
X017825Y002157D01*
X017808Y002255D02*
X017143Y002255D01*
X017159Y002354D02*
X017792Y002354D01*
X017776Y002452D02*
X017176Y002452D01*
X017192Y002551D02*
X017759Y002551D01*
X017743Y002650D02*
X017209Y002650D01*
X017225Y002748D02*
X017726Y002748D01*
X017710Y002847D02*
X017241Y002847D01*
X017258Y002945D02*
X017693Y002945D01*
X017677Y003044D02*
X017274Y003044D01*
X017291Y003142D02*
X017661Y003142D01*
X017644Y003241D02*
X017307Y003241D01*
X017324Y003339D02*
X017628Y003339D01*
X017611Y003438D02*
X017340Y003438D01*
X017356Y003536D02*
X017595Y003536D01*
X017579Y003635D02*
X017373Y003635D01*
X017389Y003734D02*
X017562Y003734D01*
X017546Y003832D02*
X017406Y003832D01*
X017422Y003931D02*
X017529Y003931D01*
X016688Y004149D02*
X016688Y003386D01*
X016413Y003386D01*
X016334Y003386D02*
X016019Y003071D01*
X016019Y003701D01*
X016334Y003386D01*
X016373Y003701D02*
X016373Y003071D01*
X016334Y002914D02*
X016491Y002717D01*
X016491Y002795D01*
X016491Y002717D02*
X016413Y002717D01*
X016216Y002717D02*
X016216Y002795D01*
X016216Y002717D02*
X016137Y002717D01*
X016216Y002717D02*
X016058Y002914D01*
X015980Y003386D02*
X015704Y003386D01*
X015704Y004184D01*
X013688Y004184D02*
X013688Y003386D01*
X013413Y003386D01*
X013334Y003386D02*
X013019Y003701D01*
X013019Y003071D01*
X013334Y003386D01*
X013373Y003071D02*
X013373Y003701D01*
X012980Y003386D02*
X012704Y003386D01*
X012704Y004149D01*
X012126Y004291D02*
X012520Y002126D01*
X012284Y002126D02*
X011575Y002126D01*
X011890Y004016D01*
X011969Y004016D01*
X012284Y002126D01*
X012278Y002157D02*
X011580Y002157D01*
X011596Y002255D02*
X012262Y002255D01*
X012246Y002354D02*
X011613Y002354D01*
X011629Y002452D02*
X012229Y002452D01*
X012213Y002551D02*
X011646Y002551D01*
X011662Y002650D02*
X012196Y002650D01*
X012180Y002748D02*
X011679Y002748D01*
X011695Y002847D02*
X012163Y002847D01*
X012147Y002945D02*
X011711Y002945D01*
X011728Y003044D02*
X012131Y003044D01*
X012114Y003142D02*
X011744Y003142D01*
X011761Y003241D02*
X012098Y003241D01*
X012081Y003339D02*
X011777Y003339D01*
X011794Y003438D02*
X012065Y003438D01*
X012048Y003536D02*
X011810Y003536D01*
X011826Y003635D02*
X012032Y003635D01*
X012016Y003734D02*
X011843Y003734D01*
X011859Y003832D02*
X011999Y003832D01*
X011983Y003931D02*
X011876Y003931D01*
X011732Y004291D02*
X012126Y004291D01*
X011732Y004291D02*
X011339Y002126D01*
X013071Y002914D02*
X013228Y002717D01*
X013228Y002795D01*
X013228Y002717D02*
X013150Y002717D01*
X013425Y002717D02*
X013504Y002717D01*
X013504Y002795D01*
X013504Y002717D02*
X013347Y002914D01*
X015153Y010788D02*
X021452Y010788D01*
X021452Y008327D01*
X021452Y006949D02*
X021452Y002126D01*
X022052Y002107D02*
X024769Y002107D01*
X024533Y002343D01*
X022289Y002343D01*
X022052Y002107D01*
X022289Y002343D02*
X022289Y009902D01*
X024533Y009902D01*
X024533Y002343D01*
X023824Y002776D02*
X023588Y004351D01*
X023234Y004351D01*
X022997Y002776D01*
X020704Y002717D02*
X020704Y002795D01*
X020704Y002717D02*
X020625Y002717D01*
X020704Y002717D02*
X020547Y002914D01*
X020428Y002795D02*
X020428Y002717D01*
X020350Y002717D01*
X020428Y002717D02*
X020271Y002914D01*
X022870Y007122D02*
X022870Y007389D01*
X022737Y007255D02*
X023004Y007255D01*
X023925Y009302D02*
X023925Y009569D01*
X025652Y009807D02*
X025852Y009657D01*
X025852Y009457D01*
X025852Y008857D01*
X025852Y008657D01*
X025652Y008507D01*
X025652Y006657D01*
X029152Y006657D01*
X029152Y007157D01*
X029252Y007157D01*
X029252Y007657D01*
X029152Y007657D01*
X029152Y010407D01*
X029252Y010407D01*
X029252Y010907D01*
X029152Y010907D01*
X029152Y013657D01*
X029252Y013657D01*
X029252Y014157D01*
X029152Y014157D01*
X029152Y014657D01*
X029152Y015157D01*
X029252Y015157D01*
X029252Y015657D01*
X029152Y015657D01*
X029152Y025907D01*
X029252Y025907D01*
X029252Y026407D01*
X029152Y026407D01*
X029152Y036657D01*
X029252Y036657D01*
X029252Y037157D01*
X029152Y037157D01*
X029152Y037657D01*
X025652Y037657D01*
X025652Y035957D01*
X025702Y035957D01*
X025702Y035357D01*
X025652Y035357D01*
X025652Y034807D01*
X025852Y034657D01*
X025852Y034457D01*
X025852Y033857D01*
X025852Y033657D01*
X025652Y033507D01*
X025652Y026957D01*
X026052Y026957D01*
X026052Y033857D01*
X026152Y033857D01*
X026152Y034457D01*
X026152Y037157D01*
X028652Y037157D01*
X028652Y015157D01*
X026152Y015157D01*
X026152Y016857D01*
X026152Y017457D01*
X026152Y025357D01*
X026052Y025357D01*
X025652Y025357D01*
X025652Y026957D01*
X025352Y026938D02*
X024952Y026938D01*
X025152Y026738D01*
X025152Y027005D01*
X024952Y026544D02*
X024952Y026278D01*
X024952Y026411D02*
X025352Y026411D01*
X025352Y026084D02*
X024952Y025817D01*
X024952Y025624D02*
X024952Y025357D01*
X025352Y025357D01*
X025352Y025624D01*
X025352Y025817D02*
X024952Y026084D01*
X025152Y025490D02*
X025152Y025357D01*
X025652Y025357D02*
X025652Y017807D01*
X025852Y017657D01*
X025852Y017457D01*
X025852Y016857D01*
X026052Y016857D01*
X026052Y015057D01*
X028752Y015057D01*
X028752Y037257D01*
X026052Y037257D01*
X026052Y034457D01*
X026152Y034457D01*
X026052Y034457D02*
X025852Y034457D01*
X025852Y033857D02*
X026052Y033857D01*
X026152Y033857D02*
X026152Y026957D01*
X026052Y026957D01*
X026152Y026957D02*
X026452Y026957D01*
X026452Y025357D01*
X026152Y025357D01*
X026052Y025357D02*
X026052Y017457D01*
X025852Y017457D01*
X026052Y017457D02*
X026152Y017457D01*
X026152Y016857D02*
X026052Y016857D01*
X025852Y016857D02*
X025852Y016657D01*
X025652Y016507D01*
X025652Y014657D01*
X029152Y014657D01*
X025652Y014657D01*
X025652Y012907D01*
X025702Y012907D01*
X025702Y012407D01*
X025652Y012407D01*
X025652Y011457D01*
X026052Y011457D01*
X026152Y011457D01*
X026452Y011457D01*
X026452Y009857D01*
X026152Y009857D01*
X026052Y009857D01*
X025652Y009857D01*
X025652Y011457D01*
X025652Y009857D02*
X025652Y009807D01*
X026836Y013246D02*
X026702Y013380D01*
X027102Y013380D01*
X027102Y013513D02*
X027102Y013246D01*
X027702Y013313D02*
X027769Y013246D01*
X027702Y013313D02*
X027702Y013447D01*
X027769Y013513D01*
X027836Y013513D01*
X028102Y013246D01*
X028102Y013513D01*
X023152Y013507D02*
X023152Y012807D01*
X023002Y012657D01*
X022302Y012657D01*
X022152Y012807D01*
X022152Y013507D01*
X022302Y013657D01*
X022152Y013807D01*
X022152Y014507D01*
X022302Y014657D01*
X022152Y014807D01*
X022152Y015507D01*
X022302Y015657D01*
X022152Y015807D01*
X022152Y016507D01*
X022302Y016657D01*
X022152Y016807D01*
X022152Y017507D01*
X022302Y017657D01*
X022152Y017807D01*
X022152Y018507D01*
X022302Y018657D01*
X022152Y018807D01*
X022152Y019507D01*
X022302Y019657D01*
X022152Y019807D01*
X022152Y020507D01*
X022302Y020657D01*
X022152Y020807D01*
X022152Y021507D01*
X022302Y021657D01*
X022152Y021807D01*
X022152Y022507D01*
X022302Y022657D01*
X022152Y022807D01*
X022152Y023507D01*
X022302Y023657D01*
X022152Y023807D01*
X022152Y024507D01*
X022302Y024657D01*
X022152Y024807D01*
X022152Y025507D01*
X022302Y025657D01*
X022152Y025807D01*
X022152Y026507D01*
X022302Y026657D01*
X022152Y026807D01*
X022152Y027507D01*
X022302Y027657D01*
X023002Y027657D01*
X023152Y027507D01*
X023152Y026807D01*
X023002Y026657D01*
X023152Y026507D01*
X023152Y025807D01*
X023002Y025657D01*
X023152Y025507D01*
X023152Y024807D01*
X023002Y024657D01*
X023152Y024507D01*
X023152Y023807D01*
X023002Y023657D01*
X023152Y023507D01*
X023152Y022807D01*
X023002Y022657D01*
X023152Y022507D01*
X023152Y021807D01*
X023002Y021657D01*
X023152Y021507D01*
X023152Y020807D01*
X023002Y020657D01*
X023152Y020507D01*
X023152Y019807D01*
X023002Y019657D01*
X023152Y019507D01*
X023152Y018807D01*
X023002Y018657D01*
X023152Y018507D01*
X023152Y017807D01*
X023002Y017657D01*
X023152Y017507D01*
X023152Y016807D01*
X023002Y016657D01*
X023152Y016507D01*
X023152Y015807D01*
X023002Y015657D01*
X023152Y015507D01*
X023152Y014807D01*
X023002Y014657D01*
X023152Y014507D01*
X023152Y013807D01*
X023002Y013657D01*
X023152Y013507D01*
X023002Y012657D02*
X023152Y012507D01*
X023152Y011807D01*
X023152Y011657D01*
X023002Y011657D01*
X023152Y011807D01*
X023002Y011657D02*
X022302Y011657D01*
X022152Y011657D01*
X022152Y011807D01*
X022152Y012507D01*
X022302Y012657D01*
X021952Y012567D02*
X021552Y012834D01*
X021552Y013028D02*
X021552Y013294D01*
X021552Y013161D02*
X021952Y013161D01*
X021952Y012834D02*
X021552Y012567D01*
X021552Y012374D02*
X021552Y012107D01*
X021952Y012107D01*
X021952Y012374D01*
X021752Y012240D02*
X021752Y012107D01*
X022152Y011807D02*
X022302Y011657D01*
X021886Y013488D02*
X021952Y013555D01*
X021952Y013688D01*
X021886Y013755D01*
X021819Y013755D01*
X021752Y013688D01*
X021752Y013621D01*
X021752Y013688D02*
X021686Y013755D01*
X021619Y013755D01*
X021552Y013688D01*
X021552Y013555D01*
X021619Y013488D01*
X020509Y013290D02*
X020442Y013357D01*
X020309Y013357D01*
X020242Y013290D01*
X020509Y013290D02*
X020509Y013224D01*
X020242Y012957D01*
X020509Y012957D01*
X020152Y013657D02*
X007152Y013657D01*
X007152Y011657D01*
X020152Y011657D01*
X020152Y013657D01*
X020376Y012357D02*
X020242Y012224D01*
X020376Y012357D02*
X020376Y011957D01*
X020509Y011957D02*
X020242Y011957D01*
X016972Y017817D02*
X016972Y017847D01*
X016972Y017817D02*
X016852Y017817D01*
X016852Y017847D01*
X016222Y018707D02*
X016222Y018737D01*
X016082Y018737D01*
X016082Y018707D01*
X017572Y021107D02*
X017572Y021487D01*
X017572Y021485D02*
X017572Y021348D01*
X017602Y021278D02*
X017603Y021276D01*
X017674Y021247D02*
X017701Y021247D01*
X017772Y021276D02*
X017773Y021278D01*
X017802Y021348D02*
X017802Y021485D01*
X017773Y021556D02*
X017772Y021558D01*
X017701Y021587D02*
X017674Y021587D01*
X017603Y021558D02*
X017602Y021556D01*
X017603Y021558D02*
X017618Y021570D01*
X017636Y021579D01*
X017654Y021585D01*
X017674Y021587D01*
X017601Y021556D02*
X017589Y021541D01*
X017580Y021523D01*
X017574Y021505D01*
X017572Y021485D01*
X017701Y021587D02*
X017721Y021585D01*
X017739Y021579D01*
X017757Y021570D01*
X017772Y021558D01*
X017773Y021556D02*
X017785Y021541D01*
X017794Y021523D01*
X017800Y021505D01*
X017802Y021485D01*
X017942Y021485D02*
X017942Y021348D01*
X017951Y021367D02*
X018162Y021497D01*
X018143Y021556D02*
X018142Y021558D01*
X018144Y021556D02*
X018152Y021545D01*
X018158Y021532D01*
X018162Y021519D01*
X018163Y021505D01*
X018142Y021558D02*
X018127Y021570D01*
X018109Y021579D01*
X018091Y021585D01*
X018071Y021587D01*
X018044Y021587D01*
X017973Y021558D02*
X017972Y021556D01*
X017973Y021558D02*
X017988Y021570D01*
X018006Y021579D01*
X018024Y021585D01*
X018044Y021587D01*
X017971Y021556D02*
X017959Y021541D01*
X017950Y021523D01*
X017944Y021505D01*
X017942Y021485D01*
X017942Y021348D02*
X017944Y021328D01*
X017950Y021310D01*
X017959Y021292D01*
X017971Y021277D01*
X017972Y021278D02*
X017973Y021276D01*
X018044Y021247D02*
X018071Y021247D01*
X018142Y021276D02*
X018143Y021278D01*
X018144Y021277D02*
X018152Y021288D01*
X018158Y021301D01*
X018162Y021314D01*
X018163Y021328D01*
X018142Y021276D02*
X018127Y021264D01*
X018109Y021255D01*
X018091Y021249D01*
X018071Y021247D01*
X018044Y021247D02*
X018024Y021249D01*
X018006Y021255D01*
X017988Y021264D01*
X017973Y021276D01*
X017802Y021348D02*
X017800Y021328D01*
X017794Y021310D01*
X017785Y021292D01*
X017773Y021277D01*
X017772Y021276D02*
X017757Y021264D01*
X017739Y021255D01*
X017721Y021249D01*
X017701Y021247D01*
X017674Y021247D02*
X017654Y021249D01*
X017636Y021255D01*
X017618Y021264D01*
X017603Y021276D01*
X017601Y021277D02*
X017589Y021292D01*
X017580Y021310D01*
X017574Y021328D01*
X017572Y021348D01*
X017412Y021348D02*
X017412Y021485D01*
X017383Y021556D02*
X017382Y021558D01*
X017311Y021587D02*
X017284Y021587D01*
X017213Y021558D02*
X017212Y021556D01*
X017182Y021485D02*
X017182Y021348D01*
X017212Y021278D02*
X017213Y021276D01*
X017284Y021247D02*
X017311Y021247D01*
X017382Y021276D02*
X017383Y021278D01*
X017382Y021276D02*
X017367Y021264D01*
X017349Y021255D01*
X017331Y021249D01*
X017311Y021247D01*
X017383Y021277D02*
X017395Y021292D01*
X017404Y021310D01*
X017410Y021328D01*
X017412Y021348D01*
X017284Y021247D02*
X017264Y021249D01*
X017246Y021255D01*
X017228Y021264D01*
X017213Y021276D01*
X017211Y021277D02*
X017199Y021292D01*
X017190Y021310D01*
X017184Y021328D01*
X017182Y021348D01*
X017182Y021485D02*
X017184Y021505D01*
X017190Y021523D01*
X017199Y021541D01*
X017211Y021556D01*
X017213Y021558D02*
X017228Y021570D01*
X017246Y021579D01*
X017264Y021585D01*
X017284Y021587D01*
X017311Y021587D02*
X017331Y021585D01*
X017349Y021579D01*
X017367Y021570D01*
X017382Y021558D01*
X017383Y021556D02*
X017395Y021541D01*
X017404Y021523D01*
X017410Y021505D01*
X017412Y021485D01*
X018312Y021485D02*
X018312Y021288D01*
X018312Y021485D02*
X018314Y021505D01*
X018320Y021523D01*
X018329Y021541D01*
X018341Y021556D01*
X018342Y021556D02*
X018343Y021558D01*
X018414Y021587D02*
X018441Y021587D01*
X018512Y021558D02*
X018513Y021556D01*
X018542Y021485D02*
X018542Y021248D01*
X018542Y021485D02*
X018540Y021505D01*
X018534Y021523D01*
X018525Y021541D01*
X018513Y021556D01*
X018512Y021558D02*
X018497Y021570D01*
X018479Y021579D01*
X018461Y021585D01*
X018441Y021587D01*
X018414Y021587D02*
X018394Y021585D01*
X018376Y021579D01*
X018358Y021570D01*
X018343Y021558D01*
X018422Y022057D02*
X018162Y022307D01*
X018392Y022637D01*
X018252Y022997D01*
X017852Y023067D01*
X017852Y023427D01*
X018262Y023497D01*
X018402Y023847D01*
X018172Y024187D01*
X018412Y024437D01*
X018762Y024197D01*
X019102Y024337D01*
X019182Y024757D01*
X019532Y024757D01*
X019612Y024337D01*
X019942Y024197D01*
X020302Y024437D01*
X020552Y024187D01*
X020312Y023847D01*
X020452Y023507D01*
X020862Y023427D01*
X020862Y023067D01*
X020462Y022997D01*
X020322Y022637D01*
X020552Y022307D01*
X020302Y022057D01*
X019982Y022277D01*
X019832Y022187D01*
X019582Y022817D01*
X019652Y022797D02*
X019852Y022277D01*
X019972Y022337D01*
X020272Y022147D01*
X020302Y022127D01*
X020482Y022327D01*
X020252Y022657D01*
X020422Y023037D01*
X020812Y023117D01*
X020812Y023397D01*
X020392Y023487D01*
X020252Y023877D01*
X020492Y024187D01*
X020312Y024377D01*
X019942Y024117D01*
X019572Y024307D01*
X019482Y024727D01*
X019222Y024717D01*
X019142Y024317D01*
X018812Y024157D01*
X018752Y024117D01*
X018532Y024287D01*
X018422Y024387D01*
X018392Y024377D01*
X018232Y024197D01*
X018462Y023847D01*
X018322Y023467D01*
X017922Y023377D01*
X017922Y023107D01*
X018272Y023027D01*
X018442Y022647D01*
X018232Y022297D01*
X018422Y022137D01*
X018732Y022337D01*
X018842Y022267D01*
X019052Y022807D01*
X018852Y023047D01*
X018802Y023357D01*
X018962Y023637D01*
X019292Y023797D01*
X019602Y023737D01*
X019792Y023577D01*
X019882Y023327D01*
X019882Y023127D01*
X019742Y022857D01*
X019652Y022797D01*
X019670Y022752D02*
X020295Y022752D01*
X020255Y022654D02*
X019707Y022654D01*
X019745Y022555D02*
X020323Y022555D01*
X020392Y022457D02*
X019783Y022457D01*
X019821Y022358D02*
X020461Y022358D01*
X020422Y022260D02*
X020094Y022260D01*
X020250Y022161D02*
X020333Y022161D01*
X020339Y022851D02*
X019734Y022851D01*
X019791Y022949D02*
X020383Y022949D01*
X020477Y023048D02*
X019842Y023048D01*
X019882Y023147D02*
X020812Y023147D01*
X020812Y023245D02*
X019882Y023245D01*
X019876Y023344D02*
X020812Y023344D01*
X020601Y023442D02*
X019841Y023442D01*
X019805Y023541D02*
X020373Y023541D01*
X020338Y023639D02*
X019718Y023639D01*
X019597Y023738D02*
X020302Y023738D01*
X020267Y023836D02*
X018459Y023836D01*
X018422Y023738D02*
X019171Y023738D01*
X018967Y023639D02*
X018386Y023639D01*
X018350Y023541D02*
X018908Y023541D01*
X018851Y023442D02*
X018213Y023442D01*
X017922Y023344D02*
X018805Y023344D01*
X018820Y023245D02*
X017922Y023245D01*
X017922Y023147D02*
X018836Y023147D01*
X018852Y023048D02*
X018180Y023048D01*
X018307Y022949D02*
X018934Y022949D01*
X019016Y022851D02*
X018351Y022851D01*
X018395Y022752D02*
X019031Y022752D01*
X018993Y022654D02*
X018439Y022654D01*
X018388Y022555D02*
X018955Y022555D01*
X018916Y022457D02*
X018328Y022457D01*
X018269Y022358D02*
X018878Y022358D01*
X018742Y022277D02*
X018422Y022057D01*
X018394Y022161D02*
X018460Y022161D01*
X018613Y022260D02*
X018277Y022260D01*
X018742Y022277D02*
X018882Y022187D01*
X019132Y022817D01*
X019122Y022817D02*
X019084Y022839D01*
X019049Y022865D01*
X019017Y022895D01*
X018987Y022926D01*
X018960Y022961D01*
X018936Y022998D01*
X018916Y023037D01*
X018900Y023077D01*
X018887Y023119D01*
X018878Y023162D01*
X018873Y023205D01*
X018872Y023249D01*
X018875Y023292D01*
X018882Y023336D01*
X018893Y023378D01*
X018907Y023419D01*
X018926Y023459D01*
X018948Y023497D01*
X018973Y023532D01*
X019001Y023566D01*
X019032Y023596D01*
X019066Y023624D01*
X019103Y023648D01*
X019141Y023669D01*
X019181Y023686D01*
X019222Y023700D01*
X019265Y023710D01*
X019308Y023716D01*
X019352Y023718D01*
X019396Y023716D01*
X019439Y023710D01*
X019482Y023700D01*
X019523Y023686D01*
X019563Y023669D01*
X019601Y023648D01*
X019638Y023624D01*
X019672Y023596D01*
X019703Y023566D01*
X019731Y023532D01*
X019756Y023497D01*
X019778Y023459D01*
X019797Y023419D01*
X019811Y023378D01*
X019822Y023336D01*
X019829Y023292D01*
X019832Y023249D01*
X019831Y023205D01*
X019826Y023162D01*
X019817Y023119D01*
X019804Y023077D01*
X019788Y023037D01*
X019768Y022998D01*
X019744Y022961D01*
X019717Y022926D01*
X019687Y022895D01*
X019655Y022865D01*
X019620Y022839D01*
X019582Y022817D01*
X020297Y023935D02*
X018405Y023935D01*
X018340Y024033D02*
X020374Y024033D01*
X020450Y024132D02*
X019964Y024132D01*
X019913Y024132D02*
X018775Y024132D01*
X018733Y024132D02*
X018275Y024132D01*
X018262Y024231D02*
X018605Y024231D01*
X018486Y024329D02*
X018350Y024329D01*
X018964Y024231D02*
X019721Y024231D01*
X019568Y024329D02*
X019145Y024329D01*
X019165Y024428D02*
X019547Y024428D01*
X019525Y024526D02*
X019184Y024526D01*
X019204Y024625D02*
X019504Y024625D01*
X019483Y024723D02*
X019389Y024723D01*
X020104Y024231D02*
X020451Y024231D01*
X020358Y024329D02*
X020244Y024329D01*
X020152Y025657D02*
X007152Y025657D01*
X007152Y027657D01*
X020152Y027657D01*
X020152Y025657D01*
X020242Y025957D02*
X020509Y025957D01*
X020376Y025957D02*
X020376Y026357D01*
X020242Y026224D01*
X020242Y026957D02*
X020509Y027224D01*
X020509Y027290D01*
X020442Y027357D01*
X020309Y027357D01*
X020242Y027290D01*
X020242Y026957D02*
X020509Y026957D01*
X020502Y028407D02*
X020852Y028407D01*
X020852Y028707D01*
X020852Y029207D02*
X020852Y029507D01*
X020502Y029507D01*
X020352Y029057D02*
X020352Y028857D01*
X020278Y030007D02*
X020144Y030140D01*
X020211Y030140D02*
X020011Y030140D01*
X020011Y030007D02*
X020011Y030407D01*
X020211Y030407D01*
X020278Y030340D01*
X020278Y030207D01*
X020211Y030140D01*
X020471Y030207D02*
X020605Y030207D01*
X020738Y030407D02*
X020471Y030407D01*
X020471Y030007D01*
X020738Y030007D01*
X020932Y030007D02*
X021199Y030007D01*
X021392Y030007D02*
X021659Y030274D01*
X021659Y030340D01*
X021592Y030407D01*
X021459Y030407D01*
X021392Y030340D01*
X021392Y030007D02*
X021659Y030007D01*
X020932Y030007D02*
X020932Y030407D01*
X022152Y032057D02*
X022152Y032457D01*
X021902Y032707D02*
X021902Y033207D01*
X021902Y033707D01*
X022402Y032707D01*
X022402Y033207D01*
X022402Y033707D01*
X021902Y033707D01*
X022152Y033957D02*
X022152Y036557D01*
X021902Y036807D01*
X021782Y036937D01*
X021902Y036807D02*
X020682Y036807D01*
X022402Y036807D02*
X023632Y036807D01*
X025184Y038185D02*
X025184Y030626D01*
X019121Y030626D01*
X019121Y038185D01*
X025184Y038185D01*
X025105Y038735D02*
X025105Y038834D01*
X025105Y041196D01*
X024416Y041196D01*
X023727Y041196D02*
X022546Y041196D01*
X021759Y041196D02*
X020479Y041196D01*
X019790Y041196D02*
X019200Y041196D01*
X019200Y038834D01*
X019200Y038735D01*
X025105Y038735D01*
X025105Y038834D02*
X019200Y038834D01*
X018805Y038834D02*
X018805Y038735D01*
X012900Y038735D01*
X012900Y038834D01*
X012900Y041196D01*
X012900Y041727D01*
X018805Y041727D01*
X018805Y041196D01*
X018805Y038834D01*
X012900Y038834D01*
X012621Y038834D02*
X012621Y038735D01*
X008684Y038735D01*
X008684Y038834D01*
X008684Y041196D01*
X008684Y041727D01*
X012621Y041727D01*
X012621Y041196D01*
X012621Y038834D01*
X008684Y038834D01*
X009121Y039007D02*
X009121Y042172D01*
X012684Y042172D01*
X012684Y036857D01*
X011802Y036857D01*
X011337Y036388D02*
X009368Y036388D01*
X009121Y036857D02*
X009121Y037307D01*
X009121Y036857D02*
X010002Y036857D01*
X010102Y036007D02*
X010502Y035757D01*
X010102Y035507D01*
X010102Y036007D01*
X010502Y036007D02*
X010502Y035507D01*
X011052Y034557D02*
X011052Y034357D01*
X011186Y034424D01*
X011253Y034424D01*
X011319Y034357D01*
X011319Y034224D01*
X011253Y034157D01*
X011119Y034157D01*
X011052Y034224D01*
X011052Y034557D02*
X011319Y034557D01*
X011513Y034557D02*
X011513Y034290D01*
X011646Y034157D01*
X011780Y034290D01*
X011780Y034557D01*
X011973Y034090D02*
X012240Y034090D01*
X012434Y034157D02*
X012434Y034557D01*
X012700Y034557D01*
X012567Y034357D02*
X012434Y034357D01*
X012434Y034157D02*
X012700Y034157D01*
X013502Y033207D02*
X015602Y033207D01*
X015602Y033707D01*
X016102Y032707D01*
X016102Y033207D01*
X016102Y033707D01*
X015602Y033707D01*
X015852Y033957D02*
X015852Y036557D01*
X015602Y036807D01*
X015482Y036937D01*
X015602Y036807D02*
X014382Y036807D01*
X016102Y036807D02*
X017332Y036807D01*
X018884Y038185D02*
X018884Y030626D01*
X012821Y030626D01*
X012821Y038185D01*
X018884Y038185D01*
X017621Y039326D02*
X017623Y039354D01*
X017629Y039382D01*
X017639Y039409D01*
X017653Y039434D01*
X017670Y039457D01*
X017690Y039477D01*
X017713Y039494D01*
X017738Y039508D01*
X017765Y039518D01*
X017793Y039524D01*
X017821Y039526D01*
X017849Y039524D01*
X017877Y039518D01*
X017904Y039508D01*
X017929Y039494D01*
X017952Y039477D01*
X017972Y039457D01*
X017989Y039434D01*
X018003Y039409D01*
X018013Y039382D01*
X018019Y039354D01*
X018021Y039326D01*
X018019Y039298D01*
X018013Y039270D01*
X018003Y039243D01*
X017989Y039218D01*
X017972Y039195D01*
X017952Y039175D01*
X017929Y039158D01*
X017904Y039144D01*
X017877Y039134D01*
X017849Y039128D01*
X017821Y039126D01*
X017793Y039128D01*
X017765Y039134D01*
X017738Y039144D01*
X017713Y039158D01*
X017690Y039175D01*
X017670Y039195D01*
X017653Y039218D01*
X017639Y039243D01*
X017629Y039270D01*
X017623Y039298D01*
X017621Y039326D01*
X017427Y041196D02*
X016246Y041196D01*
X015459Y041196D02*
X014179Y041196D01*
X013490Y041196D02*
X012900Y041196D01*
X012621Y041196D02*
X012030Y041196D01*
X011243Y041196D02*
X009963Y041196D01*
X009274Y041196D02*
X008684Y041196D01*
X009468Y039326D02*
X009470Y039354D01*
X009476Y039382D01*
X009486Y039409D01*
X009500Y039434D01*
X009517Y039457D01*
X009537Y039477D01*
X009560Y039494D01*
X009585Y039508D01*
X009612Y039518D01*
X009640Y039524D01*
X009668Y039526D01*
X009696Y039524D01*
X009724Y039518D01*
X009751Y039508D01*
X009776Y039494D01*
X009799Y039477D01*
X009819Y039457D01*
X009836Y039434D01*
X009850Y039409D01*
X009860Y039382D01*
X009866Y039354D01*
X009868Y039326D01*
X009866Y039298D01*
X009860Y039270D01*
X009850Y039243D01*
X009836Y039218D01*
X009819Y039195D01*
X009799Y039175D01*
X009776Y039158D01*
X009751Y039144D01*
X009724Y039134D01*
X009696Y039128D01*
X009668Y039126D01*
X009640Y039128D01*
X009612Y039134D01*
X009585Y039144D01*
X009560Y039158D01*
X009537Y039175D01*
X009517Y039195D01*
X009500Y039218D01*
X009486Y039243D01*
X009476Y039270D01*
X009470Y039298D01*
X009468Y039326D01*
X010091Y038207D02*
X010291Y038207D01*
X010358Y038140D01*
X010358Y038007D01*
X010291Y037940D01*
X010091Y037940D01*
X010091Y037807D02*
X010091Y038207D01*
X010551Y038207D02*
X010551Y037807D01*
X010685Y037940D01*
X010818Y037807D01*
X010818Y038207D01*
X011012Y038207D02*
X011012Y037807D01*
X011012Y037940D02*
X011212Y037940D01*
X011279Y038007D01*
X011279Y038140D01*
X011212Y038207D01*
X011012Y038207D01*
X011145Y037940D02*
X011279Y037807D01*
X011472Y037807D02*
X011472Y037874D01*
X011539Y037874D01*
X011539Y037807D01*
X011472Y037807D01*
X011752Y036107D02*
X011953Y036107D01*
X012019Y036040D01*
X012019Y035774D01*
X011953Y035707D01*
X011752Y035707D01*
X011752Y036107D01*
X012213Y036040D02*
X012279Y036107D01*
X012413Y036107D01*
X012480Y036040D01*
X012480Y035974D01*
X012413Y035907D01*
X012480Y035840D01*
X012480Y035774D01*
X012413Y035707D01*
X012279Y035707D01*
X012213Y035774D01*
X012346Y035907D02*
X012413Y035907D01*
X011337Y035125D02*
X009368Y035125D01*
X009619Y033307D02*
X009552Y033240D01*
X009552Y032974D01*
X009619Y032907D01*
X009753Y032907D01*
X009819Y032974D01*
X010013Y032907D02*
X010280Y032907D01*
X010146Y032907D02*
X010146Y033307D01*
X010013Y033174D01*
X009819Y033240D02*
X009753Y033307D01*
X009619Y033307D01*
X009619Y032657D02*
X009552Y032590D01*
X009552Y032324D01*
X009619Y032257D01*
X009753Y032257D01*
X009819Y032324D01*
X010013Y032324D02*
X010079Y032257D01*
X010213Y032257D01*
X010280Y032324D01*
X010280Y032590D01*
X010213Y032657D01*
X010079Y032657D01*
X010013Y032590D01*
X010013Y032524D01*
X010079Y032457D01*
X010280Y032457D01*
X009819Y032590D02*
X009753Y032657D01*
X009619Y032657D01*
X010473Y032974D02*
X010540Y032907D01*
X010673Y032907D01*
X010740Y032974D01*
X010740Y033040D01*
X010673Y033107D01*
X010473Y033107D01*
X010473Y032974D01*
X010473Y033107D02*
X010607Y033240D01*
X010740Y033307D01*
X010152Y030657D02*
X005152Y030657D01*
X005152Y029657D01*
X010152Y029657D01*
X010152Y030657D01*
X010052Y029657D02*
X009252Y029657D01*
X009152Y029557D01*
X009052Y029657D01*
X008252Y029657D01*
X008152Y029557D01*
X008152Y028757D01*
X008252Y028657D01*
X009052Y028657D01*
X009152Y028757D01*
X009252Y028657D01*
X010052Y028657D01*
X010152Y028757D01*
X010152Y029557D01*
X010052Y029657D01*
X008652Y032707D02*
X007902Y032707D01*
X008652Y032707D02*
X008652Y037207D01*
X007902Y037207D01*
X008402Y037207D01*
X006902Y037207D02*
X005902Y037207D01*
X006402Y037207D02*
X006902Y037207D01*
X005402Y034957D02*
X005406Y035048D01*
X005419Y035138D01*
X005439Y035227D01*
X005468Y035313D01*
X005504Y035397D01*
X005548Y035477D01*
X005598Y035552D01*
X005656Y035623D01*
X005719Y035688D01*
X005789Y035747D01*
X005863Y035799D01*
X005942Y035845D01*
X006025Y035883D01*
X006110Y035914D01*
X006199Y035936D01*
X006288Y035951D01*
X006379Y035957D01*
X006470Y035955D01*
X006561Y035944D01*
X006650Y035926D01*
X006737Y035899D01*
X006821Y035865D01*
X006902Y035823D01*
X006979Y035774D01*
X007051Y035718D01*
X007117Y035656D01*
X007178Y035588D01*
X007232Y035515D01*
X007279Y035437D01*
X007319Y035355D01*
X007352Y035270D01*
X007376Y035183D01*
X007393Y035093D01*
X007401Y035003D01*
X007401Y034911D01*
X007393Y034821D01*
X007376Y034731D01*
X007352Y034644D01*
X007319Y034559D01*
X007279Y034477D01*
X007232Y034399D01*
X007178Y034326D01*
X007117Y034258D01*
X007051Y034196D01*
X006979Y034140D01*
X006902Y034091D01*
X006821Y034049D01*
X006737Y034015D01*
X006650Y033988D01*
X006561Y033970D01*
X006470Y033959D01*
X006379Y033957D01*
X006288Y033963D01*
X006199Y033978D01*
X006110Y034000D01*
X006025Y034031D01*
X005942Y034069D01*
X005863Y034115D01*
X005789Y034167D01*
X005719Y034226D01*
X005656Y034291D01*
X005598Y034362D01*
X005548Y034437D01*
X005504Y034517D01*
X005468Y034601D01*
X005439Y034687D01*
X005419Y034776D01*
X005406Y034866D01*
X005402Y034957D01*
X004902Y037207D02*
X004152Y037207D01*
X004152Y032707D01*
X004902Y032707D01*
X005902Y032707D02*
X006902Y032707D01*
X005152Y030657D02*
X004302Y030657D01*
X004152Y030657D01*
X004152Y030507D01*
X004302Y030657D01*
X004152Y030507D02*
X004152Y029807D01*
X004152Y029657D01*
X004302Y029657D01*
X005152Y029657D01*
X005002Y029657D02*
X004302Y029657D01*
X004152Y029807D01*
X004152Y029657D02*
X004302Y029657D01*
X004152Y029507D01*
X004152Y029657D01*
X004152Y029507D02*
X004152Y028807D01*
X004152Y028657D01*
X004302Y028657D01*
X005002Y028657D01*
X005152Y028807D01*
X005152Y029507D01*
X005302Y029657D01*
X006002Y029657D01*
X006152Y029507D01*
X006302Y029657D01*
X007002Y029657D01*
X007152Y029507D01*
X007152Y028807D01*
X007002Y028657D01*
X006302Y028657D01*
X006152Y028807D01*
X006002Y028657D01*
X005302Y028657D01*
X005152Y028807D01*
X005152Y029507D02*
X005002Y029657D01*
X004152Y028807D02*
X004302Y028657D01*
X004252Y027807D02*
X004152Y027807D01*
X004152Y027107D01*
X003902Y027107D01*
X003902Y027407D01*
X003752Y027407D01*
X003752Y026857D01*
X004152Y026857D01*
X004152Y027107D01*
X004152Y026857D02*
X004152Y026607D01*
X003902Y026607D01*
X003902Y026307D01*
X003752Y026307D01*
X003752Y026857D01*
X004152Y026607D02*
X004152Y025907D01*
X004252Y025907D01*
X004874Y024501D02*
X005779Y024501D01*
X004874Y024501D02*
X004874Y020957D01*
X004598Y020012D01*
X004598Y018713D01*
X005779Y018713D01*
X005602Y017907D02*
X005252Y017907D01*
X005602Y017907D02*
X005602Y017407D01*
X005252Y017407D01*
X004852Y017407D02*
X004502Y017407D01*
X004502Y017907D01*
X004452Y017857D01*
X004452Y017457D01*
X004502Y017407D01*
X004502Y017907D02*
X004852Y017907D01*
X004852Y016407D02*
X004502Y016407D01*
X004502Y015907D01*
X004852Y015907D01*
X005252Y015907D02*
X005602Y015907D01*
X005602Y016407D01*
X005252Y016407D01*
X004502Y016407D02*
X004452Y016357D01*
X004452Y015957D01*
X004502Y015907D01*
X004983Y013467D02*
X004983Y013430D01*
X004983Y013467D02*
X005621Y013467D01*
X005621Y013430D01*
X005621Y013113D02*
X005621Y013075D01*
X005621Y012739D02*
X005621Y012701D01*
X005621Y012384D02*
X005621Y012347D01*
X004983Y012347D01*
X004983Y012384D01*
X004983Y012701D02*
X004983Y013113D01*
X006202Y012817D02*
X006402Y012617D01*
X006402Y012884D01*
X006602Y012817D02*
X006202Y012817D01*
X006202Y012424D02*
X006536Y012424D01*
X006602Y012357D01*
X006602Y012224D01*
X006536Y012157D01*
X006202Y012157D01*
X006652Y010838D02*
X004172Y010838D01*
X004172Y008476D01*
X006652Y008476D01*
X006652Y008889D01*
X006217Y009050D02*
X006217Y009317D01*
X006217Y009050D02*
X005950Y009317D01*
X005883Y009317D01*
X005816Y009250D01*
X005816Y009116D01*
X005883Y009050D01*
X005950Y009837D02*
X005816Y009970D01*
X006217Y009970D01*
X006217Y009837D02*
X006217Y010104D01*
X006652Y010425D02*
X006652Y010838D01*
X006652Y009677D02*
X006652Y009637D01*
X009331Y014669D02*
X009724Y014669D01*
X009567Y015024D02*
X009567Y015103D01*
X009511Y015158D01*
X009488Y015214D02*
X009488Y015227D01*
X009511Y015283D02*
X009567Y015339D01*
X009511Y015394D01*
X009488Y015450D02*
X009488Y015464D01*
X009511Y015519D02*
X009567Y015575D01*
X009511Y015631D01*
X009488Y015686D02*
X009488Y015700D01*
X009511Y015756D02*
X009567Y015811D01*
X009567Y015890D01*
X009511Y015756D02*
X009501Y015744D01*
X009494Y015730D01*
X009490Y015715D01*
X009488Y015700D01*
X009488Y015686D02*
X009490Y015671D01*
X009494Y015656D01*
X009501Y015642D01*
X009511Y015630D01*
X009511Y015520D02*
X009501Y015508D01*
X009494Y015494D01*
X009490Y015479D01*
X009488Y015464D01*
X009488Y015450D02*
X009490Y015435D01*
X009494Y015420D01*
X009501Y015406D01*
X009511Y015394D01*
X009511Y015283D02*
X009501Y015271D01*
X009494Y015257D01*
X009490Y015242D01*
X009488Y015227D01*
X009488Y015214D02*
X009490Y015199D01*
X009494Y015184D01*
X009501Y015170D01*
X009511Y015158D01*
X009331Y016244D02*
X009724Y016244D01*
X010652Y016907D02*
X011552Y016907D01*
X011102Y016901D02*
X011496Y016310D01*
X010709Y016310D01*
X011102Y016901D01*
X009716Y018713D02*
X006882Y018713D01*
X006756Y018101D02*
X006756Y017313D01*
X007346Y017707D01*
X006756Y018101D01*
X007352Y018157D02*
X007352Y017257D01*
X007462Y016417D02*
X007202Y016417D01*
X007462Y016417D02*
X007462Y016107D01*
X006982Y015897D02*
X006822Y015897D01*
X006602Y016417D02*
X006342Y016417D01*
X006342Y016107D01*
X010307Y019343D02*
X010307Y020485D01*
X009716Y024501D02*
X006882Y024501D01*
X006452Y025705D02*
X006052Y025705D01*
X006052Y025905D01*
X006119Y025972D01*
X006252Y025972D01*
X006319Y025905D01*
X006319Y025705D01*
X006319Y025838D02*
X006452Y025972D01*
X006452Y026165D02*
X006452Y026432D01*
X006386Y026626D02*
X006452Y026692D01*
X006452Y026826D01*
X006386Y026893D01*
X006319Y026893D01*
X006252Y026826D01*
X006252Y026692D01*
X006186Y026626D01*
X006119Y026626D01*
X006052Y026692D01*
X006052Y026826D01*
X006119Y026893D01*
X006052Y027086D02*
X006452Y027086D01*
X006452Y027353D01*
X006252Y027219D02*
X006252Y027086D01*
X006052Y027086D02*
X006052Y027353D01*
X006052Y027546D02*
X006052Y027813D01*
X006052Y027680D02*
X006452Y027680D01*
X005652Y027807D02*
X005552Y027807D01*
X005652Y027807D02*
X005652Y025907D01*
X005552Y025907D01*
X006052Y026165D02*
X006052Y026432D01*
X006252Y026299D02*
X006252Y026165D01*
X006052Y026165D02*
X006452Y026165D01*
X012811Y030007D02*
X012811Y030407D01*
X013011Y030407D01*
X013078Y030340D01*
X013078Y030207D01*
X013011Y030140D01*
X012811Y030140D01*
X012944Y030140D02*
X013078Y030007D01*
X013271Y030007D02*
X013271Y030407D01*
X013538Y030407D01*
X013732Y030407D02*
X013732Y030007D01*
X013999Y030007D01*
X014192Y030007D02*
X014459Y030007D01*
X014325Y030007D02*
X014325Y030407D01*
X014192Y030274D01*
X013538Y030007D02*
X013271Y030007D01*
X013271Y030207D02*
X013405Y030207D01*
X014202Y029507D02*
X014552Y029507D01*
X014552Y029207D01*
X014552Y028707D02*
X014552Y028407D01*
X014202Y028407D01*
X014052Y028857D02*
X014052Y029057D01*
X016452Y029157D02*
X016452Y029557D01*
X016502Y029607D01*
X016502Y029107D01*
X016852Y029107D01*
X016502Y029107D02*
X016452Y029157D01*
X016502Y029607D02*
X016852Y029607D01*
X017252Y029607D02*
X017602Y029607D01*
X017602Y029107D01*
X017252Y029107D01*
X015852Y032057D02*
X015852Y032457D01*
X015602Y032707D02*
X016102Y032707D01*
X015602Y032707D02*
X015602Y033207D01*
X015852Y033957D02*
X015798Y033955D01*
X015745Y033949D01*
X015693Y033940D01*
X015641Y033927D01*
X015590Y033910D01*
X015540Y033889D01*
X015493Y033865D01*
X015447Y033838D01*
X015403Y033807D01*
X015361Y033774D01*
X015322Y033737D01*
X015285Y033698D01*
X015252Y033656D01*
X015221Y033612D01*
X015194Y033566D01*
X015170Y033519D01*
X015149Y033469D01*
X015132Y033418D01*
X015119Y033366D01*
X015110Y033314D01*
X015104Y033261D01*
X015102Y033207D01*
X015104Y033153D01*
X015110Y033100D01*
X015119Y033048D01*
X015132Y032996D01*
X015149Y032945D01*
X015170Y032895D01*
X015194Y032848D01*
X015221Y032802D01*
X015252Y032758D01*
X015285Y032716D01*
X015322Y032677D01*
X015361Y032640D01*
X015403Y032607D01*
X015447Y032576D01*
X015493Y032549D01*
X015540Y032525D01*
X015590Y032504D01*
X015641Y032487D01*
X015693Y032474D01*
X015745Y032465D01*
X015798Y032459D01*
X015852Y032457D01*
X016102Y033207D02*
X018202Y033207D01*
X018202Y032957D01*
X019802Y032957D02*
X019802Y033207D01*
X021902Y033207D01*
X022152Y033957D02*
X022098Y033955D01*
X022045Y033949D01*
X021993Y033940D01*
X021941Y033927D01*
X021890Y033910D01*
X021840Y033889D01*
X021793Y033865D01*
X021747Y033838D01*
X021703Y033807D01*
X021661Y033774D01*
X021622Y033737D01*
X021585Y033698D01*
X021552Y033656D01*
X021521Y033612D01*
X021494Y033566D01*
X021470Y033519D01*
X021449Y033469D01*
X021432Y033418D01*
X021419Y033366D01*
X021410Y033314D01*
X021404Y033261D01*
X021402Y033207D01*
X021404Y033153D01*
X021410Y033100D01*
X021419Y033048D01*
X021432Y032996D01*
X021449Y032945D01*
X021470Y032895D01*
X021494Y032848D01*
X021521Y032802D01*
X021552Y032758D01*
X021585Y032716D01*
X021622Y032677D01*
X021661Y032640D01*
X021703Y032607D01*
X021747Y032576D01*
X021793Y032549D01*
X021840Y032525D01*
X021890Y032504D01*
X021941Y032487D01*
X021993Y032474D01*
X022045Y032465D01*
X022098Y032459D01*
X022152Y032457D01*
X021902Y032707D02*
X022402Y032707D01*
X022402Y033207D02*
X024502Y033207D01*
X024502Y032957D01*
X023902Y029607D02*
X023552Y029607D01*
X023902Y029607D02*
X023902Y029107D01*
X023552Y029107D01*
X023752Y028807D02*
X023953Y028807D01*
X024019Y028740D01*
X024019Y028474D01*
X023953Y028407D01*
X023752Y028407D01*
X023752Y028807D01*
X024213Y028740D02*
X024213Y028674D01*
X024279Y028607D01*
X024413Y028607D01*
X024480Y028540D01*
X024480Y028474D01*
X024413Y028407D01*
X024279Y028407D01*
X024213Y028474D01*
X024213Y028540D01*
X024279Y028607D01*
X024413Y028607D02*
X024480Y028674D01*
X024480Y028740D01*
X024413Y028807D01*
X024279Y028807D01*
X024213Y028740D01*
X023152Y029107D02*
X022802Y029107D01*
X022802Y029607D01*
X022752Y029557D01*
X022752Y029157D01*
X022802Y029107D01*
X022802Y029607D02*
X023152Y029607D01*
X025919Y026413D02*
X026186Y026146D01*
X026252Y026213D01*
X026252Y026347D01*
X026186Y026413D01*
X025919Y026413D01*
X025852Y026347D01*
X025852Y026213D01*
X025919Y026146D01*
X026186Y026146D01*
X026052Y025953D02*
X026052Y025686D01*
X025852Y025886D01*
X026252Y025886D01*
X026836Y036246D02*
X026702Y036380D01*
X027102Y036380D01*
X027102Y036513D02*
X027102Y036246D01*
X027702Y036313D02*
X027769Y036246D01*
X027702Y036313D02*
X027702Y036447D01*
X027769Y036513D01*
X027836Y036513D01*
X028102Y036246D01*
X028102Y036513D01*
X025636Y040265D02*
X025369Y040265D01*
X025302Y040332D01*
X025302Y040465D01*
X025369Y040532D01*
X025369Y040726D02*
X025636Y040726D01*
X025702Y040792D01*
X025702Y040926D01*
X025636Y040993D01*
X025369Y040993D01*
X025302Y040926D01*
X025302Y040792D01*
X025369Y040726D01*
X025636Y040532D02*
X025702Y040465D01*
X025702Y040332D01*
X025636Y040265D01*
X025702Y041186D02*
X025302Y041186D01*
X025702Y041453D01*
X025302Y041453D01*
X025369Y041646D02*
X025302Y041713D01*
X025302Y041847D01*
X025369Y041913D01*
X025436Y041913D01*
X025702Y041646D01*
X025702Y041913D01*
X025105Y041727D02*
X025105Y041196D01*
X025105Y041727D02*
X019200Y041727D01*
X019200Y041196D01*
X018805Y041196D02*
X018116Y041196D01*
X019984Y039326D02*
X019986Y039354D01*
X019992Y039382D01*
X020002Y039409D01*
X020016Y039434D01*
X020033Y039457D01*
X020053Y039477D01*
X020076Y039494D01*
X020101Y039508D01*
X020128Y039518D01*
X020156Y039524D01*
X020184Y039526D01*
X020212Y039524D01*
X020240Y039518D01*
X020267Y039508D01*
X020292Y039494D01*
X020315Y039477D01*
X020335Y039457D01*
X020352Y039434D01*
X020366Y039409D01*
X020376Y039382D01*
X020382Y039354D01*
X020384Y039326D01*
X020382Y039298D01*
X020376Y039270D01*
X020366Y039243D01*
X020352Y039218D01*
X020335Y039195D01*
X020315Y039175D01*
X020292Y039158D01*
X020267Y039144D01*
X020240Y039134D01*
X020212Y039128D01*
X020184Y039126D01*
X020156Y039128D01*
X020128Y039134D01*
X020101Y039144D01*
X020076Y039158D01*
X020053Y039175D01*
X020033Y039195D01*
X020016Y039218D01*
X020002Y039243D01*
X019992Y039270D01*
X019986Y039298D01*
X019984Y039326D01*
X021952Y039326D02*
X021954Y039354D01*
X021960Y039382D01*
X021970Y039409D01*
X021984Y039434D01*
X022001Y039457D01*
X022021Y039477D01*
X022044Y039494D01*
X022069Y039508D01*
X022096Y039518D01*
X022124Y039524D01*
X022152Y039526D01*
X022180Y039524D01*
X022208Y039518D01*
X022235Y039508D01*
X022260Y039494D01*
X022283Y039477D01*
X022303Y039457D01*
X022320Y039434D01*
X022334Y039409D01*
X022344Y039382D01*
X022350Y039354D01*
X022352Y039326D01*
X022350Y039298D01*
X022344Y039270D01*
X022334Y039243D01*
X022320Y039218D01*
X022303Y039195D01*
X022283Y039175D01*
X022260Y039158D01*
X022235Y039144D01*
X022208Y039134D01*
X022180Y039128D01*
X022152Y039126D01*
X022124Y039128D01*
X022096Y039134D01*
X022069Y039144D01*
X022044Y039158D01*
X022021Y039175D01*
X022001Y039195D01*
X021984Y039218D01*
X021970Y039243D01*
X021960Y039270D01*
X021954Y039298D01*
X021952Y039326D01*
X023921Y039326D02*
X023923Y039354D01*
X023929Y039382D01*
X023939Y039409D01*
X023953Y039434D01*
X023970Y039457D01*
X023990Y039477D01*
X024013Y039494D01*
X024038Y039508D01*
X024065Y039518D01*
X024093Y039524D01*
X024121Y039526D01*
X024149Y039524D01*
X024177Y039518D01*
X024204Y039508D01*
X024229Y039494D01*
X024252Y039477D01*
X024272Y039457D01*
X024289Y039434D01*
X024303Y039409D01*
X024313Y039382D01*
X024319Y039354D01*
X024321Y039326D01*
X024319Y039298D01*
X024313Y039270D01*
X024303Y039243D01*
X024289Y039218D01*
X024272Y039195D01*
X024252Y039175D01*
X024229Y039158D01*
X024204Y039144D01*
X024177Y039134D01*
X024149Y039128D01*
X024121Y039126D01*
X024093Y039128D01*
X024065Y039134D01*
X024038Y039144D01*
X024013Y039158D01*
X023990Y039175D01*
X023970Y039195D01*
X023953Y039218D01*
X023939Y039243D01*
X023929Y039270D01*
X023923Y039298D01*
X023921Y039326D01*
X015652Y039326D02*
X015654Y039354D01*
X015660Y039382D01*
X015670Y039409D01*
X015684Y039434D01*
X015701Y039457D01*
X015721Y039477D01*
X015744Y039494D01*
X015769Y039508D01*
X015796Y039518D01*
X015824Y039524D01*
X015852Y039526D01*
X015880Y039524D01*
X015908Y039518D01*
X015935Y039508D01*
X015960Y039494D01*
X015983Y039477D01*
X016003Y039457D01*
X016020Y039434D01*
X016034Y039409D01*
X016044Y039382D01*
X016050Y039354D01*
X016052Y039326D01*
X016050Y039298D01*
X016044Y039270D01*
X016034Y039243D01*
X016020Y039218D01*
X016003Y039195D01*
X015983Y039175D01*
X015960Y039158D01*
X015935Y039144D01*
X015908Y039134D01*
X015880Y039128D01*
X015852Y039126D01*
X015824Y039128D01*
X015796Y039134D01*
X015769Y039144D01*
X015744Y039158D01*
X015721Y039175D01*
X015701Y039195D01*
X015684Y039218D01*
X015670Y039243D01*
X015660Y039270D01*
X015654Y039298D01*
X015652Y039326D01*
X013684Y039326D02*
X013686Y039354D01*
X013692Y039382D01*
X013702Y039409D01*
X013716Y039434D01*
X013733Y039457D01*
X013753Y039477D01*
X013776Y039494D01*
X013801Y039508D01*
X013828Y039518D01*
X013856Y039524D01*
X013884Y039526D01*
X013912Y039524D01*
X013940Y039518D01*
X013967Y039508D01*
X013992Y039494D01*
X014015Y039477D01*
X014035Y039457D01*
X014052Y039434D01*
X014066Y039409D01*
X014076Y039382D01*
X014082Y039354D01*
X014084Y039326D01*
X014082Y039298D01*
X014076Y039270D01*
X014066Y039243D01*
X014052Y039218D01*
X014035Y039195D01*
X014015Y039175D01*
X013992Y039158D01*
X013967Y039144D01*
X013940Y039134D01*
X013912Y039128D01*
X013884Y039126D01*
X013856Y039128D01*
X013828Y039134D01*
X013801Y039144D01*
X013776Y039158D01*
X013753Y039175D01*
X013733Y039195D01*
X013716Y039218D01*
X013702Y039243D01*
X013692Y039270D01*
X013686Y039298D01*
X013684Y039326D01*
X011437Y039326D02*
X011439Y039354D01*
X011445Y039382D01*
X011455Y039409D01*
X011469Y039434D01*
X011486Y039457D01*
X011506Y039477D01*
X011529Y039494D01*
X011554Y039508D01*
X011581Y039518D01*
X011609Y039524D01*
X011637Y039526D01*
X011665Y039524D01*
X011693Y039518D01*
X011720Y039508D01*
X011745Y039494D01*
X011768Y039477D01*
X011788Y039457D01*
X011805Y039434D01*
X011819Y039409D01*
X011829Y039382D01*
X011835Y039354D01*
X011837Y039326D01*
X011835Y039298D01*
X011829Y039270D01*
X011819Y039243D01*
X011805Y039218D01*
X011788Y039195D01*
X011768Y039175D01*
X011745Y039158D01*
X011720Y039144D01*
X011693Y039134D01*
X011665Y039128D01*
X011637Y039126D01*
X011609Y039128D01*
X011581Y039134D01*
X011554Y039144D01*
X011529Y039158D01*
X011506Y039175D01*
X011486Y039195D01*
X011469Y039218D01*
X011455Y039243D01*
X011445Y039270D01*
X011439Y039298D01*
X011437Y039326D01*
X013502Y033207D02*
X013502Y032957D01*
D16*
X015042Y018677D02*
X015462Y018677D01*
X015692Y018447D01*
X015692Y017627D01*
X015482Y017417D01*
X015042Y017417D01*
X014822Y017637D01*
X014822Y017977D01*
X014822Y018387D02*
X014822Y018457D01*
X015042Y018677D01*
X016152Y018657D02*
X016152Y017597D01*
X016332Y017417D01*
X016722Y017417D01*
X017962Y018467D02*
X018002Y018467D01*
D17*
X016912Y018467D02*
X016912Y017887D01*
X019142Y018052D02*
X019617Y018052D01*
X020292Y017867D02*
X020312Y017887D01*
X020447Y017887D01*
X020467Y017867D01*
X020462Y018207D02*
X020322Y018207D01*
D18*
X020292Y018227D02*
X019842Y018667D01*
X019332Y018667D01*
X019142Y018467D01*
X019142Y018052D01*
X019147Y018057D02*
X019147Y017587D01*
X019317Y017417D01*
X019842Y017417D01*
X020292Y017867D01*
X020467Y017867D02*
X020802Y017547D01*
X020472Y018227D02*
X020792Y018547D01*
X018642Y018657D02*
X018642Y017617D01*
X018002Y018177D02*
X018002Y018467D01*
X017962Y018467D02*
X017732Y018657D01*
X017392Y018657D01*
X017392Y017617D01*
X018052Y018467D02*
X018292Y018657D01*
X018642Y018657D01*
D19*
X018702Y018657D02*
X018702Y018727D01*
X017861Y017977D02*
X017863Y018001D01*
X017869Y018024D01*
X017879Y018046D01*
X017892Y018066D01*
X017909Y018083D01*
X017928Y018097D01*
X017949Y018108D01*
X017972Y018115D01*
X017996Y018118D01*
X018020Y018117D01*
X018043Y018112D01*
X018065Y018103D01*
X018086Y018090D01*
X018104Y018075D01*
X018119Y018056D01*
X018130Y018035D01*
X018138Y018013D01*
X018142Y017989D01*
X018142Y017965D01*
X018138Y017941D01*
X018130Y017919D01*
X018119Y017898D01*
X018104Y017879D01*
X018086Y017864D01*
X018065Y017851D01*
X018043Y017842D01*
X018020Y017837D01*
X017996Y017836D01*
X017972Y017839D01*
X017949Y017846D01*
X017928Y017857D01*
X017909Y017871D01*
X017892Y017888D01*
X017879Y017908D01*
X017869Y017930D01*
X017863Y017953D01*
X017861Y017977D01*
X017252Y017417D02*
X017254Y017441D01*
X017260Y017464D01*
X017270Y017485D01*
X017283Y017505D01*
X017300Y017522D01*
X017319Y017536D01*
X017340Y017547D01*
X017363Y017554D01*
X017386Y017557D01*
X017410Y017556D01*
X017433Y017551D01*
X017455Y017542D01*
X017475Y017530D01*
X017493Y017514D01*
X017508Y017495D01*
X017520Y017475D01*
X017527Y017452D01*
X017531Y017429D01*
X017531Y017405D01*
X017527Y017382D01*
X017520Y017359D01*
X017508Y017339D01*
X017493Y017320D01*
X017475Y017304D01*
X017455Y017292D01*
X017433Y017283D01*
X017410Y017278D01*
X017386Y017277D01*
X017363Y017280D01*
X017340Y017287D01*
X017319Y017298D01*
X017300Y017312D01*
X017283Y017329D01*
X017270Y017349D01*
X017260Y017370D01*
X017254Y017393D01*
X017252Y017417D01*
X016770Y017422D02*
X016772Y017446D01*
X016778Y017469D01*
X016788Y017490D01*
X016801Y017510D01*
X016818Y017527D01*
X016837Y017541D01*
X016858Y017552D01*
X016881Y017559D01*
X016904Y017562D01*
X016928Y017561D01*
X016951Y017556D01*
X016973Y017547D01*
X016993Y017535D01*
X017011Y017519D01*
X017026Y017500D01*
X017038Y017480D01*
X017045Y017457D01*
X017049Y017434D01*
X017049Y017410D01*
X017045Y017387D01*
X017038Y017364D01*
X017026Y017344D01*
X017011Y017325D01*
X016993Y017309D01*
X016973Y017297D01*
X016951Y017288D01*
X016928Y017283D01*
X016904Y017282D01*
X016881Y017285D01*
X016858Y017292D01*
X016837Y017303D01*
X016818Y017317D01*
X016801Y017334D01*
X016788Y017354D01*
X016778Y017375D01*
X016772Y017398D01*
X016770Y017422D01*
X016762Y018692D02*
X016764Y018716D01*
X016770Y018739D01*
X016780Y018760D01*
X016793Y018780D01*
X016810Y018797D01*
X016829Y018811D01*
X016850Y018822D01*
X016873Y018829D01*
X016896Y018832D01*
X016920Y018831D01*
X016943Y018826D01*
X016965Y018817D01*
X016985Y018805D01*
X017003Y018789D01*
X017018Y018770D01*
X017030Y018750D01*
X017037Y018727D01*
X017041Y018704D01*
X017041Y018680D01*
X017037Y018657D01*
X017030Y018634D01*
X017018Y018614D01*
X017003Y018595D01*
X016985Y018579D01*
X016965Y018567D01*
X016943Y018558D01*
X016920Y018553D01*
X016896Y018552D01*
X016873Y018555D01*
X016850Y018562D01*
X016829Y018573D01*
X016810Y018587D01*
X016793Y018604D01*
X016780Y018624D01*
X016770Y018645D01*
X016764Y018668D01*
X016762Y018692D01*
X017332Y018717D02*
X017332Y018607D01*
X018500Y017417D02*
X018502Y017441D01*
X018508Y017464D01*
X018518Y017486D01*
X018532Y017506D01*
X018548Y017524D01*
X018568Y017538D01*
X018589Y017549D01*
X018612Y017556D01*
X018636Y017559D01*
X018660Y017558D01*
X018684Y017553D01*
X018706Y017544D01*
X018726Y017531D01*
X018745Y017515D01*
X018760Y017497D01*
X018771Y017475D01*
X018779Y017453D01*
X018783Y017429D01*
X018783Y017405D01*
X018779Y017381D01*
X018771Y017359D01*
X018760Y017337D01*
X018745Y017319D01*
X018726Y017303D01*
X018706Y017290D01*
X018684Y017281D01*
X018660Y017276D01*
X018636Y017275D01*
X018612Y017278D01*
X018589Y017285D01*
X018568Y017296D01*
X018548Y017310D01*
X018532Y017328D01*
X018518Y017348D01*
X018508Y017370D01*
X018502Y017393D01*
X018500Y017417D01*
X019651Y018047D02*
X019653Y018071D01*
X019659Y018094D01*
X019669Y018115D01*
X019683Y018134D01*
X019700Y018151D01*
X019719Y018165D01*
X019740Y018175D01*
X019763Y018181D01*
X019787Y018183D01*
X019811Y018181D01*
X019834Y018175D01*
X019855Y018165D01*
X019874Y018151D01*
X019891Y018134D01*
X019905Y018115D01*
X019915Y018094D01*
X019921Y018071D01*
X019923Y018047D01*
X019921Y018023D01*
X019915Y018000D01*
X019905Y017979D01*
X019891Y017960D01*
X019874Y017943D01*
X019855Y017929D01*
X019834Y017919D01*
X019811Y017913D01*
X019787Y017911D01*
X019763Y017913D01*
X019740Y017919D01*
X019719Y017929D01*
X019700Y017943D01*
X019683Y017960D01*
X019669Y017979D01*
X019659Y018000D01*
X019653Y018023D01*
X019651Y018047D01*
X020799Y018682D02*
X020801Y018706D01*
X020807Y018729D01*
X020817Y018751D01*
X020831Y018771D01*
X020848Y018788D01*
X020868Y018802D01*
X020890Y018812D01*
X020913Y018818D01*
X020937Y018820D01*
X020961Y018818D01*
X020984Y018812D01*
X021006Y018802D01*
X021026Y018788D01*
X021043Y018771D01*
X021057Y018751D01*
X021067Y018729D01*
X021073Y018706D01*
X021075Y018682D01*
X021073Y018658D01*
X021067Y018635D01*
X021057Y018613D01*
X021043Y018593D01*
X021026Y018576D01*
X021006Y018562D01*
X020984Y018552D01*
X020961Y018546D01*
X020937Y018544D01*
X020913Y018546D01*
X020890Y018552D01*
X020868Y018562D01*
X020848Y018576D01*
X020831Y018593D01*
X020817Y018613D01*
X020807Y018635D01*
X020801Y018658D01*
X020799Y018682D01*
X020807Y017412D02*
X020809Y017435D01*
X020815Y017458D01*
X020825Y017480D01*
X020839Y017499D01*
X020855Y017515D01*
X020874Y017529D01*
X020896Y017539D01*
X020919Y017545D01*
X020942Y017547D01*
X020965Y017545D01*
X020988Y017539D01*
X021009Y017529D01*
X021029Y017515D01*
X021045Y017499D01*
X021059Y017480D01*
X021069Y017458D01*
X021075Y017435D01*
X021077Y017412D01*
X021075Y017389D01*
X021069Y017366D01*
X021059Y017345D01*
X021045Y017325D01*
X021029Y017309D01*
X021010Y017295D01*
X020988Y017285D01*
X020965Y017279D01*
X020942Y017277D01*
X020919Y017279D01*
X020896Y017285D01*
X020874Y017295D01*
X020855Y017309D01*
X020839Y017325D01*
X020825Y017344D01*
X020815Y017366D01*
X020809Y017389D01*
X020807Y017412D01*
D20*
X020547Y021217D02*
X020532Y021217D01*
X020516Y021218D01*
X020500Y021223D01*
X020486Y021230D01*
X020473Y021240D01*
X020462Y021252D01*
X020453Y021266D01*
X020442Y021310D02*
X020442Y021312D01*
X020442Y021448D01*
X020442Y021577D02*
X020442Y021312D01*
X020443Y021312D02*
X020441Y021296D01*
X020436Y021281D01*
X020428Y021267D01*
X020347Y021227D02*
X020332Y021227D01*
X020316Y021228D01*
X020300Y021233D01*
X020286Y021240D01*
X020273Y021250D01*
X020262Y021262D01*
X020253Y021276D01*
X020242Y021320D02*
X020242Y021578D01*
X019921Y021514D02*
X019915Y021486D01*
X019913Y021458D01*
X019912Y021458D02*
X019912Y021320D01*
X019923Y021276D02*
X019932Y021262D01*
X019943Y021250D01*
X019956Y021240D01*
X019970Y021233D01*
X019986Y021228D01*
X020002Y021227D01*
X020017Y021227D01*
X020098Y021267D02*
X020106Y021281D01*
X020111Y021296D01*
X020113Y021312D01*
X020112Y021312D02*
X020112Y021727D01*
X020031Y021577D02*
X020014Y021577D01*
X020031Y021577D02*
X020045Y021576D01*
X020058Y021572D01*
X020071Y021566D01*
X020082Y021558D01*
X020083Y021557D02*
X020094Y021543D01*
X020103Y021527D01*
X020109Y021510D01*
X020004Y021577D02*
X019984Y021573D01*
X019965Y021565D01*
X019947Y021553D01*
X019933Y021538D01*
X019921Y021514D01*
X019789Y021500D02*
X019792Y021477D01*
X019601Y021514D02*
X019595Y021486D01*
X019593Y021458D01*
X019592Y021458D02*
X019592Y021227D01*
X019462Y021227D02*
X019462Y021457D01*
X019302Y021387D01*
X019463Y021472D02*
X019460Y021491D01*
X019455Y021510D01*
X019447Y021528D01*
X019436Y021544D01*
X019422Y021558D01*
X019371Y021577D02*
X019344Y021577D01*
X019371Y021577D02*
X019385Y021576D01*
X019398Y021572D01*
X019411Y021566D01*
X019422Y021558D01*
X019462Y021472D02*
X019462Y021457D01*
X019344Y021577D02*
X019324Y021573D01*
X019305Y021565D01*
X019287Y021553D01*
X019273Y021538D01*
X019252Y021507D01*
X019112Y021472D02*
X019112Y021227D01*
X019242Y021277D02*
X019246Y021264D01*
X019252Y021252D01*
X019261Y021242D01*
X019272Y021234D01*
X019285Y021228D01*
X019298Y021226D01*
X019312Y021227D01*
X019382Y021237D01*
X019242Y021277D02*
X019238Y021294D01*
X019239Y021311D01*
X019242Y021329D01*
X019249Y021345D01*
X019259Y021359D01*
X019271Y021371D01*
X019286Y021381D01*
X019302Y021387D01*
X019072Y021558D02*
X019061Y021566D01*
X019048Y021572D01*
X019035Y021576D01*
X019021Y021577D01*
X018994Y021577D01*
X018923Y021538D02*
X018902Y021507D01*
X018902Y021727D01*
X018902Y021507D02*
X018902Y021227D01*
X019113Y021472D02*
X019110Y021491D01*
X019105Y021510D01*
X019097Y021528D01*
X019086Y021544D01*
X019072Y021558D01*
X018994Y021577D02*
X018974Y021573D01*
X018955Y021565D01*
X018937Y021553D01*
X018923Y021538D01*
X019601Y021514D02*
X019613Y021538D01*
X019684Y021577D02*
X019701Y021577D01*
X019752Y021557D02*
X019763Y021546D01*
X019752Y021558D02*
X019741Y021566D01*
X019728Y021572D01*
X019715Y021576D01*
X019701Y021577D01*
X019763Y021547D02*
X019774Y021533D01*
X019783Y021517D01*
X019789Y021500D01*
X019684Y021577D02*
X019664Y021573D01*
X019645Y021565D01*
X019627Y021553D01*
X019613Y021538D01*
X019912Y021320D02*
X019913Y021305D01*
X019917Y021290D01*
X019923Y021275D01*
X020017Y021227D02*
X020035Y021229D01*
X020053Y021234D01*
X020070Y021242D01*
X020085Y021253D01*
X020097Y021267D01*
X020242Y021320D02*
X020243Y021305D01*
X020247Y021290D01*
X020253Y021275D01*
X020347Y021227D02*
X020365Y021229D01*
X020383Y021234D01*
X020400Y021242D01*
X020415Y021253D01*
X020427Y021267D01*
X020453Y021265D02*
X020447Y021280D01*
X020443Y021295D01*
X020442Y021310D01*
X020547Y021217D02*
X020565Y021219D01*
X020583Y021224D01*
X020600Y021232D01*
X020615Y021243D01*
X020627Y021257D01*
X020642Y021302D02*
X020642Y021577D01*
X020782Y021507D02*
X020803Y021538D01*
X020874Y021577D02*
X020901Y021577D01*
X020915Y021576D01*
X020928Y021572D01*
X020941Y021566D01*
X020952Y021558D01*
X020992Y021472D02*
X020992Y021457D01*
X020832Y021387D01*
X020993Y021472D02*
X020990Y021491D01*
X020985Y021510D01*
X020977Y021528D01*
X020966Y021544D01*
X020952Y021558D01*
X020874Y021577D02*
X020854Y021573D01*
X020835Y021565D01*
X020817Y021553D01*
X020803Y021538D01*
X020992Y021457D02*
X020992Y021227D01*
X020912Y021237D02*
X020842Y021227D01*
X020828Y021226D01*
X020815Y021228D01*
X020802Y021234D01*
X020791Y021242D01*
X020782Y021252D01*
X020776Y021264D01*
X020772Y021277D01*
X020768Y021294D01*
X020769Y021311D01*
X020772Y021329D01*
X020779Y021345D01*
X020789Y021359D01*
X020801Y021371D01*
X020816Y021381D01*
X020832Y021387D01*
X020643Y021302D02*
X020641Y021286D01*
X020636Y021271D01*
X020628Y021257D01*
X021122Y021227D02*
X021122Y021458D01*
X021131Y021514D02*
X021143Y021538D01*
X021214Y021577D02*
X021231Y021577D01*
X021282Y021557D02*
X021293Y021546D01*
X021319Y021500D02*
X021322Y021477D01*
X021131Y021514D02*
X021125Y021486D01*
X021123Y021458D01*
X021293Y021547D02*
X021304Y021533D01*
X021313Y021517D01*
X021319Y021500D01*
X021282Y021558D02*
X021271Y021566D01*
X021258Y021572D01*
X021245Y021576D01*
X021231Y021577D01*
X021214Y021577D02*
X021194Y021573D01*
X021175Y021565D01*
X021157Y021553D01*
X021143Y021538D01*
X021481Y021514D02*
X021493Y021538D01*
X021472Y021458D02*
X021472Y021357D01*
X021672Y021447D01*
X021672Y021493D01*
X021481Y021514D02*
X021475Y021486D01*
X021473Y021458D01*
X021472Y021357D02*
X021472Y021320D01*
X021483Y021276D02*
X021492Y021262D01*
X021503Y021250D01*
X021516Y021240D01*
X021530Y021233D01*
X021546Y021228D01*
X021562Y021227D01*
X021577Y021227D01*
X021658Y021267D02*
X021666Y021281D01*
X021671Y021296D01*
X021673Y021312D01*
X021657Y021267D02*
X021645Y021253D01*
X021630Y021242D01*
X021613Y021234D01*
X021595Y021229D01*
X021577Y021227D01*
X021483Y021275D02*
X021477Y021290D01*
X021473Y021305D01*
X021472Y021320D01*
X021493Y021538D02*
X021507Y021553D01*
X021525Y021565D01*
X021544Y021573D01*
X021564Y021577D01*
X021574Y021577D02*
X021591Y021577D01*
X021605Y021576D01*
X021618Y021572D01*
X021631Y021566D01*
X021642Y021558D01*
X021662Y021527D02*
X021668Y021517D01*
X021671Y021505D01*
X021672Y021493D01*
X021669Y021510D02*
X021663Y021527D01*
X021654Y021543D01*
X021643Y021557D01*
X023322Y029567D02*
X023252Y029637D01*
X023302Y029637D01*
X023252Y029637D02*
X023252Y029587D01*
X023392Y029587D02*
X023392Y029637D01*
X023442Y029637D01*
X023392Y029637D02*
X023462Y029567D01*
X017162Y029567D02*
X017092Y029637D01*
X017142Y029637D01*
X017092Y029637D02*
X017092Y029587D01*
X017022Y029567D02*
X016952Y029637D01*
X017002Y029637D01*
X016952Y029637D02*
X016952Y029587D01*
X011361Y028986D02*
X011361Y028852D01*
X011327Y028756D02*
X011127Y028756D01*
X011127Y028622D02*
X011327Y028756D01*
X011327Y028622D02*
X011127Y028622D01*
X011194Y028526D02*
X011327Y028526D01*
X011227Y028526D02*
X011227Y028392D01*
X011194Y028392D02*
X011127Y028459D01*
X011194Y028526D01*
X011194Y028392D02*
X011327Y028392D01*
X011327Y028295D02*
X011327Y028162D01*
X011127Y028162D01*
X011127Y028065D02*
X011327Y028065D01*
X011261Y027999D01*
X011327Y027932D01*
X011127Y027932D01*
X011127Y029083D02*
X011327Y029083D01*
X011327Y029216D01*
X011327Y029313D02*
X011327Y029446D01*
X011327Y029543D02*
X011327Y029643D01*
X011294Y029676D01*
X011161Y029676D01*
X011127Y029643D01*
X011127Y029543D01*
X011327Y029543D01*
X011227Y029379D02*
X011227Y029313D01*
X011127Y029313D02*
X011327Y029313D01*
X011127Y029313D02*
X011127Y029446D01*
X005142Y017937D02*
X005092Y017937D01*
X005092Y017887D01*
X005092Y017937D02*
X005162Y017867D01*
X005022Y017867D02*
X004952Y017937D01*
X005002Y017937D01*
X004952Y017937D02*
X004952Y017887D01*
X004952Y016437D02*
X005002Y016437D01*
X004952Y016437D02*
X004952Y016387D01*
X004952Y016437D02*
X005022Y016367D01*
X005092Y016387D02*
X005092Y016437D01*
X005142Y016437D01*
X005092Y016437D02*
X005162Y016367D01*
X008334Y002578D02*
X008334Y002546D01*
X008398Y002482D01*
X008398Y002387D01*
X008398Y002482D02*
X008461Y002546D01*
X008461Y002578D01*
X008555Y002578D02*
X008555Y002387D01*
X008682Y002387D01*
X008776Y002387D02*
X008903Y002387D01*
X008997Y002387D02*
X009124Y002387D01*
X009218Y002419D02*
X009250Y002387D01*
X009313Y002387D01*
X009345Y002419D01*
X009345Y002546D01*
X009313Y002578D01*
X009250Y002578D01*
X009218Y002546D01*
X009218Y002419D01*
X008997Y002387D02*
X008997Y002578D01*
X008776Y002578D02*
X008776Y002387D01*
X008619Y002482D02*
X008555Y002482D01*
X008555Y002578D02*
X008682Y002578D01*
X009439Y002578D02*
X009439Y002387D01*
X009502Y002451D01*
X009566Y002387D01*
X009566Y002578D01*
X012779Y002546D02*
X012779Y002419D01*
X012811Y002387D01*
X012874Y002387D01*
X012906Y002419D01*
X012906Y002482D01*
X012842Y002482D01*
X012779Y002546D02*
X012811Y002578D01*
X012874Y002578D01*
X012906Y002546D01*
X013000Y002578D02*
X013095Y002578D01*
X013127Y002546D01*
X013127Y002482D01*
X013095Y002451D01*
X013000Y002451D01*
X013063Y002451D02*
X013127Y002387D01*
X013221Y002387D02*
X013348Y002387D01*
X013442Y002387D02*
X013569Y002387D01*
X013663Y002387D02*
X013663Y002578D01*
X013790Y002387D01*
X013790Y002578D01*
X013569Y002578D02*
X013442Y002578D01*
X013442Y002387D01*
X013442Y002482D02*
X013505Y002482D01*
X013348Y002578D02*
X013221Y002578D01*
X013221Y002387D01*
X013221Y002482D02*
X013284Y002482D01*
X013000Y002387D02*
X013000Y002578D01*
X015534Y002578D02*
X015534Y002546D01*
X015598Y002482D01*
X015598Y002387D01*
X015598Y002482D02*
X015661Y002546D01*
X015661Y002578D01*
X015755Y002578D02*
X015755Y002387D01*
X015882Y002387D01*
X015976Y002387D02*
X016103Y002387D01*
X016197Y002387D02*
X016324Y002387D01*
X016418Y002419D02*
X016450Y002387D01*
X016513Y002387D01*
X016545Y002419D01*
X016545Y002546D01*
X016513Y002578D01*
X016450Y002578D01*
X016418Y002546D01*
X016418Y002419D01*
X016197Y002387D02*
X016197Y002578D01*
X015976Y002578D02*
X015976Y002387D01*
X015819Y002482D02*
X015755Y002482D01*
X015755Y002578D02*
X015882Y002578D01*
X016639Y002578D02*
X016639Y002387D01*
X016702Y002451D01*
X016766Y002387D01*
X016766Y002578D01*
X019979Y002546D02*
X019979Y002419D01*
X020011Y002387D01*
X020074Y002387D01*
X020106Y002419D01*
X020106Y002482D01*
X020042Y002482D01*
X019979Y002546D02*
X020011Y002578D01*
X020074Y002578D01*
X020106Y002546D01*
X020200Y002578D02*
X020295Y002578D01*
X020327Y002546D01*
X020327Y002482D01*
X020295Y002451D01*
X020200Y002451D01*
X020263Y002451D02*
X020327Y002387D01*
X020421Y002387D02*
X020548Y002387D01*
X020642Y002387D02*
X020769Y002387D01*
X020863Y002387D02*
X020863Y002578D01*
X020990Y002387D01*
X020990Y002578D01*
X020769Y002578D02*
X020642Y002578D01*
X020642Y002387D01*
X020642Y002482D02*
X020705Y002482D01*
X020548Y002578D02*
X020421Y002578D01*
X020421Y002387D01*
X020421Y002482D02*
X020484Y002482D01*
X020200Y002387D02*
X020200Y002578D01*
X025977Y010161D02*
X025827Y010311D01*
X026277Y010311D01*
X026277Y010161D02*
X026277Y010461D01*
X026202Y010621D02*
X025902Y010922D01*
X026202Y010922D01*
X026277Y010847D01*
X026277Y010696D01*
X026202Y010621D01*
X025902Y010621D01*
X025827Y010696D01*
X025827Y010847D01*
X025902Y010922D01*
D21*
X022808Y028607D03*
X016508Y028607D03*
X007758Y031407D03*
D22*
X007739Y031407D02*
X007187Y031643D01*
X007187Y031171D01*
X007739Y031407D01*
X015937Y028843D02*
X015937Y028371D01*
X016489Y028607D01*
X015937Y028843D01*
X022237Y028843D02*
X022237Y028371D01*
X022789Y028607D01*
X022237Y028843D01*
D23*
X010727Y035757D03*
D24*
X026052Y014257D02*
X026052Y011457D01*
X026052Y009857D02*
X026052Y009457D01*
X026052Y008857D02*
X026052Y007057D01*
X028752Y007057D01*
X028752Y014257D01*
X026052Y014257D01*
D25*
X013724Y024552D02*
X013483Y024552D01*
X013604Y024552D02*
X013604Y024912D01*
X013483Y024792D01*
X013309Y024852D02*
X013249Y024912D01*
X013129Y024912D01*
X013069Y024852D01*
X013069Y024612D01*
X013129Y024552D01*
X013249Y024552D01*
X013309Y024612D01*
X012895Y024552D02*
X012895Y024912D01*
X012775Y024792D01*
X012655Y024912D01*
X012655Y024552D01*
X012481Y024552D02*
X012481Y024912D01*
X012361Y024792D01*
X012240Y024912D01*
X012240Y024552D01*
X012066Y024912D02*
X011826Y024552D01*
X011652Y024612D02*
X011652Y024852D01*
X011592Y024912D01*
X011412Y024912D01*
X011412Y024552D01*
X011592Y024552D01*
X011652Y024612D01*
X011238Y024612D02*
X011178Y024552D01*
X011057Y024552D01*
X010997Y024612D01*
X011057Y024732D02*
X011178Y024732D01*
X011238Y024672D01*
X011238Y024612D01*
X011057Y024732D02*
X010997Y024792D01*
X010997Y024852D01*
X011057Y024912D01*
X011178Y024912D01*
X011238Y024852D01*
M02*
