G75*
G70*
%OFA0B0*%
%FSLAX24Y24*%
%IPPOS*%
%LPD*%
%AMOC8*
5,1,8,0,0,1.08239X$1,22.5*
%
%ADD10C,0.1339*%
%ADD11R,0.0270X0.0280*%
%ADD12R,0.0280X0.0270*%
%ADD13R,0.0440X0.0440*%
%ADD14R,0.0540X0.0640*%
%ADD15C,0.0434*%
%ADD16C,0.0500*%
%ADD17R,0.0440X0.0200*%
%ADD18R,0.0440X0.0300*%
%ADD19R,0.0700X0.0700*%
%ADD20C,0.0700*%
%ADD21C,0.0440*%
%ADD22C,0.0355*%
%ADD23R,0.0591X0.0512*%
%ADD24R,0.0591X0.0670*%
%ADD25R,0.0906X0.0512*%
%ADD26R,0.0472X0.0315*%
%ADD27R,0.0740X0.0940*%
%ADD28C,0.0926*%
%ADD29C,0.0515*%
%ADD30R,0.0690X0.0740*%
%ADD31R,0.0740X0.0740*%
%ADD32R,0.0512X0.0257*%
%ADD33R,0.0640X0.0540*%
%ADD34R,0.0571X0.0571*%
%ADD35C,0.0571*%
%ADD36C,0.0709*%
%ADD37C,0.0740*%
%ADD38C,0.0631*%
%ADD39C,0.0316*%
%ADD40R,0.0740X0.0690*%
D10*
X007408Y005402D03*
X030908Y005402D03*
X030908Y030902D03*
X007408Y030902D03*
D11*
X012108Y027752D03*
X012108Y027352D03*
X016178Y023998D03*
X016542Y023998D03*
X016542Y023598D03*
X016178Y023598D03*
X016552Y023093D03*
X016552Y022693D03*
X017182Y022384D03*
X017182Y021984D03*
X019071Y022378D03*
X019071Y022778D03*
X017772Y023992D03*
X017772Y024392D03*
X020858Y026652D03*
X020858Y027052D03*
X021858Y026952D03*
X022208Y026952D03*
X022208Y026552D03*
X021858Y026552D03*
X022694Y025337D03*
X022694Y024937D03*
X023875Y025134D03*
X023875Y025534D03*
X024588Y026112D03*
X024588Y026512D03*
X025646Y026242D03*
X025646Y025842D03*
X026276Y025882D03*
X026276Y026282D03*
X023520Y027378D03*
X023520Y027778D03*
X022908Y021352D03*
X022558Y021352D03*
X022558Y020952D03*
X022908Y020952D03*
X024718Y020182D03*
X024718Y019782D03*
X025708Y020132D03*
X025708Y020532D03*
X026298Y020532D03*
X026298Y020132D03*
X024689Y018349D03*
X024689Y017949D03*
X022575Y018204D03*
X022575Y018604D03*
X014008Y021902D03*
X013638Y021802D03*
X014008Y022302D03*
X013638Y021402D03*
X013108Y009652D03*
X013108Y009252D03*
D12*
X022966Y017971D03*
X023366Y017971D03*
X023753Y017971D03*
X024153Y017971D03*
X023838Y018523D03*
X023438Y018523D03*
X023753Y020412D03*
X024153Y020412D03*
X023900Y021357D03*
X023500Y021357D03*
X025722Y018011D03*
X026122Y018011D03*
X026627Y018011D03*
X027027Y018011D03*
X023484Y024940D03*
X023084Y024940D03*
X024068Y027774D03*
X024468Y027774D03*
X024508Y028326D03*
X024108Y028326D03*
X023720Y028326D03*
X023320Y028326D03*
X022933Y028089D03*
X022533Y028089D03*
X025643Y028326D03*
X026043Y028326D03*
X026549Y028326D03*
X026949Y028326D03*
X026791Y027814D03*
X026391Y027814D03*
X027808Y025452D03*
X027808Y025102D03*
X028208Y025102D03*
X028208Y025452D03*
X019350Y021790D03*
X018950Y021790D03*
X018523Y022381D03*
X018209Y022026D03*
X018123Y022381D03*
X017809Y022026D03*
X018123Y022893D03*
X018399Y023247D03*
X018523Y022893D03*
X018799Y023247D03*
X018209Y023601D03*
X017809Y023601D03*
X017303Y023995D03*
X016903Y023995D03*
X016785Y024586D03*
X017185Y024586D03*
X018133Y024625D03*
X018533Y024625D03*
X018708Y024242D03*
X019108Y024242D03*
X016673Y022302D03*
X016273Y022302D03*
X016358Y021711D03*
X015958Y021711D03*
D13*
X013308Y022352D03*
X013308Y023002D03*
X012608Y023002D03*
X012608Y022352D03*
X012458Y021452D03*
X013158Y021452D03*
X013308Y024002D03*
X012608Y024002D03*
X012608Y024702D03*
X013308Y024702D03*
X014158Y026952D03*
X014858Y026952D03*
X015458Y026652D03*
X016058Y026652D03*
X016058Y027352D03*
X015458Y027352D03*
X020358Y026752D03*
X020358Y026052D03*
X021358Y026552D03*
X021358Y027252D03*
X022708Y027252D03*
X022708Y026552D03*
X027658Y025952D03*
X028358Y025952D03*
X028358Y024602D03*
X028358Y023902D03*
X027658Y023902D03*
X027658Y024602D03*
X018208Y014002D03*
X017508Y014002D03*
X016208Y014202D03*
X016208Y013502D03*
X016258Y012602D03*
X016958Y012602D03*
X017658Y012552D03*
X017658Y011852D03*
X017508Y011252D03*
X017508Y010552D03*
X017108Y009902D03*
X016408Y009902D03*
X015908Y011052D03*
X015308Y011052D03*
X015308Y011752D03*
X015908Y011752D03*
X016908Y011752D03*
X016908Y011052D03*
X018258Y010802D03*
X018908Y010902D03*
X018908Y010302D03*
X019608Y010302D03*
X019608Y010902D03*
X019558Y011652D03*
X018958Y011652D03*
X018958Y012352D03*
X019558Y012352D03*
X018258Y011502D03*
X019108Y009502D03*
X019708Y009502D03*
X019708Y008802D03*
X019108Y008802D03*
X018508Y008702D03*
X018508Y008102D03*
X017808Y008102D03*
X017808Y008702D03*
X017208Y008702D03*
X016508Y008702D03*
X016658Y008102D03*
X015958Y008102D03*
X015358Y008352D03*
X015358Y009052D03*
X014758Y008902D03*
X014058Y008902D03*
X014008Y008102D03*
X014008Y007452D03*
X014008Y006852D03*
X014708Y006852D03*
X014708Y007452D03*
X014708Y008102D03*
X015608Y007352D03*
X016308Y007352D03*
X017208Y007352D03*
X017908Y007352D03*
X018908Y007502D03*
X018908Y006802D03*
X014558Y009852D03*
X014558Y010452D03*
X013858Y010452D03*
X013858Y009852D03*
X012958Y010302D03*
X012358Y010302D03*
X012608Y009652D03*
X012558Y009002D03*
X011958Y009002D03*
X011908Y009652D03*
X011958Y008302D03*
X012558Y008302D03*
X012658Y007452D03*
X012758Y006852D03*
X012058Y006852D03*
X013358Y007452D03*
X012958Y011002D03*
X012358Y011002D03*
X013758Y011052D03*
X013758Y011752D03*
X014058Y012452D03*
X014658Y012452D03*
X014658Y011752D03*
X013358Y012452D03*
X010308Y011802D03*
X010308Y011152D03*
X009608Y011152D03*
X009608Y011802D03*
X008308Y012002D03*
X008308Y011302D03*
X008408Y008252D03*
X008408Y007552D03*
X015058Y018252D03*
X015708Y018252D03*
X016408Y018252D03*
X017058Y018252D03*
X017058Y018952D03*
X016408Y018952D03*
X015708Y018952D03*
X015058Y018952D03*
X009458Y025202D03*
X009458Y025802D03*
X008758Y025802D03*
X008758Y025202D03*
X008758Y026652D03*
X008758Y027352D03*
X024858Y010452D03*
X024858Y009852D03*
X025558Y009852D03*
X025558Y010452D03*
X029608Y008002D03*
X030308Y008002D03*
D14*
X025558Y011552D03*
X024758Y011552D03*
X024758Y012352D03*
X025558Y012352D03*
X010708Y028152D03*
X009908Y028152D03*
D15*
X008008Y028069D03*
X008008Y026336D03*
X006658Y031652D03*
X030838Y013701D03*
X030838Y010552D03*
X031658Y004652D03*
X031658Y031652D03*
D16*
X031323Y031652D02*
X031325Y031689D01*
X031331Y031725D01*
X031341Y031761D01*
X031355Y031795D01*
X031373Y031827D01*
X031394Y031858D01*
X031418Y031886D01*
X031445Y031911D01*
X031475Y031932D01*
X031507Y031951D01*
X031541Y031966D01*
X031576Y031977D01*
X031612Y031984D01*
X031649Y031987D01*
X031686Y031986D01*
X031722Y031981D01*
X031758Y031972D01*
X031793Y031959D01*
X031825Y031942D01*
X031856Y031922D01*
X031885Y031898D01*
X031911Y031872D01*
X031933Y031843D01*
X031953Y031811D01*
X031968Y031778D01*
X031980Y031743D01*
X031988Y031707D01*
X031992Y031670D01*
X031992Y031634D01*
X031988Y031597D01*
X031980Y031561D01*
X031968Y031526D01*
X031953Y031493D01*
X031933Y031461D01*
X031911Y031432D01*
X031885Y031406D01*
X031856Y031382D01*
X031826Y031362D01*
X031793Y031345D01*
X031758Y031332D01*
X031722Y031323D01*
X031686Y031318D01*
X031649Y031317D01*
X031612Y031320D01*
X031576Y031327D01*
X031541Y031338D01*
X031507Y031353D01*
X031475Y031372D01*
X031445Y031393D01*
X031418Y031418D01*
X031394Y031446D01*
X031373Y031477D01*
X031355Y031509D01*
X031341Y031543D01*
X031331Y031579D01*
X031325Y031615D01*
X031323Y031652D01*
X006323Y031652D02*
X006325Y031689D01*
X006331Y031725D01*
X006341Y031761D01*
X006355Y031795D01*
X006373Y031827D01*
X006394Y031858D01*
X006418Y031886D01*
X006445Y031911D01*
X006475Y031932D01*
X006507Y031951D01*
X006541Y031966D01*
X006576Y031977D01*
X006612Y031984D01*
X006649Y031987D01*
X006686Y031986D01*
X006722Y031981D01*
X006758Y031972D01*
X006793Y031959D01*
X006825Y031942D01*
X006856Y031922D01*
X006885Y031898D01*
X006911Y031872D01*
X006933Y031843D01*
X006953Y031811D01*
X006968Y031778D01*
X006980Y031743D01*
X006988Y031707D01*
X006992Y031670D01*
X006992Y031634D01*
X006988Y031597D01*
X006980Y031561D01*
X006968Y031526D01*
X006953Y031493D01*
X006933Y031461D01*
X006911Y031432D01*
X006885Y031406D01*
X006856Y031382D01*
X006826Y031362D01*
X006793Y031345D01*
X006758Y031332D01*
X006722Y031323D01*
X006686Y031318D01*
X006649Y031317D01*
X006612Y031320D01*
X006576Y031327D01*
X006541Y031338D01*
X006507Y031353D01*
X006475Y031372D01*
X006445Y031393D01*
X006418Y031418D01*
X006394Y031446D01*
X006373Y031477D01*
X006355Y031509D01*
X006341Y031543D01*
X006331Y031579D01*
X006325Y031615D01*
X006323Y031652D01*
X031323Y004652D02*
X031325Y004689D01*
X031331Y004725D01*
X031341Y004761D01*
X031355Y004795D01*
X031373Y004827D01*
X031394Y004858D01*
X031418Y004886D01*
X031445Y004911D01*
X031475Y004932D01*
X031507Y004951D01*
X031541Y004966D01*
X031576Y004977D01*
X031612Y004984D01*
X031649Y004987D01*
X031686Y004986D01*
X031722Y004981D01*
X031758Y004972D01*
X031793Y004959D01*
X031825Y004942D01*
X031856Y004922D01*
X031885Y004898D01*
X031911Y004872D01*
X031933Y004843D01*
X031953Y004811D01*
X031968Y004778D01*
X031980Y004743D01*
X031988Y004707D01*
X031992Y004670D01*
X031992Y004634D01*
X031988Y004597D01*
X031980Y004561D01*
X031968Y004526D01*
X031953Y004493D01*
X031933Y004461D01*
X031911Y004432D01*
X031885Y004406D01*
X031856Y004382D01*
X031826Y004362D01*
X031793Y004345D01*
X031758Y004332D01*
X031722Y004323D01*
X031686Y004318D01*
X031649Y004317D01*
X031612Y004320D01*
X031576Y004327D01*
X031541Y004338D01*
X031507Y004353D01*
X031475Y004372D01*
X031445Y004393D01*
X031418Y004418D01*
X031394Y004446D01*
X031373Y004477D01*
X031355Y004509D01*
X031341Y004543D01*
X031331Y004579D01*
X031325Y004615D01*
X031323Y004652D01*
D17*
X025658Y008602D03*
X025658Y008902D03*
X025058Y008902D03*
X025058Y008602D03*
D18*
X025058Y008252D03*
X025658Y008252D03*
X025658Y009252D03*
X025058Y009252D03*
D19*
X009658Y005652D03*
X009658Y031652D03*
D20*
X009658Y030652D03*
X010658Y030652D03*
X011658Y030652D03*
X012658Y030652D03*
X013658Y030652D03*
X014658Y030652D03*
X015658Y030652D03*
X016658Y030652D03*
X017658Y030652D03*
X018658Y030652D03*
X019658Y030652D03*
X020658Y030652D03*
X021658Y030652D03*
X022658Y030652D03*
X023658Y030652D03*
X024658Y030652D03*
X025658Y030652D03*
X026658Y030652D03*
X027658Y030652D03*
X028658Y030652D03*
X028658Y031652D03*
X027658Y031652D03*
X026658Y031652D03*
X025658Y031652D03*
X024658Y031652D03*
X023658Y031652D03*
X022658Y031652D03*
X021658Y031652D03*
X020658Y031652D03*
X019658Y031652D03*
X018658Y031652D03*
X017658Y031652D03*
X016658Y031652D03*
X015658Y031652D03*
X014658Y031652D03*
X013658Y031652D03*
X012658Y031652D03*
X011658Y031652D03*
X010658Y031652D03*
X010658Y005652D03*
X010658Y004652D03*
X009658Y004652D03*
X011658Y004652D03*
X012658Y004652D03*
X013658Y004652D03*
X014658Y004652D03*
X015658Y004652D03*
X016658Y004652D03*
X017658Y004652D03*
X018658Y004652D03*
X019658Y004652D03*
X020658Y004652D03*
X021658Y004652D03*
X022658Y004652D03*
X023658Y004652D03*
X024658Y004652D03*
X025658Y004652D03*
X026658Y004652D03*
X027658Y004652D03*
X028658Y004652D03*
X028658Y005652D03*
X027658Y005652D03*
X026658Y005652D03*
X025658Y005652D03*
X024658Y005652D03*
X023658Y005652D03*
X022658Y005652D03*
X021658Y005652D03*
X020658Y005652D03*
X019658Y005652D03*
X018658Y005652D03*
X017658Y005652D03*
X016658Y005652D03*
X015658Y005652D03*
X014658Y005652D03*
X013658Y005652D03*
X012658Y005652D03*
X011658Y005652D03*
D21*
X016308Y006802D03*
X020258Y007252D03*
X031658Y016152D03*
X031658Y017152D03*
X031658Y019152D03*
X031658Y020152D03*
X031658Y021152D03*
X015958Y028152D03*
X015158Y028152D03*
X014358Y028152D03*
X013558Y028152D03*
X012758Y028152D03*
X006908Y027902D03*
X006908Y026902D03*
X006908Y025902D03*
X006908Y024902D03*
X006908Y023902D03*
X006908Y022902D03*
X006908Y021902D03*
X006908Y015902D03*
X006908Y014902D03*
X006908Y013902D03*
X006908Y012902D03*
X006908Y011902D03*
X006908Y010902D03*
X006908Y028902D03*
D22*
X006408Y023152D03*
X007458Y023152D03*
X007458Y014652D03*
X006408Y014652D03*
D23*
X026901Y014804D03*
D24*
X026901Y009056D03*
D25*
X030680Y008701D03*
X030680Y014804D03*
D26*
X026546Y014331D03*
X026546Y013898D03*
X026546Y013465D03*
X026546Y013032D03*
X026546Y012599D03*
X026546Y012166D03*
X026546Y011733D03*
X026546Y011300D03*
X026546Y010867D03*
D27*
X009765Y010052D03*
X008051Y010052D03*
D28*
X015608Y010152D03*
D29*
X014821Y009365D03*
X016396Y009365D03*
X016396Y010940D03*
X014821Y010940D03*
D30*
X016933Y013302D03*
X018083Y013302D03*
D31*
X006908Y020902D03*
X031658Y018152D03*
D32*
X010420Y026628D03*
X010420Y027002D03*
X010420Y027376D03*
X009396Y027376D03*
X009396Y026628D03*
D33*
X011508Y027352D03*
X011508Y028152D03*
D34*
X008958Y012046D03*
D35*
X008958Y011259D03*
D36*
X029046Y009402D03*
X031408Y009402D03*
X031408Y015402D03*
X029046Y015402D03*
D37*
X006908Y016902D03*
X006908Y017902D03*
X006908Y018902D03*
X006908Y019902D03*
D38*
X007719Y008995D03*
X007719Y008877D03*
X007719Y008759D03*
X007719Y008641D03*
X007719Y008523D03*
X007719Y008404D03*
X007719Y008286D03*
X007719Y008168D03*
X008368Y006771D03*
X008447Y006771D03*
X008565Y006771D03*
X008683Y006771D03*
X008801Y006771D03*
X008920Y006771D03*
X009038Y006771D03*
X009156Y006771D03*
X009234Y006771D03*
X010081Y008050D03*
X010081Y008168D03*
X010081Y008286D03*
X010081Y008404D03*
X010081Y008523D03*
X010081Y008641D03*
X010081Y008759D03*
X010081Y008877D03*
X010081Y008995D03*
D39*
X009458Y022798D03*
X009458Y023507D03*
D40*
X020408Y009627D03*
X020408Y008477D03*
M02*
