G75*
G70*
%OFA0B0*%
%FSLAX24Y24*%
%IPPOS*%
%LPD*%
%AMOC8*
5,1,8,0,0,1.08239X$1,22.5*
%
%ADD10R,0.0240X0.0230*%
%ADD11R,0.0230X0.0240*%
%ADD12R,0.0500X0.0600*%
%ADD13R,0.0400X0.0400*%
%ADD14R,0.0400X0.0150*%
%ADD15R,0.0400X0.0250*%
%ADD16R,0.0217X0.0472*%
%ADD17R,0.0630X0.1181*%
%ADD18R,0.0394X0.0551*%
%ADD19R,0.0600X0.0500*%
%ADD20R,0.1181X0.0630*%
%ADD21R,0.0700X0.0650*%
%ADD22R,0.0571X0.0709*%
%ADD23R,0.0571X0.1024*%
%ADD24R,0.0240X0.1150*%
%ADD25R,0.0709X0.0630*%
%ADD26R,0.0150X0.0400*%
%ADD27R,0.0250X0.0400*%
%ADD28R,0.0827X0.0945*%
%ADD29R,0.0400X0.0600*%
%ADD30R,0.0551X0.0394*%
%ADD31R,0.0984X0.0531*%
%ADD32R,0.0610X0.0689*%
%ADD33R,0.0669X0.0531*%
%ADD34R,0.0437X0.0276*%
%ADD35R,0.0630X0.0866*%
%ADD36R,0.0400X0.0700*%
%ADD37R,0.0236X0.0866*%
D10*
X015804Y013382D03*
X016204Y013382D03*
X019784Y018632D03*
X019784Y019012D03*
X019784Y019372D03*
X019784Y019752D03*
X019784Y020132D03*
X019784Y020482D03*
X019784Y020832D03*
X019784Y021212D03*
X019844Y021562D03*
X019784Y021912D03*
X020184Y021912D03*
X020244Y021562D03*
X020184Y021212D03*
X020184Y020832D03*
X020184Y020482D03*
X020184Y020132D03*
X020184Y019752D03*
X020184Y019372D03*
X020184Y019012D03*
X020184Y018632D03*
X020834Y020582D03*
X021234Y020582D03*
X022514Y020582D03*
X022914Y020582D03*
X023564Y020522D03*
X023564Y020872D03*
X023564Y021222D03*
X023564Y021612D03*
X023564Y022012D03*
X023964Y022012D03*
X023964Y021612D03*
X023964Y021222D03*
X023964Y020872D03*
X023964Y020522D03*
X023924Y020172D03*
X023924Y019792D03*
X023924Y019442D03*
X023964Y019052D03*
X023564Y019052D03*
X023524Y019442D03*
X023524Y019792D03*
X023524Y020172D03*
X023564Y018632D03*
X023964Y018632D03*
X021104Y021982D03*
X020704Y021982D03*
X021674Y023392D03*
X022074Y023392D03*
X018054Y019382D03*
X017654Y019382D03*
X017254Y019382D03*
X016854Y019382D03*
X016554Y020332D03*
X016154Y020332D03*
X015174Y020332D03*
X014774Y020332D03*
X014804Y021182D03*
X014404Y021182D03*
X015554Y023032D03*
X015954Y023032D03*
X016254Y026332D03*
X016254Y026732D03*
X016654Y026732D03*
X016654Y026332D03*
X010204Y028932D03*
X009804Y028932D03*
X009754Y027232D03*
X009754Y026882D03*
X009354Y026882D03*
X009354Y027232D03*
X009354Y025732D03*
X009354Y025382D03*
X009754Y025382D03*
X009754Y025732D03*
X008454Y021782D03*
X008054Y021782D03*
X007954Y017282D03*
X008354Y017282D03*
X008804Y017282D03*
X009204Y017282D03*
X007504Y017282D03*
X007104Y017282D03*
X010004Y031032D03*
X010404Y031032D03*
X027129Y024082D03*
X027529Y024082D03*
X029279Y024582D03*
X029679Y024582D03*
X027904Y029282D03*
X027504Y029282D03*
X034454Y029332D03*
X034854Y029332D03*
X035154Y028882D03*
X035554Y028882D03*
X038254Y020782D03*
X038654Y020782D03*
X038654Y017582D03*
X038254Y017582D03*
X031504Y015082D03*
X031104Y015082D03*
X029954Y015982D03*
X029554Y015982D03*
D11*
X026604Y018532D03*
X026604Y018932D03*
X024279Y019582D03*
X024279Y019982D03*
X023154Y019032D03*
X022774Y019032D03*
X022394Y019032D03*
X022014Y019032D03*
X021659Y019032D03*
X021304Y019032D03*
X020924Y019032D03*
X020544Y019032D03*
X020544Y018632D03*
X020924Y018632D03*
X021304Y018632D03*
X021659Y018632D03*
X022014Y018632D03*
X022394Y018632D03*
X022774Y018632D03*
X023154Y018632D03*
X021724Y019392D03*
X021724Y019792D03*
X021724Y020152D03*
X021724Y020552D03*
X021724Y020912D03*
X021724Y021312D03*
X021724Y021672D03*
X021724Y022072D03*
X021754Y022432D03*
X022124Y022412D03*
X022494Y022412D03*
X022864Y022412D03*
X023234Y022412D03*
X023604Y022412D03*
X023974Y022412D03*
X023974Y022812D03*
X023604Y022812D03*
X023234Y022812D03*
X022864Y022812D03*
X022494Y022812D03*
X022124Y022812D03*
X021754Y022832D03*
X021374Y022812D03*
X021004Y022812D03*
X020634Y022812D03*
X020264Y022812D03*
X019894Y022812D03*
X019894Y022412D03*
X020264Y022412D03*
X020634Y022412D03*
X021004Y022412D03*
X021374Y022412D03*
X018564Y021078D03*
X018564Y020678D03*
X018131Y020678D03*
X018131Y021078D03*
X015104Y022382D03*
X015104Y022782D03*
X014704Y022782D03*
X014354Y022782D03*
X014004Y022782D03*
X013654Y022782D03*
X013654Y022382D03*
X014004Y022382D03*
X014354Y022382D03*
X014704Y022382D03*
X014004Y021732D03*
X014004Y021332D03*
X013504Y026032D03*
X013504Y026432D03*
X008854Y022182D03*
X008854Y021782D03*
X010804Y016882D03*
X010804Y016482D03*
X021704Y016032D03*
X021704Y015632D03*
X027154Y010332D03*
X027154Y009932D03*
X029104Y011182D03*
X029104Y011582D03*
X029154Y012132D03*
X028804Y012132D03*
X028454Y012132D03*
X028454Y012532D03*
X028804Y012532D03*
X029154Y012532D03*
X036654Y019682D03*
X036654Y020082D03*
X036654Y022882D03*
X036654Y023282D03*
X030204Y023357D03*
X030204Y022982D03*
X030204Y022582D03*
X030204Y022182D03*
X030204Y021782D03*
X030204Y021382D03*
X030204Y020982D03*
X030354Y020482D03*
X030354Y020082D03*
X029054Y021832D03*
X029054Y022232D03*
X030204Y023757D03*
X024504Y021857D03*
X024504Y021457D03*
X032604Y029632D03*
X032954Y029632D03*
X032954Y030032D03*
X032604Y030032D03*
D12*
X034004Y020582D03*
X034804Y020582D03*
X014754Y024332D03*
X013954Y024332D03*
X012904Y011632D03*
X012104Y011632D03*
D13*
X012254Y012632D03*
X012254Y013232D03*
X012954Y013232D03*
X012954Y012632D03*
X016054Y014132D03*
X016754Y014132D03*
X016554Y012832D03*
X016554Y012132D03*
X016554Y011532D03*
X016554Y010832D03*
X026254Y017357D03*
X026254Y018057D03*
X027079Y017732D03*
X027079Y018432D03*
X027079Y019032D03*
X027079Y019732D03*
X030604Y016232D03*
X030604Y015532D03*
X029554Y013432D03*
X028854Y013432D03*
X035154Y018482D03*
X035154Y019182D03*
X036654Y018732D03*
X036654Y018132D03*
X036654Y017532D03*
X037354Y017532D03*
X037354Y016932D03*
X037354Y016232D03*
X037354Y018132D03*
X037354Y018732D03*
X038004Y019882D03*
X038704Y019882D03*
X037354Y020932D03*
X037354Y021532D03*
X037354Y022132D03*
X036654Y022132D03*
X036654Y021532D03*
X036654Y020932D03*
X035154Y022282D03*
X035154Y022982D03*
X034804Y025132D03*
X034104Y025132D03*
X035804Y025632D03*
X036404Y025732D03*
X037104Y025732D03*
X037104Y026332D03*
X036404Y026332D03*
X035804Y026332D03*
X035804Y027332D03*
X035804Y028032D03*
X035204Y027782D03*
X035204Y028382D03*
X034504Y028382D03*
X034504Y027782D03*
X033704Y028182D03*
X033704Y028882D03*
X036304Y028632D03*
X037004Y028632D03*
X032354Y024982D03*
X031754Y024982D03*
X031154Y024982D03*
X030554Y024982D03*
X030054Y025582D03*
X029454Y025582D03*
X029454Y026282D03*
X030054Y026282D03*
X030554Y024282D03*
X031154Y024282D03*
X031754Y024282D03*
X032354Y024282D03*
X032354Y023482D03*
X032354Y022782D03*
X032354Y022182D03*
X032354Y021482D03*
X027554Y025532D03*
X027554Y026232D03*
X027154Y027232D03*
X026554Y027232D03*
X026554Y027932D03*
X027154Y027932D03*
X026954Y028532D03*
X026354Y028532D03*
X026354Y029232D03*
X026954Y029232D03*
X028404Y029232D03*
X028404Y028532D03*
X029254Y028532D03*
X029854Y028532D03*
X029854Y029232D03*
X029254Y029232D03*
X027254Y032532D03*
X026554Y032532D03*
X025204Y030982D03*
X024504Y030982D03*
X024554Y027932D03*
X025354Y027932D03*
X025354Y027232D03*
X025354Y026632D03*
X024654Y026632D03*
X024554Y027232D03*
X023954Y027232D03*
X023354Y027232D03*
X023354Y027932D03*
X023954Y027932D03*
X023754Y025732D03*
X024354Y025732D03*
X023754Y025132D03*
X023054Y025132D03*
X023054Y025732D03*
X024554Y024832D03*
X025254Y024832D03*
X025054Y025732D03*
X020154Y025482D03*
X020154Y024782D03*
X017304Y027232D03*
X016604Y027232D03*
X015904Y027232D03*
X015204Y027232D03*
X014504Y027232D03*
X013804Y027232D03*
X016304Y025832D03*
X017004Y025832D03*
X015704Y023632D03*
X015004Y023632D03*
X014404Y023632D03*
X013704Y023632D03*
X015654Y021132D03*
X015654Y020432D03*
X016354Y020832D03*
X016354Y021532D03*
X017354Y028932D03*
X018054Y028932D03*
X018754Y029782D03*
X018754Y030482D03*
X016854Y031232D03*
X016254Y031232D03*
X016254Y031932D03*
X016854Y031932D03*
X009104Y031582D03*
X008504Y031582D03*
X008504Y030882D03*
X008504Y030282D03*
X009104Y030282D03*
X009104Y030882D03*
X009104Y029582D03*
X008504Y029582D03*
X036254Y010932D03*
X036954Y010932D03*
X038004Y023082D03*
X038704Y023082D03*
D14*
X027054Y015432D03*
X027054Y015132D03*
X026454Y015132D03*
X026454Y015432D03*
X012904Y010582D03*
X012904Y010282D03*
X012304Y010282D03*
X012304Y010582D03*
D15*
X012304Y010932D03*
X012904Y010932D03*
X012904Y009932D03*
X012304Y009932D03*
X026454Y014782D03*
X027054Y014782D03*
X027054Y015782D03*
X026454Y015782D03*
D16*
X026180Y025570D03*
X026928Y025570D03*
X026928Y026594D03*
X026554Y026594D03*
X026180Y026594D03*
X018078Y029670D03*
X017330Y029670D03*
X017330Y030694D03*
X017704Y030694D03*
X018078Y030694D03*
X036380Y027994D03*
X036754Y027994D03*
X037128Y027994D03*
X037128Y026970D03*
X036754Y026970D03*
X036380Y026970D03*
X037880Y022444D03*
X038254Y022444D03*
X038628Y022444D03*
X038628Y021420D03*
X037880Y021420D03*
X037880Y019244D03*
X038254Y019244D03*
X038628Y019244D03*
X038628Y018220D03*
X037880Y018220D03*
D17*
X018477Y032182D03*
X017532Y032182D03*
D18*
X010578Y031699D03*
X009830Y031699D03*
X010204Y032565D03*
X026356Y016632D03*
X027852Y016632D03*
X027806Y010132D03*
X029302Y010132D03*
X036380Y029549D03*
X037128Y029549D03*
X036754Y030415D03*
X034828Y030149D03*
X034080Y030149D03*
X034454Y031015D03*
D19*
X037254Y023632D03*
X037254Y022832D03*
X037254Y020232D03*
X037254Y019432D03*
X034304Y019082D03*
X034304Y018282D03*
X034304Y022082D03*
X034304Y022882D03*
D20*
X038204Y027759D03*
X038204Y028704D03*
X028254Y027854D03*
X028254Y026909D03*
D21*
X034754Y027057D03*
X034754Y025907D03*
D22*
X035742Y032532D03*
X037667Y032532D03*
D23*
X036842Y024632D03*
X038767Y024632D03*
D24*
X018754Y012755D03*
X018254Y012755D03*
X017754Y012755D03*
X017254Y012755D03*
X017254Y010408D03*
X017754Y010408D03*
X018254Y010408D03*
X018754Y010408D03*
D25*
X010754Y021630D03*
X010754Y022733D03*
D26*
X025754Y010732D03*
X026054Y010732D03*
X026054Y010132D03*
X025754Y010132D03*
X027304Y011632D03*
X027604Y011632D03*
X027604Y012232D03*
X027304Y012232D03*
X026804Y030382D03*
X026504Y030382D03*
X026504Y030982D03*
X026804Y030982D03*
X028154Y030982D03*
X028454Y030982D03*
X028454Y030382D03*
X028154Y030382D03*
D27*
X027804Y030382D03*
X027804Y030982D03*
X027154Y030982D03*
X027154Y030382D03*
X026154Y030382D03*
X026154Y030982D03*
X028804Y030982D03*
X028804Y030382D03*
X027954Y012232D03*
X027954Y011632D03*
X026954Y011632D03*
X026954Y012232D03*
X026404Y010732D03*
X026404Y010132D03*
X025404Y010132D03*
X025404Y010732D03*
D28*
X017683Y018382D03*
X016226Y018382D03*
D29*
X007054Y023282D03*
X006354Y023282D03*
X006354Y025682D03*
X007054Y025682D03*
X007054Y026532D03*
X006354Y026532D03*
X006354Y028932D03*
X007054Y028932D03*
X007054Y029782D03*
X006354Y029782D03*
X006354Y032182D03*
X007054Y032182D03*
D30*
X009771Y030306D03*
X009771Y029558D03*
X010637Y029932D03*
X034021Y031808D03*
X034021Y032556D03*
X034887Y032182D03*
D31*
X007182Y009900D03*
X007182Y016061D03*
D32*
X010991Y015707D03*
D33*
X010962Y009900D03*
D34*
X011304Y010402D03*
X011304Y010835D03*
X011304Y011268D03*
X011304Y011701D03*
X011304Y012134D03*
X011304Y012567D03*
X011304Y013000D03*
X011304Y013433D03*
X011304Y013866D03*
D35*
X028022Y018102D03*
X028022Y019362D03*
X030187Y019362D03*
X030187Y018102D03*
D36*
X033054Y017432D03*
X034454Y017432D03*
X034454Y011182D03*
X033054Y011182D03*
D37*
X008554Y018154D03*
X008054Y018154D03*
X007554Y018154D03*
X007054Y018154D03*
X007054Y020910D03*
X007554Y020910D03*
X008054Y020910D03*
X008554Y020910D03*
M02*
