G75*
G70*
%OFA0B0*%
%FSLAX24Y24*%
%IPPOS*%
%LPD*%
%AMOC8*
5,1,8,0,0,1.08239X$1,22.5*
%
%ADD10R,0.0400X0.0400*%
%ADD11R,0.0472X0.0217*%
%ADD12R,0.0630X0.1181*%
%ADD13R,0.0551X0.0394*%
%ADD14R,0.0600X0.0400*%
%ADD15R,0.0500X0.0600*%
%ADD16R,0.0217X0.0472*%
%ADD17R,0.0600X0.0500*%
%ADD18R,0.1181X0.0630*%
%ADD19R,0.0571X0.0709*%
%ADD20R,0.0900X0.0700*%
%ADD21R,0.0240X0.1150*%
%ADD22R,0.0709X0.0630*%
%ADD23R,0.0230X0.0240*%
%ADD24R,0.0240X0.0230*%
%ADD25R,0.0400X0.0150*%
%ADD26R,0.0400X0.0250*%
%ADD27R,0.0150X0.0400*%
%ADD28R,0.0250X0.0400*%
%ADD29R,0.0591X0.0394*%
%ADD30R,0.0787X0.0472*%
%ADD31R,0.0394X0.0551*%
%ADD32R,0.0400X0.0700*%
%ADD33R,0.0238X0.0091*%
%ADD34R,0.0238X0.0118*%
%ADD35R,0.0709X0.0945*%
%ADD36R,0.0315X0.0315*%
%ADD37R,0.0236X0.0315*%
%ADD38R,0.0315X0.0236*%
%ADD39R,0.0091X0.0295*%
%ADD40R,0.0295X0.0091*%
%ADD41R,0.0709X0.0571*%
%ADD42R,0.0217X0.0197*%
%ADD43R,0.0236X0.0866*%
D10*
X012627Y007860D03*
X012627Y008560D03*
X012627Y009160D03*
X012627Y009860D03*
X013527Y010210D03*
X014227Y010210D03*
X014227Y010910D03*
X013527Y010910D03*
X013527Y011610D03*
X014227Y011610D03*
X014227Y012310D03*
X013527Y012310D03*
X013227Y013410D03*
X012627Y013410D03*
X012627Y014110D03*
X013227Y014110D03*
X014627Y013940D03*
X015227Y013940D03*
X015227Y013240D03*
X015227Y012660D03*
X014627Y013240D03*
X015227Y011960D03*
X015127Y010710D03*
X015127Y010010D03*
X016427Y009160D03*
X017027Y009160D03*
X017627Y009160D03*
X018227Y009160D03*
X018227Y008460D03*
X017627Y008460D03*
X017027Y008460D03*
X017027Y007860D03*
X017727Y007860D03*
X016427Y008460D03*
X019227Y008460D03*
X019227Y007760D03*
X022027Y009860D03*
X022727Y009860D03*
X023327Y009860D03*
X024027Y009860D03*
X023227Y008460D03*
X023227Y007760D03*
X027227Y007760D03*
X027227Y008460D03*
X031227Y008460D03*
X031227Y007760D03*
X035227Y007760D03*
X035227Y008460D03*
X039227Y008460D03*
X039227Y007760D03*
X043227Y007760D03*
X043227Y008460D03*
X043927Y009360D03*
X044527Y009360D03*
X044527Y010060D03*
X043927Y010060D03*
X043227Y010960D03*
X042627Y010960D03*
X042627Y011660D03*
X043227Y011660D03*
X044677Y011660D03*
X045277Y011660D03*
X045277Y010960D03*
X044677Y010960D03*
X048777Y010910D03*
X049377Y010910D03*
X049977Y010910D03*
X049977Y010210D03*
X049377Y010210D03*
X048777Y010210D03*
X048777Y009310D03*
X049377Y009310D03*
X049377Y008610D03*
X048777Y008610D03*
X048577Y007760D03*
X047877Y007760D03*
X053527Y008610D03*
X054127Y008610D03*
X054127Y009310D03*
X053527Y009310D03*
X053427Y009910D03*
X054127Y009910D03*
X054127Y010510D03*
X053427Y010510D03*
X054627Y011110D03*
X055327Y011110D03*
X055527Y009610D03*
X056227Y009610D03*
X057627Y013710D03*
X058227Y013710D03*
X058927Y013710D03*
X057627Y014410D03*
X057677Y015360D03*
X057677Y016060D03*
X058277Y016060D03*
X058977Y016060D03*
X057777Y016860D03*
X057777Y017560D03*
X058827Y017260D03*
X059527Y017260D03*
X060627Y017760D03*
X060627Y018360D03*
X061327Y018360D03*
X061327Y017760D03*
X061327Y019310D03*
X060627Y019310D03*
X060027Y019310D03*
X060027Y020010D03*
X060627Y019910D03*
X061327Y019910D03*
X055977Y018110D03*
X055277Y018110D03*
X054677Y018610D03*
X053977Y018610D03*
X055277Y017510D03*
X055977Y017510D03*
X055927Y015660D03*
X055927Y014960D03*
X055927Y014360D03*
X055227Y014360D03*
X053677Y014210D03*
X053677Y013610D03*
X052977Y013610D03*
X052977Y014210D03*
X052977Y014810D03*
X053677Y014810D03*
X053677Y015410D03*
X052977Y015410D03*
X045877Y018660D03*
X045277Y018660D03*
X045277Y019360D03*
X045877Y019360D03*
X043777Y019360D03*
X043177Y019360D03*
X042577Y019360D03*
X041977Y019360D03*
X041377Y019360D03*
X040677Y019360D03*
X040077Y019360D03*
X039477Y019360D03*
X038877Y019360D03*
X038277Y019360D03*
X037677Y019360D03*
X037677Y018660D03*
X038277Y018660D03*
X038877Y018660D03*
X039477Y018660D03*
X040077Y018660D03*
X041977Y018660D03*
X042577Y018660D03*
X043177Y018660D03*
X043777Y018660D03*
X036902Y018660D03*
X036902Y019360D03*
X034727Y018660D03*
X034027Y018660D03*
X027627Y021160D03*
X027027Y021160D03*
X027027Y021860D03*
X027627Y021860D03*
X027277Y023710D03*
X026677Y023710D03*
X026077Y023710D03*
X025377Y023710D03*
X025377Y024410D03*
X026077Y024410D03*
X026677Y024410D03*
X027277Y024410D03*
X030027Y027560D03*
X030727Y027560D03*
X029577Y028910D03*
X028877Y028910D03*
X028877Y029660D03*
X029577Y029660D03*
X029577Y030410D03*
X028877Y030410D03*
X028877Y031160D03*
X029577Y031160D03*
X027377Y031210D03*
X027377Y030510D03*
X027377Y029910D03*
X026677Y029910D03*
X026677Y028760D03*
X026677Y028160D03*
X027377Y028160D03*
X027377Y028760D03*
X033227Y028560D03*
X033227Y027960D03*
X033927Y027960D03*
X033927Y028560D03*
X034527Y029110D03*
X035227Y029110D03*
X035227Y029810D03*
X034527Y029810D03*
X034627Y030410D03*
X033927Y030410D03*
X033227Y030410D03*
X033227Y031110D03*
X034027Y031610D03*
X034027Y032310D03*
X035277Y031310D03*
X035977Y031310D03*
X036577Y031310D03*
X037177Y031310D03*
X037777Y031060D03*
X038377Y031060D03*
X038377Y031760D03*
X037777Y031760D03*
X037977Y033010D03*
X037277Y033010D03*
X037177Y030610D03*
X036577Y030610D03*
X035827Y027410D03*
X035127Y027410D03*
X042277Y031160D03*
X042277Y031860D03*
X043477Y031860D03*
X044077Y031860D03*
X044077Y031160D03*
X043477Y031160D03*
X045877Y031160D03*
X045877Y031860D03*
X048577Y029060D03*
X048577Y028460D03*
X049277Y028460D03*
X049277Y029060D03*
X049277Y027760D03*
X049277Y027060D03*
X048577Y027060D03*
X048577Y027760D03*
X048577Y026260D03*
X049277Y026260D03*
X025527Y034060D03*
X024827Y034060D03*
X023927Y034060D03*
X023227Y034060D03*
X023227Y036360D03*
X023927Y036360D03*
X024827Y036360D03*
X025527Y036360D03*
X011827Y037660D03*
X011827Y038260D03*
X011127Y038260D03*
X011127Y037660D03*
X020777Y026460D03*
X020777Y025760D03*
X021777Y025760D03*
X021777Y026460D03*
X021277Y021360D03*
X020577Y021360D03*
X020577Y020660D03*
X021277Y020660D03*
X022227Y018060D03*
X022927Y018060D03*
X021227Y017510D03*
X021227Y016810D03*
X021827Y016810D03*
X022527Y016810D03*
X023827Y016810D03*
X024527Y016810D03*
X024527Y015910D03*
X023827Y015910D03*
X021227Y016210D03*
X021227Y015510D03*
X018827Y014110D03*
X018227Y014110D03*
X018227Y013410D03*
X018827Y013410D03*
X017727Y015110D03*
X017027Y015110D03*
X016427Y015110D03*
X015727Y015110D03*
X014577Y015060D03*
X014577Y015760D03*
X013027Y016260D03*
X012327Y016260D03*
X013577Y017060D03*
X013577Y017760D03*
X013227Y018760D03*
X012527Y018760D03*
X013377Y019960D03*
X014077Y019960D03*
X014627Y020760D03*
X014627Y021460D03*
X014177Y022260D03*
X014177Y022860D03*
X013477Y022860D03*
X013477Y022260D03*
X012777Y023360D03*
X012777Y024060D03*
X013477Y025260D03*
X014177Y025260D03*
X016127Y020560D03*
X016127Y019960D03*
X016827Y019960D03*
X016827Y020560D03*
X018177Y018310D03*
X018877Y018310D03*
X011377Y017010D03*
X010777Y017010D03*
X010177Y017010D03*
X009577Y017010D03*
X009577Y016310D03*
X010177Y016310D03*
X010777Y016310D03*
X011377Y016310D03*
X010227Y017610D03*
X009527Y017610D03*
X018777Y011110D03*
X019477Y011110D03*
D11*
X054315Y014886D03*
X054315Y015260D03*
X054315Y015634D03*
X055339Y015634D03*
X055339Y014886D03*
X058865Y017886D03*
X059889Y017886D03*
X059889Y018260D03*
X059889Y018634D03*
X058865Y018634D03*
D12*
X060254Y016660D03*
X061199Y016660D03*
X053999Y016910D03*
X053054Y016910D03*
D13*
X056944Y012984D03*
X056944Y012236D03*
X057810Y012610D03*
X048110Y010934D03*
X048110Y010186D03*
X047244Y010560D03*
X035477Y017762D03*
X035477Y019258D03*
D14*
X036027Y008410D03*
X036027Y007710D03*
X034427Y007710D03*
X034427Y008410D03*
X032027Y008410D03*
X032027Y007710D03*
X030427Y007710D03*
X030427Y008410D03*
X028027Y008410D03*
X028027Y007710D03*
X026427Y007710D03*
X026427Y008410D03*
X024027Y008410D03*
X024027Y007710D03*
X022427Y007710D03*
X022427Y008410D03*
X020027Y008410D03*
X020027Y007710D03*
X038427Y007710D03*
X038427Y008410D03*
X040027Y008410D03*
X040027Y007710D03*
X042427Y007710D03*
X042427Y008410D03*
X044027Y008410D03*
X044027Y007710D03*
X046427Y007710D03*
X046427Y008410D03*
X054927Y008410D03*
X054927Y007710D03*
X057327Y007710D03*
X057327Y008410D03*
X057327Y038710D03*
X057327Y039410D03*
X054927Y039410D03*
X054927Y038710D03*
X049177Y038710D03*
X049177Y039410D03*
X046777Y039410D03*
X046777Y038710D03*
D15*
X039677Y032910D03*
X038877Y032910D03*
X048427Y029760D03*
X049227Y029760D03*
X059377Y022810D03*
X060177Y022810D03*
X060177Y022010D03*
X059377Y022010D03*
X057977Y010810D03*
X057177Y010810D03*
X056377Y010360D03*
X055577Y010360D03*
X011927Y019910D03*
X011127Y019910D03*
X010077Y018360D03*
X009277Y018360D03*
X009477Y015310D03*
X008677Y015310D03*
X011127Y022510D03*
X011927Y022510D03*
D16*
X013403Y021622D03*
X013777Y021622D03*
X014151Y021622D03*
X014151Y020598D03*
X013403Y020598D03*
X013051Y017922D03*
X012677Y017922D03*
X012303Y017922D03*
X012303Y016898D03*
X013051Y016898D03*
X013403Y023498D03*
X014151Y023498D03*
X014151Y024522D03*
X013777Y024522D03*
X013403Y024522D03*
X058253Y015372D03*
X058627Y015372D03*
X059001Y015372D03*
X059001Y014348D03*
X058627Y014348D03*
X058253Y014348D03*
D17*
X057177Y010010D03*
X057177Y009210D03*
X056677Y021960D03*
X055877Y021960D03*
X055877Y022760D03*
X056677Y022760D03*
X021327Y019010D03*
X021327Y018210D03*
X013927Y014310D03*
X013927Y013510D03*
X011727Y017960D03*
X010927Y017960D03*
X010927Y018760D03*
X011727Y018760D03*
X011877Y020710D03*
X012677Y020710D03*
X012677Y021510D03*
X011877Y021510D03*
X011077Y021510D03*
X011077Y020710D03*
X011177Y023310D03*
X011977Y023310D03*
X011977Y024110D03*
X011177Y024110D03*
X011177Y024910D03*
X011977Y024910D03*
X011977Y025710D03*
X011177Y025710D03*
D18*
X060037Y015423D03*
X060037Y014478D03*
D19*
X056240Y013360D03*
X054314Y013360D03*
D20*
X059877Y010017D03*
X059877Y008303D03*
D21*
X017227Y016387D03*
X016727Y016387D03*
X016227Y016387D03*
X015727Y016387D03*
X015727Y018734D03*
X016227Y018734D03*
X016727Y018734D03*
X017227Y018734D03*
D22*
X011077Y031859D03*
X011077Y032961D03*
D23*
X027827Y024010D03*
X027827Y023610D03*
X030467Y024790D03*
X030837Y024790D03*
X031207Y024790D03*
X031577Y024790D03*
X031947Y024790D03*
X032327Y024790D03*
X032697Y024790D03*
X033067Y024790D03*
X033437Y024790D03*
X033807Y024790D03*
X034177Y024790D03*
X034547Y024790D03*
X034547Y025190D03*
X034177Y025190D03*
X033807Y025190D03*
X033437Y025190D03*
X033067Y025190D03*
X032697Y025190D03*
X032327Y025190D03*
X031947Y025190D03*
X031577Y025190D03*
X031207Y025190D03*
X030837Y025190D03*
X030467Y025190D03*
X032327Y025660D03*
X032327Y026060D03*
X032297Y024030D03*
X032297Y023630D03*
X032297Y022440D03*
X032297Y022040D03*
X032232Y021410D03*
X032587Y021410D03*
X032967Y021410D03*
X033347Y021410D03*
X033727Y021410D03*
X033727Y021010D03*
X033347Y021010D03*
X032967Y021010D03*
X032587Y021010D03*
X032232Y021010D03*
X031877Y021010D03*
X031497Y021010D03*
X031117Y021010D03*
X031117Y021410D03*
X031497Y021410D03*
X031877Y021410D03*
X026527Y021460D03*
X026527Y021060D03*
D24*
X028787Y023330D03*
X029187Y023330D03*
X030357Y023530D03*
X030757Y023530D03*
X030757Y023110D03*
X030357Y023110D03*
X030357Y022690D03*
X030757Y022690D03*
X030757Y022270D03*
X030357Y022270D03*
X030357Y021850D03*
X030757Y021850D03*
X030757Y021430D03*
X030357Y021430D03*
X030357Y021010D03*
X030757Y021010D03*
X031407Y022960D03*
X031807Y022960D03*
X032247Y022960D03*
X032647Y022960D03*
X033087Y022960D03*
X033487Y022960D03*
X034137Y023110D03*
X034537Y023110D03*
X034537Y022690D03*
X034137Y022690D03*
X034137Y022270D03*
X034537Y022270D03*
X034537Y021850D03*
X034137Y021850D03*
X034137Y021430D03*
X034537Y021430D03*
X034537Y021010D03*
X034137Y021010D03*
X034137Y023530D03*
X034537Y023530D03*
X034537Y023950D03*
X034137Y023950D03*
X034137Y024370D03*
X034537Y024370D03*
X030757Y024370D03*
X030357Y024370D03*
X030357Y023950D03*
X030757Y023950D03*
X029777Y028160D03*
X029377Y028160D03*
X034227Y030910D03*
X034627Y030910D03*
X035877Y032360D03*
X035877Y032710D03*
X036277Y032710D03*
X036277Y032360D03*
X037227Y032260D03*
X037627Y032260D03*
X018627Y017760D03*
X018627Y017360D03*
X018627Y017010D03*
X018227Y017010D03*
X018227Y017360D03*
X018227Y017760D03*
X021819Y016210D03*
X022219Y016210D03*
X021527Y015010D03*
X021127Y015010D03*
X022377Y017410D03*
X022777Y017410D03*
X025627Y017110D03*
X026027Y017110D03*
X026027Y016410D03*
X026027Y016060D03*
X025627Y016060D03*
X025627Y016410D03*
X027527Y015735D03*
X027927Y015735D03*
D25*
X019427Y012410D03*
X019427Y012110D03*
X018827Y012110D03*
X018827Y012410D03*
X018827Y010110D03*
X018827Y009810D03*
X019427Y009810D03*
X019427Y010110D03*
X051927Y020660D03*
X051927Y020960D03*
X052527Y020960D03*
X052527Y020660D03*
X048377Y030810D03*
X048377Y031110D03*
X047777Y031110D03*
X047777Y030810D03*
D26*
X047777Y030460D03*
X048377Y030460D03*
X048377Y031460D03*
X047777Y031460D03*
X051927Y021310D03*
X052527Y021310D03*
X052527Y020310D03*
X051927Y020310D03*
X019427Y012760D03*
X018827Y012760D03*
X018827Y011760D03*
X019427Y011760D03*
X019427Y010460D03*
X018827Y010460D03*
X018827Y009460D03*
X019427Y009460D03*
D27*
X024027Y014110D03*
X024327Y014110D03*
X024327Y014710D03*
X024027Y014710D03*
X024027Y018110D03*
X024327Y018110D03*
X024327Y018710D03*
X024027Y018710D03*
X022127Y033910D03*
X021827Y033910D03*
X021827Y034510D03*
X022127Y034510D03*
D28*
X022477Y034510D03*
X022477Y033910D03*
X021477Y033910D03*
X021477Y034510D03*
X023677Y018710D03*
X023677Y018110D03*
X024677Y018110D03*
X024677Y018710D03*
X024677Y014710D03*
X024677Y014110D03*
X023677Y014110D03*
X023677Y014710D03*
D29*
X050003Y025517D03*
X050003Y026502D03*
X050003Y027486D03*
X050003Y028135D03*
X050003Y028785D03*
X050003Y029458D03*
X050003Y030443D03*
X050003Y031427D03*
X050003Y032383D03*
X050003Y033053D03*
X050003Y034372D03*
D30*
X058803Y034604D03*
X058330Y023502D03*
D31*
X047425Y012610D03*
X045929Y012610D03*
X047677Y009343D03*
X048051Y008477D03*
X047303Y008477D03*
X025177Y034777D03*
X025551Y035643D03*
X024803Y035643D03*
X023951Y035643D03*
X023203Y035643D03*
X023577Y034777D03*
D32*
X010627Y007860D03*
X012027Y007860D03*
X012027Y014010D03*
X010627Y014010D03*
D33*
X025625Y014912D03*
X025625Y015109D03*
X026029Y015109D03*
X026029Y014912D03*
X026029Y017712D03*
X026029Y017909D03*
X025625Y017909D03*
X025625Y017712D03*
D34*
X025625Y017499D03*
X026029Y017499D03*
X026029Y018121D03*
X025625Y018121D03*
X025625Y015321D03*
X026029Y015321D03*
X026029Y014699D03*
X025625Y014699D03*
D35*
X017514Y013710D03*
X015940Y013710D03*
D36*
X016294Y011593D03*
X017160Y011593D03*
X017160Y010727D03*
X016294Y010727D03*
D37*
X016727Y010727D03*
X016727Y011593D03*
D38*
X017160Y011160D03*
X016294Y011160D03*
D39*
X016235Y010206D03*
X016432Y010206D03*
X016629Y010206D03*
X016825Y010206D03*
X017022Y010206D03*
X017219Y010206D03*
X017416Y010206D03*
X016038Y010206D03*
X016038Y012115D03*
X016235Y012115D03*
X016432Y012115D03*
X016629Y012115D03*
X016825Y012115D03*
X017022Y012115D03*
X017219Y012115D03*
X017416Y012115D03*
D40*
X017682Y011849D03*
X017682Y011652D03*
X017682Y011456D03*
X017682Y011259D03*
X017682Y011062D03*
X017682Y010865D03*
X017682Y010668D03*
X017682Y010471D03*
X015772Y010471D03*
X015772Y010668D03*
X015772Y010865D03*
X015772Y011062D03*
X015772Y011259D03*
X015772Y011456D03*
X015772Y011652D03*
X015772Y011849D03*
D41*
X060427Y011748D03*
X060427Y013673D03*
D42*
X043137Y026610D03*
X043137Y027010D03*
X043137Y027360D03*
X043137Y027760D03*
D43*
X022277Y024938D03*
X021777Y024938D03*
X021277Y024938D03*
X020777Y024938D03*
X020777Y022182D03*
X021277Y022182D03*
X021777Y022182D03*
X022277Y022182D03*
M02*
