G75*
G70*
%OFA0B0*%
%FSLAX24Y24*%
%IPPOS*%
%LPD*%
%AMOC8*
5,1,8,0,0,1.08239X$1,22.5*
%
%ADD10C,0.0100*%
%ADD11C,0.0000*%
D10*
X004152Y007538D02*
X004152Y026538D01*
X020152Y026538D01*
X020152Y007538D01*
X004152Y007538D01*
D11*
X004762Y025263D02*
X004765Y025322D01*
X004773Y025381D01*
X004786Y025438D01*
X004805Y025495D01*
X004828Y025549D01*
X004857Y025601D01*
X004890Y025650D01*
X004927Y025696D01*
X004968Y025738D01*
X005013Y025776D01*
X005062Y025811D01*
X005113Y025840D01*
X005167Y025865D01*
X005222Y025885D01*
X005280Y025899D01*
X005338Y025909D01*
X005397Y025913D01*
X005456Y025911D01*
X005515Y025905D01*
X005573Y025893D01*
X005630Y025875D01*
X005684Y025853D01*
X005737Y025826D01*
X005787Y025794D01*
X005834Y025758D01*
X005877Y025717D01*
X005916Y025673D01*
X005951Y025626D01*
X005982Y025575D01*
X006008Y025522D01*
X006029Y025467D01*
X006045Y025410D01*
X006056Y025352D01*
X006061Y025293D01*
X006061Y025233D01*
X006056Y025174D01*
X006045Y025116D01*
X006029Y025059D01*
X006008Y025004D01*
X005982Y024951D01*
X005951Y024900D01*
X005916Y024853D01*
X005877Y024809D01*
X005834Y024768D01*
X005787Y024732D01*
X005737Y024700D01*
X005684Y024673D01*
X005630Y024651D01*
X005573Y024633D01*
X005515Y024621D01*
X005456Y024615D01*
X005397Y024613D01*
X005338Y024617D01*
X005280Y024627D01*
X005222Y024641D01*
X005167Y024661D01*
X005113Y024686D01*
X005062Y024715D01*
X005013Y024750D01*
X004968Y024788D01*
X004927Y024830D01*
X004890Y024876D01*
X004857Y024925D01*
X004828Y024977D01*
X004805Y025031D01*
X004786Y025088D01*
X004773Y025145D01*
X004765Y025204D01*
X004762Y025263D01*
X018227Y025263D02*
X018230Y025322D01*
X018238Y025381D01*
X018251Y025438D01*
X018270Y025495D01*
X018293Y025549D01*
X018322Y025601D01*
X018355Y025650D01*
X018392Y025696D01*
X018433Y025738D01*
X018478Y025776D01*
X018527Y025811D01*
X018578Y025840D01*
X018632Y025865D01*
X018687Y025885D01*
X018745Y025899D01*
X018803Y025909D01*
X018862Y025913D01*
X018921Y025911D01*
X018980Y025905D01*
X019038Y025893D01*
X019095Y025875D01*
X019149Y025853D01*
X019202Y025826D01*
X019252Y025794D01*
X019299Y025758D01*
X019342Y025717D01*
X019381Y025673D01*
X019416Y025626D01*
X019447Y025575D01*
X019473Y025522D01*
X019494Y025467D01*
X019510Y025410D01*
X019521Y025352D01*
X019526Y025293D01*
X019526Y025233D01*
X019521Y025174D01*
X019510Y025116D01*
X019494Y025059D01*
X019473Y025004D01*
X019447Y024951D01*
X019416Y024900D01*
X019381Y024853D01*
X019342Y024809D01*
X019299Y024768D01*
X019252Y024732D01*
X019202Y024700D01*
X019149Y024673D01*
X019095Y024651D01*
X019038Y024633D01*
X018980Y024621D01*
X018921Y024615D01*
X018862Y024613D01*
X018803Y024617D01*
X018745Y024627D01*
X018687Y024641D01*
X018632Y024661D01*
X018578Y024686D01*
X018527Y024715D01*
X018478Y024750D01*
X018433Y024788D01*
X018392Y024830D01*
X018355Y024876D01*
X018322Y024925D01*
X018293Y024977D01*
X018270Y025031D01*
X018251Y025088D01*
X018238Y025145D01*
X018230Y025204D01*
X018227Y025263D01*
M02*
