G75*
G70*
%OFA0B0*%
%FSLAX24Y24*%
%IPPOS*%
%LPD*%
%AMOC8*
5,1,8,0,0,1.08239X$1,22.5*
%
%ADD10C,0.0600*%
%ADD11C,0.0180*%
%ADD12C,0.0354*%
%ADD13C,0.0295*%
%ADD14C,0.0237*%
%ADD15C,0.0198*%
%ADD16C,0.0100*%
%ADD17C,0.0400*%
%ADD18C,0.0500*%
%ADD19C,0.0300*%
%ADD20C,0.0200*%
%ADD21C,0.0150*%
%ADD22C,0.0050*%
%ADD23C,0.0160*%
%ADD24C,0.0170*%
%ADD25C,0.0180*%
D10*
X004652Y008038D03*
X005652Y008038D03*
X006652Y008038D03*
X007652Y008038D03*
X008652Y008038D03*
X009652Y008038D03*
X010652Y008038D03*
X011652Y008038D03*
X012652Y008038D03*
X013652Y008038D03*
X014652Y008038D03*
X015652Y008038D03*
X016652Y008038D03*
X017652Y008038D03*
X018652Y008038D03*
X019652Y008038D03*
X019652Y011038D03*
X018652Y011038D03*
X018652Y012038D03*
X018652Y013038D03*
X018652Y014038D03*
X018652Y015038D03*
X018652Y016038D03*
X018652Y017038D03*
X018652Y018038D03*
X018652Y019038D03*
X018652Y020038D03*
X018652Y021038D03*
X018652Y022038D03*
X018652Y023038D03*
X019652Y023038D03*
X019652Y022038D03*
X019652Y021038D03*
X019652Y020038D03*
X019652Y019038D03*
X019652Y018038D03*
X019652Y017038D03*
X019652Y016038D03*
X019652Y015038D03*
X019652Y014038D03*
X019652Y013038D03*
X019652Y012038D03*
X005652Y012038D03*
X005652Y013038D03*
X005652Y014038D03*
X004652Y014038D03*
X004652Y013038D03*
X004652Y012038D03*
X004652Y011038D03*
X005652Y011038D03*
X005652Y015038D03*
X005652Y016038D03*
X005652Y017038D03*
X005652Y018038D03*
X004652Y018038D03*
X004652Y017038D03*
X004652Y016038D03*
X004652Y015038D03*
X004652Y019038D03*
X004652Y020038D03*
X004652Y021038D03*
X004652Y022038D03*
X004652Y023038D03*
X005652Y023038D03*
X005652Y022038D03*
X005652Y021038D03*
X005652Y020038D03*
X005652Y019038D03*
D11*
X008602Y018838D03*
X008802Y018988D03*
X009586Y018779D03*
X009900Y018779D03*
X009900Y018464D03*
X009900Y018149D03*
X009586Y018149D03*
X009586Y017834D03*
X009900Y017834D03*
X009900Y017519D03*
X009586Y017519D03*
X009586Y017204D03*
X009900Y017204D03*
X009900Y016889D03*
X009586Y016889D03*
X009271Y017204D03*
X009271Y017519D03*
X008752Y017488D03*
X008956Y016574D03*
X009271Y016574D03*
X009271Y016259D03*
X010215Y016889D03*
X010215Y017204D03*
X010530Y017204D03*
X010530Y016889D03*
X010530Y016574D03*
X010845Y016889D03*
X010845Y017204D03*
X010845Y017519D03*
X011160Y017204D03*
X011160Y016889D03*
X011160Y016574D03*
X011475Y016889D03*
X011475Y017204D03*
X011475Y017519D03*
X011790Y017519D03*
X011790Y017834D03*
X012105Y017834D03*
X012105Y018149D03*
X012105Y018464D03*
X012105Y018779D03*
X012105Y019094D03*
X011790Y019409D03*
X011790Y019723D03*
X011475Y019723D03*
X011475Y019409D03*
X011160Y019409D03*
X011160Y019723D03*
X010845Y019723D03*
X010530Y019723D03*
X010215Y019723D03*
X010215Y019409D03*
X010530Y019094D03*
X010530Y018779D03*
X010215Y018779D03*
X010530Y018464D03*
X010530Y018149D03*
X010215Y017834D03*
X011160Y018149D03*
X011475Y018464D03*
X011475Y018779D03*
X011790Y018779D03*
X011790Y018464D03*
X012420Y018464D03*
X012735Y018464D03*
X012735Y018779D03*
X012735Y019094D03*
X012735Y019409D03*
X012735Y019723D03*
X012420Y019723D03*
X012420Y020038D03*
X012735Y020038D03*
X013050Y020038D03*
X013050Y020353D03*
X012735Y020353D03*
X012420Y020353D03*
X012105Y020353D03*
X011790Y020038D03*
X011475Y020038D03*
X011160Y020038D03*
X010845Y020038D03*
X010530Y020038D03*
X010215Y020038D03*
X010530Y020353D03*
X010845Y020353D03*
X011160Y020353D03*
X011160Y020668D03*
X011042Y020905D03*
X011790Y020668D03*
X013050Y020668D03*
X013365Y020353D03*
X013444Y019763D03*
X013050Y019094D03*
X013050Y018779D03*
X013050Y018149D03*
X013050Y017834D03*
X012735Y017834D03*
X012420Y017834D03*
X012420Y017519D03*
X012420Y017204D03*
X012420Y016889D03*
X012105Y017519D03*
X011790Y017204D03*
X011790Y016889D03*
X011790Y016574D03*
X011790Y016259D03*
X010530Y016259D03*
X010530Y015983D03*
X011160Y018779D03*
X009900Y019409D03*
X009900Y019723D03*
X009586Y019723D03*
X009586Y019409D03*
X009271Y019723D03*
X009586Y020038D03*
X009900Y020038D03*
X009900Y020353D03*
X009586Y020353D03*
X009586Y020983D03*
X009900Y020936D03*
X010152Y021238D03*
X010255Y020786D03*
X009271Y020905D03*
X008956Y020353D03*
X008956Y020038D03*
X008641Y020275D03*
X013050Y017519D03*
X013365Y017834D03*
D12*
X013852Y019838D03*
X015352Y020238D03*
X015202Y017738D03*
X015202Y017388D03*
X016952Y014938D03*
X017502Y013988D03*
X015702Y014288D03*
X014752Y012888D03*
X013852Y013638D03*
X013502Y013638D03*
X012902Y013638D03*
X012552Y013638D03*
X012202Y013638D03*
X012602Y011988D03*
X012602Y011638D03*
X012152Y011288D03*
X013052Y009838D03*
X013852Y011238D03*
X015052Y009238D03*
X016152Y009688D03*
X016802Y010738D03*
X016402Y011438D03*
X017952Y009588D03*
X017952Y009488D03*
X017952Y009388D03*
X017952Y009288D03*
X017952Y009188D03*
X017952Y009088D03*
X017952Y008988D03*
X017502Y016838D03*
X017952Y021788D03*
X019152Y021538D03*
X010802Y022488D03*
X010702Y022488D03*
X010602Y022488D03*
X010502Y022488D03*
X010402Y022488D03*
X010302Y022488D03*
X010202Y022488D03*
X009602Y022288D03*
X008852Y024538D03*
X009552Y025238D03*
X007952Y025788D03*
X007502Y022488D03*
X007002Y022488D03*
X006352Y019738D03*
X008052Y014688D03*
X007802Y013338D03*
X007802Y012988D03*
X007002Y012138D03*
X007702Y011488D03*
X008052Y011138D03*
X007502Y010888D03*
X006952Y010138D03*
X006352Y009588D03*
X006352Y009488D03*
X006352Y009388D03*
X006352Y009288D03*
X006352Y009188D03*
X006352Y009088D03*
X006352Y008988D03*
X006952Y009238D03*
X009402Y013138D03*
X010152Y011338D03*
X010927Y009813D03*
D13*
X011852Y009948D03*
X008752Y013788D03*
X006852Y016838D03*
X012127Y015638D03*
X012977Y015713D03*
X014202Y014688D03*
X014652Y014738D03*
X016502Y015088D03*
X015202Y016938D03*
X016152Y018188D03*
X016702Y020088D03*
X015502Y021088D03*
X013652Y018188D03*
D14*
X013552Y017488D03*
X011552Y021138D03*
X011252Y021088D03*
X008602Y017238D03*
X008752Y016388D03*
X008452Y014188D03*
X007252Y021038D03*
X014202Y010138D03*
X017552Y022088D03*
D15*
X017152Y016338D03*
X017452Y016188D03*
X017502Y015888D03*
X017452Y015488D03*
X017152Y015738D03*
X017602Y014338D03*
X017402Y012538D03*
X017602Y012238D03*
X015652Y014688D03*
X015102Y014288D03*
X015152Y014038D03*
X014902Y014038D03*
X014702Y014388D03*
X014452Y014488D03*
X015302Y013838D03*
X013252Y014588D03*
X013052Y014738D03*
X012802Y014738D03*
X012352Y014038D03*
X012102Y014038D03*
X011852Y014038D03*
X011602Y013738D03*
X011102Y013738D03*
X010802Y014088D03*
X010602Y014288D03*
X010802Y014488D03*
X010652Y014738D03*
X010102Y014288D03*
X010402Y013888D03*
X010052Y013788D03*
X009652Y013538D03*
X009352Y013488D03*
X009152Y014038D03*
X009152Y014438D03*
X009152Y014738D03*
X009552Y014388D03*
X009802Y014788D03*
X009552Y015738D03*
X009002Y015888D03*
X008702Y015838D03*
X008702Y015588D03*
X007802Y015388D03*
X007502Y015388D03*
X007127Y015463D03*
X007127Y015213D03*
X007002Y017888D03*
X006752Y017888D03*
X006752Y018138D03*
X006752Y018388D03*
X006902Y020188D03*
X007152Y020188D03*
X008502Y020488D03*
X009152Y021588D03*
X008252Y022888D03*
X008602Y023038D03*
X008602Y023288D03*
X010563Y021688D03*
X011852Y021288D03*
X012052Y021288D03*
X011502Y014738D03*
X011977Y014613D03*
D16*
X005034Y007784D02*
X004989Y007738D01*
X005245Y007738D01*
X005229Y007755D01*
X005152Y007939D01*
X005152Y007988D01*
X005602Y007988D01*
X005602Y008088D01*
X005152Y008088D01*
X005152Y008138D01*
X005229Y008322D01*
X005369Y008462D01*
X005553Y008538D01*
X005602Y008538D01*
X005602Y008089D01*
X005702Y008089D01*
X005702Y008538D01*
X005752Y008538D01*
X005936Y008462D01*
X006499Y008462D01*
X006563Y008488D02*
X006398Y008420D01*
X006271Y008293D01*
X006202Y008128D01*
X006202Y007949D01*
X006271Y007784D01*
X006316Y007738D01*
X006059Y007738D01*
X006076Y007755D01*
X006152Y007939D01*
X006152Y007988D01*
X005703Y007988D01*
X005703Y008088D01*
X006152Y008088D01*
X006152Y008138D01*
X006076Y008322D01*
X005936Y008462D01*
X006035Y008363D02*
X006341Y008363D01*
X006259Y008265D02*
X006100Y008265D01*
X006141Y008166D02*
X006218Y008166D01*
X006202Y008068D02*
X005703Y008068D01*
X005702Y008166D02*
X005602Y008166D01*
X005602Y008068D02*
X005102Y008068D01*
X005102Y008128D02*
X005052Y008249D01*
X005052Y010038D01*
X005757Y010038D01*
X006047Y010038D01*
X006640Y010038D01*
X006625Y010073D02*
X006675Y009953D01*
X006767Y009861D01*
X006833Y009834D01*
X007778Y008888D01*
X007078Y008888D01*
X006902Y008713D01*
X006678Y008488D01*
X006563Y008488D01*
X006750Y008560D02*
X005052Y008560D01*
X005052Y008462D02*
X005369Y008462D01*
X005270Y008363D02*
X005052Y008363D01*
X005052Y008265D02*
X005205Y008265D01*
X005164Y008166D02*
X005087Y008166D01*
X005102Y008128D02*
X005102Y007949D01*
X005034Y007784D01*
X005022Y007772D02*
X005222Y007772D01*
X005181Y007870D02*
X005070Y007870D01*
X005102Y007969D02*
X005152Y007969D01*
X005602Y008265D02*
X005702Y008265D01*
X005702Y008363D02*
X005602Y008363D01*
X005602Y008462D02*
X005702Y008462D01*
X006075Y008803D02*
X006167Y008711D01*
X006287Y008661D01*
X006418Y008661D01*
X006538Y008711D01*
X006630Y008803D01*
X006680Y008923D01*
X006680Y009023D01*
X006680Y009049D01*
X006767Y008961D01*
X006887Y008911D01*
X007018Y008911D01*
X007138Y008961D01*
X007230Y009053D01*
X007280Y009173D01*
X007280Y009304D01*
X007230Y009424D01*
X007138Y009516D01*
X007018Y009566D01*
X006887Y009566D01*
X006767Y009516D01*
X006680Y009428D01*
X006680Y009523D01*
X006680Y009654D01*
X006630Y009774D01*
X006538Y009866D01*
X006418Y009916D01*
X006287Y009916D01*
X006167Y009866D01*
X006075Y009774D01*
X006025Y009654D01*
X006025Y009523D01*
X006025Y009423D01*
X006025Y009323D01*
X006025Y009223D01*
X006025Y009123D01*
X006025Y009023D01*
X006025Y008923D01*
X006075Y008803D01*
X006053Y008856D02*
X005052Y008856D01*
X005052Y008954D02*
X006025Y008954D01*
X006025Y009053D02*
X005052Y009053D01*
X005052Y009152D02*
X006025Y009152D01*
X006025Y009250D02*
X005052Y009250D01*
X005052Y009349D02*
X006025Y009349D01*
X006025Y009447D02*
X005052Y009447D01*
X005052Y009546D02*
X006025Y009546D01*
X006025Y009644D02*
X005052Y009644D01*
X005052Y009743D02*
X006062Y009743D01*
X006143Y009841D02*
X005052Y009841D01*
X005052Y009940D02*
X006688Y009940D01*
X006625Y010073D02*
X006625Y010204D01*
X006675Y010324D01*
X006767Y010416D01*
X006887Y010466D01*
X007018Y010466D01*
X007138Y010416D01*
X007230Y010324D01*
X007257Y010258D01*
X008227Y009288D01*
X014028Y009288D01*
X014552Y009813D01*
X014728Y009988D01*
X015078Y009988D01*
X015327Y009988D01*
X015777Y009538D01*
X016778Y009538D01*
X017752Y010513D01*
X017752Y012036D01*
X017744Y012027D01*
X017652Y011989D01*
X017553Y011989D01*
X017461Y012027D01*
X017391Y012097D01*
X017353Y012189D01*
X017353Y012288D01*
X017354Y012289D01*
X017353Y012289D01*
X017261Y012327D01*
X017191Y012397D01*
X017153Y012489D01*
X017153Y012588D01*
X017191Y012679D01*
X017261Y012750D01*
X017353Y012787D01*
X017452Y012787D01*
X017544Y012750D01*
X017614Y012679D01*
X017651Y012588D01*
X017651Y012489D01*
X017651Y012487D01*
X017652Y012487D01*
X017744Y012450D01*
X017752Y012441D01*
X017752Y013314D01*
X017383Y013684D01*
X017317Y013711D01*
X017225Y013803D01*
X017175Y013923D01*
X017175Y014054D01*
X017225Y014174D01*
X017317Y014266D01*
X017356Y014282D01*
X017353Y014289D01*
X017353Y014388D01*
X017391Y014479D01*
X017461Y014550D01*
X017553Y014587D01*
X017652Y014587D01*
X017744Y014550D01*
X017814Y014479D01*
X017851Y014388D01*
X017851Y014289D01*
X017814Y014197D01*
X017783Y014167D01*
X017807Y014108D01*
X018352Y013563D01*
X018352Y013375D01*
X018398Y013420D01*
X018563Y013488D01*
X018742Y013488D01*
X018907Y013420D01*
X019034Y013293D01*
X019102Y013128D01*
X019102Y012949D01*
X019034Y012784D01*
X018907Y012657D01*
X018742Y012588D01*
X018563Y012588D01*
X018398Y012657D01*
X018352Y012702D01*
X018352Y012375D01*
X018398Y012420D01*
X018563Y012488D01*
X018742Y012488D01*
X018907Y012420D01*
X019034Y012293D01*
X019102Y012128D01*
X019102Y011949D01*
X019034Y011784D01*
X018907Y011657D01*
X018742Y011588D01*
X018563Y011588D01*
X018398Y011657D01*
X018352Y011702D01*
X018352Y011445D01*
X018369Y011462D01*
X018553Y011538D01*
X018602Y011538D01*
X018602Y011089D01*
X018702Y011089D01*
X018702Y011538D01*
X018752Y011538D01*
X018936Y011462D01*
X019076Y011322D01*
X019152Y011138D01*
X019152Y011088D01*
X018703Y011088D01*
X018703Y010988D01*
X019152Y010988D01*
X019152Y010939D01*
X019076Y010755D01*
X018936Y010615D01*
X018752Y010538D01*
X018702Y010538D01*
X018702Y010988D01*
X018602Y010988D01*
X018602Y010538D01*
X018553Y010538D01*
X018369Y010615D01*
X018352Y010631D01*
X018352Y010264D01*
X018177Y010088D01*
X018004Y009916D01*
X018018Y009916D01*
X018138Y009866D01*
X018230Y009774D01*
X018280Y009654D01*
X018280Y009523D01*
X018280Y009423D01*
X018280Y009323D01*
X018280Y009223D01*
X018280Y009123D01*
X018280Y009023D01*
X018280Y008923D01*
X018230Y008803D01*
X018138Y008711D01*
X018018Y008661D01*
X017887Y008661D01*
X017767Y008711D01*
X017675Y008803D01*
X017625Y008923D01*
X017625Y009023D01*
X017625Y009123D01*
X017625Y009223D01*
X017625Y009323D01*
X017625Y009423D01*
X017625Y009523D01*
X017625Y009537D01*
X017027Y008938D01*
X016778Y008938D01*
X015528Y008938D01*
X015354Y009112D01*
X015330Y009053D01*
X015238Y008961D01*
X015172Y008934D01*
X014727Y008488D01*
X014742Y008488D01*
X014907Y008420D01*
X015034Y008293D01*
X015102Y008128D01*
X015102Y007949D01*
X015034Y007784D01*
X014989Y007738D01*
X015316Y007738D01*
X015271Y007784D01*
X015202Y007949D01*
X015202Y008128D01*
X015271Y008293D01*
X015398Y008420D01*
X015563Y008488D01*
X015742Y008488D01*
X015907Y008420D01*
X016034Y008293D01*
X016102Y008128D01*
X016102Y007949D01*
X016034Y007784D01*
X015989Y007738D01*
X016316Y007738D01*
X016271Y007784D01*
X016202Y007949D01*
X016202Y008128D01*
X016271Y008293D01*
X016398Y008420D01*
X016563Y008488D01*
X016742Y008488D01*
X016907Y008420D01*
X017034Y008293D01*
X017102Y008128D01*
X017102Y007949D01*
X017034Y007784D01*
X016989Y007738D01*
X017316Y007738D01*
X017271Y007784D01*
X017202Y007949D01*
X017202Y008128D01*
X017271Y008293D01*
X017398Y008420D01*
X017563Y008488D01*
X017742Y008488D01*
X017907Y008420D01*
X018034Y008293D01*
X018102Y008128D01*
X018102Y007949D01*
X018034Y007784D01*
X017989Y007738D01*
X018316Y007738D01*
X018271Y007784D01*
X018202Y007949D01*
X018202Y008128D01*
X018271Y008293D01*
X018398Y008420D01*
X018563Y008488D01*
X018742Y008488D01*
X018907Y008420D01*
X019034Y008293D01*
X019102Y008128D01*
X019102Y007949D01*
X019034Y007784D01*
X018989Y007738D01*
X019316Y007738D01*
X019271Y007784D01*
X019202Y007949D01*
X019202Y008128D01*
X019271Y008293D01*
X019398Y008420D01*
X019563Y008488D01*
X019742Y008488D01*
X019907Y008420D01*
X019952Y008375D01*
X019952Y010702D01*
X019907Y010657D01*
X019742Y010588D01*
X019563Y010588D01*
X019398Y010657D01*
X019271Y010784D01*
X019202Y010949D01*
X019202Y011128D01*
X019271Y011293D01*
X019398Y011420D01*
X019563Y011488D01*
X019742Y011488D01*
X019907Y011420D01*
X019952Y011375D01*
X019952Y011702D01*
X019907Y011657D01*
X019742Y011588D01*
X019563Y011588D01*
X019398Y011657D01*
X019271Y011784D01*
X019202Y011949D01*
X019202Y012128D01*
X019271Y012293D01*
X019398Y012420D01*
X019563Y012488D01*
X019742Y012488D01*
X019907Y012420D01*
X019952Y012375D01*
X019952Y012702D01*
X019907Y012657D01*
X019742Y012588D01*
X019563Y012588D01*
X019398Y012657D01*
X019271Y012784D01*
X019202Y012949D01*
X019202Y013128D01*
X019271Y013293D01*
X019398Y013420D01*
X019563Y013488D01*
X019742Y013488D01*
X019907Y013420D01*
X019952Y013375D01*
X019952Y013702D01*
X019907Y013657D01*
X019742Y013588D01*
X019563Y013588D01*
X019398Y013657D01*
X019271Y013784D01*
X019202Y013949D01*
X019202Y014128D01*
X019271Y014293D01*
X019398Y014420D01*
X019563Y014488D01*
X019742Y014488D01*
X019907Y014420D01*
X019952Y014375D01*
X019952Y014702D01*
X019907Y014657D01*
X019742Y014588D01*
X019563Y014588D01*
X019398Y014657D01*
X019271Y014784D01*
X019202Y014949D01*
X019202Y015128D01*
X019271Y015293D01*
X019366Y015388D01*
X019250Y015388D01*
X019225Y015363D01*
X019080Y015363D01*
X018964Y015363D01*
X019034Y015293D01*
X019102Y015128D01*
X019102Y014949D01*
X019034Y014784D01*
X018907Y014657D01*
X018742Y014588D01*
X018563Y014588D01*
X018398Y014657D01*
X018271Y014784D01*
X018202Y014949D01*
X018202Y015128D01*
X018271Y015293D01*
X018386Y015408D01*
X018027Y015766D01*
X018027Y015911D01*
X018027Y016366D01*
X017677Y016716D01*
X017677Y016861D01*
X017677Y016866D01*
X017580Y016963D01*
X017580Y016963D01*
X017477Y017066D01*
X017477Y020866D01*
X016530Y021813D01*
X011825Y021813D01*
X011350Y021339D01*
X011366Y021332D01*
X011400Y021366D01*
X011499Y021407D01*
X011606Y021407D01*
X011628Y021398D01*
X011641Y021429D01*
X011711Y021500D01*
X011803Y021537D01*
X011902Y021537D01*
X011952Y021517D01*
X012003Y021537D01*
X012102Y021537D01*
X012194Y021500D01*
X012264Y021429D01*
X012301Y021338D01*
X012301Y021239D01*
X012281Y021188D01*
X013906Y021188D01*
X014052Y021042D01*
X014606Y020488D01*
X014752Y020342D01*
X014752Y018135D01*
X014752Y018064D01*
X014752Y017263D01*
X014938Y017077D01*
X014950Y017107D01*
X014986Y017143D01*
X014925Y017203D01*
X014875Y017323D01*
X014875Y017454D01*
X014921Y017563D01*
X014875Y017673D01*
X014875Y017804D01*
X014925Y017924D01*
X015017Y018016D01*
X015137Y018066D01*
X015268Y018066D01*
X015388Y018016D01*
X015480Y017924D01*
X015530Y017804D01*
X015530Y017673D01*
X015484Y017563D01*
X015530Y017454D01*
X015530Y017323D01*
X015480Y017203D01*
X015419Y017143D01*
X015455Y017107D01*
X015500Y016998D01*
X015500Y016879D01*
X015455Y016770D01*
X015371Y016686D01*
X015341Y016674D01*
X016227Y015788D01*
X016727Y015788D01*
X016902Y015613D01*
X017252Y015263D01*
X017252Y015069D01*
X017280Y015004D01*
X017280Y014873D01*
X017230Y014753D01*
X017138Y014661D01*
X017018Y014611D01*
X016887Y014611D01*
X016767Y014661D01*
X016675Y014753D01*
X016645Y014825D01*
X016562Y014791D01*
X016443Y014791D01*
X016334Y014836D01*
X016250Y014920D01*
X016205Y015029D01*
X016205Y015148D01*
X016222Y015188D01*
X015978Y015188D01*
X014328Y016838D01*
X014152Y017014D01*
X014152Y017888D01*
X013528Y017888D01*
X013352Y018064D01*
X013352Y018313D01*
X013528Y018488D01*
X014252Y018488D01*
X014252Y020135D01*
X013699Y020688D01*
X012030Y020688D01*
X012030Y020621D01*
X011994Y020532D01*
X011926Y020465D01*
X011838Y020428D01*
X011742Y020428D01*
X011654Y020465D01*
X011626Y020494D01*
X011399Y020266D01*
X011428Y020278D01*
X011523Y020278D01*
X011611Y020242D01*
X011679Y020174D01*
X011715Y020086D01*
X011715Y019991D01*
X012180Y019991D01*
X012217Y019902D01*
X012238Y019881D01*
X012217Y019859D01*
X012180Y019771D01*
X012180Y019676D01*
X012217Y019587D01*
X012284Y019520D01*
X012372Y019483D01*
X012468Y019483D01*
X012514Y019503D01*
X012495Y019456D01*
X012495Y019361D01*
X012532Y019273D01*
X012553Y019251D01*
X012532Y019229D01*
X012495Y019141D01*
X012495Y019046D01*
X012532Y018958D01*
X012553Y018936D01*
X012532Y018915D01*
X012495Y018826D01*
X012495Y018731D01*
X012514Y018684D01*
X012468Y018704D01*
X012388Y018704D01*
X012345Y018747D01*
X012345Y018826D01*
X012309Y018915D01*
X012287Y018936D01*
X012309Y018958D01*
X012345Y019046D01*
X012345Y019141D01*
X012309Y019229D01*
X012241Y019297D01*
X012153Y019334D01*
X012057Y019334D01*
X011969Y019297D01*
X011902Y019229D01*
X011865Y019141D01*
X011865Y019046D01*
X011884Y018999D01*
X011838Y019019D01*
X011742Y019019D01*
X011654Y018982D01*
X011633Y018960D01*
X011611Y018982D01*
X011523Y019019D01*
X011428Y019019D01*
X011339Y018982D01*
X011318Y018960D01*
X011296Y018982D01*
X011208Y019019D01*
X011113Y019019D01*
X011024Y018982D01*
X010957Y018915D01*
X010920Y018826D01*
X010920Y018731D01*
X010957Y018643D01*
X011024Y018575D01*
X011113Y018539D01*
X011208Y018539D01*
X011255Y018558D01*
X011235Y018511D01*
X011235Y018416D01*
X011253Y018374D01*
X011244Y018374D01*
X011208Y018389D01*
X011113Y018389D01*
X011076Y018374D01*
X011067Y018374D01*
X011061Y018367D01*
X011024Y018352D01*
X010957Y018285D01*
X010942Y018248D01*
X010935Y018242D01*
X010935Y018233D01*
X010920Y018196D01*
X010920Y018101D01*
X010935Y018065D01*
X010935Y018055D01*
X010942Y018049D01*
X010957Y018013D01*
X011024Y017945D01*
X011061Y017930D01*
X011067Y017924D01*
X011076Y017924D01*
X011113Y017909D01*
X011208Y017909D01*
X011244Y017924D01*
X011540Y017924D01*
X011540Y017888D01*
X011540Y017730D01*
X011687Y017584D01*
X011894Y017584D01*
X011955Y017645D01*
X011969Y017630D01*
X012057Y017594D01*
X012098Y017594D01*
X012180Y017511D01*
X012180Y017471D01*
X012217Y017383D01*
X012238Y017361D01*
X012217Y017340D01*
X012180Y017251D01*
X012180Y017156D01*
X012217Y017068D01*
X012238Y017046D01*
X012217Y017025D01*
X012180Y016937D01*
X012180Y016841D01*
X012217Y016753D01*
X012284Y016685D01*
X012372Y016649D01*
X012468Y016649D01*
X012556Y016685D01*
X012585Y016714D01*
X012780Y016714D01*
X014927Y014566D01*
X014927Y014496D01*
X014914Y014529D01*
X014844Y014600D01*
X014752Y014637D01*
X014656Y014637D01*
X014594Y014700D01*
X014502Y014737D01*
X014500Y014737D01*
X014500Y014748D01*
X014455Y014857D01*
X014371Y014941D01*
X014262Y014986D01*
X014143Y014986D01*
X014034Y014941D01*
X013950Y014857D01*
X013905Y014748D01*
X013905Y014629D01*
X013950Y014520D01*
X014034Y014436D01*
X014143Y014391D01*
X014223Y014391D01*
X014241Y014347D01*
X014311Y014277D01*
X014403Y014239D01*
X014499Y014239D01*
X014561Y014177D01*
X014653Y014139D01*
X014675Y014139D01*
X014653Y014088D01*
X014653Y013989D01*
X014691Y013897D01*
X014761Y013827D01*
X014853Y013789D01*
X014952Y013789D01*
X015027Y013821D01*
X015053Y013810D01*
X015053Y013789D01*
X015091Y013697D01*
X015161Y013627D01*
X015253Y013589D01*
X015352Y013589D01*
X015444Y013627D01*
X015514Y013697D01*
X015551Y013789D01*
X015551Y013840D01*
X015577Y013866D01*
X015577Y013986D01*
X015637Y013961D01*
X015768Y013961D01*
X015888Y014011D01*
X015980Y014103D01*
X016030Y014223D01*
X016030Y014354D01*
X015980Y014474D01*
X015888Y014566D01*
X015874Y014572D01*
X015901Y014639D01*
X015901Y014738D01*
X015864Y014829D01*
X015794Y014900D01*
X015702Y014937D01*
X015603Y014937D01*
X015511Y014900D01*
X015450Y014838D01*
X013050Y017238D01*
X013184Y017238D01*
X013454Y017238D01*
X013499Y017220D01*
X013606Y017220D01*
X013651Y017238D01*
X013656Y017238D01*
X013659Y017242D01*
X013705Y017261D01*
X013780Y017336D01*
X013799Y017381D01*
X013802Y017385D01*
X013802Y017390D01*
X013821Y017435D01*
X013821Y017542D01*
X013802Y017587D01*
X013802Y017592D01*
X013799Y017595D01*
X013780Y017641D01*
X013705Y017716D01*
X013659Y017735D01*
X013656Y017738D01*
X013651Y017738D01*
X013606Y017757D01*
X013499Y017757D01*
X013454Y017738D01*
X013300Y017738D01*
X013300Y017937D01*
X013239Y017998D01*
X013254Y018013D01*
X013290Y018101D01*
X013290Y018196D01*
X013254Y018285D01*
X013186Y018352D01*
X013098Y018389D01*
X013002Y018389D01*
X012956Y018369D01*
X012975Y018416D01*
X012975Y018511D01*
X012956Y018558D01*
X013002Y018539D01*
X013098Y018539D01*
X013186Y018575D01*
X013254Y018643D01*
X013290Y018731D01*
X013290Y018826D01*
X013254Y018915D01*
X013232Y018936D01*
X013254Y018958D01*
X013290Y019046D01*
X013290Y019141D01*
X013254Y019229D01*
X013186Y019297D01*
X013098Y019334D01*
X013002Y019334D01*
X012956Y019314D01*
X012975Y019361D01*
X012975Y019456D01*
X012939Y019544D01*
X012917Y019566D01*
X012939Y019587D01*
X012975Y019676D01*
X012975Y019771D01*
X012956Y019818D01*
X013002Y019798D01*
X013098Y019798D01*
X013186Y019835D01*
X013234Y019883D01*
X013204Y019811D01*
X013204Y019715D01*
X013240Y019627D01*
X013308Y019559D01*
X013396Y019523D01*
X013491Y019523D01*
X013580Y019559D01*
X013624Y019604D01*
X013667Y019561D01*
X013787Y019511D01*
X013918Y019511D01*
X014038Y019561D01*
X014130Y019653D01*
X014180Y019773D01*
X014180Y019904D01*
X014130Y020024D01*
X014038Y020116D01*
X013918Y020166D01*
X013787Y020166D01*
X013667Y020116D01*
X013575Y020024D01*
X013555Y019976D01*
X013491Y020003D01*
X013396Y020003D01*
X013308Y019966D01*
X013260Y019919D01*
X013290Y019991D01*
X013368Y019991D01*
X013290Y019991D02*
X013290Y020086D01*
X013271Y020133D01*
X013317Y020113D01*
X013413Y020113D01*
X013501Y020150D01*
X013568Y020217D01*
X013605Y020306D01*
X013605Y020401D01*
X013568Y020489D01*
X013501Y020557D01*
X013413Y020593D01*
X013317Y020593D01*
X013229Y020557D01*
X013208Y020535D01*
X013186Y020557D01*
X013098Y020593D01*
X013002Y020593D01*
X012914Y020557D01*
X012893Y020535D01*
X012871Y020557D01*
X012783Y020593D01*
X012687Y020593D01*
X012599Y020557D01*
X012578Y020535D01*
X012556Y020557D01*
X012468Y020593D01*
X012372Y020593D01*
X012284Y020557D01*
X012217Y020489D01*
X012180Y020401D01*
X012180Y020306D01*
X012217Y020217D01*
X012238Y020196D01*
X012217Y020174D01*
X012180Y020086D01*
X012180Y019991D01*
X012182Y020090D02*
X011714Y020090D01*
X011790Y020038D02*
X011633Y019881D01*
X011696Y019944D02*
X011715Y019991D01*
X011742Y019963D02*
X011696Y019944D01*
X011742Y019963D02*
X011838Y019963D01*
X011926Y019927D01*
X011994Y019859D01*
X012030Y019771D01*
X012030Y019676D01*
X011994Y019587D01*
X011926Y019520D01*
X011838Y019483D01*
X011742Y019483D01*
X011654Y019520D01*
X011633Y019542D01*
X011611Y019520D01*
X011523Y019483D01*
X011428Y019483D01*
X011381Y019503D01*
X011400Y019456D01*
X011400Y019361D01*
X011364Y019273D01*
X011296Y019205D01*
X011208Y019169D01*
X011113Y019169D01*
X011024Y019205D01*
X010957Y019273D01*
X010920Y019361D01*
X010920Y019456D01*
X010940Y019503D01*
X010893Y019483D01*
X010798Y019483D01*
X010709Y019520D01*
X010688Y019542D01*
X010666Y019520D01*
X010578Y019483D01*
X010483Y019483D01*
X010394Y019520D01*
X010373Y019542D01*
X010351Y019520D01*
X010263Y019483D01*
X010168Y019483D01*
X010121Y019503D01*
X010140Y019456D01*
X010140Y019361D01*
X010104Y019273D01*
X010036Y019205D01*
X009948Y019169D01*
X009853Y019169D01*
X009764Y019205D01*
X009743Y019227D01*
X009721Y019205D01*
X009633Y019169D01*
X009538Y019169D01*
X009450Y019205D01*
X009382Y019273D01*
X009346Y019361D01*
X009346Y019456D01*
X009365Y019503D01*
X009318Y019483D01*
X009223Y019483D01*
X009135Y019520D01*
X009067Y019587D01*
X009031Y019676D01*
X009031Y019771D01*
X009050Y019818D01*
X009003Y019798D01*
X008908Y019798D01*
X008820Y019835D01*
X008752Y019902D01*
X008716Y019991D01*
X007997Y019991D01*
X008096Y019893D02*
X008762Y019893D01*
X008716Y019991D02*
X008716Y020031D01*
X008705Y020042D01*
X008688Y020035D01*
X008593Y020035D01*
X008505Y020071D01*
X008437Y020139D01*
X008401Y020227D01*
X008401Y020261D01*
X008361Y020277D01*
X008291Y020347D01*
X008253Y020439D01*
X008253Y020538D01*
X008291Y020629D01*
X008361Y020700D01*
X008453Y020737D01*
X008515Y020737D01*
X008515Y020803D01*
X008515Y020948D01*
X008978Y021411D01*
X008941Y021447D01*
X008903Y021539D01*
X008903Y021638D01*
X008941Y021729D01*
X009011Y021800D01*
X009103Y021837D01*
X009202Y021837D01*
X009294Y021800D01*
X009364Y021729D01*
X009391Y021663D01*
X009630Y021663D01*
X010127Y022161D01*
X010131Y022164D01*
X010017Y022211D01*
X009930Y022299D01*
X009930Y022223D01*
X009880Y022103D01*
X009788Y022011D01*
X009668Y021961D01*
X009537Y021961D01*
X009417Y022011D01*
X009325Y022103D01*
X009275Y022223D01*
X009275Y022354D01*
X009325Y022474D01*
X009417Y022566D01*
X009537Y022616D01*
X009668Y022616D01*
X009788Y022566D01*
X009875Y022478D01*
X009875Y022554D01*
X009925Y022674D01*
X010002Y022751D01*
X010002Y026338D01*
X004352Y026338D01*
X004352Y023375D01*
X004398Y023420D01*
X004563Y023488D01*
X004742Y023488D01*
X004907Y023420D01*
X005034Y023293D01*
X005102Y023128D01*
X005102Y022949D01*
X005034Y022784D01*
X004907Y022657D01*
X004742Y022588D01*
X004563Y022588D01*
X004398Y022657D01*
X004352Y022702D01*
X004352Y022375D01*
X004398Y022420D01*
X004563Y022488D01*
X004742Y022488D01*
X004907Y022420D01*
X005034Y022293D01*
X005102Y022128D01*
X005102Y021949D01*
X005034Y021784D01*
X004907Y021657D01*
X004742Y021588D01*
X004563Y021588D01*
X004398Y021657D01*
X004352Y021702D01*
X004352Y021375D01*
X004398Y021420D01*
X004563Y021488D01*
X004742Y021488D01*
X004907Y021420D01*
X005034Y021293D01*
X005102Y021128D01*
X005102Y020949D01*
X005034Y020784D01*
X004907Y020657D01*
X004742Y020588D01*
X004563Y020588D01*
X004398Y020657D01*
X004352Y020702D01*
X004352Y020375D01*
X004398Y020420D01*
X004563Y020488D01*
X004742Y020488D01*
X004907Y020420D01*
X005034Y020293D01*
X005102Y020128D01*
X005102Y019949D01*
X005034Y019784D01*
X004907Y019657D01*
X004742Y019588D01*
X004563Y019588D01*
X004398Y019657D01*
X004352Y019702D01*
X004352Y019375D01*
X004398Y019420D01*
X004563Y019488D01*
X004742Y019488D01*
X004907Y019420D01*
X005034Y019293D01*
X005102Y019128D01*
X005102Y018949D01*
X005034Y018784D01*
X004907Y018657D01*
X004742Y018588D01*
X004563Y018588D01*
X004398Y018657D01*
X004352Y018702D01*
X004352Y018375D01*
X004398Y018420D01*
X004563Y018488D01*
X004742Y018488D01*
X004907Y018420D01*
X005034Y018293D01*
X005102Y018128D01*
X005102Y017949D01*
X005034Y017784D01*
X004907Y017657D01*
X004742Y017588D01*
X004563Y017588D01*
X004398Y017657D01*
X004352Y017702D01*
X004352Y017375D01*
X004398Y017420D01*
X004563Y017488D01*
X004742Y017488D01*
X004907Y017420D01*
X005034Y017293D01*
X005102Y017128D01*
X005102Y016949D01*
X005034Y016784D01*
X004907Y016657D01*
X004742Y016588D01*
X004563Y016588D01*
X004398Y016657D01*
X004352Y016702D01*
X004352Y016375D01*
X004398Y016420D01*
X004563Y016488D01*
X004742Y016488D01*
X004907Y016420D01*
X005034Y016293D01*
X005102Y016128D01*
X005102Y015949D01*
X005034Y015784D01*
X004907Y015657D01*
X004742Y015588D01*
X004563Y015588D01*
X004398Y015657D01*
X004352Y015702D01*
X004352Y015375D01*
X004398Y015420D01*
X004563Y015488D01*
X004742Y015488D01*
X004907Y015420D01*
X005034Y015293D01*
X005102Y015128D01*
X005102Y014949D01*
X005034Y014784D01*
X004907Y014657D01*
X004742Y014588D01*
X004563Y014588D01*
X004398Y014657D01*
X004352Y014702D01*
X004352Y014375D01*
X004398Y014420D01*
X004563Y014488D01*
X004742Y014488D01*
X004907Y014420D01*
X005034Y014293D01*
X005102Y014128D01*
X005102Y013949D01*
X005034Y013784D01*
X004907Y013657D01*
X004742Y013588D01*
X004563Y013588D01*
X004398Y013657D01*
X004352Y013702D01*
X004352Y013375D01*
X004398Y013420D01*
X004563Y013488D01*
X004742Y013488D01*
X004907Y013420D01*
X005034Y013293D01*
X005102Y013128D01*
X005102Y012949D01*
X005034Y012784D01*
X004907Y012657D01*
X004742Y012588D01*
X004563Y012588D01*
X004398Y012657D01*
X004352Y012702D01*
X004352Y012375D01*
X004398Y012420D01*
X004563Y012488D01*
X004742Y012488D01*
X004907Y012420D01*
X005034Y012293D01*
X005102Y012128D01*
X005102Y011949D01*
X005034Y011784D01*
X004907Y011657D01*
X004742Y011588D01*
X004563Y011588D01*
X004398Y011657D01*
X004352Y011702D01*
X004352Y011375D01*
X004398Y011420D01*
X004563Y011488D01*
X004742Y011488D01*
X004907Y011420D01*
X005034Y011293D01*
X005102Y011128D01*
X005102Y010949D01*
X005052Y010828D01*
X005052Y010738D01*
X005316Y010738D01*
X005271Y010784D01*
X005202Y010949D01*
X005202Y011128D01*
X005271Y011293D01*
X005398Y011420D01*
X005563Y011488D01*
X005742Y011488D01*
X005907Y011420D01*
X006034Y011293D01*
X006102Y011128D01*
X006102Y011083D01*
X006862Y011843D01*
X006817Y011861D01*
X006725Y011953D01*
X006675Y012073D01*
X006675Y012204D01*
X006725Y012324D01*
X006817Y012416D01*
X006937Y012466D01*
X006976Y012466D01*
X007152Y012642D01*
X007152Y013435D01*
X007152Y013642D01*
X007906Y014395D01*
X007867Y014411D01*
X007775Y014503D01*
X007725Y014623D01*
X007725Y014754D01*
X007775Y014874D01*
X007867Y014966D01*
X007987Y015016D01*
X008118Y015016D01*
X008152Y015001D01*
X008152Y016385D01*
X008152Y016592D01*
X008352Y016792D01*
X008499Y016938D01*
X008752Y016938D01*
X008752Y017010D01*
X008656Y016970D01*
X008549Y016970D01*
X008450Y017011D01*
X008375Y017086D01*
X008334Y017185D01*
X008334Y017292D01*
X008375Y017391D01*
X008450Y017466D01*
X008512Y017492D01*
X008512Y017536D01*
X008549Y017624D01*
X008616Y017692D01*
X008705Y017728D01*
X008752Y017728D01*
X008752Y017892D01*
X008899Y018038D01*
X008970Y018038D01*
X009152Y018221D01*
X009152Y018538D01*
X009152Y018751D01*
X009152Y018917D01*
X009347Y019111D01*
X009513Y019111D01*
X009513Y019111D01*
X009946Y019111D01*
X009989Y019111D01*
X010054Y019175D01*
X010305Y019175D01*
X010327Y019229D01*
X010394Y019297D01*
X010483Y019334D01*
X010578Y019334D01*
X010666Y019297D01*
X010734Y019229D01*
X010770Y019141D01*
X010770Y019046D01*
X010734Y018958D01*
X010712Y018936D01*
X010734Y018915D01*
X010770Y018826D01*
X010770Y018731D01*
X010734Y018643D01*
X010666Y018575D01*
X010578Y018539D01*
X010483Y018539D01*
X010394Y018575D01*
X010373Y018597D01*
X010351Y018575D01*
X010263Y018539D01*
X010168Y018539D01*
X010151Y018546D01*
X010134Y018528D01*
X010140Y018511D01*
X010140Y018416D01*
X010104Y018328D01*
X010082Y018306D01*
X010104Y018285D01*
X010140Y018196D01*
X010140Y018101D01*
X010121Y018054D01*
X010168Y018074D01*
X010263Y018074D01*
X010310Y018054D01*
X010290Y018101D01*
X010290Y018196D01*
X010327Y018285D01*
X010394Y018352D01*
X010483Y018389D01*
X010578Y018389D01*
X010666Y018352D01*
X010734Y018285D01*
X010770Y018196D01*
X010770Y018101D01*
X010734Y018013D01*
X010666Y017945D01*
X010578Y017909D01*
X010483Y017909D01*
X010436Y017928D01*
X010455Y017881D01*
X010455Y017786D01*
X010419Y017698D01*
X010351Y017630D01*
X010263Y017594D01*
X010168Y017594D01*
X010121Y017613D01*
X010140Y017566D01*
X010140Y017471D01*
X010121Y017424D01*
X010168Y017444D01*
X010263Y017444D01*
X010351Y017407D01*
X010373Y017386D01*
X010394Y017407D01*
X010483Y017444D01*
X010578Y017444D01*
X010625Y017424D01*
X010605Y017471D01*
X010605Y017566D01*
X010642Y017655D01*
X010709Y017722D01*
X010798Y017759D01*
X010893Y017759D01*
X010981Y017722D01*
X011049Y017655D01*
X011085Y017566D01*
X011085Y017526D01*
X011168Y017444D01*
X011208Y017444D01*
X011296Y017407D01*
X011318Y017386D01*
X011339Y017407D01*
X011428Y017444D01*
X011523Y017444D01*
X011611Y017407D01*
X011633Y017386D01*
X011654Y017407D01*
X011742Y017444D01*
X011838Y017444D01*
X011926Y017407D01*
X011994Y017340D01*
X012030Y017251D01*
X012030Y017156D01*
X011994Y017068D01*
X011972Y017046D01*
X011994Y017025D01*
X012030Y016937D01*
X012030Y016841D01*
X011994Y016753D01*
X011972Y016731D01*
X011994Y016710D01*
X012030Y016622D01*
X012030Y016526D01*
X011994Y016438D01*
X011972Y016416D01*
X011994Y016395D01*
X012030Y016307D01*
X012030Y016211D01*
X012015Y016174D01*
X012077Y016111D01*
X012077Y015936D01*
X012187Y015936D01*
X012296Y015891D01*
X012380Y015807D01*
X012425Y015698D01*
X012425Y015579D01*
X012380Y015470D01*
X012299Y015389D01*
X012375Y015313D01*
X012375Y015313D01*
X012477Y015211D01*
X012477Y014516D01*
X012375Y014413D01*
X012375Y014413D01*
X012277Y014316D01*
X012277Y014277D01*
X012303Y014287D01*
X012402Y014287D01*
X012494Y014250D01*
X012564Y014179D01*
X012601Y014088D01*
X012601Y013989D01*
X012564Y013897D01*
X012494Y013827D01*
X012402Y013789D01*
X012303Y013789D01*
X012227Y013821D01*
X012152Y013789D01*
X012053Y013789D01*
X011977Y013821D01*
X011902Y013789D01*
X011851Y013789D01*
X011851Y013788D01*
X011851Y013689D01*
X011814Y013597D01*
X011744Y013527D01*
X011652Y013489D01*
X011553Y013489D01*
X011461Y013527D01*
X011391Y013597D01*
X011353Y013689D01*
X011353Y013788D01*
X011391Y013879D01*
X011427Y013916D01*
X011427Y014066D01*
X011051Y014442D01*
X011051Y014439D01*
X011014Y014347D01*
X010955Y014288D01*
X011014Y014229D01*
X011051Y014138D01*
X011051Y014039D01*
X011025Y013976D01*
X011053Y013987D01*
X011152Y013987D01*
X011244Y013950D01*
X011314Y013879D01*
X011351Y013788D01*
X011351Y013689D01*
X011314Y013597D01*
X011244Y013527D01*
X011152Y013489D01*
X011053Y013489D01*
X010961Y013527D01*
X010891Y013597D01*
X010853Y013689D01*
X010853Y013788D01*
X010879Y013851D01*
X010852Y013839D01*
X010753Y013839D01*
X010661Y013877D01*
X010651Y013887D01*
X010651Y013839D01*
X010614Y013747D01*
X010544Y013677D01*
X010452Y013639D01*
X010353Y013639D01*
X010274Y013672D01*
X010264Y013647D01*
X010194Y013577D01*
X010102Y013539D01*
X010003Y013539D01*
X009911Y013577D01*
X009901Y013587D01*
X009901Y013489D01*
X009864Y013397D01*
X009794Y013327D01*
X009702Y013289D01*
X009694Y013289D01*
X009730Y013204D01*
X009730Y013073D01*
X009680Y012953D01*
X009588Y012861D01*
X009468Y012811D01*
X009337Y012811D01*
X009217Y012861D01*
X009125Y012953D01*
X009075Y013073D01*
X009075Y013204D01*
X009125Y013324D01*
X009145Y013344D01*
X009141Y013347D01*
X009103Y013439D01*
X009103Y013538D01*
X009141Y013629D01*
X009211Y013700D01*
X009303Y013737D01*
X009402Y013737D01*
X009471Y013709D01*
X009511Y013750D01*
X009603Y013787D01*
X009702Y013787D01*
X009794Y013750D01*
X009803Y013740D01*
X009803Y013838D01*
X009841Y013929D01*
X009877Y013966D01*
X009877Y013966D01*
X009830Y014013D01*
X009401Y014013D01*
X009401Y013989D01*
X009364Y013897D01*
X009294Y013827D01*
X009202Y013789D01*
X009103Y013789D01*
X009011Y013827D01*
X008941Y013897D01*
X008903Y013989D01*
X008903Y014088D01*
X008941Y014179D01*
X008978Y014216D01*
X008977Y014216D01*
X008977Y014261D01*
X008941Y014297D01*
X008903Y014389D01*
X008903Y014488D01*
X008941Y014579D01*
X008950Y014588D01*
X008941Y014597D01*
X008903Y014689D01*
X008903Y014788D01*
X008941Y014879D01*
X009011Y014950D01*
X009103Y014987D01*
X009202Y014987D01*
X009294Y014950D01*
X009364Y014879D01*
X009401Y014788D01*
X009401Y014689D01*
X009364Y014597D01*
X009355Y014588D01*
X009364Y014579D01*
X009372Y014560D01*
X009411Y014600D01*
X009503Y014637D01*
X009601Y014637D01*
X009591Y014647D01*
X009553Y014739D01*
X009553Y014838D01*
X009591Y014929D01*
X009661Y015000D01*
X009753Y015037D01*
X009852Y015037D01*
X009927Y015006D01*
X009927Y016516D01*
X009828Y016615D01*
X009740Y016704D01*
X009721Y016685D01*
X009633Y016649D01*
X009538Y016649D01*
X009491Y016668D01*
X009511Y016622D01*
X009511Y016526D01*
X009474Y016438D01*
X009452Y016416D01*
X009474Y016395D01*
X009511Y016307D01*
X009511Y016211D01*
X009474Y016123D01*
X009406Y016055D01*
X009318Y016019D01*
X009223Y016019D01*
X009217Y016021D01*
X009251Y015938D01*
X009251Y015839D01*
X009214Y015747D01*
X009144Y015677D01*
X009052Y015639D01*
X008953Y015639D01*
X008950Y015640D01*
X008951Y015638D01*
X008951Y015539D01*
X008914Y015447D01*
X008844Y015377D01*
X008752Y015339D01*
X008653Y015339D01*
X008652Y015340D01*
X008652Y014435D01*
X008619Y014402D01*
X008680Y014341D01*
X008721Y014242D01*
X008721Y014135D01*
X008680Y014036D01*
X008605Y013961D01*
X008506Y013920D01*
X008399Y013920D01*
X008300Y013961D01*
X008239Y014022D01*
X007906Y013688D01*
X007947Y013688D01*
X008152Y013483D01*
X008152Y012843D01*
X008152Y012438D01*
X011507Y012438D01*
X012407Y013338D01*
X012697Y013338D01*
X013057Y013338D01*
X013152Y013433D01*
X013152Y013783D01*
X011851Y013783D01*
X011850Y013685D02*
X013152Y013685D01*
X013152Y013783D02*
X013357Y013988D01*
X013647Y013988D01*
X013997Y013988D01*
X014202Y013783D01*
X015056Y013783D01*
X015104Y013685D02*
X014202Y013685D01*
X014202Y013783D02*
X014202Y013493D01*
X013997Y013288D01*
X013997Y013288D01*
X013852Y013144D01*
X013852Y013143D01*
X013347Y012638D01*
X013057Y012638D01*
X012697Y012638D01*
X012002Y011943D01*
X012002Y011233D01*
X013047Y010188D01*
X013197Y010188D01*
X013402Y009983D01*
X013402Y009693D01*
X013197Y009488D01*
X012757Y009488D01*
X012552Y009693D01*
X011507Y010738D01*
X011302Y010943D01*
X011302Y011738D01*
X007947Y011738D01*
X007915Y011738D01*
X007980Y011674D01*
X008030Y011554D01*
X008030Y011423D01*
X007980Y011303D01*
X007888Y011211D01*
X007768Y011161D01*
X007692Y011161D01*
X007780Y011074D01*
X007830Y010954D01*
X007830Y010823D01*
X007780Y010703D01*
X007688Y010611D01*
X007568Y010561D01*
X007437Y010561D01*
X007317Y010611D01*
X007225Y010703D01*
X007175Y010823D01*
X007175Y010954D01*
X007225Y011074D01*
X007317Y011166D01*
X007437Y011216D01*
X007513Y011216D01*
X007425Y011303D01*
X007392Y011383D01*
X006047Y010038D01*
X006146Y010137D02*
X006625Y010137D01*
X006639Y010236D02*
X006244Y010236D01*
X006343Y010334D02*
X006685Y010334D01*
X006808Y010433D02*
X006441Y010433D01*
X006540Y010531D02*
X011715Y010531D01*
X011813Y010433D02*
X007097Y010433D01*
X007219Y010334D02*
X011912Y010334D01*
X011912Y010246D02*
X011793Y010246D01*
X011684Y010201D01*
X011600Y010117D01*
X011555Y010008D01*
X011555Y009889D01*
X011600Y009780D01*
X011684Y009696D01*
X011793Y009651D01*
X011912Y009651D01*
X012021Y009696D01*
X012105Y009780D01*
X012150Y009889D01*
X012150Y010008D01*
X012105Y010117D01*
X012021Y010201D01*
X011912Y010246D01*
X011937Y010236D02*
X012010Y010236D01*
X012085Y010137D02*
X012109Y010137D01*
X012137Y010038D02*
X012207Y010038D01*
X012150Y009940D02*
X012306Y009940D01*
X012405Y009841D02*
X012130Y009841D01*
X012068Y009743D02*
X012503Y009743D01*
X012602Y009644D02*
X011211Y009644D01*
X011205Y009628D02*
X011255Y009748D01*
X011255Y009879D01*
X011205Y009999D01*
X011113Y010091D01*
X010993Y010141D01*
X010862Y010141D01*
X010742Y010091D01*
X010650Y009999D01*
X010600Y009879D01*
X010600Y009748D01*
X010650Y009628D01*
X010742Y009536D01*
X010862Y009486D01*
X010993Y009486D01*
X011113Y009536D01*
X011205Y009628D01*
X011122Y009546D02*
X012700Y009546D01*
X013255Y009546D02*
X014286Y009546D01*
X014384Y009644D02*
X013353Y009644D01*
X013402Y009743D02*
X014483Y009743D01*
X014581Y009841D02*
X013402Y009841D01*
X013402Y009940D02*
X014021Y009940D01*
X014050Y009911D02*
X014149Y009870D01*
X014256Y009870D01*
X014355Y009911D01*
X014430Y009986D01*
X014471Y010085D01*
X014471Y010192D01*
X014430Y010291D01*
X014355Y010366D01*
X014256Y010407D01*
X014149Y010407D01*
X014050Y010366D01*
X013975Y010291D01*
X013934Y010192D01*
X013934Y010085D01*
X013975Y009986D01*
X014050Y009911D01*
X013953Y010038D02*
X013347Y010038D01*
X013249Y010137D02*
X013934Y010137D01*
X013952Y010236D02*
X013000Y010236D01*
X012902Y010334D02*
X014018Y010334D01*
X014387Y010334D02*
X017574Y010334D01*
X017672Y010433D02*
X012803Y010433D01*
X012705Y010531D02*
X017752Y010531D01*
X017752Y010630D02*
X012606Y010630D01*
X012508Y010728D02*
X017752Y010728D01*
X017752Y010827D02*
X012409Y010827D01*
X012310Y010925D02*
X017752Y010925D01*
X017752Y011024D02*
X012212Y011024D01*
X012113Y011122D02*
X017752Y011122D01*
X017752Y011221D02*
X012015Y011221D01*
X012002Y011319D02*
X012517Y011319D01*
X012537Y011311D02*
X012668Y011311D01*
X012788Y011361D01*
X012880Y011453D01*
X012930Y011573D01*
X012930Y011704D01*
X012884Y011813D01*
X012930Y011923D01*
X012930Y012054D01*
X012880Y012174D01*
X012788Y012266D01*
X012668Y012316D01*
X012537Y012316D01*
X012417Y012266D01*
X012325Y012174D01*
X012275Y012054D01*
X012275Y011923D01*
X012321Y011813D01*
X012275Y011704D01*
X012275Y011573D01*
X012325Y011453D01*
X012417Y011361D01*
X012537Y011311D01*
X012687Y011319D02*
X017752Y011319D01*
X017752Y011418D02*
X012845Y011418D01*
X012906Y011517D02*
X017752Y011517D01*
X017752Y011615D02*
X012930Y011615D01*
X012925Y011714D02*
X017752Y011714D01*
X017752Y011812D02*
X012885Y011812D01*
X012924Y011911D02*
X017752Y011911D01*
X017752Y012009D02*
X017700Y012009D01*
X017505Y012009D02*
X012930Y012009D01*
X012907Y012108D02*
X017387Y012108D01*
X017353Y012206D02*
X012847Y012206D01*
X012693Y012305D02*
X017315Y012305D01*
X017189Y012403D02*
X012462Y012403D01*
X012512Y012305D02*
X012364Y012305D01*
X012358Y012206D02*
X012265Y012206D01*
X012298Y012108D02*
X012167Y012108D01*
X012068Y012009D02*
X012275Y012009D01*
X012280Y011911D02*
X012002Y011911D01*
X012002Y011812D02*
X012320Y011812D01*
X012279Y011714D02*
X012002Y011714D01*
X012002Y011615D02*
X012275Y011615D01*
X012299Y011517D02*
X012002Y011517D01*
X012002Y011418D02*
X012360Y011418D01*
X011616Y010630D02*
X007706Y010630D01*
X007790Y010728D02*
X011518Y010728D01*
X011419Y010827D02*
X007830Y010827D01*
X007830Y010925D02*
X011321Y010925D01*
X011302Y011024D02*
X007800Y011024D01*
X007731Y011122D02*
X011302Y011122D01*
X011302Y011221D02*
X007898Y011221D01*
X007987Y011319D02*
X011302Y011319D01*
X011302Y011418D02*
X008027Y011418D01*
X008030Y011517D02*
X011302Y011517D01*
X011302Y011615D02*
X008004Y011615D01*
X007940Y011714D02*
X011302Y011714D01*
X011571Y012502D02*
X008152Y012502D01*
X008152Y012601D02*
X011670Y012601D01*
X011768Y012699D02*
X008152Y012699D01*
X008152Y012798D02*
X011867Y012798D01*
X011965Y012896D02*
X009623Y012896D01*
X009697Y012995D02*
X012064Y012995D01*
X012162Y013093D02*
X009730Y013093D01*
X009730Y013192D02*
X012261Y013192D01*
X012359Y013290D02*
X009704Y013290D01*
X009855Y013389D02*
X013108Y013389D01*
X013152Y013487D02*
X009901Y013487D01*
X009901Y013586D02*
X009903Y013586D01*
X009803Y013783D02*
X009713Y013783D01*
X009592Y013783D02*
X008001Y013783D01*
X007951Y013685D02*
X009196Y013685D01*
X009123Y013586D02*
X008050Y013586D01*
X008148Y013487D02*
X009103Y013487D01*
X009124Y013389D02*
X008152Y013389D01*
X008152Y013290D02*
X009111Y013290D01*
X009075Y013192D02*
X008152Y013192D01*
X008152Y013093D02*
X009075Y013093D01*
X009108Y012995D02*
X008152Y012995D01*
X008152Y012896D02*
X009182Y012896D01*
X009348Y013882D02*
X009821Y013882D01*
X009863Y013980D02*
X009398Y013980D01*
X008957Y013882D02*
X008099Y013882D01*
X008198Y013980D02*
X008281Y013980D01*
X008624Y013980D02*
X008907Y013980D01*
X008903Y014079D02*
X008698Y014079D01*
X008721Y014177D02*
X008940Y014177D01*
X008963Y014276D02*
X008707Y014276D01*
X008647Y014374D02*
X008909Y014374D01*
X008903Y014473D02*
X008652Y014473D01*
X008652Y014571D02*
X008938Y014571D01*
X008911Y014670D02*
X008652Y014670D01*
X008652Y014769D02*
X008903Y014769D01*
X008936Y014867D02*
X008652Y014867D01*
X008652Y014966D02*
X009050Y014966D01*
X009255Y014966D02*
X009627Y014966D01*
X009565Y014867D02*
X009369Y014867D01*
X009401Y014769D02*
X009553Y014769D01*
X009582Y014670D02*
X009394Y014670D01*
X009383Y014571D02*
X009367Y014571D01*
X009927Y015064D02*
X008652Y015064D01*
X008652Y015163D02*
X009927Y015163D01*
X009927Y015261D02*
X008652Y015261D01*
X008801Y015360D02*
X009927Y015360D01*
X009927Y015458D02*
X008918Y015458D01*
X008951Y015557D02*
X009382Y015557D01*
X009411Y015527D02*
X009503Y015489D01*
X009602Y015489D01*
X009694Y015527D01*
X009764Y015597D01*
X009801Y015689D01*
X009801Y015788D01*
X009764Y015879D01*
X009694Y015950D01*
X009602Y015987D01*
X009503Y015987D01*
X009411Y015950D01*
X009341Y015879D01*
X009303Y015788D01*
X009303Y015689D01*
X009341Y015597D01*
X009411Y015527D01*
X009317Y015655D02*
X009091Y015655D01*
X009216Y015754D02*
X009303Y015754D01*
X009330Y015852D02*
X009251Y015852D01*
X009246Y015951D02*
X009415Y015951D01*
X009392Y016050D02*
X009927Y016050D01*
X009927Y016148D02*
X009484Y016148D01*
X009511Y016247D02*
X009927Y016247D01*
X009927Y016345D02*
X009495Y016345D01*
X009476Y016444D02*
X009927Y016444D01*
X009901Y016542D02*
X009511Y016542D01*
X009503Y016641D02*
X009803Y016641D01*
X009365Y016795D02*
X009318Y016814D01*
X009252Y016814D01*
X009252Y017279D01*
X009318Y017279D01*
X009365Y017298D01*
X009346Y017251D01*
X009346Y017156D01*
X009382Y017068D01*
X009404Y017046D01*
X009382Y017025D01*
X009346Y016937D01*
X009346Y016841D01*
X009365Y016795D01*
X009347Y016838D02*
X009252Y016838D01*
X009252Y016936D02*
X009346Y016936D01*
X009392Y017035D02*
X009252Y017035D01*
X009252Y017134D02*
X009355Y017134D01*
X009346Y017232D02*
X009252Y017232D01*
X009271Y017204D02*
X009428Y017361D01*
X009002Y017788D02*
X009352Y018138D01*
X009352Y018621D01*
X009352Y018834D01*
X009430Y018912D01*
X009241Y019006D02*
X009042Y019006D01*
X009042Y019036D02*
X009042Y018941D01*
X009006Y018852D01*
X008938Y018785D01*
X008850Y018748D01*
X008825Y018748D01*
X008806Y018702D01*
X008738Y018635D01*
X008650Y018598D01*
X008555Y018598D01*
X008466Y018635D01*
X008399Y018702D01*
X008362Y018791D01*
X008362Y018886D01*
X008377Y018922D01*
X008377Y018961D01*
X008377Y018966D01*
X007330Y020014D01*
X007294Y019977D01*
X007202Y019939D01*
X007103Y019939D01*
X007027Y019971D01*
X006952Y019939D01*
X006853Y019939D01*
X006761Y019977D01*
X006691Y020047D01*
X006653Y020139D01*
X006653Y020238D01*
X006685Y020313D01*
X006252Y020313D01*
X006252Y020143D01*
X006102Y019993D01*
X006102Y019951D01*
X006167Y020016D01*
X006287Y020066D01*
X006418Y020066D01*
X006538Y020016D01*
X006630Y019924D01*
X006680Y019804D01*
X006680Y019673D01*
X006630Y019553D01*
X006538Y019461D01*
X006418Y019411D01*
X006287Y019411D01*
X006167Y019461D01*
X006075Y019553D01*
X006025Y019673D01*
X006025Y019775D01*
X005907Y019657D01*
X005742Y019588D01*
X005563Y019588D01*
X005398Y019657D01*
X005271Y019784D01*
X005202Y019949D01*
X005202Y020128D01*
X005271Y020293D01*
X005398Y020420D01*
X005563Y020488D01*
X005607Y020488D01*
X005658Y020538D01*
X005607Y020588D01*
X005563Y020588D01*
X005398Y020657D01*
X005271Y020784D01*
X005202Y020949D01*
X005202Y021128D01*
X005271Y021293D01*
X005398Y021420D01*
X005563Y021488D01*
X005742Y021488D01*
X005907Y021420D01*
X006034Y021293D01*
X006102Y021128D01*
X006102Y021083D01*
X006252Y020933D01*
X006252Y020763D01*
X007225Y020763D01*
X007327Y020661D01*
X008760Y019228D01*
X008850Y019228D01*
X008938Y019192D01*
X009006Y019124D01*
X009042Y019036D01*
X009014Y019104D02*
X009340Y019104D01*
X009455Y019203D02*
X008912Y019203D01*
X008687Y019301D02*
X009370Y019301D01*
X009346Y019400D02*
X008588Y019400D01*
X008490Y019499D02*
X009186Y019499D01*
X009063Y019597D02*
X008391Y019597D01*
X008293Y019696D02*
X009031Y019696D01*
X009040Y019794D02*
X008194Y019794D01*
X008486Y020090D02*
X007898Y020090D01*
X007800Y020188D02*
X008417Y020188D01*
X008352Y020287D02*
X007701Y020287D01*
X007603Y020385D02*
X008275Y020385D01*
X008253Y020484D02*
X007504Y020484D01*
X007406Y020583D02*
X008272Y020583D01*
X008343Y020681D02*
X007307Y020681D01*
X007307Y019991D02*
X007352Y019991D01*
X007451Y019893D02*
X006643Y019893D01*
X006680Y019794D02*
X007549Y019794D01*
X007648Y019696D02*
X006680Y019696D01*
X006648Y019597D02*
X007746Y019597D01*
X007845Y019499D02*
X006575Y019499D01*
X006130Y019499D02*
X004352Y019499D01*
X004352Y019597D02*
X004542Y019597D01*
X004359Y019696D02*
X004352Y019696D01*
X004352Y019400D02*
X004378Y019400D01*
X004763Y019597D02*
X005542Y019597D01*
X005563Y019488D02*
X005398Y019420D01*
X005271Y019293D01*
X005202Y019128D01*
X005202Y018949D01*
X005271Y018784D01*
X005398Y018657D01*
X005563Y018588D01*
X005742Y018588D01*
X005907Y018657D01*
X006034Y018784D01*
X006102Y018949D01*
X006102Y019128D01*
X006034Y019293D01*
X005907Y019420D01*
X005742Y019488D01*
X005563Y019488D01*
X005378Y019400D02*
X004927Y019400D01*
X005026Y019301D02*
X005279Y019301D01*
X005234Y019203D02*
X005071Y019203D01*
X005102Y019104D02*
X005202Y019104D01*
X005202Y019006D02*
X005102Y019006D01*
X005085Y018907D02*
X005220Y018907D01*
X005260Y018809D02*
X005044Y018809D01*
X004961Y018710D02*
X005344Y018710D01*
X005507Y018612D02*
X004798Y018612D01*
X004913Y018415D02*
X005392Y018415D01*
X005398Y018420D02*
X005271Y018293D01*
X005202Y018128D01*
X005202Y017949D01*
X005271Y017784D01*
X005398Y017657D01*
X005563Y017588D01*
X005742Y017588D01*
X005907Y017657D01*
X006034Y017784D01*
X006102Y017949D01*
X006102Y018128D01*
X006034Y018293D01*
X005907Y018420D01*
X005742Y018488D01*
X005563Y018488D01*
X005398Y018420D01*
X005294Y018316D02*
X005011Y018316D01*
X005065Y018218D02*
X005240Y018218D01*
X005202Y018119D02*
X005102Y018119D01*
X005102Y018020D02*
X005202Y018020D01*
X005214Y017922D02*
X005091Y017922D01*
X005050Y017823D02*
X005254Y017823D01*
X005330Y017725D02*
X004975Y017725D01*
X004833Y017626D02*
X005472Y017626D01*
X005563Y017488D02*
X005398Y017420D01*
X005271Y017293D01*
X005202Y017128D01*
X005202Y016949D01*
X005271Y016784D01*
X005398Y016657D01*
X005563Y016588D01*
X005742Y016588D01*
X005907Y016657D01*
X006034Y016784D01*
X006102Y016949D01*
X006102Y017128D01*
X006034Y017293D01*
X005907Y017420D01*
X005742Y017488D01*
X005563Y017488D01*
X005420Y017429D02*
X004885Y017429D01*
X004997Y017331D02*
X005308Y017331D01*
X005246Y017232D02*
X005059Y017232D01*
X005100Y017134D02*
X005205Y017134D01*
X005202Y017035D02*
X005102Y017035D01*
X005097Y016936D02*
X005208Y016936D01*
X005248Y016838D02*
X005056Y016838D01*
X004990Y016739D02*
X005315Y016739D01*
X005436Y016641D02*
X004868Y016641D01*
X004850Y016444D02*
X005455Y016444D01*
X005398Y016420D02*
X005271Y016293D01*
X005202Y016128D01*
X005202Y015949D01*
X005271Y015784D01*
X005398Y015657D01*
X005563Y015588D01*
X005742Y015588D01*
X005907Y015657D01*
X006034Y015784D01*
X006102Y015949D01*
X006102Y016128D01*
X006034Y016293D01*
X005907Y016420D01*
X005742Y016488D01*
X005563Y016488D01*
X005398Y016420D01*
X005323Y016345D02*
X004982Y016345D01*
X005053Y016247D02*
X005252Y016247D01*
X005211Y016148D02*
X005094Y016148D01*
X005102Y016050D02*
X005202Y016050D01*
X005202Y015951D02*
X005102Y015951D01*
X005062Y015852D02*
X005242Y015852D01*
X005301Y015754D02*
X005004Y015754D01*
X004904Y015655D02*
X005401Y015655D01*
X005490Y015458D02*
X004815Y015458D01*
X004967Y015360D02*
X005337Y015360D01*
X005398Y015420D02*
X005271Y015293D01*
X005202Y015128D01*
X005202Y014949D01*
X005271Y014784D01*
X005398Y014657D01*
X005563Y014588D01*
X005742Y014588D01*
X005907Y014657D01*
X006034Y014784D01*
X006102Y014949D01*
X006102Y015128D01*
X006034Y015293D01*
X005907Y015420D01*
X005742Y015488D01*
X005563Y015488D01*
X005398Y015420D01*
X005258Y015261D02*
X005047Y015261D01*
X005088Y015163D02*
X005217Y015163D01*
X005202Y015064D02*
X005102Y015064D01*
X005102Y014966D02*
X005202Y014966D01*
X005236Y014867D02*
X005068Y014867D01*
X005019Y014769D02*
X005286Y014769D01*
X005384Y014670D02*
X004920Y014670D01*
X004779Y014473D02*
X005525Y014473D01*
X005563Y014488D02*
X005398Y014420D01*
X005271Y014293D01*
X005202Y014128D01*
X005202Y013949D01*
X005271Y013784D01*
X005398Y013657D01*
X005563Y013588D01*
X005742Y013588D01*
X005907Y013657D01*
X006034Y013784D01*
X006102Y013949D01*
X006102Y014128D01*
X006034Y014293D01*
X005907Y014420D01*
X005742Y014488D01*
X005563Y014488D01*
X005779Y014473D02*
X007805Y014473D01*
X007747Y014571D02*
X004352Y014571D01*
X004352Y014473D02*
X004525Y014473D01*
X004384Y014670D02*
X004352Y014670D01*
X004953Y014374D02*
X005352Y014374D01*
X005264Y014276D02*
X005041Y014276D01*
X005082Y014177D02*
X005223Y014177D01*
X005202Y014079D02*
X005102Y014079D01*
X005102Y013980D02*
X005202Y013980D01*
X005230Y013882D02*
X005075Y013882D01*
X005033Y013783D02*
X005271Y013783D01*
X005370Y013685D02*
X004935Y013685D01*
X004744Y013487D02*
X005561Y013487D01*
X005563Y013488D02*
X005398Y013420D01*
X005271Y013293D01*
X005202Y013128D01*
X005202Y012949D01*
X005271Y012784D01*
X005398Y012657D01*
X005563Y012588D01*
X005742Y012588D01*
X005907Y012657D01*
X006034Y012784D01*
X006102Y012949D01*
X006102Y013128D01*
X006034Y013293D01*
X005907Y013420D01*
X005742Y013488D01*
X005563Y013488D01*
X005744Y013487D02*
X007152Y013487D01*
X007152Y013389D02*
X005938Y013389D01*
X006035Y013290D02*
X007152Y013290D01*
X007152Y013192D02*
X006076Y013192D01*
X006102Y013093D02*
X007152Y013093D01*
X007152Y012995D02*
X006102Y012995D01*
X006081Y012896D02*
X007152Y012896D01*
X007152Y012798D02*
X006040Y012798D01*
X005949Y012699D02*
X007152Y012699D01*
X007111Y012601D02*
X005771Y012601D01*
X005742Y012488D02*
X005563Y012488D01*
X005398Y012420D01*
X005271Y012293D01*
X005202Y012128D01*
X005202Y011949D01*
X005271Y011784D01*
X005398Y011657D01*
X005563Y011588D01*
X005742Y011588D01*
X005907Y011657D01*
X006034Y011784D01*
X006102Y011949D01*
X006102Y012128D01*
X006034Y012293D01*
X005907Y012420D01*
X005742Y012488D01*
X005924Y012403D02*
X006805Y012403D01*
X006717Y012305D02*
X006022Y012305D01*
X006070Y012206D02*
X006676Y012206D01*
X006675Y012108D02*
X006102Y012108D01*
X006102Y012009D02*
X006702Y012009D01*
X006767Y011911D02*
X006087Y011911D01*
X006046Y011812D02*
X006831Y011812D01*
X006733Y011714D02*
X005964Y011714D01*
X005806Y011615D02*
X006634Y011615D01*
X006536Y011517D02*
X004352Y011517D01*
X004352Y011615D02*
X004498Y011615D01*
X004396Y011418D02*
X004352Y011418D01*
X004806Y011615D02*
X005498Y011615D01*
X005341Y011714D02*
X004964Y011714D01*
X005046Y011812D02*
X005259Y011812D01*
X005218Y011911D02*
X005087Y011911D01*
X005102Y012009D02*
X005202Y012009D01*
X005202Y012108D02*
X005102Y012108D01*
X005070Y012206D02*
X005235Y012206D01*
X005283Y012305D02*
X005022Y012305D01*
X004924Y012403D02*
X005381Y012403D01*
X005534Y012601D02*
X004771Y012601D01*
X004949Y012699D02*
X005355Y012699D01*
X005265Y012798D02*
X005040Y012798D01*
X005081Y012896D02*
X005224Y012896D01*
X005202Y012995D02*
X005102Y012995D01*
X005102Y013093D02*
X005202Y013093D01*
X005229Y013192D02*
X005076Y013192D01*
X005035Y013290D02*
X005270Y013290D01*
X005367Y013389D02*
X004938Y013389D01*
X004561Y013487D02*
X004352Y013487D01*
X004352Y013389D02*
X004367Y013389D01*
X004352Y013586D02*
X007152Y013586D01*
X007195Y013685D02*
X005935Y013685D01*
X006033Y013783D02*
X007294Y013783D01*
X007392Y013882D02*
X006075Y013882D01*
X006102Y013980D02*
X007491Y013980D01*
X007589Y014079D02*
X006102Y014079D01*
X006082Y014177D02*
X007688Y014177D01*
X007786Y014276D02*
X006041Y014276D01*
X005953Y014374D02*
X007885Y014374D01*
X007725Y014670D02*
X005920Y014670D01*
X006019Y014769D02*
X007731Y014769D01*
X007772Y014867D02*
X006068Y014867D01*
X006102Y014966D02*
X007075Y014966D01*
X007078Y014964D02*
X007177Y014964D01*
X007269Y015002D01*
X007339Y015072D01*
X007376Y015164D01*
X007376Y015171D01*
X007453Y015139D01*
X007552Y015139D01*
X007644Y015177D01*
X007652Y015186D01*
X007661Y015177D01*
X007753Y015139D01*
X007852Y015139D01*
X007944Y015177D01*
X008014Y015247D01*
X008051Y015339D01*
X008051Y015438D01*
X008014Y015529D01*
X007944Y015600D01*
X007852Y015637D01*
X007753Y015637D01*
X007661Y015600D01*
X007652Y015591D01*
X007644Y015600D01*
X007552Y015637D01*
X007453Y015637D01*
X007361Y015600D01*
X007347Y015585D01*
X007339Y015604D01*
X007269Y015675D01*
X007177Y015712D01*
X007078Y015712D01*
X006986Y015675D01*
X006916Y015604D01*
X006878Y015513D01*
X006878Y015414D01*
X006910Y015338D01*
X006878Y015263D01*
X006878Y015164D01*
X006916Y015072D01*
X006986Y015002D01*
X007078Y014964D01*
X007180Y014966D02*
X007867Y014966D01*
X007908Y015163D02*
X008152Y015163D01*
X008152Y015261D02*
X008019Y015261D01*
X008051Y015360D02*
X008152Y015360D01*
X008152Y015458D02*
X008043Y015458D01*
X007986Y015557D02*
X008152Y015557D01*
X008152Y015655D02*
X007288Y015655D01*
X006967Y015655D02*
X005904Y015655D01*
X006004Y015754D02*
X008152Y015754D01*
X008152Y015852D02*
X006062Y015852D01*
X006102Y015951D02*
X008152Y015951D01*
X008152Y016050D02*
X006102Y016050D01*
X006094Y016148D02*
X008152Y016148D01*
X008152Y016247D02*
X006053Y016247D01*
X005982Y016345D02*
X008152Y016345D01*
X008152Y016444D02*
X005850Y016444D01*
X005868Y016641D02*
X006629Y016641D01*
X006600Y016670D02*
X006684Y016586D01*
X006793Y016541D01*
X006912Y016541D01*
X007021Y016586D01*
X007105Y016670D01*
X007150Y016779D01*
X007150Y016898D01*
X007105Y017007D01*
X007021Y017091D01*
X006912Y017136D01*
X006793Y017136D01*
X006684Y017091D01*
X006600Y017007D01*
X006555Y016898D01*
X006555Y016779D01*
X006600Y016670D01*
X006571Y016739D02*
X005990Y016739D01*
X006056Y016838D02*
X006555Y016838D01*
X006571Y016936D02*
X006097Y016936D01*
X006102Y017035D02*
X006628Y017035D01*
X006787Y017134D02*
X006100Y017134D01*
X006059Y017232D02*
X008334Y017232D01*
X008350Y017331D02*
X005997Y017331D01*
X005885Y017429D02*
X008413Y017429D01*
X008512Y017528D02*
X004352Y017528D01*
X004352Y017626D02*
X004472Y017626D01*
X004420Y017429D02*
X004352Y017429D01*
X004352Y016641D02*
X004436Y016641D01*
X004352Y016542D02*
X006790Y016542D01*
X006915Y016542D02*
X008152Y016542D01*
X008201Y016641D02*
X007076Y016641D01*
X007134Y016739D02*
X008300Y016739D01*
X008398Y016838D02*
X007150Y016838D01*
X007134Y016936D02*
X008497Y016936D01*
X008426Y017035D02*
X007077Y017035D01*
X006918Y017134D02*
X008355Y017134D01*
X008551Y017626D02*
X005833Y017626D01*
X005975Y017725D02*
X006564Y017725D01*
X006541Y017747D02*
X006611Y017677D01*
X006703Y017639D01*
X006802Y017639D01*
X006877Y017671D01*
X006953Y017639D01*
X007052Y017639D01*
X007144Y017677D01*
X007214Y017747D01*
X007251Y017839D01*
X007251Y017938D01*
X007214Y018029D01*
X007144Y018100D01*
X007052Y018137D01*
X007001Y018137D01*
X007001Y018188D01*
X006970Y018263D01*
X007001Y018339D01*
X007001Y018438D01*
X006964Y018529D01*
X006894Y018600D01*
X006802Y018637D01*
X006703Y018637D01*
X006611Y018600D01*
X006541Y018529D01*
X006503Y018438D01*
X006503Y018339D01*
X006535Y018263D01*
X006503Y018188D01*
X006503Y018089D01*
X006535Y018013D01*
X006503Y017938D01*
X006503Y017839D01*
X006541Y017747D01*
X006510Y017823D02*
X006050Y017823D01*
X006091Y017922D02*
X006503Y017922D01*
X006532Y018020D02*
X006102Y018020D01*
X006102Y018119D02*
X006503Y018119D01*
X006516Y018218D02*
X006065Y018218D01*
X006011Y018316D02*
X006513Y018316D01*
X006503Y018415D02*
X005913Y018415D01*
X005798Y018612D02*
X006641Y018612D01*
X006535Y018513D02*
X004352Y018513D01*
X004352Y018415D02*
X004392Y018415D01*
X004352Y018612D02*
X004507Y018612D01*
X004946Y019696D02*
X005359Y019696D01*
X005266Y019794D02*
X005038Y019794D01*
X005079Y019893D02*
X005226Y019893D01*
X005202Y019991D02*
X005102Y019991D01*
X005102Y020090D02*
X005202Y020090D01*
X005228Y020188D02*
X005077Y020188D01*
X005037Y020287D02*
X005268Y020287D01*
X005363Y020385D02*
X004942Y020385D01*
X004752Y020484D02*
X005552Y020484D01*
X005613Y020583D02*
X004352Y020583D01*
X004352Y020681D02*
X004373Y020681D01*
X004352Y020484D02*
X004552Y020484D01*
X004363Y020385D02*
X004352Y020385D01*
X004931Y020681D02*
X005373Y020681D01*
X005275Y020780D02*
X005030Y020780D01*
X005073Y020878D02*
X005232Y020878D01*
X005202Y020977D02*
X005102Y020977D01*
X005102Y021075D02*
X005202Y021075D01*
X005221Y021174D02*
X005083Y021174D01*
X005043Y021272D02*
X005262Y021272D01*
X005349Y021371D02*
X004956Y021371D01*
X004788Y021469D02*
X005517Y021469D01*
X005563Y021588D02*
X005742Y021588D01*
X005907Y021657D01*
X006034Y021784D01*
X006102Y021949D01*
X006102Y022128D01*
X006034Y022293D01*
X005907Y022420D01*
X005742Y022488D01*
X005563Y022488D01*
X005398Y022420D01*
X005271Y022293D01*
X005202Y022128D01*
X005202Y021949D01*
X005271Y021784D01*
X005398Y021657D01*
X005563Y021588D01*
X005388Y021667D02*
X004917Y021667D01*
X005015Y021765D02*
X005289Y021765D01*
X005238Y021864D02*
X005067Y021864D01*
X005102Y021962D02*
X005202Y021962D01*
X005202Y022061D02*
X005102Y022061D01*
X005089Y022159D02*
X005215Y022159D01*
X005256Y022258D02*
X005049Y022258D01*
X004971Y022356D02*
X005334Y022356D01*
X005482Y022455D02*
X004823Y022455D01*
X004895Y022652D02*
X005409Y022652D01*
X005398Y022657D02*
X005563Y022588D01*
X005742Y022588D01*
X005907Y022657D01*
X006034Y022784D01*
X006102Y022949D01*
X006102Y023128D01*
X006034Y023293D01*
X005907Y023420D01*
X005742Y023488D01*
X005563Y023488D01*
X005398Y023420D01*
X005271Y023293D01*
X005202Y023128D01*
X005202Y022949D01*
X005271Y022784D01*
X005398Y022657D01*
X005304Y022751D02*
X005001Y022751D01*
X005061Y022849D02*
X005244Y022849D01*
X005203Y022948D02*
X005102Y022948D01*
X005102Y023046D02*
X005202Y023046D01*
X005209Y023145D02*
X005095Y023145D01*
X005055Y023243D02*
X005250Y023243D01*
X005319Y023342D02*
X004985Y023342D01*
X004858Y023440D02*
X005447Y023440D01*
X005858Y023440D02*
X008402Y023440D01*
X008391Y023429D02*
X008353Y023338D01*
X008353Y023239D01*
X008385Y023163D01*
X008363Y023112D01*
X008302Y023137D01*
X008203Y023137D01*
X008111Y023100D01*
X008041Y023029D01*
X008003Y022938D01*
X008003Y022839D01*
X008041Y022747D01*
X008111Y022677D01*
X008203Y022639D01*
X008302Y022639D01*
X008394Y022677D01*
X008464Y022747D01*
X008491Y022815D01*
X008553Y022789D01*
X008652Y022789D01*
X008744Y022827D01*
X008814Y022897D01*
X008851Y022989D01*
X008851Y023088D01*
X008820Y023163D01*
X008851Y023239D01*
X008851Y023338D01*
X008814Y023429D01*
X008744Y023500D01*
X008652Y023537D01*
X008553Y023537D01*
X008461Y023500D01*
X008391Y023429D01*
X008355Y023342D02*
X005985Y023342D01*
X006055Y023243D02*
X008353Y023243D01*
X008377Y023145D02*
X006095Y023145D01*
X006102Y023046D02*
X008058Y023046D01*
X008007Y022948D02*
X006102Y022948D01*
X006061Y022849D02*
X008003Y022849D01*
X008040Y022751D02*
X007703Y022751D01*
X007688Y022766D02*
X007568Y022816D01*
X007437Y022816D01*
X007317Y022766D01*
X007252Y022701D01*
X007188Y022766D01*
X007068Y022816D01*
X006937Y022816D01*
X006817Y022766D01*
X006725Y022674D01*
X006675Y022554D01*
X006675Y022423D01*
X006725Y022303D01*
X006817Y022211D01*
X006937Y022161D01*
X007068Y022161D01*
X007188Y022211D01*
X007252Y022276D01*
X007317Y022211D01*
X007437Y022161D01*
X007568Y022161D01*
X007688Y022211D01*
X007780Y022303D01*
X007830Y022423D01*
X007830Y022554D01*
X007780Y022674D01*
X007688Y022766D01*
X007789Y022652D02*
X008172Y022652D01*
X008332Y022652D02*
X009916Y022652D01*
X009875Y022553D02*
X009800Y022553D01*
X010002Y022751D02*
X008465Y022751D01*
X008765Y022849D02*
X010002Y022849D01*
X010002Y022948D02*
X008834Y022948D01*
X008851Y023046D02*
X010002Y023046D01*
X010002Y023145D02*
X008828Y023145D01*
X008851Y023243D02*
X010002Y023243D01*
X010002Y023342D02*
X008850Y023342D01*
X008803Y023440D02*
X010002Y023440D01*
X010002Y023539D02*
X004352Y023539D01*
X004352Y023637D02*
X010002Y023637D01*
X010002Y023736D02*
X004352Y023736D01*
X004352Y023834D02*
X010002Y023834D01*
X010002Y023933D02*
X004352Y023933D01*
X004352Y024032D02*
X010002Y024032D01*
X010002Y024130D02*
X004352Y024130D01*
X004352Y024229D02*
X010002Y024229D01*
X010002Y024327D02*
X004352Y024327D01*
X004352Y024426D02*
X010002Y024426D01*
X010002Y024524D02*
X005719Y024524D01*
X005865Y024585D02*
X006090Y024810D01*
X006212Y025104D01*
X006212Y025422D01*
X006090Y025716D01*
X005865Y025941D01*
X005571Y026062D01*
X005253Y026062D01*
X004959Y025941D01*
X004734Y025716D01*
X004613Y025422D01*
X004613Y025104D01*
X004734Y024810D01*
X004959Y024585D01*
X005253Y024463D01*
X005571Y024463D01*
X005865Y024585D01*
X005903Y024623D02*
X010002Y024623D01*
X010002Y024721D02*
X006002Y024721D01*
X006094Y024820D02*
X010002Y024820D01*
X010002Y024918D02*
X009635Y024918D01*
X009618Y024911D02*
X009738Y024961D01*
X009830Y025053D01*
X009880Y025173D01*
X009880Y025304D01*
X009830Y025424D01*
X009738Y025516D01*
X009618Y025566D01*
X009487Y025566D01*
X009367Y025516D01*
X009275Y025424D01*
X009225Y025304D01*
X009225Y025173D01*
X009275Y025053D01*
X009367Y024961D01*
X009487Y024911D01*
X009618Y024911D01*
X009470Y024918D02*
X006135Y024918D01*
X006176Y025017D02*
X009311Y025017D01*
X009249Y025116D02*
X006212Y025116D01*
X006212Y025214D02*
X009225Y025214D01*
X009229Y025313D02*
X006212Y025313D01*
X006212Y025411D02*
X009270Y025411D01*
X009361Y025510D02*
X008134Y025510D01*
X008138Y025511D02*
X008230Y025603D01*
X008280Y025723D01*
X008280Y025854D01*
X008230Y025974D01*
X008138Y026066D01*
X008018Y026116D01*
X007887Y026116D01*
X007767Y026066D01*
X007675Y025974D01*
X007625Y025854D01*
X007625Y025723D01*
X007675Y025603D01*
X007767Y025511D01*
X007887Y025461D01*
X008018Y025461D01*
X008138Y025511D01*
X008232Y025608D02*
X010002Y025608D01*
X010002Y025510D02*
X009744Y025510D01*
X009835Y025411D02*
X010002Y025411D01*
X010002Y025313D02*
X009876Y025313D01*
X009880Y025214D02*
X010002Y025214D01*
X010002Y025116D02*
X009856Y025116D01*
X009794Y025017D02*
X010002Y025017D01*
X010002Y025707D02*
X008273Y025707D01*
X008280Y025805D02*
X010002Y025805D01*
X010002Y025904D02*
X008259Y025904D01*
X008201Y026002D02*
X010002Y026002D01*
X010002Y026101D02*
X008053Y026101D01*
X007852Y026101D02*
X004352Y026101D01*
X004352Y026200D02*
X010002Y026200D01*
X010002Y026298D02*
X004352Y026298D01*
X004352Y026002D02*
X005108Y026002D01*
X004923Y025904D02*
X004352Y025904D01*
X004352Y025805D02*
X004824Y025805D01*
X004731Y025707D02*
X004352Y025707D01*
X004352Y025608D02*
X004690Y025608D01*
X004649Y025510D02*
X004352Y025510D01*
X004352Y025411D02*
X004613Y025411D01*
X004613Y025313D02*
X004352Y025313D01*
X004352Y025214D02*
X004613Y025214D01*
X004613Y025116D02*
X004352Y025116D01*
X004352Y025017D02*
X004649Y025017D01*
X004689Y024918D02*
X004352Y024918D01*
X004352Y024820D02*
X004730Y024820D01*
X004823Y024721D02*
X004352Y024721D01*
X004352Y024623D02*
X004921Y024623D01*
X005106Y024524D02*
X004352Y024524D01*
X004352Y023440D02*
X004447Y023440D01*
X004409Y022652D02*
X004352Y022652D01*
X004352Y022553D02*
X006675Y022553D01*
X006675Y022455D02*
X005823Y022455D01*
X005971Y022356D02*
X006703Y022356D01*
X006770Y022258D02*
X006049Y022258D01*
X006089Y022159D02*
X009302Y022159D01*
X009275Y022258D02*
X007734Y022258D01*
X007802Y022356D02*
X009276Y022356D01*
X009317Y022455D02*
X007830Y022455D01*
X007830Y022553D02*
X009405Y022553D01*
X009367Y022061D02*
X006102Y022061D01*
X006102Y021962D02*
X009535Y021962D01*
X009670Y021962D02*
X009929Y021962D01*
X009837Y022061D02*
X010027Y022061D01*
X010126Y022159D02*
X009903Y022159D01*
X009930Y022258D02*
X009970Y022258D01*
X009830Y021864D02*
X006067Y021864D01*
X006015Y021765D02*
X008977Y021765D01*
X008915Y021667D02*
X005917Y021667D01*
X005788Y021469D02*
X008932Y021469D01*
X008938Y021371D02*
X005956Y021371D01*
X006043Y021272D02*
X008839Y021272D01*
X008740Y021174D02*
X006083Y021174D01*
X006110Y021075D02*
X008642Y021075D01*
X008543Y020977D02*
X006209Y020977D01*
X006252Y020878D02*
X008515Y020878D01*
X008515Y020780D02*
X006252Y020780D01*
X006252Y020287D02*
X006674Y020287D01*
X006653Y020188D02*
X006252Y020188D01*
X006199Y020090D02*
X006674Y020090D01*
X006747Y019991D02*
X006562Y019991D01*
X006143Y019991D02*
X006102Y019991D01*
X006025Y019696D02*
X005946Y019696D01*
X006057Y019597D02*
X005763Y019597D01*
X005927Y019400D02*
X007943Y019400D01*
X008042Y019301D02*
X006026Y019301D01*
X006071Y019203D02*
X008140Y019203D01*
X008239Y019104D02*
X006102Y019104D01*
X006102Y019006D02*
X008338Y019006D01*
X008371Y018907D02*
X006085Y018907D01*
X006044Y018809D02*
X008362Y018809D01*
X008396Y018710D02*
X005961Y018710D01*
X006864Y018612D02*
X008523Y018612D01*
X008682Y018612D02*
X009152Y018612D01*
X009152Y018710D02*
X008809Y018710D01*
X008962Y018809D02*
X009152Y018809D01*
X009152Y018907D02*
X009029Y018907D01*
X009152Y018513D02*
X006970Y018513D01*
X007001Y018415D02*
X009152Y018415D01*
X009152Y018316D02*
X006992Y018316D01*
X006989Y018218D02*
X009149Y018218D01*
X009050Y018119D02*
X007097Y018119D01*
X007217Y018020D02*
X008881Y018020D01*
X008782Y017922D02*
X007251Y017922D01*
X007245Y017823D02*
X008752Y017823D01*
X008696Y017725D02*
X007191Y017725D01*
X008952Y016688D02*
X008952Y016577D01*
X008956Y016574D01*
X009690Y015951D02*
X009927Y015951D01*
X009927Y015852D02*
X009775Y015852D01*
X009801Y015754D02*
X009927Y015754D01*
X009927Y015655D02*
X009788Y015655D01*
X009723Y015557D02*
X009927Y015557D01*
X011025Y014374D02*
X011119Y014374D01*
X011218Y014276D02*
X010967Y014276D01*
X011035Y014177D02*
X011316Y014177D01*
X011415Y014079D02*
X011051Y014079D01*
X011035Y013980D02*
X011027Y013980D01*
X011170Y013980D02*
X011427Y013980D01*
X011393Y013882D02*
X011311Y013882D01*
X011351Y013783D02*
X011353Y013783D01*
X011350Y013685D02*
X011355Y013685D01*
X011403Y013586D02*
X011302Y013586D01*
X010903Y013586D02*
X010202Y013586D01*
X010551Y013685D02*
X010855Y013685D01*
X010853Y013783D02*
X010628Y013783D01*
X010651Y013882D02*
X010657Y013882D01*
X011802Y013586D02*
X013152Y013586D01*
X013251Y013882D02*
X012548Y013882D01*
X012598Y013980D02*
X013349Y013980D01*
X013302Y014339D02*
X013394Y014377D01*
X013464Y014447D01*
X013501Y014539D01*
X013501Y014638D01*
X013464Y014729D01*
X013394Y014800D01*
X013302Y014837D01*
X013281Y014837D01*
X013264Y014879D01*
X013194Y014950D01*
X013102Y014987D01*
X013003Y014987D01*
X012927Y014956D01*
X012852Y014987D01*
X012753Y014987D01*
X012661Y014950D01*
X012591Y014879D01*
X012553Y014788D01*
X012553Y014689D01*
X012591Y014597D01*
X012661Y014527D01*
X012753Y014489D01*
X012852Y014489D01*
X012927Y014521D01*
X013003Y014489D01*
X013024Y014489D01*
X013041Y014447D01*
X013111Y014377D01*
X013203Y014339D01*
X013302Y014339D01*
X013386Y014374D02*
X014230Y014374D01*
X014315Y014276D02*
X012430Y014276D01*
X012336Y014374D02*
X013118Y014374D01*
X013031Y014473D02*
X012434Y014473D01*
X012477Y014571D02*
X012617Y014571D01*
X012561Y014670D02*
X012477Y014670D01*
X012477Y014769D02*
X012553Y014769D01*
X012586Y014867D02*
X012477Y014867D01*
X012477Y014966D02*
X012700Y014966D01*
X012905Y014966D02*
X012950Y014966D01*
X013155Y014966D02*
X014094Y014966D01*
X013960Y014867D02*
X013269Y014867D01*
X013425Y014769D02*
X013913Y014769D01*
X013905Y014670D02*
X013488Y014670D01*
X013501Y014571D02*
X013929Y014571D01*
X013997Y014473D02*
X013474Y014473D01*
X014006Y013980D02*
X014657Y013980D01*
X014653Y014079D02*
X012601Y014079D01*
X012564Y014177D02*
X014561Y014177D01*
X014707Y013882D02*
X014104Y013882D01*
X014202Y013586D02*
X017481Y013586D01*
X017579Y013487D02*
X014196Y013487D01*
X014098Y013389D02*
X017678Y013389D01*
X017752Y013290D02*
X013999Y013290D01*
X013901Y013192D02*
X014630Y013192D01*
X014687Y013216D02*
X014567Y013166D01*
X014475Y013074D01*
X014425Y012954D01*
X014425Y012823D01*
X014475Y012703D01*
X014567Y012611D01*
X014687Y012561D01*
X014818Y012561D01*
X014938Y012611D01*
X015030Y012703D01*
X015080Y012823D01*
X015080Y012954D01*
X015030Y013074D01*
X014938Y013166D01*
X014818Y013216D01*
X014687Y013216D01*
X014875Y013192D02*
X017752Y013192D01*
X017752Y013093D02*
X015010Y013093D01*
X015063Y012995D02*
X017752Y012995D01*
X017752Y012896D02*
X015080Y012896D01*
X015069Y012798D02*
X017752Y012798D01*
X017752Y012699D02*
X017594Y012699D01*
X017646Y012601D02*
X017752Y012601D01*
X017752Y012502D02*
X017651Y012502D01*
X017211Y012699D02*
X015026Y012699D01*
X014912Y012601D02*
X017159Y012601D01*
X017153Y012502D02*
X012561Y012502D01*
X012659Y012601D02*
X014592Y012601D01*
X014479Y012699D02*
X013408Y012699D01*
X013507Y012798D02*
X014436Y012798D01*
X014425Y012896D02*
X013605Y012896D01*
X013704Y012995D02*
X014442Y012995D01*
X014495Y013093D02*
X013802Y013093D01*
X014623Y014670D02*
X014823Y014670D01*
X014872Y014571D02*
X014922Y014571D01*
X014725Y014769D02*
X014491Y014769D01*
X014445Y014867D02*
X014626Y014867D01*
X014528Y014966D02*
X014311Y014966D01*
X014429Y015064D02*
X012477Y015064D01*
X012477Y015163D02*
X014331Y015163D01*
X014232Y015261D02*
X012427Y015261D01*
X012328Y015360D02*
X014134Y015360D01*
X014035Y015458D02*
X012368Y015458D01*
X012416Y015557D02*
X013937Y015557D01*
X013838Y015655D02*
X012425Y015655D01*
X012402Y015754D02*
X013739Y015754D01*
X013641Y015852D02*
X012334Y015852D01*
X012077Y015951D02*
X013542Y015951D01*
X013444Y016050D02*
X012077Y016050D01*
X012040Y016148D02*
X013345Y016148D01*
X013247Y016247D02*
X012030Y016247D01*
X012014Y016345D02*
X013148Y016345D01*
X013050Y016444D02*
X011996Y016444D01*
X012030Y016542D02*
X012951Y016542D01*
X012853Y016641D02*
X012022Y016641D01*
X011980Y016739D02*
X012230Y016739D01*
X012181Y016838D02*
X012029Y016838D01*
X012030Y016936D02*
X012180Y016936D01*
X012227Y017035D02*
X011983Y017035D01*
X012021Y017134D02*
X012189Y017134D01*
X012180Y017232D02*
X012030Y017232D01*
X011997Y017331D02*
X012213Y017331D01*
X012197Y017429D02*
X011873Y017429D01*
X011707Y017429D02*
X011558Y017429D01*
X011392Y017429D02*
X011243Y017429D01*
X011085Y017528D02*
X012164Y017528D01*
X012105Y017519D02*
X012026Y017519D01*
X011979Y017626D02*
X011936Y017626D01*
X011948Y017991D02*
X011790Y017991D01*
X011790Y018149D02*
X011948Y018306D01*
X012263Y018306D02*
X012420Y018149D01*
X012382Y018710D02*
X012504Y018710D01*
X012495Y018809D02*
X012345Y018809D01*
X012312Y018907D02*
X012529Y018907D01*
X012512Y019006D02*
X012329Y019006D01*
X012345Y019104D02*
X012495Y019104D01*
X012521Y019203D02*
X012320Y019203D01*
X012230Y019301D02*
X012520Y019301D01*
X012495Y019400D02*
X011400Y019400D01*
X011391Y019499D02*
X011383Y019499D01*
X011559Y019499D02*
X011706Y019499D01*
X011874Y019499D02*
X012336Y019499D01*
X012213Y019597D02*
X011998Y019597D01*
X012030Y019696D02*
X012180Y019696D01*
X012190Y019794D02*
X012021Y019794D01*
X011960Y019893D02*
X012226Y019893D01*
X012231Y020188D02*
X011665Y020188D01*
X011518Y020385D02*
X012180Y020385D01*
X012188Y020287D02*
X011419Y020287D01*
X011251Y020123D02*
X011235Y020086D01*
X011235Y019991D01*
X011085Y019991D01*
X011085Y020086D01*
X011070Y020123D01*
X011088Y020123D01*
X011113Y020113D01*
X011208Y020113D01*
X011232Y020123D01*
X011251Y020123D01*
X011237Y020090D02*
X011084Y020090D01*
X011085Y019991D02*
X011066Y019944D01*
X011113Y019963D01*
X011208Y019963D01*
X011255Y019944D01*
X011235Y019991D01*
X011616Y020484D02*
X011635Y020484D01*
X011945Y020484D02*
X012215Y020484D01*
X012346Y020583D02*
X012014Y020583D01*
X012030Y020681D02*
X013706Y020681D01*
X013805Y020583D02*
X013439Y020583D01*
X013291Y020583D02*
X013124Y020583D01*
X012976Y020583D02*
X012809Y020583D01*
X012661Y020583D02*
X012494Y020583D01*
X012301Y021272D02*
X015265Y021272D01*
X015250Y021257D02*
X015205Y021148D01*
X015205Y021029D01*
X015250Y020920D01*
X015334Y020836D01*
X015443Y020791D01*
X015562Y020791D01*
X015671Y020836D01*
X015755Y020920D01*
X015800Y021029D01*
X015800Y021148D01*
X015755Y021257D01*
X015671Y021341D01*
X015562Y021386D01*
X015443Y021386D01*
X015334Y021341D01*
X015250Y021257D01*
X015216Y021174D02*
X013921Y021174D01*
X014019Y021075D02*
X015205Y021075D01*
X015226Y020977D02*
X014118Y020977D01*
X014216Y020878D02*
X015292Y020878D01*
X015287Y020566D02*
X015167Y020516D01*
X015075Y020424D01*
X015025Y020304D01*
X015025Y020173D01*
X015075Y020053D01*
X015167Y019961D01*
X015287Y019911D01*
X015418Y019911D01*
X015538Y019961D01*
X015630Y020053D01*
X015680Y020173D01*
X015680Y020304D01*
X015630Y020424D01*
X015538Y020516D01*
X015418Y020566D01*
X015287Y020566D01*
X015135Y020484D02*
X014610Y020484D01*
X014512Y020583D02*
X017477Y020583D01*
X017477Y020681D02*
X014413Y020681D01*
X014315Y020780D02*
X017477Y020780D01*
X017465Y020878D02*
X015713Y020878D01*
X015778Y020977D02*
X017367Y020977D01*
X017268Y021075D02*
X015800Y021075D01*
X015789Y021174D02*
X017170Y021174D01*
X017071Y021272D02*
X015739Y021272D01*
X015598Y021371D02*
X016972Y021371D01*
X016874Y021469D02*
X012224Y021469D01*
X012288Y021371D02*
X015407Y021371D01*
X015569Y020484D02*
X017477Y020484D01*
X017477Y020385D02*
X015646Y020385D01*
X015680Y020287D02*
X017477Y020287D01*
X017477Y020188D02*
X015680Y020188D01*
X015645Y020090D02*
X017477Y020090D01*
X017477Y019991D02*
X015568Y019991D01*
X015137Y019991D02*
X014752Y019991D01*
X014752Y019893D02*
X017477Y019893D01*
X017477Y019794D02*
X014752Y019794D01*
X014752Y019696D02*
X017477Y019696D01*
X017477Y019597D02*
X014752Y019597D01*
X014752Y019499D02*
X017477Y019499D01*
X017477Y019400D02*
X014752Y019400D01*
X014752Y019301D02*
X017477Y019301D01*
X017477Y019203D02*
X014752Y019203D01*
X014752Y019104D02*
X017477Y019104D01*
X017477Y019006D02*
X014752Y019006D01*
X014752Y018907D02*
X017477Y018907D01*
X017477Y018809D02*
X014752Y018809D01*
X014752Y018710D02*
X017477Y018710D01*
X017477Y018612D02*
X014752Y018612D01*
X014752Y018513D02*
X017477Y018513D01*
X017477Y018415D02*
X016347Y018415D01*
X016321Y018441D02*
X016212Y018486D01*
X016093Y018486D01*
X015984Y018441D01*
X015900Y018357D01*
X015855Y018248D01*
X015855Y018129D01*
X015900Y018020D01*
X015984Y017936D01*
X016093Y017891D01*
X016212Y017891D01*
X016321Y017936D01*
X016405Y018020D01*
X016450Y018129D01*
X016450Y018248D01*
X016405Y018357D01*
X016321Y018441D01*
X016422Y018316D02*
X017477Y018316D01*
X017477Y018218D02*
X016450Y018218D01*
X016446Y018119D02*
X017477Y018119D01*
X017477Y018020D02*
X016405Y018020D01*
X016287Y017922D02*
X017477Y017922D01*
X017477Y017823D02*
X015521Y017823D01*
X015530Y017725D02*
X017477Y017725D01*
X017477Y017626D02*
X015510Y017626D01*
X015499Y017528D02*
X017477Y017528D01*
X017477Y017429D02*
X015530Y017429D01*
X015530Y017331D02*
X017477Y017331D01*
X017477Y017232D02*
X015492Y017232D01*
X015428Y017134D02*
X017477Y017134D01*
X017508Y017035D02*
X015485Y017035D01*
X015500Y016936D02*
X017607Y016936D01*
X017677Y016838D02*
X015483Y016838D01*
X015424Y016739D02*
X017677Y016739D01*
X017753Y016641D02*
X015374Y016641D01*
X015473Y016542D02*
X017004Y016542D01*
X017011Y016550D02*
X016941Y016479D01*
X016903Y016388D01*
X016903Y016289D01*
X016941Y016197D01*
X017011Y016127D01*
X017103Y016089D01*
X017202Y016089D01*
X017221Y016097D01*
X017241Y016047D01*
X017282Y016007D01*
X017263Y015962D01*
X017202Y015987D01*
X017103Y015987D01*
X017011Y015950D01*
X016941Y015879D01*
X016903Y015788D01*
X016903Y015689D01*
X016941Y015597D01*
X017011Y015527D01*
X017103Y015489D01*
X017202Y015489D01*
X017203Y015490D01*
X017203Y015439D01*
X017241Y015347D01*
X017311Y015277D01*
X017403Y015239D01*
X017502Y015239D01*
X017594Y015277D01*
X017664Y015347D01*
X017701Y015439D01*
X017701Y015538D01*
X017664Y015629D01*
X017624Y015669D01*
X017644Y015677D01*
X017714Y015747D01*
X017751Y015839D01*
X017751Y015938D01*
X017714Y016029D01*
X017673Y016070D01*
X017701Y016139D01*
X017701Y016238D01*
X017664Y016329D01*
X017594Y016400D01*
X017502Y016437D01*
X017403Y016437D01*
X017384Y016430D01*
X017364Y016479D01*
X017294Y016550D01*
X017202Y016587D01*
X017103Y016587D01*
X017011Y016550D01*
X016926Y016444D02*
X015571Y016444D01*
X015670Y016345D02*
X016903Y016345D01*
X016921Y016247D02*
X015768Y016247D01*
X015867Y016148D02*
X016991Y016148D01*
X017015Y015951D02*
X016064Y015951D01*
X016163Y015852D02*
X016930Y015852D01*
X016903Y015754D02*
X016761Y015754D01*
X016860Y015655D02*
X016917Y015655D01*
X016958Y015557D02*
X016982Y015557D01*
X017057Y015458D02*
X017203Y015458D01*
X017236Y015360D02*
X017155Y015360D01*
X017252Y015261D02*
X017350Y015261D01*
X017252Y015163D02*
X018217Y015163D01*
X018202Y015064D02*
X017254Y015064D01*
X017280Y014966D02*
X018202Y014966D01*
X018236Y014867D02*
X017277Y014867D01*
X017236Y014769D02*
X018286Y014769D01*
X018384Y014670D02*
X017147Y014670D01*
X017389Y014473D02*
X015980Y014473D01*
X016021Y014374D02*
X017353Y014374D01*
X017341Y014276D02*
X016030Y014276D01*
X016010Y014177D02*
X017229Y014177D01*
X017186Y014079D02*
X015955Y014079D01*
X015813Y013980D02*
X017175Y013980D01*
X017193Y013882D02*
X015577Y013882D01*
X015577Y013980D02*
X015592Y013980D01*
X015549Y013783D02*
X017245Y013783D01*
X017381Y013685D02*
X015501Y013685D01*
X015874Y014571D02*
X017514Y014571D01*
X017691Y014571D02*
X019952Y014571D01*
X019952Y014473D02*
X019779Y014473D01*
X019920Y014670D02*
X019952Y014670D01*
X019525Y014473D02*
X018779Y014473D01*
X018742Y014488D02*
X018563Y014488D01*
X018398Y014420D01*
X018271Y014293D01*
X018202Y014128D01*
X018202Y013949D01*
X018271Y013784D01*
X018398Y013657D01*
X018563Y013588D01*
X018742Y013588D01*
X018907Y013657D01*
X019034Y013784D01*
X019102Y013949D01*
X019102Y014128D01*
X019034Y014293D01*
X018907Y014420D01*
X018742Y014488D01*
X018525Y014473D02*
X017816Y014473D01*
X017851Y014374D02*
X018352Y014374D01*
X018264Y014276D02*
X017846Y014276D01*
X017793Y014177D02*
X018223Y014177D01*
X018202Y014079D02*
X017836Y014079D01*
X017935Y013980D02*
X018202Y013980D01*
X018230Y013882D02*
X018033Y013882D01*
X018132Y013783D02*
X018271Y013783D01*
X018231Y013685D02*
X018370Y013685D01*
X018329Y013586D02*
X019952Y013586D01*
X019952Y013685D02*
X019935Y013685D01*
X019952Y013487D02*
X019744Y013487D01*
X019561Y013487D02*
X018744Y013487D01*
X018561Y013487D02*
X018352Y013487D01*
X018352Y013389D02*
X018367Y013389D01*
X018938Y013389D02*
X019367Y013389D01*
X019270Y013290D02*
X019035Y013290D01*
X019076Y013192D02*
X019229Y013192D01*
X019202Y013093D02*
X019102Y013093D01*
X019102Y012995D02*
X019202Y012995D01*
X019224Y012896D02*
X019081Y012896D01*
X019040Y012798D02*
X019265Y012798D01*
X019355Y012699D02*
X018949Y012699D01*
X018771Y012601D02*
X019534Y012601D01*
X019771Y012601D02*
X019952Y012601D01*
X019949Y012699D02*
X019952Y012699D01*
X019952Y012502D02*
X018352Y012502D01*
X018352Y012403D02*
X018381Y012403D01*
X018352Y012601D02*
X018534Y012601D01*
X018355Y012699D02*
X018352Y012699D01*
X018924Y012403D02*
X019381Y012403D01*
X019283Y012305D02*
X019022Y012305D01*
X019070Y012206D02*
X019235Y012206D01*
X019202Y012108D02*
X019102Y012108D01*
X019102Y012009D02*
X019202Y012009D01*
X019218Y011911D02*
X019087Y011911D01*
X019046Y011812D02*
X019259Y011812D01*
X019341Y011714D02*
X018964Y011714D01*
X018806Y011615D02*
X019498Y011615D01*
X019396Y011418D02*
X018980Y011418D01*
X019077Y011319D02*
X019297Y011319D01*
X019241Y011221D02*
X019118Y011221D01*
X019152Y011122D02*
X019202Y011122D01*
X019202Y011024D02*
X018703Y011024D01*
X018702Y011122D02*
X018602Y011122D01*
X018602Y011221D02*
X018702Y011221D01*
X018702Y011319D02*
X018602Y011319D01*
X018602Y011418D02*
X018702Y011418D01*
X018702Y011517D02*
X018602Y011517D01*
X018500Y011517D02*
X018352Y011517D01*
X018352Y011615D02*
X018498Y011615D01*
X018805Y011517D02*
X019952Y011517D01*
X019952Y011615D02*
X019806Y011615D01*
X019909Y011418D02*
X019952Y011418D01*
X019952Y010630D02*
X019842Y010630D01*
X019952Y010531D02*
X018352Y010531D01*
X018352Y010433D02*
X019952Y010433D01*
X019952Y010334D02*
X018352Y010334D01*
X018324Y010236D02*
X019952Y010236D01*
X019952Y010137D02*
X018225Y010137D01*
X018127Y010038D02*
X019952Y010038D01*
X019952Y009940D02*
X018028Y009940D01*
X018162Y009841D02*
X019952Y009841D01*
X019952Y009743D02*
X018243Y009743D01*
X018280Y009644D02*
X019952Y009644D01*
X019952Y009546D02*
X018280Y009546D01*
X018280Y009447D02*
X019952Y009447D01*
X019952Y009349D02*
X018280Y009349D01*
X018280Y009250D02*
X019952Y009250D01*
X019952Y009152D02*
X018280Y009152D01*
X018280Y009053D02*
X019952Y009053D01*
X019952Y008954D02*
X018280Y008954D01*
X018252Y008856D02*
X019952Y008856D01*
X019952Y008757D02*
X018184Y008757D01*
X018341Y008363D02*
X017964Y008363D01*
X018046Y008265D02*
X018259Y008265D01*
X018218Y008166D02*
X018087Y008166D01*
X018102Y008068D02*
X018202Y008068D01*
X018202Y007969D02*
X018102Y007969D01*
X018070Y007870D02*
X018235Y007870D01*
X018283Y007772D02*
X018022Y007772D01*
X017806Y008462D02*
X018499Y008462D01*
X018806Y008462D02*
X019499Y008462D01*
X019341Y008363D02*
X018964Y008363D01*
X019046Y008265D02*
X019259Y008265D01*
X019218Y008166D02*
X019087Y008166D01*
X019102Y008068D02*
X019202Y008068D01*
X019202Y007969D02*
X019102Y007969D01*
X019070Y007870D02*
X019235Y007870D01*
X019283Y007772D02*
X019022Y007772D01*
X019806Y008462D02*
X019952Y008462D01*
X019952Y008560D02*
X014798Y008560D01*
X014806Y008462D02*
X015499Y008462D01*
X015341Y008363D02*
X014964Y008363D01*
X015046Y008265D02*
X015259Y008265D01*
X015218Y008166D02*
X015087Y008166D01*
X015102Y008068D02*
X015202Y008068D01*
X015202Y007969D02*
X015102Y007969D01*
X015070Y007870D02*
X015235Y007870D01*
X015283Y007772D02*
X015022Y007772D01*
X014897Y008659D02*
X019952Y008659D01*
X019463Y010630D02*
X018951Y010630D01*
X019049Y010728D02*
X019326Y010728D01*
X019253Y010827D02*
X019106Y010827D01*
X019147Y010925D02*
X019212Y010925D01*
X018702Y010925D02*
X018602Y010925D01*
X018602Y010827D02*
X018702Y010827D01*
X018702Y010728D02*
X018602Y010728D01*
X018602Y010630D02*
X018702Y010630D01*
X018354Y010630D02*
X018352Y010630D01*
X017475Y010236D02*
X014453Y010236D01*
X014471Y010137D02*
X017377Y010137D01*
X017278Y010038D02*
X014452Y010038D01*
X014384Y009940D02*
X014680Y009940D01*
X014187Y009447D02*
X008068Y009447D01*
X008166Y009349D02*
X014088Y009349D01*
X014996Y008757D02*
X017721Y008757D01*
X017653Y008856D02*
X015094Y008856D01*
X015222Y008954D02*
X015512Y008954D01*
X015414Y009053D02*
X015330Y009053D01*
X015769Y009546D02*
X016786Y009546D01*
X016884Y009644D02*
X015671Y009644D01*
X015572Y009743D02*
X016983Y009743D01*
X017081Y009841D02*
X015474Y009841D01*
X015375Y009940D02*
X017180Y009940D01*
X017535Y009447D02*
X017625Y009447D01*
X017625Y009349D02*
X017437Y009349D01*
X017338Y009250D02*
X017625Y009250D01*
X017625Y009152D02*
X017240Y009152D01*
X017141Y009053D02*
X017625Y009053D01*
X017625Y008954D02*
X017043Y008954D01*
X016806Y008462D02*
X017499Y008462D01*
X017341Y008363D02*
X016964Y008363D01*
X017046Y008265D02*
X017259Y008265D01*
X017218Y008166D02*
X017087Y008166D01*
X017102Y008068D02*
X017202Y008068D01*
X017202Y007969D02*
X017102Y007969D01*
X017070Y007870D02*
X017235Y007870D01*
X017283Y007772D02*
X017022Y007772D01*
X016499Y008462D02*
X015806Y008462D01*
X015964Y008363D02*
X016341Y008363D01*
X016259Y008265D02*
X016046Y008265D01*
X016087Y008166D02*
X016218Y008166D01*
X016202Y008068D02*
X016102Y008068D01*
X016102Y007969D02*
X016202Y007969D01*
X016235Y007870D02*
X016070Y007870D01*
X016022Y007772D02*
X016283Y007772D01*
X019924Y012403D02*
X019952Y012403D01*
X019938Y013389D02*
X019952Y013389D01*
X019370Y013685D02*
X018935Y013685D01*
X019033Y013783D02*
X019271Y013783D01*
X019230Y013882D02*
X019075Y013882D01*
X019102Y013980D02*
X019202Y013980D01*
X019202Y014079D02*
X019102Y014079D01*
X019082Y014177D02*
X019223Y014177D01*
X019264Y014276D02*
X019041Y014276D01*
X018953Y014374D02*
X019352Y014374D01*
X019384Y014670D02*
X018920Y014670D01*
X019019Y014769D02*
X019286Y014769D01*
X019236Y014867D02*
X019068Y014867D01*
X019102Y014966D02*
X019202Y014966D01*
X019202Y015064D02*
X019102Y015064D01*
X019088Y015163D02*
X019217Y015163D01*
X019258Y015261D02*
X019047Y015261D01*
X018967Y015360D02*
X019337Y015360D01*
X018337Y015360D02*
X017669Y015360D01*
X017701Y015458D02*
X018335Y015458D01*
X018237Y015557D02*
X017694Y015557D01*
X017638Y015655D02*
X018138Y015655D01*
X018039Y015754D02*
X017716Y015754D01*
X017751Y015852D02*
X018027Y015852D01*
X018027Y015951D02*
X017746Y015951D01*
X017693Y016050D02*
X018027Y016050D01*
X018027Y016148D02*
X017701Y016148D01*
X017698Y016247D02*
X018027Y016247D01*
X018027Y016345D02*
X017648Y016345D01*
X017851Y016542D02*
X017301Y016542D01*
X017378Y016444D02*
X017950Y016444D01*
X017240Y016050D02*
X015965Y016050D01*
X015511Y015655D02*
X014633Y015655D01*
X014731Y015557D02*
X015610Y015557D01*
X015708Y015458D02*
X014830Y015458D01*
X014928Y015360D02*
X015807Y015360D01*
X015905Y015261D02*
X015027Y015261D01*
X015126Y015163D02*
X016211Y015163D01*
X016205Y015064D02*
X015224Y015064D01*
X015323Y014966D02*
X016231Y014966D01*
X016303Y014867D02*
X015826Y014867D01*
X015889Y014769D02*
X016669Y014769D01*
X016758Y014670D02*
X015901Y014670D01*
X015479Y014867D02*
X015421Y014867D01*
X015413Y015754D02*
X014534Y015754D01*
X014436Y015852D02*
X015314Y015852D01*
X015216Y015951D02*
X014337Y015951D01*
X014239Y016050D02*
X015117Y016050D01*
X015019Y016148D02*
X014140Y016148D01*
X014042Y016247D02*
X014920Y016247D01*
X014821Y016345D02*
X013943Y016345D01*
X013844Y016444D02*
X014723Y016444D01*
X014624Y016542D02*
X013746Y016542D01*
X013647Y016641D02*
X014526Y016641D01*
X014427Y016739D02*
X013549Y016739D01*
X013450Y016838D02*
X014329Y016838D01*
X014230Y016936D02*
X013352Y016936D01*
X013253Y017035D02*
X014152Y017035D01*
X014152Y017134D02*
X013155Y017134D01*
X013056Y017232D02*
X013469Y017232D01*
X013636Y017232D02*
X014152Y017232D01*
X014152Y017331D02*
X013775Y017331D01*
X013819Y017429D02*
X014152Y017429D01*
X014152Y017528D02*
X013821Y017528D01*
X013786Y017626D02*
X014152Y017626D01*
X014152Y017725D02*
X013684Y017725D01*
X013495Y017922D02*
X013300Y017922D01*
X013300Y017823D02*
X014152Y017823D01*
X014752Y017823D02*
X014884Y017823D01*
X014875Y017725D02*
X014752Y017725D01*
X014752Y017626D02*
X014895Y017626D01*
X014906Y017528D02*
X014752Y017528D01*
X014752Y017429D02*
X014875Y017429D01*
X014875Y017331D02*
X014752Y017331D01*
X014783Y017232D02*
X014913Y017232D01*
X014881Y017134D02*
X014977Y017134D01*
X014924Y017922D02*
X014752Y017922D01*
X014752Y018020D02*
X015028Y018020D01*
X014752Y018119D02*
X015859Y018119D01*
X015855Y018218D02*
X014752Y018218D01*
X014752Y018316D02*
X015883Y018316D01*
X015958Y018415D02*
X014752Y018415D01*
X014252Y018513D02*
X012974Y018513D01*
X012975Y018415D02*
X013454Y018415D01*
X013356Y018316D02*
X013222Y018316D01*
X013281Y018218D02*
X013352Y018218D01*
X013352Y018119D02*
X013290Y018119D01*
X013257Y018020D02*
X013396Y018020D01*
X013223Y018612D02*
X014252Y018612D01*
X014252Y018710D02*
X013281Y018710D01*
X013290Y018809D02*
X014252Y018809D01*
X014252Y018907D02*
X013256Y018907D01*
X013274Y019006D02*
X014252Y019006D01*
X014252Y019104D02*
X013290Y019104D01*
X013265Y019203D02*
X014252Y019203D01*
X014252Y019301D02*
X013175Y019301D01*
X012975Y019400D02*
X014252Y019400D01*
X014252Y019499D02*
X012958Y019499D01*
X012943Y019597D02*
X013270Y019597D01*
X013212Y019696D02*
X012975Y019696D01*
X012966Y019794D02*
X013204Y019794D01*
X013289Y020090D02*
X013641Y020090D01*
X013562Y019991D02*
X013519Y019991D01*
X013539Y020188D02*
X014199Y020188D01*
X014252Y020090D02*
X014064Y020090D01*
X014143Y019991D02*
X014252Y019991D01*
X014252Y019893D02*
X014180Y019893D01*
X014180Y019794D02*
X014252Y019794D01*
X014252Y019696D02*
X014147Y019696D01*
X014074Y019597D02*
X014252Y019597D01*
X013631Y019597D02*
X013617Y019597D01*
X013597Y020287D02*
X014100Y020287D01*
X014002Y020385D02*
X013605Y020385D01*
X013571Y020484D02*
X013903Y020484D01*
X014709Y020385D02*
X015059Y020385D01*
X015025Y020287D02*
X014752Y020287D01*
X014752Y020188D02*
X015025Y020188D01*
X015060Y020090D02*
X014752Y020090D01*
X015376Y018020D02*
X015900Y018020D01*
X016018Y017922D02*
X015481Y017922D01*
X017555Y015261D02*
X018258Y015261D01*
X019152Y021538D02*
X019152Y022588D01*
X019202Y022588D01*
X019302Y022688D01*
X016775Y021568D02*
X011579Y021568D01*
X011481Y021469D02*
X011681Y021469D01*
X011678Y021667D02*
X016677Y021667D01*
X016578Y021765D02*
X011777Y021765D01*
X011412Y021371D02*
X011382Y021371D01*
X009732Y021765D02*
X009328Y021765D01*
X009390Y021667D02*
X009633Y021667D01*
X008903Y021568D02*
X004352Y021568D01*
X004352Y021667D02*
X004388Y021667D01*
X004352Y021469D02*
X004517Y021469D01*
X004482Y022455D02*
X004352Y022455D01*
X005895Y022652D02*
X006716Y022652D01*
X006802Y022751D02*
X006001Y022751D01*
X007203Y022751D02*
X007302Y022751D01*
X007270Y022258D02*
X007234Y022258D01*
X009355Y019499D02*
X009363Y019499D01*
X009716Y019203D02*
X009769Y019203D01*
X010031Y019203D02*
X010316Y019203D01*
X010405Y019301D02*
X010116Y019301D01*
X010140Y019400D02*
X010920Y019400D01*
X010930Y019499D02*
X010938Y019499D01*
X010761Y019499D02*
X010615Y019499D01*
X010446Y019499D02*
X010300Y019499D01*
X010131Y019499D02*
X010123Y019499D01*
X010137Y018975D02*
X010412Y018975D01*
X010530Y019094D01*
X010754Y019006D02*
X011082Y019006D01*
X011239Y019006D02*
X011397Y019006D01*
X011554Y019006D02*
X011712Y019006D01*
X011869Y019006D02*
X011882Y019006D01*
X011865Y019104D02*
X010770Y019104D01*
X010745Y019203D02*
X011029Y019203D01*
X010945Y019301D02*
X010655Y019301D01*
X010737Y018907D02*
X010954Y018907D01*
X010920Y018809D02*
X010770Y018809D01*
X010762Y018710D02*
X010929Y018710D01*
X010988Y018612D02*
X010703Y018612D01*
X010702Y018316D02*
X010988Y018316D01*
X010929Y018218D02*
X010762Y018218D01*
X010770Y018119D02*
X010920Y018119D01*
X010954Y018020D02*
X010737Y018020D01*
X010610Y017922D02*
X011081Y017922D01*
X011240Y017922D02*
X011540Y017922D01*
X011540Y017823D02*
X010455Y017823D01*
X010451Y017922D02*
X010439Y017922D01*
X010430Y017725D02*
X010716Y017725D01*
X010630Y017626D02*
X010342Y017626D01*
X010298Y017429D02*
X010447Y017429D01*
X010613Y017429D02*
X010623Y017429D01*
X010605Y017528D02*
X010140Y017528D01*
X010133Y017429D02*
X010123Y017429D01*
X010140Y018119D02*
X010290Y018119D01*
X010299Y018218D02*
X010132Y018218D01*
X010092Y018316D02*
X010358Y018316D01*
X010140Y018415D02*
X011236Y018415D01*
X011236Y018513D02*
X010140Y018513D01*
X010058Y018897D02*
X010137Y018975D01*
X010975Y017725D02*
X011546Y017725D01*
X011644Y017626D02*
X011061Y017626D01*
X011291Y019203D02*
X011891Y019203D01*
X011980Y019301D02*
X011376Y019301D01*
X012504Y019499D02*
X012513Y019499D01*
X008152Y015064D02*
X007330Y015064D01*
X007376Y015163D02*
X007397Y015163D01*
X007608Y015163D02*
X007697Y015163D01*
X006924Y015064D02*
X006102Y015064D01*
X006088Y015163D02*
X006879Y015163D01*
X006878Y015261D02*
X006047Y015261D01*
X005967Y015360D02*
X006901Y015360D01*
X006878Y015458D02*
X005815Y015458D01*
X006897Y015557D02*
X004352Y015557D01*
X004352Y015655D02*
X004401Y015655D01*
X004352Y015458D02*
X004490Y015458D01*
X004455Y016444D02*
X004352Y016444D01*
X004352Y013685D02*
X004370Y013685D01*
X004352Y012699D02*
X004355Y012699D01*
X004352Y012601D02*
X004534Y012601D01*
X004352Y012502D02*
X007013Y012502D01*
X006437Y011418D02*
X005909Y011418D01*
X006008Y011319D02*
X006339Y011319D01*
X006240Y011221D02*
X006064Y011221D01*
X006102Y011122D02*
X006142Y011122D01*
X006639Y010630D02*
X007298Y010630D01*
X007215Y010728D02*
X006737Y010728D01*
X006836Y010827D02*
X007175Y010827D01*
X007175Y010925D02*
X006934Y010925D01*
X007033Y011024D02*
X007204Y011024D01*
X007274Y011122D02*
X007131Y011122D01*
X007230Y011221D02*
X007507Y011221D01*
X007418Y011319D02*
X007328Y011319D01*
X007280Y010236D02*
X011768Y010236D01*
X011620Y010137D02*
X011001Y010137D01*
X010854Y010137D02*
X007378Y010137D01*
X007477Y010038D02*
X010690Y010038D01*
X010626Y009940D02*
X007575Y009940D01*
X007674Y009841D02*
X010600Y009841D01*
X010603Y009743D02*
X007772Y009743D01*
X007871Y009644D02*
X010643Y009644D01*
X010732Y009546D02*
X007969Y009546D01*
X007515Y009152D02*
X007271Y009152D01*
X007280Y009250D02*
X007417Y009250D01*
X007318Y009349D02*
X007261Y009349D01*
X007219Y009447D02*
X007206Y009447D01*
X007121Y009546D02*
X007065Y009546D01*
X007022Y009644D02*
X006680Y009644D01*
X006680Y009546D02*
X006839Y009546D01*
X006699Y009447D02*
X006680Y009447D01*
X006643Y009743D02*
X006924Y009743D01*
X006815Y009841D02*
X006562Y009841D01*
X006680Y008954D02*
X006783Y008954D01*
X006652Y008856D02*
X007046Y008856D01*
X007122Y008954D02*
X007712Y008954D01*
X007614Y009053D02*
X007230Y009053D01*
X006947Y008757D02*
X006584Y008757D01*
X006849Y008659D02*
X005052Y008659D01*
X005052Y008757D02*
X006121Y008757D01*
X006902Y008713D02*
X006902Y008713D01*
X006202Y007969D02*
X006152Y007969D01*
X006124Y007870D02*
X006235Y007870D01*
X006283Y007772D02*
X006083Y007772D01*
X005253Y010827D02*
X005052Y010827D01*
X005093Y010925D02*
X005212Y010925D01*
X005202Y011024D02*
X005102Y011024D01*
X005102Y011122D02*
X005202Y011122D01*
X005241Y011221D02*
X005064Y011221D01*
X005008Y011319D02*
X005297Y011319D01*
X005396Y011418D02*
X004909Y011418D01*
X004381Y012403D02*
X004352Y012403D01*
X011165Y010038D02*
X011568Y010038D01*
X011555Y009940D02*
X011229Y009940D01*
X011255Y009841D02*
X011575Y009841D01*
X011637Y009743D02*
X011252Y009743D01*
X007770Y025510D02*
X006175Y025510D01*
X006135Y025608D02*
X007673Y025608D01*
X007632Y025707D02*
X006094Y025707D01*
X006001Y025805D02*
X007625Y025805D01*
X007646Y025904D02*
X005902Y025904D01*
X005716Y026002D02*
X007704Y026002D01*
D17*
X005652Y021038D02*
X005902Y020788D01*
X005902Y020288D02*
X005652Y020038D01*
X007802Y013338D02*
X007802Y012988D01*
X007802Y012088D01*
X011652Y012088D01*
X011652Y011088D01*
X012902Y009838D01*
X013052Y009838D01*
X011652Y012088D02*
X012552Y012988D01*
X013202Y012988D01*
X013502Y013288D01*
X013852Y013638D01*
X013502Y013638D01*
X013502Y013288D01*
X012902Y013638D02*
X012902Y013838D01*
X012902Y013638D02*
X012552Y013638D01*
X012202Y013638D01*
X011202Y012638D01*
X014402Y013388D02*
X016102Y013388D01*
X017902Y015188D01*
X017902Y016288D01*
X017402Y016788D01*
X018502Y017188D02*
X018652Y017038D01*
X019352Y016738D02*
X019652Y017038D01*
X019352Y017738D02*
X019652Y018038D01*
X018652Y018038D02*
X018502Y018188D01*
X018552Y016238D02*
X018652Y016138D01*
X018652Y016038D01*
X019352Y015738D02*
X019652Y016038D01*
X019302Y022688D02*
X019652Y023038D01*
X018652Y023038D02*
X018477Y022863D01*
X007802Y013338D02*
X007802Y012988D01*
X007802Y012088D02*
X007602Y012088D01*
X005902Y010388D01*
X004652Y010388D01*
D18*
X004652Y008038D01*
X004652Y010388D02*
X004652Y011038D01*
X008752Y013038D02*
X008752Y013788D01*
X008752Y013038D02*
X009152Y012638D01*
X011202Y012638D01*
X012902Y013838D02*
X013252Y014188D01*
X013702Y014188D01*
X014102Y014188D01*
X014402Y013888D01*
X014402Y013388D01*
X014402Y013338D01*
X014152Y013088D01*
X014152Y012588D01*
X013702Y014188D02*
X013702Y015438D01*
X012702Y016438D01*
D19*
X012602Y016538D01*
X012259Y016538D01*
X012105Y016692D01*
X012105Y017440D01*
X012026Y017519D02*
X011790Y017519D01*
X011475Y017519D01*
X011318Y017519D01*
X011121Y017716D01*
X010885Y017952D01*
X010845Y017991D01*
X010845Y018346D01*
X010845Y018582D01*
X010845Y019094D01*
X010845Y019409D01*
X010215Y019409D01*
X010845Y019094D02*
X011239Y019094D01*
X013652Y018188D02*
X014452Y018188D01*
X014452Y017138D01*
X016102Y015488D01*
X016602Y015488D01*
X016952Y015138D01*
X016952Y014938D01*
X017502Y013988D02*
X018052Y013438D01*
X018052Y010388D01*
X016902Y009238D01*
X015652Y009238D01*
X015202Y009688D01*
X014852Y009688D01*
X014152Y008988D01*
X008102Y008988D01*
X006952Y010138D01*
X006752Y010588D02*
X007152Y010588D01*
X008352Y009388D01*
X014002Y009388D01*
X014702Y010088D01*
X015752Y010088D01*
X016152Y009688D01*
X015052Y009238D02*
X014402Y008588D01*
X007202Y008588D01*
X006652Y008038D01*
X005652Y008038D02*
X005652Y009488D01*
X006752Y010588D01*
D20*
X007002Y012138D02*
X007402Y012538D01*
X007402Y013538D01*
X008402Y014538D01*
X008402Y016488D01*
X008602Y016688D01*
X008952Y016688D01*
X009002Y016738D01*
X009002Y017788D01*
X009152Y019138D02*
X009995Y019138D01*
X010215Y019359D01*
X010215Y019409D01*
X011239Y019094D02*
X011436Y019290D01*
X011436Y019409D01*
X011475Y019409D01*
X011633Y019409D01*
X011790Y019409D01*
X011790Y018149D02*
X011790Y017991D01*
X011790Y017834D01*
X012105Y017519D02*
X012105Y017440D01*
X013050Y017519D02*
X013080Y017488D01*
X013552Y017488D01*
X013365Y017834D02*
X013326Y017873D01*
X013326Y018582D01*
X013326Y018936D01*
X013326Y019290D01*
X013326Y019527D01*
X014502Y020238D02*
X013802Y020938D01*
X011752Y020938D01*
X013050Y017834D02*
X013050Y017519D01*
X014452Y018188D02*
X014502Y018238D01*
X014502Y020238D01*
X009152Y019138D02*
X007252Y021038D01*
D21*
X009271Y017204D02*
X009271Y016889D01*
X009586Y016574D01*
X011160Y018149D02*
X011790Y018149D01*
X011160Y020038D02*
X010845Y020353D01*
X012105Y020353D02*
X012341Y020590D01*
X012971Y020590D01*
X013050Y020668D01*
D22*
X013208Y020196D02*
X013247Y020157D01*
X013247Y019842D01*
X013247Y019605D01*
X013286Y019566D01*
X013326Y019527D01*
X013286Y019566D02*
X012578Y019566D01*
X012538Y019527D01*
X012223Y019527D01*
X012223Y019881D01*
X012893Y019881D01*
X012932Y019842D01*
X013247Y019842D01*
X013208Y020196D02*
X012223Y020196D01*
X012223Y020235D01*
X012105Y020353D01*
X011987Y020235D01*
X011987Y020038D01*
X011790Y020038D01*
X011593Y020235D01*
X011357Y020235D01*
X011160Y020038D01*
X011318Y019881D01*
X011318Y019527D01*
X011436Y019409D01*
X011633Y019409D02*
X011633Y019881D01*
X011318Y019881D01*
X011160Y020038D02*
X011003Y019881D01*
X011003Y019566D01*
X010845Y019409D01*
X010530Y019723D02*
X010688Y019881D01*
X010688Y020924D01*
X011752Y021988D01*
X016602Y021988D01*
X017652Y020938D01*
X017652Y017138D01*
X017852Y016938D01*
X017852Y016788D01*
X018202Y016438D01*
X018202Y015838D01*
X018502Y015538D01*
X019152Y015538D01*
X019352Y015738D01*
X019152Y016538D02*
X019352Y016738D01*
X019152Y016538D02*
X018502Y016538D01*
X018152Y016888D01*
X018152Y017138D01*
X017852Y017438D01*
X017852Y021038D01*
X016702Y022188D01*
X011652Y022188D01*
X010452Y020988D01*
X010452Y020688D01*
X010102Y020338D01*
X010102Y020240D01*
X009900Y020038D01*
X009743Y020196D02*
X009743Y020529D01*
X010202Y020988D01*
X010302Y020988D01*
X011602Y022288D01*
X016752Y022288D01*
X017952Y021088D01*
X017952Y017738D01*
X018502Y017188D01*
X018302Y017538D02*
X018052Y017788D01*
X018052Y021138D01*
X016802Y022388D01*
X011552Y022388D01*
X010652Y021488D01*
X010152Y021488D01*
X009852Y021188D01*
X009552Y021188D01*
X009428Y021064D01*
X009428Y020786D01*
X009271Y020629D01*
X009271Y019723D01*
X009586Y020038D02*
X009743Y020196D01*
X010215Y019723D02*
X010373Y019881D01*
X010373Y020459D01*
X010552Y020638D01*
X010552Y020938D01*
X011702Y022088D01*
X016652Y022088D01*
X017752Y020988D01*
X017752Y017288D01*
X018002Y017038D01*
X018002Y016838D01*
X018552Y016288D01*
X018552Y016238D01*
X018302Y017538D02*
X019152Y017538D01*
X019352Y017738D01*
X018502Y018188D02*
X018152Y018538D01*
X018152Y021188D01*
X016852Y022488D01*
X011502Y022488D01*
X010902Y021888D01*
X010402Y021888D01*
X009802Y021288D01*
X009402Y021288D01*
X008956Y020842D01*
X008956Y020353D01*
X008798Y020196D02*
X008798Y020834D01*
X009352Y021388D01*
X009752Y021388D01*
X010352Y021988D01*
X010852Y021988D01*
X011452Y022588D01*
X019152Y022588D01*
X018477Y022863D02*
X018302Y022688D01*
X011402Y022688D01*
X010802Y022088D01*
X010302Y022088D01*
X009702Y021488D01*
X009302Y021488D01*
X008690Y020876D01*
X008690Y020324D01*
X008641Y020275D01*
X008798Y020196D02*
X008956Y020038D01*
X008552Y019038D02*
X008552Y018888D01*
X008602Y018838D01*
X008552Y019038D02*
X007102Y020488D01*
X006102Y020488D01*
X005902Y020288D01*
X006102Y020588D02*
X005902Y020788D01*
X006102Y020588D02*
X007152Y020588D01*
X008752Y018988D01*
X008802Y018988D01*
X009430Y018912D02*
X009454Y018936D01*
X010019Y018936D01*
X010058Y018897D01*
X010058Y018700D01*
X009979Y018621D01*
X009352Y018621D01*
X009743Y018227D02*
X009743Y017991D01*
X009428Y017991D01*
X009389Y017952D01*
X009389Y017716D01*
X009428Y017676D01*
X010058Y017676D01*
X010097Y017637D01*
X010412Y017637D01*
X010412Y017716D01*
X010412Y017952D01*
X010334Y018031D01*
X010215Y018031D01*
X010215Y018306D01*
X009822Y018306D01*
X009743Y018227D01*
X009743Y017991D02*
X010058Y017991D01*
X010097Y018031D01*
X010215Y018031D01*
X010412Y017952D02*
X010885Y017952D01*
X011121Y017716D02*
X010412Y017716D01*
X010412Y017637D02*
X010412Y017479D01*
X010334Y017401D01*
X010097Y017401D01*
X010058Y017361D01*
X009428Y017361D01*
X009428Y017676D01*
X009900Y017204D02*
X010058Y017046D01*
X010058Y016783D01*
X010202Y016638D01*
X010202Y014588D01*
X010402Y014388D01*
X010402Y014188D01*
X010502Y014088D01*
X010802Y014088D01*
X010602Y014288D02*
X010602Y014338D01*
X010302Y014638D01*
X010302Y016638D01*
X010373Y016709D01*
X010373Y017046D01*
X010215Y017204D01*
X010688Y017046D02*
X010688Y016753D01*
X010802Y016638D01*
X010802Y014888D01*
X010652Y014738D01*
X010802Y014488D02*
X010902Y014588D01*
X010902Y016832D01*
X010845Y016889D01*
X010688Y017046D02*
X010845Y017204D01*
X011003Y017361D02*
X010845Y017519D01*
X011003Y017361D02*
X011003Y014738D01*
X011602Y014138D01*
X011602Y013738D01*
X011852Y014038D02*
X011318Y014573D01*
X011318Y017046D01*
X011475Y017204D01*
X011633Y017046D02*
X011633Y016134D01*
X011679Y016088D01*
X011852Y016088D01*
X011902Y016038D01*
X011902Y015538D01*
X012302Y015138D01*
X012302Y014588D01*
X012102Y014388D01*
X012102Y014038D01*
X011977Y014613D02*
X011977Y014938D01*
X012027Y014988D01*
X012102Y014988D01*
X012152Y015038D01*
X012152Y015138D01*
X012102Y015188D01*
X011502Y015188D01*
X011452Y015238D01*
X011452Y015338D01*
X011502Y015388D01*
X011752Y015388D01*
X011802Y015438D01*
X011802Y015538D01*
X011752Y015588D01*
X011502Y015588D01*
X011452Y015638D01*
X011452Y015738D01*
X011502Y015788D01*
X011752Y015788D01*
X011802Y015838D01*
X011802Y015938D01*
X011752Y015988D01*
X011502Y015988D01*
X011452Y016038D01*
X011452Y016866D01*
X011475Y016889D01*
X011633Y017046D02*
X011790Y017204D01*
X012263Y017676D02*
X012105Y017834D01*
X012263Y017991D02*
X011948Y017991D01*
X012263Y017991D02*
X012420Y018149D01*
X012263Y018306D02*
X012263Y018582D01*
X012223Y018621D01*
X011987Y018621D01*
X011948Y018582D01*
X011948Y018306D01*
X012263Y018306D01*
X012617Y018621D02*
X012460Y018779D01*
X012460Y018936D01*
X012460Y019251D01*
X012263Y019251D01*
X012223Y019290D01*
X011908Y019290D01*
X011790Y019409D01*
X011987Y019605D01*
X011987Y020038D01*
X012223Y019881D02*
X012223Y020196D01*
X012223Y019527D02*
X012223Y019290D01*
X012460Y019251D02*
X012893Y019251D01*
X012932Y019290D01*
X013326Y019290D01*
X013326Y018936D02*
X012460Y018936D01*
X012617Y018621D02*
X012893Y018621D01*
X012932Y018582D01*
X013326Y018582D01*
X012515Y017676D02*
X012263Y017676D01*
X012515Y017676D02*
X012602Y017588D01*
X012602Y017438D01*
X015402Y014638D01*
X015402Y013938D01*
X015302Y013838D01*
X015152Y014038D02*
X015302Y014188D01*
X015302Y014588D01*
X012687Y017204D01*
X012420Y017204D01*
X012420Y016889D02*
X012852Y016889D01*
X015102Y014638D01*
X015102Y014288D01*
X010845Y018346D02*
X010530Y018346D01*
X010530Y018464D01*
X010530Y018582D01*
X010294Y018582D01*
X010215Y018503D01*
X010215Y018306D01*
X010373Y018306D01*
X010412Y018346D01*
X010530Y018346D01*
X010530Y018582D02*
X010845Y018582D01*
X009900Y016889D02*
X009900Y016790D01*
X010102Y016588D01*
X010102Y014538D01*
X010302Y014338D01*
X010302Y013988D01*
X010402Y013888D01*
X010052Y013788D02*
X010052Y014038D01*
X009902Y014188D01*
X009252Y014188D01*
X009152Y014288D01*
X009152Y014438D01*
D23*
X011160Y020353D02*
X011745Y020938D01*
X011752Y020938D01*
D24*
X012735Y018149D02*
X013050Y017834D01*
D25*
X012735Y018149D02*
X012420Y018149D01*
M02*
