G75*
G70*
%OFA0B0*%
%FSLAX24Y24*%
%IPPOS*%
%LPD*%
%AMOC8*
5,1,8,0,0,1.08239X$1,22.5*
%
%ADD10R,0.0240X0.0230*%
%ADD11R,0.0230X0.0240*%
%ADD12R,0.0400X0.0400*%
%ADD13R,0.0945X0.0709*%
%ADD14R,0.0394X0.0551*%
%ADD15R,0.0315X0.0315*%
%ADD16R,0.0472X0.0217*%
%ADD17R,0.0630X0.1181*%
%ADD18C,0.0400*%
%ADD19C,0.0394*%
%ADD20C,0.0157*%
%ADD21C,0.0197*%
%ADD22R,0.0660X0.0660*%
%ADD23C,0.0660*%
%ADD24R,0.0300X0.0200*%
%ADD25R,0.0250X0.2300*%
%ADD26R,0.0300X0.1300*%
%ADD27R,0.1600X0.0700*%
%ADD28R,0.0500X0.0250*%
%ADD29R,0.4500X0.0250*%
%ADD30R,0.0250X0.0800*%
%ADD31R,0.0250X0.2000*%
%ADD32R,0.0200X0.0400*%
%ADD33C,0.0100*%
%ADD34R,0.0433X0.0866*%
%ADD35R,0.0394X0.0433*%
%ADD36C,0.0300*%
%ADD37R,0.0551X0.0472*%
%ADD38C,0.0050*%
%ADD39C,0.0180*%
%ADD40C,0.0400*%
%ADD41C,0.0354*%
%ADD42C,0.0240*%
%ADD43C,0.0295*%
%ADD44C,0.0200*%
%ADD45C,0.0237*%
%ADD46C,0.0300*%
%ADD47C,0.0198*%
%ADD48C,0.0150*%
%ADD49C,0.0080*%
%ADD50C,0.0500*%
%ADD51C,0.0180*%
%ADD52C,0.0070*%
%ADD53C,0.0250*%
D10*
X013352Y015338D03*
X013752Y015338D03*
X015002Y015088D03*
X015402Y015088D03*
X014452Y018188D03*
X014052Y018188D03*
X014152Y021288D03*
X014152Y021638D03*
X014152Y021988D03*
X014552Y021988D03*
X014552Y021638D03*
X014552Y021288D03*
X013002Y021288D03*
X013002Y021638D03*
X012602Y021638D03*
X012602Y021288D03*
X016352Y021438D03*
X016752Y021438D03*
X016752Y021838D03*
X016352Y021838D03*
D11*
X015952Y021838D03*
X015952Y021438D03*
X014002Y019338D03*
X014002Y018938D03*
X013452Y021258D03*
X013452Y021658D03*
X008752Y014538D03*
X008752Y014138D03*
X006852Y017188D03*
X006852Y017588D03*
X006852Y018988D03*
X006852Y019388D03*
D12*
X007402Y019588D03*
X007402Y018988D03*
X008102Y018988D03*
X008102Y019588D03*
X008102Y020288D03*
X008102Y020988D03*
X009602Y021588D03*
X010302Y021588D03*
X011252Y021588D03*
X011952Y021588D03*
X014252Y020788D03*
X014952Y020788D03*
X015202Y019638D03*
X015052Y018988D03*
X015052Y018288D03*
X014752Y017688D03*
X014752Y017088D03*
X014052Y017088D03*
X014052Y017688D03*
X014502Y019638D03*
X015702Y018288D03*
X015702Y017588D03*
X015702Y016688D03*
X016402Y016688D03*
X016102Y014538D03*
X016102Y013938D03*
X016802Y013938D03*
X016802Y014538D03*
X015052Y011838D03*
X015052Y011238D03*
X014352Y011238D03*
X014352Y011838D03*
X013752Y011838D03*
X013502Y012488D03*
X012902Y012488D03*
X013052Y011838D03*
X012302Y012488D03*
X012302Y013188D03*
X012902Y013188D03*
X013502Y013188D03*
X012602Y010838D03*
X012152Y010238D03*
X011902Y010838D03*
X011302Y010838D03*
X011302Y011438D03*
X010602Y011438D03*
X010602Y010838D03*
X009802Y011288D03*
X009802Y011888D03*
X009102Y011888D03*
X009102Y011288D03*
X008502Y011888D03*
X008252Y012488D03*
X008252Y013188D03*
X007802Y011888D03*
X007502Y010438D03*
X008102Y010438D03*
X008102Y009738D03*
X007502Y009738D03*
X010752Y015138D03*
X011452Y015138D03*
X008102Y017088D03*
X008102Y017688D03*
X007402Y017688D03*
X007402Y017088D03*
X012152Y009538D03*
X015652Y010988D03*
X016352Y010988D03*
X017302Y010738D03*
X017302Y011438D03*
X009052Y025038D03*
X008352Y025038D03*
D13*
X016802Y018926D03*
X016802Y017351D03*
D14*
X008026Y013905D03*
X007652Y014771D03*
X007278Y013905D03*
D15*
X008402Y025788D03*
X009002Y025788D03*
X017302Y009988D03*
X017302Y009388D03*
D16*
X015164Y012464D03*
X015164Y012838D03*
X015164Y013212D03*
X014141Y013212D03*
X014141Y012464D03*
X011514Y010262D03*
X011514Y009514D03*
X010491Y009514D03*
X010491Y009888D03*
X010491Y010262D03*
X009914Y012464D03*
X009914Y012838D03*
X009914Y013212D03*
X008891Y013212D03*
X008891Y012464D03*
D17*
X010630Y012838D03*
X011575Y012838D03*
X009775Y009888D03*
X008830Y009888D03*
X015880Y012838D03*
X016825Y012838D03*
D18*
X016552Y009888D03*
X015052Y009888D03*
X013552Y009888D03*
X007652Y009288D03*
X019652Y009888D03*
D19*
X018802Y009538D03*
X007152Y025888D03*
X005502Y009538D03*
D20*
X009113Y016416D03*
X009428Y016416D03*
X009428Y016731D03*
X009113Y016731D03*
X009113Y017046D03*
X009428Y017046D03*
X009428Y017361D03*
X009113Y017361D03*
X009113Y017676D03*
X009428Y017676D03*
X009428Y017991D03*
X009113Y017991D03*
X009113Y018306D03*
X009428Y018306D03*
X009428Y018621D03*
X009113Y018621D03*
X009113Y018936D03*
X009113Y019251D03*
X009113Y019566D03*
X009113Y019881D03*
X009113Y020196D03*
X009113Y020511D03*
X009428Y020511D03*
X009428Y020196D03*
X009428Y019881D03*
X009428Y019566D03*
X009428Y019251D03*
X009428Y018936D03*
X009743Y018936D03*
X009743Y018621D03*
X009743Y018306D03*
X009743Y017991D03*
X009743Y017676D03*
X009743Y017361D03*
X009743Y017046D03*
X009743Y016731D03*
X009743Y016416D03*
X010058Y016416D03*
X010373Y016416D03*
X010688Y016416D03*
X010688Y016731D03*
X010373Y016731D03*
X010058Y016731D03*
X010058Y017046D03*
X010373Y017046D03*
X010688Y017046D03*
X010688Y017361D03*
X010373Y017361D03*
X010058Y017361D03*
X010058Y017676D03*
X010373Y017676D03*
X010688Y017676D03*
X010688Y017991D03*
X010373Y017991D03*
X010058Y017991D03*
X010058Y018306D03*
X010373Y018306D03*
X010688Y018306D03*
X010688Y018621D03*
X010688Y018936D03*
X010688Y019251D03*
X010688Y019566D03*
X010688Y019881D03*
X010688Y020196D03*
X010688Y020511D03*
X010373Y020511D03*
X010058Y020511D03*
X009743Y020511D03*
X009743Y020196D03*
X010058Y020196D03*
X010373Y020196D03*
X010373Y019881D03*
X010373Y019566D03*
X010373Y019251D03*
X010373Y018936D03*
X010373Y018621D03*
X010058Y018621D03*
X010058Y018936D03*
X010058Y019251D03*
X010058Y019566D03*
X010058Y019881D03*
X009743Y019881D03*
X009743Y019566D03*
X009743Y019251D03*
X011003Y019251D03*
X011318Y019251D03*
X011633Y019251D03*
X011633Y018936D03*
X011633Y018621D03*
X011633Y018306D03*
X011633Y017991D03*
X011633Y017676D03*
X011633Y017361D03*
X011633Y017046D03*
X011633Y016731D03*
X011633Y016416D03*
X011318Y016416D03*
X011003Y016416D03*
X011003Y016731D03*
X011318Y016731D03*
X011318Y017046D03*
X011003Y017046D03*
X011003Y017361D03*
X011318Y017361D03*
X011318Y017676D03*
X011003Y017676D03*
X011003Y017991D03*
X011318Y017991D03*
X011318Y018306D03*
X011318Y018621D03*
X011318Y018936D03*
X011003Y018936D03*
X011003Y018621D03*
X011003Y018306D03*
X011948Y018306D03*
X012263Y018306D03*
X012578Y018306D03*
X012578Y017991D03*
X012578Y017676D03*
X012578Y017361D03*
X012578Y017046D03*
X012578Y016731D03*
X012578Y016416D03*
X012263Y016416D03*
X011948Y016416D03*
X011948Y016731D03*
X012263Y016731D03*
X012263Y017046D03*
X012263Y017361D03*
X012263Y017676D03*
X012263Y017991D03*
X011948Y017991D03*
X011948Y017676D03*
X011948Y017361D03*
X011948Y017046D03*
X012893Y017046D03*
X013208Y017046D03*
X013208Y016731D03*
X013208Y016416D03*
X012893Y016416D03*
X012893Y016731D03*
X012893Y017361D03*
X013208Y017361D03*
X013208Y017676D03*
X013208Y017991D03*
X013208Y018306D03*
X013208Y018621D03*
X013208Y018936D03*
X013208Y019251D03*
X013208Y019566D03*
X013208Y019881D03*
X013208Y020196D03*
X013208Y020511D03*
X012893Y020511D03*
X012893Y020196D03*
X012893Y019881D03*
X012893Y019566D03*
X012893Y019251D03*
X012893Y018936D03*
X012893Y018621D03*
X012893Y018306D03*
X012893Y017991D03*
X012893Y017676D03*
X012578Y018621D03*
X012578Y018936D03*
X012578Y019251D03*
X012578Y019566D03*
X012578Y019881D03*
X012578Y020196D03*
X012578Y020511D03*
X012263Y020511D03*
X012263Y020196D03*
X012263Y019881D03*
X012263Y019566D03*
X012263Y019251D03*
X012263Y018936D03*
X012263Y018621D03*
X011948Y018621D03*
X011948Y018936D03*
X011948Y019251D03*
X011948Y019566D03*
X011948Y019881D03*
X011948Y020196D03*
X011948Y020511D03*
X011633Y020511D03*
X011633Y020196D03*
X011633Y019881D03*
X011633Y019566D03*
X011318Y019566D03*
X011318Y019881D03*
X011318Y020196D03*
X011318Y020511D03*
X011003Y020511D03*
X011003Y020196D03*
X011003Y019881D03*
X011003Y019566D03*
D21*
X008798Y020826D03*
X008798Y016101D03*
X013523Y016101D03*
D22*
X018652Y011038D03*
X004652Y011038D03*
X004652Y008038D03*
D23*
X005652Y008038D03*
X006652Y008038D03*
X007652Y008038D03*
X008652Y008038D03*
X009652Y008038D03*
X010652Y008038D03*
X011652Y008038D03*
X012652Y008038D03*
X013652Y008038D03*
X014652Y008038D03*
X015652Y008038D03*
X016652Y008038D03*
X017652Y008038D03*
X018652Y008038D03*
X019652Y008038D03*
X019652Y011038D03*
X019652Y012038D03*
X019652Y013038D03*
X019652Y014038D03*
X018652Y014038D03*
X018652Y013038D03*
X018652Y012038D03*
X018652Y015038D03*
X018652Y016038D03*
X018652Y017038D03*
X018652Y018038D03*
X018652Y019038D03*
X018652Y020038D03*
X018652Y021038D03*
X018652Y022038D03*
X018652Y023038D03*
X019652Y023038D03*
X019652Y022038D03*
X019652Y021038D03*
X019652Y020038D03*
X019652Y019038D03*
X019652Y018038D03*
X019652Y017038D03*
X019652Y016038D03*
X019652Y015038D03*
X005652Y015038D03*
X005652Y016038D03*
X005652Y017038D03*
X005652Y018038D03*
X004652Y018038D03*
X004652Y017038D03*
X004652Y016038D03*
X004652Y015038D03*
X004652Y014038D03*
X004652Y013038D03*
X004652Y012038D03*
X005652Y012038D03*
X005652Y013038D03*
X005652Y014038D03*
X005652Y011038D03*
X005652Y019038D03*
X005652Y020038D03*
X005652Y021038D03*
X005652Y022038D03*
X004652Y022038D03*
X004652Y021038D03*
X004652Y020038D03*
X004652Y019038D03*
X004652Y023038D03*
X005652Y023038D03*
D24*
X006952Y009838D03*
X006952Y009538D03*
D25*
X017277Y024688D03*
D26*
X015952Y024538D03*
D27*
X016602Y024838D03*
D28*
X017152Y025713D03*
X012652Y025713D03*
D29*
X014902Y026263D03*
D30*
X012777Y025988D03*
X017027Y025988D03*
D31*
X012527Y024838D03*
D32*
X012602Y024038D03*
X012852Y024038D03*
X013102Y024038D03*
D33*
X005152Y008439D02*
X005152Y007758D01*
X005227Y007758D01*
X005152Y007939D01*
X005152Y008138D01*
X005229Y008322D01*
X005369Y008462D01*
X005553Y008538D01*
X005752Y008538D01*
X005936Y008462D01*
X006369Y008462D01*
X006229Y008322D01*
X006152Y008138D01*
X006076Y008322D01*
X005936Y008462D01*
X006035Y008363D02*
X006270Y008363D01*
X006205Y008265D02*
X006100Y008265D01*
X006141Y008166D02*
X006164Y008166D01*
X006152Y008138D02*
X006152Y007939D01*
X006078Y007758D01*
X006227Y007758D01*
X006152Y007939D01*
X006152Y008138D01*
X006152Y008068D02*
X006152Y008068D01*
X006152Y007969D02*
X006152Y007969D01*
X006124Y007870D02*
X006181Y007870D01*
X006222Y007772D02*
X006083Y007772D01*
X006369Y008462D02*
X006553Y008538D01*
X006752Y008538D01*
X006936Y008462D01*
X007369Y008462D01*
X007229Y008322D01*
X007152Y008138D01*
X007076Y008322D01*
X006936Y008462D01*
X007035Y008363D02*
X007270Y008363D01*
X007205Y008265D02*
X007100Y008265D01*
X007141Y008166D02*
X007164Y008166D01*
X007152Y008138D02*
X007152Y007939D01*
X007078Y007758D01*
X007227Y007758D01*
X007152Y007939D01*
X007152Y008138D01*
X007152Y008068D02*
X007152Y008068D01*
X007152Y007969D02*
X007152Y007969D01*
X007124Y007870D02*
X007181Y007870D01*
X007222Y007772D02*
X007083Y007772D01*
X007369Y008462D02*
X007553Y008538D01*
X007752Y008538D01*
X007936Y008462D01*
X008369Y008462D01*
X008229Y008322D01*
X008152Y008138D01*
X008076Y008322D01*
X007936Y008462D01*
X008035Y008363D02*
X008270Y008363D01*
X008205Y008265D02*
X008100Y008265D01*
X008141Y008166D02*
X008164Y008166D01*
X008152Y008138D02*
X008152Y007939D01*
X008078Y007758D01*
X008227Y007758D01*
X008152Y007939D01*
X008152Y008138D01*
X008152Y008068D02*
X008152Y008068D01*
X008152Y007969D02*
X008152Y007969D01*
X008124Y007870D02*
X008181Y007870D01*
X008222Y007772D02*
X008083Y007772D01*
X008369Y008462D02*
X008553Y008538D01*
X008752Y008538D01*
X008936Y008462D01*
X009369Y008462D01*
X009229Y008322D01*
X009152Y008138D01*
X009076Y008322D01*
X008936Y008462D01*
X009035Y008363D02*
X009270Y008363D01*
X009205Y008265D02*
X009100Y008265D01*
X009141Y008166D02*
X009164Y008166D01*
X009152Y008138D02*
X009152Y007939D01*
X009078Y007758D01*
X009227Y007758D01*
X009152Y007939D01*
X009152Y008138D01*
X009152Y008068D02*
X009152Y008068D01*
X009152Y007969D02*
X009152Y007969D01*
X009124Y007870D02*
X009181Y007870D01*
X009222Y007772D02*
X009083Y007772D01*
X009369Y008462D02*
X009553Y008538D01*
X009752Y008538D01*
X009936Y008462D01*
X010369Y008462D01*
X010229Y008322D01*
X010152Y008138D01*
X010076Y008322D01*
X009936Y008462D01*
X010035Y008363D02*
X010270Y008363D01*
X010205Y008265D02*
X010100Y008265D01*
X010141Y008166D02*
X010164Y008166D01*
X010152Y008138D02*
X010152Y007939D01*
X010078Y007758D01*
X010227Y007758D01*
X010152Y007939D01*
X010152Y008138D01*
X010152Y008068D02*
X010152Y008068D01*
X010152Y007969D02*
X010152Y007969D01*
X010124Y007870D02*
X010181Y007870D01*
X010222Y007772D02*
X010083Y007772D01*
X010369Y008462D02*
X010553Y008538D01*
X010752Y008538D01*
X010936Y008462D01*
X011369Y008462D01*
X011229Y008322D01*
X011152Y008138D01*
X011076Y008322D01*
X010936Y008462D01*
X011035Y008363D02*
X011270Y008363D01*
X011205Y008265D02*
X011100Y008265D01*
X011141Y008166D02*
X011164Y008166D01*
X011152Y008138D02*
X011152Y007939D01*
X011078Y007758D01*
X011227Y007758D01*
X011152Y007939D01*
X011152Y008138D01*
X011152Y008068D02*
X011152Y008068D01*
X011152Y007969D02*
X011152Y007969D01*
X011124Y007870D02*
X011181Y007870D01*
X011222Y007772D02*
X011083Y007772D01*
X011369Y008462D02*
X011553Y008538D01*
X011752Y008538D01*
X011936Y008462D01*
X012369Y008462D01*
X012229Y008322D01*
X012152Y008138D01*
X012076Y008322D01*
X011936Y008462D01*
X012035Y008363D02*
X012270Y008363D01*
X012205Y008265D02*
X012100Y008265D01*
X012141Y008166D02*
X012164Y008166D01*
X012152Y008138D02*
X012152Y007939D01*
X012078Y007758D01*
X012227Y007758D01*
X012152Y007939D01*
X012152Y008138D01*
X012152Y008068D02*
X012152Y008068D01*
X012152Y007969D02*
X012152Y007969D01*
X012124Y007870D02*
X012181Y007870D01*
X012222Y007772D02*
X012083Y007772D01*
X012369Y008462D02*
X012553Y008538D01*
X012752Y008538D01*
X012936Y008462D01*
X013369Y008462D01*
X013229Y008322D01*
X013152Y008138D01*
X013076Y008322D01*
X012936Y008462D01*
X013035Y008363D02*
X013270Y008363D01*
X013205Y008265D02*
X013100Y008265D01*
X013141Y008166D02*
X013164Y008166D01*
X013152Y008138D02*
X013152Y007939D01*
X013078Y007758D01*
X013227Y007758D01*
X013152Y007939D01*
X013152Y008138D01*
X013152Y008068D02*
X013152Y008068D01*
X013152Y007969D02*
X013152Y007969D01*
X013124Y007870D02*
X013181Y007870D01*
X013222Y007772D02*
X013083Y007772D01*
X013369Y008462D02*
X013553Y008538D01*
X013752Y008538D01*
X013936Y008462D01*
X014369Y008462D01*
X014229Y008322D01*
X014152Y008138D01*
X014076Y008322D01*
X013936Y008462D01*
X014035Y008363D02*
X014270Y008363D01*
X014205Y008265D02*
X014100Y008265D01*
X014141Y008166D02*
X014164Y008166D01*
X014152Y008138D02*
X014152Y007939D01*
X014078Y007758D01*
X014227Y007758D01*
X014152Y007939D01*
X014152Y008138D01*
X014152Y008068D02*
X014152Y008068D01*
X014152Y007969D02*
X014152Y007969D01*
X014124Y007870D02*
X014181Y007870D01*
X014222Y007772D02*
X014083Y007772D01*
X014369Y008462D02*
X014553Y008538D01*
X014752Y008538D01*
X014936Y008462D01*
X015369Y008462D01*
X015229Y008322D01*
X015152Y008138D01*
X015076Y008322D01*
X014936Y008462D01*
X015035Y008363D02*
X015270Y008363D01*
X015205Y008265D02*
X015100Y008265D01*
X015141Y008166D02*
X015164Y008166D01*
X015152Y008138D02*
X015152Y007939D01*
X015078Y007758D01*
X015227Y007758D01*
X015152Y007939D01*
X015152Y008138D01*
X015152Y008068D02*
X015152Y008068D01*
X015152Y007969D02*
X015152Y007969D01*
X015124Y007870D02*
X015181Y007870D01*
X015222Y007772D02*
X015083Y007772D01*
X015369Y008462D02*
X015553Y008538D01*
X015752Y008538D01*
X015936Y008462D01*
X016369Y008462D01*
X016229Y008322D01*
X016152Y008138D01*
X016076Y008322D01*
X015936Y008462D01*
X016035Y008363D02*
X016270Y008363D01*
X016205Y008265D02*
X016100Y008265D01*
X016141Y008166D02*
X016164Y008166D01*
X016152Y008138D02*
X016152Y007939D01*
X016078Y007758D01*
X016227Y007758D01*
X016152Y007939D01*
X016152Y008138D01*
X016152Y008068D02*
X016152Y008068D01*
X016152Y007969D02*
X016152Y007969D01*
X016124Y007870D02*
X016181Y007870D01*
X016222Y007772D02*
X016083Y007772D01*
X016369Y008462D02*
X016553Y008538D01*
X016752Y008538D01*
X016936Y008462D01*
X017369Y008462D01*
X017229Y008322D01*
X017152Y008138D01*
X017076Y008322D01*
X016936Y008462D01*
X017035Y008363D02*
X017270Y008363D01*
X017205Y008265D02*
X017100Y008265D01*
X017141Y008166D02*
X017164Y008166D01*
X017152Y008138D02*
X017152Y007939D01*
X017078Y007758D01*
X017227Y007758D01*
X017152Y007939D01*
X017152Y008138D01*
X017152Y008068D02*
X017152Y008068D01*
X017152Y007969D02*
X017152Y007969D01*
X017124Y007870D02*
X017181Y007870D01*
X017222Y007772D02*
X017083Y007772D01*
X017369Y008462D02*
X017553Y008538D01*
X017752Y008538D01*
X017936Y008462D01*
X018369Y008462D01*
X018229Y008322D01*
X018152Y008138D01*
X018076Y008322D01*
X017936Y008462D01*
X018035Y008363D02*
X018270Y008363D01*
X018205Y008265D02*
X018100Y008265D01*
X018141Y008166D02*
X018164Y008166D01*
X018152Y008138D02*
X018152Y007939D01*
X018078Y007758D01*
X018227Y007758D01*
X018152Y007939D01*
X018152Y008138D01*
X018152Y008068D02*
X018152Y008068D01*
X018152Y007969D02*
X018152Y007969D01*
X018124Y007870D02*
X018181Y007870D01*
X018222Y007772D02*
X018083Y007772D01*
X018369Y008462D02*
X018553Y008538D01*
X018752Y008538D01*
X018936Y008462D01*
X019326Y008462D01*
X019352Y008488D02*
X019203Y008339D01*
X019136Y008177D01*
X019076Y008322D01*
X018936Y008462D01*
X019035Y008363D02*
X019228Y008363D01*
X019173Y008265D02*
X019100Y008265D01*
X019352Y008488D02*
X019547Y008568D01*
X019602Y008568D01*
X019602Y008089D01*
X019702Y008089D01*
X019702Y008568D01*
X019758Y008568D01*
X019932Y008496D01*
X019932Y009603D01*
X019818Y009488D01*
X019702Y009488D01*
X019702Y009838D01*
X019602Y009838D01*
X019602Y009488D01*
X019556Y009488D01*
X019555Y009470D01*
X019546Y009401D01*
X019546Y009401D01*
X019530Y009334D01*
X019530Y009334D01*
X019509Y009269D01*
X019509Y009269D01*
X019481Y009206D01*
X019481Y009206D01*
X019448Y009146D01*
X019448Y009146D01*
X019410Y009089D01*
X019410Y009088D01*
X019367Y009035D01*
X019367Y009035D01*
X019318Y008986D01*
X019318Y008986D01*
X019266Y008941D01*
X019266Y008941D01*
X019210Y008902D01*
X019210Y008902D01*
X019150Y008867D01*
X019150Y008867D01*
X019088Y008838D01*
X019088Y008838D01*
X019023Y008815D01*
X019023Y008815D01*
X018956Y008798D01*
X018956Y008798D01*
X018888Y008787D01*
X018888Y008787D01*
X018820Y008783D01*
X018820Y008783D01*
X018751Y008784D01*
X018751Y008784D01*
X018682Y008792D01*
X018682Y008792D01*
X018615Y008806D01*
X018615Y008806D01*
X018549Y008826D01*
X018549Y008826D01*
X018486Y008852D01*
X018486Y008852D01*
X018424Y008884D01*
X018424Y008884D01*
X018366Y008921D01*
X018366Y008921D01*
X018312Y008963D01*
X018312Y008963D01*
X018262Y009010D01*
X018262Y009010D01*
X018216Y009061D01*
X018216Y009061D01*
X018175Y009117D01*
X018175Y009117D01*
X018139Y009175D01*
X018109Y009237D01*
X018084Y009301D01*
X018066Y009368D01*
X018053Y009435D01*
X018047Y009504D01*
X018047Y009573D01*
X018053Y009641D01*
X018066Y009709D01*
X018066Y009709D01*
X018084Y009775D01*
X018084Y009775D01*
X018109Y009840D01*
X018109Y009840D01*
X018139Y009901D01*
X018139Y009901D01*
X018175Y009960D01*
X018175Y009960D01*
X018216Y010015D01*
X018216Y010016D01*
X018262Y010067D01*
X018262Y010067D01*
X018312Y010114D01*
X018312Y010114D01*
X018366Y010156D01*
X018366Y010156D01*
X018424Y010193D01*
X018424Y010193D01*
X018486Y010225D01*
X018486Y010225D01*
X018549Y010251D01*
X018549Y010251D01*
X018615Y010271D01*
X018615Y010271D01*
X018682Y010285D01*
X018682Y010285D01*
X018751Y010293D01*
X018751Y010293D01*
X018820Y010294D01*
X018820Y010294D01*
X018888Y010290D01*
X018888Y010290D01*
X018956Y010279D01*
X018956Y010279D01*
X019023Y010262D01*
X019023Y010262D01*
X019088Y010239D01*
X019088Y010239D01*
X019150Y010210D01*
X019150Y010210D01*
X019210Y010175D01*
X019210Y010175D01*
X019266Y010136D01*
X019266Y010136D01*
X019303Y010104D01*
X019487Y010288D01*
X019602Y010288D01*
X019602Y009939D01*
X019702Y009939D01*
X019702Y010288D01*
X019818Y010288D01*
X019932Y010174D01*
X019932Y010581D01*
X019758Y010508D01*
X019702Y010508D01*
X019702Y010988D01*
X019602Y010988D01*
X019602Y010508D01*
X019547Y010508D01*
X019352Y010589D01*
X019203Y010738D01*
X019152Y010861D01*
X019152Y010638D01*
X019053Y010538D01*
X018252Y010538D01*
X018152Y010638D01*
X018152Y011439D01*
X018252Y011538D01*
X019053Y011538D01*
X019152Y011439D01*
X019152Y011216D01*
X019203Y011339D01*
X019352Y011488D01*
X019514Y011555D01*
X019369Y011615D01*
X018936Y011615D01*
X019076Y011755D01*
X019152Y011939D01*
X019152Y012138D01*
X019076Y012322D01*
X018936Y012462D01*
X018752Y012538D01*
X018553Y012538D01*
X018369Y012462D01*
X018229Y012322D01*
X018152Y012138D01*
X018152Y011939D01*
X018229Y011755D01*
X018369Y011615D01*
X017672Y011615D01*
X017672Y011709D02*
X017672Y011168D01*
X017593Y011088D01*
X017672Y011009D01*
X017672Y010468D01*
X017592Y010388D01*
X017592Y010254D01*
X017630Y010216D01*
X017630Y009761D01*
X017579Y009710D01*
X017660Y009629D01*
X017660Y009417D01*
X017331Y009417D01*
X017331Y009360D01*
X017660Y009360D01*
X017660Y009148D01*
X017543Y009031D01*
X017331Y009031D01*
X017331Y009359D01*
X017274Y009359D01*
X017274Y009031D01*
X017062Y009031D01*
X016945Y009148D01*
X016945Y009360D01*
X017273Y009360D01*
X017273Y009417D01*
X016945Y009417D01*
X016945Y009629D01*
X017026Y009710D01*
X016975Y009761D01*
X016975Y010216D01*
X017012Y010254D01*
X017012Y010388D01*
X016994Y010407D01*
X016956Y010368D01*
X016649Y010368D01*
X016432Y010585D01*
X016432Y010618D01*
X016199Y010618D01*
X016082Y010618D01*
X016024Y010677D01*
X015935Y010588D01*
X015702Y010588D01*
X015702Y010938D01*
X015602Y010938D01*
X015602Y010588D01*
X015372Y010588D01*
X015372Y010092D01*
X015422Y010042D01*
X015422Y009735D01*
X015372Y009685D01*
X015372Y009373D01*
X015400Y009307D01*
X015400Y009169D01*
X015347Y009042D01*
X015249Y008944D01*
X015121Y008891D01*
X014983Y008891D01*
X014856Y008944D01*
X014758Y009042D01*
X014705Y009169D01*
X014705Y009307D01*
X014732Y009373D01*
X014732Y009685D01*
X014682Y009735D01*
X014682Y010042D01*
X014732Y010092D01*
X014732Y010918D01*
X014702Y010948D01*
X014623Y010868D01*
X014082Y010868D01*
X014019Y010932D01*
X013921Y010891D01*
X013783Y010891D01*
X013656Y010944D01*
X013558Y011042D01*
X013505Y011169D01*
X013505Y011307D01*
X013558Y011435D01*
X013592Y011468D01*
X013482Y011468D01*
X013424Y011527D01*
X013335Y011438D01*
X013102Y011438D01*
X013102Y011788D01*
X013002Y011788D01*
X013002Y011438D01*
X012770Y011438D01*
X012652Y011556D01*
X012652Y011788D01*
X013002Y011788D01*
X013002Y011888D01*
X012652Y011888D01*
X012652Y012088D01*
X012620Y012088D01*
X012602Y012106D01*
X012585Y012088D01*
X012352Y012088D01*
X012352Y012438D01*
X012252Y012438D01*
X012252Y012088D01*
X012020Y012088D01*
X011995Y012113D01*
X011960Y012078D01*
X011915Y012078D01*
X012285Y011708D01*
X012472Y011521D01*
X012472Y011423D01*
X012500Y011357D01*
X012500Y011238D01*
X012552Y011238D01*
X012552Y010889D01*
X012652Y010889D01*
X012652Y011238D01*
X012885Y011238D01*
X013002Y011121D01*
X013002Y010888D01*
X012653Y010888D01*
X012653Y010788D01*
X013002Y010788D01*
X013002Y010556D01*
X012885Y010438D01*
X012652Y010438D01*
X012652Y010788D01*
X012552Y010788D01*
X012552Y010438D01*
X012552Y010438D01*
X012552Y010288D01*
X012203Y010288D01*
X012203Y010188D01*
X012552Y010188D01*
X012552Y009956D01*
X012505Y009908D01*
X012599Y009908D01*
X012899Y010208D01*
X013206Y010208D01*
X013256Y010158D01*
X013299Y010158D01*
X013399Y010258D01*
X013706Y010258D01*
X013922Y010042D01*
X013922Y009735D01*
X013706Y009518D01*
X013399Y009518D01*
X013327Y009590D01*
X013122Y009385D01*
X012906Y009168D01*
X011999Y009168D01*
X011361Y009168D01*
X011293Y009236D01*
X011208Y009236D01*
X011108Y009336D01*
X011108Y009398D01*
X011082Y009423D01*
X011082Y009797D01*
X010927Y009953D01*
X010927Y009893D01*
X010495Y009893D01*
X010495Y009884D01*
X010927Y009884D01*
X010927Y009697D01*
X010897Y009667D01*
X010897Y009336D01*
X010797Y009236D01*
X010629Y009236D01*
X010613Y009219D01*
X010252Y009219D01*
X010160Y009128D01*
X009389Y009128D01*
X009302Y009215D01*
X009215Y009128D01*
X008445Y009128D01*
X008345Y009227D01*
X008345Y009368D01*
X008022Y009368D01*
X008022Y009135D01*
X007806Y008918D01*
X007499Y008918D01*
X007349Y009068D01*
X007306Y009068D01*
X007106Y008868D01*
X006799Y008868D01*
X006582Y009085D01*
X006582Y009592D01*
X006632Y009642D01*
X006632Y009668D01*
X006632Y009806D01*
X006632Y010004D01*
X006605Y010069D01*
X006605Y010207D01*
X006632Y010273D01*
X006632Y011956D01*
X006632Y012221D01*
X006681Y012269D01*
X006708Y012335D01*
X006806Y012433D01*
X006933Y012486D01*
X007071Y012486D01*
X007199Y012433D01*
X007297Y012335D01*
X007350Y012207D01*
X007350Y012069D01*
X007297Y011942D01*
X007272Y011917D01*
X007272Y010838D01*
X007452Y010838D01*
X007452Y010489D01*
X007552Y010489D01*
X007552Y010838D01*
X007785Y010838D01*
X007802Y010821D01*
X007820Y010838D01*
X007870Y010838D01*
X007856Y010844D01*
X007758Y010942D01*
X007705Y011069D01*
X007705Y011207D01*
X007758Y011335D01*
X007856Y011433D01*
X007983Y011486D01*
X008121Y011486D01*
X008249Y011433D01*
X008347Y011335D01*
X008400Y011207D01*
X008400Y011069D01*
X008347Y010942D01*
X008249Y010844D01*
X008235Y010838D01*
X008385Y010838D01*
X008502Y010721D01*
X008502Y010649D01*
X008831Y010649D01*
X009101Y010918D01*
X008832Y010918D01*
X008732Y011018D01*
X008732Y011518D01*
X008232Y011518D01*
X008174Y011577D01*
X008085Y011488D01*
X007852Y011488D01*
X007852Y011838D01*
X007752Y011838D01*
X007752Y011488D01*
X007520Y011488D01*
X007402Y011606D01*
X007402Y011838D01*
X007752Y011838D01*
X007752Y011938D01*
X007402Y011938D01*
X007402Y012171D01*
X007520Y012288D01*
X007752Y012288D01*
X007752Y011939D01*
X007852Y011939D01*
X007852Y012288D01*
X007852Y012288D01*
X007852Y012438D01*
X008202Y012438D01*
X008202Y012538D01*
X007852Y012538D01*
X007852Y012618D01*
X007649Y012618D01*
X007432Y012835D01*
X007432Y013035D01*
X007432Y013342D01*
X007432Y013460D01*
X007011Y013460D01*
X006912Y013559D01*
X006912Y014251D01*
X007011Y014351D01*
X007318Y014351D01*
X007256Y014413D01*
X007256Y014723D01*
X007604Y014723D01*
X007604Y014820D01*
X007256Y014820D01*
X007256Y014975D01*
X007181Y014944D01*
X007074Y014944D01*
X006975Y014985D01*
X006899Y015061D01*
X006858Y015160D01*
X006858Y015267D01*
X006888Y015338D01*
X006858Y015410D01*
X006858Y015517D01*
X006899Y015616D01*
X006975Y015691D01*
X007007Y015705D01*
X007007Y016208D01*
X007007Y016369D01*
X007357Y016718D01*
X007249Y016718D01*
X007132Y016718D01*
X007032Y016818D01*
X007032Y016868D01*
X006860Y016868D01*
X006860Y017181D01*
X006845Y017181D01*
X006845Y016868D01*
X006655Y016868D01*
X006537Y016986D01*
X006537Y017181D01*
X006845Y017181D01*
X006845Y017196D01*
X006537Y017196D01*
X006537Y017391D01*
X006567Y017421D01*
X006567Y017463D01*
X006562Y017468D01*
X006562Y017698D01*
X006524Y017736D01*
X006483Y017835D01*
X006483Y017942D01*
X006513Y018013D01*
X006483Y018085D01*
X006483Y018192D01*
X006513Y018263D01*
X006483Y018335D01*
X006483Y018442D01*
X006524Y018541D01*
X006600Y018616D01*
X006699Y018657D01*
X006746Y018657D01*
X006772Y018683D01*
X007067Y018683D01*
X007052Y018698D01*
X006732Y018698D01*
X006667Y018698D01*
X006567Y018798D01*
X006567Y018863D01*
X006562Y018868D01*
X006562Y019109D01*
X006567Y019114D01*
X006567Y019156D01*
X006537Y019186D01*
X006537Y019381D01*
X006845Y019381D01*
X006845Y019396D01*
X006845Y019708D01*
X006655Y019708D01*
X006537Y019591D01*
X006537Y019396D01*
X006845Y019396D01*
X006860Y019396D01*
X006860Y019708D01*
X007032Y019708D01*
X007032Y019742D01*
X007032Y019793D01*
X007022Y019793D01*
X006896Y019919D01*
X006849Y019919D01*
X006750Y019960D01*
X006674Y020036D01*
X006633Y020135D01*
X006633Y020242D01*
X006674Y020341D01*
X006750Y020416D01*
X006849Y020457D01*
X006956Y020457D01*
X007027Y020428D01*
X007099Y020457D01*
X007206Y020457D01*
X007305Y020416D01*
X007381Y020341D01*
X007404Y020283D01*
X007683Y020283D01*
X007732Y020234D01*
X007732Y020559D01*
X007791Y020617D01*
X007702Y020706D01*
X007702Y020938D01*
X008052Y020938D01*
X008052Y021038D01*
X007702Y021038D01*
X007702Y021271D01*
X007820Y021388D01*
X008052Y021388D01*
X008052Y021039D01*
X008152Y021039D01*
X008152Y021388D01*
X008385Y021388D01*
X008458Y021316D01*
X008506Y021363D01*
X008899Y021363D01*
X008957Y021363D01*
X008957Y021369D01*
X008957Y021403D01*
X008924Y021436D01*
X008883Y021535D01*
X008883Y021642D01*
X008924Y021741D01*
X009000Y021816D01*
X009099Y021857D01*
X009202Y021857D01*
X009202Y021871D01*
X009320Y021988D01*
X009552Y021988D01*
X009552Y021639D01*
X009652Y021639D01*
X009652Y021988D01*
X009885Y021988D01*
X009974Y021900D01*
X010032Y021958D01*
X010291Y021958D01*
X010675Y021958D01*
X010833Y021800D01*
X010833Y021577D01*
X010675Y021418D01*
X010672Y021418D01*
X010672Y021377D01*
X010672Y021363D01*
X010882Y021363D01*
X010882Y021859D01*
X010982Y021958D01*
X011523Y021958D01*
X011581Y021900D01*
X011670Y021988D01*
X011902Y021988D01*
X011902Y021639D01*
X012002Y021639D01*
X012002Y021988D01*
X012235Y021988D01*
X012352Y021871D01*
X012352Y021864D01*
X012412Y021923D01*
X012793Y021923D01*
X012802Y021914D01*
X012812Y021923D01*
X013193Y021923D01*
X013217Y021899D01*
X013267Y021948D01*
X013638Y021948D01*
X013737Y021849D01*
X013737Y021808D01*
X013862Y021808D01*
X013862Y021824D01*
X013862Y022174D01*
X013962Y022273D01*
X014320Y022273D01*
X014350Y022303D01*
X014545Y022303D01*
X014545Y021996D01*
X014560Y021996D01*
X014560Y022303D01*
X014755Y022303D01*
X014872Y022186D01*
X014872Y021996D01*
X014560Y021996D01*
X014560Y021981D01*
X014872Y021981D01*
X014872Y021791D01*
X014842Y021761D01*
X014842Y021648D01*
X015667Y021648D01*
X015667Y022029D01*
X015732Y022094D01*
X015732Y022468D01*
X015561Y022468D01*
X015474Y022555D01*
X015412Y022555D01*
X015412Y023138D01*
X015312Y023138D01*
X015312Y022555D01*
X015250Y022555D01*
X015164Y022468D01*
X012324Y022468D01*
X012141Y022468D01*
X012041Y022568D01*
X009911Y022568D01*
X009782Y022697D01*
X009782Y022880D01*
X009782Y026318D01*
X007773Y026318D01*
X007798Y026281D01*
X007831Y026221D01*
X007859Y026158D01*
X007880Y026092D01*
X007896Y026025D01*
X007905Y025957D01*
X007908Y025888D01*
X007905Y025820D01*
X007905Y025820D01*
X007896Y025751D01*
X007896Y025751D01*
X007880Y025684D01*
X007880Y025684D01*
X007859Y025619D01*
X007859Y025619D01*
X007831Y025556D01*
X007831Y025556D01*
X007798Y025496D01*
X007798Y025496D01*
X007760Y025439D01*
X007760Y025438D01*
X007717Y025385D01*
X007717Y025385D01*
X007668Y025336D01*
X007668Y025336D01*
X007616Y025291D01*
X007616Y025291D01*
X007560Y025252D01*
X007560Y025252D01*
X007500Y025217D01*
X007500Y025217D01*
X007438Y025188D01*
X007438Y025188D01*
X007373Y025165D01*
X007373Y025165D01*
X007306Y025148D01*
X007306Y025148D01*
X007238Y025137D01*
X007238Y025137D01*
X007170Y025133D01*
X007170Y025133D01*
X007101Y025134D01*
X007101Y025134D01*
X007032Y025142D01*
X007032Y025142D01*
X006965Y025156D01*
X006965Y025156D01*
X006899Y025176D01*
X006899Y025176D01*
X006836Y025202D01*
X006836Y025202D01*
X006787Y025227D01*
X006783Y025138D01*
X006766Y025014D01*
X006737Y024892D01*
X006698Y024773D01*
X006648Y024658D01*
X006588Y024548D01*
X006518Y024444D01*
X006439Y024347D01*
X006352Y024257D01*
X006352Y024257D01*
X006256Y024176D01*
X006256Y024176D01*
X006154Y024104D01*
X006154Y024104D01*
X006045Y024041D01*
X006045Y024041D01*
X005932Y023989D01*
X005932Y023989D01*
X005814Y023947D01*
X005814Y023947D01*
X005692Y023916D01*
X005692Y023916D01*
X005569Y023896D01*
X005569Y023896D01*
X005444Y023887D01*
X005444Y023887D01*
X005318Y023890D01*
X005318Y023890D01*
X005194Y023904D01*
X005194Y023904D01*
X005071Y023930D01*
X005071Y023930D01*
X004951Y023966D01*
X004951Y023966D01*
X004835Y024013D01*
X004835Y024013D01*
X004724Y024071D01*
X004724Y024071D01*
X004619Y024139D01*
X004619Y024139D01*
X004520Y024215D01*
X004520Y024215D01*
X004428Y024301D01*
X004428Y024301D01*
X004428Y024301D01*
X004372Y024364D01*
X004372Y023464D01*
X004553Y023538D01*
X004752Y023538D01*
X004936Y023462D01*
X005076Y023322D01*
X005152Y023138D01*
X005152Y022939D01*
X005076Y022755D01*
X004936Y022615D01*
X004752Y022538D01*
X004553Y022538D01*
X004372Y022464D01*
X004372Y022613D01*
X004553Y022538D01*
X004752Y022538D01*
X004936Y022462D01*
X005076Y022322D01*
X005152Y022138D01*
X005152Y021939D01*
X005076Y021755D01*
X004936Y021615D01*
X004752Y021538D01*
X004553Y021538D01*
X004372Y021464D01*
X004372Y021613D01*
X004553Y021538D01*
X004752Y021538D01*
X004936Y021462D01*
X005076Y021322D01*
X005152Y021138D01*
X005152Y020939D01*
X005076Y020755D01*
X004936Y020615D01*
X004752Y020538D01*
X004553Y020538D01*
X004372Y020464D01*
X004372Y020613D01*
X004553Y020538D01*
X004752Y020538D01*
X004936Y020462D01*
X005076Y020322D01*
X005152Y020138D01*
X005152Y019939D01*
X005076Y019755D01*
X004936Y019615D01*
X004752Y019538D01*
X004553Y019538D01*
X004372Y019464D01*
X004372Y019613D01*
X004553Y019538D01*
X004752Y019538D01*
X004936Y019462D01*
X005076Y019322D01*
X005152Y019138D01*
X005152Y018939D01*
X005076Y018755D01*
X004936Y018615D01*
X004752Y018538D01*
X004553Y018538D01*
X004372Y018464D01*
X004372Y018613D01*
X004553Y018538D01*
X004752Y018538D01*
X004936Y018462D01*
X005076Y018322D01*
X005152Y018138D01*
X005152Y017939D01*
X005076Y017755D01*
X004936Y017615D01*
X004752Y017538D01*
X004553Y017538D01*
X004372Y017464D01*
X004372Y017613D01*
X004553Y017538D01*
X004752Y017538D01*
X004936Y017462D01*
X005076Y017322D01*
X005152Y017138D01*
X005152Y016939D01*
X005076Y016755D01*
X004936Y016615D01*
X004752Y016538D01*
X004553Y016538D01*
X004372Y016464D01*
X004372Y016613D01*
X004553Y016538D01*
X004752Y016538D01*
X004936Y016462D01*
X005076Y016322D01*
X005152Y016138D01*
X005152Y015939D01*
X005076Y015755D01*
X004936Y015615D01*
X004752Y015538D01*
X004553Y015538D01*
X004372Y015464D01*
X004372Y015613D01*
X004553Y015538D01*
X004752Y015538D01*
X004936Y015462D01*
X005076Y015322D01*
X005152Y015138D01*
X005152Y014939D01*
X005076Y014755D01*
X004936Y014615D01*
X004752Y014538D01*
X004553Y014538D01*
X004372Y014464D01*
X004372Y014613D01*
X004553Y014538D01*
X004752Y014538D01*
X004936Y014462D01*
X005076Y014322D01*
X005152Y014138D01*
X005152Y013939D01*
X005076Y013755D01*
X004936Y013615D01*
X004752Y013538D01*
X004553Y013538D01*
X004372Y013464D01*
X004372Y013613D01*
X004553Y013538D01*
X004752Y013538D01*
X004936Y013462D01*
X005076Y013322D01*
X005152Y013138D01*
X005152Y012939D01*
X005076Y012755D01*
X004936Y012615D01*
X004752Y012538D01*
X004553Y012538D01*
X004372Y012464D01*
X004372Y012613D01*
X004553Y012538D01*
X004752Y012538D01*
X004936Y012462D01*
X005076Y012322D01*
X005152Y012138D01*
X005152Y011939D01*
X005076Y011755D01*
X004936Y011615D01*
X005369Y011615D01*
X005514Y011555D01*
X005352Y011488D01*
X005203Y011339D01*
X005152Y011216D01*
X005152Y011439D01*
X005053Y011538D01*
X004372Y011538D01*
X004372Y011613D01*
X004553Y011538D01*
X004752Y011538D01*
X004936Y011615D01*
X005035Y011714D02*
X005270Y011714D01*
X005229Y011755D02*
X005369Y011615D01*
X005422Y011517D02*
X005075Y011517D01*
X005152Y011418D02*
X005283Y011418D01*
X005195Y011319D02*
X005152Y011319D01*
X005152Y011221D02*
X005154Y011221D01*
X005152Y010861D02*
X005203Y010738D01*
X005352Y010589D01*
X005547Y010508D01*
X005602Y010508D01*
X005602Y010988D01*
X005702Y010988D01*
X005702Y010508D01*
X005758Y010508D01*
X005953Y010589D01*
X006102Y010738D01*
X006182Y010933D01*
X006182Y010988D01*
X005703Y010988D01*
X005703Y011088D01*
X006182Y011088D01*
X006182Y011144D01*
X006102Y011339D01*
X005953Y011488D01*
X005791Y011555D01*
X005936Y011615D01*
X006632Y011615D01*
X006632Y011517D02*
X005883Y011517D01*
X005936Y011615D02*
X006076Y011755D01*
X006152Y011939D01*
X006152Y012138D01*
X006076Y012322D01*
X005936Y012462D01*
X005752Y012538D01*
X005553Y012538D01*
X005369Y012462D01*
X005229Y012322D01*
X005152Y012138D01*
X005152Y011939D01*
X005229Y011755D01*
X005205Y011812D02*
X005100Y011812D01*
X005141Y011911D02*
X005164Y011911D01*
X005152Y012009D02*
X005152Y012009D01*
X005152Y012108D02*
X005152Y012108D01*
X005124Y012206D02*
X005181Y012206D01*
X005222Y012305D02*
X005083Y012305D01*
X004994Y012403D02*
X005310Y012403D01*
X005465Y012502D02*
X004840Y012502D01*
X004902Y012601D02*
X005403Y012601D01*
X005369Y012615D02*
X005553Y012538D01*
X005752Y012538D01*
X005936Y012615D01*
X006076Y012755D01*
X006152Y012939D01*
X006152Y013138D01*
X006076Y013322D01*
X005936Y013462D01*
X005752Y013538D01*
X005553Y013538D01*
X005369Y013462D01*
X005229Y013322D01*
X005152Y013138D01*
X005152Y012939D01*
X005229Y012755D01*
X005369Y012615D01*
X005285Y012699D02*
X005020Y012699D01*
X005094Y012798D02*
X005211Y012798D01*
X005170Y012896D02*
X005135Y012896D01*
X005152Y012995D02*
X005152Y012995D01*
X005152Y013093D02*
X005152Y013093D01*
X005130Y013192D02*
X005175Y013192D01*
X005216Y013290D02*
X005089Y013290D01*
X005009Y013389D02*
X005296Y013389D01*
X005430Y013487D02*
X004875Y013487D01*
X004867Y013586D02*
X005438Y013586D01*
X005369Y013615D02*
X005553Y013538D01*
X005752Y013538D01*
X005936Y013615D01*
X006076Y013755D01*
X006152Y013939D01*
X006152Y014138D01*
X006076Y014322D01*
X005936Y014462D01*
X005752Y014538D01*
X005553Y014538D01*
X005369Y014462D01*
X005229Y014322D01*
X005152Y014138D01*
X005152Y013939D01*
X005229Y013755D01*
X005369Y013615D01*
X005299Y013685D02*
X005006Y013685D01*
X005088Y013783D02*
X005217Y013783D01*
X005176Y013882D02*
X005129Y013882D01*
X005152Y013980D02*
X005152Y013980D01*
X005152Y014079D02*
X005152Y014079D01*
X005136Y014177D02*
X005169Y014177D01*
X005210Y014276D02*
X005095Y014276D01*
X005024Y014374D02*
X005281Y014374D01*
X005395Y014473D02*
X004910Y014473D01*
X004832Y014571D02*
X005473Y014571D01*
X005553Y014538D02*
X005752Y014538D01*
X005936Y014615D01*
X006076Y014755D01*
X006152Y014939D01*
X006152Y015138D01*
X006076Y015322D01*
X005936Y015462D01*
X005752Y015538D01*
X005553Y015538D01*
X005369Y015462D01*
X005229Y015322D01*
X005152Y015138D01*
X005152Y014939D01*
X005229Y014755D01*
X005369Y014615D01*
X005553Y014538D01*
X005314Y014670D02*
X004991Y014670D01*
X005082Y014769D02*
X005223Y014769D01*
X005182Y014867D02*
X005123Y014867D01*
X005152Y014966D02*
X005152Y014966D01*
X005152Y015064D02*
X005152Y015064D01*
X005142Y015163D02*
X005163Y015163D01*
X005204Y015261D02*
X005101Y015261D01*
X005038Y015360D02*
X005267Y015360D01*
X005365Y015458D02*
X004940Y015458D01*
X004796Y015557D02*
X005508Y015557D01*
X005553Y015538D02*
X005752Y015538D01*
X005936Y015615D01*
X006076Y015755D01*
X006152Y015939D01*
X006152Y016138D01*
X006076Y016322D01*
X005936Y016462D01*
X005752Y016538D01*
X005553Y016538D01*
X005369Y016462D01*
X005229Y016322D01*
X005152Y016138D01*
X005152Y015939D01*
X005229Y015755D01*
X005369Y015615D01*
X005553Y015538D01*
X005796Y015557D02*
X006875Y015557D01*
X006858Y015458D02*
X005940Y015458D01*
X006038Y015360D02*
X006879Y015360D01*
X006858Y015261D02*
X006101Y015261D01*
X006142Y015163D02*
X006858Y015163D01*
X006898Y015064D02*
X006152Y015064D01*
X006152Y014966D02*
X007023Y014966D01*
X007232Y014966D02*
X007256Y014966D01*
X007256Y014867D02*
X006123Y014867D01*
X006082Y014769D02*
X007604Y014769D01*
X007701Y014769D02*
X008465Y014769D01*
X008437Y014741D02*
X008437Y014546D01*
X008745Y014546D01*
X008745Y014858D01*
X008555Y014858D01*
X008437Y014741D01*
X008437Y014670D02*
X008049Y014670D01*
X008049Y014723D02*
X007701Y014723D01*
X007701Y014820D01*
X008049Y014820D01*
X008049Y015130D01*
X007987Y015192D01*
X008031Y015236D01*
X008071Y015335D01*
X008071Y015442D01*
X008031Y015541D01*
X007955Y015616D01*
X007917Y015632D01*
X007917Y015714D01*
X008227Y016024D01*
X008227Y015842D01*
X008433Y015636D01*
X008433Y015535D01*
X008474Y015436D01*
X008550Y015360D01*
X008649Y015319D01*
X008756Y015319D01*
X008855Y015360D01*
X008931Y015436D01*
X008971Y015535D01*
X008971Y015563D01*
X009057Y015563D01*
X009057Y014990D01*
X009000Y014966D01*
X008924Y014891D01*
X008911Y014858D01*
X008760Y014858D01*
X008760Y014546D01*
X008745Y014546D01*
X008745Y014531D01*
X008437Y014531D01*
X008437Y014514D01*
X008394Y014558D01*
X008049Y014558D01*
X008049Y014723D01*
X008049Y014867D02*
X008915Y014867D01*
X008999Y014966D02*
X008049Y014966D01*
X008049Y015064D02*
X009057Y015064D01*
X009057Y015163D02*
X008016Y015163D01*
X008041Y015261D02*
X009057Y015261D01*
X009057Y015360D02*
X008854Y015360D01*
X008940Y015458D02*
X009057Y015458D01*
X009057Y015557D02*
X008971Y015557D01*
X008551Y015360D02*
X008071Y015360D01*
X008065Y015458D02*
X008465Y015458D01*
X008433Y015557D02*
X008014Y015557D01*
X007917Y015655D02*
X008414Y015655D01*
X008315Y015754D02*
X007958Y015754D01*
X008056Y015852D02*
X008227Y015852D01*
X008227Y015951D02*
X008155Y015951D01*
X008745Y014769D02*
X008760Y014769D01*
X008760Y014670D02*
X008745Y014670D01*
X008745Y014571D02*
X008760Y014571D01*
X008437Y014571D02*
X008049Y014571D01*
X008302Y014338D02*
X007652Y014338D01*
X007302Y013988D01*
X007302Y013905D01*
X007294Y014374D02*
X006024Y014374D01*
X006095Y014276D02*
X006936Y014276D01*
X006912Y014177D02*
X006136Y014177D01*
X006152Y014079D02*
X006912Y014079D01*
X006912Y013980D02*
X006152Y013980D01*
X006129Y013882D02*
X006912Y013882D01*
X006912Y013783D02*
X006088Y013783D01*
X006006Y013685D02*
X006912Y013685D01*
X006912Y013586D02*
X005867Y013586D01*
X005875Y013487D02*
X006983Y013487D01*
X007432Y013389D02*
X006009Y013389D01*
X006089Y013290D02*
X007432Y013290D01*
X007432Y013192D02*
X006130Y013192D01*
X006152Y013093D02*
X007432Y013093D01*
X007432Y012995D02*
X006152Y012995D01*
X006135Y012896D02*
X007432Y012896D01*
X007470Y012798D02*
X006094Y012798D01*
X006020Y012699D02*
X007569Y012699D01*
X007852Y012601D02*
X005902Y012601D01*
X005840Y012502D02*
X008202Y012502D01*
X007852Y012403D02*
X007228Y012403D01*
X007309Y012305D02*
X007852Y012305D01*
X007852Y012206D02*
X007752Y012206D01*
X007752Y012108D02*
X007852Y012108D01*
X007852Y012009D02*
X007752Y012009D01*
X007752Y011911D02*
X007272Y011911D01*
X007272Y011812D02*
X007402Y011812D01*
X007402Y011714D02*
X007272Y011714D01*
X007272Y011615D02*
X007402Y011615D01*
X007491Y011517D02*
X007272Y011517D01*
X007272Y011418D02*
X007841Y011418D01*
X007852Y011517D02*
X007752Y011517D01*
X007752Y011615D02*
X007852Y011615D01*
X007852Y011714D02*
X007752Y011714D01*
X007752Y011812D02*
X007852Y011812D01*
X008113Y011517D02*
X008732Y011517D01*
X008732Y011418D02*
X008264Y011418D01*
X008353Y011319D02*
X008732Y011319D01*
X008732Y011221D02*
X008394Y011221D01*
X008400Y011122D02*
X008732Y011122D01*
X008732Y011024D02*
X008381Y011024D01*
X008330Y010925D02*
X008825Y010925D01*
X009009Y010827D02*
X008397Y010827D01*
X008495Y010728D02*
X008910Y010728D01*
X008052Y010488D02*
X008052Y010388D01*
X007702Y010388D01*
X007553Y010388D01*
X007553Y010488D01*
X007702Y010488D01*
X008052Y010488D01*
X008052Y010433D02*
X007553Y010433D01*
X007552Y010531D02*
X007452Y010531D01*
X007452Y010630D02*
X007552Y010630D01*
X007552Y010728D02*
X007452Y010728D01*
X007452Y010827D02*
X007552Y010827D01*
X007775Y010925D02*
X007272Y010925D01*
X007272Y011024D02*
X007724Y011024D01*
X007705Y011122D02*
X007272Y011122D01*
X007272Y011221D02*
X007711Y011221D01*
X007752Y011319D02*
X007272Y011319D01*
X006632Y011319D02*
X006110Y011319D01*
X006151Y011221D02*
X006632Y011221D01*
X006632Y011122D02*
X006182Y011122D01*
X006179Y010925D02*
X006632Y010925D01*
X006632Y010827D02*
X006138Y010827D01*
X006092Y010728D02*
X006632Y010728D01*
X006632Y010630D02*
X005993Y010630D01*
X005813Y010531D02*
X006632Y010531D01*
X006632Y010433D02*
X004372Y010433D01*
X004372Y010531D02*
X005492Y010531D01*
X005602Y010531D02*
X005702Y010531D01*
X005702Y010630D02*
X005602Y010630D01*
X005602Y010728D02*
X005702Y010728D01*
X005702Y010827D02*
X005602Y010827D01*
X005602Y010925D02*
X005702Y010925D01*
X005703Y011024D02*
X006632Y011024D01*
X006632Y011418D02*
X006022Y011418D01*
X006035Y011714D02*
X006632Y011714D01*
X006632Y011812D02*
X006100Y011812D01*
X006141Y011911D02*
X006632Y011911D01*
X006632Y012009D02*
X006152Y012009D01*
X006152Y012108D02*
X006632Y012108D01*
X006632Y012206D02*
X006124Y012206D01*
X006083Y012305D02*
X006696Y012305D01*
X006777Y012403D02*
X005994Y012403D01*
X005152Y010861D02*
X005152Y010638D01*
X005053Y010538D01*
X004372Y010538D01*
X004372Y008538D01*
X005053Y008538D01*
X005152Y008439D01*
X005129Y008462D02*
X005369Y008462D01*
X005270Y008363D02*
X005152Y008363D01*
X005152Y008265D02*
X005205Y008265D01*
X005164Y008166D02*
X005152Y008166D01*
X005152Y008068D02*
X005152Y008068D01*
X005152Y007969D02*
X005152Y007969D01*
X005152Y007870D02*
X005181Y007870D01*
X005152Y007772D02*
X005222Y007772D01*
X005382Y008792D02*
X005315Y008806D01*
X005315Y008806D01*
X005249Y008826D01*
X005249Y008826D01*
X005186Y008852D01*
X005186Y008852D01*
X005124Y008884D01*
X005124Y008884D01*
X005066Y008921D01*
X005066Y008921D01*
X005012Y008963D01*
X005012Y008963D01*
X004962Y009010D01*
X004962Y009010D01*
X004962Y009010D01*
X004916Y009061D01*
X004916Y009061D01*
X004875Y009117D01*
X004839Y009175D01*
X004839Y009175D01*
X004809Y009237D01*
X004784Y009301D01*
X004766Y009368D01*
X004753Y009435D01*
X004747Y009504D01*
X004747Y009573D01*
X004753Y009641D01*
X004766Y009709D01*
X004784Y009775D01*
X004809Y009840D01*
X004839Y009901D01*
X004839Y009901D01*
X004875Y009960D01*
X004875Y009960D01*
X004916Y010015D01*
X004916Y010016D01*
X004962Y010067D01*
X004962Y010067D01*
X005012Y010114D01*
X005012Y010114D01*
X005066Y010156D01*
X005066Y010156D01*
X005124Y010193D01*
X005124Y010193D01*
X005186Y010225D01*
X005186Y010225D01*
X005249Y010251D01*
X005249Y010251D01*
X005315Y010271D01*
X005315Y010271D01*
X005382Y010285D01*
X005382Y010285D01*
X005451Y010293D01*
X005451Y010293D01*
X005520Y010294D01*
X005520Y010294D01*
X005588Y010290D01*
X005588Y010290D01*
X005656Y010279D01*
X005656Y010279D01*
X005723Y010262D01*
X005723Y010262D01*
X005788Y010239D01*
X005788Y010239D01*
X005850Y010210D01*
X005850Y010210D01*
X005910Y010175D01*
X005910Y010175D01*
X005966Y010136D01*
X005966Y010136D01*
X006018Y010091D01*
X006018Y010091D01*
X006067Y010042D01*
X006067Y010042D01*
X006110Y009988D01*
X006110Y009988D01*
X006148Y009931D01*
X006148Y009931D01*
X006181Y009871D01*
X006209Y009808D01*
X006230Y009742D01*
X006246Y009675D01*
X006255Y009607D01*
X006258Y009538D01*
X006255Y009470D01*
X006246Y009401D01*
X006230Y009334D01*
X006230Y009334D01*
X006209Y009269D01*
X006181Y009206D01*
X006181Y009206D01*
X006148Y009146D01*
X006148Y009146D01*
X006110Y009089D01*
X006110Y009088D01*
X006067Y009035D01*
X006067Y009035D01*
X006018Y008986D01*
X006018Y008986D01*
X005966Y008941D01*
X005966Y008941D01*
X005910Y008902D01*
X005910Y008902D01*
X005850Y008867D01*
X005850Y008867D01*
X005788Y008838D01*
X005788Y008838D01*
X005723Y008815D01*
X005723Y008815D01*
X005656Y008798D01*
X005656Y008798D01*
X005588Y008787D01*
X005588Y008787D01*
X005520Y008783D01*
X005520Y008783D01*
X005451Y008784D01*
X005451Y008784D01*
X005382Y008792D01*
X005382Y008792D01*
X005178Y008856D02*
X004372Y008856D01*
X004372Y008954D02*
X005023Y008954D01*
X004923Y009053D02*
X004372Y009053D01*
X004372Y009152D02*
X004854Y009152D01*
X004804Y009250D02*
X004372Y009250D01*
X004372Y009349D02*
X004771Y009349D01*
X004752Y009447D02*
X004372Y009447D01*
X004372Y009546D02*
X004747Y009546D01*
X004754Y009644D02*
X004372Y009644D01*
X004372Y009743D02*
X004775Y009743D01*
X004810Y009841D02*
X004372Y009841D01*
X004372Y009940D02*
X004863Y009940D01*
X004936Y010038D02*
X004372Y010038D01*
X004372Y010137D02*
X005042Y010137D01*
X005212Y010236D02*
X004372Y010236D01*
X004372Y010334D02*
X006632Y010334D01*
X006617Y010236D02*
X005794Y010236D01*
X005964Y010137D02*
X006605Y010137D01*
X006618Y010038D02*
X006069Y010038D01*
X006143Y009940D02*
X006632Y009940D01*
X006632Y009841D02*
X006194Y009841D01*
X006230Y009743D02*
X006632Y009743D01*
X006632Y009644D02*
X006250Y009644D01*
X006258Y009546D02*
X006582Y009546D01*
X006582Y009447D02*
X006252Y009447D01*
X006234Y009349D02*
X006582Y009349D01*
X006582Y009250D02*
X006201Y009250D01*
X006209Y009269D02*
X006209Y009269D01*
X006152Y009152D02*
X006582Y009152D01*
X006615Y009053D02*
X006081Y009053D01*
X006018Y008986D02*
X006018Y008986D01*
X005981Y008954D02*
X006713Y008954D01*
X007192Y008954D02*
X007463Y008954D01*
X007365Y009053D02*
X007290Y009053D01*
X007842Y008954D02*
X014845Y008954D01*
X014753Y009053D02*
X007940Y009053D01*
X008022Y009152D02*
X008421Y009152D01*
X008345Y009250D02*
X008022Y009250D01*
X008022Y009349D02*
X008345Y009349D01*
X009239Y009152D02*
X009366Y009152D01*
X010184Y009152D02*
X014713Y009152D01*
X014705Y009250D02*
X012987Y009250D01*
X013086Y009349D02*
X014722Y009349D01*
X014732Y009447D02*
X013184Y009447D01*
X013283Y009546D02*
X013372Y009546D01*
X013733Y009546D02*
X014732Y009546D01*
X014732Y009644D02*
X013831Y009644D01*
X013922Y009743D02*
X014682Y009743D01*
X014682Y009841D02*
X013922Y009841D01*
X013922Y009940D02*
X014682Y009940D01*
X014682Y010038D02*
X013922Y010038D01*
X013827Y010137D02*
X014732Y010137D01*
X014732Y010236D02*
X013729Y010236D01*
X013376Y010236D02*
X012203Y010236D01*
X012552Y010334D02*
X014732Y010334D01*
X014732Y010433D02*
X012552Y010433D01*
X012552Y010531D02*
X012652Y010531D01*
X012652Y010630D02*
X012552Y010630D01*
X012552Y010728D02*
X012652Y010728D01*
X012653Y010827D02*
X014732Y010827D01*
X014725Y010925D02*
X014680Y010925D01*
X014732Y010728D02*
X013002Y010728D01*
X013002Y010630D02*
X014732Y010630D01*
X014732Y010531D02*
X012978Y010531D01*
X013002Y010925D02*
X013701Y010925D01*
X013576Y011024D02*
X013002Y011024D01*
X013001Y011122D02*
X013525Y011122D01*
X013505Y011221D02*
X012903Y011221D01*
X012652Y011221D02*
X012552Y011221D01*
X012552Y011122D02*
X012652Y011122D01*
X012652Y011024D02*
X012552Y011024D01*
X012552Y010925D02*
X012652Y010925D01*
X012500Y011319D02*
X013510Y011319D01*
X013551Y011418D02*
X012474Y011418D01*
X012472Y011517D02*
X012691Y011517D01*
X012652Y011615D02*
X012378Y011615D01*
X012280Y011714D02*
X012652Y011714D01*
X012652Y011911D02*
X012083Y011911D01*
X012181Y011812D02*
X013002Y011812D01*
X013002Y011714D02*
X013102Y011714D01*
X013102Y011615D02*
X013002Y011615D01*
X013002Y011517D02*
X013102Y011517D01*
X013413Y011517D02*
X013434Y011517D01*
X014004Y010925D02*
X014025Y010925D01*
X012828Y010137D02*
X012552Y010137D01*
X012552Y010038D02*
X012729Y010038D01*
X012631Y009940D02*
X012537Y009940D01*
X011514Y009514D02*
X011302Y009514D01*
X011302Y009888D01*
X010928Y010262D01*
X010491Y010262D01*
X010927Y009940D02*
X010940Y009940D01*
X010927Y009841D02*
X011038Y009841D01*
X011082Y009743D02*
X010927Y009743D01*
X010897Y009644D02*
X011082Y009644D01*
X011082Y009546D02*
X010897Y009546D01*
X010897Y009447D02*
X011082Y009447D01*
X011108Y009349D02*
X010897Y009349D01*
X010811Y009250D02*
X011194Y009250D01*
X011984Y012009D02*
X012652Y012009D01*
X012702Y012438D02*
X012852Y012438D01*
X012852Y012538D01*
X012502Y012538D01*
X012353Y012538D01*
X012353Y012438D01*
X012702Y012438D01*
X012852Y012502D02*
X012353Y012502D01*
X012352Y012403D02*
X012252Y012403D01*
X012252Y012305D02*
X012352Y012305D01*
X012352Y012206D02*
X012252Y012206D01*
X012252Y012108D02*
X012352Y012108D01*
X012000Y012108D02*
X011990Y012108D01*
X012953Y012438D02*
X012953Y012538D01*
X013302Y012538D01*
X013452Y012538D01*
X013452Y012438D01*
X013102Y012438D01*
X012953Y012438D01*
X012953Y012502D02*
X013452Y012502D01*
X014141Y013050D02*
X014141Y013212D01*
X014141Y013050D02*
X014702Y012488D01*
X014852Y012488D01*
X014728Y012774D02*
X014507Y012994D01*
X014547Y013034D01*
X014547Y013391D01*
X014447Y013491D01*
X014386Y013491D01*
X014294Y013582D01*
X014222Y013582D01*
X014222Y013792D01*
X014121Y013893D01*
X014671Y013893D01*
X014674Y013886D01*
X014750Y013810D01*
X014849Y013769D01*
X014956Y013769D01*
X015027Y013799D01*
X015033Y013796D01*
X015033Y013785D01*
X015074Y013686D01*
X015102Y013658D01*
X015099Y013658D01*
X014931Y013491D01*
X014858Y013491D01*
X014758Y013391D01*
X014758Y013059D01*
X014728Y013030D01*
X014728Y012843D01*
X015160Y012843D01*
X015160Y012834D01*
X014728Y012834D01*
X014728Y012774D01*
X014728Y012798D02*
X014704Y012798D01*
X014728Y012896D02*
X014606Y012896D01*
X014508Y012995D02*
X014728Y012995D01*
X014758Y013093D02*
X014547Y013093D01*
X014547Y013192D02*
X014758Y013192D01*
X014758Y013290D02*
X014547Y013290D01*
X014547Y013389D02*
X014758Y013389D01*
X014854Y013487D02*
X014450Y013487D01*
X014222Y013586D02*
X015027Y013586D01*
X015076Y013685D02*
X014222Y013685D01*
X014222Y013783D02*
X014816Y013783D01*
X014752Y013638D02*
X015452Y013638D01*
X015652Y013838D01*
X015652Y014038D01*
X015702Y014079D02*
X015425Y014079D01*
X015421Y014080D02*
X015421Y014092D01*
X015381Y014191D01*
X015361Y014210D01*
X015371Y014235D01*
X015371Y014342D01*
X015331Y014441D01*
X015306Y014466D01*
X015333Y014493D01*
X015467Y014493D01*
X015500Y014460D01*
X015599Y014419D01*
X015702Y014419D01*
X015702Y014256D01*
X015720Y014238D01*
X015702Y014221D01*
X015702Y013988D01*
X016052Y013988D01*
X016052Y013888D01*
X015702Y013888D01*
X015702Y013658D01*
X015503Y013658D01*
X015531Y013686D01*
X015571Y013785D01*
X015571Y013892D01*
X015531Y013991D01*
X015455Y014066D01*
X015421Y014080D01*
X015386Y014177D02*
X015702Y014177D01*
X015702Y014276D02*
X015371Y014276D01*
X015358Y014374D02*
X015702Y014374D01*
X015487Y014473D02*
X015313Y014473D01*
X015535Y013980D02*
X016052Y013980D01*
X016052Y013989D02*
X016052Y014338D01*
X016052Y014488D01*
X016152Y014488D01*
X016152Y014338D01*
X016152Y013989D01*
X016052Y013989D01*
X016052Y014079D02*
X016152Y014079D01*
X016152Y014177D02*
X016052Y014177D01*
X016052Y014276D02*
X016152Y014276D01*
X016152Y014374D02*
X016052Y014374D01*
X016052Y014473D02*
X016152Y014473D01*
X016152Y014589D02*
X016052Y014589D01*
X016052Y014938D01*
X015820Y014938D01*
X015800Y014919D01*
X015722Y014951D01*
X015722Y015081D01*
X015410Y015081D01*
X015410Y015096D01*
X015395Y015096D01*
X015395Y015403D01*
X015200Y015403D01*
X015170Y015373D01*
X014812Y015373D01*
X014712Y015274D01*
X014712Y015180D01*
X014588Y015055D01*
X014472Y015008D01*
X014383Y014918D01*
X014335Y014802D01*
X014335Y014731D01*
X014300Y014716D01*
X014224Y014641D01*
X014201Y014583D01*
X013521Y014583D01*
X013521Y014642D01*
X013481Y014741D01*
X013405Y014816D01*
X013306Y014857D01*
X013294Y014857D01*
X013281Y014891D01*
X013247Y014924D01*
X013247Y015053D01*
X013520Y015053D01*
X013550Y015023D01*
X013745Y015023D01*
X013745Y015331D01*
X013760Y015331D01*
X013760Y015346D01*
X014072Y015346D01*
X014072Y015493D01*
X016572Y015493D01*
X016778Y015287D01*
X016582Y015092D01*
X016582Y014908D01*
X016532Y014908D01*
X016474Y014850D01*
X016385Y014938D01*
X016152Y014938D01*
X016152Y014589D01*
X016152Y014670D02*
X016052Y014670D01*
X016052Y014769D02*
X016152Y014769D01*
X016152Y014867D02*
X016052Y014867D01*
X016457Y014867D02*
X016491Y014867D01*
X016582Y014966D02*
X015722Y014966D01*
X015722Y015064D02*
X016582Y015064D01*
X016653Y015163D02*
X015722Y015163D01*
X015722Y015096D02*
X015722Y015286D01*
X015605Y015403D01*
X015410Y015403D01*
X015410Y015096D01*
X015722Y015096D01*
X015722Y015261D02*
X016752Y015261D01*
X016705Y015360D02*
X015649Y015360D01*
X015410Y015360D02*
X015395Y015360D01*
X015395Y015261D02*
X015410Y015261D01*
X015410Y015163D02*
X015395Y015163D01*
X014798Y015360D02*
X014072Y015360D01*
X014072Y015331D02*
X013760Y015331D01*
X013760Y015023D01*
X013955Y015023D01*
X014072Y015141D01*
X014072Y015331D01*
X014072Y015261D02*
X014712Y015261D01*
X014695Y015163D02*
X014072Y015163D01*
X013996Y015064D02*
X014596Y015064D01*
X014430Y014966D02*
X013247Y014966D01*
X013290Y014867D02*
X014362Y014867D01*
X014335Y014769D02*
X013453Y014769D01*
X013510Y014670D02*
X014253Y014670D01*
X013760Y015064D02*
X013745Y015064D01*
X013745Y015163D02*
X013760Y015163D01*
X013760Y015261D02*
X013745Y015261D01*
X014072Y015458D02*
X016607Y015458D01*
X017395Y016456D02*
X017381Y016491D01*
X017342Y016529D01*
X017433Y016491D01*
X017571Y016491D01*
X017699Y016544D01*
X017797Y016642D01*
X017850Y016769D01*
X017850Y016907D01*
X017797Y017035D01*
X018152Y017035D01*
X018152Y016939D02*
X018229Y016755D01*
X018369Y016615D01*
X018553Y016538D01*
X018369Y016462D01*
X018229Y016322D01*
X018152Y016138D01*
X018152Y015939D01*
X018229Y015755D01*
X018369Y015615D01*
X018553Y015538D01*
X018369Y015462D01*
X018229Y015322D01*
X018152Y015138D01*
X018152Y014939D01*
X018229Y014755D01*
X018369Y014615D01*
X018553Y014538D01*
X018369Y014462D01*
X018229Y014322D01*
X018152Y014138D01*
X018152Y013939D01*
X018229Y013755D01*
X018369Y013615D01*
X018553Y013538D01*
X018369Y013462D01*
X018229Y013322D01*
X018152Y013138D01*
X018152Y012939D01*
X018229Y012755D01*
X018369Y012615D01*
X018553Y012538D01*
X018752Y012538D01*
X018936Y012615D01*
X019076Y012755D01*
X019152Y012939D01*
X019152Y013138D01*
X019076Y013322D01*
X018936Y013462D01*
X018752Y013538D01*
X018553Y013538D01*
X018752Y013538D01*
X018936Y013615D01*
X019076Y013755D01*
X019152Y013939D01*
X019152Y014138D01*
X019076Y014322D01*
X018936Y014462D01*
X018752Y014538D01*
X018553Y014538D01*
X018752Y014538D01*
X018936Y014615D01*
X019076Y014755D01*
X019152Y014939D01*
X019152Y015138D01*
X019076Y015322D01*
X018936Y015462D01*
X018752Y015538D01*
X018553Y015538D01*
X018752Y015538D01*
X018936Y015615D01*
X019076Y015755D01*
X019152Y015939D01*
X019152Y016138D01*
X019076Y016322D01*
X018936Y016462D01*
X018752Y016538D01*
X018553Y016538D01*
X018752Y016538D01*
X018936Y016615D01*
X019076Y016755D01*
X019152Y016939D01*
X019152Y017138D01*
X019076Y017322D01*
X018936Y017462D01*
X018752Y017538D01*
X018553Y017538D01*
X018369Y017462D01*
X018229Y017322D01*
X018152Y017138D01*
X018152Y016939D01*
X018153Y016936D02*
X017838Y016936D01*
X017850Y016838D02*
X018194Y016838D01*
X018244Y016739D02*
X017837Y016739D01*
X017796Y016641D02*
X018343Y016641D01*
X018351Y016444D02*
X017539Y016444D01*
X017506Y016457D02*
X017399Y016457D01*
X017395Y016456D01*
X017506Y016457D02*
X017605Y016416D01*
X017681Y016341D01*
X017721Y016242D01*
X017721Y016135D01*
X017697Y016075D01*
X017731Y016041D01*
X017771Y015942D01*
X017771Y015835D01*
X017731Y015736D01*
X017847Y015619D01*
X017847Y015458D01*
X018365Y015458D01*
X018267Y015360D02*
X017847Y015360D01*
X017847Y015458D02*
X017847Y014469D01*
X017847Y014450D01*
X017871Y014392D01*
X017871Y014285D01*
X017831Y014186D01*
X017806Y014162D01*
X017850Y014057D01*
X017850Y013919D01*
X017797Y013792D01*
X017699Y013694D01*
X017680Y013686D01*
X017683Y013683D01*
X017797Y013569D01*
X017797Y012424D01*
X017831Y012391D01*
X017871Y012292D01*
X017871Y012185D01*
X017831Y012086D01*
X017755Y012010D01*
X017656Y011969D01*
X017549Y011969D01*
X017450Y012010D01*
X017374Y012086D01*
X017333Y012185D01*
X017333Y012276D01*
X017310Y012286D01*
X017310Y012177D01*
X017210Y012078D01*
X017072Y012078D01*
X017072Y011985D01*
X016856Y011768D01*
X016714Y011768D01*
X016639Y011693D01*
X016697Y011635D01*
X016750Y011507D01*
X016750Y011369D01*
X016745Y011358D01*
X016791Y011358D01*
X016932Y011500D01*
X016932Y011709D01*
X017032Y011808D01*
X017573Y011808D01*
X017672Y011709D01*
X017668Y011714D02*
X018270Y011714D01*
X018205Y011812D02*
X016899Y011812D01*
X016937Y011714D02*
X016659Y011714D01*
X016705Y011615D02*
X016932Y011615D01*
X016932Y011517D02*
X016746Y011517D01*
X016750Y011418D02*
X016850Y011418D01*
X016998Y011911D02*
X018164Y011911D01*
X018152Y012009D02*
X017752Y012009D01*
X017840Y012108D02*
X018152Y012108D01*
X018181Y012206D02*
X017871Y012206D01*
X017866Y012305D02*
X018222Y012305D01*
X018310Y012403D02*
X017818Y012403D01*
X017797Y012502D02*
X018465Y012502D01*
X018403Y012601D02*
X017797Y012601D01*
X017797Y012699D02*
X018285Y012699D01*
X018211Y012798D02*
X017797Y012798D01*
X017797Y012896D02*
X018170Y012896D01*
X018152Y012995D02*
X017797Y012995D01*
X017797Y013093D02*
X018152Y013093D01*
X018175Y013192D02*
X017797Y013192D01*
X017797Y013290D02*
X018216Y013290D01*
X018296Y013389D02*
X017797Y013389D01*
X017797Y013487D02*
X018430Y013487D01*
X018438Y013586D02*
X017781Y013586D01*
X017682Y013685D02*
X018299Y013685D01*
X018217Y013783D02*
X017788Y013783D01*
X017834Y013882D02*
X018176Y013882D01*
X018152Y013980D02*
X017850Y013980D01*
X017841Y014079D02*
X018152Y014079D01*
X018169Y014177D02*
X017822Y014177D01*
X017868Y014276D02*
X018210Y014276D01*
X018281Y014374D02*
X017871Y014374D01*
X017847Y014473D02*
X018395Y014473D01*
X018473Y014571D02*
X017847Y014571D01*
X017847Y014670D02*
X018314Y014670D01*
X018223Y014769D02*
X017847Y014769D01*
X017847Y014867D02*
X018182Y014867D01*
X018152Y014966D02*
X017847Y014966D01*
X017847Y015064D02*
X018152Y015064D01*
X018163Y015163D02*
X017847Y015163D01*
X017847Y015261D02*
X018204Y015261D01*
X018508Y015557D02*
X017847Y015557D01*
X017811Y015655D02*
X018328Y015655D01*
X018230Y015754D02*
X017738Y015754D01*
X017771Y015852D02*
X018188Y015852D01*
X018152Y015951D02*
X017768Y015951D01*
X017722Y016050D02*
X018152Y016050D01*
X018157Y016148D02*
X017721Y016148D01*
X017720Y016247D02*
X018198Y016247D01*
X018252Y016345D02*
X017676Y016345D01*
X017695Y016542D02*
X018544Y016542D01*
X018761Y016542D02*
X019544Y016542D01*
X019553Y016538D02*
X019369Y016462D01*
X019229Y016322D01*
X019152Y016138D01*
X019152Y015939D01*
X019229Y015755D01*
X019369Y015615D01*
X019553Y015538D01*
X019369Y015462D01*
X019229Y015322D01*
X019152Y015138D01*
X019152Y014939D01*
X019229Y014755D01*
X019369Y014615D01*
X019553Y014538D01*
X019369Y014462D01*
X019229Y014322D01*
X019152Y014138D01*
X019152Y013939D01*
X019229Y013755D01*
X019369Y013615D01*
X019553Y013538D01*
X019369Y013462D01*
X019229Y013322D01*
X019152Y013138D01*
X019152Y012939D01*
X019229Y012755D01*
X019369Y012615D01*
X019553Y012538D01*
X019369Y012462D01*
X019229Y012322D01*
X019152Y012138D01*
X019152Y011939D01*
X019229Y011755D01*
X019369Y011615D01*
X019422Y011517D02*
X019075Y011517D01*
X019152Y011418D02*
X019283Y011418D01*
X019195Y011319D02*
X019152Y011319D01*
X019152Y011221D02*
X019154Y011221D01*
X019152Y010827D02*
X019166Y010827D01*
X019152Y010728D02*
X019213Y010728D01*
X019144Y010630D02*
X019312Y010630D01*
X019492Y010531D02*
X017672Y010531D01*
X017672Y010630D02*
X018161Y010630D01*
X018152Y010728D02*
X017672Y010728D01*
X017672Y010827D02*
X018152Y010827D01*
X018152Y010925D02*
X017672Y010925D01*
X017657Y011024D02*
X018152Y011024D01*
X018152Y011122D02*
X017627Y011122D01*
X017672Y011221D02*
X018152Y011221D01*
X018152Y011319D02*
X017672Y011319D01*
X017672Y011418D02*
X018152Y011418D01*
X018230Y011517D02*
X017672Y011517D01*
X017452Y012009D02*
X017072Y012009D01*
X017240Y012108D02*
X017365Y012108D01*
X017333Y012206D02*
X017310Y012206D01*
X018369Y011615D02*
X018553Y011538D01*
X018752Y011538D01*
X018936Y011615D01*
X019035Y011714D02*
X019270Y011714D01*
X019205Y011812D02*
X019100Y011812D01*
X019141Y011911D02*
X019164Y011911D01*
X019152Y012009D02*
X019152Y012009D01*
X019152Y012108D02*
X019152Y012108D01*
X019124Y012206D02*
X019181Y012206D01*
X019222Y012305D02*
X019083Y012305D01*
X018994Y012403D02*
X019310Y012403D01*
X019465Y012502D02*
X018840Y012502D01*
X018902Y012601D02*
X019403Y012601D01*
X019285Y012699D02*
X019020Y012699D01*
X019094Y012798D02*
X019211Y012798D01*
X019170Y012896D02*
X019135Y012896D01*
X019152Y012995D02*
X019152Y012995D01*
X019152Y013093D02*
X019152Y013093D01*
X019130Y013192D02*
X019175Y013192D01*
X019216Y013290D02*
X019089Y013290D01*
X019009Y013389D02*
X019296Y013389D01*
X019430Y013487D02*
X018875Y013487D01*
X018867Y013586D02*
X019438Y013586D01*
X019553Y013538D02*
X019752Y013538D01*
X019932Y013464D01*
X019932Y013613D01*
X019752Y013538D01*
X019553Y013538D01*
X019299Y013685D02*
X019006Y013685D01*
X019088Y013783D02*
X019217Y013783D01*
X019176Y013882D02*
X019129Y013882D01*
X019152Y013980D02*
X019152Y013980D01*
X019152Y014079D02*
X019152Y014079D01*
X019136Y014177D02*
X019169Y014177D01*
X019210Y014276D02*
X019095Y014276D01*
X019024Y014374D02*
X019281Y014374D01*
X019395Y014473D02*
X018910Y014473D01*
X018832Y014571D02*
X019473Y014571D01*
X019553Y014538D02*
X019752Y014538D01*
X019553Y014538D01*
X019752Y014538D02*
X019932Y014464D01*
X019932Y014613D01*
X019752Y014538D01*
X019831Y014571D02*
X019932Y014571D01*
X019932Y014473D02*
X019910Y014473D01*
X019314Y014670D02*
X018991Y014670D01*
X019082Y014769D02*
X019223Y014769D01*
X019182Y014867D02*
X019123Y014867D01*
X019152Y014966D02*
X019152Y014966D01*
X019152Y015064D02*
X019152Y015064D01*
X019142Y015163D02*
X019163Y015163D01*
X019204Y015261D02*
X019101Y015261D01*
X019038Y015360D02*
X019267Y015360D01*
X019365Y015458D02*
X018940Y015458D01*
X018796Y015557D02*
X019508Y015557D01*
X019553Y015538D02*
X019752Y015538D01*
X019553Y015538D01*
X019752Y015538D02*
X019932Y015464D01*
X019932Y015613D01*
X019752Y015538D01*
X019796Y015557D02*
X019932Y015557D01*
X019328Y015655D02*
X018976Y015655D01*
X019075Y015754D02*
X019230Y015754D01*
X019188Y015852D02*
X019117Y015852D01*
X019152Y015951D02*
X019152Y015951D01*
X019152Y016050D02*
X019152Y016050D01*
X019148Y016148D02*
X019157Y016148D01*
X019198Y016247D02*
X019107Y016247D01*
X019053Y016345D02*
X019252Y016345D01*
X019351Y016444D02*
X018954Y016444D01*
X018962Y016641D02*
X019343Y016641D01*
X019369Y016615D02*
X019553Y016538D01*
X019752Y016538D01*
X019932Y016464D01*
X019932Y016613D01*
X019752Y016538D01*
X019553Y016538D01*
X019369Y016615D02*
X019229Y016755D01*
X019152Y016939D01*
X019152Y017138D01*
X019229Y017322D01*
X019369Y017462D01*
X019553Y017538D01*
X019752Y017538D01*
X019932Y017464D01*
X019932Y017613D01*
X019752Y017538D01*
X019553Y017538D01*
X019369Y017615D01*
X019229Y017755D01*
X019152Y017939D01*
X019152Y018138D01*
X019076Y018322D01*
X018936Y018462D01*
X018752Y018538D01*
X018553Y018538D01*
X018369Y018462D01*
X018229Y018322D01*
X018152Y018138D01*
X018152Y017939D01*
X018229Y017755D01*
X018369Y017615D01*
X018553Y017538D01*
X018752Y017538D01*
X018936Y017615D01*
X019076Y017755D01*
X019152Y017939D01*
X019152Y018138D01*
X019229Y018322D01*
X019369Y018462D01*
X019553Y018538D01*
X019752Y018538D01*
X019932Y018464D01*
X019932Y018613D01*
X019752Y018538D01*
X019553Y018538D01*
X019369Y018615D01*
X019229Y018755D01*
X019152Y018939D01*
X019152Y019138D01*
X019076Y019322D01*
X018936Y019462D01*
X018752Y019538D01*
X018553Y019538D01*
X018369Y019462D01*
X018229Y019322D01*
X018152Y019138D01*
X018152Y018939D01*
X018229Y018755D01*
X018369Y018615D01*
X018553Y018538D01*
X018752Y018538D01*
X018936Y018615D01*
X019076Y018755D01*
X019152Y018939D01*
X019152Y019138D01*
X019229Y019322D01*
X019369Y019462D01*
X019553Y019538D01*
X019752Y019538D01*
X019932Y019464D01*
X019932Y019613D01*
X019752Y019538D01*
X019553Y019538D01*
X019369Y019615D01*
X019229Y019755D01*
X019152Y019939D01*
X019152Y020138D01*
X019076Y020322D01*
X018936Y020462D01*
X018752Y020538D01*
X018553Y020538D01*
X018369Y020462D01*
X018229Y020322D01*
X018152Y020138D01*
X018152Y019939D01*
X018229Y019755D01*
X018369Y019615D01*
X018553Y019538D01*
X018752Y019538D01*
X018936Y019615D01*
X019076Y019755D01*
X019152Y019939D01*
X019152Y020138D01*
X019229Y020322D01*
X019369Y020462D01*
X019553Y020538D01*
X019752Y020538D01*
X019932Y020464D01*
X019932Y020613D01*
X019752Y020538D01*
X019553Y020538D01*
X019369Y020615D01*
X019229Y020755D01*
X019152Y020939D01*
X019152Y021138D01*
X019130Y021191D01*
X019175Y021191D01*
X019152Y021138D01*
X019152Y020939D01*
X019076Y020755D01*
X018936Y020615D01*
X018752Y020538D01*
X018553Y020538D01*
X018369Y020615D01*
X018229Y020755D01*
X018152Y020939D01*
X018152Y021138D01*
X018229Y021322D01*
X018369Y021462D01*
X018553Y021538D01*
X018752Y021538D01*
X018805Y021516D01*
X018805Y021561D01*
X018752Y021538D01*
X018553Y021538D01*
X018369Y021615D01*
X018229Y021755D01*
X018152Y021939D01*
X018152Y022138D01*
X018229Y022322D01*
X018369Y022462D01*
X018553Y022538D01*
X018752Y022538D01*
X018936Y022462D01*
X019076Y022322D01*
X019152Y022138D01*
X019152Y021939D01*
X019130Y021886D01*
X019175Y021886D01*
X019152Y021939D01*
X019152Y022138D01*
X019229Y022322D01*
X019369Y022462D01*
X019553Y022538D01*
X019752Y022538D01*
X019932Y022464D01*
X019932Y022613D01*
X019752Y022538D01*
X019553Y022538D01*
X019369Y022615D01*
X019229Y022755D01*
X019152Y022939D01*
X019152Y023138D01*
X019110Y023239D01*
X019194Y023239D01*
X019152Y023138D01*
X019152Y022939D01*
X019076Y022755D01*
X018936Y022615D01*
X018752Y022538D01*
X018553Y022538D01*
X018454Y022579D01*
X018444Y022568D01*
X017774Y022568D01*
X017674Y022468D01*
X017491Y022468D01*
X016741Y022468D01*
X016654Y022555D01*
X016593Y022555D01*
X016593Y023138D01*
X016493Y023138D01*
X016493Y022555D01*
X016430Y022555D01*
X016344Y022468D01*
X016172Y022468D01*
X016172Y022123D01*
X016520Y022123D01*
X016550Y022153D01*
X016745Y022153D01*
X016745Y021846D01*
X016760Y021846D01*
X016760Y022153D01*
X016955Y022153D01*
X017072Y022036D01*
X017072Y021846D01*
X016760Y021846D01*
X016760Y021831D01*
X017072Y021831D01*
X017072Y021641D01*
X017070Y021638D01*
X017072Y021636D01*
X017072Y021446D01*
X016760Y021446D01*
X016760Y021431D01*
X017072Y021431D01*
X017072Y021241D01*
X016955Y021123D01*
X016760Y021123D01*
X016760Y021431D01*
X016745Y021431D01*
X016745Y021123D01*
X016550Y021123D01*
X016520Y021153D01*
X016162Y021153D01*
X016152Y021163D01*
X016138Y021148D01*
X015767Y021148D01*
X015687Y021228D01*
X014842Y021228D01*
X014842Y021188D01*
X014902Y021188D01*
X014902Y020839D01*
X015002Y020839D01*
X015002Y021188D01*
X015235Y021188D01*
X015352Y021071D01*
X015352Y020838D01*
X015003Y020838D01*
X015003Y020738D01*
X015352Y020738D01*
X015352Y020506D01*
X015235Y020388D01*
X015002Y020388D01*
X015002Y020738D01*
X014902Y020738D01*
X014902Y020388D01*
X014670Y020388D01*
X014581Y020477D01*
X014523Y020418D01*
X013982Y020418D01*
X013882Y020518D01*
X013882Y021059D01*
X013882Y021083D01*
X013862Y021103D01*
X013862Y021118D01*
X013737Y021118D01*
X013737Y021068D01*
X013638Y020968D01*
X013267Y020968D01*
X013212Y021023D01*
X013193Y021003D01*
X012812Y021003D01*
X012802Y021013D01*
X012793Y021003D01*
X012722Y021003D01*
X012722Y020863D01*
X012877Y020863D01*
X012903Y020889D01*
X012998Y020928D01*
X013102Y020928D01*
X013197Y020889D01*
X013270Y020816D01*
X013281Y020790D01*
X013323Y020790D01*
X013486Y020626D01*
X013486Y020511D01*
X013451Y020511D01*
X013452Y020511D01*
X013486Y020511D01*
X013486Y020476D01*
X013799Y020163D01*
X014077Y019885D01*
X014077Y019658D01*
X014200Y019658D01*
X014270Y019588D01*
X014452Y019588D01*
X014452Y019688D01*
X014102Y019688D01*
X014102Y019921D01*
X014220Y020038D01*
X014452Y020038D01*
X014452Y019689D01*
X014552Y019689D01*
X014552Y020038D01*
X014785Y020038D01*
X014874Y019950D01*
X014932Y020008D01*
X015473Y020008D01*
X015572Y019909D01*
X015572Y019368D01*
X015572Y019358D01*
X015680Y019358D01*
X015657Y019382D01*
X015657Y019995D01*
X015756Y020095D01*
X015915Y020095D01*
X015928Y020108D01*
X016276Y020108D01*
X016290Y020095D01*
X016385Y020095D01*
X016385Y020152D01*
X016426Y020252D01*
X016152Y020252D01*
X016152Y020638D01*
X016052Y020638D01*
X016052Y020252D01*
X015744Y020252D01*
X015627Y020369D01*
X015627Y020638D01*
X016052Y020638D01*
X016052Y020738D01*
X015627Y020738D01*
X015627Y021007D01*
X015744Y021125D01*
X016052Y021125D01*
X016052Y020739D01*
X016152Y020739D01*
X016152Y021125D01*
X016461Y021125D01*
X016578Y021007D01*
X016578Y020738D01*
X016153Y020738D01*
X016153Y020638D01*
X016578Y020638D01*
X016578Y020381D01*
X016638Y020405D01*
X016641Y020408D01*
X016657Y020408D01*
X016657Y020995D01*
X016756Y021095D01*
X017448Y021095D01*
X017548Y020995D01*
X017548Y020382D01*
X017448Y020282D01*
X017372Y020282D01*
X017372Y020250D01*
X017372Y020095D01*
X017448Y020095D01*
X017548Y019995D01*
X017548Y019382D01*
X017448Y019282D01*
X017445Y019282D01*
X017445Y018501D01*
X017345Y018401D01*
X016260Y018401D01*
X016160Y018501D01*
X016160Y018618D01*
X016013Y018618D01*
X016072Y018559D01*
X016072Y018018D01*
X016013Y017958D01*
X016718Y017958D01*
X016801Y017875D01*
X017345Y017875D01*
X017445Y017776D01*
X017445Y017186D01*
X017571Y017186D01*
X017699Y017133D01*
X017797Y017035D01*
X017697Y017134D02*
X018152Y017134D01*
X018191Y017232D02*
X017445Y017232D01*
X017445Y017331D02*
X018238Y017331D01*
X018336Y017429D02*
X017445Y017429D01*
X017445Y017528D02*
X018527Y017528D01*
X018357Y017626D02*
X017445Y017626D01*
X017445Y017725D02*
X018259Y017725D01*
X018200Y017823D02*
X017397Y017823D01*
X017358Y018415D02*
X018322Y018415D01*
X018226Y018316D02*
X016072Y018316D01*
X016072Y018218D02*
X018185Y018218D01*
X018152Y018119D02*
X016072Y018119D01*
X016152Y018138D02*
X015952Y017938D01*
X015402Y017938D01*
X015202Y017738D01*
X015152Y017738D02*
X015152Y017918D01*
X015323Y017918D01*
X015392Y017918D01*
X015332Y017859D01*
X015332Y017318D01*
X015332Y017258D01*
X015152Y017258D01*
X015152Y017371D01*
X015135Y017388D01*
X015152Y017406D01*
X015152Y017638D01*
X014803Y017638D01*
X014803Y017738D01*
X015152Y017738D01*
X015152Y017823D02*
X015332Y017823D01*
X015332Y017725D02*
X014803Y017725D01*
X014802Y017638D02*
X014802Y017488D01*
X014802Y017139D01*
X014702Y017139D01*
X014702Y017488D01*
X014702Y017638D01*
X014802Y017638D01*
X014802Y017626D02*
X014702Y017626D01*
X014702Y017528D02*
X014802Y017528D01*
X014802Y017429D02*
X014702Y017429D01*
X014702Y017331D02*
X014802Y017331D01*
X014802Y017232D02*
X014702Y017232D01*
X015152Y017331D02*
X015332Y017331D01*
X015332Y017429D02*
X015152Y017429D01*
X015152Y017528D02*
X015332Y017528D01*
X015332Y017626D02*
X015152Y017626D01*
X016020Y018612D02*
X016160Y018612D01*
X016160Y018513D02*
X016072Y018513D01*
X016072Y018415D02*
X016246Y018415D01*
X016152Y018188D02*
X016152Y018138D01*
X016072Y018020D02*
X018152Y018020D01*
X018159Y017922D02*
X016755Y017922D01*
X017445Y018513D02*
X018492Y018513D01*
X018376Y018612D02*
X017445Y018612D01*
X017445Y018710D02*
X018274Y018710D01*
X018206Y018809D02*
X017445Y018809D01*
X017445Y018907D02*
X018166Y018907D01*
X018152Y019006D02*
X017445Y019006D01*
X017445Y019104D02*
X018152Y019104D01*
X018179Y019203D02*
X017445Y019203D01*
X017468Y019301D02*
X018220Y019301D01*
X018307Y019400D02*
X017548Y019400D01*
X017548Y019499D02*
X018457Y019499D01*
X018411Y019597D02*
X017548Y019597D01*
X017548Y019696D02*
X018288Y019696D01*
X018212Y019794D02*
X017548Y019794D01*
X017548Y019893D02*
X018172Y019893D01*
X018152Y019991D02*
X017548Y019991D01*
X017453Y020090D02*
X018152Y020090D01*
X018173Y020188D02*
X017372Y020188D01*
X017453Y020287D02*
X018214Y020287D01*
X018292Y020385D02*
X017548Y020385D01*
X017548Y020484D02*
X018422Y020484D01*
X018446Y020583D02*
X017548Y020583D01*
X017548Y020681D02*
X018303Y020681D01*
X018218Y020780D02*
X017548Y020780D01*
X017548Y020878D02*
X018178Y020878D01*
X018152Y020977D02*
X017548Y020977D01*
X017468Y021075D02*
X018152Y021075D01*
X018167Y021174D02*
X017006Y021174D01*
X017072Y021272D02*
X018208Y021272D01*
X018278Y021371D02*
X017072Y021371D01*
X017072Y021469D02*
X018387Y021469D01*
X018482Y021568D02*
X017072Y021568D01*
X017072Y021667D02*
X018317Y021667D01*
X018224Y021765D02*
X017072Y021765D01*
X017072Y021864D02*
X017369Y021864D01*
X017389Y021844D02*
X017495Y021800D01*
X017610Y021800D01*
X017716Y021844D01*
X017797Y021925D01*
X017841Y022031D01*
X017841Y022146D01*
X017797Y022252D01*
X017716Y022333D01*
X017610Y022377D01*
X017495Y022377D01*
X017389Y022333D01*
X017308Y022252D01*
X017264Y022146D01*
X017264Y022031D01*
X017308Y021925D01*
X017389Y021844D01*
X017292Y021962D02*
X017072Y021962D01*
X017048Y022061D02*
X017264Y022061D01*
X017269Y022159D02*
X016172Y022159D01*
X016172Y022258D02*
X017313Y022258D01*
X017445Y022356D02*
X016172Y022356D01*
X016172Y022455D02*
X018362Y022455D01*
X018263Y022356D02*
X017660Y022356D01*
X017791Y022258D02*
X018202Y022258D01*
X018161Y022159D02*
X017836Y022159D01*
X017841Y022061D02*
X018152Y022061D01*
X018152Y021962D02*
X017813Y021962D01*
X017736Y021864D02*
X018184Y021864D01*
X018517Y022553D02*
X017759Y022553D01*
X017202Y023568D02*
X017272Y023638D01*
X017202Y023568D02*
X016543Y023568D01*
X016493Y023046D02*
X016593Y023046D01*
X016593Y022948D02*
X016493Y022948D01*
X016493Y022849D02*
X016593Y022849D01*
X016593Y022751D02*
X016493Y022751D01*
X016493Y022652D02*
X016593Y022652D01*
X016656Y022553D02*
X016429Y022553D01*
X016745Y022061D02*
X016760Y022061D01*
X016760Y021962D02*
X016745Y021962D01*
X016745Y021864D02*
X016760Y021864D01*
X016760Y021831D02*
X016760Y021523D01*
X016760Y021446D01*
X016745Y021446D01*
X016745Y021523D01*
X016745Y021831D01*
X016760Y021831D01*
X016760Y021765D02*
X016745Y021765D01*
X016745Y021667D02*
X016760Y021667D01*
X016760Y021568D02*
X016745Y021568D01*
X016745Y021469D02*
X016760Y021469D01*
X016760Y021371D02*
X016745Y021371D01*
X016745Y021272D02*
X016760Y021272D01*
X016760Y021174D02*
X016745Y021174D01*
X016737Y021075D02*
X016510Y021075D01*
X016578Y020977D02*
X016657Y020977D01*
X016657Y020878D02*
X016578Y020878D01*
X016578Y020780D02*
X016657Y020780D01*
X016657Y020681D02*
X016153Y020681D01*
X016152Y020583D02*
X016052Y020583D01*
X016052Y020681D02*
X015352Y020681D01*
X015352Y020583D02*
X015627Y020583D01*
X015627Y020484D02*
X015331Y020484D01*
X015627Y020385D02*
X013577Y020385D01*
X013486Y020484D02*
X013916Y020484D01*
X013882Y020583D02*
X013486Y020583D01*
X013431Y020681D02*
X013882Y020681D01*
X013882Y020780D02*
X013333Y020780D01*
X013208Y020878D02*
X013882Y020878D01*
X013852Y020888D02*
X013752Y020988D01*
X012702Y020988D01*
X012702Y020688D01*
X012722Y020878D02*
X012892Y020878D01*
X012722Y020977D02*
X013259Y020977D01*
X013452Y021258D02*
X013532Y021338D01*
X014102Y021338D01*
X014152Y021288D01*
X014102Y021588D02*
X014152Y021638D01*
X014102Y021588D02*
X013522Y021588D01*
X013452Y021658D01*
X013382Y021588D01*
X013052Y021588D01*
X013002Y021638D01*
X013052Y021338D02*
X013372Y021338D01*
X013452Y021258D01*
X013737Y021075D02*
X013882Y021075D01*
X013882Y020977D02*
X013646Y020977D01*
X013852Y020888D02*
X013852Y019838D01*
X013971Y019991D02*
X014172Y019991D01*
X014102Y019893D02*
X014070Y019893D01*
X014077Y019794D02*
X014102Y019794D01*
X014102Y019696D02*
X014077Y019696D01*
X014262Y019597D02*
X014452Y019597D01*
X014452Y019588D02*
X014552Y019588D01*
X014552Y019238D01*
X014682Y019238D01*
X014682Y019142D01*
X014682Y019000D01*
X014532Y018850D01*
X014532Y018783D01*
X014287Y018783D01*
X014287Y019106D01*
X014317Y019136D01*
X014317Y019238D01*
X014452Y019238D01*
X014452Y019588D01*
X014452Y019499D02*
X014552Y019499D01*
X014552Y019400D02*
X014452Y019400D01*
X014452Y019301D02*
X014552Y019301D01*
X014682Y019203D02*
X014317Y019203D01*
X014287Y019104D02*
X014682Y019104D01*
X014682Y019006D02*
X014287Y019006D01*
X014287Y018907D02*
X014590Y018907D01*
X014532Y018809D02*
X014287Y018809D01*
X013702Y018938D02*
X013700Y018936D01*
X013444Y018936D01*
X013535Y018306D02*
X013208Y018306D01*
X013535Y018306D02*
X013652Y018188D01*
X014452Y019696D02*
X014552Y019696D01*
X014552Y019794D02*
X014452Y019794D01*
X014452Y019893D02*
X014552Y019893D01*
X014552Y019991D02*
X014452Y019991D01*
X014832Y019991D02*
X014915Y019991D01*
X014902Y020484D02*
X015002Y020484D01*
X015002Y020583D02*
X014902Y020583D01*
X014902Y020681D02*
X015002Y020681D01*
X015003Y020780D02*
X015627Y020780D01*
X015627Y020878D02*
X015352Y020878D01*
X015352Y020977D02*
X015627Y020977D01*
X015695Y021075D02*
X015348Y021075D01*
X015250Y021174D02*
X015742Y021174D01*
X016052Y021075D02*
X016152Y021075D01*
X016152Y020977D02*
X016052Y020977D01*
X016052Y020878D02*
X016152Y020878D01*
X016152Y020780D02*
X016052Y020780D01*
X016052Y020484D02*
X016152Y020484D01*
X016152Y020385D02*
X016052Y020385D01*
X016052Y020287D02*
X016152Y020287D01*
X016400Y020188D02*
X013774Y020188D01*
X013873Y020090D02*
X015752Y020090D01*
X015657Y019991D02*
X015490Y019991D01*
X015572Y019893D02*
X015657Y019893D01*
X015657Y019794D02*
X015572Y019794D01*
X015572Y019696D02*
X015657Y019696D01*
X015657Y019597D02*
X015572Y019597D01*
X015572Y019499D02*
X015657Y019499D01*
X015657Y019400D02*
X015572Y019400D01*
X015709Y020287D02*
X013676Y020287D01*
X013002Y021288D02*
X013052Y021338D01*
X012602Y021288D02*
X012502Y021188D01*
X012502Y020586D01*
X012578Y020511D01*
X012302Y020551D02*
X012302Y021388D01*
X012304Y021414D01*
X012309Y021440D01*
X012317Y021465D01*
X012329Y021488D01*
X012343Y021510D01*
X012361Y021529D01*
X012380Y021547D01*
X012402Y021561D01*
X012425Y021573D01*
X012450Y021581D01*
X012476Y021586D01*
X012502Y021588D01*
X012552Y021588D01*
X012602Y021638D01*
X012162Y021638D02*
X012111Y021551D01*
X012111Y021551D01*
X012108Y021538D01*
X012003Y021538D01*
X012003Y021638D01*
X012162Y021638D01*
X012121Y021568D02*
X012003Y021568D01*
X012002Y021538D02*
X012002Y021188D01*
X012082Y021188D01*
X012082Y020863D01*
X011999Y020863D01*
X011824Y021039D01*
X011841Y021081D01*
X011841Y021188D01*
X011902Y021188D01*
X011902Y021538D01*
X011684Y021538D01*
X011622Y021600D01*
X011622Y021638D01*
X011902Y021638D01*
X011902Y021538D01*
X012002Y021538D01*
X012002Y021469D02*
X011902Y021469D01*
X011902Y021371D02*
X012002Y021371D01*
X012052Y021288D02*
X012102Y021238D01*
X012102Y020638D01*
X012082Y020878D02*
X011984Y020878D01*
X011886Y020977D02*
X012082Y020977D01*
X012082Y021075D02*
X011839Y021075D01*
X011841Y021174D02*
X012082Y021174D01*
X012002Y021272D02*
X011902Y021272D01*
X011902Y021568D02*
X011655Y021568D01*
X011902Y021667D02*
X012002Y021667D01*
X012002Y021765D02*
X011902Y021765D01*
X011902Y021864D02*
X012002Y021864D01*
X012002Y021962D02*
X011902Y021962D01*
X011643Y021962D02*
X009911Y021962D01*
X009652Y021962D02*
X009552Y021962D01*
X009552Y021864D02*
X009652Y021864D01*
X009652Y021765D02*
X009552Y021765D01*
X009552Y021667D02*
X009652Y021667D01*
X009293Y021962D02*
X006152Y021962D01*
X006152Y021939D02*
X006152Y022138D01*
X006076Y022322D01*
X005936Y022462D01*
X005752Y022538D01*
X005553Y022538D01*
X005369Y022462D01*
X005229Y022322D01*
X005152Y022138D01*
X005152Y021939D01*
X005229Y021755D01*
X005369Y021615D01*
X005553Y021538D01*
X005369Y021462D01*
X005229Y021322D01*
X005152Y021138D01*
X005152Y020939D01*
X005229Y020755D01*
X005369Y020615D01*
X005553Y020538D01*
X005369Y020462D01*
X005229Y020322D01*
X005152Y020138D01*
X005152Y019939D01*
X005229Y019755D01*
X005369Y019615D01*
X005553Y019538D01*
X005369Y019462D01*
X005229Y019322D01*
X005152Y019138D01*
X005152Y018939D01*
X005229Y018755D01*
X005369Y018615D01*
X005553Y018538D01*
X005369Y018462D01*
X005229Y018322D01*
X005152Y018138D01*
X005152Y017939D01*
X005229Y017755D01*
X005369Y017615D01*
X005553Y017538D01*
X005369Y017462D01*
X005229Y017322D01*
X005152Y017138D01*
X005152Y016939D01*
X005229Y016755D01*
X005369Y016615D01*
X005553Y016538D01*
X005752Y016538D01*
X005936Y016615D01*
X006076Y016755D01*
X006152Y016939D01*
X006152Y017138D01*
X006076Y017322D01*
X005936Y017462D01*
X005752Y017538D01*
X005553Y017538D01*
X005752Y017538D01*
X005936Y017615D01*
X006076Y017755D01*
X006152Y017939D01*
X006152Y018138D01*
X006076Y018322D01*
X005936Y018462D01*
X005752Y018538D01*
X005553Y018538D01*
X005752Y018538D01*
X005936Y018615D01*
X006076Y018755D01*
X006152Y018939D01*
X006152Y019138D01*
X006076Y019322D01*
X005936Y019462D01*
X005752Y019538D01*
X005553Y019538D01*
X005752Y019538D01*
X005936Y019615D01*
X006076Y019755D01*
X006152Y019939D01*
X006152Y020138D01*
X006076Y020322D01*
X005936Y020462D01*
X005752Y020538D01*
X005553Y020538D01*
X005752Y020538D01*
X005936Y020615D01*
X006076Y020755D01*
X006152Y020939D01*
X006152Y021138D01*
X006076Y021322D01*
X005936Y021462D01*
X005752Y021538D01*
X005553Y021538D01*
X005752Y021538D01*
X005936Y021615D01*
X006076Y021755D01*
X006152Y021939D01*
X006121Y021864D02*
X009202Y021864D01*
X008949Y021765D02*
X006080Y021765D01*
X005988Y021667D02*
X008894Y021667D01*
X008883Y021568D02*
X005823Y021568D01*
X005918Y021469D02*
X008910Y021469D01*
X008957Y021371D02*
X008403Y021371D01*
X008152Y021371D02*
X008052Y021371D01*
X008052Y021272D02*
X008152Y021272D01*
X008152Y021174D02*
X008052Y021174D01*
X008052Y021075D02*
X008152Y021075D01*
X008052Y020977D02*
X007539Y020977D01*
X007541Y020981D02*
X007541Y021096D01*
X007497Y021202D01*
X007416Y021283D01*
X007310Y021327D01*
X007195Y021327D01*
X007089Y021283D01*
X007008Y021202D01*
X006964Y021096D01*
X006964Y020981D01*
X007008Y020875D01*
X007089Y020794D01*
X007195Y020750D01*
X007310Y020750D01*
X007416Y020794D01*
X007497Y020875D01*
X007541Y020981D01*
X007541Y021075D02*
X007702Y021075D01*
X007702Y021174D02*
X007509Y021174D01*
X007427Y021272D02*
X007704Y021272D01*
X007802Y021371D02*
X006027Y021371D01*
X006097Y021272D02*
X007078Y021272D01*
X006996Y021174D02*
X006138Y021174D01*
X006152Y021075D02*
X006964Y021075D01*
X006965Y020977D02*
X006152Y020977D01*
X006127Y020878D02*
X007006Y020878D01*
X007123Y020780D02*
X006086Y020780D01*
X006002Y020681D02*
X007727Y020681D01*
X007702Y020780D02*
X007382Y020780D01*
X007499Y020878D02*
X007702Y020878D01*
X007756Y020583D02*
X005858Y020583D01*
X005883Y020484D02*
X007732Y020484D01*
X007732Y020385D02*
X007336Y020385D01*
X007403Y020287D02*
X007732Y020287D01*
X007021Y019794D02*
X006092Y019794D01*
X006133Y019893D02*
X006922Y019893D01*
X006860Y019696D02*
X006845Y019696D01*
X006845Y019597D02*
X006860Y019597D01*
X006860Y019499D02*
X006845Y019499D01*
X006845Y019400D02*
X006860Y019400D01*
X006642Y019696D02*
X006017Y019696D01*
X005894Y019597D02*
X006543Y019597D01*
X006537Y019499D02*
X005848Y019499D01*
X005998Y019400D02*
X006537Y019400D01*
X006537Y019301D02*
X006085Y019301D01*
X006125Y019203D02*
X006537Y019203D01*
X006562Y019104D02*
X006152Y019104D01*
X006152Y019006D02*
X006562Y019006D01*
X006562Y018907D02*
X006139Y018907D01*
X006098Y018809D02*
X006567Y018809D01*
X006655Y018710D02*
X006031Y018710D01*
X005929Y018612D02*
X006595Y018612D01*
X006513Y018513D02*
X005813Y018513D01*
X005983Y018415D02*
X006483Y018415D01*
X006491Y018316D02*
X006079Y018316D01*
X006119Y018218D02*
X006494Y018218D01*
X006483Y018119D02*
X006152Y018119D01*
X006152Y018020D02*
X006510Y018020D01*
X006483Y017922D02*
X006145Y017922D01*
X006104Y017823D02*
X006488Y017823D01*
X006536Y017725D02*
X006046Y017725D01*
X005947Y017626D02*
X006562Y017626D01*
X006562Y017528D02*
X005778Y017528D01*
X005969Y017429D02*
X006567Y017429D01*
X006537Y017331D02*
X006067Y017331D01*
X006113Y017232D02*
X006537Y017232D01*
X006537Y017134D02*
X006152Y017134D01*
X006152Y017035D02*
X006537Y017035D01*
X006587Y016936D02*
X006151Y016936D01*
X006111Y016838D02*
X007032Y016838D01*
X007111Y016739D02*
X006060Y016739D01*
X005962Y016641D02*
X007279Y016641D01*
X007181Y016542D02*
X005761Y016542D01*
X005954Y016444D02*
X007082Y016444D01*
X007007Y016345D02*
X006053Y016345D01*
X006107Y016247D02*
X007007Y016247D01*
X007007Y016148D02*
X006148Y016148D01*
X006152Y016050D02*
X007007Y016050D01*
X007007Y015951D02*
X006152Y015951D01*
X006117Y015852D02*
X007007Y015852D01*
X007007Y015754D02*
X006075Y015754D01*
X005976Y015655D02*
X006939Y015655D01*
X007256Y014670D02*
X005991Y014670D01*
X005832Y014571D02*
X007256Y014571D01*
X007256Y014473D02*
X005910Y014473D01*
X005328Y015655D02*
X004976Y015655D01*
X005075Y015754D02*
X005230Y015754D01*
X005188Y015852D02*
X005117Y015852D01*
X005152Y015951D02*
X005152Y015951D01*
X005152Y016050D02*
X005152Y016050D01*
X005148Y016148D02*
X005157Y016148D01*
X005198Y016247D02*
X005107Y016247D01*
X005053Y016345D02*
X005252Y016345D01*
X005351Y016444D02*
X004954Y016444D01*
X004962Y016641D02*
X005343Y016641D01*
X005244Y016739D02*
X005060Y016739D01*
X005111Y016838D02*
X005194Y016838D01*
X005153Y016936D02*
X005151Y016936D01*
X005152Y017035D02*
X005152Y017035D01*
X005152Y017134D02*
X005152Y017134D01*
X005113Y017232D02*
X005191Y017232D01*
X005238Y017331D02*
X005067Y017331D01*
X004969Y017429D02*
X005336Y017429D01*
X005357Y017626D02*
X004947Y017626D01*
X005046Y017725D02*
X005259Y017725D01*
X005200Y017823D02*
X005104Y017823D01*
X005145Y017922D02*
X005159Y017922D01*
X005152Y018020D02*
X005152Y018020D01*
X005152Y018119D02*
X005152Y018119D01*
X005119Y018218D02*
X005185Y018218D01*
X005226Y018316D02*
X005079Y018316D01*
X004983Y018415D02*
X005322Y018415D01*
X005492Y018513D02*
X004813Y018513D01*
X004929Y018612D02*
X005376Y018612D01*
X005274Y018710D02*
X005031Y018710D01*
X005098Y018809D02*
X005206Y018809D01*
X005166Y018907D02*
X005139Y018907D01*
X005152Y019006D02*
X005152Y019006D01*
X005152Y019104D02*
X005152Y019104D01*
X005125Y019203D02*
X005179Y019203D01*
X005220Y019301D02*
X005085Y019301D01*
X004998Y019400D02*
X005307Y019400D01*
X005457Y019499D02*
X004848Y019499D01*
X004894Y019597D02*
X005411Y019597D01*
X005288Y019696D02*
X005017Y019696D01*
X005092Y019794D02*
X005212Y019794D01*
X005172Y019893D02*
X005133Y019893D01*
X005152Y019991D02*
X005152Y019991D01*
X005152Y020090D02*
X005152Y020090D01*
X005131Y020188D02*
X005173Y020188D01*
X005214Y020287D02*
X005091Y020287D01*
X005012Y020385D02*
X005292Y020385D01*
X005422Y020484D02*
X004883Y020484D01*
X004858Y020583D02*
X005446Y020583D01*
X005303Y020681D02*
X005002Y020681D01*
X005086Y020780D02*
X005218Y020780D01*
X005178Y020878D02*
X005127Y020878D01*
X005152Y020977D02*
X005152Y020977D01*
X005152Y021075D02*
X005152Y021075D01*
X005138Y021174D02*
X005167Y021174D01*
X005208Y021272D02*
X005097Y021272D01*
X005027Y021371D02*
X005278Y021371D01*
X005387Y021469D02*
X004918Y021469D01*
X004823Y021568D02*
X005482Y021568D01*
X005317Y021667D02*
X004988Y021667D01*
X005080Y021765D02*
X005224Y021765D01*
X005184Y021864D02*
X005121Y021864D01*
X005152Y021962D02*
X005152Y021962D01*
X005152Y022061D02*
X005152Y022061D01*
X005144Y022159D02*
X005161Y022159D01*
X005202Y022258D02*
X005103Y022258D01*
X005042Y022356D02*
X005263Y022356D01*
X005362Y022455D02*
X004943Y022455D01*
X004788Y022553D02*
X005517Y022553D01*
X005553Y022538D02*
X005752Y022538D01*
X005936Y022615D01*
X006076Y022755D01*
X006152Y022939D01*
X006152Y023138D01*
X006076Y023322D01*
X005936Y023462D01*
X005752Y023538D01*
X005553Y023538D01*
X005369Y023462D01*
X005229Y023322D01*
X005152Y023138D01*
X005152Y022939D01*
X005229Y022755D01*
X005369Y022615D01*
X005553Y022538D01*
X005788Y022553D02*
X012056Y022553D01*
X012261Y021962D02*
X013862Y021962D01*
X013862Y021864D02*
X013723Y021864D01*
X013862Y022061D02*
X006152Y022061D01*
X006144Y022159D02*
X013862Y022159D01*
X013946Y022258D02*
X006103Y022258D01*
X006042Y022356D02*
X015732Y022356D01*
X015732Y022258D02*
X014801Y022258D01*
X014872Y022159D02*
X015732Y022159D01*
X015699Y022061D02*
X014872Y022061D01*
X014872Y021962D02*
X015667Y021962D01*
X015667Y021864D02*
X014872Y021864D01*
X014847Y021765D02*
X015667Y021765D01*
X015667Y021667D02*
X014842Y021667D01*
X014560Y022061D02*
X014545Y022061D01*
X014545Y022159D02*
X014560Y022159D01*
X014560Y022258D02*
X014545Y022258D01*
X015249Y022553D02*
X015476Y022553D01*
X015412Y022652D02*
X015312Y022652D01*
X015312Y022751D02*
X015412Y022751D01*
X015412Y022849D02*
X015312Y022849D01*
X015312Y022948D02*
X015412Y022948D01*
X015412Y023046D02*
X015312Y023046D01*
X015732Y022455D02*
X005943Y022455D01*
X005973Y022652D02*
X008120Y022652D01*
X008100Y022660D02*
X008199Y022619D01*
X008306Y022619D01*
X008405Y022660D01*
X008481Y022736D01*
X008502Y022789D01*
X008549Y022769D01*
X008656Y022769D01*
X008755Y022810D01*
X008831Y022886D01*
X008871Y022985D01*
X008871Y023092D01*
X008842Y023163D01*
X008871Y023235D01*
X008871Y023342D01*
X008831Y023441D01*
X008755Y023516D01*
X008656Y023557D01*
X008644Y023557D01*
X008572Y023629D01*
X008572Y024328D01*
X008656Y024244D01*
X008783Y024191D01*
X008921Y024191D01*
X009049Y024244D01*
X009147Y024342D01*
X009200Y024469D01*
X009200Y024607D01*
X009174Y024668D01*
X009323Y024668D01*
X009422Y024768D01*
X009422Y025309D01*
X009323Y025408D01*
X009292Y025408D01*
X009292Y025523D01*
X009330Y025561D01*
X009330Y026016D01*
X009230Y026116D01*
X008775Y026116D01*
X008724Y026065D01*
X008643Y026146D01*
X008431Y026146D01*
X008431Y025817D01*
X008374Y025817D01*
X008374Y026146D01*
X008162Y026146D01*
X008045Y026029D01*
X008045Y025817D01*
X008373Y025817D01*
X008373Y025760D01*
X008045Y025760D01*
X008045Y025548D01*
X008162Y025431D01*
X008374Y025431D01*
X008374Y025759D01*
X008431Y025759D01*
X008431Y025431D01*
X008643Y025431D01*
X008712Y025501D01*
X008712Y025339D01*
X008702Y025329D01*
X008623Y025408D01*
X008506Y025408D01*
X008199Y025408D01*
X008082Y025408D01*
X007982Y025309D01*
X007982Y025192D01*
X007982Y024635D01*
X008132Y024485D01*
X008132Y023447D01*
X008261Y023318D01*
X008261Y023318D01*
X008333Y023246D01*
X008333Y023235D01*
X008363Y023163D01*
X008353Y023138D01*
X008306Y023157D01*
X008199Y023157D01*
X008100Y023116D01*
X008024Y023041D01*
X007983Y022942D01*
X007983Y022835D01*
X008024Y022736D01*
X008100Y022660D01*
X008018Y022751D02*
X006072Y022751D01*
X006115Y022849D02*
X007983Y022849D01*
X007986Y022948D02*
X006152Y022948D01*
X006152Y023046D02*
X008030Y023046D01*
X008168Y023145D02*
X006150Y023145D01*
X006109Y023243D02*
X008333Y023243D01*
X008337Y023145D02*
X008355Y023145D01*
X008238Y023342D02*
X006056Y023342D01*
X005958Y023440D02*
X008139Y023440D01*
X008132Y023539D02*
X004372Y023539D01*
X004372Y023637D02*
X008132Y023637D01*
X008132Y023736D02*
X004372Y023736D01*
X004372Y023834D02*
X008132Y023834D01*
X008132Y023933D02*
X005761Y023933D01*
X006025Y024032D02*
X008132Y024032D01*
X008132Y024130D02*
X006191Y024130D01*
X006318Y024229D02*
X008132Y024229D01*
X008132Y024327D02*
X006420Y024327D01*
X006503Y024426D02*
X008132Y024426D01*
X008093Y024524D02*
X006572Y024524D01*
X006629Y024623D02*
X007995Y024623D01*
X007982Y024721D02*
X006676Y024721D01*
X006714Y024820D02*
X007982Y024820D01*
X007982Y024918D02*
X006744Y024918D01*
X006766Y025017D02*
X007982Y025017D01*
X007982Y025116D02*
X006780Y025116D01*
X006786Y025214D02*
X006812Y025214D01*
X007494Y025214D02*
X007982Y025214D01*
X007986Y025313D02*
X007641Y025313D01*
X007668Y025336D02*
X007668Y025336D01*
X007738Y025411D02*
X008712Y025411D01*
X008431Y025510D02*
X008374Y025510D01*
X008374Y025608D02*
X008431Y025608D01*
X008431Y025707D02*
X008374Y025707D01*
X008373Y025805D02*
X007903Y025805D01*
X007908Y025904D02*
X008045Y025904D01*
X008045Y026002D02*
X007899Y026002D01*
X007878Y026101D02*
X008117Y026101D01*
X008374Y026101D02*
X008431Y026101D01*
X008431Y026002D02*
X008374Y026002D01*
X008374Y025904D02*
X008431Y025904D01*
X008688Y026101D02*
X008760Y026101D01*
X009245Y026101D02*
X009782Y026101D01*
X009782Y026200D02*
X007841Y026200D01*
X007787Y026298D02*
X009782Y026298D01*
X009782Y026002D02*
X009330Y026002D01*
X009330Y025904D02*
X009782Y025904D01*
X009782Y025805D02*
X009330Y025805D01*
X009330Y025707D02*
X009782Y025707D01*
X009782Y025608D02*
X009330Y025608D01*
X009292Y025510D02*
X009782Y025510D01*
X009782Y025411D02*
X009292Y025411D01*
X009419Y025313D02*
X009782Y025313D01*
X009782Y025214D02*
X009422Y025214D01*
X009422Y025116D02*
X009782Y025116D01*
X009782Y025017D02*
X009422Y025017D01*
X009422Y024918D02*
X009782Y024918D01*
X009782Y024820D02*
X009422Y024820D01*
X009376Y024721D02*
X009782Y024721D01*
X009782Y024623D02*
X009193Y024623D01*
X009200Y024524D02*
X009782Y024524D01*
X009782Y024426D02*
X009181Y024426D01*
X009132Y024327D02*
X009782Y024327D01*
X009782Y024229D02*
X009012Y024229D01*
X008693Y024229D02*
X008572Y024229D01*
X008572Y024327D02*
X008573Y024327D01*
X008572Y024130D02*
X009782Y024130D01*
X009782Y024032D02*
X008572Y024032D01*
X008572Y023933D02*
X009782Y023933D01*
X009782Y023834D02*
X008572Y023834D01*
X008572Y023736D02*
X009782Y023736D01*
X009782Y023637D02*
X008572Y023637D01*
X008701Y023539D02*
X009782Y023539D01*
X009782Y023440D02*
X008831Y023440D01*
X008871Y023342D02*
X009782Y023342D01*
X009782Y023243D02*
X008871Y023243D01*
X008850Y023145D02*
X009782Y023145D01*
X009782Y023046D02*
X008871Y023046D01*
X008856Y022948D02*
X009782Y022948D01*
X009782Y022849D02*
X008794Y022849D01*
X008602Y023288D02*
X008352Y023538D01*
X008352Y024788D01*
X008083Y025510D02*
X007806Y025510D01*
X007854Y025608D02*
X008045Y025608D01*
X008045Y025707D02*
X007886Y025707D01*
X008486Y022751D02*
X009782Y022751D01*
X009828Y022652D02*
X008385Y022652D01*
X006719Y020385D02*
X006012Y020385D01*
X006091Y020287D02*
X006652Y020287D01*
X006633Y020188D02*
X006131Y020188D01*
X006152Y020090D02*
X006652Y020090D01*
X006719Y019991D02*
X006152Y019991D01*
X004457Y019499D02*
X004372Y019499D01*
X004372Y019597D02*
X004411Y019597D01*
X004372Y020484D02*
X004422Y020484D01*
X004446Y020583D02*
X004372Y020583D01*
X004372Y021469D02*
X004387Y021469D01*
X004372Y021568D02*
X004482Y021568D01*
X004517Y022553D02*
X004372Y022553D01*
X004973Y022652D02*
X005332Y022652D01*
X005233Y022751D02*
X005072Y022751D01*
X005115Y022849D02*
X005190Y022849D01*
X005152Y022948D02*
X005152Y022948D01*
X005152Y023046D02*
X005152Y023046D01*
X005150Y023145D02*
X005155Y023145D01*
X005196Y023243D02*
X005109Y023243D01*
X005056Y023342D02*
X005249Y023342D01*
X005347Y023440D02*
X004958Y023440D01*
X005060Y023933D02*
X004372Y023933D01*
X004372Y024032D02*
X004800Y024032D01*
X004632Y024130D02*
X004372Y024130D01*
X004372Y024229D02*
X004506Y024229D01*
X004405Y024327D02*
X004372Y024327D01*
X004372Y018612D02*
X004376Y018612D01*
X004372Y018513D02*
X004492Y018513D01*
X004527Y017528D02*
X004372Y017528D01*
X004778Y017528D02*
X005527Y017528D01*
X005544Y016542D02*
X004761Y016542D01*
X004544Y016542D02*
X004372Y016542D01*
X004372Y015557D02*
X004508Y015557D01*
X004473Y014571D02*
X004372Y014571D01*
X004372Y014473D02*
X004395Y014473D01*
X004372Y013586D02*
X004438Y013586D01*
X004430Y013487D02*
X004372Y013487D01*
X004372Y012601D02*
X004403Y012601D01*
X004372Y012502D02*
X004465Y012502D01*
X005152Y010827D02*
X005166Y010827D01*
X005152Y010728D02*
X005213Y010728D01*
X005144Y010630D02*
X005312Y010630D01*
X005826Y008856D02*
X018478Y008856D01*
X018323Y008954D02*
X015259Y008954D01*
X015351Y009053D02*
X017040Y009053D01*
X016945Y009152D02*
X015392Y009152D01*
X015400Y009250D02*
X016945Y009250D01*
X016945Y009349D02*
X016239Y009349D01*
X016221Y009341D02*
X016349Y009394D01*
X016373Y009418D01*
X016464Y009418D01*
X016564Y009518D01*
X016706Y009518D01*
X016922Y009735D01*
X016922Y010042D01*
X016706Y010258D01*
X016399Y010258D01*
X016182Y010042D01*
X016182Y010036D01*
X016083Y010036D01*
X015956Y009983D01*
X015858Y009885D01*
X015805Y009757D01*
X015805Y009619D01*
X015858Y009492D01*
X015956Y009394D01*
X016083Y009341D01*
X016221Y009341D01*
X016066Y009349D02*
X015383Y009349D01*
X015372Y009447D02*
X015903Y009447D01*
X015836Y009546D02*
X015372Y009546D01*
X015372Y009644D02*
X015805Y009644D01*
X015805Y009743D02*
X015422Y009743D01*
X015422Y009841D02*
X015840Y009841D01*
X015913Y009940D02*
X015422Y009940D01*
X015422Y010038D02*
X016182Y010038D01*
X016278Y010137D02*
X015372Y010137D01*
X015372Y010236D02*
X016376Y010236D01*
X016585Y010433D02*
X015372Y010433D01*
X015372Y010531D02*
X016486Y010531D01*
X016729Y010236D02*
X016994Y010236D01*
X017012Y010334D02*
X015372Y010334D01*
X015602Y010630D02*
X015702Y010630D01*
X015702Y010728D02*
X015602Y010728D01*
X015602Y010827D02*
X015702Y010827D01*
X015702Y010925D02*
X015602Y010925D01*
X015602Y011039D02*
X015602Y011388D01*
X015422Y011388D01*
X015422Y011509D01*
X015422Y011668D01*
X016109Y011668D01*
X015982Y011542D01*
X015982Y011341D01*
X015935Y011388D01*
X015702Y011388D01*
X015702Y011039D01*
X015602Y011039D01*
X015602Y011122D02*
X015702Y011122D01*
X015702Y011221D02*
X015602Y011221D01*
X015602Y011319D02*
X015702Y011319D01*
X015422Y011418D02*
X015982Y011418D01*
X015982Y011517D02*
X015422Y011517D01*
X015422Y011615D02*
X016056Y011615D01*
X016071Y010630D02*
X015977Y010630D01*
X016733Y009546D02*
X016945Y009546D01*
X016945Y009447D02*
X016493Y009447D01*
X016831Y009644D02*
X016961Y009644D01*
X016993Y009743D02*
X016922Y009743D01*
X016922Y009841D02*
X016975Y009841D01*
X016975Y009940D02*
X016922Y009940D01*
X016922Y010038D02*
X016975Y010038D01*
X016975Y010137D02*
X016827Y010137D01*
X017611Y010236D02*
X018512Y010236D01*
X018342Y010137D02*
X017630Y010137D01*
X017630Y010038D02*
X018236Y010038D01*
X018163Y009940D02*
X017630Y009940D01*
X017630Y009841D02*
X018110Y009841D01*
X018075Y009743D02*
X017612Y009743D01*
X017644Y009644D02*
X018054Y009644D01*
X018047Y009546D02*
X017660Y009546D01*
X017660Y009447D02*
X018052Y009447D01*
X018071Y009349D02*
X017660Y009349D01*
X017660Y009250D02*
X018104Y009250D01*
X018154Y009152D02*
X017660Y009152D01*
X017565Y009053D02*
X018223Y009053D01*
X017331Y009053D02*
X017274Y009053D01*
X017274Y009152D02*
X017331Y009152D01*
X017331Y009250D02*
X017274Y009250D01*
X017274Y009349D02*
X017331Y009349D01*
X017592Y010334D02*
X019932Y010334D01*
X019932Y010236D02*
X019871Y010236D01*
X019702Y010236D02*
X019602Y010236D01*
X019602Y010137D02*
X019702Y010137D01*
X019702Y010038D02*
X019602Y010038D01*
X019602Y009940D02*
X019702Y009940D01*
X019702Y009743D02*
X019602Y009743D01*
X019602Y009644D02*
X019702Y009644D01*
X019702Y009546D02*
X019602Y009546D01*
X019552Y009447D02*
X019932Y009447D01*
X019932Y009349D02*
X019534Y009349D01*
X019501Y009250D02*
X019932Y009250D01*
X019932Y009152D02*
X019452Y009152D01*
X019381Y009053D02*
X019932Y009053D01*
X019932Y008954D02*
X019281Y008954D01*
X019318Y008986D02*
X019318Y008986D01*
X019126Y008856D02*
X019932Y008856D01*
X019932Y008757D02*
X004372Y008757D01*
X004372Y008659D02*
X019932Y008659D01*
X019932Y008560D02*
X019777Y008560D01*
X019702Y008560D02*
X019602Y008560D01*
X019527Y008560D02*
X004372Y008560D01*
X007325Y012009D02*
X007402Y012009D01*
X007402Y012108D02*
X007350Y012108D01*
X007350Y012206D02*
X007438Y012206D01*
X007797Y010827D02*
X007808Y010827D01*
X009452Y012488D02*
X008891Y013050D01*
X008891Y013212D01*
X009297Y013220D02*
X009297Y013034D01*
X009257Y012994D01*
X009478Y012774D01*
X009478Y012834D01*
X009910Y012834D01*
X009910Y012843D01*
X009478Y012843D01*
X009478Y013030D01*
X009508Y013059D01*
X009508Y013264D01*
X009505Y013260D01*
X009406Y013219D01*
X009299Y013219D01*
X009297Y013220D01*
X009297Y013192D02*
X009508Y013192D01*
X009508Y013093D02*
X009297Y013093D01*
X009258Y012995D02*
X009478Y012995D01*
X009478Y012896D02*
X009356Y012896D01*
X009454Y012798D02*
X009478Y012798D01*
X009452Y012488D02*
X009652Y012488D01*
X008452Y014188D02*
X008302Y014338D01*
X006860Y016936D02*
X006845Y016936D01*
X006845Y017035D02*
X006860Y017035D01*
X006860Y017134D02*
X006845Y017134D01*
X010672Y021371D02*
X010882Y021371D01*
X010882Y021469D02*
X010726Y021469D01*
X010824Y021568D02*
X010882Y021568D01*
X010882Y021667D02*
X010833Y021667D01*
X010833Y021765D02*
X010882Y021765D01*
X010887Y021864D02*
X010770Y021864D01*
X011252Y021088D02*
X011357Y020984D01*
X011357Y020550D01*
X011318Y020511D01*
X014902Y020878D02*
X015002Y020878D01*
X015002Y020977D02*
X014902Y020977D01*
X014902Y021075D02*
X015002Y021075D01*
X015002Y021174D02*
X014902Y021174D01*
X015952Y021838D02*
X015952Y023779D01*
X016578Y020583D02*
X016657Y020583D01*
X016657Y020484D02*
X016578Y020484D01*
X016578Y020385D02*
X016590Y020385D01*
X018858Y020583D02*
X019446Y020583D01*
X019422Y020484D02*
X018883Y020484D01*
X019012Y020385D02*
X019292Y020385D01*
X019214Y020287D02*
X019091Y020287D01*
X019131Y020188D02*
X019173Y020188D01*
X019152Y020090D02*
X019152Y020090D01*
X019152Y019991D02*
X019152Y019991D01*
X019133Y019893D02*
X019172Y019893D01*
X019212Y019794D02*
X019092Y019794D01*
X019017Y019696D02*
X019288Y019696D01*
X019411Y019597D02*
X018894Y019597D01*
X018848Y019499D02*
X019457Y019499D01*
X019307Y019400D02*
X018998Y019400D01*
X019085Y019301D02*
X019220Y019301D01*
X019179Y019203D02*
X019125Y019203D01*
X019152Y019104D02*
X019152Y019104D01*
X019152Y019006D02*
X019152Y019006D01*
X019139Y018907D02*
X019166Y018907D01*
X019206Y018809D02*
X019098Y018809D01*
X019031Y018710D02*
X019274Y018710D01*
X019376Y018612D02*
X018929Y018612D01*
X018813Y018513D02*
X019492Y018513D01*
X019322Y018415D02*
X018983Y018415D01*
X019079Y018316D02*
X019226Y018316D01*
X019185Y018218D02*
X019119Y018218D01*
X019152Y018119D02*
X019152Y018119D01*
X019152Y018020D02*
X019152Y018020D01*
X019145Y017922D02*
X019159Y017922D01*
X019200Y017823D02*
X019104Y017823D01*
X019046Y017725D02*
X019259Y017725D01*
X019357Y017626D02*
X018947Y017626D01*
X018778Y017528D02*
X019527Y017528D01*
X019336Y017429D02*
X018969Y017429D01*
X019067Y017331D02*
X019238Y017331D01*
X019191Y017232D02*
X019113Y017232D01*
X019152Y017134D02*
X019152Y017134D01*
X019152Y017035D02*
X019152Y017035D01*
X019151Y016936D02*
X019153Y016936D01*
X019111Y016838D02*
X019194Y016838D01*
X019244Y016739D02*
X019060Y016739D01*
X019761Y016542D02*
X019932Y016542D01*
X019932Y017528D02*
X019778Y017528D01*
X019813Y018513D02*
X019932Y018513D01*
X019929Y018612D02*
X019932Y018612D01*
X019932Y019499D02*
X019848Y019499D01*
X019894Y019597D02*
X019932Y019597D01*
X019932Y020484D02*
X019883Y020484D01*
X019858Y020583D02*
X019932Y020583D01*
X019303Y020681D02*
X019002Y020681D01*
X019086Y020780D02*
X019218Y020780D01*
X019178Y020878D02*
X019127Y020878D01*
X019152Y020977D02*
X019152Y020977D01*
X019152Y021075D02*
X019152Y021075D01*
X019138Y021174D02*
X019167Y021174D01*
X019152Y021962D02*
X019152Y021962D01*
X019152Y022061D02*
X019152Y022061D01*
X019144Y022159D02*
X019161Y022159D01*
X019202Y022258D02*
X019103Y022258D01*
X019042Y022356D02*
X019263Y022356D01*
X019362Y022455D02*
X018943Y022455D01*
X018788Y022553D02*
X019517Y022553D01*
X019332Y022652D02*
X018973Y022652D01*
X019072Y022751D02*
X019233Y022751D01*
X019190Y022849D02*
X019115Y022849D01*
X019152Y022948D02*
X019152Y022948D01*
X019152Y023046D02*
X019152Y023046D01*
X019150Y023145D02*
X019155Y023145D01*
X019788Y022553D02*
X019932Y022553D01*
X017155Y016827D02*
X016802Y016827D01*
X016802Y016738D01*
X016453Y016738D01*
X016453Y016638D01*
X016802Y016638D01*
X016802Y016583D01*
X017022Y016583D01*
X017041Y016583D01*
X017099Y016607D01*
X017206Y016607D01*
X017268Y016582D01*
X017208Y016642D01*
X017155Y016769D01*
X017155Y016827D01*
X017168Y016739D02*
X016802Y016739D01*
X016453Y016641D02*
X017209Y016641D01*
X015702Y013882D02*
X015571Y013882D01*
X015571Y013783D02*
X015702Y013783D01*
X015702Y013685D02*
X015529Y013685D01*
X015034Y013783D02*
X014989Y013783D01*
X014679Y013882D02*
X014132Y013882D01*
X017637Y010433D02*
X019932Y010433D01*
X019932Y010531D02*
X019813Y010531D01*
X019702Y010531D02*
X019602Y010531D01*
X019602Y010630D02*
X019702Y010630D01*
X019702Y010728D02*
X019602Y010728D01*
X019602Y010827D02*
X019702Y010827D01*
X019702Y010925D02*
X019602Y010925D01*
X019434Y010236D02*
X019094Y010236D01*
X019264Y010137D02*
X019335Y010137D01*
X019875Y009546D02*
X019932Y009546D01*
X019702Y008462D02*
X019602Y008462D01*
X019602Y008363D02*
X019702Y008363D01*
X019702Y008265D02*
X019602Y008265D01*
X019602Y008166D02*
X019702Y008166D01*
X019932Y012464D02*
X019752Y012538D01*
X019553Y012538D01*
X019752Y012538D01*
X019932Y012613D01*
X019932Y012464D01*
X019932Y012502D02*
X019840Y012502D01*
X019902Y012601D02*
X019932Y012601D01*
X019932Y013487D02*
X019875Y013487D01*
X019867Y013586D02*
X019932Y013586D01*
D34*
X016543Y023188D03*
X015362Y023188D03*
D35*
X015952Y023779D03*
D36*
X012802Y015088D03*
D37*
X016102Y019688D03*
X016102Y020688D03*
X017102Y020688D03*
X017102Y019688D03*
D38*
X014802Y018738D02*
X014652Y018588D01*
X013437Y018588D01*
X013404Y018621D01*
X013208Y018621D01*
X013050Y018464D02*
X013404Y018464D01*
X013429Y018488D01*
X014752Y018488D01*
X014802Y018438D01*
X013444Y018936D02*
X013208Y018936D01*
X013050Y018779D02*
X012893Y018936D01*
X013050Y019094D02*
X013208Y019251D01*
X013208Y019566D02*
X013247Y019566D01*
X013444Y019763D01*
X013050Y020038D02*
X012893Y019881D01*
X012735Y020038D02*
X012578Y019881D01*
X012735Y019723D02*
X012893Y019566D01*
X012735Y019409D02*
X012578Y019251D01*
X012735Y019094D02*
X012893Y019251D01*
X012578Y018936D02*
X012735Y018779D01*
X012578Y018621D02*
X012735Y018464D01*
X012893Y018621D02*
X013050Y018464D01*
X012893Y018306D02*
X013050Y018149D01*
X012893Y017991D02*
X013050Y017834D01*
X013208Y017991D02*
X013365Y017834D01*
X013208Y017676D02*
X013395Y017488D01*
X013552Y017488D01*
X013383Y017322D02*
X013702Y017003D01*
X013702Y016838D01*
X014152Y016388D01*
X017102Y016388D01*
X017152Y016338D01*
X017102Y016138D02*
X017402Y016138D01*
X017452Y016188D01*
X017352Y016038D02*
X017502Y015888D01*
X017502Y015688D02*
X017652Y015538D01*
X017652Y014388D01*
X017602Y014338D01*
X017352Y014438D02*
X017202Y014288D01*
X017202Y013888D01*
X017602Y013488D01*
X017602Y012238D01*
X017402Y012538D02*
X017502Y012638D01*
X017502Y013438D01*
X017102Y013838D01*
X017102Y014338D01*
X017252Y014488D01*
X017252Y015088D01*
X016652Y015688D01*
X013352Y015688D01*
X012893Y016148D01*
X012893Y016416D01*
X013050Y016574D02*
X013050Y016141D01*
X013402Y015788D01*
X016702Y015788D01*
X017352Y015138D01*
X017352Y014438D01*
X017452Y015488D02*
X017402Y015538D01*
X017102Y015538D01*
X016752Y015888D01*
X013452Y015888D01*
X013208Y016133D01*
X013208Y016416D01*
X013050Y016574D02*
X012893Y016731D01*
X013050Y016889D02*
X013304Y016889D01*
X013402Y016791D01*
X013402Y016688D01*
X014002Y016088D01*
X016852Y016088D01*
X017002Y015938D01*
X017202Y015938D01*
X017452Y015688D01*
X017502Y015688D01*
X017352Y016038D02*
X017052Y016038D01*
X016902Y016188D01*
X014052Y016188D01*
X013502Y016738D01*
X013502Y016838D01*
X013334Y017007D01*
X013247Y017007D01*
X013208Y017046D01*
X013315Y017204D02*
X013050Y017204D01*
X012893Y017361D01*
X013050Y017519D02*
X012893Y017676D01*
X012735Y017834D02*
X012578Y017991D01*
X012420Y017834D02*
X012578Y017676D01*
X012420Y017519D02*
X012578Y017361D01*
X012420Y017204D02*
X012263Y017361D01*
X012105Y017519D02*
X012263Y017676D01*
X012105Y017834D02*
X011948Y017676D01*
X011790Y017519D02*
X011633Y017676D01*
X011475Y017519D02*
X011318Y017676D01*
X011003Y017676D01*
X010845Y017519D02*
X010688Y017676D01*
X010688Y017361D02*
X010530Y017204D01*
X010373Y017361D02*
X010215Y017204D01*
X010058Y017361D02*
X009900Y017204D01*
X009743Y017361D02*
X009586Y017204D01*
X009743Y017046D02*
X009586Y016889D01*
X009743Y016731D02*
X009586Y016574D01*
X009586Y016271D01*
X009252Y015938D01*
X009252Y014838D01*
X009152Y014738D01*
X009352Y014638D02*
X009152Y014438D01*
X009352Y014638D02*
X009352Y015868D01*
X009743Y016259D01*
X009743Y016416D01*
X009900Y016574D02*
X009900Y016236D01*
X009802Y016138D01*
X009802Y016038D01*
X009852Y015988D01*
X010052Y015988D01*
X010102Y015938D01*
X010102Y015838D01*
X010052Y015788D01*
X009852Y015788D01*
X009802Y015738D01*
X009802Y015638D01*
X009852Y015588D01*
X010052Y015588D01*
X010102Y015538D01*
X010102Y015438D01*
X010052Y015388D01*
X009502Y015388D01*
X009452Y015338D01*
X009452Y015238D01*
X009502Y015188D01*
X010052Y015188D01*
X010102Y015138D01*
X010102Y015038D01*
X010052Y014988D01*
X009502Y014988D01*
X009452Y014938D01*
X009452Y014488D01*
X009552Y014388D01*
X009502Y014088D02*
X009402Y014088D01*
X009352Y014038D01*
X009352Y013888D01*
X009302Y013838D01*
X009202Y013838D01*
X009152Y013888D01*
X009152Y014038D01*
X009552Y013738D02*
X009352Y013538D01*
X009352Y013488D01*
X009652Y013538D02*
X009702Y013588D01*
X010152Y013588D01*
X010252Y013688D01*
X010652Y013688D01*
X011002Y014038D01*
X011002Y014788D01*
X011102Y014888D01*
X011102Y015438D01*
X011152Y015488D01*
X011252Y015488D01*
X011352Y015588D01*
X011352Y016369D01*
X011318Y016404D01*
X011318Y016416D01*
X011202Y016238D02*
X011052Y016238D01*
X011003Y016288D01*
X011003Y016416D01*
X011160Y016574D02*
X011318Y016731D01*
X011475Y016574D02*
X011475Y016101D01*
X011802Y015774D01*
X011802Y015438D01*
X012152Y015088D01*
X012152Y014538D01*
X012602Y014088D01*
X014852Y014088D01*
X014902Y014038D01*
X014752Y014188D02*
X015252Y014688D01*
X015652Y014688D01*
X014702Y014388D02*
X014602Y014288D01*
X012702Y014288D01*
X012352Y014638D01*
X012352Y015938D01*
X012105Y016186D01*
X012105Y016574D01*
X012263Y016731D01*
X012420Y016574D02*
X012420Y016171D01*
X012552Y016038D01*
X012552Y014738D01*
X012752Y014538D01*
X013202Y014538D01*
X013252Y014588D01*
X013052Y014738D02*
X013052Y015238D01*
X012752Y015538D01*
X012752Y016138D01*
X012735Y016156D01*
X012735Y016889D01*
X012578Y017046D01*
X012420Y016889D02*
X012263Y017046D01*
X011948Y017046D02*
X011790Y016889D01*
X011633Y017046D02*
X011475Y016889D01*
X011318Y017046D02*
X011160Y016889D01*
X011003Y017046D02*
X010845Y016889D01*
X010688Y017046D02*
X010530Y016889D01*
X010373Y017046D02*
X010215Y016889D01*
X010058Y017046D02*
X009900Y016889D01*
X010058Y016731D02*
X009900Y016574D01*
X010058Y016416D02*
X010058Y016133D01*
X010202Y015988D01*
X010202Y014388D01*
X010102Y014288D01*
X010152Y014088D02*
X009802Y014088D01*
X009752Y014038D01*
X009752Y013888D01*
X009702Y013838D01*
X009602Y013838D01*
X009552Y013888D01*
X009552Y014038D01*
X009502Y014088D01*
X009552Y013738D02*
X009802Y013738D01*
X009852Y013788D01*
X009852Y013888D01*
X009952Y013988D01*
X010202Y013988D01*
X010402Y014188D01*
X010402Y015488D01*
X010702Y015788D01*
X010702Y016069D01*
X010845Y016212D01*
X010845Y016574D01*
X011003Y016731D01*
X010688Y016731D02*
X010530Y016574D01*
X010373Y016731D02*
X010215Y016574D01*
X010215Y016130D01*
X010302Y016043D01*
X010302Y014238D01*
X010152Y014088D01*
X011102Y014188D02*
X011152Y014138D01*
X011602Y014138D01*
X011652Y014088D01*
X011652Y013988D01*
X011602Y013938D01*
X011152Y013938D01*
X011102Y013888D01*
X011102Y013738D01*
X011102Y014188D02*
X011102Y014288D01*
X011152Y014338D01*
X011602Y014338D01*
X011652Y014388D01*
X011652Y014488D01*
X011602Y014538D01*
X011152Y014538D01*
X011102Y014588D01*
X011102Y014688D01*
X011152Y014738D01*
X011252Y014738D01*
X011302Y014788D01*
X011302Y014988D01*
X010802Y015338D02*
X010802Y015588D01*
X010852Y015638D01*
X011202Y015638D01*
X011252Y015688D01*
X011252Y015788D01*
X011202Y015838D01*
X010852Y015838D01*
X010802Y015888D01*
X010802Y015988D01*
X010852Y016038D01*
X011202Y016038D01*
X011252Y016088D01*
X011252Y016188D01*
X011202Y016238D01*
X011602Y016138D02*
X011602Y016386D01*
X011633Y016416D01*
X011790Y016259D02*
X011948Y016416D01*
X011790Y016574D02*
X011948Y016731D01*
X012263Y016416D02*
X012263Y016178D01*
X012452Y015988D01*
X012452Y014688D01*
X012752Y014388D01*
X014352Y014388D01*
X014452Y014488D01*
X014752Y014188D02*
X012652Y014188D01*
X012252Y014588D01*
X012252Y015138D01*
X011902Y015488D01*
X011902Y015838D01*
X011602Y016138D01*
X011475Y016574D02*
X011633Y016731D01*
X011790Y017204D02*
X011948Y017361D01*
X011633Y017361D02*
X011475Y017204D01*
X011318Y017361D02*
X011160Y017204D01*
X011003Y017361D02*
X010845Y017204D01*
X010373Y017676D02*
X010215Y017834D01*
X010373Y017991D01*
X010530Y018149D01*
X010688Y018306D01*
X010727Y018346D01*
X010727Y018582D01*
X010688Y018621D01*
X010530Y018779D01*
X010688Y018936D01*
X011003Y018936D01*
X011160Y018779D01*
X011318Y018621D01*
X011475Y018779D01*
X011318Y018936D01*
X011160Y018779D02*
X011003Y018621D01*
X011003Y018306D02*
X010688Y018306D01*
X010530Y018149D02*
X010688Y017991D01*
X010373Y018306D02*
X010530Y018464D01*
X010373Y018621D01*
X010215Y018779D02*
X010058Y018621D01*
X009900Y018464D02*
X009743Y018621D01*
X009586Y018779D02*
X009743Y018936D01*
X009900Y018779D02*
X010058Y018936D01*
X010334Y018975D02*
X010334Y019212D01*
X010373Y019251D01*
X010215Y019409D01*
X010058Y019566D02*
X009900Y019723D01*
X009743Y019566D02*
X009586Y019723D01*
X009428Y019566D02*
X009271Y019723D01*
X009113Y019566D02*
X008825Y019566D01*
X008102Y020288D01*
X008502Y020488D02*
X008564Y020550D01*
X009074Y020550D01*
X009113Y020511D01*
X008956Y020353D02*
X009113Y020196D01*
X009271Y020353D02*
X009271Y020905D01*
X009428Y021013D02*
X009428Y020511D01*
X009271Y020353D02*
X009428Y020196D01*
X009586Y020353D02*
X009743Y020196D01*
X009900Y020353D02*
X010058Y020196D01*
X010215Y020353D02*
X010215Y020590D01*
X010077Y020728D01*
X010077Y020788D01*
X010077Y020838D01*
X010077Y020863D01*
X010097Y020883D01*
X010252Y021038D01*
X010352Y021038D01*
X010255Y020786D02*
X010373Y020668D01*
X010373Y020511D01*
X010530Y020353D02*
X010688Y020511D01*
X010845Y020353D02*
X010688Y020196D01*
X010845Y020038D02*
X011003Y019881D01*
X011160Y020038D02*
X011003Y020196D01*
X011160Y020353D02*
X011318Y020196D01*
X011475Y020038D02*
X011633Y019881D01*
X011790Y020038D02*
X011948Y019881D01*
X011790Y019723D02*
X011948Y019566D01*
X011790Y019409D02*
X011633Y019251D01*
X011475Y019409D02*
X011318Y019251D01*
X011160Y019409D02*
X011318Y019566D01*
X011475Y019723D02*
X011633Y019566D01*
X011318Y019881D02*
X011160Y019723D01*
X011003Y019566D02*
X010845Y019723D01*
X010688Y019566D02*
X010530Y019723D01*
X010373Y019566D02*
X010215Y019723D01*
X010058Y019881D02*
X009900Y020038D01*
X009743Y019881D02*
X009586Y020038D01*
X009428Y019881D02*
X009271Y020038D01*
X008956Y020038D01*
X008916Y019842D02*
X008641Y020117D01*
X008641Y020275D01*
X008916Y019842D02*
X009074Y019842D01*
X009113Y019881D01*
X008852Y019338D02*
X008952Y019238D01*
X009100Y019238D01*
X009113Y019251D01*
X009271Y019094D02*
X008947Y019094D01*
X008802Y019238D01*
X008352Y019238D01*
X008252Y019138D01*
X008352Y019338D02*
X008252Y019438D01*
X008352Y019338D02*
X008852Y019338D01*
X008802Y018988D02*
X008855Y018936D01*
X009113Y018936D01*
X009271Y018779D02*
X008662Y018779D01*
X008602Y018838D01*
X008731Y018588D02*
X009080Y018588D01*
X009113Y018621D01*
X009271Y018464D02*
X008778Y018464D01*
X008702Y018388D01*
X007002Y018388D01*
X006752Y018138D01*
X006752Y017888D02*
X007002Y018138D01*
X008652Y018138D01*
X008781Y018267D01*
X009074Y018267D01*
X009113Y018306D01*
X009271Y018149D02*
X008813Y018149D01*
X008702Y018038D01*
X007152Y018038D01*
X007002Y017888D01*
X006752Y018388D02*
X006852Y018488D01*
X008631Y018488D01*
X008731Y018588D01*
X008802Y017938D02*
X009052Y017938D01*
X009105Y017991D01*
X009113Y017991D01*
X009271Y017834D02*
X008848Y017834D01*
X008302Y017288D01*
X008602Y017238D02*
X008990Y017238D01*
X009113Y017361D01*
X009271Y017204D02*
X009428Y017361D01*
X009271Y017519D02*
X009113Y017676D01*
X008925Y017488D01*
X008752Y017488D01*
X008552Y017688D02*
X008802Y017938D01*
X008552Y017688D02*
X008352Y017688D01*
X007902Y017488D02*
X007752Y017338D01*
X007752Y016838D01*
X007202Y016288D01*
X007202Y015538D01*
X007127Y015463D01*
X007302Y015388D02*
X007127Y015213D01*
X007302Y015388D02*
X007302Y016238D01*
X007952Y016888D01*
X008752Y016388D02*
X009085Y016388D01*
X009113Y016416D01*
X009271Y016259D02*
X009428Y016416D01*
X009271Y016574D02*
X009428Y016731D01*
X009270Y016888D02*
X009057Y016888D01*
X009113Y016731D02*
X008956Y016574D01*
X009270Y016888D02*
X009428Y017046D01*
X009271Y017519D02*
X009428Y017676D01*
X009586Y017519D01*
X009743Y017676D01*
X009900Y017519D01*
X010058Y017676D01*
X010215Y017834D01*
X010058Y017991D02*
X009900Y017834D01*
X009743Y017991D02*
X009586Y017834D01*
X009428Y017991D02*
X009271Y017834D01*
X009271Y018149D02*
X009428Y018306D01*
X009586Y018149D02*
X009743Y018306D01*
X009900Y018149D02*
X010058Y018306D01*
X010373Y018936D02*
X010334Y018975D01*
X010530Y019094D02*
X010688Y019251D01*
X011003Y019251D01*
X011633Y018936D02*
X011790Y018779D01*
X011948Y018936D01*
X012105Y018779D02*
X012263Y018936D01*
X012105Y018779D02*
X012263Y018621D01*
X012420Y018464D02*
X012578Y018306D01*
X012263Y018306D02*
X012105Y018464D01*
X011948Y018306D01*
X012105Y018149D02*
X011948Y017991D01*
X012105Y018149D02*
X012263Y017991D01*
X011790Y017834D02*
X011633Y017991D01*
X011633Y018306D02*
X011475Y018464D01*
X011318Y018306D01*
X011160Y018149D02*
X011003Y017991D01*
X011160Y018149D02*
X011318Y017991D01*
X011790Y018464D02*
X011633Y018621D01*
X011790Y018464D02*
X011948Y018621D01*
X012105Y019094D02*
X011948Y019251D01*
X012105Y019094D02*
X012263Y019251D01*
X012263Y019566D02*
X012420Y019723D01*
X012578Y019566D01*
X012263Y019881D02*
X012420Y020038D01*
X012263Y020196D02*
X012420Y020353D01*
X012263Y020196D02*
X012223Y020157D01*
X011987Y020157D01*
X011948Y020196D01*
X012105Y020353D02*
X011948Y020511D01*
X011790Y020668D02*
X011633Y020511D01*
X011633Y020196D02*
X011475Y020038D01*
X011003Y020511D02*
X011160Y020668D01*
X010530Y020038D02*
X010688Y019881D01*
X010373Y019881D02*
X010215Y020038D01*
X010373Y020196D02*
X010215Y020353D01*
X010058Y020511D02*
X009900Y020668D01*
X009900Y020936D01*
X009743Y020826D02*
X009586Y020983D01*
X009428Y021013D02*
X009152Y021288D01*
X009152Y021588D01*
X009743Y020826D02*
X009743Y020511D01*
X009586Y019409D02*
X009743Y019251D01*
X009900Y019409D02*
X010058Y019251D01*
X009428Y019251D02*
X009271Y019094D01*
X009428Y018936D02*
X009271Y018779D01*
X009428Y018621D02*
X009271Y018464D01*
X007952Y019138D02*
X007752Y019338D01*
X007752Y019788D01*
X007552Y019988D01*
X007102Y019988D01*
X006902Y020188D01*
X007152Y020188D02*
X007252Y020088D01*
X007602Y020088D01*
X007952Y019738D01*
X010373Y016416D02*
X010352Y016396D01*
X010352Y016178D01*
X010530Y016000D01*
X010530Y015983D01*
X010530Y016259D02*
X010688Y016416D01*
X012420Y016574D02*
X012578Y016731D01*
X012578Y016416D02*
X012578Y016163D01*
X012652Y016088D01*
X012652Y015238D01*
X012802Y015088D01*
X012802Y014738D01*
X013952Y015988D02*
X013210Y016731D01*
X013208Y016731D01*
X013050Y016889D02*
X012893Y017046D01*
X013208Y017361D02*
X013247Y017322D01*
X013383Y017322D01*
X013315Y017204D02*
X013602Y016916D01*
X013602Y016788D01*
X014102Y016288D01*
X016952Y016288D01*
X017102Y016138D01*
X016802Y015988D02*
X017052Y015738D01*
X017152Y015738D01*
X016802Y015988D02*
X013952Y015988D01*
X012893Y020196D02*
X013050Y020353D01*
X012893Y020511D02*
X013050Y020668D01*
X013208Y020511D02*
X013365Y020353D01*
X012735Y020353D02*
X012578Y020196D01*
X012263Y020511D02*
X012302Y020551D01*
D39*
X012420Y020353D03*
X012420Y020038D03*
X012420Y019723D03*
X012735Y019723D03*
X012735Y019409D03*
X012735Y019094D03*
X013050Y019094D03*
X013050Y018779D03*
X012735Y018779D03*
X012735Y018464D03*
X012420Y018464D03*
X012105Y018464D03*
X012105Y018779D03*
X012105Y019094D03*
X011790Y019409D03*
X011790Y019723D03*
X011475Y019723D03*
X011475Y019409D03*
X011160Y019409D03*
X011160Y019723D03*
X010845Y019723D03*
X010530Y019723D03*
X010215Y019723D03*
X010215Y019409D03*
X010530Y019094D03*
X010530Y018779D03*
X010215Y018779D03*
X010530Y018464D03*
X010530Y018149D03*
X010215Y017834D03*
X009900Y017834D03*
X009586Y017834D03*
X009586Y018149D03*
X009900Y018149D03*
X009900Y018464D03*
X009900Y018779D03*
X009586Y018779D03*
X009586Y019409D03*
X009586Y019723D03*
X009900Y019723D03*
X009900Y019409D03*
X009900Y020038D03*
X009586Y020038D03*
X009586Y020353D03*
X009900Y020353D03*
X010215Y020038D03*
X010530Y020038D03*
X010845Y020038D03*
X011160Y020038D03*
X011160Y020353D03*
X010845Y020353D03*
X010530Y020353D03*
X010255Y020786D03*
X009900Y020936D03*
X009586Y020983D03*
X009271Y020905D03*
X008956Y020353D03*
X008956Y020038D03*
X008641Y020275D03*
X009271Y019723D03*
X008802Y018988D03*
X008602Y018838D03*
X009271Y017519D03*
X009586Y017519D03*
X009900Y017519D03*
X009900Y017204D03*
X009586Y017204D03*
X009586Y016889D03*
X009900Y016889D03*
X010215Y016889D03*
X010215Y017204D03*
X010530Y017204D03*
X010530Y016889D03*
X010530Y016574D03*
X010845Y016889D03*
X010845Y017204D03*
X010845Y017519D03*
X011160Y017204D03*
X011160Y016889D03*
X011160Y016574D03*
X011475Y016889D03*
X011475Y017204D03*
X011475Y017519D03*
X011790Y017519D03*
X011790Y017834D03*
X012105Y017834D03*
X012105Y018149D03*
X011790Y018464D03*
X011790Y018779D03*
X011475Y018779D03*
X011475Y018464D03*
X011160Y018779D03*
X011160Y018149D03*
X011790Y017204D03*
X011790Y016889D03*
X011790Y016574D03*
X011790Y016259D03*
X012420Y016889D03*
X012420Y017204D03*
X012420Y017519D03*
X012420Y017834D03*
X012735Y017834D03*
X013050Y017834D03*
X013050Y018149D03*
X013365Y017834D03*
X013050Y017519D03*
X012105Y017519D03*
X010530Y016259D03*
X010530Y015983D03*
X009271Y016259D03*
X009271Y016574D03*
X008956Y016574D03*
X009271Y017204D03*
X008752Y017488D03*
X011475Y020038D03*
X011790Y020038D03*
X012105Y020353D03*
X011790Y020668D03*
X011160Y020668D03*
X011042Y020905D03*
X010152Y021238D03*
X012735Y020353D03*
X012735Y020038D03*
X013050Y020038D03*
X013050Y020353D03*
X013365Y020353D03*
X013050Y020668D03*
X013444Y019763D03*
D40*
X014502Y019638D02*
X014502Y019988D01*
X014752Y020238D01*
X015352Y020238D01*
X015202Y019638D02*
X015202Y018988D01*
X016102Y018988D01*
X016102Y019038D01*
X016102Y018988D02*
X016740Y018988D01*
X016802Y018926D01*
X016565Y017588D02*
X015702Y017588D01*
X015702Y016688D01*
X015202Y017388D02*
X015202Y017738D01*
X014752Y017738D01*
X014752Y017688D01*
X014752Y017388D01*
X015202Y017388D01*
X014752Y017388D02*
X014752Y017088D01*
X015052Y018288D02*
X015702Y018288D01*
X015202Y018988D02*
X015052Y018988D01*
X016565Y017588D02*
X016802Y017351D01*
X017952Y016488D02*
X017952Y021638D01*
X017952Y022488D01*
X016652Y022488D01*
X016543Y022598D01*
X016543Y023188D01*
X015362Y023188D02*
X015362Y022598D01*
X015252Y022488D01*
X014552Y022488D01*
X011952Y022488D01*
X011952Y021588D01*
X011952Y022488D02*
X010852Y022488D01*
X009602Y022488D01*
X009602Y021588D01*
X009602Y022488D02*
X008102Y022488D01*
X008102Y020988D01*
X008102Y022488D02*
X006352Y022488D01*
X006352Y019388D01*
X006352Y011038D01*
X005652Y011038D01*
X006352Y011038D02*
X006352Y008738D01*
X015652Y008738D01*
X015652Y010988D01*
X015052Y011238D02*
X015052Y011838D01*
X014352Y011838D02*
X014352Y011238D01*
X014352Y011838D02*
X014152Y011838D01*
X014152Y012338D01*
X014152Y011838D02*
X013752Y011838D01*
X013502Y012488D02*
X012902Y012488D01*
X012752Y012488D01*
X012752Y011838D01*
X012602Y011838D01*
X012602Y011988D01*
X012602Y012488D01*
X012302Y012488D01*
X012602Y012488D02*
X012752Y012488D01*
X012752Y011838D02*
X013052Y011838D01*
X012602Y011838D02*
X012602Y011638D01*
X012602Y010838D02*
X012602Y010588D01*
X012252Y010238D01*
X012152Y010238D01*
X011902Y010838D02*
X011514Y010838D01*
X011302Y010838D01*
X011302Y011438D01*
X010602Y011438D02*
X010602Y010838D01*
X009802Y011288D02*
X009802Y011338D01*
X009802Y011888D01*
X009102Y011888D02*
X009102Y011288D01*
X009102Y011888D02*
X008902Y011888D01*
X008902Y012338D01*
X008902Y011888D02*
X008502Y011888D01*
X008252Y012488D02*
X008052Y012488D01*
X007802Y012238D01*
X007802Y011888D01*
X007802Y011588D01*
X007702Y011488D01*
X007502Y010888D02*
X007502Y010438D01*
X008102Y010438D01*
X008102Y009738D02*
X007652Y009738D01*
X007502Y009738D01*
X007502Y009438D01*
X006952Y009438D01*
X006952Y009238D01*
X008102Y009738D02*
X008830Y009738D01*
X008830Y009888D01*
X010630Y012838D02*
X010630Y013288D01*
X010002Y013288D01*
X008891Y013212D02*
X008276Y013212D01*
X008252Y013188D01*
X007802Y013188D01*
X007802Y012988D01*
X007802Y013188D02*
X007802Y013338D01*
X007736Y014688D02*
X008052Y014688D01*
X007736Y014688D02*
X007652Y014771D01*
X007402Y017088D02*
X007402Y017588D01*
X007402Y017688D01*
X007402Y018988D02*
X007402Y019588D01*
X008352Y024788D02*
X008352Y025038D01*
X016102Y014538D02*
X016102Y014288D01*
X016102Y013938D01*
X016102Y014288D02*
X015702Y014288D01*
X015880Y013288D02*
X015252Y013288D01*
X015880Y013288D02*
X015880Y012838D01*
X016702Y012716D02*
X016702Y012138D01*
X016702Y012716D02*
X016825Y012838D01*
X016802Y012861D01*
X016802Y013938D01*
X016802Y014538D01*
X016952Y014688D01*
X016952Y014938D01*
X017952Y016488D02*
X017952Y008738D01*
X019652Y008738D01*
X019652Y008038D01*
X019652Y008738D02*
X019652Y011038D01*
X017952Y008738D02*
X017302Y008738D01*
X015652Y008738D01*
X016802Y010738D02*
X016802Y010988D01*
X016352Y010988D01*
X016352Y011388D01*
X014141Y013212D02*
X013876Y013212D01*
X013852Y013188D01*
X013502Y013188D01*
X013502Y013638D01*
X013852Y013638D01*
X013852Y013188D01*
X012902Y013188D02*
X012902Y013638D01*
X012552Y013638D01*
X012202Y013638D01*
X012052Y013638D01*
X011602Y013188D01*
X012202Y013188D01*
X012202Y013638D01*
X012552Y013638D02*
X012552Y013188D01*
X012302Y013188D01*
X012202Y013188D01*
X012552Y013188D02*
X012902Y013188D01*
X011602Y013188D02*
X011575Y013188D01*
X011575Y012838D01*
X013052Y009838D02*
X012752Y009538D01*
X012152Y009538D01*
X011514Y009538D01*
D41*
X010927Y009813D03*
X010152Y011338D03*
X009402Y013138D03*
X008052Y014688D03*
X007802Y013338D03*
X007802Y012988D03*
X007002Y012138D03*
X007702Y011488D03*
X008052Y011138D03*
X007502Y010888D03*
X006952Y010138D03*
X006352Y009588D03*
X006352Y009488D03*
X006352Y009388D03*
X006352Y009288D03*
X006352Y009188D03*
X006352Y009088D03*
X006352Y008988D03*
X006952Y009238D03*
X012152Y011288D03*
X012602Y011638D03*
X012602Y011988D03*
X013852Y011238D03*
X013052Y009838D03*
X015052Y009238D03*
X016152Y009688D03*
X016802Y010738D03*
X016402Y011438D03*
X017952Y009588D03*
X017952Y009488D03*
X017952Y009388D03*
X017952Y009288D03*
X017952Y009188D03*
X017952Y009088D03*
X017952Y008988D03*
X014752Y012888D03*
X013852Y013638D03*
X013502Y013638D03*
X012902Y013638D03*
X012552Y013638D03*
X012202Y013638D03*
X015202Y017388D03*
X015202Y017738D03*
X013852Y019838D03*
X015352Y020238D03*
X017952Y021788D03*
X019152Y021538D03*
X017502Y016838D03*
X016952Y014938D03*
X017502Y013988D03*
X015702Y014288D03*
X009602Y022288D03*
X010202Y022488D03*
X010302Y022488D03*
X010402Y022488D03*
X010502Y022488D03*
X010602Y022488D03*
X010702Y022488D03*
X010802Y022488D03*
X008852Y024538D03*
X009552Y025238D03*
X007952Y025788D03*
X007502Y022488D03*
X007002Y022488D03*
X006352Y019738D03*
D42*
X006352Y019388D02*
X006852Y019388D01*
X006852Y018988D02*
X007402Y018988D01*
X007402Y017588D02*
X006852Y017588D01*
X006852Y017188D02*
X006852Y016838D01*
X007278Y013905D02*
X007302Y013905D01*
X011852Y009948D02*
X012142Y010238D01*
X012152Y010238D01*
X017302Y009988D02*
X017302Y010738D01*
X017302Y009388D02*
X017302Y008738D01*
X013902Y017188D02*
X013852Y017188D01*
X013552Y017488D01*
X009052Y025038D02*
X009002Y025038D01*
X009002Y025788D01*
X008402Y025788D02*
X007952Y025788D01*
D43*
X013652Y018188D03*
X015202Y016938D03*
X016152Y018188D03*
X016702Y020088D03*
X015502Y021088D03*
X012977Y015713D03*
X012127Y015638D03*
X014202Y014688D03*
X014652Y014738D03*
X016502Y015088D03*
X011852Y009948D03*
X008752Y013788D03*
X006852Y016838D03*
D44*
X007952Y016888D02*
X008102Y017038D01*
X008102Y017088D01*
X008302Y017288D01*
X008352Y017688D02*
X008102Y017688D01*
X007902Y017488D01*
X008702Y016388D02*
X008752Y016388D01*
X008702Y016388D02*
X008402Y016088D01*
X008402Y014688D01*
X008052Y014688D01*
X008402Y014688D02*
X008602Y014688D01*
X008752Y014538D01*
X008752Y014138D02*
X008752Y013788D01*
X009914Y013212D02*
X010002Y013212D01*
X010002Y013288D01*
X009914Y012488D02*
X009652Y012488D01*
X009914Y012488D02*
X009914Y012464D01*
X008902Y012453D02*
X008902Y012338D01*
X008902Y012453D02*
X008891Y012464D01*
X009402Y010838D02*
X010602Y010838D01*
X011514Y009538D02*
X011514Y009514D01*
X013052Y009838D02*
X013102Y009888D01*
X013552Y009888D01*
X015052Y011238D02*
X015052Y011838D01*
X015152Y011938D01*
X016502Y011938D01*
X016702Y012138D01*
X017252Y011438D02*
X017302Y011438D01*
X017252Y011438D02*
X016802Y010988D01*
X016552Y009888D02*
X016352Y009688D01*
X016152Y009688D01*
X015164Y012464D02*
X015140Y012488D01*
X014852Y012488D01*
X014152Y012464D02*
X014152Y012338D01*
X014152Y012464D02*
X014141Y012464D01*
X015164Y013212D02*
X015252Y013212D01*
X015252Y013288D01*
X016102Y014538D02*
X016102Y015088D01*
X016502Y015088D01*
X016102Y015088D02*
X015402Y015088D01*
X015002Y015088D02*
X014652Y014738D01*
X014202Y014688D02*
X014202Y014888D01*
X013752Y015338D01*
X013352Y015338D02*
X012977Y015713D01*
X014752Y017738D02*
X014652Y017838D01*
X014652Y017988D01*
X014452Y018188D01*
X014802Y018438D02*
X014952Y018288D01*
X015052Y018288D01*
X014802Y018738D02*
X015052Y018988D01*
X014002Y018938D02*
X013702Y018938D01*
X014002Y019338D02*
X014002Y019688D01*
X013852Y019838D01*
X014252Y020788D02*
X014152Y020888D01*
X014152Y021288D01*
X014152Y021638D02*
X014152Y021988D01*
X014552Y021988D02*
X014552Y022488D01*
X014952Y020788D02*
X014952Y020238D01*
X015352Y020238D01*
X016702Y020088D02*
X016752Y020138D01*
X017102Y020138D01*
X017102Y019688D01*
X017102Y020138D02*
X017102Y020688D01*
X016752Y021438D02*
X016752Y021638D01*
X017952Y021638D01*
X016752Y021638D02*
X016752Y021838D01*
X016402Y016688D02*
X017162Y016688D01*
X017362Y016488D01*
X017952Y016488D01*
X012052Y021288D02*
X011852Y021288D01*
X011852Y021588D01*
X011952Y021588D01*
X012052Y021588D01*
X012052Y021288D01*
X011552Y021288D02*
X011552Y021138D01*
X011552Y021288D02*
X011252Y021588D01*
X010852Y021094D02*
X011042Y020905D01*
X010852Y021094D02*
X010852Y022438D01*
X010563Y021688D02*
X010402Y021688D01*
X010302Y021588D01*
X010402Y021488D01*
X010402Y021088D01*
X010352Y021038D01*
X010152Y021238D02*
X009952Y021238D01*
X009602Y021588D01*
X007952Y019738D02*
X008102Y019588D01*
X008252Y019438D01*
X008252Y019138D02*
X008102Y018988D01*
X007952Y019138D01*
X010802Y015338D02*
X010802Y015188D01*
X010752Y015138D01*
X009402Y010838D02*
X008830Y010266D01*
X008830Y009888D01*
X007652Y009738D02*
X007652Y009288D01*
X006952Y009438D02*
X006952Y009538D01*
X006952Y009838D02*
X006952Y009938D01*
D45*
X008452Y014188D03*
X008752Y016388D03*
X008602Y017238D03*
X007252Y021038D03*
X011252Y021088D03*
X011552Y021138D03*
X013552Y017488D03*
X017552Y022088D03*
X014202Y010138D03*
D46*
X015052Y009888D02*
X015052Y009238D01*
X015052Y009888D02*
X015052Y011238D01*
X015164Y012838D02*
X014802Y012838D01*
X014752Y012888D01*
X016352Y011388D02*
X016402Y011438D01*
X015052Y016638D02*
X014352Y016638D01*
X014052Y016938D01*
X014052Y017088D01*
X014052Y017188D01*
X013902Y017188D01*
X014052Y017688D02*
X014052Y018188D01*
X013652Y018188D01*
X015202Y016788D02*
X015052Y016638D01*
X015202Y016788D02*
X015202Y016938D01*
X011575Y012838D02*
X011575Y011888D01*
X009802Y011888D01*
X009802Y011338D02*
X010152Y011338D01*
X010491Y009888D02*
X010852Y009888D01*
X010927Y009813D01*
X011514Y010262D02*
X011514Y010838D01*
X012152Y011288D02*
X012152Y011388D01*
X011652Y011888D01*
X011575Y011888D01*
X009914Y012838D02*
X009552Y012838D01*
X009402Y012988D01*
X009402Y013138D01*
X008752Y013788D02*
X008143Y013788D01*
X008026Y013905D01*
X007002Y012138D02*
X006952Y012088D01*
X006952Y010138D01*
X006952Y009938D01*
D47*
X009352Y013488D03*
X009652Y013538D03*
X010052Y013788D03*
X010402Y013888D03*
X010602Y014288D03*
X010802Y014088D03*
X011102Y013738D03*
X011602Y013738D03*
X011852Y014038D03*
X012102Y014038D03*
X012352Y014038D03*
X011977Y014613D03*
X011502Y014738D03*
X010802Y014488D03*
X010652Y014738D03*
X010102Y014288D03*
X009552Y014388D03*
X009152Y014438D03*
X009152Y014738D03*
X008702Y015588D03*
X008702Y015838D03*
X009002Y015888D03*
X009552Y015738D03*
X009802Y014788D03*
X009152Y014038D03*
X007802Y015388D03*
X007502Y015388D03*
X007127Y015463D03*
X007127Y015213D03*
X007002Y017888D03*
X006752Y017888D03*
X006752Y018138D03*
X006752Y018388D03*
X006902Y020188D03*
X007152Y020188D03*
X008502Y020488D03*
X009152Y021588D03*
X008252Y022888D03*
X008602Y023038D03*
X008602Y023288D03*
X010563Y021688D03*
X011852Y021288D03*
X012052Y021288D03*
X012802Y014738D03*
X013052Y014738D03*
X013252Y014588D03*
X014452Y014488D03*
X014702Y014388D03*
X014902Y014038D03*
X015152Y014038D03*
X015302Y013838D03*
X015102Y014288D03*
X015652Y014688D03*
X017152Y015738D03*
X017452Y015488D03*
X017502Y015888D03*
X017452Y016188D03*
X017152Y016338D03*
X017602Y014338D03*
X017402Y012538D03*
X017602Y012238D03*
D48*
X010852Y022438D02*
X010852Y022488D01*
D49*
X014552Y021638D02*
X014652Y021538D01*
X014652Y021438D01*
X014652Y021388D01*
X014552Y021288D01*
X014652Y021438D02*
X015952Y021438D01*
X016352Y021438D01*
X016352Y021838D02*
X015952Y021838D01*
D50*
X016102Y019688D02*
X016102Y019038D01*
D51*
X011452Y015138D02*
X011302Y014988D01*
D52*
X009057Y016888D02*
X008802Y016888D01*
X007712Y015798D01*
X007712Y015478D01*
X007802Y015388D01*
X007592Y015478D02*
X007592Y015848D01*
X008752Y017008D01*
X009075Y017008D01*
X009113Y017046D01*
X007592Y015478D02*
X007502Y015388D01*
D53*
X009775Y009888D02*
X009775Y009766D01*
X010026Y009514D01*
X010491Y009514D01*
M02*
