G75*
G70*
%OFA0B0*%
%FSLAX24Y24*%
%IPPOS*%
%LPD*%
%AMOC8*
5,1,8,0,0,1.08239X$1,22.5*
%
%ADD10C,0.1339*%
%ADD11C,0.0400*%
%ADD12R,0.0280X0.0270*%
%ADD13R,0.0270X0.0280*%
%ADD14R,0.0440X0.0440*%
%ADD15R,0.0985X0.0749*%
%ADD16R,0.0434X0.0591*%
%ADD17R,0.0355X0.0355*%
%ADD18R,0.0512X0.0257*%
%ADD19R,0.0670X0.1221*%
%ADD20C,0.0440*%
%ADD21C,0.0434*%
%ADD22C,0.0500*%
%ADD23C,0.0197*%
%ADD24C,0.0237*%
%ADD25R,0.0700X0.0700*%
%ADD26C,0.0700*%
%ADD27R,0.0340X0.0240*%
%ADD28R,0.0157X0.0236*%
%ADD29R,0.0315X0.1378*%
%ADD30R,0.1339X0.0787*%
%ADD31R,0.0335X0.0906*%
%ADD32R,0.0551X0.0138*%
%ADD33R,0.0335X0.0659*%
%ADD34R,0.0315X0.0886*%
%ADD35R,0.4252X0.0335*%
%ADD36R,0.0315X0.0551*%
%ADD37R,0.0236X0.0315*%
%ADD38R,0.0315X0.1299*%
%ADD39R,0.0354X0.0433*%
%ADD40R,0.0236X0.0433*%
%ADD41R,0.0276X0.0433*%
%ADD42R,0.0473X0.0906*%
%ADD43R,0.0434X0.0473*%
%ADD44C,0.0340*%
%ADD45R,0.0591X0.0512*%
D10*
X005412Y025263D03*
X018877Y025263D03*
D11*
X017952Y022488D02*
X016652Y022488D01*
X016542Y022598D01*
X016542Y022948D01*
X015362Y022948D02*
X015362Y022598D01*
X015252Y022488D01*
X006352Y022488D01*
X006352Y008738D01*
X017952Y008738D01*
X017952Y022488D01*
D12*
X016752Y021838D03*
X016352Y021838D03*
X016352Y021438D03*
X016752Y021438D03*
X014552Y021288D03*
X014552Y021638D03*
X014552Y021988D03*
X014152Y021988D03*
X014152Y021638D03*
X014152Y021288D03*
X013002Y021288D03*
X013002Y021638D03*
X012602Y021638D03*
X012602Y021288D03*
X014052Y018188D03*
X014452Y018188D03*
X013752Y015338D03*
X013352Y015338D03*
X015002Y015088D03*
X015402Y015088D03*
D13*
X014002Y018938D03*
X014002Y019338D03*
X013452Y021258D03*
X013452Y021658D03*
X015952Y021838D03*
X015952Y021438D03*
X008752Y014538D03*
X008752Y014138D03*
X006852Y017188D03*
X006852Y017588D03*
X006852Y018988D03*
X006852Y019388D03*
D14*
X007402Y019588D03*
X007402Y018988D03*
X008102Y018988D03*
X008102Y019588D03*
X008102Y020288D03*
X008102Y020988D03*
X009602Y021588D03*
X010302Y021588D03*
X011252Y021588D03*
X011952Y021588D03*
X014252Y020788D03*
X014952Y020788D03*
X015202Y019638D03*
X015052Y018988D03*
X015052Y018288D03*
X014752Y017688D03*
X014752Y017088D03*
X014052Y017088D03*
X014052Y017688D03*
X014502Y019638D03*
X015702Y018288D03*
X015702Y017588D03*
X015702Y016688D03*
X016402Y016688D03*
X016102Y014538D03*
X016102Y013938D03*
X016802Y013938D03*
X016802Y014538D03*
X015052Y011838D03*
X015052Y011238D03*
X014352Y011238D03*
X014352Y011838D03*
X013752Y011838D03*
X013502Y012488D03*
X012902Y012488D03*
X013052Y011838D03*
X012302Y012488D03*
X012302Y013188D03*
X012902Y013188D03*
X013502Y013188D03*
X012602Y010838D03*
X012152Y010238D03*
X011902Y010838D03*
X011302Y010838D03*
X011302Y011438D03*
X010602Y011438D03*
X010602Y010838D03*
X009802Y011288D03*
X009802Y011888D03*
X009102Y011888D03*
X009102Y011288D03*
X008502Y011888D03*
X008252Y012488D03*
X008252Y013188D03*
X007802Y011888D03*
X007502Y010438D03*
X008102Y010438D03*
X008102Y009738D03*
X007502Y009738D03*
X010752Y015138D03*
X011452Y015138D03*
X008102Y017088D03*
X008102Y017688D03*
X007402Y017688D03*
X007402Y017088D03*
X012152Y009538D03*
X015652Y010988D03*
X016352Y010988D03*
X017302Y010738D03*
X017302Y011438D03*
X009052Y025038D03*
X008352Y025038D03*
D15*
X016802Y018926D03*
X016802Y017351D03*
D16*
X008026Y013905D03*
X007652Y014771D03*
X007278Y013905D03*
D17*
X008402Y025788D03*
X009002Y025788D03*
X017302Y009988D03*
X017302Y009388D03*
D18*
X015164Y012464D03*
X015164Y012838D03*
X015164Y013212D03*
X014141Y013212D03*
X014141Y012464D03*
X011514Y010262D03*
X011514Y009514D03*
X010491Y009514D03*
X010491Y009888D03*
X010491Y010262D03*
X009914Y012464D03*
X009914Y012838D03*
X009914Y013212D03*
X008891Y013212D03*
X008891Y012464D03*
D19*
X010630Y012838D03*
X011575Y012838D03*
X009775Y009888D03*
X008830Y009888D03*
X015880Y012838D03*
X016825Y012838D03*
D20*
X016552Y009888D03*
X015052Y009888D03*
X013552Y009888D03*
X007652Y009288D03*
X019652Y009888D03*
D21*
X018802Y009538D03*
X007152Y025888D03*
X005502Y009538D03*
D22*
X005167Y009538D02*
X005169Y009575D01*
X005175Y009611D01*
X005185Y009647D01*
X005199Y009681D01*
X005217Y009713D01*
X005238Y009744D01*
X005262Y009772D01*
X005289Y009797D01*
X005319Y009818D01*
X005351Y009837D01*
X005385Y009852D01*
X005420Y009863D01*
X005456Y009870D01*
X005493Y009873D01*
X005530Y009872D01*
X005566Y009867D01*
X005602Y009858D01*
X005637Y009845D01*
X005669Y009828D01*
X005700Y009808D01*
X005729Y009784D01*
X005755Y009758D01*
X005777Y009729D01*
X005797Y009697D01*
X005812Y009664D01*
X005824Y009629D01*
X005832Y009593D01*
X005836Y009556D01*
X005836Y009520D01*
X005832Y009483D01*
X005824Y009447D01*
X005812Y009412D01*
X005797Y009379D01*
X005777Y009347D01*
X005755Y009318D01*
X005729Y009292D01*
X005700Y009268D01*
X005670Y009248D01*
X005637Y009231D01*
X005602Y009218D01*
X005566Y009209D01*
X005530Y009204D01*
X005493Y009203D01*
X005456Y009206D01*
X005420Y009213D01*
X005385Y009224D01*
X005351Y009239D01*
X005319Y009258D01*
X005289Y009279D01*
X005262Y009304D01*
X005238Y009332D01*
X005217Y009363D01*
X005199Y009395D01*
X005185Y009429D01*
X005175Y009465D01*
X005169Y009501D01*
X005167Y009538D01*
X006817Y025888D02*
X006819Y025925D01*
X006825Y025961D01*
X006835Y025997D01*
X006849Y026031D01*
X006867Y026063D01*
X006888Y026094D01*
X006912Y026122D01*
X006939Y026147D01*
X006969Y026168D01*
X007001Y026187D01*
X007035Y026202D01*
X007070Y026213D01*
X007106Y026220D01*
X007143Y026223D01*
X007180Y026222D01*
X007216Y026217D01*
X007252Y026208D01*
X007287Y026195D01*
X007319Y026178D01*
X007350Y026158D01*
X007379Y026134D01*
X007405Y026108D01*
X007427Y026079D01*
X007447Y026047D01*
X007462Y026014D01*
X007474Y025979D01*
X007482Y025943D01*
X007486Y025906D01*
X007486Y025870D01*
X007482Y025833D01*
X007474Y025797D01*
X007462Y025762D01*
X007447Y025729D01*
X007427Y025697D01*
X007405Y025668D01*
X007379Y025642D01*
X007350Y025618D01*
X007320Y025598D01*
X007287Y025581D01*
X007252Y025568D01*
X007216Y025559D01*
X007180Y025554D01*
X007143Y025553D01*
X007106Y025556D01*
X007070Y025563D01*
X007035Y025574D01*
X007001Y025589D01*
X006969Y025608D01*
X006939Y025629D01*
X006912Y025654D01*
X006888Y025682D01*
X006867Y025713D01*
X006849Y025745D01*
X006835Y025779D01*
X006825Y025815D01*
X006819Y025851D01*
X006817Y025888D01*
X018467Y009538D02*
X018469Y009575D01*
X018475Y009611D01*
X018485Y009647D01*
X018499Y009681D01*
X018517Y009713D01*
X018538Y009744D01*
X018562Y009772D01*
X018589Y009797D01*
X018619Y009818D01*
X018651Y009837D01*
X018685Y009852D01*
X018720Y009863D01*
X018756Y009870D01*
X018793Y009873D01*
X018830Y009872D01*
X018866Y009867D01*
X018902Y009858D01*
X018937Y009845D01*
X018969Y009828D01*
X019000Y009808D01*
X019029Y009784D01*
X019055Y009758D01*
X019077Y009729D01*
X019097Y009697D01*
X019112Y009664D01*
X019124Y009629D01*
X019132Y009593D01*
X019136Y009556D01*
X019136Y009520D01*
X019132Y009483D01*
X019124Y009447D01*
X019112Y009412D01*
X019097Y009379D01*
X019077Y009347D01*
X019055Y009318D01*
X019029Y009292D01*
X019000Y009268D01*
X018970Y009248D01*
X018937Y009231D01*
X018902Y009218D01*
X018866Y009209D01*
X018830Y009204D01*
X018793Y009203D01*
X018756Y009206D01*
X018720Y009213D01*
X018685Y009224D01*
X018651Y009239D01*
X018619Y009258D01*
X018589Y009279D01*
X018562Y009304D01*
X018538Y009332D01*
X018517Y009363D01*
X018499Y009395D01*
X018485Y009429D01*
X018475Y009465D01*
X018469Y009501D01*
X018467Y009538D01*
D23*
X013208Y016416D03*
X013208Y016731D03*
X013208Y017046D03*
X013208Y017361D03*
X013208Y017676D03*
X013208Y017991D03*
X013208Y018306D03*
X013208Y018621D03*
X013208Y018936D03*
X013208Y019251D03*
X013208Y019566D03*
X013208Y019881D03*
X013208Y020196D03*
X013208Y020511D03*
X012893Y020511D03*
X012893Y020196D03*
X012893Y019881D03*
X012893Y019566D03*
X012893Y019251D03*
X012893Y018936D03*
X012893Y018621D03*
X012893Y018306D03*
X012893Y017991D03*
X012893Y017676D03*
X012893Y017361D03*
X012893Y017046D03*
X012893Y016731D03*
X012893Y016416D03*
X012578Y016416D03*
X012263Y016416D03*
X011948Y016416D03*
X011948Y016731D03*
X012263Y016731D03*
X012578Y016731D03*
X012578Y017046D03*
X012578Y017361D03*
X012578Y017676D03*
X012578Y017991D03*
X012578Y018306D03*
X012578Y018621D03*
X012578Y018936D03*
X012578Y019251D03*
X012578Y019566D03*
X012578Y019881D03*
X012578Y020196D03*
X012578Y020511D03*
X012263Y020511D03*
X012263Y020196D03*
X012263Y019881D03*
X012263Y019566D03*
X012263Y019251D03*
X012263Y018936D03*
X012263Y018621D03*
X012263Y018306D03*
X012263Y017991D03*
X012263Y017676D03*
X012263Y017361D03*
X012263Y017046D03*
X011948Y017046D03*
X011948Y017361D03*
X011948Y017676D03*
X011948Y017991D03*
X011948Y018306D03*
X011948Y018621D03*
X011948Y018936D03*
X011948Y019251D03*
X011948Y019566D03*
X011948Y019881D03*
X011948Y020196D03*
X011948Y020511D03*
X011633Y020511D03*
X011633Y020196D03*
X011633Y019881D03*
X011633Y019566D03*
X011633Y019251D03*
X011633Y018936D03*
X011633Y018621D03*
X011633Y018306D03*
X011633Y017991D03*
X011633Y017676D03*
X011633Y017361D03*
X011633Y017046D03*
X011633Y016731D03*
X011633Y016416D03*
X011318Y016416D03*
X011003Y016416D03*
X011003Y016731D03*
X011318Y016731D03*
X011318Y017046D03*
X011003Y017046D03*
X011003Y017361D03*
X011318Y017361D03*
X011318Y017676D03*
X011003Y017676D03*
X011003Y017991D03*
X011318Y017991D03*
X011318Y018306D03*
X011318Y018621D03*
X011318Y018936D03*
X011318Y019251D03*
X011318Y019566D03*
X011318Y019881D03*
X011318Y020196D03*
X011318Y020511D03*
X011003Y020511D03*
X011003Y020196D03*
X011003Y019881D03*
X011003Y019566D03*
X011003Y019251D03*
X011003Y018936D03*
X011003Y018621D03*
X011003Y018306D03*
X010688Y018306D03*
X010688Y017991D03*
X010688Y017676D03*
X010688Y017361D03*
X010688Y017046D03*
X010688Y016731D03*
X010688Y016416D03*
X010373Y016416D03*
X010058Y016416D03*
X009743Y016416D03*
X009743Y016731D03*
X010058Y016731D03*
X010373Y016731D03*
X010373Y017046D03*
X010058Y017046D03*
X009743Y017046D03*
X009743Y017361D03*
X010058Y017361D03*
X010373Y017361D03*
X010373Y017676D03*
X010058Y017676D03*
X009743Y017676D03*
X009743Y017991D03*
X010058Y017991D03*
X010373Y017991D03*
X010373Y018306D03*
X010058Y018306D03*
X009743Y018306D03*
X009743Y018621D03*
X010058Y018621D03*
X010373Y018621D03*
X010688Y018621D03*
X010688Y018936D03*
X010688Y019251D03*
X010688Y019566D03*
X010688Y019881D03*
X010688Y020196D03*
X010688Y020511D03*
X010373Y020511D03*
X010058Y020511D03*
X009743Y020511D03*
X009743Y020196D03*
X010058Y020196D03*
X010373Y020196D03*
X010373Y019881D03*
X010373Y019566D03*
X010373Y019251D03*
X010373Y018936D03*
X010058Y018936D03*
X009743Y018936D03*
X009743Y019251D03*
X010058Y019251D03*
X010058Y019566D03*
X010058Y019881D03*
X009743Y019881D03*
X009743Y019566D03*
X009428Y019566D03*
X009113Y019566D03*
X009113Y019251D03*
X009113Y018936D03*
X009113Y018621D03*
X009113Y018306D03*
X009113Y017991D03*
X009113Y017676D03*
X009113Y017361D03*
X009113Y017046D03*
X009113Y016731D03*
X009113Y016416D03*
X009428Y016416D03*
X009428Y016731D03*
X009428Y017046D03*
X009428Y017361D03*
X009428Y017676D03*
X009428Y017991D03*
X009428Y018306D03*
X009428Y018621D03*
X009428Y018936D03*
X009428Y019251D03*
X009428Y019881D03*
X009428Y020196D03*
X009428Y020511D03*
X009113Y020511D03*
X009113Y020196D03*
X009113Y019881D03*
D24*
X008798Y020826D03*
X008798Y016101D03*
X013523Y016101D03*
D25*
X004652Y008038D03*
X004652Y011038D03*
X018652Y011038D03*
D26*
X018652Y012038D03*
X018652Y013038D03*
X018652Y014038D03*
X018652Y015038D03*
X018652Y016038D03*
X018652Y017038D03*
X018652Y018038D03*
X018652Y019038D03*
X018652Y020038D03*
X018652Y021038D03*
X018652Y022038D03*
X018652Y023038D03*
X019652Y023038D03*
X019652Y022038D03*
X019652Y021038D03*
X019652Y020038D03*
X019652Y019038D03*
X019652Y018038D03*
X019652Y017038D03*
X019652Y016038D03*
X019652Y015038D03*
X019652Y014038D03*
X019652Y013038D03*
X019652Y012038D03*
X019652Y011038D03*
X019652Y008038D03*
X018652Y008038D03*
X017652Y008038D03*
X016652Y008038D03*
X015652Y008038D03*
X014652Y008038D03*
X013652Y008038D03*
X012652Y008038D03*
X011652Y008038D03*
X010652Y008038D03*
X009652Y008038D03*
X008652Y008038D03*
X007652Y008038D03*
X006652Y008038D03*
X005652Y008038D03*
X005652Y011038D03*
X005652Y012038D03*
X005652Y013038D03*
X005652Y014038D03*
X004652Y014038D03*
X004652Y013038D03*
X004652Y012038D03*
X004652Y015038D03*
X004652Y016038D03*
X004652Y017038D03*
X004652Y018038D03*
X004652Y019038D03*
X004652Y020038D03*
X004652Y021038D03*
X004652Y022038D03*
X004652Y023038D03*
X005652Y023038D03*
X005652Y022038D03*
X005652Y021038D03*
X005652Y020038D03*
X005652Y019038D03*
X005652Y018038D03*
X005652Y017038D03*
X005652Y016038D03*
X005652Y015038D03*
D27*
X006952Y009838D03*
X006952Y009538D03*
D28*
X015952Y023772D03*
D29*
X015952Y024540D03*
D30*
X016779Y024835D03*
D31*
X017281Y023989D03*
D32*
X016976Y023566D03*
D33*
X017281Y025559D03*
D34*
X017015Y025987D03*
D35*
X014732Y026262D03*
D36*
X012763Y025820D03*
D37*
X012488Y025701D03*
D38*
X012527Y024894D03*
D39*
X012547Y024028D03*
D40*
X012842Y024028D03*
D41*
X013098Y024028D03*
D42*
X015362Y023188D03*
X016543Y023188D03*
D43*
X015952Y023779D03*
D44*
X012802Y015088D03*
D45*
X016102Y019688D03*
X016102Y020688D03*
X017102Y020688D03*
X017102Y019688D03*
M02*
