G75*
G70*
%OFA0B0*%
%FSLAX24Y24*%
%IPPOS*%
%LPD*%
%AMOC8*
5,1,8,0,0,1.08239X$1,22.5*
%
%ADD10C,0.0100*%
%ADD11C,0.0080*%
%ADD12C,0.0200*%
%ADD13C,0.0060*%
%ADD14C,0.0050*%
%ADD15C,0.0240*%
%ADD16C,0.0120*%
%ADD17C,0.0220*%
%ADD18C,0.0260*%
%ADD19C,0.0140*%
%ADD20C,0.0070*%
D10*
X014320Y007303D02*
X014387Y007237D01*
X014520Y007237D01*
X014520Y007437D01*
X014454Y007504D01*
X014387Y007504D01*
X014320Y007437D01*
X014320Y007303D01*
X014520Y007237D02*
X014654Y007370D01*
X014720Y007504D01*
X014520Y007697D02*
X014520Y007964D01*
X014587Y008157D02*
X014720Y008291D01*
X014320Y008291D01*
X014320Y008424D02*
X014320Y008157D01*
X014387Y008618D02*
X014320Y008684D01*
X014320Y008818D01*
X014387Y008885D01*
X014454Y008885D01*
X014520Y008818D01*
X014520Y008618D01*
X014387Y008618D01*
X014520Y008618D02*
X014654Y008751D01*
X014720Y008885D01*
X014720Y009078D02*
X014454Y009078D01*
X014320Y009211D01*
X014454Y009345D01*
X014720Y009345D01*
X014720Y009538D02*
X014720Y009739D01*
X014654Y009805D01*
X014387Y009805D01*
X014320Y009739D01*
X014320Y009538D01*
X014720Y009538D01*
X014654Y009999D02*
X014387Y009999D01*
X014320Y010065D01*
X014320Y010199D01*
X014387Y010266D01*
X014654Y010266D02*
X014720Y010199D01*
X014720Y010065D01*
X014654Y009999D01*
X014920Y008424D02*
X015054Y008291D01*
X015054Y008357D02*
X015054Y008157D01*
X014920Y008157D02*
X015320Y008157D01*
X015320Y008357D01*
X015254Y008424D01*
X015120Y008424D01*
X015054Y008357D01*
X014920Y007964D02*
X015320Y007964D01*
X015320Y007697D02*
X014920Y007697D01*
X015054Y007830D01*
X014920Y007964D01*
X015120Y007504D02*
X015054Y007437D01*
X015054Y007237D01*
X014920Y007237D02*
X015320Y007237D01*
X015320Y007437D01*
X015254Y007504D01*
X015120Y007504D01*
X014170Y012076D02*
X014170Y012343D01*
X014170Y012876D02*
X014170Y013143D01*
X014304Y013010D02*
X014037Y013010D01*
X031890Y041177D02*
X031890Y041207D01*
X031890Y041177D02*
X032010Y041177D01*
X032010Y041207D01*
X032640Y042067D02*
X032640Y042097D01*
X032780Y042097D01*
X032780Y042067D01*
X056630Y042017D02*
X056897Y042017D01*
X057030Y042151D01*
X056897Y042284D01*
X056630Y042284D01*
X056830Y042284D02*
X056830Y042017D01*
X056830Y041824D02*
X056697Y041824D01*
X056630Y041757D01*
X056630Y041624D01*
X056697Y041557D01*
X056964Y041557D01*
X057030Y041624D01*
X057030Y041757D01*
X056964Y041824D01*
X056830Y041824D02*
X056830Y041690D01*
X056764Y041364D02*
X057030Y041364D01*
X056764Y041364D02*
X056630Y041230D01*
X056764Y041097D01*
X057030Y041097D01*
D11*
X054780Y047680D02*
X054514Y047680D01*
X054460Y047733D01*
X054460Y047840D01*
X054514Y047894D01*
X054780Y047894D01*
X054674Y048048D02*
X054780Y048155D01*
X054674Y048262D01*
X054460Y048262D01*
X054460Y048417D02*
X054780Y048417D01*
X054780Y048577D01*
X054727Y048630D01*
X054620Y048630D01*
X054567Y048577D01*
X054567Y048417D01*
X054567Y048523D02*
X054460Y048630D01*
X054460Y048892D02*
X054780Y048892D01*
X054780Y048785D02*
X054780Y048999D01*
X054674Y049153D02*
X054780Y049260D01*
X054460Y049260D01*
X054460Y049153D02*
X054460Y049367D01*
X054407Y049522D02*
X054407Y049735D01*
X054460Y049890D02*
X054780Y049890D01*
X054780Y050050D01*
X054727Y050103D01*
X054620Y050103D01*
X054567Y050050D01*
X054567Y049890D01*
X054567Y049997D02*
X054460Y050103D01*
X054460Y050258D02*
X054780Y050472D01*
X054780Y050258D02*
X054460Y050472D01*
X053780Y050472D02*
X053460Y050258D01*
X053460Y050472D02*
X053780Y050258D01*
X053780Y050103D02*
X053780Y049890D01*
X053780Y049997D02*
X053460Y049997D01*
X053407Y049735D02*
X053407Y049522D01*
X053460Y049367D02*
X053460Y049153D01*
X053460Y049260D02*
X053780Y049260D01*
X053674Y049153D01*
X053780Y048999D02*
X053780Y048785D01*
X053780Y048892D02*
X053460Y048892D01*
X053460Y048630D02*
X053567Y048523D01*
X053567Y048577D02*
X053567Y048417D01*
X053460Y048417D02*
X053780Y048417D01*
X053780Y048577D01*
X053727Y048630D01*
X053620Y048630D01*
X053567Y048577D01*
X053620Y048262D02*
X053620Y048048D01*
X053674Y048048D02*
X053780Y048155D01*
X053674Y048262D01*
X053460Y048262D01*
X053460Y048048D02*
X053674Y048048D01*
X053780Y047894D02*
X053514Y047894D01*
X053460Y047840D01*
X053460Y047733D01*
X053514Y047680D01*
X053780Y047680D01*
X054460Y048048D02*
X054674Y048048D01*
X054620Y048048D02*
X054620Y048262D01*
X055464Y049522D02*
X055410Y049575D01*
X055410Y049682D01*
X055464Y049735D01*
X055570Y049735D01*
X055570Y049628D01*
X055464Y049522D02*
X055677Y049522D01*
X055730Y049575D01*
X055730Y049682D01*
X055677Y049735D01*
X055730Y049890D02*
X055410Y050104D01*
X055730Y050104D01*
X055730Y050258D02*
X055730Y050418D01*
X055677Y050472D01*
X055464Y050472D01*
X055410Y050418D01*
X055410Y050258D01*
X055730Y050258D01*
X055730Y049890D02*
X055410Y049890D01*
X056210Y049880D02*
X056210Y049987D01*
X056264Y050040D01*
X056530Y050040D01*
X056424Y050195D02*
X056530Y050302D01*
X056424Y050408D01*
X056210Y050408D01*
X056210Y050563D02*
X056530Y050563D01*
X056530Y050723D01*
X056477Y050777D01*
X056370Y050777D01*
X056317Y050723D01*
X056317Y050563D01*
X056317Y050670D02*
X056210Y050777D01*
X056210Y051038D02*
X056530Y051038D01*
X056530Y050932D02*
X056530Y051145D01*
X056424Y051300D02*
X056530Y051407D01*
X056210Y051407D01*
X056210Y051513D02*
X056210Y051300D01*
X056370Y050408D02*
X056370Y050195D01*
X056424Y050195D02*
X056210Y050195D01*
X056210Y049880D02*
X056264Y049827D01*
X056530Y049827D01*
X052780Y049943D02*
X052780Y050050D01*
X052727Y050103D01*
X052674Y050103D01*
X052620Y050050D01*
X052567Y050103D01*
X052514Y050103D01*
X052460Y050050D01*
X052460Y049943D01*
X052514Y049890D01*
X052514Y049759D02*
X052460Y049759D01*
X052460Y049706D01*
X052514Y049706D01*
X052514Y049759D01*
X052514Y049551D02*
X052460Y049498D01*
X052460Y049391D01*
X052514Y049338D01*
X052620Y049444D02*
X052620Y049498D01*
X052567Y049551D01*
X052514Y049551D01*
X052620Y049498D02*
X052674Y049551D01*
X052727Y049551D01*
X052780Y049498D01*
X052780Y049391D01*
X052727Y049338D01*
X052727Y049890D02*
X052780Y049943D01*
X052620Y049997D02*
X052620Y050050D01*
X052567Y050258D02*
X052460Y050365D01*
X052567Y050472D01*
X052780Y050472D01*
X052780Y050258D02*
X052567Y050258D01*
X050130Y050627D02*
X049917Y050627D01*
X050023Y050627D02*
X050023Y050947D01*
X050130Y050840D01*
X049762Y050894D02*
X049762Y050680D01*
X049548Y050894D01*
X049548Y050680D01*
X049602Y050627D01*
X049709Y050627D01*
X049762Y050680D01*
X049762Y050894D02*
X049709Y050947D01*
X049602Y050947D01*
X049548Y050894D01*
X048980Y050894D02*
X048980Y050840D01*
X048927Y050787D01*
X048820Y050787D01*
X048767Y050733D01*
X048767Y050680D01*
X048820Y050627D01*
X048927Y050627D01*
X048980Y050680D01*
X048980Y050733D01*
X048927Y050787D01*
X048820Y050787D02*
X048767Y050840D01*
X048767Y050894D01*
X048820Y050947D01*
X048927Y050947D01*
X048980Y050894D01*
X047980Y050787D02*
X047820Y050787D01*
X047767Y050733D01*
X047767Y050680D01*
X047820Y050627D01*
X047927Y050627D01*
X047980Y050680D01*
X047980Y050787D01*
X047873Y050894D01*
X047767Y050947D01*
X046980Y050787D02*
X046767Y050787D01*
X046820Y050947D02*
X046980Y050787D01*
X046820Y050627D02*
X046820Y050947D01*
X045980Y050894D02*
X045927Y050947D01*
X045820Y050947D01*
X045767Y050894D01*
X045767Y050840D01*
X045980Y050627D01*
X045767Y050627D01*
X045230Y050372D02*
X045230Y050158D01*
X045230Y050265D02*
X044910Y050265D01*
X044910Y050004D02*
X045230Y049790D01*
X045230Y049635D02*
X045230Y049422D01*
X044910Y049422D01*
X044910Y049635D01*
X044910Y049790D02*
X045230Y050004D01*
X045070Y049528D02*
X045070Y049422D01*
X044964Y049267D02*
X045230Y049267D01*
X045230Y049053D02*
X044964Y049053D01*
X044910Y049107D01*
X044910Y049214D01*
X044964Y049267D01*
X045842Y048747D02*
X045842Y048427D01*
X045948Y048427D02*
X045735Y048427D01*
X045948Y048640D02*
X045842Y048747D01*
X046735Y048694D02*
X046735Y048640D01*
X046788Y048587D01*
X046735Y048533D01*
X046735Y048480D01*
X046788Y048427D01*
X046895Y048427D01*
X046948Y048480D01*
X046842Y048587D02*
X046788Y048587D01*
X046735Y048694D02*
X046788Y048747D01*
X046895Y048747D01*
X046948Y048694D01*
X047735Y048747D02*
X047948Y048747D01*
X047948Y048587D01*
X047842Y048640D01*
X047788Y048640D01*
X047735Y048587D01*
X047735Y048480D01*
X047788Y048427D01*
X047895Y048427D01*
X047948Y048480D01*
X048735Y048694D02*
X048948Y048480D01*
X048948Y048427D01*
X048948Y048747D02*
X048735Y048747D01*
X048735Y048694D01*
X049735Y048694D02*
X049735Y048480D01*
X049788Y048427D01*
X049895Y048427D01*
X049948Y048480D01*
X049895Y048587D02*
X049735Y048587D01*
X049735Y048694D02*
X049788Y048747D01*
X049895Y048747D01*
X049948Y048694D01*
X049948Y048640D01*
X049895Y048587D01*
X042167Y048480D02*
X042113Y048427D01*
X042007Y048427D01*
X041953Y048480D01*
X041953Y048533D01*
X042007Y048587D01*
X042060Y048587D01*
X042007Y048587D02*
X041953Y048640D01*
X041953Y048694D01*
X042007Y048747D01*
X042113Y048747D01*
X042167Y048694D01*
X041798Y048694D02*
X041798Y048640D01*
X041745Y048587D01*
X041585Y048587D01*
X041585Y048694D02*
X041638Y048747D01*
X041745Y048747D01*
X041798Y048694D01*
X041585Y048694D02*
X041585Y048480D01*
X041638Y048427D01*
X041745Y048427D01*
X041798Y048480D01*
X041167Y048480D02*
X041113Y048427D01*
X041007Y048427D01*
X040953Y048480D01*
X040953Y048533D01*
X041007Y048587D01*
X041060Y048587D01*
X041007Y048587D02*
X040953Y048640D01*
X040953Y048694D01*
X041007Y048747D01*
X041113Y048747D01*
X041167Y048694D01*
X040798Y048747D02*
X040585Y048747D01*
X040585Y048694D01*
X040798Y048480D01*
X040798Y048427D01*
X040167Y048480D02*
X040113Y048427D01*
X040007Y048427D01*
X039953Y048480D01*
X039953Y048533D01*
X040007Y048587D01*
X040060Y048587D01*
X040007Y048587D02*
X039953Y048640D01*
X039953Y048694D01*
X040007Y048747D01*
X040113Y048747D01*
X040167Y048694D01*
X039798Y048747D02*
X039798Y048587D01*
X039692Y048640D01*
X039638Y048640D01*
X039585Y048587D01*
X039585Y048480D01*
X039638Y048427D01*
X039745Y048427D01*
X039798Y048480D01*
X039798Y048747D02*
X039585Y048747D01*
X039167Y048694D02*
X039113Y048747D01*
X039007Y048747D01*
X038953Y048694D01*
X038953Y048640D01*
X039007Y048587D01*
X038953Y048533D01*
X038953Y048480D01*
X039007Y048427D01*
X039113Y048427D01*
X039167Y048480D01*
X039060Y048587D02*
X039007Y048587D01*
X038798Y048694D02*
X038745Y048747D01*
X038638Y048747D01*
X038585Y048694D01*
X038585Y048640D01*
X038638Y048587D01*
X038585Y048533D01*
X038585Y048480D01*
X038638Y048427D01*
X038745Y048427D01*
X038798Y048480D01*
X038692Y048587D02*
X038638Y048587D01*
X038167Y048694D02*
X038113Y048747D01*
X038007Y048747D01*
X037953Y048694D01*
X037953Y048640D01*
X038007Y048587D01*
X037953Y048533D01*
X037953Y048480D01*
X038007Y048427D01*
X038113Y048427D01*
X038167Y048480D01*
X038060Y048587D02*
X038007Y048587D01*
X037798Y048640D02*
X037692Y048747D01*
X037692Y048427D01*
X037798Y048427D02*
X037585Y048427D01*
X037167Y048427D02*
X036953Y048640D01*
X036953Y048694D01*
X037007Y048747D01*
X037113Y048747D01*
X037167Y048694D01*
X037167Y048427D02*
X036953Y048427D01*
X036798Y048480D02*
X036745Y048427D01*
X036638Y048427D01*
X036585Y048480D01*
X036585Y048694D01*
X036638Y048747D01*
X036745Y048747D01*
X036798Y048694D01*
X036798Y048640D01*
X036745Y048587D01*
X036585Y048587D01*
X036167Y048694D02*
X036113Y048747D01*
X036007Y048747D01*
X035953Y048694D01*
X035953Y048640D01*
X036167Y048427D01*
X035953Y048427D01*
X035798Y048427D02*
X035798Y048480D01*
X035585Y048694D01*
X035585Y048747D01*
X035798Y048747D01*
X035167Y048694D02*
X035113Y048747D01*
X035007Y048747D01*
X034953Y048694D01*
X034953Y048640D01*
X035167Y048427D01*
X034953Y048427D01*
X034798Y048480D02*
X034745Y048427D01*
X034638Y048427D01*
X034585Y048480D01*
X034585Y048587D01*
X034638Y048640D01*
X034692Y048640D01*
X034798Y048587D01*
X034798Y048747D01*
X034585Y048747D01*
X034167Y048694D02*
X034113Y048747D01*
X034007Y048747D01*
X033953Y048694D01*
X033953Y048640D01*
X034167Y048427D01*
X033953Y048427D01*
X033798Y048480D02*
X033745Y048427D01*
X033638Y048427D01*
X033585Y048480D01*
X033585Y048533D01*
X033638Y048587D01*
X033692Y048587D01*
X033638Y048587D02*
X033585Y048640D01*
X033585Y048694D01*
X033638Y048747D01*
X033745Y048747D01*
X033798Y048694D01*
X033167Y048694D02*
X033113Y048747D01*
X033007Y048747D01*
X032953Y048694D01*
X032953Y048640D01*
X033167Y048427D01*
X032953Y048427D01*
X032798Y048427D02*
X032585Y048427D01*
X032692Y048427D02*
X032692Y048747D01*
X032798Y048640D01*
X032167Y048640D02*
X032060Y048747D01*
X032060Y048427D01*
X032167Y048427D02*
X031953Y048427D01*
X031798Y048480D02*
X031745Y048427D01*
X031638Y048427D01*
X031585Y048480D01*
X031585Y048694D01*
X031638Y048747D01*
X031745Y048747D01*
X031798Y048694D01*
X031798Y048640D01*
X031745Y048587D01*
X031585Y048587D01*
X031167Y048640D02*
X031060Y048747D01*
X031060Y048427D01*
X031167Y048427D02*
X030953Y048427D01*
X030798Y048427D02*
X030798Y048480D01*
X030585Y048694D01*
X030585Y048747D01*
X030798Y048747D01*
X030167Y048640D02*
X030060Y048747D01*
X030060Y048427D01*
X030167Y048427D02*
X029953Y048427D01*
X029798Y048480D02*
X029745Y048427D01*
X029638Y048427D01*
X029585Y048480D01*
X029585Y048587D01*
X029638Y048640D01*
X029692Y048640D01*
X029798Y048587D01*
X029798Y048747D01*
X029585Y048747D01*
X029167Y048640D02*
X029060Y048747D01*
X029060Y048427D01*
X029167Y048427D02*
X028953Y048427D01*
X028798Y048480D02*
X028745Y048427D01*
X028638Y048427D01*
X028585Y048480D01*
X028585Y048533D01*
X028638Y048587D01*
X028692Y048587D01*
X028638Y048587D02*
X028585Y048640D01*
X028585Y048694D01*
X028638Y048747D01*
X028745Y048747D01*
X028798Y048694D01*
X028167Y048640D02*
X028060Y048747D01*
X028060Y048427D01*
X028167Y048427D02*
X027953Y048427D01*
X027798Y048427D02*
X027585Y048427D01*
X027692Y048427D02*
X027692Y048747D01*
X027798Y048640D01*
X026998Y048640D02*
X026945Y048587D01*
X026785Y048587D01*
X026785Y048694D02*
X026838Y048747D01*
X026945Y048747D01*
X026998Y048694D01*
X026998Y048640D01*
X026998Y048480D02*
X026945Y048427D01*
X026838Y048427D01*
X026785Y048480D01*
X026785Y048694D01*
X025998Y048747D02*
X025785Y048747D01*
X025785Y048694D01*
X025998Y048480D01*
X025998Y048427D01*
X024998Y048480D02*
X024945Y048427D01*
X024838Y048427D01*
X024785Y048480D01*
X024785Y048587D01*
X024838Y048640D01*
X024892Y048640D01*
X024998Y048587D01*
X024998Y048747D01*
X024785Y048747D01*
X023998Y048694D02*
X023945Y048747D01*
X023838Y048747D01*
X023785Y048694D01*
X023785Y048640D01*
X023838Y048587D01*
X023785Y048533D01*
X023785Y048480D01*
X023838Y048427D01*
X023945Y048427D01*
X023998Y048480D01*
X023892Y048587D02*
X023838Y048587D01*
X022998Y048640D02*
X022892Y048747D01*
X022892Y048427D01*
X022998Y048427D02*
X022785Y048427D01*
X022230Y048448D02*
X021910Y048448D01*
X021910Y048662D01*
X021964Y048817D02*
X021910Y048870D01*
X021910Y048977D01*
X021964Y049030D01*
X021910Y049185D02*
X021910Y049345D01*
X021964Y049399D01*
X022177Y049399D01*
X022230Y049345D01*
X022230Y049185D01*
X021910Y049185D01*
X022177Y049030D02*
X022230Y048977D01*
X022230Y048870D01*
X022177Y048817D01*
X021964Y048817D01*
X021857Y049553D02*
X021857Y049767D01*
X021964Y049922D02*
X021910Y049975D01*
X021910Y050082D01*
X021964Y050135D01*
X021964Y050290D02*
X021910Y050343D01*
X021910Y050450D01*
X021964Y050503D01*
X022177Y050503D01*
X022230Y050450D01*
X022230Y050343D01*
X022177Y050290D01*
X021964Y050290D01*
X022177Y050135D02*
X022230Y050082D01*
X022230Y049975D01*
X022177Y049922D01*
X021964Y049922D01*
X021910Y050658D02*
X022230Y050658D01*
X021910Y050872D01*
X022230Y050872D01*
X022767Y050894D02*
X022820Y050947D01*
X022927Y050947D01*
X022980Y050894D01*
X022767Y050894D02*
X022767Y050840D01*
X022980Y050627D01*
X022767Y050627D01*
X023767Y050787D02*
X023980Y050787D01*
X023820Y050947D01*
X023820Y050627D01*
X024767Y050680D02*
X024767Y050733D01*
X024820Y050787D01*
X024980Y050787D01*
X024980Y050680D01*
X024927Y050627D01*
X024820Y050627D01*
X024767Y050680D01*
X024873Y050894D02*
X024980Y050787D01*
X024873Y050894D02*
X024767Y050947D01*
X025767Y050894D02*
X025767Y050840D01*
X025820Y050787D01*
X025927Y050787D01*
X025980Y050840D01*
X025980Y050894D01*
X025927Y050947D01*
X025820Y050947D01*
X025767Y050894D01*
X025820Y050787D02*
X025767Y050733D01*
X025767Y050680D01*
X025820Y050627D01*
X025927Y050627D01*
X025980Y050680D01*
X025980Y050733D01*
X025927Y050787D01*
X026548Y050894D02*
X026762Y050680D01*
X026709Y050627D01*
X026602Y050627D01*
X026548Y050680D01*
X026548Y050894D01*
X026602Y050947D01*
X026709Y050947D01*
X026762Y050894D01*
X026762Y050680D01*
X026917Y050627D02*
X027130Y050627D01*
X027023Y050627D02*
X027023Y050947D01*
X027130Y050840D01*
X027548Y050840D02*
X027548Y050894D01*
X027602Y050947D01*
X027709Y050947D01*
X027762Y050894D01*
X027548Y050840D02*
X027762Y050627D01*
X027548Y050627D01*
X027917Y050627D02*
X028130Y050627D01*
X028023Y050627D02*
X028023Y050947D01*
X028130Y050840D01*
X028548Y050787D02*
X028762Y050787D01*
X028602Y050947D01*
X028602Y050627D01*
X028917Y050627D02*
X029130Y050627D01*
X029023Y050627D02*
X029023Y050947D01*
X029130Y050840D01*
X029548Y050733D02*
X029602Y050787D01*
X029762Y050787D01*
X029762Y050680D01*
X029709Y050627D01*
X029602Y050627D01*
X029548Y050680D01*
X029548Y050733D01*
X029655Y050894D02*
X029762Y050787D01*
X029655Y050894D02*
X029548Y050947D01*
X030023Y050947D02*
X030023Y050627D01*
X029917Y050627D02*
X030130Y050627D01*
X030130Y050840D02*
X030023Y050947D01*
X030548Y050894D02*
X030548Y050840D01*
X030602Y050787D01*
X030709Y050787D01*
X030762Y050840D01*
X030762Y050894D01*
X030709Y050947D01*
X030602Y050947D01*
X030548Y050894D01*
X030602Y050787D02*
X030548Y050733D01*
X030548Y050680D01*
X030602Y050627D01*
X030709Y050627D01*
X030762Y050680D01*
X030762Y050733D01*
X030709Y050787D01*
X030917Y050627D02*
X031130Y050627D01*
X031023Y050627D02*
X031023Y050947D01*
X031130Y050840D01*
X031548Y050894D02*
X031762Y050680D01*
X031709Y050627D01*
X031602Y050627D01*
X031548Y050680D01*
X031548Y050894D01*
X031602Y050947D01*
X031709Y050947D01*
X031762Y050894D01*
X031762Y050680D01*
X031917Y050627D02*
X032130Y050627D01*
X031917Y050840D01*
X031917Y050894D01*
X031970Y050947D01*
X032077Y050947D01*
X032130Y050894D01*
X032548Y050894D02*
X032602Y050947D01*
X032709Y050947D01*
X032762Y050894D01*
X032917Y050894D02*
X032970Y050947D01*
X033077Y050947D01*
X033130Y050894D01*
X032917Y050894D02*
X032917Y050840D01*
X033130Y050627D01*
X032917Y050627D01*
X032762Y050627D02*
X032548Y050840D01*
X032548Y050894D01*
X032548Y050627D02*
X032762Y050627D01*
X033548Y050787D02*
X033762Y050787D01*
X033602Y050947D01*
X033602Y050627D01*
X033917Y050627D02*
X034130Y050627D01*
X033917Y050840D01*
X033917Y050894D01*
X033970Y050947D01*
X034077Y050947D01*
X034130Y050894D01*
X034548Y050947D02*
X034655Y050894D01*
X034762Y050787D01*
X034602Y050787D01*
X034548Y050733D01*
X034548Y050680D01*
X034602Y050627D01*
X034709Y050627D01*
X034762Y050680D01*
X034762Y050787D01*
X034917Y050840D02*
X035130Y050627D01*
X034917Y050627D01*
X034917Y050840D02*
X034917Y050894D01*
X034970Y050947D01*
X035077Y050947D01*
X035130Y050894D01*
X035548Y050894D02*
X035548Y050840D01*
X035602Y050787D01*
X035709Y050787D01*
X035762Y050840D01*
X035762Y050894D01*
X035709Y050947D01*
X035602Y050947D01*
X035548Y050894D01*
X035602Y050787D02*
X035548Y050733D01*
X035548Y050680D01*
X035602Y050627D01*
X035709Y050627D01*
X035762Y050680D01*
X035762Y050733D01*
X035709Y050787D01*
X035917Y050840D02*
X035917Y050894D01*
X035970Y050947D01*
X036077Y050947D01*
X036130Y050894D01*
X035917Y050840D02*
X036130Y050627D01*
X035917Y050627D01*
X036548Y050680D02*
X036548Y050894D01*
X036762Y050680D01*
X036709Y050627D01*
X036602Y050627D01*
X036548Y050680D01*
X036548Y050894D02*
X036602Y050947D01*
X036709Y050947D01*
X036762Y050894D01*
X036762Y050680D01*
X036917Y050680D02*
X036970Y050627D01*
X037077Y050627D01*
X037130Y050680D01*
X037023Y050787D02*
X036970Y050787D01*
X036917Y050733D01*
X036917Y050680D01*
X036970Y050787D02*
X036917Y050840D01*
X036917Y050894D01*
X036970Y050947D01*
X037077Y050947D01*
X037130Y050894D01*
X037548Y050894D02*
X037602Y050947D01*
X037709Y050947D01*
X037762Y050894D01*
X037917Y050894D02*
X037917Y050840D01*
X037970Y050787D01*
X037917Y050733D01*
X037917Y050680D01*
X037970Y050627D01*
X038077Y050627D01*
X038130Y050680D01*
X038023Y050787D02*
X037970Y050787D01*
X037917Y050894D02*
X037970Y050947D01*
X038077Y050947D01*
X038130Y050894D01*
X038548Y050787D02*
X038762Y050787D01*
X038602Y050947D01*
X038602Y050627D01*
X038917Y050680D02*
X038970Y050627D01*
X039077Y050627D01*
X039130Y050680D01*
X039023Y050787D02*
X038970Y050787D01*
X038917Y050733D01*
X038917Y050680D01*
X038970Y050787D02*
X038917Y050840D01*
X038917Y050894D01*
X038970Y050947D01*
X039077Y050947D01*
X039130Y050894D01*
X039548Y050947D02*
X039655Y050894D01*
X039762Y050787D01*
X039602Y050787D01*
X039548Y050733D01*
X039548Y050680D01*
X039602Y050627D01*
X039709Y050627D01*
X039762Y050680D01*
X039762Y050787D01*
X039917Y050840D02*
X039970Y050787D01*
X039917Y050733D01*
X039917Y050680D01*
X039970Y050627D01*
X040077Y050627D01*
X040130Y050680D01*
X040023Y050787D02*
X039970Y050787D01*
X039917Y050840D02*
X039917Y050894D01*
X039970Y050947D01*
X040077Y050947D01*
X040130Y050894D01*
X040548Y050894D02*
X040548Y050840D01*
X040602Y050787D01*
X040709Y050787D01*
X040762Y050840D01*
X040762Y050894D01*
X040709Y050947D01*
X040602Y050947D01*
X040548Y050894D01*
X040602Y050787D02*
X040548Y050733D01*
X040548Y050680D01*
X040602Y050627D01*
X040709Y050627D01*
X040762Y050680D01*
X040762Y050733D01*
X040709Y050787D01*
X040917Y050840D02*
X040970Y050787D01*
X040917Y050733D01*
X040917Y050680D01*
X040970Y050627D01*
X041077Y050627D01*
X041130Y050680D01*
X041023Y050787D02*
X040970Y050787D01*
X040917Y050840D02*
X040917Y050894D01*
X040970Y050947D01*
X041077Y050947D01*
X041130Y050894D01*
X041548Y050894D02*
X041762Y050680D01*
X041709Y050627D01*
X041602Y050627D01*
X041548Y050680D01*
X041548Y050894D01*
X041602Y050947D01*
X041709Y050947D01*
X041762Y050894D01*
X041762Y050680D01*
X041917Y050787D02*
X042130Y050787D01*
X041970Y050947D01*
X041970Y050627D01*
X037762Y050627D02*
X037548Y050840D01*
X037548Y050894D01*
X037548Y050627D02*
X037762Y050627D01*
X027380Y043287D02*
X027380Y042967D01*
X027273Y043073D01*
X027167Y042967D01*
X027167Y043287D01*
X027012Y043287D02*
X026905Y043287D01*
X026959Y043287D02*
X026959Y042967D01*
X027012Y042967D02*
X026905Y042967D01*
X026766Y042967D02*
X026766Y043287D01*
X026553Y043287D01*
X026398Y043287D02*
X026291Y043287D01*
X026345Y043287D02*
X026345Y042967D01*
X026398Y042967D02*
X026291Y042967D01*
X026252Y042607D02*
X026038Y042287D01*
X026038Y042607D01*
X025884Y042607D02*
X025723Y042607D01*
X025670Y042554D01*
X025670Y042340D01*
X025723Y042287D01*
X025884Y042287D01*
X025884Y042607D01*
X026252Y042607D02*
X026252Y042287D01*
X026407Y042340D02*
X026407Y042447D01*
X026513Y042447D01*
X026407Y042554D02*
X026460Y042607D01*
X026567Y042607D01*
X026620Y042554D01*
X026620Y042340D01*
X026567Y042287D01*
X026460Y042287D01*
X026407Y042340D01*
X026460Y041607D02*
X026620Y041607D01*
X026620Y041287D01*
X026460Y041287D01*
X026407Y041340D01*
X026407Y041554D01*
X026460Y041607D01*
X026252Y041607D02*
X026252Y041287D01*
X026252Y041393D02*
X026092Y041393D01*
X026038Y041447D01*
X026038Y041554D01*
X026092Y041607D01*
X026252Y041607D01*
X025884Y041447D02*
X025670Y041447D01*
X025723Y041287D02*
X025723Y041607D01*
X025884Y041447D01*
X026038Y040607D02*
X026038Y040287D01*
X026252Y040287D02*
X026252Y040607D01*
X026145Y040500D01*
X026038Y040607D01*
X025884Y040447D02*
X025670Y040447D01*
X025723Y040607D02*
X025884Y040447D01*
X025723Y040287D02*
X025723Y040607D01*
X026407Y040554D02*
X026460Y040607D01*
X026620Y040607D01*
X026620Y040287D01*
X026460Y040287D01*
X026407Y040340D01*
X026407Y040554D01*
X026460Y039607D02*
X026407Y039554D01*
X026407Y039500D01*
X026460Y039447D01*
X026407Y039393D01*
X026407Y039340D01*
X026460Y039287D01*
X026567Y039287D01*
X026620Y039340D01*
X026513Y039447D02*
X026460Y039447D01*
X026460Y039607D02*
X026567Y039607D01*
X026620Y039554D01*
X026252Y039340D02*
X026199Y039340D01*
X026199Y039287D01*
X026252Y039287D01*
X026252Y039340D01*
X026068Y039340D02*
X026014Y039287D01*
X025908Y039287D01*
X025854Y039340D01*
X025854Y039393D01*
X025908Y039447D01*
X025961Y039447D01*
X025908Y039447D02*
X025854Y039500D01*
X025854Y039554D01*
X025908Y039607D01*
X026014Y039607D01*
X026068Y039554D01*
X025699Y039607D02*
X025699Y039393D01*
X025593Y039287D01*
X025486Y039393D01*
X025486Y039607D01*
X025331Y039287D02*
X025118Y039607D01*
X024963Y039607D02*
X024963Y039447D01*
X024856Y039500D01*
X024803Y039500D01*
X024749Y039447D01*
X024749Y039340D01*
X024803Y039287D01*
X024909Y039287D01*
X024963Y039340D01*
X024963Y039607D02*
X024749Y039607D01*
X024594Y039607D02*
X024594Y039393D01*
X024488Y039287D01*
X024381Y039393D01*
X024381Y039607D01*
X026660Y043127D02*
X026766Y043127D01*
X013330Y042683D02*
X013330Y042576D01*
X013277Y042523D01*
X013330Y042368D02*
X013330Y042155D01*
X013330Y042261D02*
X013010Y042261D01*
X013010Y042523D02*
X013224Y042737D01*
X013277Y042737D01*
X013330Y042683D01*
X013010Y042737D02*
X013010Y042523D01*
X013064Y042000D02*
X013010Y041947D01*
X013010Y041840D01*
X013064Y041786D01*
X013170Y041840D02*
X013170Y041947D01*
X013117Y042000D01*
X013064Y042000D01*
X013170Y041840D02*
X013224Y041786D01*
X013277Y041786D01*
X013330Y041840D01*
X013330Y041947D01*
X013277Y042000D01*
X013277Y041632D02*
X013330Y041578D01*
X013330Y041471D01*
X013277Y041418D01*
X013064Y041418D01*
X013010Y041471D01*
X013010Y041578D01*
X013064Y041632D01*
X013277Y041632D01*
X013330Y041263D02*
X013010Y041263D01*
X013170Y041263D02*
X013170Y041050D01*
X013010Y041050D02*
X013330Y041050D01*
X012957Y040895D02*
X012957Y040682D01*
X013064Y040527D02*
X013010Y040473D01*
X013010Y040313D01*
X013330Y040313D01*
X013330Y040473D01*
X013277Y040527D01*
X013224Y040527D01*
X013170Y040473D01*
X013170Y040313D01*
X013170Y040473D02*
X013117Y040527D01*
X013064Y040527D01*
X013064Y040158D02*
X013010Y040105D01*
X013010Y039998D01*
X013064Y039945D01*
X013170Y039998D02*
X013170Y040105D01*
X013117Y040158D01*
X013064Y040158D01*
X013170Y039998D02*
X013224Y039945D01*
X013277Y039945D01*
X013330Y039998D01*
X013330Y040105D01*
X013277Y040158D01*
X013330Y039790D02*
X013064Y039790D01*
X013010Y039737D01*
X013010Y039630D01*
X013064Y039577D01*
X013330Y039577D01*
X013277Y038537D02*
X013224Y038537D01*
X013170Y038483D01*
X013117Y038537D01*
X013064Y038537D01*
X013010Y038483D01*
X013010Y038376D01*
X013064Y038323D01*
X013170Y038430D02*
X013170Y038483D01*
X013277Y038537D02*
X013330Y038483D01*
X013330Y038376D01*
X013277Y038323D01*
X013330Y038168D02*
X013330Y037955D01*
X013330Y038061D02*
X013010Y038061D01*
X013064Y037800D02*
X013010Y037747D01*
X013010Y037640D01*
X013064Y037586D01*
X013170Y037640D02*
X013170Y037747D01*
X013117Y037800D01*
X013064Y037800D01*
X013170Y037640D02*
X013224Y037586D01*
X013277Y037586D01*
X013330Y037640D01*
X013330Y037747D01*
X013277Y037800D01*
X013277Y037432D02*
X013330Y037378D01*
X013330Y037271D01*
X013277Y037218D01*
X013064Y037218D01*
X013010Y037271D01*
X013010Y037378D01*
X013064Y037432D01*
X013277Y037432D01*
X013330Y037063D02*
X013010Y037063D01*
X013170Y037063D02*
X013170Y036850D01*
X013010Y036850D02*
X013330Y036850D01*
X012957Y036695D02*
X012957Y036482D01*
X013064Y036327D02*
X013010Y036273D01*
X013010Y036113D01*
X013330Y036113D01*
X013330Y036273D01*
X013277Y036327D01*
X013224Y036327D01*
X013170Y036273D01*
X013170Y036113D01*
X013170Y036273D02*
X013117Y036327D01*
X013064Y036327D01*
X013064Y035958D02*
X013010Y035905D01*
X013010Y035798D01*
X013064Y035745D01*
X013170Y035798D02*
X013170Y035905D01*
X013117Y035958D01*
X013064Y035958D01*
X013170Y035798D02*
X013224Y035745D01*
X013277Y035745D01*
X013330Y035798D01*
X013330Y035905D01*
X013277Y035958D01*
X013330Y035590D02*
X013064Y035590D01*
X013010Y035537D01*
X013010Y035430D01*
X013064Y035377D01*
X013330Y035377D01*
X013277Y032950D02*
X013330Y032897D01*
X013330Y032790D01*
X013277Y032736D01*
X013064Y032736D01*
X013010Y032790D01*
X013010Y032897D01*
X013064Y032950D01*
X013170Y032950D01*
X013170Y032843D01*
X013330Y032582D02*
X013330Y032368D01*
X013330Y032475D02*
X013010Y032475D01*
X013064Y032213D02*
X013277Y032213D01*
X013330Y032160D01*
X013330Y032053D01*
X013277Y032000D01*
X013064Y032000D01*
X013010Y032053D01*
X013010Y032160D01*
X013064Y032213D01*
X012957Y031845D02*
X012957Y031632D01*
X013064Y031477D02*
X013010Y031423D01*
X013010Y031263D01*
X013330Y031263D01*
X013330Y031423D01*
X013277Y031477D01*
X013224Y031477D01*
X013170Y031423D01*
X013170Y031263D01*
X013170Y031423D02*
X013117Y031477D01*
X013064Y031477D01*
X013064Y031108D02*
X013010Y031055D01*
X013010Y030948D01*
X013064Y030895D01*
X013170Y030948D02*
X013170Y031055D01*
X013117Y031108D01*
X013064Y031108D01*
X013170Y030948D02*
X013224Y030895D01*
X013277Y030895D01*
X013330Y030948D01*
X013330Y031055D01*
X013277Y031108D01*
X013330Y030740D02*
X013064Y030740D01*
X013010Y030687D01*
X013010Y030580D01*
X013064Y030527D01*
X013330Y030527D01*
X020110Y026427D02*
X020110Y026213D01*
X020324Y026427D01*
X020377Y026427D01*
X020430Y026373D01*
X020430Y026267D01*
X020377Y026213D01*
X020430Y025952D02*
X020110Y025952D01*
X020110Y026058D02*
X020110Y025845D01*
X020324Y025845D02*
X020430Y025952D01*
X020377Y025690D02*
X020270Y025690D01*
X020217Y025637D01*
X020217Y025477D01*
X020110Y025477D02*
X020430Y025477D01*
X020430Y025637D01*
X020377Y025690D01*
X019927Y025222D02*
X019820Y025222D01*
X019767Y025168D01*
X019767Y025008D01*
X019660Y025008D02*
X019980Y025008D01*
X019980Y025168D01*
X019927Y025222D01*
X019767Y025115D02*
X019660Y025222D01*
X019660Y024853D02*
X019980Y024853D01*
X019980Y024640D02*
X019660Y024640D01*
X019767Y024747D01*
X019660Y024853D01*
X019820Y024485D02*
X019767Y024432D01*
X019767Y024272D01*
X019660Y024272D02*
X019980Y024272D01*
X019980Y024432D01*
X019927Y024485D01*
X019820Y024485D01*
X019607Y024117D02*
X019607Y023903D01*
X019714Y023749D02*
X019820Y023749D01*
X019820Y023642D01*
X019714Y023749D02*
X019660Y023695D01*
X019660Y023588D01*
X019714Y023535D01*
X019927Y023535D01*
X019980Y023588D01*
X019980Y023695D01*
X019927Y023749D01*
X019980Y023380D02*
X019980Y023167D01*
X019980Y023273D02*
X019660Y023273D01*
X019714Y023012D02*
X019927Y023012D01*
X019980Y022959D01*
X019980Y022852D01*
X019927Y022798D01*
X019714Y022798D01*
X019660Y022852D01*
X019660Y022959D01*
X019714Y023012D01*
X019607Y022644D02*
X019607Y022430D01*
X019767Y022275D02*
X019980Y022275D01*
X019767Y022275D02*
X019660Y022169D01*
X019767Y022062D01*
X019980Y022062D01*
X019980Y021907D02*
X019980Y021693D01*
X019820Y021693D01*
X019874Y021800D01*
X019874Y021854D01*
X019820Y021907D01*
X019714Y021907D01*
X019660Y021854D01*
X019660Y021747D01*
X019714Y021693D01*
X019820Y021539D02*
X019820Y021325D01*
X019714Y021432D02*
X019927Y021432D01*
X023764Y017308D02*
X023710Y017255D01*
X023710Y017148D01*
X023764Y017095D01*
X023870Y017095D02*
X023924Y017202D01*
X023924Y017255D01*
X023870Y017308D01*
X023764Y017308D01*
X023870Y017095D02*
X024030Y017095D01*
X024030Y017308D01*
X023977Y016940D02*
X023870Y016940D01*
X023817Y016887D01*
X023817Y016727D01*
X023710Y016727D02*
X024030Y016727D01*
X024030Y016887D01*
X023977Y016940D01*
X024110Y016472D02*
X024324Y016472D01*
X024430Y016365D01*
X024324Y016258D01*
X024110Y016258D01*
X024270Y016258D02*
X024270Y016472D01*
X024217Y016103D02*
X024430Y016103D01*
X024430Y015890D02*
X024217Y015890D01*
X024110Y015997D01*
X024217Y016103D01*
X024164Y015735D02*
X024110Y015682D01*
X024110Y015575D01*
X024164Y015522D01*
X024377Y015735D01*
X024164Y015735D01*
X024377Y015735D02*
X024430Y015682D01*
X024430Y015575D01*
X024377Y015522D01*
X024164Y015522D01*
X024164Y015391D02*
X024110Y015391D01*
X024110Y015338D01*
X024164Y015338D01*
X024164Y015391D01*
X024164Y015183D02*
X024110Y015129D01*
X024110Y015023D01*
X024164Y014969D01*
X024270Y015076D02*
X024270Y015129D01*
X024217Y015183D01*
X024164Y015183D01*
X024270Y015129D02*
X024324Y015183D01*
X024377Y015183D01*
X024430Y015129D01*
X024430Y015023D01*
X024377Y014969D01*
X025227Y015153D02*
X025227Y015367D01*
X025334Y015522D02*
X025280Y015575D01*
X025280Y015682D01*
X025334Y015735D01*
X025387Y015890D02*
X025387Y016050D01*
X025440Y016103D01*
X025547Y016103D01*
X025600Y016050D01*
X025600Y015890D01*
X025280Y015890D01*
X025547Y015735D02*
X025600Y015682D01*
X025600Y015575D01*
X025547Y015522D01*
X025334Y015522D01*
X025387Y014999D02*
X025600Y014999D01*
X025387Y014999D02*
X025280Y014892D01*
X025387Y014785D01*
X025600Y014785D01*
X025547Y014630D02*
X025600Y014577D01*
X025600Y014470D01*
X025547Y014417D01*
X025547Y014630D02*
X025494Y014630D01*
X025280Y014417D01*
X025280Y014630D01*
X025280Y014286D02*
X025280Y014233D01*
X025334Y014233D01*
X025334Y014286D01*
X025280Y014286D01*
X025280Y014078D02*
X025280Y013864D01*
X025280Y013971D02*
X025600Y013971D01*
X025494Y013864D01*
X026227Y013894D02*
X026227Y013680D01*
X026387Y013525D02*
X026280Y013419D01*
X026387Y013312D01*
X026600Y013312D01*
X026547Y013157D02*
X026494Y013157D01*
X026440Y013104D01*
X026387Y013157D01*
X026334Y013157D01*
X026280Y013104D01*
X026280Y012997D01*
X026334Y012943D01*
X026334Y012813D02*
X026280Y012813D01*
X026280Y012759D01*
X026334Y012759D01*
X026334Y012813D01*
X026334Y012605D02*
X026280Y012551D01*
X026280Y012444D01*
X026334Y012391D01*
X026440Y012498D02*
X026440Y012551D01*
X026387Y012605D01*
X026334Y012605D01*
X026440Y012551D02*
X026494Y012605D01*
X026547Y012605D01*
X026600Y012551D01*
X026600Y012444D01*
X026547Y012391D01*
X026547Y012943D02*
X026600Y012997D01*
X026600Y013104D01*
X026547Y013157D01*
X026440Y013104D02*
X026440Y013050D01*
X026387Y013525D02*
X026600Y013525D01*
X026600Y014048D02*
X026387Y014048D01*
X026280Y014155D01*
X026387Y014262D01*
X026600Y014262D01*
X026600Y014417D02*
X026600Y014577D01*
X026547Y014630D01*
X026334Y014630D01*
X026280Y014577D01*
X026280Y014417D01*
X026600Y014417D01*
X026600Y014785D02*
X026280Y014785D01*
X026280Y014945D01*
X026334Y014999D01*
X026547Y014999D01*
X026600Y014945D01*
X026600Y014785D01*
X026227Y015153D02*
X026227Y015367D01*
X026280Y015522D02*
X026600Y015522D01*
X026600Y015682D01*
X026547Y015735D01*
X026440Y015735D01*
X026387Y015682D01*
X026387Y015522D01*
X026387Y015628D02*
X026280Y015735D01*
X026280Y015997D02*
X026600Y015997D01*
X026600Y016103D02*
X026600Y015890D01*
X026547Y016258D02*
X026334Y016258D01*
X026280Y016312D01*
X026280Y016418D01*
X026334Y016472D01*
X026547Y016472D02*
X026600Y016418D01*
X026600Y016312D01*
X026547Y016258D01*
X026710Y016727D02*
X027030Y016727D01*
X027030Y016887D01*
X026977Y016940D01*
X026870Y016940D01*
X026817Y016887D01*
X026817Y016727D01*
X026710Y017095D02*
X026924Y017308D01*
X026977Y017308D01*
X027030Y017255D01*
X027030Y017148D01*
X026977Y017095D01*
X026710Y017095D02*
X026710Y017308D01*
X026030Y017255D02*
X025977Y017308D01*
X025924Y017308D01*
X025870Y017255D01*
X025817Y017308D01*
X025764Y017308D01*
X025710Y017255D01*
X025710Y017148D01*
X025764Y017095D01*
X025870Y017202D02*
X025870Y017255D01*
X026030Y017255D02*
X026030Y017148D01*
X025977Y017095D01*
X025977Y016940D02*
X025870Y016940D01*
X025817Y016887D01*
X025817Y016727D01*
X025710Y016727D02*
X026030Y016727D01*
X026030Y016887D01*
X025977Y016940D01*
X025600Y016472D02*
X025334Y016472D01*
X025280Y016418D01*
X025280Y016312D01*
X025334Y016258D01*
X025600Y016258D01*
X025030Y016727D02*
X025030Y016887D01*
X024977Y016940D01*
X024870Y016940D01*
X024817Y016887D01*
X024817Y016727D01*
X024710Y016727D02*
X025030Y016727D01*
X024870Y017095D02*
X024870Y017308D01*
X024710Y017255D02*
X025030Y017255D01*
X024870Y017095D01*
X023580Y016472D02*
X023580Y016258D01*
X023580Y016365D02*
X023260Y016365D01*
X023314Y016103D02*
X023580Y016103D01*
X023580Y015890D02*
X023314Y015890D01*
X023260Y015943D01*
X023260Y016050D01*
X023314Y016103D01*
X023314Y015735D02*
X023527Y015735D01*
X023580Y015682D01*
X023580Y015575D01*
X023527Y015522D01*
X023314Y015522D01*
X023260Y015575D01*
X023260Y015682D01*
X023314Y015735D01*
X023314Y015367D02*
X023260Y015313D01*
X023260Y015207D01*
X023314Y015153D01*
X023420Y015207D02*
X023420Y015313D01*
X023367Y015367D01*
X023314Y015367D01*
X023420Y015207D02*
X023474Y015153D01*
X023527Y015153D01*
X023580Y015207D01*
X023580Y015313D01*
X023527Y015367D01*
X023527Y014999D02*
X023420Y014999D01*
X023367Y014945D01*
X023367Y014785D01*
X023260Y014785D02*
X023580Y014785D01*
X023580Y014945D01*
X023527Y014999D01*
X023580Y014646D02*
X023580Y014539D01*
X023580Y014593D02*
X023260Y014593D01*
X023260Y014646D02*
X023260Y014539D01*
X023207Y014385D02*
X023207Y014171D01*
X023367Y014016D02*
X023580Y014016D01*
X023367Y014016D02*
X023260Y013910D01*
X023367Y013803D01*
X023580Y013803D01*
X023580Y013648D02*
X023580Y013435D01*
X023420Y013435D01*
X023474Y013541D01*
X023474Y013595D01*
X023420Y013648D01*
X023314Y013648D01*
X023260Y013595D01*
X023260Y013488D01*
X023314Y013435D01*
X020377Y014628D02*
X020164Y014628D01*
X020270Y014522D02*
X020270Y014735D01*
X020270Y014890D02*
X020324Y014997D01*
X020324Y015050D01*
X020270Y015104D01*
X020164Y015104D01*
X020110Y015050D01*
X020110Y014943D01*
X020164Y014890D01*
X020270Y014890D02*
X020430Y014890D01*
X020430Y015104D01*
X020430Y015258D02*
X020217Y015258D01*
X020110Y015365D01*
X020217Y015472D01*
X020430Y015472D01*
X019430Y015472D02*
X019217Y015472D01*
X019110Y015365D01*
X019217Y015258D01*
X019430Y015258D01*
X019377Y015103D02*
X019324Y015103D01*
X019270Y015050D01*
X019217Y015103D01*
X019164Y015103D01*
X019110Y015050D01*
X019110Y014943D01*
X019164Y014890D01*
X019164Y014759D02*
X019110Y014759D01*
X019110Y014706D01*
X019164Y014706D01*
X019164Y014759D01*
X019164Y014551D02*
X019110Y014498D01*
X019110Y014391D01*
X019164Y014338D01*
X019270Y014444D02*
X019270Y014498D01*
X019217Y014551D01*
X019164Y014551D01*
X019270Y014498D02*
X019324Y014551D01*
X019377Y014551D01*
X019430Y014498D01*
X019430Y014391D01*
X019377Y014338D01*
X019377Y014890D02*
X019430Y014943D01*
X019430Y015050D01*
X019377Y015103D01*
X019270Y015050D02*
X019270Y014997D01*
X018430Y015013D02*
X018430Y015119D01*
X018430Y015066D02*
X018110Y015066D01*
X018110Y015013D02*
X018110Y015119D01*
X018110Y015258D02*
X018430Y015258D01*
X018110Y015472D01*
X018430Y015472D01*
X018430Y014858D02*
X018217Y014858D01*
X018110Y014751D01*
X018217Y014644D01*
X018430Y014644D01*
X017430Y014735D02*
X017430Y014522D01*
X017110Y014522D01*
X017110Y014735D01*
X017110Y014890D02*
X017430Y015104D01*
X017430Y015258D02*
X017430Y015472D01*
X017430Y015365D02*
X017110Y015365D01*
X017110Y015104D02*
X017430Y014890D01*
X017270Y014628D02*
X017270Y014522D01*
X017217Y014367D02*
X017430Y014367D01*
X017217Y014367D02*
X017110Y014260D01*
X017217Y014153D01*
X017430Y014153D01*
X017430Y013999D02*
X017430Y013785D01*
X017270Y013785D01*
X017324Y013892D01*
X017324Y013945D01*
X017270Y013999D01*
X017164Y013999D01*
X017110Y013945D01*
X017110Y013838D01*
X017164Y013785D01*
X016430Y014522D02*
X016110Y014522D01*
X016110Y014682D01*
X016164Y014735D01*
X016217Y014735D01*
X016270Y014682D01*
X016270Y014522D01*
X016270Y014682D02*
X016324Y014735D01*
X016377Y014735D01*
X016430Y014682D01*
X016430Y014522D01*
X016324Y014890D02*
X016430Y014997D01*
X016324Y015104D01*
X016110Y015104D01*
X016270Y015104D02*
X016270Y014890D01*
X016324Y014890D02*
X016110Y014890D01*
X016110Y015365D02*
X016430Y015365D01*
X016430Y015258D02*
X016430Y015472D01*
X015530Y013945D02*
X015530Y013732D01*
X015530Y013839D02*
X015210Y013839D01*
X015210Y013577D02*
X015424Y013577D01*
X015530Y013470D01*
X015424Y013364D01*
X015210Y013364D01*
X015370Y013364D02*
X015370Y013577D01*
X015317Y013209D02*
X015264Y013209D01*
X015210Y013155D01*
X015210Y012995D01*
X015530Y012995D01*
X015530Y013155D01*
X015477Y013209D01*
X015424Y013209D01*
X015370Y013155D01*
X015370Y012995D01*
X015370Y013155D02*
X015317Y013209D01*
X015157Y012841D02*
X015157Y012627D01*
X015264Y012472D02*
X015477Y012472D01*
X015530Y012419D01*
X015530Y012312D01*
X015477Y012259D01*
X015264Y012259D01*
X015210Y012312D01*
X015210Y012419D01*
X015264Y012472D01*
X015370Y012104D02*
X015317Y012051D01*
X015317Y011890D01*
X015210Y011890D02*
X015530Y011890D01*
X015530Y012051D01*
X015477Y012104D01*
X015370Y012104D01*
X015210Y011752D02*
X015210Y011645D01*
X015210Y011698D02*
X015530Y011698D01*
X015530Y011645D02*
X015530Y011752D01*
X015210Y011490D02*
X015210Y011277D01*
X015530Y011277D01*
X013741Y012065D02*
X013741Y012205D01*
X013670Y012276D01*
X013600Y012276D01*
X013530Y012205D01*
X013460Y012276D01*
X013390Y012276D01*
X013320Y012205D01*
X013320Y012065D01*
X013390Y011995D01*
X013530Y012135D02*
X013530Y012205D01*
X013670Y011995D02*
X013741Y012065D01*
X013390Y012456D02*
X013390Y012526D01*
X013320Y012526D01*
X013320Y012456D01*
X013390Y012456D01*
X013390Y012686D02*
X013320Y012686D01*
X013390Y012686D02*
X013670Y012966D01*
X013741Y012966D01*
X013741Y012686D01*
X013741Y013146D02*
X013460Y013146D01*
X013320Y013286D01*
X013460Y013426D01*
X013741Y013426D01*
X022548Y007894D02*
X022548Y007680D01*
X022602Y007627D01*
X022709Y007627D01*
X022762Y007680D01*
X022709Y007787D02*
X022548Y007787D01*
X022548Y007894D02*
X022602Y007947D01*
X022709Y007947D01*
X022762Y007894D01*
X022762Y007840D01*
X022709Y007787D01*
X022917Y007840D02*
X022970Y007787D01*
X022917Y007733D01*
X022917Y007680D01*
X022970Y007627D01*
X023077Y007627D01*
X023130Y007680D01*
X023023Y007787D02*
X022970Y007787D01*
X022917Y007840D02*
X022917Y007894D01*
X022970Y007947D01*
X023077Y007947D01*
X023130Y007894D01*
X023548Y007894D02*
X023762Y007680D01*
X023762Y007627D01*
X023917Y007680D02*
X023970Y007627D01*
X024077Y007627D01*
X024130Y007680D01*
X024023Y007787D02*
X023970Y007787D01*
X023917Y007733D01*
X023917Y007680D01*
X023970Y007787D02*
X023917Y007840D01*
X023917Y007894D01*
X023970Y007947D01*
X024077Y007947D01*
X024130Y007894D01*
X023762Y007947D02*
X023548Y007947D01*
X023548Y007894D01*
X024548Y007947D02*
X024762Y007947D01*
X024762Y007787D01*
X024655Y007840D01*
X024602Y007840D01*
X024548Y007787D01*
X024548Y007680D01*
X024602Y007627D01*
X024709Y007627D01*
X024762Y007680D01*
X024917Y007680D02*
X024970Y007627D01*
X025077Y007627D01*
X025130Y007680D01*
X025023Y007787D02*
X024970Y007787D01*
X024917Y007733D01*
X024917Y007680D01*
X024970Y007787D02*
X024917Y007840D01*
X024917Y007894D01*
X024970Y007947D01*
X025077Y007947D01*
X025130Y007894D01*
X025548Y007894D02*
X025548Y007840D01*
X025602Y007787D01*
X025548Y007733D01*
X025548Y007680D01*
X025602Y007627D01*
X025709Y007627D01*
X025762Y007680D01*
X025655Y007787D02*
X025602Y007787D01*
X025548Y007894D02*
X025602Y007947D01*
X025709Y007947D01*
X025762Y007894D01*
X025917Y007894D02*
X025917Y007840D01*
X025970Y007787D01*
X025917Y007733D01*
X025917Y007680D01*
X025970Y007627D01*
X026077Y007627D01*
X026130Y007680D01*
X026023Y007787D02*
X025970Y007787D01*
X025917Y007894D02*
X025970Y007947D01*
X026077Y007947D01*
X026130Y007894D01*
X026548Y007627D02*
X026762Y007627D01*
X026655Y007627D02*
X026655Y007947D01*
X026762Y007840D01*
X026917Y007840D02*
X026970Y007787D01*
X026917Y007733D01*
X026917Y007680D01*
X026970Y007627D01*
X027077Y007627D01*
X027130Y007680D01*
X027023Y007787D02*
X026970Y007787D01*
X026917Y007840D02*
X026917Y007894D01*
X026970Y007947D01*
X027077Y007947D01*
X027130Y007894D01*
X027548Y007894D02*
X027602Y007947D01*
X027709Y007947D01*
X027762Y007894D01*
X027762Y007840D01*
X027709Y007787D01*
X027548Y007787D01*
X027548Y007680D02*
X027548Y007894D01*
X027548Y007680D02*
X027602Y007627D01*
X027709Y007627D01*
X027762Y007680D01*
X027917Y007627D02*
X028130Y007627D01*
X027917Y007840D01*
X027917Y007894D01*
X027970Y007947D01*
X028077Y007947D01*
X028130Y007894D01*
X028548Y007894D02*
X028762Y007680D01*
X028762Y007627D01*
X028917Y007627D02*
X029130Y007627D01*
X028917Y007840D01*
X028917Y007894D01*
X028970Y007947D01*
X029077Y007947D01*
X029130Y007894D01*
X028762Y007947D02*
X028548Y007947D01*
X028548Y007894D01*
X029548Y007947D02*
X029762Y007947D01*
X029762Y007787D01*
X029655Y007840D01*
X029602Y007840D01*
X029548Y007787D01*
X029548Y007680D01*
X029602Y007627D01*
X029709Y007627D01*
X029762Y007680D01*
X029917Y007627D02*
X030130Y007627D01*
X029917Y007840D01*
X029917Y007894D01*
X029970Y007947D01*
X030077Y007947D01*
X030130Y007894D01*
X030548Y007894D02*
X030548Y007840D01*
X030602Y007787D01*
X030548Y007733D01*
X030548Y007680D01*
X030602Y007627D01*
X030709Y007627D01*
X030762Y007680D01*
X030655Y007787D02*
X030602Y007787D01*
X030548Y007894D02*
X030602Y007947D01*
X030709Y007947D01*
X030762Y007894D01*
X030917Y007894D02*
X030970Y007947D01*
X031077Y007947D01*
X031130Y007894D01*
X030917Y007894D02*
X030917Y007840D01*
X031130Y007627D01*
X030917Y007627D01*
X031548Y007627D02*
X031762Y007627D01*
X031655Y007627D02*
X031655Y007947D01*
X031762Y007840D01*
X031917Y007840D02*
X031917Y007894D01*
X031970Y007947D01*
X032077Y007947D01*
X032130Y007894D01*
X031917Y007840D02*
X032130Y007627D01*
X031917Y007627D01*
X032548Y007680D02*
X032548Y007894D01*
X032602Y007947D01*
X032709Y007947D01*
X032762Y007894D01*
X032762Y007840D01*
X032709Y007787D01*
X032548Y007787D01*
X032548Y007680D02*
X032602Y007627D01*
X032709Y007627D01*
X032762Y007680D01*
X032917Y007627D02*
X033130Y007627D01*
X033023Y007627D02*
X033023Y007947D01*
X033130Y007840D01*
X033548Y007894D02*
X033762Y007680D01*
X033762Y007627D01*
X033917Y007627D02*
X034130Y007627D01*
X034023Y007627D02*
X034023Y007947D01*
X034130Y007840D01*
X033762Y007947D02*
X033548Y007947D01*
X033548Y007894D01*
X034548Y007947D02*
X034762Y007947D01*
X034762Y007787D01*
X034655Y007840D01*
X034602Y007840D01*
X034548Y007787D01*
X034548Y007680D01*
X034602Y007627D01*
X034709Y007627D01*
X034762Y007680D01*
X034917Y007627D02*
X035130Y007627D01*
X035023Y007627D02*
X035023Y007947D01*
X035130Y007840D01*
X035548Y007840D02*
X035602Y007787D01*
X035548Y007733D01*
X035548Y007680D01*
X035602Y007627D01*
X035709Y007627D01*
X035762Y007680D01*
X035655Y007787D02*
X035602Y007787D01*
X035548Y007840D02*
X035548Y007894D01*
X035602Y007947D01*
X035709Y007947D01*
X035762Y007894D01*
X036023Y007947D02*
X036023Y007627D01*
X035917Y007627D02*
X036130Y007627D01*
X036130Y007840D02*
X036023Y007947D01*
X036548Y007627D02*
X036762Y007627D01*
X036655Y007627D02*
X036655Y007947D01*
X036762Y007840D01*
X036917Y007627D02*
X037130Y007627D01*
X037023Y007627D02*
X037023Y007947D01*
X037130Y007840D01*
X037717Y007787D02*
X037877Y007787D01*
X037930Y007840D01*
X037930Y007894D01*
X037877Y007947D01*
X037770Y007947D01*
X037717Y007894D01*
X037717Y007680D01*
X037770Y007627D01*
X037877Y007627D01*
X037930Y007680D01*
X038717Y007894D02*
X038930Y007680D01*
X038930Y007627D01*
X038930Y007947D02*
X038717Y007947D01*
X038717Y007894D01*
X039717Y007947D02*
X039930Y007947D01*
X039930Y007787D01*
X039823Y007840D01*
X039770Y007840D01*
X039717Y007787D01*
X039717Y007680D01*
X039770Y007627D01*
X039877Y007627D01*
X039930Y007680D01*
X040717Y007680D02*
X040770Y007627D01*
X040877Y007627D01*
X040930Y007680D01*
X040823Y007787D02*
X040770Y007787D01*
X040717Y007733D01*
X040717Y007680D01*
X040770Y007787D02*
X040717Y007840D01*
X040717Y007894D01*
X040770Y007947D01*
X040877Y007947D01*
X040930Y007894D01*
X041717Y007627D02*
X041930Y007627D01*
X041823Y007627D02*
X041823Y007947D01*
X041930Y007840D01*
X042410Y007709D02*
X042410Y007495D01*
X042624Y007709D01*
X042677Y007709D01*
X042730Y007655D01*
X042730Y007549D01*
X042677Y007495D01*
X042570Y007341D02*
X042570Y007127D01*
X042464Y006972D02*
X042677Y006972D01*
X042730Y006919D01*
X042730Y006812D01*
X042677Y006759D01*
X042464Y006759D01*
X042410Y006812D01*
X042410Y006919D01*
X042464Y006972D01*
X042410Y006620D02*
X042410Y006513D01*
X042410Y006567D02*
X042730Y006567D01*
X042730Y006620D02*
X042730Y006513D01*
X042677Y006358D02*
X042570Y006358D01*
X042517Y006305D01*
X042517Y006145D01*
X042410Y006145D02*
X042730Y006145D01*
X042730Y006305D01*
X042677Y006358D01*
X042677Y005990D02*
X042730Y005937D01*
X042730Y005830D01*
X042677Y005777D01*
X042464Y005777D01*
X042410Y005830D01*
X042410Y005937D01*
X042464Y005990D01*
X042570Y005990D01*
X042570Y005883D01*
X041948Y005694D02*
X041895Y005747D01*
X041788Y005747D01*
X041735Y005694D01*
X041735Y005640D01*
X041948Y005427D01*
X041735Y005427D01*
X040948Y005587D02*
X040735Y005587D01*
X040788Y005747D02*
X040948Y005587D01*
X040788Y005427D02*
X040788Y005747D01*
X039948Y005587D02*
X039948Y005480D01*
X039895Y005427D01*
X039788Y005427D01*
X039735Y005480D01*
X039735Y005533D01*
X039788Y005587D01*
X039948Y005587D01*
X039842Y005694D01*
X039735Y005747D01*
X038948Y005694D02*
X038948Y005640D01*
X038895Y005587D01*
X038788Y005587D01*
X038735Y005533D01*
X038735Y005480D01*
X038788Y005427D01*
X038895Y005427D01*
X038948Y005480D01*
X038948Y005533D01*
X038895Y005587D01*
X038788Y005587D02*
X038735Y005640D01*
X038735Y005694D01*
X038788Y005747D01*
X038895Y005747D01*
X038948Y005694D01*
X038167Y005640D02*
X038060Y005747D01*
X038060Y005427D01*
X038167Y005427D02*
X037953Y005427D01*
X037798Y005480D02*
X037585Y005694D01*
X037585Y005480D01*
X037638Y005427D01*
X037745Y005427D01*
X037798Y005480D01*
X037798Y005694D01*
X037745Y005747D01*
X037638Y005747D01*
X037585Y005694D01*
X037167Y005640D02*
X037060Y005747D01*
X037060Y005427D01*
X037167Y005427D02*
X036953Y005427D01*
X036798Y005427D02*
X036585Y005640D01*
X036585Y005694D01*
X036638Y005747D01*
X036745Y005747D01*
X036798Y005694D01*
X036798Y005427D02*
X036585Y005427D01*
X036167Y005427D02*
X035953Y005427D01*
X036060Y005427D02*
X036060Y005747D01*
X036167Y005640D01*
X035798Y005587D02*
X035585Y005587D01*
X035638Y005747D02*
X035798Y005587D01*
X035638Y005427D02*
X035638Y005747D01*
X035167Y005640D02*
X035060Y005747D01*
X035060Y005427D01*
X035167Y005427D02*
X034953Y005427D01*
X034798Y005480D02*
X034745Y005427D01*
X034638Y005427D01*
X034585Y005480D01*
X034585Y005533D01*
X034638Y005587D01*
X034798Y005587D01*
X034798Y005480D01*
X034798Y005587D02*
X034692Y005694D01*
X034585Y005747D01*
X034167Y005640D02*
X034060Y005747D01*
X034060Y005427D01*
X034167Y005427D02*
X033953Y005427D01*
X033798Y005480D02*
X033798Y005533D01*
X033745Y005587D01*
X033638Y005587D01*
X033585Y005533D01*
X033585Y005480D01*
X033638Y005427D01*
X033745Y005427D01*
X033798Y005480D01*
X033745Y005587D02*
X033798Y005640D01*
X033798Y005694D01*
X033745Y005747D01*
X033638Y005747D01*
X033585Y005694D01*
X033585Y005640D01*
X033638Y005587D01*
X033167Y005694D02*
X033113Y005747D01*
X033007Y005747D01*
X032953Y005694D01*
X032953Y005640D01*
X033167Y005427D01*
X032953Y005427D01*
X032798Y005480D02*
X032585Y005694D01*
X032585Y005480D01*
X032638Y005427D01*
X032745Y005427D01*
X032798Y005480D01*
X032798Y005694D01*
X032745Y005747D01*
X032638Y005747D01*
X032585Y005694D01*
X032167Y005694D02*
X032113Y005747D01*
X032007Y005747D01*
X031953Y005694D01*
X031953Y005640D01*
X032167Y005427D01*
X031953Y005427D01*
X031798Y005427D02*
X031585Y005640D01*
X031585Y005694D01*
X031638Y005747D01*
X031745Y005747D01*
X031798Y005694D01*
X031798Y005427D02*
X031585Y005427D01*
X031167Y005427D02*
X030953Y005640D01*
X030953Y005694D01*
X031007Y005747D01*
X031113Y005747D01*
X031167Y005694D01*
X031167Y005427D02*
X030953Y005427D01*
X030798Y005587D02*
X030585Y005587D01*
X030638Y005747D02*
X030798Y005587D01*
X030638Y005427D02*
X030638Y005747D01*
X030167Y005694D02*
X030113Y005747D01*
X030007Y005747D01*
X029953Y005694D01*
X029953Y005640D01*
X030167Y005427D01*
X029953Y005427D01*
X029798Y005480D02*
X029745Y005427D01*
X029638Y005427D01*
X029585Y005480D01*
X029585Y005533D01*
X029638Y005587D01*
X029798Y005587D01*
X029798Y005480D01*
X029798Y005587D02*
X029692Y005694D01*
X029585Y005747D01*
X029167Y005694D02*
X029113Y005747D01*
X029007Y005747D01*
X028953Y005694D01*
X028953Y005640D01*
X029167Y005427D01*
X028953Y005427D01*
X028798Y005480D02*
X028798Y005533D01*
X028745Y005587D01*
X028638Y005587D01*
X028585Y005533D01*
X028585Y005480D01*
X028638Y005427D01*
X028745Y005427D01*
X028798Y005480D01*
X028745Y005587D02*
X028798Y005640D01*
X028798Y005694D01*
X028745Y005747D01*
X028638Y005747D01*
X028585Y005694D01*
X028585Y005640D01*
X028638Y005587D01*
X028167Y005694D02*
X028113Y005747D01*
X028007Y005747D01*
X027953Y005694D01*
X027953Y005640D01*
X028007Y005587D01*
X027953Y005533D01*
X027953Y005480D01*
X028007Y005427D01*
X028113Y005427D01*
X028167Y005480D01*
X028060Y005587D02*
X028007Y005587D01*
X027798Y005694D02*
X027745Y005747D01*
X027638Y005747D01*
X027585Y005694D01*
X027798Y005480D01*
X027745Y005427D01*
X027638Y005427D01*
X027585Y005480D01*
X027585Y005694D01*
X027798Y005694D02*
X027798Y005480D01*
X027167Y005480D02*
X027113Y005427D01*
X027007Y005427D01*
X026953Y005480D01*
X026953Y005533D01*
X027007Y005587D01*
X027060Y005587D01*
X027007Y005587D02*
X026953Y005640D01*
X026953Y005694D01*
X027007Y005747D01*
X027113Y005747D01*
X027167Y005694D01*
X026798Y005694D02*
X026745Y005747D01*
X026638Y005747D01*
X026585Y005694D01*
X026585Y005640D01*
X026798Y005427D01*
X026585Y005427D01*
X026167Y005480D02*
X026113Y005427D01*
X026007Y005427D01*
X025953Y005480D01*
X025953Y005533D01*
X026007Y005587D01*
X026060Y005587D01*
X026007Y005587D02*
X025953Y005640D01*
X025953Y005694D01*
X026007Y005747D01*
X026113Y005747D01*
X026167Y005694D01*
X025798Y005587D02*
X025585Y005587D01*
X025638Y005747D02*
X025798Y005587D01*
X025638Y005427D02*
X025638Y005747D01*
X025167Y005694D02*
X025113Y005747D01*
X025007Y005747D01*
X024953Y005694D01*
X024953Y005640D01*
X025007Y005587D01*
X024953Y005533D01*
X024953Y005480D01*
X025007Y005427D01*
X025113Y005427D01*
X025167Y005480D01*
X025060Y005587D02*
X025007Y005587D01*
X024798Y005587D02*
X024798Y005480D01*
X024745Y005427D01*
X024638Y005427D01*
X024585Y005480D01*
X024585Y005533D01*
X024638Y005587D01*
X024798Y005587D01*
X024692Y005694D01*
X024585Y005747D01*
X024167Y005694D02*
X024113Y005747D01*
X024007Y005747D01*
X023953Y005694D01*
X023953Y005640D01*
X024007Y005587D01*
X023953Y005533D01*
X023953Y005480D01*
X024007Y005427D01*
X024113Y005427D01*
X024167Y005480D01*
X024060Y005587D02*
X024007Y005587D01*
X023798Y005640D02*
X023798Y005694D01*
X023745Y005747D01*
X023638Y005747D01*
X023585Y005694D01*
X023585Y005640D01*
X023638Y005587D01*
X023745Y005587D01*
X023798Y005640D01*
X023745Y005587D02*
X023798Y005533D01*
X023798Y005480D01*
X023745Y005427D01*
X023638Y005427D01*
X023585Y005480D01*
X023585Y005533D01*
X023638Y005587D01*
X023167Y005587D02*
X022953Y005587D01*
X023007Y005427D02*
X023007Y005747D01*
X023167Y005587D01*
X022798Y005480D02*
X022798Y005694D01*
X022745Y005747D01*
X022638Y005747D01*
X022585Y005694D01*
X022798Y005480D01*
X022745Y005427D01*
X022638Y005427D01*
X022585Y005480D01*
X022585Y005694D01*
X027260Y015338D02*
X027260Y015551D01*
X027260Y015444D02*
X027580Y015444D01*
X027474Y015338D01*
X027314Y015706D02*
X027314Y015759D01*
X027260Y015759D01*
X027260Y015706D01*
X027314Y015706D01*
X027314Y015890D02*
X027260Y015943D01*
X027260Y016050D01*
X027314Y016103D01*
X027420Y016103D01*
X027474Y016050D01*
X027474Y015997D01*
X027420Y015890D01*
X027580Y015890D01*
X027580Y016103D01*
X027580Y016258D02*
X027367Y016258D01*
X027260Y016365D01*
X027367Y016472D01*
X027580Y016472D01*
X027760Y016727D02*
X028080Y016727D01*
X028080Y016887D01*
X028027Y016940D01*
X027920Y016940D01*
X027867Y016887D01*
X027867Y016727D01*
X027974Y017095D02*
X028080Y017202D01*
X027760Y017202D01*
X027760Y017308D02*
X027760Y017095D01*
X028314Y016472D02*
X028527Y016472D01*
X028580Y016418D01*
X028580Y016258D01*
X028260Y016258D01*
X028260Y016418D01*
X028314Y016472D01*
X028260Y016104D02*
X028580Y016104D01*
X028580Y015890D02*
X028260Y016104D01*
X028260Y015890D02*
X028580Y015890D01*
X028527Y015735D02*
X028580Y015682D01*
X028580Y015575D01*
X028527Y015522D01*
X028314Y015522D01*
X028260Y015575D01*
X028260Y015682D01*
X028314Y015735D01*
X028420Y015735D01*
X028420Y015628D01*
X028710Y016727D02*
X029030Y016727D01*
X029030Y016887D01*
X028977Y016940D01*
X028870Y016940D01*
X028817Y016887D01*
X028817Y016727D01*
X028764Y017095D02*
X028977Y017308D01*
X028764Y017308D01*
X028710Y017255D01*
X028710Y017148D01*
X028764Y017095D01*
X028977Y017095D01*
X029030Y017148D01*
X029030Y017255D01*
X028977Y017308D01*
X028874Y022737D02*
X028980Y022844D01*
X028660Y022844D01*
X028660Y022737D02*
X028660Y022951D01*
X028660Y023105D02*
X028660Y023159D01*
X028714Y023159D01*
X028714Y023105D01*
X028660Y023105D01*
X028660Y023289D02*
X028874Y023503D01*
X028927Y023503D01*
X028980Y023450D01*
X028980Y023343D01*
X028927Y023289D01*
X028660Y023289D02*
X028660Y023503D01*
X028767Y023658D02*
X028660Y023765D01*
X028767Y023871D01*
X028980Y023871D01*
X028980Y023658D02*
X028767Y023658D01*
X028607Y024026D02*
X028607Y024240D01*
X028660Y024394D02*
X028660Y024501D01*
X028660Y024448D02*
X028980Y024448D01*
X028980Y024501D02*
X028980Y024394D01*
X028980Y024640D02*
X028660Y024853D01*
X028980Y024853D01*
X028980Y025008D02*
X028980Y025222D01*
X028980Y025115D02*
X028660Y025115D01*
X028660Y024640D02*
X028980Y024640D01*
X029110Y025477D02*
X029430Y025477D01*
X029430Y025637D01*
X029377Y025690D01*
X029270Y025690D01*
X029217Y025637D01*
X029217Y025477D01*
X029324Y025845D02*
X029430Y025952D01*
X029110Y025952D01*
X029110Y026058D02*
X029110Y025845D01*
X029110Y026213D02*
X029110Y026427D01*
X029110Y026320D02*
X029430Y026320D01*
X029324Y026213D01*
X048202Y018194D02*
X048415Y017980D01*
X048362Y017927D01*
X048255Y017927D01*
X048202Y017980D01*
X048202Y018194D01*
X048255Y018247D01*
X048362Y018247D01*
X048415Y018194D01*
X048415Y017980D01*
X048570Y017927D02*
X048570Y018140D01*
X048677Y018247D01*
X048784Y018140D01*
X048784Y017927D01*
X048784Y018087D02*
X048570Y018087D01*
X048939Y018247D02*
X049152Y018247D01*
X049045Y018247D02*
X049045Y017927D01*
X049307Y017927D02*
X049307Y018140D01*
X049414Y018247D01*
X049520Y018140D01*
X049520Y017927D01*
X049520Y018087D02*
X049307Y018087D01*
X049675Y018194D02*
X049729Y018247D01*
X049889Y018247D01*
X049889Y017927D01*
X049729Y017927D01*
X049675Y017980D01*
X049675Y018194D01*
X050043Y017873D02*
X050257Y017873D01*
X050412Y017980D02*
X050465Y017927D01*
X050572Y017927D01*
X050625Y017980D01*
X050412Y018194D01*
X050412Y017980D01*
X050625Y017980D02*
X050625Y018194D01*
X050572Y018247D01*
X050465Y018247D01*
X050412Y018194D01*
X050780Y018194D02*
X050833Y018247D01*
X050940Y018247D01*
X050994Y018194D01*
X050994Y017980D01*
X050940Y017927D01*
X050833Y017927D01*
X050780Y017980D01*
X051148Y017980D02*
X051148Y018194D01*
X051202Y018247D01*
X051362Y018247D01*
X051362Y017927D01*
X051202Y017927D01*
X051148Y017980D01*
X051517Y017980D02*
X051570Y017927D01*
X051677Y017927D01*
X051730Y017980D01*
X051677Y018087D02*
X051570Y018087D01*
X051517Y018033D01*
X051517Y017980D01*
X051677Y018087D02*
X051730Y018140D01*
X051730Y018194D01*
X051677Y018247D01*
X051570Y018247D01*
X051517Y018194D01*
X051570Y018927D02*
X051677Y018927D01*
X051730Y018980D01*
X051623Y019087D02*
X051570Y019087D01*
X051517Y019033D01*
X051517Y018980D01*
X051570Y018927D01*
X051570Y019087D02*
X051517Y019140D01*
X051517Y019194D01*
X051570Y019247D01*
X051677Y019247D01*
X051730Y019194D01*
X051362Y018980D02*
X051309Y018980D01*
X051309Y018927D01*
X051362Y018927D01*
X051362Y018980D01*
X051178Y018980D02*
X051124Y018927D01*
X051018Y018927D01*
X050964Y018980D01*
X050964Y019033D01*
X051018Y019087D01*
X051071Y019087D01*
X051018Y019087D02*
X050964Y019140D01*
X050964Y019194D01*
X051018Y019247D01*
X051124Y019247D01*
X051178Y019194D01*
X050809Y019247D02*
X050809Y019033D01*
X050703Y018927D01*
X050596Y019033D01*
X050596Y019247D01*
X051512Y019960D02*
X051512Y020067D01*
X051619Y020067D01*
X051725Y020174D02*
X051725Y019960D01*
X051672Y019907D01*
X051565Y019907D01*
X051512Y019960D01*
X051512Y020174D02*
X051565Y020227D01*
X051672Y020227D01*
X051725Y020174D01*
X051880Y020120D02*
X051880Y019907D01*
X051880Y020067D02*
X052094Y020067D01*
X052094Y020120D02*
X052094Y019907D01*
X052094Y020120D02*
X051987Y020227D01*
X051880Y020120D01*
X052248Y020227D02*
X052462Y020227D01*
X052355Y020227D02*
X052355Y019907D01*
X052670Y019960D02*
X052670Y020227D01*
X052723Y020227D02*
X052617Y020227D01*
X052670Y019960D02*
X052723Y019907D01*
X052777Y019907D01*
X052830Y019960D01*
X052822Y018397D02*
X052822Y018077D01*
X052769Y018077D02*
X052876Y018077D01*
X053031Y018130D02*
X053031Y018344D01*
X053084Y018397D01*
X053244Y018397D01*
X053244Y018077D01*
X053084Y018077D01*
X053031Y018130D01*
X052876Y018397D02*
X052769Y018397D01*
X053399Y018397D02*
X053612Y018397D01*
X053506Y018397D02*
X053506Y018077D01*
X053522Y017397D02*
X053735Y017397D01*
X053628Y017397D02*
X053628Y017077D01*
X053367Y017077D02*
X053367Y017397D01*
X053260Y017290D01*
X053153Y017397D01*
X053153Y017077D01*
X052998Y017130D02*
X052945Y017077D01*
X052838Y017077D01*
X052785Y017130D01*
X052785Y017183D01*
X052838Y017237D01*
X052945Y017237D01*
X052998Y017290D01*
X052998Y017344D01*
X052945Y017397D01*
X052838Y017397D01*
X052785Y017344D01*
X052785Y016397D02*
X052998Y016183D01*
X052945Y016237D02*
X052785Y016077D01*
X052998Y016077D02*
X052998Y016397D01*
X053153Y016344D02*
X053207Y016397D01*
X053313Y016397D01*
X053367Y016344D01*
X053367Y016130D01*
X053313Y016077D01*
X053207Y016077D01*
X053153Y016130D01*
X053522Y016397D02*
X053735Y016397D01*
X053628Y016397D02*
X053628Y016077D01*
X053628Y015397D02*
X053628Y015077D01*
X053367Y015077D02*
X053367Y015397D01*
X053207Y015397D01*
X053153Y015344D01*
X053153Y015130D01*
X053207Y015077D01*
X053367Y015077D01*
X053522Y015397D02*
X053735Y015397D01*
X052998Y015344D02*
X052998Y015130D01*
X052945Y015077D01*
X052838Y015077D01*
X052785Y015130D01*
X052785Y015344D01*
X052838Y015397D01*
X052945Y015397D01*
X052998Y015344D01*
X051730Y015194D02*
X051730Y015140D01*
X051677Y015087D01*
X051570Y015087D01*
X051517Y015033D01*
X051517Y014980D01*
X051570Y014927D01*
X051677Y014927D01*
X051730Y014980D01*
X051730Y015194D02*
X051677Y015247D01*
X051570Y015247D01*
X051517Y015194D01*
X051362Y015247D02*
X051202Y015247D01*
X051148Y015194D01*
X051148Y014980D01*
X051202Y014927D01*
X051362Y014927D01*
X051362Y015247D01*
X050994Y015194D02*
X050994Y014980D01*
X050940Y014927D01*
X050833Y014927D01*
X050780Y014980D01*
X050625Y014980D02*
X050412Y015194D01*
X050412Y014980D01*
X050465Y014927D01*
X050572Y014927D01*
X050625Y014980D01*
X050625Y015194D01*
X050572Y015247D01*
X050465Y015247D01*
X050412Y015194D01*
X050257Y014873D02*
X050043Y014873D01*
X049889Y014980D02*
X049889Y015194D01*
X049835Y015247D01*
X049729Y015247D01*
X049675Y015194D01*
X049520Y015247D02*
X049414Y015140D01*
X049307Y015247D01*
X049307Y014927D01*
X049152Y014927D02*
X048992Y014927D01*
X048939Y014980D01*
X048939Y015194D01*
X048992Y015247D01*
X049152Y015247D01*
X049152Y014927D01*
X049520Y014927D02*
X049520Y015247D01*
X049675Y014980D02*
X049729Y014927D01*
X049835Y014927D01*
X049889Y014980D01*
X050043Y015873D02*
X050257Y015873D01*
X050412Y015980D02*
X050465Y015927D01*
X050572Y015927D01*
X050625Y015980D01*
X050412Y016194D01*
X050412Y015980D01*
X050625Y015980D02*
X050625Y016194D01*
X050572Y016247D01*
X050465Y016247D01*
X050412Y016194D01*
X050780Y016194D02*
X050833Y016247D01*
X050940Y016247D01*
X050994Y016194D01*
X050994Y015980D01*
X050940Y015927D01*
X050833Y015927D01*
X050780Y015980D01*
X051148Y015980D02*
X051148Y016194D01*
X051202Y016247D01*
X051362Y016247D01*
X051362Y015927D01*
X051202Y015927D01*
X051148Y015980D01*
X051517Y015980D02*
X051570Y015927D01*
X051677Y015927D01*
X051730Y015980D01*
X051677Y016087D02*
X051570Y016087D01*
X051517Y016033D01*
X051517Y015980D01*
X051677Y016087D02*
X051730Y016140D01*
X051730Y016194D01*
X051677Y016247D01*
X051570Y016247D01*
X051517Y016194D01*
X050940Y015247D02*
X050994Y015194D01*
X050940Y015247D02*
X050833Y015247D01*
X050780Y015194D01*
X050833Y014247D02*
X050994Y014247D01*
X050994Y013927D01*
X050833Y013927D01*
X050780Y013980D01*
X050780Y014194D01*
X050833Y014247D01*
X051148Y014247D02*
X051148Y013927D01*
X051362Y014247D01*
X051362Y013927D01*
X051517Y013980D02*
X051570Y013927D01*
X051677Y013927D01*
X051730Y013980D01*
X051730Y014194D01*
X051677Y014247D01*
X051570Y014247D01*
X051517Y014194D01*
X051517Y014087D02*
X051623Y014087D01*
X051517Y014087D02*
X051517Y013980D01*
X051570Y013247D02*
X051517Y013194D01*
X051517Y013087D01*
X051570Y013033D01*
X051730Y013033D01*
X051730Y012927D02*
X051730Y013247D01*
X051570Y013247D01*
X051362Y013247D02*
X051362Y012927D01*
X051148Y012927D01*
X050994Y012980D02*
X050940Y012927D01*
X050833Y012927D01*
X050780Y012980D01*
X050780Y013033D01*
X050833Y013087D01*
X050940Y013087D01*
X050994Y013140D01*
X050994Y013194D01*
X050940Y013247D01*
X050833Y013247D01*
X050780Y013194D01*
X050625Y013247D02*
X050625Y012927D01*
X050412Y012927D01*
X050519Y013087D02*
X050625Y013087D01*
X050625Y013247D02*
X050412Y013247D01*
X050257Y013247D02*
X050043Y013247D01*
X050150Y013247D02*
X050150Y012927D01*
X049889Y012873D02*
X049675Y012873D01*
X049520Y012927D02*
X049520Y013247D01*
X049307Y012927D01*
X049307Y013247D01*
X051148Y013247D02*
X051362Y013247D01*
X051362Y013087D02*
X051255Y013087D01*
X051517Y012927D02*
X051623Y013033D01*
X049889Y015927D02*
X049729Y015927D01*
X049675Y015980D01*
X049675Y016194D01*
X049729Y016247D01*
X049889Y016247D01*
X049889Y015927D01*
X049520Y015927D02*
X049520Y016140D01*
X049414Y016247D01*
X049307Y016140D01*
X049307Y015927D01*
X049307Y016087D02*
X049520Y016087D01*
X049152Y016247D02*
X048939Y016247D01*
X049045Y016247D02*
X049045Y015927D01*
X048784Y015927D02*
X048784Y016140D01*
X048677Y016247D01*
X048570Y016140D01*
X048570Y015927D01*
X048415Y015927D02*
X048202Y016140D01*
X048202Y016194D01*
X048255Y016247D01*
X048362Y016247D01*
X048415Y016194D01*
X048570Y016087D02*
X048784Y016087D01*
X048415Y015927D02*
X048202Y015927D01*
X048202Y016927D02*
X048415Y016927D01*
X048309Y016927D02*
X048309Y017247D01*
X048415Y017140D01*
X048570Y017140D02*
X048570Y016927D01*
X048570Y017087D02*
X048784Y017087D01*
X048784Y017140D02*
X048677Y017247D01*
X048570Y017140D01*
X048784Y017140D02*
X048784Y016927D01*
X049045Y016927D02*
X049045Y017247D01*
X048939Y017247D02*
X049152Y017247D01*
X049307Y017140D02*
X049307Y016927D01*
X049307Y017087D02*
X049520Y017087D01*
X049520Y017140D02*
X049414Y017247D01*
X049307Y017140D01*
X049520Y017140D02*
X049520Y016927D01*
X049675Y016980D02*
X049675Y017194D01*
X049729Y017247D01*
X049889Y017247D01*
X049889Y016927D01*
X049729Y016927D01*
X049675Y016980D01*
X050043Y016873D02*
X050257Y016873D01*
X050412Y016980D02*
X050465Y016927D01*
X050572Y016927D01*
X050625Y016980D01*
X050412Y017194D01*
X050412Y016980D01*
X050625Y016980D02*
X050625Y017194D01*
X050572Y017247D01*
X050465Y017247D01*
X050412Y017194D01*
X050780Y017194D02*
X050833Y017247D01*
X050940Y017247D01*
X050994Y017194D01*
X050994Y016980D01*
X050940Y016927D01*
X050833Y016927D01*
X050780Y016980D01*
X051148Y016980D02*
X051148Y017194D01*
X051202Y017247D01*
X051362Y017247D01*
X051362Y016927D01*
X051202Y016927D01*
X051148Y016980D01*
X051517Y016980D02*
X051570Y016927D01*
X051677Y016927D01*
X051730Y016980D01*
X051677Y017087D02*
X051570Y017087D01*
X051517Y017033D01*
X051517Y016980D01*
X051677Y017087D02*
X051730Y017140D01*
X051730Y017194D01*
X051677Y017247D01*
X051570Y017247D01*
X051517Y017194D01*
X054634Y009415D02*
X054580Y009361D01*
X054580Y009255D01*
X054634Y009201D01*
X054740Y009308D02*
X054740Y009361D01*
X054687Y009415D01*
X054634Y009415D01*
X054740Y009361D02*
X054794Y009415D01*
X054847Y009415D01*
X054900Y009361D01*
X054900Y009255D01*
X054847Y009201D01*
X054794Y009047D02*
X054580Y009047D01*
X054740Y009047D02*
X054740Y008833D01*
X054794Y008833D02*
X054900Y008940D01*
X054794Y009047D01*
X054794Y008833D02*
X054580Y008833D01*
X054580Y008571D02*
X054900Y008571D01*
X054900Y008465D02*
X054900Y008678D01*
X054794Y008310D02*
X054580Y008310D01*
X054740Y008310D02*
X054740Y008096D01*
X054794Y008096D02*
X054900Y008203D01*
X054794Y008310D01*
X054794Y008096D02*
X054580Y008096D01*
X054634Y007942D02*
X054847Y007942D01*
X054900Y007888D01*
X054900Y007728D01*
X054580Y007728D01*
X054580Y007888D01*
X054634Y007942D01*
X054527Y007573D02*
X054527Y007360D01*
X054634Y007205D02*
X054580Y007152D01*
X054580Y007045D01*
X054634Y006992D01*
X054847Y007205D01*
X054634Y007205D01*
X054847Y007205D02*
X054900Y007152D01*
X054900Y007045D01*
X054847Y006992D01*
X054634Y006992D01*
X054634Y006837D02*
X054580Y006783D01*
X054580Y006677D01*
X054634Y006623D01*
X054847Y006623D01*
X054900Y006677D01*
X054900Y006783D01*
X054847Y006837D01*
X054847Y006468D02*
X054634Y006468D01*
X054580Y006415D01*
X054580Y006255D01*
X054900Y006255D01*
X054900Y006415D01*
X054847Y006468D01*
X054847Y006100D02*
X054900Y006047D01*
X054900Y005940D01*
X054847Y005887D01*
X054794Y005887D01*
X054740Y005940D01*
X054740Y006047D01*
X054687Y006100D01*
X054634Y006100D01*
X054580Y006047D01*
X054580Y005940D01*
X054634Y005887D01*
X053900Y005940D02*
X053847Y005887D01*
X053794Y005887D01*
X053740Y005940D01*
X053740Y006047D01*
X053687Y006100D01*
X053634Y006100D01*
X053580Y006047D01*
X053580Y005940D01*
X053634Y005887D01*
X053900Y005940D02*
X053900Y006047D01*
X053847Y006100D01*
X053900Y006255D02*
X053900Y006415D01*
X053847Y006468D01*
X053634Y006468D01*
X053580Y006415D01*
X053580Y006255D01*
X053900Y006255D01*
X053847Y006623D02*
X053634Y006623D01*
X053580Y006677D01*
X053580Y006783D01*
X053634Y006837D01*
X053634Y006992D02*
X053847Y007205D01*
X053634Y007205D01*
X053580Y007152D01*
X053580Y007045D01*
X053634Y006992D01*
X053847Y006992D01*
X053900Y007045D01*
X053900Y007152D01*
X053847Y007205D01*
X053527Y007360D02*
X053527Y007573D01*
X053634Y007728D02*
X053580Y007781D01*
X053580Y007888D01*
X053634Y007942D01*
X053687Y007942D01*
X053740Y007888D01*
X053740Y007781D01*
X053794Y007728D01*
X053847Y007728D01*
X053900Y007781D01*
X053900Y007888D01*
X053847Y007942D01*
X053847Y008096D02*
X053634Y008096D01*
X053580Y008150D01*
X053580Y008257D01*
X053634Y008310D01*
X053687Y008465D02*
X053900Y008678D01*
X053900Y008465D02*
X053580Y008465D01*
X053740Y008518D02*
X053580Y008678D01*
X053847Y008310D02*
X053900Y008257D01*
X053900Y008150D01*
X053847Y008096D01*
X053847Y006837D02*
X053900Y006783D01*
X053900Y006677D01*
X053847Y006623D01*
X053300Y006154D02*
X053247Y006207D01*
X053140Y006207D01*
X053087Y006154D01*
X053087Y006100D01*
X053140Y006047D01*
X053087Y005993D01*
X053087Y005940D01*
X053140Y005887D01*
X053247Y005887D01*
X053300Y005940D01*
X053193Y006047D02*
X053140Y006047D01*
X052932Y005940D02*
X052879Y005940D01*
X052879Y005887D01*
X052932Y005887D01*
X052932Y005940D01*
X052748Y005940D02*
X052694Y005887D01*
X052588Y005887D01*
X052534Y005940D01*
X052534Y005993D01*
X052588Y006047D01*
X052641Y006047D01*
X052588Y006047D02*
X052534Y006100D01*
X052534Y006154D01*
X052588Y006207D01*
X052694Y006207D01*
X052748Y006154D01*
X052379Y006207D02*
X052379Y005993D01*
X052273Y005887D01*
X052166Y005993D01*
X052166Y006207D01*
X050730Y006145D02*
X050730Y006305D01*
X050677Y006358D01*
X050570Y006358D01*
X050517Y006305D01*
X050517Y006145D01*
X050410Y006145D02*
X050730Y006145D01*
X050677Y005990D02*
X050730Y005937D01*
X050730Y005830D01*
X050677Y005777D01*
X050464Y005777D01*
X050410Y005830D01*
X050410Y005937D01*
X050464Y005990D01*
X050570Y005990D01*
X050570Y005883D01*
X049948Y005694D02*
X049895Y005747D01*
X049788Y005747D01*
X049735Y005694D01*
X049735Y005640D01*
X049948Y005427D01*
X049735Y005427D01*
X048948Y005587D02*
X048735Y005587D01*
X048788Y005747D02*
X048948Y005587D01*
X048788Y005427D02*
X048788Y005747D01*
X047948Y005587D02*
X047948Y005480D01*
X047895Y005427D01*
X047788Y005427D01*
X047735Y005480D01*
X047735Y005533D01*
X047788Y005587D01*
X047948Y005587D01*
X047842Y005694D01*
X047735Y005747D01*
X046948Y005694D02*
X046948Y005640D01*
X046895Y005587D01*
X046788Y005587D01*
X046735Y005533D01*
X046735Y005480D01*
X046788Y005427D01*
X046895Y005427D01*
X046948Y005480D01*
X046948Y005533D01*
X046895Y005587D01*
X046788Y005587D02*
X046735Y005640D01*
X046735Y005694D01*
X046788Y005747D01*
X046895Y005747D01*
X046948Y005694D01*
X046167Y005640D02*
X046060Y005747D01*
X046060Y005427D01*
X046167Y005427D02*
X045953Y005427D01*
X045798Y005480D02*
X045585Y005694D01*
X045585Y005480D01*
X045638Y005427D01*
X045745Y005427D01*
X045798Y005480D01*
X045798Y005694D01*
X045745Y005747D01*
X045638Y005747D01*
X045585Y005694D01*
X045770Y007627D02*
X045717Y007680D01*
X045717Y007894D01*
X045770Y007947D01*
X045877Y007947D01*
X045930Y007894D01*
X045930Y007840D01*
X045877Y007787D01*
X045717Y007787D01*
X045770Y007627D02*
X045877Y007627D01*
X045930Y007680D01*
X046717Y007894D02*
X046930Y007680D01*
X046930Y007627D01*
X046930Y007947D02*
X046717Y007947D01*
X046717Y007894D01*
X047717Y007947D02*
X047930Y007947D01*
X047930Y007787D01*
X047823Y007840D01*
X047770Y007840D01*
X047717Y007787D01*
X047717Y007680D01*
X047770Y007627D01*
X047877Y007627D01*
X047930Y007680D01*
X048717Y007680D02*
X048770Y007627D01*
X048877Y007627D01*
X048930Y007680D01*
X048823Y007787D02*
X048770Y007787D01*
X048717Y007733D01*
X048717Y007680D01*
X048770Y007787D02*
X048717Y007840D01*
X048717Y007894D01*
X048770Y007947D01*
X048877Y007947D01*
X048930Y007894D01*
X049717Y007627D02*
X049930Y007627D01*
X049823Y007627D02*
X049823Y007947D01*
X049930Y007840D01*
X050410Y007709D02*
X050410Y007495D01*
X050410Y007602D02*
X050730Y007602D01*
X050624Y007495D01*
X050570Y007341D02*
X050570Y007127D01*
X050464Y006972D02*
X050677Y006972D01*
X050730Y006919D01*
X050730Y006812D01*
X050677Y006759D01*
X050464Y006759D01*
X050410Y006812D01*
X050410Y006919D01*
X050464Y006972D01*
X050410Y006620D02*
X050410Y006513D01*
X050410Y006567D02*
X050730Y006567D01*
X050730Y006620D02*
X050730Y006513D01*
X055580Y006468D02*
X055900Y006468D01*
X055900Y006623D02*
X055900Y006783D01*
X055847Y006837D01*
X055634Y006837D01*
X055580Y006783D01*
X055580Y006623D01*
X055900Y006623D01*
X056220Y006510D02*
X056220Y006403D01*
X056274Y006350D01*
X056487Y006563D01*
X056274Y006563D01*
X056220Y006510D01*
X056274Y006350D02*
X056487Y006350D01*
X056540Y006403D01*
X056540Y006510D01*
X056487Y006563D01*
X056540Y006195D02*
X056540Y005982D01*
X056540Y006088D02*
X056220Y006088D01*
X056220Y005827D02*
X056327Y005720D01*
X056327Y005773D02*
X056327Y005613D01*
X056220Y005613D02*
X056540Y005613D01*
X056540Y005773D01*
X056487Y005827D01*
X056380Y005827D01*
X056327Y005773D01*
X056380Y005458D02*
X056380Y005245D01*
X056434Y005245D02*
X056540Y005352D01*
X056434Y005458D01*
X056220Y005458D01*
X056220Y005245D02*
X056434Y005245D01*
X056540Y005090D02*
X056274Y005090D01*
X056220Y005037D01*
X056220Y004930D01*
X056274Y004877D01*
X056540Y004877D01*
X055847Y005887D02*
X055634Y005887D01*
X055580Y005940D01*
X055580Y006047D01*
X055634Y006100D01*
X055740Y006100D01*
X055740Y005993D01*
X055847Y005887D02*
X055900Y005940D01*
X055900Y006047D01*
X055847Y006100D01*
X055900Y006255D02*
X055580Y006468D01*
X055580Y006255D02*
X055900Y006255D01*
X013330Y043777D02*
X013064Y043777D01*
X013010Y043830D01*
X013010Y043937D01*
X013064Y043990D01*
X013330Y043990D01*
X013277Y044145D02*
X013224Y044145D01*
X013170Y044198D01*
X013170Y044305D01*
X013117Y044358D01*
X013064Y044358D01*
X013010Y044305D01*
X013010Y044198D01*
X013064Y044145D01*
X013277Y044145D02*
X013330Y044198D01*
X013330Y044305D01*
X013277Y044358D01*
X013330Y044513D02*
X013330Y044673D01*
X013277Y044727D01*
X013224Y044727D01*
X013170Y044673D01*
X013170Y044513D01*
X013010Y044513D02*
X013010Y044673D01*
X013064Y044727D01*
X013117Y044727D01*
X013170Y044673D01*
X013010Y044513D02*
X013330Y044513D01*
X012957Y044882D02*
X012957Y045095D01*
X013010Y045250D02*
X013330Y045250D01*
X013170Y045250D02*
X013170Y045463D01*
X013330Y045463D02*
X013010Y045463D01*
X013064Y045618D02*
X013010Y045671D01*
X013010Y045778D01*
X013064Y045832D01*
X013277Y045832D01*
X013330Y045778D01*
X013330Y045671D01*
X013277Y045618D01*
X013064Y045618D01*
X013064Y045986D02*
X013010Y046040D01*
X013010Y046147D01*
X013064Y046200D01*
X013117Y046200D01*
X013170Y046147D01*
X013170Y046040D01*
X013224Y045986D01*
X013277Y045986D01*
X013330Y046040D01*
X013330Y046147D01*
X013277Y046200D01*
X013330Y046355D02*
X013330Y046568D01*
X013330Y046461D02*
X013010Y046461D01*
X013010Y046723D02*
X013010Y046937D01*
X013010Y046830D02*
X013330Y046830D01*
X013224Y046723D01*
D12*
X027082Y045137D02*
X027616Y045137D01*
X027616Y044737D01*
X027349Y044870D01*
X027215Y044870D01*
X027082Y044737D01*
X027082Y044470D01*
X027215Y044337D01*
X027482Y044337D01*
X027616Y044470D01*
X028003Y044337D02*
X028536Y044337D01*
X028269Y044337D02*
X028269Y045137D01*
X028536Y044870D01*
X028923Y045004D02*
X029457Y044470D01*
X029324Y044337D01*
X029057Y044337D01*
X028923Y044470D01*
X028923Y045004D01*
X029057Y045137D01*
X029324Y045137D01*
X029457Y045004D01*
X029457Y044470D01*
X029844Y044337D02*
X030378Y044337D01*
X029844Y044870D01*
X029844Y045004D01*
X029978Y045137D01*
X030244Y045137D01*
X030378Y045004D01*
X031646Y044470D02*
X031779Y044470D01*
X031779Y044337D01*
X031646Y044337D01*
X031646Y044470D01*
X031646Y044337D02*
X031912Y044070D01*
X032299Y044337D02*
X032700Y044337D01*
X032833Y044470D01*
X032700Y044604D01*
X032299Y044604D01*
X032299Y044737D02*
X032299Y044337D01*
X032299Y044737D02*
X032433Y044870D01*
X032700Y044870D01*
X033314Y044870D02*
X033314Y044337D01*
X033447Y044337D02*
X033180Y044337D01*
X033314Y044870D02*
X033447Y044870D01*
X033314Y045137D02*
X033314Y045271D01*
X033814Y044870D02*
X033947Y044870D01*
X034214Y044604D01*
X034214Y044870D02*
X034214Y044337D01*
X034601Y044337D02*
X034601Y044737D01*
X034735Y044870D01*
X035002Y044870D01*
X035002Y044604D02*
X034601Y044604D01*
X034601Y044337D02*
X035002Y044337D01*
X035135Y044470D01*
X035002Y044604D01*
X035522Y044870D02*
X035922Y044870D01*
X036056Y044737D01*
X036056Y044470D01*
X035922Y044337D01*
X035522Y044337D01*
X035522Y044203D02*
X035522Y044870D01*
X035522Y044203D02*
X035655Y044070D01*
X035789Y044070D01*
X036403Y044337D02*
X036670Y044337D01*
X036536Y044337D02*
X036536Y045137D01*
X036670Y045137D01*
X037057Y044870D02*
X037057Y044337D01*
X037457Y044337D01*
X037590Y044470D01*
X037590Y044870D01*
X037977Y044870D02*
X038111Y044737D01*
X038511Y044737D01*
X038111Y044737D02*
X037977Y044604D01*
X037977Y044470D01*
X038111Y044337D01*
X038511Y044337D01*
X038511Y045137D01*
X038111Y045137D01*
X037977Y045004D01*
X037977Y044870D01*
X039819Y044737D02*
X039819Y044337D01*
X039819Y044737D02*
X039952Y044870D01*
X040353Y044870D01*
X040353Y044337D01*
X040700Y044337D02*
X040966Y044337D01*
X040833Y044337D02*
X040833Y044870D01*
X040966Y044870D01*
X040833Y045137D02*
X040833Y045271D01*
X042274Y044737D02*
X042274Y044604D01*
X042808Y044604D01*
X042808Y044737D02*
X042808Y044470D01*
X042674Y044337D01*
X042408Y044337D01*
X042274Y044737D02*
X042408Y044870D01*
X042674Y044870D01*
X042808Y044737D01*
X043195Y044870D02*
X043595Y044870D01*
X043729Y044737D01*
X043729Y044470D01*
X043595Y044337D01*
X043195Y044337D01*
X043195Y045137D01*
X044116Y044737D02*
X044116Y044337D01*
X044516Y044337D01*
X044649Y044470D01*
X044516Y044604D01*
X044116Y044604D01*
X044116Y044737D02*
X044249Y044870D01*
X044516Y044870D01*
X045036Y045137D02*
X045036Y044337D01*
X045570Y044337D02*
X045570Y045137D01*
X045303Y044870D01*
X045036Y045137D01*
X044880Y041467D02*
X044480Y041467D01*
X044346Y041334D01*
X044346Y040800D01*
X044480Y040667D01*
X044880Y040667D01*
X044880Y041467D01*
X043959Y041067D02*
X043826Y041200D01*
X043559Y041200D01*
X043426Y041067D01*
X043426Y040934D01*
X043959Y040934D01*
X043959Y041067D02*
X043959Y040800D01*
X043826Y040667D01*
X043559Y040667D01*
X043039Y040667D02*
X042638Y040667D01*
X042505Y040800D01*
X042638Y040934D01*
X042905Y040934D01*
X043039Y041067D01*
X042905Y041200D01*
X042505Y041200D01*
X042118Y041200D02*
X041984Y041200D01*
X041984Y040667D01*
X041851Y040667D02*
X042118Y040667D01*
X041504Y040800D02*
X041371Y040667D01*
X040970Y040667D01*
X040970Y040533D02*
X040970Y041200D01*
X041371Y041200D01*
X041504Y041067D01*
X041504Y040800D01*
X041237Y040400D02*
X041104Y040400D01*
X040970Y040533D01*
X040583Y040667D02*
X040583Y041200D01*
X040183Y041200D01*
X040050Y041067D01*
X040050Y040667D01*
X039663Y040800D02*
X039663Y041067D01*
X039529Y041200D01*
X039262Y041200D01*
X039129Y041067D01*
X039129Y040934D01*
X039663Y040934D01*
X039663Y040800D02*
X039529Y040667D01*
X039262Y040667D01*
X038742Y040800D02*
X038742Y041067D01*
X038608Y041200D01*
X038208Y041200D01*
X038208Y041467D02*
X038208Y040667D01*
X038608Y040667D01*
X038742Y040800D01*
X036900Y040667D02*
X036500Y040667D01*
X036367Y040800D01*
X036367Y041067D01*
X036500Y041200D01*
X036900Y041200D01*
X036900Y041467D02*
X036900Y040667D01*
X035980Y040800D02*
X035846Y040667D01*
X035446Y040667D01*
X035446Y040533D02*
X035579Y040400D01*
X035713Y040400D01*
X035446Y040533D02*
X035446Y041200D01*
X035059Y041200D02*
X035059Y041067D01*
X034925Y041067D01*
X034925Y041200D01*
X035059Y041200D01*
X035059Y040800D02*
X035059Y040667D01*
X034925Y040667D01*
X034925Y040800D01*
X035059Y040800D01*
X035980Y040800D02*
X035980Y041200D01*
X041984Y041467D02*
X041984Y041601D01*
X042020Y010867D02*
X042020Y010067D01*
X041753Y010334D01*
X041486Y010067D01*
X041486Y010867D01*
X041099Y010867D02*
X041099Y010067D01*
X040833Y010334D01*
X040566Y010067D01*
X040566Y010867D01*
X040179Y010867D02*
X040179Y010067D01*
X039912Y010334D01*
X039645Y010067D01*
X039645Y010867D01*
X039258Y010200D02*
X039124Y010200D01*
X039124Y010067D01*
X039258Y010067D01*
X039258Y010200D01*
X038798Y010200D02*
X038798Y010734D01*
X038664Y010867D01*
X038397Y010867D01*
X038264Y010734D01*
X038264Y010200D01*
X038397Y010067D01*
X038664Y010067D01*
X038798Y010200D01*
X037877Y010067D02*
X037877Y010867D01*
X037877Y010067D02*
X037343Y010067D01*
X036956Y010067D02*
X036689Y010067D01*
X036823Y010067D02*
X036823Y010867D01*
X036956Y010867D02*
X036689Y010867D01*
X036342Y010867D02*
X036075Y010600D01*
X035808Y010867D01*
X035808Y010067D01*
X035421Y010067D02*
X034888Y010067D01*
X034501Y010067D02*
X033967Y010867D01*
X034501Y010867D02*
X033967Y010067D01*
X033580Y010067D02*
X033447Y010067D01*
X033447Y010200D01*
X033580Y010200D01*
X033580Y010067D01*
X033120Y010200D02*
X032986Y010067D01*
X032719Y010067D01*
X032586Y010200D01*
X032199Y010200D02*
X032199Y010734D01*
X032065Y010867D01*
X031799Y010867D01*
X031665Y010734D01*
X031665Y010200D01*
X031799Y010067D01*
X032065Y010067D01*
X032199Y010200D01*
X032586Y010734D02*
X032719Y010867D01*
X032986Y010867D01*
X033120Y010734D01*
X033120Y010200D01*
X034888Y010867D02*
X035421Y010867D01*
X035421Y010067D01*
X035421Y010467D02*
X035155Y010467D01*
X036342Y010067D02*
X036342Y010867D01*
X031278Y010867D02*
X031278Y010067D01*
X030744Y010067D02*
X030744Y010867D01*
X031011Y010600D01*
X031278Y010867D01*
D13*
X051061Y008677D02*
X051235Y008677D01*
X051148Y008677D02*
X051148Y008417D01*
X051356Y008417D02*
X051356Y008590D01*
X051443Y008677D01*
X051530Y008590D01*
X051530Y008417D01*
X051651Y008460D02*
X051694Y008417D01*
X051824Y008417D01*
X051824Y008677D01*
X051694Y008677D01*
X051651Y008633D01*
X051651Y008590D01*
X051694Y008547D01*
X051824Y008547D01*
X051694Y008547D02*
X051651Y008503D01*
X051651Y008460D01*
X051530Y008547D02*
X051356Y008547D01*
X051945Y008373D02*
X052119Y008373D01*
X052240Y008503D02*
X052240Y008677D01*
X052414Y008677D02*
X052414Y008503D01*
X052327Y008417D01*
X052240Y008503D01*
X052535Y008460D02*
X052578Y008417D01*
X052665Y008417D01*
X052708Y008460D01*
X052535Y008633D01*
X052535Y008460D01*
X052708Y008460D02*
X052708Y008633D01*
X052665Y008677D01*
X052578Y008677D01*
X052535Y008633D01*
X052812Y008460D02*
X052812Y008417D01*
X052856Y008417D01*
X052856Y008460D01*
X052812Y008460D01*
X052977Y008460D02*
X053020Y008417D01*
X053107Y008417D01*
X053150Y008460D01*
X053063Y008547D02*
X053020Y008547D01*
X052977Y008503D01*
X052977Y008460D01*
X053020Y008547D02*
X052977Y008590D01*
X052977Y008633D01*
X053020Y008677D01*
X053107Y008677D01*
X053150Y008633D01*
X053700Y039697D02*
X053787Y039697D01*
X053830Y039740D01*
X053787Y039697D01*
X053700Y039697D01*
X053657Y039740D01*
X053657Y039827D01*
X053700Y039870D01*
X053743Y039870D01*
X053830Y039827D01*
X053830Y039957D01*
X053657Y039957D01*
X053830Y039957D01*
X053830Y039827D01*
X053743Y039870D01*
X053700Y039870D01*
X053657Y039827D01*
X053657Y039740D01*
X053700Y039697D01*
X054362Y040180D02*
X054362Y040353D01*
X054536Y040180D01*
X054492Y040137D01*
X054405Y040137D01*
X054362Y040180D01*
X054405Y040137D01*
X054492Y040137D01*
X054536Y040180D01*
X054536Y040353D01*
X054492Y040397D01*
X054405Y040397D01*
X054362Y040353D01*
X054536Y040180D01*
X054536Y040353D01*
X054492Y040397D01*
X054405Y040397D01*
X054362Y040353D01*
X054362Y040180D01*
X054657Y040137D02*
X054830Y040137D01*
X054657Y040137D01*
X054743Y040137D02*
X054743Y040397D01*
X054830Y040310D01*
X054743Y040397D01*
X054743Y040137D01*
X055362Y039947D02*
X055536Y039947D01*
X055536Y039817D01*
X055449Y039860D01*
X055405Y039860D01*
X055362Y039817D01*
X055362Y039730D01*
X055405Y039687D01*
X055492Y039687D01*
X055536Y039730D01*
X055492Y039687D01*
X055405Y039687D01*
X055362Y039730D01*
X055362Y039817D01*
X055405Y039860D01*
X055449Y039860D01*
X055536Y039817D01*
X055536Y039947D01*
X055362Y039947D01*
X055743Y039947D02*
X055743Y039687D01*
X055743Y039947D01*
X055830Y039860D01*
X055743Y039947D01*
X055657Y039687D02*
X055830Y039687D01*
X055657Y039687D01*
X055657Y040587D02*
X055830Y040587D01*
X055657Y040587D01*
X055743Y040587D02*
X055743Y040847D01*
X055830Y040760D01*
X055743Y040847D01*
X055743Y040587D01*
X055536Y040717D02*
X055362Y040717D01*
X055536Y040717D01*
X055405Y040847D01*
X055405Y040587D01*
X055405Y040847D01*
X055536Y040717D01*
X054830Y041080D02*
X054787Y041037D01*
X054700Y041037D01*
X054657Y041080D01*
X054657Y041253D01*
X054700Y041297D01*
X054787Y041297D01*
X054830Y041253D01*
X054830Y041210D01*
X054787Y041167D01*
X054657Y041167D01*
X054787Y041167D01*
X054830Y041210D01*
X054830Y041253D01*
X054787Y041297D01*
X054700Y041297D01*
X054657Y041253D01*
X054657Y041080D01*
X054700Y041037D01*
X054787Y041037D01*
X054830Y041080D01*
X055362Y041530D02*
X055405Y041487D01*
X055492Y041487D01*
X055536Y041530D01*
X055492Y041487D01*
X055405Y041487D01*
X055362Y041530D01*
X055362Y041573D01*
X055405Y041617D01*
X055449Y041617D01*
X055405Y041617D01*
X055362Y041660D01*
X055362Y041703D01*
X055405Y041747D01*
X055492Y041747D01*
X055536Y041703D01*
X055492Y041747D01*
X055405Y041747D01*
X055362Y041703D01*
X055362Y041660D01*
X055405Y041617D01*
X055362Y041573D01*
X055362Y041530D01*
X055657Y041487D02*
X055830Y041487D01*
X055657Y041487D01*
X055743Y041487D02*
X055743Y041747D01*
X055830Y041660D01*
X055743Y041747D01*
X055743Y041487D01*
X055743Y042387D02*
X055743Y042647D01*
X055830Y042560D01*
X055743Y042647D01*
X055743Y042387D01*
X055657Y042387D02*
X055830Y042387D01*
X055657Y042387D01*
X055536Y042387D02*
X055362Y042560D01*
X055362Y042603D01*
X055405Y042647D01*
X055492Y042647D01*
X055536Y042603D01*
X055492Y042647D01*
X055405Y042647D01*
X055362Y042603D01*
X055362Y042560D01*
X055536Y042387D01*
X055362Y042387D01*
X055536Y042387D01*
X054830Y042153D02*
X054830Y042110D01*
X054787Y042067D01*
X054700Y042067D01*
X054657Y042023D01*
X054657Y041980D01*
X054700Y041937D01*
X054787Y041937D01*
X054830Y041980D01*
X054830Y042023D01*
X054787Y042067D01*
X054700Y042067D01*
X054657Y042110D01*
X054657Y042153D01*
X054700Y042197D01*
X054787Y042197D01*
X054830Y042153D01*
X054830Y042110D01*
X054787Y042067D01*
X054830Y042023D01*
X054830Y041980D01*
X054787Y041937D01*
X054700Y041937D01*
X054657Y041980D01*
X054657Y042023D01*
X054700Y042067D01*
X054657Y042110D01*
X054657Y042153D01*
X054700Y042197D01*
X054787Y042197D01*
X054830Y042153D01*
X054830Y042837D02*
X054830Y042880D01*
X054657Y043053D01*
X054657Y043097D01*
X054830Y043097D01*
X054657Y043097D01*
X054657Y043053D01*
X054830Y042880D01*
X054830Y042837D01*
X055362Y043287D02*
X055536Y043287D01*
X055362Y043287D01*
X055449Y043287D02*
X055449Y043547D01*
X055536Y043460D01*
X055449Y043547D01*
X055449Y043287D01*
X055657Y043287D02*
X055830Y043287D01*
X055657Y043287D01*
X055743Y043287D02*
X055743Y043547D01*
X055830Y043460D01*
X055743Y043547D01*
X055743Y043287D01*
X054830Y043780D02*
X054787Y043737D01*
X054700Y043737D01*
X054657Y043780D01*
X054657Y043823D01*
X054700Y043867D01*
X054830Y043867D01*
X054830Y043780D01*
X054787Y043737D01*
X054700Y043737D01*
X054657Y043780D01*
X054657Y043823D01*
X054700Y043867D01*
X054830Y043867D01*
X054743Y043953D01*
X054657Y043997D01*
X054743Y043953D01*
X054830Y043867D01*
X054830Y043780D01*
X053830Y043470D02*
X053743Y043557D01*
X053743Y043297D01*
X053743Y043557D01*
X053830Y043470D01*
X053830Y043297D02*
X053657Y043297D01*
X053830Y043297D01*
X053787Y042657D02*
X053830Y042613D01*
X053787Y042657D01*
X053700Y042657D01*
X053657Y042613D01*
X053657Y042570D01*
X053830Y042397D01*
X053657Y042397D01*
X053830Y042397D01*
X053657Y042570D01*
X053657Y042613D01*
X053700Y042657D01*
X053787Y042657D01*
X053787Y041757D02*
X053700Y041757D01*
X053657Y041713D01*
X053657Y041670D01*
X053700Y041627D01*
X053657Y041583D01*
X053657Y041540D01*
X053700Y041497D01*
X053787Y041497D01*
X053830Y041540D01*
X053787Y041497D01*
X053700Y041497D01*
X053657Y041540D01*
X053657Y041583D01*
X053700Y041627D01*
X053743Y041627D01*
X053700Y041627D01*
X053657Y041670D01*
X053657Y041713D01*
X053700Y041757D01*
X053787Y041757D01*
X053830Y041713D01*
X053787Y041757D01*
X053700Y040857D02*
X053830Y040727D01*
X053657Y040727D01*
X053830Y040727D01*
X053700Y040857D01*
X053700Y040597D01*
X053700Y040857D01*
D14*
X052062Y008062D02*
X051999Y008062D01*
X051967Y008030D01*
X051967Y007998D01*
X051999Y007967D01*
X051967Y007935D01*
X051967Y007903D01*
X051999Y007872D01*
X052062Y007872D01*
X052094Y007903D01*
X052031Y007967D02*
X051999Y007967D01*
X052094Y008030D02*
X052062Y008062D01*
X052188Y007967D02*
X052315Y007967D01*
X052252Y008030D02*
X052252Y007903D01*
X051873Y007903D02*
X051841Y007903D01*
X051841Y007872D01*
X051873Y007872D01*
X051873Y007903D01*
X051763Y007903D02*
X051636Y008030D01*
X051636Y007903D01*
X051668Y007872D01*
X051731Y007872D01*
X051763Y007903D01*
X051763Y008030D01*
X051731Y008062D01*
X051668Y008062D01*
X051636Y008030D01*
X051542Y008062D02*
X051542Y007935D01*
X051478Y007872D01*
X051415Y007935D01*
X051415Y008062D01*
X051321Y007840D02*
X051194Y007840D01*
X051100Y007872D02*
X051005Y007872D01*
X050973Y007903D01*
X050973Y007935D01*
X051005Y007967D01*
X051100Y007967D01*
X051100Y008062D02*
X051005Y008062D01*
X050973Y008030D01*
X050973Y007998D01*
X051005Y007967D01*
X050879Y007967D02*
X050752Y007967D01*
X050752Y007998D02*
X050752Y007872D01*
X050752Y007998D02*
X050815Y008062D01*
X050879Y007998D01*
X050879Y007872D01*
X051100Y007872D02*
X051100Y008062D01*
X050658Y008062D02*
X050531Y008062D01*
X050594Y008062D02*
X050594Y007872D01*
X051746Y006990D02*
X051778Y007022D01*
X051873Y007022D01*
X051873Y006832D01*
X051778Y006832D01*
X051746Y006863D01*
X051746Y006990D01*
X051967Y007022D02*
X051967Y006832D01*
X052094Y007022D01*
X052094Y006832D01*
X052188Y006863D02*
X052188Y006927D01*
X052252Y006927D01*
X052315Y006990D02*
X052315Y006863D01*
X052283Y006832D01*
X052220Y006832D01*
X052188Y006863D01*
X052188Y006990D02*
X052220Y007022D01*
X052283Y007022D01*
X052315Y006990D01*
D15*
X033820Y040777D02*
X033380Y040777D01*
X033170Y040987D01*
X033170Y041807D01*
X033400Y042037D01*
X033820Y042037D01*
X034040Y041817D01*
X034040Y041747D01*
X034040Y041337D02*
X034040Y040997D01*
X033820Y040777D01*
X032710Y040957D02*
X032710Y042017D01*
X032710Y040957D02*
X032530Y040777D01*
X032140Y040777D01*
X030900Y041827D02*
X030860Y041827D01*
D16*
X033901Y041537D02*
X033903Y041560D01*
X033909Y041583D01*
X033919Y041605D01*
X033932Y041624D01*
X033948Y041641D01*
X033967Y041655D01*
X033988Y041666D01*
X034011Y041673D01*
X034034Y041676D01*
X034058Y041675D01*
X034081Y041670D01*
X034103Y041661D01*
X034123Y041649D01*
X034140Y041633D01*
X034155Y041615D01*
X034167Y041594D01*
X034175Y041572D01*
X034178Y041549D01*
X034178Y041525D01*
X034175Y041502D01*
X034167Y041480D01*
X034155Y041459D01*
X034140Y041441D01*
X034123Y041425D01*
X034103Y041413D01*
X034081Y041404D01*
X034058Y041399D01*
X034034Y041398D01*
X034011Y041401D01*
X033988Y041408D01*
X033967Y041419D01*
X033948Y041433D01*
X033932Y041450D01*
X033919Y041469D01*
X033909Y041491D01*
X033903Y041514D01*
X033901Y041537D01*
D17*
X031950Y041247D02*
X031950Y041827D01*
X029720Y041412D02*
X029245Y041412D01*
X028570Y041227D02*
X028550Y041247D01*
X028415Y041247D01*
X028395Y041227D01*
X028400Y041567D02*
X028540Y041567D01*
D18*
X028570Y041587D02*
X029020Y042027D01*
X029530Y042027D01*
X029720Y041827D01*
X029720Y041412D01*
X029715Y041417D02*
X029715Y040947D01*
X029545Y040777D01*
X029020Y040777D01*
X028570Y041227D01*
X028395Y041227D02*
X028060Y040907D01*
X028390Y041587D02*
X028070Y041907D01*
X030220Y042017D02*
X030220Y040977D01*
X030860Y041537D02*
X030860Y041827D01*
X030900Y041827D02*
X031130Y042017D01*
X031470Y042017D01*
X031470Y040977D01*
X030810Y041827D02*
X030570Y042017D01*
X030220Y042017D01*
D19*
X030160Y042017D02*
X030160Y042087D01*
X030719Y041337D02*
X030721Y041361D01*
X030727Y041384D01*
X030737Y041406D01*
X030750Y041426D01*
X030767Y041443D01*
X030786Y041457D01*
X030807Y041468D01*
X030830Y041475D01*
X030854Y041478D01*
X030878Y041477D01*
X030901Y041472D01*
X030923Y041463D01*
X030944Y041450D01*
X030962Y041435D01*
X030977Y041416D01*
X030988Y041395D01*
X030996Y041373D01*
X031000Y041349D01*
X031000Y041325D01*
X030996Y041301D01*
X030988Y041279D01*
X030977Y041258D01*
X030962Y041239D01*
X030944Y041224D01*
X030923Y041211D01*
X030901Y041202D01*
X030878Y041197D01*
X030854Y041196D01*
X030830Y041199D01*
X030807Y041206D01*
X030786Y041217D01*
X030767Y041231D01*
X030750Y041248D01*
X030737Y041268D01*
X030727Y041290D01*
X030721Y041313D01*
X030719Y041337D01*
X030078Y040777D02*
X030080Y040801D01*
X030086Y040824D01*
X030096Y040846D01*
X030110Y040866D01*
X030126Y040884D01*
X030146Y040898D01*
X030167Y040909D01*
X030190Y040916D01*
X030214Y040919D01*
X030238Y040918D01*
X030262Y040913D01*
X030284Y040904D01*
X030304Y040891D01*
X030323Y040875D01*
X030338Y040857D01*
X030349Y040835D01*
X030357Y040813D01*
X030361Y040789D01*
X030361Y040765D01*
X030357Y040741D01*
X030349Y040719D01*
X030338Y040697D01*
X030323Y040679D01*
X030304Y040663D01*
X030284Y040650D01*
X030262Y040641D01*
X030238Y040636D01*
X030214Y040635D01*
X030190Y040638D01*
X030167Y040645D01*
X030146Y040656D01*
X030126Y040670D01*
X030110Y040688D01*
X030096Y040708D01*
X030086Y040730D01*
X030080Y040753D01*
X030078Y040777D01*
X028939Y041407D02*
X028941Y041431D01*
X028947Y041454D01*
X028957Y041475D01*
X028971Y041494D01*
X028988Y041511D01*
X029007Y041525D01*
X029028Y041535D01*
X029051Y041541D01*
X029075Y041543D01*
X029099Y041541D01*
X029122Y041535D01*
X029143Y041525D01*
X029162Y041511D01*
X029179Y041494D01*
X029193Y041475D01*
X029203Y041454D01*
X029209Y041431D01*
X029211Y041407D01*
X029209Y041383D01*
X029203Y041360D01*
X029193Y041339D01*
X029179Y041320D01*
X029162Y041303D01*
X029143Y041289D01*
X029122Y041279D01*
X029099Y041273D01*
X029075Y041271D01*
X029051Y041273D01*
X029028Y041279D01*
X029007Y041289D01*
X028988Y041303D01*
X028971Y041320D01*
X028957Y041339D01*
X028947Y041360D01*
X028941Y041383D01*
X028939Y041407D01*
X027787Y042042D02*
X027789Y042066D01*
X027795Y042089D01*
X027805Y042111D01*
X027819Y042131D01*
X027836Y042148D01*
X027856Y042162D01*
X027878Y042172D01*
X027901Y042178D01*
X027925Y042180D01*
X027949Y042178D01*
X027972Y042172D01*
X027994Y042162D01*
X028014Y042148D01*
X028031Y042131D01*
X028045Y042111D01*
X028055Y042089D01*
X028061Y042066D01*
X028063Y042042D01*
X028061Y042018D01*
X028055Y041995D01*
X028045Y041973D01*
X028031Y041953D01*
X028014Y041936D01*
X027994Y041922D01*
X027972Y041912D01*
X027949Y041906D01*
X027925Y041904D01*
X027901Y041906D01*
X027878Y041912D01*
X027856Y041922D01*
X027836Y041936D01*
X027819Y041953D01*
X027805Y041973D01*
X027795Y041995D01*
X027789Y042018D01*
X027787Y042042D01*
X027785Y040772D02*
X027787Y040795D01*
X027793Y040818D01*
X027803Y040840D01*
X027817Y040859D01*
X027833Y040875D01*
X027852Y040889D01*
X027874Y040899D01*
X027897Y040905D01*
X027920Y040907D01*
X027943Y040905D01*
X027966Y040899D01*
X027987Y040889D01*
X028007Y040875D01*
X028023Y040859D01*
X028037Y040840D01*
X028047Y040818D01*
X028053Y040795D01*
X028055Y040772D01*
X028053Y040749D01*
X028047Y040726D01*
X028037Y040705D01*
X028023Y040685D01*
X028007Y040669D01*
X027988Y040655D01*
X027966Y040645D01*
X027943Y040639D01*
X027920Y040637D01*
X027897Y040639D01*
X027874Y040645D01*
X027852Y040655D01*
X027833Y040669D01*
X027817Y040685D01*
X027803Y040704D01*
X027793Y040726D01*
X027787Y040749D01*
X027785Y040772D01*
X031330Y040777D02*
X031332Y040801D01*
X031338Y040824D01*
X031348Y040845D01*
X031361Y040865D01*
X031378Y040882D01*
X031397Y040896D01*
X031418Y040907D01*
X031441Y040914D01*
X031464Y040917D01*
X031488Y040916D01*
X031511Y040911D01*
X031533Y040902D01*
X031553Y040890D01*
X031571Y040874D01*
X031586Y040855D01*
X031598Y040835D01*
X031605Y040812D01*
X031609Y040789D01*
X031609Y040765D01*
X031605Y040742D01*
X031598Y040719D01*
X031586Y040699D01*
X031571Y040680D01*
X031553Y040664D01*
X031533Y040652D01*
X031511Y040643D01*
X031488Y040638D01*
X031464Y040637D01*
X031441Y040640D01*
X031418Y040647D01*
X031397Y040658D01*
X031378Y040672D01*
X031361Y040689D01*
X031348Y040709D01*
X031338Y040730D01*
X031332Y040753D01*
X031330Y040777D01*
X031813Y040782D02*
X031815Y040806D01*
X031821Y040829D01*
X031831Y040850D01*
X031844Y040870D01*
X031861Y040887D01*
X031880Y040901D01*
X031901Y040912D01*
X031924Y040919D01*
X031947Y040922D01*
X031971Y040921D01*
X031994Y040916D01*
X032016Y040907D01*
X032036Y040895D01*
X032054Y040879D01*
X032069Y040860D01*
X032081Y040840D01*
X032088Y040817D01*
X032092Y040794D01*
X032092Y040770D01*
X032088Y040747D01*
X032081Y040724D01*
X032069Y040704D01*
X032054Y040685D01*
X032036Y040669D01*
X032016Y040657D01*
X031994Y040648D01*
X031971Y040643D01*
X031947Y040642D01*
X031924Y040645D01*
X031901Y040652D01*
X031880Y040663D01*
X031861Y040677D01*
X031844Y040694D01*
X031831Y040714D01*
X031821Y040735D01*
X031815Y040758D01*
X031813Y040782D01*
X031530Y041967D02*
X031530Y042077D01*
X031820Y042052D02*
X031822Y042076D01*
X031828Y042099D01*
X031838Y042120D01*
X031851Y042140D01*
X031868Y042157D01*
X031887Y042171D01*
X031908Y042182D01*
X031931Y042189D01*
X031954Y042192D01*
X031978Y042191D01*
X032001Y042186D01*
X032023Y042177D01*
X032043Y042165D01*
X032061Y042149D01*
X032076Y042130D01*
X032088Y042110D01*
X032095Y042087D01*
X032099Y042064D01*
X032099Y042040D01*
X032095Y042017D01*
X032088Y041994D01*
X032076Y041974D01*
X032061Y041955D01*
X032043Y041939D01*
X032023Y041927D01*
X032001Y041918D01*
X031978Y041913D01*
X031954Y041912D01*
X031931Y041915D01*
X031908Y041922D01*
X031887Y041933D01*
X031868Y041947D01*
X031851Y041964D01*
X031838Y041984D01*
X031828Y042005D01*
X031822Y042028D01*
X031820Y042052D01*
D20*
X020845Y016297D02*
X020797Y016200D01*
X020700Y016103D01*
X020700Y016248D01*
X020652Y016297D01*
X020604Y016297D01*
X020555Y016248D01*
X020555Y016151D01*
X020604Y016103D01*
X020700Y016103D01*
X020700Y015965D02*
X020652Y015917D01*
X020652Y015772D01*
X020555Y015772D02*
X020845Y015772D01*
X020845Y015917D01*
X020797Y015965D01*
X020700Y015965D01*
X019845Y015917D02*
X019797Y015965D01*
X019700Y015965D01*
X019652Y015917D01*
X019652Y015772D01*
X019555Y015772D02*
X019845Y015772D01*
X019845Y015917D01*
X019845Y016103D02*
X019845Y016297D01*
X019797Y016297D01*
X019604Y016103D01*
X019555Y016103D01*
X018845Y016151D02*
X018845Y016248D01*
X018797Y016297D01*
X018749Y016297D01*
X018700Y016248D01*
X018700Y016151D01*
X018749Y016103D01*
X018797Y016103D01*
X018845Y016151D01*
X018700Y016151D02*
X018652Y016103D01*
X018604Y016103D01*
X018555Y016151D01*
X018555Y016248D01*
X018604Y016297D01*
X018652Y016297D01*
X018700Y016248D01*
X018700Y015965D02*
X018652Y015917D01*
X018652Y015772D01*
X018555Y015772D02*
X018845Y015772D01*
X018845Y015917D01*
X018797Y015965D01*
X018700Y015965D01*
X017845Y015917D02*
X017797Y015965D01*
X017700Y015965D01*
X017652Y015917D01*
X017652Y015772D01*
X017555Y015772D02*
X017845Y015772D01*
X017845Y015917D01*
X017797Y016103D02*
X017749Y016103D01*
X017700Y016151D01*
X017700Y016297D01*
X017604Y016297D02*
X017797Y016297D01*
X017845Y016248D01*
X017845Y016151D01*
X017797Y016103D01*
X017604Y016103D02*
X017555Y016151D01*
X017555Y016248D01*
X017604Y016297D01*
X016845Y016200D02*
X016749Y016103D01*
X016845Y016200D02*
X016555Y016200D01*
X016555Y016103D02*
X016555Y016297D01*
X016604Y016435D02*
X016797Y016628D01*
X016604Y016628D01*
X016555Y016580D01*
X016555Y016483D01*
X016604Y016435D01*
X016797Y016435D01*
X016845Y016483D01*
X016845Y016580D01*
X016797Y016628D01*
X016797Y015965D02*
X016700Y015965D01*
X016652Y015917D01*
X016652Y015772D01*
X016555Y015772D02*
X016845Y015772D01*
X016845Y015917D01*
X016797Y015965D01*
M02*
