G75*
G70*
%OFA0B0*%
%FSLAX24Y24*%
%IPPOS*%
%LPD*%
%AMOC8*
5,1,8,0,0,1.08239X$1,22.5*
%
%ADD10R,0.0400X0.0400*%
%ADD11C,0.0080*%
%ADD12R,0.1969X0.0394*%
%ADD13R,0.0500X0.0600*%
%ADD14R,0.0400X0.0300*%
%ADD15R,0.0400X0.0200*%
%ADD16R,0.0236X0.0866*%
%ADD17R,0.0217X0.0472*%
%ADD18R,0.2362X0.1417*%
%ADD19R,0.1378X0.0630*%
%ADD20R,0.0394X0.0551*%
%ADD21R,0.0079X0.0512*%
%ADD22R,0.0512X0.0079*%
%ADD23R,0.0630X0.0630*%
%ADD24R,0.0098X0.0246*%
%ADD25R,0.0600X0.0500*%
%ADD26R,0.0886X0.0197*%
%ADD27R,0.1575X0.0827*%
%ADD28R,0.1378X0.0827*%
%ADD29R,0.0138X0.0689*%
%ADD30R,0.0866X0.0236*%
%ADD31R,0.0079X0.0354*%
%ADD32R,0.0354X0.0079*%
%ADD33R,0.0394X0.0394*%
%ADD34R,0.0472X0.0217*%
%ADD35R,0.0630X0.1378*%
%ADD36R,0.0650X0.0700*%
%ADD37R,0.0551X0.0394*%
%ADD38R,0.0709X0.0571*%
%ADD39R,0.0098X0.0472*%
%ADD40R,0.0900X0.0700*%
%ADD41C,0.0157*%
%ADD42R,0.0591X0.0118*%
%ADD43R,0.0787X0.1181*%
%ADD44R,0.1181X0.0787*%
%ADD45R,0.0246X0.0098*%
%ADD46R,0.1024X0.0571*%
%ADD47R,0.0630X0.0276*%
%ADD48R,0.0551X0.0472*%
%ADD49R,0.0551X0.0630*%
%ADD50R,0.0866X0.0472*%
%ADD51R,0.0512X0.0748*%
D10*
X015820Y012257D03*
X015820Y012957D03*
X017220Y012737D03*
X017670Y011937D03*
X018270Y011937D03*
X018870Y011937D03*
X019470Y011937D03*
X019470Y011237D03*
X018870Y011237D03*
X018270Y011237D03*
X017670Y011237D03*
X017220Y013437D03*
X017220Y014037D03*
X017220Y014737D03*
X017220Y015637D03*
X017820Y015637D03*
X018470Y015637D03*
X019170Y015637D03*
X017820Y016337D03*
X017220Y016337D03*
X019030Y018937D03*
X019630Y018937D03*
X020230Y019287D03*
X020830Y019287D03*
X020830Y018587D03*
X020230Y018587D03*
X019630Y019637D03*
X019030Y019637D03*
X018410Y019927D03*
X018410Y020527D03*
X017710Y020527D03*
X017710Y019927D03*
X017710Y019327D03*
X018410Y019327D03*
X016650Y019877D03*
X016650Y020577D03*
X015750Y020577D03*
X015750Y019877D03*
X014470Y021537D03*
X013770Y021537D03*
X013770Y022637D03*
X014470Y022637D03*
X014470Y023737D03*
X013770Y023737D03*
X013770Y024837D03*
X014470Y024837D03*
X014470Y025937D03*
X013770Y025937D03*
X013770Y027037D03*
X014470Y027037D03*
X016180Y027337D03*
X016180Y028037D03*
X016180Y028637D03*
X016880Y028637D03*
X017780Y028637D03*
X018480Y028637D03*
X018480Y028037D03*
X018480Y027337D03*
X019800Y025607D03*
X019800Y025007D03*
X020500Y025007D03*
X020500Y025607D03*
X021100Y025407D03*
X021100Y026007D03*
X021700Y026007D03*
X022300Y026007D03*
X022900Y026007D03*
X022900Y026707D03*
X022300Y026707D03*
X021700Y026707D03*
X021100Y026707D03*
X021800Y025407D03*
X021800Y024807D03*
X022400Y024807D03*
X022400Y024107D03*
X021800Y024107D03*
X021100Y024107D03*
X020500Y024307D03*
X019800Y024307D03*
X021100Y024807D03*
X023100Y023787D03*
X023100Y023187D03*
X023100Y022577D03*
X023800Y022577D03*
X023800Y023187D03*
X023800Y023787D03*
X024520Y023787D03*
X024520Y023187D03*
X025220Y023187D03*
X025220Y023787D03*
X025220Y020827D03*
X024520Y020827D03*
X024630Y019287D03*
X025330Y019287D03*
X025330Y018587D03*
X024630Y018587D03*
X023870Y018587D03*
X023270Y018587D03*
X023270Y019287D03*
X023870Y019287D03*
X028470Y015887D03*
X029170Y015887D03*
X029990Y015887D03*
X030690Y015887D03*
X031660Y015877D03*
X032260Y015877D03*
X032260Y015177D03*
X031660Y015177D03*
X029930Y014647D03*
X029230Y014647D03*
X033850Y014817D03*
X033850Y015417D03*
X033850Y016017D03*
X033850Y016617D03*
X033850Y017217D03*
X034550Y017217D03*
X034550Y016617D03*
X034550Y016017D03*
X034550Y015417D03*
X034550Y014817D03*
X034550Y014217D03*
X033850Y014217D03*
X033850Y018477D03*
X033850Y019077D03*
X033850Y019677D03*
X033850Y020277D03*
X033850Y020877D03*
X033850Y021477D03*
X034550Y021477D03*
X034550Y020877D03*
X034550Y020277D03*
X034550Y019677D03*
X034550Y019077D03*
X034550Y018477D03*
X036180Y019957D03*
X036880Y019957D03*
X037310Y020547D03*
X037910Y020547D03*
X038510Y020547D03*
X038510Y021247D03*
X037910Y021247D03*
X037310Y021247D03*
X037620Y022807D03*
X036920Y022807D03*
X034700Y023057D03*
X034000Y023057D03*
X034289Y025887D03*
X033589Y025887D03*
X033590Y026847D03*
X034290Y026847D03*
X033990Y028167D03*
X034690Y028167D03*
X034690Y028967D03*
X033990Y028967D03*
X033090Y029047D03*
X033090Y029687D03*
X032390Y029687D03*
X032390Y029047D03*
X032390Y027967D03*
X033090Y027967D03*
X033860Y031157D03*
X033860Y031857D03*
X029450Y028757D03*
X029450Y028157D03*
X029450Y027557D03*
X028750Y027557D03*
X028750Y028157D03*
X028750Y028757D03*
X029990Y025167D03*
X030690Y025167D03*
X022560Y029257D03*
X021860Y029257D03*
X021700Y028657D03*
X021700Y027957D03*
X020960Y029877D03*
X020360Y029877D03*
X019760Y029877D03*
X019160Y029877D03*
X019160Y030577D03*
X019760Y030577D03*
X020360Y030577D03*
X020960Y030577D03*
X017560Y030577D03*
X017560Y029877D03*
X015710Y034527D03*
X015010Y034527D03*
X019820Y034417D03*
X020420Y034417D03*
X021020Y034417D03*
X021020Y035117D03*
X020420Y035117D03*
X019820Y035117D03*
X020270Y037087D03*
X020270Y037787D03*
X020270Y038437D03*
X020970Y038437D03*
X020970Y037787D03*
X021670Y037787D03*
X022270Y037787D03*
X022870Y037787D03*
X023470Y037787D03*
X024070Y037787D03*
X024670Y037787D03*
X024670Y037087D03*
X024070Y037087D03*
X023470Y037087D03*
X022870Y037087D03*
X022270Y037087D03*
X021670Y037087D03*
X020970Y037087D03*
X018670Y038587D03*
X017970Y038587D03*
X020140Y040737D03*
X020740Y040737D03*
X021340Y040737D03*
X021340Y041437D03*
X020740Y041437D03*
X020140Y041437D03*
X018670Y042787D03*
X017970Y042787D03*
X021750Y043897D03*
X022350Y043897D03*
X022950Y043897D03*
X023550Y043897D03*
X023550Y044597D03*
X022950Y044597D03*
X022350Y044597D03*
X021750Y044597D03*
X024590Y044597D03*
X025190Y044597D03*
X025790Y044597D03*
X025790Y043897D03*
X025190Y043897D03*
X024590Y043897D03*
X024980Y047297D03*
X025680Y047297D03*
X023180Y047297D03*
X022480Y047297D03*
X027070Y037787D03*
X027770Y037787D03*
X027770Y037087D03*
X027070Y037087D03*
X039900Y035987D03*
X039900Y035287D03*
X040700Y035287D03*
X041300Y035287D03*
X041900Y035287D03*
X041900Y035987D03*
X041300Y035987D03*
X040700Y035987D03*
X043340Y037197D03*
X044040Y037197D03*
X045840Y037197D03*
X046540Y037197D03*
X048400Y036467D03*
X049100Y036467D03*
X050630Y036727D03*
X050630Y037327D03*
X050630Y037927D03*
X050630Y038527D03*
X051330Y038527D03*
X051330Y037927D03*
X051330Y037327D03*
X051330Y036727D03*
X051330Y036127D03*
X051330Y035527D03*
X051330Y034927D03*
X051330Y034327D03*
X050630Y034327D03*
X050630Y034927D03*
X050630Y035527D03*
X050630Y036127D03*
X052350Y035517D03*
X053050Y035517D03*
X053050Y037697D03*
X052350Y037697D03*
X051330Y039127D03*
X051330Y039727D03*
X051330Y040327D03*
X051330Y040927D03*
X051330Y041527D03*
X051330Y042127D03*
X051330Y042727D03*
X051330Y043327D03*
X051330Y043927D03*
X051330Y044527D03*
X051330Y045127D03*
X051330Y045727D03*
X051330Y046327D03*
X050630Y046327D03*
X050630Y045727D03*
X050630Y045127D03*
X050630Y044527D03*
X050630Y043927D03*
X050630Y043327D03*
X050630Y042727D03*
X050630Y042127D03*
X050630Y041527D03*
X050630Y040927D03*
X050630Y040327D03*
X050630Y039727D03*
X050630Y039127D03*
X049100Y040017D03*
X048400Y040017D03*
X052350Y039877D03*
X053050Y039877D03*
X049100Y043567D03*
X048400Y043567D03*
X046820Y046817D03*
X046220Y046817D03*
X045620Y046817D03*
X045620Y047517D03*
X046220Y047517D03*
X046820Y047517D03*
X050630Y047527D03*
X050630Y046927D03*
X051330Y046927D03*
X051330Y047527D03*
X052270Y049987D03*
X052970Y049987D03*
X047050Y034467D03*
X046450Y034467D03*
X045850Y034467D03*
X045250Y034467D03*
X044650Y034467D03*
X044050Y034467D03*
X044050Y033767D03*
X044650Y033767D03*
X045250Y033767D03*
X045850Y033767D03*
X046450Y033767D03*
X047050Y033767D03*
X047130Y032807D03*
X047130Y032207D03*
X047130Y031607D03*
X047130Y030987D03*
X047130Y030387D03*
X047130Y029787D03*
X047830Y029787D03*
X047830Y030387D03*
X047830Y030987D03*
X047830Y031607D03*
X047830Y032207D03*
X047830Y032807D03*
X046350Y032807D03*
X046350Y032207D03*
X046350Y031607D03*
X045650Y031607D03*
X045650Y032207D03*
X045650Y032807D03*
X045550Y030627D03*
X046250Y030627D03*
X050950Y027547D03*
X050950Y026947D03*
X051650Y026947D03*
X051650Y027547D03*
X051820Y028487D03*
X052520Y028487D03*
X051650Y026247D03*
X050950Y026247D03*
X050950Y025647D03*
X050950Y025047D03*
X051650Y025047D03*
X051650Y025647D03*
X051650Y024347D03*
X050950Y024347D03*
X050600Y022227D03*
X050600Y021627D03*
X050600Y021027D03*
X051300Y021027D03*
X051300Y021627D03*
X051300Y022227D03*
X053320Y018337D03*
X053320Y017737D03*
X054020Y017737D03*
X054020Y018337D03*
X054620Y018337D03*
X055320Y018337D03*
X055320Y015937D03*
X054620Y015937D03*
X054620Y013537D03*
X055320Y013537D03*
X055320Y011137D03*
X054620Y011137D03*
X054620Y008737D03*
X055320Y008737D03*
X050010Y012057D03*
X049310Y012057D03*
X048380Y009407D03*
X047680Y009407D03*
X047080Y009407D03*
X046380Y009407D03*
X045460Y010217D03*
X044860Y010217D03*
X044860Y010917D03*
X045460Y010917D03*
X043920Y011437D03*
X043920Y012137D03*
X040340Y014227D03*
X040340Y014827D03*
X040340Y015427D03*
X040340Y016027D03*
X040340Y016627D03*
X040340Y017227D03*
X040340Y017827D03*
X040340Y018427D03*
X039640Y018427D03*
X039640Y017827D03*
X039640Y017227D03*
X039640Y016627D03*
X039640Y016027D03*
X039640Y015427D03*
X039640Y014827D03*
X039640Y014227D03*
X039640Y019027D03*
X039640Y019627D03*
X040340Y019627D03*
X040340Y019027D03*
X040150Y020377D03*
X040150Y021077D03*
X041220Y021077D03*
X041220Y021677D03*
X041820Y021677D03*
X042430Y021677D03*
X042430Y022377D03*
X041820Y022377D03*
X041220Y022377D03*
X039870Y022967D03*
X039870Y023667D03*
X043560Y023377D03*
X044200Y023147D03*
X044150Y022557D03*
X044850Y022557D03*
X044800Y023147D03*
X044800Y023847D03*
X044200Y023847D03*
X043560Y024077D03*
X041220Y020377D03*
X045382Y017409D03*
X045382Y016709D03*
X051770Y031487D03*
X051770Y032087D03*
X051770Y032687D03*
X051770Y033287D03*
X052470Y033287D03*
X052470Y032687D03*
X052470Y032087D03*
X052470Y031487D03*
X022370Y012537D03*
X021670Y012537D03*
X021670Y011937D03*
X021670Y011237D03*
X021670Y009987D03*
X021070Y009987D03*
X021070Y009287D03*
X021670Y009287D03*
X022270Y009287D03*
X022870Y009287D03*
X022870Y009987D03*
X022270Y009987D03*
X016550Y022177D03*
X015850Y022177D03*
X017290Y022917D03*
X017290Y023517D03*
X017290Y024117D03*
X017990Y024117D03*
X017990Y023517D03*
X017990Y022917D03*
D11*
X033694Y024105D02*
X033920Y024331D01*
X033694Y024105D02*
X033468Y024331D01*
X033694Y024557D01*
X033920Y024331D01*
X033773Y024184D02*
X033615Y024184D01*
X033536Y024263D02*
X033852Y024263D01*
X033909Y024342D02*
X033479Y024342D01*
X033558Y024421D02*
X033830Y024421D01*
X033751Y024500D02*
X033637Y024500D01*
X034189Y024600D02*
X034415Y024826D01*
X034189Y024600D02*
X033963Y024826D01*
X034189Y025052D01*
X034415Y024826D01*
X034268Y024679D02*
X034110Y024679D01*
X034031Y024758D02*
X034347Y024758D01*
X034404Y024837D02*
X033974Y024837D01*
X034053Y024916D02*
X034325Y024916D01*
X034246Y024995D02*
X034132Y024995D01*
X034889Y024456D02*
X035115Y024682D01*
X034889Y024456D02*
X034663Y024682D01*
X034889Y024908D01*
X035115Y024682D01*
X034968Y024535D02*
X034810Y024535D01*
X034731Y024614D02*
X035047Y024614D01*
X035104Y024693D02*
X034674Y024693D01*
X034753Y024772D02*
X035025Y024772D01*
X034946Y024851D02*
X034832Y024851D01*
X034620Y024187D02*
X034394Y023961D01*
X034168Y024187D01*
X034394Y024413D01*
X034620Y024187D01*
X034473Y024040D02*
X034315Y024040D01*
X034236Y024119D02*
X034552Y024119D01*
X034609Y024198D02*
X034179Y024198D01*
X034258Y024277D02*
X034530Y024277D01*
X034451Y024356D02*
X034337Y024356D01*
X035069Y023797D02*
X035295Y024023D01*
X035069Y023797D02*
X034843Y024023D01*
X035069Y024249D01*
X035295Y024023D01*
X035148Y023876D02*
X034990Y023876D01*
X034911Y023955D02*
X035227Y023955D01*
X035284Y024034D02*
X034854Y024034D01*
X034933Y024113D02*
X035205Y024113D01*
X035126Y024192D02*
X035012Y024192D01*
X035564Y024292D02*
X035790Y024518D01*
X035564Y024292D02*
X035338Y024518D01*
X035564Y024744D01*
X035790Y024518D01*
X035643Y024371D02*
X035485Y024371D01*
X035406Y024450D02*
X035722Y024450D01*
X035779Y024529D02*
X035349Y024529D01*
X035428Y024608D02*
X035700Y024608D01*
X035621Y024687D02*
X035507Y024687D01*
X041043Y023790D02*
X041269Y023564D01*
X041043Y023338D01*
X040817Y023564D01*
X041043Y023790D01*
X041122Y023417D02*
X040964Y023417D01*
X040885Y023496D02*
X041201Y023496D01*
X041258Y023575D02*
X040828Y023575D01*
X040907Y023654D02*
X041179Y023654D01*
X041100Y023733D02*
X040986Y023733D01*
X041538Y023295D02*
X041764Y023069D01*
X041538Y022843D01*
X041312Y023069D01*
X041538Y023295D01*
X041617Y022922D02*
X041459Y022922D01*
X041380Y023001D02*
X041696Y023001D01*
X041753Y023080D02*
X041323Y023080D01*
X041402Y023159D02*
X041674Y023159D01*
X041595Y023238D02*
X041481Y023238D01*
X042003Y023890D02*
X042229Y023664D01*
X042003Y023438D01*
X041777Y023664D01*
X042003Y023890D01*
X042082Y023517D02*
X041924Y023517D01*
X041845Y023596D02*
X042161Y023596D01*
X042218Y023675D02*
X041788Y023675D01*
X041867Y023754D02*
X042139Y023754D01*
X042060Y023833D02*
X041946Y023833D01*
X042498Y023395D02*
X042724Y023169D01*
X042498Y022943D01*
X042272Y023169D01*
X042498Y023395D01*
X042577Y023022D02*
X042419Y023022D01*
X042340Y023101D02*
X042656Y023101D01*
X042713Y023180D02*
X042283Y023180D01*
X042362Y023259D02*
X042634Y023259D01*
X042555Y023338D02*
X042441Y023338D01*
X045688Y026365D02*
X045914Y026139D01*
X045688Y025913D01*
X045462Y026139D01*
X045688Y026365D01*
X045767Y025992D02*
X045609Y025992D01*
X045530Y026071D02*
X045846Y026071D01*
X045903Y026150D02*
X045473Y026150D01*
X045552Y026229D02*
X045824Y026229D01*
X045745Y026308D02*
X045631Y026308D01*
X045419Y026634D02*
X045193Y026860D01*
X045419Y026634D02*
X045193Y026408D01*
X044967Y026634D01*
X045193Y026860D01*
X045272Y026487D02*
X045114Y026487D01*
X045035Y026566D02*
X045351Y026566D01*
X045408Y026645D02*
X044978Y026645D01*
X045057Y026724D02*
X045329Y026724D01*
X045250Y026803D02*
X045136Y026803D01*
X046288Y027795D02*
X046514Y027569D01*
X046288Y027343D01*
X046062Y027569D01*
X046288Y027795D01*
X046367Y027422D02*
X046209Y027422D01*
X046130Y027501D02*
X046446Y027501D01*
X046503Y027580D02*
X046073Y027580D01*
X046152Y027659D02*
X046424Y027659D01*
X046345Y027738D02*
X046231Y027738D01*
X046019Y028064D02*
X045793Y028290D01*
X046019Y028064D02*
X045793Y027838D01*
X045567Y028064D01*
X045793Y028290D01*
X045872Y027917D02*
X045714Y027917D01*
X045635Y027996D02*
X045951Y027996D01*
X046008Y028075D02*
X045578Y028075D01*
X045657Y028154D02*
X045929Y028154D01*
X045850Y028233D02*
X045736Y028233D01*
D12*
X046540Y035847D03*
X043340Y035847D03*
X025680Y045947D03*
X022480Y045947D03*
D13*
X018720Y047087D03*
X017920Y047087D03*
X017920Y043587D03*
X018720Y043587D03*
X018720Y039387D03*
X017920Y039387D03*
X015760Y035227D03*
X014960Y035227D03*
X051720Y030787D03*
X052520Y030787D03*
D14*
X052420Y030087D03*
X051820Y030087D03*
X051820Y029087D03*
X052420Y029087D03*
D15*
X052420Y029437D03*
X052420Y029737D03*
X051820Y029737D03*
X051820Y029437D03*
D16*
X019320Y014810D03*
X018820Y014810D03*
X018320Y014810D03*
X017820Y014810D03*
X017820Y012763D03*
X018320Y012763D03*
X018820Y012763D03*
X019320Y012763D03*
D17*
X022346Y011898D03*
X023094Y011898D03*
X023094Y010875D03*
X022720Y010875D03*
X022346Y010875D03*
X022376Y027595D03*
X022750Y027595D03*
X023124Y027595D03*
X023124Y028618D03*
X022376Y028618D03*
X020794Y032745D03*
X020420Y032745D03*
X020046Y032745D03*
X020046Y033768D03*
X020794Y033768D03*
X020620Y039085D03*
X020246Y039085D03*
X020994Y039085D03*
X020994Y040108D03*
X020246Y040108D03*
D18*
X021370Y016107D03*
X021370Y013666D03*
D19*
X024020Y010359D03*
X024020Y009414D03*
X017970Y021204D03*
X017970Y022149D03*
X024050Y026134D03*
X024050Y027079D03*
X024770Y022479D03*
X024770Y021534D03*
D20*
X050762Y012057D03*
X052258Y012057D03*
D21*
X043336Y024715D03*
X043179Y024715D03*
X043021Y024715D03*
X042864Y024715D03*
X042706Y024715D03*
X042549Y024715D03*
X042391Y024715D03*
X042234Y024715D03*
X042076Y024715D03*
X041919Y024715D03*
X041761Y024715D03*
X041604Y024715D03*
X041446Y024715D03*
X041289Y024715D03*
X041131Y024715D03*
X040974Y024715D03*
X040816Y024715D03*
X040659Y024715D03*
X040501Y024715D03*
X040344Y024715D03*
X040186Y024715D03*
X040029Y024715D03*
X039871Y024715D03*
X039714Y024715D03*
X039556Y024715D03*
X039399Y024715D03*
X039241Y024715D03*
X039084Y024715D03*
X038927Y024715D03*
X038769Y024715D03*
X038612Y024715D03*
X038454Y024715D03*
X038297Y024715D03*
X038139Y024715D03*
X037982Y024715D03*
X037824Y024715D03*
X037667Y024715D03*
X037509Y024715D03*
X037352Y024715D03*
X037194Y024715D03*
X037037Y024715D03*
X036879Y024715D03*
X036722Y024715D03*
X036564Y024715D03*
X036564Y033258D03*
X036722Y033258D03*
X036879Y033258D03*
X037037Y033258D03*
X037194Y033258D03*
X037352Y033258D03*
X037509Y033258D03*
X037667Y033258D03*
X037824Y033258D03*
X037982Y033258D03*
X038139Y033258D03*
X038297Y033258D03*
X038454Y033258D03*
X038612Y033258D03*
X038769Y033258D03*
X038927Y033258D03*
X039084Y033258D03*
X039241Y033258D03*
X039399Y033258D03*
X039556Y033258D03*
X039714Y033258D03*
X039871Y033258D03*
X040029Y033258D03*
X040186Y033258D03*
X040344Y033258D03*
X040501Y033258D03*
X040659Y033258D03*
X040816Y033258D03*
X040974Y033258D03*
X041131Y033258D03*
X041289Y033258D03*
X041446Y033258D03*
X041604Y033258D03*
X041761Y033258D03*
X041919Y033258D03*
X042076Y033258D03*
X042234Y033258D03*
X042391Y033258D03*
X042549Y033258D03*
X042706Y033258D03*
X042864Y033258D03*
X043021Y033258D03*
X043179Y033258D03*
X043336Y033258D03*
D22*
X044222Y032372D03*
X044222Y032215D03*
X044222Y032057D03*
X044222Y031900D03*
X044222Y031743D03*
X044222Y031585D03*
X044222Y031428D03*
X044222Y031270D03*
X044222Y031113D03*
X044222Y030955D03*
X044222Y030798D03*
X044222Y030640D03*
X044222Y030483D03*
X044222Y030325D03*
X044222Y030168D03*
X044222Y030010D03*
X044222Y029853D03*
X044222Y029695D03*
X044222Y029538D03*
X044222Y029380D03*
X044222Y029223D03*
X044222Y029065D03*
X044222Y028908D03*
X044222Y028750D03*
X044222Y028593D03*
X044222Y028435D03*
X044222Y028278D03*
X044222Y028120D03*
X044222Y027963D03*
X044222Y027806D03*
X044222Y027648D03*
X044222Y027491D03*
X044222Y027333D03*
X044222Y027176D03*
X044222Y027018D03*
X044222Y026861D03*
X044222Y026703D03*
X044222Y026546D03*
X044222Y026388D03*
X044222Y026231D03*
X044222Y026073D03*
X044222Y025916D03*
X044222Y025758D03*
X044222Y025601D03*
X035679Y025601D03*
X035679Y025758D03*
X035679Y025916D03*
X035679Y026073D03*
X035679Y026231D03*
X035679Y026388D03*
X035679Y026546D03*
X035679Y026703D03*
X035679Y026861D03*
X035679Y027018D03*
X035679Y027176D03*
X035679Y027333D03*
X035679Y027491D03*
X035679Y027648D03*
X035679Y027806D03*
X035679Y027963D03*
X035679Y028120D03*
X035679Y028278D03*
X035679Y028435D03*
X035679Y028593D03*
X035679Y028750D03*
X035679Y028908D03*
X035679Y029065D03*
X035679Y029223D03*
X035679Y029380D03*
X035679Y029538D03*
X035679Y029695D03*
X035679Y029853D03*
X035679Y030010D03*
X035679Y030168D03*
X035679Y030325D03*
X035679Y030483D03*
X035679Y030640D03*
X035679Y030798D03*
X035679Y030955D03*
X035679Y031113D03*
X035679Y031270D03*
X035679Y031428D03*
X035679Y031585D03*
X035679Y031743D03*
X035679Y031900D03*
X035679Y032057D03*
X035679Y032215D03*
X035679Y032372D03*
D23*
X039163Y029774D03*
X039950Y029774D03*
X040738Y029774D03*
X040738Y028987D03*
X040738Y028199D03*
X039950Y028199D03*
X039163Y028199D03*
X039163Y028987D03*
D24*
X045155Y025148D03*
X045352Y025148D03*
X045549Y025148D03*
X045745Y025148D03*
X045745Y024745D03*
X045549Y024745D03*
X045352Y024745D03*
X045155Y024745D03*
X045785Y024228D03*
X045982Y024228D03*
X046179Y024228D03*
X046375Y024228D03*
X046375Y023825D03*
X046179Y023825D03*
X045982Y023825D03*
X045785Y023825D03*
X046416Y024976D03*
X046613Y024976D03*
X046810Y024976D03*
X047006Y024976D03*
X047006Y025379D03*
X046810Y025379D03*
X046613Y025379D03*
X046416Y025379D03*
X046895Y025985D03*
X047092Y025985D03*
X047289Y025985D03*
X047485Y025985D03*
X047485Y026388D03*
X047289Y026388D03*
X047092Y026388D03*
X046895Y026388D03*
X048155Y025378D03*
X048352Y025378D03*
X048549Y025378D03*
X048745Y025378D03*
X048745Y024975D03*
X048549Y024975D03*
X048352Y024975D03*
X048155Y024975D03*
X048115Y024228D03*
X047919Y024228D03*
X047722Y024228D03*
X047525Y024228D03*
X047525Y023825D03*
X047722Y023825D03*
X047919Y023825D03*
X048115Y023825D03*
X043555Y022518D03*
X043359Y022518D03*
X043162Y022518D03*
X042965Y022518D03*
X042965Y022115D03*
X043162Y022115D03*
X043359Y022115D03*
X043555Y022115D03*
X040675Y021935D03*
X040479Y021935D03*
X040282Y021935D03*
X040085Y021935D03*
X040085Y022338D03*
X040282Y022338D03*
X040479Y022338D03*
X040675Y022338D03*
X039625Y021258D03*
X039429Y021258D03*
X039232Y021258D03*
X039035Y021258D03*
X039035Y020855D03*
X039232Y020855D03*
X039429Y020855D03*
X039625Y020855D03*
X036785Y020985D03*
X036589Y020985D03*
X036392Y020985D03*
X036195Y020985D03*
X036195Y021388D03*
X036392Y021388D03*
X036589Y021388D03*
X036785Y021388D03*
D25*
X018360Y029827D03*
X018360Y030627D03*
X016760Y030627D03*
X016760Y029827D03*
X025670Y036937D03*
X025670Y037737D03*
X019920Y050687D03*
X016720Y050687D03*
X056170Y018337D03*
X056170Y015937D03*
X056170Y013537D03*
X059370Y013537D03*
X059370Y015937D03*
X059370Y018337D03*
X059370Y011137D03*
X059370Y008737D03*
X056170Y008737D03*
X056170Y011137D03*
X019920Y005687D03*
X016720Y005687D03*
D26*
X015586Y031107D03*
X015586Y031422D03*
X015586Y031737D03*
X015586Y032052D03*
X015586Y032367D03*
D27*
X013772Y033685D03*
X013772Y029788D03*
D28*
X015445Y029788D03*
X015445Y033685D03*
D29*
X022157Y039629D03*
X022413Y039629D03*
X022669Y039629D03*
X022924Y039629D03*
X023180Y039629D03*
X023436Y039629D03*
X023692Y039629D03*
X023948Y039629D03*
X024204Y039629D03*
X024460Y039629D03*
X024716Y039629D03*
X024972Y039629D03*
X025228Y039629D03*
X025484Y039629D03*
X025484Y042404D03*
X025228Y042404D03*
X024972Y042404D03*
X024716Y042404D03*
X024460Y042404D03*
X024204Y042404D03*
X023948Y042404D03*
X023692Y042404D03*
X023436Y042404D03*
X023180Y042404D03*
X022924Y042404D03*
X022669Y042404D03*
X022413Y042404D03*
X022157Y042404D03*
D30*
X046357Y011607D03*
X046357Y011107D03*
X046357Y010607D03*
X046357Y010107D03*
X048404Y010107D03*
X048404Y010607D03*
X048404Y011107D03*
X048404Y011607D03*
D31*
X021756Y020846D03*
X021599Y020846D03*
X021441Y020846D03*
X021284Y020846D03*
X021126Y020846D03*
X020969Y020846D03*
X020811Y020846D03*
X020654Y020846D03*
X020496Y020846D03*
X020339Y020846D03*
X020181Y020846D03*
X020024Y020846D03*
X020024Y023208D03*
X020181Y023208D03*
X020339Y023208D03*
X020496Y023208D03*
X020654Y023208D03*
X020811Y023208D03*
X020969Y023208D03*
X021126Y023208D03*
X021284Y023208D03*
X021441Y023208D03*
X021599Y023208D03*
X021756Y023208D03*
D32*
X022071Y022893D03*
X022071Y022735D03*
X022071Y022578D03*
X022071Y022420D03*
X022071Y022263D03*
X022071Y022105D03*
X022071Y021948D03*
X022071Y021790D03*
X022071Y021633D03*
X022071Y021475D03*
X022071Y021318D03*
X022071Y021160D03*
X019709Y021160D03*
X019709Y021318D03*
X019709Y021475D03*
X019709Y021633D03*
X019709Y021790D03*
X019709Y021948D03*
X019709Y022105D03*
X019709Y022263D03*
X019709Y022420D03*
X019709Y022578D03*
X019709Y022735D03*
X019709Y022893D03*
D33*
X020378Y022538D03*
X020378Y022027D03*
X020378Y021515D03*
X020890Y021515D03*
X021402Y021515D03*
X021402Y022027D03*
X021402Y022538D03*
X020890Y022538D03*
D34*
X017842Y027263D03*
X017842Y027637D03*
X017842Y028011D03*
X016818Y028011D03*
X016818Y027637D03*
X016818Y027263D03*
D35*
X016858Y026187D03*
X017803Y026187D03*
X021588Y019007D03*
X022533Y019007D03*
D36*
X016775Y021377D03*
X015625Y021377D03*
D37*
X017137Y017437D03*
X018003Y017811D03*
X018003Y017063D03*
X044697Y009561D03*
X045563Y009187D03*
X044697Y008813D03*
X052187Y034053D03*
X053053Y034427D03*
X052187Y034801D03*
X052147Y036233D03*
X053013Y036607D03*
X052147Y036981D03*
X052147Y038413D03*
X053013Y038787D03*
X052147Y039161D03*
X052147Y040593D03*
X053013Y040967D03*
X052147Y041341D03*
X052147Y042173D03*
X052147Y042921D03*
X053013Y042547D03*
X052147Y043753D03*
X052147Y044501D03*
X053013Y044127D03*
X052147Y045333D03*
X052147Y046081D03*
X053013Y045707D03*
X052147Y046913D03*
X052147Y047661D03*
X052337Y048513D03*
X053203Y048887D03*
X052337Y049261D03*
X053013Y047287D03*
D38*
X018920Y018249D03*
X018920Y016324D03*
D39*
X028076Y016629D03*
X028273Y016629D03*
X028470Y016629D03*
X028667Y016629D03*
X028864Y016629D03*
X029061Y016629D03*
X029257Y016629D03*
X029454Y016629D03*
X029651Y016629D03*
X029848Y016629D03*
X030045Y016629D03*
X030242Y016629D03*
X030439Y016629D03*
X030635Y016629D03*
X030832Y016629D03*
X031029Y016629D03*
X031226Y016629D03*
X031423Y016629D03*
X031620Y016629D03*
X031817Y016629D03*
X032013Y016629D03*
X032210Y016629D03*
X032407Y016629D03*
X032604Y016629D03*
X032604Y024424D03*
X032407Y024424D03*
X032210Y024424D03*
X032013Y024424D03*
X031817Y024424D03*
X031620Y024424D03*
X031423Y024424D03*
X031226Y024424D03*
X031029Y024424D03*
X030832Y024424D03*
X030635Y024424D03*
X030439Y024424D03*
X030242Y024424D03*
X030045Y024424D03*
X029848Y024424D03*
X029651Y024424D03*
X029454Y024424D03*
X029257Y024424D03*
X029061Y024424D03*
X028864Y024424D03*
X028667Y024424D03*
X028470Y024424D03*
X028273Y024424D03*
X028076Y024424D03*
D40*
X020570Y012444D03*
X020570Y010730D03*
D41*
X035777Y015224D03*
X035777Y015539D03*
X035777Y015854D03*
X035777Y016169D03*
X035777Y016484D03*
X035777Y016799D03*
X035777Y017114D03*
X035777Y017429D03*
X035777Y017744D03*
X035777Y018059D03*
X035777Y018374D03*
X035777Y018689D03*
X035777Y019004D03*
X036092Y019004D03*
X036092Y018689D03*
X036092Y018374D03*
X036092Y018059D03*
X036092Y017744D03*
X036092Y017429D03*
X036092Y017114D03*
X036092Y016799D03*
X036092Y016484D03*
X036092Y016169D03*
X036092Y015854D03*
X036092Y015539D03*
X036092Y015224D03*
X036407Y015224D03*
X036407Y015539D03*
X036407Y015854D03*
X036407Y016169D03*
X036407Y016484D03*
X036407Y016799D03*
X036407Y017114D03*
X036407Y017429D03*
X036407Y017744D03*
X036407Y018059D03*
X036407Y018374D03*
X036407Y018689D03*
X036407Y019004D03*
X037667Y019004D03*
X037982Y019004D03*
X038297Y019004D03*
X038297Y018689D03*
X037982Y018689D03*
X037667Y018689D03*
X037667Y018374D03*
X037667Y018059D03*
X037667Y017744D03*
X037667Y017429D03*
X037667Y017114D03*
X037667Y016799D03*
X037667Y016484D03*
X037667Y016169D03*
X037667Y015854D03*
X037667Y015539D03*
X037667Y015224D03*
X037982Y015224D03*
X038297Y015224D03*
X038297Y015539D03*
X037982Y015539D03*
X037982Y015854D03*
X038297Y015854D03*
X038297Y016169D03*
X037982Y016169D03*
X037982Y016484D03*
X038297Y016484D03*
X038297Y016799D03*
X037982Y016799D03*
X037982Y017114D03*
X038297Y017114D03*
X038297Y017429D03*
X037982Y017429D03*
X037982Y017744D03*
X037982Y018059D03*
X037982Y018374D03*
X038297Y018374D03*
X038297Y018059D03*
X038297Y017744D03*
X041683Y017744D03*
X041998Y017744D03*
X042313Y017744D03*
X042313Y017429D03*
X042313Y017114D03*
X042313Y016799D03*
X042313Y016484D03*
X042313Y016169D03*
X042313Y015854D03*
X042313Y015539D03*
X042313Y015224D03*
X041998Y015224D03*
X041683Y015224D03*
X041683Y015539D03*
X041998Y015539D03*
X041998Y015854D03*
X041683Y015854D03*
X041683Y016169D03*
X041998Y016169D03*
X041998Y016484D03*
X041998Y016799D03*
X041998Y017114D03*
X041998Y017429D03*
X041683Y017429D03*
X041683Y017114D03*
X041683Y016799D03*
X041683Y016484D03*
X041683Y018059D03*
X041998Y018059D03*
X042313Y018059D03*
X042313Y018374D03*
X042313Y018689D03*
X042313Y019004D03*
X041998Y019004D03*
X041998Y018689D03*
X041998Y018374D03*
X041683Y018374D03*
X041683Y018689D03*
X041683Y019004D03*
X043573Y019004D03*
X043888Y019004D03*
X044203Y019004D03*
X044203Y018689D03*
X044203Y018374D03*
X044203Y018059D03*
X044203Y017744D03*
X044203Y017429D03*
X044203Y017114D03*
X044203Y016799D03*
X044203Y016484D03*
X044203Y016169D03*
X044203Y015854D03*
X044203Y015539D03*
X044203Y015224D03*
X043888Y015224D03*
X043888Y015539D03*
X043888Y015854D03*
X043888Y016169D03*
X043888Y016484D03*
X043888Y016799D03*
X043888Y017114D03*
X043888Y017429D03*
X043888Y017744D03*
X043888Y018059D03*
X043888Y018374D03*
X043888Y018689D03*
X043573Y018689D03*
X043573Y018374D03*
X043573Y018059D03*
X043573Y017744D03*
X043573Y017429D03*
X043573Y017114D03*
X043573Y016799D03*
X043573Y016484D03*
X043573Y016169D03*
X043573Y015854D03*
X043573Y015539D03*
X043573Y015224D03*
D42*
X047569Y037005D03*
X047569Y037261D03*
X047569Y037517D03*
X047569Y037773D03*
X047569Y038029D03*
X047569Y038285D03*
X047569Y038540D03*
X047569Y038796D03*
X047569Y039052D03*
X047569Y039308D03*
X047569Y040555D03*
X047569Y040811D03*
X047569Y041067D03*
X047569Y041323D03*
X047569Y041579D03*
X047569Y041835D03*
X047569Y042090D03*
X047569Y042346D03*
X047569Y042602D03*
X047569Y042858D03*
X047569Y044105D03*
X047569Y044361D03*
X047569Y044617D03*
X047569Y044873D03*
X047569Y045129D03*
X047569Y045385D03*
X047569Y045640D03*
X047569Y045896D03*
X047569Y046152D03*
X047569Y046408D03*
X049931Y046408D03*
X049931Y046152D03*
X049931Y045896D03*
X049931Y045640D03*
X049931Y045385D03*
X049931Y045129D03*
X049931Y044873D03*
X049931Y044617D03*
X049931Y044361D03*
X049931Y044105D03*
X049931Y042858D03*
X049931Y042602D03*
X049931Y042346D03*
X049931Y042090D03*
X049931Y041835D03*
X049931Y041579D03*
X049931Y041323D03*
X049931Y041067D03*
X049931Y040811D03*
X049931Y040555D03*
X049931Y039308D03*
X049931Y039052D03*
X049931Y038796D03*
X049931Y038540D03*
X049931Y038285D03*
X049931Y038029D03*
X049931Y037773D03*
X049931Y037517D03*
X049931Y037261D03*
X049931Y037005D03*
D43*
X054211Y027383D03*
X057952Y027383D03*
X059093Y027383D03*
X057243Y024746D03*
X057952Y023183D03*
X059093Y023183D03*
X057243Y020546D03*
X054211Y023183D03*
D44*
X052637Y021491D03*
X052637Y025691D03*
D45*
X051152Y023772D03*
X051152Y023575D03*
X051152Y023378D03*
X051152Y023181D03*
X050748Y023181D03*
X050748Y023378D03*
X050748Y023575D03*
X050748Y023772D03*
D46*
X019680Y026524D03*
X019680Y028449D03*
D47*
X053521Y028962D03*
X053521Y029395D03*
X053521Y029828D03*
X053521Y030261D03*
X053521Y030694D03*
X053521Y031127D03*
X053521Y031560D03*
X053521Y031993D03*
X053521Y032426D03*
D48*
X053767Y028489D03*
D49*
X053767Y034237D03*
D50*
X057547Y034592D03*
X057547Y028489D03*
D51*
X052153Y010987D03*
X052153Y009727D03*
X049987Y009727D03*
X049987Y010987D03*
M02*
