G75*
G70*
%OFA0B0*%
%FSLAX24Y24*%
%IPPOS*%
%LPD*%
%AMOC8*
5,1,8,0,0,1.08239X$1,22.5*
%
%ADD10R,0.0400X0.0400*%
%ADD11R,0.0200X0.0300*%
%ADD12R,0.0157X0.0551*%
%ADD13R,0.0700X0.0700*%
%ADD14C,0.0700*%
%ADD15R,0.0320X0.0200*%
%ADD16R,0.0600X0.0600*%
%ADD17C,0.0600*%
%ADD18O,0.0780X0.0390*%
%ADD19O,0.1181X0.0591*%
%ADD20C,0.1266*%
%ADD21R,0.0400X0.0300*%
%ADD22R,0.0400X0.0200*%
%ADD23R,0.0394X0.0551*%
%ADD24C,0.0591*%
%ADD25C,0.0886*%
%ADD26C,0.1502*%
%ADD27C,0.1181*%
%ADD28C,0.0100*%
%ADD29C,0.0400*%
%ADD30C,0.0500*%
%ADD31C,0.0354*%
%ADD32C,0.0197*%
%ADD33C,0.0157*%
%ADD34C,0.0276*%
%ADD35C,0.0160*%
%ADD36C,0.0200*%
%ADD37C,0.0394*%
%ADD38C,0.0205*%
%ADD39C,0.0079*%
%ADD40C,0.0080*%
%ADD41C,0.0118*%
%ADD42C,0.0098*%
%ADD43C,0.0315*%
D10*
X016723Y006966D03*
X017423Y006966D03*
X019282Y007281D03*
X019982Y007281D03*
X020818Y007281D03*
X021518Y007281D03*
X023845Y008624D03*
X024829Y008782D03*
X023845Y009324D03*
X024829Y009482D03*
X023845Y010514D03*
X023845Y011214D03*
X019982Y013344D03*
X019282Y013344D03*
X017896Y014033D03*
X018569Y014136D03*
X019553Y014136D03*
X020380Y014136D03*
X020990Y014136D03*
X021601Y014136D03*
X021601Y014836D03*
X020990Y014836D03*
X020380Y014836D03*
X019553Y014836D03*
X018569Y014836D03*
X017196Y014033D03*
X012427Y015396D03*
X012427Y016096D03*
X009947Y012553D03*
X009947Y011853D03*
X013372Y010230D03*
X013372Y009530D03*
D11*
X015899Y006494D03*
X016199Y006494D03*
X016199Y005943D03*
X015899Y005943D03*
X015899Y005391D03*
X016199Y005391D03*
X016199Y004840D03*
X015899Y004840D03*
D12*
X015872Y007941D03*
X015616Y007941D03*
X015360Y007941D03*
X015105Y007941D03*
X014849Y007941D03*
X014593Y007941D03*
X016128Y007941D03*
X016384Y007941D03*
X016640Y007941D03*
X016896Y007941D03*
X017152Y007941D03*
X017408Y007941D03*
X017664Y007941D03*
X017920Y007941D03*
X018175Y007941D03*
X018431Y007941D03*
X018687Y007941D03*
X018943Y007941D03*
X019199Y007941D03*
X019455Y007941D03*
X019711Y007941D03*
X019967Y007941D03*
X020223Y007941D03*
X020479Y007941D03*
X020734Y007941D03*
X020990Y007941D03*
X021246Y007941D03*
X021502Y007941D03*
X021758Y007941D03*
X022014Y007941D03*
X022270Y007941D03*
X022526Y007941D03*
X022782Y007941D03*
X022782Y012606D03*
X022526Y012606D03*
X022270Y012606D03*
X022014Y012606D03*
X021758Y012606D03*
X021502Y012606D03*
X021246Y012606D03*
X020990Y012606D03*
X020734Y012606D03*
X020479Y012606D03*
X020223Y012606D03*
X019967Y012606D03*
X019711Y012606D03*
X019455Y012606D03*
X019199Y012606D03*
X018943Y012606D03*
X018687Y012606D03*
X018431Y012606D03*
X018175Y012606D03*
X017920Y012606D03*
X017664Y012606D03*
X017408Y012606D03*
X017152Y012606D03*
X016896Y012606D03*
X016640Y012606D03*
X016384Y012606D03*
X016128Y012606D03*
X015872Y012606D03*
X015616Y012606D03*
X015360Y012606D03*
X015105Y012606D03*
X014849Y012606D03*
X014593Y012606D03*
D13*
X003282Y002506D03*
X032282Y003506D03*
X032282Y017506D03*
X003282Y018506D03*
D14*
X004282Y018506D03*
X005282Y018506D03*
X006282Y018506D03*
X007282Y018506D03*
X008282Y018506D03*
X009282Y018506D03*
X010282Y018506D03*
X011282Y018506D03*
X012282Y018506D03*
X013282Y018506D03*
X014282Y018506D03*
X015282Y018506D03*
X016282Y018506D03*
X017282Y018506D03*
X018282Y018506D03*
X019282Y018506D03*
X020282Y018506D03*
X021282Y018506D03*
X022282Y018506D03*
X023282Y018506D03*
X024282Y018506D03*
X025282Y018506D03*
X026282Y018506D03*
X027282Y018506D03*
X028282Y018506D03*
X029282Y018506D03*
X030282Y018506D03*
X031282Y018506D03*
X032282Y018506D03*
X031282Y017506D03*
X030282Y017506D03*
X029282Y017506D03*
X029282Y003506D03*
X030282Y003506D03*
X031282Y003506D03*
X031282Y002506D03*
X030282Y002506D03*
X029282Y002506D03*
X028282Y002506D03*
X027282Y002506D03*
X026282Y002506D03*
X025282Y002506D03*
X024282Y002506D03*
X023282Y002506D03*
X022282Y002506D03*
X021282Y002506D03*
X020282Y002506D03*
X019282Y002506D03*
X018282Y002506D03*
X017282Y002506D03*
X016282Y002506D03*
X015282Y002506D03*
X014282Y002506D03*
X013282Y002506D03*
X012282Y002506D03*
X011282Y002506D03*
X010282Y002506D03*
X009282Y002506D03*
X008282Y002506D03*
X007282Y002506D03*
X006282Y002506D03*
X005282Y002506D03*
X004282Y002506D03*
X032282Y002506D03*
D15*
X017073Y006966D03*
D16*
X007282Y009256D03*
X027597Y009132D03*
X027597Y006218D03*
D17*
X028597Y006218D03*
X028597Y009132D03*
X007282Y010256D03*
D18*
X032153Y012189D03*
X032153Y012681D03*
X032153Y013173D03*
X032153Y013665D03*
X032153Y014157D03*
X032153Y014649D03*
X032153Y015141D03*
X032153Y015634D03*
D19*
X005349Y008946D03*
X005349Y007962D03*
X005349Y007175D03*
X005349Y006190D03*
D20*
X004282Y005179D03*
X004282Y009958D03*
D21*
X013112Y006088D03*
X013712Y006088D03*
X014686Y006088D03*
X015286Y006088D03*
X015286Y005088D03*
X014686Y005088D03*
X013712Y005088D03*
X013112Y005088D03*
D22*
X013112Y005438D03*
X013112Y005738D03*
X013712Y005738D03*
X013712Y005438D03*
X014686Y005438D03*
X015286Y005438D03*
X015286Y005738D03*
X014686Y005738D03*
D23*
X009888Y006769D03*
X009140Y006769D03*
X009514Y007636D03*
X009849Y008384D03*
X009101Y008384D03*
X009475Y009250D03*
X009849Y009998D03*
X009101Y009998D03*
X009475Y010864D03*
X031660Y004525D03*
X032408Y004525D03*
X032034Y005391D03*
D24*
X032328Y006345D03*
X032328Y006542D03*
X032328Y006739D03*
X032328Y006936D03*
X032328Y007132D03*
X032328Y007329D03*
X032328Y007526D03*
X031659Y008688D03*
X031462Y008688D03*
X031265Y008688D03*
X031068Y008688D03*
X030871Y008688D03*
X030675Y008688D03*
X030478Y008688D03*
X029769Y007526D03*
X029769Y007329D03*
X029769Y007132D03*
X029769Y006936D03*
X029769Y006739D03*
X029769Y006542D03*
X029769Y006345D03*
D25*
X006231Y012298D03*
X006034Y012298D03*
X005837Y012298D03*
X005640Y012298D03*
X005444Y012298D03*
X005247Y012298D03*
X005247Y016471D03*
X005444Y016471D03*
X005640Y016471D03*
X005837Y016471D03*
X006034Y016471D03*
X006231Y016471D03*
D26*
X003682Y014384D03*
D27*
X005729Y014384D03*
D28*
X006455Y014718D02*
X009602Y014718D01*
X009504Y014816D02*
X006414Y014816D01*
X006405Y014836D02*
X006181Y015061D01*
X005888Y015182D01*
X005570Y015182D01*
X005277Y015061D01*
X005052Y014836D01*
X004931Y014543D01*
X004931Y014226D01*
X005052Y013932D01*
X005277Y013708D01*
X005570Y013586D01*
X005888Y013586D01*
X006181Y013708D01*
X006405Y013932D01*
X006527Y014226D01*
X006527Y014543D01*
X006405Y014836D01*
X006327Y014915D02*
X009405Y014915D01*
X009307Y015013D02*
X006229Y015013D01*
X006058Y015112D02*
X009208Y015112D01*
X009110Y015210D02*
X004095Y015210D01*
X004204Y015165D02*
X003865Y015306D01*
X003732Y015306D01*
X003732Y014435D01*
X003632Y014435D01*
X003632Y015306D01*
X003498Y015306D01*
X003160Y015165D01*
X003039Y015045D01*
X003039Y017948D01*
X003718Y017948D01*
X003839Y018070D01*
X003839Y018215D01*
X003841Y018211D01*
X003987Y018065D01*
X004178Y017986D01*
X004233Y017986D01*
X004233Y018457D01*
X004330Y018457D01*
X004330Y017986D01*
X004385Y017986D01*
X004576Y018065D01*
X004723Y018211D01*
X004761Y018305D01*
X004809Y018190D01*
X004966Y018033D01*
X005171Y017948D01*
X005393Y017948D01*
X005597Y018033D01*
X005754Y018190D01*
X005802Y018305D01*
X005841Y018211D01*
X005987Y018065D01*
X006178Y017986D01*
X006233Y017986D01*
X006233Y018457D01*
X006330Y018457D01*
X006330Y017986D01*
X006385Y017986D01*
X006576Y018065D01*
X006723Y018211D01*
X006761Y018305D01*
X006809Y018190D01*
X006877Y018122D01*
X006877Y017693D01*
X007035Y017535D01*
X007035Y016498D01*
X007179Y016353D01*
X008309Y015223D01*
X008514Y015223D01*
X009097Y015223D01*
X011118Y013203D01*
X011118Y007856D01*
X011118Y007651D01*
X011354Y007415D01*
X011354Y007018D01*
X011127Y007245D01*
X011127Y007272D01*
X011068Y007413D01*
X010960Y007521D01*
X010818Y007580D01*
X010665Y007580D01*
X010524Y007521D01*
X010416Y007413D01*
X010371Y007305D01*
X010371Y007397D01*
X010313Y007539D01*
X010204Y007647D01*
X010063Y007705D01*
X010016Y007705D01*
X010056Y007745D01*
X010056Y007901D01*
X010131Y007901D01*
X010253Y008022D01*
X010253Y008745D01*
X010131Y008867D01*
X009857Y008867D01*
X009879Y008888D01*
X009879Y009249D01*
X010036Y009407D01*
X010036Y009515D01*
X010131Y009515D01*
X010253Y009636D01*
X010253Y010359D01*
X010233Y010379D01*
X010233Y011445D01*
X010355Y011567D01*
X010355Y012138D01*
X010264Y012229D01*
X010317Y012282D01*
X010317Y012503D01*
X009997Y012503D01*
X009997Y012602D01*
X010317Y012602D01*
X010317Y012823D01*
X010217Y012922D01*
X009997Y012922D01*
X009997Y012603D01*
X009897Y012603D01*
X009897Y012922D01*
X009677Y012922D01*
X009580Y012826D01*
X009445Y012961D01*
X008599Y012961D01*
X008362Y012724D01*
X007732Y012095D01*
X007496Y011858D01*
X007496Y010736D01*
X007496Y010716D01*
X007383Y010763D01*
X007181Y010763D01*
X006994Y010686D01*
X006851Y010543D01*
X006774Y010357D01*
X006774Y010155D01*
X006851Y009968D01*
X006994Y009825D01*
X007181Y009748D01*
X007383Y009748D01*
X007496Y009795D01*
X007496Y009726D01*
X007317Y009726D01*
X007317Y009291D01*
X007247Y009291D01*
X007247Y009726D01*
X006911Y009726D01*
X006812Y009626D01*
X006812Y009291D01*
X007246Y009291D01*
X007246Y009221D01*
X006812Y009221D01*
X006812Y008885D01*
X006911Y008786D01*
X007247Y008786D01*
X007247Y009220D01*
X007317Y009220D01*
X007317Y008786D01*
X007496Y008786D01*
X007496Y006051D01*
X007732Y005814D01*
X008067Y005814D01*
X008154Y005900D01*
X008243Y005811D01*
X008681Y005373D01*
X007557Y005373D01*
X007488Y005442D01*
X007346Y005501D01*
X007193Y005501D01*
X007052Y005442D01*
X006944Y005334D01*
X006885Y005192D01*
X006885Y005039D01*
X006944Y004898D01*
X007052Y004790D01*
X007193Y004731D01*
X007346Y004731D01*
X007488Y004790D01*
X007557Y004859D01*
X010011Y004859D01*
X009136Y003985D01*
X008220Y003985D01*
X008174Y004031D01*
X008047Y004083D01*
X007910Y004083D01*
X007783Y004031D01*
X007686Y003934D01*
X007633Y003807D01*
X007633Y003669D01*
X007686Y003542D01*
X007783Y003445D01*
X007910Y003393D01*
X008047Y003393D01*
X008174Y003445D01*
X008220Y003491D01*
X009136Y003491D01*
X009341Y003491D01*
X010684Y004835D01*
X010684Y003784D01*
X010898Y003570D01*
X011414Y003054D01*
X011393Y003063D01*
X011171Y003063D01*
X010966Y002978D01*
X010809Y002821D01*
X010782Y002755D01*
X010754Y002821D01*
X010597Y002978D01*
X010393Y003063D01*
X010296Y003063D01*
X010008Y003351D01*
X009869Y003351D01*
X009845Y003375D01*
X009592Y003375D01*
X004909Y003375D01*
X004856Y003322D01*
X004761Y003283D01*
X004664Y003185D01*
X004612Y003059D01*
X004612Y002921D01*
X004619Y002904D01*
X004576Y002946D01*
X004385Y003026D01*
X004330Y003026D01*
X004330Y002554D01*
X004233Y002554D01*
X004233Y003026D01*
X004178Y003026D01*
X004175Y003024D01*
X004721Y003570D01*
X004819Y003570D01*
X005154Y003570D01*
X006139Y004555D01*
X006139Y004890D01*
X005902Y005126D01*
X005567Y005126D01*
X004819Y004378D01*
X004547Y004378D01*
X004758Y004466D01*
X004994Y004702D01*
X005122Y005011D01*
X005122Y005346D01*
X004994Y005655D01*
X004924Y005725D01*
X005300Y005725D01*
X005300Y006142D01*
X004588Y006142D01*
X004588Y005998D01*
X004650Y005936D01*
X004449Y006019D01*
X004114Y006019D01*
X003806Y005891D01*
X003569Y005655D01*
X003441Y005346D01*
X003441Y005011D01*
X003569Y004702D01*
X003806Y004466D01*
X004114Y004338D01*
X004345Y004338D01*
X004149Y004142D01*
X003071Y003063D01*
X003039Y003063D01*
X003039Y013724D01*
X003160Y013603D01*
X003498Y013463D01*
X003632Y013463D01*
X003632Y014334D01*
X003732Y014334D01*
X003732Y014434D01*
X004603Y014434D01*
X004603Y014568D01*
X004463Y014906D01*
X004204Y015165D01*
X004257Y015112D02*
X005400Y015112D01*
X005229Y015013D02*
X004355Y015013D01*
X004454Y014915D02*
X005131Y014915D01*
X005044Y014816D02*
X004500Y014816D01*
X004541Y014718D02*
X005003Y014718D01*
X004962Y014619D02*
X004582Y014619D01*
X004603Y014521D02*
X004931Y014521D01*
X004931Y014422D02*
X003732Y014422D01*
X003732Y014334D02*
X004603Y014334D01*
X004603Y014201D01*
X004463Y013863D01*
X004204Y013603D01*
X003865Y013463D01*
X003732Y013463D01*
X003732Y014334D01*
X003732Y014324D02*
X003632Y014324D01*
X003632Y014334D02*
X003039Y014334D01*
X003039Y014434D01*
X003632Y014434D01*
X003632Y014334D01*
X003632Y014422D02*
X003039Y014422D01*
X003632Y014521D02*
X003732Y014521D01*
X003732Y014619D02*
X003632Y014619D01*
X003632Y014718D02*
X003732Y014718D01*
X003732Y014816D02*
X003632Y014816D01*
X003632Y014915D02*
X003732Y014915D01*
X003732Y015013D02*
X003632Y015013D01*
X003632Y015112D02*
X003732Y015112D01*
X003732Y015210D02*
X003632Y015210D01*
X003269Y015210D02*
X003039Y015210D01*
X003039Y015112D02*
X003107Y015112D01*
X003039Y015309D02*
X008224Y015309D01*
X008125Y015408D02*
X003039Y015408D01*
X003039Y015506D02*
X008027Y015506D01*
X007928Y015605D02*
X003039Y015605D01*
X003039Y015703D02*
X007830Y015703D01*
X007731Y015802D02*
X003039Y015802D01*
X003039Y015900D02*
X005023Y015900D01*
X005125Y015858D02*
X005197Y015858D01*
X005197Y015910D01*
X005297Y015868D01*
X005297Y015858D01*
X005369Y015858D01*
X005394Y015858D01*
X005394Y015868D01*
X005444Y015889D01*
X005493Y015868D01*
X005493Y015858D01*
X005518Y015858D01*
X005519Y015858D01*
X005565Y015858D01*
X005590Y015858D01*
X005590Y015868D01*
X005640Y015889D01*
X005690Y015868D01*
X005690Y015858D01*
X005762Y015858D01*
X005787Y015858D01*
X005787Y015868D01*
X005837Y015889D01*
X005887Y015868D01*
X005887Y015858D01*
X005959Y015858D01*
X005984Y015858D01*
X005984Y015868D01*
X006034Y015889D01*
X006084Y015868D01*
X006084Y015858D01*
X006109Y015858D01*
X006181Y015858D01*
X006181Y015868D01*
X006281Y015910D01*
X006281Y015858D01*
X006353Y015858D01*
X006578Y015951D01*
X006751Y016124D01*
X006844Y016349D01*
X006844Y016421D01*
X006450Y016421D01*
X006281Y016421D01*
X006281Y016521D01*
X006450Y016521D01*
X006844Y016521D01*
X006844Y016593D01*
X006751Y016818D01*
X006578Y016991D01*
X006353Y017084D01*
X006281Y017084D01*
X006281Y017032D01*
X006181Y017074D01*
X006181Y017084D01*
X006109Y017084D01*
X006084Y017084D01*
X006084Y017074D01*
X006034Y017053D01*
X005984Y017074D01*
X005984Y017084D01*
X005959Y017084D01*
X005887Y017084D01*
X005887Y017074D01*
X005837Y017053D01*
X005787Y017074D01*
X005787Y017084D01*
X005762Y017084D01*
X005690Y017084D01*
X005690Y017074D01*
X005640Y017053D01*
X005590Y017074D01*
X005590Y017084D01*
X005565Y017084D01*
X005493Y017084D01*
X005493Y017074D01*
X005444Y017053D01*
X005394Y017074D01*
X005394Y017084D01*
X005369Y017084D01*
X005297Y017084D01*
X005297Y017074D01*
X005197Y017032D01*
X005197Y017084D01*
X005125Y017084D01*
X004899Y016991D01*
X004727Y016818D01*
X004634Y016593D01*
X004634Y016521D01*
X005196Y016521D01*
X005196Y016421D01*
X004634Y016421D01*
X004634Y016349D01*
X004727Y016124D01*
X004899Y015951D01*
X005125Y015858D01*
X005197Y015900D02*
X005220Y015900D01*
X004852Y015999D02*
X003039Y015999D01*
X003039Y016097D02*
X004754Y016097D01*
X004697Y016196D02*
X003039Y016196D01*
X003039Y016294D02*
X004656Y016294D01*
X004634Y016393D02*
X003039Y016393D01*
X003039Y016492D02*
X005196Y016492D01*
X005297Y016492D02*
X005393Y016492D01*
X005393Y016521D02*
X005297Y016521D01*
X005297Y016421D01*
X005393Y016421D01*
X005393Y016521D01*
X005494Y016521D02*
X005494Y016421D01*
X005590Y016421D01*
X005590Y016521D01*
X005494Y016521D01*
X005494Y016492D02*
X005590Y016492D01*
X005691Y016492D02*
X005787Y016492D01*
X005787Y016521D02*
X005787Y016421D01*
X005691Y016421D01*
X005691Y016521D01*
X005787Y016521D01*
X005887Y016521D02*
X005887Y016421D01*
X005984Y016421D01*
X005984Y016521D01*
X005887Y016521D01*
X005887Y016492D02*
X005984Y016492D01*
X006084Y016492D02*
X006181Y016492D01*
X006181Y016521D02*
X006181Y016421D01*
X006084Y016421D01*
X006084Y016521D01*
X006181Y016521D01*
X006281Y016492D02*
X007041Y016492D01*
X007035Y016590D02*
X006844Y016590D01*
X006804Y016689D02*
X007035Y016689D01*
X007035Y016787D02*
X006763Y016787D01*
X006683Y016886D02*
X007035Y016886D01*
X007035Y016984D02*
X006584Y016984D01*
X006356Y017083D02*
X007035Y017083D01*
X007035Y017181D02*
X003039Y017181D01*
X003039Y017083D02*
X005122Y017083D01*
X005197Y017083D02*
X005297Y017083D01*
X005394Y017083D02*
X005493Y017083D01*
X005590Y017083D02*
X005690Y017083D01*
X005787Y017083D02*
X005887Y017083D01*
X005984Y017083D02*
X006084Y017083D01*
X006181Y017083D02*
X006281Y017083D01*
X007035Y017280D02*
X003039Y017280D01*
X003039Y017378D02*
X007035Y017378D01*
X007035Y017477D02*
X003039Y017477D01*
X003039Y017576D02*
X006994Y017576D01*
X006896Y017674D02*
X003039Y017674D01*
X003039Y017773D02*
X006877Y017773D01*
X006877Y017871D02*
X003039Y017871D01*
X003739Y017970D02*
X005119Y017970D01*
X004931Y018068D02*
X004580Y018068D01*
X004678Y018167D02*
X004832Y018167D01*
X004778Y018265D02*
X004745Y018265D01*
X004330Y018265D02*
X004233Y018265D01*
X004233Y018167D02*
X004330Y018167D01*
X004330Y018068D02*
X004233Y018068D01*
X003984Y018068D02*
X003838Y018068D01*
X003839Y018167D02*
X003885Y018167D01*
X004233Y018364D02*
X004330Y018364D01*
X005444Y017970D02*
X006877Y017970D01*
X006877Y018068D02*
X006580Y018068D01*
X006678Y018167D02*
X006832Y018167D01*
X006778Y018265D02*
X006745Y018265D01*
X006330Y018265D02*
X006233Y018265D01*
X006233Y018167D02*
X006330Y018167D01*
X006330Y018068D02*
X006233Y018068D01*
X005984Y018068D02*
X005633Y018068D01*
X005731Y018167D02*
X005885Y018167D01*
X005818Y018265D02*
X005786Y018265D01*
X006233Y018364D02*
X006330Y018364D01*
X004893Y016984D02*
X003039Y016984D01*
X003039Y016886D02*
X004795Y016886D01*
X004714Y016787D02*
X003039Y016787D01*
X003039Y016689D02*
X004673Y016689D01*
X004634Y016590D02*
X003039Y016590D01*
X006258Y015900D02*
X006281Y015900D01*
X006455Y015900D02*
X007633Y015900D01*
X007534Y015999D02*
X006626Y015999D01*
X006724Y016097D02*
X007435Y016097D01*
X007337Y016196D02*
X006780Y016196D01*
X006821Y016294D02*
X007238Y016294D01*
X007140Y016393D02*
X006844Y016393D01*
X009386Y017931D02*
X009707Y017931D01*
X009855Y018079D01*
X012850Y014667D02*
X014425Y016242D01*
X014425Y016804D01*
X014224Y016603D01*
X014295Y016532D01*
X014347Y016405D01*
X014347Y016268D01*
X014295Y016141D01*
X014249Y016095D01*
X014249Y016067D01*
X014104Y015922D01*
X012714Y014531D01*
X012714Y008919D01*
X013540Y008092D01*
X013540Y007888D01*
X013540Y007376D01*
X013396Y007231D01*
X013344Y007179D01*
X013344Y007029D01*
X013396Y006977D01*
X013873Y006977D01*
X013873Y006992D01*
X013755Y007110D01*
X013755Y008301D01*
X013447Y008609D01*
X013382Y008609D01*
X013255Y008662D01*
X013158Y008759D01*
X013106Y008886D01*
X013106Y009023D01*
X013147Y009122D01*
X013086Y009122D01*
X012965Y009244D01*
X012965Y009816D01*
X013055Y009906D01*
X013002Y009959D01*
X013002Y010180D01*
X013322Y010180D01*
X013322Y010280D01*
X013002Y010280D01*
X013002Y010500D01*
X013102Y010600D01*
X013209Y010600D01*
X013125Y010683D01*
X013125Y011234D01*
X012994Y011365D01*
X012850Y011510D01*
X012850Y014462D01*
X012850Y014667D01*
X012850Y014619D02*
X012801Y014619D01*
X012850Y014521D02*
X012714Y014521D01*
X012714Y014422D02*
X012850Y014422D01*
X012850Y014324D02*
X012714Y014324D01*
X012714Y014225D02*
X012850Y014225D01*
X012850Y014126D02*
X012714Y014126D01*
X012714Y014028D02*
X012850Y014028D01*
X012850Y013929D02*
X012714Y013929D01*
X012714Y013831D02*
X012850Y013831D01*
X012850Y013732D02*
X012714Y013732D01*
X012714Y013634D02*
X012850Y013634D01*
X012850Y013535D02*
X012714Y013535D01*
X012714Y013437D02*
X012850Y013437D01*
X012850Y013338D02*
X012714Y013338D01*
X012714Y013240D02*
X012850Y013240D01*
X012850Y013141D02*
X012714Y013141D01*
X012714Y013043D02*
X012850Y013043D01*
X012850Y012944D02*
X012714Y012944D01*
X012714Y012845D02*
X012850Y012845D01*
X012850Y012747D02*
X012714Y012747D01*
X012714Y012648D02*
X012850Y012648D01*
X012850Y012550D02*
X012714Y012550D01*
X012714Y012451D02*
X012850Y012451D01*
X012850Y012353D02*
X012714Y012353D01*
X012714Y012254D02*
X012850Y012254D01*
X012850Y012156D02*
X012714Y012156D01*
X012714Y012057D02*
X012850Y012057D01*
X012850Y011959D02*
X012714Y011959D01*
X012714Y011860D02*
X012850Y011860D01*
X012850Y011761D02*
X012714Y011761D01*
X012714Y011663D02*
X012850Y011663D01*
X012850Y011564D02*
X012714Y011564D01*
X012714Y011466D02*
X012894Y011466D01*
X012992Y011367D02*
X012714Y011367D01*
X012714Y011269D02*
X013091Y011269D01*
X013125Y011170D02*
X012714Y011170D01*
X012714Y011072D02*
X013125Y011072D01*
X013125Y010973D02*
X012714Y010973D01*
X012714Y010875D02*
X013125Y010875D01*
X013125Y010776D02*
X012714Y010776D01*
X012714Y010677D02*
X013131Y010677D01*
X013081Y010579D02*
X012714Y010579D01*
X012714Y010480D02*
X013002Y010480D01*
X013002Y010382D02*
X012714Y010382D01*
X012714Y010283D02*
X013002Y010283D01*
X013002Y010086D02*
X012714Y010086D01*
X012714Y009988D02*
X013002Y009988D01*
X013038Y009889D02*
X012714Y009889D01*
X012714Y009791D02*
X012965Y009791D01*
X012965Y009692D02*
X012714Y009692D01*
X012714Y009594D02*
X012965Y009594D01*
X012965Y009495D02*
X012714Y009495D01*
X012714Y009396D02*
X012965Y009396D01*
X012965Y009298D02*
X012714Y009298D01*
X012714Y009199D02*
X013009Y009199D01*
X013138Y009101D02*
X012714Y009101D01*
X012714Y009002D02*
X013106Y009002D01*
X013106Y008904D02*
X012729Y008904D01*
X012827Y008805D02*
X013139Y008805D01*
X013211Y008707D02*
X012926Y008707D01*
X013024Y008608D02*
X013448Y008608D01*
X013547Y008510D02*
X013123Y008510D01*
X013221Y008411D02*
X013645Y008411D01*
X013744Y008312D02*
X013320Y008312D01*
X013419Y008214D02*
X013755Y008214D01*
X013755Y008115D02*
X013517Y008115D01*
X013540Y008017D02*
X013755Y008017D01*
X013755Y007918D02*
X013540Y007918D01*
X013540Y007820D02*
X013755Y007820D01*
X013755Y007721D02*
X013540Y007721D01*
X013540Y007623D02*
X013755Y007623D01*
X013755Y007524D02*
X013540Y007524D01*
X013540Y007426D02*
X013755Y007426D01*
X013755Y007327D02*
X013491Y007327D01*
X013393Y007228D02*
X013755Y007228D01*
X013755Y007130D02*
X013344Y007130D01*
X013344Y007031D02*
X013834Y007031D01*
X013191Y006483D02*
X012994Y006680D01*
X012989Y006685D01*
X012989Y006408D01*
X013087Y006408D01*
X013087Y006114D01*
X013137Y006114D01*
X013137Y006408D01*
X013382Y006408D01*
X013385Y006405D01*
X013426Y006446D01*
X013998Y006446D01*
X014119Y006324D01*
X014119Y006323D01*
X014177Y006347D01*
X014302Y006347D01*
X014401Y006446D01*
X014972Y006446D01*
X014986Y006432D01*
X015001Y006446D01*
X015474Y006446D01*
X015512Y006483D01*
X015396Y006483D01*
X013396Y006483D01*
X013191Y006483D01*
X013136Y006539D02*
X012989Y006539D01*
X012989Y006637D02*
X013037Y006637D01*
X012989Y006440D02*
X013420Y006440D01*
X013137Y006342D02*
X013087Y006342D01*
X013087Y006243D02*
X013137Y006243D01*
X013137Y006144D02*
X013087Y006144D01*
X013087Y006063D02*
X013137Y006063D01*
X013137Y006008D01*
X013112Y006008D01*
X013112Y005739D01*
X013111Y005739D01*
X013111Y006008D01*
X013087Y006008D01*
X013087Y006063D01*
X013087Y006046D02*
X013137Y006046D01*
X013111Y005947D02*
X013112Y005947D01*
X013111Y005849D02*
X013112Y005849D01*
X013111Y005750D02*
X013112Y005750D01*
X013112Y005738D02*
X013112Y005708D01*
X013112Y005439D01*
X013111Y005439D01*
X013111Y005708D01*
X013111Y005738D01*
X013112Y005738D01*
X013111Y005652D02*
X013112Y005652D01*
X013111Y005553D02*
X013112Y005553D01*
X013111Y005455D02*
X013112Y005455D01*
X013112Y005438D02*
X013112Y005168D01*
X013137Y005168D01*
X013137Y005114D01*
X013087Y005114D01*
X013087Y005168D01*
X013111Y005168D01*
X013111Y005438D01*
X013112Y005438D01*
X013111Y005356D02*
X013112Y005356D01*
X013111Y005258D02*
X013112Y005258D01*
X013087Y005159D02*
X013137Y005159D01*
X014102Y006342D02*
X014164Y006342D01*
X014003Y006440D02*
X014395Y006440D01*
X014978Y006440D02*
X014995Y006440D01*
X011354Y007031D02*
X011340Y007031D01*
X011354Y007130D02*
X011242Y007130D01*
X011143Y007228D02*
X011354Y007228D01*
X011354Y007327D02*
X011104Y007327D01*
X011055Y007426D02*
X011343Y007426D01*
X011245Y007524D02*
X010953Y007524D01*
X011146Y007623D02*
X010228Y007623D01*
X010319Y007524D02*
X010531Y007524D01*
X010429Y007426D02*
X010359Y007426D01*
X010371Y007327D02*
X010380Y007327D01*
X010357Y007211D02*
X010357Y007119D01*
X010416Y006977D01*
X010524Y006869D01*
X010665Y006810D01*
X010692Y006810D01*
X010939Y006563D01*
X010939Y006396D01*
X010823Y006396D01*
X010696Y006344D01*
X010599Y006246D01*
X010547Y006120D01*
X010547Y006001D01*
X010520Y006012D01*
X010367Y006012D01*
X010226Y005954D01*
X010186Y005914D01*
X009947Y005914D01*
X009564Y006297D01*
X009472Y006389D01*
X009487Y006404D01*
X009605Y006286D01*
X010171Y006286D01*
X010292Y006408D01*
X010292Y007083D01*
X010313Y007103D01*
X010357Y007211D01*
X010357Y007130D02*
X010324Y007130D01*
X010292Y007031D02*
X010393Y007031D01*
X010460Y006933D02*
X010292Y006933D01*
X010292Y006834D02*
X010608Y006834D01*
X010766Y006736D02*
X010292Y006736D01*
X010292Y006637D02*
X010865Y006637D01*
X010939Y006539D02*
X010292Y006539D01*
X010292Y006440D02*
X010939Y006440D01*
X010694Y006342D02*
X010226Y006342D01*
X010598Y006243D02*
X009618Y006243D01*
X009550Y006342D02*
X009520Y006342D01*
X009717Y006144D02*
X010557Y006144D01*
X010547Y006046D02*
X009815Y006046D01*
X009914Y005947D02*
X010220Y005947D01*
X009188Y006818D02*
X009091Y006818D01*
X009091Y007215D01*
X009052Y007215D01*
X009052Y007901D01*
X009110Y007901D01*
X009110Y007274D01*
X009188Y007195D01*
X009188Y006818D01*
X009188Y006834D02*
X009091Y006834D01*
X009091Y006933D02*
X009188Y006933D01*
X009188Y007031D02*
X009091Y007031D01*
X009091Y007130D02*
X009188Y007130D01*
X009155Y007228D02*
X009052Y007228D01*
X009052Y007327D02*
X009110Y007327D01*
X009110Y007426D02*
X009052Y007426D01*
X009052Y007524D02*
X009110Y007524D01*
X009110Y007623D02*
X009052Y007623D01*
X009052Y007721D02*
X009110Y007721D01*
X009110Y007820D02*
X009052Y007820D01*
X010032Y007721D02*
X011118Y007721D01*
X011118Y007820D02*
X010056Y007820D01*
X010149Y007918D02*
X011118Y007918D01*
X011118Y008017D02*
X010248Y008017D01*
X010253Y008115D02*
X011118Y008115D01*
X011118Y008214D02*
X010253Y008214D01*
X010253Y008312D02*
X011118Y008312D01*
X011118Y008411D02*
X010253Y008411D01*
X010253Y008510D02*
X011118Y008510D01*
X011118Y008608D02*
X010253Y008608D01*
X010253Y008707D02*
X011118Y008707D01*
X011118Y008805D02*
X010193Y008805D01*
X009879Y008904D02*
X011118Y008904D01*
X011118Y009002D02*
X009879Y009002D01*
X009879Y009101D02*
X011118Y009101D01*
X011118Y009199D02*
X009879Y009199D01*
X009927Y009298D02*
X011118Y009298D01*
X011118Y009396D02*
X010026Y009396D01*
X010036Y009495D02*
X011118Y009495D01*
X011118Y009594D02*
X010210Y009594D01*
X010253Y009692D02*
X011118Y009692D01*
X011118Y009791D02*
X010253Y009791D01*
X010253Y009889D02*
X011118Y009889D01*
X011118Y009988D02*
X010253Y009988D01*
X010253Y010086D02*
X011118Y010086D01*
X011118Y010185D02*
X010253Y010185D01*
X010253Y010283D02*
X011118Y010283D01*
X011118Y010382D02*
X010233Y010382D01*
X010233Y010480D02*
X011118Y010480D01*
X011118Y010579D02*
X010233Y010579D01*
X010233Y010677D02*
X011118Y010677D01*
X011118Y010776D02*
X010233Y010776D01*
X010233Y010875D02*
X011118Y010875D01*
X011118Y010973D02*
X010233Y010973D01*
X010233Y011072D02*
X011118Y011072D01*
X011118Y011170D02*
X010233Y011170D01*
X010233Y011269D02*
X011118Y011269D01*
X011118Y011367D02*
X010233Y011367D01*
X010254Y011466D02*
X011118Y011466D01*
X011118Y011564D02*
X010352Y011564D01*
X010355Y011663D02*
X011118Y011663D01*
X011118Y011761D02*
X010355Y011761D01*
X010355Y011860D02*
X011118Y011860D01*
X011118Y011959D02*
X010355Y011959D01*
X010355Y012057D02*
X011118Y012057D01*
X011118Y012156D02*
X010337Y012156D01*
X010289Y012254D02*
X011118Y012254D01*
X011118Y012353D02*
X010317Y012353D01*
X010317Y012451D02*
X011118Y012451D01*
X011118Y012550D02*
X009997Y012550D01*
X009997Y012648D02*
X009897Y012648D01*
X009897Y012747D02*
X009997Y012747D01*
X009997Y012845D02*
X009897Y012845D01*
X009600Y012845D02*
X009561Y012845D01*
X009462Y012944D02*
X011118Y012944D01*
X011118Y013043D02*
X003039Y013043D01*
X003039Y013141D02*
X011118Y013141D01*
X011081Y013240D02*
X003039Y013240D01*
X003039Y013338D02*
X010982Y013338D01*
X010884Y013437D02*
X003039Y013437D01*
X003039Y013535D02*
X003325Y013535D01*
X003130Y013634D02*
X003039Y013634D01*
X003632Y013634D02*
X003732Y013634D01*
X003732Y013732D02*
X003632Y013732D01*
X003632Y013831D02*
X003732Y013831D01*
X003732Y013929D02*
X003632Y013929D01*
X003632Y014028D02*
X003732Y014028D01*
X003732Y014126D02*
X003632Y014126D01*
X003632Y014225D02*
X003732Y014225D01*
X004332Y013732D02*
X005252Y013732D01*
X005154Y013831D02*
X004431Y013831D01*
X004490Y013929D02*
X005055Y013929D01*
X005013Y014028D02*
X004531Y014028D01*
X004572Y014126D02*
X004972Y014126D01*
X004931Y014225D02*
X004603Y014225D01*
X004603Y014324D02*
X004931Y014324D01*
X006205Y013732D02*
X010588Y013732D01*
X010686Y013634D02*
X006002Y013634D01*
X006304Y013831D02*
X010489Y013831D01*
X010391Y013929D02*
X006403Y013929D01*
X006445Y014028D02*
X010292Y014028D01*
X010194Y014126D02*
X006486Y014126D01*
X006527Y014225D02*
X010095Y014225D01*
X009997Y014324D02*
X006527Y014324D01*
X006527Y014422D02*
X009898Y014422D01*
X009800Y014521D02*
X006527Y014521D01*
X006495Y014619D02*
X009701Y014619D01*
X010785Y013535D02*
X004039Y013535D01*
X004234Y013634D02*
X005456Y013634D01*
X005493Y012911D02*
X005493Y012900D01*
X005444Y012880D01*
X005394Y012900D01*
X005394Y012911D01*
X005322Y012911D01*
X005297Y012911D01*
X005297Y012900D01*
X005197Y012859D01*
X005197Y012911D01*
X005125Y012911D01*
X004899Y012817D01*
X004727Y012645D01*
X004634Y012420D01*
X004634Y012348D01*
X004831Y012348D01*
X005196Y012348D01*
X005196Y012248D01*
X004831Y012248D01*
X004634Y012248D01*
X004634Y012176D01*
X004727Y011951D01*
X004899Y011778D01*
X005125Y011685D01*
X005197Y011685D01*
X005197Y011737D01*
X005297Y011695D01*
X005297Y011685D01*
X005322Y011685D01*
X005394Y011685D01*
X005394Y011695D01*
X005444Y011716D01*
X005493Y011695D01*
X005493Y011685D01*
X005518Y011685D01*
X005531Y011685D01*
X005565Y011685D01*
X005590Y011685D01*
X005590Y011695D01*
X005640Y011716D01*
X005690Y011695D01*
X005690Y011685D01*
X005715Y011685D01*
X005726Y011685D01*
X005762Y011685D01*
X005787Y011685D01*
X005787Y011695D01*
X005837Y011716D01*
X005887Y011695D01*
X005887Y011685D01*
X005912Y011685D01*
X005919Y011685D01*
X005959Y011685D01*
X005984Y011685D01*
X005984Y011695D01*
X006034Y011716D01*
X006084Y011695D01*
X006084Y011685D01*
X006156Y011685D01*
X006181Y011685D01*
X006181Y011695D01*
X006281Y011737D01*
X006281Y011685D01*
X006353Y011685D01*
X006578Y011778D01*
X006751Y011951D01*
X006844Y012176D01*
X006844Y012248D01*
X006647Y012248D01*
X006450Y012248D01*
X006281Y012248D01*
X006281Y012348D01*
X006450Y012348D01*
X006647Y012348D01*
X006844Y012348D01*
X006844Y012420D01*
X006751Y012645D01*
X006578Y012817D01*
X006353Y012911D01*
X006281Y012911D01*
X006281Y012859D01*
X006181Y012900D01*
X006181Y012911D01*
X006156Y012911D01*
X006084Y012911D01*
X006084Y012900D01*
X006034Y012880D01*
X005984Y012900D01*
X005984Y012911D01*
X005959Y012911D01*
X005918Y012911D01*
X005912Y012911D01*
X005887Y012911D01*
X005887Y012900D01*
X005837Y012880D01*
X005787Y012900D01*
X005787Y012911D01*
X005762Y012911D01*
X005725Y012911D01*
X005715Y012911D01*
X005690Y012911D01*
X005690Y012900D01*
X005640Y012880D01*
X005590Y012900D01*
X005590Y012911D01*
X005565Y012911D01*
X005530Y012911D01*
X005518Y012911D01*
X005493Y012911D01*
X004967Y012845D02*
X003039Y012845D01*
X003039Y012747D02*
X004829Y012747D01*
X004730Y012648D02*
X003039Y012648D01*
X003039Y012550D02*
X004688Y012550D01*
X004647Y012451D02*
X003039Y012451D01*
X003039Y012353D02*
X004634Y012353D01*
X004642Y012156D02*
X003039Y012156D01*
X003039Y012254D02*
X005196Y012254D01*
X005297Y012254D02*
X005393Y012254D01*
X005393Y012248D02*
X005297Y012248D01*
X005297Y012348D01*
X005393Y012348D01*
X005393Y012248D01*
X005494Y012248D02*
X005494Y012348D01*
X005590Y012348D01*
X005590Y012248D01*
X005494Y012248D01*
X005494Y012254D02*
X005590Y012254D01*
X005691Y012254D02*
X005787Y012254D01*
X005787Y012248D02*
X005691Y012248D01*
X005691Y012348D01*
X005787Y012348D01*
X005787Y012248D01*
X005887Y012248D02*
X005887Y012348D01*
X005984Y012348D01*
X005984Y012248D01*
X005887Y012248D01*
X005887Y012254D02*
X005984Y012254D01*
X006084Y012254D02*
X006181Y012254D01*
X006181Y012248D02*
X006084Y012248D01*
X006084Y012348D01*
X006181Y012348D01*
X006181Y012248D01*
X006281Y012254D02*
X007892Y012254D01*
X007990Y012353D02*
X006844Y012353D01*
X006831Y012451D02*
X008089Y012451D01*
X008187Y012550D02*
X006790Y012550D01*
X006747Y012648D02*
X008286Y012648D01*
X008384Y012747D02*
X006649Y012747D01*
X006510Y012845D02*
X008483Y012845D01*
X008581Y012944D02*
X003039Y012944D01*
X003632Y013535D02*
X003732Y013535D01*
X003039Y012057D02*
X004683Y012057D01*
X004724Y011959D02*
X003039Y011959D01*
X003039Y011860D02*
X004818Y011860D01*
X004940Y011761D02*
X003039Y011761D01*
X003039Y011663D02*
X007496Y011663D01*
X007496Y011761D02*
X006538Y011761D01*
X006660Y011860D02*
X007497Y011860D01*
X007596Y011959D02*
X006754Y011959D01*
X006795Y012057D02*
X007694Y012057D01*
X007732Y012095D02*
X007732Y012095D01*
X007793Y012156D02*
X006835Y012156D01*
X007496Y011564D02*
X003039Y011564D01*
X003039Y011466D02*
X007496Y011466D01*
X007496Y011367D02*
X003039Y011367D01*
X003039Y011269D02*
X007496Y011269D01*
X007496Y011170D02*
X003039Y011170D01*
X003039Y011072D02*
X007496Y011072D01*
X007496Y010973D02*
X003039Y010973D01*
X003039Y010875D02*
X007496Y010875D01*
X007496Y010776D02*
X004503Y010776D01*
X004449Y010799D02*
X004114Y010799D01*
X003806Y010671D01*
X003569Y010434D01*
X003441Y010125D01*
X003441Y009791D01*
X003569Y009482D01*
X003806Y009245D01*
X004114Y009117D01*
X004449Y009117D01*
X004560Y009163D01*
X004551Y009154D01*
X004551Y008738D01*
X004835Y008454D01*
X004551Y008170D01*
X004551Y007754D01*
X004736Y007568D01*
X004551Y007383D01*
X004551Y006966D01*
X004845Y006672D01*
X005852Y006672D01*
X006147Y006966D01*
X006147Y007383D01*
X005961Y007568D01*
X006147Y007754D01*
X006147Y008170D01*
X005863Y008454D01*
X006147Y008738D01*
X006147Y009154D01*
X005852Y009449D01*
X004961Y009449D01*
X004994Y009482D01*
X005122Y009791D01*
X005122Y010125D01*
X004994Y010434D01*
X004758Y010671D01*
X004449Y010799D01*
X004741Y010677D02*
X006986Y010677D01*
X006887Y010579D02*
X004849Y010579D01*
X004948Y010480D02*
X006826Y010480D01*
X006785Y010382D02*
X005016Y010382D01*
X005057Y010283D02*
X006774Y010283D01*
X006774Y010185D02*
X005098Y010185D01*
X005122Y010086D02*
X006803Y010086D01*
X006843Y009988D02*
X005122Y009988D01*
X005122Y009889D02*
X006931Y009889D01*
X007078Y009791D02*
X005122Y009791D01*
X005081Y009692D02*
X006878Y009692D01*
X006812Y009594D02*
X005041Y009594D01*
X005000Y009495D02*
X006812Y009495D01*
X006812Y009396D02*
X005905Y009396D01*
X006003Y009298D02*
X006812Y009298D01*
X006812Y009199D02*
X006102Y009199D01*
X006147Y009101D02*
X006812Y009101D01*
X006812Y009002D02*
X006147Y009002D01*
X006147Y008904D02*
X006812Y008904D01*
X006892Y008805D02*
X006147Y008805D01*
X006115Y008707D02*
X007496Y008707D01*
X007496Y008608D02*
X006017Y008608D01*
X005918Y008510D02*
X007496Y008510D01*
X007496Y008411D02*
X005906Y008411D01*
X006004Y008312D02*
X007496Y008312D01*
X007496Y008214D02*
X006103Y008214D01*
X006147Y008115D02*
X007496Y008115D01*
X007496Y008017D02*
X006147Y008017D01*
X006147Y007918D02*
X007496Y007918D01*
X007496Y007820D02*
X006147Y007820D01*
X006114Y007721D02*
X007496Y007721D01*
X007496Y007623D02*
X006016Y007623D01*
X006005Y007524D02*
X007496Y007524D01*
X007496Y007426D02*
X006104Y007426D01*
X006147Y007327D02*
X007496Y007327D01*
X007496Y007228D02*
X006147Y007228D01*
X006147Y007130D02*
X007496Y007130D01*
X007496Y007031D02*
X006147Y007031D01*
X006113Y006933D02*
X007496Y006933D01*
X007496Y006834D02*
X006015Y006834D01*
X005916Y006736D02*
X007496Y006736D01*
X007496Y006637D02*
X005855Y006637D01*
X005837Y006656D02*
X005397Y006656D01*
X005397Y006239D01*
X005300Y006239D01*
X005300Y006656D01*
X004861Y006656D01*
X004588Y006383D01*
X004588Y006239D01*
X005300Y006239D01*
X005300Y006142D01*
X005397Y006142D01*
X005397Y006239D01*
X006109Y006239D01*
X006109Y006383D01*
X005837Y006656D01*
X005954Y006539D02*
X007496Y006539D01*
X007496Y006440D02*
X006052Y006440D01*
X006109Y006342D02*
X007496Y006342D01*
X007496Y006243D02*
X006109Y006243D01*
X006109Y006142D02*
X005397Y006142D01*
X005397Y005725D01*
X005837Y005725D01*
X006109Y005998D01*
X006109Y006142D01*
X006109Y006046D02*
X007500Y006046D01*
X007496Y006144D02*
X005397Y006144D01*
X005300Y006144D02*
X003039Y006144D01*
X003039Y006046D02*
X004588Y006046D01*
X004622Y005947D02*
X004638Y005947D01*
X004588Y006243D02*
X003039Y006243D01*
X003039Y006342D02*
X004588Y006342D01*
X004645Y006440D02*
X003039Y006440D01*
X003039Y006539D02*
X004744Y006539D01*
X004842Y006637D02*
X003039Y006637D01*
X003039Y006736D02*
X004781Y006736D01*
X004683Y006834D02*
X003039Y006834D01*
X003039Y006933D02*
X004584Y006933D01*
X004551Y007031D02*
X003039Y007031D01*
X003039Y007130D02*
X004551Y007130D01*
X004551Y007228D02*
X003039Y007228D01*
X003039Y007327D02*
X004551Y007327D01*
X004593Y007426D02*
X003039Y007426D01*
X003039Y007524D02*
X004692Y007524D01*
X004682Y007623D02*
X003039Y007623D01*
X003039Y007721D02*
X004583Y007721D01*
X004551Y007820D02*
X003039Y007820D01*
X003039Y007918D02*
X004551Y007918D01*
X004551Y008017D02*
X003039Y008017D01*
X003039Y008115D02*
X004551Y008115D01*
X004594Y008214D02*
X003039Y008214D01*
X003039Y008312D02*
X004693Y008312D01*
X004791Y008411D02*
X003039Y008411D01*
X003039Y008510D02*
X004779Y008510D01*
X004681Y008608D02*
X003039Y008608D01*
X003039Y008707D02*
X004582Y008707D01*
X004551Y008805D02*
X003039Y008805D01*
X003039Y008904D02*
X004551Y008904D01*
X004551Y009002D02*
X003039Y009002D01*
X003039Y009101D02*
X004551Y009101D01*
X003917Y009199D02*
X003039Y009199D01*
X003039Y009298D02*
X003753Y009298D01*
X003655Y009396D02*
X003039Y009396D01*
X003039Y009495D02*
X003564Y009495D01*
X003523Y009594D02*
X003039Y009594D01*
X003039Y009692D02*
X003482Y009692D01*
X003441Y009791D02*
X003039Y009791D01*
X003039Y009889D02*
X003441Y009889D01*
X003441Y009988D02*
X003039Y009988D01*
X003039Y010086D02*
X003441Y010086D01*
X003466Y010185D02*
X003039Y010185D01*
X003039Y010283D02*
X003507Y010283D01*
X003547Y010382D02*
X003039Y010382D01*
X003039Y010480D02*
X003615Y010480D01*
X003714Y010579D02*
X003039Y010579D01*
X003039Y010677D02*
X003822Y010677D01*
X004060Y010776D02*
X003039Y010776D01*
X007247Y009692D02*
X007317Y009692D01*
X007317Y009594D02*
X007247Y009594D01*
X007247Y009495D02*
X007317Y009495D01*
X007317Y009396D02*
X007247Y009396D01*
X007247Y009298D02*
X007317Y009298D01*
X007317Y009199D02*
X007247Y009199D01*
X007247Y009101D02*
X007317Y009101D01*
X007317Y009002D02*
X007247Y009002D01*
X007247Y008904D02*
X007317Y008904D01*
X007317Y008805D02*
X007247Y008805D01*
X007485Y009791D02*
X007496Y009791D01*
X012714Y010185D02*
X013322Y010185D01*
X013422Y010185D02*
X013880Y010185D01*
X013742Y010180D02*
X013422Y010180D01*
X013422Y010280D01*
X013742Y010280D01*
X013742Y010322D01*
X014095Y009969D01*
X013742Y009969D01*
X013742Y010180D01*
X013742Y010086D02*
X013978Y010086D01*
X014077Y009988D02*
X013742Y009988D01*
X013742Y010283D02*
X013781Y010283D01*
X011118Y012648D02*
X010317Y012648D01*
X010317Y012747D02*
X011118Y012747D01*
X011118Y012845D02*
X010295Y012845D01*
X012900Y014718D02*
X012901Y014718D01*
X012999Y014816D02*
X012999Y014816D01*
X013097Y014915D02*
X013098Y014915D01*
X013196Y015013D02*
X013196Y015013D01*
X013294Y015112D02*
X013295Y015112D01*
X013393Y015210D02*
X013393Y015210D01*
X013491Y015309D02*
X013492Y015309D01*
X013590Y015408D02*
X013590Y015408D01*
X013688Y015506D02*
X013689Y015506D01*
X013787Y015605D02*
X013788Y015605D01*
X013885Y015703D02*
X013886Y015703D01*
X013984Y015802D02*
X013985Y015802D01*
X014082Y015900D02*
X014083Y015900D01*
X014181Y015999D02*
X014182Y015999D01*
X014251Y016097D02*
X014280Y016097D01*
X014318Y016196D02*
X014379Y016196D01*
X014347Y016294D02*
X014425Y016294D01*
X014425Y016393D02*
X014347Y016393D01*
X014312Y016492D02*
X014425Y016492D01*
X014425Y016590D02*
X014237Y016590D01*
X014310Y016689D02*
X014425Y016689D01*
X014425Y016787D02*
X014408Y016787D01*
X015391Y016759D02*
X016065Y016759D01*
X016270Y016759D01*
X016742Y017231D01*
X020152Y017231D01*
X020356Y017231D01*
X020435Y017310D01*
X020658Y017310D01*
X021125Y017778D01*
X021125Y017698D01*
X020522Y017095D01*
X016735Y017095D01*
X016590Y016950D01*
X015391Y015751D01*
X015391Y016759D01*
X015391Y016689D02*
X016328Y016689D01*
X016298Y016787D02*
X016427Y016787D01*
X016397Y016886D02*
X016525Y016886D01*
X016495Y016984D02*
X016624Y016984D01*
X016594Y017083D02*
X016722Y017083D01*
X016692Y017181D02*
X020608Y017181D01*
X020707Y017280D02*
X020405Y017280D01*
X020726Y017378D02*
X020805Y017378D01*
X020825Y017477D02*
X020904Y017477D01*
X020923Y017576D02*
X021003Y017576D01*
X021022Y017674D02*
X021101Y017674D01*
X021120Y017773D02*
X021125Y017773D01*
X023253Y016162D02*
X023279Y016188D01*
X023994Y016188D01*
X025173Y015008D01*
X024971Y015008D01*
X024820Y015159D01*
X024820Y015224D01*
X024767Y015351D01*
X024670Y015448D01*
X024543Y015501D01*
X024504Y015501D01*
X024452Y015626D01*
X024355Y015724D01*
X024228Y015776D01*
X024091Y015776D01*
X024073Y015768D01*
X024072Y015769D01*
X024072Y015834D01*
X024019Y015961D01*
X023922Y016058D01*
X023795Y016111D01*
X023658Y016111D01*
X023531Y016058D01*
X023434Y015961D01*
X023381Y015834D01*
X023381Y015697D01*
X023434Y015570D01*
X023531Y015473D01*
X023637Y015429D01*
X023637Y015275D01*
X023531Y015231D01*
X023434Y015134D01*
X023381Y015007D01*
X023381Y014870D01*
X023401Y014823D01*
X023401Y014647D01*
X023401Y014443D01*
X023598Y014246D01*
X023598Y013801D01*
X023598Y013643D01*
X023521Y013643D01*
X023521Y013767D01*
X023468Y013894D01*
X023383Y013979D01*
X023383Y014226D01*
X023383Y014431D01*
X023186Y014628D01*
X023186Y015014D01*
X023186Y015218D01*
X022928Y015476D01*
X023017Y015512D01*
X023114Y015609D01*
X023166Y015736D01*
X023166Y015874D01*
X023114Y016000D01*
X023029Y016086D01*
X023029Y016109D01*
X023126Y016109D01*
X023253Y016162D01*
X023114Y015999D02*
X023472Y015999D01*
X023409Y015900D02*
X023155Y015900D01*
X023166Y015802D02*
X023381Y015802D01*
X023381Y015703D02*
X023153Y015703D01*
X023109Y015605D02*
X023419Y015605D01*
X023498Y015506D02*
X023002Y015506D01*
X022997Y015408D02*
X023637Y015408D01*
X023637Y015309D02*
X023095Y015309D01*
X023186Y015210D02*
X023510Y015210D01*
X023425Y015112D02*
X023186Y015112D01*
X023186Y015013D02*
X023384Y015013D01*
X023381Y014915D02*
X023186Y014915D01*
X023186Y014816D02*
X023401Y014816D01*
X023401Y014718D02*
X023186Y014718D01*
X023194Y014619D02*
X023401Y014619D01*
X023401Y014521D02*
X023293Y014521D01*
X023383Y014422D02*
X023422Y014422D01*
X023383Y014324D02*
X023520Y014324D01*
X023598Y014225D02*
X023383Y014225D01*
X023383Y014126D02*
X023598Y014126D01*
X023598Y014028D02*
X023383Y014028D01*
X023433Y013929D02*
X023598Y013929D01*
X023598Y013831D02*
X023494Y013831D01*
X023521Y013732D02*
X023598Y013732D01*
X022062Y014442D02*
X021988Y014442D01*
X021917Y014512D01*
X021971Y014566D01*
X021971Y014786D01*
X021651Y014786D01*
X021651Y014886D01*
X021915Y014886D01*
X022062Y014738D01*
X022062Y014442D01*
X022062Y014521D02*
X021926Y014521D01*
X021971Y014619D02*
X022062Y014619D01*
X022062Y014718D02*
X021971Y014718D01*
X021984Y014816D02*
X021651Y014816D01*
X020037Y014486D02*
X019973Y014422D01*
X019908Y014422D01*
X019923Y014406D02*
X019870Y014459D01*
X019941Y014530D01*
X019993Y014530D01*
X020037Y014486D01*
X020002Y014521D02*
X019931Y014521D01*
X019973Y014422D02*
X019973Y014161D01*
X019956Y014145D01*
X019956Y013752D01*
X019696Y013752D01*
X019606Y013661D01*
X019553Y013714D01*
X019332Y013714D01*
X019332Y013394D01*
X019232Y013394D01*
X018929Y013394D01*
X018678Y013144D01*
X018678Y013089D01*
X018778Y013089D01*
X018912Y013089D01*
X018912Y013294D01*
X019232Y013294D01*
X019232Y013394D01*
X019232Y013698D01*
X019301Y013766D01*
X019503Y013766D01*
X019503Y014086D01*
X019603Y014086D01*
X019603Y013766D01*
X019824Y013766D01*
X019923Y013866D01*
X019923Y014086D01*
X019604Y014086D01*
X019604Y014186D01*
X019923Y014186D01*
X019923Y014406D01*
X019923Y014324D02*
X019973Y014324D01*
X019973Y014225D02*
X019923Y014225D01*
X019956Y014126D02*
X019604Y014126D01*
X019603Y014028D02*
X019503Y014028D01*
X019503Y013929D02*
X019603Y013929D01*
X019603Y013831D02*
X019503Y013831D01*
X019677Y013732D02*
X019267Y013732D01*
X019232Y013634D02*
X019332Y013634D01*
X019332Y013535D02*
X019232Y013535D01*
X019232Y013437D02*
X019332Y013437D01*
X019232Y013338D02*
X018873Y013338D01*
X018912Y013240D02*
X018774Y013240D01*
X018678Y013141D02*
X018912Y013141D01*
X018317Y013491D02*
X018166Y013340D01*
X018166Y013052D01*
X018175Y013052D01*
X018175Y012998D01*
X018175Y012998D01*
X018176Y012998D01*
X018176Y013052D01*
X018184Y013052D01*
X018184Y013144D01*
X018184Y013348D01*
X018619Y013783D01*
X018619Y014086D01*
X018519Y014086D01*
X018519Y013766D01*
X018462Y013766D01*
X018462Y013636D01*
X018317Y013491D01*
X018361Y013535D02*
X018372Y013535D01*
X018460Y013634D02*
X018470Y013634D01*
X018462Y013732D02*
X018569Y013732D01*
X018519Y013831D02*
X018619Y013831D01*
X018619Y013929D02*
X018519Y013929D01*
X018519Y014028D02*
X018619Y014028D01*
X018619Y014086D02*
X018922Y014086D01*
X018972Y014135D01*
X018972Y014530D01*
X018957Y014530D01*
X018886Y014459D01*
X018939Y014406D01*
X018939Y014186D01*
X018619Y014186D01*
X018619Y014086D01*
X018619Y014126D02*
X018963Y014126D01*
X018972Y014225D02*
X018939Y014225D01*
X018939Y014324D02*
X018972Y014324D01*
X018972Y014422D02*
X018923Y014422D01*
X018947Y014521D02*
X018972Y014521D01*
X019923Y014028D02*
X019956Y014028D01*
X019956Y013929D02*
X019923Y013929D01*
X019889Y013831D02*
X019956Y013831D01*
X020568Y013729D02*
X020568Y013497D01*
X020390Y013319D01*
X020390Y013089D01*
X020643Y013089D01*
X020681Y013052D01*
X020734Y013052D01*
X020734Y012998D01*
X020734Y012998D01*
X020735Y012998D01*
X020735Y013052D01*
X020788Y013052D01*
X020826Y013089D01*
X021082Y013089D01*
X021196Y013089D01*
X021196Y013124D01*
X021196Y013328D01*
X021472Y013604D01*
X021472Y013729D01*
X021315Y013729D01*
X021296Y013748D01*
X021276Y013729D01*
X020704Y013729D01*
X020685Y013748D01*
X020666Y013729D01*
X020568Y013729D01*
X020568Y013634D02*
X021472Y013634D01*
X021403Y013535D02*
X020568Y013535D01*
X020507Y013437D02*
X021305Y013437D01*
X021206Y013338D02*
X020409Y013338D01*
X020390Y013240D02*
X021196Y013240D01*
X021196Y013141D02*
X020390Y013141D01*
X020734Y013043D02*
X020735Y013043D01*
X020701Y013732D02*
X020670Y013732D01*
X021280Y013732D02*
X021311Y013732D01*
X018273Y013437D02*
X018263Y013437D01*
X018184Y013338D02*
X018166Y013338D01*
X018166Y013240D02*
X018184Y013240D01*
X018184Y013141D02*
X018166Y013141D01*
X018175Y013043D02*
X018176Y013043D01*
X016137Y013089D02*
X016137Y013890D01*
X016093Y013845D01*
X015888Y013845D01*
X015489Y013845D01*
X015489Y013780D01*
X015431Y013638D01*
X015322Y013530D01*
X015181Y013471D01*
X015028Y013471D01*
X014887Y013530D01*
X014778Y013638D01*
X014751Y013705D01*
X014603Y013557D01*
X014603Y013052D01*
X014646Y013052D01*
X014684Y013089D01*
X014940Y013089D01*
X015196Y013089D01*
X015452Y013089D01*
X015708Y013089D01*
X015964Y013089D01*
X016137Y013089D01*
X016137Y013141D02*
X014603Y013141D01*
X014603Y013240D02*
X016137Y013240D01*
X016137Y013338D02*
X014603Y013338D01*
X014603Y013437D02*
X016137Y013437D01*
X016137Y013535D02*
X015328Y013535D01*
X015426Y013634D02*
X016137Y013634D01*
X016137Y013732D02*
X015470Y013732D01*
X015489Y013831D02*
X016137Y013831D01*
X014881Y013535D02*
X014603Y013535D01*
X014680Y013634D02*
X014783Y013634D01*
X015391Y015802D02*
X015441Y015802D01*
X015391Y015900D02*
X015540Y015900D01*
X015638Y015999D02*
X015391Y015999D01*
X015391Y016097D02*
X015737Y016097D01*
X015836Y016196D02*
X015391Y016196D01*
X015391Y016294D02*
X015934Y016294D01*
X016033Y016393D02*
X015391Y016393D01*
X015391Y016492D02*
X016131Y016492D01*
X016230Y016590D02*
X015391Y016590D01*
X023029Y016097D02*
X023626Y016097D01*
X023828Y016097D02*
X024084Y016097D01*
X024183Y015999D02*
X023982Y015999D01*
X024044Y015900D02*
X024281Y015900D01*
X024380Y015802D02*
X024072Y015802D01*
X024376Y015703D02*
X024478Y015703D01*
X024461Y015605D02*
X024577Y015605D01*
X024502Y015506D02*
X024675Y015506D01*
X024711Y015408D02*
X024774Y015408D01*
X024785Y015309D02*
X024873Y015309D01*
X024820Y015210D02*
X024971Y015210D01*
X025070Y015112D02*
X024867Y015112D01*
X024966Y015013D02*
X025168Y015013D01*
X027105Y012712D02*
X027923Y013530D01*
X031084Y013530D01*
X031084Y013498D01*
X031321Y013261D01*
X031593Y013261D01*
X031593Y013182D01*
X032144Y013182D01*
X032144Y013164D01*
X031593Y013164D01*
X031593Y013085D01*
X031309Y013085D01*
X031072Y012848D01*
X031072Y012626D01*
X031054Y012607D01*
X027530Y012607D01*
X027325Y012607D01*
X026954Y012236D01*
X026866Y012272D01*
X026729Y012272D01*
X026602Y012220D01*
X026556Y012174D01*
X025955Y012174D01*
X025504Y012625D01*
X026556Y012625D01*
X026602Y012579D01*
X026729Y012527D01*
X026866Y012527D01*
X026993Y012579D01*
X027090Y012676D01*
X027105Y012712D01*
X027140Y012747D02*
X031072Y012747D01*
X031072Y012845D02*
X027238Y012845D01*
X027337Y012944D02*
X031168Y012944D01*
X031266Y013043D02*
X027435Y013043D01*
X027534Y013141D02*
X031593Y013141D01*
X031593Y013240D02*
X027632Y013240D01*
X027731Y013338D02*
X031244Y013338D01*
X031145Y013437D02*
X027830Y013437D01*
X027062Y012648D02*
X031072Y012648D01*
X031158Y011956D02*
X030760Y011956D01*
X030820Y011811D01*
X030820Y011650D01*
X030758Y011502D01*
X030645Y011388D01*
X030496Y011327D01*
X030335Y011327D01*
X030187Y011388D01*
X030073Y011502D01*
X030011Y011650D01*
X030011Y011811D01*
X030071Y011956D01*
X027608Y011956D01*
X027143Y011490D01*
X027143Y011425D01*
X027090Y011298D01*
X026993Y011201D01*
X026866Y011149D01*
X026729Y011149D01*
X026602Y011201D01*
X026556Y011247D01*
X025947Y011247D01*
X025803Y011392D01*
X025718Y011476D01*
X025718Y010824D01*
X025736Y010842D01*
X025863Y010894D01*
X026000Y010894D01*
X026095Y010855D01*
X029134Y010855D01*
X029229Y010894D01*
X029366Y010894D01*
X029493Y010842D01*
X029590Y010745D01*
X029643Y010618D01*
X029643Y010480D01*
X029590Y010353D01*
X029493Y010256D01*
X029366Y010204D01*
X029229Y010204D01*
X029134Y010243D01*
X028954Y010243D01*
X028954Y010126D01*
X028901Y009999D01*
X028804Y009902D01*
X028677Y009849D01*
X028540Y009849D01*
X028413Y009902D01*
X028367Y009948D01*
X028317Y009948D01*
X027969Y009600D01*
X028067Y009502D01*
X028067Y009167D01*
X027632Y009167D01*
X027632Y009097D01*
X028067Y009097D01*
X028067Y008761D01*
X027967Y008662D01*
X027632Y008662D01*
X027632Y009096D01*
X027562Y009096D01*
X027562Y008662D01*
X027226Y008662D01*
X027127Y008761D01*
X027127Y009097D01*
X027561Y009097D01*
X027561Y009167D01*
X027127Y009167D01*
X027127Y009220D01*
X026916Y009009D01*
X026972Y008953D01*
X027025Y008826D01*
X027025Y008689D01*
X026972Y008562D01*
X026926Y008516D01*
X026926Y008200D01*
X026926Y007996D01*
X026680Y007750D01*
X026680Y007685D01*
X026628Y007558D01*
X026530Y007461D01*
X026404Y007408D01*
X026281Y007408D01*
X026281Y007035D01*
X026281Y006844D01*
X026365Y006878D01*
X026502Y006878D01*
X026629Y006826D01*
X026726Y006729D01*
X026779Y006602D01*
X026779Y006465D01*
X026726Y006338D01*
X026629Y006241D01*
X026502Y006188D01*
X026365Y006188D01*
X026279Y006223D01*
X026093Y006223D01*
X025113Y005243D01*
X024933Y005243D01*
X024971Y005205D01*
X025711Y005205D01*
X025915Y005205D01*
X026703Y004418D01*
X030435Y004418D01*
X030488Y004470D01*
X030632Y004615D01*
X030729Y004615D01*
X030775Y004661D01*
X030902Y004713D01*
X031039Y004713D01*
X031166Y004661D01*
X031255Y004571D01*
X031255Y004887D01*
X031377Y005008D01*
X031651Y005008D01*
X031629Y005030D01*
X031629Y005753D01*
X031751Y005875D01*
X032150Y005875D01*
X032043Y005919D01*
X031902Y006060D01*
X031825Y006245D01*
X031825Y006445D01*
X031825Y006642D01*
X031825Y006839D01*
X031866Y006936D01*
X031825Y007032D01*
X031825Y007229D01*
X031825Y007426D01*
X031825Y007626D01*
X031902Y007811D01*
X032043Y007952D01*
X032228Y008029D01*
X032428Y008029D01*
X032524Y007989D01*
X032524Y011796D01*
X032515Y011786D01*
X032322Y011786D01*
X032320Y011784D01*
X031329Y011784D01*
X031158Y011956D01*
X031253Y011860D02*
X030800Y011860D01*
X030820Y011761D02*
X032524Y011761D01*
X032524Y011663D02*
X030820Y011663D01*
X030784Y011564D02*
X032524Y011564D01*
X032524Y011466D02*
X030722Y011466D01*
X030594Y011367D02*
X032524Y011367D01*
X032524Y011269D02*
X027061Y011269D01*
X027119Y011367D02*
X030237Y011367D01*
X030109Y011466D02*
X027143Y011466D01*
X027217Y011564D02*
X030047Y011564D01*
X030011Y011663D02*
X027316Y011663D01*
X027414Y011761D02*
X030011Y011761D01*
X030031Y011860D02*
X027513Y011860D01*
X027071Y012353D02*
X025776Y012353D01*
X025677Y012451D02*
X027170Y012451D01*
X027268Y012550D02*
X026922Y012550D01*
X026673Y012550D02*
X025579Y012550D01*
X025874Y012254D02*
X026685Y012254D01*
X026910Y012254D02*
X026973Y012254D01*
X025827Y011367D02*
X025718Y011367D01*
X025718Y011269D02*
X025925Y011269D01*
X025718Y011170D02*
X026677Y011170D01*
X026918Y011170D02*
X032524Y011170D01*
X032524Y011072D02*
X025718Y011072D01*
X025718Y010973D02*
X032524Y010973D01*
X032524Y010875D02*
X029414Y010875D01*
X029559Y010776D02*
X032524Y010776D01*
X032524Y010677D02*
X029618Y010677D01*
X029643Y010579D02*
X032524Y010579D01*
X032524Y010480D02*
X029643Y010480D01*
X029602Y010382D02*
X032524Y010382D01*
X032524Y010283D02*
X029520Y010283D01*
X028954Y010185D02*
X032524Y010185D01*
X032524Y010086D02*
X028937Y010086D01*
X028890Y009988D02*
X032524Y009988D01*
X032524Y009889D02*
X028773Y009889D01*
X028444Y009889D02*
X028258Y009889D01*
X028160Y009791D02*
X032524Y009791D01*
X032524Y009692D02*
X028061Y009692D01*
X027975Y009594D02*
X028386Y009594D01*
X028309Y009562D02*
X028166Y009419D01*
X028089Y009233D01*
X028089Y009031D01*
X028166Y008844D01*
X028283Y008728D01*
X028283Y007074D01*
X028283Y006622D01*
X028166Y006506D01*
X028089Y006319D01*
X028089Y006117D01*
X028166Y005931D01*
X028309Y005788D01*
X028496Y005711D01*
X028698Y005711D01*
X028884Y005788D01*
X029027Y005931D01*
X029104Y006117D01*
X029104Y006319D01*
X029092Y006350D01*
X029092Y006838D01*
X029266Y006838D01*
X029266Y006836D01*
X029266Y006642D01*
X029266Y006445D01*
X029266Y006245D01*
X029343Y006060D01*
X029484Y005919D01*
X029669Y005842D01*
X029869Y005842D01*
X030054Y005919D01*
X030195Y006060D01*
X030272Y006245D01*
X030272Y006445D01*
X030272Y006642D01*
X030272Y006836D01*
X030272Y007036D01*
X030272Y007229D01*
X030272Y007426D01*
X030272Y007626D01*
X030195Y007811D01*
X030054Y007952D01*
X029869Y008029D01*
X029669Y008029D01*
X029484Y007952D01*
X029343Y007811D01*
X029275Y007646D01*
X029092Y007646D01*
X029092Y009000D01*
X029104Y009031D01*
X029104Y009233D01*
X029027Y009419D01*
X028884Y009562D01*
X028698Y009639D01*
X028496Y009639D01*
X028309Y009562D01*
X028242Y009495D02*
X028067Y009495D01*
X028067Y009396D02*
X028157Y009396D01*
X028116Y009298D02*
X028067Y009298D01*
X028067Y009199D02*
X028089Y009199D01*
X028089Y009101D02*
X027632Y009101D01*
X027561Y009101D02*
X027007Y009101D01*
X026923Y009002D02*
X027127Y009002D01*
X027127Y008904D02*
X026993Y008904D01*
X027025Y008805D02*
X027127Y008805D01*
X027181Y008707D02*
X027025Y008707D01*
X026991Y008608D02*
X028283Y008608D01*
X028283Y008510D02*
X026926Y008510D01*
X026926Y008411D02*
X028283Y008411D01*
X028283Y008312D02*
X026926Y008312D01*
X026926Y008214D02*
X028283Y008214D01*
X028283Y008115D02*
X026926Y008115D01*
X026926Y008017D02*
X028283Y008017D01*
X028283Y007918D02*
X026849Y007918D01*
X026750Y007820D02*
X028283Y007820D01*
X028283Y007721D02*
X026680Y007721D01*
X026654Y007623D02*
X028283Y007623D01*
X028283Y007524D02*
X026594Y007524D01*
X026445Y007426D02*
X028283Y007426D01*
X028283Y007327D02*
X026281Y007327D01*
X026281Y007228D02*
X028283Y007228D01*
X028283Y007130D02*
X026281Y007130D01*
X026281Y007031D02*
X028283Y007031D01*
X028283Y006933D02*
X026281Y006933D01*
X026609Y006834D02*
X028283Y006834D01*
X028283Y006736D02*
X026719Y006736D01*
X026764Y006637D02*
X027175Y006637D01*
X027127Y006589D02*
X027127Y006253D01*
X027561Y006253D01*
X027561Y006183D01*
X027127Y006183D01*
X027127Y005848D01*
X027226Y005748D01*
X027562Y005748D01*
X027562Y006183D01*
X027632Y006183D01*
X027632Y006253D01*
X028067Y006253D01*
X028067Y006589D01*
X027967Y006688D01*
X027632Y006688D01*
X027632Y006254D01*
X027562Y006254D01*
X027562Y006688D01*
X027226Y006688D01*
X027127Y006589D01*
X027127Y006539D02*
X026779Y006539D01*
X026768Y006440D02*
X027127Y006440D01*
X027127Y006342D02*
X026728Y006342D01*
X026631Y006243D02*
X027561Y006243D01*
X027632Y006243D02*
X028089Y006243D01*
X028067Y006183D02*
X027632Y006183D01*
X027632Y005748D01*
X027967Y005748D01*
X028067Y005848D01*
X028067Y006183D01*
X028067Y006144D02*
X028089Y006144D01*
X028067Y006046D02*
X028119Y006046D01*
X028160Y005947D02*
X028067Y005947D01*
X028067Y005849D02*
X028248Y005849D01*
X028400Y005750D02*
X027969Y005750D01*
X027632Y005750D02*
X027562Y005750D01*
X027562Y005849D02*
X027632Y005849D01*
X027632Y005947D02*
X027562Y005947D01*
X027562Y006046D02*
X027632Y006046D01*
X027632Y006144D02*
X027562Y006144D01*
X027562Y006342D02*
X027632Y006342D01*
X027632Y006440D02*
X027562Y006440D01*
X027562Y006539D02*
X027632Y006539D01*
X027632Y006637D02*
X027562Y006637D01*
X028018Y006637D02*
X028283Y006637D01*
X028199Y006539D02*
X028067Y006539D01*
X028067Y006440D02*
X028139Y006440D01*
X028099Y006342D02*
X028067Y006342D01*
X027127Y006144D02*
X026015Y006144D01*
X025916Y006046D02*
X027127Y006046D01*
X027127Y005947D02*
X025817Y005947D01*
X025719Y005849D02*
X027127Y005849D01*
X027224Y005750D02*
X025620Y005750D01*
X025522Y005652D02*
X031629Y005652D01*
X031629Y005750D02*
X028793Y005750D01*
X028945Y005849D02*
X029653Y005849D01*
X029456Y005947D02*
X029034Y005947D01*
X029075Y006046D02*
X029357Y006046D01*
X029308Y006144D02*
X029104Y006144D01*
X029104Y006243D02*
X029267Y006243D01*
X029266Y006342D02*
X029095Y006342D01*
X029092Y006440D02*
X029266Y006440D01*
X029266Y006539D02*
X029092Y006539D01*
X029092Y006637D02*
X029266Y006637D01*
X029266Y006736D02*
X029092Y006736D01*
X029092Y006834D02*
X029266Y006834D01*
X030272Y006834D02*
X031825Y006834D01*
X031825Y006736D02*
X030272Y006736D01*
X030272Y006637D02*
X031825Y006637D01*
X031825Y006539D02*
X030272Y006539D01*
X030272Y006440D02*
X031825Y006440D01*
X031825Y006342D02*
X030272Y006342D01*
X030271Y006243D02*
X031826Y006243D01*
X031867Y006144D02*
X030230Y006144D01*
X030181Y006046D02*
X031916Y006046D01*
X032015Y005947D02*
X030082Y005947D01*
X029885Y005849D02*
X031725Y005849D01*
X031629Y005553D02*
X025423Y005553D01*
X025325Y005455D02*
X031629Y005455D01*
X031629Y005356D02*
X025226Y005356D01*
X025128Y005258D02*
X031629Y005258D01*
X031629Y005159D02*
X025962Y005159D01*
X026060Y005061D02*
X031629Y005061D01*
X031330Y004962D02*
X026159Y004962D01*
X026257Y004863D02*
X031255Y004863D01*
X031255Y004765D02*
X026356Y004765D01*
X026454Y004666D02*
X030789Y004666D01*
X030585Y004568D02*
X026553Y004568D01*
X026651Y004469D02*
X030487Y004469D01*
X031152Y004666D02*
X031255Y004666D01*
X031864Y006933D02*
X030272Y006933D01*
X030272Y007031D02*
X031826Y007031D01*
X031825Y007130D02*
X030272Y007130D01*
X030272Y007228D02*
X031825Y007228D01*
X031825Y007327D02*
X030272Y007327D01*
X030272Y007426D02*
X031825Y007426D01*
X031825Y007524D02*
X030272Y007524D01*
X030272Y007623D02*
X031825Y007623D01*
X031865Y007721D02*
X030233Y007721D01*
X030186Y007820D02*
X031911Y007820D01*
X032009Y007918D02*
X030088Y007918D01*
X029898Y008017D02*
X032199Y008017D01*
X032457Y008017D02*
X032524Y008017D01*
X032524Y008115D02*
X029092Y008115D01*
X029092Y008017D02*
X029640Y008017D01*
X029450Y007918D02*
X029092Y007918D01*
X029092Y007820D02*
X029352Y007820D01*
X029306Y007721D02*
X029092Y007721D01*
X029092Y008214D02*
X030307Y008214D01*
X030378Y008185D02*
X030578Y008185D01*
X030775Y008185D01*
X030971Y008185D01*
X031068Y008225D01*
X031165Y008185D01*
X031362Y008185D01*
X031559Y008185D01*
X031759Y008185D01*
X031944Y008261D01*
X032085Y008403D01*
X032162Y008588D01*
X032162Y008788D01*
X032085Y008972D01*
X031944Y009114D01*
X031759Y009190D01*
X031559Y009190D01*
X031362Y009190D01*
X031165Y009190D01*
X031068Y009150D01*
X030971Y009190D01*
X030775Y009190D01*
X030578Y009190D01*
X030378Y009190D01*
X030193Y009114D01*
X030052Y008972D01*
X029975Y008788D01*
X029975Y008588D01*
X030052Y008403D01*
X030193Y008261D01*
X030378Y008185D01*
X030142Y008312D02*
X029092Y008312D01*
X029092Y008411D02*
X030048Y008411D01*
X030007Y008510D02*
X029092Y008510D01*
X029092Y008608D02*
X029975Y008608D01*
X029975Y008707D02*
X029092Y008707D01*
X029092Y008805D02*
X029982Y008805D01*
X030023Y008904D02*
X029092Y008904D01*
X029092Y009002D02*
X030081Y009002D01*
X030180Y009101D02*
X029104Y009101D01*
X029104Y009199D02*
X032524Y009199D01*
X032524Y009101D02*
X031957Y009101D01*
X032055Y009002D02*
X032524Y009002D01*
X032524Y008904D02*
X032114Y008904D01*
X032154Y008805D02*
X032524Y008805D01*
X032524Y008707D02*
X032162Y008707D01*
X032162Y008608D02*
X032524Y008608D01*
X032524Y008510D02*
X032129Y008510D01*
X032088Y008411D02*
X032524Y008411D01*
X032524Y008312D02*
X031995Y008312D01*
X031829Y008214D02*
X032524Y008214D01*
X031095Y008214D02*
X031042Y008214D01*
X032524Y009298D02*
X029077Y009298D01*
X029036Y009396D02*
X032524Y009396D01*
X032524Y009495D02*
X028951Y009495D01*
X028808Y009594D02*
X032524Y009594D01*
X029181Y010875D02*
X026047Y010875D01*
X025815Y010875D02*
X025718Y010875D01*
X025718Y011466D02*
X025728Y011466D01*
X027106Y009199D02*
X027127Y009199D01*
X027562Y009002D02*
X027632Y009002D01*
X027632Y008904D02*
X027562Y008904D01*
X027562Y008805D02*
X027632Y008805D01*
X027632Y008707D02*
X027562Y008707D01*
X028012Y008707D02*
X028283Y008707D01*
X028205Y008805D02*
X028067Y008805D01*
X028067Y008904D02*
X028142Y008904D01*
X028101Y009002D02*
X028067Y009002D01*
X023913Y008217D02*
X023777Y008080D01*
X023777Y008217D01*
X023913Y008217D01*
X023910Y008214D02*
X023777Y008214D01*
X023777Y008115D02*
X023812Y008115D01*
X023047Y007325D02*
X023047Y006998D01*
X023015Y007073D01*
X022918Y007170D01*
X022791Y007223D01*
X022654Y007223D01*
X022527Y007170D01*
X022481Y007125D01*
X021888Y007125D01*
X021888Y007231D01*
X021568Y007231D01*
X021568Y007331D01*
X021888Y007331D01*
X021888Y007458D01*
X021923Y007458D01*
X022059Y007458D01*
X022082Y007435D01*
X022227Y007290D01*
X022807Y007290D01*
X023012Y007290D01*
X023047Y007325D01*
X023047Y007228D02*
X021888Y007228D01*
X021888Y007130D02*
X022487Y007130D01*
X022190Y007327D02*
X021568Y007327D01*
X021888Y007426D02*
X022091Y007426D01*
X022959Y007130D02*
X023047Y007130D01*
X023033Y007031D02*
X023047Y007031D01*
X022821Y006545D02*
X022804Y006504D01*
X020915Y006504D01*
X020546Y006874D01*
X020876Y006874D01*
X021119Y006631D01*
X021323Y006631D01*
X022481Y006631D01*
X022527Y006585D01*
X022654Y006532D01*
X022791Y006532D01*
X022821Y006545D01*
X022818Y006539D02*
X022806Y006539D01*
X022639Y006539D02*
X020881Y006539D01*
X020783Y006637D02*
X021113Y006637D01*
X021014Y006736D02*
X020684Y006736D01*
X020586Y006834D02*
X020915Y006834D01*
X020468Y006938D02*
X020279Y006938D01*
X020352Y007011D01*
X020352Y007231D01*
X020032Y007231D01*
X020032Y007331D01*
X020352Y007331D01*
X020352Y007458D01*
X020387Y007458D01*
X020410Y007458D01*
X020410Y006995D01*
X020468Y006938D01*
X020410Y007031D02*
X020352Y007031D01*
X020352Y007130D02*
X020410Y007130D01*
X020410Y007228D02*
X020352Y007228D01*
X020410Y007327D02*
X020032Y007327D01*
X020352Y007426D02*
X020410Y007426D01*
X011378Y003090D02*
X010269Y003090D01*
X010171Y003188D02*
X011280Y003188D01*
X011181Y003287D02*
X010072Y003287D01*
X010566Y002991D02*
X010997Y002991D01*
X010880Y002893D02*
X010683Y002893D01*
X010766Y002794D02*
X010798Y002794D01*
X011083Y003385D02*
X004536Y003385D01*
X004438Y003287D02*
X004771Y003287D01*
X004667Y003188D02*
X004339Y003188D01*
X004241Y003090D02*
X004625Y003090D01*
X004612Y002991D02*
X004469Y002991D01*
X004330Y002991D02*
X004233Y002991D01*
X004233Y002893D02*
X004330Y002893D01*
X004330Y002794D02*
X004233Y002794D01*
X004233Y002695D02*
X004330Y002695D01*
X004330Y002597D02*
X004233Y002597D01*
X003294Y003287D02*
X003039Y003287D01*
X003039Y003385D02*
X003393Y003385D01*
X003491Y003484D02*
X003039Y003484D01*
X003039Y003582D02*
X003590Y003582D01*
X003688Y003681D02*
X003039Y003681D01*
X003039Y003779D02*
X003787Y003779D01*
X003885Y003878D02*
X003039Y003878D01*
X003039Y003977D02*
X003984Y003977D01*
X004083Y004075D02*
X003039Y004075D01*
X003039Y004174D02*
X004181Y004174D01*
X004280Y004272D02*
X003039Y004272D01*
X003039Y004371D02*
X004035Y004371D01*
X003802Y004469D02*
X003039Y004469D01*
X003039Y004568D02*
X003704Y004568D01*
X003605Y004666D02*
X003039Y004666D01*
X003039Y004765D02*
X003543Y004765D01*
X003502Y004863D02*
X003039Y004863D01*
X003039Y004962D02*
X003462Y004962D01*
X003441Y005061D02*
X003039Y005061D01*
X003039Y005159D02*
X003441Y005159D01*
X003441Y005258D02*
X003039Y005258D01*
X003039Y005356D02*
X003446Y005356D01*
X003486Y005455D02*
X003039Y005455D01*
X003039Y005553D02*
X003527Y005553D01*
X003568Y005652D02*
X003039Y005652D01*
X003039Y005750D02*
X003665Y005750D01*
X003763Y005849D02*
X003039Y005849D01*
X003039Y005947D02*
X003942Y005947D01*
X004995Y005652D02*
X008402Y005652D01*
X008303Y005750D02*
X005862Y005750D01*
X005960Y005849D02*
X007697Y005849D01*
X007599Y005947D02*
X006059Y005947D01*
X005397Y005947D02*
X005300Y005947D01*
X005300Y005849D02*
X005397Y005849D01*
X005397Y005750D02*
X005300Y005750D01*
X005300Y006046D02*
X005397Y006046D01*
X005397Y006243D02*
X005300Y006243D01*
X005300Y006342D02*
X005397Y006342D01*
X005397Y006440D02*
X005300Y006440D01*
X005300Y006539D02*
X005397Y006539D01*
X005397Y006637D02*
X005300Y006637D01*
X005036Y005553D02*
X008500Y005553D01*
X008599Y005455D02*
X007457Y005455D01*
X007083Y005455D02*
X005077Y005455D01*
X005118Y005356D02*
X006966Y005356D01*
X006912Y005258D02*
X005122Y005258D01*
X005122Y005159D02*
X006885Y005159D01*
X006885Y005061D02*
X005968Y005061D01*
X006066Y004962D02*
X006917Y004962D01*
X006978Y004863D02*
X006139Y004863D01*
X006139Y004765D02*
X007112Y004765D01*
X007428Y004765D02*
X009916Y004765D01*
X009818Y004666D02*
X006139Y004666D01*
X006139Y004568D02*
X009719Y004568D01*
X009621Y004469D02*
X006053Y004469D01*
X005955Y004371D02*
X009522Y004371D01*
X009424Y004272D02*
X005856Y004272D01*
X005758Y004174D02*
X009325Y004174D01*
X009227Y004075D02*
X008067Y004075D01*
X007890Y004075D02*
X005659Y004075D01*
X005561Y003977D02*
X007729Y003977D01*
X007663Y003878D02*
X005462Y003878D01*
X005364Y003779D02*
X007633Y003779D01*
X007633Y003681D02*
X005265Y003681D01*
X005166Y003582D02*
X007669Y003582D01*
X007744Y003484D02*
X004635Y003484D01*
X003196Y003188D02*
X003039Y003188D01*
X003039Y003090D02*
X003097Y003090D01*
X004761Y004469D02*
X004910Y004469D01*
X004860Y004568D02*
X005008Y004568D01*
X004958Y004666D02*
X005107Y004666D01*
X005020Y004765D02*
X005205Y004765D01*
X005304Y004863D02*
X005061Y004863D01*
X005102Y004962D02*
X005402Y004962D01*
X005501Y005061D02*
X005122Y005061D01*
X008102Y005849D02*
X008205Y005849D01*
X010319Y004469D02*
X010684Y004469D01*
X010684Y004371D02*
X010220Y004371D01*
X010122Y004272D02*
X010684Y004272D01*
X010684Y004174D02*
X010023Y004174D01*
X009925Y004075D02*
X010684Y004075D01*
X010684Y003977D02*
X009826Y003977D01*
X009727Y003878D02*
X010684Y003878D01*
X010689Y003779D02*
X009629Y003779D01*
X009530Y003681D02*
X010787Y003681D01*
X010886Y003582D02*
X009432Y003582D01*
X008213Y003484D02*
X010984Y003484D01*
X010684Y004568D02*
X010417Y004568D01*
X010516Y004666D02*
X010684Y004666D01*
X010684Y004765D02*
X010614Y004765D01*
D29*
X009238Y005628D02*
X009002Y005628D01*
X008412Y006218D01*
X008412Y010138D01*
X008530Y010256D01*
X007282Y009256D02*
X006432Y009256D01*
X006432Y006179D01*
X006432Y004643D01*
X006679Y004643D01*
X006432Y004632D02*
X006432Y004643D01*
X006432Y004632D02*
X005262Y003462D01*
X004790Y003462D01*
X004282Y002954D01*
X004282Y002506D01*
X005349Y006179D02*
X006432Y006179D01*
X005349Y006179D02*
X005349Y006190D01*
X010374Y008156D02*
X010374Y011453D01*
X006432Y011860D02*
X006432Y009256D01*
X006432Y011860D02*
X006089Y012203D01*
X005656Y016454D02*
X005558Y016552D01*
X004282Y016552D01*
X005640Y016471D02*
X005640Y016454D01*
X005656Y016454D01*
D30*
X006282Y016544D02*
X006282Y018506D01*
X004282Y018506D02*
X004282Y016552D01*
X003182Y015452D01*
X003182Y014384D01*
X003182Y012321D01*
X003182Y007787D01*
X004778Y006190D01*
X005349Y006190D01*
X006034Y012203D02*
X006089Y012203D01*
X006034Y012203D02*
X006034Y012298D01*
D31*
X007900Y011691D03*
X009278Y012557D03*
X010656Y013187D03*
X008963Y014210D03*
X010374Y011453D03*
X008530Y010256D03*
X010374Y008156D03*
X009986Y007321D03*
X010742Y007195D03*
X007900Y006218D03*
X009238Y005628D03*
X010444Y005628D03*
X011049Y005077D03*
X011689Y004250D03*
X007270Y005116D03*
X006679Y004643D03*
X005734Y004722D03*
X015105Y013856D03*
X030026Y004525D03*
D32*
X029986Y004525D01*
X029908Y004447D01*
X026778Y004447D01*
X026168Y005057D01*
X024986Y005549D02*
X025971Y006533D01*
X024986Y005549D02*
X019534Y005549D01*
X018589Y006494D01*
X016199Y006494D01*
X016199Y005943D01*
X016199Y005391D01*
X016199Y004840D01*
X016199Y004626D01*
X016004Y004431D01*
X015912Y004431D01*
X013112Y005088D02*
X013112Y005438D01*
X013112Y005738D01*
X013112Y006088D01*
X013112Y006356D01*
X013210Y006454D01*
X013412Y006454D01*
X013412Y007006D02*
X013412Y007203D01*
X013530Y007321D01*
X013530Y008147D01*
X012860Y008817D01*
X012860Y010234D01*
X012860Y011415D01*
X012860Y013197D01*
X012831Y013226D01*
X012841Y013236D01*
X012841Y014663D01*
X014396Y016218D01*
X014396Y016651D01*
X013648Y017124D02*
X012703Y016179D01*
X012510Y016179D01*
X012427Y016096D01*
X015420Y016730D02*
X016286Y016730D01*
X016719Y017163D01*
X017073Y017163D01*
X017536Y015982D02*
X019593Y015982D01*
X019671Y016061D01*
X017536Y015982D02*
X016010Y014456D01*
X015951Y014456D01*
X018175Y013349D02*
X018175Y013226D01*
X018175Y013349D02*
X018490Y013664D01*
X018490Y014057D01*
X018569Y014136D01*
X018673Y014240D01*
X018815Y014240D01*
X018943Y014368D01*
X019553Y014136D02*
X019657Y014240D01*
X019819Y014240D01*
X019947Y014368D01*
X019553Y014136D02*
X019553Y014014D01*
X019366Y013827D01*
X019366Y013429D01*
X019282Y013344D01*
X019199Y013344D01*
X019967Y013344D02*
X019982Y013344D01*
X020262Y013624D01*
X020262Y014018D01*
X020380Y014136D01*
X020380Y014836D02*
X019553Y014836D01*
X019219Y014836D01*
X018569Y014836D01*
X020380Y014836D02*
X020990Y014836D01*
X021601Y014836D02*
X021636Y014801D01*
X021955Y014801D01*
X021955Y014136D02*
X021601Y014136D01*
X021955Y014136D02*
X022034Y014057D01*
X022034Y013797D01*
X021443Y013620D02*
X021364Y013620D01*
X020734Y012990D01*
X022673Y013305D02*
X023412Y013305D01*
X024120Y012596D01*
X024120Y011888D01*
X024553Y011454D01*
X024553Y009919D01*
X024081Y009447D01*
X023967Y009447D01*
X023845Y009324D01*
X023959Y009210D01*
X024317Y009210D01*
X024558Y009210D01*
X024829Y009482D01*
X024912Y009565D01*
X025223Y009565D01*
X025223Y011021D01*
X027034Y011021D01*
X027939Y011927D01*
X029809Y011927D01*
X029297Y010549D02*
X025931Y010549D01*
X025223Y011021D02*
X025223Y011966D01*
X023569Y013620D01*
X023569Y013856D01*
X023569Y014289D01*
X023372Y014486D01*
X023372Y016144D01*
X023057Y016454D02*
X023097Y016494D01*
X024120Y016494D01*
X025538Y015077D01*
X026049Y015077D01*
X026049Y015037D01*
X026049Y015077D02*
X029380Y015077D01*
X031053Y016750D01*
X031526Y016750D01*
X031624Y016848D01*
X030282Y016789D02*
X030282Y016632D01*
X029223Y015573D01*
X025931Y015573D01*
X023294Y012990D02*
X022782Y012990D01*
X023294Y012990D02*
X023805Y012478D01*
X023805Y011253D01*
X023845Y011214D01*
X023845Y011179D01*
X023923Y011100D01*
X024120Y011100D01*
X024238Y010982D01*
X024238Y010155D01*
X023746Y009663D01*
X023746Y009423D01*
X023845Y009324D01*
X023412Y009289D02*
X023412Y009801D01*
X023845Y010234D01*
X023845Y010514D01*
X024829Y009482D02*
X024868Y009521D01*
X024868Y011651D01*
X024435Y012084D01*
X023412Y009289D02*
X023412Y008748D01*
X023530Y008630D01*
X023845Y008630D01*
X023845Y008624D02*
X024475Y008624D01*
X024475Y008659D01*
X024597Y008782D01*
X024829Y008782D01*
X023845Y008187D02*
X023845Y008147D01*
X023057Y007360D01*
X023057Y007281D01*
X023057Y006760D01*
X022821Y006523D01*
X022792Y006523D01*
X022752Y006484D01*
X020921Y006484D01*
X020124Y007281D01*
X019982Y007281D01*
X019967Y007281D01*
X021502Y007281D02*
X021518Y007281D01*
X023057Y007281D01*
X013372Y010230D02*
X013368Y010234D01*
X012860Y010234D01*
X010374Y011453D02*
X010374Y011927D01*
X010774Y011927D01*
X010374Y011927D02*
X010374Y012553D01*
X009947Y012553D01*
X010374Y012553D02*
X010374Y012907D01*
X010656Y013189D01*
X010656Y013187D01*
X006246Y016454D02*
X006207Y016494D01*
X006168Y016454D01*
X005656Y016454D01*
X005558Y016552D02*
X006149Y016552D01*
X006207Y016494D01*
X006231Y016471D02*
X006231Y016454D01*
X006246Y016454D01*
X009849Y008384D02*
X009750Y008285D01*
X009750Y007872D01*
X009514Y007636D01*
X009986Y007321D02*
X009986Y006868D01*
X009888Y006769D01*
X009652Y006258D02*
X009140Y006769D01*
X009652Y006258D02*
X010183Y006258D01*
X010380Y006454D01*
X010380Y008150D01*
X010374Y008156D01*
X009719Y003069D02*
X005036Y003069D01*
X004957Y002990D01*
X009719Y003069D02*
X009840Y002947D01*
D33*
X009829Y005628D02*
X010444Y005628D01*
X009829Y005628D02*
X009278Y006179D01*
X009002Y006179D01*
X008766Y006415D01*
X008766Y008049D01*
X009101Y008384D01*
X009042Y008443D01*
X009101Y008384D02*
X009101Y009998D01*
X009750Y009899D02*
X009750Y009525D01*
X009475Y009250D01*
X009750Y009899D02*
X009849Y009998D01*
X009947Y010096D01*
X009947Y011853D01*
X009435Y010903D02*
X007900Y010903D01*
X009435Y010903D02*
X009475Y010864D01*
X018175Y012606D02*
X018175Y013226D01*
X019199Y013344D02*
X019199Y012606D01*
X019967Y012606D02*
X019967Y013344D01*
X020734Y012990D02*
X020734Y012606D01*
X021502Y012606D02*
X021502Y012852D01*
X022270Y012901D02*
X022270Y012606D01*
X022782Y012606D02*
X022782Y012990D01*
X021601Y014136D02*
X020990Y014136D01*
X020380Y014136D01*
X024475Y008624D02*
X024475Y008374D01*
X023333Y007232D01*
X023333Y006573D01*
X023116Y006356D01*
X021502Y007281D02*
X021502Y007941D01*
X020818Y007395D02*
X020818Y007281D01*
X019671Y006691D02*
X019396Y006966D01*
X019396Y007167D01*
X019282Y007281D01*
X019282Y007395D01*
D34*
X019612Y008777D03*
X019986Y009210D03*
X020301Y009417D03*
X020597Y009191D03*
X020892Y009407D03*
X021207Y009210D03*
X021207Y009762D03*
X022329Y009250D03*
X022624Y009447D03*
X022742Y008895D03*
X023412Y009289D03*
X024317Y009210D03*
X025459Y008817D03*
X026128Y008974D03*
X026679Y008758D03*
X026335Y008204D03*
X026335Y007754D03*
X024780Y008029D03*
X023845Y008187D03*
X024760Y007517D03*
X024514Y007242D03*
X023116Y006356D03*
X022792Y006523D03*
X022723Y006878D03*
X024278Y006061D03*
X026168Y005057D03*
X023923Y004250D03*
X023569Y004092D03*
X020813Y003226D03*
X020774Y002793D03*
X018766Y002872D03*
X017644Y003954D03*
X017290Y003876D03*
X016610Y004141D03*
X016522Y003797D03*
X017093Y004388D03*
X017359Y004624D03*
X017654Y004821D03*
X017329Y004978D03*
X017565Y005332D03*
X017860Y005529D03*
X018195Y005647D03*
X017053Y005441D03*
X015912Y004431D03*
X014307Y005362D03*
X014091Y005077D03*
X014101Y005657D03*
X014246Y006002D03*
X013412Y006454D03*
X013412Y007006D03*
X014219Y006996D03*
X015616Y006848D03*
X013008Y007813D03*
X012742Y007577D03*
X013451Y008954D03*
X013923Y009112D03*
X014593Y009821D03*
X015134Y009840D03*
X014632Y010352D03*
X014313Y010549D03*
X013648Y010893D03*
X014425Y011140D03*
X012860Y011415D03*
X010774Y011927D03*
X012831Y013226D03*
X015110Y013309D03*
X015951Y014456D03*
X015912Y014840D03*
X014317Y015175D03*
X014002Y016336D03*
X014396Y016651D03*
X013648Y017124D03*
X013648Y017616D03*
X015420Y016730D03*
X017073Y017163D03*
X017162Y016090D03*
X019671Y016061D03*
X021404Y015844D03*
X022467Y015962D03*
X022821Y015805D03*
X023372Y016144D03*
X023727Y015766D03*
X024160Y015431D03*
X024475Y015155D03*
X023727Y014939D03*
X023923Y014643D03*
X023372Y014486D03*
X022880Y014220D03*
X022821Y013679D03*
X023175Y013699D03*
X023569Y013856D03*
X024455Y013929D03*
X024986Y013856D03*
X026758Y014250D03*
X026837Y013856D03*
X027191Y013541D03*
X026797Y012872D03*
X026797Y012439D03*
X026797Y011927D03*
X026797Y011494D03*
X027034Y011021D03*
X025931Y010549D03*
X027526Y009880D03*
X028609Y010195D03*
X029297Y010549D03*
X029809Y011927D03*
X026404Y009525D03*
X022723Y011494D03*
X022378Y011386D03*
X022467Y011002D03*
X021246Y011140D03*
X020931Y010943D03*
X020616Y010746D03*
X020124Y010746D03*
X020065Y011130D03*
X019711Y011140D03*
X019416Y010923D03*
X019081Y010766D03*
X018835Y010510D03*
X018471Y010451D03*
X018412Y010096D03*
X018038Y010096D03*
X016542Y010391D03*
X016207Y010569D03*
X016305Y010913D03*
X016128Y010037D03*
X017427Y009250D03*
X017093Y009132D03*
X018805Y009092D03*
X020282Y011415D03*
X020626Y011523D03*
X022427Y012045D03*
X022782Y011848D03*
X023471Y011966D03*
X023333Y012321D03*
X023136Y012636D03*
X022053Y013128D03*
X021699Y013108D03*
X021443Y013620D03*
X022034Y013797D03*
X021955Y014801D03*
X019947Y014368D03*
X018943Y014368D03*
X022368Y016474D03*
X023057Y016454D03*
X025931Y015573D03*
X026049Y015037D03*
X026797Y014722D03*
X029120Y016061D03*
X027664Y016376D03*
X024435Y012084D03*
X018392Y012065D03*
X018018Y012065D03*
X017664Y012124D03*
X017290Y012084D03*
X012860Y010234D03*
X011601Y005962D03*
X011837Y005687D03*
X010892Y006051D03*
X007979Y003738D03*
X004957Y002990D03*
X019967Y006002D03*
X020311Y005884D03*
X026433Y006533D03*
X030971Y004368D03*
X032427Y005077D03*
X008609Y015903D03*
X009386Y017931D03*
D35*
X014593Y013029D02*
X014873Y013309D01*
X015110Y013309D01*
X014593Y013029D02*
X014593Y012606D01*
X022270Y012901D02*
X022432Y013156D01*
X019967Y007941D02*
X019967Y007281D01*
D36*
X011758Y005116D02*
X011758Y004319D01*
X011689Y004250D01*
X011758Y005116D02*
X011246Y005628D01*
X011246Y006691D01*
X010742Y007195D01*
X022432Y013156D02*
X022581Y013305D01*
X022673Y013305D01*
D37*
X029120Y016061D02*
X029120Y017344D01*
X029282Y017506D01*
X029766Y017990D02*
X030282Y018506D01*
X031963Y018187D02*
X032282Y018506D01*
X032282Y017506D02*
X031624Y016848D01*
X030282Y016789D02*
X030282Y017506D01*
X028282Y017899D02*
X028282Y018506D01*
X027282Y018506D02*
X025979Y017203D01*
X025372Y017596D02*
X026282Y018506D01*
X025282Y018506D02*
X024490Y017714D01*
X024282Y018506D02*
X023648Y017872D01*
X023282Y018506D02*
X022845Y018069D01*
X022282Y018506D02*
X021530Y017754D01*
X021282Y018506D02*
X020490Y017714D01*
X020282Y018506D02*
X019609Y017832D01*
X019282Y018506D02*
X018766Y017990D01*
X018282Y018506D02*
X017923Y018147D01*
X016282Y018506D02*
X016171Y018506D01*
X015774Y018108D01*
X015282Y018506D02*
X014908Y018132D01*
X014282Y018506D02*
X013648Y017872D01*
X013648Y017616D01*
X012282Y017884D02*
X012282Y018506D01*
X011282Y018506D02*
X011282Y017876D01*
X010282Y018506D02*
X009855Y018079D01*
X008282Y017844D02*
X008282Y018506D01*
X007282Y018506D02*
X007282Y017860D01*
X006282Y016544D02*
X006282Y016494D01*
X006207Y016494D01*
X006034Y016494D01*
X006034Y016471D01*
X003682Y014384D02*
X003182Y014384D01*
X003182Y012321D02*
X005224Y012321D01*
X005247Y012298D01*
X005444Y012298D02*
X005459Y012281D01*
X005498Y012321D01*
X005663Y012321D01*
X005695Y012321D01*
X005663Y012321D02*
X005640Y012298D01*
X005624Y012281D01*
X005813Y012281D01*
X005837Y012298D01*
X005860Y012321D01*
X006049Y012321D01*
X006034Y012298D01*
X005624Y012281D02*
X005538Y012281D01*
X003182Y012321D02*
X003175Y012321D01*
X007900Y011691D02*
X007900Y010903D01*
X007900Y006218D01*
X005734Y004722D02*
X004986Y003974D01*
X004553Y003974D01*
X003282Y002703D01*
X003282Y002506D01*
X009840Y002947D02*
X010282Y002506D01*
X017282Y002506D02*
X017609Y002832D01*
X019282Y002506D02*
X019609Y002832D01*
X021282Y003033D02*
X021282Y002506D01*
X022282Y002506D02*
X022282Y003136D01*
X023282Y003080D02*
X023282Y002506D01*
X024282Y002506D02*
X024282Y002986D01*
X025282Y002506D02*
X025282Y003561D01*
X026282Y003073D02*
X026282Y002506D01*
X026888Y003057D02*
X027282Y002663D01*
X027282Y002506D01*
X027939Y002990D02*
X028282Y002647D01*
X028282Y002506D01*
X028372Y003305D02*
X029171Y002506D01*
X029282Y002506D01*
X029797Y002990D02*
X030282Y002506D01*
X030282Y003506D02*
X031282Y002506D01*
X030026Y004525D02*
X030026Y005628D01*
X031325Y005628D01*
X032328Y006631D01*
X032328Y006936D01*
X029769Y006936D02*
X029769Y007242D01*
X028687Y007242D01*
X028687Y009041D01*
X028597Y009132D01*
X028187Y009722D02*
X027597Y009132D01*
X028187Y009722D02*
X029345Y009722D01*
X030408Y008659D01*
X031040Y008659D01*
X031068Y008688D01*
X028687Y007242D02*
X028687Y006309D01*
X028597Y006218D01*
X028187Y005628D02*
X030026Y005628D01*
X028187Y005628D02*
X027597Y006218D01*
X031496Y012189D02*
X032153Y012189D01*
X032153Y012681D02*
X031477Y012681D01*
X031488Y013665D02*
X032153Y013665D01*
X032153Y014157D02*
X031486Y014157D01*
X031488Y014649D02*
X032153Y014649D01*
X032153Y015141D02*
X031488Y015141D01*
X031488Y015634D02*
X032153Y015634D01*
X009278Y012557D02*
X008766Y012557D01*
X007900Y011691D01*
D38*
X024514Y007242D02*
X024593Y007163D01*
X025971Y007163D01*
X025971Y008817D01*
X026128Y008974D01*
X025971Y007163D02*
X025971Y006533D01*
X026433Y006533D01*
D39*
X024760Y007517D02*
X025734Y008492D01*
X025734Y008974D01*
X026010Y009250D01*
X026561Y009250D01*
X027191Y009880D01*
X027526Y009880D01*
X027624Y009604D02*
X027162Y009604D01*
X026335Y008777D01*
X026335Y008204D01*
X026679Y008098D02*
X026335Y007754D01*
X026679Y008098D02*
X026679Y008758D01*
X026049Y009525D02*
X025459Y008935D01*
X025459Y008817D01*
X024829Y008782D02*
X024829Y008453D01*
X023530Y007153D01*
X023530Y006415D01*
X023215Y006100D01*
X020734Y006100D01*
X020380Y006454D01*
X019435Y006454D01*
X018431Y007458D01*
X018431Y007478D01*
X014435Y007478D01*
X014317Y007596D01*
X014317Y009092D01*
X014042Y009368D01*
X013490Y009368D01*
X013372Y009486D01*
X013372Y009530D01*
X014195Y009530D01*
X014593Y009132D01*
X014593Y007941D01*
X014849Y007941D02*
X014849Y008325D01*
X017231Y010706D01*
X018638Y010706D01*
X018835Y010510D01*
X019081Y010766D02*
X018983Y010864D01*
X016719Y010864D01*
X016246Y011336D01*
X015774Y011336D01*
X014849Y012262D01*
X014849Y012606D01*
X015105Y012606D02*
X015105Y012242D01*
X015853Y011494D01*
X016325Y011494D01*
X016797Y011021D01*
X019317Y011021D01*
X019416Y010923D01*
X020065Y011130D02*
X020065Y011179D01*
X019849Y011395D01*
X019494Y011395D01*
X019435Y011336D01*
X016955Y011336D01*
X016483Y011809D01*
X016010Y011809D01*
X015616Y012203D01*
X015616Y012606D01*
X015360Y012606D02*
X015360Y012222D01*
X015931Y011651D01*
X016404Y011651D01*
X016876Y011179D01*
X019671Y011179D01*
X019711Y011140D01*
X019357Y011494D02*
X019416Y011553D01*
X020144Y011553D01*
X020282Y011415D01*
X020439Y011710D02*
X020626Y011523D01*
X020439Y011710D02*
X019337Y011710D01*
X019278Y011651D01*
X017112Y011651D01*
X016640Y012124D01*
X016246Y012124D01*
X016128Y012242D01*
X016128Y012606D01*
X015872Y012606D02*
X015872Y012183D01*
X016089Y011966D01*
X016561Y011966D01*
X017034Y011494D01*
X019357Y011494D01*
X020006Y011868D02*
X020675Y011868D01*
X020892Y011651D01*
X020892Y011376D01*
X020616Y011100D01*
X020616Y010746D01*
X020931Y010943D02*
X020931Y011199D01*
X021049Y011317D01*
X021049Y011730D01*
X020754Y012025D01*
X020439Y012025D01*
X020223Y012242D01*
X020223Y012606D01*
X020479Y012606D02*
X020479Y012262D01*
X020557Y012183D01*
X020833Y012183D01*
X021246Y011769D01*
X021246Y011140D01*
X022103Y011386D02*
X021246Y012242D01*
X021246Y012606D01*
X020990Y012606D02*
X020990Y012262D01*
X022250Y011002D01*
X022467Y011002D01*
X022378Y011386D02*
X022103Y011386D01*
X022073Y011769D02*
X021758Y012084D01*
X021758Y012606D01*
X022014Y012606D02*
X022014Y012222D01*
X022152Y012084D01*
X022388Y012084D01*
X022427Y012045D01*
X022447Y011769D02*
X022073Y011769D01*
X022447Y011769D02*
X022723Y011494D01*
X023057Y011218D02*
X023057Y012557D01*
X023136Y012636D01*
X023333Y012321D02*
X023215Y012203D01*
X023215Y011140D01*
X022309Y010234D01*
X020105Y010234D01*
X019396Y009525D01*
X018372Y009525D01*
X017152Y008305D01*
X017152Y007941D01*
X017408Y007941D02*
X017408Y008325D01*
X018451Y009368D01*
X019475Y009368D01*
X020183Y010077D01*
X022388Y010077D01*
X023372Y011061D01*
X023372Y011651D01*
X023471Y011750D01*
X023471Y011966D01*
X022782Y012055D02*
X022782Y011848D01*
X022782Y012055D02*
X022526Y012311D01*
X022526Y012606D01*
X021502Y012852D02*
X021443Y012911D01*
X021443Y013226D01*
X021719Y013502D01*
X021719Y014018D01*
X021601Y014136D01*
X022112Y013462D02*
X022309Y013659D01*
X022309Y014840D01*
X021916Y015234D01*
X018372Y015234D01*
X018215Y015077D01*
X018215Y013738D01*
X017920Y013443D01*
X017920Y012606D01*
X017664Y012606D02*
X017664Y013817D01*
X017880Y014033D01*
X017896Y014033D01*
X017408Y013836D02*
X017211Y014033D01*
X017196Y014033D01*
X017408Y013836D02*
X017408Y012606D01*
X017408Y012203D01*
X017290Y012084D01*
X017034Y011966D02*
X017034Y012212D01*
X017152Y012330D01*
X017152Y012606D01*
X017664Y012606D02*
X017664Y012124D01*
X017762Y011809D02*
X017191Y011809D01*
X017034Y011966D01*
X017762Y011809D02*
X018018Y012065D01*
X018392Y012065D02*
X018786Y012065D01*
X018943Y012222D01*
X018943Y012606D01*
X019711Y012606D02*
X019711Y012163D01*
X020006Y011868D01*
X018431Y012606D02*
X018431Y013246D01*
X019219Y014033D01*
X019219Y014836D01*
X017782Y015391D02*
X021984Y015391D01*
X022467Y014909D01*
X022467Y013541D01*
X022053Y013128D01*
X021994Y013462D02*
X021699Y013167D01*
X021699Y013108D01*
X021994Y013462D02*
X022112Y013462D01*
X022624Y013876D02*
X022821Y013679D01*
X022624Y013876D02*
X022624Y014978D01*
X022053Y015549D01*
X017683Y015549D01*
X016384Y014250D01*
X016384Y012606D01*
X016640Y012606D02*
X016640Y014250D01*
X017782Y015391D01*
X017605Y015706D02*
X021266Y015706D01*
X021404Y015844D01*
X021955Y015874D02*
X021955Y016730D01*
X022585Y017360D01*
X025136Y017360D01*
X025372Y017596D01*
X025979Y017203D02*
X022664Y017203D01*
X022112Y016651D01*
X022112Y015943D01*
X022939Y015116D01*
X022939Y014525D01*
X023136Y014329D01*
X023136Y013738D01*
X023175Y013699D01*
X022880Y014220D02*
X022782Y014319D01*
X022782Y015047D01*
X021955Y015874D01*
X022467Y015962D02*
X022624Y016120D01*
X022624Y016671D01*
X022841Y016888D01*
X024593Y016888D01*
X025538Y015943D01*
X029002Y015943D01*
X029120Y016061D01*
X028687Y016888D02*
X027900Y016100D01*
X025656Y016100D01*
X024711Y017045D01*
X022742Y017045D01*
X022368Y016671D01*
X022368Y016474D01*
X022782Y016573D02*
X022939Y016730D01*
X024199Y016730D01*
X025616Y015313D01*
X029278Y015313D01*
X030774Y016809D01*
X030774Y017832D01*
X030931Y017990D01*
X031766Y017990D01*
X031963Y018187D01*
X029766Y017990D02*
X029002Y017990D01*
X028687Y017675D01*
X028687Y016888D01*
X028282Y016994D02*
X028282Y017899D01*
X028282Y016994D02*
X027664Y016376D01*
X026797Y014762D02*
X024868Y014762D01*
X024475Y015155D01*
X024160Y015096D02*
X024455Y014801D01*
X024455Y014250D01*
X026758Y014250D01*
X030597Y014250D01*
X031488Y015141D01*
X031488Y015634D02*
X030268Y015634D01*
X029396Y014762D01*
X026797Y014762D01*
X026797Y014722D01*
X027073Y014092D02*
X026837Y013856D01*
X024986Y013856D01*
X024455Y013929D02*
X024455Y014250D01*
X023845Y014348D02*
X023845Y013699D01*
X026049Y011494D01*
X026797Y011494D01*
X027506Y012203D01*
X031483Y012203D01*
X031496Y012189D01*
X031156Y012360D02*
X031477Y012681D01*
X031156Y012360D02*
X027427Y012360D01*
X026994Y011927D01*
X026797Y011927D01*
X025853Y011927D01*
X024002Y013777D01*
X024002Y014565D01*
X023923Y014643D01*
X023648Y014545D02*
X023648Y014860D01*
X023727Y014939D01*
X023884Y015155D02*
X024199Y014840D01*
X024199Y013817D01*
X025144Y012872D01*
X026797Y012872D01*
X026916Y012872D01*
X027821Y013777D01*
X031376Y013777D01*
X031488Y013665D01*
X031264Y013935D02*
X031486Y014157D01*
X031264Y013935D02*
X027585Y013935D01*
X027191Y013541D01*
X027073Y014092D02*
X030931Y014092D01*
X031488Y014649D01*
X024490Y017714D02*
X024294Y017517D01*
X022467Y017517D01*
X021325Y016376D01*
X017073Y016376D01*
X014357Y013659D01*
X014357Y012242D01*
X014475Y012124D01*
X014750Y012124D01*
X015695Y011179D01*
X016040Y011179D01*
X016305Y010913D01*
X016207Y010569D02*
X016069Y010569D01*
X014671Y011966D01*
X014396Y011966D01*
X014199Y012163D01*
X014199Y013738D01*
X016994Y016533D01*
X021246Y016533D01*
X022388Y017675D01*
X023451Y017675D01*
X023648Y017872D01*
X022845Y018069D02*
X022609Y017832D01*
X022294Y017832D01*
X021152Y016691D01*
X016916Y016691D01*
X014042Y013817D01*
X014042Y012084D01*
X014317Y011809D01*
X014593Y011809D01*
X016109Y010293D01*
X016443Y010293D01*
X016542Y010391D01*
X017270Y010510D02*
X018412Y010510D01*
X018471Y010451D01*
X018156Y010352D02*
X018412Y010096D01*
X018156Y010352D02*
X017349Y010352D01*
X015360Y008364D01*
X015360Y007941D01*
X015105Y007941D02*
X015105Y008344D01*
X017270Y010510D01*
X017939Y009998D02*
X018038Y010096D01*
X017939Y009998D02*
X017231Y009998D01*
X015616Y008384D01*
X015616Y007941D01*
X015872Y007941D02*
X015872Y008403D01*
X017309Y009840D01*
X019219Y009840D01*
X020124Y010746D01*
X020026Y010391D02*
X022231Y010391D01*
X023057Y011218D01*
X023416Y010514D02*
X023845Y010514D01*
X023416Y010514D02*
X023097Y010195D01*
X023097Y008777D01*
X022782Y008462D01*
X022782Y007941D01*
X022526Y007941D02*
X022526Y008679D01*
X022742Y008895D01*
X022624Y009171D02*
X022014Y008561D01*
X022014Y007941D01*
X021758Y007941D02*
X021758Y008679D01*
X022329Y009250D01*
X022624Y009171D02*
X022624Y009447D01*
X023530Y008630D02*
X023530Y008157D01*
X022910Y007537D01*
X022329Y007537D01*
X022270Y007596D01*
X022270Y007941D01*
X021246Y007941D02*
X021246Y008738D01*
X021207Y008777D01*
X021207Y009210D01*
X020892Y009407D02*
X020892Y008777D01*
X020990Y008679D01*
X020990Y007941D01*
X020479Y007941D02*
X020479Y008403D01*
X020597Y008521D01*
X020597Y009191D01*
X020301Y009417D02*
X020301Y008502D01*
X020223Y008423D01*
X020223Y007941D01*
X019711Y007941D02*
X019711Y008344D01*
X019986Y008620D01*
X019986Y009210D01*
X020105Y009762D02*
X019160Y008817D01*
X018412Y008817D01*
X017939Y008344D01*
X017939Y007960D01*
X017920Y007941D01*
X017664Y007941D02*
X017664Y008344D01*
X018412Y009092D01*
X018805Y009092D01*
X019396Y008777D02*
X019612Y008777D01*
X019396Y008777D02*
X018943Y008325D01*
X018943Y007941D01*
X018431Y007941D02*
X018431Y007478D01*
X018333Y007321D02*
X019357Y006297D01*
X020301Y006297D01*
X020656Y005943D01*
X024160Y005943D01*
X024278Y006061D01*
X024435Y005785D02*
X024553Y005903D01*
X024553Y006258D01*
X024238Y006573D01*
X024238Y007537D01*
X024731Y008029D01*
X024780Y008029D01*
X023845Y008624D02*
X023845Y008630D01*
X026049Y009525D02*
X026404Y009525D01*
X027624Y009604D02*
X028215Y010195D01*
X028609Y010195D01*
X022723Y006878D02*
X021221Y006878D01*
X020818Y007281D01*
X020380Y006691D02*
X019671Y006691D01*
X020380Y006691D02*
X020813Y006258D01*
X023018Y006258D01*
X023116Y006356D01*
X024435Y005785D02*
X020410Y005785D01*
X020311Y005884D01*
X019967Y006002D02*
X019416Y006002D01*
X018451Y006966D01*
X017423Y006966D01*
X016723Y006966D02*
X016566Y007124D01*
X015420Y007124D01*
X015292Y006996D01*
X014219Y006996D01*
X014002Y007212D01*
X014002Y008403D01*
X013451Y008954D01*
X013923Y009112D02*
X014160Y008876D01*
X014160Y007439D01*
X014278Y007321D01*
X018333Y007321D01*
X016896Y007941D02*
X016896Y008285D01*
X018294Y009683D01*
X019317Y009683D01*
X020026Y010391D01*
X020105Y009762D02*
X021207Y009762D01*
X017427Y009250D02*
X017427Y009053D01*
X017152Y008777D01*
X016876Y008777D01*
X016384Y008285D01*
X016384Y007941D01*
X016128Y007941D02*
X016128Y008344D01*
X016916Y009132D01*
X017093Y009132D01*
X016128Y010037D02*
X014514Y011651D01*
X014238Y011651D01*
X013884Y012006D01*
X013884Y013895D01*
X016837Y016848D01*
X020624Y016848D01*
X021530Y017754D01*
X020490Y017714D02*
X020254Y017478D01*
X016640Y017478D01*
X016168Y017006D01*
X015262Y017006D01*
X015144Y016888D01*
X015144Y015391D01*
X013727Y013974D01*
X013727Y011927D01*
X014160Y011494D01*
X014435Y011494D01*
X015134Y010795D01*
X015134Y009840D01*
X014868Y009683D02*
X014750Y009565D01*
X014475Y009565D01*
X014317Y009722D01*
X013565Y009722D01*
X013372Y009530D01*
X013786Y010628D02*
X014593Y009821D01*
X014868Y009683D02*
X014868Y010037D01*
X014947Y010116D01*
X014947Y010618D01*
X014425Y011140D01*
X014160Y011258D02*
X013569Y011848D01*
X013569Y014053D01*
X014986Y015470D01*
X014986Y016966D01*
X015183Y017163D01*
X016089Y017163D01*
X016561Y017636D01*
X019412Y017636D01*
X019609Y017832D01*
X018766Y017990D02*
X018569Y017793D01*
X016483Y017793D01*
X016010Y017321D01*
X015105Y017321D01*
X014829Y017045D01*
X014829Y016061D01*
X013254Y014486D01*
X013254Y011691D01*
X013648Y011297D01*
X013648Y010893D01*
X013530Y010628D02*
X013372Y010785D01*
X013372Y011336D01*
X013097Y011612D01*
X013097Y014565D01*
X014671Y016140D01*
X014671Y017124D01*
X015026Y017478D01*
X015931Y017478D01*
X016404Y017951D01*
X017727Y017951D01*
X017923Y018147D01*
X015774Y018108D02*
X015301Y017636D01*
X014908Y017636D01*
X013687Y016415D01*
X013687Y016080D01*
X012309Y014703D01*
X012309Y008659D01*
X013008Y007960D01*
X013008Y007813D01*
X013008Y007468D01*
X012742Y007203D01*
X012742Y004880D01*
X013451Y004171D01*
X016059Y004171D01*
X016522Y004634D01*
X016522Y005549D01*
X017231Y006258D01*
X018490Y006258D01*
X019435Y005313D01*
X024514Y005313D01*
X024868Y004958D01*
X025813Y004958D01*
X026601Y004171D01*
X030538Y004171D01*
X030734Y004368D01*
X030971Y004368D01*
X031246Y004014D02*
X026522Y004014D01*
X025734Y004801D01*
X024790Y004801D01*
X024435Y005155D01*
X019357Y005155D01*
X018412Y006100D01*
X017309Y006100D01*
X016679Y005470D01*
X016679Y004575D01*
X016118Y004014D01*
X013372Y004014D01*
X012585Y004801D01*
X012585Y007321D01*
X012742Y007478D01*
X012742Y007577D01*
X012152Y008167D01*
X012152Y015120D01*
X012427Y015396D01*
X012581Y015549D01*
X012742Y015549D01*
X013530Y016336D01*
X013530Y016494D01*
X014790Y017754D01*
X014790Y018014D01*
X014908Y018132D01*
X012282Y017884D02*
X011994Y017596D01*
X011994Y008069D01*
X012427Y007636D01*
X012427Y004722D01*
X013294Y003856D01*
X016217Y003856D01*
X016502Y004141D01*
X016610Y004141D01*
X016837Y004279D02*
X016837Y004850D01*
X017309Y005323D01*
X017309Y005470D01*
X017624Y005785D01*
X018057Y005785D01*
X018195Y005647D01*
X019002Y004840D01*
X024278Y004840D01*
X024632Y004486D01*
X025577Y004486D01*
X026364Y003699D01*
X027979Y003699D01*
X028372Y003305D01*
X027939Y002990D02*
X027388Y003541D01*
X026286Y003541D01*
X025498Y004329D01*
X024553Y004329D01*
X024199Y004683D01*
X018943Y004683D01*
X018234Y005391D01*
X017998Y005391D01*
X017860Y005529D01*
X017565Y005332D02*
X017664Y005234D01*
X018166Y005234D01*
X018874Y004525D01*
X024120Y004525D01*
X024475Y004171D01*
X025420Y004171D01*
X026207Y003384D01*
X026561Y003384D01*
X026888Y003057D01*
X026282Y003073D02*
X025341Y004014D01*
X024160Y004014D01*
X023923Y004250D01*
X023805Y004368D01*
X018815Y004368D01*
X018107Y005077D01*
X017427Y005077D01*
X017329Y004978D01*
X017359Y004624D02*
X017536Y004447D01*
X018294Y004447D01*
X018687Y004053D01*
X023215Y004053D01*
X024282Y002986D01*
X024986Y003856D02*
X025282Y003561D01*
X024986Y003856D02*
X023805Y003856D01*
X023569Y004092D01*
X023451Y004210D01*
X018746Y004210D01*
X018136Y004821D01*
X017654Y004821D01*
X017191Y004289D02*
X018215Y004289D01*
X018609Y003895D01*
X022467Y003895D01*
X023282Y003080D01*
X022282Y003136D02*
X021679Y003738D01*
X017860Y003738D01*
X017644Y003954D01*
X017467Y004132D01*
X017162Y004132D01*
X017034Y004004D01*
X017034Y003699D01*
X016719Y003384D01*
X012112Y003384D01*
X011374Y004122D01*
X011374Y005185D01*
X011168Y005391D01*
X010892Y005391D01*
X009238Y003738D01*
X007979Y003738D01*
X011837Y005687D02*
X011916Y005766D01*
X011916Y007439D01*
X011522Y007832D01*
X011522Y013384D01*
X009278Y015628D01*
X008490Y015628D01*
X008282Y015836D01*
X008282Y017844D01*
X007282Y017860D02*
X007282Y016600D01*
X008412Y015470D01*
X009199Y015470D01*
X011364Y013305D01*
X011364Y007754D01*
X011601Y007517D01*
X011601Y005962D01*
X013097Y006927D02*
X013097Y007281D01*
X013294Y007478D01*
X013294Y007990D01*
X012467Y008817D01*
X012467Y014634D01*
X014002Y016169D01*
X014002Y016336D01*
X014317Y015175D02*
X013412Y014269D01*
X013412Y011769D01*
X014002Y011179D01*
X014002Y010860D01*
X014313Y010549D01*
X014357Y010825D02*
X014160Y011021D01*
X014160Y011258D01*
X014357Y010825D02*
X014475Y010825D01*
X014632Y010667D01*
X014632Y010352D01*
X013786Y010628D02*
X013530Y010628D01*
X011837Y007990D02*
X011837Y017321D01*
X011282Y017876D01*
X009238Y015903D02*
X008609Y015903D01*
X009238Y015903D02*
X011679Y013462D01*
X011679Y007911D01*
X012112Y007478D01*
X012112Y004565D01*
X013136Y003541D01*
X016640Y003541D01*
X016876Y003777D01*
X016876Y004240D01*
X016837Y004279D01*
X017093Y004388D02*
X017191Y004289D01*
X017290Y003876D02*
X017585Y003580D01*
X020971Y003580D01*
X021069Y003482D01*
X020577Y002990D02*
X019766Y002990D01*
X019609Y002832D01*
X018766Y002872D02*
X018648Y002990D01*
X017766Y002990D01*
X017609Y002832D01*
X016522Y003797D02*
X016423Y003699D01*
X013215Y003699D01*
X012270Y004643D01*
X012270Y007557D01*
X011837Y007990D01*
X013097Y006927D02*
X013294Y006730D01*
X015498Y006730D01*
X015616Y006848D01*
X014686Y006088D02*
X014600Y006002D01*
X014246Y006002D01*
X014061Y006002D01*
X013975Y006088D01*
X013712Y006088D01*
X013712Y005738D02*
X014020Y005738D01*
X014101Y005657D01*
X014337Y005657D01*
X014418Y005738D01*
X014686Y005738D01*
X014686Y005438D02*
X014384Y005438D01*
X014307Y005362D01*
X014032Y005362D01*
X013955Y005438D01*
X013712Y005438D01*
X013712Y005088D02*
X013723Y005077D01*
X014091Y005077D01*
X014675Y005077D01*
X014686Y005088D01*
X017053Y005441D02*
X017053Y005569D01*
X017427Y005943D01*
X018294Y005943D01*
X019238Y004998D01*
X024357Y004998D01*
X024711Y004643D01*
X025656Y004643D01*
X026443Y003856D01*
X028254Y003856D01*
X029120Y002990D01*
X029797Y002990D01*
X031246Y004014D02*
X031660Y004427D01*
X031660Y004525D01*
X032270Y005077D02*
X032034Y005313D01*
X032034Y005391D01*
X032270Y005077D02*
X032427Y005077D01*
X020774Y002793D02*
X020577Y002990D01*
X015105Y013856D02*
X015341Y014092D01*
X015990Y014092D01*
X017605Y015706D01*
X017162Y016090D02*
X015912Y014840D01*
X022782Y015844D02*
X022782Y016573D01*
X022782Y015844D02*
X022821Y015805D01*
X023727Y015766D02*
X023884Y015608D01*
X023884Y015155D01*
X024160Y015096D02*
X024160Y015431D01*
X023648Y014545D02*
X023845Y014348D01*
D40*
X020734Y007941D02*
X020734Y007478D01*
X020818Y007395D01*
X019282Y007395D02*
X019199Y007478D01*
X019199Y007941D01*
D41*
X015899Y006494D02*
X015584Y006179D01*
X015377Y006179D01*
X015286Y006088D01*
X015286Y005738D02*
X015727Y005738D01*
X015899Y005911D01*
X015899Y005943D01*
X015845Y005438D02*
X015286Y005438D01*
X015286Y005088D02*
X015298Y005077D01*
X015663Y005077D01*
X015899Y004840D01*
X015899Y005384D02*
X015899Y005391D01*
X015899Y005384D02*
X015845Y005438D01*
X021069Y003482D02*
X021282Y003269D01*
X021282Y003033D01*
D42*
X010892Y005628D02*
X010892Y006051D01*
X010892Y005628D02*
X010380Y005116D01*
X007270Y005116D01*
X025238Y009226D02*
X025269Y009257D01*
X025238Y009257D01*
X025238Y009226D01*
D43*
X020734Y003305D02*
X017034Y003305D01*
X016837Y003108D01*
X011876Y003108D01*
X011049Y003935D01*
X011049Y005077D01*
X020734Y003305D02*
X020813Y003226D01*
M02*
