G75*
G70*
%OFA0B0*%
%FSLAX24Y24*%
%IPPOS*%
%LPD*%
%AMOC8*
5,1,8,0,0,1.08239X$1,22.5*
%
%ADD10R,0.0400X0.0400*%
%ADD11R,0.0157X0.0551*%
%ADD12R,0.0400X0.0300*%
%ADD13R,0.0400X0.0200*%
%ADD14R,0.0394X0.0551*%
D10*
X013372Y009530D03*
X013372Y010230D03*
X009947Y011853D03*
X009947Y012553D03*
X012427Y015396D03*
X012427Y016096D03*
X017196Y014033D03*
X017896Y014033D03*
X018569Y014136D03*
X019553Y014136D03*
X020380Y014136D03*
X020990Y014136D03*
X021601Y014136D03*
X021601Y014836D03*
X020990Y014836D03*
X020380Y014836D03*
X019553Y014836D03*
X018569Y014836D03*
X019282Y013344D03*
X019982Y013344D03*
X023845Y011214D03*
X023845Y010514D03*
X024829Y009482D03*
X023845Y009324D03*
X023845Y008624D03*
X024829Y008782D03*
X021518Y007281D03*
X020818Y007281D03*
X019982Y007281D03*
X019282Y007281D03*
D11*
X019199Y007941D03*
X018943Y007941D03*
X018687Y007941D03*
X018431Y007941D03*
X018175Y007941D03*
X017920Y007941D03*
X017664Y007941D03*
X017408Y007941D03*
X017152Y007941D03*
X016896Y007941D03*
X016640Y007941D03*
X016384Y007941D03*
X016128Y007941D03*
X015872Y007941D03*
X015616Y007941D03*
X015360Y007941D03*
X015105Y007941D03*
X014849Y007941D03*
X014593Y007941D03*
X019455Y007941D03*
X019711Y007941D03*
X019967Y007941D03*
X020223Y007941D03*
X020479Y007941D03*
X020734Y007941D03*
X020990Y007941D03*
X021246Y007941D03*
X021502Y007941D03*
X021758Y007941D03*
X022014Y007941D03*
X022270Y007941D03*
X022526Y007941D03*
X022782Y007941D03*
X022782Y012606D03*
X022526Y012606D03*
X022270Y012606D03*
X022014Y012606D03*
X021758Y012606D03*
X021502Y012606D03*
X021246Y012606D03*
X020990Y012606D03*
X020734Y012606D03*
X020479Y012606D03*
X020223Y012606D03*
X019967Y012606D03*
X019711Y012606D03*
X019455Y012606D03*
X019199Y012606D03*
X018943Y012606D03*
X018687Y012606D03*
X018431Y012606D03*
X018175Y012606D03*
X017920Y012606D03*
X017664Y012606D03*
X017408Y012606D03*
X017152Y012606D03*
X016896Y012606D03*
X016640Y012606D03*
X016384Y012606D03*
X016128Y012606D03*
X015872Y012606D03*
X015616Y012606D03*
X015360Y012606D03*
X015105Y012606D03*
X014849Y012606D03*
X014593Y012606D03*
D12*
X014686Y006088D03*
X015286Y006088D03*
X013712Y006088D03*
X013112Y006088D03*
X013112Y005088D03*
X013712Y005088D03*
X014686Y005088D03*
X015286Y005088D03*
D13*
X015286Y005438D03*
X014686Y005438D03*
X014686Y005738D03*
X015286Y005738D03*
X013712Y005738D03*
X013712Y005438D03*
X013112Y005438D03*
X013112Y005738D03*
D14*
X009140Y006769D03*
X009888Y006769D03*
X009514Y007636D03*
X009849Y008384D03*
X009101Y008384D03*
X009475Y009250D03*
X009849Y009998D03*
X009101Y009998D03*
X009475Y010864D03*
X031660Y004525D03*
X032408Y004525D03*
X032034Y005391D03*
M02*
