G75*
G70*
%OFA0B0*%
%FSLAX24Y24*%
%IPPOS*%
%LPD*%
%AMOC8*
5,1,8,0,0,1.08239X$1,22.5*
%
%ADD10C,0.0060*%
%ADD11C,0.0120*%
%ADD12C,0.0080*%
%ADD13C,0.0140*%
%ADD14C,0.0100*%
%ADD15C,0.0070*%
%ADD16C,0.0010*%
%ADD17C,0.0050*%
%ADD18C,0.0160*%
%ADD19R,0.1800X0.0300*%
%ADD20C,0.0030*%
%ADD21R,0.0150X0.1300*%
D10*
X004831Y004465D02*
X004831Y004725D01*
X004961Y004725D01*
X005004Y004682D01*
X005004Y004595D01*
X004961Y004552D01*
X004831Y004552D01*
X004918Y004552D02*
X005004Y004465D01*
X005126Y004465D02*
X005299Y004465D01*
X005212Y004465D02*
X005212Y004725D01*
X005126Y004638D01*
X005420Y004595D02*
X005594Y004595D01*
X005550Y004725D02*
X005420Y004595D01*
X005550Y004465D02*
X005550Y004725D01*
X005064Y010670D02*
X005064Y010930D01*
X004977Y010930D02*
X005151Y010930D01*
X004856Y010887D02*
X004813Y010930D01*
X004726Y010930D01*
X004683Y010887D01*
X004683Y010843D01*
X004726Y010800D01*
X004813Y010800D01*
X004856Y010757D01*
X004856Y010713D01*
X004813Y010670D01*
X004726Y010670D01*
X004683Y010713D01*
X004562Y010713D02*
X004562Y010887D01*
X004518Y010930D01*
X004431Y010930D01*
X004388Y010887D01*
X004388Y010713D01*
X004431Y010670D01*
X004518Y010670D01*
X004562Y010713D01*
X004267Y010670D02*
X004267Y010930D01*
X004267Y010800D02*
X004093Y010800D01*
X004093Y010670D02*
X004093Y010930D01*
X004122Y011136D02*
X004166Y011179D01*
X004166Y011353D01*
X004122Y011396D01*
X004035Y011396D01*
X003992Y011353D01*
X003992Y011179D01*
X004035Y011136D01*
X004122Y011136D01*
X003871Y011136D02*
X003697Y011136D01*
X003697Y011396D01*
X003871Y011396D01*
X003796Y011516D02*
X003796Y011776D01*
X003926Y011776D01*
X003969Y011733D01*
X003969Y011646D01*
X003926Y011602D01*
X003796Y011602D01*
X003674Y011516D02*
X003674Y011776D01*
X003588Y011689D01*
X003501Y011776D01*
X003501Y011516D01*
X003533Y011396D02*
X003403Y011396D01*
X003403Y011136D01*
X003533Y011136D01*
X003576Y011179D01*
X003576Y011353D01*
X003533Y011396D01*
X003697Y011266D02*
X003784Y011266D01*
X003634Y010930D02*
X003504Y010930D01*
X003504Y010670D01*
X003634Y010670D01*
X003678Y010713D01*
X003678Y010757D01*
X003634Y010800D01*
X003504Y010800D01*
X003383Y010757D02*
X003383Y010713D01*
X003340Y010670D01*
X003253Y010670D01*
X003210Y010713D01*
X003253Y010800D02*
X003210Y010843D01*
X003210Y010887D01*
X003253Y010930D01*
X003340Y010930D01*
X003383Y010887D01*
X003340Y010800D02*
X003383Y010757D01*
X003340Y010800D02*
X003253Y010800D01*
X003088Y010713D02*
X003088Y010930D01*
X002915Y010930D02*
X002915Y010713D01*
X002958Y010670D01*
X003045Y010670D01*
X003088Y010713D01*
X002998Y011136D02*
X003085Y011222D01*
X003085Y011396D01*
X003206Y011396D02*
X003293Y011396D01*
X003250Y011396D02*
X003250Y011136D01*
X003293Y011136D02*
X003206Y011136D01*
X002998Y011136D02*
X002912Y011222D01*
X002912Y011396D01*
X002955Y011516D02*
X003042Y011516D01*
X003085Y011559D01*
X003206Y011559D02*
X003250Y011516D01*
X003336Y011516D01*
X003380Y011559D01*
X003380Y011733D01*
X003336Y011776D01*
X003250Y011776D01*
X003206Y011733D01*
X003206Y011559D01*
X003085Y011733D02*
X003042Y011776D01*
X002955Y011776D01*
X002912Y011733D01*
X002912Y011559D01*
X002955Y011516D01*
X003634Y010930D02*
X003678Y010887D01*
X003678Y010843D01*
X003634Y010800D01*
X003799Y010626D02*
X003972Y010626D01*
X004134Y011516D02*
X004220Y011516D01*
X004264Y011559D01*
X004264Y011733D01*
X004220Y011776D01*
X004134Y011776D01*
X004090Y011733D01*
X004090Y011559D01*
X004134Y011516D01*
X004385Y011559D02*
X004428Y011516D01*
X004515Y011516D01*
X004558Y011559D01*
X004558Y011602D01*
X004515Y011646D01*
X004428Y011646D01*
X004385Y011689D01*
X004385Y011733D01*
X004428Y011776D01*
X004515Y011776D01*
X004558Y011733D01*
X004680Y011776D02*
X004766Y011776D01*
X004723Y011776D02*
X004723Y011516D01*
X004680Y011516D02*
X004766Y011516D01*
X004963Y011516D02*
X004963Y011776D01*
X005049Y011776D02*
X004876Y011776D01*
X005171Y011776D02*
X005171Y011516D01*
X005344Y011516D01*
X005257Y011646D02*
X005171Y011646D01*
X005171Y011776D02*
X005344Y011776D01*
X008774Y012946D02*
X008817Y012903D01*
X008990Y012903D01*
X009034Y012946D01*
X009034Y013033D01*
X008990Y013076D01*
X009034Y013197D02*
X009034Y013371D01*
X009034Y013284D02*
X008774Y013284D01*
X008860Y013197D01*
X008817Y013076D02*
X008774Y013033D01*
X008774Y012946D01*
X008817Y013492D02*
X008774Y013535D01*
X008774Y013622D01*
X008817Y013666D01*
X008990Y013492D01*
X009034Y013535D01*
X009034Y013622D01*
X008990Y013666D01*
X008817Y013666D01*
X008693Y013680D02*
X008693Y013767D01*
X008650Y013810D01*
X008693Y013680D02*
X008650Y013637D01*
X008477Y013637D01*
X008433Y013680D01*
X008433Y013767D01*
X008477Y013810D01*
X008563Y013931D02*
X008433Y014061D01*
X008693Y014061D01*
X008563Y014105D02*
X008563Y013931D01*
X008563Y014226D02*
X008433Y014226D01*
X008433Y014400D01*
X008520Y014356D02*
X008563Y014400D01*
X008650Y014400D01*
X008693Y014356D01*
X008693Y014269D01*
X008650Y014226D01*
X008563Y014226D02*
X008520Y014313D01*
X008520Y014356D01*
X008817Y013492D02*
X008990Y013492D01*
X009916Y012728D02*
X009916Y012641D01*
X009960Y012598D01*
X010003Y012598D01*
X010046Y012641D01*
X010046Y012771D01*
X009960Y012771D02*
X009916Y012728D01*
X009960Y012771D02*
X010133Y012771D01*
X010176Y012728D01*
X010176Y012641D01*
X010133Y012598D01*
X010133Y012477D02*
X010176Y012433D01*
X010176Y012346D01*
X010133Y012303D01*
X009960Y012303D01*
X009916Y012346D01*
X009916Y012433D01*
X009960Y012477D01*
X009455Y015944D02*
X009368Y015944D01*
X009325Y015988D01*
X009325Y016074D02*
X009412Y016118D01*
X009455Y016118D01*
X009499Y016074D01*
X009499Y015988D01*
X009455Y015944D01*
X009325Y016074D02*
X009325Y016205D01*
X009499Y016205D01*
X009117Y016205D02*
X009030Y016118D01*
X009117Y016205D02*
X009117Y015944D01*
X009030Y015944D02*
X009204Y015944D01*
X008909Y015944D02*
X008822Y016031D01*
X008866Y016031D02*
X008736Y016031D01*
X008736Y015944D02*
X008736Y016205D01*
X008866Y016205D01*
X008909Y016161D01*
X008909Y016074D01*
X008866Y016031D01*
X009177Y016834D02*
X009177Y016964D01*
X009221Y017007D01*
X009307Y017007D01*
X009351Y016964D01*
X009351Y016834D01*
X009351Y016920D02*
X009437Y017007D01*
X009437Y017128D02*
X009437Y017302D01*
X009437Y017215D02*
X009177Y017215D01*
X009264Y017128D01*
X009221Y017423D02*
X009177Y017466D01*
X009177Y017553D01*
X009221Y017596D01*
X009264Y017596D01*
X009307Y017553D01*
X009351Y017596D01*
X009394Y017596D01*
X009437Y017553D01*
X009437Y017466D01*
X009394Y017423D01*
X009307Y017510D02*
X009307Y017553D01*
X008908Y017864D02*
X008740Y017819D01*
X008863Y018031D01*
X008852Y018073D01*
X008799Y018104D01*
X008715Y018081D01*
X008684Y018028D01*
X008472Y018016D02*
X008540Y017765D01*
X008456Y017743D02*
X008623Y017788D01*
X008411Y017910D02*
X008472Y018016D01*
X008283Y017921D02*
X008305Y017837D01*
X008274Y017784D01*
X008149Y017750D01*
X008171Y017666D02*
X008104Y017918D01*
X008230Y017951D01*
X008283Y017921D01*
X008233Y017773D02*
X008339Y017711D01*
X008108Y017985D02*
X007940Y017940D01*
X008024Y017963D02*
X007957Y018214D01*
X007895Y018108D01*
X007823Y017909D02*
X007656Y017864D01*
X007740Y017887D02*
X007672Y018138D01*
X007611Y018032D01*
X007483Y018042D02*
X007505Y017958D01*
X007474Y017905D01*
X007349Y017872D01*
X007433Y017894D02*
X007539Y017833D01*
X007371Y017788D02*
X007304Y018039D01*
X007430Y018073D01*
X007483Y018042D01*
X006617Y017819D02*
X006617Y017732D01*
X006574Y017689D01*
X006487Y017776D02*
X006487Y017819D01*
X006530Y017862D01*
X006574Y017862D01*
X006617Y017819D01*
X006487Y017819D02*
X006443Y017862D01*
X006400Y017862D01*
X006357Y017819D01*
X006357Y017732D01*
X006400Y017689D01*
X006487Y017568D02*
X006487Y017394D01*
X006357Y017524D01*
X006617Y017524D01*
X006574Y017273D02*
X006617Y017230D01*
X006617Y017143D01*
X006574Y017100D01*
X006400Y017100D01*
X006357Y017143D01*
X006357Y017230D01*
X006400Y017273D01*
X007005Y016744D02*
X006955Y016673D01*
X006965Y016612D01*
X007001Y016587D01*
X007061Y016598D01*
X007136Y016705D01*
X007065Y016754D02*
X007005Y016744D01*
X007065Y016754D02*
X007207Y016655D01*
X007218Y016594D01*
X007168Y016523D01*
X007108Y016513D01*
X006967Y016463D02*
X006868Y016321D01*
X006836Y016502D01*
X007049Y016353D01*
X006869Y016172D02*
X006880Y016112D01*
X006830Y016041D01*
X006770Y016030D01*
X006627Y016130D01*
X006617Y016190D01*
X006667Y016261D01*
X006727Y016272D01*
X004706Y016443D02*
X004533Y016443D01*
X004619Y016443D02*
X004619Y016704D01*
X004533Y016617D01*
X004411Y016660D02*
X004411Y016574D01*
X004368Y016530D01*
X004238Y016530D01*
X004238Y016443D02*
X004238Y016704D01*
X004368Y016704D01*
X004411Y016660D01*
X004325Y016530D02*
X004411Y016443D01*
X004117Y016530D02*
X004117Y016704D01*
X003943Y016704D02*
X003943Y016530D01*
X004030Y016443D01*
X004117Y016530D01*
X009177Y016834D02*
X009437Y016834D01*
X024505Y008745D02*
X024591Y008831D01*
X024678Y008745D01*
X024678Y008571D01*
X024678Y008701D02*
X024505Y008701D01*
X024505Y008745D02*
X024505Y008571D01*
X024174Y008292D02*
X023914Y008292D01*
X023741Y008292D02*
X023481Y008292D01*
X023481Y008119D02*
X023741Y008119D01*
X023654Y008206D01*
X023741Y008292D01*
X023914Y008119D02*
X024174Y008119D01*
X024087Y008206D01*
X024174Y008292D01*
X024131Y007998D02*
X024174Y007954D01*
X024174Y007868D01*
X024131Y007824D01*
X024044Y007868D02*
X024044Y007954D01*
X024087Y007998D01*
X024131Y007998D01*
X024044Y007868D02*
X024001Y007824D01*
X023957Y007824D01*
X023914Y007868D01*
X023914Y007954D01*
X023957Y007998D01*
X023741Y007954D02*
X023741Y007868D01*
X023698Y007824D01*
X023611Y007868D02*
X023611Y007954D01*
X023654Y007998D01*
X023698Y007998D01*
X023741Y007954D01*
X023611Y007868D02*
X023568Y007824D01*
X023524Y007824D01*
X023481Y007868D01*
X023481Y007954D01*
X023524Y007998D01*
X023308Y007977D02*
X023048Y007977D01*
X023048Y007804D02*
X023308Y007804D01*
X023221Y007891D01*
X023308Y007977D01*
X023308Y007683D02*
X023048Y007683D01*
X023178Y007683D02*
X023178Y007509D01*
X023308Y007509D02*
X023048Y007509D01*
X023351Y007388D02*
X023351Y007215D01*
X023265Y007094D02*
X023308Y007050D01*
X023308Y006963D01*
X023265Y006920D01*
X023178Y006963D02*
X023134Y006920D01*
X023091Y006920D01*
X023048Y006963D01*
X023048Y007050D01*
X023091Y007094D01*
X023178Y007050D02*
X023221Y007094D01*
X023265Y007094D01*
X023178Y007050D02*
X023178Y006963D01*
X023265Y006799D02*
X023308Y006755D01*
X023308Y006669D01*
X023265Y006625D01*
X023091Y006625D01*
X023048Y006669D01*
X023048Y006755D01*
X023091Y006799D01*
X023481Y006776D02*
X023481Y006689D01*
X023524Y006646D01*
X023568Y006646D01*
X023611Y006689D01*
X023611Y006776D01*
X023654Y006819D01*
X023698Y006819D01*
X023741Y006776D01*
X023741Y006689D01*
X023698Y006646D01*
X023914Y006689D02*
X023914Y006776D01*
X023957Y006819D01*
X024044Y006776D02*
X024087Y006819D01*
X024131Y006819D01*
X024174Y006776D01*
X024174Y006689D01*
X024131Y006646D01*
X024044Y006689D02*
X024044Y006776D01*
X024044Y006689D02*
X024001Y006646D01*
X023957Y006646D01*
X023914Y006689D01*
X023914Y006524D02*
X024174Y006351D01*
X024174Y006230D02*
X023914Y006230D01*
X023741Y006230D02*
X023481Y006230D01*
X023481Y006056D02*
X023741Y006056D01*
X023654Y006143D01*
X023741Y006230D01*
X023741Y006351D02*
X023481Y006524D01*
X023481Y006776D02*
X023524Y006819D01*
X023481Y006940D02*
X023481Y007070D01*
X023524Y007114D01*
X023698Y007114D01*
X023741Y007070D01*
X023741Y006940D01*
X023481Y006940D01*
X023568Y007235D02*
X023481Y007322D01*
X023568Y007408D01*
X023741Y007408D01*
X023784Y007530D02*
X023784Y007703D01*
X023611Y007408D02*
X023611Y007235D01*
X023568Y007235D02*
X023741Y007235D01*
X023914Y007235D02*
X024174Y007235D01*
X024174Y007408D01*
X024217Y007530D02*
X024217Y007703D01*
X024131Y007114D02*
X024174Y007070D01*
X024174Y006984D01*
X024131Y006940D01*
X023957Y006940D01*
X023914Y006984D01*
X023914Y007070D01*
X023957Y007114D01*
X024347Y007012D02*
X024347Y006839D01*
X024347Y006969D02*
X024521Y006969D01*
X024521Y007012D02*
X024521Y006839D01*
X024521Y007012D02*
X024434Y007099D01*
X024347Y007012D01*
X025134Y006884D02*
X025390Y006884D01*
X025390Y006799D02*
X025390Y006970D01*
X025219Y006799D02*
X025134Y006884D01*
X025922Y006884D02*
X026177Y006884D01*
X026177Y006799D02*
X026177Y006970D01*
X026007Y006799D02*
X025922Y006884D01*
X026630Y006884D02*
X026886Y006884D01*
X026886Y006799D02*
X026886Y006970D01*
X026715Y006799D02*
X026630Y006884D01*
X028742Y007433D02*
X028804Y007371D01*
X028865Y007371D01*
X028951Y007286D02*
X028951Y007224D01*
X029012Y007163D01*
X029073Y007163D01*
X029135Y007224D01*
X029135Y007286D01*
X029104Y007316D01*
X029012Y007347D01*
X029104Y007439D01*
X029227Y007316D01*
X029251Y007169D02*
X029374Y007169D01*
X029190Y006985D01*
X029251Y006924D02*
X029128Y007047D01*
X028988Y007494D02*
X028988Y007555D01*
X028926Y007617D01*
X028865Y007617D01*
X028742Y007494D01*
X028742Y007433D01*
X026649Y008614D02*
X026607Y008571D01*
X026649Y008614D02*
X026649Y008699D01*
X026607Y008741D01*
X026564Y008741D01*
X026522Y008699D01*
X026522Y008656D01*
X026522Y008699D02*
X026479Y008741D01*
X026437Y008741D01*
X026394Y008699D01*
X026394Y008614D01*
X026437Y008571D01*
X026177Y008614D02*
X026134Y008571D01*
X026177Y008614D02*
X026177Y008699D01*
X026134Y008741D01*
X026092Y008741D01*
X026049Y008699D01*
X026049Y008656D01*
X026049Y008699D02*
X026007Y008741D01*
X025964Y008741D01*
X025922Y008699D01*
X025922Y008614D01*
X025964Y008571D01*
X025390Y008614D02*
X025390Y008699D01*
X025347Y008741D01*
X025304Y008741D01*
X025262Y008699D01*
X025262Y008656D01*
X025262Y008699D02*
X025219Y008741D01*
X025177Y008741D01*
X025134Y008699D01*
X025134Y008614D01*
X025177Y008571D01*
X025347Y008571D02*
X025390Y008614D01*
X025456Y009877D02*
X025656Y009877D01*
X025856Y009877D01*
X025876Y009879D01*
X025894Y009885D01*
X025912Y009894D01*
X025927Y009906D01*
X025939Y009921D01*
X025948Y009939D01*
X025954Y009957D01*
X025956Y009977D01*
X025956Y010177D01*
X025954Y010197D01*
X025948Y010215D01*
X025939Y010233D01*
X025927Y010248D01*
X025912Y010260D01*
X025894Y010269D01*
X025876Y010275D01*
X025856Y010277D01*
X025656Y010277D01*
X025456Y010277D01*
X025436Y010275D01*
X025418Y010269D01*
X025400Y010260D01*
X025385Y010248D01*
X025373Y010233D01*
X025364Y010215D01*
X025358Y010197D01*
X025356Y010177D01*
X025356Y009977D01*
X025358Y009957D01*
X025364Y009939D01*
X025373Y009921D01*
X025385Y009906D01*
X025400Y009894D01*
X025418Y009885D01*
X025436Y009879D01*
X025456Y009877D01*
X026812Y010075D02*
X026935Y009953D01*
X026996Y009953D01*
X027057Y010014D01*
X027057Y010075D01*
X027143Y010161D02*
X027204Y010161D01*
X027266Y010222D01*
X027266Y010284D01*
X027204Y010345D01*
X027143Y010345D01*
X027112Y010314D01*
X027082Y010222D01*
X026990Y010314D01*
X027112Y010437D01*
X027229Y010492D02*
X027229Y010553D01*
X027290Y010614D01*
X027351Y010614D01*
X027351Y010369D01*
X027413Y010369D01*
X027474Y010430D01*
X027474Y010492D01*
X027351Y010614D01*
X027229Y010492D02*
X027351Y010369D01*
X026935Y010198D02*
X026873Y010198D01*
X026812Y010136D01*
X026812Y010075D01*
X032301Y010536D02*
X032471Y010536D01*
X032414Y010649D01*
X032414Y010706D01*
X032471Y010763D01*
X032584Y010763D01*
X032641Y010706D01*
X032641Y010593D01*
X032584Y010536D01*
X032471Y010394D02*
X032471Y010168D01*
X032358Y010281D02*
X032584Y010281D01*
X032301Y010536D02*
X032301Y010763D01*
X032301Y010904D02*
X032528Y010904D01*
X032641Y011018D01*
X032528Y011131D01*
X032301Y011131D01*
X024174Y006230D02*
X024087Y006143D01*
X024174Y006056D01*
X023914Y006056D01*
X023914Y005935D02*
X024174Y005935D01*
X024044Y005935D02*
X024044Y005762D01*
X024174Y005762D02*
X023914Y005762D01*
X023741Y005762D02*
X023481Y005762D01*
X023611Y005762D02*
X023611Y005935D01*
X023481Y005935D02*
X023741Y005935D01*
X023308Y005872D02*
X023308Y005785D01*
X023265Y005741D01*
X023178Y005785D02*
X023178Y005872D01*
X023221Y005915D01*
X023265Y005915D01*
X023308Y005872D01*
X023178Y005785D02*
X023134Y005741D01*
X023091Y005741D01*
X023048Y005785D01*
X023048Y005872D01*
X023091Y005915D01*
X023048Y006036D02*
X023308Y006036D01*
X023221Y006123D01*
X023308Y006210D01*
X023048Y006210D01*
X023308Y006331D02*
X023048Y006504D01*
X023351Y005620D02*
X023351Y005447D01*
X023265Y005326D02*
X023308Y005282D01*
X023308Y005196D01*
X023265Y005152D01*
X023178Y005196D02*
X023178Y005282D01*
X023221Y005326D01*
X023265Y005326D01*
X023178Y005196D02*
X023134Y005152D01*
X023091Y005152D01*
X023048Y005196D01*
X023048Y005282D01*
X023091Y005326D01*
X023481Y005259D02*
X023568Y005172D01*
X023741Y005172D01*
X023698Y005051D02*
X023524Y005051D01*
X023481Y005008D01*
X023481Y004878D01*
X023741Y004878D01*
X023741Y005008D01*
X023698Y005051D01*
X023611Y005172D02*
X023611Y005346D01*
X023568Y005346D02*
X023741Y005346D01*
X023784Y005467D02*
X023784Y005641D01*
X023568Y005346D02*
X023481Y005259D01*
X023914Y005172D02*
X024174Y005172D01*
X024174Y005346D01*
X024217Y005467D02*
X024217Y005641D01*
X024131Y005051D02*
X024174Y005008D01*
X024174Y004921D01*
X024131Y004878D01*
X023957Y004878D01*
X023914Y004921D01*
X023914Y005008D01*
X023957Y005051D01*
X023957Y004757D02*
X023914Y004713D01*
X023914Y004626D01*
X023957Y004583D01*
X024001Y004583D01*
X024044Y004626D01*
X024044Y004713D01*
X024087Y004757D01*
X024131Y004757D01*
X024174Y004713D01*
X024174Y004626D01*
X024131Y004583D01*
X023741Y004626D02*
X023698Y004583D01*
X023741Y004626D02*
X023741Y004713D01*
X023698Y004757D01*
X023654Y004757D01*
X023611Y004713D01*
X023611Y004626D01*
X023568Y004583D01*
X023524Y004583D01*
X023481Y004626D01*
X023481Y004713D01*
X023524Y004757D01*
X023308Y004901D02*
X023308Y004988D01*
X023265Y005031D01*
X023308Y004901D02*
X023265Y004858D01*
X023091Y004858D01*
X023048Y004901D01*
X023048Y004988D01*
X023091Y005031D01*
X028366Y004827D02*
X028366Y004742D01*
X028408Y004699D01*
X028578Y004699D01*
X028621Y004742D01*
X028621Y004827D01*
X028578Y004870D01*
X028493Y004870D01*
X028493Y004785D01*
X028408Y004870D02*
X028366Y004827D01*
X028366Y004580D02*
X028578Y004580D01*
X028621Y004537D01*
X028621Y004452D01*
X028578Y004409D01*
X028366Y004409D01*
X028408Y004290D02*
X028451Y004290D01*
X028493Y004247D01*
X028493Y004119D01*
X028366Y004119D02*
X028366Y004247D01*
X028408Y004290D01*
X028493Y004247D02*
X028536Y004290D01*
X028578Y004290D01*
X028621Y004247D01*
X028621Y004119D01*
X028366Y004119D01*
X028366Y004000D02*
X028366Y003829D01*
X028621Y003829D01*
X028621Y004000D01*
X028493Y003915D02*
X028493Y003829D01*
X028408Y003710D02*
X028366Y003667D01*
X028366Y003539D01*
X028621Y003539D01*
X028621Y003667D01*
X028578Y003710D01*
X028408Y003710D01*
X028663Y003420D02*
X028663Y003249D01*
X028578Y003130D02*
X028366Y003130D01*
X028366Y002959D02*
X028578Y002959D01*
X028621Y003002D01*
X028621Y003087D01*
X028578Y003130D01*
D11*
X007329Y011278D02*
X007015Y011278D01*
X007172Y011434D02*
X007172Y011121D01*
X017554Y017513D02*
X017711Y017513D01*
X017633Y017513D02*
X017633Y017827D01*
X017554Y017827D01*
X017633Y017984D02*
X017633Y018062D01*
X017917Y017984D02*
X018074Y017827D01*
X018231Y017984D01*
X018231Y017513D01*
X018461Y017513D02*
X018774Y017984D01*
X019004Y017905D02*
X019083Y017984D01*
X019240Y017984D01*
X019318Y017905D01*
X019318Y017827D01*
X019004Y017513D01*
X019318Y017513D01*
X019548Y017591D02*
X019626Y017513D01*
X019784Y017513D01*
X019862Y017591D01*
X019862Y017670D01*
X019784Y017748D01*
X019705Y017748D01*
X019784Y017748D02*
X019862Y017827D01*
X019862Y017905D01*
X019784Y017984D01*
X019626Y017984D01*
X019548Y017905D01*
X020092Y017905D02*
X020170Y017984D01*
X020327Y017984D01*
X020406Y017905D01*
X020406Y017827D01*
X020327Y017748D01*
X020406Y017670D01*
X020406Y017591D01*
X020327Y017513D01*
X020170Y017513D01*
X020092Y017591D01*
X020249Y017748D02*
X020327Y017748D01*
X020636Y017748D02*
X020949Y017748D01*
X021179Y017591D02*
X021258Y017513D01*
X021415Y017513D01*
X021493Y017591D01*
X021493Y017905D01*
X021415Y017984D01*
X021258Y017984D01*
X021179Y017905D01*
X021179Y017591D01*
X021723Y017513D02*
X022037Y017513D01*
X022267Y017513D02*
X022424Y017513D01*
X022345Y017513D02*
X022345Y017827D01*
X022267Y017827D01*
X022345Y017984D02*
X022345Y018062D01*
X022629Y017827D02*
X022865Y017827D01*
X022943Y017748D01*
X022943Y017513D01*
X023173Y017591D02*
X023173Y017827D01*
X023173Y017591D02*
X023251Y017513D01*
X023487Y017513D01*
X023487Y017827D01*
X023717Y017984D02*
X024031Y017513D01*
X024260Y017513D02*
X024417Y017513D01*
X024339Y017513D02*
X024339Y017827D01*
X024260Y017827D01*
X024339Y017984D02*
X024339Y018062D01*
X024031Y017984D02*
X023717Y017513D01*
X022629Y017513D02*
X022629Y017827D01*
X021723Y017984D02*
X021723Y017513D01*
X018774Y017513D02*
X018461Y017984D01*
X017917Y017984D02*
X017917Y017513D01*
X024623Y017513D02*
X024623Y017827D01*
X024858Y017827D01*
X024937Y017748D01*
X024937Y017513D01*
X025167Y017591D02*
X025167Y017748D01*
X025245Y017827D01*
X025402Y017827D01*
X025481Y017748D01*
X025481Y017591D01*
X025402Y017513D01*
X025245Y017513D01*
X025167Y017591D01*
X025710Y017748D02*
X026024Y017748D01*
X026254Y017513D02*
X026254Y017984D01*
X026411Y017827D01*
X026568Y017984D01*
X026568Y017513D01*
X026798Y017513D02*
X026955Y017513D01*
X026876Y017513D02*
X026876Y017827D01*
X026798Y017827D01*
X026876Y017984D02*
X026876Y018062D01*
X027160Y017748D02*
X027160Y017591D01*
X027239Y017513D01*
X027474Y017513D01*
X027704Y017513D02*
X027704Y017827D01*
X027704Y017670D02*
X027861Y017827D01*
X027940Y017827D01*
X028157Y017748D02*
X028157Y017591D01*
X028236Y017513D01*
X028393Y017513D01*
X028471Y017591D01*
X028471Y017748D01*
X028393Y017827D01*
X028236Y017827D01*
X028157Y017748D01*
X027474Y017827D02*
X027239Y017827D01*
X027160Y017748D01*
D12*
X026218Y017346D02*
X025904Y017346D01*
X026061Y017189D01*
X026061Y017399D01*
X026218Y017036D02*
X026218Y016827D01*
X025904Y016827D01*
X024561Y015764D02*
X024247Y015764D01*
X024404Y015607D01*
X024404Y015816D01*
X023778Y016004D02*
X023778Y016108D01*
X023725Y016161D01*
X023778Y016314D02*
X023569Y016523D01*
X023516Y016523D01*
X023464Y016471D01*
X023464Y016366D01*
X023516Y016314D01*
X023516Y016161D02*
X023464Y016108D01*
X023464Y016004D01*
X023516Y015951D01*
X023725Y015951D01*
X023778Y016004D01*
X023778Y016314D02*
X023778Y016523D01*
X023725Y016676D02*
X023778Y016729D01*
X023778Y016833D01*
X023725Y016886D01*
X023516Y016886D01*
X023464Y016833D01*
X023464Y016729D01*
X023516Y016676D01*
X023569Y016676D01*
X023621Y016729D01*
X023621Y016886D01*
X024247Y015402D02*
X024404Y015245D01*
X024404Y015454D01*
X024561Y015402D02*
X024247Y015402D01*
X024299Y015091D02*
X024247Y015039D01*
X024247Y014934D01*
X024299Y014882D01*
X024508Y014882D01*
X024561Y014934D01*
X024561Y015039D01*
X024508Y015091D01*
X024494Y014573D02*
X024494Y014259D01*
X024389Y014259D02*
X024599Y014259D01*
X024598Y014002D02*
X024755Y014002D01*
X024807Y013949D01*
X024807Y013845D01*
X024755Y013792D01*
X024598Y013792D01*
X024598Y013688D02*
X024598Y014002D01*
X024702Y013792D02*
X024807Y013688D01*
X024960Y013688D02*
X025169Y013897D01*
X025169Y013949D01*
X025117Y014002D01*
X025013Y014002D01*
X024960Y013949D01*
X024960Y013688D02*
X025169Y013688D01*
X025323Y013688D02*
X025532Y013688D01*
X025427Y013688D02*
X025427Y014002D01*
X025323Y013897D01*
X024494Y014573D02*
X024389Y014469D01*
X024236Y014573D02*
X024236Y014259D01*
X024027Y014259D02*
X024027Y014573D01*
X024132Y014469D01*
X024236Y014573D01*
X023874Y014521D02*
X023874Y014416D01*
X023821Y014364D01*
X023665Y014364D01*
X023769Y014364D02*
X023874Y014259D01*
X023665Y014259D02*
X023665Y014573D01*
X023821Y014573D01*
X023874Y014521D01*
X023643Y012063D02*
X023643Y011749D01*
X023539Y011749D02*
X023748Y011749D01*
X023901Y011801D02*
X023953Y011749D01*
X024058Y011749D01*
X024110Y011801D01*
X024110Y011853D01*
X024058Y011906D01*
X023901Y011906D01*
X023901Y011801D01*
X023901Y011906D02*
X024006Y012010D01*
X024110Y012063D01*
X023643Y012063D02*
X023539Y011958D01*
X023385Y011906D02*
X023333Y011853D01*
X023176Y011853D01*
X023176Y011749D02*
X023176Y012063D01*
X023333Y012063D01*
X023385Y012010D01*
X023385Y011906D01*
X023281Y011853D02*
X023385Y011749D01*
X024475Y011510D02*
X024527Y011563D01*
X024737Y011353D01*
X024789Y011406D01*
X024789Y011510D01*
X024737Y011563D01*
X024527Y011563D01*
X024475Y011510D02*
X024475Y011406D01*
X024527Y011353D01*
X024737Y011353D01*
X024789Y011200D02*
X024789Y010991D01*
X024580Y011200D01*
X024527Y011200D01*
X024475Y011148D01*
X024475Y011043D01*
X024527Y010991D01*
X024527Y010838D02*
X024632Y010838D01*
X024684Y010785D01*
X024684Y010628D01*
X024789Y010628D02*
X024475Y010628D01*
X024475Y010785D01*
X024527Y010838D01*
X024684Y010733D02*
X024789Y010838D01*
X025010Y010308D02*
X025010Y009994D01*
X025220Y009994D01*
X025115Y010151D02*
X025010Y010151D01*
X025010Y010308D02*
X025220Y010308D01*
X024857Y009942D02*
X024648Y009942D01*
X024751Y009783D02*
X024803Y009783D01*
X025012Y009574D01*
X025065Y009574D01*
X025065Y009420D02*
X024960Y009316D01*
X024960Y009368D02*
X024960Y009211D01*
X025065Y009211D02*
X024751Y009211D01*
X024751Y009368D01*
X024803Y009420D01*
X024908Y009420D01*
X024960Y009368D01*
X024751Y009574D02*
X024751Y009783D01*
X024495Y010099D02*
X024390Y009994D01*
X024285Y010099D01*
X024285Y010308D01*
X024132Y010256D02*
X024132Y010204D01*
X024080Y010151D01*
X024132Y010099D01*
X024132Y010047D01*
X024080Y009994D01*
X023975Y009994D01*
X023923Y010047D01*
X023794Y010047D02*
X023794Y009994D01*
X023742Y009994D01*
X023742Y010047D01*
X023794Y010047D01*
X023588Y010047D02*
X023588Y010099D01*
X023536Y010151D01*
X023484Y010151D01*
X023536Y010151D02*
X023588Y010204D01*
X023588Y010256D01*
X023536Y010308D01*
X023431Y010308D01*
X023379Y010256D01*
X023379Y010047D02*
X023431Y009994D01*
X023536Y009994D01*
X023588Y010047D01*
X023923Y010256D02*
X023975Y010308D01*
X024080Y010308D01*
X024132Y010256D01*
X024080Y010151D02*
X024027Y010151D01*
X024495Y010099D02*
X024495Y010308D01*
X025302Y009730D02*
X025354Y009783D01*
X025406Y009783D01*
X025459Y009730D01*
X025459Y009626D01*
X025406Y009574D01*
X025354Y009574D01*
X025302Y009626D01*
X025302Y009730D01*
X025459Y009730D02*
X025511Y009783D01*
X025563Y009783D01*
X025616Y009730D01*
X025616Y009626D01*
X025563Y009574D01*
X025511Y009574D01*
X025459Y009626D01*
X025459Y009420D02*
X025354Y009420D01*
X025302Y009368D01*
X025302Y009211D01*
X025616Y009211D01*
X025511Y009211D02*
X025511Y009368D01*
X025459Y009420D01*
X025511Y009316D02*
X025616Y009420D01*
X025853Y009368D02*
X025853Y009263D01*
X025905Y009211D01*
X026115Y009211D01*
X026167Y009263D01*
X026167Y009368D01*
X026115Y009420D01*
X026010Y009574D02*
X026010Y009783D01*
X026167Y009730D02*
X025853Y009730D01*
X026010Y009574D01*
X025905Y009420D02*
X025853Y009368D01*
X026404Y009368D02*
X026404Y009211D01*
X026718Y009211D01*
X026613Y009211D02*
X026613Y009368D01*
X026561Y009420D01*
X026456Y009420D01*
X026404Y009368D01*
X026404Y009574D02*
X026561Y009574D01*
X026509Y009678D01*
X026509Y009730D01*
X026561Y009783D01*
X026666Y009783D01*
X026718Y009730D01*
X026718Y009626D01*
X026666Y009574D01*
X026718Y009420D02*
X026613Y009316D01*
X026719Y009065D02*
X024986Y009065D01*
X024769Y008847D01*
X024980Y008947D01*
X024869Y009058D01*
X024769Y008847D01*
X026404Y009574D02*
X026404Y009783D01*
X029186Y009874D02*
X029186Y010035D01*
X029239Y010088D01*
X029453Y010088D01*
X029506Y010035D01*
X029506Y009874D01*
X029186Y009874D01*
X029239Y010243D02*
X029186Y010296D01*
X029186Y010403D01*
X029239Y010456D01*
X029292Y010456D01*
X029346Y010403D01*
X029399Y010456D01*
X029453Y010456D01*
X029506Y010403D01*
X029506Y010296D01*
X029453Y010243D01*
X029346Y010349D02*
X029346Y010403D01*
X022787Y010693D02*
X022577Y010484D01*
X022577Y010431D01*
X022424Y010484D02*
X022372Y010431D01*
X022267Y010431D01*
X022215Y010484D01*
X022215Y010693D01*
X022267Y010745D01*
X022372Y010745D01*
X022424Y010693D01*
X022577Y010745D02*
X022787Y010745D01*
X022787Y010693D01*
X022787Y009919D02*
X022682Y009866D01*
X022577Y009762D01*
X022734Y009762D01*
X022787Y009709D01*
X022787Y009657D01*
X022734Y009605D01*
X022630Y009605D01*
X022577Y009657D01*
X022577Y009762D01*
X022424Y009866D02*
X022372Y009919D01*
X022267Y009919D01*
X022215Y009866D01*
X022215Y009657D01*
X022267Y009605D01*
X022372Y009605D01*
X022424Y009657D01*
X022411Y008816D02*
X022307Y008816D01*
X022254Y008764D01*
X022254Y008555D01*
X022307Y008502D01*
X022411Y008502D01*
X022464Y008555D01*
X022617Y008555D02*
X022669Y008502D01*
X022774Y008502D01*
X022826Y008555D01*
X022826Y008659D01*
X022774Y008712D01*
X022721Y008712D01*
X022617Y008659D01*
X022617Y008816D01*
X022826Y008816D01*
X022464Y008764D02*
X022411Y008816D01*
X024623Y006869D02*
X024723Y006658D01*
X024834Y006769D01*
X024623Y006869D01*
X024841Y006651D01*
X026719Y006651D01*
X031128Y004717D02*
X031442Y004508D01*
X031442Y004717D02*
X031128Y004508D01*
X031128Y004355D02*
X031128Y004146D01*
X031128Y004250D02*
X031442Y004250D01*
X032128Y004303D02*
X032128Y004146D01*
X032442Y004146D01*
X032337Y004146D02*
X032337Y004303D01*
X032285Y004355D01*
X032180Y004355D01*
X032128Y004303D01*
X032128Y004508D02*
X032442Y004717D01*
X032442Y004508D02*
X032128Y004717D01*
X032442Y004355D02*
X032337Y004250D01*
X021291Y006232D02*
X021238Y006180D01*
X021134Y006180D01*
X021081Y006232D01*
X021186Y006336D02*
X021238Y006336D01*
X021291Y006284D01*
X021291Y006232D01*
X021238Y006336D02*
X021291Y006389D01*
X021291Y006441D01*
X021238Y006493D01*
X021134Y006493D01*
X021081Y006441D01*
X020928Y006441D02*
X020876Y006493D01*
X020771Y006493D01*
X020719Y006441D01*
X020719Y006232D01*
X020771Y006180D01*
X020876Y006180D01*
X020928Y006232D01*
X015242Y007598D02*
X015189Y007546D01*
X014980Y007546D01*
X014928Y007598D01*
X014928Y007703D01*
X014980Y007755D01*
X015032Y007908D02*
X014928Y008013D01*
X015242Y008013D01*
X015242Y008117D02*
X015242Y007908D01*
X015189Y007755D02*
X015242Y007703D01*
X015242Y007598D01*
X014742Y007598D02*
X014689Y007546D01*
X014480Y007546D01*
X014428Y007598D01*
X014428Y007703D01*
X014480Y007755D01*
X014480Y007908D02*
X014428Y007960D01*
X014428Y008065D01*
X014480Y008117D01*
X014532Y008117D01*
X014742Y007908D01*
X014742Y008117D01*
X014689Y007755D02*
X014742Y007703D01*
X014742Y007598D01*
X014042Y007548D02*
X014042Y007653D01*
X013989Y007705D01*
X014042Y007858D02*
X013832Y008067D01*
X013780Y008067D01*
X013728Y008015D01*
X013728Y007910D01*
X013780Y007858D01*
X013780Y007705D02*
X013728Y007653D01*
X013728Y007548D01*
X013780Y007496D01*
X013989Y007496D01*
X014042Y007548D01*
X014042Y007858D02*
X014042Y008067D01*
X014042Y008221D02*
X013832Y008430D01*
X013780Y008430D01*
X013728Y008378D01*
X013728Y008273D01*
X013780Y008221D01*
X014042Y008221D02*
X014042Y008430D01*
X013976Y008985D02*
X014028Y009037D01*
X014028Y009089D01*
X013976Y009142D01*
X013819Y009142D01*
X013819Y009037D01*
X013871Y008985D01*
X013976Y008985D01*
X013819Y009142D02*
X013924Y009246D01*
X014028Y009299D01*
X013666Y009246D02*
X013666Y009194D01*
X013457Y008985D01*
X013666Y008985D01*
X013303Y009037D02*
X013251Y008985D01*
X013146Y008985D01*
X013094Y009037D01*
X013094Y009246D01*
X013146Y009299D01*
X013251Y009299D01*
X013303Y009246D01*
X013457Y009246D02*
X013509Y009299D01*
X013614Y009299D01*
X013666Y009246D01*
X014486Y010002D02*
X014538Y009949D01*
X014747Y009949D01*
X014800Y010002D01*
X014800Y010106D01*
X014747Y010159D01*
X014800Y010312D02*
X014590Y010521D01*
X014538Y010521D01*
X014486Y010469D01*
X014486Y010364D01*
X014538Y010312D01*
X014538Y010159D02*
X014486Y010106D01*
X014486Y010002D01*
X014800Y010312D02*
X014800Y010521D01*
X014747Y010674D02*
X014800Y010726D01*
X014800Y010831D01*
X014747Y010883D01*
X014643Y010883D01*
X014590Y010831D01*
X014590Y010779D01*
X014643Y010674D01*
X014486Y010674D01*
X014486Y010883D01*
X013942Y011675D02*
X013838Y011675D01*
X013785Y011727D01*
X013785Y011779D01*
X013838Y011832D01*
X013942Y011832D01*
X013995Y011779D01*
X013995Y011727D01*
X013942Y011675D01*
X013942Y011832D02*
X013995Y011884D01*
X013995Y011936D01*
X013942Y011989D01*
X013838Y011989D01*
X013785Y011936D01*
X013785Y011884D01*
X013838Y011832D01*
X013632Y011936D02*
X013580Y011989D01*
X013475Y011989D01*
X013423Y011936D01*
X013423Y011727D01*
X013475Y011675D01*
X013580Y011675D01*
X013632Y011727D01*
X012984Y012122D02*
X012984Y012227D01*
X012932Y012279D01*
X012984Y012122D02*
X012932Y012070D01*
X012723Y012070D01*
X012670Y012122D01*
X012670Y012227D01*
X012723Y012279D01*
X012827Y012432D02*
X012827Y012642D01*
X012827Y012795D02*
X012827Y012952D01*
X012880Y013004D01*
X012932Y013004D01*
X012984Y012952D01*
X012984Y012847D01*
X012932Y012795D01*
X012827Y012795D01*
X012723Y012900D01*
X012670Y013004D01*
X012478Y012870D02*
X012269Y012870D01*
X012374Y012870D02*
X012374Y013184D01*
X012269Y013080D01*
X012116Y013132D02*
X012063Y013184D01*
X011906Y013184D01*
X011906Y012870D01*
X012063Y012870D01*
X012116Y012923D01*
X012116Y013132D01*
X012670Y012589D02*
X012827Y012432D01*
X012984Y012589D02*
X012670Y012589D01*
X011606Y012214D02*
X011606Y012161D01*
X011397Y011952D01*
X011606Y011952D01*
X011243Y011952D02*
X011034Y011952D01*
X011139Y011952D02*
X011139Y012266D01*
X011034Y012161D01*
X010881Y012214D02*
X010829Y012266D01*
X010724Y012266D01*
X010672Y012214D01*
X010672Y012004D01*
X010724Y011952D01*
X010829Y011952D01*
X010881Y012004D01*
X010541Y011890D02*
X010541Y011681D01*
X010332Y011890D01*
X010280Y011890D01*
X010227Y011838D01*
X010227Y011733D01*
X010280Y011681D01*
X010280Y011527D02*
X010227Y011475D01*
X010227Y011370D01*
X010280Y011318D01*
X010489Y011318D01*
X010541Y011370D01*
X010541Y011475D01*
X010489Y011527D01*
X010384Y012043D02*
X010384Y012252D01*
X010227Y012200D02*
X010384Y012043D01*
X010541Y012200D02*
X010227Y012200D01*
X009625Y012112D02*
X009416Y012112D01*
X009521Y012112D02*
X009521Y012426D01*
X009416Y012321D01*
X009263Y012112D02*
X009054Y012112D01*
X009158Y012112D02*
X009158Y012426D01*
X009054Y012321D01*
X008900Y012373D02*
X008848Y012426D01*
X008743Y012426D01*
X008691Y012373D01*
X008691Y012164D01*
X008743Y012112D01*
X008848Y012112D01*
X008900Y012164D01*
X008384Y011217D02*
X008384Y010903D01*
X008279Y010903D02*
X008489Y010903D01*
X008279Y011112D02*
X008384Y011217D01*
X008126Y011217D02*
X007917Y011217D01*
X008021Y011217D02*
X008021Y010903D01*
X004636Y009078D02*
X004636Y008832D01*
X004636Y008537D01*
X004439Y008537D02*
X004242Y008832D01*
X004046Y008537D01*
X003849Y008832D01*
X003849Y008537D01*
X003849Y008241D02*
X003849Y007553D01*
X004046Y007553D01*
X004046Y007995D01*
X004144Y007995D01*
X004144Y007553D01*
X004341Y007553D01*
X004341Y007995D01*
X004439Y007995D01*
X004439Y007553D01*
X004636Y007553D01*
X004636Y008241D01*
X003849Y008241D01*
X004439Y008537D02*
X004636Y008832D01*
X004242Y008832D01*
X003849Y008832D01*
X003849Y009078D01*
X004636Y009078D01*
X005260Y008468D02*
X005473Y008468D01*
X005628Y008362D02*
X005628Y008575D01*
X005682Y008629D01*
X005842Y008629D01*
X005842Y008308D01*
X005682Y008308D01*
X005628Y008362D01*
X006130Y007580D02*
X006130Y007267D01*
X006340Y007267D01*
X006493Y007319D02*
X006545Y007267D01*
X006650Y007267D01*
X006702Y007319D01*
X006702Y007371D01*
X006650Y007424D01*
X006598Y007424D01*
X006650Y007424D02*
X006702Y007476D01*
X006702Y007528D01*
X006650Y007580D01*
X006545Y007580D01*
X006493Y007528D01*
X006901Y007335D02*
X006901Y007125D01*
X006954Y007073D01*
X007058Y007073D01*
X007111Y007125D01*
X007264Y007230D02*
X007473Y007230D01*
X007421Y007387D02*
X007264Y007230D01*
X007111Y007335D02*
X007058Y007387D01*
X006954Y007387D01*
X006901Y007335D01*
X007421Y007387D02*
X007421Y007073D01*
X007626Y007073D02*
X007626Y007125D01*
X007836Y007335D01*
X007836Y007387D01*
X007626Y007387D01*
X008060Y007374D02*
X008060Y007217D01*
X008374Y007217D01*
X008269Y007217D02*
X008269Y007374D01*
X008217Y007427D01*
X008112Y007427D01*
X008060Y007374D01*
X008269Y007322D02*
X008374Y007427D01*
X008374Y007580D02*
X008374Y007789D01*
X008374Y007684D02*
X008060Y007684D01*
X008164Y007580D01*
X008112Y007942D02*
X008060Y007995D01*
X008060Y008099D01*
X008112Y008152D01*
X008321Y007942D01*
X008374Y007995D01*
X008374Y008099D01*
X008321Y008152D01*
X008112Y008152D01*
X008032Y008298D02*
X008032Y008612D01*
X007927Y008612D02*
X008137Y008612D01*
X008290Y008560D02*
X008342Y008612D01*
X008447Y008612D01*
X008499Y008560D01*
X008499Y008508D01*
X008290Y008298D01*
X008499Y008298D01*
X008321Y007942D02*
X008112Y007942D01*
X007650Y008165D02*
X007650Y008218D01*
X007598Y008270D01*
X007493Y008270D01*
X007441Y008322D01*
X007441Y008375D01*
X007493Y008427D01*
X007598Y008427D01*
X007650Y008375D01*
X007650Y008322D01*
X007598Y008270D01*
X007493Y008270D02*
X007441Y008218D01*
X007441Y008165D01*
X007493Y008113D01*
X007598Y008113D01*
X007650Y008165D01*
X007288Y008270D02*
X007078Y008270D01*
X007235Y008427D01*
X007235Y008113D01*
X006925Y008165D02*
X006873Y008113D01*
X006768Y008113D01*
X006716Y008165D01*
X006716Y008375D01*
X006768Y008427D01*
X006873Y008427D01*
X006925Y008375D01*
X004636Y007454D02*
X004636Y006913D01*
X004439Y007060D02*
X004439Y007208D01*
X004292Y007208D01*
X004292Y007060D01*
X004291Y007060D02*
X004293Y007044D01*
X004298Y007028D01*
X004307Y007014D01*
X004319Y007002D01*
X004333Y006993D01*
X004349Y006988D01*
X004365Y006986D01*
X004381Y006988D01*
X004397Y006993D01*
X004411Y007002D01*
X004423Y007014D01*
X004432Y007028D01*
X004437Y007044D01*
X004439Y007060D01*
X004636Y006913D02*
X004634Y006882D01*
X004628Y006852D01*
X004619Y006822D01*
X004606Y006794D01*
X004589Y006768D01*
X004569Y006745D01*
X004547Y006723D01*
X004522Y006705D01*
X004495Y006690D01*
X004466Y006679D01*
X004436Y006671D01*
X004405Y006667D01*
X004375Y006667D01*
X004344Y006671D01*
X004314Y006679D01*
X004285Y006690D01*
X004258Y006705D01*
X004233Y006723D01*
X004211Y006745D01*
X004191Y006768D01*
X004174Y006794D01*
X004161Y006822D01*
X004152Y006852D01*
X004146Y006882D01*
X004144Y006913D01*
X003849Y006716D01*
X003849Y007011D01*
X004144Y007208D01*
X003849Y007208D01*
X003849Y007454D01*
X004636Y007454D01*
X005367Y006775D02*
X005367Y006562D01*
X005473Y006668D02*
X005260Y006668D01*
X005628Y006562D02*
X005628Y006775D01*
X005682Y006829D01*
X005842Y006829D01*
X005842Y006508D01*
X005682Y006508D01*
X005628Y006562D01*
X004614Y005930D02*
X004439Y005930D01*
X004242Y005929D02*
X004242Y006125D01*
X004046Y006125D01*
X003898Y005929D02*
X004242Y005929D01*
X003207Y004353D02*
X003207Y004144D01*
X003207Y004249D02*
X002893Y004249D01*
X002998Y004144D01*
X002945Y003991D02*
X002893Y003939D01*
X002893Y003782D01*
X003207Y003782D01*
X003207Y003939D01*
X003155Y003991D01*
X002945Y003991D01*
X002893Y003628D02*
X002893Y003419D01*
X003207Y003419D01*
X003207Y003628D01*
X003282Y003698D02*
X003352Y003838D01*
X003422Y003768D02*
X003282Y003698D01*
X003502Y003918D01*
X003502Y003668D02*
X003282Y003448D01*
X003352Y003588D01*
X003422Y003518D02*
X003282Y003448D01*
X003207Y003266D02*
X003207Y003057D01*
X002893Y003057D01*
X003050Y003419D02*
X003050Y003524D01*
X003722Y003598D02*
X003872Y003598D01*
X004022Y003798D01*
X003722Y003798D01*
X003872Y003598D01*
X004022Y003598D01*
X006080Y003252D02*
X006080Y002938D01*
X006080Y003042D02*
X006237Y003042D01*
X006290Y003095D01*
X006290Y003199D01*
X006237Y003252D01*
X006080Y003252D01*
X006185Y003042D02*
X006290Y002938D01*
X006443Y003095D02*
X006652Y003095D01*
X006600Y002938D02*
X006600Y003252D01*
X006443Y003095D01*
X006709Y003315D02*
X006709Y003629D01*
X006866Y003629D01*
X006918Y003577D01*
X006918Y003472D01*
X006866Y003420D01*
X006709Y003420D01*
X006813Y003420D02*
X006918Y003315D01*
X007071Y003368D02*
X007123Y003315D01*
X007228Y003315D01*
X007280Y003368D01*
X007280Y003420D01*
X007228Y003472D01*
X007176Y003472D01*
X007228Y003472D02*
X007280Y003524D01*
X007280Y003577D01*
X007228Y003629D01*
X007123Y003629D01*
X007071Y003577D01*
X008151Y003458D02*
X008203Y003406D01*
X008308Y003406D01*
X008360Y003458D01*
X008360Y003720D01*
X008514Y003668D02*
X008566Y003720D01*
X008671Y003720D01*
X008723Y003668D01*
X008723Y003615D01*
X008671Y003563D01*
X008723Y003511D01*
X008723Y003458D01*
X008671Y003406D01*
X008566Y003406D01*
X008514Y003458D01*
X008618Y003563D02*
X008671Y003563D01*
X008151Y003458D02*
X008151Y003720D01*
X009666Y003715D02*
X009666Y003924D01*
X009718Y003924D01*
X009928Y003715D01*
X009980Y003715D01*
X009980Y003562D02*
X009980Y003353D01*
X009771Y003562D01*
X009718Y003562D01*
X009666Y003509D01*
X009666Y003405D01*
X009718Y003353D01*
X009718Y003199D02*
X009666Y003147D01*
X009666Y003042D01*
X009718Y002990D01*
X009928Y002990D01*
X009980Y003042D01*
X009980Y003147D01*
X009928Y003199D01*
X010365Y003147D02*
X010365Y003042D01*
X010418Y002990D01*
X010627Y002990D01*
X010679Y003042D01*
X010679Y003147D01*
X010627Y003199D01*
X010522Y003353D02*
X010522Y003562D01*
X010470Y003715D02*
X010365Y003820D01*
X010679Y003820D01*
X010679Y003924D02*
X010679Y003715D01*
X010679Y003509D02*
X010365Y003509D01*
X010522Y003353D01*
X010418Y003199D02*
X010365Y003147D01*
X011744Y006083D02*
X011954Y006083D01*
X012107Y006135D02*
X012316Y006135D01*
X012211Y006292D02*
X012107Y006292D01*
X012107Y006449D02*
X012107Y006135D01*
X012107Y006449D02*
X012316Y006449D01*
X012308Y006452D02*
X012517Y006452D01*
X012413Y006452D02*
X012413Y006766D01*
X012308Y006661D01*
X012155Y006714D02*
X012155Y006504D01*
X012103Y006452D01*
X011998Y006452D01*
X011946Y006504D01*
X011946Y006714D01*
X011998Y006766D01*
X012103Y006766D01*
X012155Y006714D01*
X012050Y006557D02*
X012155Y006452D01*
X011591Y006449D02*
X011591Y006240D01*
X011486Y006135D01*
X011382Y006240D01*
X011382Y006449D01*
X011229Y006449D02*
X011019Y006449D01*
X011019Y006292D01*
X011124Y006345D01*
X011176Y006345D01*
X011229Y006292D01*
X011229Y006188D01*
X011176Y006135D01*
X011072Y006135D01*
X011019Y006188D01*
X010518Y006953D02*
X010309Y006953D01*
X010257Y007005D01*
X010257Y007110D01*
X010309Y007162D01*
X010309Y007315D02*
X010257Y007367D01*
X010257Y007472D01*
X010309Y007524D01*
X010361Y007524D01*
X010570Y007315D01*
X010570Y007524D01*
X010518Y007678D02*
X010570Y007730D01*
X010570Y007835D01*
X010518Y007887D01*
X010466Y007887D01*
X010414Y007835D01*
X010414Y007782D01*
X010414Y007835D02*
X010361Y007887D01*
X010309Y007887D01*
X010257Y007835D01*
X010257Y007730D01*
X010309Y007678D01*
X010518Y007162D02*
X010570Y007110D01*
X010570Y007005D01*
X010518Y006953D01*
X009344Y006708D02*
X009344Y006499D01*
X009291Y006447D01*
X009187Y006447D01*
X009134Y006499D01*
X009187Y006604D02*
X009344Y006604D01*
X009344Y006708D02*
X009291Y006761D01*
X009187Y006761D01*
X009134Y006708D01*
X009134Y006656D01*
X009187Y006604D01*
X008981Y006604D02*
X008929Y006551D01*
X008772Y006551D01*
X008772Y006447D02*
X008772Y006761D01*
X008929Y006761D01*
X008981Y006708D01*
X008981Y006604D01*
X008877Y006551D02*
X008981Y006447D01*
X008631Y006424D02*
X008578Y006476D01*
X008474Y006476D01*
X008421Y006424D01*
X008631Y006424D02*
X008631Y006372D01*
X008421Y006162D01*
X008631Y006162D01*
X008268Y006162D02*
X008059Y006162D01*
X008059Y006476D01*
X011397Y012214D02*
X011449Y012266D01*
X011554Y012266D01*
X011606Y012214D01*
X014297Y012590D02*
X014350Y012537D01*
X014454Y012537D01*
X014507Y012590D01*
X014660Y012537D02*
X014869Y012537D01*
X014764Y012537D02*
X014764Y012851D01*
X014660Y012747D01*
X014507Y012799D02*
X014454Y012851D01*
X014350Y012851D01*
X014297Y012799D01*
X014297Y012590D01*
X015022Y012590D02*
X015075Y012537D01*
X015179Y012537D01*
X015232Y012590D01*
X015232Y012799D01*
X015179Y012851D01*
X015075Y012851D01*
X015022Y012799D01*
X015022Y012747D01*
X015075Y012694D01*
X015232Y012694D01*
X015984Y013857D02*
X016089Y013857D01*
X016141Y013909D01*
X016294Y013857D02*
X016504Y014066D01*
X016504Y014118D01*
X016451Y014171D01*
X016347Y014171D01*
X016294Y014118D01*
X016141Y014118D02*
X016089Y014171D01*
X015984Y014171D01*
X015932Y014118D01*
X015932Y013909D01*
X015984Y013857D01*
X016294Y013857D02*
X016504Y013857D01*
X016657Y013857D02*
X016866Y013857D01*
X016762Y013857D02*
X016762Y014171D01*
X016657Y014066D01*
X017361Y014395D02*
X017413Y014342D01*
X017622Y014342D01*
X017675Y014395D01*
X017675Y014499D01*
X017622Y014552D01*
X017675Y014705D02*
X017675Y014914D01*
X017675Y014810D02*
X017361Y014810D01*
X017465Y014705D01*
X017413Y014552D02*
X017361Y014499D01*
X017361Y014395D01*
X017821Y014711D02*
X017874Y014659D01*
X018083Y014659D01*
X018135Y014711D01*
X018135Y014816D01*
X018083Y014868D01*
X018135Y015021D02*
X018135Y015231D01*
X018135Y015126D02*
X017821Y015126D01*
X017926Y015021D01*
X017874Y014868D02*
X017821Y014816D01*
X017821Y014711D01*
X017622Y015067D02*
X017675Y015120D01*
X017675Y015224D01*
X017622Y015277D01*
X017518Y015277D01*
X017465Y015224D01*
X017465Y015172D01*
X017518Y015067D01*
X017361Y015067D01*
X017361Y015277D01*
X017001Y015173D02*
X017001Y015121D01*
X016792Y014912D01*
X017001Y014912D01*
X016639Y015069D02*
X016429Y015069D01*
X016586Y015226D01*
X016586Y014912D01*
X016276Y014964D02*
X016224Y014912D01*
X016119Y014912D01*
X016067Y014964D01*
X016067Y015173D01*
X016119Y015226D01*
X016224Y015226D01*
X016276Y015173D01*
X015799Y015170D02*
X015799Y015118D01*
X015590Y014909D01*
X015590Y014857D01*
X015436Y014857D02*
X015227Y014857D01*
X015332Y014857D02*
X015332Y015170D01*
X015227Y015066D01*
X015074Y015118D02*
X015022Y015170D01*
X014917Y015170D01*
X014865Y015118D01*
X014865Y014909D01*
X014917Y014857D01*
X015022Y014857D01*
X015074Y014909D01*
X014635Y014913D02*
X014635Y014965D01*
X014583Y015018D01*
X014478Y015018D01*
X014426Y015070D01*
X014426Y015122D01*
X014478Y015175D01*
X014583Y015175D01*
X014635Y015122D01*
X014635Y015070D01*
X014583Y015018D01*
X014478Y015018D02*
X014426Y014965D01*
X014426Y014913D01*
X014478Y014861D01*
X014583Y014861D01*
X014635Y014913D01*
X014489Y014754D02*
X014542Y014702D01*
X014333Y014492D01*
X014385Y014440D01*
X014489Y014440D01*
X014542Y014492D01*
X014542Y014702D01*
X014489Y014754D02*
X014385Y014754D01*
X014333Y014702D01*
X014333Y014492D01*
X014179Y014440D02*
X013970Y014440D01*
X014179Y014649D01*
X014179Y014702D01*
X014127Y014754D01*
X014022Y014754D01*
X013970Y014702D01*
X013817Y014702D02*
X013765Y014754D01*
X013660Y014754D01*
X013608Y014702D01*
X013608Y014492D01*
X013660Y014440D01*
X013765Y014440D01*
X013817Y014492D01*
X013858Y014861D02*
X013910Y014913D01*
X013858Y014861D02*
X013753Y014861D01*
X013701Y014913D01*
X013701Y015122D01*
X013753Y015175D01*
X013858Y015175D01*
X013910Y015122D01*
X014063Y015070D02*
X014168Y015175D01*
X014168Y014861D01*
X014063Y014861D02*
X014273Y014861D01*
X015590Y015170D02*
X015799Y015170D01*
X016792Y015173D02*
X016844Y015226D01*
X016949Y015226D01*
X017001Y015173D01*
X017821Y015436D02*
X017821Y015541D01*
X017874Y015593D01*
X017926Y015593D01*
X017978Y015541D01*
X018031Y015593D01*
X018083Y015593D01*
X018135Y015541D01*
X018135Y015436D01*
X018083Y015384D01*
X017978Y015489D02*
X017978Y015541D01*
X017874Y015384D02*
X017821Y015436D01*
X018373Y015541D02*
X018530Y015384D01*
X018530Y015593D01*
X018687Y015541D02*
X018373Y015541D01*
X018687Y015231D02*
X018687Y015021D01*
X018687Y015126D02*
X018373Y015126D01*
X018477Y015021D01*
X018425Y014868D02*
X018373Y014816D01*
X018373Y014711D01*
X018425Y014659D01*
X018634Y014659D01*
X018687Y014711D01*
X018687Y014816D01*
X018634Y014868D01*
X018963Y014816D02*
X018963Y014711D01*
X019016Y014659D01*
X019225Y014659D01*
X019277Y014711D01*
X019277Y014816D01*
X019225Y014868D01*
X019120Y015021D02*
X019120Y015231D01*
X018963Y015178D02*
X019120Y015021D01*
X019016Y014868D02*
X018963Y014816D01*
X018963Y015178D02*
X019277Y015178D01*
X019225Y015384D02*
X019016Y015593D01*
X019225Y015593D01*
X019277Y015541D01*
X019277Y015436D01*
X019225Y015384D01*
X019016Y015384D01*
X018963Y015436D01*
X018963Y015541D01*
X019016Y015593D01*
X016841Y017708D02*
X016841Y017760D01*
X016789Y017813D01*
X016632Y017813D01*
X016632Y017708D01*
X016685Y017656D01*
X016789Y017656D01*
X016841Y017708D01*
X016737Y017917D02*
X016632Y017813D01*
X016737Y017917D02*
X016841Y017970D01*
X016374Y017970D02*
X016374Y017656D01*
X016270Y017656D02*
X016479Y017656D01*
X016270Y017865D02*
X016374Y017970D01*
X016117Y017917D02*
X016064Y017970D01*
X015960Y017970D01*
X015907Y017917D01*
X015907Y017708D01*
X015960Y017656D01*
X016064Y017656D01*
X016117Y017708D01*
X015008Y017585D02*
X014798Y017585D01*
X014903Y017585D02*
X014903Y017899D01*
X014798Y017795D01*
X014645Y017847D02*
X014645Y017742D01*
X014593Y017690D01*
X014436Y017690D01*
X014540Y017690D02*
X014645Y017585D01*
X014436Y017585D02*
X014436Y017899D01*
X014593Y017899D01*
X014645Y017847D01*
X011671Y017490D02*
X011461Y017490D01*
X011566Y017490D02*
X011566Y017804D01*
X011461Y017699D01*
X011308Y017490D02*
X011099Y017490D01*
X011099Y017804D01*
X007517Y014205D02*
X007465Y014205D01*
X007412Y014153D01*
X007412Y013996D01*
X007517Y013996D01*
X007569Y014048D01*
X007569Y014153D01*
X007517Y014205D01*
X007308Y014101D02*
X007412Y013996D01*
X007308Y014101D02*
X007255Y014205D01*
X007693Y013942D02*
X007850Y013942D01*
X007902Y013889D01*
X007902Y013680D01*
X007850Y013628D01*
X007693Y013628D01*
X007693Y013942D01*
X007569Y013843D02*
X007569Y013633D01*
X007360Y013843D01*
X007308Y013843D01*
X007255Y013790D01*
X007255Y013686D01*
X007308Y013633D01*
X007308Y013480D02*
X007412Y013480D01*
X007465Y013428D01*
X007465Y013271D01*
X007569Y013271D02*
X007255Y013271D01*
X007255Y013428D01*
X007308Y013480D01*
X007465Y013376D02*
X007569Y013480D01*
X008055Y013628D02*
X008264Y013837D01*
X008264Y013889D01*
X008212Y013942D01*
X008107Y013942D01*
X008055Y013889D01*
X008055Y013628D02*
X008264Y013628D01*
X003928Y016792D02*
X003876Y016740D01*
X003771Y016740D01*
X003719Y016792D01*
X003719Y016844D01*
X003771Y016897D01*
X003876Y016897D01*
X003928Y016844D01*
X003928Y016792D01*
X003876Y016897D02*
X003928Y016949D01*
X003928Y017001D01*
X003876Y017054D01*
X003771Y017054D01*
X003719Y017001D01*
X003719Y016949D01*
X003771Y016897D01*
X003566Y016949D02*
X003357Y016740D01*
X003566Y016740D01*
X003566Y016949D02*
X003566Y017001D01*
X003514Y017054D01*
X003409Y017054D01*
X003357Y017001D01*
X003203Y017001D02*
X003151Y017054D01*
X003046Y017054D01*
X002994Y017001D01*
X002994Y016792D01*
X003046Y016740D01*
X003151Y016740D01*
X003203Y016792D01*
D13*
X019887Y016736D02*
X019887Y017296D01*
X020167Y017296D01*
X020261Y017203D01*
X020261Y017016D01*
X020167Y016922D01*
X019887Y016922D01*
X020074Y016922D02*
X020261Y016736D01*
X020532Y016829D02*
X020532Y017016D01*
X020625Y017109D01*
X020812Y017109D01*
X020905Y017016D01*
X020905Y016922D01*
X020532Y016922D01*
X020532Y016829D02*
X020625Y016736D01*
X020812Y016736D01*
X021176Y017109D02*
X021363Y016736D01*
X021550Y017109D01*
X021821Y016829D02*
X021914Y016829D01*
X021914Y016736D01*
X021821Y016736D01*
X021821Y016829D01*
X022143Y016736D02*
X022517Y016736D01*
X022330Y017016D02*
X022143Y017016D01*
X022143Y017296D02*
X022143Y016736D01*
X022143Y017296D02*
X022517Y017296D01*
D14*
X020154Y016315D02*
X020054Y016315D01*
X020054Y016215D01*
X020154Y016215D01*
X020154Y016315D01*
X019904Y016215D02*
X019904Y015915D01*
X020554Y015915D01*
X020484Y014825D01*
X020296Y014665D02*
X020298Y014690D01*
X020304Y014715D01*
X020314Y014738D01*
X020328Y014760D01*
X020345Y014779D01*
X020364Y014795D01*
X020386Y014808D01*
X020410Y014817D01*
X020435Y014822D01*
X020460Y014823D01*
X020486Y014820D01*
X020510Y014813D01*
X020533Y014802D01*
X020554Y014787D01*
X020572Y014770D01*
X020588Y014749D01*
X020599Y014727D01*
X020607Y014703D01*
X020611Y014678D01*
X020611Y014652D01*
X020607Y014627D01*
X020599Y014603D01*
X020588Y014581D01*
X020572Y014560D01*
X020554Y014543D01*
X020533Y014528D01*
X020510Y014517D01*
X020486Y014510D01*
X020460Y014507D01*
X020435Y014508D01*
X020410Y014513D01*
X020386Y014522D01*
X020364Y014535D01*
X020345Y014551D01*
X020328Y014570D01*
X020314Y014592D01*
X020304Y014615D01*
X020298Y014640D01*
X020296Y014665D01*
X020294Y014665D02*
X019904Y014665D01*
X019904Y014515D01*
X019754Y014515D01*
X019754Y014665D01*
X019654Y015915D01*
X019854Y015915D01*
X019854Y016215D01*
X019904Y016215D01*
X019354Y016015D02*
X020854Y014515D01*
X020444Y014665D02*
X020446Y014671D01*
X020451Y014675D01*
X020457Y014675D01*
X020462Y014671D01*
X020464Y014665D01*
X020462Y014659D01*
X020457Y014655D01*
X020451Y014655D01*
X020446Y014659D01*
X020444Y014665D01*
X019904Y014665D02*
X019754Y014665D01*
X019354Y014515D02*
X020554Y015715D01*
X020854Y016015D01*
X020654Y015865D02*
X020654Y015715D01*
X020554Y015715D01*
X020654Y015865D02*
X020604Y015915D01*
X020554Y015915D01*
X020454Y015965D02*
X020456Y015979D01*
X020462Y015992D01*
X020471Y016003D01*
X020483Y016010D01*
X020497Y016014D01*
X020511Y016014D01*
X020525Y016010D01*
X020537Y016003D01*
X020546Y015992D01*
X020552Y015979D01*
X020554Y015965D01*
X020552Y015951D01*
X020546Y015938D01*
X020537Y015927D01*
X020525Y015920D01*
X020511Y015916D01*
X020497Y015916D01*
X020483Y015920D01*
X020471Y015927D01*
X020462Y015938D01*
X020456Y015951D01*
X020454Y015965D01*
X020354Y015665D02*
X020054Y015665D01*
X020054Y015565D01*
X020354Y015565D01*
X020354Y015665D01*
X020554Y015915D02*
X020532Y015954D01*
X020507Y015991D01*
X020479Y016025D01*
X020448Y016057D01*
X020414Y016086D01*
X020378Y016112D01*
X020339Y016134D01*
X020299Y016154D01*
X020257Y016169D01*
X020214Y016181D01*
X020171Y016189D01*
X020126Y016193D01*
X020082Y016193D01*
X020037Y016189D01*
X019994Y016181D01*
X019951Y016169D01*
X019909Y016154D01*
X019869Y016134D01*
X019830Y016112D01*
X019794Y016086D01*
X019760Y016057D01*
X019729Y016025D01*
X019701Y015991D01*
X019676Y015954D01*
X019654Y015915D01*
X019604Y015915D01*
X019854Y015915D02*
X019904Y015915D01*
X017490Y015540D02*
X017354Y015461D01*
X017284Y015739D01*
X017490Y015540D01*
X017481Y015386D02*
X017284Y015739D01*
X012834Y014430D02*
X009964Y014430D01*
X008499Y014502D02*
X008209Y014502D01*
X008499Y014502D02*
X008499Y014842D01*
X008039Y015022D02*
X007839Y015022D01*
X007379Y014842D02*
X007379Y014502D01*
X007669Y014502D01*
X006438Y015959D02*
X006438Y012810D01*
X004705Y012416D02*
X003682Y012416D01*
X003682Y012810D01*
X003682Y013400D01*
X003682Y012810D02*
X000532Y012810D01*
X000532Y015959D01*
X003682Y015959D01*
X003682Y015369D01*
X003682Y015959D02*
X003682Y016353D01*
X004705Y016353D01*
X005219Y016957D02*
X005219Y016995D01*
X005219Y016957D02*
X005857Y016957D01*
X005857Y016995D01*
X005857Y017312D02*
X005857Y017723D01*
X005857Y018040D02*
X005857Y018077D01*
X005219Y018077D01*
X005219Y018040D01*
X005219Y017723D02*
X005219Y017686D01*
X005219Y017349D02*
X005219Y017312D01*
X009964Y017297D02*
X012834Y017297D01*
X012044Y014210D02*
X012044Y013423D01*
X011454Y013817D01*
X012044Y014210D01*
X011447Y014267D02*
X011447Y013367D01*
X011184Y011438D02*
X010784Y011438D01*
X010764Y011436D01*
X010746Y011430D01*
X010728Y011421D01*
X010713Y011409D01*
X010701Y011394D01*
X010692Y011376D01*
X010686Y011358D01*
X010684Y011338D01*
X010684Y007038D01*
X010686Y007018D01*
X010692Y007000D01*
X010701Y006982D01*
X010713Y006967D01*
X010728Y006955D01*
X010746Y006946D01*
X010764Y006940D01*
X010784Y006938D01*
X011184Y006938D01*
X010694Y006579D02*
X010144Y006579D01*
X010144Y006479D01*
X010144Y006579D02*
X009594Y006579D01*
X009574Y006577D01*
X009556Y006571D01*
X009538Y006562D01*
X009523Y006550D01*
X009511Y006535D01*
X009502Y006517D01*
X009496Y006499D01*
X009494Y006479D01*
X009494Y005879D01*
X009496Y005859D01*
X009502Y005841D01*
X009511Y005823D01*
X009523Y005808D01*
X009538Y005796D01*
X009556Y005787D01*
X009574Y005781D01*
X009594Y005779D01*
X010144Y005779D01*
X010144Y005879D01*
X010144Y005779D02*
X010694Y005779D01*
X010714Y005781D01*
X010732Y005787D01*
X010750Y005796D01*
X010765Y005808D01*
X010777Y005823D01*
X010786Y005841D01*
X010792Y005859D01*
X010794Y005879D01*
X010794Y006479D01*
X010792Y006499D01*
X010786Y006517D01*
X010777Y006535D01*
X010765Y006550D01*
X010750Y006562D01*
X010732Y006571D01*
X010714Y006577D01*
X010694Y006579D01*
X012084Y006938D02*
X012484Y006938D01*
X012504Y006940D01*
X012522Y006946D01*
X012540Y006955D01*
X012555Y006967D01*
X012567Y006982D01*
X012576Y007000D01*
X012582Y007018D01*
X012584Y007038D01*
X012584Y011338D01*
X012582Y011358D01*
X012576Y011376D01*
X012567Y011394D01*
X012555Y011409D01*
X012540Y011421D01*
X012522Y011430D01*
X012504Y011436D01*
X012484Y011438D01*
X012084Y011438D01*
X012134Y010538D02*
X012134Y007838D01*
X012434Y007838D02*
X012434Y010538D01*
X011134Y010538D02*
X011134Y007838D01*
X010834Y007838D02*
X010834Y010538D01*
X009774Y010656D02*
X009774Y010306D01*
X009474Y010306D01*
X008974Y010306D02*
X008674Y010306D01*
X008674Y010656D01*
X009124Y010806D02*
X009324Y010806D01*
X007932Y010406D02*
X007782Y010406D01*
X007782Y010256D01*
X007782Y010406D02*
X007632Y010406D01*
X007782Y010406D02*
X007782Y010556D01*
X006062Y009756D02*
X006067Y009867D01*
X006082Y009977D01*
X006107Y010085D01*
X006142Y010191D01*
X006186Y010292D01*
X006240Y010390D01*
X006302Y010482D01*
X006372Y010568D01*
X006449Y010648D01*
X006534Y010720D01*
X006625Y010784D01*
X006721Y010839D01*
X006822Y010886D01*
X006926Y010923D01*
X007034Y010950D01*
X007143Y010968D01*
X007254Y010976D01*
X007365Y010973D01*
X007476Y010961D01*
X007584Y010938D01*
X007691Y010906D01*
X007793Y010864D01*
X007892Y010813D01*
X007986Y010753D01*
X008073Y010685D01*
X008154Y010609D01*
X008228Y010526D01*
X008294Y010437D01*
X008352Y010342D01*
X008401Y010242D01*
X008441Y010138D01*
X008471Y010031D01*
X008491Y009922D01*
X008501Y009812D01*
X008501Y009700D01*
X008491Y009590D01*
X008471Y009481D01*
X008441Y009374D01*
X008401Y009270D01*
X008352Y009170D01*
X008294Y009075D01*
X008228Y008986D01*
X008154Y008903D01*
X008073Y008827D01*
X007986Y008759D01*
X007892Y008699D01*
X007793Y008648D01*
X007691Y008606D01*
X007584Y008574D01*
X007476Y008551D01*
X007365Y008539D01*
X007254Y008536D01*
X007143Y008544D01*
X007034Y008562D01*
X006926Y008589D01*
X006822Y008626D01*
X006721Y008673D01*
X006625Y008728D01*
X006534Y008792D01*
X006449Y008864D01*
X006372Y008944D01*
X006302Y009030D01*
X006240Y009122D01*
X006186Y009220D01*
X006142Y009321D01*
X006107Y009427D01*
X006082Y009535D01*
X006067Y009645D01*
X006062Y009756D01*
X005900Y009930D02*
X000270Y009930D01*
X000270Y005206D01*
X005900Y005206D01*
X005900Y009930D01*
X005598Y009652D02*
X005598Y009385D01*
X005732Y009518D02*
X005465Y009518D01*
X003332Y009918D02*
X003332Y005218D01*
X003152Y005568D02*
X000849Y006068D01*
X000849Y006568D01*
X003152Y007068D01*
X003152Y008068D02*
X000849Y008568D01*
X000849Y009068D01*
X003152Y009568D01*
X008674Y009156D02*
X008674Y008806D01*
X009124Y008656D02*
X009324Y008656D01*
X009774Y008806D02*
X009774Y009156D01*
X009474Y009156D01*
X008974Y009156D02*
X008674Y009156D01*
X011384Y009088D02*
X011884Y009088D01*
X011884Y009288D01*
X011384Y009288D01*
X011384Y009088D01*
X011384Y008938D02*
X011634Y008938D01*
X011634Y008788D01*
X011634Y008938D02*
X011884Y008938D01*
X011884Y009438D02*
X011634Y009438D01*
X011634Y009588D01*
X011634Y009438D02*
X011384Y009438D01*
X015459Y007281D02*
X015461Y007312D01*
X015467Y007342D01*
X015477Y007371D01*
X015491Y007399D01*
X015508Y007425D01*
X015528Y007448D01*
X015551Y007468D01*
X015577Y007485D01*
X015605Y007499D01*
X015634Y007509D01*
X015664Y007515D01*
X015695Y007517D01*
X015726Y007515D01*
X015756Y007509D01*
X015785Y007499D01*
X015813Y007485D01*
X015839Y007468D01*
X015862Y007448D01*
X015882Y007425D01*
X015899Y007399D01*
X015913Y007371D01*
X015923Y007342D01*
X015929Y007312D01*
X015931Y007281D01*
X015929Y007250D01*
X015923Y007220D01*
X015913Y007191D01*
X015899Y007163D01*
X015882Y007137D01*
X015862Y007114D01*
X015839Y007094D01*
X015813Y007077D01*
X015785Y007063D01*
X015756Y007053D01*
X015726Y007047D01*
X015695Y007045D01*
X015664Y007047D01*
X015634Y007053D01*
X015605Y007063D01*
X015577Y007077D01*
X015551Y007094D01*
X015528Y007114D01*
X015508Y007137D01*
X015491Y007163D01*
X015477Y007191D01*
X015467Y007220D01*
X015461Y007250D01*
X015459Y007281D01*
X016089Y007832D02*
X016246Y007675D01*
X021286Y007675D01*
X021286Y012872D01*
X016089Y012872D01*
X016089Y007832D01*
X016404Y008226D02*
X016406Y008257D01*
X016412Y008287D01*
X016422Y008316D01*
X016436Y008344D01*
X016453Y008370D01*
X016473Y008393D01*
X016496Y008413D01*
X016522Y008430D01*
X016550Y008444D01*
X016579Y008454D01*
X016609Y008460D01*
X016640Y008462D01*
X016671Y008460D01*
X016701Y008454D01*
X016730Y008444D01*
X016758Y008430D01*
X016784Y008413D01*
X016807Y008393D01*
X016827Y008370D01*
X016844Y008344D01*
X016858Y008316D01*
X016868Y008287D01*
X016874Y008257D01*
X016876Y008226D01*
X016874Y008195D01*
X016868Y008165D01*
X016858Y008136D01*
X016844Y008108D01*
X016827Y008082D01*
X016807Y008059D01*
X016784Y008039D01*
X016758Y008022D01*
X016730Y008008D01*
X016701Y007998D01*
X016671Y007992D01*
X016640Y007990D01*
X016609Y007992D01*
X016579Y007998D01*
X016550Y008008D01*
X016522Y008022D01*
X016496Y008039D01*
X016473Y008059D01*
X016453Y008082D01*
X016436Y008108D01*
X016422Y008136D01*
X016412Y008165D01*
X016406Y008195D01*
X016404Y008226D01*
X016383Y006656D02*
X016383Y006313D01*
X016314Y006244D01*
X016177Y006244D01*
X016108Y006313D01*
X016108Y006656D01*
X016579Y006519D02*
X016717Y006656D01*
X016717Y006244D01*
X016854Y006244D02*
X016579Y006244D01*
X016774Y005287D02*
X016778Y005384D01*
X016792Y005480D01*
X016813Y005574D01*
X016844Y005666D01*
X016882Y005754D01*
X016929Y005839D01*
X016983Y005920D01*
X017044Y005995D01*
X017111Y006064D01*
X017185Y006127D01*
X017264Y006182D01*
X017348Y006231D01*
X017436Y006271D01*
X017527Y006304D01*
X017621Y006328D01*
X017716Y006343D01*
X017813Y006350D01*
X017910Y006348D01*
X018006Y006337D01*
X018100Y006317D01*
X018193Y006289D01*
X018283Y006252D01*
X018368Y006208D01*
X018450Y006155D01*
X018526Y006096D01*
X018597Y006030D01*
X018662Y005958D01*
X018719Y005880D01*
X018769Y005797D01*
X018812Y005711D01*
X018846Y005620D01*
X018873Y005527D01*
X018890Y005432D01*
X018899Y005335D01*
X018899Y005239D01*
X018890Y005142D01*
X018873Y005047D01*
X018846Y004954D01*
X018812Y004863D01*
X018769Y004777D01*
X018719Y004694D01*
X018662Y004616D01*
X018597Y004544D01*
X018526Y004478D01*
X018450Y004419D01*
X018369Y004366D01*
X018283Y004322D01*
X018193Y004285D01*
X018100Y004257D01*
X018006Y004237D01*
X017910Y004226D01*
X017813Y004224D01*
X017716Y004231D01*
X017621Y004246D01*
X017527Y004270D01*
X017436Y004303D01*
X017348Y004343D01*
X017264Y004392D01*
X017185Y004447D01*
X017111Y004510D01*
X017044Y004579D01*
X016983Y004654D01*
X016929Y004735D01*
X016882Y004820D01*
X016844Y004908D01*
X016813Y005000D01*
X016792Y005094D01*
X016778Y005190D01*
X016774Y005287D01*
X017089Y004539D02*
X018585Y006035D01*
X020132Y005056D02*
X020132Y003456D01*
X022432Y003456D01*
X022432Y005056D01*
X020132Y005056D01*
X020782Y004506D02*
X020782Y004006D01*
X021782Y004006D01*
X021782Y004506D01*
X020782Y004506D01*
X020756Y003316D02*
X020690Y003249D01*
X020690Y002982D01*
X020756Y002916D01*
X020890Y002916D01*
X020956Y002982D01*
X020956Y003249D01*
X020890Y003316D01*
X020756Y003316D01*
X020496Y003249D02*
X020496Y003116D01*
X020429Y003049D01*
X020229Y003049D01*
X020229Y002916D02*
X020229Y003316D01*
X020429Y003316D01*
X020496Y003249D01*
X021150Y003316D02*
X021150Y002916D01*
X021283Y003049D01*
X021417Y002916D01*
X021417Y003316D01*
X021610Y003316D02*
X021610Y002916D01*
X021877Y002916D01*
X022071Y002916D02*
X022071Y003316D01*
X022271Y003316D01*
X022337Y003249D01*
X022337Y003116D01*
X022271Y003049D01*
X022071Y003049D01*
X022204Y003049D02*
X022337Y002916D01*
X021877Y003316D02*
X021610Y003316D01*
X021610Y003116D02*
X021744Y003116D01*
X024481Y003039D02*
X024681Y003039D01*
X024747Y003106D01*
X024747Y003239D01*
X024681Y003306D01*
X024481Y003306D01*
X024481Y002906D01*
X024614Y003039D02*
X024747Y002906D01*
X024941Y002906D02*
X025208Y002906D01*
X025401Y002972D02*
X025468Y002906D01*
X025601Y002906D01*
X025668Y002972D01*
X025862Y002972D02*
X025928Y002906D01*
X026062Y002906D01*
X026128Y002972D01*
X026128Y003239D01*
X026062Y003306D01*
X025928Y003306D01*
X025862Y003239D01*
X025862Y002972D01*
X025668Y003239D02*
X025601Y003306D01*
X025468Y003306D01*
X025401Y003239D01*
X025401Y002972D01*
X025074Y003106D02*
X024941Y003106D01*
X024941Y003306D02*
X024941Y002906D01*
X024941Y003306D02*
X025208Y003306D01*
X025014Y003456D02*
X027314Y003456D01*
X027314Y005056D01*
X025014Y005056D01*
X025014Y003456D01*
X025664Y004006D02*
X026664Y004006D01*
X026664Y004506D01*
X025664Y004506D01*
X025664Y004006D01*
X026322Y003306D02*
X026322Y003039D01*
X026455Y002906D01*
X026589Y003039D01*
X026589Y003306D01*
X026782Y003306D02*
X026782Y002906D01*
X027049Y002906D01*
X027243Y002906D02*
X027243Y003306D01*
X027443Y003306D01*
X027510Y003239D01*
X027510Y003106D01*
X027443Y003039D01*
X027243Y003039D01*
X027376Y003039D02*
X027510Y002906D01*
X027836Y002906D02*
X027836Y003106D01*
X027970Y003239D01*
X027970Y003306D01*
X027836Y003106D02*
X027703Y003239D01*
X027703Y003306D01*
X027049Y003306D02*
X026782Y003306D01*
X026782Y003106D02*
X026916Y003106D01*
X028782Y003156D02*
X028932Y003006D01*
X029632Y003006D01*
X029782Y003156D01*
X029932Y003006D01*
X030632Y003006D01*
X030782Y003156D01*
X030932Y003006D01*
X031632Y003006D01*
X031782Y003156D01*
X031782Y003856D01*
X031932Y004006D01*
X032632Y004006D01*
X032782Y004006D01*
X032782Y003856D01*
X032632Y004006D01*
X032782Y003856D02*
X032782Y003156D01*
X032782Y003006D01*
X032632Y003006D01*
X031932Y003006D01*
X031782Y003156D01*
X031782Y003856D02*
X031632Y004006D01*
X030932Y004006D01*
X030782Y003856D01*
X030632Y004006D01*
X029932Y004006D01*
X029782Y003856D01*
X029632Y004006D01*
X028932Y004006D01*
X028782Y003856D01*
X028782Y003156D01*
X029769Y005124D02*
X029769Y006006D01*
X029365Y005589D02*
X029365Y005322D01*
X029232Y005456D02*
X029499Y005456D01*
X029769Y005124D02*
X035084Y005124D01*
X035084Y008688D01*
X031919Y008688D01*
X032205Y008841D02*
X032205Y009041D01*
X032272Y009108D01*
X032405Y009108D01*
X032472Y009041D01*
X032472Y008841D01*
X032605Y008841D02*
X032205Y008841D01*
X031816Y009074D02*
X029847Y009074D01*
X029769Y008688D02*
X030219Y008688D01*
X029769Y008688D02*
X029769Y007806D01*
X029355Y008224D02*
X029355Y008490D01*
X029221Y008357D02*
X029488Y008357D01*
X028897Y008632D02*
X028747Y008632D01*
X028747Y008482D01*
X028747Y008632D02*
X028597Y008632D01*
X028747Y008632D02*
X028747Y008782D01*
X026877Y009132D02*
X026882Y009243D01*
X026897Y009353D01*
X026922Y009461D01*
X026957Y009567D01*
X027001Y009668D01*
X027055Y009766D01*
X027117Y009858D01*
X027187Y009944D01*
X027264Y010024D01*
X027349Y010096D01*
X027440Y010160D01*
X027536Y010215D01*
X027637Y010262D01*
X027741Y010299D01*
X027849Y010326D01*
X027958Y010344D01*
X028069Y010352D01*
X028180Y010349D01*
X028291Y010337D01*
X028399Y010314D01*
X028506Y010282D01*
X028608Y010240D01*
X028707Y010189D01*
X028801Y010129D01*
X028888Y010061D01*
X028969Y009985D01*
X029043Y009902D01*
X029109Y009813D01*
X029167Y009718D01*
X029216Y009618D01*
X029256Y009514D01*
X029286Y009407D01*
X029306Y009298D01*
X029316Y009188D01*
X029316Y009076D01*
X029306Y008966D01*
X029286Y008857D01*
X029256Y008750D01*
X029216Y008646D01*
X029167Y008546D01*
X029109Y008451D01*
X029043Y008362D01*
X028969Y008279D01*
X028888Y008203D01*
X028801Y008135D01*
X028707Y008075D01*
X028608Y008024D01*
X028506Y007982D01*
X028399Y007950D01*
X028291Y007927D01*
X028180Y007915D01*
X028069Y007912D01*
X027958Y007920D01*
X027849Y007938D01*
X027741Y007965D01*
X027637Y008002D01*
X027536Y008049D01*
X027440Y008104D01*
X027349Y008168D01*
X027264Y008240D01*
X027187Y008320D01*
X027117Y008406D01*
X027055Y008498D01*
X027001Y008596D01*
X026957Y008697D01*
X026922Y008803D01*
X026897Y008911D01*
X026882Y009021D01*
X026877Y009132D01*
X026988Y008454D02*
X026588Y008454D01*
X026568Y008452D01*
X026550Y008446D01*
X026532Y008437D01*
X026517Y008425D01*
X026505Y008410D01*
X026496Y008392D01*
X026490Y008374D01*
X026488Y008354D01*
X026488Y007154D01*
X026490Y007134D01*
X026496Y007116D01*
X026505Y007098D01*
X026517Y007083D01*
X026532Y007071D01*
X026550Y007062D01*
X026568Y007056D01*
X026588Y007054D01*
X026988Y007054D01*
X027008Y007056D01*
X027026Y007062D01*
X027044Y007071D01*
X027059Y007083D01*
X027071Y007098D01*
X027080Y007116D01*
X027086Y007134D01*
X027088Y007154D01*
X027088Y008354D01*
X027086Y008374D01*
X027080Y008392D01*
X027071Y008410D01*
X027059Y008425D01*
X027044Y008437D01*
X027026Y008446D01*
X027008Y008452D01*
X026988Y008454D01*
X026281Y008354D02*
X026281Y007154D01*
X026279Y007134D01*
X026273Y007116D01*
X026264Y007098D01*
X026252Y007083D01*
X026237Y007071D01*
X026219Y007062D01*
X026201Y007056D01*
X026181Y007054D01*
X025781Y007054D01*
X025761Y007056D01*
X025743Y007062D01*
X025725Y007071D01*
X025710Y007083D01*
X025698Y007098D01*
X025689Y007116D01*
X025683Y007134D01*
X025681Y007154D01*
X025681Y008354D01*
X025683Y008374D01*
X025689Y008392D01*
X025698Y008410D01*
X025710Y008425D01*
X025725Y008437D01*
X025743Y008446D01*
X025761Y008452D01*
X025781Y008454D01*
X026181Y008454D01*
X026201Y008452D01*
X026219Y008446D01*
X026237Y008437D01*
X026252Y008425D01*
X026264Y008410D01*
X026273Y008392D01*
X026279Y008374D01*
X026281Y008354D01*
X025473Y008354D02*
X025473Y007154D01*
X025471Y007134D01*
X025465Y007116D01*
X025456Y007098D01*
X025444Y007083D01*
X025429Y007071D01*
X025411Y007062D01*
X025393Y007056D01*
X025373Y007054D01*
X024973Y007054D01*
X024953Y007056D01*
X024935Y007062D01*
X024917Y007071D01*
X024902Y007083D01*
X024890Y007098D01*
X024881Y007116D01*
X024875Y007134D01*
X024873Y007154D01*
X024873Y008354D01*
X024875Y008374D01*
X024881Y008392D01*
X024890Y008410D01*
X024902Y008425D01*
X024917Y008437D01*
X024935Y008446D01*
X024953Y008452D01*
X024973Y008454D01*
X025373Y008454D01*
X025393Y008452D01*
X025411Y008446D01*
X025429Y008437D01*
X025444Y008425D01*
X025456Y008410D01*
X025465Y008392D01*
X025471Y008374D01*
X025473Y008354D01*
X025478Y010436D02*
X025545Y010436D01*
X025612Y010502D01*
X025612Y010636D01*
X025678Y010703D01*
X025745Y010703D01*
X025812Y010636D01*
X025812Y010502D01*
X025745Y010436D01*
X025478Y010436D02*
X025411Y010502D01*
X025411Y010636D01*
X025478Y010703D01*
X025411Y010896D02*
X025411Y011096D01*
X025478Y011163D01*
X025745Y011163D01*
X025812Y011096D01*
X025812Y010896D01*
X025411Y010896D01*
X025812Y011356D02*
X025411Y011623D01*
X025411Y011817D02*
X025545Y011950D01*
X025411Y012084D01*
X025812Y012084D01*
X025812Y012277D02*
X025411Y012277D01*
X025545Y012411D01*
X025411Y012544D01*
X025812Y012544D01*
X025745Y012737D02*
X025812Y012804D01*
X025812Y012938D01*
X025745Y013004D01*
X025745Y012737D02*
X025478Y012737D01*
X025411Y012804D01*
X025411Y012938D01*
X025478Y013004D01*
X024202Y012953D02*
X022102Y014328D01*
X022327Y014178D02*
X022307Y014148D01*
X022285Y014121D01*
X022259Y014095D01*
X022232Y014073D01*
X022202Y014053D01*
X022184Y014042D01*
X022167Y014027D01*
X022153Y014010D01*
X022142Y013991D01*
X022134Y013971D01*
X022129Y013950D01*
X022127Y013928D01*
X022127Y013503D01*
X022252Y013453D02*
X022277Y013453D01*
X022277Y013853D01*
X022127Y013503D02*
X022129Y013480D01*
X022134Y013457D01*
X022143Y013435D01*
X022156Y013415D01*
X022171Y013397D01*
X022189Y013382D01*
X022209Y013369D01*
X022231Y013360D01*
X022254Y013355D01*
X022277Y013353D01*
X022287Y013355D01*
X022295Y013360D01*
X022300Y013368D01*
X022302Y013378D01*
X022302Y013428D01*
X022300Y013438D01*
X022295Y013446D01*
X022287Y013451D01*
X022277Y013453D01*
X022252Y013453D02*
X022239Y013451D01*
X022227Y013446D01*
X022217Y013438D01*
X022209Y013428D01*
X022204Y013416D01*
X022202Y013403D01*
X022502Y013378D02*
X022562Y013378D01*
X022502Y013378D02*
X022485Y013386D01*
X022471Y013397D01*
X022460Y013411D01*
X022452Y013428D01*
X022452Y013427D02*
X022444Y013447D01*
X022439Y013468D01*
X022437Y013490D01*
X022439Y013512D01*
X022444Y013533D01*
X022452Y013553D01*
X022578Y013378D02*
X022581Y013414D01*
X022589Y013449D01*
X022601Y013483D01*
X022616Y013516D01*
X022634Y013547D01*
X022656Y013576D01*
X022680Y013602D01*
X022708Y013626D01*
X022737Y013647D01*
X022769Y013664D01*
X022803Y013678D01*
X022327Y014178D02*
X022354Y014213D01*
X022383Y014246D01*
X022415Y014276D01*
X022449Y014304D01*
X022485Y014329D01*
X022524Y014351D01*
X022564Y014369D01*
X022605Y014385D01*
X022648Y014396D01*
X022691Y014404D01*
X022735Y014409D01*
X022779Y014410D01*
X022823Y014407D01*
X022867Y014401D01*
X022910Y014391D01*
X022952Y014377D01*
X023038Y014353D02*
X023502Y014353D01*
X022802Y015753D01*
X021402Y012953D01*
X024202Y012953D01*
X023677Y014003D01*
X023552Y014003D01*
X023677Y014003D02*
X023502Y014353D01*
X023037Y014353D02*
X023019Y014352D01*
X023001Y014354D01*
X022984Y014360D01*
X022967Y014367D01*
X022952Y014378D01*
X023352Y013928D02*
X023324Y013897D01*
X023293Y013869D01*
X023260Y013843D01*
X023225Y013820D01*
X023188Y013800D01*
X023149Y013783D01*
X023110Y013770D01*
X023069Y013760D01*
X023027Y013753D01*
X023352Y013928D02*
X023372Y013947D01*
X023394Y013964D01*
X023418Y013978D01*
X023443Y013989D01*
X023470Y013997D01*
X023497Y014002D01*
X023524Y014004D01*
X023552Y014003D01*
X022828Y013853D02*
X022784Y013842D01*
X022741Y013827D01*
X022700Y013808D01*
X022660Y013786D01*
X022623Y013761D01*
X022587Y013733D01*
X022554Y013702D01*
X022524Y013668D01*
X022497Y013632D01*
X022473Y013593D01*
X022452Y013553D01*
X022277Y013853D02*
X022314Y013861D01*
X022350Y013871D01*
X022384Y013885D01*
X022417Y013902D01*
X022449Y013922D01*
X022478Y013945D01*
X022505Y013970D01*
X022530Y013998D01*
X022552Y014028D01*
X022802Y013678D02*
X022860Y013697D01*
X022918Y013713D01*
X022977Y013728D01*
X026282Y014802D02*
X026282Y015943D01*
X026872Y016573D02*
X029707Y016573D01*
X029632Y017006D02*
X028932Y017006D01*
X028782Y017156D01*
X028782Y017856D01*
X028932Y018006D01*
X029632Y018006D01*
X029782Y017856D01*
X029932Y018006D01*
X030632Y018006D01*
X030782Y017856D01*
X030932Y018006D01*
X031632Y018006D01*
X031782Y017856D01*
X031782Y017156D01*
X031632Y017006D01*
X030932Y017006D01*
X030782Y017156D01*
X030632Y017006D01*
X029932Y017006D01*
X029782Y017156D01*
X029632Y017006D01*
X028619Y017026D02*
X028619Y016888D01*
X028551Y016819D01*
X028413Y016819D01*
X028345Y016888D01*
X028345Y017163D01*
X028413Y017232D01*
X028551Y017232D01*
X028619Y017163D01*
X028619Y017026D02*
X028482Y017026D01*
X028148Y017026D02*
X027873Y017026D01*
X027873Y017094D02*
X028011Y017232D01*
X028148Y017094D01*
X028148Y016819D01*
X027873Y016819D02*
X027873Y017094D01*
X027677Y017232D02*
X027402Y017232D01*
X027540Y017232D02*
X027540Y016819D01*
X027137Y016888D02*
X027137Y017232D01*
X027068Y017232D02*
X027206Y017232D01*
X026734Y017163D02*
X026666Y017232D01*
X026528Y017232D01*
X026460Y017163D01*
X026460Y017094D01*
X026528Y017026D01*
X026666Y017026D01*
X026734Y016957D01*
X026734Y016888D01*
X026666Y016819D01*
X026528Y016819D01*
X026460Y016888D01*
X026931Y016888D02*
X027000Y016819D01*
X027068Y016819D01*
X027137Y016888D01*
X030809Y016573D02*
X031990Y016573D01*
X031990Y015274D01*
X031715Y014329D01*
X031715Y010786D01*
X030809Y010786D01*
X029847Y010337D02*
X031816Y010337D01*
X032205Y009962D02*
X032272Y010028D01*
X032405Y010028D01*
X032472Y009962D01*
X032472Y009761D01*
X032605Y009761D02*
X032205Y009761D01*
X032205Y009962D01*
X032472Y009895D02*
X032605Y010028D01*
X032605Y009568D02*
X032205Y009568D01*
X032205Y009301D02*
X032605Y009301D01*
X032472Y009434D01*
X032605Y009568D01*
X031082Y009456D02*
X030682Y009706D01*
X031082Y009956D01*
X031082Y009456D01*
X030682Y009456D02*
X030682Y009956D01*
X029707Y010786D02*
X026872Y010786D01*
X025812Y011817D02*
X025411Y011817D01*
X031782Y017156D02*
X031932Y017006D01*
X032632Y017006D01*
X032782Y017006D01*
X032782Y017156D01*
X032632Y017006D01*
X032782Y017156D02*
X032782Y017856D01*
X032782Y018006D01*
X032632Y018006D01*
X031932Y018006D01*
X031782Y017856D01*
X032632Y018006D02*
X032782Y017856D01*
X026877Y006218D02*
X026882Y006329D01*
X026897Y006439D01*
X026922Y006547D01*
X026957Y006653D01*
X027001Y006754D01*
X027055Y006852D01*
X027117Y006944D01*
X027187Y007030D01*
X027264Y007110D01*
X027349Y007182D01*
X027440Y007246D01*
X027536Y007301D01*
X027637Y007348D01*
X027741Y007385D01*
X027849Y007412D01*
X027958Y007430D01*
X028069Y007438D01*
X028180Y007435D01*
X028291Y007423D01*
X028399Y007400D01*
X028506Y007368D01*
X028608Y007326D01*
X028707Y007275D01*
X028801Y007215D01*
X028888Y007147D01*
X028969Y007071D01*
X029043Y006988D01*
X029109Y006899D01*
X029167Y006804D01*
X029216Y006704D01*
X029256Y006600D01*
X029286Y006493D01*
X029306Y006384D01*
X029316Y006274D01*
X029316Y006162D01*
X029306Y006052D01*
X029286Y005943D01*
X029256Y005836D01*
X029216Y005732D01*
X029167Y005632D01*
X029109Y005537D01*
X029043Y005448D01*
X028969Y005365D01*
X028888Y005289D01*
X028801Y005221D01*
X028707Y005161D01*
X028608Y005110D01*
X028506Y005068D01*
X028399Y005036D01*
X028291Y005013D01*
X028180Y005001D01*
X028069Y004998D01*
X027958Y005006D01*
X027849Y005024D01*
X027741Y005051D01*
X027637Y005088D01*
X027536Y005135D01*
X027440Y005190D01*
X027349Y005254D01*
X027264Y005326D01*
X027187Y005406D01*
X027117Y005492D01*
X027055Y005584D01*
X027001Y005682D01*
X026957Y005783D01*
X026922Y005889D01*
X026897Y005997D01*
X026882Y006107D01*
X026877Y006218D01*
X028597Y005718D02*
X028747Y005718D01*
X028747Y005568D01*
X028747Y005718D02*
X028747Y005868D01*
X028747Y005718D02*
X028897Y005718D01*
X032632Y003006D02*
X032782Y003156D01*
X014932Y003456D02*
X014932Y005056D01*
X012632Y005056D01*
X012632Y003456D01*
X014932Y003456D01*
X014836Y003324D02*
X014569Y003324D01*
X014702Y003324D02*
X014702Y002924D01*
X014375Y002924D02*
X014108Y002924D01*
X014108Y003324D01*
X014375Y003324D01*
X014242Y003124D02*
X014108Y003124D01*
X013915Y003057D02*
X013915Y002990D01*
X013848Y002924D01*
X013715Y002924D01*
X013648Y002990D01*
X013715Y003124D02*
X013648Y003191D01*
X013648Y003257D01*
X013715Y003324D01*
X013848Y003324D01*
X013915Y003257D01*
X013848Y003124D02*
X013915Y003057D01*
X013848Y003124D02*
X013715Y003124D01*
X013455Y003324D02*
X013188Y003324D01*
X013188Y002924D01*
X013455Y002924D01*
X013321Y003124D02*
X013188Y003124D01*
X012994Y003124D02*
X012927Y003057D01*
X012727Y003057D01*
X012727Y002924D02*
X012727Y003324D01*
X012927Y003324D01*
X012994Y003257D01*
X012994Y003124D01*
X012861Y003057D02*
X012994Y002924D01*
X013282Y004006D02*
X013282Y004506D01*
X014282Y004506D01*
X014282Y004006D01*
X013282Y004006D01*
X008613Y003924D02*
X008613Y003887D01*
X007974Y003887D01*
X007974Y003924D01*
X007974Y004241D02*
X007974Y004278D01*
X007974Y004615D02*
X007974Y004652D01*
X007974Y004969D02*
X007974Y005007D01*
X008613Y005007D01*
X008613Y004969D01*
X008613Y004652D02*
X008613Y004241D01*
X005532Y005458D02*
X005532Y005725D01*
X004172Y004348D02*
X003572Y004348D01*
X003572Y003848D01*
X003572Y003548D02*
X003572Y003098D01*
X004172Y003098D01*
X004172Y003548D01*
X004172Y003848D02*
X004172Y004348D01*
X004172Y003098D02*
X004122Y003048D01*
X004072Y002998D01*
X003672Y002998D01*
X003622Y003048D01*
X003572Y003098D01*
X003622Y003048D02*
X004122Y003048D01*
D15*
X029162Y004141D02*
X029162Y004283D01*
X029210Y004330D01*
X029399Y004330D01*
X029447Y004283D01*
X029447Y004141D01*
X029162Y004141D01*
X029162Y004467D02*
X029162Y004609D01*
X029210Y004657D01*
X029257Y004657D01*
X029304Y004609D01*
X029304Y004467D01*
X029162Y004467D02*
X029447Y004467D01*
X029447Y004609D01*
X029399Y004657D01*
X029352Y004657D01*
X029304Y004609D01*
X029210Y004793D02*
X029399Y004793D01*
X029447Y004841D01*
X029447Y004935D01*
X029399Y004983D01*
X029304Y004983D01*
X029304Y004888D01*
X029210Y004793D02*
X029162Y004841D01*
X029162Y004935D01*
X029210Y004983D01*
X030162Y004935D02*
X030162Y004793D01*
X030447Y004793D01*
X030447Y004935D01*
X030399Y004983D01*
X030210Y004983D01*
X030162Y004935D01*
X030162Y004657D02*
X030447Y004657D01*
X030162Y004467D01*
X030447Y004467D01*
X030399Y004330D02*
X030304Y004330D01*
X030304Y004236D01*
X030210Y004330D02*
X030162Y004283D01*
X030162Y004188D01*
X030210Y004141D01*
X030399Y004141D01*
X030447Y004188D01*
X030447Y004283D01*
X030399Y004330D01*
D16*
X012113Y007143D02*
X012062Y007217D01*
X012063Y007217D02*
X012104Y007247D01*
X012144Y007281D01*
X012181Y007317D01*
X012215Y007356D01*
X012247Y007397D01*
X012276Y007440D01*
X012301Y007485D01*
X012324Y007531D01*
X012343Y007579D01*
X012359Y007629D01*
X012372Y007679D01*
X012381Y007730D01*
X012387Y007781D01*
X012389Y007833D01*
X012478Y007834D01*
X012479Y007833D01*
X012477Y007775D01*
X012470Y007717D01*
X012460Y007660D01*
X012446Y007604D01*
X012428Y007549D01*
X012406Y007495D01*
X012381Y007443D01*
X012352Y007392D01*
X012320Y007344D01*
X012284Y007298D01*
X012246Y007255D01*
X012204Y007214D01*
X012160Y007177D01*
X012113Y007142D01*
X012108Y007150D01*
X012154Y007184D01*
X012198Y007221D01*
X012239Y007261D01*
X012277Y007304D01*
X012312Y007350D01*
X012344Y007397D01*
X012373Y007447D01*
X012398Y007499D01*
X012420Y007552D01*
X012437Y007606D01*
X012451Y007662D01*
X012461Y007719D01*
X012468Y007776D01*
X012470Y007833D01*
X012461Y007833D01*
X012459Y007776D01*
X012453Y007720D01*
X012442Y007664D01*
X012429Y007609D01*
X012411Y007555D01*
X012390Y007502D01*
X012365Y007451D01*
X012337Y007402D01*
X012305Y007355D01*
X012270Y007310D01*
X012233Y007267D01*
X012192Y007228D01*
X012149Y007191D01*
X012103Y007157D01*
X012098Y007164D01*
X012143Y007198D01*
X012186Y007234D01*
X012226Y007274D01*
X012263Y007316D01*
X012298Y007360D01*
X012329Y007407D01*
X012357Y007455D01*
X012382Y007506D01*
X012403Y007558D01*
X012420Y007611D01*
X012434Y007666D01*
X012444Y007721D01*
X012450Y007777D01*
X012452Y007833D01*
X012443Y007833D01*
X012441Y007778D01*
X012435Y007722D01*
X012425Y007668D01*
X012411Y007614D01*
X012394Y007561D01*
X012373Y007510D01*
X012349Y007460D01*
X012321Y007411D01*
X012291Y007365D01*
X012257Y007321D01*
X012220Y007280D01*
X012180Y007241D01*
X012138Y007205D01*
X012093Y007172D01*
X012088Y007179D01*
X012132Y007212D01*
X012174Y007248D01*
X012213Y007286D01*
X012250Y007327D01*
X012283Y007371D01*
X012314Y007416D01*
X012341Y007464D01*
X012365Y007513D01*
X012386Y007564D01*
X012403Y007616D01*
X012416Y007670D01*
X012426Y007724D01*
X012432Y007778D01*
X012434Y007833D01*
X012425Y007833D01*
X012423Y007779D01*
X012417Y007725D01*
X012407Y007671D01*
X012394Y007619D01*
X012377Y007567D01*
X012357Y007517D01*
X012333Y007468D01*
X012306Y007421D01*
X012276Y007376D01*
X012243Y007333D01*
X012207Y007292D01*
X012168Y007254D01*
X012127Y007219D01*
X012083Y007187D01*
X012078Y007194D01*
X012121Y007226D01*
X012162Y007261D01*
X012200Y007299D01*
X012236Y007339D01*
X012269Y007381D01*
X012298Y007426D01*
X012325Y007472D01*
X012349Y007521D01*
X012369Y007570D01*
X012385Y007621D01*
X012398Y007673D01*
X012408Y007726D01*
X012414Y007779D01*
X012416Y007833D01*
X012407Y007833D01*
X012405Y007780D01*
X012399Y007727D01*
X012390Y007675D01*
X012377Y007624D01*
X012360Y007573D01*
X012340Y007524D01*
X012317Y007476D01*
X012291Y007430D01*
X012261Y007386D01*
X012229Y007344D01*
X012194Y007305D01*
X012156Y007268D01*
X012116Y007233D01*
X012073Y007202D01*
X012068Y007209D01*
X012110Y007240D01*
X012150Y007274D01*
X012187Y007311D01*
X012222Y007350D01*
X012254Y007392D01*
X012283Y007435D01*
X012309Y007481D01*
X012332Y007528D01*
X012352Y007576D01*
X012368Y007626D01*
X012381Y007677D01*
X012390Y007729D01*
X012396Y007781D01*
X012398Y007833D01*
X010790Y007833D02*
X010880Y007833D01*
X010879Y007833D02*
X010881Y007781D01*
X010887Y007730D01*
X010896Y007679D01*
X010909Y007629D01*
X010925Y007579D01*
X010944Y007531D01*
X010967Y007485D01*
X010992Y007440D01*
X011021Y007397D01*
X011053Y007356D01*
X011087Y007317D01*
X011124Y007281D01*
X011164Y007247D01*
X011205Y007217D01*
X011155Y007143D01*
X011155Y007142D01*
X011108Y007177D01*
X011064Y007214D01*
X011022Y007255D01*
X010984Y007298D01*
X010948Y007344D01*
X010916Y007392D01*
X010887Y007443D01*
X010862Y007495D01*
X010840Y007549D01*
X010822Y007604D01*
X010808Y007660D01*
X010798Y007717D01*
X010791Y007775D01*
X010789Y007833D01*
X010798Y007833D01*
X010800Y007776D01*
X010807Y007719D01*
X010817Y007662D01*
X010831Y007606D01*
X010849Y007552D01*
X010870Y007499D01*
X010895Y007447D01*
X010924Y007397D01*
X010956Y007349D01*
X010991Y007304D01*
X011029Y007261D01*
X011070Y007221D01*
X011114Y007184D01*
X011160Y007150D01*
X011165Y007157D01*
X011119Y007191D01*
X011076Y007228D01*
X011035Y007267D01*
X010998Y007310D01*
X010963Y007355D01*
X010931Y007402D01*
X010903Y007451D01*
X010878Y007502D01*
X010857Y007555D01*
X010839Y007609D01*
X010826Y007664D01*
X010815Y007720D01*
X010809Y007776D01*
X010807Y007833D01*
X010816Y007833D01*
X010818Y007777D01*
X010824Y007721D01*
X010834Y007666D01*
X010848Y007611D01*
X010865Y007558D01*
X010886Y007506D01*
X010911Y007455D01*
X010939Y007407D01*
X010970Y007360D01*
X011005Y007316D01*
X011042Y007274D01*
X011082Y007234D01*
X011125Y007198D01*
X011170Y007164D01*
X011175Y007172D01*
X011130Y007205D01*
X011088Y007241D01*
X011048Y007280D01*
X011011Y007321D01*
X010977Y007365D01*
X010947Y007411D01*
X010919Y007460D01*
X010895Y007510D01*
X010874Y007561D01*
X010857Y007614D01*
X010843Y007668D01*
X010833Y007722D01*
X010827Y007777D01*
X010825Y007833D01*
X010834Y007833D01*
X010836Y007778D01*
X010842Y007724D01*
X010852Y007670D01*
X010865Y007616D01*
X010882Y007564D01*
X010903Y007513D01*
X010927Y007464D01*
X010954Y007416D01*
X010985Y007371D01*
X011018Y007327D01*
X011055Y007286D01*
X011094Y007248D01*
X011136Y007212D01*
X011180Y007179D01*
X011185Y007187D01*
X011141Y007219D01*
X011100Y007254D01*
X011061Y007292D01*
X011025Y007333D01*
X010992Y007376D01*
X010962Y007421D01*
X010935Y007468D01*
X010911Y007517D01*
X010891Y007567D01*
X010874Y007619D01*
X010861Y007671D01*
X010851Y007725D01*
X010845Y007779D01*
X010843Y007833D01*
X010852Y007833D01*
X010854Y007779D01*
X010860Y007726D01*
X010870Y007673D01*
X010883Y007621D01*
X010899Y007570D01*
X010919Y007520D01*
X010943Y007472D01*
X010970Y007426D01*
X010999Y007381D01*
X011032Y007339D01*
X011068Y007299D01*
X011106Y007261D01*
X011147Y007226D01*
X011190Y007194D01*
X011195Y007202D01*
X011153Y007233D01*
X011112Y007268D01*
X011074Y007305D01*
X011039Y007344D01*
X011007Y007386D01*
X010977Y007430D01*
X010951Y007476D01*
X010928Y007524D01*
X010908Y007573D01*
X010891Y007624D01*
X010878Y007675D01*
X010869Y007727D01*
X010863Y007780D01*
X010861Y007833D01*
X010870Y007833D01*
X010872Y007781D01*
X010878Y007729D01*
X010887Y007677D01*
X010900Y007626D01*
X010916Y007576D01*
X010936Y007528D01*
X010959Y007481D01*
X010985Y007435D01*
X011014Y007392D01*
X011046Y007350D01*
X011081Y007311D01*
X011118Y007274D01*
X011158Y007240D01*
X011200Y007209D01*
X012126Y007605D02*
X012045Y007645D01*
X012046Y007644D02*
X012061Y007680D01*
X012073Y007717D01*
X012081Y007755D01*
X012087Y007794D01*
X012089Y007833D01*
X012178Y007834D01*
X012179Y007833D01*
X012177Y007794D01*
X012173Y007755D01*
X012165Y007716D01*
X012155Y007678D01*
X012142Y007641D01*
X012127Y007605D01*
X012119Y007609D01*
X012137Y007652D01*
X012151Y007696D01*
X012161Y007741D01*
X012168Y007787D01*
X012170Y007833D01*
X012161Y007833D01*
X012159Y007788D01*
X012152Y007742D01*
X012142Y007698D01*
X012128Y007655D01*
X012110Y007613D01*
X012102Y007617D01*
X012120Y007658D01*
X012133Y007700D01*
X012143Y007744D01*
X012150Y007788D01*
X012152Y007833D01*
X012143Y007833D01*
X012141Y007789D01*
X012135Y007746D01*
X012125Y007703D01*
X012111Y007661D01*
X012094Y007621D01*
X012086Y007625D01*
X012103Y007664D01*
X012116Y007705D01*
X012126Y007747D01*
X012132Y007790D01*
X012134Y007833D01*
X012125Y007833D01*
X012123Y007791D01*
X012117Y007749D01*
X012107Y007708D01*
X012094Y007667D01*
X012078Y007628D01*
X012070Y007632D01*
X012086Y007671D01*
X012099Y007710D01*
X012108Y007751D01*
X012114Y007792D01*
X012116Y007833D01*
X012107Y007833D01*
X012105Y007792D01*
X012099Y007752D01*
X012090Y007713D01*
X012078Y007674D01*
X012062Y007636D01*
X012054Y007640D01*
X012069Y007677D01*
X012081Y007715D01*
X012090Y007754D01*
X012096Y007793D01*
X012098Y007833D01*
X011090Y007834D02*
X011180Y007834D01*
X011179Y007833D02*
X011181Y007794D01*
X011187Y007755D01*
X011195Y007717D01*
X011207Y007680D01*
X011222Y007644D01*
X011142Y007605D01*
X011141Y007605D01*
X011126Y007641D01*
X011113Y007678D01*
X011103Y007716D01*
X011095Y007755D01*
X011091Y007794D01*
X011089Y007833D01*
X011098Y007833D01*
X011100Y007787D01*
X011107Y007741D01*
X011117Y007696D01*
X011131Y007652D01*
X011149Y007609D01*
X011158Y007613D01*
X011140Y007655D01*
X011126Y007698D01*
X011116Y007742D01*
X011109Y007788D01*
X011107Y007833D01*
X011116Y007833D01*
X011118Y007788D01*
X011125Y007744D01*
X011135Y007700D01*
X011148Y007658D01*
X011166Y007617D01*
X011174Y007621D01*
X011157Y007661D01*
X011143Y007703D01*
X011133Y007746D01*
X011127Y007789D01*
X011125Y007833D01*
X011134Y007833D01*
X011136Y007790D01*
X011142Y007747D01*
X011152Y007705D01*
X011165Y007664D01*
X011182Y007625D01*
X011190Y007628D01*
X011174Y007667D01*
X011161Y007708D01*
X011151Y007749D01*
X011145Y007791D01*
X011143Y007833D01*
X011152Y007833D01*
X011154Y007792D01*
X011160Y007751D01*
X011169Y007710D01*
X011182Y007671D01*
X011198Y007632D01*
X011206Y007636D01*
X011190Y007674D01*
X011178Y007713D01*
X011169Y007752D01*
X011163Y007792D01*
X011161Y007833D01*
X011170Y007833D01*
X011172Y007793D01*
X011178Y007754D01*
X011187Y007715D01*
X011199Y007677D01*
X011214Y007640D01*
X012178Y010542D02*
X012088Y010542D01*
X012089Y010543D02*
X012087Y010582D01*
X012081Y010621D01*
X012073Y010659D01*
X012061Y010696D01*
X012046Y010732D01*
X012126Y010771D01*
X012127Y010771D01*
X012142Y010735D01*
X012155Y010698D01*
X012165Y010660D01*
X012173Y010621D01*
X012177Y010582D01*
X012179Y010543D01*
X012170Y010543D01*
X012168Y010589D01*
X012161Y010635D01*
X012151Y010680D01*
X012137Y010724D01*
X012119Y010767D01*
X012110Y010763D01*
X012128Y010721D01*
X012142Y010678D01*
X012152Y010634D01*
X012159Y010588D01*
X012161Y010543D01*
X012152Y010543D01*
X012150Y010588D01*
X012143Y010632D01*
X012133Y010676D01*
X012120Y010718D01*
X012102Y010759D01*
X012094Y010755D01*
X012111Y010715D01*
X012125Y010673D01*
X012135Y010630D01*
X012141Y010587D01*
X012143Y010543D01*
X012134Y010543D01*
X012132Y010586D01*
X012126Y010629D01*
X012116Y010671D01*
X012103Y010712D01*
X012086Y010751D01*
X012078Y010748D01*
X012094Y010709D01*
X012107Y010668D01*
X012117Y010627D01*
X012123Y010585D01*
X012125Y010543D01*
X012116Y010543D01*
X012114Y010584D01*
X012108Y010625D01*
X012099Y010666D01*
X012086Y010705D01*
X012070Y010744D01*
X012062Y010740D01*
X012078Y010702D01*
X012090Y010663D01*
X012099Y010624D01*
X012105Y010584D01*
X012107Y010543D01*
X012098Y010543D01*
X012096Y010583D01*
X012090Y010622D01*
X012081Y010661D01*
X012069Y010699D01*
X012054Y010736D01*
X011142Y010771D02*
X011223Y010731D01*
X011222Y010732D02*
X011207Y010696D01*
X011195Y010659D01*
X011187Y010621D01*
X011181Y010582D01*
X011179Y010543D01*
X011090Y010542D01*
X011089Y010543D01*
X011091Y010582D01*
X011095Y010621D01*
X011103Y010660D01*
X011113Y010698D01*
X011126Y010735D01*
X011141Y010771D01*
X011149Y010767D01*
X011131Y010724D01*
X011117Y010680D01*
X011107Y010635D01*
X011100Y010589D01*
X011098Y010543D01*
X011107Y010543D01*
X011109Y010588D01*
X011116Y010634D01*
X011126Y010678D01*
X011140Y010721D01*
X011158Y010763D01*
X011166Y010759D01*
X011148Y010718D01*
X011135Y010676D01*
X011125Y010632D01*
X011118Y010588D01*
X011116Y010543D01*
X011125Y010543D01*
X011127Y010587D01*
X011133Y010630D01*
X011143Y010673D01*
X011157Y010715D01*
X011174Y010755D01*
X011182Y010751D01*
X011165Y010712D01*
X011152Y010671D01*
X011142Y010629D01*
X011136Y010586D01*
X011134Y010543D01*
X011143Y010543D01*
X011145Y010585D01*
X011151Y010627D01*
X011161Y010668D01*
X011174Y010709D01*
X011190Y010748D01*
X011198Y010744D01*
X011182Y010705D01*
X011169Y010666D01*
X011160Y010625D01*
X011154Y010584D01*
X011152Y010543D01*
X011161Y010543D01*
X011163Y010584D01*
X011169Y010624D01*
X011178Y010663D01*
X011190Y010702D01*
X011206Y010740D01*
X011214Y010736D01*
X011199Y010699D01*
X011187Y010661D01*
X011178Y010622D01*
X011172Y010583D01*
X011170Y010543D01*
X011155Y011233D02*
X011206Y011159D01*
X011205Y011159D02*
X011164Y011129D01*
X011124Y011095D01*
X011087Y011059D01*
X011053Y011020D01*
X011021Y010979D01*
X010992Y010936D01*
X010967Y010891D01*
X010944Y010845D01*
X010925Y010797D01*
X010909Y010747D01*
X010896Y010697D01*
X010887Y010646D01*
X010881Y010595D01*
X010879Y010543D01*
X010790Y010542D01*
X010789Y010543D01*
X010791Y010601D01*
X010798Y010659D01*
X010808Y010716D01*
X010822Y010772D01*
X010840Y010827D01*
X010862Y010881D01*
X010887Y010933D01*
X010916Y010984D01*
X010948Y011032D01*
X010984Y011078D01*
X011022Y011121D01*
X011064Y011162D01*
X011108Y011199D01*
X011155Y011234D01*
X011160Y011226D01*
X011114Y011192D01*
X011070Y011155D01*
X011029Y011115D01*
X010991Y011072D01*
X010956Y011026D01*
X010924Y010979D01*
X010895Y010929D01*
X010870Y010877D01*
X010848Y010824D01*
X010831Y010770D01*
X010817Y010714D01*
X010807Y010657D01*
X010800Y010600D01*
X010798Y010543D01*
X010807Y010543D01*
X010809Y010600D01*
X010815Y010656D01*
X010826Y010712D01*
X010839Y010767D01*
X010857Y010821D01*
X010878Y010874D01*
X010903Y010925D01*
X010931Y010974D01*
X010963Y011021D01*
X010998Y011066D01*
X011035Y011109D01*
X011076Y011148D01*
X011119Y011185D01*
X011165Y011219D01*
X011170Y011212D01*
X011125Y011178D01*
X011082Y011142D01*
X011042Y011102D01*
X011005Y011060D01*
X010970Y011016D01*
X010939Y010969D01*
X010911Y010921D01*
X010886Y010870D01*
X010865Y010818D01*
X010848Y010765D01*
X010834Y010710D01*
X010824Y010655D01*
X010818Y010599D01*
X010816Y010543D01*
X010825Y010543D01*
X010827Y010598D01*
X010833Y010654D01*
X010843Y010708D01*
X010857Y010762D01*
X010874Y010815D01*
X010895Y010866D01*
X010919Y010916D01*
X010947Y010965D01*
X010977Y011011D01*
X011011Y011055D01*
X011048Y011096D01*
X011088Y011135D01*
X011130Y011171D01*
X011175Y011204D01*
X011180Y011197D01*
X011136Y011164D01*
X011094Y011128D01*
X011055Y011090D01*
X011018Y011049D01*
X010985Y011005D01*
X010954Y010960D01*
X010927Y010912D01*
X010903Y010863D01*
X010882Y010812D01*
X010865Y010760D01*
X010852Y010706D01*
X010842Y010652D01*
X010836Y010598D01*
X010834Y010543D01*
X010843Y010543D01*
X010845Y010597D01*
X010851Y010651D01*
X010861Y010705D01*
X010874Y010757D01*
X010891Y010809D01*
X010911Y010859D01*
X010935Y010908D01*
X010962Y010955D01*
X010992Y011000D01*
X011025Y011043D01*
X011061Y011084D01*
X011100Y011122D01*
X011141Y011157D01*
X011185Y011189D01*
X011190Y011182D01*
X011147Y011150D01*
X011106Y011115D01*
X011068Y011077D01*
X011032Y011037D01*
X010999Y010995D01*
X010970Y010950D01*
X010943Y010904D01*
X010919Y010855D01*
X010899Y010806D01*
X010883Y010755D01*
X010870Y010703D01*
X010860Y010650D01*
X010854Y010597D01*
X010852Y010543D01*
X010861Y010543D01*
X010863Y010596D01*
X010869Y010649D01*
X010878Y010701D01*
X010891Y010752D01*
X010908Y010803D01*
X010928Y010852D01*
X010951Y010900D01*
X010977Y010946D01*
X011007Y010990D01*
X011039Y011032D01*
X011074Y011071D01*
X011112Y011108D01*
X011152Y011143D01*
X011195Y011174D01*
X011200Y011167D01*
X011158Y011136D01*
X011118Y011102D01*
X011081Y011065D01*
X011046Y011026D01*
X011014Y010984D01*
X010985Y010941D01*
X010959Y010895D01*
X010936Y010848D01*
X010916Y010800D01*
X010900Y010750D01*
X010887Y010699D01*
X010878Y010647D01*
X010872Y010595D01*
X010870Y010543D01*
X012478Y010543D02*
X012388Y010543D01*
X012389Y010543D02*
X012387Y010595D01*
X012381Y010646D01*
X012372Y010697D01*
X012359Y010747D01*
X012343Y010797D01*
X012324Y010845D01*
X012301Y010891D01*
X012276Y010936D01*
X012247Y010979D01*
X012215Y011020D01*
X012181Y011059D01*
X012144Y011095D01*
X012104Y011129D01*
X012063Y011159D01*
X012113Y011233D01*
X012113Y011234D01*
X012160Y011199D01*
X012204Y011162D01*
X012246Y011121D01*
X012284Y011078D01*
X012320Y011032D01*
X012352Y010984D01*
X012381Y010933D01*
X012406Y010881D01*
X012428Y010827D01*
X012446Y010772D01*
X012460Y010716D01*
X012470Y010659D01*
X012477Y010601D01*
X012479Y010543D01*
X012470Y010543D01*
X012468Y010600D01*
X012461Y010657D01*
X012451Y010714D01*
X012437Y010770D01*
X012419Y010824D01*
X012398Y010877D01*
X012373Y010929D01*
X012344Y010979D01*
X012312Y011027D01*
X012277Y011072D01*
X012239Y011115D01*
X012198Y011155D01*
X012154Y011192D01*
X012108Y011226D01*
X012103Y011219D01*
X012149Y011185D01*
X012192Y011148D01*
X012233Y011109D01*
X012270Y011066D01*
X012305Y011021D01*
X012337Y010974D01*
X012365Y010925D01*
X012390Y010874D01*
X012411Y010821D01*
X012429Y010767D01*
X012442Y010712D01*
X012453Y010656D01*
X012459Y010600D01*
X012461Y010543D01*
X012452Y010543D01*
X012450Y010599D01*
X012444Y010655D01*
X012434Y010710D01*
X012420Y010765D01*
X012403Y010818D01*
X012382Y010870D01*
X012357Y010921D01*
X012329Y010969D01*
X012298Y011016D01*
X012263Y011060D01*
X012226Y011102D01*
X012186Y011142D01*
X012143Y011178D01*
X012098Y011212D01*
X012093Y011204D01*
X012138Y011171D01*
X012180Y011135D01*
X012220Y011096D01*
X012257Y011055D01*
X012291Y011011D01*
X012321Y010965D01*
X012349Y010916D01*
X012373Y010866D01*
X012394Y010815D01*
X012411Y010762D01*
X012425Y010708D01*
X012435Y010654D01*
X012441Y010599D01*
X012443Y010543D01*
X012434Y010543D01*
X012432Y010598D01*
X012426Y010652D01*
X012416Y010706D01*
X012403Y010760D01*
X012386Y010812D01*
X012365Y010863D01*
X012341Y010912D01*
X012314Y010960D01*
X012283Y011005D01*
X012250Y011049D01*
X012213Y011090D01*
X012174Y011128D01*
X012132Y011164D01*
X012088Y011197D01*
X012083Y011189D01*
X012127Y011157D01*
X012168Y011122D01*
X012207Y011084D01*
X012243Y011043D01*
X012276Y011000D01*
X012306Y010955D01*
X012333Y010908D01*
X012357Y010859D01*
X012377Y010809D01*
X012394Y010757D01*
X012407Y010705D01*
X012417Y010651D01*
X012423Y010597D01*
X012425Y010543D01*
X012416Y010543D01*
X012414Y010597D01*
X012408Y010650D01*
X012398Y010703D01*
X012385Y010755D01*
X012369Y010806D01*
X012349Y010856D01*
X012325Y010904D01*
X012298Y010950D01*
X012269Y010995D01*
X012236Y011037D01*
X012200Y011077D01*
X012162Y011115D01*
X012121Y011150D01*
X012078Y011182D01*
X012073Y011174D01*
X012115Y011143D01*
X012156Y011108D01*
X012194Y011071D01*
X012229Y011032D01*
X012261Y010990D01*
X012291Y010946D01*
X012317Y010900D01*
X012340Y010852D01*
X012360Y010803D01*
X012377Y010752D01*
X012390Y010701D01*
X012399Y010649D01*
X012405Y010596D01*
X012407Y010543D01*
X012398Y010543D01*
X012396Y010595D01*
X012390Y010647D01*
X012381Y010699D01*
X012368Y010750D01*
X012352Y010800D01*
X012332Y010848D01*
X012309Y010895D01*
X012283Y010941D01*
X012254Y010984D01*
X012222Y011026D01*
X012187Y011065D01*
X012150Y011102D01*
X012110Y011136D01*
X012068Y011167D01*
X004208Y008533D02*
X004278Y008533D01*
X004277Y008532D02*
X004280Y008507D01*
X004286Y008483D01*
X004296Y008460D01*
X004310Y008439D01*
X004326Y008421D01*
X004345Y008405D01*
X004367Y008392D01*
X004390Y008383D01*
X004414Y008377D01*
X004439Y008375D01*
X004464Y008377D01*
X004488Y008383D01*
X004511Y008392D01*
X004533Y008405D01*
X004552Y008421D01*
X004568Y008439D01*
X004582Y008460D01*
X004592Y008483D01*
X004598Y008507D01*
X004601Y008532D01*
X004670Y008533D01*
X004671Y008532D01*
X004668Y008502D01*
X004662Y008473D01*
X004652Y008445D01*
X004638Y008418D01*
X004621Y008393D01*
X004601Y008371D01*
X004579Y008352D01*
X004554Y008335D01*
X004527Y008322D01*
X004498Y008313D01*
X004469Y008307D01*
X004439Y008305D01*
X004409Y008307D01*
X004380Y008313D01*
X004351Y008322D01*
X004324Y008335D01*
X004299Y008352D01*
X004277Y008371D01*
X004257Y008393D01*
X004240Y008418D01*
X004226Y008445D01*
X004216Y008473D01*
X004210Y008502D01*
X004207Y008532D01*
X004216Y008532D01*
X004219Y008502D01*
X004225Y008473D01*
X004236Y008445D01*
X004250Y008418D01*
X004268Y008394D01*
X004289Y008372D01*
X004312Y008354D01*
X004338Y008338D01*
X004365Y008327D01*
X004394Y008319D01*
X004424Y008315D01*
X004454Y008315D01*
X004484Y008319D01*
X004513Y008327D01*
X004540Y008338D01*
X004566Y008354D01*
X004589Y008372D01*
X004610Y008394D01*
X004628Y008418D01*
X004642Y008445D01*
X004653Y008473D01*
X004659Y008502D01*
X004662Y008532D01*
X004653Y008532D01*
X004650Y008503D01*
X004644Y008475D01*
X004634Y008448D01*
X004620Y008423D01*
X004603Y008400D01*
X004583Y008379D01*
X004561Y008361D01*
X004536Y008346D01*
X004510Y008335D01*
X004482Y008327D01*
X004453Y008323D01*
X004425Y008323D01*
X004396Y008327D01*
X004368Y008335D01*
X004342Y008346D01*
X004317Y008361D01*
X004295Y008379D01*
X004275Y008400D01*
X004258Y008423D01*
X004244Y008448D01*
X004234Y008475D01*
X004228Y008503D01*
X004225Y008532D01*
X004234Y008532D01*
X004237Y008505D01*
X004243Y008478D01*
X004252Y008452D01*
X004266Y008428D01*
X004282Y008405D01*
X004301Y008386D01*
X004322Y008368D01*
X004346Y008354D01*
X004371Y008343D01*
X004398Y008336D01*
X004425Y008332D01*
X004453Y008332D01*
X004480Y008336D01*
X004507Y008343D01*
X004532Y008354D01*
X004556Y008368D01*
X004577Y008386D01*
X004596Y008405D01*
X004612Y008428D01*
X004626Y008452D01*
X004635Y008478D01*
X004641Y008505D01*
X004644Y008532D01*
X004635Y008532D01*
X004632Y008505D01*
X004626Y008478D01*
X004616Y008452D01*
X004602Y008428D01*
X004585Y008407D01*
X004566Y008387D01*
X004543Y008371D01*
X004519Y008358D01*
X004493Y008349D01*
X004466Y008343D01*
X004439Y008341D01*
X004412Y008343D01*
X004385Y008349D01*
X004359Y008358D01*
X004335Y008371D01*
X004312Y008387D01*
X004293Y008407D01*
X004276Y008428D01*
X004262Y008452D01*
X004252Y008478D01*
X004246Y008505D01*
X004243Y008532D01*
X004252Y008532D01*
X004255Y008506D01*
X004261Y008480D01*
X004270Y008456D01*
X004283Y008433D01*
X004299Y008412D01*
X004318Y008394D01*
X004339Y008379D01*
X004363Y008366D01*
X004387Y008357D01*
X004413Y008352D01*
X004439Y008350D01*
X004465Y008352D01*
X004491Y008357D01*
X004515Y008366D01*
X004539Y008379D01*
X004560Y008394D01*
X004579Y008412D01*
X004595Y008433D01*
X004608Y008456D01*
X004617Y008480D01*
X004623Y008506D01*
X004626Y008532D01*
X004617Y008532D01*
X004614Y008506D01*
X004608Y008481D01*
X004598Y008457D01*
X004584Y008434D01*
X004568Y008414D01*
X004548Y008397D01*
X004527Y008382D01*
X004503Y008371D01*
X004478Y008363D01*
X004452Y008359D01*
X004426Y008359D01*
X004400Y008363D01*
X004375Y008371D01*
X004351Y008382D01*
X004330Y008397D01*
X004310Y008414D01*
X004294Y008434D01*
X004280Y008457D01*
X004270Y008481D01*
X004264Y008506D01*
X004261Y008532D01*
X004270Y008532D01*
X004273Y008506D01*
X004280Y008481D01*
X004290Y008457D01*
X004304Y008435D01*
X004321Y008416D01*
X004341Y008399D01*
X004364Y008386D01*
X004388Y008376D01*
X004413Y008370D01*
X004439Y008368D01*
X004465Y008370D01*
X004490Y008376D01*
X004514Y008386D01*
X004537Y008399D01*
X004557Y008416D01*
X004574Y008435D01*
X004588Y008457D01*
X004598Y008481D01*
X004605Y008506D01*
X004608Y008532D01*
X003815Y008533D02*
X003885Y008533D01*
X003884Y008532D02*
X003887Y008507D01*
X003893Y008483D01*
X003903Y008460D01*
X003917Y008439D01*
X003933Y008421D01*
X003952Y008405D01*
X003974Y008392D01*
X003997Y008383D01*
X004021Y008377D01*
X004046Y008375D01*
X004071Y008377D01*
X004095Y008383D01*
X004118Y008392D01*
X004140Y008405D01*
X004159Y008421D01*
X004175Y008439D01*
X004189Y008460D01*
X004199Y008483D01*
X004205Y008507D01*
X004208Y008532D01*
X004277Y008533D01*
X004278Y008532D01*
X004275Y008502D01*
X004269Y008473D01*
X004259Y008445D01*
X004245Y008418D01*
X004228Y008393D01*
X004208Y008371D01*
X004186Y008352D01*
X004161Y008335D01*
X004134Y008322D01*
X004105Y008313D01*
X004076Y008307D01*
X004046Y008305D01*
X004016Y008307D01*
X003987Y008313D01*
X003958Y008322D01*
X003931Y008335D01*
X003906Y008352D01*
X003884Y008371D01*
X003864Y008393D01*
X003847Y008418D01*
X003833Y008445D01*
X003823Y008473D01*
X003817Y008502D01*
X003814Y008532D01*
X003823Y008532D01*
X003826Y008502D01*
X003832Y008473D01*
X003843Y008445D01*
X003857Y008418D01*
X003875Y008394D01*
X003896Y008372D01*
X003919Y008354D01*
X003945Y008338D01*
X003972Y008327D01*
X004001Y008319D01*
X004031Y008315D01*
X004061Y008315D01*
X004091Y008319D01*
X004120Y008327D01*
X004147Y008338D01*
X004173Y008354D01*
X004196Y008372D01*
X004217Y008394D01*
X004235Y008418D01*
X004249Y008445D01*
X004260Y008473D01*
X004266Y008502D01*
X004269Y008532D01*
X004260Y008532D01*
X004257Y008503D01*
X004251Y008475D01*
X004241Y008448D01*
X004227Y008423D01*
X004210Y008400D01*
X004190Y008379D01*
X004168Y008361D01*
X004143Y008346D01*
X004117Y008335D01*
X004089Y008327D01*
X004060Y008323D01*
X004032Y008323D01*
X004003Y008327D01*
X003975Y008335D01*
X003949Y008346D01*
X003924Y008361D01*
X003902Y008379D01*
X003882Y008400D01*
X003865Y008423D01*
X003851Y008448D01*
X003841Y008475D01*
X003835Y008503D01*
X003832Y008532D01*
X003841Y008532D01*
X003844Y008505D01*
X003850Y008478D01*
X003859Y008452D01*
X003873Y008428D01*
X003889Y008405D01*
X003908Y008386D01*
X003929Y008368D01*
X003953Y008354D01*
X003978Y008343D01*
X004005Y008336D01*
X004032Y008332D01*
X004060Y008332D01*
X004087Y008336D01*
X004114Y008343D01*
X004139Y008354D01*
X004163Y008368D01*
X004184Y008386D01*
X004203Y008405D01*
X004219Y008428D01*
X004233Y008452D01*
X004242Y008478D01*
X004248Y008505D01*
X004251Y008532D01*
X004242Y008532D01*
X004239Y008505D01*
X004233Y008478D01*
X004223Y008452D01*
X004209Y008428D01*
X004192Y008407D01*
X004173Y008387D01*
X004150Y008371D01*
X004126Y008358D01*
X004100Y008349D01*
X004073Y008343D01*
X004046Y008341D01*
X004019Y008343D01*
X003992Y008349D01*
X003966Y008358D01*
X003942Y008371D01*
X003919Y008387D01*
X003900Y008407D01*
X003883Y008428D01*
X003869Y008452D01*
X003859Y008478D01*
X003853Y008505D01*
X003850Y008532D01*
X003859Y008532D01*
X003862Y008506D01*
X003868Y008480D01*
X003877Y008456D01*
X003890Y008433D01*
X003906Y008412D01*
X003925Y008394D01*
X003946Y008379D01*
X003970Y008366D01*
X003994Y008357D01*
X004020Y008352D01*
X004046Y008350D01*
X004072Y008352D01*
X004098Y008357D01*
X004122Y008366D01*
X004146Y008379D01*
X004167Y008394D01*
X004186Y008412D01*
X004202Y008433D01*
X004215Y008456D01*
X004224Y008480D01*
X004230Y008506D01*
X004233Y008532D01*
X004224Y008532D01*
X004221Y008506D01*
X004215Y008481D01*
X004205Y008457D01*
X004191Y008434D01*
X004175Y008414D01*
X004155Y008397D01*
X004134Y008382D01*
X004110Y008371D01*
X004085Y008363D01*
X004059Y008359D01*
X004033Y008359D01*
X004007Y008363D01*
X003982Y008371D01*
X003958Y008382D01*
X003937Y008397D01*
X003917Y008414D01*
X003901Y008434D01*
X003887Y008457D01*
X003877Y008481D01*
X003871Y008506D01*
X003868Y008532D01*
X003877Y008532D01*
X003880Y008506D01*
X003887Y008481D01*
X003897Y008457D01*
X003911Y008435D01*
X003928Y008416D01*
X003948Y008399D01*
X003971Y008386D01*
X003995Y008376D01*
X004020Y008370D01*
X004046Y008368D01*
X004072Y008370D01*
X004097Y008376D01*
X004121Y008386D01*
X004144Y008399D01*
X004164Y008416D01*
X004181Y008435D01*
X004195Y008457D01*
X004205Y008481D01*
X004212Y008506D01*
X004215Y008532D01*
X004670Y006228D02*
X004600Y006228D01*
X004601Y006229D02*
X004599Y006266D01*
X004592Y006303D01*
X004582Y006339D01*
X004568Y006373D01*
X004551Y006406D01*
X004531Y006437D01*
X004507Y006466D01*
X004480Y006492D01*
X004451Y006516D01*
X004420Y006536D01*
X004387Y006553D01*
X004352Y006566D01*
X004316Y006575D01*
X004279Y006581D01*
X004242Y006583D01*
X004205Y006581D01*
X004168Y006575D01*
X004132Y006566D01*
X004097Y006553D01*
X004064Y006536D01*
X004033Y006516D01*
X004004Y006492D01*
X003977Y006466D01*
X003953Y006437D01*
X003933Y006406D01*
X003916Y006373D01*
X003902Y006339D01*
X003892Y006303D01*
X003885Y006266D01*
X003883Y006229D01*
X003814Y006228D01*
X003813Y006229D01*
X003815Y006269D01*
X003822Y006309D01*
X003832Y006349D01*
X003845Y006387D01*
X003862Y006424D01*
X003883Y006459D01*
X003907Y006491D01*
X003933Y006522D01*
X003963Y006550D01*
X003995Y006575D01*
X004029Y006596D01*
X004065Y006615D01*
X004103Y006630D01*
X004142Y006641D01*
X004181Y006649D01*
X004222Y006653D01*
X004262Y006653D01*
X004303Y006649D01*
X004342Y006641D01*
X004381Y006630D01*
X004419Y006615D01*
X004455Y006596D01*
X004489Y006575D01*
X004521Y006550D01*
X004551Y006522D01*
X004577Y006491D01*
X004601Y006459D01*
X004622Y006424D01*
X004639Y006387D01*
X004652Y006349D01*
X004662Y006309D01*
X004669Y006269D01*
X004671Y006229D01*
X004662Y006229D01*
X004659Y006270D01*
X004653Y006310D01*
X004643Y006350D01*
X004629Y006388D01*
X004611Y006425D01*
X004589Y006460D01*
X004565Y006493D01*
X004537Y006523D01*
X004507Y006550D01*
X004474Y006574D01*
X004439Y006595D01*
X004402Y006613D01*
X004363Y006626D01*
X004323Y006636D01*
X004283Y006642D01*
X004242Y006644D01*
X004201Y006642D01*
X004161Y006636D01*
X004121Y006626D01*
X004082Y006613D01*
X004045Y006595D01*
X004010Y006574D01*
X003977Y006550D01*
X003947Y006523D01*
X003919Y006493D01*
X003895Y006460D01*
X003873Y006425D01*
X003855Y006388D01*
X003841Y006350D01*
X003831Y006310D01*
X003825Y006270D01*
X003822Y006229D01*
X003831Y006229D01*
X003833Y006269D01*
X003840Y006308D01*
X003850Y006347D01*
X003864Y006385D01*
X003881Y006421D01*
X003902Y006455D01*
X003926Y006487D01*
X003953Y006516D01*
X003983Y006543D01*
X004015Y006567D01*
X004050Y006587D01*
X004086Y006604D01*
X004124Y006618D01*
X004162Y006627D01*
X004202Y006633D01*
X004242Y006635D01*
X004282Y006633D01*
X004322Y006627D01*
X004360Y006618D01*
X004398Y006604D01*
X004434Y006587D01*
X004469Y006567D01*
X004501Y006543D01*
X004531Y006516D01*
X004558Y006487D01*
X004582Y006455D01*
X004603Y006421D01*
X004620Y006385D01*
X004634Y006347D01*
X004644Y006308D01*
X004651Y006269D01*
X004653Y006229D01*
X004644Y006229D01*
X004642Y006268D01*
X004635Y006307D01*
X004625Y006345D01*
X004612Y006381D01*
X004595Y006417D01*
X004575Y006450D01*
X004551Y006481D01*
X004524Y006510D01*
X004495Y006536D01*
X004464Y006559D01*
X004430Y006579D01*
X004395Y006596D01*
X004358Y006609D01*
X004320Y006618D01*
X004281Y006624D01*
X004242Y006626D01*
X004203Y006624D01*
X004164Y006618D01*
X004126Y006609D01*
X004089Y006596D01*
X004054Y006579D01*
X004020Y006559D01*
X003989Y006536D01*
X003960Y006510D01*
X003933Y006481D01*
X003909Y006450D01*
X003889Y006417D01*
X003872Y006381D01*
X003859Y006345D01*
X003849Y006307D01*
X003842Y006268D01*
X003840Y006229D01*
X003849Y006229D01*
X003852Y006268D01*
X003858Y006307D01*
X003868Y006345D01*
X003882Y006382D01*
X003900Y006418D01*
X003921Y006451D01*
X003946Y006482D01*
X003973Y006511D01*
X004003Y006536D01*
X004036Y006558D01*
X004070Y006577D01*
X004107Y006593D01*
X004144Y006605D01*
X004183Y006613D01*
X004222Y006617D01*
X004262Y006617D01*
X004301Y006613D01*
X004340Y006605D01*
X004377Y006593D01*
X004414Y006577D01*
X004448Y006558D01*
X004481Y006536D01*
X004511Y006511D01*
X004538Y006482D01*
X004563Y006451D01*
X004584Y006418D01*
X004602Y006382D01*
X004616Y006345D01*
X004626Y006307D01*
X004632Y006268D01*
X004635Y006229D01*
X004626Y006229D01*
X004624Y006267D01*
X004617Y006306D01*
X004607Y006343D01*
X004593Y006379D01*
X004576Y006413D01*
X004555Y006446D01*
X004532Y006476D01*
X004505Y006504D01*
X004475Y006529D01*
X004444Y006551D01*
X004410Y006569D01*
X004374Y006584D01*
X004337Y006596D01*
X004300Y006604D01*
X004261Y006608D01*
X004223Y006608D01*
X004184Y006604D01*
X004147Y006596D01*
X004110Y006584D01*
X004074Y006569D01*
X004040Y006551D01*
X004009Y006529D01*
X003979Y006504D01*
X003952Y006476D01*
X003929Y006446D01*
X003908Y006413D01*
X003891Y006379D01*
X003877Y006343D01*
X003867Y006306D01*
X003860Y006267D01*
X003858Y006229D01*
X003867Y006229D01*
X003870Y006268D01*
X003876Y006306D01*
X003887Y006344D01*
X003901Y006380D01*
X003919Y006414D01*
X003940Y006447D01*
X003965Y006477D01*
X003993Y006504D01*
X004023Y006529D01*
X004056Y006550D01*
X004091Y006567D01*
X004127Y006581D01*
X004165Y006591D01*
X004203Y006597D01*
X004242Y006599D01*
X004281Y006597D01*
X004319Y006591D01*
X004357Y006581D01*
X004393Y006567D01*
X004428Y006550D01*
X004461Y006529D01*
X004491Y006504D01*
X004519Y006477D01*
X004544Y006447D01*
X004565Y006414D01*
X004583Y006380D01*
X004597Y006344D01*
X004608Y006306D01*
X004614Y006268D01*
X004617Y006229D01*
X004608Y006229D01*
X004605Y006267D01*
X004599Y006304D01*
X004589Y006341D01*
X004575Y006376D01*
X004557Y006410D01*
X004536Y006442D01*
X004512Y006471D01*
X004485Y006498D01*
X004456Y006521D01*
X004424Y006542D01*
X004390Y006559D01*
X004354Y006572D01*
X004317Y006582D01*
X004280Y006588D01*
X004242Y006590D01*
X004204Y006588D01*
X004167Y006582D01*
X004130Y006572D01*
X004094Y006559D01*
X004060Y006542D01*
X004028Y006521D01*
X003999Y006498D01*
X003972Y006471D01*
X003948Y006442D01*
X003927Y006410D01*
X003909Y006376D01*
X003895Y006341D01*
X003885Y006304D01*
X003879Y006267D01*
X003876Y006229D01*
X004474Y005929D02*
X004405Y005939D01*
X004405Y005938D02*
X004410Y005982D01*
X004411Y006027D01*
X004410Y006072D01*
X004405Y006116D01*
X004474Y006125D01*
X004475Y006125D01*
X004479Y006076D01*
X004481Y006027D01*
X004479Y005978D01*
X004475Y005929D01*
X004466Y005930D01*
X004470Y005978D01*
X004472Y006027D01*
X004470Y006076D01*
X004466Y006124D01*
X004457Y006123D01*
X004461Y006075D01*
X004463Y006027D01*
X004461Y005979D01*
X004457Y005931D01*
X004448Y005932D01*
X004453Y005980D01*
X004454Y006027D01*
X004453Y006074D01*
X004448Y006122D01*
X004439Y006120D01*
X004444Y006074D01*
X004445Y006027D01*
X004444Y005980D01*
X004439Y005934D01*
X004430Y005935D01*
X004435Y005981D01*
X004436Y006027D01*
X004435Y006073D01*
X004430Y006119D01*
X004421Y006118D01*
X004426Y006073D01*
X004427Y006027D01*
X004426Y005981D01*
X004421Y005936D01*
X004412Y005937D01*
X004417Y005982D01*
X004418Y006027D01*
X004417Y006072D01*
X004412Y006117D01*
X004473Y006129D02*
X004403Y006129D01*
X004404Y006130D02*
X004401Y006155D01*
X004395Y006179D01*
X004385Y006202D01*
X004371Y006223D01*
X004355Y006241D01*
X004336Y006257D01*
X004314Y006270D01*
X004291Y006279D01*
X004267Y006285D01*
X004242Y006287D01*
X004217Y006285D01*
X004193Y006279D01*
X004170Y006270D01*
X004148Y006257D01*
X004129Y006241D01*
X004113Y006223D01*
X004099Y006202D01*
X004089Y006179D01*
X004083Y006155D01*
X004080Y006130D01*
X004011Y006129D01*
X004010Y006130D01*
X004013Y006160D01*
X004019Y006189D01*
X004029Y006217D01*
X004043Y006244D01*
X004060Y006269D01*
X004080Y006291D01*
X004102Y006310D01*
X004127Y006327D01*
X004154Y006340D01*
X004183Y006349D01*
X004212Y006355D01*
X004242Y006357D01*
X004272Y006355D01*
X004301Y006349D01*
X004330Y006340D01*
X004357Y006327D01*
X004382Y006310D01*
X004404Y006291D01*
X004424Y006269D01*
X004441Y006244D01*
X004455Y006217D01*
X004465Y006189D01*
X004471Y006160D01*
X004474Y006130D01*
X004465Y006130D01*
X004462Y006160D01*
X004456Y006189D01*
X004445Y006217D01*
X004431Y006244D01*
X004413Y006268D01*
X004392Y006290D01*
X004369Y006308D01*
X004343Y006324D01*
X004316Y006335D01*
X004287Y006343D01*
X004257Y006347D01*
X004227Y006347D01*
X004197Y006343D01*
X004168Y006335D01*
X004141Y006324D01*
X004115Y006308D01*
X004092Y006290D01*
X004071Y006268D01*
X004053Y006244D01*
X004039Y006217D01*
X004028Y006189D01*
X004022Y006160D01*
X004019Y006130D01*
X004028Y006130D01*
X004031Y006159D01*
X004037Y006187D01*
X004047Y006214D01*
X004061Y006239D01*
X004078Y006262D01*
X004098Y006283D01*
X004120Y006301D01*
X004145Y006316D01*
X004171Y006327D01*
X004199Y006335D01*
X004228Y006339D01*
X004256Y006339D01*
X004285Y006335D01*
X004313Y006327D01*
X004339Y006316D01*
X004364Y006301D01*
X004386Y006283D01*
X004406Y006262D01*
X004423Y006239D01*
X004437Y006214D01*
X004447Y006187D01*
X004453Y006159D01*
X004456Y006130D01*
X004447Y006130D01*
X004444Y006157D01*
X004438Y006184D01*
X004429Y006210D01*
X004415Y006234D01*
X004399Y006257D01*
X004380Y006276D01*
X004359Y006294D01*
X004335Y006308D01*
X004310Y006319D01*
X004283Y006326D01*
X004256Y006330D01*
X004228Y006330D01*
X004201Y006326D01*
X004174Y006319D01*
X004149Y006308D01*
X004125Y006294D01*
X004104Y006276D01*
X004085Y006257D01*
X004069Y006234D01*
X004055Y006210D01*
X004046Y006184D01*
X004040Y006157D01*
X004037Y006130D01*
X004046Y006130D01*
X004049Y006157D01*
X004055Y006184D01*
X004065Y006210D01*
X004079Y006234D01*
X004096Y006255D01*
X004115Y006275D01*
X004138Y006291D01*
X004162Y006304D01*
X004188Y006313D01*
X004215Y006319D01*
X004242Y006321D01*
X004269Y006319D01*
X004296Y006313D01*
X004322Y006304D01*
X004346Y006291D01*
X004369Y006275D01*
X004388Y006255D01*
X004405Y006234D01*
X004419Y006210D01*
X004429Y006184D01*
X004435Y006157D01*
X004438Y006130D01*
X004429Y006130D01*
X004426Y006156D01*
X004420Y006182D01*
X004411Y006206D01*
X004398Y006229D01*
X004382Y006250D01*
X004363Y006268D01*
X004342Y006283D01*
X004318Y006296D01*
X004294Y006305D01*
X004268Y006310D01*
X004242Y006312D01*
X004216Y006310D01*
X004190Y006305D01*
X004166Y006296D01*
X004142Y006283D01*
X004121Y006268D01*
X004102Y006250D01*
X004086Y006229D01*
X004073Y006206D01*
X004064Y006182D01*
X004058Y006156D01*
X004055Y006130D01*
X004064Y006130D01*
X004067Y006156D01*
X004073Y006181D01*
X004083Y006205D01*
X004097Y006228D01*
X004113Y006248D01*
X004133Y006265D01*
X004154Y006280D01*
X004178Y006291D01*
X004203Y006299D01*
X004229Y006303D01*
X004255Y006303D01*
X004281Y006299D01*
X004306Y006291D01*
X004330Y006280D01*
X004351Y006265D01*
X004371Y006248D01*
X004387Y006228D01*
X004401Y006205D01*
X004411Y006181D01*
X004417Y006156D01*
X004420Y006130D01*
X004411Y006130D01*
X004408Y006156D01*
X004401Y006181D01*
X004391Y006205D01*
X004377Y006227D01*
X004360Y006246D01*
X004340Y006263D01*
X004317Y006276D01*
X004293Y006286D01*
X004268Y006292D01*
X004242Y006294D01*
X004216Y006292D01*
X004191Y006286D01*
X004167Y006276D01*
X004144Y006263D01*
X004124Y006246D01*
X004107Y006227D01*
X004093Y006205D01*
X004083Y006181D01*
X004076Y006156D01*
X004073Y006130D01*
X003815Y006219D02*
X003885Y006220D01*
X003884Y006219D02*
X003886Y006163D01*
X003892Y006108D01*
X003901Y006053D01*
X003914Y005998D01*
X003930Y005945D01*
X003864Y005923D01*
X003863Y005922D01*
X003846Y005980D01*
X003833Y006039D01*
X003823Y006098D01*
X003816Y006158D01*
X003814Y006219D01*
X003823Y006219D01*
X003825Y006159D01*
X003832Y006100D01*
X003841Y006041D01*
X003855Y005982D01*
X003872Y005925D01*
X003881Y005928D01*
X003864Y005985D01*
X003850Y006042D01*
X003841Y006101D01*
X003834Y006160D01*
X003832Y006219D01*
X003841Y006219D01*
X003843Y006160D01*
X003849Y006102D01*
X003859Y006044D01*
X003872Y005987D01*
X003889Y005931D01*
X003898Y005934D01*
X003881Y005989D01*
X003868Y006046D01*
X003858Y006103D01*
X003852Y006161D01*
X003850Y006219D01*
X003859Y006219D01*
X003861Y006162D01*
X003867Y006104D01*
X003877Y006048D01*
X003890Y005992D01*
X003906Y005937D01*
X003915Y005939D01*
X003898Y005994D01*
X003886Y006049D01*
X003876Y006106D01*
X003870Y006162D01*
X003868Y006219D01*
X003877Y006219D01*
X003879Y006163D01*
X003885Y006107D01*
X003894Y006051D01*
X003907Y005996D01*
X003923Y005942D01*
X004649Y005924D02*
X004580Y005937D01*
X004581Y005936D02*
X004591Y006006D01*
X004598Y006076D01*
X004602Y006147D01*
X004601Y006218D01*
X004671Y006220D01*
X004672Y006146D01*
X004668Y006071D01*
X004661Y005997D01*
X004650Y005924D01*
X004641Y005925D01*
X004652Y005998D01*
X004659Y006072D01*
X004663Y006146D01*
X004662Y006220D01*
X004653Y006220D01*
X004654Y006146D01*
X004650Y006073D01*
X004643Y006000D01*
X004632Y005927D01*
X004623Y005928D01*
X004634Y006001D01*
X004641Y006073D01*
X004645Y006146D01*
X004644Y006219D01*
X004635Y006219D01*
X004636Y006146D01*
X004632Y006074D01*
X004625Y006002D01*
X004614Y005930D01*
X004606Y005932D01*
X004616Y006003D01*
X004623Y006075D01*
X004627Y006147D01*
X004626Y006219D01*
X004617Y006218D01*
X004618Y006147D01*
X004614Y006075D01*
X004607Y006004D01*
X004597Y005933D01*
X004588Y005935D01*
X004598Y006005D01*
X004605Y006076D01*
X004609Y006147D01*
X004608Y006218D01*
D17*
X004534Y002969D02*
X004534Y002778D01*
X004534Y002842D02*
X004630Y002842D01*
X004661Y002874D01*
X004661Y002937D01*
X004630Y002969D01*
X004534Y002969D01*
X004598Y002842D02*
X004661Y002778D01*
X004755Y002778D02*
X004882Y002905D01*
X004882Y002937D01*
X004851Y002969D01*
X004787Y002969D01*
X004755Y002937D01*
X004755Y002778D02*
X004882Y002778D01*
X004840Y012794D02*
X004713Y012794D01*
X004681Y012825D01*
X004681Y012889D01*
X004713Y012920D01*
X004713Y013015D02*
X004840Y013015D01*
X004871Y013046D01*
X004871Y013110D01*
X004840Y013141D01*
X004713Y013141D01*
X004681Y013110D01*
X004681Y013046D01*
X004713Y013015D01*
X004840Y012920D02*
X004871Y012889D01*
X004871Y012825D01*
X004840Y012794D01*
X004871Y013236D02*
X004681Y013236D01*
X004745Y013299D01*
X004681Y013362D01*
X004871Y013362D01*
X004871Y013457D02*
X004681Y013457D01*
X004681Y013552D01*
X004713Y013583D01*
X004776Y013583D01*
X004808Y013552D01*
X004808Y013457D01*
X004840Y013678D02*
X004713Y013678D01*
X004681Y013709D01*
X004681Y013773D01*
X004713Y013804D01*
X004840Y013804D01*
X004871Y013773D01*
X004871Y013709D01*
X004840Y013678D01*
X004840Y013899D02*
X004871Y013930D01*
X004871Y013994D01*
X004840Y014025D01*
X004808Y014025D01*
X004776Y013994D01*
X004776Y013930D01*
X004745Y013899D01*
X004713Y013899D01*
X004681Y013930D01*
X004681Y013994D01*
X004713Y014025D01*
X004681Y014120D02*
X004681Y014183D01*
X004681Y014151D02*
X004871Y014151D01*
X004871Y014120D02*
X004871Y014183D01*
X004871Y014330D02*
X004681Y014330D01*
X004681Y014267D02*
X004681Y014394D01*
X004681Y014488D02*
X004871Y014488D01*
X004871Y014615D01*
X004903Y014709D02*
X004903Y014836D01*
X004808Y014930D02*
X004871Y014993D01*
X004808Y015057D01*
X004681Y015057D01*
X004681Y015151D02*
X004681Y015214D01*
X004681Y015183D02*
X004871Y015183D01*
X004871Y015214D02*
X004871Y015151D01*
X004871Y015298D02*
X004871Y015393D01*
X004840Y015425D01*
X004713Y015425D01*
X004681Y015393D01*
X004681Y015298D01*
X004871Y015298D01*
X004871Y015519D02*
X004681Y015519D01*
X004681Y015646D01*
X004713Y015740D02*
X004840Y015740D01*
X004871Y015772D01*
X004871Y015835D01*
X004840Y015867D01*
X004713Y015867D01*
X004681Y015835D01*
X004681Y015772D01*
X004713Y015740D01*
X004776Y015583D02*
X004776Y015519D01*
X004871Y015519D02*
X004871Y015646D01*
X004808Y014930D02*
X004681Y014930D01*
X004681Y014615D02*
X004681Y014488D01*
X004776Y014488D02*
X004776Y014551D01*
D18*
X017248Y005603D02*
X017568Y005603D01*
X017675Y005497D01*
X017675Y005283D01*
X017568Y005176D01*
X017248Y005176D01*
X017248Y004963D02*
X017248Y005603D01*
X017984Y005603D02*
X017984Y004963D01*
X018304Y004963D01*
X018411Y005070D01*
X018411Y005283D01*
X018304Y005390D01*
X017984Y005390D01*
D19*
X020104Y014065D03*
D20*
X003624Y009001D02*
X003624Y008958D01*
X003602Y008936D01*
X003559Y008958D02*
X003559Y009001D01*
X003580Y009023D01*
X003602Y009023D01*
X003624Y009001D01*
X003559Y008958D02*
X003537Y008936D01*
X003515Y008936D01*
X003494Y008958D01*
X003494Y009001D01*
X003515Y009023D01*
X003515Y008728D02*
X003494Y008706D01*
X003494Y008663D01*
X003515Y008641D01*
X003602Y008641D01*
X003624Y008663D01*
X003624Y008706D01*
X003602Y008728D01*
X003624Y008439D02*
X003624Y008396D01*
X003624Y008417D02*
X003494Y008417D01*
X003494Y008396D02*
X003494Y008439D01*
X003494Y008188D02*
X003624Y008188D01*
X003494Y008101D01*
X003624Y008101D01*
X003602Y007893D02*
X003515Y007893D01*
X003494Y007871D01*
X003494Y007828D01*
X003515Y007806D01*
X003602Y007806D01*
X003624Y007828D01*
X003624Y007871D01*
X003602Y007893D01*
X003624Y007599D02*
X003580Y007555D01*
X003580Y007577D02*
X003580Y007512D01*
X003624Y007512D02*
X003494Y007512D01*
X003494Y007577D01*
X003515Y007599D01*
X003559Y007599D01*
X003580Y007577D01*
X003494Y007304D02*
X003494Y007217D01*
X003494Y007260D02*
X003624Y007260D01*
X003602Y007009D02*
X003624Y006988D01*
X003624Y006944D01*
X003602Y006922D01*
X003515Y006922D01*
X003494Y006944D01*
X003494Y006988D01*
X003515Y007009D01*
X003494Y006715D02*
X003494Y006628D01*
X003624Y006628D01*
X003624Y006715D01*
X003559Y006671D02*
X003559Y006628D01*
X003624Y006420D02*
X003624Y006333D01*
X003494Y006333D01*
X003494Y006125D02*
X003494Y006039D01*
X003624Y006039D01*
X003624Y006125D01*
X003559Y006082D02*
X003559Y006039D01*
D21*
X030457Y009706D03*
M02*
