G75*
G70*
%OFA0B0*%
%FSLAX24Y24*%
%IPPOS*%
%LPD*%
%AMOC8*
5,1,8,0,0,1.08239X$1,22.5*
%
%ADD10C,0.0100*%
%ADD11C,0.0671*%
%ADD12C,0.0740*%
%ADD13R,0.0780X0.0780*%
%ADD14C,0.0780*%
%ADD15R,0.0380X0.0280*%
%ADD16R,0.0611X0.0611*%
%ADD17C,0.0611*%
%ADD18C,0.1661*%
%ADD19C,0.1261*%
%ADD20R,0.0671X0.0671*%
%ADD21C,0.1080*%
%ADD22R,0.1080X0.1080*%
%ADD23C,0.0828*%
%ADD24OC8,0.0680*%
%ADD25C,0.0965*%
%ADD26O,0.0470X0.0860*%
%ADD27C,0.1379*%
%ADD28C,0.0316*%
%ADD29C,0.0277*%
%ADD30R,0.0680X0.0680*%
%ADD31C,0.0680*%
%ADD32C,0.0966*%
%ADD33R,0.0480X0.0380*%
D10*
X011183Y004836D02*
X011317Y004702D01*
X011450Y004836D01*
X011450Y005103D01*
X011644Y005103D02*
X011911Y005103D01*
X011911Y004702D01*
X011644Y004702D01*
X011777Y004903D02*
X011911Y004903D01*
X012104Y004769D02*
X012104Y005036D01*
X012171Y005103D01*
X012371Y005103D01*
X012371Y004702D01*
X012171Y004702D01*
X012104Y004769D01*
X012564Y005103D02*
X012831Y004702D01*
X013025Y004702D02*
X013025Y005103D01*
X013158Y004969D01*
X013292Y005103D01*
X013292Y004702D01*
X013485Y004769D02*
X013552Y004702D01*
X013685Y004702D01*
X013752Y004769D01*
X013752Y005036D01*
X013685Y005103D01*
X013552Y005103D01*
X013485Y005036D01*
X013485Y004769D01*
X013945Y004769D02*
X014012Y004702D01*
X014146Y004702D01*
X014212Y004769D01*
X014212Y005036D01*
X014146Y005103D01*
X014012Y005103D01*
X013945Y005036D01*
X014376Y004769D02*
X014376Y004702D01*
X014442Y004702D01*
X014442Y004769D01*
X014376Y004769D01*
X014636Y004702D02*
X014903Y005103D01*
X015096Y005103D02*
X015363Y005103D01*
X015363Y004702D01*
X015096Y004702D01*
X014903Y004702D02*
X014636Y005103D01*
X015230Y004903D02*
X015363Y004903D01*
X015557Y005103D02*
X015690Y004969D01*
X015824Y005103D01*
X015824Y004702D01*
X015997Y004702D02*
X016130Y004702D01*
X016064Y004702D02*
X016064Y005103D01*
X016130Y005103D02*
X015997Y005103D01*
X015557Y005103D02*
X015557Y004702D01*
X016324Y004702D02*
X016591Y004702D01*
X016591Y005103D01*
X016784Y005036D02*
X016851Y005103D01*
X016984Y005103D01*
X017051Y005036D01*
X017051Y004769D01*
X016984Y004702D01*
X016851Y004702D01*
X016784Y004769D01*
X016784Y005036D01*
X017215Y004769D02*
X017215Y004702D01*
X017281Y004702D01*
X017281Y004769D01*
X017215Y004769D01*
X017475Y004702D02*
X017475Y005103D01*
X017742Y005103D02*
X017742Y004702D01*
X017608Y004836D01*
X017475Y004702D01*
X017935Y004702D02*
X018069Y004836D01*
X018202Y004702D01*
X018202Y005103D01*
X018395Y005103D02*
X018395Y004702D01*
X018529Y004836D01*
X018662Y004702D01*
X018662Y005103D01*
X017935Y005103D02*
X017935Y004702D01*
X011183Y004836D02*
X011183Y005103D01*
X029512Y019627D02*
X030112Y019627D01*
X030112Y020077D02*
X029512Y020077D01*
D11*
X026862Y023402D03*
X025862Y023402D03*
X024862Y023402D03*
X023862Y023402D03*
X022862Y023402D03*
X021862Y023402D03*
X020862Y023402D03*
X019862Y023402D03*
X018862Y023402D03*
X017862Y023402D03*
X016862Y023402D03*
X015862Y023402D03*
X014862Y023402D03*
X013862Y023402D03*
X012862Y023402D03*
X011862Y023402D03*
X010862Y023402D03*
X009862Y023402D03*
X008862Y023402D03*
X008862Y024402D03*
X007862Y024402D03*
X009862Y024402D03*
X010862Y024402D03*
X011862Y024402D03*
X012862Y024402D03*
X013862Y024402D03*
X014862Y024402D03*
X015862Y024402D03*
X016862Y024402D03*
X017862Y024402D03*
X018862Y024402D03*
X019862Y024402D03*
X020862Y024402D03*
X021862Y024402D03*
X022862Y024402D03*
X023862Y024402D03*
X024862Y024402D03*
X025862Y024402D03*
X026862Y024402D03*
X030671Y007534D03*
X030671Y006747D03*
X030671Y005960D03*
X030671Y005172D03*
X034221Y005172D03*
X034221Y005960D03*
X034221Y006747D03*
X034221Y007534D03*
X037721Y007534D03*
X037721Y006747D03*
X037721Y005960D03*
X037721Y005172D03*
X006894Y005613D03*
X006894Y005810D03*
X006894Y006006D03*
X006894Y006203D03*
X006894Y006400D03*
X006894Y006597D03*
X006894Y006794D03*
X005733Y007502D03*
X005536Y007502D03*
X005339Y007502D03*
X005142Y007502D03*
X004945Y007502D03*
X004749Y007502D03*
X004552Y007502D03*
X004552Y004943D03*
X004749Y004943D03*
X004945Y004943D03*
X005142Y004943D03*
X005339Y004943D03*
X005536Y004943D03*
X005733Y004943D03*
D12*
X029112Y023602D03*
D13*
X030862Y023402D03*
X030812Y021152D03*
X035362Y022452D03*
X035962Y021152D03*
X029012Y016752D03*
X030812Y016152D03*
D14*
X030812Y015152D03*
X030812Y014152D03*
X030812Y013152D03*
X029012Y013752D03*
X029012Y014752D03*
X029012Y015752D03*
X031812Y021152D03*
X032812Y021152D03*
X033812Y021152D03*
X036362Y022452D03*
X036962Y021152D03*
X037962Y021152D03*
X038962Y021152D03*
X034862Y023402D03*
X033862Y023402D03*
X032862Y023402D03*
X031862Y023402D03*
X031862Y024402D03*
X032862Y024402D03*
X033862Y024402D03*
X034862Y024402D03*
X030862Y024402D03*
D15*
X028762Y019852D03*
X028762Y019552D03*
X021262Y021652D03*
X021262Y021952D03*
X020762Y021952D03*
X020762Y021652D03*
X020262Y021652D03*
X020262Y021952D03*
X019762Y021952D03*
X019762Y021652D03*
X007862Y021552D03*
X007862Y021252D03*
X007862Y020702D03*
X007862Y020402D03*
X005162Y021252D03*
X005162Y021552D03*
D16*
X004112Y012666D03*
D17*
X004112Y011879D03*
D18*
X008128Y007968D03*
X010096Y005704D03*
X012065Y007968D03*
D19*
X010096Y007968D03*
D20*
X007862Y023402D03*
D21*
X009112Y010552D03*
D22*
X011112Y010552D03*
D23*
X014281Y009021D03*
X014281Y006265D03*
X018281Y006265D03*
X018281Y009021D03*
D24*
X005252Y024592D03*
X003472Y024592D03*
X037472Y024592D03*
X039252Y024592D03*
D25*
X039742Y023612D03*
X036982Y023612D03*
X005742Y023612D03*
X002982Y023612D03*
D26*
X022090Y004752D03*
X022582Y004752D03*
X023074Y004752D03*
X023566Y004752D03*
X024058Y004752D03*
X024551Y004752D03*
X025043Y004752D03*
X025535Y004752D03*
D27*
X038862Y014902D03*
X003862Y014902D03*
D28*
X003847Y015885D03*
X004240Y015885D03*
X004595Y015845D03*
X004910Y015727D03*
X005146Y015452D03*
X005225Y015097D03*
X005225Y014704D03*
X005146Y014349D03*
X004910Y014074D03*
X004595Y013956D03*
X004240Y013916D03*
X003847Y013916D03*
X003453Y013916D03*
X003059Y013916D03*
X003059Y015885D03*
X003453Y015885D03*
X037488Y015097D03*
X037567Y015452D03*
X037803Y015727D03*
X038118Y015845D03*
X038473Y015885D03*
X038866Y015885D03*
X039260Y015885D03*
X039654Y015885D03*
X037488Y014704D03*
X037567Y014349D03*
X037803Y014074D03*
X038118Y013956D03*
X038473Y013916D03*
X038866Y013916D03*
X039260Y013916D03*
X039654Y013916D03*
D29*
X003012Y004552D03*
X003012Y025252D03*
X039712Y025252D03*
X039712Y004552D03*
D30*
X037362Y010852D03*
X034762Y010902D03*
X032162Y010802D03*
D31*
X031162Y010802D03*
X033762Y010902D03*
X036362Y010852D03*
D32*
X036599Y007731D03*
X035343Y007731D03*
X033099Y007731D03*
X031793Y007731D03*
X029549Y007731D03*
X029549Y004975D03*
X031793Y004975D03*
X033099Y004975D03*
X035343Y004975D03*
X036599Y004975D03*
X038843Y004975D03*
X038843Y007731D03*
D33*
X029812Y019402D03*
X029812Y019852D03*
X029812Y020302D03*
M02*
