G75*
G70*
%OFA0B0*%
%FSLAX24Y24*%
%IPPOS*%
%LPD*%
%AMOC8*
5,1,8,0,0,1.08239X$1,22.5*
%
%ADD10R,0.0079X0.0591*%
%ADD11R,0.0591X0.0079*%
%ADD12R,0.0400X0.0400*%
%ADD13R,0.0394X0.1969*%
%ADD14R,0.0394X0.0551*%
%ADD15R,0.0315X0.0591*%
%ADD16R,0.0787X0.0787*%
%ADD17R,0.0551X0.0748*%
%ADD18R,0.0600X0.0500*%
%ADD19R,0.0551X0.0157*%
%ADD20R,0.0400X0.0300*%
%ADD21R,0.0400X0.0200*%
%ADD22R,0.0866X0.0236*%
%ADD23R,0.0472X0.0217*%
%ADD24R,0.2756X0.1102*%
%ADD25R,0.1102X0.2756*%
%ADD26R,0.0571X0.0709*%
%ADD27R,0.1181X0.0787*%
%ADD28R,0.0787X0.1181*%
%ADD29R,0.0500X0.0400*%
%ADD30R,0.0217X0.0472*%
%ADD31R,0.0689X0.0138*%
%ADD32R,0.0500X0.0600*%
%ADD33R,0.0700X0.0900*%
D10*
X018847Y013849D03*
X019004Y013849D03*
X019162Y013849D03*
X019319Y013849D03*
X019477Y013849D03*
X019634Y013849D03*
X019791Y013849D03*
X019949Y013849D03*
X020106Y013849D03*
X020264Y013849D03*
X020421Y013849D03*
X020579Y013849D03*
X020736Y013849D03*
X020894Y013849D03*
X021051Y013849D03*
X021209Y013849D03*
X021366Y013849D03*
X021524Y013849D03*
X021681Y013849D03*
X021839Y013849D03*
X021996Y013849D03*
X022154Y013849D03*
X022311Y013849D03*
X022469Y013849D03*
X022626Y013849D03*
X022784Y013849D03*
X022941Y013849D03*
X023099Y013849D03*
X023256Y013849D03*
X023414Y013849D03*
X023571Y013849D03*
X023729Y013849D03*
X023729Y019952D03*
X023571Y019952D03*
X023414Y019952D03*
X023256Y019952D03*
X023099Y019952D03*
X022941Y019952D03*
X022784Y019952D03*
X022626Y019952D03*
X022469Y019952D03*
X022311Y019952D03*
X022154Y019952D03*
X021996Y019952D03*
X021839Y019952D03*
X021681Y019952D03*
X021524Y019952D03*
X021366Y019952D03*
X021209Y019952D03*
X021051Y019952D03*
X020894Y019952D03*
X020736Y019952D03*
X020579Y019952D03*
X020421Y019952D03*
X020264Y019952D03*
X020106Y019952D03*
X019949Y019952D03*
X019791Y019952D03*
X019634Y019952D03*
X019477Y019952D03*
X019319Y019952D03*
X019162Y019952D03*
X019004Y019952D03*
X018847Y019952D03*
D11*
X018236Y019341D03*
X018236Y019184D03*
X018236Y019026D03*
X018236Y018869D03*
X018236Y018711D03*
X018236Y018554D03*
X018236Y018397D03*
X018236Y018239D03*
X018236Y018082D03*
X018236Y017924D03*
X018236Y017767D03*
X018236Y017609D03*
X018236Y017452D03*
X018236Y017294D03*
X018236Y017137D03*
X018236Y016979D03*
X018236Y016822D03*
X018236Y016664D03*
X018236Y016507D03*
X018236Y016349D03*
X018236Y016192D03*
X018236Y016034D03*
X018236Y015877D03*
X018236Y015719D03*
X018236Y015562D03*
X018236Y015404D03*
X018236Y015247D03*
X018236Y015089D03*
X018236Y014932D03*
X018236Y014774D03*
X018236Y014617D03*
X018236Y014460D03*
X024339Y014460D03*
X024339Y014617D03*
X024339Y014774D03*
X024339Y014932D03*
X024339Y015089D03*
X024339Y015247D03*
X024339Y015404D03*
X024339Y015562D03*
X024339Y015719D03*
X024339Y015877D03*
X024339Y016034D03*
X024339Y016192D03*
X024339Y016349D03*
X024339Y016507D03*
X024339Y016664D03*
X024339Y016822D03*
X024339Y016979D03*
X024339Y017137D03*
X024339Y017294D03*
X024339Y017452D03*
X024339Y017609D03*
X024339Y017767D03*
X024339Y017924D03*
X024339Y018082D03*
X024339Y018239D03*
X024339Y018397D03*
X024339Y018554D03*
X024339Y018711D03*
X024339Y018869D03*
X024339Y019026D03*
X024339Y019184D03*
X024339Y019341D03*
D12*
X003812Y008752D03*
X004512Y008752D03*
X005512Y008752D03*
X006212Y008752D03*
X007412Y009202D03*
X008112Y009202D03*
X005162Y009902D03*
X004462Y009902D03*
X004462Y010602D03*
X005162Y010602D03*
X005302Y011732D03*
X005302Y012432D03*
X010062Y012892D03*
X010062Y013592D03*
X010062Y014502D03*
X010062Y015202D03*
X010062Y016152D03*
X010062Y016852D03*
X010062Y017502D03*
X010062Y018202D03*
X010062Y018802D03*
X010062Y019502D03*
X010062Y020152D03*
X010062Y020852D03*
X010012Y022002D03*
X010712Y022002D03*
X011462Y022002D03*
X012162Y022002D03*
X012912Y022002D03*
X013612Y022002D03*
X014362Y022002D03*
X015062Y022002D03*
X016462Y019152D03*
X016462Y018502D03*
X016462Y017902D03*
X016462Y017302D03*
X016462Y016702D03*
X017162Y016702D03*
X017162Y017302D03*
X017162Y017902D03*
X017162Y018502D03*
X017162Y019152D03*
X016912Y016052D03*
X016162Y016052D03*
X016162Y015352D03*
X016912Y015352D03*
X017512Y015352D03*
X017512Y016052D03*
X017612Y013002D03*
X017612Y012302D03*
X018312Y012302D03*
X018312Y013002D03*
X019612Y012202D03*
X020212Y012202D03*
X020812Y012202D03*
X021412Y012202D03*
X022012Y012202D03*
X022612Y012202D03*
X023212Y012202D03*
X023812Y012202D03*
X024412Y012202D03*
X024412Y011502D03*
X023812Y011502D03*
X023212Y011502D03*
X022612Y011502D03*
X022012Y011502D03*
X021412Y011502D03*
X020812Y011502D03*
X020212Y011502D03*
X019612Y011502D03*
X020712Y009652D03*
X020712Y008952D03*
X020712Y008152D03*
X020712Y007452D03*
X016642Y010502D03*
X016642Y011152D03*
X016642Y011802D03*
X015942Y011802D03*
X015942Y011152D03*
X015942Y010502D03*
X015942Y012452D03*
X016642Y012452D03*
X008512Y016552D03*
X007812Y016552D03*
X007812Y017752D03*
X008512Y017752D03*
X008512Y018552D03*
X007812Y018552D03*
X007012Y018652D03*
X006312Y018652D03*
X005662Y018652D03*
X004962Y018652D03*
X005212Y019252D03*
X005212Y019852D03*
X004512Y019852D03*
X003912Y020052D03*
X003912Y019352D03*
X004512Y019252D03*
X003212Y019352D03*
X003212Y020052D03*
X003312Y020802D03*
X003312Y021502D03*
X006312Y019352D03*
X007012Y019352D03*
X007812Y019352D03*
X008512Y019352D03*
X003912Y018052D03*
X003212Y018052D03*
X003212Y017402D03*
X003212Y016802D03*
X003912Y016802D03*
X003912Y017402D03*
X006612Y023452D03*
X006612Y024152D03*
X019912Y022602D03*
X020512Y022602D03*
X021112Y022602D03*
X021112Y021902D03*
X020512Y021902D03*
X019912Y021902D03*
X024922Y020892D03*
X024922Y020192D03*
X028362Y020502D03*
X028362Y021102D03*
X028362Y021802D03*
X028362Y022852D03*
X027662Y022852D03*
X029112Y022842D03*
X029812Y022842D03*
X032512Y022702D03*
X032512Y022002D03*
X033412Y022002D03*
X033412Y022702D03*
X034362Y022702D03*
X034362Y022002D03*
X035762Y023302D03*
X035762Y024002D03*
X038112Y023502D03*
X038712Y023502D03*
X038712Y022802D03*
X038112Y022802D03*
X038012Y022052D03*
X038712Y022052D03*
X038362Y019452D03*
X038362Y018752D03*
X038362Y018102D03*
X037662Y018102D03*
X037662Y018752D03*
X037662Y019452D03*
X037662Y017402D03*
X038362Y017402D03*
X034962Y014402D03*
X034362Y014402D03*
X033762Y014402D03*
X033762Y013702D03*
X034362Y013702D03*
X034962Y013702D03*
X033062Y013702D03*
X032312Y013852D03*
X032312Y013252D03*
X031612Y013252D03*
X031612Y013852D03*
X031612Y014452D03*
X032312Y014452D03*
X033062Y014402D03*
X029912Y015702D03*
X029912Y016402D03*
X029962Y017152D03*
X029962Y017752D03*
X029962Y018352D03*
X029962Y018952D03*
X030662Y018952D03*
X030662Y018352D03*
X030662Y017752D03*
X030662Y017152D03*
X028462Y017702D03*
X027712Y017102D03*
X027012Y017102D03*
X027012Y016352D03*
X027012Y015752D03*
X027012Y015152D03*
X027012Y014552D03*
X027712Y014552D03*
X027712Y015152D03*
X027712Y015752D03*
X027712Y016352D03*
X026062Y016352D03*
X026062Y015752D03*
X026062Y015152D03*
X026062Y014552D03*
X025362Y014552D03*
X025362Y015152D03*
X025362Y015752D03*
X025362Y016352D03*
X025362Y016952D03*
X025362Y017552D03*
X026062Y017552D03*
X026062Y016952D03*
X028462Y018402D03*
X028362Y019802D03*
X030962Y019902D03*
X031662Y019902D03*
X030012Y010802D03*
X029312Y010802D03*
X029312Y010202D03*
X030012Y010202D03*
X030012Y009252D03*
X030012Y008552D03*
X028062Y007202D03*
X028062Y006502D03*
X028062Y005652D03*
X027262Y005652D03*
X027262Y004952D03*
X028062Y004952D03*
X027912Y008152D03*
X027212Y008152D03*
X027212Y010402D03*
X027912Y010402D03*
X031962Y009252D03*
X031962Y008552D03*
X034762Y008552D03*
X034762Y009252D03*
X037562Y009252D03*
X037562Y008552D03*
D13*
X036212Y016002D03*
X036212Y019202D03*
X027062Y018552D03*
X027062Y021752D03*
D14*
X029088Y022136D03*
X029836Y022136D03*
X029462Y021269D03*
X029462Y020546D03*
X029088Y019679D03*
X029836Y019679D03*
X028062Y023519D03*
X027688Y024386D03*
X028436Y024386D03*
X013036Y012286D03*
X012288Y012286D03*
X012662Y011419D03*
D15*
X021791Y006440D03*
X022224Y006440D03*
X022657Y006361D03*
X023090Y006440D03*
X023523Y006361D03*
X023956Y006440D03*
X024389Y006597D03*
X024822Y006440D03*
D16*
X024350Y010613D03*
X022106Y010613D03*
D17*
X021476Y005318D03*
X026653Y004924D03*
D18*
X027262Y006452D03*
X027262Y007252D03*
X032712Y008602D03*
X032712Y009402D03*
X035512Y009502D03*
X035512Y008702D03*
X038312Y008702D03*
X039162Y008702D03*
X039162Y009502D03*
X038312Y009502D03*
X029162Y017752D03*
X029162Y018552D03*
D19*
X015445Y018432D03*
X015445Y018688D03*
X015445Y018944D03*
X015445Y019200D03*
X015445Y019456D03*
X015445Y019711D03*
X015445Y019967D03*
X015445Y020223D03*
X015445Y020479D03*
X015445Y020735D03*
X015445Y020991D03*
X015445Y021247D03*
X015445Y018176D03*
X015445Y017920D03*
X015445Y017664D03*
X015445Y017408D03*
X015445Y017152D03*
X015445Y016897D03*
X015445Y016641D03*
X015445Y016385D03*
X015445Y016129D03*
X015445Y015873D03*
X015445Y015617D03*
X015445Y015361D03*
X015445Y015105D03*
X015445Y014849D03*
X015445Y014593D03*
X015445Y014337D03*
X015445Y014082D03*
X015445Y013826D03*
X015445Y013570D03*
X015445Y013314D03*
X015445Y013058D03*
X010780Y013058D03*
X010780Y013314D03*
X010780Y013570D03*
X010780Y013826D03*
X010780Y014082D03*
X010780Y014337D03*
X010780Y014593D03*
X010780Y014849D03*
X010780Y015105D03*
X010780Y015361D03*
X010780Y015617D03*
X010780Y015873D03*
X010780Y016129D03*
X010780Y016385D03*
X010780Y016641D03*
X010780Y016897D03*
X010780Y017152D03*
X010780Y017408D03*
X010780Y017664D03*
X010780Y017920D03*
X010780Y018176D03*
X010780Y018432D03*
X010780Y018688D03*
X010780Y018944D03*
X010780Y019200D03*
X010780Y019456D03*
X010780Y019711D03*
X010780Y019967D03*
X010780Y020223D03*
X010780Y020479D03*
X010780Y020735D03*
X010780Y020991D03*
X010780Y021247D03*
D20*
X022342Y021652D03*
X022942Y021652D03*
X023792Y021652D03*
X024392Y021652D03*
X024392Y022652D03*
X023792Y022652D03*
X022942Y022652D03*
X022342Y022652D03*
X027262Y009802D03*
X027862Y009802D03*
X027862Y008802D03*
X027262Y008802D03*
D21*
X027262Y009152D03*
X027262Y009452D03*
X027862Y009452D03*
X027862Y009152D03*
X024392Y022002D03*
X024392Y022302D03*
X023792Y022302D03*
X023792Y022002D03*
X022942Y022002D03*
X022942Y022302D03*
X022342Y022302D03*
X022342Y022002D03*
D22*
X006836Y018152D03*
X006836Y017652D03*
X006836Y017152D03*
X006836Y016652D03*
X004789Y016652D03*
X004789Y017152D03*
X004789Y017652D03*
X004789Y018152D03*
D23*
X005074Y021178D03*
X005074Y021552D03*
X005074Y021926D03*
X004051Y021926D03*
X004051Y021178D03*
D24*
X007512Y015434D03*
X007512Y013071D03*
D25*
X008563Y021502D03*
X006201Y021502D03*
X025391Y012272D03*
X027753Y012272D03*
D26*
X028850Y012202D03*
X030775Y012202D03*
D27*
X019659Y009611D03*
X015659Y009611D03*
X017021Y006580D03*
X015659Y005871D03*
X015659Y004729D03*
X013021Y006580D03*
X019659Y005871D03*
X019659Y004729D03*
D28*
X017966Y011186D03*
X013966Y011186D03*
D29*
X018222Y019922D03*
D30*
X028688Y009514D03*
X029062Y009514D03*
X029436Y009514D03*
X029436Y008491D03*
X028688Y008491D03*
D31*
X031975Y015789D03*
X031975Y016045D03*
X031975Y016301D03*
X031975Y016557D03*
X031975Y016813D03*
X031975Y017069D03*
X031975Y017324D03*
X031975Y017580D03*
X031975Y017836D03*
X031975Y018092D03*
X031975Y018348D03*
X031975Y018604D03*
X031975Y018860D03*
X031975Y019116D03*
X034750Y019116D03*
X034750Y018860D03*
X034750Y018604D03*
X034750Y018348D03*
X034750Y018092D03*
X034750Y017836D03*
X034750Y017580D03*
X034750Y017324D03*
X034750Y017069D03*
X034750Y016813D03*
X034750Y016557D03*
X034750Y016301D03*
X034750Y016045D03*
X034750Y015789D03*
D32*
X033862Y013002D03*
X033062Y013002D03*
D33*
X007819Y011552D03*
X006105Y011552D03*
M02*
