G75*
G70*
%OFA0B0*%
%FSLAX24Y24*%
%IPPOS*%
%LPD*%
%AMOC8*
5,1,8,0,0,1.08239X$1,22.5*
%
%ADD10R,0.0240X0.0230*%
%ADD11R,0.0400X0.0400*%
%ADD12R,0.0230X0.0240*%
%ADD13R,0.0157X0.0551*%
%ADD14C,0.0394*%
%ADD15R,0.0660X0.0660*%
%ADD16C,0.0660*%
%ADD17R,0.0236X0.0866*%
%ADD18R,0.0200X0.0300*%
%ADD19R,0.0394X0.0551*%
%ADD20R,0.0900X0.0800*%
%ADD21C,0.0180*%
%ADD22C,0.0050*%
%ADD23C,0.0200*%
%ADD24C,0.0100*%
%ADD25C,0.0354*%
%ADD26C,0.0295*%
%ADD27C,0.0240*%
%ADD28C,0.0300*%
%ADD29C,0.0400*%
%ADD30C,0.0237*%
%ADD31C,0.0150*%
%ADD32C,0.0198*%
%ADD33C,0.0160*%
%ADD34C,0.0350*%
%ADD35C,0.0180*%
%ADD36C,0.0070*%
D10*
X007552Y009988D03*
X007952Y009988D03*
X012252Y009988D03*
X012652Y009988D03*
X014002Y017538D03*
X014002Y017888D03*
X014002Y018238D03*
X014002Y018588D03*
X014002Y018938D03*
X014402Y018938D03*
X014402Y018588D03*
X014402Y018238D03*
X014402Y017888D03*
X014402Y017538D03*
X012699Y018090D03*
X012299Y018090D03*
X011833Y018149D03*
X011433Y018149D03*
X012023Y018621D03*
X012423Y018621D03*
X011774Y019094D03*
X012063Y019448D03*
X012463Y019448D03*
X013252Y020038D03*
X013652Y020038D03*
X013752Y020638D03*
X013352Y020638D03*
X011374Y019094D03*
X010888Y019448D03*
X010488Y019448D03*
X008302Y017742D03*
X007902Y017742D03*
D11*
X008202Y017238D03*
X008202Y016638D03*
X008202Y016038D03*
X007502Y016038D03*
X007502Y016638D03*
X007502Y017238D03*
X007502Y018938D03*
X007502Y019538D03*
X008202Y019538D03*
X008202Y018938D03*
X008252Y020688D03*
X007552Y020688D03*
X009452Y022838D03*
X009452Y023538D03*
X009452Y024138D03*
X009452Y024838D03*
X008102Y025188D03*
X007402Y025188D03*
X012066Y020782D03*
X012066Y020082D03*
X012692Y020788D03*
X013302Y021138D03*
X012692Y021488D03*
X014002Y021138D03*
X013404Y019483D03*
X013404Y018783D03*
X013502Y017038D03*
X012802Y017038D03*
X011702Y015888D03*
X011002Y015888D03*
X011195Y017637D03*
X010885Y018232D03*
X010885Y018932D03*
X010495Y017637D03*
X007352Y014338D03*
X007352Y013638D03*
X015652Y009688D03*
X015652Y008988D03*
X017052Y011188D03*
X017652Y011188D03*
X017652Y011888D03*
X017052Y011888D03*
X017152Y016688D03*
X017152Y017288D03*
X017152Y017888D03*
X017152Y018488D03*
X017152Y019088D03*
X017152Y019688D03*
X017152Y020338D03*
X017152Y020938D03*
X017152Y021538D03*
X017152Y022138D03*
X016452Y022138D03*
X016452Y021538D03*
X016452Y020938D03*
X016452Y020338D03*
X016452Y019688D03*
X016452Y019088D03*
X016452Y018488D03*
X016452Y017888D03*
X016452Y017288D03*
X016452Y016688D03*
D12*
X011475Y020350D03*
X011475Y020750D03*
X010885Y020626D03*
X010530Y020626D03*
X010530Y021026D03*
X010885Y021026D03*
X010255Y018516D03*
X010255Y018116D03*
X006952Y019188D03*
X006952Y019588D03*
X006952Y016538D03*
X006952Y016138D03*
X008852Y025038D03*
X008852Y025438D03*
D13*
X009003Y015193D03*
X009318Y015193D03*
X009633Y015193D03*
X009948Y015193D03*
X010263Y015193D03*
X010578Y015193D03*
X010893Y015193D03*
X011208Y015193D03*
X011523Y015193D03*
X011837Y015193D03*
X012152Y015193D03*
X012467Y015193D03*
X012782Y015193D03*
X013097Y015193D03*
X013412Y015193D03*
X013727Y015193D03*
X014042Y015193D03*
X014357Y015193D03*
X014672Y015193D03*
X014987Y015193D03*
X015302Y015193D03*
X015617Y015193D03*
X015932Y015193D03*
X016247Y015193D03*
X016247Y010626D03*
X015932Y010626D03*
X015617Y010626D03*
X015302Y010626D03*
X014987Y010626D03*
X014672Y010626D03*
X014357Y010626D03*
X014042Y010626D03*
X013727Y010626D03*
X013412Y010626D03*
X013097Y010626D03*
X012782Y010626D03*
X012467Y010626D03*
X012152Y010626D03*
X011837Y010626D03*
X011523Y010626D03*
X011208Y010626D03*
X010893Y010626D03*
X010578Y010626D03*
X010263Y010626D03*
X009948Y010626D03*
X009633Y010626D03*
X009318Y010626D03*
X009003Y010626D03*
X008688Y010626D03*
X008373Y010626D03*
X008058Y010626D03*
X008058Y015193D03*
X008373Y015193D03*
X008688Y015193D03*
D14*
X005502Y009538D03*
X006802Y025888D03*
X018802Y009538D03*
D15*
X018652Y011038D03*
X004652Y011038D03*
X004652Y008038D03*
D16*
X005652Y008038D03*
X006652Y008038D03*
X007652Y008038D03*
X008652Y008038D03*
X009652Y008038D03*
X010652Y008038D03*
X011652Y008038D03*
X012652Y008038D03*
X013652Y008038D03*
X014652Y008038D03*
X015652Y008038D03*
X016652Y008038D03*
X017652Y008038D03*
X018652Y008038D03*
X019652Y008038D03*
X019652Y011038D03*
X019652Y012038D03*
X019652Y013038D03*
X019652Y014038D03*
X018652Y014038D03*
X018652Y013038D03*
X018652Y012038D03*
X018652Y015038D03*
X018652Y016038D03*
X018652Y017038D03*
X018652Y018038D03*
X018652Y019038D03*
X018652Y020038D03*
X018652Y021038D03*
X018652Y022038D03*
X018652Y023038D03*
X019652Y023038D03*
X019652Y022038D03*
X019652Y021038D03*
X019652Y020038D03*
X019652Y019038D03*
X019652Y018038D03*
X019652Y017038D03*
X019652Y016038D03*
X019652Y015038D03*
X005652Y015038D03*
X005652Y016038D03*
X005652Y017038D03*
X005652Y018038D03*
X004652Y018038D03*
X004652Y017038D03*
X004652Y016038D03*
X004652Y015038D03*
X004652Y014038D03*
X004652Y013038D03*
X004652Y012038D03*
X005652Y012038D03*
X005652Y013038D03*
X005652Y014038D03*
X005652Y011038D03*
X005652Y019038D03*
X005652Y020038D03*
X005652Y021038D03*
X005652Y022038D03*
X004652Y022038D03*
X004652Y021038D03*
X004652Y020038D03*
X004652Y019038D03*
X004652Y023038D03*
X005652Y023038D03*
D17*
X007002Y024366D03*
X007502Y024366D03*
X008002Y024366D03*
X008502Y024366D03*
X008502Y021610D03*
X008002Y021610D03*
X007502Y021610D03*
X007002Y021610D03*
D18*
X011252Y021638D03*
X011552Y021638D03*
D19*
X008850Y009138D03*
X007354Y009138D03*
D20*
X011152Y009188D03*
X012852Y009188D03*
D21*
X011790Y016259D03*
X011790Y016574D03*
X011790Y016889D03*
X011475Y016889D03*
X011475Y017204D03*
X011475Y017519D03*
X011790Y017519D03*
X011790Y017834D03*
X012105Y017834D03*
X012105Y018149D03*
X012105Y018464D03*
X012105Y018779D03*
X012105Y019094D03*
X011790Y019409D03*
X011790Y019723D03*
X011475Y019723D03*
X011475Y019409D03*
X011160Y019409D03*
X011160Y019723D03*
X010845Y019723D03*
X010530Y019723D03*
X010215Y019723D03*
X010215Y019409D03*
X010530Y019094D03*
X010530Y018779D03*
X010215Y018779D03*
X010530Y018464D03*
X010530Y018149D03*
X010215Y017834D03*
X009900Y017834D03*
X009586Y017834D03*
X009586Y018149D03*
X009900Y018149D03*
X009900Y018464D03*
X009900Y018779D03*
X009586Y018779D03*
X009586Y019409D03*
X009586Y019723D03*
X009900Y019723D03*
X009900Y019409D03*
X009900Y020038D03*
X009586Y020038D03*
X009586Y020353D03*
X009900Y020353D03*
X010215Y020038D03*
X010530Y020038D03*
X010845Y020038D03*
X011160Y020038D03*
X011160Y020353D03*
X010845Y020353D03*
X010530Y020353D03*
X010255Y020786D03*
X009900Y020936D03*
X009586Y020983D03*
X009271Y020905D03*
X008956Y020353D03*
X008956Y020038D03*
X008641Y020275D03*
X009271Y019723D03*
X008802Y018988D03*
X008602Y018838D03*
X009271Y017519D03*
X009586Y017519D03*
X009900Y017519D03*
X009900Y017204D03*
X009586Y017204D03*
X009586Y016889D03*
X009900Y016889D03*
X010215Y016889D03*
X010215Y017204D03*
X010530Y017204D03*
X010530Y016889D03*
X010530Y016574D03*
X010845Y016889D03*
X010845Y017204D03*
X010845Y017519D03*
X011160Y017204D03*
X011160Y016889D03*
X011160Y016574D03*
X010530Y016259D03*
X010530Y015983D03*
X009271Y016259D03*
X009271Y016574D03*
X008956Y016574D03*
X009271Y017204D03*
X008752Y017488D03*
X011160Y018149D03*
X011475Y018464D03*
X011475Y018779D03*
X011790Y018779D03*
X011790Y018464D03*
X012420Y018464D03*
X012735Y018464D03*
X012735Y018779D03*
X012735Y019094D03*
X012735Y019409D03*
X012735Y019723D03*
X012420Y019723D03*
X012420Y020038D03*
X012735Y020038D03*
X013050Y020038D03*
X013050Y020353D03*
X012735Y020353D03*
X012420Y020353D03*
X012105Y020353D03*
X011790Y020038D03*
X011475Y020038D03*
X011160Y020668D03*
X011042Y020905D03*
X011790Y020668D03*
X013050Y020668D03*
X013365Y020353D03*
X013444Y019763D03*
X013050Y019094D03*
X013050Y018779D03*
X013050Y018149D03*
X013050Y017834D03*
X012735Y017834D03*
X012420Y017834D03*
X012420Y017519D03*
X012420Y017204D03*
X012420Y016889D03*
X012105Y017519D03*
X011790Y017204D03*
X013050Y017519D03*
X013365Y017834D03*
X011160Y018779D03*
X010152Y021238D03*
D22*
X009854Y021488D02*
X010652Y021488D01*
X011602Y022438D01*
X016852Y022438D01*
X016902Y022388D01*
X017402Y022388D02*
X017452Y022438D01*
X018252Y022438D01*
X018452Y022238D01*
X019152Y022538D02*
X019352Y022338D01*
X019152Y022538D02*
X011552Y022538D01*
X010702Y021688D01*
X010563Y021688D01*
X011042Y020905D02*
X011082Y020865D01*
X010530Y020038D02*
X009930Y020638D01*
X009102Y020638D01*
X008852Y020888D01*
X008852Y022688D01*
X008602Y022938D01*
X008602Y023038D01*
X008502Y023038D01*
X008152Y023388D01*
X007252Y023388D01*
X007002Y023638D01*
X006752Y023488D02*
X006952Y023288D01*
X008102Y023288D01*
X008752Y022638D01*
X008752Y020838D01*
X009052Y020538D01*
X009715Y020538D01*
X009900Y020353D01*
X009586Y020353D02*
X009096Y019863D01*
X008802Y019863D01*
X008377Y020288D01*
X007952Y020288D01*
X007902Y020338D01*
X007902Y020988D01*
X008002Y021088D01*
X008002Y021138D01*
X007902Y021038D01*
X007902Y021138D01*
X008002Y021238D01*
X007902Y021038D02*
X007902Y020988D01*
X007752Y019988D02*
X006852Y019988D01*
X006252Y020588D01*
X006252Y021288D01*
X005952Y021588D01*
X005102Y021588D01*
X004902Y021788D01*
X005102Y021488D02*
X004902Y021288D01*
X005102Y021488D02*
X005902Y021488D01*
X006152Y021238D01*
X006152Y020538D01*
X006802Y019888D01*
X007702Y019888D01*
X007852Y019738D01*
X007852Y019288D01*
X008052Y019088D01*
X008202Y018938D02*
X008452Y019188D01*
X009680Y019188D01*
X009900Y019409D01*
X009586Y019409D02*
X009465Y019288D01*
X008452Y019288D01*
X008202Y019538D01*
X008052Y019688D02*
X007752Y019988D01*
X007152Y020188D02*
X006552Y020788D01*
X006552Y022388D01*
X006352Y022588D01*
X006102Y022588D01*
X005902Y022788D01*
X006102Y022488D02*
X006302Y022488D01*
X006452Y022338D01*
X006452Y020738D01*
X006902Y020288D01*
X006902Y020188D01*
X005952Y019588D02*
X006602Y018938D01*
X006952Y018938D01*
X007252Y018638D01*
X009202Y018638D01*
X009277Y018713D01*
X009520Y018713D01*
X009586Y018779D01*
X009657Y018613D02*
X009327Y018613D01*
X009252Y018538D01*
X007202Y018538D01*
X006902Y018838D01*
X006552Y018838D01*
X005902Y019488D01*
X005102Y019488D01*
X004902Y019288D01*
X005102Y019588D02*
X005952Y019588D01*
X005902Y018788D02*
X006002Y018688D01*
X006902Y018688D01*
X007152Y018438D01*
X009302Y018438D01*
X009377Y018513D01*
X009714Y018513D01*
X009822Y018621D01*
X009979Y018621D01*
X010137Y018779D01*
X010215Y018779D01*
X009900Y018779D02*
X009822Y018779D01*
X009657Y018613D01*
X009850Y018413D02*
X009427Y018413D01*
X009352Y018338D01*
X007102Y018338D01*
X006852Y018588D01*
X006202Y018588D01*
X005902Y018288D01*
X005952Y017588D02*
X006752Y018388D01*
X006752Y018138D02*
X006652Y018138D01*
X006002Y017488D01*
X005102Y017488D01*
X004902Y017288D01*
X005102Y017588D02*
X005952Y017588D01*
X005952Y017088D02*
X006052Y017088D01*
X006752Y017788D01*
X006752Y017888D01*
X007002Y017888D02*
X006252Y017138D01*
X006252Y016638D01*
X005952Y016338D01*
X006402Y016138D02*
X006402Y016938D01*
X007702Y018238D01*
X009402Y018238D01*
X009477Y018313D01*
X009736Y018313D01*
X009900Y018149D01*
X009743Y017991D02*
X009305Y017991D01*
X008952Y017638D01*
X008952Y017288D01*
X008452Y016788D01*
X008352Y016788D01*
X008502Y016688D02*
X009052Y017238D01*
X009052Y017588D01*
X009298Y017834D01*
X009586Y017834D01*
X009743Y017991D02*
X009900Y017834D01*
X009586Y018149D02*
X009575Y018138D01*
X007752Y018138D01*
X006502Y016888D01*
X006502Y016088D01*
X005902Y015488D01*
X005102Y015488D01*
X004902Y015288D01*
X005102Y015588D02*
X005852Y015588D01*
X006402Y016138D01*
X006352Y015738D02*
X007752Y015738D01*
X007852Y015838D01*
X007852Y016288D01*
X008052Y016488D01*
X008352Y016188D02*
X008502Y016338D01*
X008502Y016688D01*
X009113Y016653D02*
X009113Y016078D01*
X009302Y015888D01*
X009412Y015888D01*
X009452Y015928D01*
X009452Y016595D01*
X009492Y016635D01*
X009562Y016635D01*
X009602Y016595D01*
X009602Y015938D01*
X009642Y015898D01*
X009712Y015898D01*
X009752Y015938D01*
X009752Y016595D01*
X009792Y016635D01*
X009852Y016635D01*
X009902Y016585D01*
X009902Y015666D01*
X009989Y015580D01*
X010211Y015580D01*
X010263Y015528D01*
X010064Y015688D02*
X010502Y015688D01*
X010752Y015938D01*
X010802Y016208D02*
X010752Y016258D01*
X010752Y016678D01*
X010699Y016731D01*
X010057Y016731D01*
X010024Y016698D01*
X010024Y016628D01*
X010064Y016588D01*
X010312Y016588D01*
X010352Y016548D01*
X010352Y016478D01*
X010312Y016438D01*
X010064Y016438D01*
X010024Y016398D01*
X010024Y016328D01*
X010064Y016288D01*
X010312Y016288D01*
X010352Y016248D01*
X010352Y016178D01*
X010312Y016138D01*
X010064Y016138D01*
X010024Y016098D01*
X010024Y016028D01*
X010064Y015988D01*
X010312Y015988D01*
X010352Y015948D01*
X010352Y015878D01*
X010312Y015838D01*
X010064Y015838D01*
X010024Y015798D01*
X010024Y015728D01*
X010064Y015688D01*
X009952Y015198D02*
X009948Y015193D01*
X009552Y014888D02*
X009352Y014688D01*
X009352Y014338D01*
X009252Y014238D01*
X008802Y014238D01*
X008752Y014188D01*
X008752Y014088D01*
X008802Y014038D01*
X009152Y014038D01*
X009552Y014388D02*
X009552Y014538D01*
X009602Y014588D01*
X009852Y014588D01*
X009952Y014688D01*
X010302Y014688D01*
X010578Y014964D01*
X010652Y014738D02*
X010502Y014588D01*
X010002Y014588D01*
X008802Y013388D01*
X008802Y011288D01*
X008373Y010859D01*
X008373Y010626D01*
X008688Y010626D02*
X008688Y011024D01*
X008902Y011238D01*
X008902Y013338D01*
X010052Y014488D01*
X010802Y014488D01*
X011002Y014388D02*
X011002Y014288D01*
X011052Y014238D01*
X011352Y014238D01*
X011402Y014188D01*
X011402Y014088D01*
X011352Y014038D01*
X011052Y014038D01*
X011002Y013988D01*
X011002Y013838D01*
X011102Y013738D01*
X011302Y013838D02*
X011302Y010938D01*
X011208Y010844D01*
X011208Y010626D01*
X011523Y010626D02*
X011523Y011818D01*
X011402Y011938D01*
X011402Y013788D01*
X011602Y013988D01*
X011602Y014088D01*
X011752Y014238D01*
X012902Y014238D01*
X013252Y014588D01*
X013052Y014738D02*
X012652Y014338D01*
X011702Y014338D01*
X011502Y014138D01*
X011502Y014038D01*
X011302Y013838D01*
X011602Y013738D02*
X011702Y013638D01*
X011702Y013488D01*
X011652Y013438D01*
X011552Y013438D01*
X011502Y013388D01*
X011502Y013288D01*
X011552Y013238D01*
X011652Y013238D01*
X011702Y013188D01*
X011702Y013088D01*
X011652Y013038D01*
X011552Y013038D01*
X011502Y012988D01*
X011502Y012888D01*
X011552Y012838D01*
X011652Y012838D01*
X011702Y012788D01*
X011702Y012688D01*
X011652Y012638D01*
X011552Y012638D01*
X011502Y012588D01*
X011502Y012488D01*
X011552Y012438D01*
X011652Y012438D01*
X011702Y012388D01*
X011702Y012288D01*
X011652Y012238D01*
X011552Y012238D01*
X011502Y012188D01*
X011502Y012088D01*
X011552Y012038D01*
X011652Y012038D01*
X011702Y011988D01*
X011702Y010988D01*
X011837Y010853D01*
X011837Y010626D01*
X012467Y010626D02*
X012467Y011373D01*
X012252Y011588D01*
X011852Y011588D01*
X011802Y011638D01*
X011802Y011738D01*
X011852Y011788D01*
X012152Y011788D01*
X012202Y011838D01*
X012202Y011938D01*
X012152Y011988D01*
X011852Y011988D01*
X011802Y012038D01*
X011802Y012138D01*
X011852Y012188D01*
X012152Y012188D01*
X012202Y012238D01*
X012202Y012338D01*
X012152Y012388D01*
X011852Y012388D01*
X011802Y012438D01*
X011802Y013988D01*
X011852Y014038D01*
X011902Y013838D02*
X012102Y014038D01*
X012352Y014038D02*
X012452Y013938D01*
X013152Y013938D01*
X013202Y013888D01*
X013202Y012388D01*
X013252Y012338D01*
X013452Y012338D01*
X013502Y012288D01*
X013502Y012188D01*
X013452Y012138D01*
X013252Y012138D01*
X013202Y012088D01*
X013202Y011988D01*
X013252Y011938D01*
X013452Y011938D01*
X013502Y011888D01*
X013502Y011788D01*
X013452Y011738D01*
X013252Y011738D01*
X013202Y011688D01*
X013202Y011538D01*
X013252Y011488D01*
X013452Y011488D01*
X013502Y011438D01*
X013502Y011238D01*
X013412Y011148D01*
X013412Y010626D01*
X013102Y010631D02*
X013102Y013188D01*
X012952Y013338D01*
X012002Y013338D01*
X011902Y013438D01*
X011902Y013838D01*
X011902Y014438D02*
X012502Y014438D01*
X012802Y014738D01*
X012552Y014638D02*
X012552Y014838D01*
X012502Y014888D01*
X012352Y014738D02*
X012352Y014638D01*
X012402Y014588D01*
X012502Y014588D01*
X012552Y014638D01*
X012352Y014738D02*
X012302Y014788D01*
X012202Y014788D01*
X012152Y014738D01*
X012152Y014663D01*
X012102Y014613D01*
X011977Y014613D01*
X011902Y014438D02*
X011752Y014588D01*
X011752Y014738D01*
X011837Y014823D01*
X011837Y015193D01*
X011352Y014638D02*
X011202Y014638D01*
X011152Y014688D01*
X011152Y014888D01*
X011352Y014638D02*
X011402Y014588D01*
X011402Y014488D01*
X011352Y014438D01*
X011052Y014438D01*
X011002Y014388D01*
X010802Y014088D02*
X010702Y013988D01*
X010702Y011038D01*
X010893Y010848D01*
X010893Y010626D01*
X010602Y010651D02*
X010602Y014288D01*
X010402Y013888D02*
X010452Y013838D01*
X010452Y011038D01*
X010252Y010838D01*
X010252Y010636D01*
X010263Y010626D01*
X010578Y010626D02*
X010602Y010651D01*
X009948Y010626D02*
X009948Y010843D01*
X009852Y010938D01*
X009852Y011438D01*
X009952Y011538D01*
X009952Y013688D01*
X010052Y013788D01*
X009852Y014038D02*
X010102Y014288D01*
X009852Y014038D02*
X009852Y011988D01*
X009802Y011938D01*
X009602Y011938D01*
X009552Y011888D01*
X009552Y011788D01*
X009602Y011738D01*
X009802Y011738D01*
X009852Y011688D01*
X009852Y011588D01*
X009802Y011538D01*
X009602Y011538D01*
X009552Y011488D01*
X009552Y010899D01*
X009633Y010819D01*
X009633Y010626D01*
X009318Y010626D02*
X009318Y011804D01*
X009752Y012238D01*
X009752Y013438D01*
X009652Y013538D01*
X009352Y013488D02*
X009302Y013488D01*
X009002Y013188D01*
X009002Y011188D01*
X009003Y011189D01*
X009003Y010626D01*
X005902Y013488D02*
X006352Y013938D01*
X006352Y014538D01*
X007027Y015213D01*
X007127Y015213D01*
X007127Y015463D02*
X006252Y014588D01*
X006252Y013988D01*
X005852Y013588D01*
X005102Y013588D01*
X004902Y013788D01*
X005102Y013488D02*
X005902Y013488D01*
X005902Y014288D02*
X006102Y014488D01*
X006102Y015338D01*
X006402Y015638D01*
X007802Y015638D01*
X008052Y015888D01*
X008402Y015588D02*
X008602Y015788D01*
X008652Y015838D01*
X008702Y015838D01*
X008902Y015788D02*
X009002Y015888D01*
X008902Y015788D02*
X008902Y015688D01*
X008952Y015638D01*
X009052Y015638D01*
X009102Y015588D01*
X009102Y015488D01*
X009202Y015619D02*
X009202Y015738D01*
X009252Y015788D01*
X009502Y015788D01*
X009552Y015738D01*
X009318Y015504D02*
X009202Y015619D01*
X009113Y016653D02*
X009507Y017046D01*
X010058Y017046D01*
X010215Y016889D01*
X011003Y017283D02*
X011003Y016259D01*
X010952Y016208D01*
X010802Y016208D01*
X011160Y016281D02*
X011202Y016238D01*
X011302Y016238D01*
X011352Y016288D01*
X011352Y016538D01*
X011402Y016588D01*
X011502Y016588D01*
X011552Y016538D01*
X011552Y016438D01*
X011574Y016416D01*
X011916Y016416D01*
X011944Y016388D01*
X014152Y016388D01*
X014202Y016338D01*
X014202Y016238D01*
X014102Y016138D01*
X014102Y015988D01*
X014202Y015888D01*
X014202Y015738D01*
X014052Y015588D01*
X013502Y015588D01*
X013452Y015538D01*
X013202Y015538D02*
X013202Y015638D01*
X013252Y015688D01*
X013952Y015688D01*
X014002Y015738D01*
X014002Y015838D01*
X013952Y015888D01*
X013252Y015888D01*
X013202Y015938D01*
X013202Y016038D01*
X013252Y016088D01*
X013952Y016088D01*
X014002Y016138D01*
X014002Y016238D01*
X013952Y016288D01*
X012852Y016288D01*
X012752Y016188D01*
X012602Y016188D01*
X012502Y016288D01*
X012352Y016288D01*
X012252Y016188D01*
X012102Y016188D01*
X012002Y016288D01*
X011820Y016288D01*
X011790Y016259D01*
X012001Y016488D02*
X014902Y016488D01*
X014952Y016438D01*
X014952Y016338D01*
X014902Y016288D01*
X014352Y016288D01*
X014302Y016238D01*
X014302Y016138D01*
X014352Y016088D01*
X014902Y016088D01*
X014952Y016038D01*
X014952Y015938D01*
X014902Y015888D01*
X014352Y015888D01*
X014302Y015838D01*
X014302Y015688D01*
X014052Y015438D01*
X014352Y015488D02*
X014552Y015688D01*
X014952Y015688D01*
X015052Y015788D01*
X015052Y016488D01*
X014952Y016588D01*
X012059Y016588D01*
X011916Y016731D01*
X011318Y016731D01*
X011160Y016889D01*
X011318Y017046D02*
X011160Y017204D01*
X011003Y017283D02*
X011082Y017361D01*
X012026Y017361D01*
X012066Y017322D01*
X012066Y017164D01*
X012105Y017125D01*
X012184Y017125D01*
X012223Y017164D01*
X012223Y017322D01*
X012263Y017361D01*
X012420Y017519D01*
X013050Y018149D02*
X013340Y018438D01*
X013852Y018438D01*
X014002Y018588D01*
X015152Y016688D02*
X015252Y016588D01*
X015252Y015538D01*
X014452Y014488D02*
X014302Y014338D01*
X014302Y013138D01*
X014252Y013088D01*
X014152Y013088D01*
X014102Y013038D01*
X014102Y012888D01*
X014152Y012838D01*
X014252Y012838D01*
X014302Y012788D01*
X014302Y012638D01*
X014252Y012588D01*
X014152Y012588D01*
X014102Y012538D01*
X014102Y012388D01*
X014152Y012338D01*
X014252Y012338D01*
X014302Y012288D01*
X014302Y012138D01*
X014252Y012088D01*
X014152Y012088D01*
X014102Y012038D01*
X014102Y011888D01*
X014152Y011838D01*
X014252Y011838D01*
X014302Y011788D01*
X014302Y011088D01*
X014042Y010828D01*
X014042Y010626D01*
X014357Y010626D02*
X014357Y010993D01*
X014452Y011088D01*
X014452Y014138D01*
X014702Y014388D01*
X015102Y014288D02*
X015252Y014288D01*
X015652Y013888D01*
X015652Y011138D01*
X015932Y010859D01*
X015932Y010626D01*
X015952Y010606D01*
X015552Y011088D02*
X015302Y010838D01*
X015302Y010626D01*
X014987Y010626D02*
X014987Y010823D01*
X015452Y011288D01*
X015452Y013688D01*
X015302Y013838D01*
X015352Y014038D02*
X015152Y014038D01*
X015352Y014038D02*
X015552Y013838D01*
X015552Y011088D01*
X013102Y010631D02*
X013097Y010626D01*
X017202Y015688D02*
X017552Y015688D01*
X018052Y015188D01*
X018052Y014288D01*
X018302Y014038D01*
X017952Y013788D02*
X018202Y013538D01*
X019152Y013538D01*
X018302Y013038D02*
X017852Y013488D01*
X017852Y013738D01*
X017852Y014088D01*
X017602Y014338D01*
X018152Y014638D02*
X018152Y015238D01*
X017502Y015888D01*
X017502Y016188D02*
X017452Y016188D01*
X017502Y016188D02*
X018502Y015188D01*
X018402Y015538D02*
X017552Y016388D01*
X017202Y016388D01*
X017152Y016338D01*
X017152Y015738D02*
X017202Y015688D01*
X017452Y015488D02*
X017952Y014988D01*
X017952Y013788D01*
X018252Y014538D02*
X018152Y014638D01*
X018252Y014538D02*
X019152Y014538D01*
X019152Y015538D02*
X018402Y015538D01*
X015152Y016688D02*
X012245Y016688D01*
X011887Y017046D01*
X011318Y017046D01*
X011160Y016574D02*
X011160Y016281D01*
X011790Y016574D02*
X011916Y016574D01*
X012001Y016488D01*
X009900Y018464D02*
X009850Y018413D01*
X010207Y020738D02*
X009152Y020738D01*
X008952Y020938D01*
X008952Y022738D01*
X008802Y022888D01*
X008802Y023088D01*
X008602Y023288D01*
X009854Y021488D02*
X009271Y020905D01*
X010207Y020738D02*
X010255Y020786D01*
X006752Y023488D02*
X005102Y023488D01*
X004902Y023288D01*
X005902Y022288D02*
X006102Y022488D01*
X004902Y019788D02*
X005102Y019588D01*
X004902Y017788D02*
X005102Y017588D01*
X004902Y015788D02*
X005102Y015588D01*
X005802Y015188D02*
X006352Y015738D01*
X005102Y013488D02*
X004902Y013288D01*
D23*
X007352Y013638D02*
X007502Y013788D01*
X008752Y013788D01*
X008452Y014188D02*
X007502Y014188D01*
X007352Y014338D01*
X008002Y015038D02*
X008058Y015094D01*
X008058Y015193D01*
X008052Y015888D02*
X008202Y016038D01*
X008352Y016188D01*
X008052Y016488D02*
X008202Y016638D01*
X008352Y016788D01*
X008302Y017238D02*
X008202Y017238D01*
X008302Y017238D02*
X008302Y017742D01*
X008302Y017238D02*
X008602Y017238D01*
X009900Y017519D02*
X010377Y017519D01*
X010495Y017637D01*
X011433Y018149D02*
X011433Y018464D01*
X011433Y018779D01*
X011374Y018779D01*
X011160Y018779D01*
X011038Y018779D01*
X010885Y018932D01*
X010885Y019445D01*
X010888Y019448D01*
X011374Y019094D02*
X011374Y018779D01*
X011433Y018779D02*
X011475Y018779D01*
X011790Y018779D01*
X011774Y019094D02*
X011774Y019409D01*
X011790Y019409D01*
X012023Y019409D01*
X012063Y019448D01*
X011774Y019409D02*
X011475Y019409D01*
X011433Y018464D02*
X011475Y018464D01*
X011790Y018464D01*
X012105Y018149D02*
X012299Y018149D01*
X012299Y018090D01*
X012420Y018424D02*
X012420Y018460D01*
X012420Y018618D01*
X012423Y018621D01*
X012423Y018821D01*
X012696Y019094D01*
X012735Y019094D01*
X013011Y019094D01*
X013011Y019999D01*
X013050Y020038D01*
X013252Y020038D01*
X013365Y020353D02*
X013050Y020353D01*
X012735Y020353D01*
X012735Y020038D01*
X012735Y019723D01*
X012735Y019448D01*
X012463Y019448D01*
X012463Y019723D01*
X012735Y019723D01*
X012463Y019723D02*
X012420Y019723D01*
X012735Y019448D02*
X012735Y019409D01*
X013011Y019094D02*
X013050Y019094D01*
X013050Y018779D02*
X012735Y018779D01*
X012735Y018464D01*
X012420Y018460D02*
X012420Y018464D01*
X012420Y018424D02*
X012699Y018146D01*
X012699Y018090D01*
X012735Y018053D01*
X012735Y017834D01*
X012735Y017106D01*
X012802Y017038D01*
X013080Y017488D02*
X013552Y017488D01*
X013952Y017488D01*
X014002Y017538D01*
X014002Y017888D02*
X013902Y017888D01*
X014002Y017888D02*
X014002Y018238D01*
X014002Y018588D02*
X014002Y018938D01*
X014402Y018588D02*
X015202Y018588D01*
X015202Y018238D02*
X014402Y018238D01*
X014402Y017888D02*
X015202Y017888D01*
X015202Y017538D02*
X014402Y017538D01*
X013400Y018779D02*
X013404Y018783D01*
X013400Y018779D02*
X013050Y018779D01*
X013050Y017834D02*
X013050Y017519D01*
X012477Y015988D02*
X011802Y015988D01*
X011702Y015888D01*
X012127Y015638D02*
X012152Y015613D01*
X012152Y015193D01*
X012782Y015193D02*
X012782Y015713D01*
X012752Y015713D02*
X012477Y015988D01*
X013727Y015193D02*
X013727Y014864D01*
X013902Y014688D01*
X014202Y014688D01*
X014652Y014738D02*
X014672Y014758D01*
X014672Y015193D01*
X015617Y015193D02*
X015617Y015553D01*
X015752Y015688D01*
X016152Y015688D01*
X016252Y015588D01*
X013752Y019838D02*
X013752Y019938D01*
X013652Y020038D01*
X013556Y020338D02*
X014002Y020338D01*
X013556Y020338D02*
X013541Y020353D01*
X013365Y020353D01*
X012735Y020353D02*
X012656Y020353D01*
X012656Y020786D01*
X012656Y020353D02*
X012420Y020353D01*
X012002Y021188D02*
X012002Y021288D01*
X011852Y021288D01*
X012002Y021288D02*
X012052Y021288D01*
X011552Y021138D02*
X011552Y021638D01*
X011602Y021638D01*
X011252Y021638D02*
X011252Y021088D01*
X009702Y022938D02*
X009552Y022938D01*
X009452Y022838D01*
X009152Y022538D01*
X009152Y021588D01*
X008502Y020688D02*
X008502Y020488D01*
X008052Y019688D02*
X008202Y019538D01*
X008052Y019088D02*
X008202Y018938D01*
X007502Y021038D02*
X007252Y021038D01*
X007652Y023638D02*
X007502Y023788D01*
X008852Y024888D02*
X008852Y025038D01*
X008852Y025438D02*
X009352Y025438D01*
X009552Y025238D01*
X009452Y024138D02*
X009552Y024038D01*
X009702Y024038D01*
X015502Y021338D02*
X015502Y021088D01*
X015502Y021338D02*
X016302Y022138D01*
X016452Y022138D01*
X012782Y011459D02*
X012782Y010626D01*
X012782Y010205D01*
X012782Y010118D01*
X012652Y009988D01*
X012252Y009988D02*
X012252Y010138D01*
X012152Y010238D01*
X012152Y010626D01*
X012152Y011288D01*
X008058Y011133D02*
X008058Y010626D01*
X008058Y009988D01*
X007952Y009988D01*
X007552Y009988D02*
X007502Y009988D01*
X008058Y011133D02*
X008052Y011138D01*
D24*
X005152Y008439D02*
X005152Y007758D01*
X005227Y007758D01*
X005152Y007939D01*
X005152Y008138D01*
X005229Y008322D01*
X005369Y008462D01*
X005553Y008538D01*
X005752Y008538D01*
X005936Y008462D01*
X006369Y008462D01*
X006229Y008322D01*
X006152Y008138D01*
X006076Y008322D01*
X005936Y008462D01*
X006035Y008363D02*
X006270Y008363D01*
X006205Y008265D02*
X006100Y008265D01*
X006141Y008166D02*
X006164Y008166D01*
X006152Y008138D02*
X006152Y007939D01*
X006078Y007758D01*
X006227Y007758D01*
X006152Y007939D01*
X006152Y008138D01*
X006152Y008068D02*
X006152Y008068D01*
X006152Y007969D02*
X006152Y007969D01*
X006124Y007870D02*
X006181Y007870D01*
X006222Y007772D02*
X006083Y007772D01*
X006369Y008462D02*
X006553Y008538D01*
X006752Y008538D01*
X006936Y008462D01*
X006984Y008462D01*
X006984Y008490D02*
X006984Y008413D01*
X006936Y008462D01*
X006984Y008490D02*
X006984Y008868D01*
X006799Y008868D01*
X006582Y009085D01*
X006582Y009392D01*
X006799Y009608D01*
X007508Y009608D01*
X007532Y009584D01*
X007622Y009584D01*
X007721Y009484D01*
X007721Y009395D01*
X007724Y009392D01*
X007724Y009292D01*
X007724Y008538D01*
X007752Y008538D01*
X007936Y008462D01*
X008369Y008462D01*
X008229Y008322D01*
X008152Y008138D01*
X008076Y008322D01*
X007936Y008462D01*
X008035Y008363D02*
X008270Y008363D01*
X008205Y008265D02*
X008100Y008265D01*
X008141Y008166D02*
X008164Y008166D01*
X008152Y008138D02*
X008152Y007939D01*
X008078Y007758D01*
X008227Y007758D01*
X008152Y007939D01*
X008152Y008138D01*
X008152Y008068D02*
X008152Y008068D01*
X008152Y007969D02*
X008152Y007969D01*
X008124Y007870D02*
X008181Y007870D01*
X008222Y007772D02*
X008083Y007772D01*
X008369Y008462D02*
X008553Y008538D01*
X008752Y008538D01*
X008936Y008462D01*
X009369Y008462D01*
X009229Y008322D01*
X009152Y008138D01*
X009076Y008322D01*
X008936Y008462D01*
X009035Y008363D02*
X009270Y008363D01*
X009205Y008265D02*
X009100Y008265D01*
X009141Y008166D02*
X009164Y008166D01*
X009152Y008138D02*
X009152Y007939D01*
X009078Y007758D01*
X009227Y007758D01*
X009152Y007939D01*
X009152Y008138D01*
X009152Y008068D02*
X009152Y008068D01*
X009152Y007969D02*
X009152Y007969D01*
X009124Y007870D02*
X009181Y007870D01*
X009222Y007772D02*
X009083Y007772D01*
X009369Y008462D02*
X009553Y008538D01*
X009752Y008538D01*
X009936Y008462D01*
X010369Y008462D01*
X010229Y008322D01*
X010152Y008138D01*
X010076Y008322D01*
X009936Y008462D01*
X010035Y008363D02*
X010270Y008363D01*
X010205Y008265D02*
X010100Y008265D01*
X010141Y008166D02*
X010164Y008166D01*
X010152Y008138D02*
X010152Y007939D01*
X010078Y007758D01*
X010227Y007758D01*
X010152Y007939D01*
X010152Y008138D01*
X010152Y008068D02*
X010152Y008068D01*
X010152Y007969D02*
X010152Y007969D01*
X010124Y007870D02*
X010181Y007870D01*
X010222Y007772D02*
X010083Y007772D01*
X010369Y008462D02*
X010553Y008538D01*
X010752Y008538D01*
X010936Y008462D01*
X011369Y008462D01*
X011229Y008322D01*
X011152Y008138D01*
X011076Y008322D01*
X010936Y008462D01*
X011035Y008363D02*
X011270Y008363D01*
X011205Y008265D02*
X011100Y008265D01*
X011141Y008166D02*
X011164Y008166D01*
X011152Y008138D02*
X011152Y007939D01*
X011078Y007758D01*
X011227Y007758D01*
X011152Y007939D01*
X011152Y008138D01*
X011152Y008068D02*
X011152Y008068D01*
X011152Y007969D02*
X011152Y007969D01*
X011124Y007870D02*
X011181Y007870D01*
X011222Y007772D02*
X011083Y007772D01*
X011369Y008462D02*
X011553Y008538D01*
X011752Y008538D01*
X011936Y008462D01*
X012369Y008462D01*
X012229Y008322D01*
X012152Y008138D01*
X012076Y008322D01*
X011936Y008462D01*
X012035Y008363D02*
X012270Y008363D01*
X012205Y008265D02*
X012100Y008265D01*
X012141Y008166D02*
X012164Y008166D01*
X012152Y008138D02*
X012152Y007939D01*
X012078Y007758D01*
X012227Y007758D01*
X012152Y007939D01*
X012152Y008138D01*
X012152Y008068D02*
X012152Y008068D01*
X012152Y007969D02*
X012152Y007969D01*
X012124Y007870D02*
X012181Y007870D01*
X012222Y007772D02*
X012083Y007772D01*
X012369Y008462D02*
X012553Y008538D01*
X012752Y008538D01*
X012936Y008462D01*
X013369Y008462D01*
X013229Y008322D01*
X013152Y008138D01*
X013076Y008322D01*
X012936Y008462D01*
X013035Y008363D02*
X013270Y008363D01*
X013205Y008265D02*
X013100Y008265D01*
X013141Y008166D02*
X013164Y008166D01*
X013152Y008138D02*
X013152Y007939D01*
X013078Y007758D01*
X013227Y007758D01*
X013152Y007939D01*
X013152Y008138D01*
X013152Y008068D02*
X013152Y008068D01*
X013152Y007969D02*
X013152Y007969D01*
X013124Y007870D02*
X013181Y007870D01*
X013222Y007772D02*
X013083Y007772D01*
X013369Y008462D02*
X013553Y008538D01*
X013752Y008538D01*
X013936Y008462D01*
X014369Y008462D01*
X014229Y008322D01*
X014152Y008138D01*
X014076Y008322D01*
X013936Y008462D01*
X014035Y008363D02*
X014270Y008363D01*
X014205Y008265D02*
X014100Y008265D01*
X014141Y008166D02*
X014164Y008166D01*
X014152Y008138D02*
X014152Y007939D01*
X014078Y007758D01*
X014227Y007758D01*
X014152Y007939D01*
X014152Y008138D01*
X014152Y008068D02*
X014152Y008068D01*
X014152Y007969D02*
X014152Y007969D01*
X014124Y007870D02*
X014181Y007870D01*
X014222Y007772D02*
X014083Y007772D01*
X014369Y008462D02*
X014553Y008538D01*
X014752Y008538D01*
X014936Y008462D01*
X015282Y008462D01*
X015282Y008376D02*
X015229Y008322D01*
X015152Y008138D01*
X015076Y008322D01*
X014936Y008462D01*
X015035Y008363D02*
X015270Y008363D01*
X015282Y008376D02*
X015282Y008718D01*
X015282Y008978D01*
X015249Y008944D01*
X015121Y008891D01*
X014983Y008891D01*
X014856Y008944D01*
X014758Y009042D01*
X014705Y009169D01*
X014705Y009307D01*
X014758Y009435D01*
X014856Y009533D01*
X014983Y009586D01*
X015121Y009586D01*
X015249Y009533D01*
X015282Y009499D01*
X015282Y009959D01*
X015382Y010058D01*
X015402Y010058D01*
X015402Y010085D01*
X015367Y010120D01*
X015367Y010181D01*
X015153Y010181D01*
X015145Y010189D01*
X015136Y010181D01*
X014864Y010181D01*
X014834Y010151D01*
X014672Y010151D01*
X014672Y010626D01*
X014672Y010626D01*
X014672Y010358D01*
X014452Y010138D01*
X014202Y010138D01*
X014208Y010181D02*
X014481Y010181D01*
X014511Y010151D01*
X014672Y010151D01*
X014672Y010626D01*
X014672Y010627D02*
X014672Y011102D01*
X014647Y011102D01*
X014647Y011169D01*
X014647Y013951D01*
X014674Y013886D01*
X014750Y013810D01*
X014849Y013769D01*
X014956Y013769D01*
X015027Y013799D01*
X015033Y013796D01*
X015033Y013785D01*
X015074Y013686D01*
X015150Y013610D01*
X015249Y013569D01*
X015257Y013569D01*
X015257Y011369D01*
X014960Y011072D01*
X014864Y011072D01*
X014834Y011102D01*
X014672Y011102D01*
X014672Y010627D01*
X014672Y010627D01*
X014672Y010630D02*
X014672Y010630D01*
X014672Y010728D02*
X014672Y010728D01*
X014672Y010827D02*
X014672Y010827D01*
X014672Y010925D02*
X014672Y010925D01*
X014672Y011024D02*
X014672Y011024D01*
X014647Y011122D02*
X015011Y011122D01*
X015109Y011221D02*
X014647Y011221D01*
X014647Y011319D02*
X015208Y011319D01*
X015257Y011418D02*
X014647Y011418D01*
X014647Y011517D02*
X015257Y011517D01*
X015257Y011615D02*
X014647Y011615D01*
X014647Y011714D02*
X015257Y011714D01*
X015257Y011812D02*
X014647Y011812D01*
X014647Y011911D02*
X015257Y011911D01*
X015257Y012009D02*
X014647Y012009D01*
X014647Y012108D02*
X015257Y012108D01*
X015257Y012206D02*
X014647Y012206D01*
X014647Y012305D02*
X015257Y012305D01*
X015257Y012403D02*
X014647Y012403D01*
X014647Y012502D02*
X015257Y012502D01*
X015257Y012601D02*
X014647Y012601D01*
X014647Y012699D02*
X015257Y012699D01*
X015257Y012798D02*
X014647Y012798D01*
X014647Y012896D02*
X015257Y012896D01*
X015257Y012995D02*
X014647Y012995D01*
X014647Y013093D02*
X015257Y013093D01*
X015257Y013192D02*
X014647Y013192D01*
X014647Y013290D02*
X015257Y013290D01*
X015257Y013389D02*
X014647Y013389D01*
X014647Y013487D02*
X015257Y013487D01*
X015209Y013586D02*
X014647Y013586D01*
X014647Y013685D02*
X015076Y013685D01*
X015034Y013783D02*
X014989Y013783D01*
X014816Y013783D02*
X014647Y013783D01*
X014647Y013882D02*
X014679Y013882D01*
X014902Y014038D02*
X014902Y014838D01*
X014952Y014888D01*
X015122Y014712D02*
X015158Y014748D01*
X015386Y014748D01*
X015383Y014742D01*
X015383Y014635D01*
X015424Y014536D01*
X015500Y014460D01*
X015599Y014419D01*
X015706Y014419D01*
X015805Y014460D01*
X015881Y014536D01*
X015921Y014635D01*
X015921Y014646D01*
X015998Y014723D01*
X016033Y014723D01*
X016057Y014746D01*
X016085Y014718D01*
X016247Y014718D01*
X016409Y014718D01*
X016526Y014835D01*
X016526Y015193D01*
X016247Y015193D01*
X016247Y014718D01*
X016247Y015193D01*
X016247Y015193D01*
X016247Y015193D01*
X016526Y015193D01*
X016526Y015463D01*
X016756Y015233D01*
X016658Y015135D01*
X016605Y015007D01*
X016605Y014869D01*
X016658Y014742D01*
X016756Y014644D01*
X016883Y014591D01*
X016932Y014591D01*
X016932Y014406D01*
X016932Y014106D01*
X017120Y013918D01*
X017181Y013857D01*
X017208Y013792D01*
X017306Y013694D01*
X017433Y013641D01*
X017571Y013641D01*
X017657Y013677D01*
X017657Y013569D01*
X017657Y013408D01*
X017932Y013133D01*
X017932Y012885D01*
X018059Y012758D01*
X017563Y012758D01*
X017555Y012766D01*
X017456Y012807D01*
X017349Y012807D01*
X017250Y012766D01*
X017174Y012691D01*
X017133Y012592D01*
X017133Y012580D01*
X017031Y012478D01*
X016932Y012478D01*
X016762Y012309D01*
X016762Y012239D01*
X016682Y012159D01*
X016682Y011682D01*
X016556Y011808D01*
X016249Y011808D01*
X016032Y011592D01*
X016032Y011556D01*
X015997Y011521D01*
X015997Y011236D01*
X015997Y011072D01*
X015995Y011072D01*
X015847Y011219D01*
X015847Y013969D01*
X015733Y014083D01*
X015447Y014369D01*
X015333Y014483D01*
X015288Y014483D01*
X015255Y014516D01*
X015156Y014557D01*
X015122Y014557D01*
X015122Y014712D01*
X015122Y014670D02*
X015383Y014670D01*
X015410Y014571D02*
X015122Y014571D01*
X015344Y014473D02*
X015487Y014473D01*
X015442Y014374D02*
X016932Y014374D01*
X016932Y014276D02*
X015541Y014276D01*
X015639Y014177D02*
X016932Y014177D01*
X016960Y014079D02*
X015738Y014079D01*
X015836Y013980D02*
X017058Y013980D01*
X017157Y013882D02*
X015847Y013882D01*
X015847Y013783D02*
X017217Y013783D01*
X017329Y013685D02*
X015847Y013685D01*
X015847Y013586D02*
X017657Y013586D01*
X017657Y013487D02*
X015847Y013487D01*
X015847Y013389D02*
X017676Y013389D01*
X017775Y013290D02*
X015847Y013290D01*
X015847Y013192D02*
X017873Y013192D01*
X017932Y013093D02*
X015847Y013093D01*
X015847Y012995D02*
X017932Y012995D01*
X017932Y012896D02*
X015847Y012896D01*
X015847Y012798D02*
X017325Y012798D01*
X017480Y012798D02*
X018020Y012798D01*
X017402Y012538D02*
X019152Y012538D01*
X019602Y010988D02*
X019702Y010988D01*
X019702Y010508D01*
X019758Y010508D01*
X019932Y010581D01*
X019932Y008496D01*
X019758Y008568D01*
X019702Y008568D01*
X019702Y008089D01*
X019602Y008089D01*
X019602Y008568D01*
X019547Y008568D01*
X019352Y008488D01*
X019203Y008339D01*
X019136Y008177D01*
X019076Y008322D01*
X018936Y008462D01*
X019326Y008462D01*
X019228Y008363D02*
X019035Y008363D01*
X019100Y008265D02*
X019173Y008265D01*
X018936Y008462D02*
X018752Y008538D01*
X018553Y008538D01*
X018369Y008462D01*
X018229Y008322D01*
X018152Y008138D01*
X018076Y008322D01*
X017936Y008462D01*
X018369Y008462D01*
X018270Y008363D02*
X018035Y008363D01*
X018100Y008265D02*
X018205Y008265D01*
X018164Y008166D02*
X018141Y008166D01*
X018152Y008138D02*
X018152Y007939D01*
X018078Y007758D01*
X018227Y007758D01*
X018152Y007939D01*
X018152Y008138D01*
X018152Y008068D02*
X018152Y008068D01*
X018152Y007969D02*
X018152Y007969D01*
X018124Y007870D02*
X018181Y007870D01*
X018222Y007772D02*
X018083Y007772D01*
X017936Y008462D02*
X017752Y008538D01*
X017553Y008538D01*
X017369Y008462D01*
X017229Y008322D01*
X017152Y008138D01*
X017076Y008322D01*
X016936Y008462D01*
X017369Y008462D01*
X017270Y008363D02*
X017035Y008363D01*
X017100Y008265D02*
X017205Y008265D01*
X017164Y008166D02*
X017141Y008166D01*
X017152Y008138D02*
X017152Y007939D01*
X017078Y007758D01*
X017227Y007758D01*
X017152Y007939D01*
X017152Y008138D01*
X017152Y008068D02*
X017152Y008068D01*
X017152Y007969D02*
X017152Y007969D01*
X017124Y007870D02*
X017181Y007870D01*
X017222Y007772D02*
X017083Y007772D01*
X016936Y008462D02*
X016752Y008538D01*
X016553Y008538D01*
X016369Y008462D01*
X016229Y008322D01*
X016152Y008138D01*
X016076Y008322D01*
X016022Y008376D01*
X016022Y008718D01*
X016022Y009259D01*
X015943Y009338D01*
X015973Y009368D01*
X016018Y009368D01*
X016083Y009341D01*
X016221Y009341D01*
X016349Y009394D01*
X016447Y009492D01*
X016500Y009619D01*
X016500Y009757D01*
X016447Y009885D01*
X016350Y009982D01*
X016452Y010085D01*
X016497Y010129D01*
X016497Y010521D01*
X016649Y010368D01*
X016956Y010368D01*
X017172Y010585D01*
X017172Y010818D01*
X017499Y010818D01*
X018152Y010818D01*
X018152Y010638D01*
X018252Y010538D01*
X019053Y010538D01*
X019152Y010638D01*
X019152Y010861D01*
X019203Y010738D01*
X019352Y010589D01*
X019547Y010508D01*
X019602Y010508D01*
X019602Y010988D01*
X019602Y010925D02*
X019702Y010925D01*
X019702Y010827D02*
X019602Y010827D01*
X019602Y010728D02*
X019702Y010728D01*
X019702Y010630D02*
X019602Y010630D01*
X019602Y010531D02*
X019702Y010531D01*
X019813Y010531D02*
X019932Y010531D01*
X019932Y010433D02*
X017020Y010433D01*
X017118Y010531D02*
X019492Y010531D01*
X019312Y010630D02*
X019144Y010630D01*
X019152Y010728D02*
X019213Y010728D01*
X019166Y010827D02*
X019152Y010827D01*
X019023Y010262D02*
X018956Y010279D01*
X018888Y010290D01*
X018820Y010294D01*
X018751Y010293D01*
X018682Y010285D01*
X018615Y010271D01*
X018549Y010251D01*
X018486Y010225D01*
X018424Y010193D01*
X018366Y010156D01*
X018312Y010114D01*
X018262Y010067D01*
X018216Y010016D01*
X018216Y010015D01*
X018175Y009960D01*
X018139Y009901D01*
X018109Y009840D01*
X018109Y009840D01*
X018084Y009775D01*
X018066Y009709D01*
X018053Y009641D01*
X018047Y009573D01*
X018047Y009573D01*
X018047Y009504D01*
X018053Y009435D01*
X018066Y009368D01*
X018066Y009368D01*
X018084Y009302D01*
X018084Y009301D01*
X018109Y009237D01*
X018139Y009175D01*
X018175Y009117D01*
X018175Y009117D01*
X018216Y009061D01*
X018262Y009010D01*
X018312Y008963D01*
X018312Y008963D01*
X018366Y008921D01*
X018424Y008884D01*
X018424Y008884D01*
X018486Y008852D01*
X018549Y008826D01*
X018549Y008826D01*
X018615Y008806D01*
X018615Y008806D01*
X018682Y008792D01*
X018682Y008792D01*
X018751Y008784D01*
X018820Y008783D01*
X018888Y008787D01*
X018956Y008798D01*
X019023Y008815D01*
X019088Y008838D01*
X019150Y008867D01*
X019210Y008902D01*
X019266Y008941D01*
X019266Y008941D01*
X019318Y008986D01*
X019366Y009035D01*
X019367Y009035D01*
X019410Y009088D01*
X019410Y009089D01*
X019448Y009146D01*
X019481Y009206D01*
X019509Y009269D01*
X019530Y009334D01*
X019546Y009401D01*
X019546Y009401D01*
X019555Y009470D01*
X019558Y009538D01*
X019555Y009607D01*
X019555Y009607D01*
X019546Y009675D01*
X019546Y009675D01*
X019530Y009742D01*
X019530Y009742D01*
X019509Y009808D01*
X019481Y009871D01*
X019448Y009931D01*
X019410Y009988D01*
X019410Y009988D01*
X019367Y010042D01*
X019318Y010091D01*
X019266Y010136D01*
X019210Y010175D01*
X019150Y010210D01*
X019088Y010239D01*
X019023Y010262D01*
X019088Y010239D02*
X019088Y010239D01*
X019094Y010236D02*
X019932Y010236D01*
X019932Y010334D02*
X016497Y010334D01*
X016497Y010236D02*
X018512Y010236D01*
X018366Y010156D02*
X018366Y010156D01*
X018342Y010137D02*
X016497Y010137D01*
X016406Y010038D02*
X018236Y010038D01*
X018262Y010067D02*
X018262Y010067D01*
X018175Y009960D02*
X018175Y009960D01*
X018163Y009940D02*
X016392Y009940D01*
X016465Y009841D02*
X018110Y009841D01*
X018139Y009901D02*
X018139Y009901D01*
X018084Y009775D02*
X018084Y009775D01*
X018075Y009743D02*
X016500Y009743D01*
X016500Y009644D02*
X018054Y009644D01*
X018053Y009641D02*
X018053Y009641D01*
X018066Y009709D02*
X018066Y009709D01*
X018047Y009546D02*
X016469Y009546D01*
X016402Y009447D02*
X018052Y009447D01*
X018053Y009435D02*
X018053Y009435D01*
X018047Y009504D02*
X018047Y009504D01*
X018071Y009349D02*
X016239Y009349D01*
X016066Y009349D02*
X015953Y009349D01*
X016022Y009250D02*
X018104Y009250D01*
X018109Y009237D02*
X018109Y009237D01*
X018139Y009175D02*
X018139Y009175D01*
X018154Y009152D02*
X016022Y009152D01*
X016022Y009053D02*
X018223Y009053D01*
X018216Y009061D02*
X018216Y009061D01*
X018262Y009010D02*
X018262Y009010D01*
X018262Y009010D01*
X018323Y008954D02*
X016022Y008954D01*
X016022Y008856D02*
X018478Y008856D01*
X018486Y008852D02*
X018486Y008852D01*
X018366Y008921D02*
X018366Y008921D01*
X019126Y008856D02*
X019932Y008856D01*
X019932Y008954D02*
X019281Y008954D01*
X019318Y008986D02*
X019318Y008986D01*
X019381Y009053D02*
X019932Y009053D01*
X019932Y009152D02*
X019452Y009152D01*
X019448Y009146D02*
X019448Y009146D01*
X019481Y009206D02*
X019481Y009206D01*
X019501Y009250D02*
X019932Y009250D01*
X019932Y009349D02*
X019534Y009349D01*
X019530Y009334D02*
X019530Y009334D01*
X019509Y009269D02*
X019509Y009269D01*
X019552Y009447D02*
X019932Y009447D01*
X019932Y009546D02*
X019558Y009546D01*
X019555Y009470D02*
X019555Y009470D01*
X019550Y009644D02*
X019932Y009644D01*
X019932Y009743D02*
X019530Y009743D01*
X019509Y009808D02*
X019509Y009808D01*
X019494Y009841D02*
X019932Y009841D01*
X019932Y009940D02*
X019443Y009940D01*
X019448Y009931D02*
X019448Y009931D01*
X019481Y009871D02*
X019481Y009871D01*
X019369Y010038D02*
X019932Y010038D01*
X019932Y010137D02*
X019264Y010137D01*
X019266Y010136D02*
X019266Y010136D01*
X019210Y010175D02*
X019210Y010175D01*
X019150Y010210D02*
X019150Y010210D01*
X019318Y010091D02*
X019318Y010091D01*
X019367Y010042D02*
X019367Y010042D01*
X019932Y008757D02*
X016022Y008757D01*
X016022Y008659D02*
X019932Y008659D01*
X019932Y008560D02*
X019777Y008560D01*
X019702Y008560D02*
X019602Y008560D01*
X019527Y008560D02*
X016022Y008560D01*
X016022Y008462D02*
X016369Y008462D01*
X016270Y008363D02*
X016035Y008363D01*
X016100Y008265D02*
X016205Y008265D01*
X016164Y008166D02*
X016141Y008166D01*
X016152Y008138D02*
X016152Y007939D01*
X016078Y007758D01*
X016227Y007758D01*
X016152Y007939D01*
X016152Y008138D01*
X016152Y008068D02*
X016152Y008068D01*
X016152Y007969D02*
X016152Y007969D01*
X016124Y007870D02*
X016181Y007870D01*
X016222Y007772D02*
X016083Y007772D01*
X015227Y007758D02*
X015078Y007758D01*
X015152Y007939D01*
X015152Y008138D01*
X015152Y007939D01*
X015227Y007758D01*
X015222Y007772D02*
X015083Y007772D01*
X015124Y007870D02*
X015181Y007870D01*
X015152Y007969D02*
X015152Y007969D01*
X015152Y008068D02*
X015152Y008068D01*
X015141Y008166D02*
X015164Y008166D01*
X015205Y008265D02*
X015100Y008265D01*
X015282Y008560D02*
X007724Y008560D01*
X007724Y008659D02*
X010549Y008659D01*
X010502Y008706D02*
X010620Y008588D01*
X011102Y008588D01*
X011102Y009138D01*
X011202Y009138D01*
X011202Y008588D01*
X011685Y008588D01*
X011802Y008706D01*
X011802Y009138D01*
X011203Y009138D01*
X011203Y009238D01*
X011802Y009238D01*
X011802Y009671D01*
X011685Y009788D01*
X011202Y009788D01*
X011202Y009239D01*
X011102Y009239D01*
X011102Y009788D01*
X010620Y009788D01*
X010502Y009671D01*
X010502Y009238D01*
X011102Y009238D01*
X011102Y009138D01*
X010502Y009138D01*
X010502Y008706D01*
X010502Y008757D02*
X009225Y008757D01*
X009247Y008780D02*
X009130Y008663D01*
X008899Y008663D01*
X008899Y009090D01*
X008899Y009187D01*
X008802Y009187D01*
X008802Y009614D01*
X008571Y009614D01*
X008454Y009497D01*
X008454Y009187D01*
X008802Y009187D01*
X008802Y009090D01*
X008454Y009090D01*
X008454Y008780D01*
X008571Y008663D01*
X008802Y008663D01*
X008802Y009090D01*
X008899Y009090D01*
X009247Y009090D01*
X009247Y008780D01*
X009247Y008856D02*
X010502Y008856D01*
X010502Y008954D02*
X009247Y008954D01*
X009247Y009053D02*
X010502Y009053D01*
X010502Y009250D02*
X009247Y009250D01*
X009247Y009187D02*
X009247Y009497D01*
X009130Y009614D01*
X008899Y009614D01*
X008899Y009187D01*
X009247Y009187D01*
X009247Y009349D02*
X010502Y009349D01*
X010502Y009447D02*
X009247Y009447D01*
X009198Y009546D02*
X010502Y009546D01*
X010502Y009644D02*
X006250Y009644D01*
X006246Y009675D02*
X006246Y009675D01*
X006255Y009607D01*
X006255Y009607D01*
X006258Y009538D01*
X006255Y009470D01*
X006255Y009470D01*
X006246Y009401D01*
X006246Y009401D01*
X006230Y009334D01*
X006230Y009334D01*
X006209Y009269D01*
X006181Y009206D01*
X006181Y009206D01*
X006148Y009146D01*
X006148Y009146D01*
X006110Y009089D01*
X006110Y009088D01*
X006067Y009035D01*
X006067Y009035D01*
X006018Y008986D01*
X006018Y008986D01*
X005966Y008941D01*
X005910Y008902D01*
X005910Y008902D01*
X005850Y008867D01*
X005788Y008838D01*
X005723Y008815D01*
X005656Y008798D01*
X005588Y008787D01*
X005520Y008783D01*
X005451Y008784D01*
X005382Y008792D01*
X005315Y008806D01*
X005249Y008826D01*
X005186Y008852D01*
X005186Y008852D01*
X005124Y008884D01*
X005124Y008884D01*
X005066Y008921D01*
X005066Y008921D01*
X005012Y008963D01*
X005012Y008963D01*
X004962Y009010D01*
X004962Y009010D01*
X004962Y009010D01*
X004916Y009061D01*
X004916Y009061D01*
X004875Y009117D01*
X004875Y009117D01*
X004839Y009175D01*
X004839Y009175D01*
X004809Y009237D01*
X004809Y009237D01*
X004784Y009301D01*
X004784Y009302D01*
X004766Y009368D01*
X004766Y009368D01*
X004753Y009435D01*
X004753Y009435D01*
X004747Y009504D01*
X004747Y009504D01*
X004747Y009573D01*
X004747Y009573D01*
X004753Y009641D01*
X004753Y009641D01*
X004766Y009709D01*
X004766Y009709D01*
X004784Y009775D01*
X004784Y009775D01*
X004809Y009840D01*
X004809Y009840D01*
X004839Y009901D01*
X004839Y009901D01*
X004875Y009960D01*
X004875Y009960D01*
X004916Y010015D01*
X004916Y010016D01*
X004962Y010067D01*
X004962Y010067D01*
X005012Y010114D01*
X005012Y010114D01*
X005066Y010156D01*
X005066Y010156D01*
X005124Y010193D01*
X005186Y010225D01*
X005186Y010225D01*
X005249Y010251D01*
X005315Y010271D01*
X005382Y010285D01*
X005451Y010293D01*
X005520Y010294D01*
X005588Y010290D01*
X005656Y010279D01*
X005723Y010262D01*
X005788Y010239D01*
X005850Y010210D01*
X005910Y010175D01*
X005910Y010175D01*
X005966Y010136D01*
X005966Y010136D01*
X006018Y010091D01*
X006018Y010091D01*
X006067Y010042D01*
X006067Y010042D01*
X006110Y009988D01*
X006110Y009988D01*
X006148Y009931D01*
X006148Y009931D01*
X006181Y009871D01*
X006181Y009871D01*
X006209Y009808D01*
X006209Y009808D01*
X006230Y009742D01*
X006230Y009742D01*
X006246Y009675D01*
X006230Y009743D02*
X007280Y009743D01*
X007232Y009791D02*
X007350Y009673D01*
X007545Y009673D01*
X007545Y009981D01*
X007263Y009981D01*
X007269Y009996D01*
X007545Y009996D01*
X007545Y010303D01*
X007350Y010303D01*
X007286Y010240D01*
X007247Y010335D01*
X007149Y010433D01*
X007021Y010486D01*
X006883Y010486D01*
X006756Y010433D01*
X006658Y010335D01*
X006605Y010207D01*
X006605Y010069D01*
X006658Y009942D01*
X006756Y009844D01*
X006883Y009791D01*
X007021Y009791D01*
X007149Y009844D01*
X007232Y009928D01*
X007232Y009791D01*
X007232Y009841D02*
X007142Y009841D01*
X007247Y010334D02*
X007788Y010334D01*
X007755Y010303D02*
X007785Y010273D01*
X007788Y010273D01*
X007788Y010514D01*
X007788Y010912D01*
X007758Y010942D01*
X007705Y011069D01*
X007705Y011207D01*
X007758Y011335D01*
X007856Y011433D01*
X007983Y011486D01*
X008121Y011486D01*
X008249Y011433D01*
X008347Y011335D01*
X008400Y011207D01*
X008400Y011161D01*
X008607Y011369D01*
X008607Y013308D01*
X008607Y013469D01*
X008633Y013494D01*
X008574Y013518D01*
X008104Y013518D01*
X008150Y013407D01*
X008150Y013269D01*
X008106Y013163D01*
X008150Y013057D01*
X008150Y012919D01*
X008097Y012792D01*
X007999Y012694D01*
X007871Y012641D01*
X007733Y012641D01*
X007606Y012694D01*
X007508Y012792D01*
X007455Y012919D01*
X007455Y013057D01*
X007499Y013163D01*
X007456Y013268D01*
X007222Y013268D01*
X007222Y012497D01*
X007170Y012445D01*
X007199Y012433D01*
X007297Y012335D01*
X007350Y012207D01*
X007350Y012069D01*
X007297Y011942D01*
X007199Y011844D01*
X007071Y011791D01*
X006933Y011791D01*
X006806Y011844D01*
X006708Y011942D01*
X006696Y011971D01*
X006083Y011358D01*
X006102Y011339D01*
X006182Y011144D01*
X006182Y011088D01*
X005703Y011088D01*
X005703Y010988D01*
X006182Y010988D01*
X006182Y010933D01*
X006102Y010738D01*
X005953Y010589D01*
X005758Y010508D01*
X005702Y010508D01*
X005702Y010988D01*
X005602Y010988D01*
X005602Y010508D01*
X005547Y010508D01*
X005352Y010589D01*
X005203Y010738D01*
X005152Y010861D01*
X005152Y010638D01*
X005053Y010538D01*
X004372Y010538D01*
X004372Y008538D01*
X005053Y008538D01*
X005152Y008439D01*
X005129Y008462D02*
X005369Y008462D01*
X005270Y008363D02*
X005152Y008363D01*
X005152Y008265D02*
X005205Y008265D01*
X005164Y008166D02*
X005152Y008166D01*
X005152Y008068D02*
X005152Y008068D01*
X005152Y007969D02*
X005152Y007969D01*
X005152Y007870D02*
X005181Y007870D01*
X005152Y007772D02*
X005222Y007772D01*
X005178Y008856D02*
X004372Y008856D01*
X004372Y008954D02*
X005023Y008954D01*
X004923Y009053D02*
X004372Y009053D01*
X004372Y009152D02*
X004854Y009152D01*
X004804Y009250D02*
X004372Y009250D01*
X004372Y009349D02*
X004771Y009349D01*
X004752Y009447D02*
X004372Y009447D01*
X004372Y009546D02*
X004747Y009546D01*
X004754Y009644D02*
X004372Y009644D01*
X004372Y009743D02*
X004775Y009743D01*
X004810Y009841D02*
X004372Y009841D01*
X004372Y009940D02*
X004863Y009940D01*
X004936Y010038D02*
X004372Y010038D01*
X004372Y010137D02*
X005042Y010137D01*
X005212Y010236D02*
X004372Y010236D01*
X004372Y010334D02*
X006658Y010334D01*
X006617Y010236D02*
X005794Y010236D01*
X005964Y010137D02*
X006605Y010137D01*
X006618Y010038D02*
X006069Y010038D01*
X006143Y009940D02*
X006660Y009940D01*
X006762Y009841D02*
X006194Y009841D01*
X006258Y009546D02*
X006736Y009546D01*
X006638Y009447D02*
X006252Y009447D01*
X006234Y009349D02*
X006582Y009349D01*
X006582Y009250D02*
X006201Y009250D01*
X006209Y009269D02*
X006209Y009269D01*
X006152Y009152D02*
X006582Y009152D01*
X006615Y009053D02*
X006081Y009053D01*
X006018Y008986D02*
X006018Y008986D01*
X005981Y008954D02*
X006713Y008954D01*
X006984Y008856D02*
X005826Y008856D01*
X006984Y008757D02*
X004372Y008757D01*
X004372Y008659D02*
X006984Y008659D01*
X006984Y008560D02*
X004372Y008560D01*
X004372Y010433D02*
X006756Y010433D01*
X007149Y010433D02*
X007788Y010433D01*
X007788Y010531D02*
X005813Y010531D01*
X005702Y010531D02*
X005602Y010531D01*
X005602Y010630D02*
X005702Y010630D01*
X005702Y010728D02*
X005602Y010728D01*
X005602Y010827D02*
X005702Y010827D01*
X005702Y010925D02*
X005602Y010925D01*
X005703Y011024D02*
X007724Y011024D01*
X007705Y011122D02*
X006182Y011122D01*
X006151Y011221D02*
X007711Y011221D01*
X007752Y011319D02*
X006110Y011319D01*
X006143Y011418D02*
X007841Y011418D01*
X008264Y011418D02*
X008607Y011418D01*
X008607Y011517D02*
X006242Y011517D01*
X006340Y011615D02*
X008607Y011615D01*
X008607Y011714D02*
X006439Y011714D01*
X006537Y011812D02*
X006883Y011812D01*
X006739Y011911D02*
X006636Y011911D01*
X007122Y011812D02*
X008607Y011812D01*
X008607Y011911D02*
X007266Y011911D01*
X007325Y012009D02*
X008607Y012009D01*
X008607Y012108D02*
X007350Y012108D01*
X007350Y012206D02*
X008607Y012206D01*
X008607Y012305D02*
X007309Y012305D01*
X007228Y012403D02*
X008607Y012403D01*
X008607Y012502D02*
X007222Y012502D01*
X007222Y012601D02*
X008607Y012601D01*
X008607Y012699D02*
X008004Y012699D01*
X008099Y012798D02*
X008607Y012798D01*
X008607Y012896D02*
X008140Y012896D01*
X008150Y012995D02*
X008607Y012995D01*
X008607Y013093D02*
X008135Y013093D01*
X008117Y013192D02*
X008607Y013192D01*
X008607Y013290D02*
X008150Y013290D01*
X008150Y013389D02*
X008607Y013389D01*
X008626Y013487D02*
X008116Y013487D01*
X007601Y012699D02*
X007222Y012699D01*
X007222Y012798D02*
X007506Y012798D01*
X007465Y012896D02*
X007222Y012896D01*
X007222Y012995D02*
X007455Y012995D01*
X007470Y013093D02*
X007222Y013093D01*
X007222Y013192D02*
X007487Y013192D01*
X007002Y012588D02*
X007002Y013988D01*
X007352Y014338D01*
X007412Y014708D02*
X007779Y015075D01*
X007779Y014835D01*
X007896Y014718D01*
X008058Y014718D01*
X008220Y014718D01*
X008250Y014748D01*
X008522Y014748D01*
X008530Y014756D01*
X008539Y014748D01*
X008837Y014748D01*
X008845Y014756D01*
X008854Y014748D01*
X008883Y014748D01*
X008883Y014685D01*
X008923Y014588D01*
X008883Y014492D01*
X008883Y014433D01*
X008722Y014433D01*
X008669Y014380D01*
X008616Y014433D01*
X008571Y014452D01*
X008564Y014458D01*
X008555Y014458D01*
X008510Y014477D01*
X008395Y014477D01*
X008350Y014458D01*
X007722Y014458D01*
X007722Y014609D01*
X007623Y014708D01*
X007412Y014708D01*
X007472Y014769D02*
X007845Y014769D01*
X007779Y014867D02*
X007571Y014867D01*
X007669Y014966D02*
X007779Y014966D01*
X007768Y015064D02*
X007779Y015064D01*
X008058Y015064D02*
X008058Y015064D01*
X008058Y014966D02*
X008058Y014966D01*
X008058Y014867D02*
X008058Y014867D01*
X008058Y014769D02*
X008058Y014769D01*
X008058Y014718D02*
X008058Y015193D01*
X008058Y015193D01*
X008058Y014718D01*
X008385Y014473D02*
X007722Y014473D01*
X007722Y014571D02*
X008916Y014571D01*
X008890Y014670D02*
X007661Y014670D01*
X008058Y015163D02*
X008058Y015163D01*
X008520Y014473D02*
X008883Y014473D01*
X009003Y015193D02*
X009002Y015194D01*
X009002Y015388D01*
X009102Y015488D01*
X008816Y016083D02*
X008756Y016107D01*
X008649Y016107D01*
X008622Y016096D01*
X008622Y016183D01*
X008697Y016258D01*
X008697Y016518D01*
X008735Y016427D01*
X008808Y016353D01*
X008904Y016314D01*
X008918Y016314D01*
X008918Y016159D01*
X008918Y016145D01*
X008850Y016116D01*
X008816Y016083D01*
X008918Y016148D02*
X008622Y016148D01*
X008686Y016247D02*
X008918Y016247D01*
X008828Y016345D02*
X008697Y016345D01*
X008697Y016444D02*
X008728Y016444D01*
X008757Y017487D02*
X008721Y017502D01*
X008714Y017508D01*
X008705Y017508D01*
X008660Y017527D01*
X008572Y017527D01*
X008572Y017536D01*
X008592Y017556D01*
X008592Y017927D01*
X008576Y017943D01*
X008982Y017943D01*
X008872Y017833D01*
X008757Y017719D01*
X008757Y017487D01*
X008757Y017528D02*
X008572Y017528D01*
X008592Y017626D02*
X008757Y017626D01*
X008763Y017725D02*
X008592Y017725D01*
X008592Y017823D02*
X008862Y017823D01*
X008960Y017922D02*
X008592Y017922D01*
X007895Y017749D02*
X007639Y017749D01*
X007624Y017734D01*
X007895Y017734D01*
X007895Y017749D01*
X007582Y017693D02*
X007582Y017638D01*
X007552Y017638D01*
X007552Y017289D01*
X007452Y017289D01*
X007452Y017563D01*
X007582Y017693D01*
X007552Y017626D02*
X007516Y017626D01*
X007552Y017528D02*
X007452Y017528D01*
X007452Y017429D02*
X007552Y017429D01*
X007552Y017331D02*
X007452Y017331D01*
X007452Y017288D02*
X007178Y017288D01*
X006697Y016808D01*
X006697Y016801D01*
X006755Y016858D01*
X006945Y016858D01*
X006945Y016546D01*
X006960Y016546D01*
X006960Y016858D01*
X007132Y016858D01*
X007132Y016909D01*
X007141Y016917D01*
X007102Y016956D01*
X007102Y017188D01*
X007452Y017188D01*
X007452Y017288D01*
X007452Y017232D02*
X007122Y017232D01*
X007102Y017134D02*
X007023Y017134D01*
X007102Y017035D02*
X006925Y017035D01*
X006826Y016936D02*
X007122Y016936D01*
X006960Y016838D02*
X006945Y016838D01*
X006945Y016739D02*
X006960Y016739D01*
X006960Y016641D02*
X006945Y016641D01*
X006734Y016838D02*
X006728Y016838D01*
X006662Y019154D02*
X006069Y019748D01*
X006076Y019755D01*
X006152Y019939D01*
X006152Y020138D01*
X006076Y020322D01*
X005936Y020462D01*
X005752Y020538D01*
X005553Y020538D01*
X005369Y020462D01*
X005229Y020322D01*
X005152Y020138D01*
X005076Y020322D01*
X004936Y020462D01*
X004752Y020538D01*
X004553Y020538D01*
X004372Y020464D01*
X004372Y020613D01*
X004553Y020538D01*
X004752Y020538D01*
X004936Y020615D01*
X005076Y020755D01*
X005152Y020939D01*
X005152Y021015D01*
X005152Y021015D01*
X005152Y020939D01*
X005229Y020755D01*
X005369Y020615D01*
X005553Y020538D01*
X005752Y020538D01*
X005936Y020615D01*
X005957Y020636D01*
X005957Y020619D01*
X005957Y020458D01*
X006607Y019808D01*
X006637Y019778D01*
X006637Y019596D01*
X006945Y019596D01*
X006945Y019581D01*
X006637Y019581D01*
X006637Y019386D01*
X006667Y019356D01*
X006667Y019313D01*
X006662Y019309D01*
X006662Y019154D01*
X006662Y019203D02*
X006614Y019203D01*
X006662Y019301D02*
X006515Y019301D01*
X006416Y019400D02*
X006637Y019400D01*
X006637Y019499D02*
X006318Y019499D01*
X006219Y019597D02*
X006637Y019597D01*
X006637Y019696D02*
X006121Y019696D01*
X006092Y019794D02*
X006621Y019794D01*
X006522Y019893D02*
X006133Y019893D01*
X006152Y019991D02*
X006424Y019991D01*
X006325Y020090D02*
X006152Y020090D01*
X006131Y020188D02*
X006227Y020188D01*
X006128Y020287D02*
X006091Y020287D01*
X006030Y020385D02*
X006012Y020385D01*
X005957Y020484D02*
X005883Y020484D01*
X005858Y020583D02*
X005957Y020583D01*
X005446Y020583D02*
X004858Y020583D01*
X004883Y020484D02*
X005422Y020484D01*
X005292Y020385D02*
X005012Y020385D01*
X005091Y020287D02*
X005214Y020287D01*
X005173Y020188D02*
X005131Y020188D01*
X005152Y020138D02*
X005152Y020062D01*
X005152Y020062D01*
X005152Y020138D01*
X005152Y020090D02*
X005152Y020090D01*
X005002Y020681D02*
X005303Y020681D01*
X005218Y020780D02*
X005086Y020780D01*
X005127Y020878D02*
X005178Y020878D01*
X005152Y020977D02*
X005152Y020977D01*
X004446Y020583D02*
X004372Y020583D01*
X004372Y020484D02*
X004422Y020484D01*
X006272Y022783D02*
X006272Y022942D01*
X006152Y023062D01*
X006152Y023138D01*
X006088Y023293D01*
X006672Y023293D01*
X006757Y023208D01*
X006872Y023093D01*
X008022Y023093D01*
X008049Y023066D01*
X008024Y023041D01*
X008010Y023006D01*
X007962Y022959D01*
X007962Y022459D01*
X007712Y022209D01*
X007712Y022192D01*
X007691Y022214D01*
X007314Y022214D01*
X007274Y022173D01*
X007203Y022244D01*
X007011Y022244D01*
X007011Y021620D01*
X006993Y021620D01*
X006993Y022244D01*
X006801Y022244D01*
X006747Y022189D01*
X006747Y022308D01*
X006747Y022469D01*
X006547Y022669D01*
X006433Y022783D01*
X006272Y022783D01*
X006272Y022849D02*
X007962Y022849D01*
X007962Y022751D02*
X006466Y022751D01*
X006565Y022652D02*
X007962Y022652D01*
X007962Y022553D02*
X006663Y022553D01*
X006747Y022455D02*
X007959Y022455D01*
X007860Y022356D02*
X006747Y022356D01*
X006747Y022258D02*
X007762Y022258D01*
X007962Y022948D02*
X006266Y022948D01*
X006168Y023046D02*
X008030Y023046D01*
X008252Y022888D02*
X008252Y022838D01*
X007752Y023538D02*
X009202Y023538D01*
X009702Y024038D02*
X009802Y023938D01*
X009802Y023038D01*
X009702Y022938D01*
X009817Y022563D02*
X009911Y022468D01*
X011207Y022468D01*
X010673Y021934D01*
X010617Y021957D01*
X010510Y021957D01*
X010411Y021916D01*
X010335Y021841D01*
X010294Y021742D01*
X010294Y021683D01*
X009774Y021683D01*
X009659Y021569D01*
X009255Y021165D01*
X009219Y021165D01*
X009147Y021135D01*
X009147Y021318D01*
X009264Y021318D01*
X009422Y021477D01*
X009422Y022427D01*
X009464Y022468D01*
X009723Y022468D01*
X009817Y022563D01*
X009808Y022553D02*
X009826Y022553D01*
X009451Y022455D02*
X011193Y022455D01*
X011095Y022356D02*
X009422Y022356D01*
X009422Y022258D02*
X010996Y022258D01*
X010898Y022159D02*
X009422Y022159D01*
X009422Y022061D02*
X010799Y022061D01*
X010700Y021962D02*
X009422Y021962D01*
X009422Y021864D02*
X010358Y021864D01*
X010304Y021765D02*
X009422Y021765D01*
X009422Y021667D02*
X009757Y021667D01*
X009658Y021568D02*
X009422Y021568D01*
X009415Y021469D02*
X009560Y021469D01*
X009461Y021371D02*
X009317Y021371D01*
X009363Y021272D02*
X009147Y021272D01*
X009147Y021174D02*
X009264Y021174D01*
X009831Y021189D02*
X009935Y021293D01*
X010280Y021293D01*
X010215Y021229D01*
X010215Y021046D01*
X010203Y021046D01*
X010146Y021023D01*
X010121Y021084D01*
X010048Y021157D01*
X009952Y021196D01*
X009849Y021196D01*
X009831Y021189D01*
X009914Y021272D02*
X010259Y021272D01*
X010215Y021174D02*
X010007Y021174D01*
X010124Y021075D02*
X010215Y021075D01*
X010538Y021033D02*
X010845Y021033D01*
X010877Y021033D01*
X010877Y021018D01*
X010845Y021018D01*
X010538Y021018D01*
X010538Y021033D01*
X010877Y021034D02*
X010877Y021346D01*
X010786Y021346D01*
X010847Y021408D01*
X010982Y021543D01*
X010982Y021418D01*
X010982Y021346D01*
X010892Y021346D01*
X010892Y021034D01*
X010877Y021034D01*
X010892Y021033D02*
X010964Y021033D01*
X010964Y021031D01*
X010969Y021018D01*
X010892Y021018D01*
X010892Y021033D01*
X010892Y021075D02*
X010877Y021075D01*
X010877Y021174D02*
X010892Y021174D01*
X010892Y021272D02*
X010877Y021272D01*
X010811Y021371D02*
X010982Y021371D01*
X010982Y021469D02*
X010909Y021469D01*
X011082Y020865D02*
X011360Y020865D01*
X011475Y020750D01*
X011483Y020743D02*
X011483Y020758D01*
X011790Y020758D01*
X011790Y020832D01*
X012016Y020832D01*
X012016Y021182D01*
X011841Y021182D01*
X011841Y021196D01*
X011822Y021241D01*
X011822Y021318D01*
X012322Y021318D01*
X012322Y021218D01*
X012380Y021160D01*
X012376Y021155D01*
X012349Y021182D01*
X012116Y021182D01*
X012116Y020832D01*
X012466Y020832D01*
X012466Y020838D01*
X012642Y020838D01*
X012642Y020738D01*
X012742Y020738D01*
X012742Y020388D01*
X012975Y020388D01*
X012995Y020408D01*
X012998Y020408D01*
X013094Y020408D01*
X013154Y020348D01*
X013419Y020348D01*
X013424Y020353D01*
X013520Y020353D01*
X013450Y020353D01*
X013420Y020323D01*
X013062Y020323D01*
X013047Y020308D01*
X012938Y020308D01*
X012780Y020150D01*
X012741Y020111D01*
X012741Y019887D01*
X012741Y019688D01*
X012666Y019763D01*
X012470Y019763D01*
X012470Y019456D01*
X012455Y019456D01*
X012455Y019763D01*
X012387Y019763D01*
X012436Y019812D01*
X012436Y020353D01*
X012377Y020411D01*
X012382Y020415D01*
X012409Y020388D01*
X012642Y020388D01*
X012642Y020738D01*
X012292Y020738D01*
X012292Y020732D01*
X012116Y020732D01*
X012116Y020832D01*
X012016Y020832D01*
X012016Y020732D01*
X011790Y020732D01*
X011790Y020743D01*
X011483Y020743D01*
X011790Y020780D02*
X012016Y020780D01*
X012016Y020878D02*
X012116Y020878D01*
X012116Y020780D02*
X012642Y020780D01*
X012642Y020681D02*
X012742Y020681D01*
X012742Y020583D02*
X012642Y020583D01*
X012642Y020484D02*
X012742Y020484D01*
X012917Y020287D02*
X012436Y020287D01*
X012436Y020188D02*
X012818Y020188D01*
X012741Y020090D02*
X012436Y020090D01*
X012436Y019991D02*
X012741Y019991D01*
X012741Y019893D02*
X012436Y019893D01*
X012418Y019794D02*
X012741Y019794D01*
X012733Y019696D02*
X012741Y019696D01*
X012741Y019455D02*
X012470Y019455D01*
X012470Y019440D01*
X012741Y019440D01*
X012741Y019455D01*
X012470Y019499D02*
X012455Y019499D01*
X012455Y019597D02*
X012470Y019597D01*
X012470Y019696D02*
X012455Y019696D01*
X012353Y019133D02*
X012156Y018936D01*
X012064Y018936D01*
X012064Y019139D01*
X012135Y019139D01*
X012159Y019163D01*
X012230Y019163D01*
X012260Y019133D01*
X012353Y019133D01*
X012325Y019104D02*
X012064Y019104D01*
X012064Y019006D02*
X012226Y019006D01*
X012133Y018629D02*
X012031Y018629D01*
X012031Y018614D01*
X012133Y018614D01*
X012133Y018629D01*
X012016Y018629D02*
X012016Y018614D01*
X011703Y018614D01*
X011703Y018434D01*
X011666Y018434D01*
X011636Y018464D01*
X011440Y018464D01*
X011440Y018156D01*
X011425Y018156D01*
X011425Y018464D01*
X011255Y018464D01*
X011255Y018502D01*
X011196Y018560D01*
X011285Y018649D01*
X011285Y018779D01*
X011366Y018779D01*
X011366Y019086D01*
X011381Y019086D01*
X011381Y018779D01*
X011577Y018779D01*
X011607Y018809D01*
X011703Y018809D01*
X011703Y018629D01*
X012016Y018629D01*
X011703Y018612D02*
X011248Y018612D01*
X011244Y018513D02*
X011703Y018513D01*
X011703Y018710D02*
X011285Y018710D01*
X011366Y018809D02*
X011381Y018809D01*
X011381Y018907D02*
X011366Y018907D01*
X011366Y019006D02*
X011381Y019006D01*
X011425Y018415D02*
X011440Y018415D01*
X011440Y018316D02*
X011425Y018316D01*
X011425Y018218D02*
X011440Y018218D01*
X012291Y018171D02*
X012291Y018097D01*
X012306Y018097D01*
X012306Y018156D01*
X012291Y018171D01*
X012291Y018119D02*
X012306Y018119D01*
X013354Y019533D02*
X013354Y019753D01*
X013420Y019753D01*
X013450Y019723D01*
X013454Y019723D01*
X013454Y019533D01*
X013354Y019533D01*
X013354Y019597D02*
X013454Y019597D01*
X013455Y019533D02*
X013804Y019533D01*
X013804Y019723D01*
X013855Y019723D01*
X013972Y019841D01*
X013972Y020031D01*
X013660Y020031D01*
X013660Y020046D01*
X013972Y020046D01*
X013972Y020236D01*
X013885Y020323D01*
X013955Y020323D01*
X014072Y020441D01*
X014072Y020631D01*
X013760Y020631D01*
X013760Y020646D01*
X014072Y020646D01*
X014072Y020738D01*
X014285Y020738D01*
X014402Y020856D01*
X014402Y021086D01*
X014582Y020906D01*
X014582Y020271D01*
X014582Y020006D01*
X015332Y019256D01*
X015332Y017258D01*
X015070Y017258D01*
X014882Y017071D01*
X014882Y016883D01*
X013902Y016883D01*
X013902Y016988D01*
X013553Y016988D01*
X013553Y017088D01*
X013902Y017088D01*
X013902Y017218D01*
X014064Y017218D01*
X014099Y017253D01*
X014170Y017253D01*
X014200Y017223D01*
X014395Y017223D01*
X014395Y017531D01*
X014410Y017531D01*
X014410Y017546D01*
X014722Y017546D01*
X014722Y017691D01*
X014722Y017881D01*
X014410Y017881D01*
X014410Y017896D01*
X014722Y017896D01*
X014722Y018086D01*
X014722Y018231D01*
X014410Y018231D01*
X014410Y018246D01*
X014722Y018246D01*
X014722Y018391D01*
X014722Y018581D01*
X014410Y018581D01*
X014410Y018596D01*
X014722Y018596D01*
X014722Y018786D01*
X014722Y018931D01*
X014410Y018931D01*
X014410Y018946D01*
X014395Y018946D01*
X014395Y019253D01*
X014200Y019253D01*
X014170Y019223D01*
X013812Y019223D01*
X013804Y019216D01*
X013804Y019433D01*
X013455Y019433D01*
X013455Y019533D01*
X013455Y019499D02*
X015090Y019499D01*
X014991Y019597D02*
X013804Y019597D01*
X013804Y019696D02*
X014893Y019696D01*
X014794Y019794D02*
X013926Y019794D01*
X013972Y019893D02*
X014696Y019893D01*
X014597Y019991D02*
X013972Y019991D01*
X013972Y020090D02*
X014582Y020090D01*
X014582Y020188D02*
X013972Y020188D01*
X013922Y020287D02*
X014582Y020287D01*
X014582Y020385D02*
X014017Y020385D01*
X014072Y020484D02*
X014582Y020484D01*
X014582Y020583D02*
X014072Y020583D01*
X014072Y020681D02*
X014582Y020681D01*
X014582Y020780D02*
X014326Y020780D01*
X014402Y020878D02*
X014582Y020878D01*
X014512Y020977D02*
X014402Y020977D01*
X014402Y021075D02*
X014413Y021075D01*
X014825Y021568D02*
X016082Y021568D01*
X016082Y021667D02*
X014727Y021667D01*
X014628Y021765D02*
X016082Y021765D01*
X016082Y021809D02*
X016082Y021268D01*
X016082Y021209D01*
X016082Y020668D01*
X016082Y020185D01*
X016082Y020068D01*
X016116Y020035D01*
X016052Y019971D01*
X016052Y019738D01*
X016402Y019738D01*
X016402Y019638D01*
X016502Y019638D01*
X016502Y019488D01*
X016502Y019139D01*
X016402Y019139D01*
X016402Y019488D01*
X016402Y019638D01*
X016052Y019638D01*
X016052Y019406D01*
X016070Y019388D01*
X016052Y019371D01*
X016052Y019138D01*
X016402Y019138D01*
X016402Y019038D01*
X016502Y019038D01*
X016502Y018688D01*
X016502Y018539D01*
X016402Y018539D01*
X016402Y018688D01*
X016402Y019038D01*
X016052Y019038D01*
X016052Y018806D01*
X016070Y018788D01*
X016052Y018771D01*
X016052Y018538D01*
X016402Y018538D01*
X016402Y018438D01*
X016502Y018438D01*
X016502Y018288D01*
X016502Y017939D01*
X016402Y017939D01*
X016402Y018288D01*
X016402Y018438D01*
X016052Y018438D01*
X016052Y018206D01*
X016070Y018188D01*
X016052Y018171D01*
X016052Y017938D01*
X016402Y017938D01*
X016402Y017838D01*
X016502Y017838D01*
X016502Y017688D01*
X016502Y017339D01*
X016402Y017339D01*
X016402Y017688D01*
X016402Y017838D01*
X016052Y017838D01*
X016052Y017606D01*
X016070Y017588D01*
X016052Y017571D01*
X016052Y017338D01*
X016402Y017338D01*
X016402Y017238D01*
X016052Y017238D01*
X016052Y017006D01*
X016091Y016967D01*
X016082Y016959D01*
X016082Y016418D01*
X016142Y016358D01*
X015972Y016358D01*
X015972Y016806D01*
X015972Y017071D01*
X015972Y019521D01*
X015785Y019708D01*
X015222Y020271D01*
X015222Y021171D01*
X015035Y021358D01*
X014435Y021958D01*
X014170Y021958D01*
X012824Y021958D01*
X012559Y021958D01*
X011470Y021958D01*
X011423Y021958D01*
X011398Y021958D01*
X011683Y022243D01*
X016052Y022243D01*
X016052Y022188D01*
X016402Y022188D01*
X016402Y022088D01*
X016052Y022088D01*
X016052Y021856D01*
X016091Y021817D01*
X016082Y021809D01*
X016052Y021864D02*
X014530Y021864D01*
X014924Y021469D02*
X016082Y021469D01*
X016082Y021371D02*
X015022Y021371D01*
X015121Y021272D02*
X016082Y021272D01*
X016082Y021174D02*
X015220Y021174D01*
X015222Y021075D02*
X016082Y021075D01*
X016082Y020977D02*
X015222Y020977D01*
X015222Y020878D02*
X016082Y020878D01*
X016082Y020780D02*
X015222Y020780D01*
X015222Y020681D02*
X016082Y020681D01*
X016082Y020583D02*
X015222Y020583D01*
X015222Y020484D02*
X016082Y020484D01*
X016082Y020385D02*
X015222Y020385D01*
X015222Y020287D02*
X016082Y020287D01*
X016082Y020188D02*
X015305Y020188D01*
X015404Y020090D02*
X016082Y020090D01*
X016072Y019991D02*
X015502Y019991D01*
X015601Y019893D02*
X016052Y019893D01*
X016052Y019794D02*
X015699Y019794D01*
X015798Y019696D02*
X016402Y019696D01*
X016402Y019597D02*
X016502Y019597D01*
X016502Y019499D02*
X016402Y019499D01*
X016402Y019400D02*
X016502Y019400D01*
X016502Y019301D02*
X016402Y019301D01*
X016402Y019203D02*
X016502Y019203D01*
X016402Y019104D02*
X015972Y019104D01*
X015972Y019006D02*
X016052Y019006D01*
X016052Y018907D02*
X015972Y018907D01*
X015972Y018809D02*
X016052Y018809D01*
X016052Y018710D02*
X015972Y018710D01*
X015972Y018612D02*
X016052Y018612D01*
X015972Y018513D02*
X016402Y018513D01*
X016402Y018415D02*
X016502Y018415D01*
X016502Y018316D02*
X016402Y018316D01*
X016402Y018218D02*
X016502Y018218D01*
X016502Y018119D02*
X016402Y018119D01*
X016402Y018020D02*
X016502Y018020D01*
X016402Y017922D02*
X015972Y017922D01*
X015972Y018020D02*
X016052Y018020D01*
X016052Y018119D02*
X015972Y018119D01*
X015972Y018218D02*
X016052Y018218D01*
X016052Y018316D02*
X015972Y018316D01*
X015972Y018415D02*
X016052Y018415D01*
X016402Y018612D02*
X016502Y018612D01*
X016502Y018710D02*
X016402Y018710D01*
X016402Y018809D02*
X016502Y018809D01*
X016502Y018907D02*
X016402Y018907D01*
X016402Y019006D02*
X016502Y019006D01*
X016052Y019203D02*
X015972Y019203D01*
X015972Y019301D02*
X016052Y019301D01*
X016058Y019400D02*
X015972Y019400D01*
X015972Y019499D02*
X016052Y019499D01*
X016052Y019597D02*
X015896Y019597D01*
X015332Y019203D02*
X014656Y019203D01*
X014605Y019253D02*
X014410Y019253D01*
X014410Y018946D01*
X014722Y018946D01*
X014722Y019136D01*
X014605Y019253D01*
X014722Y019104D02*
X015332Y019104D01*
X015332Y019006D02*
X014722Y019006D01*
X014722Y018907D02*
X015332Y018907D01*
X015332Y018809D02*
X014722Y018809D01*
X014722Y018710D02*
X015332Y018710D01*
X015332Y018612D02*
X014722Y018612D01*
X014722Y018513D02*
X015332Y018513D01*
X015332Y018415D02*
X014722Y018415D01*
X014722Y018316D02*
X015332Y018316D01*
X015332Y018218D02*
X014722Y018218D01*
X014722Y018119D02*
X015332Y018119D01*
X015332Y018020D02*
X014722Y018020D01*
X014722Y017922D02*
X015332Y017922D01*
X015332Y017823D02*
X014722Y017823D01*
X014722Y017725D02*
X015332Y017725D01*
X015332Y017626D02*
X014722Y017626D01*
X014722Y017531D02*
X014410Y017531D01*
X014410Y017223D01*
X014605Y017223D01*
X014722Y017341D01*
X014722Y017531D01*
X014722Y017528D02*
X015332Y017528D01*
X015332Y017429D02*
X014722Y017429D01*
X014712Y017331D02*
X015332Y017331D01*
X015044Y017232D02*
X014614Y017232D01*
X014410Y017232D02*
X014395Y017232D01*
X014395Y017331D02*
X014410Y017331D01*
X014410Y017429D02*
X014395Y017429D01*
X014395Y017528D02*
X014410Y017528D01*
X014410Y017546D02*
X014395Y017546D01*
X014395Y017573D01*
X014395Y017881D01*
X014410Y017881D01*
X014410Y017573D01*
X014410Y017546D01*
X014410Y017626D02*
X014395Y017626D01*
X014395Y017725D02*
X014410Y017725D01*
X014410Y017823D02*
X014395Y017823D01*
X014395Y017896D02*
X014395Y018203D01*
X014395Y018231D01*
X014410Y018231D01*
X014410Y018203D01*
X014410Y017896D01*
X014395Y017896D01*
X014395Y017922D02*
X014410Y017922D01*
X014410Y018020D02*
X014395Y018020D01*
X014395Y018119D02*
X014410Y018119D01*
X014410Y018218D02*
X014395Y018218D01*
X014395Y018246D02*
X014395Y018273D01*
X014395Y018581D01*
X014410Y018581D01*
X014410Y018273D01*
X014410Y018246D01*
X014395Y018246D01*
X014395Y018316D02*
X014410Y018316D01*
X014410Y018415D02*
X014395Y018415D01*
X014395Y018513D02*
X014410Y018513D01*
X014410Y018596D02*
X014395Y018596D01*
X014395Y018903D01*
X014395Y018931D01*
X014410Y018931D01*
X014410Y018903D01*
X014410Y018596D01*
X014410Y018612D02*
X014395Y018612D01*
X014395Y018710D02*
X014410Y018710D01*
X014410Y018809D02*
X014395Y018809D01*
X014395Y018907D02*
X014410Y018907D01*
X014410Y019006D02*
X014395Y019006D01*
X014395Y019104D02*
X014410Y019104D01*
X014410Y019203D02*
X014395Y019203D01*
X013804Y019301D02*
X015287Y019301D01*
X015188Y019400D02*
X013804Y019400D01*
X013483Y019723D02*
X013444Y019763D01*
X013454Y019696D02*
X013354Y019696D01*
X013520Y020353D02*
X013520Y020353D01*
X013117Y020385D02*
X012403Y020385D01*
X012116Y020977D02*
X012016Y020977D01*
X012016Y021075D02*
X012116Y021075D01*
X012116Y021174D02*
X012016Y021174D01*
X011822Y021272D02*
X012322Y021272D01*
X012357Y021174D02*
X012366Y021174D01*
X011500Y022061D02*
X016052Y022061D01*
X016052Y021962D02*
X011402Y021962D01*
X011599Y022159D02*
X016402Y022159D01*
X016902Y022388D02*
X017152Y022138D01*
X017402Y022388D01*
X017552Y022088D02*
X017552Y021888D01*
X017202Y021538D01*
X017152Y021538D01*
X017522Y021547D02*
X017522Y021268D01*
X017513Y021258D01*
X017711Y021258D01*
X018082Y021630D01*
X018211Y021758D01*
X018227Y021758D01*
X018152Y021939D01*
X018152Y022015D01*
X018082Y022085D01*
X018082Y022243D01*
X017801Y022243D01*
X017841Y022146D01*
X017841Y022031D01*
X017797Y021925D01*
X017772Y021900D01*
X017772Y021797D01*
X017644Y021668D01*
X017522Y021547D01*
X017543Y021568D02*
X018021Y021568D01*
X018119Y021667D02*
X017642Y021667D01*
X017740Y021765D02*
X018224Y021765D01*
X018184Y021864D02*
X017772Y021864D01*
X017813Y021962D02*
X018152Y021962D01*
X018107Y022061D02*
X017841Y022061D01*
X017836Y022159D02*
X018082Y022159D01*
X018302Y021538D02*
X019152Y021538D01*
X018302Y021538D02*
X017702Y020938D01*
X017725Y021272D02*
X017522Y021272D01*
X017522Y021371D02*
X017824Y021371D01*
X017922Y021469D02*
X017522Y021469D01*
X018302Y020888D02*
X018302Y020788D01*
X017852Y020338D01*
X017452Y020338D01*
X017502Y019688D02*
X017352Y019688D01*
X017502Y019688D02*
X018352Y020538D01*
X019152Y020538D01*
X019152Y019538D02*
X018452Y019538D01*
X017402Y018488D01*
X017152Y018488D02*
X017102Y018488D01*
X016802Y018188D01*
X016802Y016988D01*
X016502Y016688D01*
X016452Y016688D01*
X016082Y016641D02*
X015972Y016641D01*
X015972Y016739D02*
X016082Y016739D01*
X016082Y016838D02*
X015972Y016838D01*
X015972Y016936D02*
X016082Y016936D01*
X016052Y017035D02*
X015972Y017035D01*
X015972Y017134D02*
X016052Y017134D01*
X016052Y017232D02*
X015972Y017232D01*
X015972Y017331D02*
X016402Y017331D01*
X016402Y017429D02*
X016502Y017429D01*
X016502Y017528D02*
X016402Y017528D01*
X016402Y017626D02*
X016502Y017626D01*
X016502Y017725D02*
X016402Y017725D01*
X016402Y017823D02*
X016502Y017823D01*
X016052Y017823D02*
X015972Y017823D01*
X015972Y017725D02*
X016052Y017725D01*
X016052Y017626D02*
X015972Y017626D01*
X015972Y017528D02*
X016052Y017528D01*
X016052Y017429D02*
X015972Y017429D01*
X015972Y016542D02*
X016082Y016542D01*
X016082Y016444D02*
X015972Y016444D01*
X015935Y015718D02*
X015670Y015718D01*
X015520Y015868D01*
X015447Y015941D01*
X015447Y015690D01*
X015469Y015669D01*
X015617Y015669D01*
X015617Y015194D01*
X015617Y015194D01*
X015617Y015669D01*
X015779Y015669D01*
X015809Y015639D01*
X016055Y015639D01*
X016085Y015669D01*
X016247Y015669D01*
X016320Y015669D01*
X016270Y015718D01*
X015935Y015718D01*
X016072Y015655D02*
X015792Y015655D01*
X015617Y015655D02*
X015617Y015655D01*
X015617Y015557D02*
X015617Y015557D01*
X015617Y015458D02*
X015617Y015458D01*
X015617Y015360D02*
X015617Y015360D01*
X015617Y015261D02*
X015617Y015261D01*
X015932Y014968D02*
X015652Y014688D01*
X015895Y014571D02*
X016932Y014571D01*
X016932Y014473D02*
X015817Y014473D01*
X015945Y014670D02*
X016730Y014670D01*
X016647Y014769D02*
X016459Y014769D01*
X016526Y014867D02*
X016606Y014867D01*
X016605Y014966D02*
X016526Y014966D01*
X016526Y015064D02*
X016629Y015064D01*
X016686Y015163D02*
X016526Y015163D01*
X016526Y015261D02*
X016727Y015261D01*
X016629Y015360D02*
X016526Y015360D01*
X016526Y015458D02*
X016530Y015458D01*
X016247Y015458D02*
X016247Y015458D01*
X016247Y015360D02*
X016247Y015360D01*
X016247Y015261D02*
X016247Y015261D01*
X016247Y015194D02*
X016247Y015669D01*
X016247Y015194D01*
X016247Y015194D01*
X016247Y015163D02*
X016247Y015163D01*
X016247Y015064D02*
X016247Y015064D01*
X016247Y014966D02*
X016247Y014966D01*
X016247Y014867D02*
X016247Y014867D01*
X016247Y014769D02*
X016247Y014769D01*
X016247Y015557D02*
X016247Y015557D01*
X016247Y015655D02*
X016247Y015655D01*
X015634Y015754D02*
X015447Y015754D01*
X015447Y015852D02*
X015536Y015852D01*
X014882Y016936D02*
X013902Y016936D01*
X013902Y017134D02*
X014945Y017134D01*
X014882Y017035D02*
X013553Y017035D01*
X014078Y017232D02*
X014191Y017232D01*
X013452Y015538D02*
X013452Y015193D01*
X013412Y015193D01*
X013727Y015193D02*
X013727Y015193D01*
X013727Y014718D01*
X013566Y014718D01*
X013536Y014748D01*
X013474Y014748D01*
X013481Y014741D01*
X013521Y014642D01*
X013521Y014535D01*
X013481Y014436D01*
X013405Y014360D01*
X013306Y014319D01*
X013259Y014319D01*
X013073Y014133D01*
X013233Y014133D01*
X013347Y014019D01*
X013396Y013970D01*
X013433Y013986D01*
X013571Y013986D01*
X013677Y013942D01*
X013783Y013986D01*
X013921Y013986D01*
X014049Y013933D01*
X014107Y013874D01*
X014107Y014258D01*
X014107Y014419D01*
X014183Y014495D01*
X014183Y014542D01*
X014224Y014641D01*
X014300Y014716D01*
X014335Y014731D01*
X014335Y014748D01*
X014208Y014748D01*
X014200Y014756D01*
X014191Y014748D01*
X013919Y014748D01*
X013889Y014718D01*
X013727Y014718D01*
X013727Y015193D01*
X013727Y015163D02*
X013727Y015163D01*
X013727Y015064D02*
X013727Y015064D01*
X013727Y014966D02*
X013727Y014966D01*
X013727Y014867D02*
X013727Y014867D01*
X013727Y014769D02*
X013727Y014769D01*
X013510Y014670D02*
X014253Y014670D01*
X014202Y014688D02*
X014152Y014638D01*
X014152Y013338D01*
X013752Y012938D01*
X013907Y012958D02*
X013907Y012808D01*
X014002Y012713D01*
X013957Y012669D01*
X013907Y012619D01*
X013907Y012469D01*
X013907Y012308D01*
X014002Y012213D01*
X013957Y012169D01*
X013907Y012119D01*
X013907Y011958D01*
X013907Y011808D01*
X014022Y011693D01*
X014072Y011643D01*
X014107Y011643D01*
X014107Y011474D01*
X014049Y011533D01*
X013921Y011586D01*
X013783Y011586D01*
X013676Y011541D01*
X013647Y011569D01*
X013603Y011613D01*
X013697Y011708D01*
X013697Y011808D01*
X013697Y011969D01*
X013647Y012019D01*
X013628Y012038D01*
X013697Y012108D01*
X013907Y012108D01*
X013907Y012009D02*
X013657Y012009D01*
X013697Y011911D02*
X013907Y011911D01*
X013907Y011812D02*
X013697Y011812D01*
X013697Y011714D02*
X014001Y011714D01*
X014107Y011615D02*
X013605Y011615D01*
X014065Y011517D02*
X014107Y011517D01*
X013995Y012206D02*
X013697Y012206D01*
X013697Y012208D02*
X013697Y012369D01*
X013647Y012419D01*
X013533Y012533D01*
X013397Y012533D01*
X013397Y013306D01*
X013433Y013291D01*
X013571Y013291D01*
X013677Y013335D01*
X013783Y013291D01*
X013921Y013291D01*
X014049Y013344D01*
X014107Y013403D01*
X014107Y013283D01*
X014072Y013283D01*
X013957Y013169D01*
X013907Y013119D01*
X013907Y012958D01*
X013907Y012995D02*
X013397Y012995D01*
X013397Y013093D02*
X013907Y013093D01*
X013980Y013192D02*
X013397Y013192D01*
X013397Y013290D02*
X014107Y013290D01*
X014094Y013389D02*
X014107Y013389D01*
X013907Y012896D02*
X013397Y012896D01*
X013397Y012798D02*
X013917Y012798D01*
X013987Y012699D02*
X013397Y012699D01*
X013397Y012601D02*
X013907Y012601D01*
X013957Y012669D02*
X013957Y012669D01*
X013907Y012502D02*
X013565Y012502D01*
X013663Y012403D02*
X013907Y012403D01*
X013910Y012305D02*
X013697Y012305D01*
X013697Y012208D02*
X013697Y012108D01*
X012907Y012108D02*
X012348Y012108D01*
X012328Y012088D02*
X012397Y012158D01*
X012397Y012258D01*
X012397Y012419D01*
X012347Y012469D01*
X012233Y012583D01*
X011997Y012583D01*
X011997Y013143D01*
X012083Y013143D01*
X012872Y013143D01*
X012907Y013108D01*
X012907Y011102D01*
X012783Y011102D01*
X012783Y010627D01*
X012782Y010627D01*
X012782Y011102D01*
X012662Y011102D01*
X012662Y011293D01*
X012662Y011454D01*
X012447Y011669D01*
X012378Y011738D01*
X012397Y011758D01*
X012397Y011858D01*
X012397Y012019D01*
X012328Y012088D01*
X012397Y012009D02*
X012907Y012009D01*
X012907Y011911D02*
X012397Y011911D01*
X012397Y011812D02*
X012907Y011812D01*
X012907Y011714D02*
X012403Y011714D01*
X012447Y011669D02*
X012447Y011669D01*
X012501Y011615D02*
X012907Y011615D01*
X012907Y011517D02*
X012600Y011517D01*
X012662Y011418D02*
X012907Y011418D01*
X012907Y011319D02*
X012662Y011319D01*
X012662Y011221D02*
X012907Y011221D01*
X012907Y011122D02*
X012662Y011122D01*
X012782Y011024D02*
X012783Y011024D01*
X012782Y010925D02*
X012783Y010925D01*
X012782Y010827D02*
X012783Y010827D01*
X012782Y010728D02*
X012783Y010728D01*
X012782Y010630D02*
X012783Y010630D01*
X013233Y010181D02*
X013246Y010181D01*
X013255Y010189D01*
X013263Y010181D01*
X013561Y010181D01*
X013570Y010189D01*
X013578Y010181D01*
X013876Y010181D01*
X013885Y010189D01*
X013893Y010181D01*
X014191Y010181D01*
X014200Y010189D01*
X014208Y010181D01*
X014672Y010236D02*
X014672Y010236D01*
X014672Y010334D02*
X014672Y010334D01*
X014672Y010433D02*
X014672Y010433D01*
X014672Y010531D02*
X014672Y010531D01*
X015282Y009940D02*
X013422Y009940D01*
X013422Y009992D02*
X013233Y010181D01*
X013277Y010137D02*
X015367Y010137D01*
X015362Y010038D02*
X013376Y010038D01*
X013422Y009992D02*
X013422Y009709D01*
X013472Y009659D01*
X013472Y008718D01*
X013373Y008618D01*
X012408Y008618D01*
X012383Y008593D01*
X012022Y008593D01*
X011907Y008708D01*
X011907Y008869D01*
X011907Y009619D01*
X012022Y009733D01*
X012032Y009733D01*
X011962Y009803D01*
X011962Y010047D01*
X011882Y010127D01*
X011882Y010181D01*
X011688Y010181D01*
X011680Y010189D01*
X011672Y010181D01*
X011373Y010181D01*
X011365Y010189D01*
X011357Y010181D01*
X011058Y010181D01*
X011050Y010189D01*
X011042Y010181D01*
X010743Y010181D01*
X010735Y010189D01*
X010727Y010181D01*
X010428Y010181D01*
X010420Y010189D01*
X010412Y010181D01*
X010114Y010181D01*
X010105Y010189D01*
X010097Y010181D01*
X009799Y010181D01*
X009790Y010189D01*
X009782Y010181D01*
X009484Y010181D01*
X009475Y010189D01*
X009467Y010181D01*
X009169Y010181D01*
X009160Y010189D01*
X009152Y010181D01*
X008854Y010181D01*
X008845Y010189D01*
X008837Y010181D01*
X008539Y010181D01*
X008530Y010189D01*
X008522Y010181D01*
X008328Y010181D01*
X008328Y010100D01*
X008328Y009877D01*
X008170Y009718D01*
X008158Y009718D01*
X008143Y009703D01*
X007785Y009703D01*
X007755Y009673D01*
X007560Y009673D01*
X007560Y009981D01*
X007545Y009981D01*
X007545Y009996D01*
X007560Y009996D01*
X007560Y010303D01*
X007755Y010303D01*
X007560Y010236D02*
X007545Y010236D01*
X007545Y010137D02*
X007560Y010137D01*
X007560Y010038D02*
X007545Y010038D01*
X007545Y009940D02*
X007560Y009940D01*
X007560Y009841D02*
X007545Y009841D01*
X007545Y009743D02*
X007560Y009743D01*
X007660Y009546D02*
X008502Y009546D01*
X008454Y009447D02*
X007721Y009447D01*
X007724Y009349D02*
X008454Y009349D01*
X008454Y009250D02*
X007724Y009250D01*
X007724Y009152D02*
X008802Y009152D01*
X008899Y009152D02*
X011102Y009152D01*
X011102Y009250D02*
X011202Y009250D01*
X011203Y009152D02*
X011907Y009152D01*
X011907Y009250D02*
X011802Y009250D01*
X011802Y009349D02*
X011907Y009349D01*
X011907Y009447D02*
X011802Y009447D01*
X011802Y009546D02*
X011907Y009546D01*
X011933Y009644D02*
X011802Y009644D01*
X011852Y009738D02*
X012652Y009738D01*
X012652Y009988D01*
X012023Y009743D02*
X011731Y009743D01*
X011962Y009841D02*
X008293Y009841D01*
X008328Y009940D02*
X011962Y009940D01*
X011962Y010038D02*
X008328Y010038D01*
X008328Y010137D02*
X011882Y010137D01*
X011202Y009743D02*
X011102Y009743D01*
X011102Y009644D02*
X011202Y009644D01*
X011202Y009546D02*
X011102Y009546D01*
X011102Y009447D02*
X011202Y009447D01*
X011202Y009349D02*
X011102Y009349D01*
X011102Y009053D02*
X011202Y009053D01*
X011202Y008954D02*
X011102Y008954D01*
X011102Y008856D02*
X011202Y008856D01*
X011202Y008757D02*
X011102Y008757D01*
X011102Y008659D02*
X011202Y008659D01*
X011756Y008659D02*
X011956Y008659D01*
X011907Y008757D02*
X011802Y008757D01*
X011802Y008856D02*
X011907Y008856D01*
X011907Y008954D02*
X011802Y008954D01*
X011802Y009053D02*
X011907Y009053D01*
X010574Y009743D02*
X008194Y009743D01*
X008454Y009053D02*
X007724Y009053D01*
X007724Y008954D02*
X008454Y008954D01*
X008454Y008856D02*
X007724Y008856D01*
X007724Y008757D02*
X008476Y008757D01*
X008802Y008757D02*
X008899Y008757D01*
X008899Y008856D02*
X008802Y008856D01*
X008802Y008954D02*
X008899Y008954D01*
X008899Y009053D02*
X008802Y009053D01*
X008802Y009250D02*
X008899Y009250D01*
X008899Y009349D02*
X008802Y009349D01*
X008802Y009447D02*
X008899Y009447D01*
X008899Y009546D02*
X008802Y009546D01*
X007788Y010630D02*
X005993Y010630D01*
X006092Y010728D02*
X007788Y010728D01*
X007788Y010827D02*
X006138Y010827D01*
X006179Y010925D02*
X007775Y010925D01*
X008394Y011221D02*
X008459Y011221D01*
X008558Y011319D02*
X008353Y011319D01*
X009197Y011959D02*
X009197Y013108D01*
X009309Y013219D01*
X009406Y013219D01*
X009505Y013260D01*
X009539Y013294D01*
X009557Y013287D01*
X009557Y012319D01*
X009197Y011959D01*
X009197Y012009D02*
X009248Y012009D01*
X009197Y012108D02*
X009346Y012108D01*
X009445Y012206D02*
X009197Y012206D01*
X009197Y012305D02*
X009543Y012305D01*
X009557Y012403D02*
X009197Y012403D01*
X009197Y012502D02*
X009557Y012502D01*
X009557Y012601D02*
X009197Y012601D01*
X009197Y012699D02*
X009557Y012699D01*
X009557Y012798D02*
X009197Y012798D01*
X009197Y012896D02*
X009557Y012896D01*
X009557Y012995D02*
X009197Y012995D01*
X009197Y013093D02*
X009557Y013093D01*
X009557Y013192D02*
X009282Y013192D01*
X009535Y013290D02*
X009548Y013290D01*
X010263Y015193D02*
X010263Y015528D01*
X011152Y014888D02*
X011208Y014944D01*
X011208Y015193D01*
X012152Y015194D02*
X012152Y015669D01*
X012072Y015669D01*
X012072Y015718D01*
X012366Y015718D01*
X012432Y015652D01*
X012432Y015639D01*
X012344Y015639D01*
X012314Y015669D01*
X012153Y015669D01*
X012153Y015194D01*
X012152Y015194D01*
X012152Y015261D02*
X012153Y015261D01*
X012152Y015360D02*
X012153Y015360D01*
X012152Y015458D02*
X012153Y015458D01*
X012152Y015557D02*
X012153Y015557D01*
X012152Y015655D02*
X012153Y015655D01*
X012327Y015655D02*
X012429Y015655D01*
X013097Y015433D02*
X013202Y015538D01*
X013521Y014571D02*
X014196Y014571D01*
X014161Y014473D02*
X013496Y014473D01*
X013419Y014374D02*
X014107Y014374D01*
X014107Y014276D02*
X013216Y014276D01*
X013117Y014177D02*
X014107Y014177D01*
X014107Y014079D02*
X013288Y014079D01*
X013386Y013980D02*
X013420Y013980D01*
X013585Y013980D02*
X013770Y013980D01*
X013935Y013980D02*
X014107Y013980D01*
X014100Y013882D02*
X014107Y013882D01*
X012907Y013093D02*
X011997Y013093D01*
X011997Y012995D02*
X012907Y012995D01*
X012907Y012896D02*
X011997Y012896D01*
X011997Y012798D02*
X012907Y012798D01*
X012907Y012699D02*
X011997Y012699D01*
X011997Y012601D02*
X012907Y012601D01*
X012907Y012502D02*
X012315Y012502D01*
X012397Y012403D02*
X012907Y012403D01*
X012907Y012305D02*
X012397Y012305D01*
X012397Y012206D02*
X012907Y012206D01*
X013422Y009841D02*
X015282Y009841D01*
X015282Y009743D02*
X013422Y009743D01*
X013472Y009644D02*
X015282Y009644D01*
X015282Y009546D02*
X015218Y009546D01*
X014887Y009546D02*
X013472Y009546D01*
X013472Y009447D02*
X014770Y009447D01*
X014722Y009349D02*
X013472Y009349D01*
X013472Y009250D02*
X014705Y009250D01*
X014713Y009152D02*
X013472Y009152D01*
X013472Y009053D02*
X014753Y009053D01*
X014845Y008954D02*
X013472Y008954D01*
X013472Y008856D02*
X015282Y008856D01*
X015282Y008954D02*
X015259Y008954D01*
X015282Y008757D02*
X013472Y008757D01*
X013413Y008659D02*
X015282Y008659D01*
X016497Y010433D02*
X016585Y010433D01*
X017172Y010630D02*
X018161Y010630D01*
X018152Y010728D02*
X017172Y010728D01*
X016682Y011714D02*
X016650Y011714D01*
X016682Y011812D02*
X015847Y011812D01*
X015847Y011714D02*
X016154Y011714D01*
X016056Y011615D02*
X015847Y011615D01*
X015847Y011517D02*
X015997Y011517D01*
X015997Y011418D02*
X015847Y011418D01*
X015847Y011319D02*
X015997Y011319D01*
X015997Y011221D02*
X015847Y011221D01*
X015944Y011122D02*
X015997Y011122D01*
X015847Y011911D02*
X016682Y011911D01*
X016682Y012009D02*
X015847Y012009D01*
X015847Y012108D02*
X016682Y012108D01*
X016730Y012206D02*
X015847Y012206D01*
X015847Y012305D02*
X016762Y012305D01*
X016857Y012403D02*
X015847Y012403D01*
X015847Y012502D02*
X017055Y012502D01*
X017137Y012601D02*
X015847Y012601D01*
X015847Y012699D02*
X017183Y012699D01*
X017402Y012538D02*
X017052Y012188D01*
X019602Y008462D02*
X019702Y008462D01*
X019702Y008363D02*
X019602Y008363D01*
X019602Y008265D02*
X019702Y008265D01*
X019702Y008166D02*
X019602Y008166D01*
X017452Y017288D02*
X017752Y017588D01*
X017752Y017888D01*
X018402Y018538D01*
X019152Y018538D01*
X018302Y018888D02*
X017302Y017888D01*
X017402Y019088D02*
X017702Y019088D01*
X018302Y019688D01*
X018302Y019838D01*
X011852Y019712D02*
X011818Y019678D01*
X011678Y019678D01*
X011662Y019678D01*
X011420Y019678D01*
X011420Y019775D01*
X011381Y019871D01*
X011370Y019881D01*
X011381Y019891D01*
X011420Y019987D01*
X011420Y020060D01*
X011530Y020060D01*
X011530Y019987D01*
X011545Y019950D01*
X011545Y019937D01*
X011555Y019927D01*
X011570Y019891D01*
X011643Y019818D01*
X011679Y019803D01*
X011689Y019793D01*
X011702Y019793D01*
X011722Y019785D01*
X011795Y019712D01*
X011852Y019712D01*
X011835Y019696D02*
X011420Y019696D01*
X011412Y019794D02*
X011688Y019794D01*
X011569Y019893D02*
X011381Y019893D01*
X011420Y019991D02*
X011530Y019991D01*
X010895Y019440D02*
X010895Y019133D01*
X010935Y019133D01*
X010935Y018982D01*
X010835Y018982D01*
X010835Y019133D01*
X010880Y019133D01*
X010880Y019440D01*
X010895Y019440D01*
X010895Y019400D02*
X010880Y019400D01*
X010880Y019301D02*
X010895Y019301D01*
X010895Y019203D02*
X010880Y019203D01*
X010835Y019104D02*
X010935Y019104D01*
X010935Y019006D02*
X010835Y019006D01*
X010530Y018464D02*
X010307Y018464D01*
X010255Y018516D01*
X010255Y018116D02*
X010215Y018077D01*
X010215Y017834D01*
X010412Y017637D01*
X010495Y017637D01*
X010445Y017626D02*
X010061Y017626D01*
X010048Y017613D02*
X010121Y017686D01*
X010121Y017687D01*
X010445Y017687D01*
X010445Y017587D01*
X010095Y017587D01*
X010095Y017435D01*
X010068Y017424D01*
X010058Y017414D01*
X010048Y017424D01*
X009952Y017464D01*
X009849Y017464D01*
X009753Y017424D01*
X009680Y017351D01*
X009640Y017255D01*
X009640Y017241D01*
X009588Y017241D01*
X009531Y017241D01*
X009531Y017255D01*
X009491Y017351D01*
X009418Y017424D01*
X009322Y017464D01*
X009247Y017464D01*
X009247Y017508D01*
X009378Y017639D01*
X009413Y017639D01*
X009438Y017613D01*
X009534Y017574D01*
X009637Y017574D01*
X009733Y017613D01*
X009743Y017624D01*
X009753Y017613D01*
X009849Y017574D01*
X009952Y017574D01*
X010048Y017613D01*
X010095Y017528D02*
X009267Y017528D01*
X009366Y017626D02*
X009425Y017626D01*
X009406Y017429D02*
X009765Y017429D01*
X009672Y017331D02*
X009499Y017331D01*
X010036Y017429D02*
X010080Y017429D01*
X007011Y021667D02*
X006993Y021667D01*
X006993Y021765D02*
X007011Y021765D01*
X007011Y021864D02*
X006993Y021864D01*
X006993Y021962D02*
X007011Y021962D01*
X007011Y022061D02*
X006993Y022061D01*
X006993Y022159D02*
X007011Y022159D01*
X006820Y023145D02*
X006150Y023145D01*
X006109Y023243D02*
X006722Y023243D01*
X007652Y023638D02*
X007752Y023538D01*
X008153Y025138D02*
X008153Y025238D01*
X008502Y025238D01*
X008502Y025471D01*
X008385Y025588D01*
X008152Y025588D01*
X008152Y025239D01*
X008052Y025239D01*
X008052Y025588D01*
X007820Y025588D01*
X007731Y025500D01*
X007673Y025558D01*
X007482Y025558D01*
X007509Y025619D01*
X007530Y025684D01*
X007546Y025751D01*
X007546Y025751D01*
X007555Y025820D01*
X007558Y025888D01*
X007555Y025957D01*
X007555Y025957D01*
X007546Y026025D01*
X007546Y026025D01*
X007530Y026092D01*
X007530Y026092D01*
X007509Y026158D01*
X007481Y026221D01*
X007448Y026281D01*
X007423Y026318D01*
X009782Y026318D01*
X009782Y025191D01*
X009735Y025238D01*
X009502Y025238D01*
X009502Y024889D01*
X009402Y024889D01*
X009402Y025238D01*
X009170Y025238D01*
X009167Y025236D01*
X009167Y025431D01*
X008860Y025431D01*
X008860Y025446D01*
X008845Y025446D01*
X008845Y025758D01*
X008655Y025758D01*
X008537Y025641D01*
X008537Y025446D01*
X008845Y025446D01*
X008845Y025431D01*
X008537Y025431D01*
X008537Y025236D01*
X008567Y025206D01*
X008567Y025127D01*
X008502Y025062D01*
X008502Y025138D01*
X008153Y025138D01*
X008153Y025214D02*
X008559Y025214D01*
X008556Y025116D02*
X008502Y025116D01*
X008502Y025313D02*
X008537Y025313D01*
X008537Y025411D02*
X008502Y025411D01*
X008537Y025510D02*
X008464Y025510D01*
X008537Y025608D02*
X007504Y025608D01*
X007509Y025619D02*
X007509Y025619D01*
X007530Y025684D02*
X007530Y025684D01*
X007536Y025707D02*
X008603Y025707D01*
X008845Y025707D02*
X008860Y025707D01*
X008860Y025758D02*
X008860Y025446D01*
X009167Y025446D01*
X009167Y025641D01*
X009050Y025758D01*
X008860Y025758D01*
X008845Y025608D02*
X008860Y025608D01*
X008860Y025510D02*
X008845Y025510D01*
X009167Y025510D02*
X009782Y025510D01*
X009782Y025608D02*
X009167Y025608D01*
X009102Y025707D02*
X009782Y025707D01*
X009782Y025805D02*
X007553Y025805D01*
X007555Y025820D02*
X007555Y025820D01*
X007558Y025904D02*
X009782Y025904D01*
X009782Y026002D02*
X007549Y026002D01*
X007528Y026101D02*
X009782Y026101D01*
X009782Y026200D02*
X007491Y026200D01*
X007481Y026221D02*
X007481Y026221D01*
X007448Y026281D02*
X007448Y026281D01*
X007437Y026298D02*
X009782Y026298D01*
X009782Y025411D02*
X009167Y025411D01*
X009167Y025313D02*
X009782Y025313D01*
X009782Y025214D02*
X009760Y025214D01*
X009502Y025214D02*
X009402Y025214D01*
X009402Y025116D02*
X009502Y025116D01*
X009502Y025017D02*
X009402Y025017D01*
X009402Y024918D02*
X009502Y024918D01*
X008152Y025313D02*
X008052Y025313D01*
X008052Y025411D02*
X008152Y025411D01*
X008152Y025510D02*
X008052Y025510D01*
X007741Y025510D02*
X007721Y025510D01*
X007509Y026158D02*
X007509Y026158D01*
X007002Y012588D02*
X005952Y011538D01*
X005152Y011538D01*
X004902Y011788D01*
X005152Y010827D02*
X005166Y010827D01*
X005152Y010728D02*
X005213Y010728D01*
X005144Y010630D02*
X005312Y010630D01*
X005492Y010531D02*
X004372Y010531D01*
D25*
X006352Y009588D03*
X006352Y009488D03*
X006352Y009388D03*
X006352Y009288D03*
X006352Y009188D03*
X006352Y009088D03*
X006352Y008988D03*
X006952Y009238D03*
X006952Y010138D03*
X007502Y010888D03*
X007702Y011488D03*
X008052Y011138D03*
X007002Y012138D03*
X007802Y012988D03*
X007802Y013338D03*
X008052Y014688D03*
X009402Y013138D03*
X010152Y011338D03*
X010927Y009813D03*
X012152Y011288D03*
X012602Y011638D03*
X012602Y011988D03*
X013852Y011238D03*
X013052Y009838D03*
X015052Y009238D03*
X016152Y009688D03*
X016802Y010738D03*
X016402Y011438D03*
X017952Y009588D03*
X017952Y009488D03*
X017952Y009388D03*
X017952Y009288D03*
X017952Y009188D03*
X017952Y009088D03*
X017952Y008988D03*
X014752Y012888D03*
X013852Y013638D03*
X013502Y013638D03*
X012902Y013638D03*
X012552Y013638D03*
X012202Y013638D03*
X015202Y017388D03*
X015202Y017738D03*
X013852Y019838D03*
X015352Y020238D03*
X017952Y021788D03*
X019152Y021538D03*
X017502Y016838D03*
X016952Y014938D03*
X017502Y013988D03*
X015702Y014288D03*
X009602Y022288D03*
X010202Y022488D03*
X010302Y022488D03*
X010402Y022488D03*
X010502Y022488D03*
X010602Y022488D03*
X010702Y022488D03*
X010802Y022488D03*
X008852Y024538D03*
X009552Y025238D03*
X007952Y025788D03*
X007502Y022488D03*
X007002Y022488D03*
X006352Y019738D03*
D26*
X006852Y016838D03*
X008752Y013788D03*
X011852Y009948D03*
X014202Y014688D03*
X014652Y014738D03*
X016502Y015088D03*
X015202Y016938D03*
X016152Y018188D03*
X016702Y020088D03*
X015502Y021088D03*
X013652Y018188D03*
X012977Y015713D03*
X012127Y015638D03*
D27*
X014402Y018938D02*
X015202Y018938D01*
X016452Y020338D02*
X016702Y020088D01*
X017052Y012188D02*
X017052Y011888D01*
X008002Y022088D02*
X008252Y022338D01*
X008252Y022838D01*
X008002Y022088D02*
X008002Y021610D01*
X008002Y021238D01*
X008002Y021138D01*
X006952Y019588D02*
X006502Y019588D01*
X006352Y019738D01*
X006952Y019188D02*
X007502Y019188D01*
X007856Y017742D02*
X007502Y017388D01*
X007502Y017238D01*
X007856Y017742D02*
X007902Y017742D01*
X006952Y016838D02*
X006952Y016538D01*
X006952Y016138D02*
X007502Y016138D01*
X008002Y024366D02*
X008002Y024638D01*
X008082Y024638D01*
X008502Y024538D02*
X008502Y024366D01*
D28*
X008102Y025188D02*
X008102Y025638D01*
X007952Y025788D01*
X007402Y025188D02*
X007352Y025188D01*
X007002Y024838D01*
X007002Y024366D01*
X007002Y023638D01*
X007502Y023788D02*
X007502Y024366D01*
X009202Y023538D02*
X009452Y023538D01*
X008502Y021610D02*
X008502Y020688D01*
X008252Y020688D01*
X007552Y020688D02*
X007502Y020738D01*
X007502Y021038D01*
X007502Y021610D01*
X007502Y017238D02*
X007352Y017238D01*
X006952Y016838D01*
X006852Y016838D01*
X008002Y015038D02*
X008002Y014738D01*
X008052Y014688D01*
X007502Y010888D02*
X007502Y009988D01*
X007502Y009838D01*
X007702Y009638D01*
X008602Y009638D01*
X008850Y009390D01*
X008850Y009138D01*
X010902Y009538D02*
X011852Y009538D01*
X011852Y009738D01*
X011852Y009948D01*
X010902Y009638D02*
X010902Y009538D01*
X012782Y011459D02*
X012602Y011638D01*
X012602Y011988D01*
X012752Y015713D02*
X012782Y015713D01*
X012977Y015713D01*
X015202Y016938D02*
X015652Y016938D01*
X015652Y016188D01*
X015802Y016038D01*
X016402Y016038D01*
X017352Y015088D01*
X017352Y014638D01*
X017252Y014538D01*
X017252Y014238D01*
X017502Y013988D01*
X016502Y015088D02*
X016352Y015088D01*
X016352Y015288D01*
X016352Y015488D01*
X016252Y015588D01*
X015652Y016938D02*
X015652Y019388D01*
X014902Y020138D01*
X014902Y021038D01*
X014302Y021638D01*
X012692Y021638D01*
X012692Y021488D01*
X012692Y021638D02*
X011602Y021638D01*
X012002Y021188D02*
X012002Y020782D01*
X012066Y020782D01*
X012066Y020117D02*
X011869Y020117D01*
X012066Y020117D02*
X012066Y020082D01*
X013286Y020668D02*
X013286Y021138D01*
X013302Y021138D01*
X013752Y020638D02*
X014002Y020638D01*
X014002Y020338D01*
X014002Y019838D01*
X013752Y019838D02*
X013598Y019838D01*
X013483Y019723D01*
X013404Y019645D01*
X013404Y019483D01*
X014002Y020638D02*
X014002Y021138D01*
X017152Y020938D02*
X017702Y020938D01*
X017602Y012238D02*
X017602Y011938D01*
X017652Y011888D01*
X016152Y009688D02*
X015652Y009688D01*
D29*
X015652Y008988D02*
X015652Y008038D01*
X016802Y010738D02*
X016802Y011188D01*
X017052Y011188D01*
X017652Y011188D01*
X018502Y011188D01*
X018652Y011038D01*
X018502Y011888D02*
X017652Y011888D01*
X016802Y011188D02*
X016402Y011188D01*
X016402Y011438D01*
X018302Y013038D02*
X018652Y013038D01*
X019152Y012538D02*
X019652Y012038D01*
X019652Y013038D02*
X019152Y013538D01*
X018652Y014038D02*
X018302Y014038D01*
X019152Y014538D02*
X019652Y014038D01*
X019652Y015038D02*
X019152Y015538D01*
X018652Y015038D02*
X018502Y015188D01*
X017452Y017288D02*
X017152Y017288D01*
X017152Y017888D02*
X017302Y017888D01*
X017402Y018488D02*
X017152Y018488D01*
X017152Y019088D02*
X017402Y019088D01*
X017352Y019688D02*
X017152Y019688D01*
X017152Y020338D02*
X017452Y020338D01*
X018302Y019838D02*
X018502Y020038D01*
X018652Y020038D01*
X019152Y019538D02*
X019652Y020038D01*
X019152Y020538D02*
X019652Y021038D01*
X019652Y022038D02*
X019352Y022338D01*
X018652Y022038D02*
X018452Y022238D01*
X018452Y021038D02*
X018302Y020888D01*
X018452Y021038D02*
X018652Y021038D01*
X018652Y019038D02*
X018452Y019038D01*
X018302Y018888D01*
X019152Y018538D02*
X019652Y019038D01*
X016452Y019088D02*
X016452Y018188D01*
X016152Y018188D01*
X016452Y018188D02*
X016452Y017888D01*
X016452Y017288D01*
X016452Y018188D02*
X016452Y018488D01*
X016452Y019088D02*
X016452Y019688D01*
X016452Y020338D02*
X016452Y021538D01*
X016452Y020938D02*
X016452Y020338D01*
X015202Y019188D02*
X015202Y018938D01*
X015202Y018588D01*
X015202Y018238D01*
X015202Y017888D01*
X015202Y017738D01*
X015202Y017538D01*
X015202Y017388D01*
X015002Y017388D01*
X014652Y017038D01*
X013502Y017038D01*
X015202Y019188D02*
X014552Y019838D01*
X014002Y019838D01*
X013852Y019838D01*
X013752Y019838D01*
X012689Y020786D02*
X012656Y020786D01*
X012070Y020786D01*
X012066Y020782D01*
X009452Y024838D02*
X009552Y024938D01*
X009552Y025238D01*
X008852Y024888D02*
X008852Y024638D01*
X008852Y024538D01*
X008502Y024538D01*
X008102Y024538D01*
X008082Y024638D02*
X008502Y024638D01*
X008602Y024638D01*
X008852Y024888D01*
X008852Y024638D02*
X008602Y024638D01*
X008502Y024638D02*
X008502Y024538D01*
X007002Y022488D02*
X007002Y021610D01*
X005902Y022288D02*
X005652Y022038D01*
X004902Y021788D02*
X004652Y022038D01*
X004902Y021288D02*
X004652Y021038D01*
X004652Y020038D02*
X004902Y019788D01*
X004902Y019288D02*
X004652Y019038D01*
X004652Y018038D02*
X004902Y017788D01*
X004902Y017288D02*
X004652Y017038D01*
X004652Y016038D02*
X004902Y015788D01*
X004902Y015288D02*
X004652Y015038D01*
X004652Y014038D02*
X004902Y013788D01*
X004902Y013288D02*
X004652Y013038D01*
X004652Y012038D02*
X004902Y011788D01*
X005652Y012038D02*
X005902Y012038D01*
X005652Y012738D02*
X005652Y013038D01*
X005652Y014038D02*
X005902Y014288D01*
X005652Y015038D02*
X005802Y015188D01*
X005652Y016038D02*
X005952Y016338D01*
X005952Y017088D02*
X005702Y017088D01*
X005652Y017038D01*
X005652Y018038D02*
X005902Y018288D01*
X005902Y018788D02*
X005652Y019038D01*
X007502Y018938D02*
X007502Y019188D01*
X007502Y019538D01*
X007502Y016638D02*
X007502Y016138D01*
X007502Y016038D01*
X010202Y009638D02*
X010902Y009638D01*
X010927Y009638D01*
X010927Y009813D01*
X010927Y009638D02*
X010927Y009188D01*
X011152Y009188D01*
X009452Y009138D02*
X008850Y009138D01*
X007652Y008038D02*
X007354Y008336D01*
X007354Y009138D01*
X007354Y009238D01*
X006952Y009238D01*
X012852Y009188D02*
X013052Y009388D01*
X013052Y009838D01*
X018502Y011888D02*
X018652Y012038D01*
X005902Y022788D02*
X005652Y023038D01*
X004902Y023288D02*
X004652Y023038D01*
D30*
X007252Y021038D03*
X008602Y017238D03*
X008752Y016388D03*
X008452Y014188D03*
X013552Y017488D03*
X011552Y021138D03*
X011252Y021088D03*
X017552Y022088D03*
X014202Y010138D03*
D31*
X013727Y010626D02*
X013727Y011113D01*
X013852Y011238D01*
X016247Y010626D02*
X016342Y010722D01*
X016342Y010878D01*
X015932Y014968D02*
X015932Y015193D01*
X016247Y015193D02*
X016247Y015288D01*
X016352Y015288D01*
X015302Y015193D02*
X015302Y015489D01*
X015252Y015538D01*
X014987Y015193D02*
X014987Y014923D01*
X014952Y014888D01*
X014357Y015193D02*
X014352Y015193D01*
X014352Y015488D01*
X014052Y015438D02*
X014052Y015193D01*
X014042Y015193D01*
X013097Y015193D02*
X013097Y015433D01*
X012467Y015193D02*
X012467Y014923D01*
X012502Y014888D01*
X011523Y014759D02*
X011523Y015193D01*
X011523Y014759D02*
X011502Y014738D01*
X010578Y014964D02*
X010578Y015193D01*
X009948Y015193D02*
X009948Y014934D01*
X009802Y014788D01*
X009633Y014969D02*
X009633Y015193D01*
X009633Y014969D02*
X009552Y014888D01*
X009318Y015193D02*
X009318Y015504D01*
X008702Y015588D02*
X008688Y015574D01*
X008688Y015193D01*
X008373Y015193D02*
X008373Y015559D01*
X008402Y015588D01*
X009271Y017519D02*
X009586Y017519D01*
X009900Y017519D01*
X011195Y017637D02*
X011313Y017519D01*
X011475Y017519D01*
X011790Y017519D01*
X012105Y017519D01*
X012105Y018464D02*
X012105Y018621D01*
X012105Y018779D01*
X012105Y019094D01*
X012105Y018621D02*
X012023Y018621D01*
X011790Y020038D02*
X011790Y020117D01*
X011869Y020117D01*
X011908Y020117D01*
X011475Y020350D02*
X011472Y020353D01*
X011160Y020353D01*
X010845Y020353D02*
X010845Y020626D01*
X010885Y020626D01*
X010845Y020626D02*
X010530Y020626D01*
X010530Y021026D02*
X010318Y021238D01*
X010152Y021238D01*
X010885Y021026D02*
X010921Y021026D01*
X011042Y020905D01*
X011790Y020668D02*
X011889Y020668D01*
X012002Y020782D01*
D32*
X012052Y021288D03*
X011852Y021288D03*
X010563Y021688D03*
X009152Y021588D03*
X008502Y020488D03*
X007152Y020188D03*
X006902Y020188D03*
X006752Y018388D03*
X006752Y018138D03*
X006752Y017888D03*
X007002Y017888D03*
X008702Y015838D03*
X008702Y015588D03*
X009002Y015888D03*
X009552Y015738D03*
X009802Y014788D03*
X009552Y014388D03*
X009152Y014438D03*
X009152Y014738D03*
X009152Y014038D03*
X009352Y013488D03*
X009652Y013538D03*
X010052Y013788D03*
X010402Y013888D03*
X010602Y014288D03*
X010802Y014088D03*
X011102Y013738D03*
X011602Y013738D03*
X011852Y014038D03*
X012102Y014038D03*
X012352Y014038D03*
X011977Y014613D03*
X011502Y014738D03*
X010802Y014488D03*
X010652Y014738D03*
X010102Y014288D03*
X007802Y015388D03*
X007502Y015388D03*
X007127Y015463D03*
X007127Y015213D03*
X012802Y014738D03*
X013052Y014738D03*
X013252Y014588D03*
X014452Y014488D03*
X014702Y014388D03*
X014902Y014038D03*
X015152Y014038D03*
X015302Y013838D03*
X015102Y014288D03*
X015652Y014688D03*
X017152Y015738D03*
X017452Y015488D03*
X017502Y015888D03*
X017452Y016188D03*
X017152Y016338D03*
X017602Y014338D03*
X017402Y012538D03*
X017602Y012238D03*
X008602Y023038D03*
X008602Y023288D03*
X008252Y022888D03*
D33*
X010488Y019448D02*
X010530Y019405D01*
X010530Y019094D01*
X010885Y018232D02*
X010968Y018149D01*
X011160Y018149D01*
X011790Y018106D02*
X011833Y018149D01*
X011790Y018106D02*
X011790Y017834D01*
X013050Y017519D02*
X013080Y017488D01*
X013365Y017834D02*
X013848Y017834D01*
X013902Y017888D01*
X012689Y020786D02*
X012689Y020788D01*
X012692Y020788D01*
X011002Y015938D02*
X010752Y015938D01*
X011002Y015938D02*
X011002Y015888D01*
X011002Y015588D01*
X010893Y015479D01*
X010893Y015193D01*
X012782Y010205D02*
X014135Y010205D01*
X014202Y010138D01*
X015617Y010224D02*
X015652Y010188D01*
X015652Y009688D01*
X015652Y010188D02*
X016202Y010188D01*
X016247Y010233D01*
X016247Y010626D01*
X015617Y010626D02*
X015617Y010224D01*
X017152Y016688D02*
X017352Y016688D01*
X017502Y016838D01*
D34*
X016402Y011438D02*
X016342Y011378D01*
X016342Y010878D01*
D35*
X012105Y020117D02*
X012066Y020117D01*
X012105Y020117D02*
X012105Y020353D01*
X013050Y020668D02*
X013286Y020668D01*
X013352Y020668D01*
X013352Y020638D01*
D36*
X007802Y015388D02*
X006697Y014283D01*
X006697Y012833D01*
X005902Y012038D01*
X005802Y012488D02*
X006182Y012488D01*
X006577Y012883D01*
X006577Y014333D01*
X007502Y015258D01*
X007502Y015388D01*
X005652Y012738D02*
X005652Y012638D01*
X005802Y012488D01*
M02*
