G75*
G70*
%OFA0B0*%
%FSLAX24Y24*%
%IPPOS*%
%LPD*%
%AMOC8*
5,1,8,0,0,1.08239X$1,22.5*
%
%ADD10R,0.0240X0.0230*%
%ADD11R,0.0400X0.0400*%
%ADD12R,0.0230X0.0240*%
%ADD13R,0.0157X0.0551*%
%ADD14R,0.0236X0.0866*%
%ADD15R,0.0394X0.0551*%
%ADD16R,0.0900X0.0800*%
D10*
X007552Y009988D03*
X007952Y009988D03*
X012252Y009988D03*
X012652Y009988D03*
X014002Y017538D03*
X014002Y017888D03*
X014002Y018238D03*
X014002Y018588D03*
X014002Y018938D03*
X014402Y018938D03*
X014402Y018588D03*
X014402Y018238D03*
X014402Y017888D03*
X014402Y017538D03*
X012699Y018090D03*
X012299Y018090D03*
X011833Y018149D03*
X011433Y018149D03*
X012023Y018621D03*
X012423Y018621D03*
X011774Y019094D03*
X012063Y019448D03*
X012463Y019448D03*
X013252Y020038D03*
X013652Y020038D03*
X013752Y020638D03*
X013352Y020638D03*
X011374Y019094D03*
X010888Y019448D03*
X010488Y019448D03*
X008302Y017742D03*
X007902Y017742D03*
D11*
X008202Y017238D03*
X008202Y016638D03*
X008202Y016038D03*
X007502Y016038D03*
X007502Y016638D03*
X007502Y017238D03*
X007502Y018938D03*
X007502Y019538D03*
X008202Y019538D03*
X008202Y018938D03*
X008252Y020688D03*
X007552Y020688D03*
X009452Y022838D03*
X009452Y023538D03*
X009452Y024138D03*
X009452Y024838D03*
X008102Y025188D03*
X007402Y025188D03*
X012066Y020782D03*
X012066Y020082D03*
X012692Y020788D03*
X013302Y021138D03*
X012692Y021488D03*
X014002Y021138D03*
X013404Y019483D03*
X013404Y018783D03*
X013502Y017038D03*
X012802Y017038D03*
X011702Y015888D03*
X011002Y015888D03*
X011195Y017637D03*
X010885Y018232D03*
X010885Y018932D03*
X010495Y017637D03*
X007352Y014338D03*
X007352Y013638D03*
X015652Y009688D03*
X015652Y008988D03*
X017052Y011188D03*
X017652Y011188D03*
X017652Y011888D03*
X017052Y011888D03*
X017152Y016688D03*
X017152Y017288D03*
X017152Y017888D03*
X017152Y018488D03*
X017152Y019088D03*
X017152Y019688D03*
X017152Y020338D03*
X017152Y020938D03*
X017152Y021538D03*
X017152Y022138D03*
X016452Y022138D03*
X016452Y021538D03*
X016452Y020938D03*
X016452Y020338D03*
X016452Y019688D03*
X016452Y019088D03*
X016452Y018488D03*
X016452Y017888D03*
X016452Y017288D03*
X016452Y016688D03*
D12*
X011475Y020350D03*
X011475Y020750D03*
X010885Y020626D03*
X010530Y020626D03*
X010530Y021026D03*
X010885Y021026D03*
X010255Y018516D03*
X010255Y018116D03*
X006952Y019188D03*
X006952Y019588D03*
X006952Y016538D03*
X006952Y016138D03*
X008852Y025038D03*
X008852Y025438D03*
D13*
X009003Y015193D03*
X009318Y015193D03*
X009633Y015193D03*
X009948Y015193D03*
X010263Y015193D03*
X010578Y015193D03*
X010893Y015193D03*
X011208Y015193D03*
X011523Y015193D03*
X011837Y015193D03*
X012152Y015193D03*
X012467Y015193D03*
X012782Y015193D03*
X013097Y015193D03*
X013412Y015193D03*
X013727Y015193D03*
X014042Y015193D03*
X014357Y015193D03*
X014672Y015193D03*
X014987Y015193D03*
X015302Y015193D03*
X015617Y015193D03*
X015932Y015193D03*
X016247Y015193D03*
X016247Y010626D03*
X015932Y010626D03*
X015617Y010626D03*
X015302Y010626D03*
X014987Y010626D03*
X014672Y010626D03*
X014357Y010626D03*
X014042Y010626D03*
X013727Y010626D03*
X013412Y010626D03*
X013097Y010626D03*
X012782Y010626D03*
X012467Y010626D03*
X012152Y010626D03*
X011837Y010626D03*
X011523Y010626D03*
X011208Y010626D03*
X010893Y010626D03*
X010578Y010626D03*
X010263Y010626D03*
X009948Y010626D03*
X009633Y010626D03*
X009318Y010626D03*
X009003Y010626D03*
X008688Y010626D03*
X008373Y010626D03*
X008058Y010626D03*
X008058Y015193D03*
X008373Y015193D03*
X008688Y015193D03*
D14*
X008502Y021610D03*
X008002Y021610D03*
X007502Y021610D03*
X007002Y021610D03*
X007002Y024366D03*
X007502Y024366D03*
X008002Y024366D03*
X008502Y024366D03*
D15*
X007354Y009138D03*
X008850Y009138D03*
D16*
X011152Y009188D03*
X012852Y009188D03*
M02*
