G75*
G70*
%OFA0B0*%
%FSLAX24Y24*%
%IPPOS*%
%LPD*%
%AMOC8*
5,1,8,0,0,1.08239X$1,22.5*
%
%ADD10C,0.0080*%
%ADD11C,0.0060*%
%ADD12C,0.0100*%
%ADD13R,0.1800X0.0300*%
%ADD14C,0.0200*%
%ADD15C,0.0140*%
%ADD16C,0.0240*%
%ADD17C,0.0120*%
%ADD18C,0.0220*%
%ADD19C,0.0260*%
%ADD20R,0.0197X0.0709*%
%ADD21C,0.0079*%
D10*
X004549Y008728D02*
X004762Y008728D01*
X004656Y008728D02*
X004656Y009049D01*
X004762Y008942D01*
X007142Y012324D02*
X007463Y012324D01*
X007463Y012484D01*
X007409Y012537D01*
X007303Y012537D01*
X007249Y012484D01*
X007249Y012324D01*
X007249Y012430D02*
X007142Y012537D01*
X007142Y012692D02*
X007356Y012905D01*
X007409Y012905D01*
X007463Y012852D01*
X007463Y012745D01*
X007409Y012692D01*
X007142Y012692D02*
X007142Y012905D01*
X007196Y013060D02*
X007249Y013060D01*
X007303Y013113D01*
X007303Y013220D01*
X007249Y013274D01*
X007196Y013274D01*
X007142Y013220D01*
X007142Y013113D01*
X007196Y013060D01*
X007303Y013113D02*
X007356Y013060D01*
X007409Y013060D01*
X007463Y013113D01*
X007463Y013220D01*
X007409Y013274D01*
X007356Y013274D01*
X007303Y013220D01*
X006663Y014578D02*
X006342Y014578D01*
X006342Y014792D01*
X006342Y014947D02*
X006663Y015160D01*
X006663Y015315D02*
X006663Y015529D01*
X006663Y015422D02*
X006342Y015422D01*
X006342Y015683D02*
X006342Y015897D01*
X006342Y015790D02*
X006663Y015790D01*
X006556Y015683D01*
X006496Y016128D02*
X006442Y016182D01*
X006442Y016289D01*
X006496Y016342D01*
X006496Y016497D02*
X006442Y016550D01*
X006442Y016657D01*
X006496Y016710D01*
X006603Y016710D01*
X006656Y016657D01*
X006656Y016603D01*
X006603Y016497D01*
X006763Y016497D01*
X006763Y016710D01*
X006603Y016865D02*
X006603Y017079D01*
X006763Y017025D02*
X006603Y016865D01*
X006442Y017025D02*
X006763Y017025D01*
X006709Y016342D02*
X006763Y016289D01*
X006763Y016182D01*
X006709Y016128D01*
X006496Y016128D01*
X006342Y015160D02*
X006663Y014947D01*
X006663Y014792D02*
X006663Y014578D01*
X006503Y014578D02*
X006503Y014685D01*
X008467Y017028D02*
X008681Y017028D01*
X008467Y017242D01*
X008467Y017295D01*
X008521Y017349D01*
X008627Y017349D01*
X008681Y017295D01*
X008942Y017349D02*
X008942Y017028D01*
X008836Y017028D02*
X009049Y017028D01*
X009204Y017028D02*
X009311Y017135D01*
X009257Y017135D02*
X009417Y017135D01*
X009417Y017028D02*
X009417Y017349D01*
X009257Y017349D01*
X009204Y017295D01*
X009204Y017189D01*
X009257Y017135D01*
X009049Y017242D02*
X008942Y017349D01*
X008939Y016799D02*
X008886Y016745D01*
X008886Y016692D01*
X008939Y016639D01*
X008886Y016585D01*
X008886Y016532D01*
X008939Y016478D01*
X009046Y016478D01*
X009099Y016532D01*
X008992Y016639D02*
X008939Y016639D01*
X008939Y016799D02*
X009046Y016799D01*
X009099Y016745D01*
X009254Y016745D02*
X009254Y016639D01*
X009307Y016585D01*
X009467Y016585D01*
X009361Y016585D02*
X009254Y016478D01*
X009467Y016478D02*
X009467Y016799D01*
X009307Y016799D01*
X009254Y016745D01*
X009307Y016199D02*
X009254Y016145D01*
X009254Y016039D01*
X009307Y015985D01*
X009467Y015985D01*
X009361Y015985D02*
X009254Y015878D01*
X009099Y015932D02*
X009046Y015878D01*
X008939Y015878D01*
X008886Y015932D01*
X008886Y015985D01*
X008939Y016039D01*
X008992Y016039D01*
X008939Y016039D02*
X008886Y016092D01*
X008886Y016145D01*
X008939Y016199D01*
X009046Y016199D01*
X009099Y016145D01*
X009307Y016199D02*
X009467Y016199D01*
X009467Y015878D01*
X009712Y015889D02*
X009712Y015782D01*
X009766Y015728D01*
X009872Y015728D01*
X009926Y015782D01*
X009926Y015889D02*
X009819Y015942D01*
X009766Y015942D01*
X009712Y015889D01*
X009712Y016049D02*
X009926Y016049D01*
X009926Y015889D01*
X010081Y015728D02*
X010294Y015728D01*
X010187Y015728D02*
X010187Y016049D01*
X010294Y015942D01*
X010449Y015995D02*
X010449Y015889D01*
X010502Y015835D01*
X010662Y015835D01*
X010556Y015835D02*
X010449Y015728D01*
X010662Y015728D02*
X010662Y016049D01*
X010502Y016049D01*
X010449Y015995D01*
X010469Y017027D02*
X010255Y017027D01*
X010255Y017240D02*
X010255Y017294D01*
X010309Y017347D01*
X010415Y017347D01*
X010469Y017294D01*
X010255Y017240D02*
X010469Y017027D01*
X010624Y017027D02*
X010837Y017027D01*
X010730Y017027D02*
X010730Y017347D01*
X010837Y017240D01*
X010992Y017294D02*
X011045Y017347D01*
X011152Y017347D01*
X011205Y017294D01*
X011205Y017080D01*
X011152Y017027D01*
X011045Y017027D01*
X010992Y017080D01*
X010487Y018824D02*
X010380Y018824D01*
X010327Y018877D01*
X010172Y018824D02*
X009959Y018824D01*
X010065Y018824D02*
X010065Y019144D01*
X010172Y019038D01*
X010327Y019091D02*
X010380Y019144D01*
X010487Y019144D01*
X010540Y019091D01*
X010540Y018877D01*
X010487Y018824D01*
X009804Y018877D02*
X009750Y018824D01*
X009644Y018824D01*
X009590Y018877D01*
X009590Y018931D01*
X009644Y018984D01*
X009804Y018984D01*
X009804Y018877D01*
X009804Y018984D02*
X009697Y019091D01*
X009590Y019144D01*
X008367Y018649D02*
X008367Y018328D01*
X008367Y018435D02*
X008207Y018435D01*
X008154Y018489D01*
X008154Y018595D01*
X008207Y018649D01*
X008367Y018649D01*
X008261Y018435D02*
X008154Y018328D01*
X007999Y018382D02*
X007946Y018328D01*
X007839Y018328D01*
X007786Y018382D01*
X007786Y018435D01*
X007839Y018489D01*
X007892Y018489D01*
X007839Y018489D02*
X007786Y018542D01*
X007786Y018595D01*
X007839Y018649D01*
X007946Y018649D01*
X007999Y018595D01*
X007631Y018595D02*
X007631Y018542D01*
X007577Y018489D01*
X007471Y018489D01*
X007417Y018435D01*
X007417Y018382D01*
X007471Y018328D01*
X007577Y018328D01*
X007631Y018382D01*
X007631Y018435D01*
X007577Y018489D01*
X007471Y018489D02*
X007417Y018542D01*
X007417Y018595D01*
X007471Y018649D01*
X007577Y018649D01*
X007631Y018595D01*
X007574Y017988D02*
X007467Y017988D01*
X007414Y017935D01*
X007259Y017881D02*
X007152Y017988D01*
X007152Y017668D01*
X007046Y017668D02*
X007259Y017668D01*
X007414Y017721D02*
X007467Y017668D01*
X007574Y017668D01*
X007627Y017721D01*
X007627Y017935D01*
X007574Y017988D01*
X006659Y018928D02*
X006446Y018928D01*
X006392Y018982D01*
X006392Y019089D01*
X006446Y019142D01*
X006446Y019297D02*
X006392Y019350D01*
X006392Y019457D01*
X006446Y019510D01*
X006553Y019510D01*
X006606Y019457D01*
X006606Y019403D01*
X006553Y019297D01*
X006713Y019297D01*
X006713Y019510D01*
X006713Y019665D02*
X006713Y019879D01*
X006659Y019879D01*
X006446Y019665D01*
X006392Y019665D01*
X006659Y019142D02*
X006713Y019089D01*
X006713Y018982D01*
X006659Y018928D01*
X007526Y019878D02*
X007526Y019932D01*
X007312Y020145D01*
X007312Y020199D01*
X007526Y020199D01*
X007681Y020145D02*
X007681Y020092D01*
X007734Y020039D01*
X007681Y019985D01*
X007681Y019932D01*
X007734Y019878D01*
X007841Y019878D01*
X007894Y019932D01*
X007787Y020039D02*
X007734Y020039D01*
X007681Y020145D02*
X007734Y020199D01*
X007841Y020199D01*
X007894Y020145D01*
X008049Y020145D02*
X008049Y020039D01*
X008102Y019985D01*
X008262Y019985D01*
X008156Y019985D02*
X008049Y019878D01*
X008262Y019878D02*
X008262Y020199D01*
X008102Y020199D01*
X008049Y020145D01*
X007262Y020528D02*
X007262Y020849D01*
X007102Y020849D01*
X007049Y020795D01*
X007049Y020689D01*
X007102Y020635D01*
X007262Y020635D01*
X007156Y020635D02*
X007049Y020528D01*
X006894Y020528D02*
X006681Y020742D01*
X006681Y020795D01*
X006734Y020849D01*
X006841Y020849D01*
X006894Y020795D01*
X006894Y020528D02*
X006681Y020528D01*
X006526Y020582D02*
X006312Y020795D01*
X006312Y020582D01*
X006366Y020528D01*
X006472Y020528D01*
X006526Y020582D01*
X006526Y020795D01*
X006472Y020849D01*
X006366Y020849D01*
X006312Y020795D01*
X009042Y021982D02*
X009042Y022089D01*
X009096Y022142D01*
X009363Y022142D01*
X009309Y022297D02*
X009363Y022350D01*
X009363Y022457D01*
X009309Y022510D01*
X009256Y022510D01*
X009203Y022457D01*
X009149Y022510D01*
X009096Y022510D01*
X009042Y022457D01*
X009042Y022350D01*
X009096Y022297D01*
X009203Y022403D02*
X009203Y022457D01*
X009042Y021982D02*
X009096Y021928D01*
X009363Y021928D01*
X009460Y021799D02*
X009673Y021799D01*
X009673Y021478D01*
X009460Y021478D01*
X009567Y021639D02*
X009673Y021639D01*
X009828Y021585D02*
X009935Y021478D01*
X010042Y021585D01*
X010042Y021799D01*
X010196Y021745D02*
X010250Y021799D01*
X010357Y021799D01*
X010410Y021745D01*
X010196Y021745D02*
X010196Y021692D01*
X010410Y021478D01*
X010196Y021478D01*
X009828Y021585D02*
X009828Y021799D01*
X010541Y021532D02*
X010541Y021478D01*
X010594Y021478D01*
X010594Y021532D01*
X010541Y021532D01*
X010749Y021478D02*
X010962Y021478D01*
X010856Y021478D02*
X010856Y021799D01*
X010962Y021692D01*
X011942Y021607D02*
X011942Y021500D01*
X011996Y021447D01*
X012103Y021553D02*
X012103Y021607D01*
X012049Y021660D01*
X011996Y021660D01*
X011942Y021607D01*
X012103Y021607D02*
X012156Y021660D01*
X012209Y021660D01*
X012263Y021607D01*
X012263Y021500D01*
X012209Y021447D01*
X012209Y021292D02*
X012263Y021239D01*
X012263Y021132D01*
X012209Y021078D01*
X011996Y021078D01*
X011942Y021132D01*
X011942Y021239D01*
X011996Y021292D01*
X011996Y021815D02*
X012209Y022029D01*
X011996Y022029D01*
X011942Y021975D01*
X011942Y021868D01*
X011996Y021815D01*
X012209Y021815D01*
X012263Y021868D01*
X012263Y021975D01*
X012209Y022029D01*
X012542Y021989D02*
X012596Y022042D01*
X012542Y021989D02*
X012542Y021882D01*
X012596Y021828D01*
X012809Y021828D01*
X012863Y021882D01*
X012863Y021989D01*
X012809Y022042D01*
X012756Y022197D02*
X012863Y022303D01*
X012542Y022303D01*
X012542Y022197D02*
X012542Y022410D01*
X012703Y022565D02*
X012703Y022779D01*
X012863Y022725D02*
X012703Y022565D01*
X012542Y022725D02*
X012863Y022725D01*
X013162Y021749D02*
X013269Y021695D01*
X013376Y021589D01*
X013216Y021589D01*
X013162Y021535D01*
X013162Y021482D01*
X013216Y021428D01*
X013322Y021428D01*
X013376Y021482D01*
X013376Y021589D01*
X013531Y021642D02*
X013584Y021589D01*
X013531Y021535D01*
X013531Y021482D01*
X013584Y021428D01*
X013691Y021428D01*
X013744Y021482D01*
X013637Y021589D02*
X013584Y021589D01*
X013531Y021642D02*
X013531Y021695D01*
X013584Y021749D01*
X013691Y021749D01*
X013744Y021695D01*
X013899Y021695D02*
X013952Y021749D01*
X014059Y021749D01*
X014112Y021695D01*
X014112Y021482D01*
X014059Y021428D01*
X013952Y021428D01*
X013899Y021482D01*
X015162Y021432D02*
X015216Y021378D01*
X015322Y021378D01*
X015376Y021432D01*
X015162Y021645D01*
X015162Y021432D01*
X015162Y021645D02*
X015216Y021699D01*
X015322Y021699D01*
X015376Y021645D01*
X015376Y021432D01*
X015531Y021378D02*
X015744Y021378D01*
X015637Y021378D02*
X015637Y021699D01*
X015744Y021592D01*
X015899Y021645D02*
X015899Y021539D01*
X015952Y021485D01*
X016112Y021485D01*
X016006Y021485D02*
X015899Y021378D01*
X016112Y021378D02*
X016112Y021699D01*
X015952Y021699D01*
X015899Y021645D01*
X015899Y021978D02*
X016006Y022085D01*
X015952Y022085D02*
X016112Y022085D01*
X016112Y021978D02*
X016112Y022299D01*
X015952Y022299D01*
X015899Y022245D01*
X015899Y022139D01*
X015952Y022085D01*
X015744Y021978D02*
X015531Y021978D01*
X015637Y021978D02*
X015637Y022299D01*
X015744Y022192D01*
X015376Y022192D02*
X015269Y022299D01*
X015269Y021978D01*
X015376Y021978D02*
X015162Y021978D01*
X015266Y021149D02*
X015212Y021095D01*
X015212Y021042D01*
X015266Y020989D01*
X015212Y020935D01*
X015212Y020882D01*
X015266Y020828D01*
X015372Y020828D01*
X015426Y020882D01*
X015319Y020989D02*
X015266Y020989D01*
X015266Y021149D02*
X015372Y021149D01*
X015426Y021095D01*
X015687Y021149D02*
X015687Y020828D01*
X015581Y020828D02*
X015794Y020828D01*
X015949Y020828D02*
X016056Y020935D01*
X016002Y020935D02*
X016162Y020935D01*
X016162Y020828D02*
X016162Y021149D01*
X016002Y021149D01*
X015949Y021095D01*
X015949Y020989D01*
X016002Y020935D01*
X015794Y021042D02*
X015687Y021149D01*
X017471Y020499D02*
X017471Y020178D01*
X017417Y020339D02*
X017631Y020339D01*
X017471Y020499D01*
X017786Y020445D02*
X017786Y020339D01*
X017839Y020285D01*
X017999Y020285D01*
X017999Y020178D02*
X017999Y020499D01*
X017839Y020499D01*
X017786Y020445D01*
X017892Y020285D02*
X017786Y020178D01*
X017839Y019849D02*
X017786Y019795D01*
X017786Y019689D01*
X017839Y019635D01*
X017999Y019635D01*
X017999Y019528D02*
X017999Y019849D01*
X017839Y019849D01*
X017631Y019849D02*
X017631Y019689D01*
X017524Y019742D01*
X017471Y019742D01*
X017417Y019689D01*
X017417Y019582D01*
X017471Y019528D01*
X017577Y019528D01*
X017631Y019582D01*
X017786Y019528D02*
X017892Y019635D01*
X017631Y019849D02*
X017417Y019849D01*
X017471Y019249D02*
X017417Y019195D01*
X017417Y019142D01*
X017471Y019089D01*
X017577Y019089D01*
X017631Y019142D01*
X017631Y019195D01*
X017577Y019249D01*
X017471Y019249D01*
X017471Y019089D02*
X017417Y019035D01*
X017417Y018982D01*
X017471Y018928D01*
X017577Y018928D01*
X017631Y018982D01*
X017631Y019035D01*
X017577Y019089D01*
X017786Y019089D02*
X017839Y019035D01*
X017999Y019035D01*
X017999Y018928D02*
X017999Y019249D01*
X017839Y019249D01*
X017786Y019195D01*
X017786Y019089D01*
X017892Y019035D02*
X017786Y018928D01*
X017839Y018649D02*
X017786Y018595D01*
X017786Y018489D01*
X017839Y018435D01*
X017999Y018435D01*
X017999Y018328D02*
X017999Y018649D01*
X017839Y018649D01*
X017631Y018595D02*
X017631Y018542D01*
X017577Y018489D01*
X017417Y018489D01*
X017417Y018595D02*
X017471Y018649D01*
X017577Y018649D01*
X017631Y018595D01*
X017631Y018382D02*
X017577Y018328D01*
X017471Y018328D01*
X017417Y018382D01*
X017417Y018595D01*
X017786Y018328D02*
X017892Y018435D01*
X017839Y018049D02*
X017786Y017995D01*
X017786Y017889D01*
X017839Y017835D01*
X017999Y017835D01*
X017999Y017728D02*
X017999Y018049D01*
X017839Y018049D01*
X017892Y017835D02*
X017786Y017728D01*
X017631Y017782D02*
X017631Y017889D01*
X017471Y017889D01*
X017417Y017835D01*
X017417Y017782D01*
X017471Y017728D01*
X017577Y017728D01*
X017631Y017782D01*
X017631Y017889D02*
X017524Y017995D01*
X017417Y018049D01*
X017417Y017449D02*
X017417Y017395D01*
X017631Y017182D01*
X017631Y017128D01*
X017786Y017128D02*
X017892Y017235D01*
X017839Y017235D02*
X017999Y017235D01*
X017999Y017128D02*
X017999Y017449D01*
X017839Y017449D01*
X017786Y017395D01*
X017786Y017289D01*
X017839Y017235D01*
X017631Y017449D02*
X017417Y017449D01*
X016112Y016799D02*
X016112Y016478D01*
X016112Y016585D02*
X015952Y016585D01*
X015899Y016639D01*
X015899Y016745D01*
X015952Y016799D01*
X016112Y016799D01*
X016006Y016585D02*
X015899Y016478D01*
X015744Y016639D02*
X015531Y016639D01*
X015584Y016799D02*
X015584Y016478D01*
X015376Y016478D02*
X015162Y016692D01*
X015162Y016745D01*
X015216Y016799D01*
X015322Y016799D01*
X015376Y016745D01*
X015584Y016799D02*
X015744Y016639D01*
X015376Y016478D02*
X015162Y016478D01*
X013617Y016432D02*
X013564Y016378D01*
X013457Y016378D01*
X013404Y016432D01*
X013249Y016432D02*
X013196Y016378D01*
X013089Y016378D01*
X013036Y016432D01*
X013036Y016485D01*
X013089Y016539D01*
X013142Y016539D01*
X013089Y016539D02*
X013036Y016592D01*
X013036Y016645D01*
X013089Y016699D01*
X013196Y016699D01*
X013249Y016645D01*
X013404Y016645D02*
X013457Y016699D01*
X013564Y016699D01*
X013617Y016645D01*
X013617Y016432D01*
X012881Y016432D02*
X012827Y016378D01*
X012721Y016378D01*
X012667Y016432D01*
X012667Y016645D01*
X012721Y016699D01*
X012827Y016699D01*
X012881Y016645D01*
X012881Y016592D01*
X012827Y016539D01*
X012667Y016539D01*
X013248Y017518D02*
X013194Y017571D01*
X013194Y017678D01*
X013248Y017731D01*
X013248Y017886D02*
X013194Y017940D01*
X013194Y018046D01*
X013248Y018100D01*
X013301Y018100D01*
X013355Y018046D01*
X013355Y017993D01*
X013355Y018046D02*
X013408Y018100D01*
X013461Y018100D01*
X013515Y018046D01*
X013515Y017940D01*
X013461Y017886D01*
X013461Y017731D02*
X013515Y017678D01*
X013515Y017571D01*
X013461Y017518D01*
X013248Y017518D01*
X013248Y018255D02*
X013301Y018255D01*
X013355Y018308D01*
X013355Y018415D01*
X013301Y018468D01*
X013248Y018468D01*
X013194Y018415D01*
X013194Y018308D01*
X013248Y018255D01*
X013355Y018308D02*
X013408Y018255D01*
X013461Y018255D01*
X013515Y018308D01*
X013515Y018415D01*
X013461Y018468D01*
X013408Y018468D01*
X013355Y018415D01*
X010767Y023028D02*
X010767Y023349D01*
X010607Y023349D01*
X010554Y023295D01*
X010554Y023189D01*
X010607Y023135D01*
X010767Y023135D01*
X010661Y023135D02*
X010554Y023028D01*
X010399Y023028D02*
X010186Y023028D01*
X010292Y023028D02*
X010292Y023349D01*
X010399Y023242D01*
X010031Y023349D02*
X009817Y023349D01*
X009817Y023295D01*
X010031Y023082D01*
X010031Y023028D01*
X009977Y024328D02*
X009871Y024328D01*
X009817Y024382D01*
X009817Y024435D01*
X009871Y024489D01*
X009977Y024489D01*
X010031Y024542D01*
X010031Y024595D01*
X009977Y024649D01*
X009871Y024649D01*
X009817Y024595D01*
X009817Y024542D01*
X009871Y024489D01*
X009977Y024489D02*
X010031Y024435D01*
X010031Y024382D01*
X009977Y024328D01*
X010186Y024328D02*
X010399Y024328D01*
X010292Y024328D02*
X010292Y024649D01*
X010399Y024542D01*
X010554Y024595D02*
X010554Y024489D01*
X010607Y024435D01*
X010767Y024435D01*
X010661Y024435D02*
X010554Y024328D01*
X010767Y024328D02*
X010767Y024649D01*
X010607Y024649D01*
X010554Y024595D01*
X009312Y025732D02*
X009259Y025678D01*
X009152Y025678D01*
X009099Y025732D01*
X008944Y025678D02*
X008731Y025678D01*
X008837Y025678D02*
X008837Y025999D01*
X008944Y025892D01*
X009099Y025945D02*
X009152Y025999D01*
X009259Y025999D01*
X009312Y025945D01*
X009312Y025732D01*
X008576Y025678D02*
X008362Y025678D01*
X008469Y025678D02*
X008469Y025999D01*
X008576Y025892D01*
X007112Y025249D02*
X007112Y024928D01*
X007112Y025035D02*
X006952Y025035D01*
X006899Y025089D01*
X006899Y025195D01*
X006952Y025249D01*
X007112Y025249D01*
X007006Y025035D02*
X006899Y024928D01*
X006744Y024928D02*
X006531Y024928D01*
X006637Y024928D02*
X006637Y025249D01*
X006744Y025142D01*
X006376Y025089D02*
X006216Y025089D01*
X006162Y025035D01*
X006162Y024982D01*
X006216Y024928D01*
X006322Y024928D01*
X006376Y024982D01*
X006376Y025089D01*
X006269Y025195D01*
X006162Y025249D01*
X008624Y016799D02*
X008624Y016478D01*
X008731Y016478D02*
X008517Y016478D01*
X008571Y016199D02*
X008677Y016199D01*
X008731Y016145D01*
X008571Y016199D02*
X008517Y016145D01*
X008517Y016092D01*
X008731Y015878D01*
X008517Y015878D01*
X008731Y016692D02*
X008624Y016799D01*
X008589Y010199D02*
X008696Y010199D01*
X008749Y010145D01*
X008749Y009932D01*
X008696Y009878D01*
X008589Y009878D01*
X008536Y009932D01*
X008381Y009932D02*
X008381Y009878D01*
X008381Y009932D02*
X008167Y010145D01*
X008167Y010199D01*
X008381Y010199D01*
X008536Y010145D02*
X008589Y010199D01*
X009274Y009299D02*
X009274Y008978D01*
X009381Y008978D02*
X009167Y008978D01*
X009381Y009192D02*
X009274Y009299D01*
X009536Y009299D02*
X009536Y009245D01*
X009749Y009032D01*
X009749Y008978D01*
X009536Y008978D01*
X009536Y009299D02*
X009749Y009299D01*
X010031Y009245D02*
X010031Y009192D01*
X010244Y008978D01*
X010031Y008978D01*
X010031Y009245D02*
X010084Y009299D01*
X010191Y009299D01*
X010244Y009245D01*
X010399Y009245D02*
X010612Y009032D01*
X010612Y008978D01*
X010399Y008978D01*
X010399Y009245D02*
X010399Y009299D01*
X010612Y009299D01*
X013544Y008995D02*
X013544Y008942D01*
X013597Y008889D01*
X013544Y008835D01*
X013544Y008782D01*
X013597Y008728D01*
X013704Y008728D01*
X013758Y008782D01*
X013651Y008889D02*
X013597Y008889D01*
X013544Y008995D02*
X013597Y009049D01*
X013704Y009049D01*
X013758Y008995D01*
X013912Y009049D02*
X014126Y009049D01*
X014019Y009049D02*
X014019Y008728D01*
X014281Y008728D02*
X014494Y009049D01*
X014649Y009049D02*
X014862Y009049D01*
X014862Y008728D01*
X014649Y008728D01*
X014494Y008728D02*
X014281Y009049D01*
X014756Y008889D02*
X014862Y008889D01*
X016017Y009232D02*
X016071Y009178D01*
X016177Y009178D01*
X016231Y009232D01*
X016017Y009445D01*
X016017Y009232D01*
X016017Y009445D02*
X016071Y009499D01*
X016177Y009499D01*
X016231Y009445D01*
X016231Y009232D01*
X016386Y009232D02*
X016439Y009178D01*
X016546Y009178D01*
X016599Y009232D01*
X016492Y009339D02*
X016439Y009339D01*
X016386Y009285D01*
X016386Y009232D01*
X016439Y009339D02*
X016386Y009392D01*
X016386Y009445D01*
X016439Y009499D01*
X016546Y009499D01*
X016599Y009445D01*
X016754Y009445D02*
X016754Y009339D01*
X016807Y009285D01*
X016967Y009285D01*
X016861Y009285D02*
X016754Y009178D01*
X016967Y009178D02*
X016967Y009499D01*
X016807Y009499D01*
X016754Y009445D01*
X016744Y010228D02*
X016531Y010442D01*
X016531Y010495D01*
X016584Y010549D01*
X016691Y010549D01*
X016744Y010495D01*
X016899Y010549D02*
X016899Y010282D01*
X016952Y010228D01*
X017059Y010228D01*
X017112Y010282D01*
X017112Y010549D01*
X016744Y010228D02*
X016531Y010228D01*
X016842Y012178D02*
X017163Y012178D01*
X017163Y012339D01*
X017109Y012392D01*
X017003Y012392D01*
X016949Y012339D01*
X016949Y012178D01*
X016949Y012285D02*
X016842Y012392D01*
X016842Y012547D02*
X016842Y012760D01*
X016842Y012653D02*
X017163Y012653D01*
X017056Y012547D01*
X017392Y012547D02*
X017392Y012760D01*
X017392Y012547D02*
X017606Y012760D01*
X017659Y012760D01*
X017713Y012707D01*
X017713Y012600D01*
X017659Y012547D01*
X017659Y012392D02*
X017553Y012392D01*
X017499Y012339D01*
X017499Y012178D01*
X017392Y012178D02*
X017713Y012178D01*
X017713Y012339D01*
X017659Y012392D01*
X017499Y012285D02*
X017392Y012392D01*
X017642Y014578D02*
X017642Y014792D01*
X017642Y014947D02*
X017963Y015160D01*
X017963Y015315D02*
X017963Y015529D01*
X017963Y015422D02*
X017642Y015422D01*
X017642Y015683D02*
X017856Y015897D01*
X017909Y015897D01*
X017963Y015843D01*
X017963Y015737D01*
X017909Y015683D01*
X017642Y015683D02*
X017642Y015897D01*
X017642Y015160D02*
X017963Y014947D01*
X017963Y014792D02*
X017963Y014578D01*
X017642Y014578D01*
X017803Y014578D02*
X017803Y014685D01*
D11*
X015311Y017418D02*
X015351Y017458D01*
X015351Y017619D01*
X015311Y017659D01*
X015231Y017659D01*
X015191Y017619D01*
X015075Y017619D02*
X015035Y017659D01*
X014955Y017659D01*
X014915Y017619D01*
X014915Y017579D01*
X015075Y017418D01*
X014915Y017418D01*
X014799Y017458D02*
X014639Y017619D01*
X014639Y017458D01*
X014679Y017418D01*
X014759Y017418D01*
X014799Y017458D01*
X014799Y017619D01*
X014759Y017659D01*
X014679Y017659D01*
X014639Y017619D01*
X014679Y017768D02*
X014639Y017808D01*
X014639Y017848D01*
X014679Y017889D01*
X014799Y017889D01*
X014799Y017808D01*
X014759Y017768D01*
X014679Y017768D01*
X014799Y017889D02*
X014719Y017969D01*
X014639Y018009D01*
X014679Y018118D02*
X014759Y018118D01*
X014799Y018158D01*
X014799Y018198D01*
X014759Y018239D01*
X014679Y018239D01*
X014639Y018198D01*
X014639Y018158D01*
X014679Y018118D01*
X014679Y018239D02*
X014639Y018279D01*
X014639Y018319D01*
X014679Y018359D01*
X014759Y018359D01*
X014799Y018319D01*
X014799Y018279D01*
X014759Y018239D01*
X014915Y018279D02*
X014915Y018319D01*
X014955Y018359D01*
X015035Y018359D01*
X015075Y018319D01*
X015191Y018319D02*
X015231Y018359D01*
X015311Y018359D01*
X015351Y018319D01*
X015351Y018158D01*
X015311Y018118D01*
X015231Y018118D01*
X015191Y018158D01*
X015075Y018118D02*
X014915Y018279D01*
X014915Y018118D02*
X015075Y018118D01*
X015035Y018009D02*
X015075Y017969D01*
X015035Y018009D02*
X014955Y018009D01*
X014915Y017969D01*
X014915Y017929D01*
X015075Y017768D01*
X014915Y017768D01*
X015191Y017808D02*
X015231Y017768D01*
X015311Y017768D01*
X015351Y017808D01*
X015351Y017969D01*
X015311Y018009D01*
X015231Y018009D01*
X015191Y017969D01*
X015191Y018468D02*
X015271Y018548D01*
X015231Y018548D02*
X015351Y018548D01*
X015351Y018468D02*
X015351Y018709D01*
X015231Y018709D01*
X015191Y018669D01*
X015191Y018589D01*
X015231Y018548D01*
X015075Y018468D02*
X014915Y018629D01*
X014915Y018669D01*
X014955Y018709D01*
X015035Y018709D01*
X015075Y018669D01*
X014955Y018818D02*
X014955Y019059D01*
X015075Y018939D01*
X014915Y018939D01*
X014799Y019019D02*
X014759Y019059D01*
X014679Y019059D01*
X014639Y019019D01*
X014639Y018979D01*
X014679Y018939D01*
X014639Y018898D01*
X014639Y018858D01*
X014679Y018818D01*
X014759Y018818D01*
X014799Y018858D01*
X014719Y018939D02*
X014679Y018939D01*
X014639Y018709D02*
X014799Y018709D01*
X014799Y018589D01*
X014719Y018629D01*
X014679Y018629D01*
X014639Y018589D01*
X014639Y018508D01*
X014679Y018468D01*
X014759Y018468D01*
X014799Y018508D01*
X014915Y018468D02*
X015075Y018468D01*
X015231Y018818D02*
X015191Y018858D01*
X015231Y018818D02*
X015311Y018818D01*
X015351Y018858D01*
X015351Y019019D01*
X015311Y019059D01*
X015231Y019059D01*
X015191Y019019D01*
X014711Y019918D02*
X014631Y019918D01*
X014591Y019958D01*
X014711Y019918D02*
X014751Y019958D01*
X014751Y020119D01*
X014711Y020159D01*
X014631Y020159D01*
X014591Y020119D01*
X014475Y020039D02*
X014315Y020039D01*
X014355Y020159D02*
X014355Y019918D01*
X014199Y019918D02*
X014039Y020079D01*
X014039Y020119D01*
X014079Y020159D01*
X014159Y020159D01*
X014199Y020119D01*
X014355Y020159D02*
X014475Y020039D01*
X014199Y019918D02*
X014039Y019918D01*
X014099Y020518D02*
X014099Y020558D01*
X013939Y020719D01*
X013939Y020759D01*
X014099Y020759D01*
X014215Y020719D02*
X014215Y020679D01*
X014255Y020639D01*
X014215Y020598D01*
X014215Y020558D01*
X014255Y020518D01*
X014335Y020518D01*
X014375Y020558D01*
X014295Y020639D02*
X014255Y020639D01*
X014215Y020719D02*
X014255Y020759D01*
X014335Y020759D01*
X014375Y020719D01*
X014491Y020719D02*
X014531Y020759D01*
X014611Y020759D01*
X014651Y020719D01*
X014651Y020558D01*
X014611Y020518D01*
X014531Y020518D01*
X014491Y020558D01*
X013010Y019865D02*
X013010Y019705D01*
X012970Y019665D01*
X012890Y019665D01*
X012850Y019705D01*
X012734Y019665D02*
X012574Y019665D01*
X012654Y019665D02*
X012654Y019905D01*
X012734Y019825D01*
X012850Y019865D02*
X012890Y019905D01*
X012970Y019905D01*
X013010Y019865D01*
X012458Y019865D02*
X012418Y019905D01*
X012338Y019905D01*
X012298Y019865D01*
X012458Y019705D01*
X012418Y019665D01*
X012338Y019665D01*
X012298Y019705D01*
X012298Y019865D01*
X012458Y019865D02*
X012458Y019705D01*
X012516Y019059D02*
X012636Y018939D01*
X012475Y018939D01*
X012359Y018979D02*
X012279Y019059D01*
X012279Y018818D01*
X012359Y018818D02*
X012199Y018818D01*
X012516Y018818D02*
X012516Y019059D01*
X012752Y019019D02*
X012792Y019059D01*
X012872Y019059D01*
X012912Y019019D01*
X012912Y018858D01*
X012872Y018818D01*
X012792Y018818D01*
X012752Y018858D01*
X012333Y017852D02*
X012172Y017692D01*
X012132Y017732D01*
X012132Y017812D01*
X012172Y017852D01*
X012333Y017852D01*
X012373Y017812D01*
X012373Y017732D01*
X012333Y017692D01*
X012172Y017692D01*
X012253Y017576D02*
X012253Y017416D01*
X012373Y017536D01*
X012132Y017536D01*
X012172Y017300D02*
X012132Y017260D01*
X012132Y017180D01*
X012172Y017140D01*
X012333Y017140D01*
X012373Y017180D01*
X012373Y017260D01*
X012333Y017300D01*
X011753Y017301D02*
X011753Y017221D01*
X011713Y017181D01*
X011552Y017181D01*
X011512Y017221D01*
X011512Y017301D01*
X011552Y017341D01*
X011512Y017457D02*
X011512Y017617D01*
X011512Y017537D02*
X011753Y017537D01*
X011672Y017457D01*
X011713Y017341D02*
X011753Y017301D01*
X011713Y017734D02*
X011672Y017734D01*
X011632Y017774D01*
X011632Y017894D01*
X011552Y017894D02*
X011713Y017894D01*
X011753Y017854D01*
X011753Y017774D01*
X011713Y017734D01*
X011552Y017734D02*
X011512Y017774D01*
X011512Y017854D01*
X011552Y017894D01*
X011547Y019283D02*
X011507Y019323D01*
X011547Y019283D02*
X011627Y019283D01*
X011667Y019323D01*
X011667Y019483D01*
X011627Y019523D01*
X011547Y019523D01*
X011507Y019483D01*
X011391Y019403D02*
X011231Y019403D01*
X011271Y019283D02*
X011271Y019523D01*
X011391Y019403D01*
X011404Y019837D02*
X011244Y019997D01*
X011244Y020037D01*
X011284Y020077D01*
X011364Y020077D01*
X011404Y020037D01*
X011521Y020037D02*
X011561Y020077D01*
X011641Y020077D01*
X011681Y020037D01*
X011681Y019877D01*
X011641Y019837D01*
X011561Y019837D01*
X011521Y019877D01*
X011404Y019837D02*
X011244Y019837D01*
X011128Y019877D02*
X011088Y019837D01*
X011008Y019837D01*
X010968Y019877D01*
X010968Y019957D01*
X011008Y019997D01*
X011048Y019997D01*
X011128Y019957D01*
X011128Y020077D01*
X010968Y020077D01*
X010981Y020209D02*
X010941Y020249D01*
X010981Y020209D02*
X011061Y020209D01*
X011101Y020249D01*
X011101Y020410D01*
X011061Y020450D01*
X010981Y020450D01*
X010941Y020410D01*
X010825Y020410D02*
X010785Y020450D01*
X010705Y020450D01*
X010665Y020410D01*
X010665Y020369D01*
X010825Y020209D01*
X010665Y020209D01*
X010610Y019876D02*
X010650Y019836D01*
X010650Y019676D01*
X010610Y019636D01*
X010530Y019636D01*
X010490Y019676D01*
X010374Y019636D02*
X010214Y019636D01*
X010294Y019636D02*
X010294Y019876D01*
X010374Y019796D01*
X010490Y019836D02*
X010530Y019876D01*
X010610Y019876D01*
X010098Y019836D02*
X010098Y019796D01*
X010058Y019756D01*
X009978Y019756D01*
X009938Y019716D01*
X009938Y019676D01*
X009978Y019636D01*
X010058Y019636D01*
X010098Y019676D01*
X010098Y019716D01*
X010058Y019756D01*
X009978Y019756D02*
X009938Y019796D01*
X009938Y019836D01*
X009978Y019876D01*
X010058Y019876D01*
X010098Y019836D01*
X010181Y020459D02*
X010141Y020499D01*
X010181Y020459D02*
X010261Y020459D01*
X010301Y020499D01*
X010301Y020660D01*
X010261Y020700D01*
X010181Y020700D01*
X010141Y020660D01*
X010025Y020660D02*
X009985Y020700D01*
X009905Y020700D01*
X009865Y020660D01*
X009865Y020619D01*
X009905Y020579D01*
X009865Y020539D01*
X009865Y020499D01*
X009905Y020459D01*
X009985Y020459D01*
X010025Y020499D01*
X009945Y020579D02*
X009905Y020579D01*
X011102Y021538D02*
X011102Y021738D01*
X011104Y021758D01*
X011110Y021776D01*
X011119Y021794D01*
X011131Y021809D01*
X011146Y021821D01*
X011164Y021830D01*
X011182Y021836D01*
X011202Y021838D01*
X011402Y021838D01*
X011602Y021838D01*
X011622Y021836D01*
X011640Y021830D01*
X011658Y021821D01*
X011673Y021809D01*
X011685Y021794D01*
X011694Y021776D01*
X011700Y021758D01*
X011702Y021738D01*
X011702Y021538D01*
X011700Y021518D01*
X011694Y021500D01*
X011685Y021482D01*
X011673Y021467D01*
X011658Y021455D01*
X011640Y021446D01*
X011622Y021440D01*
X011602Y021438D01*
X011402Y021438D01*
X011202Y021438D01*
X011182Y021440D01*
X011164Y021446D01*
X011146Y021455D01*
X011131Y021467D01*
X011119Y021482D01*
X011110Y021500D01*
X011104Y021518D01*
X011102Y021538D01*
X009994Y018559D02*
X009914Y018559D01*
X009874Y018519D01*
X009758Y018479D02*
X009678Y018559D01*
X009678Y018319D01*
X009758Y018319D02*
X009598Y018319D01*
X009482Y018359D02*
X009442Y018319D01*
X009362Y018319D01*
X009322Y018359D01*
X009322Y018399D01*
X009362Y018439D01*
X009402Y018439D01*
X009362Y018439D02*
X009322Y018479D01*
X009322Y018519D01*
X009362Y018559D01*
X009442Y018559D01*
X009482Y018519D01*
X009874Y018359D02*
X009914Y018319D01*
X009994Y018319D01*
X010034Y018359D01*
X010034Y018519D01*
X009994Y018559D01*
X015191Y017458D02*
X015231Y017418D01*
X015311Y017418D01*
X013285Y010259D02*
X013325Y010219D01*
X013325Y010058D01*
X013285Y010018D01*
X013205Y010018D01*
X013165Y010058D01*
X013049Y010058D02*
X013049Y010098D01*
X013009Y010139D01*
X012929Y010139D01*
X012889Y010098D01*
X012889Y010058D01*
X012929Y010018D01*
X013009Y010018D01*
X013049Y010058D01*
X013009Y010139D02*
X013049Y010179D01*
X013049Y010219D01*
X013009Y010259D01*
X012929Y010259D01*
X012889Y010219D01*
X012889Y010179D01*
X012929Y010139D01*
X013165Y010219D02*
X013205Y010259D01*
X013285Y010259D01*
D12*
X004302Y007538D02*
X004152Y007538D01*
X004152Y007688D01*
X004302Y007538D01*
X005002Y007538D01*
X005152Y007688D01*
X005152Y008388D01*
X005002Y008538D01*
X004302Y008538D01*
X004152Y008538D01*
X004152Y008388D01*
X004302Y008538D01*
X004152Y008388D02*
X004152Y007688D01*
X005152Y007688D02*
X005302Y007538D01*
X006002Y007538D01*
X006152Y007688D01*
X006302Y007538D01*
X007002Y007538D01*
X007152Y007688D01*
X007302Y007538D01*
X008002Y007538D01*
X008152Y007688D01*
X008302Y007538D01*
X009002Y007538D01*
X009152Y007688D01*
X009302Y007538D01*
X010002Y007538D01*
X010152Y007688D01*
X010302Y007538D01*
X011002Y007538D01*
X011152Y007688D01*
X011302Y007538D01*
X012002Y007538D01*
X012152Y007688D01*
X012302Y007538D01*
X013002Y007538D01*
X013152Y007688D01*
X013302Y007538D01*
X014002Y007538D01*
X014152Y007688D01*
X014302Y007538D01*
X015002Y007538D01*
X015152Y007688D01*
X015302Y007538D01*
X016002Y007538D01*
X016152Y007688D01*
X016302Y007538D01*
X017002Y007538D01*
X017152Y007688D01*
X017302Y007538D01*
X018002Y007538D01*
X018152Y007688D01*
X018302Y007538D01*
X019002Y007538D01*
X019152Y007688D01*
X019302Y007538D01*
X020002Y007538D01*
X020152Y007688D01*
X020152Y008388D01*
X020002Y008538D01*
X019302Y008538D01*
X019152Y008388D01*
X019002Y008538D01*
X018302Y008538D01*
X018152Y008388D01*
X018002Y008538D01*
X017302Y008538D01*
X017152Y008388D01*
X017002Y008538D01*
X016302Y008538D01*
X016152Y008388D01*
X016002Y008538D01*
X015302Y008538D01*
X015152Y008388D01*
X015002Y008538D01*
X014302Y008538D01*
X014152Y008388D01*
X014002Y008538D01*
X013302Y008538D01*
X013152Y008388D01*
X013002Y008538D01*
X012302Y008538D01*
X012152Y008388D01*
X012002Y008538D01*
X011302Y008538D01*
X011152Y008388D01*
X011002Y008538D01*
X010302Y008538D01*
X010152Y008388D01*
X010002Y008538D01*
X009302Y008538D01*
X009152Y008388D01*
X009002Y008538D01*
X008302Y008538D01*
X008152Y008388D01*
X008002Y008538D01*
X007302Y008538D01*
X007152Y008388D01*
X007002Y008538D01*
X006302Y008538D01*
X006152Y008388D01*
X006002Y008538D01*
X005302Y008538D01*
X005152Y008388D01*
X005452Y010038D02*
X005719Y010305D01*
X005786Y010305D01*
X005853Y010239D01*
X005853Y010105D01*
X005786Y010038D01*
X005452Y010038D02*
X005452Y010305D01*
X005152Y010538D02*
X005152Y011388D01*
X005002Y011538D01*
X004302Y011538D01*
X004152Y011388D01*
X004152Y010688D01*
X004302Y010538D01*
X005152Y010538D01*
X006002Y010538D01*
X006152Y010688D01*
X006152Y011388D01*
X006002Y011538D01*
X006152Y011688D01*
X006152Y012388D01*
X006002Y012538D01*
X006152Y012688D01*
X006152Y013388D01*
X006002Y013538D01*
X006152Y013688D01*
X006152Y014388D01*
X006002Y014538D01*
X006152Y014688D01*
X006152Y015388D01*
X006002Y015538D01*
X006152Y015688D01*
X006152Y016388D01*
X006002Y016538D01*
X006152Y016688D01*
X006152Y017388D01*
X006002Y017538D01*
X006152Y017688D01*
X006152Y018388D01*
X006002Y018538D01*
X006152Y018688D01*
X006152Y019388D01*
X006002Y019538D01*
X006152Y019688D01*
X006152Y020388D01*
X006002Y020538D01*
X006152Y020688D01*
X006152Y021388D01*
X006002Y021538D01*
X006152Y021688D01*
X006152Y022388D01*
X006002Y022538D01*
X006152Y022688D01*
X006152Y023388D01*
X006002Y023538D01*
X004302Y023538D01*
X004152Y023388D01*
X004152Y022688D01*
X004302Y022538D01*
X004152Y022388D01*
X004152Y021688D01*
X004302Y021538D01*
X004152Y021388D01*
X004152Y020688D01*
X004302Y020538D01*
X004152Y020388D01*
X004152Y019688D01*
X004302Y019538D01*
X004152Y019388D01*
X004152Y018688D01*
X004302Y018538D01*
X004152Y018388D01*
X004152Y017688D01*
X004302Y017538D01*
X004152Y017388D01*
X004152Y016688D01*
X004302Y016538D01*
X004152Y016388D01*
X004152Y015688D01*
X004302Y015538D01*
X004152Y015388D01*
X004152Y014688D01*
X004302Y014538D01*
X004152Y014388D01*
X004152Y013688D01*
X004302Y013538D01*
X004152Y013388D01*
X004152Y012688D01*
X004302Y012538D01*
X004152Y012388D01*
X004152Y011688D01*
X004302Y011538D01*
X004452Y010305D02*
X004452Y010038D01*
X004452Y010172D02*
X004853Y010172D01*
X004719Y010038D01*
X007980Y013008D02*
X007996Y013052D01*
X008008Y013098D01*
X008017Y013144D01*
X008022Y013190D01*
X008023Y013237D01*
X008021Y013284D01*
X008015Y013331D01*
X008005Y013376D01*
X008005Y013377D02*
X007952Y013588D01*
X008352Y013438D01*
X008518Y013368D01*
X008502Y013338D02*
X008152Y013338D01*
X008152Y013138D01*
X008102Y013138D02*
X008102Y013338D01*
X008152Y013338D01*
X008102Y013338D02*
X008052Y013338D01*
X008052Y013388D02*
X008352Y013388D01*
X008352Y013288D02*
X008552Y013288D01*
X008652Y013238D02*
X008402Y013238D01*
X008402Y013188D02*
X008702Y013188D01*
X008752Y013138D02*
X008452Y013138D01*
X008452Y013088D02*
X008802Y013088D01*
X008823Y013077D02*
X008802Y013114D01*
X008802Y013038D02*
X008502Y013038D01*
X008502Y012988D02*
X008802Y012988D01*
X008852Y012938D02*
X008502Y012938D01*
X008482Y012912D02*
X008482Y012908D01*
X008502Y012888D02*
X008852Y012888D01*
X008852Y012838D02*
X008802Y012838D01*
X008802Y012788D01*
X008552Y012788D01*
X008552Y012738D02*
X008852Y012738D01*
X008852Y012838D01*
X008530Y012442D02*
X008497Y012468D01*
X008466Y012496D01*
X008438Y012527D01*
X008412Y012561D01*
X008390Y012597D01*
X008370Y012634D01*
X008354Y012673D01*
X008342Y012713D01*
X008333Y012754D01*
X008332Y012754D02*
X008322Y012908D01*
X008302Y012888D02*
X008002Y012888D01*
X008002Y012838D02*
X008302Y012838D01*
X008802Y013114D02*
X008776Y013155D01*
X008747Y013194D01*
X008715Y013230D01*
X008680Y013264D01*
X008643Y013295D01*
X008603Y013322D01*
X008561Y013347D01*
X008517Y013367D01*
X008302Y013038D02*
X008052Y013038D01*
X008052Y013088D02*
X008252Y013088D01*
X008252Y013138D02*
X008052Y013138D01*
X008002Y012988D02*
X008302Y012988D01*
X008302Y012938D02*
X008002Y012938D01*
X008283Y013319D02*
X008316Y013287D01*
X008347Y013252D01*
X008376Y013215D01*
X008401Y013176D01*
X008423Y013135D01*
X008442Y013093D01*
X008457Y013049D01*
X008469Y013004D01*
X008478Y012959D01*
X008483Y012912D01*
X008502Y012838D02*
X008702Y012488D01*
X008644Y012477D02*
X008633Y012488D01*
X008602Y012588D02*
X008802Y012588D01*
X008802Y012538D01*
X008802Y012588D02*
X008802Y012638D01*
X008552Y012638D01*
X008552Y012688D02*
X008852Y012688D01*
X008852Y012730D02*
X008852Y012738D01*
X008802Y012788D02*
X008802Y012638D01*
X008752Y012438D02*
X008726Y012440D01*
X008700Y012446D01*
X008675Y012456D01*
X008653Y012470D01*
X008633Y012487D01*
X008532Y012438D02*
X008392Y012438D01*
X008452Y012488D02*
X008252Y012488D01*
X008152Y012538D02*
X008402Y012538D01*
X008352Y012588D02*
X008102Y012588D01*
X008076Y012565D02*
X008085Y012556D01*
X008052Y012638D02*
X008352Y012638D01*
X008332Y012688D02*
X008002Y012688D01*
X008002Y012738D02*
X008302Y012738D01*
X008902Y012779D02*
X008900Y012823D01*
X008895Y012868D01*
X008887Y012911D01*
X008876Y012954D01*
X008861Y012996D01*
X008844Y013037D01*
X008823Y013077D01*
X009052Y013138D02*
X009054Y013140D01*
X009053Y013139D02*
X009053Y013289D01*
X009216Y013082D02*
X009149Y013007D01*
X008482Y012909D02*
X008483Y012862D01*
X008487Y012814D01*
X008494Y012768D01*
X008505Y012722D01*
X008520Y012677D01*
X008538Y012633D01*
X008560Y012591D01*
X008585Y012551D01*
X008613Y012513D01*
X008644Y012477D01*
X008747Y012438D02*
X008752Y012438D01*
X008869Y012604D01*
X008920Y012338D02*
X008946Y012340D01*
X008972Y012345D01*
X008997Y012353D01*
X009020Y012365D01*
X009042Y012379D01*
X009061Y012397D01*
X009102Y012438D01*
X009152Y012388D02*
X009352Y012088D01*
X009352Y012138D02*
X009279Y012212D01*
X009209Y012332D02*
X009402Y012138D01*
X009102Y012571D02*
X009102Y012588D01*
X009102Y012638D02*
X009093Y012656D01*
X009102Y012638D02*
X009211Y012747D01*
X009102Y012638D02*
X009088Y012671D01*
X009077Y012705D01*
X009070Y012740D01*
X009067Y012776D01*
X009068Y012812D01*
X009072Y012848D01*
X009081Y012882D01*
X009092Y012916D01*
X009108Y012949D01*
X009127Y012979D01*
X009149Y013007D01*
X008802Y012838D02*
X008752Y012838D01*
X008602Y012838D01*
X008602Y012638D01*
X008752Y012489D02*
X008775Y012514D01*
X008795Y012541D01*
X008812Y012569D01*
X008826Y012600D01*
X008837Y012631D01*
X008845Y012663D01*
X008850Y012697D01*
X008852Y012730D01*
X008752Y012838D02*
X008752Y012588D01*
X008752Y012438D02*
X008805Y012386D01*
X008821Y012372D01*
X008839Y012361D01*
X008858Y012351D01*
X008878Y012345D01*
X008899Y012340D01*
X008920Y012339D01*
X008602Y012838D02*
X008502Y012838D01*
X008903Y012779D02*
X008902Y012743D01*
X008898Y012708D01*
X008891Y012672D01*
X008881Y012638D01*
X008869Y012604D01*
X009211Y012747D02*
X009230Y012765D01*
X009252Y012779D01*
X009275Y012791D01*
X009300Y012799D01*
X009326Y012804D01*
X009352Y012806D01*
X009378Y012804D01*
X009404Y012799D01*
X009429Y012791D01*
X009452Y012779D01*
X009474Y012765D01*
X009493Y012747D01*
X009494Y012747D02*
X009515Y012726D01*
X009103Y012588D02*
X009105Y012553D01*
X009110Y012517D01*
X009119Y012483D01*
X009131Y012449D01*
X009146Y012417D01*
X009164Y012387D01*
X009185Y012358D01*
X009209Y012332D01*
X009279Y012211D02*
X009247Y012246D01*
X009217Y012283D01*
X009191Y012322D01*
X009168Y012364D01*
X009148Y012407D01*
X009132Y012451D01*
X009119Y012497D01*
X009109Y012544D01*
X009104Y012591D01*
X009102Y012638D01*
X009727Y012638D02*
X009930Y012638D01*
X009102Y012571D02*
X009104Y012522D01*
X009109Y012474D01*
X009118Y012426D01*
X009130Y012379D01*
X009145Y012332D01*
X009164Y012287D01*
X009186Y012244D01*
X009210Y012202D01*
X009238Y012162D01*
X009269Y012124D01*
X009302Y012088D01*
X009852Y012338D02*
X014502Y012338D01*
X015102Y011738D02*
X015100Y011691D01*
X015095Y011644D01*
X015085Y011598D01*
X015073Y011553D01*
X015056Y011508D01*
X015037Y011466D01*
X015014Y011425D01*
X014987Y011385D01*
X014958Y011348D01*
X014926Y011314D01*
X014892Y011282D01*
X014855Y011253D01*
X014815Y011226D01*
X014774Y011203D01*
X014732Y011184D01*
X014687Y011167D01*
X014642Y011155D01*
X014596Y011145D01*
X014549Y011140D01*
X014502Y011138D01*
X009852Y011138D01*
X009805Y011140D01*
X009758Y011145D01*
X009712Y011155D01*
X009667Y011167D01*
X009622Y011184D01*
X009580Y011203D01*
X009539Y011226D01*
X009499Y011253D01*
X009462Y011282D01*
X009428Y011314D01*
X009396Y011348D01*
X009367Y011385D01*
X009340Y011425D01*
X009317Y011466D01*
X009298Y011508D01*
X009281Y011553D01*
X009269Y011598D01*
X009259Y011644D01*
X009254Y011691D01*
X009252Y011738D01*
X009254Y011785D01*
X009259Y011832D01*
X009269Y011878D01*
X009281Y011923D01*
X009298Y011968D01*
X009317Y012010D01*
X009340Y012051D01*
X009367Y012091D01*
X009396Y012128D01*
X009428Y012162D01*
X009462Y012194D01*
X009499Y012223D01*
X009539Y012250D01*
X009580Y012273D01*
X009622Y012292D01*
X009667Y012309D01*
X009712Y012321D01*
X009758Y012331D01*
X009805Y012336D01*
X009852Y012338D01*
X009473Y013563D02*
X009540Y013602D01*
X009608Y013637D01*
X009678Y013668D01*
X009750Y013697D01*
X009823Y013722D01*
X009897Y013743D01*
X009972Y013761D01*
X009972Y013762D02*
X010176Y013791D01*
X010222Y013582D02*
X010344Y013606D01*
X009076Y013556D02*
X009064Y013490D01*
X009057Y013423D01*
X009053Y013356D01*
X009052Y013288D01*
X009076Y013556D02*
X009134Y013792D01*
X009470Y013562D02*
X009473Y013564D01*
X009515Y012726D02*
X009540Y012703D01*
X009567Y012684D01*
X009597Y012668D01*
X009628Y012655D01*
X009660Y012646D01*
X009693Y012640D01*
X009727Y012638D01*
X009134Y013792D02*
X009156Y013847D01*
X009181Y013901D01*
X009209Y013952D01*
X009241Y014002D01*
X009276Y014050D01*
X009315Y014095D01*
X009356Y014137D01*
X009400Y014177D01*
X009446Y014214D01*
X009495Y014247D01*
X009546Y014278D01*
X009598Y014305D01*
X009653Y014328D01*
X009709Y014347D01*
X009766Y014363D01*
X009823Y014376D01*
X009882Y014384D01*
X009941Y014388D01*
X010787Y014312D01*
X010706Y013876D02*
X011252Y014038D01*
X011142Y013902D01*
X011252Y014238D02*
X011652Y014488D01*
X011463Y014445D02*
X011802Y014688D01*
X011461Y013856D01*
X010680Y012916D02*
X010666Y012902D01*
X010619Y012862D01*
X010570Y012825D01*
X010519Y012791D01*
X010465Y012760D01*
X010410Y012732D01*
X010353Y012708D01*
X010295Y012687D01*
X010236Y012670D01*
X010176Y012656D01*
X010115Y012646D01*
X010053Y012640D01*
X009992Y012637D01*
X009930Y012638D01*
X009054Y013139D02*
X009105Y013207D01*
X009159Y013273D01*
X009215Y013336D01*
X009275Y013397D01*
X009337Y013455D01*
X009402Y013510D01*
X009470Y013561D01*
X008314Y012448D02*
X008272Y012457D01*
X008231Y012470D01*
X008192Y012486D01*
X008154Y012506D01*
X008118Y012529D01*
X008085Y012556D01*
X008002Y012788D02*
X008302Y012788D01*
X007952Y012863D02*
X007954Y012900D01*
X007959Y012937D01*
X007968Y012973D01*
X007980Y013008D01*
X008182Y013280D02*
X008212Y013237D01*
X008239Y013192D01*
X008262Y013145D01*
X008282Y013096D01*
X008297Y013046D01*
X008309Y012995D01*
X008317Y012943D01*
X008321Y012891D01*
X007952Y012863D02*
X007954Y012826D01*
X007958Y012790D01*
X007966Y012754D01*
X007977Y012719D01*
X007992Y012685D01*
X008009Y012652D01*
X008028Y012621D01*
X008051Y012592D01*
X008076Y012565D01*
X008313Y012448D02*
X008339Y012442D01*
X008366Y012439D01*
X008392Y012438D01*
X008252Y013438D02*
X008002Y013438D01*
X008002Y013488D02*
X008202Y013488D01*
X007743Y014878D02*
X007743Y010941D01*
X016562Y010941D01*
X016562Y014878D01*
X007743Y014878D01*
X010680Y012916D02*
X010771Y012998D01*
X010860Y013083D01*
X010946Y013171D01*
X011028Y013261D01*
X011108Y013354D01*
X011185Y013450D01*
X011259Y013548D01*
X011330Y013648D01*
X011397Y013751D01*
X011461Y013856D01*
X011462Y014445D02*
X011412Y014414D01*
X011360Y014386D01*
X011307Y014362D01*
X011251Y014341D01*
X011195Y014324D01*
X011138Y014311D01*
X011080Y014302D01*
X011021Y014296D01*
X010962Y014294D01*
X010903Y014296D01*
X010845Y014302D01*
X010786Y014311D01*
X011143Y013901D02*
X011070Y013855D01*
X010995Y013813D01*
X010919Y013774D01*
X010840Y013739D01*
X010760Y013707D01*
X010679Y013679D01*
X010597Y013655D01*
X010513Y013635D01*
X010429Y013618D01*
X010344Y013605D01*
X010222Y013582D02*
X010136Y013563D01*
X010052Y013540D01*
X009968Y013514D01*
X009886Y013485D01*
X009805Y013452D01*
X009725Y013417D01*
X009647Y013378D01*
X009570Y013336D01*
X009495Y013291D01*
X009422Y013243D01*
X009351Y013192D01*
X009282Y013138D01*
X009215Y013081D01*
X011102Y009758D02*
X012902Y009758D01*
X012302Y009588D02*
X012302Y008788D01*
X012296Y009188D02*
X011706Y008845D01*
X011706Y009532D01*
X012296Y009188D01*
X012302Y009588D02*
X012152Y009588D01*
X012902Y008618D02*
X011102Y008618D01*
X014502Y012338D02*
X014549Y012336D01*
X014596Y012331D01*
X014642Y012321D01*
X014687Y012309D01*
X014732Y012292D01*
X014774Y012273D01*
X014815Y012250D01*
X014855Y012223D01*
X014892Y012194D01*
X014926Y012162D01*
X014958Y012128D01*
X014987Y012091D01*
X015014Y012051D01*
X015037Y012010D01*
X015056Y011968D01*
X015073Y011923D01*
X015085Y011878D01*
X015095Y011832D01*
X015100Y011785D01*
X015102Y011738D01*
X016562Y012516D02*
X016520Y012518D01*
X016478Y012524D01*
X016436Y012533D01*
X016396Y012546D01*
X016357Y012563D01*
X016320Y012583D01*
X016285Y012606D01*
X016251Y012633D01*
X016221Y012662D01*
X016193Y012694D01*
X016168Y012728D01*
X016146Y012764D01*
X016128Y012802D01*
X016113Y012842D01*
X016102Y012883D01*
X016094Y012925D01*
X016090Y012967D01*
X016090Y013009D01*
X016094Y013051D01*
X016102Y013093D01*
X016113Y013134D01*
X016128Y013174D01*
X016146Y013212D01*
X016168Y013248D01*
X016193Y013282D01*
X016221Y013314D01*
X016251Y013343D01*
X016285Y013370D01*
X016320Y013393D01*
X016357Y013413D01*
X016396Y013430D01*
X016436Y013443D01*
X016478Y013452D01*
X016520Y013458D01*
X016562Y013460D01*
X018152Y013388D02*
X018152Y012688D01*
X018302Y012538D01*
X018152Y012388D01*
X018152Y011688D01*
X018302Y011538D01*
X019002Y011538D01*
X019152Y011388D01*
X019152Y010538D01*
X020002Y010538D01*
X020152Y010688D01*
X020152Y011388D01*
X020002Y011538D01*
X020152Y011688D01*
X020152Y012388D01*
X020002Y012538D01*
X020152Y012688D01*
X020152Y013388D01*
X020002Y013538D01*
X020152Y013688D01*
X020152Y014388D01*
X020002Y014538D01*
X020152Y014688D01*
X020152Y015388D01*
X020002Y015538D01*
X020152Y015688D01*
X020152Y016388D01*
X020002Y016538D01*
X020152Y016688D01*
X020152Y017388D01*
X020002Y017538D01*
X020152Y017688D01*
X020152Y018388D01*
X020002Y018538D01*
X020152Y018688D01*
X020152Y019388D01*
X020002Y019538D01*
X020152Y019688D01*
X020152Y020388D01*
X020002Y020538D01*
X020152Y020688D01*
X020152Y021388D01*
X020002Y021538D01*
X020152Y021688D01*
X020152Y022388D01*
X020002Y022538D01*
X020152Y022688D01*
X020152Y023388D01*
X020002Y023538D01*
X018302Y023538D01*
X018152Y023388D01*
X018152Y022688D01*
X018302Y022538D01*
X018152Y022388D01*
X018152Y021688D01*
X018302Y021538D01*
X018152Y021388D01*
X018152Y020688D01*
X018302Y020538D01*
X018152Y020388D01*
X018152Y019688D01*
X018302Y019538D01*
X018152Y019388D01*
X018152Y018688D01*
X018302Y018538D01*
X018152Y018388D01*
X018152Y017688D01*
X018302Y017538D01*
X018152Y017388D01*
X018152Y016688D01*
X018302Y016538D01*
X018152Y016388D01*
X018152Y015688D01*
X018302Y015538D01*
X018152Y015388D01*
X018152Y014688D01*
X018302Y014538D01*
X018152Y014388D01*
X018152Y013688D01*
X018302Y013538D01*
X018152Y013388D01*
X018302Y011538D02*
X018152Y011388D01*
X018152Y010688D01*
X018302Y010538D01*
X019152Y010538D01*
X018853Y010172D02*
X018452Y010172D01*
X018452Y010305D02*
X018452Y010038D01*
X018719Y010038D02*
X018853Y010172D01*
X019452Y010305D02*
X019452Y010038D01*
X019719Y010305D01*
X019786Y010305D01*
X019853Y010239D01*
X019853Y010105D01*
X019786Y010038D01*
X016652Y023163D02*
X016594Y023182D01*
X016536Y023198D01*
X016477Y023213D01*
X016502Y023863D02*
X016544Y023877D01*
X016587Y023887D01*
X016631Y023893D01*
X016675Y023896D01*
X016719Y023895D01*
X016763Y023890D01*
X016806Y023882D01*
X016849Y023871D01*
X016890Y023855D01*
X016930Y023837D01*
X016969Y023815D01*
X017005Y023790D01*
X017039Y023762D01*
X017071Y023732D01*
X017100Y023699D01*
X017127Y023664D01*
X016903Y023513D02*
X016925Y023483D01*
X016950Y023455D01*
X016977Y023430D01*
X017006Y023407D01*
X017038Y023387D01*
X017071Y023370D01*
X017105Y023356D01*
X017141Y023346D01*
X017178Y023338D01*
X017177Y023338D02*
X017177Y022938D01*
X017202Y022938D01*
X017177Y022938D02*
X017167Y022936D01*
X017159Y022931D01*
X017154Y022923D01*
X017152Y022913D01*
X017152Y022863D01*
X017154Y022853D01*
X017159Y022845D01*
X017167Y022840D01*
X017177Y022838D01*
X017252Y022888D02*
X017250Y022901D01*
X017245Y022913D01*
X017237Y022923D01*
X017227Y022931D01*
X017215Y022936D01*
X017202Y022938D01*
X017177Y022838D02*
X017200Y022840D01*
X017223Y022845D01*
X017245Y022854D01*
X017265Y022867D01*
X017283Y022882D01*
X017298Y022900D01*
X017311Y022920D01*
X017320Y022942D01*
X017325Y022965D01*
X017327Y022988D01*
X017327Y023413D01*
X017328Y023413D02*
X017326Y023435D01*
X017321Y023456D01*
X017313Y023476D01*
X017302Y023495D01*
X017288Y023512D01*
X017271Y023527D01*
X017253Y023538D01*
X017352Y023813D02*
X015252Y022438D01*
X015777Y023488D01*
X015902Y023488D01*
X015777Y023488D02*
X015952Y023838D01*
X016417Y023838D01*
X016418Y023839D02*
X016436Y023838D01*
X016454Y023840D01*
X016471Y023846D01*
X016488Y023853D01*
X016503Y023864D01*
X016103Y023413D02*
X016131Y023382D01*
X016162Y023354D01*
X016195Y023328D01*
X016230Y023305D01*
X016267Y023285D01*
X016306Y023268D01*
X016345Y023255D01*
X016386Y023245D01*
X016428Y023238D01*
X016652Y023164D02*
X016686Y023150D01*
X016718Y023133D01*
X016747Y023112D01*
X016775Y023088D01*
X016799Y023062D01*
X016821Y023033D01*
X016839Y023002D01*
X016854Y022969D01*
X016866Y022935D01*
X016874Y022900D01*
X016877Y022864D01*
X016892Y022863D02*
X016952Y022863D01*
X016969Y022871D01*
X016983Y022882D01*
X016994Y022896D01*
X017002Y022913D01*
X017010Y022933D01*
X017015Y022954D01*
X017017Y022976D01*
X017015Y022998D01*
X017010Y023019D01*
X017002Y023039D01*
X017003Y023039D02*
X016982Y023079D01*
X016958Y023118D01*
X016931Y023154D01*
X016901Y023188D01*
X016868Y023219D01*
X016832Y023247D01*
X016795Y023272D01*
X016755Y023294D01*
X016714Y023313D01*
X016671Y023328D01*
X016627Y023339D01*
X016102Y023414D02*
X016082Y023433D01*
X016060Y023450D01*
X016036Y023464D01*
X016011Y023475D01*
X015984Y023483D01*
X015957Y023488D01*
X015930Y023490D01*
X015902Y023489D01*
X015952Y023838D02*
X016652Y025238D01*
X018052Y022438D01*
X015252Y022438D01*
X014802Y022838D02*
X013602Y024038D01*
X013302Y024338D01*
X013502Y024188D02*
X013502Y024038D01*
X013602Y024038D01*
X013502Y024188D02*
X013552Y024238D01*
X013602Y024238D01*
X013672Y023148D01*
X013544Y022988D02*
X013546Y023013D01*
X013552Y023038D01*
X013562Y023061D01*
X013576Y023083D01*
X013593Y023102D01*
X013612Y023118D01*
X013634Y023131D01*
X013658Y023140D01*
X013683Y023145D01*
X013708Y023146D01*
X013734Y023143D01*
X013758Y023136D01*
X013781Y023125D01*
X013802Y023110D01*
X013820Y023093D01*
X013836Y023072D01*
X013847Y023050D01*
X013855Y023026D01*
X013859Y023001D01*
X013859Y022975D01*
X013855Y022950D01*
X013847Y022926D01*
X013836Y022904D01*
X013820Y022883D01*
X013802Y022866D01*
X013781Y022851D01*
X013758Y022840D01*
X013734Y022833D01*
X013708Y022830D01*
X013683Y022831D01*
X013658Y022836D01*
X013634Y022845D01*
X013612Y022858D01*
X013593Y022874D01*
X013576Y022893D01*
X013562Y022915D01*
X013552Y022938D01*
X013546Y022963D01*
X013544Y022988D01*
X013692Y022988D02*
X013694Y022994D01*
X013699Y022998D01*
X013705Y022998D01*
X013710Y022994D01*
X013712Y022988D01*
X013710Y022982D01*
X013705Y022978D01*
X013699Y022978D01*
X013694Y022982D01*
X013692Y022988D01*
X013862Y022988D02*
X014252Y022988D01*
X014252Y022838D01*
X014402Y022838D01*
X014402Y022988D01*
X014502Y024238D01*
X014302Y024238D01*
X014302Y024538D01*
X014252Y024538D01*
X014252Y024238D01*
X013602Y024238D01*
X013602Y024288D02*
X013604Y024302D01*
X013610Y024315D01*
X013619Y024326D01*
X013631Y024333D01*
X013645Y024337D01*
X013659Y024337D01*
X013673Y024333D01*
X013685Y024326D01*
X013694Y024315D01*
X013700Y024302D01*
X013702Y024288D01*
X013700Y024274D01*
X013694Y024261D01*
X013685Y024250D01*
X013673Y024243D01*
X013659Y024239D01*
X013645Y024239D01*
X013631Y024243D01*
X013619Y024250D01*
X013610Y024261D01*
X013604Y024274D01*
X013602Y024288D01*
X013802Y023988D02*
X014102Y023988D01*
X014102Y023888D01*
X013802Y023888D01*
X013802Y023988D01*
X013602Y024238D02*
X013624Y024277D01*
X013649Y024314D01*
X013677Y024348D01*
X013708Y024380D01*
X013742Y024409D01*
X013778Y024435D01*
X013817Y024457D01*
X013857Y024477D01*
X013899Y024492D01*
X013942Y024504D01*
X013985Y024512D01*
X014030Y024516D01*
X014074Y024516D01*
X014119Y024512D01*
X014162Y024504D01*
X014205Y024492D01*
X014247Y024477D01*
X014287Y024457D01*
X014326Y024435D01*
X014362Y024409D01*
X014396Y024380D01*
X014427Y024348D01*
X014455Y024314D01*
X014480Y024277D01*
X014502Y024238D01*
X014552Y024238D01*
X014302Y024238D02*
X014252Y024238D01*
X014102Y024538D02*
X014002Y024538D01*
X014002Y024638D01*
X014102Y024638D01*
X014102Y024538D01*
X014802Y024338D02*
X013302Y022838D01*
X012450Y023240D02*
X011454Y024236D01*
X011661Y023801D02*
X011861Y023801D01*
X011252Y023738D02*
X011255Y023802D01*
X011264Y023865D01*
X011278Y023927D01*
X011298Y023987D01*
X011323Y024046D01*
X011354Y024102D01*
X011389Y024155D01*
X011430Y024204D01*
X011474Y024250D01*
X011523Y024291D01*
X011575Y024328D01*
X011630Y024360D01*
X011688Y024386D01*
X011748Y024408D01*
X011810Y024423D01*
X011872Y024433D01*
X011936Y024438D01*
X012000Y024436D01*
X012063Y024429D01*
X012125Y024416D01*
X012186Y024398D01*
X012245Y024374D01*
X012302Y024344D01*
X012356Y024310D01*
X012406Y024271D01*
X012453Y024227D01*
X012495Y024180D01*
X012533Y024129D01*
X012566Y024074D01*
X012594Y024017D01*
X012617Y023957D01*
X012634Y023896D01*
X012645Y023833D01*
X012651Y023770D01*
X012651Y023706D01*
X012645Y023643D01*
X012634Y023580D01*
X012617Y023519D01*
X012594Y023459D01*
X012566Y023402D01*
X012533Y023347D01*
X012495Y023296D01*
X012453Y023249D01*
X012406Y023205D01*
X012356Y023166D01*
X012302Y023132D01*
X012245Y023102D01*
X012186Y023078D01*
X012125Y023060D01*
X012063Y023047D01*
X012000Y023040D01*
X011936Y023038D01*
X011872Y023043D01*
X011810Y023053D01*
X011748Y023068D01*
X011688Y023090D01*
X011630Y023116D01*
X011575Y023148D01*
X011523Y023185D01*
X011474Y023226D01*
X011430Y023272D01*
X011389Y023321D01*
X011354Y023374D01*
X011323Y023430D01*
X011298Y023489D01*
X011278Y023549D01*
X011264Y023611D01*
X011255Y023674D01*
X011252Y023738D01*
X011594Y023734D02*
X011594Y023601D01*
X011661Y023534D01*
X011861Y023534D01*
X011861Y023934D01*
X012055Y023868D02*
X012055Y023734D01*
X012122Y023668D01*
X012322Y023668D01*
X012322Y023534D02*
X012322Y023934D01*
X012122Y023934D01*
X012055Y023868D01*
X011661Y023801D02*
X011594Y023734D01*
X013932Y025398D02*
X013932Y025428D01*
X013932Y025398D02*
X014052Y025398D01*
X014052Y025428D01*
X014682Y026288D02*
X014682Y026318D01*
X014822Y026318D01*
X014822Y026288D01*
X014402Y022988D02*
X014252Y022988D01*
X017128Y023664D02*
X017148Y023634D01*
X017170Y023607D01*
X017196Y023581D01*
X017223Y023559D01*
X017253Y023539D01*
X010707Y013876D02*
X010620Y013854D01*
X010532Y013836D01*
X010444Y013820D01*
X010355Y013807D01*
X010266Y013797D01*
X010177Y013790D01*
X008892Y021715D02*
X008894Y021736D01*
X008900Y021757D01*
X008910Y021776D01*
X008923Y021792D01*
X008939Y021806D01*
X008957Y021817D01*
X008978Y021824D01*
X008999Y021827D01*
X009020Y021826D01*
X009041Y021821D01*
X009060Y021812D01*
X009077Y021800D01*
X009092Y021784D01*
X009104Y021766D01*
X009111Y021747D01*
X009115Y021726D01*
X009115Y021704D01*
X009111Y021683D01*
X009104Y021664D01*
X009092Y021646D01*
X009077Y021630D01*
X009060Y021618D01*
X009041Y021609D01*
X009020Y021604D01*
X008999Y021603D01*
X008978Y021606D01*
X008957Y021613D01*
X008939Y021624D01*
X008923Y021638D01*
X008910Y021654D01*
X008900Y021673D01*
X008894Y021694D01*
X008892Y021715D01*
X008815Y021925D02*
X008737Y021925D01*
X008815Y021925D02*
X008815Y024051D01*
X008737Y024051D01*
X008419Y022423D02*
X008421Y022444D01*
X008427Y022465D01*
X008437Y022484D01*
X008450Y022500D01*
X008466Y022514D01*
X008484Y022525D01*
X008505Y022532D01*
X008526Y022535D01*
X008547Y022534D01*
X008568Y022529D01*
X008587Y022520D01*
X008604Y022508D01*
X008619Y022492D01*
X008631Y022474D01*
X008638Y022455D01*
X008642Y022434D01*
X008642Y022412D01*
X008638Y022391D01*
X008631Y022372D01*
X008619Y022354D01*
X008604Y022338D01*
X008587Y022326D01*
X008568Y022317D01*
X008547Y022312D01*
X008526Y022311D01*
X008505Y022314D01*
X008484Y022321D01*
X008466Y022332D01*
X008450Y022346D01*
X008437Y022362D01*
X008427Y022381D01*
X008421Y022402D01*
X008419Y022423D01*
X006768Y021925D02*
X006689Y021925D01*
X006689Y024051D01*
X006768Y024051D01*
D13*
X014052Y022388D03*
D14*
X011652Y014488D02*
X011452Y014138D01*
X011402Y013938D01*
X011252Y013738D01*
X011252Y013888D01*
X011402Y014238D01*
X011302Y014138D02*
X009502Y014138D01*
X009502Y014038D01*
X011452Y014068D01*
X011302Y014138D02*
X011102Y014088D01*
X010602Y013938D01*
X010152Y013888D01*
X010102Y013888D01*
X009452Y013888D01*
X009502Y013938D02*
X009352Y013738D01*
X009352Y013588D02*
X009602Y013738D01*
X009502Y013938D01*
X009502Y014038D01*
X009502Y014138D02*
X009302Y013938D01*
X009202Y013738D01*
X009152Y013338D01*
X009352Y013588D01*
X009652Y013738D02*
X009902Y013888D01*
X010102Y013888D01*
X010272Y013538D02*
X010512Y013538D01*
X010802Y013638D01*
X011102Y013788D01*
X011202Y013688D02*
X011052Y013488D01*
X010952Y013338D01*
X010602Y012988D01*
X010402Y012838D01*
X010052Y012738D01*
X009702Y012738D01*
X009402Y012938D01*
X009252Y012888D01*
X009152Y012788D01*
X009252Y012988D01*
X009452Y013188D01*
X009722Y013348D01*
X010272Y013538D01*
X010202Y013388D02*
X009802Y013288D01*
X009552Y013088D01*
X009502Y013038D01*
X009552Y012938D01*
X009652Y012938D01*
X009802Y012888D01*
X010052Y012888D01*
X010202Y012938D01*
X010402Y012988D01*
X010652Y013188D01*
X010702Y013238D01*
X010652Y013288D01*
X010452Y013288D01*
X010052Y013188D01*
X009952Y013188D01*
X009752Y013088D01*
X009752Y013038D01*
X009802Y012988D01*
X009952Y013038D01*
X010452Y013138D01*
X010202Y013388D02*
X010652Y013438D01*
X010702Y013438D01*
X010752Y013388D01*
X011052Y013638D01*
X011306Y013306D02*
X011440Y013439D01*
X011707Y013439D01*
X011840Y013306D01*
X011840Y013172D01*
X011707Y013039D01*
X011440Y013039D01*
X011306Y012905D01*
X011306Y012772D01*
X011440Y012638D01*
X011707Y012638D01*
X011840Y012772D01*
X012227Y012638D02*
X012227Y013439D01*
X012227Y013039D02*
X012761Y013039D01*
X012761Y013439D02*
X012761Y012638D01*
X013148Y012772D02*
X013148Y013039D01*
X013281Y013172D01*
X013548Y013172D01*
X013682Y013039D01*
X013682Y012772D01*
X013548Y012638D01*
X013281Y012638D01*
X013148Y012772D01*
X014069Y012638D02*
X014336Y012905D01*
X014202Y012905D02*
X014602Y012905D01*
X014602Y012638D02*
X014602Y013439D01*
X014202Y013439D01*
X014069Y013306D01*
X014069Y013039D01*
X014202Y012905D01*
X011252Y014238D02*
X010802Y014238D01*
X010402Y014288D01*
X009752Y014288D01*
X009502Y014138D01*
D15*
X009813Y011925D02*
X009813Y011552D01*
X009719Y011458D01*
X009719Y011832D02*
X009906Y011832D01*
X010177Y011739D02*
X010177Y011458D01*
X010177Y011739D02*
X010270Y011832D01*
X010550Y011832D01*
X010550Y011458D01*
X010821Y011458D02*
X010821Y011739D01*
X010915Y011832D01*
X011102Y011832D01*
X011102Y011645D02*
X010821Y011645D01*
X010821Y011458D02*
X011102Y011458D01*
X011195Y011552D01*
X011102Y011645D01*
X011438Y011458D02*
X011625Y011458D01*
X011531Y011458D02*
X011531Y011832D01*
X011625Y011832D01*
X011531Y012019D02*
X011531Y012112D01*
X011961Y012019D02*
X011961Y011458D01*
X012054Y011458D02*
X011868Y011458D01*
X012325Y011552D02*
X012419Y011458D01*
X012699Y011458D01*
X012699Y011272D02*
X012699Y011832D01*
X012419Y011832D01*
X012325Y011739D01*
X012325Y011552D01*
X012054Y012019D02*
X011961Y012019D01*
X012970Y011739D02*
X012970Y011458D01*
X013157Y011458D02*
X013157Y011739D01*
X013063Y011832D01*
X012970Y011739D01*
X013157Y011739D02*
X013250Y011832D01*
X013343Y011832D01*
X013343Y011458D01*
X013614Y011552D02*
X013614Y011739D01*
X013708Y011832D01*
X013895Y011832D01*
X013988Y011739D01*
X013988Y011552D01*
X013895Y011458D01*
X013708Y011458D01*
X013614Y011552D01*
X014259Y011552D02*
X014352Y011458D01*
X014539Y011458D01*
X014632Y011552D01*
X014632Y011925D01*
X014539Y012019D01*
X014352Y012019D01*
X014259Y011925D01*
X013855Y025003D02*
X013857Y025027D01*
X013863Y025050D01*
X013873Y025071D01*
X013886Y025091D01*
X013903Y025108D01*
X013922Y025122D01*
X013943Y025133D01*
X013966Y025140D01*
X013989Y025143D01*
X014013Y025142D01*
X014036Y025137D01*
X014058Y025128D01*
X014078Y025116D01*
X014096Y025100D01*
X014111Y025081D01*
X014123Y025061D01*
X014130Y025038D01*
X014134Y025015D01*
X014134Y024991D01*
X014130Y024968D01*
X014123Y024945D01*
X014111Y024925D01*
X014096Y024906D01*
X014078Y024890D01*
X014058Y024878D01*
X014036Y024869D01*
X014013Y024864D01*
X013989Y024863D01*
X013966Y024866D01*
X013943Y024873D01*
X013922Y024884D01*
X013903Y024898D01*
X013886Y024915D01*
X013873Y024935D01*
X013863Y024956D01*
X013857Y024979D01*
X013855Y025003D01*
X013372Y024998D02*
X013374Y025022D01*
X013380Y025045D01*
X013390Y025066D01*
X013403Y025086D01*
X013420Y025103D01*
X013439Y025117D01*
X013460Y025128D01*
X013483Y025135D01*
X013506Y025138D01*
X013530Y025137D01*
X013553Y025132D01*
X013575Y025123D01*
X013595Y025111D01*
X013613Y025095D01*
X013628Y025076D01*
X013640Y025056D01*
X013647Y025033D01*
X013651Y025010D01*
X013651Y024986D01*
X013647Y024963D01*
X013640Y024940D01*
X013628Y024920D01*
X013613Y024901D01*
X013595Y024885D01*
X013575Y024873D01*
X013553Y024864D01*
X013530Y024859D01*
X013506Y024858D01*
X013483Y024861D01*
X013460Y024868D01*
X013439Y024879D01*
X013420Y024893D01*
X013403Y024910D01*
X013390Y024930D01*
X013380Y024951D01*
X013374Y024974D01*
X013372Y024998D01*
X012761Y025558D02*
X012763Y025582D01*
X012769Y025605D01*
X012779Y025627D01*
X012792Y025647D01*
X012809Y025664D01*
X012828Y025678D01*
X012849Y025689D01*
X012872Y025696D01*
X012896Y025699D01*
X012920Y025698D01*
X012943Y025693D01*
X012965Y025684D01*
X012986Y025671D01*
X013004Y025656D01*
X013019Y025637D01*
X013030Y025616D01*
X013038Y025594D01*
X013042Y025570D01*
X013042Y025546D01*
X013038Y025522D01*
X013030Y025500D01*
X013019Y025479D01*
X013004Y025460D01*
X012986Y025445D01*
X012965Y025432D01*
X012943Y025423D01*
X012920Y025418D01*
X012896Y025417D01*
X012872Y025420D01*
X012849Y025427D01*
X012828Y025438D01*
X012809Y025452D01*
X012792Y025469D01*
X012779Y025489D01*
X012769Y025511D01*
X012763Y025534D01*
X012761Y025558D01*
X012120Y024998D02*
X012122Y025022D01*
X012128Y025045D01*
X012138Y025067D01*
X012152Y025087D01*
X012168Y025105D01*
X012188Y025119D01*
X012209Y025130D01*
X012232Y025137D01*
X012256Y025140D01*
X012280Y025139D01*
X012304Y025134D01*
X012326Y025125D01*
X012346Y025112D01*
X012365Y025096D01*
X012380Y025078D01*
X012391Y025056D01*
X012399Y025034D01*
X012403Y025010D01*
X012403Y024986D01*
X012399Y024962D01*
X012391Y024940D01*
X012380Y024918D01*
X012365Y024900D01*
X012346Y024884D01*
X012326Y024871D01*
X012304Y024862D01*
X012280Y024857D01*
X012256Y024856D01*
X012232Y024859D01*
X012209Y024866D01*
X012188Y024877D01*
X012168Y024891D01*
X012152Y024909D01*
X012138Y024929D01*
X012128Y024951D01*
X012122Y024974D01*
X012120Y024998D01*
X010981Y025628D02*
X010983Y025652D01*
X010989Y025675D01*
X010999Y025696D01*
X011013Y025715D01*
X011030Y025732D01*
X011049Y025746D01*
X011070Y025756D01*
X011093Y025762D01*
X011117Y025764D01*
X011141Y025762D01*
X011164Y025756D01*
X011185Y025746D01*
X011204Y025732D01*
X011221Y025715D01*
X011235Y025696D01*
X011245Y025675D01*
X011251Y025652D01*
X011253Y025628D01*
X011251Y025604D01*
X011245Y025581D01*
X011235Y025560D01*
X011221Y025541D01*
X011204Y025524D01*
X011185Y025510D01*
X011164Y025500D01*
X011141Y025494D01*
X011117Y025492D01*
X011093Y025494D01*
X011070Y025500D01*
X011049Y025510D01*
X011030Y025524D01*
X011013Y025541D01*
X010999Y025560D01*
X010989Y025581D01*
X010983Y025604D01*
X010981Y025628D01*
X009829Y026263D02*
X009831Y026287D01*
X009837Y026310D01*
X009847Y026332D01*
X009861Y026352D01*
X009878Y026369D01*
X009898Y026383D01*
X009920Y026393D01*
X009943Y026399D01*
X009967Y026401D01*
X009991Y026399D01*
X010014Y026393D01*
X010036Y026383D01*
X010056Y026369D01*
X010073Y026352D01*
X010087Y026332D01*
X010097Y026310D01*
X010103Y026287D01*
X010105Y026263D01*
X010103Y026239D01*
X010097Y026216D01*
X010087Y026194D01*
X010073Y026174D01*
X010056Y026157D01*
X010036Y026143D01*
X010014Y026133D01*
X009991Y026127D01*
X009967Y026125D01*
X009943Y026127D01*
X009920Y026133D01*
X009898Y026143D01*
X009878Y026157D01*
X009861Y026174D01*
X009847Y026194D01*
X009837Y026216D01*
X009831Y026239D01*
X009829Y026263D01*
X009827Y024993D02*
X009829Y025016D01*
X009835Y025039D01*
X009845Y025061D01*
X009859Y025080D01*
X009875Y025096D01*
X009894Y025110D01*
X009916Y025120D01*
X009939Y025126D01*
X009962Y025128D01*
X009985Y025126D01*
X010008Y025120D01*
X010029Y025110D01*
X010049Y025096D01*
X010065Y025080D01*
X010079Y025061D01*
X010089Y025039D01*
X010095Y025016D01*
X010097Y024993D01*
X010095Y024970D01*
X010089Y024947D01*
X010079Y024926D01*
X010065Y024906D01*
X010049Y024890D01*
X010030Y024876D01*
X010008Y024866D01*
X009985Y024860D01*
X009962Y024858D01*
X009939Y024860D01*
X009916Y024866D01*
X009894Y024876D01*
X009875Y024890D01*
X009859Y024906D01*
X009845Y024925D01*
X009835Y024947D01*
X009829Y024970D01*
X009827Y024993D01*
X012202Y026238D02*
X012202Y026308D01*
X013572Y026298D02*
X013572Y026188D01*
X013862Y026273D02*
X013864Y026297D01*
X013870Y026320D01*
X013880Y026341D01*
X013893Y026361D01*
X013910Y026378D01*
X013929Y026392D01*
X013950Y026403D01*
X013973Y026410D01*
X013996Y026413D01*
X014020Y026412D01*
X014043Y026407D01*
X014065Y026398D01*
X014085Y026386D01*
X014103Y026370D01*
X014118Y026351D01*
X014130Y026331D01*
X014137Y026308D01*
X014141Y026285D01*
X014141Y026261D01*
X014137Y026238D01*
X014130Y026215D01*
X014118Y026195D01*
X014103Y026176D01*
X014085Y026160D01*
X014065Y026148D01*
X014043Y026139D01*
X014020Y026134D01*
X013996Y026133D01*
X013973Y026136D01*
X013950Y026143D01*
X013929Y026154D01*
X013910Y026168D01*
X013893Y026185D01*
X013880Y026205D01*
X013870Y026226D01*
X013864Y026249D01*
X013862Y026273D01*
D16*
X014752Y026238D02*
X014752Y025178D01*
X014572Y024998D01*
X014182Y024998D01*
X015212Y025208D02*
X015212Y026028D01*
X015442Y026258D01*
X015862Y026258D01*
X016082Y026038D01*
X016082Y025968D01*
X016082Y025558D02*
X016082Y025218D01*
X015862Y024998D01*
X015422Y024998D01*
X015212Y025208D01*
X012942Y026048D02*
X012902Y026048D01*
D17*
X015943Y025758D02*
X015945Y025781D01*
X015951Y025804D01*
X015961Y025826D01*
X015974Y025845D01*
X015990Y025862D01*
X016009Y025876D01*
X016030Y025887D01*
X016053Y025894D01*
X016076Y025897D01*
X016100Y025896D01*
X016123Y025891D01*
X016145Y025882D01*
X016165Y025870D01*
X016182Y025854D01*
X016197Y025836D01*
X016209Y025815D01*
X016217Y025793D01*
X016220Y025770D01*
X016220Y025746D01*
X016217Y025723D01*
X016209Y025701D01*
X016197Y025680D01*
X016182Y025662D01*
X016165Y025646D01*
X016145Y025634D01*
X016123Y025625D01*
X016100Y025620D01*
X016076Y025619D01*
X016053Y025622D01*
X016030Y025629D01*
X016009Y025640D01*
X015990Y025654D01*
X015974Y025671D01*
X015961Y025690D01*
X015951Y025712D01*
X015945Y025735D01*
X015943Y025758D01*
D18*
X013992Y025468D02*
X013992Y026048D01*
X011762Y025633D02*
X011287Y025633D01*
X010612Y025448D02*
X010592Y025468D01*
X010457Y025468D01*
X010437Y025448D01*
X010442Y025788D02*
X010582Y025788D01*
D19*
X010612Y025808D02*
X011062Y026248D01*
X011572Y026248D01*
X011762Y026048D01*
X011762Y025633D01*
X011757Y025638D02*
X011757Y025168D01*
X011587Y024998D01*
X011062Y024998D01*
X010612Y025448D01*
X010437Y025448D02*
X010102Y025128D01*
X010432Y025808D02*
X010112Y026128D01*
X012262Y026238D02*
X012262Y025198D01*
X012852Y026048D02*
X012612Y026238D01*
X012262Y026238D01*
X012902Y026048D02*
X012902Y025758D01*
X012942Y026048D02*
X013172Y026238D01*
X013512Y026238D01*
X013512Y025198D01*
D20*
X007847Y009138D03*
D21*
X007866Y009138D02*
X008417Y009375D01*
X008417Y008902D01*
X007866Y009138D01*
M02*
