G75*
G70*
%OFA0B0*%
%FSLAX24Y24*%
%IPPOS*%
%LPD*%
%AMOC8*
5,1,8,0,0,1.08239X$1,22.5*
%
%ADD10R,0.0240X0.0230*%
%ADD11R,0.0230X0.0240*%
%ADD12R,0.0400X0.0400*%
%ADD13R,0.0945X0.0709*%
%ADD14R,0.0394X0.0551*%
%ADD15R,0.0315X0.0315*%
%ADD16R,0.0472X0.0217*%
%ADD17R,0.0630X0.1181*%
%ADD18C,0.0126*%
%ADD19R,0.0433X0.0866*%
%ADD20R,0.0394X0.0433*%
%ADD21R,0.0551X0.0472*%
D10*
X013352Y015338D03*
X013752Y015338D03*
X015002Y015088D03*
X015402Y015088D03*
X014452Y018188D03*
X014052Y018188D03*
X014152Y021288D03*
X014152Y021638D03*
X014152Y021988D03*
X014552Y021988D03*
X014552Y021638D03*
X014552Y021288D03*
X013002Y021288D03*
X013002Y021638D03*
X012602Y021638D03*
X012602Y021288D03*
X016352Y021438D03*
X016752Y021438D03*
X016752Y021838D03*
X016352Y021838D03*
D11*
X015952Y021838D03*
X015952Y021438D03*
X014002Y019338D03*
X014002Y018938D03*
X013452Y021258D03*
X013452Y021658D03*
X008752Y014538D03*
X008752Y014138D03*
X006852Y017188D03*
X006852Y017588D03*
X006852Y018988D03*
X006852Y019388D03*
D12*
X007502Y009738D03*
X008102Y009738D03*
X008102Y010438D03*
X007502Y010438D03*
X007802Y011888D03*
X008502Y011888D03*
X008252Y012488D03*
X008252Y013188D03*
X009102Y011888D03*
X009102Y011288D03*
X009802Y011288D03*
X009802Y011888D03*
X010602Y011438D03*
X010602Y010838D03*
X011302Y010838D03*
X011302Y011438D03*
X011902Y010838D03*
X012152Y010238D03*
X012152Y009538D03*
X012602Y010838D03*
X013052Y011838D03*
X012902Y012488D03*
X013502Y012488D03*
X013752Y011838D03*
X014352Y011838D03*
X014352Y011238D03*
X015052Y011238D03*
X015052Y011838D03*
X015652Y010988D03*
X016352Y010988D03*
X017302Y010738D03*
X017302Y011438D03*
X016802Y013938D03*
X016802Y014538D03*
X016102Y014538D03*
X016102Y013938D03*
X016402Y016688D03*
X015702Y016688D03*
X015702Y017588D03*
X015702Y018288D03*
X015052Y018288D03*
X014752Y017688D03*
X014752Y017088D03*
X014052Y017088D03*
X014052Y017688D03*
X015052Y018988D03*
X015202Y019638D03*
X014502Y019638D03*
X014252Y020788D03*
X014952Y020788D03*
X011952Y021588D03*
X011252Y021588D03*
X010302Y021588D03*
X009602Y021588D03*
X008102Y020988D03*
X008102Y020288D03*
X008102Y019588D03*
X008102Y018988D03*
X007402Y018988D03*
X007402Y019588D03*
X007402Y017688D03*
X007402Y017088D03*
X008102Y017088D03*
X008102Y017688D03*
X010752Y015138D03*
X011452Y015138D03*
X012302Y013188D03*
X012302Y012488D03*
X012902Y013188D03*
X013502Y013188D03*
X009052Y025038D03*
X008352Y025038D03*
D13*
X016802Y018926D03*
X016802Y017351D03*
D14*
X008026Y013905D03*
X007652Y014771D03*
X007278Y013905D03*
D15*
X008402Y025788D03*
X009002Y025788D03*
X017302Y009988D03*
X017302Y009388D03*
D16*
X015164Y012464D03*
X015164Y012838D03*
X015164Y013212D03*
X014141Y013212D03*
X014141Y012464D03*
X011514Y010262D03*
X011514Y009514D03*
X010491Y009514D03*
X010491Y009888D03*
X010491Y010262D03*
X009914Y012464D03*
X009914Y012838D03*
X009914Y013212D03*
X008891Y013212D03*
X008891Y012464D03*
D17*
X010630Y012838D03*
X011575Y012838D03*
X009775Y009888D03*
X008830Y009888D03*
X015880Y012838D03*
X016825Y012838D03*
D18*
X013188Y016416D02*
X013190Y016425D01*
X013196Y016432D01*
X013204Y016435D01*
X013212Y016435D01*
X013220Y016432D01*
X013226Y016425D01*
X013228Y016416D01*
X013226Y016407D01*
X013220Y016400D01*
X013212Y016397D01*
X013204Y016397D01*
X013196Y016400D01*
X013190Y016407D01*
X013188Y016416D01*
X012873Y016416D02*
X012875Y016425D01*
X012881Y016432D01*
X012889Y016435D01*
X012897Y016435D01*
X012905Y016432D01*
X012911Y016425D01*
X012913Y016416D01*
X012911Y016407D01*
X012905Y016400D01*
X012897Y016397D01*
X012889Y016397D01*
X012881Y016400D01*
X012875Y016407D01*
X012873Y016416D01*
X012558Y016416D02*
X012560Y016425D01*
X012566Y016432D01*
X012574Y016435D01*
X012582Y016435D01*
X012590Y016432D01*
X012596Y016425D01*
X012598Y016416D01*
X012596Y016407D01*
X012590Y016400D01*
X012582Y016397D01*
X012574Y016397D01*
X012566Y016400D01*
X012560Y016407D01*
X012558Y016416D01*
X012243Y016416D02*
X012245Y016425D01*
X012251Y016432D01*
X012259Y016435D01*
X012267Y016435D01*
X012275Y016432D01*
X012281Y016425D01*
X012283Y016416D01*
X012281Y016407D01*
X012275Y016400D01*
X012267Y016397D01*
X012259Y016397D01*
X012251Y016400D01*
X012245Y016407D01*
X012243Y016416D01*
X011928Y016416D02*
X011930Y016425D01*
X011936Y016432D01*
X011944Y016435D01*
X011952Y016435D01*
X011960Y016432D01*
X011966Y016425D01*
X011968Y016416D01*
X011966Y016407D01*
X011960Y016400D01*
X011952Y016397D01*
X011944Y016397D01*
X011936Y016400D01*
X011930Y016407D01*
X011928Y016416D01*
X011928Y016731D02*
X011930Y016740D01*
X011936Y016747D01*
X011944Y016750D01*
X011952Y016750D01*
X011960Y016747D01*
X011966Y016740D01*
X011968Y016731D01*
X011966Y016722D01*
X011960Y016715D01*
X011952Y016712D01*
X011944Y016712D01*
X011936Y016715D01*
X011930Y016722D01*
X011928Y016731D01*
X011928Y017046D02*
X011930Y017055D01*
X011936Y017062D01*
X011944Y017065D01*
X011952Y017065D01*
X011960Y017062D01*
X011966Y017055D01*
X011968Y017046D01*
X011966Y017037D01*
X011960Y017030D01*
X011952Y017027D01*
X011944Y017027D01*
X011936Y017030D01*
X011930Y017037D01*
X011928Y017046D01*
X011928Y017361D02*
X011930Y017370D01*
X011936Y017377D01*
X011944Y017380D01*
X011952Y017380D01*
X011960Y017377D01*
X011966Y017370D01*
X011968Y017361D01*
X011966Y017352D01*
X011960Y017345D01*
X011952Y017342D01*
X011944Y017342D01*
X011936Y017345D01*
X011930Y017352D01*
X011928Y017361D01*
X011928Y017676D02*
X011930Y017685D01*
X011936Y017692D01*
X011944Y017695D01*
X011952Y017695D01*
X011960Y017692D01*
X011966Y017685D01*
X011968Y017676D01*
X011966Y017667D01*
X011960Y017660D01*
X011952Y017657D01*
X011944Y017657D01*
X011936Y017660D01*
X011930Y017667D01*
X011928Y017676D01*
X011928Y017991D02*
X011930Y018000D01*
X011936Y018007D01*
X011944Y018010D01*
X011952Y018010D01*
X011960Y018007D01*
X011966Y018000D01*
X011968Y017991D01*
X011966Y017982D01*
X011960Y017975D01*
X011952Y017972D01*
X011944Y017972D01*
X011936Y017975D01*
X011930Y017982D01*
X011928Y017991D01*
X011928Y018306D02*
X011930Y018315D01*
X011936Y018322D01*
X011944Y018325D01*
X011952Y018325D01*
X011960Y018322D01*
X011966Y018315D01*
X011968Y018306D01*
X011966Y018297D01*
X011960Y018290D01*
X011952Y018287D01*
X011944Y018287D01*
X011936Y018290D01*
X011930Y018297D01*
X011928Y018306D01*
X011928Y018621D02*
X011930Y018630D01*
X011936Y018637D01*
X011944Y018640D01*
X011952Y018640D01*
X011960Y018637D01*
X011966Y018630D01*
X011968Y018621D01*
X011966Y018612D01*
X011960Y018605D01*
X011952Y018602D01*
X011944Y018602D01*
X011936Y018605D01*
X011930Y018612D01*
X011928Y018621D01*
X011928Y018936D02*
X011930Y018945D01*
X011936Y018952D01*
X011944Y018955D01*
X011952Y018955D01*
X011960Y018952D01*
X011966Y018945D01*
X011968Y018936D01*
X011966Y018927D01*
X011960Y018920D01*
X011952Y018917D01*
X011944Y018917D01*
X011936Y018920D01*
X011930Y018927D01*
X011928Y018936D01*
X011928Y019251D02*
X011930Y019260D01*
X011936Y019267D01*
X011944Y019270D01*
X011952Y019270D01*
X011960Y019267D01*
X011966Y019260D01*
X011968Y019251D01*
X011966Y019242D01*
X011960Y019235D01*
X011952Y019232D01*
X011944Y019232D01*
X011936Y019235D01*
X011930Y019242D01*
X011928Y019251D01*
X011928Y019566D02*
X011930Y019575D01*
X011936Y019582D01*
X011944Y019585D01*
X011952Y019585D01*
X011960Y019582D01*
X011966Y019575D01*
X011968Y019566D01*
X011966Y019557D01*
X011960Y019550D01*
X011952Y019547D01*
X011944Y019547D01*
X011936Y019550D01*
X011930Y019557D01*
X011928Y019566D01*
X011928Y019881D02*
X011930Y019890D01*
X011936Y019897D01*
X011944Y019900D01*
X011952Y019900D01*
X011960Y019897D01*
X011966Y019890D01*
X011968Y019881D01*
X011966Y019872D01*
X011960Y019865D01*
X011952Y019862D01*
X011944Y019862D01*
X011936Y019865D01*
X011930Y019872D01*
X011928Y019881D01*
X011928Y020196D02*
X011930Y020205D01*
X011936Y020212D01*
X011944Y020215D01*
X011952Y020215D01*
X011960Y020212D01*
X011966Y020205D01*
X011968Y020196D01*
X011966Y020187D01*
X011960Y020180D01*
X011952Y020177D01*
X011944Y020177D01*
X011936Y020180D01*
X011930Y020187D01*
X011928Y020196D01*
X011928Y020511D02*
X011930Y020520D01*
X011936Y020527D01*
X011944Y020530D01*
X011952Y020530D01*
X011960Y020527D01*
X011966Y020520D01*
X011968Y020511D01*
X011966Y020502D01*
X011960Y020495D01*
X011952Y020492D01*
X011944Y020492D01*
X011936Y020495D01*
X011930Y020502D01*
X011928Y020511D01*
X012243Y020511D02*
X012245Y020520D01*
X012251Y020527D01*
X012259Y020530D01*
X012267Y020530D01*
X012275Y020527D01*
X012281Y020520D01*
X012283Y020511D01*
X012281Y020502D01*
X012275Y020495D01*
X012267Y020492D01*
X012259Y020492D01*
X012251Y020495D01*
X012245Y020502D01*
X012243Y020511D01*
X012243Y020196D02*
X012245Y020205D01*
X012251Y020212D01*
X012259Y020215D01*
X012267Y020215D01*
X012275Y020212D01*
X012281Y020205D01*
X012283Y020196D01*
X012281Y020187D01*
X012275Y020180D01*
X012267Y020177D01*
X012259Y020177D01*
X012251Y020180D01*
X012245Y020187D01*
X012243Y020196D01*
X012243Y019881D02*
X012245Y019890D01*
X012251Y019897D01*
X012259Y019900D01*
X012267Y019900D01*
X012275Y019897D01*
X012281Y019890D01*
X012283Y019881D01*
X012281Y019872D01*
X012275Y019865D01*
X012267Y019862D01*
X012259Y019862D01*
X012251Y019865D01*
X012245Y019872D01*
X012243Y019881D01*
X012243Y019566D02*
X012245Y019575D01*
X012251Y019582D01*
X012259Y019585D01*
X012267Y019585D01*
X012275Y019582D01*
X012281Y019575D01*
X012283Y019566D01*
X012281Y019557D01*
X012275Y019550D01*
X012267Y019547D01*
X012259Y019547D01*
X012251Y019550D01*
X012245Y019557D01*
X012243Y019566D01*
X012243Y019251D02*
X012245Y019260D01*
X012251Y019267D01*
X012259Y019270D01*
X012267Y019270D01*
X012275Y019267D01*
X012281Y019260D01*
X012283Y019251D01*
X012281Y019242D01*
X012275Y019235D01*
X012267Y019232D01*
X012259Y019232D01*
X012251Y019235D01*
X012245Y019242D01*
X012243Y019251D01*
X012243Y018936D02*
X012245Y018945D01*
X012251Y018952D01*
X012259Y018955D01*
X012267Y018955D01*
X012275Y018952D01*
X012281Y018945D01*
X012283Y018936D01*
X012281Y018927D01*
X012275Y018920D01*
X012267Y018917D01*
X012259Y018917D01*
X012251Y018920D01*
X012245Y018927D01*
X012243Y018936D01*
X012243Y018621D02*
X012245Y018630D01*
X012251Y018637D01*
X012259Y018640D01*
X012267Y018640D01*
X012275Y018637D01*
X012281Y018630D01*
X012283Y018621D01*
X012281Y018612D01*
X012275Y018605D01*
X012267Y018602D01*
X012259Y018602D01*
X012251Y018605D01*
X012245Y018612D01*
X012243Y018621D01*
X012243Y018306D02*
X012245Y018315D01*
X012251Y018322D01*
X012259Y018325D01*
X012267Y018325D01*
X012275Y018322D01*
X012281Y018315D01*
X012283Y018306D01*
X012281Y018297D01*
X012275Y018290D01*
X012267Y018287D01*
X012259Y018287D01*
X012251Y018290D01*
X012245Y018297D01*
X012243Y018306D01*
X012243Y017991D02*
X012245Y018000D01*
X012251Y018007D01*
X012259Y018010D01*
X012267Y018010D01*
X012275Y018007D01*
X012281Y018000D01*
X012283Y017991D01*
X012281Y017982D01*
X012275Y017975D01*
X012267Y017972D01*
X012259Y017972D01*
X012251Y017975D01*
X012245Y017982D01*
X012243Y017991D01*
X012243Y017676D02*
X012245Y017685D01*
X012251Y017692D01*
X012259Y017695D01*
X012267Y017695D01*
X012275Y017692D01*
X012281Y017685D01*
X012283Y017676D01*
X012281Y017667D01*
X012275Y017660D01*
X012267Y017657D01*
X012259Y017657D01*
X012251Y017660D01*
X012245Y017667D01*
X012243Y017676D01*
X012243Y017361D02*
X012245Y017370D01*
X012251Y017377D01*
X012259Y017380D01*
X012267Y017380D01*
X012275Y017377D01*
X012281Y017370D01*
X012283Y017361D01*
X012281Y017352D01*
X012275Y017345D01*
X012267Y017342D01*
X012259Y017342D01*
X012251Y017345D01*
X012245Y017352D01*
X012243Y017361D01*
X012243Y017046D02*
X012245Y017055D01*
X012251Y017062D01*
X012259Y017065D01*
X012267Y017065D01*
X012275Y017062D01*
X012281Y017055D01*
X012283Y017046D01*
X012281Y017037D01*
X012275Y017030D01*
X012267Y017027D01*
X012259Y017027D01*
X012251Y017030D01*
X012245Y017037D01*
X012243Y017046D01*
X012243Y016731D02*
X012245Y016740D01*
X012251Y016747D01*
X012259Y016750D01*
X012267Y016750D01*
X012275Y016747D01*
X012281Y016740D01*
X012283Y016731D01*
X012281Y016722D01*
X012275Y016715D01*
X012267Y016712D01*
X012259Y016712D01*
X012251Y016715D01*
X012245Y016722D01*
X012243Y016731D01*
X012558Y016731D02*
X012560Y016740D01*
X012566Y016747D01*
X012574Y016750D01*
X012582Y016750D01*
X012590Y016747D01*
X012596Y016740D01*
X012598Y016731D01*
X012596Y016722D01*
X012590Y016715D01*
X012582Y016712D01*
X012574Y016712D01*
X012566Y016715D01*
X012560Y016722D01*
X012558Y016731D01*
X012558Y017046D02*
X012560Y017055D01*
X012566Y017062D01*
X012574Y017065D01*
X012582Y017065D01*
X012590Y017062D01*
X012596Y017055D01*
X012598Y017046D01*
X012596Y017037D01*
X012590Y017030D01*
X012582Y017027D01*
X012574Y017027D01*
X012566Y017030D01*
X012560Y017037D01*
X012558Y017046D01*
X012558Y017361D02*
X012560Y017370D01*
X012566Y017377D01*
X012574Y017380D01*
X012582Y017380D01*
X012590Y017377D01*
X012596Y017370D01*
X012598Y017361D01*
X012596Y017352D01*
X012590Y017345D01*
X012582Y017342D01*
X012574Y017342D01*
X012566Y017345D01*
X012560Y017352D01*
X012558Y017361D01*
X012558Y017676D02*
X012560Y017685D01*
X012566Y017692D01*
X012574Y017695D01*
X012582Y017695D01*
X012590Y017692D01*
X012596Y017685D01*
X012598Y017676D01*
X012596Y017667D01*
X012590Y017660D01*
X012582Y017657D01*
X012574Y017657D01*
X012566Y017660D01*
X012560Y017667D01*
X012558Y017676D01*
X012558Y017991D02*
X012560Y018000D01*
X012566Y018007D01*
X012574Y018010D01*
X012582Y018010D01*
X012590Y018007D01*
X012596Y018000D01*
X012598Y017991D01*
X012596Y017982D01*
X012590Y017975D01*
X012582Y017972D01*
X012574Y017972D01*
X012566Y017975D01*
X012560Y017982D01*
X012558Y017991D01*
X012558Y018306D02*
X012560Y018315D01*
X012566Y018322D01*
X012574Y018325D01*
X012582Y018325D01*
X012590Y018322D01*
X012596Y018315D01*
X012598Y018306D01*
X012596Y018297D01*
X012590Y018290D01*
X012582Y018287D01*
X012574Y018287D01*
X012566Y018290D01*
X012560Y018297D01*
X012558Y018306D01*
X012558Y018621D02*
X012560Y018630D01*
X012566Y018637D01*
X012574Y018640D01*
X012582Y018640D01*
X012590Y018637D01*
X012596Y018630D01*
X012598Y018621D01*
X012596Y018612D01*
X012590Y018605D01*
X012582Y018602D01*
X012574Y018602D01*
X012566Y018605D01*
X012560Y018612D01*
X012558Y018621D01*
X012558Y018936D02*
X012560Y018945D01*
X012566Y018952D01*
X012574Y018955D01*
X012582Y018955D01*
X012590Y018952D01*
X012596Y018945D01*
X012598Y018936D01*
X012596Y018927D01*
X012590Y018920D01*
X012582Y018917D01*
X012574Y018917D01*
X012566Y018920D01*
X012560Y018927D01*
X012558Y018936D01*
X012558Y019251D02*
X012560Y019260D01*
X012566Y019267D01*
X012574Y019270D01*
X012582Y019270D01*
X012590Y019267D01*
X012596Y019260D01*
X012598Y019251D01*
X012596Y019242D01*
X012590Y019235D01*
X012582Y019232D01*
X012574Y019232D01*
X012566Y019235D01*
X012560Y019242D01*
X012558Y019251D01*
X012558Y019566D02*
X012560Y019575D01*
X012566Y019582D01*
X012574Y019585D01*
X012582Y019585D01*
X012590Y019582D01*
X012596Y019575D01*
X012598Y019566D01*
X012596Y019557D01*
X012590Y019550D01*
X012582Y019547D01*
X012574Y019547D01*
X012566Y019550D01*
X012560Y019557D01*
X012558Y019566D01*
X012558Y019881D02*
X012560Y019890D01*
X012566Y019897D01*
X012574Y019900D01*
X012582Y019900D01*
X012590Y019897D01*
X012596Y019890D01*
X012598Y019881D01*
X012596Y019872D01*
X012590Y019865D01*
X012582Y019862D01*
X012574Y019862D01*
X012566Y019865D01*
X012560Y019872D01*
X012558Y019881D01*
X012558Y020196D02*
X012560Y020205D01*
X012566Y020212D01*
X012574Y020215D01*
X012582Y020215D01*
X012590Y020212D01*
X012596Y020205D01*
X012598Y020196D01*
X012596Y020187D01*
X012590Y020180D01*
X012582Y020177D01*
X012574Y020177D01*
X012566Y020180D01*
X012560Y020187D01*
X012558Y020196D01*
X012558Y020511D02*
X012560Y020520D01*
X012566Y020527D01*
X012574Y020530D01*
X012582Y020530D01*
X012590Y020527D01*
X012596Y020520D01*
X012598Y020511D01*
X012596Y020502D01*
X012590Y020495D01*
X012582Y020492D01*
X012574Y020492D01*
X012566Y020495D01*
X012560Y020502D01*
X012558Y020511D01*
X012873Y020511D02*
X012875Y020520D01*
X012881Y020527D01*
X012889Y020530D01*
X012897Y020530D01*
X012905Y020527D01*
X012911Y020520D01*
X012913Y020511D01*
X012911Y020502D01*
X012905Y020495D01*
X012897Y020492D01*
X012889Y020492D01*
X012881Y020495D01*
X012875Y020502D01*
X012873Y020511D01*
X012873Y020196D02*
X012875Y020205D01*
X012881Y020212D01*
X012889Y020215D01*
X012897Y020215D01*
X012905Y020212D01*
X012911Y020205D01*
X012913Y020196D01*
X012911Y020187D01*
X012905Y020180D01*
X012897Y020177D01*
X012889Y020177D01*
X012881Y020180D01*
X012875Y020187D01*
X012873Y020196D01*
X012873Y019881D02*
X012875Y019890D01*
X012881Y019897D01*
X012889Y019900D01*
X012897Y019900D01*
X012905Y019897D01*
X012911Y019890D01*
X012913Y019881D01*
X012911Y019872D01*
X012905Y019865D01*
X012897Y019862D01*
X012889Y019862D01*
X012881Y019865D01*
X012875Y019872D01*
X012873Y019881D01*
X012873Y019566D02*
X012875Y019575D01*
X012881Y019582D01*
X012889Y019585D01*
X012897Y019585D01*
X012905Y019582D01*
X012911Y019575D01*
X012913Y019566D01*
X012911Y019557D01*
X012905Y019550D01*
X012897Y019547D01*
X012889Y019547D01*
X012881Y019550D01*
X012875Y019557D01*
X012873Y019566D01*
X012873Y019251D02*
X012875Y019260D01*
X012881Y019267D01*
X012889Y019270D01*
X012897Y019270D01*
X012905Y019267D01*
X012911Y019260D01*
X012913Y019251D01*
X012911Y019242D01*
X012905Y019235D01*
X012897Y019232D01*
X012889Y019232D01*
X012881Y019235D01*
X012875Y019242D01*
X012873Y019251D01*
X012873Y018936D02*
X012875Y018945D01*
X012881Y018952D01*
X012889Y018955D01*
X012897Y018955D01*
X012905Y018952D01*
X012911Y018945D01*
X012913Y018936D01*
X012911Y018927D01*
X012905Y018920D01*
X012897Y018917D01*
X012889Y018917D01*
X012881Y018920D01*
X012875Y018927D01*
X012873Y018936D01*
X012873Y018621D02*
X012875Y018630D01*
X012881Y018637D01*
X012889Y018640D01*
X012897Y018640D01*
X012905Y018637D01*
X012911Y018630D01*
X012913Y018621D01*
X012911Y018612D01*
X012905Y018605D01*
X012897Y018602D01*
X012889Y018602D01*
X012881Y018605D01*
X012875Y018612D01*
X012873Y018621D01*
X012873Y018306D02*
X012875Y018315D01*
X012881Y018322D01*
X012889Y018325D01*
X012897Y018325D01*
X012905Y018322D01*
X012911Y018315D01*
X012913Y018306D01*
X012911Y018297D01*
X012905Y018290D01*
X012897Y018287D01*
X012889Y018287D01*
X012881Y018290D01*
X012875Y018297D01*
X012873Y018306D01*
X012873Y017991D02*
X012875Y018000D01*
X012881Y018007D01*
X012889Y018010D01*
X012897Y018010D01*
X012905Y018007D01*
X012911Y018000D01*
X012913Y017991D01*
X012911Y017982D01*
X012905Y017975D01*
X012897Y017972D01*
X012889Y017972D01*
X012881Y017975D01*
X012875Y017982D01*
X012873Y017991D01*
X012873Y017676D02*
X012875Y017685D01*
X012881Y017692D01*
X012889Y017695D01*
X012897Y017695D01*
X012905Y017692D01*
X012911Y017685D01*
X012913Y017676D01*
X012911Y017667D01*
X012905Y017660D01*
X012897Y017657D01*
X012889Y017657D01*
X012881Y017660D01*
X012875Y017667D01*
X012873Y017676D01*
X012873Y017361D02*
X012875Y017370D01*
X012881Y017377D01*
X012889Y017380D01*
X012897Y017380D01*
X012905Y017377D01*
X012911Y017370D01*
X012913Y017361D01*
X012911Y017352D01*
X012905Y017345D01*
X012897Y017342D01*
X012889Y017342D01*
X012881Y017345D01*
X012875Y017352D01*
X012873Y017361D01*
X012873Y017046D02*
X012875Y017055D01*
X012881Y017062D01*
X012889Y017065D01*
X012897Y017065D01*
X012905Y017062D01*
X012911Y017055D01*
X012913Y017046D01*
X012911Y017037D01*
X012905Y017030D01*
X012897Y017027D01*
X012889Y017027D01*
X012881Y017030D01*
X012875Y017037D01*
X012873Y017046D01*
X012873Y016731D02*
X012875Y016740D01*
X012881Y016747D01*
X012889Y016750D01*
X012897Y016750D01*
X012905Y016747D01*
X012911Y016740D01*
X012913Y016731D01*
X012911Y016722D01*
X012905Y016715D01*
X012897Y016712D01*
X012889Y016712D01*
X012881Y016715D01*
X012875Y016722D01*
X012873Y016731D01*
X013188Y016731D02*
X013190Y016740D01*
X013196Y016747D01*
X013204Y016750D01*
X013212Y016750D01*
X013220Y016747D01*
X013226Y016740D01*
X013228Y016731D01*
X013226Y016722D01*
X013220Y016715D01*
X013212Y016712D01*
X013204Y016712D01*
X013196Y016715D01*
X013190Y016722D01*
X013188Y016731D01*
X013188Y017046D02*
X013190Y017055D01*
X013196Y017062D01*
X013204Y017065D01*
X013212Y017065D01*
X013220Y017062D01*
X013226Y017055D01*
X013228Y017046D01*
X013226Y017037D01*
X013220Y017030D01*
X013212Y017027D01*
X013204Y017027D01*
X013196Y017030D01*
X013190Y017037D01*
X013188Y017046D01*
X013188Y017361D02*
X013190Y017370D01*
X013196Y017377D01*
X013204Y017380D01*
X013212Y017380D01*
X013220Y017377D01*
X013226Y017370D01*
X013228Y017361D01*
X013226Y017352D01*
X013220Y017345D01*
X013212Y017342D01*
X013204Y017342D01*
X013196Y017345D01*
X013190Y017352D01*
X013188Y017361D01*
X013188Y017676D02*
X013190Y017685D01*
X013196Y017692D01*
X013204Y017695D01*
X013212Y017695D01*
X013220Y017692D01*
X013226Y017685D01*
X013228Y017676D01*
X013226Y017667D01*
X013220Y017660D01*
X013212Y017657D01*
X013204Y017657D01*
X013196Y017660D01*
X013190Y017667D01*
X013188Y017676D01*
X013188Y017991D02*
X013190Y018000D01*
X013196Y018007D01*
X013204Y018010D01*
X013212Y018010D01*
X013220Y018007D01*
X013226Y018000D01*
X013228Y017991D01*
X013226Y017982D01*
X013220Y017975D01*
X013212Y017972D01*
X013204Y017972D01*
X013196Y017975D01*
X013190Y017982D01*
X013188Y017991D01*
X013188Y018306D02*
X013190Y018315D01*
X013196Y018322D01*
X013204Y018325D01*
X013212Y018325D01*
X013220Y018322D01*
X013226Y018315D01*
X013228Y018306D01*
X013226Y018297D01*
X013220Y018290D01*
X013212Y018287D01*
X013204Y018287D01*
X013196Y018290D01*
X013190Y018297D01*
X013188Y018306D01*
X013188Y018621D02*
X013190Y018630D01*
X013196Y018637D01*
X013204Y018640D01*
X013212Y018640D01*
X013220Y018637D01*
X013226Y018630D01*
X013228Y018621D01*
X013226Y018612D01*
X013220Y018605D01*
X013212Y018602D01*
X013204Y018602D01*
X013196Y018605D01*
X013190Y018612D01*
X013188Y018621D01*
X013188Y018936D02*
X013190Y018945D01*
X013196Y018952D01*
X013204Y018955D01*
X013212Y018955D01*
X013220Y018952D01*
X013226Y018945D01*
X013228Y018936D01*
X013226Y018927D01*
X013220Y018920D01*
X013212Y018917D01*
X013204Y018917D01*
X013196Y018920D01*
X013190Y018927D01*
X013188Y018936D01*
X013188Y019251D02*
X013190Y019260D01*
X013196Y019267D01*
X013204Y019270D01*
X013212Y019270D01*
X013220Y019267D01*
X013226Y019260D01*
X013228Y019251D01*
X013226Y019242D01*
X013220Y019235D01*
X013212Y019232D01*
X013204Y019232D01*
X013196Y019235D01*
X013190Y019242D01*
X013188Y019251D01*
X013188Y019566D02*
X013190Y019575D01*
X013196Y019582D01*
X013204Y019585D01*
X013212Y019585D01*
X013220Y019582D01*
X013226Y019575D01*
X013228Y019566D01*
X013226Y019557D01*
X013220Y019550D01*
X013212Y019547D01*
X013204Y019547D01*
X013196Y019550D01*
X013190Y019557D01*
X013188Y019566D01*
X013188Y019881D02*
X013190Y019890D01*
X013196Y019897D01*
X013204Y019900D01*
X013212Y019900D01*
X013220Y019897D01*
X013226Y019890D01*
X013228Y019881D01*
X013226Y019872D01*
X013220Y019865D01*
X013212Y019862D01*
X013204Y019862D01*
X013196Y019865D01*
X013190Y019872D01*
X013188Y019881D01*
X013188Y020196D02*
X013190Y020205D01*
X013196Y020212D01*
X013204Y020215D01*
X013212Y020215D01*
X013220Y020212D01*
X013226Y020205D01*
X013228Y020196D01*
X013226Y020187D01*
X013220Y020180D01*
X013212Y020177D01*
X013204Y020177D01*
X013196Y020180D01*
X013190Y020187D01*
X013188Y020196D01*
X013188Y020511D02*
X013190Y020520D01*
X013196Y020527D01*
X013204Y020530D01*
X013212Y020530D01*
X013220Y020527D01*
X013226Y020520D01*
X013228Y020511D01*
X013226Y020502D01*
X013220Y020495D01*
X013212Y020492D01*
X013204Y020492D01*
X013196Y020495D01*
X013190Y020502D01*
X013188Y020511D01*
X011613Y020511D02*
X011615Y020520D01*
X011621Y020527D01*
X011629Y020530D01*
X011637Y020530D01*
X011645Y020527D01*
X011651Y020520D01*
X011653Y020511D01*
X011651Y020502D01*
X011645Y020495D01*
X011637Y020492D01*
X011629Y020492D01*
X011621Y020495D01*
X011615Y020502D01*
X011613Y020511D01*
X011298Y020511D02*
X011300Y020520D01*
X011306Y020527D01*
X011314Y020530D01*
X011322Y020530D01*
X011330Y020527D01*
X011336Y020520D01*
X011338Y020511D01*
X011336Y020502D01*
X011330Y020495D01*
X011322Y020492D01*
X011314Y020492D01*
X011306Y020495D01*
X011300Y020502D01*
X011298Y020511D01*
X010983Y020511D02*
X010985Y020520D01*
X010991Y020527D01*
X010999Y020530D01*
X011007Y020530D01*
X011015Y020527D01*
X011021Y020520D01*
X011023Y020511D01*
X011021Y020502D01*
X011015Y020495D01*
X011007Y020492D01*
X010999Y020492D01*
X010991Y020495D01*
X010985Y020502D01*
X010983Y020511D01*
X010983Y020196D02*
X010985Y020205D01*
X010991Y020212D01*
X010999Y020215D01*
X011007Y020215D01*
X011015Y020212D01*
X011021Y020205D01*
X011023Y020196D01*
X011021Y020187D01*
X011015Y020180D01*
X011007Y020177D01*
X010999Y020177D01*
X010991Y020180D01*
X010985Y020187D01*
X010983Y020196D01*
X010983Y019881D02*
X010985Y019890D01*
X010991Y019897D01*
X010999Y019900D01*
X011007Y019900D01*
X011015Y019897D01*
X011021Y019890D01*
X011023Y019881D01*
X011021Y019872D01*
X011015Y019865D01*
X011007Y019862D01*
X010999Y019862D01*
X010991Y019865D01*
X010985Y019872D01*
X010983Y019881D01*
X010983Y019566D02*
X010985Y019575D01*
X010991Y019582D01*
X010999Y019585D01*
X011007Y019585D01*
X011015Y019582D01*
X011021Y019575D01*
X011023Y019566D01*
X011021Y019557D01*
X011015Y019550D01*
X011007Y019547D01*
X010999Y019547D01*
X010991Y019550D01*
X010985Y019557D01*
X010983Y019566D01*
X010983Y019251D02*
X010985Y019260D01*
X010991Y019267D01*
X010999Y019270D01*
X011007Y019270D01*
X011015Y019267D01*
X011021Y019260D01*
X011023Y019251D01*
X011021Y019242D01*
X011015Y019235D01*
X011007Y019232D01*
X010999Y019232D01*
X010991Y019235D01*
X010985Y019242D01*
X010983Y019251D01*
X010983Y018936D02*
X010985Y018945D01*
X010991Y018952D01*
X010999Y018955D01*
X011007Y018955D01*
X011015Y018952D01*
X011021Y018945D01*
X011023Y018936D01*
X011021Y018927D01*
X011015Y018920D01*
X011007Y018917D01*
X010999Y018917D01*
X010991Y018920D01*
X010985Y018927D01*
X010983Y018936D01*
X010983Y018621D02*
X010985Y018630D01*
X010991Y018637D01*
X010999Y018640D01*
X011007Y018640D01*
X011015Y018637D01*
X011021Y018630D01*
X011023Y018621D01*
X011021Y018612D01*
X011015Y018605D01*
X011007Y018602D01*
X010999Y018602D01*
X010991Y018605D01*
X010985Y018612D01*
X010983Y018621D01*
X010983Y018306D02*
X010985Y018315D01*
X010991Y018322D01*
X010999Y018325D01*
X011007Y018325D01*
X011015Y018322D01*
X011021Y018315D01*
X011023Y018306D01*
X011021Y018297D01*
X011015Y018290D01*
X011007Y018287D01*
X010999Y018287D01*
X010991Y018290D01*
X010985Y018297D01*
X010983Y018306D01*
X010983Y017991D02*
X010985Y018000D01*
X010991Y018007D01*
X010999Y018010D01*
X011007Y018010D01*
X011015Y018007D01*
X011021Y018000D01*
X011023Y017991D01*
X011021Y017982D01*
X011015Y017975D01*
X011007Y017972D01*
X010999Y017972D01*
X010991Y017975D01*
X010985Y017982D01*
X010983Y017991D01*
X010983Y017676D02*
X010985Y017685D01*
X010991Y017692D01*
X010999Y017695D01*
X011007Y017695D01*
X011015Y017692D01*
X011021Y017685D01*
X011023Y017676D01*
X011021Y017667D01*
X011015Y017660D01*
X011007Y017657D01*
X010999Y017657D01*
X010991Y017660D01*
X010985Y017667D01*
X010983Y017676D01*
X010983Y017361D02*
X010985Y017370D01*
X010991Y017377D01*
X010999Y017380D01*
X011007Y017380D01*
X011015Y017377D01*
X011021Y017370D01*
X011023Y017361D01*
X011021Y017352D01*
X011015Y017345D01*
X011007Y017342D01*
X010999Y017342D01*
X010991Y017345D01*
X010985Y017352D01*
X010983Y017361D01*
X010983Y017046D02*
X010985Y017055D01*
X010991Y017062D01*
X010999Y017065D01*
X011007Y017065D01*
X011015Y017062D01*
X011021Y017055D01*
X011023Y017046D01*
X011021Y017037D01*
X011015Y017030D01*
X011007Y017027D01*
X010999Y017027D01*
X010991Y017030D01*
X010985Y017037D01*
X010983Y017046D01*
X010983Y016731D02*
X010985Y016740D01*
X010991Y016747D01*
X010999Y016750D01*
X011007Y016750D01*
X011015Y016747D01*
X011021Y016740D01*
X011023Y016731D01*
X011021Y016722D01*
X011015Y016715D01*
X011007Y016712D01*
X010999Y016712D01*
X010991Y016715D01*
X010985Y016722D01*
X010983Y016731D01*
X010983Y016416D02*
X010985Y016425D01*
X010991Y016432D01*
X010999Y016435D01*
X011007Y016435D01*
X011015Y016432D01*
X011021Y016425D01*
X011023Y016416D01*
X011021Y016407D01*
X011015Y016400D01*
X011007Y016397D01*
X010999Y016397D01*
X010991Y016400D01*
X010985Y016407D01*
X010983Y016416D01*
X011298Y016416D02*
X011300Y016425D01*
X011306Y016432D01*
X011314Y016435D01*
X011322Y016435D01*
X011330Y016432D01*
X011336Y016425D01*
X011338Y016416D01*
X011336Y016407D01*
X011330Y016400D01*
X011322Y016397D01*
X011314Y016397D01*
X011306Y016400D01*
X011300Y016407D01*
X011298Y016416D01*
X011298Y016731D02*
X011300Y016740D01*
X011306Y016747D01*
X011314Y016750D01*
X011322Y016750D01*
X011330Y016747D01*
X011336Y016740D01*
X011338Y016731D01*
X011336Y016722D01*
X011330Y016715D01*
X011322Y016712D01*
X011314Y016712D01*
X011306Y016715D01*
X011300Y016722D01*
X011298Y016731D01*
X011298Y017046D02*
X011300Y017055D01*
X011306Y017062D01*
X011314Y017065D01*
X011322Y017065D01*
X011330Y017062D01*
X011336Y017055D01*
X011338Y017046D01*
X011336Y017037D01*
X011330Y017030D01*
X011322Y017027D01*
X011314Y017027D01*
X011306Y017030D01*
X011300Y017037D01*
X011298Y017046D01*
X011298Y017361D02*
X011300Y017370D01*
X011306Y017377D01*
X011314Y017380D01*
X011322Y017380D01*
X011330Y017377D01*
X011336Y017370D01*
X011338Y017361D01*
X011336Y017352D01*
X011330Y017345D01*
X011322Y017342D01*
X011314Y017342D01*
X011306Y017345D01*
X011300Y017352D01*
X011298Y017361D01*
X011298Y017676D02*
X011300Y017685D01*
X011306Y017692D01*
X011314Y017695D01*
X011322Y017695D01*
X011330Y017692D01*
X011336Y017685D01*
X011338Y017676D01*
X011336Y017667D01*
X011330Y017660D01*
X011322Y017657D01*
X011314Y017657D01*
X011306Y017660D01*
X011300Y017667D01*
X011298Y017676D01*
X011298Y017991D02*
X011300Y018000D01*
X011306Y018007D01*
X011314Y018010D01*
X011322Y018010D01*
X011330Y018007D01*
X011336Y018000D01*
X011338Y017991D01*
X011336Y017982D01*
X011330Y017975D01*
X011322Y017972D01*
X011314Y017972D01*
X011306Y017975D01*
X011300Y017982D01*
X011298Y017991D01*
X011298Y018306D02*
X011300Y018315D01*
X011306Y018322D01*
X011314Y018325D01*
X011322Y018325D01*
X011330Y018322D01*
X011336Y018315D01*
X011338Y018306D01*
X011336Y018297D01*
X011330Y018290D01*
X011322Y018287D01*
X011314Y018287D01*
X011306Y018290D01*
X011300Y018297D01*
X011298Y018306D01*
X011298Y018621D02*
X011300Y018630D01*
X011306Y018637D01*
X011314Y018640D01*
X011322Y018640D01*
X011330Y018637D01*
X011336Y018630D01*
X011338Y018621D01*
X011336Y018612D01*
X011330Y018605D01*
X011322Y018602D01*
X011314Y018602D01*
X011306Y018605D01*
X011300Y018612D01*
X011298Y018621D01*
X011298Y018936D02*
X011300Y018945D01*
X011306Y018952D01*
X011314Y018955D01*
X011322Y018955D01*
X011330Y018952D01*
X011336Y018945D01*
X011338Y018936D01*
X011336Y018927D01*
X011330Y018920D01*
X011322Y018917D01*
X011314Y018917D01*
X011306Y018920D01*
X011300Y018927D01*
X011298Y018936D01*
X011298Y019251D02*
X011300Y019260D01*
X011306Y019267D01*
X011314Y019270D01*
X011322Y019270D01*
X011330Y019267D01*
X011336Y019260D01*
X011338Y019251D01*
X011336Y019242D01*
X011330Y019235D01*
X011322Y019232D01*
X011314Y019232D01*
X011306Y019235D01*
X011300Y019242D01*
X011298Y019251D01*
X011298Y019566D02*
X011300Y019575D01*
X011306Y019582D01*
X011314Y019585D01*
X011322Y019585D01*
X011330Y019582D01*
X011336Y019575D01*
X011338Y019566D01*
X011336Y019557D01*
X011330Y019550D01*
X011322Y019547D01*
X011314Y019547D01*
X011306Y019550D01*
X011300Y019557D01*
X011298Y019566D01*
X011298Y019881D02*
X011300Y019890D01*
X011306Y019897D01*
X011314Y019900D01*
X011322Y019900D01*
X011330Y019897D01*
X011336Y019890D01*
X011338Y019881D01*
X011336Y019872D01*
X011330Y019865D01*
X011322Y019862D01*
X011314Y019862D01*
X011306Y019865D01*
X011300Y019872D01*
X011298Y019881D01*
X011298Y020196D02*
X011300Y020205D01*
X011306Y020212D01*
X011314Y020215D01*
X011322Y020215D01*
X011330Y020212D01*
X011336Y020205D01*
X011338Y020196D01*
X011336Y020187D01*
X011330Y020180D01*
X011322Y020177D01*
X011314Y020177D01*
X011306Y020180D01*
X011300Y020187D01*
X011298Y020196D01*
X011613Y020196D02*
X011615Y020205D01*
X011621Y020212D01*
X011629Y020215D01*
X011637Y020215D01*
X011645Y020212D01*
X011651Y020205D01*
X011653Y020196D01*
X011651Y020187D01*
X011645Y020180D01*
X011637Y020177D01*
X011629Y020177D01*
X011621Y020180D01*
X011615Y020187D01*
X011613Y020196D01*
X011613Y019881D02*
X011615Y019890D01*
X011621Y019897D01*
X011629Y019900D01*
X011637Y019900D01*
X011645Y019897D01*
X011651Y019890D01*
X011653Y019881D01*
X011651Y019872D01*
X011645Y019865D01*
X011637Y019862D01*
X011629Y019862D01*
X011621Y019865D01*
X011615Y019872D01*
X011613Y019881D01*
X011613Y019566D02*
X011615Y019575D01*
X011621Y019582D01*
X011629Y019585D01*
X011637Y019585D01*
X011645Y019582D01*
X011651Y019575D01*
X011653Y019566D01*
X011651Y019557D01*
X011645Y019550D01*
X011637Y019547D01*
X011629Y019547D01*
X011621Y019550D01*
X011615Y019557D01*
X011613Y019566D01*
X011613Y019251D02*
X011615Y019260D01*
X011621Y019267D01*
X011629Y019270D01*
X011637Y019270D01*
X011645Y019267D01*
X011651Y019260D01*
X011653Y019251D01*
X011651Y019242D01*
X011645Y019235D01*
X011637Y019232D01*
X011629Y019232D01*
X011621Y019235D01*
X011615Y019242D01*
X011613Y019251D01*
X011613Y018936D02*
X011615Y018945D01*
X011621Y018952D01*
X011629Y018955D01*
X011637Y018955D01*
X011645Y018952D01*
X011651Y018945D01*
X011653Y018936D01*
X011651Y018927D01*
X011645Y018920D01*
X011637Y018917D01*
X011629Y018917D01*
X011621Y018920D01*
X011615Y018927D01*
X011613Y018936D01*
X011613Y018621D02*
X011615Y018630D01*
X011621Y018637D01*
X011629Y018640D01*
X011637Y018640D01*
X011645Y018637D01*
X011651Y018630D01*
X011653Y018621D01*
X011651Y018612D01*
X011645Y018605D01*
X011637Y018602D01*
X011629Y018602D01*
X011621Y018605D01*
X011615Y018612D01*
X011613Y018621D01*
X011613Y018306D02*
X011615Y018315D01*
X011621Y018322D01*
X011629Y018325D01*
X011637Y018325D01*
X011645Y018322D01*
X011651Y018315D01*
X011653Y018306D01*
X011651Y018297D01*
X011645Y018290D01*
X011637Y018287D01*
X011629Y018287D01*
X011621Y018290D01*
X011615Y018297D01*
X011613Y018306D01*
X011613Y017991D02*
X011615Y018000D01*
X011621Y018007D01*
X011629Y018010D01*
X011637Y018010D01*
X011645Y018007D01*
X011651Y018000D01*
X011653Y017991D01*
X011651Y017982D01*
X011645Y017975D01*
X011637Y017972D01*
X011629Y017972D01*
X011621Y017975D01*
X011615Y017982D01*
X011613Y017991D01*
X011613Y017676D02*
X011615Y017685D01*
X011621Y017692D01*
X011629Y017695D01*
X011637Y017695D01*
X011645Y017692D01*
X011651Y017685D01*
X011653Y017676D01*
X011651Y017667D01*
X011645Y017660D01*
X011637Y017657D01*
X011629Y017657D01*
X011621Y017660D01*
X011615Y017667D01*
X011613Y017676D01*
X011613Y017361D02*
X011615Y017370D01*
X011621Y017377D01*
X011629Y017380D01*
X011637Y017380D01*
X011645Y017377D01*
X011651Y017370D01*
X011653Y017361D01*
X011651Y017352D01*
X011645Y017345D01*
X011637Y017342D01*
X011629Y017342D01*
X011621Y017345D01*
X011615Y017352D01*
X011613Y017361D01*
X011613Y017046D02*
X011615Y017055D01*
X011621Y017062D01*
X011629Y017065D01*
X011637Y017065D01*
X011645Y017062D01*
X011651Y017055D01*
X011653Y017046D01*
X011651Y017037D01*
X011645Y017030D01*
X011637Y017027D01*
X011629Y017027D01*
X011621Y017030D01*
X011615Y017037D01*
X011613Y017046D01*
X011613Y016731D02*
X011615Y016740D01*
X011621Y016747D01*
X011629Y016750D01*
X011637Y016750D01*
X011645Y016747D01*
X011651Y016740D01*
X011653Y016731D01*
X011651Y016722D01*
X011645Y016715D01*
X011637Y016712D01*
X011629Y016712D01*
X011621Y016715D01*
X011615Y016722D01*
X011613Y016731D01*
X011613Y016416D02*
X011615Y016425D01*
X011621Y016432D01*
X011629Y016435D01*
X011637Y016435D01*
X011645Y016432D01*
X011651Y016425D01*
X011653Y016416D01*
X011651Y016407D01*
X011645Y016400D01*
X011637Y016397D01*
X011629Y016397D01*
X011621Y016400D01*
X011615Y016407D01*
X011613Y016416D01*
X010668Y016416D02*
X010670Y016425D01*
X010676Y016432D01*
X010684Y016435D01*
X010692Y016435D01*
X010700Y016432D01*
X010706Y016425D01*
X010708Y016416D01*
X010706Y016407D01*
X010700Y016400D01*
X010692Y016397D01*
X010684Y016397D01*
X010676Y016400D01*
X010670Y016407D01*
X010668Y016416D01*
X010353Y016416D02*
X010355Y016425D01*
X010361Y016432D01*
X010369Y016435D01*
X010377Y016435D01*
X010385Y016432D01*
X010391Y016425D01*
X010393Y016416D01*
X010391Y016407D01*
X010385Y016400D01*
X010377Y016397D01*
X010369Y016397D01*
X010361Y016400D01*
X010355Y016407D01*
X010353Y016416D01*
X010038Y016416D02*
X010040Y016425D01*
X010046Y016432D01*
X010054Y016435D01*
X010062Y016435D01*
X010070Y016432D01*
X010076Y016425D01*
X010078Y016416D01*
X010076Y016407D01*
X010070Y016400D01*
X010062Y016397D01*
X010054Y016397D01*
X010046Y016400D01*
X010040Y016407D01*
X010038Y016416D01*
X009723Y016416D02*
X009725Y016425D01*
X009731Y016432D01*
X009739Y016435D01*
X009747Y016435D01*
X009755Y016432D01*
X009761Y016425D01*
X009763Y016416D01*
X009761Y016407D01*
X009755Y016400D01*
X009747Y016397D01*
X009739Y016397D01*
X009731Y016400D01*
X009725Y016407D01*
X009723Y016416D01*
X009723Y016731D02*
X009725Y016740D01*
X009731Y016747D01*
X009739Y016750D01*
X009747Y016750D01*
X009755Y016747D01*
X009761Y016740D01*
X009763Y016731D01*
X009761Y016722D01*
X009755Y016715D01*
X009747Y016712D01*
X009739Y016712D01*
X009731Y016715D01*
X009725Y016722D01*
X009723Y016731D01*
X009723Y017046D02*
X009725Y017055D01*
X009731Y017062D01*
X009739Y017065D01*
X009747Y017065D01*
X009755Y017062D01*
X009761Y017055D01*
X009763Y017046D01*
X009761Y017037D01*
X009755Y017030D01*
X009747Y017027D01*
X009739Y017027D01*
X009731Y017030D01*
X009725Y017037D01*
X009723Y017046D01*
X009723Y017361D02*
X009725Y017370D01*
X009731Y017377D01*
X009739Y017380D01*
X009747Y017380D01*
X009755Y017377D01*
X009761Y017370D01*
X009763Y017361D01*
X009761Y017352D01*
X009755Y017345D01*
X009747Y017342D01*
X009739Y017342D01*
X009731Y017345D01*
X009725Y017352D01*
X009723Y017361D01*
X009723Y017676D02*
X009725Y017685D01*
X009731Y017692D01*
X009739Y017695D01*
X009747Y017695D01*
X009755Y017692D01*
X009761Y017685D01*
X009763Y017676D01*
X009761Y017667D01*
X009755Y017660D01*
X009747Y017657D01*
X009739Y017657D01*
X009731Y017660D01*
X009725Y017667D01*
X009723Y017676D01*
X009723Y017991D02*
X009725Y018000D01*
X009731Y018007D01*
X009739Y018010D01*
X009747Y018010D01*
X009755Y018007D01*
X009761Y018000D01*
X009763Y017991D01*
X009761Y017982D01*
X009755Y017975D01*
X009747Y017972D01*
X009739Y017972D01*
X009731Y017975D01*
X009725Y017982D01*
X009723Y017991D01*
X009723Y018306D02*
X009725Y018315D01*
X009731Y018322D01*
X009739Y018325D01*
X009747Y018325D01*
X009755Y018322D01*
X009761Y018315D01*
X009763Y018306D01*
X009761Y018297D01*
X009755Y018290D01*
X009747Y018287D01*
X009739Y018287D01*
X009731Y018290D01*
X009725Y018297D01*
X009723Y018306D01*
X009723Y018621D02*
X009725Y018630D01*
X009731Y018637D01*
X009739Y018640D01*
X009747Y018640D01*
X009755Y018637D01*
X009761Y018630D01*
X009763Y018621D01*
X009761Y018612D01*
X009755Y018605D01*
X009747Y018602D01*
X009739Y018602D01*
X009731Y018605D01*
X009725Y018612D01*
X009723Y018621D01*
X009723Y018936D02*
X009725Y018945D01*
X009731Y018952D01*
X009739Y018955D01*
X009747Y018955D01*
X009755Y018952D01*
X009761Y018945D01*
X009763Y018936D01*
X009761Y018927D01*
X009755Y018920D01*
X009747Y018917D01*
X009739Y018917D01*
X009731Y018920D01*
X009725Y018927D01*
X009723Y018936D01*
X009723Y019251D02*
X009725Y019260D01*
X009731Y019267D01*
X009739Y019270D01*
X009747Y019270D01*
X009755Y019267D01*
X009761Y019260D01*
X009763Y019251D01*
X009761Y019242D01*
X009755Y019235D01*
X009747Y019232D01*
X009739Y019232D01*
X009731Y019235D01*
X009725Y019242D01*
X009723Y019251D01*
X009723Y019566D02*
X009725Y019575D01*
X009731Y019582D01*
X009739Y019585D01*
X009747Y019585D01*
X009755Y019582D01*
X009761Y019575D01*
X009763Y019566D01*
X009761Y019557D01*
X009755Y019550D01*
X009747Y019547D01*
X009739Y019547D01*
X009731Y019550D01*
X009725Y019557D01*
X009723Y019566D01*
X009723Y019881D02*
X009725Y019890D01*
X009731Y019897D01*
X009739Y019900D01*
X009747Y019900D01*
X009755Y019897D01*
X009761Y019890D01*
X009763Y019881D01*
X009761Y019872D01*
X009755Y019865D01*
X009747Y019862D01*
X009739Y019862D01*
X009731Y019865D01*
X009725Y019872D01*
X009723Y019881D01*
X009723Y020196D02*
X009725Y020205D01*
X009731Y020212D01*
X009739Y020215D01*
X009747Y020215D01*
X009755Y020212D01*
X009761Y020205D01*
X009763Y020196D01*
X009761Y020187D01*
X009755Y020180D01*
X009747Y020177D01*
X009739Y020177D01*
X009731Y020180D01*
X009725Y020187D01*
X009723Y020196D01*
X009723Y020511D02*
X009725Y020520D01*
X009731Y020527D01*
X009739Y020530D01*
X009747Y020530D01*
X009755Y020527D01*
X009761Y020520D01*
X009763Y020511D01*
X009761Y020502D01*
X009755Y020495D01*
X009747Y020492D01*
X009739Y020492D01*
X009731Y020495D01*
X009725Y020502D01*
X009723Y020511D01*
X010038Y020511D02*
X010040Y020520D01*
X010046Y020527D01*
X010054Y020530D01*
X010062Y020530D01*
X010070Y020527D01*
X010076Y020520D01*
X010078Y020511D01*
X010076Y020502D01*
X010070Y020495D01*
X010062Y020492D01*
X010054Y020492D01*
X010046Y020495D01*
X010040Y020502D01*
X010038Y020511D01*
X010038Y020196D02*
X010040Y020205D01*
X010046Y020212D01*
X010054Y020215D01*
X010062Y020215D01*
X010070Y020212D01*
X010076Y020205D01*
X010078Y020196D01*
X010076Y020187D01*
X010070Y020180D01*
X010062Y020177D01*
X010054Y020177D01*
X010046Y020180D01*
X010040Y020187D01*
X010038Y020196D01*
X010038Y019881D02*
X010040Y019890D01*
X010046Y019897D01*
X010054Y019900D01*
X010062Y019900D01*
X010070Y019897D01*
X010076Y019890D01*
X010078Y019881D01*
X010076Y019872D01*
X010070Y019865D01*
X010062Y019862D01*
X010054Y019862D01*
X010046Y019865D01*
X010040Y019872D01*
X010038Y019881D01*
X010038Y019566D02*
X010040Y019575D01*
X010046Y019582D01*
X010054Y019585D01*
X010062Y019585D01*
X010070Y019582D01*
X010076Y019575D01*
X010078Y019566D01*
X010076Y019557D01*
X010070Y019550D01*
X010062Y019547D01*
X010054Y019547D01*
X010046Y019550D01*
X010040Y019557D01*
X010038Y019566D01*
X010038Y019251D02*
X010040Y019260D01*
X010046Y019267D01*
X010054Y019270D01*
X010062Y019270D01*
X010070Y019267D01*
X010076Y019260D01*
X010078Y019251D01*
X010076Y019242D01*
X010070Y019235D01*
X010062Y019232D01*
X010054Y019232D01*
X010046Y019235D01*
X010040Y019242D01*
X010038Y019251D01*
X010038Y018936D02*
X010040Y018945D01*
X010046Y018952D01*
X010054Y018955D01*
X010062Y018955D01*
X010070Y018952D01*
X010076Y018945D01*
X010078Y018936D01*
X010076Y018927D01*
X010070Y018920D01*
X010062Y018917D01*
X010054Y018917D01*
X010046Y018920D01*
X010040Y018927D01*
X010038Y018936D01*
X010038Y018621D02*
X010040Y018630D01*
X010046Y018637D01*
X010054Y018640D01*
X010062Y018640D01*
X010070Y018637D01*
X010076Y018630D01*
X010078Y018621D01*
X010076Y018612D01*
X010070Y018605D01*
X010062Y018602D01*
X010054Y018602D01*
X010046Y018605D01*
X010040Y018612D01*
X010038Y018621D01*
X010038Y018306D02*
X010040Y018315D01*
X010046Y018322D01*
X010054Y018325D01*
X010062Y018325D01*
X010070Y018322D01*
X010076Y018315D01*
X010078Y018306D01*
X010076Y018297D01*
X010070Y018290D01*
X010062Y018287D01*
X010054Y018287D01*
X010046Y018290D01*
X010040Y018297D01*
X010038Y018306D01*
X010038Y017991D02*
X010040Y018000D01*
X010046Y018007D01*
X010054Y018010D01*
X010062Y018010D01*
X010070Y018007D01*
X010076Y018000D01*
X010078Y017991D01*
X010076Y017982D01*
X010070Y017975D01*
X010062Y017972D01*
X010054Y017972D01*
X010046Y017975D01*
X010040Y017982D01*
X010038Y017991D01*
X010038Y017676D02*
X010040Y017685D01*
X010046Y017692D01*
X010054Y017695D01*
X010062Y017695D01*
X010070Y017692D01*
X010076Y017685D01*
X010078Y017676D01*
X010076Y017667D01*
X010070Y017660D01*
X010062Y017657D01*
X010054Y017657D01*
X010046Y017660D01*
X010040Y017667D01*
X010038Y017676D01*
X010038Y017361D02*
X010040Y017370D01*
X010046Y017377D01*
X010054Y017380D01*
X010062Y017380D01*
X010070Y017377D01*
X010076Y017370D01*
X010078Y017361D01*
X010076Y017352D01*
X010070Y017345D01*
X010062Y017342D01*
X010054Y017342D01*
X010046Y017345D01*
X010040Y017352D01*
X010038Y017361D01*
X010038Y017046D02*
X010040Y017055D01*
X010046Y017062D01*
X010054Y017065D01*
X010062Y017065D01*
X010070Y017062D01*
X010076Y017055D01*
X010078Y017046D01*
X010076Y017037D01*
X010070Y017030D01*
X010062Y017027D01*
X010054Y017027D01*
X010046Y017030D01*
X010040Y017037D01*
X010038Y017046D01*
X010038Y016731D02*
X010040Y016740D01*
X010046Y016747D01*
X010054Y016750D01*
X010062Y016750D01*
X010070Y016747D01*
X010076Y016740D01*
X010078Y016731D01*
X010076Y016722D01*
X010070Y016715D01*
X010062Y016712D01*
X010054Y016712D01*
X010046Y016715D01*
X010040Y016722D01*
X010038Y016731D01*
X010353Y016731D02*
X010355Y016740D01*
X010361Y016747D01*
X010369Y016750D01*
X010377Y016750D01*
X010385Y016747D01*
X010391Y016740D01*
X010393Y016731D01*
X010391Y016722D01*
X010385Y016715D01*
X010377Y016712D01*
X010369Y016712D01*
X010361Y016715D01*
X010355Y016722D01*
X010353Y016731D01*
X010353Y017046D02*
X010355Y017055D01*
X010361Y017062D01*
X010369Y017065D01*
X010377Y017065D01*
X010385Y017062D01*
X010391Y017055D01*
X010393Y017046D01*
X010391Y017037D01*
X010385Y017030D01*
X010377Y017027D01*
X010369Y017027D01*
X010361Y017030D01*
X010355Y017037D01*
X010353Y017046D01*
X010353Y017361D02*
X010355Y017370D01*
X010361Y017377D01*
X010369Y017380D01*
X010377Y017380D01*
X010385Y017377D01*
X010391Y017370D01*
X010393Y017361D01*
X010391Y017352D01*
X010385Y017345D01*
X010377Y017342D01*
X010369Y017342D01*
X010361Y017345D01*
X010355Y017352D01*
X010353Y017361D01*
X010353Y017676D02*
X010355Y017685D01*
X010361Y017692D01*
X010369Y017695D01*
X010377Y017695D01*
X010385Y017692D01*
X010391Y017685D01*
X010393Y017676D01*
X010391Y017667D01*
X010385Y017660D01*
X010377Y017657D01*
X010369Y017657D01*
X010361Y017660D01*
X010355Y017667D01*
X010353Y017676D01*
X010353Y017991D02*
X010355Y018000D01*
X010361Y018007D01*
X010369Y018010D01*
X010377Y018010D01*
X010385Y018007D01*
X010391Y018000D01*
X010393Y017991D01*
X010391Y017982D01*
X010385Y017975D01*
X010377Y017972D01*
X010369Y017972D01*
X010361Y017975D01*
X010355Y017982D01*
X010353Y017991D01*
X010353Y018306D02*
X010355Y018315D01*
X010361Y018322D01*
X010369Y018325D01*
X010377Y018325D01*
X010385Y018322D01*
X010391Y018315D01*
X010393Y018306D01*
X010391Y018297D01*
X010385Y018290D01*
X010377Y018287D01*
X010369Y018287D01*
X010361Y018290D01*
X010355Y018297D01*
X010353Y018306D01*
X010353Y018621D02*
X010355Y018630D01*
X010361Y018637D01*
X010369Y018640D01*
X010377Y018640D01*
X010385Y018637D01*
X010391Y018630D01*
X010393Y018621D01*
X010391Y018612D01*
X010385Y018605D01*
X010377Y018602D01*
X010369Y018602D01*
X010361Y018605D01*
X010355Y018612D01*
X010353Y018621D01*
X010353Y018936D02*
X010355Y018945D01*
X010361Y018952D01*
X010369Y018955D01*
X010377Y018955D01*
X010385Y018952D01*
X010391Y018945D01*
X010393Y018936D01*
X010391Y018927D01*
X010385Y018920D01*
X010377Y018917D01*
X010369Y018917D01*
X010361Y018920D01*
X010355Y018927D01*
X010353Y018936D01*
X010353Y019251D02*
X010355Y019260D01*
X010361Y019267D01*
X010369Y019270D01*
X010377Y019270D01*
X010385Y019267D01*
X010391Y019260D01*
X010393Y019251D01*
X010391Y019242D01*
X010385Y019235D01*
X010377Y019232D01*
X010369Y019232D01*
X010361Y019235D01*
X010355Y019242D01*
X010353Y019251D01*
X010353Y019566D02*
X010355Y019575D01*
X010361Y019582D01*
X010369Y019585D01*
X010377Y019585D01*
X010385Y019582D01*
X010391Y019575D01*
X010393Y019566D01*
X010391Y019557D01*
X010385Y019550D01*
X010377Y019547D01*
X010369Y019547D01*
X010361Y019550D01*
X010355Y019557D01*
X010353Y019566D01*
X010353Y019881D02*
X010355Y019890D01*
X010361Y019897D01*
X010369Y019900D01*
X010377Y019900D01*
X010385Y019897D01*
X010391Y019890D01*
X010393Y019881D01*
X010391Y019872D01*
X010385Y019865D01*
X010377Y019862D01*
X010369Y019862D01*
X010361Y019865D01*
X010355Y019872D01*
X010353Y019881D01*
X010353Y020196D02*
X010355Y020205D01*
X010361Y020212D01*
X010369Y020215D01*
X010377Y020215D01*
X010385Y020212D01*
X010391Y020205D01*
X010393Y020196D01*
X010391Y020187D01*
X010385Y020180D01*
X010377Y020177D01*
X010369Y020177D01*
X010361Y020180D01*
X010355Y020187D01*
X010353Y020196D01*
X010353Y020511D02*
X010355Y020520D01*
X010361Y020527D01*
X010369Y020530D01*
X010377Y020530D01*
X010385Y020527D01*
X010391Y020520D01*
X010393Y020511D01*
X010391Y020502D01*
X010385Y020495D01*
X010377Y020492D01*
X010369Y020492D01*
X010361Y020495D01*
X010355Y020502D01*
X010353Y020511D01*
X010668Y020511D02*
X010670Y020520D01*
X010676Y020527D01*
X010684Y020530D01*
X010692Y020530D01*
X010700Y020527D01*
X010706Y020520D01*
X010708Y020511D01*
X010706Y020502D01*
X010700Y020495D01*
X010692Y020492D01*
X010684Y020492D01*
X010676Y020495D01*
X010670Y020502D01*
X010668Y020511D01*
X010668Y020196D02*
X010670Y020205D01*
X010676Y020212D01*
X010684Y020215D01*
X010692Y020215D01*
X010700Y020212D01*
X010706Y020205D01*
X010708Y020196D01*
X010706Y020187D01*
X010700Y020180D01*
X010692Y020177D01*
X010684Y020177D01*
X010676Y020180D01*
X010670Y020187D01*
X010668Y020196D01*
X010668Y019881D02*
X010670Y019890D01*
X010676Y019897D01*
X010684Y019900D01*
X010692Y019900D01*
X010700Y019897D01*
X010706Y019890D01*
X010708Y019881D01*
X010706Y019872D01*
X010700Y019865D01*
X010692Y019862D01*
X010684Y019862D01*
X010676Y019865D01*
X010670Y019872D01*
X010668Y019881D01*
X010668Y019566D02*
X010670Y019575D01*
X010676Y019582D01*
X010684Y019585D01*
X010692Y019585D01*
X010700Y019582D01*
X010706Y019575D01*
X010708Y019566D01*
X010706Y019557D01*
X010700Y019550D01*
X010692Y019547D01*
X010684Y019547D01*
X010676Y019550D01*
X010670Y019557D01*
X010668Y019566D01*
X010668Y019251D02*
X010670Y019260D01*
X010676Y019267D01*
X010684Y019270D01*
X010692Y019270D01*
X010700Y019267D01*
X010706Y019260D01*
X010708Y019251D01*
X010706Y019242D01*
X010700Y019235D01*
X010692Y019232D01*
X010684Y019232D01*
X010676Y019235D01*
X010670Y019242D01*
X010668Y019251D01*
X010668Y018936D02*
X010670Y018945D01*
X010676Y018952D01*
X010684Y018955D01*
X010692Y018955D01*
X010700Y018952D01*
X010706Y018945D01*
X010708Y018936D01*
X010706Y018927D01*
X010700Y018920D01*
X010692Y018917D01*
X010684Y018917D01*
X010676Y018920D01*
X010670Y018927D01*
X010668Y018936D01*
X010668Y018621D02*
X010670Y018630D01*
X010676Y018637D01*
X010684Y018640D01*
X010692Y018640D01*
X010700Y018637D01*
X010706Y018630D01*
X010708Y018621D01*
X010706Y018612D01*
X010700Y018605D01*
X010692Y018602D01*
X010684Y018602D01*
X010676Y018605D01*
X010670Y018612D01*
X010668Y018621D01*
X010668Y018306D02*
X010670Y018315D01*
X010676Y018322D01*
X010684Y018325D01*
X010692Y018325D01*
X010700Y018322D01*
X010706Y018315D01*
X010708Y018306D01*
X010706Y018297D01*
X010700Y018290D01*
X010692Y018287D01*
X010684Y018287D01*
X010676Y018290D01*
X010670Y018297D01*
X010668Y018306D01*
X010668Y017991D02*
X010670Y018000D01*
X010676Y018007D01*
X010684Y018010D01*
X010692Y018010D01*
X010700Y018007D01*
X010706Y018000D01*
X010708Y017991D01*
X010706Y017982D01*
X010700Y017975D01*
X010692Y017972D01*
X010684Y017972D01*
X010676Y017975D01*
X010670Y017982D01*
X010668Y017991D01*
X010668Y017676D02*
X010670Y017685D01*
X010676Y017692D01*
X010684Y017695D01*
X010692Y017695D01*
X010700Y017692D01*
X010706Y017685D01*
X010708Y017676D01*
X010706Y017667D01*
X010700Y017660D01*
X010692Y017657D01*
X010684Y017657D01*
X010676Y017660D01*
X010670Y017667D01*
X010668Y017676D01*
X010668Y017361D02*
X010670Y017370D01*
X010676Y017377D01*
X010684Y017380D01*
X010692Y017380D01*
X010700Y017377D01*
X010706Y017370D01*
X010708Y017361D01*
X010706Y017352D01*
X010700Y017345D01*
X010692Y017342D01*
X010684Y017342D01*
X010676Y017345D01*
X010670Y017352D01*
X010668Y017361D01*
X010668Y017046D02*
X010670Y017055D01*
X010676Y017062D01*
X010684Y017065D01*
X010692Y017065D01*
X010700Y017062D01*
X010706Y017055D01*
X010708Y017046D01*
X010706Y017037D01*
X010700Y017030D01*
X010692Y017027D01*
X010684Y017027D01*
X010676Y017030D01*
X010670Y017037D01*
X010668Y017046D01*
X010668Y016731D02*
X010670Y016740D01*
X010676Y016747D01*
X010684Y016750D01*
X010692Y016750D01*
X010700Y016747D01*
X010706Y016740D01*
X010708Y016731D01*
X010706Y016722D01*
X010700Y016715D01*
X010692Y016712D01*
X010684Y016712D01*
X010676Y016715D01*
X010670Y016722D01*
X010668Y016731D01*
X009408Y016731D02*
X009410Y016740D01*
X009416Y016747D01*
X009424Y016750D01*
X009432Y016750D01*
X009440Y016747D01*
X009446Y016740D01*
X009448Y016731D01*
X009446Y016722D01*
X009440Y016715D01*
X009432Y016712D01*
X009424Y016712D01*
X009416Y016715D01*
X009410Y016722D01*
X009408Y016731D01*
X009093Y016731D02*
X009095Y016740D01*
X009101Y016747D01*
X009109Y016750D01*
X009117Y016750D01*
X009125Y016747D01*
X009131Y016740D01*
X009133Y016731D01*
X009131Y016722D01*
X009125Y016715D01*
X009117Y016712D01*
X009109Y016712D01*
X009101Y016715D01*
X009095Y016722D01*
X009093Y016731D01*
X009093Y016416D02*
X009095Y016425D01*
X009101Y016432D01*
X009109Y016435D01*
X009117Y016435D01*
X009125Y016432D01*
X009131Y016425D01*
X009133Y016416D01*
X009131Y016407D01*
X009125Y016400D01*
X009117Y016397D01*
X009109Y016397D01*
X009101Y016400D01*
X009095Y016407D01*
X009093Y016416D01*
X009408Y016416D02*
X009410Y016425D01*
X009416Y016432D01*
X009424Y016435D01*
X009432Y016435D01*
X009440Y016432D01*
X009446Y016425D01*
X009448Y016416D01*
X009446Y016407D01*
X009440Y016400D01*
X009432Y016397D01*
X009424Y016397D01*
X009416Y016400D01*
X009410Y016407D01*
X009408Y016416D01*
X009408Y017046D02*
X009410Y017055D01*
X009416Y017062D01*
X009424Y017065D01*
X009432Y017065D01*
X009440Y017062D01*
X009446Y017055D01*
X009448Y017046D01*
X009446Y017037D01*
X009440Y017030D01*
X009432Y017027D01*
X009424Y017027D01*
X009416Y017030D01*
X009410Y017037D01*
X009408Y017046D01*
X009093Y017046D02*
X009095Y017055D01*
X009101Y017062D01*
X009109Y017065D01*
X009117Y017065D01*
X009125Y017062D01*
X009131Y017055D01*
X009133Y017046D01*
X009131Y017037D01*
X009125Y017030D01*
X009117Y017027D01*
X009109Y017027D01*
X009101Y017030D01*
X009095Y017037D01*
X009093Y017046D01*
X009093Y017361D02*
X009095Y017370D01*
X009101Y017377D01*
X009109Y017380D01*
X009117Y017380D01*
X009125Y017377D01*
X009131Y017370D01*
X009133Y017361D01*
X009131Y017352D01*
X009125Y017345D01*
X009117Y017342D01*
X009109Y017342D01*
X009101Y017345D01*
X009095Y017352D01*
X009093Y017361D01*
X009093Y017676D02*
X009095Y017685D01*
X009101Y017692D01*
X009109Y017695D01*
X009117Y017695D01*
X009125Y017692D01*
X009131Y017685D01*
X009133Y017676D01*
X009131Y017667D01*
X009125Y017660D01*
X009117Y017657D01*
X009109Y017657D01*
X009101Y017660D01*
X009095Y017667D01*
X009093Y017676D01*
X009093Y017991D02*
X009095Y018000D01*
X009101Y018007D01*
X009109Y018010D01*
X009117Y018010D01*
X009125Y018007D01*
X009131Y018000D01*
X009133Y017991D01*
X009131Y017982D01*
X009125Y017975D01*
X009117Y017972D01*
X009109Y017972D01*
X009101Y017975D01*
X009095Y017982D01*
X009093Y017991D01*
X009093Y018306D02*
X009095Y018315D01*
X009101Y018322D01*
X009109Y018325D01*
X009117Y018325D01*
X009125Y018322D01*
X009131Y018315D01*
X009133Y018306D01*
X009131Y018297D01*
X009125Y018290D01*
X009117Y018287D01*
X009109Y018287D01*
X009101Y018290D01*
X009095Y018297D01*
X009093Y018306D01*
X009093Y018621D02*
X009095Y018630D01*
X009101Y018637D01*
X009109Y018640D01*
X009117Y018640D01*
X009125Y018637D01*
X009131Y018630D01*
X009133Y018621D01*
X009131Y018612D01*
X009125Y018605D01*
X009117Y018602D01*
X009109Y018602D01*
X009101Y018605D01*
X009095Y018612D01*
X009093Y018621D01*
X009093Y018936D02*
X009095Y018945D01*
X009101Y018952D01*
X009109Y018955D01*
X009117Y018955D01*
X009125Y018952D01*
X009131Y018945D01*
X009133Y018936D01*
X009131Y018927D01*
X009125Y018920D01*
X009117Y018917D01*
X009109Y018917D01*
X009101Y018920D01*
X009095Y018927D01*
X009093Y018936D01*
X009093Y019251D02*
X009095Y019260D01*
X009101Y019267D01*
X009109Y019270D01*
X009117Y019270D01*
X009125Y019267D01*
X009131Y019260D01*
X009133Y019251D01*
X009131Y019242D01*
X009125Y019235D01*
X009117Y019232D01*
X009109Y019232D01*
X009101Y019235D01*
X009095Y019242D01*
X009093Y019251D01*
X009093Y019566D02*
X009095Y019575D01*
X009101Y019582D01*
X009109Y019585D01*
X009117Y019585D01*
X009125Y019582D01*
X009131Y019575D01*
X009133Y019566D01*
X009131Y019557D01*
X009125Y019550D01*
X009117Y019547D01*
X009109Y019547D01*
X009101Y019550D01*
X009095Y019557D01*
X009093Y019566D01*
X009093Y019881D02*
X009095Y019890D01*
X009101Y019897D01*
X009109Y019900D01*
X009117Y019900D01*
X009125Y019897D01*
X009131Y019890D01*
X009133Y019881D01*
X009131Y019872D01*
X009125Y019865D01*
X009117Y019862D01*
X009109Y019862D01*
X009101Y019865D01*
X009095Y019872D01*
X009093Y019881D01*
X009093Y020196D02*
X009095Y020205D01*
X009101Y020212D01*
X009109Y020215D01*
X009117Y020215D01*
X009125Y020212D01*
X009131Y020205D01*
X009133Y020196D01*
X009131Y020187D01*
X009125Y020180D01*
X009117Y020177D01*
X009109Y020177D01*
X009101Y020180D01*
X009095Y020187D01*
X009093Y020196D01*
X009093Y020511D02*
X009095Y020520D01*
X009101Y020527D01*
X009109Y020530D01*
X009117Y020530D01*
X009125Y020527D01*
X009131Y020520D01*
X009133Y020511D01*
X009131Y020502D01*
X009125Y020495D01*
X009117Y020492D01*
X009109Y020492D01*
X009101Y020495D01*
X009095Y020502D01*
X009093Y020511D01*
X009408Y020511D02*
X009410Y020520D01*
X009416Y020527D01*
X009424Y020530D01*
X009432Y020530D01*
X009440Y020527D01*
X009446Y020520D01*
X009448Y020511D01*
X009446Y020502D01*
X009440Y020495D01*
X009432Y020492D01*
X009424Y020492D01*
X009416Y020495D01*
X009410Y020502D01*
X009408Y020511D01*
X009408Y020196D02*
X009410Y020205D01*
X009416Y020212D01*
X009424Y020215D01*
X009432Y020215D01*
X009440Y020212D01*
X009446Y020205D01*
X009448Y020196D01*
X009446Y020187D01*
X009440Y020180D01*
X009432Y020177D01*
X009424Y020177D01*
X009416Y020180D01*
X009410Y020187D01*
X009408Y020196D01*
X009408Y019881D02*
X009410Y019890D01*
X009416Y019897D01*
X009424Y019900D01*
X009432Y019900D01*
X009440Y019897D01*
X009446Y019890D01*
X009448Y019881D01*
X009446Y019872D01*
X009440Y019865D01*
X009432Y019862D01*
X009424Y019862D01*
X009416Y019865D01*
X009410Y019872D01*
X009408Y019881D01*
X009408Y019566D02*
X009410Y019575D01*
X009416Y019582D01*
X009424Y019585D01*
X009432Y019585D01*
X009440Y019582D01*
X009446Y019575D01*
X009448Y019566D01*
X009446Y019557D01*
X009440Y019550D01*
X009432Y019547D01*
X009424Y019547D01*
X009416Y019550D01*
X009410Y019557D01*
X009408Y019566D01*
X009408Y019251D02*
X009410Y019260D01*
X009416Y019267D01*
X009424Y019270D01*
X009432Y019270D01*
X009440Y019267D01*
X009446Y019260D01*
X009448Y019251D01*
X009446Y019242D01*
X009440Y019235D01*
X009432Y019232D01*
X009424Y019232D01*
X009416Y019235D01*
X009410Y019242D01*
X009408Y019251D01*
X009408Y018936D02*
X009410Y018945D01*
X009416Y018952D01*
X009424Y018955D01*
X009432Y018955D01*
X009440Y018952D01*
X009446Y018945D01*
X009448Y018936D01*
X009446Y018927D01*
X009440Y018920D01*
X009432Y018917D01*
X009424Y018917D01*
X009416Y018920D01*
X009410Y018927D01*
X009408Y018936D01*
X009408Y018621D02*
X009410Y018630D01*
X009416Y018637D01*
X009424Y018640D01*
X009432Y018640D01*
X009440Y018637D01*
X009446Y018630D01*
X009448Y018621D01*
X009446Y018612D01*
X009440Y018605D01*
X009432Y018602D01*
X009424Y018602D01*
X009416Y018605D01*
X009410Y018612D01*
X009408Y018621D01*
X009408Y018306D02*
X009410Y018315D01*
X009416Y018322D01*
X009424Y018325D01*
X009432Y018325D01*
X009440Y018322D01*
X009446Y018315D01*
X009448Y018306D01*
X009446Y018297D01*
X009440Y018290D01*
X009432Y018287D01*
X009424Y018287D01*
X009416Y018290D01*
X009410Y018297D01*
X009408Y018306D01*
X009408Y017991D02*
X009410Y018000D01*
X009416Y018007D01*
X009424Y018010D01*
X009432Y018010D01*
X009440Y018007D01*
X009446Y018000D01*
X009448Y017991D01*
X009446Y017982D01*
X009440Y017975D01*
X009432Y017972D01*
X009424Y017972D01*
X009416Y017975D01*
X009410Y017982D01*
X009408Y017991D01*
X009408Y017676D02*
X009410Y017685D01*
X009416Y017692D01*
X009424Y017695D01*
X009432Y017695D01*
X009440Y017692D01*
X009446Y017685D01*
X009448Y017676D01*
X009446Y017667D01*
X009440Y017660D01*
X009432Y017657D01*
X009424Y017657D01*
X009416Y017660D01*
X009410Y017667D01*
X009408Y017676D01*
X009408Y017361D02*
X009410Y017370D01*
X009416Y017377D01*
X009424Y017380D01*
X009432Y017380D01*
X009440Y017377D01*
X009446Y017370D01*
X009448Y017361D01*
X009446Y017352D01*
X009440Y017345D01*
X009432Y017342D01*
X009424Y017342D01*
X009416Y017345D01*
X009410Y017352D01*
X009408Y017361D01*
D19*
X015362Y023188D03*
X016543Y023188D03*
D20*
X015952Y023779D03*
D21*
X016102Y020688D03*
X016102Y019688D03*
X017102Y019688D03*
X017102Y020688D03*
M02*
