M48
;DRILL file {KiCad no-vcs-found-ddec803~58~ubuntu14.04.1} date Fri Jun  2 15:47:06 2017
;FORMAT={-:-/ absolute / metric / decimal}
FMAT,2
METRIC,TZ
T1C0.200
T2C0.254
T3C0.300
T4C0.400
T5C0.500
T6C0.600
T7C0.800
T8C0.900
T9C1.000
T10C1.100
T11C1.200
T12C1.500
T13C1.600
T14C3.300
%
G90
G05
M71
T1
X111.379Y-71.882
X114.808Y-72.136
X115.443Y-81.661
X115.697Y-81.28
X116.459Y-82.677
X116.713Y-82.296
X117.475Y-79.248
X117.475Y-79.756
X117.856Y-97.663
X118.364Y-97.663
X118.872Y-97.663
X119.38Y-97.663
X119.888Y-63.5
X119.888Y-97.663
X120.396Y-97.663
X120.904Y-97.663
X122.051Y-96.135
X123.063Y-96.139
X123.825Y-96.266
X124.333Y-95.631
X124.333Y-96.139
X124.587Y-59.182
X125.095Y-95.504
X125.222Y-96.266
X125.857Y-65.786
X125.857Y-94.869
X125.857Y-95.377
X125.857Y-95.885
X126.365Y-95.885
X126.619Y-95.377
X127.Y-95.758
X127.381Y-94.869
X127.381Y-95.377
X128.651Y-94.869
X128.651Y-95.377
X129.413Y-53.721
X129.54Y-42.291
X129.667Y-50.165
X129.667Y-50.673
X129.667Y-52.705
X129.667Y-53.34
X129.921Y-52.324
X129.988Y-95.317
X129.993Y-94.812
X130.175Y-51.181
X130.175Y-51.689
X130.81Y-52.07
X130.81Y-52.578
X131.496Y-96.342
X133.731Y-62.738
X134.239Y-62.738
X134.62Y-94.869
X134.62Y-95.377
X134.747Y-48.514
X134.747Y-62.738
X134.747Y-63.246
X134.874Y-45.72
X135.001Y-47.498
X135.128Y-49.784
X135.128Y-94.869
X135.128Y-95.631
X135.255Y-46.863
X135.382Y-48.006
X135.636Y-94.869
X135.89Y-95.631
X136.017Y-62.357
X136.144Y-49.53
X136.144Y-94.869
X136.271Y-96.266
X136.525Y-62.357
X136.652Y-48.006
X136.652Y-48.514
X136.652Y-94.869
X137.16Y-94.869
X137.287Y-62.738
X137.287Y-63.246
X137.287Y-63.754
X137.475Y-73.125
X137.475Y-74.425
X137.475Y-75.075
X137.475Y-77.675
X137.475Y-79.625
X137.541Y-95.123
X137.922Y-48.641
X138.125Y-64.675
X138.125Y-65.325
X138.125Y-67.275
X138.125Y-69.875
X138.125Y-71.825
X138.125Y-73.125
X138.125Y-73.775
X138.125Y-74.425
X138.125Y-75.075
X138.125Y-75.725
X138.125Y-76.375
X138.125Y-77.025
X138.125Y-77.675
X138.43Y-95.631
X138.775Y-65.325
X138.775Y-65.975
X138.775Y-66.625
X138.775Y-67.275
X138.775Y-67.925
X138.775Y-68.575
X138.775Y-69.875
X138.775Y-71.175
X138.775Y-71.825
X138.775Y-73.125
X138.775Y-73.775
X138.775Y-75.075
X138.775Y-76.375
X138.775Y-77.025
X138.775Y-77.675
X138.775Y-78.325
X138.938Y-55.372
X139.065Y-96.139
X139.425Y-65.975
X139.425Y-66.625
X139.425Y-67.275
X139.425Y-68.575
X139.425Y-69.225
X139.425Y-73.125
X139.425Y-73.775
X139.425Y-74.425
X139.425Y-75.075
X139.425Y-75.725
X139.425Y-78.325
X139.573Y-96.139
X140.075Y-65.975
X140.075Y-66.625
X140.075Y-67.925
X140.075Y-68.575
X140.075Y-69.225
X140.075Y-71.175
X140.075Y-71.825
X140.075Y-73.125
X140.075Y-73.775
X140.075Y-74.425
X140.075Y-75.075
X140.075Y-75.725
X140.075Y-76.375
X140.075Y-77.025
X140.075Y-77.675
X140.081Y-96.139
X140.589Y-96.139
X140.725Y-65.975
X140.725Y-66.625
X140.725Y-67.275
X140.725Y-67.925
X140.725Y-69.225
X141.351Y-57.658
X141.375Y-69.225
X141.375Y-69.875
X141.375Y-70.525
X141.375Y-72.475
X141.375Y-74.425
X141.375Y-75.725
X141.375Y-76.375
X141.375Y-77.025
X141.375Y-77.675
X141.375Y-78.325
X141.375Y-78.975
X141.375Y-79.625
X142.025Y-65.975
X142.025Y-66.625
X142.025Y-67.275
X142.025Y-67.925
X142.025Y-69.875
X142.025Y-70.525
X142.025Y-71.175
X142.025Y-71.825
X142.025Y-73.775
X142.025Y-74.425
X142.025Y-75.725
X142.025Y-76.375
X142.025Y-77.025
X142.025Y-77.675
X142.025Y-78.325
X142.025Y-78.975
X142.025Y-79.625
X142.494Y-93.853
X142.621Y-57.658
X142.675Y-65.975
X142.675Y-66.625
X142.675Y-67.275
X142.675Y-69.225
X142.675Y-71.175
X142.675Y-71.825
X142.675Y-72.475
X142.675Y-75.075
X143.325Y-66.625
X143.325Y-67.275
X143.325Y-67.925
X143.325Y-69.225
X143.325Y-70.525
X143.325Y-71.175
X143.325Y-71.825
X143.325Y-72.475
X143.325Y-74.425
X143.325Y-75.075
X143.325Y-77.025
X143.325Y-77.675
X143.325Y-78.325
X143.325Y-78.975
X143.325Y-79.625
X143.383Y-80.772
X143.975Y-64.675
X143.975Y-65.325
X143.975Y-65.975
X143.975Y-66.625
X143.975Y-67.275
X143.975Y-71.175
X143.975Y-71.825
X143.975Y-74.425
X143.975Y-75.075
X143.975Y-75.725
X143.975Y-76.375
X143.975Y-77.025
X143.975Y-77.675
X143.975Y-78.325
X143.975Y-78.975
X143.975Y-79.625
X144.625Y-69.225
X144.625Y-69.875
X144.625Y-70.525
X144.625Y-71.175
X144.625Y-71.825
X144.625Y-77.025
X144.625Y-77.675
X145.275Y-65.325
X145.275Y-65.975
X145.275Y-66.625
X145.275Y-67.275
X145.275Y-67.925
X145.275Y-69.225
X145.275Y-69.875
X145.275Y-70.525
X145.275Y-71.175
X145.275Y-71.825
X145.275Y-74.425
X145.275Y-75.075
X145.275Y-75.725
X145.275Y-76.375
X145.275Y-77.025
X145.275Y-77.675
X145.288Y-58.166
X145.925Y-64.675
X145.925Y-65.325
X145.925Y-65.975
X145.925Y-66.625
X145.925Y-67.275
X145.925Y-69.225
X145.925Y-69.875
X145.925Y-70.525
X145.925Y-71.175
X145.925Y-71.825
X145.925Y-74.425
X145.925Y-76.375
X145.925Y-77.025
X146.05Y-88.011
X146.558Y-88.011
X146.575Y-65.325
X146.575Y-65.975
X146.575Y-66.625
X146.575Y-67.275
X146.575Y-69.225
X146.575Y-69.875
X146.575Y-70.525
X146.575Y-71.175
X146.575Y-71.825
X146.575Y-77.025
X146.575Y-78.325
X147.066Y-88.011
X147.225Y-64.675
X147.225Y-65.325
X147.225Y-65.975
X147.225Y-66.625
X147.225Y-67.275
X147.225Y-68.575
X147.225Y-69.225
X147.225Y-69.875
X147.225Y-70.525
X147.225Y-71.175
X147.225Y-71.825
X147.225Y-75.725
X147.225Y-76.375
X147.225Y-77.025
X147.225Y-77.675
X147.574Y-88.011
X147.875Y-69.875
X147.875Y-70.525
X147.875Y-71.825
X147.875Y-75.725
X147.875Y-77.025
X147.875Y-78.325
X148.082Y-88.011
X148.525Y-66.625
X148.525Y-67.275
X148.525Y-69.875
X148.525Y-72.475
X148.525Y-73.125
X148.525Y-73.775
X148.525Y-74.425
X148.525Y-75.075
X148.525Y-75.725
X148.525Y-77.025
X148.717Y-52.832
X149.1Y-52.4
X149.175Y-65.975
X149.175Y-67.275
X149.175Y-67.925
X149.175Y-71.175
X149.175Y-73.125
X149.175Y-73.775
X149.175Y-74.425
X149.175Y-76.375
X149.175Y-77.025
X149.175Y-77.675
X149.175Y-78.325
X149.175Y-78.975
X149.225Y-57.15
X149.825Y-65.975
X149.825Y-66.625
X149.825Y-67.275
X149.825Y-67.925
X149.825Y-68.575
X149.825Y-69.225
X149.825Y-71.175
X149.825Y-73.125
X149.825Y-73.775
X149.825Y-75.075
X149.825Y-75.725
X149.825Y-77.025
X149.825Y-77.675
X149.825Y-78.325
X149.86Y-84.709
X150.475Y-65.975
X150.475Y-66.625
X150.475Y-67.275
X150.475Y-68.575
X150.475Y-69.225
X150.475Y-70.525
X150.475Y-71.175
X150.475Y-73.125
X150.475Y-73.775
X150.475Y-74.425
X150.475Y-75.725
X150.475Y-76.375
X150.475Y-77.675
X150.475Y-78.325
X150.475Y-78.975
X151.125Y-65.325
X151.125Y-65.975
X151.125Y-66.625
X151.125Y-67.275
X151.125Y-67.925
X151.125Y-68.575
X151.125Y-69.225
X151.125Y-70.525
X151.125Y-71.175
X151.125Y-73.125
X151.125Y-74.425
X151.125Y-75.075
X151.125Y-76.375
X151.125Y-77.025
X151.125Y-78.325
X151.125Y-78.975
X151.257Y-55.118
X151.775Y-64.675
X151.775Y-65.325
X151.775Y-65.975
X151.775Y-66.625
X151.775Y-73.775
X151.775Y-76.375
X151.775Y-77.025
X151.775Y-78.325
X151.775Y-78.975
X151.892Y-63.627
X152.146Y-91.059
X152.146Y-91.567
X152.425Y-65.325
X152.425Y-65.975
X152.425Y-66.625
X152.425Y-73.775
X152.425Y-75.725
X152.425Y-76.375
X152.425Y-77.025
X153.543Y-47.879
X153.543Y-51.816
X153.543Y-52.324
X153.67Y-68.199
X154.178Y-68.453
X154.305Y-47.879
X154.432Y-45.72
X154.686Y-74.041
X154.686Y-75.184
X154.686Y-85.471
X154.813Y-50.419
X155.067Y-44.323
X155.194Y-73.914
X155.194Y-94.615
X155.575Y-44.323
X155.575Y-73.533
X155.702Y-75.565
X155.829Y-50.419
X155.829Y-50.927
X155.829Y-51.435
X155.829Y-64.516
X155.829Y-65.024
X155.829Y-65.532
X155.829Y-66.04
X155.829Y-66.548
X155.829Y-70.231
X155.829Y-70.739
X156.083Y-44.323
X156.083Y-45.847
X156.083Y-73.66
X156.21Y-75.565
X156.337Y-61.214
X156.337Y-61.722
X156.337Y-70.231
X156.337Y-70.993
X156.718Y-47.752
X156.718Y-48.26
X156.718Y-48.768
X156.718Y-75.565
X156.845Y-61.214
X157.099Y-50.546
X157.353Y-61.214
X157.861Y-61.214
X159.512Y-84.455
X159.512Y-84.963
X159.512Y-86.233
X160.02Y-40.894
X160.147Y-46.609
X160.655Y-46.609
X161.163Y-46.609
X162.941Y-43.561
X162.941Y-73.66
X163.322Y-73.406
X163.449Y-43.561
X163.83Y-43.307
X163.83Y-43.942
X163.83Y-73.533
X164.592Y-43.307
X164.719Y-44.069
X165.481Y-42.799
X165.735Y-47.117
X165.862Y-47.879
X166.116Y-47.371
X166.37Y-49.149
X166.37Y-51.435
X166.497Y-42.799
X166.878Y-51.054
X167.005Y-43.18
X167.005Y-51.689
X167.005Y-89.408
X167.132Y-43.688
X167.513Y-50.8
X167.513Y-89.408
X167.513Y-96.774
X167.64Y-50.165
X167.894Y-72.644
X167.894Y-89.662
X169.037Y-62.738
X169.545Y-51.689
X169.672Y-48.641
X169.672Y-89.027
X169.799Y-49.911
X169.799Y-55.626
X170.18Y-50.292
X170.18Y-51.181
X170.18Y-51.689
X170.307Y-53.213
X170.561Y-54.991
X170.688Y-88.646
X170.688Y-89.154
X170.942Y-51.689
X170.942Y-54.61
X171.196Y-50.292
X171.196Y-84.201
X171.323Y-54.229
X171.577Y-50.927
X171.577Y-84.455
X172.085Y-84.582
X172.593Y-83.439
X172.847Y-50.165
X172.974Y-53.467
X173.431Y-58.979
X173.482Y-47.625
X173.99Y-47.625
X177.038Y-48.641
X177.038Y-49.149
X182.88Y-61.849
T2
X142.675Y-73.125
X142.675Y-73.775
X143.325Y-73.125
X143.325Y-73.775
X143.975Y-72.475
X143.975Y-73.125
X143.975Y-73.775
X144.625Y-72.475
X144.625Y-73.125
X144.625Y-73.775
X145.275Y-72.475
X145.275Y-73.125
X145.275Y-73.775
X145.925Y-72.475
X145.925Y-73.125
X145.925Y-73.775
X146.575Y-72.475
X146.575Y-73.125
X146.575Y-73.775
X146.575Y-74.425
X146.575Y-75.075
X147.225Y-72.475
X147.225Y-73.125
X147.225Y-73.775
X147.225Y-74.425
X147.225Y-75.075
X147.875Y-72.475
X147.875Y-73.125
X147.875Y-73.775
X147.875Y-74.425
X147.875Y-75.075
T3
X100.838Y-83.185
X107.188Y-43.307
X107.188Y-43.942
X107.188Y-46.228
X107.188Y-47.752
X107.188Y-49.276
X107.188Y-50.8
X109.982Y-70.231
X110.109Y-97.028
X110.49Y-75.565
X110.744Y-95.123
X111.252Y-74.549
X111.379Y-73.914
X111.506Y-45.974
X111.506Y-48.895
X111.506Y-51.816
X111.569Y-46.926
X112.014Y-89.027
X112.014Y-93.726
X112.776Y-83.312
X113.03Y-73.406
X113.03Y-75.311
X113.03Y-83.947
X113.03Y-84.582
X113.03Y-85.598
X113.03Y-86.233
X113.157Y-87.122
X113.792Y-45.974
X113.792Y-47.117
X113.792Y-48.895
X113.792Y-51.816
X114.046Y-44.704
X114.046Y-45.339
X115.189Y-46.482
X115.443Y-74.422
X116.078Y-74.422
X116.332Y-93.472
X116.459Y-76.962
X116.459Y-77.47
X116.84Y-93.98
X116.967Y-45.085
X116.967Y-64.516
X117.602Y-44.196
X118.364Y-83.566
X118.364Y-84.201
X118.364Y-84.836
X118.364Y-90.297
X119.126Y-89.154
X119.2Y-80.2
X119.2Y-82.4
X119.2Y-83.1
X119.38Y-74.422
X119.38Y-90.297
X119.9Y-84.7
X120.015Y-90.17
X120.6Y-71.
X120.6Y-71.8
X120.6Y-75.
X120.6Y-75.8
X120.6Y-76.6
X120.6Y-79.6
X121.1Y-67.5
X121.4Y-69.4
X121.4Y-70.2
X121.4Y-71.
X121.4Y-74.2
X121.4Y-75.
X121.4Y-75.8
X121.4Y-76.6
X121.885Y-67.437
X122.2Y-69.4
X122.2Y-71.8
X122.2Y-73.8
X122.2Y-75.
X122.2Y-75.8
X122.2Y-76.6
X122.428Y-78.613
X122.5Y-77.9
X122.6Y-84.2
X122.6Y-85.8
X122.6Y-89.
X122.6Y-90.6
X122.809Y-48.514
X123.Y-69.4
X123.Y-70.2
X123.Y-71.
X123.Y-71.8
X123.4Y-80.3
X123.4Y-83.4
X123.4Y-84.2
X123.4Y-85.8
X123.4Y-88.2
X123.4Y-89.
X123.4Y-90.6
X123.444Y-67.437
X123.8Y-69.4
X123.8Y-71.
X123.8Y-75.
X123.8Y-75.8
X123.8Y-76.6
X123.825Y-48.514
X124.2Y-80.6
X124.2Y-83.4
X124.2Y-84.2
X124.2Y-85.
X124.2Y-85.8
X124.2Y-88.2
X124.2Y-89.
X124.2Y-90.6
X124.6Y-69.4
X124.6Y-70.2
X124.6Y-71.
X124.714Y-49.403
X124.968Y-58.801
X125.Y-83.4
X125.Y-85.
X125.Y-89.
X125.Y-90.6
X125.222Y-65.659
X125.222Y-78.613
X125.349Y-67.437
X125.4Y-69.4
X125.4Y-70.2
X125.4Y-71.
X125.8Y-83.4
X125.8Y-84.2
X125.8Y-85.
X125.8Y-85.8
X125.8Y-89.
X125.8Y-89.8
X125.8Y-90.6
X126.2Y-69.4
X126.2Y-70.2
X126.2Y-71.
X126.2Y-75.
X126.2Y-75.8
X126.365Y-51.054
X126.6Y-85.
X126.6Y-85.8
X126.6Y-89.
X126.6Y-89.8
X126.6Y-90.6
X127.Y-69.4
X127.Y-70.2
X127.Y-71.
X127.254Y-67.437
X127.3Y-73.2
X127.4Y-68.9
X127.4Y-76.8
X127.4Y-83.4
X127.4Y-84.2
X127.4Y-85.
X127.4Y-85.8
X127.4Y-89.
X127.889Y-73.025
X128.2Y-69.2
X128.2Y-76.8
X128.2Y-83.4
X128.2Y-84.2
X128.2Y-85.
X128.2Y-89.
X128.2Y-89.8
X128.2Y-90.7
X128.6Y-74.2
X128.6Y-75.
X128.676Y-86.843
X129.Y-69.2
X129.Y-76.8
X129.Y-89.
X129.Y-89.8
X129.261Y-86.843
X129.4Y-70.2
X129.8Y-69.2
X129.8Y-85.
X129.8Y-85.8
X129.8Y-89.
X129.8Y-90.6
X130.2Y-74.2
X130.2Y-75.
X130.2Y-75.8
X130.302Y-49.149
X130.6Y-84.2
X130.6Y-85.
X130.6Y-88.2
X130.6Y-89.
X130.6Y-89.8
X130.6Y-90.6
X130.644Y-86.835
X131.Y-69.4
X131.Y-70.2
X131.Y-71.8
X131.Y-75.
X131.Y-75.8
X131.Y-76.6
X131.052Y-86.427
X131.064Y-49.149
X131.4Y-84.2
X131.4Y-85.
X131.4Y-88.2
X131.4Y-89.
X131.4Y-89.8
X131.4Y-90.6
X131.8Y-69.4
X131.8Y-70.2
X131.8Y-71.
X131.8Y-71.8
X131.8Y-74.2
X131.8Y-75.
X131.8Y-75.8
X131.8Y-76.6
X132.08Y-64.262
X132.2Y-84.2
X132.2Y-85.
X132.2Y-85.8
X132.2Y-89.8
X132.2Y-90.6
X132.588Y-65.024
X132.588Y-65.532
X132.6Y-69.4
X132.6Y-70.2
X132.6Y-71.
X132.6Y-71.8
X132.6Y-74.2
X132.6Y-75.
X132.6Y-75.8
X132.6Y-76.6
X133.Y-84.2
X133.Y-85.
X133.Y-89.8
X133.Y-90.6
X133.4Y-70.2
X133.4Y-75.8
X133.8Y-84.2
X133.8Y-90.6
X134.6Y-84.2
X134.6Y-85.
X134.6Y-85.8
X134.6Y-90.6
X134.62Y-73.025
X135.355Y-84.149
X135.4Y-90.6
X135.636Y-65.405
X135.9Y-89.5
X137.9Y-46.7
X137.9Y-47.7
X137.9Y-49.7
X137.9Y-50.7
X137.9Y-52.7
X137.9Y-53.7
X138.9Y-46.7
X138.9Y-47.7
X138.9Y-48.7
X138.9Y-50.7
X138.9Y-52.7
X138.9Y-53.7
X139.4Y-46.2
X139.9Y-46.7
X139.9Y-47.7
X139.9Y-48.7
X139.9Y-51.7
X139.9Y-53.7
X139.9Y-54.7
X140.4Y-45.8
X140.9Y-48.7
X140.9Y-52.7
X140.9Y-53.7
X141.9Y-51.7
X141.9Y-53.7
X142.9Y-52.7
X142.9Y-53.7
X143.129Y-93.726
X143.459Y-93.396
X143.637Y-97.536
X143.891Y-92.964
X143.9Y-46.
X143.9Y-46.7
X143.9Y-47.7
X143.9Y-50.7
X143.9Y-51.7
X144.221Y-92.634
X144.272Y-99.314
X144.653Y-92.202
X144.78Y-55.626
X144.9Y-46.7
X144.9Y-47.7
X144.9Y-48.7
X144.9Y-49.7
X144.9Y-50.7
X144.9Y-51.7
X144.9Y-52.7
X144.9Y-53.7
X144.983Y-91.872
X145.9Y-46.7
X145.9Y-47.7
X145.9Y-48.7
X145.9Y-49.7
X145.9Y-50.7
X145.9Y-51.7
X145.9Y-52.7
X145.9Y-53.7
X145.923Y-58.166
X146.812Y-86.868
X146.9Y-48.7
X148.209Y-44.45
X148.336Y-58.039
X148.336Y-58.547
X148.717Y-44.45
X148.971Y-48.133
X148.971Y-49.149
X148.971Y-50.673
X149.606Y-50.927
X150.114Y-58.039
X150.114Y-58.547
X150.241Y-48.895
X150.241Y-49.53
X151.892Y-64.135
X153.543Y-48.895
X153.543Y-50.165
X153.543Y-51.181
X154.305Y-71.628
X154.559Y-55.499
X154.813Y-48.895
X157.353Y-97.79
X157.48Y-68.961
X157.48Y-69.977
X157.734Y-99.314
X158.242Y-68.072
X158.496Y-72.263
X159.131Y-72.263
X159.385Y-98.171
X159.385Y-98.679
X159.639Y-86.868
X159.766Y-72.263
X160.02Y-81.28
X160.147Y-85.09
X160.147Y-85.725
X160.147Y-86.868
X160.274Y-87.63
X160.274Y-88.138
X160.528Y-67.31
X160.528Y-68.072
X160.528Y-81.28
X160.655Y-72.263
X160.655Y-85.09
X160.655Y-85.725
X160.782Y-69.215
X160.782Y-80.645
X161.163Y-67.31
X161.163Y-89.027
X161.29Y-62.484
X161.544Y-89.535
X161.671Y-63.5
X161.671Y-88.519
X161.925Y-89.154
X162.052Y-73.66
X162.052Y-79.756
X162.052Y-80.391
X162.052Y-80.899
X162.56Y-70.866
X162.56Y-79.756
X162.941Y-78.74
X162.941Y-79.248
X163.576Y-78.613
X163.576Y-79.121
X163.703Y-62.865
X163.83Y-67.564
X163.83Y-72.009
X163.83Y-72.644
X163.957Y-69.596
X164.084Y-65.532
X164.211Y-56.896
X164.211Y-78.867
X164.338Y-62.865
X164.465Y-69.977
X164.592Y-78.486
X164.719Y-56.896
X164.719Y-79.248
X164.719Y-79.756
X165.354Y-62.611
X165.354Y-89.662
X166.624Y-72.009
X166.878Y-61.341
X167.259Y-64.516
X167.386Y-78.994
X167.513Y-48.641
X167.513Y-49.149
X167.767Y-71.755
X167.767Y-78.613
X168.021Y-58.166
X168.402Y-70.104
X168.402Y-89.535
X168.402Y-90.043
X169.037Y-71.755
X169.037Y-78.359
X169.037Y-78.994
X169.037Y-89.535
X169.545Y-78.359
X169.545Y-78.994
X170.053Y-80.391
X170.053Y-81.026
X170.18Y-78.613
X170.18Y-79.121
X170.307Y-79.756
X170.561Y-80.391
X170.561Y-81.026
X171.45Y-66.167
X171.45Y-68.58
X171.45Y-70.104
X171.831Y-73.025
X171.831Y-73.533
X171.958Y-74.803
X171.958Y-83.439
X172.085Y-66.167
X173.99Y-43.434
X174.117Y-54.991
X174.117Y-55.499
X174.752Y-49.657
X174.752Y-53.721
X174.752Y-54.483
X174.752Y-54.991
X175.26Y-43.434
X175.26Y-49.657
X175.514Y-88.265
X175.514Y-89.027
X176.022Y-53.721
X176.022Y-54.229
X176.53Y-43.434
X177.292Y-43.815
X178.054Y-43.434
X178.689Y-43.815
X178.689Y-56.261
X178.689Y-56.769
X179.07Y-53.721
X179.07Y-54.229
X179.324Y-43.434
X179.324Y-45.339
X179.451Y-90.678
X179.705Y-58.039
X179.705Y-58.674
X179.832Y-57.404
X179.832Y-88.9
X179.959Y-43.815
X179.959Y-45.974
X180.34Y-88.9
X180.594Y-43.434
X180.594Y-45.339
X180.975Y-95.885
X181.229Y-43.815
X181.229Y-45.974
X181.864Y-43.434
X181.864Y-45.339
X182.499Y-43.815
X182.499Y-45.974
X182.626Y-55.626
X183.007Y-57.023
X183.007Y-57.658
X183.134Y-43.434
X183.134Y-45.339
X183.769Y-43.815
X184.023Y-46.355
X184.404Y-43.434
X184.912Y-62.484
X185.039Y-43.815
X185.039Y-45.593
X185.674Y-43.434
X185.801Y-51.054
X185.928Y-47.625
X186.309Y-55.88
X186.436Y-45.593
X186.436Y-63.119
X188.087Y-48.768
X188.214Y-49.911
X189.23Y-82.55
X163.662Y-83.846
X163.662Y-85.445
X164.362Y-83.846
X164.362Y-85.445
X165.062Y-82.445
X165.062Y-83.145
X165.062Y-83.846
X165.062Y-85.445
X165.062Y-86.145
X165.062Y-86.846
X166.662Y-82.445
X166.662Y-83.145
X166.662Y-83.846
X166.662Y-85.445
X166.662Y-86.145
X166.662Y-86.846
X167.362Y-83.846
X167.362Y-85.445
X168.062Y-83.846
X168.062Y-85.445
T4
X110.109Y-73.533
X111.125Y-70.104
X112.268Y-70.104
X112.649Y-71.755
X168.021Y-58.801
T5
X112.903Y-81.788
X112.903Y-87.884
X114.3Y-69.977
X142.875Y-58.674
X146.558Y-58.674
X159.766Y-83.693
X160.655Y-83.693
X170.815Y-85.471
X170.815Y-86.36
X171.069Y-87.249
X171.704Y-85.471
X171.704Y-86.36
X171.958Y-87.249
X172.593Y-47.625
X175.387Y-47.879
T6
X100.838Y-81.026
X101.092Y-41.021
X101.092Y-42.672
X101.092Y-44.323
X101.092Y-46.101
X101.092Y-48.006
X101.092Y-49.784
X101.092Y-51.562
X101.092Y-76.327
X101.092Y-94.361
X101.092Y-96.774
X101.092Y-99.06
X102.108Y-76.327
X102.235Y-97.917
X102.362Y-94.361
X102.362Y-95.504
X102.489Y-51.308
X104.521Y-46.482
X105.537Y-46.482
X106.045Y-42.418
X106.045Y-45.212
X106.299Y-50.038
X106.299Y-51.943
X107.188Y-89.662
X107.188Y-90.551
X107.188Y-91.44
X107.569Y-80.01
X107.569Y-81.153
X110.49Y-93.853
X111.379Y-94.234
X113.538Y-55.88
X114.681Y-55.88
X118.364Y-48.26
X119.888Y-88.773
X120.142Y-48.26
X121.793Y-48.26
X121.912Y-56.269
X122.555Y-58.928
X123.571Y-58.928
X126.746Y-65.405
X127.635Y-58.928
X127.635Y-59.944
X127.889Y-65.405
X128.143Y-46.863
X128.524Y-59.944
X129.032Y-46.863
X129.794Y-67.183
X129.921Y-44.577
X129.921Y-46.863
X130.8Y-80.2
X130.81Y-44.577
X137.922Y-91.053
X139.446Y-91.053
X146.5Y-59.6
X146.5Y-60.6
X147.447Y-58.674
X148.971Y-83.82
X148.971Y-84.836
X149.733Y-80.264
X149.733Y-81.28
X149.86Y-45.333
X150.495Y-53.34
X150.749Y-80.27
X150.749Y-81.28
X151.003Y-55.88
X151.759Y-60.452
X152.146Y-92.71
X152.908Y-93.472
X153.67Y-45.339
X153.797Y-56.007
X155.829Y-84.709
X155.829Y-86.741
X155.956Y-74.803
X155.956Y-79.502
X156.083Y-89.408
X156.839Y-79.502
X156.972Y-74.803
X157.099Y-89.408
X157.607Y-43.434
X160.274Y-44.958
X161.163Y-44.952
X161.29Y-76.835
X162.306Y-46.742
X163.322Y-46.742
X163.576Y-59.563
X163.703Y-90.17
X164.211Y-58.42
X164.465Y-89.662
X166.497Y-73.66
X166.497Y-74.676
X167.132Y-54.737
X168.783Y-43.942
X169.418Y-94.742
X169.672Y-44.577
X170.053Y-93.98
X170.059Y-62.357
X170.942Y-81.915
X171.831Y-81.915
X171.831Y-88.265
X172.085Y-75.819
X172.466Y-44.577
X172.72Y-64.262
X174.503Y-60.584
X175.895Y-86.106
X176.53Y-44.577
X176.784Y-86.106
X176.784Y-92.202
X176.911Y-63.5
X177.927Y-63.5
X178.689Y-48.895
X180.975Y-71.755
X180.975Y-74.295
X181.61Y-54.991
X181.61Y-69.215
X181.737Y-49.657
X182.245Y-70.485
X182.245Y-73.025
X182.245Y-75.565
X182.626Y-47.371
X182.753Y-49.657
X183.261Y-59.309
X183.642Y-55.118
X184.15Y-71.755
X184.15Y-74.295
X184.277Y-59.309
X184.658Y-55.118
X184.785Y-69.215
X185.42Y-70.485
X185.42Y-73.025
X185.42Y-75.565
X187.071Y-83.439
X187.071Y-84.455
X187.325Y-46.101
X187.325Y-69.215
X187.325Y-71.755
X187.325Y-74.295
X187.452Y-81.026
X187.452Y-82.169
X188.595Y-70.485
X188.595Y-73.025
X188.595Y-75.565
X188.976Y-44.45
X189.103Y-46.101
T8
X187.98Y-85.738
X187.983Y-87.749
T9
X118.793Y-45.72
X120.793Y-45.72
X122.793Y-45.72
X124.793Y-45.72
X118.11Y-38.989
X118.11Y-41.529
X120.65Y-38.989
X120.65Y-41.529
X123.19Y-38.989
X123.19Y-41.529
X125.73Y-38.989
X125.73Y-41.529
X128.27Y-38.989
X128.27Y-41.529
X130.81Y-38.989
X130.81Y-41.529
X133.35Y-38.989
X133.35Y-41.529
X135.89Y-38.989
X135.89Y-41.529
X138.43Y-38.989
X138.43Y-41.529
X140.97Y-38.989
X140.97Y-41.529
X143.51Y-38.989
X143.51Y-41.529
X146.05Y-38.989
X146.05Y-41.529
X148.59Y-38.989
X148.59Y-41.529
X151.13Y-38.989
X151.13Y-41.529
X153.67Y-38.989
X153.67Y-41.529
X156.21Y-38.989
X156.21Y-41.529
X158.75Y-38.989
X158.75Y-41.529
X161.29Y-38.989
X161.29Y-41.529
X163.83Y-38.989
X163.83Y-41.529
X166.37Y-38.989
X166.37Y-41.529
X157.988Y-65.024
X160.528Y-65.024
X146.05Y-96.139
X146.05Y-98.679
X148.59Y-96.139
X148.59Y-98.679
X151.13Y-96.139
X151.13Y-98.679
X153.67Y-96.139
X153.67Y-98.679
X156.21Y-96.139
X156.21Y-98.679
X108.712Y-65.532
X110.712Y-65.532
X112.712Y-65.532
X114.712Y-65.532
X162.56Y-98.679
X165.1Y-98.679
X167.64Y-98.679
T10
X175.133Y-67.691
X175.133Y-70.231
X175.133Y-72.771
X175.133Y-75.311
X175.133Y-77.851
X177.673Y-66.421
X177.673Y-68.961
X177.673Y-71.501
X177.673Y-74.041
X177.673Y-76.581
X186.563Y-65.405
X186.563Y-78.867
X188.595Y-65.405
X188.595Y-78.867
T11
X165.862Y-84.645
X166.624Y-67.31
T12
X108.212Y-62.682
X108.212Y-68.382
X115.212Y-62.682
X115.212Y-68.382
T13
X180.975Y-64.389
X180.975Y-79.883
T14
X172.8Y-96.6
X114.5Y-96.6
X114.5Y-96.6
X113.Y-40.9
X113.Y-40.9
T6
X182.441Y-96.374G85X182.441Y-93.974
G05
X186.795Y-90.724G85X184.595Y-90.724
G05
X188.441Y-96.374G85X188.441Y-94.274
G05
X184.072Y-53.55G85X184.672Y-53.55
G05
X184.072Y-60.75G85X184.672Y-60.75
G05
X187.542Y-53.55G85X188.142Y-53.55
G05
X187.542Y-60.75G85X188.142Y-60.75
G05
T7
X101.047Y-39.182G85X102.047Y-39.182
G05
X101.047Y-53.782G85X102.047Y-53.782
G05
X106.897Y-39.182G85X108.297Y-39.182
G05
X106.897Y-53.782G85X108.297Y-53.782
G05
T0
M30
