G75*
G70*
%OFA0B0*%
%FSLAX24Y24*%
%IPPOS*%
%LPD*%
%AMOC8*
5,1,8,0,0,1.08239X$1,22.5*
%
%ADD10C,0.0631*%
%ADD11R,0.0740X0.0740*%
%ADD12R,0.0440X0.0440*%
%ADD13C,0.0670*%
%ADD14R,0.0571X0.0571*%
%ADD15C,0.0571*%
%ADD16R,0.0512X0.0257*%
%ADD17R,0.0240X0.0340*%
%ADD18R,0.0670X0.1221*%
%ADD19R,0.0591X0.0434*%
%ADD20C,0.0355*%
%ADD21R,0.0620X0.0440*%
%ADD22R,0.0540X0.0640*%
%ADD23R,0.0257X0.0512*%
%ADD24C,0.0434*%
%ADD25R,0.0640X0.0540*%
%ADD26R,0.0749X0.0749*%
%ADD27R,0.1221X0.0670*%
%ADD28R,0.0611X0.0749*%
%ADD29R,0.0940X0.0740*%
%ADD30C,0.0788*%
%ADD31C,0.1300*%
%ADD32C,0.0690*%
%ADD33C,0.0512*%
%ADD34R,0.0280X0.1190*%
%ADD35C,0.0740*%
%ADD36R,0.0749X0.0670*%
%ADD37R,0.0270X0.0280*%
%ADD38R,0.0280X0.0270*%
%ADD39R,0.0440X0.0200*%
%ADD40R,0.0440X0.0300*%
%ADD41C,0.0317*%
%ADD42R,0.0200X0.0440*%
%ADD43R,0.0300X0.0440*%
%ADD44C,0.0440*%
%ADD45R,0.0631X0.0434*%
%ADD46R,0.0827X0.0512*%
%ADD47R,0.0434X0.0591*%
%ADD48C,0.1385*%
%ADD49R,0.0340X0.0240*%
%ADD50O,0.0840X0.0440*%
%ADD51C,0.0500*%
%ADD52R,0.0440X0.0740*%
%ADD53R,0.0286X0.0168*%
%ADD54R,0.0286X0.0138*%
%ADD55R,0.0749X0.0985*%
%ADD56R,0.0138X0.0335*%
%ADD57R,0.0335X0.0138*%
%ADD58R,0.1300X0.1300*%
%ADD59C,0.0808*%
%ADD60R,0.0749X0.0611*%
%ADD61R,0.0257X0.0237*%
%ADD62C,0.0926*%
%ADD63R,0.0276X0.0906*%
%ADD64C,0.2205*%
D10*
X008927Y021032D03*
X009958Y021032D03*
X009958Y022017D03*
X008927Y022017D03*
X008927Y022804D03*
X009958Y022804D03*
X009958Y023788D03*
X008927Y023788D03*
X058654Y009613D03*
X058654Y009494D03*
X058654Y009376D03*
X058654Y009258D03*
X058654Y009140D03*
X058654Y009022D03*
X058654Y008904D03*
X058654Y008786D03*
X058654Y008668D03*
X061016Y008668D03*
X061016Y008786D03*
X061016Y008904D03*
X061016Y009022D03*
X061016Y009140D03*
X061016Y009258D03*
X061016Y009376D03*
X061016Y009494D03*
X060367Y010892D03*
X060288Y010892D03*
X060170Y010892D03*
X060052Y010892D03*
X059934Y010892D03*
X059816Y010892D03*
X059697Y010892D03*
X059579Y010892D03*
X059501Y010892D03*
D11*
X052227Y011410D03*
X041227Y012560D03*
X022827Y032410D03*
X050477Y039160D03*
X051727Y036160D03*
D12*
X045877Y031860D03*
X045877Y031160D03*
X044077Y031160D03*
X043477Y031160D03*
X043477Y031860D03*
X044077Y031860D03*
X042277Y031860D03*
X042277Y031160D03*
X038377Y031060D03*
X037777Y031060D03*
X037177Y031310D03*
X036577Y031310D03*
X035977Y031310D03*
X035277Y031310D03*
X034627Y030410D03*
X034527Y029810D03*
X033927Y029810D03*
X033927Y030410D03*
X033227Y030410D03*
X033227Y029810D03*
X034527Y029110D03*
X035227Y029110D03*
X035227Y029810D03*
X036577Y030610D03*
X037177Y030610D03*
X037777Y031760D03*
X038377Y031760D03*
X037977Y033010D03*
X037277Y033010D03*
X034027Y032310D03*
X034027Y031610D03*
X033227Y031110D03*
X029577Y031160D03*
X028877Y031160D03*
X028877Y030410D03*
X029577Y030410D03*
X029577Y029660D03*
X028877Y029660D03*
X028877Y028910D03*
X029577Y028910D03*
X030027Y027560D03*
X030727Y027560D03*
X033227Y027960D03*
X033227Y028560D03*
X033927Y028560D03*
X033927Y027960D03*
X035127Y027410D03*
X035827Y027410D03*
X027377Y028160D03*
X027377Y028760D03*
X026677Y028760D03*
X026677Y028160D03*
X026677Y029910D03*
X027377Y029910D03*
X027377Y030510D03*
X027377Y031210D03*
X025527Y034060D03*
X024827Y034060D03*
X023927Y034060D03*
X023227Y034060D03*
X023227Y036360D03*
X023927Y036360D03*
X024827Y036360D03*
X025527Y036360D03*
X011827Y037660D03*
X011827Y038260D03*
X011127Y038260D03*
X011127Y037660D03*
X020777Y026460D03*
X020777Y025760D03*
X021777Y025760D03*
X021777Y026460D03*
X025377Y024410D03*
X026077Y024410D03*
X026677Y024410D03*
X027277Y024410D03*
X027277Y023710D03*
X026677Y023710D03*
X026077Y023710D03*
X025377Y023710D03*
X027027Y021860D03*
X027627Y021860D03*
X027627Y021160D03*
X027027Y021160D03*
X022927Y018060D03*
X022227Y018060D03*
X021227Y017510D03*
X021227Y016810D03*
X021827Y016810D03*
X022527Y016810D03*
X023827Y016810D03*
X024527Y016810D03*
X024527Y015910D03*
X023827Y015910D03*
X021227Y016210D03*
X021227Y015510D03*
X018827Y014110D03*
X018227Y014110D03*
X018227Y013410D03*
X018827Y013410D03*
X017727Y015110D03*
X017027Y015110D03*
X016427Y015110D03*
X015727Y015110D03*
X014577Y015060D03*
X014577Y015760D03*
X013027Y016260D03*
X012327Y016260D03*
X013577Y017060D03*
X013577Y017760D03*
X013227Y018760D03*
X012527Y018760D03*
X013377Y019960D03*
X014077Y019960D03*
X014627Y020760D03*
X014627Y021460D03*
X014177Y022260D03*
X014177Y022860D03*
X013477Y022860D03*
X013477Y022260D03*
X012777Y023360D03*
X012777Y024060D03*
X013477Y025260D03*
X014177Y025260D03*
X020577Y021360D03*
X021277Y021360D03*
X021277Y020660D03*
X020577Y020660D03*
X018877Y018310D03*
X018177Y018310D03*
X016827Y019960D03*
X016827Y020560D03*
X016127Y020560D03*
X016127Y019960D03*
X011377Y017010D03*
X010777Y017010D03*
X010177Y017010D03*
X009577Y017010D03*
X009577Y016310D03*
X010177Y016310D03*
X010777Y016310D03*
X011377Y016310D03*
X010227Y017610D03*
X009527Y017610D03*
X012627Y014110D03*
X013227Y014110D03*
X013227Y013410D03*
X012627Y013410D03*
X013527Y012310D03*
X014227Y012310D03*
X014227Y011610D03*
X014227Y010910D03*
X013527Y010910D03*
X013527Y011610D03*
X013527Y010210D03*
X014227Y010210D03*
X015127Y010010D03*
X015127Y010710D03*
X015227Y011960D03*
X015227Y012660D03*
X015227Y013240D03*
X014627Y013240D03*
X014627Y013940D03*
X015227Y013940D03*
X018777Y011110D03*
X019477Y011110D03*
X022027Y009860D03*
X022727Y009860D03*
X023327Y009860D03*
X024027Y009860D03*
X023227Y008460D03*
X023227Y007760D03*
X027227Y007760D03*
X027227Y008460D03*
X031227Y008460D03*
X031227Y007760D03*
X035227Y007760D03*
X035227Y008460D03*
X039227Y008460D03*
X039227Y007760D03*
X043227Y007760D03*
X043227Y008460D03*
X043927Y009360D03*
X044527Y009360D03*
X044527Y010060D03*
X043927Y010060D03*
X043227Y010960D03*
X042627Y010960D03*
X042627Y011660D03*
X043227Y011660D03*
X044677Y011660D03*
X045277Y011660D03*
X045277Y010960D03*
X044677Y010960D03*
X048777Y010910D03*
X049377Y010910D03*
X049977Y010910D03*
X049977Y010210D03*
X049377Y010210D03*
X048777Y010210D03*
X048777Y009310D03*
X049377Y009310D03*
X049377Y008610D03*
X048777Y008610D03*
X048577Y007760D03*
X047877Y007760D03*
X053527Y008610D03*
X054127Y008610D03*
X054127Y009310D03*
X053527Y009310D03*
X053427Y009910D03*
X054127Y009910D03*
X054127Y010510D03*
X053427Y010510D03*
X054627Y011110D03*
X055327Y011110D03*
X055527Y009610D03*
X056227Y009610D03*
X057627Y013710D03*
X058227Y013710D03*
X058927Y013710D03*
X057627Y014410D03*
X057677Y015360D03*
X057677Y016060D03*
X058277Y016060D03*
X058977Y016060D03*
X057777Y016860D03*
X057777Y017560D03*
X058827Y017260D03*
X059527Y017260D03*
X060627Y017760D03*
X060627Y018360D03*
X061327Y018360D03*
X061327Y017760D03*
X061327Y019310D03*
X060627Y019310D03*
X060027Y019310D03*
X060027Y020010D03*
X060627Y019910D03*
X061327Y019910D03*
X055977Y018110D03*
X055277Y018110D03*
X054677Y018610D03*
X053977Y018610D03*
X055277Y017510D03*
X055277Y016910D03*
X055977Y016910D03*
X055977Y017510D03*
X055927Y015660D03*
X055927Y014960D03*
X055927Y014360D03*
X055227Y014360D03*
X053677Y014210D03*
X053677Y013610D03*
X052977Y013610D03*
X052977Y014210D03*
X052977Y014810D03*
X053677Y014810D03*
X053677Y015410D03*
X052977Y015410D03*
X045877Y018660D03*
X045277Y018660D03*
X045277Y019360D03*
X045877Y019360D03*
X043777Y019360D03*
X043177Y019360D03*
X042577Y019360D03*
X041977Y019360D03*
X041377Y019360D03*
X040677Y019360D03*
X040077Y019360D03*
X039477Y019360D03*
X038877Y019360D03*
X038277Y019360D03*
X037677Y019360D03*
X037677Y018660D03*
X038277Y018660D03*
X038877Y018660D03*
X039477Y018660D03*
X040077Y018660D03*
X041977Y018660D03*
X042577Y018660D03*
X043177Y018660D03*
X043777Y018660D03*
X036902Y018660D03*
X036902Y019360D03*
X034727Y018660D03*
X034027Y018660D03*
X048577Y026260D03*
X049277Y026260D03*
X049277Y027060D03*
X048577Y027060D03*
X048577Y027760D03*
X049277Y027760D03*
X049277Y028460D03*
X049277Y029060D03*
X048577Y029060D03*
X048577Y028460D03*
X018227Y009160D03*
X017627Y009160D03*
X017027Y009160D03*
X016427Y009160D03*
X016427Y008460D03*
X017027Y008460D03*
X017027Y007860D03*
X017727Y007860D03*
X017627Y008460D03*
X018227Y008460D03*
X019227Y008460D03*
X019227Y007760D03*
X012627Y007860D03*
X012627Y008560D03*
X012627Y009160D03*
X012627Y009860D03*
D13*
X015227Y014560D03*
X020227Y009560D03*
X038227Y009560D03*
X043227Y009560D03*
X046227Y009560D03*
X051227Y014560D03*
X059629Y024446D03*
X051227Y032560D03*
X046227Y037560D03*
X043227Y037560D03*
X038227Y037560D03*
X020227Y037560D03*
X015227Y032560D03*
X059629Y033970D03*
D14*
X059227Y012117D03*
X050077Y009354D03*
X011483Y039110D03*
D15*
X012271Y039110D03*
X010765Y012564D03*
X011765Y012064D03*
X010765Y011564D03*
X011765Y011064D03*
X010765Y010564D03*
X011765Y010064D03*
X010765Y009564D03*
X011765Y009064D03*
X050077Y008567D03*
X059227Y012904D03*
D16*
X055339Y014886D03*
X055339Y015634D03*
X054315Y015634D03*
X054315Y015260D03*
X054315Y014886D03*
X058865Y017886D03*
X059889Y017886D03*
X059889Y018260D03*
X059889Y018634D03*
X058865Y018634D03*
D17*
X056927Y014060D03*
X056627Y014060D03*
X018577Y016610D03*
X018277Y016610D03*
D18*
X053054Y016910D03*
X053999Y016910D03*
X060254Y016660D03*
X061199Y016660D03*
D19*
X056944Y012984D03*
X056944Y012236D03*
X057810Y012610D03*
X048110Y010934D03*
X048110Y010186D03*
X047244Y010560D03*
X035477Y017762D03*
X035477Y019258D03*
D20*
X037227Y008610D03*
X037227Y007560D03*
X033227Y007560D03*
X033227Y008610D03*
X029227Y008610D03*
X029227Y007560D03*
X025227Y007560D03*
X025227Y008610D03*
X021227Y008610D03*
X021227Y007560D03*
X041227Y007560D03*
X041227Y008610D03*
X045227Y008610D03*
X045227Y007560D03*
X056127Y007560D03*
X056127Y008610D03*
X056127Y038510D03*
X056127Y039560D03*
X047977Y039560D03*
X047977Y038510D03*
D21*
X046767Y038710D03*
X046767Y039410D03*
X049187Y039410D03*
X049187Y038710D03*
X054917Y038710D03*
X054917Y039410D03*
X057337Y039410D03*
X057337Y038710D03*
X057337Y008410D03*
X057337Y007710D03*
X054917Y007710D03*
X054917Y008410D03*
X046437Y008410D03*
X046437Y007710D03*
X044017Y007710D03*
X044017Y008410D03*
X042437Y008410D03*
X042437Y007710D03*
X040017Y007710D03*
X040017Y008410D03*
X038437Y008410D03*
X038437Y007710D03*
X036017Y007710D03*
X036017Y008410D03*
X034437Y008410D03*
X034437Y007710D03*
X032017Y007710D03*
X032017Y008410D03*
X030437Y008410D03*
X030437Y007710D03*
X028017Y007710D03*
X028017Y008410D03*
X026437Y008410D03*
X026437Y007710D03*
X024017Y007710D03*
X024017Y008410D03*
X022437Y008410D03*
X022437Y007710D03*
X020017Y007710D03*
X020017Y008410D03*
D22*
X009477Y015310D03*
X008677Y015310D03*
X009277Y018360D03*
X010077Y018360D03*
X011127Y019910D03*
X011927Y019910D03*
X011927Y022510D03*
X011127Y022510D03*
X038877Y032910D03*
X039677Y032910D03*
X048427Y029760D03*
X049227Y029760D03*
X059377Y022810D03*
X060177Y022810D03*
X060177Y022010D03*
X059377Y022010D03*
X057977Y010810D03*
X057177Y010810D03*
X056377Y010360D03*
X055577Y010360D03*
D23*
X058253Y014348D03*
X058627Y014348D03*
X059001Y014348D03*
X059001Y015372D03*
X058627Y015372D03*
X058253Y015372D03*
X014151Y020598D03*
X013403Y020598D03*
X013403Y021622D03*
X013777Y021622D03*
X014151Y021622D03*
X014151Y023498D03*
X013403Y023498D03*
X013403Y024522D03*
X013777Y024522D03*
X014151Y024522D03*
X013051Y017922D03*
X012677Y017922D03*
X012303Y017922D03*
X012303Y016898D03*
X013051Y016898D03*
D24*
X007427Y017530D03*
X007427Y015797D03*
X015877Y007760D03*
X053377Y007760D03*
X059661Y034510D03*
X059661Y037660D03*
X053377Y039360D03*
D25*
X055877Y022760D03*
X055877Y021960D03*
X056677Y021960D03*
X056677Y022760D03*
X057177Y010010D03*
X057177Y009210D03*
X021327Y018210D03*
X021327Y019010D03*
X013927Y014310D03*
X013927Y013510D03*
X011727Y017960D03*
X010927Y017960D03*
X010927Y018760D03*
X011727Y018760D03*
X011877Y020710D03*
X012677Y020710D03*
X012677Y021510D03*
X011877Y021510D03*
X011077Y021510D03*
X011077Y020710D03*
X011177Y023310D03*
X011977Y023310D03*
X011977Y024110D03*
X011177Y024110D03*
X011177Y024910D03*
X011977Y024910D03*
X011977Y025710D03*
X011177Y025710D03*
D26*
X057227Y020210D03*
D27*
X060037Y015423D03*
X060037Y014478D03*
D28*
X056240Y013360D03*
X054314Y013360D03*
D29*
X059877Y010017D03*
X059877Y008303D03*
D30*
X059395Y026549D03*
X056639Y026549D03*
X056639Y030649D03*
X059395Y030649D03*
D31*
X008127Y013060D03*
X008127Y008560D03*
D32*
X006257Y008208D03*
X006257Y009208D03*
X006257Y012413D03*
X006257Y013413D03*
D33*
X009111Y007661D03*
X009190Y007661D03*
X009269Y007661D03*
X009347Y007661D03*
X009426Y007661D03*
X009505Y007661D03*
X009505Y013960D03*
X009426Y013960D03*
X009347Y013960D03*
X009269Y013960D03*
X009190Y013960D03*
X009111Y013960D03*
X009662Y026486D03*
X009761Y026486D03*
X009879Y026486D03*
X010036Y026486D03*
X010095Y026486D03*
X010214Y026486D03*
X007753Y026496D03*
X007635Y026486D03*
X007477Y026486D03*
X007359Y026486D03*
X007359Y032234D03*
X007477Y032234D03*
X007635Y032234D03*
X007753Y032234D03*
X009662Y032234D03*
X009761Y032234D03*
X009879Y032234D03*
X010036Y032234D03*
X010095Y032234D03*
X010214Y032234D03*
D34*
X015727Y018734D03*
X016227Y018734D03*
X016727Y018734D03*
X017227Y018734D03*
X017227Y016387D03*
X016727Y016387D03*
X016227Y016387D03*
X015727Y016387D03*
D35*
X021827Y032410D03*
X050727Y036160D03*
X044227Y012560D03*
X043227Y012560D03*
X042227Y012560D03*
X052227Y010410D03*
D36*
X011077Y031859D03*
X011077Y032961D03*
D37*
X027827Y024010D03*
X027827Y023610D03*
X030467Y024790D03*
X030837Y024790D03*
X031207Y024790D03*
X031577Y024790D03*
X031947Y024790D03*
X032327Y024790D03*
X032697Y024790D03*
X033067Y024790D03*
X033437Y024790D03*
X033807Y024790D03*
X034177Y024790D03*
X034547Y024790D03*
X034547Y025190D03*
X034177Y025190D03*
X033807Y025190D03*
X033437Y025190D03*
X033067Y025190D03*
X032697Y025190D03*
X032327Y025190D03*
X031947Y025190D03*
X031577Y025190D03*
X031207Y025190D03*
X030837Y025190D03*
X030467Y025190D03*
X032327Y025660D03*
X032327Y026060D03*
X032297Y024030D03*
X032297Y023630D03*
X032297Y022440D03*
X032297Y022040D03*
X032232Y021410D03*
X032587Y021410D03*
X032967Y021410D03*
X033347Y021410D03*
X033727Y021410D03*
X033727Y021010D03*
X033347Y021010D03*
X032967Y021010D03*
X032587Y021010D03*
X032232Y021010D03*
X031877Y021010D03*
X031497Y021010D03*
X031117Y021010D03*
X031117Y021410D03*
X031497Y021410D03*
X031877Y021410D03*
X026527Y021460D03*
X026527Y021060D03*
D38*
X028787Y023330D03*
X029187Y023330D03*
X030357Y023530D03*
X030757Y023530D03*
X030757Y023110D03*
X030357Y023110D03*
X030357Y022690D03*
X030757Y022690D03*
X030757Y022270D03*
X030357Y022270D03*
X030357Y021850D03*
X030757Y021850D03*
X030757Y021430D03*
X030357Y021430D03*
X030357Y021010D03*
X030757Y021010D03*
X031407Y022960D03*
X031807Y022960D03*
X032247Y022960D03*
X032647Y022960D03*
X033087Y022960D03*
X033487Y022960D03*
X034137Y023110D03*
X034537Y023110D03*
X034537Y022690D03*
X034137Y022690D03*
X034137Y022270D03*
X034537Y022270D03*
X034537Y021850D03*
X034137Y021850D03*
X034137Y021430D03*
X034537Y021430D03*
X034537Y021010D03*
X034137Y021010D03*
X034137Y023530D03*
X034537Y023530D03*
X034537Y023950D03*
X034137Y023950D03*
X034137Y024370D03*
X034537Y024370D03*
X030757Y024370D03*
X030357Y024370D03*
X030357Y023950D03*
X030757Y023950D03*
X029777Y028160D03*
X029377Y028160D03*
X034227Y030910D03*
X034627Y030910D03*
X035877Y032360D03*
X035877Y032710D03*
X036277Y032710D03*
X036277Y032360D03*
X037227Y032260D03*
X037627Y032260D03*
X018627Y017760D03*
X018627Y017360D03*
X018627Y017010D03*
X018227Y017010D03*
X018227Y017360D03*
X018227Y017760D03*
X021819Y016210D03*
X022219Y016210D03*
X021527Y015010D03*
X021127Y015010D03*
X022377Y017410D03*
X022777Y017410D03*
X025627Y017110D03*
X026027Y017110D03*
X026027Y016410D03*
X026027Y016060D03*
X025627Y016060D03*
X025627Y016410D03*
X027527Y015735D03*
X027927Y015735D03*
D39*
X019427Y012410D03*
X019427Y012110D03*
X018827Y012110D03*
X018827Y012410D03*
X018827Y010110D03*
X018827Y009810D03*
X019427Y009810D03*
X019427Y010110D03*
X051927Y020660D03*
X051927Y020960D03*
X052527Y020960D03*
X052527Y020660D03*
X048377Y030810D03*
X048377Y031110D03*
X047777Y031110D03*
X047777Y030810D03*
D40*
X047777Y030460D03*
X048377Y030460D03*
X048377Y031460D03*
X047777Y031460D03*
X051927Y021310D03*
X052527Y021310D03*
X052527Y020310D03*
X051927Y020310D03*
X019427Y012760D03*
X018827Y012760D03*
X018827Y011760D03*
X019427Y011760D03*
X019427Y010460D03*
X018827Y010460D03*
X018827Y009460D03*
X019427Y009460D03*
D41*
X017160Y010963D03*
X016924Y010727D03*
X016530Y010727D03*
X016294Y010963D03*
X016294Y011357D03*
X016530Y011593D03*
X016924Y011593D03*
X017160Y011357D03*
X009234Y033674D03*
X009156Y033674D03*
X009067Y033674D03*
X008969Y033674D03*
X008880Y033674D03*
X008801Y033674D03*
X008801Y038690D03*
X008880Y038690D03*
X008969Y038690D03*
X009067Y038690D03*
X009156Y038690D03*
X009234Y038690D03*
D42*
X021827Y034510D03*
X022127Y034510D03*
X022127Y033910D03*
X021827Y033910D03*
X024027Y018710D03*
X024327Y018710D03*
X024327Y018110D03*
X024027Y018110D03*
X024027Y014710D03*
X024327Y014710D03*
X024327Y014110D03*
X024027Y014110D03*
D43*
X023677Y014110D03*
X023677Y014710D03*
X024677Y014710D03*
X024677Y014110D03*
X024677Y018110D03*
X024677Y018710D03*
X023677Y018710D03*
X023677Y018110D03*
X022477Y033910D03*
X022477Y034510D03*
X021477Y034510D03*
X021477Y033910D03*
D44*
X020727Y036310D03*
X019727Y036310D03*
X020727Y038660D03*
X035827Y029810D03*
X048077Y032710D03*
X059777Y021260D03*
X053527Y018610D03*
X053027Y018110D03*
X056727Y014910D03*
X061277Y012310D03*
X049627Y012260D03*
D45*
X050003Y025517D03*
X050003Y026502D03*
X050003Y027486D03*
X050003Y028135D03*
X050003Y028785D03*
X050003Y029458D03*
X050003Y030443D03*
X050003Y031427D03*
X050003Y032383D03*
X050003Y033053D03*
X050003Y034372D03*
D46*
X058803Y034604D03*
X058330Y023502D03*
D47*
X047425Y012610D03*
X045929Y012610D03*
X047677Y009343D03*
X048051Y008477D03*
X047303Y008477D03*
X025177Y034777D03*
X025551Y035643D03*
X024803Y035643D03*
X023951Y035643D03*
X023203Y035643D03*
X023577Y034777D03*
D48*
X010108Y024997D03*
X007864Y024997D03*
X007864Y019824D03*
X010108Y019824D03*
D49*
X022677Y025960D03*
X022677Y026260D03*
X027777Y017160D03*
X027777Y016860D03*
X027777Y016560D03*
X027777Y016260D03*
X046677Y009160D03*
X046677Y008860D03*
D50*
X016627Y036310D03*
X016627Y036810D03*
X016627Y037310D03*
X016627Y037810D03*
X016627Y038310D03*
X016627Y038810D03*
D51*
X053042Y039360D02*
X053044Y039397D01*
X053050Y039433D01*
X053060Y039469D01*
X053074Y039503D01*
X053092Y039535D01*
X053113Y039566D01*
X053137Y039594D01*
X053164Y039619D01*
X053194Y039640D01*
X053226Y039659D01*
X053260Y039674D01*
X053295Y039685D01*
X053331Y039692D01*
X053368Y039695D01*
X053405Y039694D01*
X053441Y039689D01*
X053477Y039680D01*
X053512Y039667D01*
X053544Y039650D01*
X053575Y039630D01*
X053604Y039606D01*
X053630Y039580D01*
X053652Y039551D01*
X053672Y039519D01*
X053687Y039486D01*
X053699Y039451D01*
X053707Y039415D01*
X053711Y039378D01*
X053711Y039342D01*
X053707Y039305D01*
X053699Y039269D01*
X053687Y039234D01*
X053672Y039201D01*
X053652Y039169D01*
X053630Y039140D01*
X053604Y039114D01*
X053575Y039090D01*
X053545Y039070D01*
X053512Y039053D01*
X053477Y039040D01*
X053441Y039031D01*
X053405Y039026D01*
X053368Y039025D01*
X053331Y039028D01*
X053295Y039035D01*
X053260Y039046D01*
X053226Y039061D01*
X053194Y039080D01*
X053164Y039101D01*
X053137Y039126D01*
X053113Y039154D01*
X053092Y039185D01*
X053074Y039217D01*
X053060Y039251D01*
X053050Y039287D01*
X053044Y039323D01*
X053042Y039360D01*
X053042Y007760D02*
X053044Y007797D01*
X053050Y007833D01*
X053060Y007869D01*
X053074Y007903D01*
X053092Y007935D01*
X053113Y007966D01*
X053137Y007994D01*
X053164Y008019D01*
X053194Y008040D01*
X053226Y008059D01*
X053260Y008074D01*
X053295Y008085D01*
X053331Y008092D01*
X053368Y008095D01*
X053405Y008094D01*
X053441Y008089D01*
X053477Y008080D01*
X053512Y008067D01*
X053544Y008050D01*
X053575Y008030D01*
X053604Y008006D01*
X053630Y007980D01*
X053652Y007951D01*
X053672Y007919D01*
X053687Y007886D01*
X053699Y007851D01*
X053707Y007815D01*
X053711Y007778D01*
X053711Y007742D01*
X053707Y007705D01*
X053699Y007669D01*
X053687Y007634D01*
X053672Y007601D01*
X053652Y007569D01*
X053630Y007540D01*
X053604Y007514D01*
X053575Y007490D01*
X053545Y007470D01*
X053512Y007453D01*
X053477Y007440D01*
X053441Y007431D01*
X053405Y007426D01*
X053368Y007425D01*
X053331Y007428D01*
X053295Y007435D01*
X053260Y007446D01*
X053226Y007461D01*
X053194Y007480D01*
X053164Y007501D01*
X053137Y007526D01*
X053113Y007554D01*
X053092Y007585D01*
X053074Y007617D01*
X053060Y007651D01*
X053050Y007687D01*
X053044Y007723D01*
X053042Y007760D01*
X015542Y007760D02*
X015544Y007797D01*
X015550Y007833D01*
X015560Y007869D01*
X015574Y007903D01*
X015592Y007935D01*
X015613Y007966D01*
X015637Y007994D01*
X015664Y008019D01*
X015694Y008040D01*
X015726Y008059D01*
X015760Y008074D01*
X015795Y008085D01*
X015831Y008092D01*
X015868Y008095D01*
X015905Y008094D01*
X015941Y008089D01*
X015977Y008080D01*
X016012Y008067D01*
X016044Y008050D01*
X016075Y008030D01*
X016104Y008006D01*
X016130Y007980D01*
X016152Y007951D01*
X016172Y007919D01*
X016187Y007886D01*
X016199Y007851D01*
X016207Y007815D01*
X016211Y007778D01*
X016211Y007742D01*
X016207Y007705D01*
X016199Y007669D01*
X016187Y007634D01*
X016172Y007601D01*
X016152Y007569D01*
X016130Y007540D01*
X016104Y007514D01*
X016075Y007490D01*
X016045Y007470D01*
X016012Y007453D01*
X015977Y007440D01*
X015941Y007431D01*
X015905Y007426D01*
X015868Y007425D01*
X015831Y007428D01*
X015795Y007435D01*
X015760Y007446D01*
X015726Y007461D01*
X015694Y007480D01*
X015664Y007501D01*
X015637Y007526D01*
X015613Y007554D01*
X015592Y007585D01*
X015574Y007617D01*
X015560Y007651D01*
X015550Y007687D01*
X015544Y007723D01*
X015542Y007760D01*
D52*
X012027Y007860D03*
X010627Y007860D03*
X010627Y014010D03*
X012027Y014010D03*
D53*
X025625Y014699D03*
X026029Y014699D03*
X026029Y015321D03*
X025625Y015321D03*
X025625Y017499D03*
X026029Y017499D03*
X026029Y018121D03*
X025625Y018121D03*
D54*
X025625Y017909D03*
X025625Y017712D03*
X026029Y017712D03*
X026029Y017909D03*
X026029Y015109D03*
X026029Y014912D03*
X025625Y014912D03*
X025625Y015109D03*
D55*
X017514Y013710D03*
X015940Y013710D03*
D56*
X016038Y012115D03*
X016235Y012115D03*
X016432Y012115D03*
X016629Y012115D03*
X016825Y012115D03*
X017022Y012115D03*
X017219Y012115D03*
X017416Y012115D03*
X017416Y010206D03*
X017219Y010206D03*
X017022Y010206D03*
X016825Y010206D03*
X016629Y010206D03*
X016432Y010206D03*
X016235Y010206D03*
X016038Y010206D03*
D57*
X015772Y010471D03*
X015772Y010668D03*
X015772Y010865D03*
X015772Y011062D03*
X015772Y011259D03*
X015772Y011456D03*
X015772Y011652D03*
X015772Y011849D03*
X017682Y011849D03*
X017682Y011652D03*
X017682Y011456D03*
X017682Y011259D03*
X017682Y011062D03*
X017682Y010865D03*
X017682Y010668D03*
X017682Y010471D03*
D58*
X016727Y011160D03*
D59*
X016727Y011160D03*
D60*
X060427Y011748D03*
X060427Y013673D03*
D61*
X043137Y026610D03*
X043137Y027010D03*
X043137Y027360D03*
X043137Y027760D03*
D62*
X054977Y009860D03*
D63*
X022277Y022182D03*
X021777Y022182D03*
X021277Y022182D03*
X020777Y022182D03*
X020777Y024938D03*
X021277Y024938D03*
X021777Y024938D03*
X022277Y024938D03*
D64*
X014477Y038310D03*
X051977Y038310D03*
X051977Y008810D03*
X014477Y008810D03*
M02*
