G04 #@! TF.GenerationSoftware,KiCad,Pcbnew,(6.0.0-rc1-dev-478-gc120ae9e9)*
G04 #@! TF.CreationDate,2018-09-18T16:09:50+03:00*
G04 #@! TF.ProjectId,LCD-DRIVER_Rev_C,4C43442D4452495645525F5265765F43,C*
G04 #@! TF.SameCoordinates,Original*
G04 #@! TF.FileFunction,Soldermask,Bot*
G04 #@! TF.FilePolarity,Negative*
%FSLAX46Y46*%
G04 Gerber Fmt 4.6, Leading zero omitted, Abs format (unit mm)*
G04 Created by KiCad (PCBNEW (6.0.0-rc1-dev-478-gc120ae9e9)) date 09/18/18 16:09:50*
%MOMM*%
%LPD*%
G01*
G04 APERTURE LIST*
%ADD10C,0.200000*%
G04 APERTURE END LIST*
D10*
G36*
X172682889Y-124397095D02*
X172796996Y-124444359D01*
X172899692Y-124512979D01*
X172987021Y-124600308D01*
X173055641Y-124703004D01*
X173102905Y-124817111D01*
X173127000Y-124938244D01*
X173127000Y-125061756D01*
X173102905Y-125182889D01*
X173055641Y-125296996D01*
X172987021Y-125399692D01*
X172899692Y-125487021D01*
X172796996Y-125555641D01*
X172682889Y-125602905D01*
X172561756Y-125627000D01*
X172438244Y-125627000D01*
X172317111Y-125602905D01*
X172203004Y-125555641D01*
X172100308Y-125487021D01*
X172012979Y-125399692D01*
X171944359Y-125296996D01*
X171897095Y-125182889D01*
X171873000Y-125061756D01*
X171873000Y-124938244D01*
X171897095Y-124817111D01*
X171944359Y-124703004D01*
X172012979Y-124600308D01*
X172100308Y-124512979D01*
X172203004Y-124444359D01*
X172317111Y-124397095D01*
X172438244Y-124373000D01*
X172561756Y-124373000D01*
X172682889Y-124397095D01*
X172682889Y-124397095D01*
G37*
G36*
X71682889Y-124397095D02*
X71796996Y-124444359D01*
X71899692Y-124512979D01*
X71987021Y-124600308D01*
X72055641Y-124703004D01*
X72102905Y-124817111D01*
X72127000Y-124938244D01*
X72127000Y-125061756D01*
X72102905Y-125182889D01*
X72055641Y-125296996D01*
X71987021Y-125399692D01*
X71899692Y-125487021D01*
X71796996Y-125555641D01*
X71682889Y-125602905D01*
X71561756Y-125627000D01*
X71438244Y-125627000D01*
X71317111Y-125602905D01*
X71203004Y-125555641D01*
X71100308Y-125487021D01*
X71012979Y-125399692D01*
X70944359Y-125296996D01*
X70897095Y-125182889D01*
X70873000Y-125061756D01*
X70873000Y-124938244D01*
X70897095Y-124817111D01*
X70944359Y-124703004D01*
X71012979Y-124600308D01*
X71100308Y-124512979D01*
X71203004Y-124444359D01*
X71317111Y-124397095D01*
X71438244Y-124373000D01*
X71561756Y-124373000D01*
X71682889Y-124397095D01*
X71682889Y-124397095D01*
G37*
G36*
X79064705Y-122380606D02*
X77278954Y-123631003D01*
X75799127Y-121517590D01*
X77584878Y-120267193D01*
X79064705Y-122380606D01*
X79064705Y-122380606D01*
G37*
G36*
X131788802Y-120804163D02*
X130247308Y-122345657D01*
X128422972Y-120521321D01*
X129964466Y-118979827D01*
X131788802Y-120804163D01*
X131788802Y-120804163D01*
G37*
G36*
X171039622Y-116721094D02*
X171039624Y-116721095D01*
X171039625Y-116721095D01*
X171163993Y-116772610D01*
X171376304Y-116860552D01*
X171679309Y-117063013D01*
X171936987Y-117320691D01*
X172139448Y-117623696D01*
X172209160Y-117791995D01*
X172271988Y-117943675D01*
X172278906Y-117960378D01*
X172350000Y-118317789D01*
X172350000Y-118682211D01*
X172278906Y-119039622D01*
X172139448Y-119376304D01*
X171936987Y-119679309D01*
X171679309Y-119936987D01*
X171376304Y-120139448D01*
X171163993Y-120227390D01*
X171039625Y-120278905D01*
X171039624Y-120278905D01*
X171039622Y-120278906D01*
X170682211Y-120350000D01*
X170317789Y-120350000D01*
X169960378Y-120278906D01*
X169960376Y-120278905D01*
X169960375Y-120278905D01*
X169836007Y-120227390D01*
X169623696Y-120139448D01*
X169320691Y-119936987D01*
X169063013Y-119679309D01*
X168860552Y-119376304D01*
X168721094Y-119039622D01*
X168650000Y-118682211D01*
X168650000Y-118317789D01*
X168721094Y-117960378D01*
X168728013Y-117943675D01*
X168790840Y-117791995D01*
X168860552Y-117623696D01*
X169063013Y-117320691D01*
X169320691Y-117063013D01*
X169623696Y-116860552D01*
X169836007Y-116772610D01*
X169960375Y-116721095D01*
X169960376Y-116721095D01*
X169960378Y-116721094D01*
X170317789Y-116650000D01*
X170682211Y-116650000D01*
X171039622Y-116721094D01*
X171039622Y-116721094D01*
G37*
G36*
X74039622Y-116721094D02*
X74039624Y-116721095D01*
X74039625Y-116721095D01*
X74163993Y-116772610D01*
X74376304Y-116860552D01*
X74679309Y-117063013D01*
X74936987Y-117320691D01*
X75139448Y-117623696D01*
X75209160Y-117791995D01*
X75271988Y-117943675D01*
X75278906Y-117960378D01*
X75350000Y-118317789D01*
X75350000Y-118682211D01*
X75278906Y-119039622D01*
X75139448Y-119376304D01*
X74936987Y-119679309D01*
X74679309Y-119936987D01*
X74376304Y-120139448D01*
X74163993Y-120227390D01*
X74039625Y-120278905D01*
X74039624Y-120278905D01*
X74039622Y-120278906D01*
X73682211Y-120350000D01*
X73317789Y-120350000D01*
X72960378Y-120278906D01*
X72960376Y-120278905D01*
X72960375Y-120278905D01*
X72836007Y-120227390D01*
X72623696Y-120139448D01*
X72320691Y-119936987D01*
X72063013Y-119679309D01*
X71860552Y-119376304D01*
X71721094Y-119039622D01*
X71650000Y-118682211D01*
X71650000Y-118317789D01*
X71721094Y-117960378D01*
X71728013Y-117943675D01*
X71790840Y-117791995D01*
X71860552Y-117623696D01*
X72063013Y-117320691D01*
X72320691Y-117063013D01*
X72623696Y-116860552D01*
X72836007Y-116772610D01*
X72960375Y-116721095D01*
X72960376Y-116721095D01*
X72960378Y-116721094D01*
X73317789Y-116650000D01*
X73682211Y-116650000D01*
X74039622Y-116721094D01*
X74039622Y-116721094D01*
G37*
G36*
X79009685Y-119319341D02*
X78516884Y-119664405D01*
X77426171Y-118106705D01*
X77918972Y-117761641D01*
X79009685Y-119319341D01*
X79009685Y-119319341D01*
G37*
G36*
X79828837Y-118745764D02*
X79336036Y-119090828D01*
X78245323Y-117533128D01*
X78738124Y-117188064D01*
X79828837Y-118745764D01*
X79828837Y-118745764D01*
G37*
G36*
X85617921Y-117791995D02*
X83832170Y-119042392D01*
X82352343Y-116928979D01*
X84138094Y-115678582D01*
X85617921Y-117791995D01*
X85617921Y-117791995D01*
G37*
G36*
X80647989Y-118172188D02*
X80155188Y-118517252D01*
X79064475Y-116959552D01*
X79557276Y-116614488D01*
X80647989Y-118172188D01*
X80647989Y-118172188D01*
G37*
G36*
X131203035Y-117798959D02*
X130777638Y-118224356D01*
X129433003Y-116879721D01*
X129858400Y-116454324D01*
X131203035Y-117798959D01*
X131203035Y-117798959D01*
G37*
G36*
X81467141Y-117598611D02*
X80974340Y-117943675D01*
X79883627Y-116385975D01*
X80376428Y-116040911D01*
X81467141Y-117598611D01*
X81467141Y-117598611D01*
G37*
G36*
X131910142Y-117091852D02*
X131484745Y-117517249D01*
X130140110Y-116172614D01*
X130565507Y-115747217D01*
X131910142Y-117091852D01*
X131910142Y-117091852D01*
G37*
G36*
X132617249Y-116384745D02*
X132191852Y-116810142D01*
X130847217Y-115465507D01*
X131272614Y-115040110D01*
X132617249Y-116384745D01*
X132617249Y-116384745D01*
G37*
G36*
X137445657Y-115147308D02*
X135904163Y-116688802D01*
X134079827Y-114864466D01*
X135621321Y-113322972D01*
X137445657Y-115147308D01*
X137445657Y-115147308D01*
G37*
G36*
X133324356Y-115677638D02*
X132898959Y-116103035D01*
X131554324Y-114758400D01*
X131979721Y-114333003D01*
X133324356Y-115677638D01*
X133324356Y-115677638D01*
G37*
G36*
X89900800Y-112600800D02*
X87399200Y-112600800D01*
X87399200Y-109899200D01*
X89900800Y-109899200D01*
X89900800Y-112600800D01*
X89900800Y-112600800D01*
G37*
G36*
X118700800Y-112600800D02*
X116199200Y-112600800D01*
X116199200Y-109899200D01*
X118700800Y-109899200D01*
X118700800Y-112600800D01*
X118700800Y-112600800D01*
G37*
G36*
X173400800Y-112000800D02*
X170899200Y-112000800D01*
X170899200Y-109299200D01*
X173400800Y-109299200D01*
X173400800Y-112000800D01*
X173400800Y-112000800D01*
G37*
G36*
X144600800Y-112000800D02*
X142099200Y-112000800D01*
X142099200Y-109299200D01*
X144600800Y-109299200D01*
X144600800Y-112000800D01*
X144600800Y-112000800D01*
G37*
G36*
X83790000Y-111490000D02*
X81410000Y-111490000D01*
X81410000Y-108310000D01*
X83790000Y-108310000D01*
X83790000Y-111490000D01*
X83790000Y-111490000D01*
G37*
G36*
X76990000Y-111490000D02*
X74610000Y-111490000D01*
X74610000Y-108310000D01*
X76990000Y-108310000D01*
X76990000Y-111490000D01*
X76990000Y-111490000D01*
G37*
G36*
X136698800Y-110180800D02*
X136097200Y-110180800D01*
X136097200Y-108640200D01*
X136698800Y-108640200D01*
X136698800Y-110180800D01*
X136698800Y-110180800D01*
G37*
G36*
X134412800Y-110180800D02*
X133811200Y-110180800D01*
X133811200Y-108640200D01*
X134412800Y-108640200D01*
X134412800Y-110180800D01*
X134412800Y-110180800D01*
G37*
G36*
X122651800Y-109404200D02*
X122654202Y-109428586D01*
X122661315Y-109452035D01*
X122672866Y-109473646D01*
X122688412Y-109492588D01*
X122707354Y-109508134D01*
X122728800Y-109519597D01*
X122728800Y-110180800D01*
X122127200Y-110180800D01*
X122127200Y-109439800D01*
X122124798Y-109415414D01*
X122117685Y-109391965D01*
X122106134Y-109370354D01*
X122090588Y-109351412D01*
X122071646Y-109335866D01*
X122050035Y-109324315D01*
X122026586Y-109317202D01*
X122002200Y-109314800D01*
X121950200Y-109314800D01*
X121950200Y-107013200D01*
X122651800Y-107013200D01*
X122651800Y-109404200D01*
X122651800Y-109404200D01*
G37*
G36*
X133396800Y-110180800D02*
X132795200Y-110180800D01*
X132795200Y-108640200D01*
X133396800Y-108640200D01*
X133396800Y-110180800D01*
X133396800Y-110180800D01*
G37*
G36*
X123921800Y-109314800D02*
X123869800Y-109314800D01*
X123845414Y-109317202D01*
X123821965Y-109324315D01*
X123800354Y-109335866D01*
X123781412Y-109351412D01*
X123765866Y-109370354D01*
X123754315Y-109391965D01*
X123747202Y-109415414D01*
X123744800Y-109439800D01*
X123744800Y-110180800D01*
X123143200Y-110180800D01*
X123143200Y-109519597D01*
X123164646Y-109508134D01*
X123183588Y-109492588D01*
X123199134Y-109473646D01*
X123210685Y-109452035D01*
X123217798Y-109428586D01*
X123220200Y-109404200D01*
X123220200Y-107013200D01*
X123921800Y-107013200D01*
X123921800Y-109314800D01*
X123921800Y-109314800D01*
G37*
G36*
X135682800Y-110180800D02*
X135081200Y-110180800D01*
X135081200Y-108640200D01*
X135682800Y-108640200D01*
X135682800Y-110180800D01*
X135682800Y-110180800D01*
G37*
G36*
X115475800Y-109850800D02*
X90624200Y-109850800D01*
X90624200Y-108449200D01*
X115475800Y-108449200D01*
X115475800Y-109850800D01*
X115475800Y-109850800D01*
G37*
G36*
X126461800Y-109314800D02*
X125760200Y-109314800D01*
X125760200Y-107013200D01*
X126461800Y-107013200D01*
X126461800Y-109314800D01*
X126461800Y-109314800D01*
G37*
G36*
X125191800Y-109314800D02*
X124490200Y-109314800D01*
X124490200Y-107013200D01*
X125191800Y-107013200D01*
X125191800Y-109314800D01*
X125191800Y-109314800D01*
G37*
G36*
X137587800Y-109291800D02*
X136986200Y-109291800D01*
X136986200Y-108640200D01*
X137587800Y-108640200D01*
X137587800Y-109291800D01*
X137587800Y-109291800D01*
G37*
G36*
X138603800Y-109291800D02*
X138002200Y-109291800D01*
X138002200Y-108640200D01*
X138603800Y-108640200D01*
X138603800Y-109291800D01*
X138603800Y-109291800D01*
G37*
G36*
X170175800Y-109250800D02*
X145324200Y-109250800D01*
X145324200Y-107849200D01*
X170175800Y-107849200D01*
X170175800Y-109250800D01*
X170175800Y-109250800D01*
G37*
G36*
X80625800Y-108300800D02*
X77774200Y-108300800D01*
X77774200Y-106899200D01*
X80625800Y-106899200D01*
X80625800Y-108300800D01*
X80625800Y-108300800D01*
G37*
G36*
X140279800Y-108250800D02*
X139628200Y-108250800D01*
X139628200Y-107649200D01*
X140279800Y-107649200D01*
X140279800Y-108250800D01*
X140279800Y-108250800D01*
G37*
G36*
X128701800Y-108000800D02*
X127584200Y-108000800D01*
X127584200Y-106883200D01*
X128701800Y-106883200D01*
X128701800Y-108000800D01*
X128701800Y-108000800D01*
G37*
G36*
X129738800Y-107742800D02*
X129087200Y-107742800D01*
X129087200Y-107141200D01*
X129738800Y-107141200D01*
X129738800Y-107742800D01*
X129738800Y-107742800D01*
G37*
G36*
X139052300Y-107659300D02*
X137680700Y-107659300D01*
X137680700Y-101382700D01*
X139052300Y-101382700D01*
X139052300Y-107659300D01*
X139052300Y-107659300D01*
G37*
G36*
X131813300Y-107659300D02*
X130441700Y-107659300D01*
X130441700Y-101382700D01*
X131813300Y-101382700D01*
X131813300Y-107659300D01*
X131813300Y-107659300D01*
G37*
G36*
X140279800Y-107234800D02*
X139628200Y-107234800D01*
X139628200Y-106633200D01*
X140279800Y-106633200D01*
X140279800Y-107234800D01*
X140279800Y-107234800D01*
G37*
G36*
X74345800Y-106984800D02*
X73228200Y-106984800D01*
X73228200Y-105867200D01*
X74345800Y-105867200D01*
X74345800Y-106984800D01*
X74345800Y-106984800D01*
G37*
G36*
X72274800Y-106975800D02*
X70473200Y-106975800D01*
X70473200Y-105874200D01*
X72274800Y-105874200D01*
X72274800Y-106975800D01*
X72274800Y-106975800D01*
G37*
G36*
X129738800Y-106726800D02*
X129087200Y-106726800D01*
X129087200Y-106125200D01*
X129738800Y-106125200D01*
X129738800Y-106726800D01*
X129738800Y-106726800D01*
G37*
G36*
X93522800Y-106476800D02*
X92405200Y-106476800D01*
X92405200Y-105359200D01*
X93522800Y-105359200D01*
X93522800Y-106476800D01*
X93522800Y-106476800D01*
G37*
G36*
X128701800Y-106222800D02*
X127584200Y-106222800D01*
X127584200Y-105105200D01*
X128701800Y-105105200D01*
X128701800Y-106222800D01*
X128701800Y-106222800D01*
G37*
G36*
X140279800Y-105583800D02*
X139628200Y-105583800D01*
X139628200Y-104982200D01*
X140279800Y-104982200D01*
X140279800Y-105583800D01*
X140279800Y-105583800D01*
G37*
G36*
X76250800Y-105460800D02*
X75133200Y-105460800D01*
X75133200Y-104343200D01*
X76250800Y-104343200D01*
X76250800Y-105460800D01*
X76250800Y-105460800D01*
G37*
G36*
X146862800Y-105460800D02*
X145745200Y-105460800D01*
X145745200Y-104343200D01*
X146862800Y-104343200D01*
X146862800Y-105460800D01*
X146862800Y-105460800D01*
G37*
G36*
X148640800Y-105460800D02*
X147523200Y-105460800D01*
X147523200Y-104343200D01*
X148640800Y-104343200D01*
X148640800Y-105460800D01*
X148640800Y-105460800D01*
G37*
G36*
X78136800Y-105386800D02*
X76635200Y-105386800D01*
X76635200Y-104285200D01*
X78136800Y-104285200D01*
X78136800Y-105386800D01*
X78136800Y-105386800D01*
G37*
G36*
X82342800Y-105227800D02*
X81741200Y-105227800D01*
X81741200Y-104576200D01*
X82342800Y-104576200D01*
X82342800Y-105227800D01*
X82342800Y-105227800D01*
G37*
G36*
X84247800Y-105227800D02*
X83646200Y-105227800D01*
X83646200Y-104576200D01*
X84247800Y-104576200D01*
X84247800Y-105227800D01*
X84247800Y-105227800D01*
G37*
G36*
X83231800Y-105227800D02*
X82630200Y-105227800D01*
X82630200Y-104576200D01*
X83231800Y-104576200D01*
X83231800Y-105227800D01*
X83231800Y-105227800D01*
G37*
G36*
X81326800Y-105227800D02*
X80725200Y-105227800D01*
X80725200Y-104576200D01*
X81326800Y-104576200D01*
X81326800Y-105227800D01*
X81326800Y-105227800D01*
G37*
G36*
X74345800Y-105206800D02*
X73228200Y-105206800D01*
X73228200Y-104089200D01*
X74345800Y-104089200D01*
X74345800Y-105206800D01*
X74345800Y-105206800D01*
G37*
G36*
X93522800Y-104698800D02*
X92405200Y-104698800D01*
X92405200Y-103581200D01*
X93522800Y-103581200D01*
X93522800Y-104698800D01*
X93522800Y-104698800D01*
G37*
G36*
X140279800Y-104567800D02*
X139628200Y-104567800D01*
X139628200Y-103966200D01*
X140279800Y-103966200D01*
X140279800Y-104567800D01*
X140279800Y-104567800D01*
G37*
G36*
X80336800Y-104436800D02*
X78835200Y-104436800D01*
X78835200Y-103335200D01*
X80336800Y-103335200D01*
X80336800Y-104436800D01*
X80336800Y-104436800D01*
G37*
G36*
X123921800Y-104314800D02*
X123220200Y-104314800D01*
X123220200Y-102013200D01*
X123921800Y-102013200D01*
X123921800Y-104314800D01*
X123921800Y-104314800D01*
G37*
G36*
X122651800Y-104314800D02*
X121950200Y-104314800D01*
X121950200Y-102013200D01*
X122651800Y-102013200D01*
X122651800Y-104314800D01*
X122651800Y-104314800D01*
G37*
G36*
X125191800Y-104314800D02*
X124490200Y-104314800D01*
X124490200Y-102013200D01*
X125191800Y-102013200D01*
X125191800Y-104314800D01*
X125191800Y-104314800D01*
G37*
G36*
X126461800Y-104314800D02*
X125760200Y-104314800D01*
X125760200Y-102013200D01*
X126461800Y-102013200D01*
X126461800Y-104314800D01*
X126461800Y-104314800D01*
G37*
G36*
X81838800Y-104190800D02*
X80721200Y-104190800D01*
X80721200Y-103073200D01*
X81838800Y-103073200D01*
X81838800Y-104190800D01*
X81838800Y-104190800D01*
G37*
G36*
X84247800Y-104084800D02*
X83646200Y-104084800D01*
X83646200Y-103433200D01*
X84247800Y-103433200D01*
X84247800Y-104084800D01*
X84247800Y-104084800D01*
G37*
G36*
X83231800Y-104084800D02*
X82630200Y-104084800D01*
X82630200Y-103433200D01*
X83231800Y-103433200D01*
X83231800Y-104084800D01*
X83231800Y-104084800D01*
G37*
G36*
X73579800Y-103830800D02*
X72978200Y-103830800D01*
X72978200Y-100512200D01*
X73579800Y-100512200D01*
X73579800Y-103830800D01*
X73579800Y-103830800D01*
G37*
G36*
X74595800Y-103830800D02*
X73994200Y-103830800D01*
X73994200Y-100512200D01*
X74595800Y-100512200D01*
X74595800Y-103830800D01*
X74595800Y-103830800D01*
G37*
G36*
X76250800Y-103682800D02*
X75133200Y-103682800D01*
X75133200Y-102565200D01*
X76250800Y-102565200D01*
X76250800Y-103682800D01*
X76250800Y-103682800D01*
G37*
G36*
X72274800Y-103675800D02*
X70473200Y-103675800D01*
X70473200Y-102574200D01*
X72274800Y-102574200D01*
X72274800Y-103675800D01*
X72274800Y-103675800D01*
G37*
G36*
X78136800Y-103486800D02*
X76635200Y-103486800D01*
X76635200Y-102385200D01*
X78136800Y-102385200D01*
X78136800Y-103486800D01*
X78136800Y-103486800D01*
G37*
G36*
X84339800Y-102784800D02*
X82538200Y-102784800D01*
X82538200Y-101683200D01*
X84339800Y-101683200D01*
X84339800Y-102784800D01*
X84339800Y-102784800D01*
G37*
G36*
X81838800Y-102412800D02*
X80721200Y-102412800D01*
X80721200Y-100025200D01*
X81838800Y-100025200D01*
X81838800Y-102412800D01*
X81838800Y-102412800D01*
G37*
G36*
X78136800Y-101957800D02*
X76635200Y-101957800D01*
X76635200Y-100856200D01*
X78136800Y-100856200D01*
X78136800Y-101957800D01*
X78136800Y-101957800D01*
G37*
G36*
X76250800Y-101904800D02*
X75133200Y-101904800D01*
X75133200Y-100787200D01*
X76250800Y-100787200D01*
X76250800Y-101904800D01*
X76250800Y-101904800D01*
G37*
G36*
X72274800Y-101895800D02*
X70473200Y-101895800D01*
X70473200Y-100794200D01*
X72274800Y-100794200D01*
X72274800Y-101895800D01*
X72274800Y-101895800D01*
G37*
G36*
X80336800Y-101007800D02*
X78835200Y-101007800D01*
X78835200Y-99906200D01*
X80336800Y-99906200D01*
X80336800Y-101007800D01*
X80336800Y-101007800D01*
G37*
G36*
X135682800Y-100401800D02*
X135081200Y-100401800D01*
X135081200Y-98861200D01*
X135682800Y-98861200D01*
X135682800Y-100401800D01*
X135682800Y-100401800D01*
G37*
G36*
X136698800Y-100401800D02*
X136097200Y-100401800D01*
X136097200Y-98861200D01*
X136698800Y-98861200D01*
X136698800Y-100401800D01*
X136698800Y-100401800D01*
G37*
G36*
X134285800Y-100401800D02*
X133684200Y-100401800D01*
X133684200Y-98861200D01*
X134285800Y-98861200D01*
X134285800Y-100401800D01*
X134285800Y-100401800D01*
G37*
G36*
X133269800Y-100401800D02*
X132668200Y-100401800D01*
X132668200Y-98861200D01*
X133269800Y-98861200D01*
X133269800Y-100401800D01*
X133269800Y-100401800D01*
G37*
G36*
X128697800Y-100401800D02*
X128096200Y-100401800D01*
X128096200Y-98861200D01*
X128697800Y-98861200D01*
X128697800Y-100401800D01*
X128697800Y-100401800D01*
G37*
G36*
X127681800Y-100401800D02*
X127080200Y-100401800D01*
X127080200Y-98861200D01*
X127681800Y-98861200D01*
X127681800Y-100401800D01*
X127681800Y-100401800D01*
G37*
G36*
X74345800Y-100253800D02*
X73228200Y-100253800D01*
X73228200Y-99136200D01*
X74345800Y-99136200D01*
X74345800Y-100253800D01*
X74345800Y-100253800D01*
G37*
G36*
X76250800Y-100126800D02*
X75133200Y-100126800D01*
X75133200Y-99009200D01*
X76250800Y-99009200D01*
X76250800Y-100126800D01*
X76250800Y-100126800D01*
G37*
G36*
X78136800Y-100057800D02*
X76635200Y-100057800D01*
X76635200Y-98956200D01*
X78136800Y-98956200D01*
X78136800Y-100057800D01*
X78136800Y-100057800D01*
G37*
G36*
X84339800Y-99484800D02*
X82538200Y-99484800D01*
X82538200Y-98383200D01*
X84339800Y-98383200D01*
X84339800Y-99484800D01*
X84339800Y-99484800D01*
G37*
G36*
X85046800Y-98046800D02*
X81963800Y-98046800D01*
X81939414Y-98049202D01*
X81915965Y-98056315D01*
X81894354Y-98067866D01*
X81875412Y-98083412D01*
X81859866Y-98102354D01*
X81848315Y-98123965D01*
X81841202Y-98147414D01*
X81838800Y-98171800D01*
X81838800Y-99364800D01*
X80721200Y-99364800D01*
X80721200Y-98171800D01*
X80718798Y-98147414D01*
X80711685Y-98123965D01*
X80700134Y-98102354D01*
X80684588Y-98083412D01*
X80665646Y-98067866D01*
X80644035Y-98056315D01*
X80620586Y-98049202D01*
X80596200Y-98046800D01*
X79545200Y-98046800D01*
X79545200Y-95745200D01*
X85046800Y-95745200D01*
X85046800Y-98046800D01*
X85046800Y-98046800D01*
G37*
G36*
X72274800Y-98595800D02*
X70473200Y-98595800D01*
X70473200Y-97494200D01*
X72274800Y-97494200D01*
X72274800Y-98595800D01*
X72274800Y-98595800D01*
G37*
G36*
X74345800Y-98475800D02*
X73228200Y-98475800D01*
X73228200Y-97358200D01*
X74345800Y-97358200D01*
X74345800Y-98475800D01*
X74345800Y-98475800D01*
G37*
G36*
X76906800Y-98343900D02*
X76255200Y-98343900D01*
X76255200Y-97042300D01*
X76906800Y-97042300D01*
X76906800Y-98343900D01*
X76906800Y-98343900D01*
G37*
G36*
X77856800Y-98343900D02*
X77205200Y-98343900D01*
X77205200Y-97042300D01*
X77856800Y-97042300D01*
X77856800Y-98343900D01*
X77856800Y-98343900D01*
G37*
G36*
X75956800Y-98343900D02*
X75305200Y-98343900D01*
X75305200Y-97042300D01*
X75956800Y-97042300D01*
X75956800Y-98343900D01*
X75956800Y-98343900D01*
G37*
G36*
X143600800Y-97800800D02*
X141099200Y-97800800D01*
X141099200Y-95099200D01*
X143600800Y-95099200D01*
X143600800Y-97800800D01*
X143600800Y-97800800D01*
G37*
G36*
X172400800Y-97800800D02*
X169899200Y-97800800D01*
X169899200Y-95099200D01*
X172400800Y-95099200D01*
X172400800Y-97800800D01*
X172400800Y-97800800D01*
G37*
G36*
X73579800Y-97099800D02*
X72978200Y-97099800D01*
X72978200Y-95559200D01*
X73579800Y-95559200D01*
X73579800Y-97099800D01*
X73579800Y-97099800D01*
G37*
G36*
X74595800Y-97099800D02*
X73994200Y-97099800D01*
X73994200Y-95559200D01*
X74595800Y-95559200D01*
X74595800Y-97099800D01*
X74595800Y-97099800D01*
G37*
G36*
X71293800Y-96210800D02*
X70692200Y-96210800D01*
X70692200Y-95559200D01*
X71293800Y-95559200D01*
X71293800Y-96210800D01*
X71293800Y-96210800D01*
G37*
G36*
X72309800Y-96210800D02*
X71708200Y-96210800D01*
X71708200Y-95559200D01*
X72309800Y-95559200D01*
X72309800Y-96210800D01*
X72309800Y-96210800D01*
G37*
G36*
X75956800Y-95743700D02*
X75305200Y-95743700D01*
X75305200Y-94442100D01*
X75956800Y-94442100D01*
X75956800Y-95743700D01*
X75956800Y-95743700D01*
G37*
G36*
X78536800Y-94284800D02*
X77981800Y-94284800D01*
X77957414Y-94287202D01*
X77933965Y-94294315D01*
X77912354Y-94305866D01*
X77893412Y-94321412D01*
X77877866Y-94340354D01*
X77866315Y-94361965D01*
X77859202Y-94385414D01*
X77856800Y-94409800D01*
X77856800Y-95743700D01*
X77205200Y-95743700D01*
X77205200Y-94442100D01*
X77294200Y-94442100D01*
X77318586Y-94439698D01*
X77342035Y-94432585D01*
X77363646Y-94421034D01*
X77382588Y-94405488D01*
X77398134Y-94386546D01*
X77409685Y-94364935D01*
X77416798Y-94341486D01*
X77419200Y-94317100D01*
X77419200Y-93167200D01*
X78536800Y-93167200D01*
X78536800Y-94284800D01*
X78536800Y-94284800D01*
G37*
G36*
X76906800Y-95743700D02*
X76255200Y-95743700D01*
X76255200Y-94442100D01*
X76906800Y-94442100D01*
X76906800Y-95743700D01*
X76906800Y-95743700D01*
G37*
G36*
X169175800Y-95050800D02*
X144324200Y-95050800D01*
X144324200Y-93649200D01*
X169175800Y-93649200D01*
X169175800Y-95050800D01*
X169175800Y-95050800D01*
G37*
G36*
X85046800Y-89664800D02*
X84748800Y-89664800D01*
X84724414Y-89667202D01*
X84700965Y-89674315D01*
X84679354Y-89685866D01*
X84660412Y-89701412D01*
X84644866Y-89720354D01*
X84633315Y-89741965D01*
X84626202Y-89765414D01*
X84623800Y-89789800D01*
X84623800Y-91820200D01*
X84626202Y-91844586D01*
X84633315Y-91868035D01*
X84644866Y-91889646D01*
X84660412Y-91908588D01*
X84679354Y-91924134D01*
X84700965Y-91935685D01*
X84724414Y-91942798D01*
X84748800Y-91945200D01*
X85046800Y-91945200D01*
X85046800Y-94246800D01*
X79545200Y-94246800D01*
X79545200Y-91945200D01*
X80097200Y-91945200D01*
X80121586Y-91942798D01*
X80145035Y-91935685D01*
X80166646Y-91924134D01*
X80185588Y-91908588D01*
X80201134Y-91889646D01*
X80212685Y-91868035D01*
X80219798Y-91844586D01*
X80222200Y-91820200D01*
X80222200Y-89789800D01*
X81323800Y-89789800D01*
X81323800Y-91820200D01*
X81326202Y-91844586D01*
X81333315Y-91868035D01*
X81344866Y-91889646D01*
X81360412Y-91908588D01*
X81379354Y-91924134D01*
X81400965Y-91935685D01*
X81424414Y-91942798D01*
X81448800Y-91945200D01*
X83397200Y-91945200D01*
X83421586Y-91942798D01*
X83445035Y-91935685D01*
X83466646Y-91924134D01*
X83485588Y-91908588D01*
X83501134Y-91889646D01*
X83512685Y-91868035D01*
X83519798Y-91844586D01*
X83522200Y-91820200D01*
X83522200Y-89789800D01*
X83519798Y-89765414D01*
X83512685Y-89741965D01*
X83501134Y-89720354D01*
X83485588Y-89701412D01*
X83466646Y-89685866D01*
X83445035Y-89674315D01*
X83421586Y-89667202D01*
X83397200Y-89664800D01*
X81448800Y-89664800D01*
X81424414Y-89667202D01*
X81400965Y-89674315D01*
X81379354Y-89685866D01*
X81360412Y-89701412D01*
X81344866Y-89720354D01*
X81333315Y-89741965D01*
X81326202Y-89765414D01*
X81323800Y-89789800D01*
X80222200Y-89789800D01*
X80219798Y-89765414D01*
X80212685Y-89741965D01*
X80201134Y-89720354D01*
X80185588Y-89701412D01*
X80166646Y-89685866D01*
X80145035Y-89674315D01*
X80121586Y-89667202D01*
X80097200Y-89664800D01*
X79545200Y-89664800D01*
X79545200Y-87363200D01*
X85046800Y-87363200D01*
X85046800Y-89664800D01*
X85046800Y-89664800D01*
G37*
G36*
X74980800Y-94157800D02*
X73609200Y-94157800D01*
X73609200Y-92532200D01*
X74980800Y-92532200D01*
X74980800Y-94157800D01*
X74980800Y-94157800D01*
G37*
G36*
X77012800Y-94157800D02*
X75641200Y-94157800D01*
X75641200Y-92532200D01*
X77012800Y-92532200D01*
X77012800Y-94157800D01*
X77012800Y-94157800D01*
G37*
G36*
X72097900Y-93599000D02*
X70396100Y-93599000D01*
X70396100Y-92329000D01*
X72097900Y-92329000D01*
X72097900Y-93599000D01*
X72097900Y-93599000D01*
G37*
G36*
X145846800Y-93014800D02*
X144729200Y-93014800D01*
X144729200Y-91897200D01*
X145846800Y-91897200D01*
X145846800Y-93014800D01*
X145846800Y-93014800D01*
G37*
G36*
X147624800Y-93014800D02*
X146507200Y-93014800D01*
X146507200Y-91897200D01*
X147624800Y-91897200D01*
X147624800Y-93014800D01*
X147624800Y-93014800D01*
G37*
G36*
X133294800Y-93010800D02*
X132643200Y-93010800D01*
X132643200Y-92409200D01*
X133294800Y-92409200D01*
X133294800Y-93010800D01*
X133294800Y-93010800D01*
G37*
G36*
X132151800Y-93010800D02*
X131500200Y-93010800D01*
X131500200Y-92409200D01*
X132151800Y-92409200D01*
X132151800Y-93010800D01*
X132151800Y-93010800D01*
G37*
G36*
X134437800Y-93010800D02*
X133786200Y-93010800D01*
X133786200Y-92409200D01*
X134437800Y-92409200D01*
X134437800Y-93010800D01*
X134437800Y-93010800D01*
G37*
G36*
X135580800Y-93010800D02*
X134929200Y-93010800D01*
X134929200Y-92409200D01*
X135580800Y-92409200D01*
X135580800Y-93010800D01*
X135580800Y-93010800D01*
G37*
G36*
X172077416Y-80445031D02*
X172088977Y-80446170D01*
X172140889Y-80461918D01*
X172192802Y-80477665D01*
X172247738Y-80507029D01*
X172288486Y-80528809D01*
X172288487Y-80528810D01*
X172288489Y-80528811D01*
X172372359Y-80597641D01*
X172441189Y-80681511D01*
X172492335Y-80777198D01*
X172523830Y-80881024D01*
X172534465Y-80989000D01*
X172523830Y-81096976D01*
X172492335Y-81200802D01*
X172441189Y-81296489D01*
X172372359Y-81380359D01*
X172288489Y-81449189D01*
X172288487Y-81449190D01*
X172288486Y-81449191D01*
X172251486Y-81468968D01*
X172192802Y-81500335D01*
X172192799Y-81500336D01*
X172186393Y-81503760D01*
X172166018Y-81517374D01*
X172148691Y-81534701D01*
X172135077Y-81555075D01*
X172125700Y-81577714D01*
X172120919Y-81601748D01*
X172120919Y-81626252D01*
X172125699Y-81650285D01*
X172135077Y-81672924D01*
X172148691Y-81693299D01*
X172166018Y-81710626D01*
X172186393Y-81724240D01*
X172192799Y-81727664D01*
X172192802Y-81727665D01*
X172251486Y-81759032D01*
X172288486Y-81778809D01*
X172288487Y-81778810D01*
X172288489Y-81778811D01*
X172372359Y-81847641D01*
X172441189Y-81931511D01*
X172492335Y-82027198D01*
X172502464Y-82060588D01*
X172521154Y-82122200D01*
X172523830Y-82131024D01*
X172534465Y-82239000D01*
X172523830Y-82346976D01*
X172492335Y-82450802D01*
X172441189Y-82546489D01*
X172372359Y-82630359D01*
X172288489Y-82699189D01*
X172288487Y-82699190D01*
X172288486Y-82699191D01*
X172251486Y-82718968D01*
X172192802Y-82750335D01*
X172192799Y-82750336D01*
X172186393Y-82753760D01*
X172166018Y-82767374D01*
X172148691Y-82784701D01*
X172135077Y-82805075D01*
X172125700Y-82827714D01*
X172120919Y-82851748D01*
X172120919Y-82876252D01*
X172125699Y-82900285D01*
X172135077Y-82922924D01*
X172148691Y-82943299D01*
X172166018Y-82960626D01*
X172186393Y-82974240D01*
X172192799Y-82977664D01*
X172192802Y-82977665D01*
X172251486Y-83009032D01*
X172288486Y-83028809D01*
X172288487Y-83028810D01*
X172288489Y-83028811D01*
X172372359Y-83097641D01*
X172441189Y-83181511D01*
X172492335Y-83277198D01*
X172523830Y-83381024D01*
X172534465Y-83489000D01*
X172523830Y-83596976D01*
X172492335Y-83700802D01*
X172441189Y-83796489D01*
X172372359Y-83880359D01*
X172288489Y-83949189D01*
X172288487Y-83949190D01*
X172288486Y-83949191D01*
X172251486Y-83968968D01*
X172192802Y-84000335D01*
X172192799Y-84000336D01*
X172186393Y-84003760D01*
X172166018Y-84017374D01*
X172148691Y-84034701D01*
X172135077Y-84055075D01*
X172125700Y-84077714D01*
X172120919Y-84101748D01*
X172120919Y-84126252D01*
X172125699Y-84150285D01*
X172135077Y-84172924D01*
X172148691Y-84193299D01*
X172166018Y-84210626D01*
X172186393Y-84224240D01*
X172192799Y-84227664D01*
X172192802Y-84227665D01*
X172251486Y-84259032D01*
X172288486Y-84278809D01*
X172288487Y-84278810D01*
X172288489Y-84278811D01*
X172372359Y-84347641D01*
X172441189Y-84431511D01*
X172492335Y-84527198D01*
X172523830Y-84631024D01*
X172534465Y-84739000D01*
X172523830Y-84846976D01*
X172492335Y-84950802D01*
X172441189Y-85046489D01*
X172372359Y-85130359D01*
X172288489Y-85199189D01*
X172288487Y-85199190D01*
X172288486Y-85199191D01*
X172251486Y-85218968D01*
X172192802Y-85250335D01*
X172192799Y-85250336D01*
X172186393Y-85253760D01*
X172166018Y-85267374D01*
X172148691Y-85284701D01*
X172135077Y-85305075D01*
X172125700Y-85327714D01*
X172120919Y-85351748D01*
X172120919Y-85376252D01*
X172125699Y-85400285D01*
X172135077Y-85422924D01*
X172148691Y-85443299D01*
X172166018Y-85460626D01*
X172186393Y-85474240D01*
X172192799Y-85477664D01*
X172192802Y-85477665D01*
X172251486Y-85509032D01*
X172288486Y-85528809D01*
X172288487Y-85528810D01*
X172288489Y-85528811D01*
X172372359Y-85597641D01*
X172441189Y-85681511D01*
X172492335Y-85777198D01*
X172523830Y-85881024D01*
X172534465Y-85989000D01*
X172523830Y-86096976D01*
X172492335Y-86200802D01*
X172441189Y-86296489D01*
X172372359Y-86380359D01*
X172288489Y-86449189D01*
X172288487Y-86449190D01*
X172288486Y-86449191D01*
X172251486Y-86468968D01*
X172192802Y-86500335D01*
X172192799Y-86500336D01*
X172186393Y-86503760D01*
X172166018Y-86517374D01*
X172148691Y-86534701D01*
X172135077Y-86555075D01*
X172125700Y-86577714D01*
X172120919Y-86601748D01*
X172120919Y-86626252D01*
X172125699Y-86650285D01*
X172135077Y-86672924D01*
X172148691Y-86693299D01*
X172166018Y-86710626D01*
X172186393Y-86724240D01*
X172192799Y-86727664D01*
X172192802Y-86727665D01*
X172251486Y-86759032D01*
X172288486Y-86778809D01*
X172288487Y-86778810D01*
X172288489Y-86778811D01*
X172372359Y-86847641D01*
X172441189Y-86931511D01*
X172492335Y-87027198D01*
X172523830Y-87131024D01*
X172534465Y-87239000D01*
X172523830Y-87346976D01*
X172492335Y-87450802D01*
X172441189Y-87546489D01*
X172372359Y-87630359D01*
X172288489Y-87699189D01*
X172288487Y-87699190D01*
X172288486Y-87699191D01*
X172251486Y-87718968D01*
X172192802Y-87750335D01*
X172192799Y-87750336D01*
X172186393Y-87753760D01*
X172166018Y-87767374D01*
X172148691Y-87784701D01*
X172135077Y-87805075D01*
X172125700Y-87827714D01*
X172120919Y-87851748D01*
X172120919Y-87876252D01*
X172125699Y-87900285D01*
X172135077Y-87922924D01*
X172148691Y-87943299D01*
X172166018Y-87960626D01*
X172186393Y-87974240D01*
X172192799Y-87977664D01*
X172192802Y-87977665D01*
X172251486Y-88009032D01*
X172288486Y-88028809D01*
X172288487Y-88028810D01*
X172288489Y-88028811D01*
X172372359Y-88097641D01*
X172441189Y-88181511D01*
X172492335Y-88277198D01*
X172523830Y-88381024D01*
X172534465Y-88489000D01*
X172523830Y-88596976D01*
X172492335Y-88700802D01*
X172441189Y-88796489D01*
X172372359Y-88880359D01*
X172288489Y-88949189D01*
X172288487Y-88949190D01*
X172288486Y-88949191D01*
X172251486Y-88968968D01*
X172192802Y-89000335D01*
X172192799Y-89000336D01*
X172186393Y-89003760D01*
X172166018Y-89017374D01*
X172148691Y-89034701D01*
X172135077Y-89055075D01*
X172125700Y-89077714D01*
X172120919Y-89101748D01*
X172120919Y-89126252D01*
X172125699Y-89150285D01*
X172135077Y-89172924D01*
X172148691Y-89193299D01*
X172166018Y-89210626D01*
X172186393Y-89224240D01*
X172192799Y-89227664D01*
X172192802Y-89227665D01*
X172251486Y-89259032D01*
X172288486Y-89278809D01*
X172288487Y-89278810D01*
X172288489Y-89278811D01*
X172372359Y-89347641D01*
X172441189Y-89431511D01*
X172492335Y-89527198D01*
X172523830Y-89631024D01*
X172534465Y-89739000D01*
X172531863Y-89765414D01*
X172523830Y-89846977D01*
X172508082Y-89898889D01*
X172492335Y-89950802D01*
X172441189Y-90046489D01*
X172372359Y-90130359D01*
X172288489Y-90199189D01*
X172288487Y-90199190D01*
X172288486Y-90199191D01*
X172251486Y-90218968D01*
X172192802Y-90250335D01*
X172192799Y-90250336D01*
X172186393Y-90253760D01*
X172166018Y-90267374D01*
X172148691Y-90284701D01*
X172135077Y-90305075D01*
X172125700Y-90327714D01*
X172120919Y-90351748D01*
X172120919Y-90376252D01*
X172125699Y-90400285D01*
X172135077Y-90422924D01*
X172148691Y-90443299D01*
X172166018Y-90460626D01*
X172186393Y-90474240D01*
X172192799Y-90477664D01*
X172192802Y-90477665D01*
X172242445Y-90504200D01*
X172288486Y-90528809D01*
X172288487Y-90528810D01*
X172288489Y-90528811D01*
X172372359Y-90597641D01*
X172441189Y-90681511D01*
X172492335Y-90777198D01*
X172523830Y-90881024D01*
X172534465Y-90989000D01*
X172524783Y-91087295D01*
X172523830Y-91096977D01*
X172513570Y-91130800D01*
X172492335Y-91200802D01*
X172441189Y-91296489D01*
X172372359Y-91380359D01*
X172288489Y-91449189D01*
X172288487Y-91449190D01*
X172288486Y-91449191D01*
X172251486Y-91468968D01*
X172192802Y-91500335D01*
X172192799Y-91500336D01*
X172186393Y-91503760D01*
X172166018Y-91517374D01*
X172148691Y-91534701D01*
X172135077Y-91555075D01*
X172125700Y-91577714D01*
X172120919Y-91601748D01*
X172120919Y-91626252D01*
X172125699Y-91650285D01*
X172135077Y-91672924D01*
X172148691Y-91693299D01*
X172166018Y-91710626D01*
X172186393Y-91724240D01*
X172192799Y-91727664D01*
X172192802Y-91727665D01*
X172251486Y-91759032D01*
X172288486Y-91778809D01*
X172288487Y-91778810D01*
X172288489Y-91778811D01*
X172372359Y-91847641D01*
X172441189Y-91931511D01*
X172492335Y-92027198D01*
X172523830Y-92131024D01*
X172534465Y-92239000D01*
X172524783Y-92337295D01*
X172523830Y-92346977D01*
X172508082Y-92398889D01*
X172492335Y-92450802D01*
X172441189Y-92546489D01*
X172372359Y-92630359D01*
X172288489Y-92699189D01*
X172288487Y-92699190D01*
X172288486Y-92699191D01*
X172247738Y-92720971D01*
X172192802Y-92750335D01*
X172140889Y-92766083D01*
X172088977Y-92781830D01*
X172077416Y-92782969D01*
X172008057Y-92789800D01*
X171653943Y-92789800D01*
X171584584Y-92782969D01*
X171573023Y-92781830D01*
X171521111Y-92766083D01*
X171469198Y-92750335D01*
X171414262Y-92720971D01*
X171373514Y-92699191D01*
X171373513Y-92699190D01*
X171373511Y-92699189D01*
X171289641Y-92630359D01*
X171220811Y-92546489D01*
X171169665Y-92450802D01*
X171153918Y-92398889D01*
X171138170Y-92346977D01*
X171137217Y-92337295D01*
X171127535Y-92239000D01*
X171138170Y-92131024D01*
X171169665Y-92027198D01*
X171220811Y-91931511D01*
X171289641Y-91847641D01*
X171373511Y-91778811D01*
X171373513Y-91778810D01*
X171373514Y-91778809D01*
X171410514Y-91759032D01*
X171469198Y-91727665D01*
X171469201Y-91727664D01*
X171475607Y-91724240D01*
X171495982Y-91710626D01*
X171513309Y-91693299D01*
X171526923Y-91672925D01*
X171536300Y-91650286D01*
X171541081Y-91626252D01*
X171541081Y-91601748D01*
X171536301Y-91577715D01*
X171526923Y-91555076D01*
X171513309Y-91534701D01*
X171495982Y-91517374D01*
X171475607Y-91503760D01*
X171469201Y-91500336D01*
X171469198Y-91500335D01*
X171410514Y-91468968D01*
X171373514Y-91449191D01*
X171373513Y-91449190D01*
X171373511Y-91449189D01*
X171289641Y-91380359D01*
X171220811Y-91296489D01*
X171169665Y-91200802D01*
X171148430Y-91130800D01*
X171138170Y-91096977D01*
X171137217Y-91087295D01*
X171127535Y-90989000D01*
X171138170Y-90881024D01*
X171169665Y-90777198D01*
X171220811Y-90681511D01*
X171289641Y-90597641D01*
X171373511Y-90528811D01*
X171373513Y-90528810D01*
X171373514Y-90528809D01*
X171419555Y-90504200D01*
X171469198Y-90477665D01*
X171469201Y-90477664D01*
X171475607Y-90474240D01*
X171495982Y-90460626D01*
X171513309Y-90443299D01*
X171526923Y-90422925D01*
X171536300Y-90400286D01*
X171541081Y-90376252D01*
X171541081Y-90351748D01*
X171536301Y-90327715D01*
X171526923Y-90305076D01*
X171513309Y-90284701D01*
X171495982Y-90267374D01*
X171475607Y-90253760D01*
X171469201Y-90250336D01*
X171469198Y-90250335D01*
X171410514Y-90218968D01*
X171373514Y-90199191D01*
X171373513Y-90199190D01*
X171373511Y-90199189D01*
X171289641Y-90130359D01*
X171220811Y-90046489D01*
X171169665Y-89950802D01*
X171153918Y-89898889D01*
X171138170Y-89846977D01*
X171130137Y-89765414D01*
X171127535Y-89739000D01*
X171138170Y-89631024D01*
X171169665Y-89527198D01*
X171220811Y-89431511D01*
X171289641Y-89347641D01*
X171373511Y-89278811D01*
X171373513Y-89278810D01*
X171373514Y-89278809D01*
X171410514Y-89259032D01*
X171469198Y-89227665D01*
X171469201Y-89227664D01*
X171475607Y-89224240D01*
X171495982Y-89210626D01*
X171513309Y-89193299D01*
X171526923Y-89172925D01*
X171536300Y-89150286D01*
X171541081Y-89126252D01*
X171541081Y-89101748D01*
X171536301Y-89077715D01*
X171526923Y-89055076D01*
X171513309Y-89034701D01*
X171495982Y-89017374D01*
X171475607Y-89003760D01*
X171469201Y-89000336D01*
X171469198Y-89000335D01*
X171410514Y-88968968D01*
X171373514Y-88949191D01*
X171373513Y-88949190D01*
X171373511Y-88949189D01*
X171289641Y-88880359D01*
X171220811Y-88796489D01*
X171169665Y-88700802D01*
X171138170Y-88596976D01*
X171127535Y-88489000D01*
X171138170Y-88381024D01*
X171169665Y-88277198D01*
X171220811Y-88181511D01*
X171289641Y-88097641D01*
X171373511Y-88028811D01*
X171373513Y-88028810D01*
X171373514Y-88028809D01*
X171410514Y-88009032D01*
X171469198Y-87977665D01*
X171469201Y-87977664D01*
X171475607Y-87974240D01*
X171495982Y-87960626D01*
X171513309Y-87943299D01*
X171526923Y-87922925D01*
X171536300Y-87900286D01*
X171541081Y-87876252D01*
X171541081Y-87851748D01*
X171536301Y-87827715D01*
X171526923Y-87805076D01*
X171513309Y-87784701D01*
X171495982Y-87767374D01*
X171475607Y-87753760D01*
X171469201Y-87750336D01*
X171469198Y-87750335D01*
X171410514Y-87718968D01*
X171373514Y-87699191D01*
X171373513Y-87699190D01*
X171373511Y-87699189D01*
X171289641Y-87630359D01*
X171220811Y-87546489D01*
X171169665Y-87450802D01*
X171138170Y-87346976D01*
X171127535Y-87239000D01*
X171138170Y-87131024D01*
X171169665Y-87027198D01*
X171220811Y-86931511D01*
X171289641Y-86847641D01*
X171373511Y-86778811D01*
X171373513Y-86778810D01*
X171373514Y-86778809D01*
X171410514Y-86759032D01*
X171469198Y-86727665D01*
X171469201Y-86727664D01*
X171475607Y-86724240D01*
X171495982Y-86710626D01*
X171513309Y-86693299D01*
X171526923Y-86672925D01*
X171536300Y-86650286D01*
X171541081Y-86626252D01*
X171541081Y-86601748D01*
X171536301Y-86577715D01*
X171526923Y-86555076D01*
X171513309Y-86534701D01*
X171495982Y-86517374D01*
X171475607Y-86503760D01*
X171469201Y-86500336D01*
X171469198Y-86500335D01*
X171410514Y-86468968D01*
X171373514Y-86449191D01*
X171373513Y-86449190D01*
X171373511Y-86449189D01*
X171289641Y-86380359D01*
X171220811Y-86296489D01*
X171169665Y-86200802D01*
X171138170Y-86096976D01*
X171127535Y-85989000D01*
X171138170Y-85881024D01*
X171169665Y-85777198D01*
X171220811Y-85681511D01*
X171289641Y-85597641D01*
X171373511Y-85528811D01*
X171373513Y-85528810D01*
X171373514Y-85528809D01*
X171410514Y-85509032D01*
X171469198Y-85477665D01*
X171469201Y-85477664D01*
X171475607Y-85474240D01*
X171495982Y-85460626D01*
X171513309Y-85443299D01*
X171526923Y-85422925D01*
X171536300Y-85400286D01*
X171541081Y-85376252D01*
X171541081Y-85351748D01*
X171536301Y-85327715D01*
X171526923Y-85305076D01*
X171513309Y-85284701D01*
X171495982Y-85267374D01*
X171475607Y-85253760D01*
X171469201Y-85250336D01*
X171469198Y-85250335D01*
X171410514Y-85218968D01*
X171373514Y-85199191D01*
X171373513Y-85199190D01*
X171373511Y-85199189D01*
X171289641Y-85130359D01*
X171220811Y-85046489D01*
X171169665Y-84950802D01*
X171138170Y-84846976D01*
X171127535Y-84739000D01*
X171138170Y-84631024D01*
X171169665Y-84527198D01*
X171220811Y-84431511D01*
X171289641Y-84347641D01*
X171373511Y-84278811D01*
X171373513Y-84278810D01*
X171373514Y-84278809D01*
X171410514Y-84259032D01*
X171469198Y-84227665D01*
X171469201Y-84227664D01*
X171475607Y-84224240D01*
X171495982Y-84210626D01*
X171513309Y-84193299D01*
X171526923Y-84172925D01*
X171536300Y-84150286D01*
X171541081Y-84126252D01*
X171541081Y-84101748D01*
X171536301Y-84077715D01*
X171526923Y-84055076D01*
X171513309Y-84034701D01*
X171495982Y-84017374D01*
X171475607Y-84003760D01*
X171469201Y-84000336D01*
X171469198Y-84000335D01*
X171410514Y-83968968D01*
X171373514Y-83949191D01*
X171373513Y-83949190D01*
X171373511Y-83949189D01*
X171289641Y-83880359D01*
X171220811Y-83796489D01*
X171169665Y-83700802D01*
X171138170Y-83596976D01*
X171127535Y-83489000D01*
X171138170Y-83381024D01*
X171169665Y-83277198D01*
X171220811Y-83181511D01*
X171289641Y-83097641D01*
X171373511Y-83028811D01*
X171373513Y-83028810D01*
X171373514Y-83028809D01*
X171410514Y-83009032D01*
X171469198Y-82977665D01*
X171469201Y-82977664D01*
X171475607Y-82974240D01*
X171495982Y-82960626D01*
X171513309Y-82943299D01*
X171526923Y-82922925D01*
X171536300Y-82900286D01*
X171541081Y-82876252D01*
X171541081Y-82851748D01*
X171536301Y-82827715D01*
X171526923Y-82805076D01*
X171513309Y-82784701D01*
X171495982Y-82767374D01*
X171475607Y-82753760D01*
X171469201Y-82750336D01*
X171469198Y-82750335D01*
X171410514Y-82718968D01*
X171373514Y-82699191D01*
X171373513Y-82699190D01*
X171373511Y-82699189D01*
X171289641Y-82630359D01*
X171220811Y-82546489D01*
X171169665Y-82450802D01*
X171138170Y-82346976D01*
X171127535Y-82239000D01*
X171138170Y-82131024D01*
X171140847Y-82122200D01*
X171159536Y-82060588D01*
X171169665Y-82027198D01*
X171220811Y-81931511D01*
X171289641Y-81847641D01*
X171373511Y-81778811D01*
X171373513Y-81778810D01*
X171373514Y-81778809D01*
X171410514Y-81759032D01*
X171469198Y-81727665D01*
X171469201Y-81727664D01*
X171475607Y-81724240D01*
X171495982Y-81710626D01*
X171513309Y-81693299D01*
X171526923Y-81672925D01*
X171536300Y-81650286D01*
X171541081Y-81626252D01*
X171541081Y-81601748D01*
X171536301Y-81577715D01*
X171526923Y-81555076D01*
X171513309Y-81534701D01*
X171495982Y-81517374D01*
X171475607Y-81503760D01*
X171469201Y-81500336D01*
X171469198Y-81500335D01*
X171410514Y-81468968D01*
X171373514Y-81449191D01*
X171373513Y-81449190D01*
X171373511Y-81449189D01*
X171289641Y-81380359D01*
X171220811Y-81296489D01*
X171169665Y-81200802D01*
X171138170Y-81096976D01*
X171127535Y-80989000D01*
X171138170Y-80881024D01*
X171169665Y-80777198D01*
X171220811Y-80681511D01*
X171289641Y-80597641D01*
X171373511Y-80528811D01*
X171373513Y-80528810D01*
X171373514Y-80528809D01*
X171414262Y-80507029D01*
X171469198Y-80477665D01*
X171521111Y-80461917D01*
X171573023Y-80446170D01*
X171584584Y-80445031D01*
X171653943Y-80438200D01*
X172008057Y-80438200D01*
X172077416Y-80445031D01*
X172077416Y-80445031D01*
G37*
G36*
X78536800Y-92506800D02*
X77419200Y-92506800D01*
X77419200Y-91389200D01*
X78536800Y-91389200D01*
X78536800Y-92506800D01*
X78536800Y-92506800D01*
G37*
G36*
X167584800Y-92375800D02*
X166933200Y-92375800D01*
X166933200Y-91774200D01*
X167584800Y-91774200D01*
X167584800Y-92375800D01*
X167584800Y-92375800D01*
G37*
G36*
X169997800Y-92375800D02*
X169346200Y-92375800D01*
X169346200Y-91774200D01*
X169997800Y-91774200D01*
X169997800Y-92375800D01*
X169997800Y-92375800D01*
G37*
G36*
X168854800Y-92375800D02*
X168203200Y-92375800D01*
X168203200Y-91774200D01*
X168854800Y-91774200D01*
X168854800Y-92375800D01*
X168854800Y-92375800D01*
G37*
G36*
X166568800Y-92375800D02*
X165917200Y-92375800D01*
X165917200Y-91774200D01*
X166568800Y-91774200D01*
X166568800Y-92375800D01*
X166568800Y-92375800D01*
G37*
G36*
X72097900Y-92075000D02*
X70396100Y-92075000D01*
X70396100Y-90805000D01*
X72097900Y-90805000D01*
X72097900Y-92075000D01*
X72097900Y-92075000D01*
G37*
G36*
X132151800Y-91994800D02*
X131500200Y-91994800D01*
X131500200Y-91393200D01*
X132151800Y-91393200D01*
X132151800Y-91994800D01*
X132151800Y-91994800D01*
G37*
G36*
X135580800Y-91994800D02*
X134929200Y-91994800D01*
X134929200Y-91393200D01*
X135580800Y-91393200D01*
X135580800Y-91994800D01*
X135580800Y-91994800D01*
G37*
G36*
X134437800Y-91994800D02*
X133786200Y-91994800D01*
X133786200Y-91393200D01*
X134437800Y-91393200D01*
X134437800Y-91994800D01*
X134437800Y-91994800D01*
G37*
G36*
X133294800Y-91994800D02*
X132643200Y-91994800D01*
X132643200Y-91393200D01*
X133294800Y-91393200D01*
X133294800Y-91994800D01*
X133294800Y-91994800D01*
G37*
G36*
X75107800Y-91617800D02*
X73990200Y-91617800D01*
X73990200Y-90500200D01*
X75107800Y-90500200D01*
X75107800Y-91617800D01*
X75107800Y-91617800D01*
G37*
G36*
X77643800Y-91130800D02*
X77010800Y-91130800D01*
X76986414Y-91133202D01*
X76962965Y-91140315D01*
X76941354Y-91151866D01*
X76922412Y-91167412D01*
X76906866Y-91186354D01*
X76895315Y-91207965D01*
X76888202Y-91231414D01*
X76885800Y-91255800D01*
X76885800Y-91617800D01*
X75768200Y-91617800D01*
X75768200Y-90500200D01*
X76917200Y-90500200D01*
X76941586Y-90497798D01*
X76965035Y-90490685D01*
X76986523Y-90479200D01*
X77643800Y-90479200D01*
X77643800Y-91130800D01*
X77643800Y-91130800D01*
G37*
G36*
X79954800Y-91613800D02*
X79303200Y-91613800D01*
X79303200Y-91012200D01*
X79954800Y-91012200D01*
X79954800Y-91613800D01*
X79954800Y-91613800D01*
G37*
G36*
X167584800Y-91359800D02*
X166933200Y-91359800D01*
X166933200Y-90758200D01*
X167584800Y-90758200D01*
X167584800Y-91359800D01*
X167584800Y-91359800D01*
G37*
G36*
X166568800Y-91359800D02*
X165917200Y-91359800D01*
X165917200Y-90758200D01*
X166568800Y-90758200D01*
X166568800Y-91359800D01*
X166568800Y-91359800D01*
G37*
G36*
X169997800Y-91359800D02*
X169346200Y-91359800D01*
X169346200Y-90758200D01*
X169997800Y-90758200D01*
X169997800Y-91359800D01*
X169997800Y-91359800D01*
G37*
G36*
X168854800Y-91359800D02*
X168203200Y-91359800D01*
X168203200Y-90758200D01*
X168854800Y-90758200D01*
X168854800Y-91359800D01*
X168854800Y-91359800D01*
G37*
G36*
X150312800Y-91359800D02*
X146105200Y-91359800D01*
X146105200Y-90758200D01*
X150312800Y-90758200D01*
X150312800Y-91359800D01*
X150312800Y-91359800D01*
G37*
G36*
X78659800Y-91130800D02*
X78058200Y-91130800D01*
X78058200Y-90479200D01*
X78659800Y-90479200D01*
X78659800Y-91130800D01*
X78659800Y-91130800D01*
G37*
G36*
X118181800Y-91105800D02*
X117530200Y-91105800D01*
X117530200Y-90504200D01*
X118181800Y-90504200D01*
X118181800Y-91105800D01*
X118181800Y-91105800D01*
G37*
G36*
X116657800Y-91105800D02*
X116006200Y-91105800D01*
X116006200Y-90504200D01*
X116657800Y-90504200D01*
X116657800Y-91105800D01*
X116657800Y-91105800D01*
G37*
G36*
X132151800Y-90724800D02*
X131500200Y-90724800D01*
X131500200Y-90123200D01*
X132151800Y-90123200D01*
X132151800Y-90724800D01*
X132151800Y-90724800D01*
G37*
G36*
X135580800Y-90724800D02*
X134929200Y-90724800D01*
X134929200Y-90123200D01*
X135580800Y-90123200D01*
X135580800Y-90724800D01*
X135580800Y-90724800D01*
G37*
G36*
X134437800Y-90724800D02*
X133786200Y-90724800D01*
X133786200Y-90123200D01*
X134437800Y-90123200D01*
X134437800Y-90724800D01*
X134437800Y-90724800D01*
G37*
G36*
X133294800Y-90724800D02*
X132643200Y-90724800D01*
X132643200Y-90123200D01*
X133294800Y-90123200D01*
X133294800Y-90724800D01*
X133294800Y-90724800D01*
G37*
G36*
X79954800Y-90597800D02*
X79303200Y-90597800D01*
X79303200Y-89996200D01*
X79954800Y-89996200D01*
X79954800Y-90597800D01*
X79954800Y-90597800D01*
G37*
G36*
X168854800Y-90470800D02*
X168203200Y-90470800D01*
X168203200Y-89869200D01*
X168854800Y-89869200D01*
X168854800Y-90470800D01*
X168854800Y-90470800D01*
G37*
G36*
X169997800Y-90470800D02*
X169346200Y-90470800D01*
X169346200Y-89869200D01*
X169997800Y-89869200D01*
X169997800Y-90470800D01*
X169997800Y-90470800D01*
G37*
G36*
X150312800Y-90343800D02*
X146105200Y-90343800D01*
X146105200Y-89742200D01*
X150312800Y-89742200D01*
X150312800Y-90343800D01*
X150312800Y-90343800D01*
G37*
G36*
X156740000Y-90240000D02*
X154360000Y-90240000D01*
X154360000Y-87060000D01*
X156740000Y-87060000D01*
X156740000Y-90240000D01*
X156740000Y-90240000D01*
G37*
G36*
X163540000Y-90240000D02*
X161160000Y-90240000D01*
X161160000Y-87060000D01*
X163540000Y-87060000D01*
X163540000Y-90240000D01*
X163540000Y-90240000D01*
G37*
G36*
X74853800Y-90220800D02*
X73736200Y-90220800D01*
X73736200Y-89103200D01*
X74853800Y-89103200D01*
X74853800Y-90220800D01*
X74853800Y-90220800D01*
G37*
G36*
X76377800Y-90220800D02*
X75260200Y-90220800D01*
X75260200Y-89103200D01*
X76377800Y-89103200D01*
X76377800Y-90220800D01*
X76377800Y-90220800D01*
G37*
G36*
X116657800Y-90089800D02*
X116006200Y-90089800D01*
X116006200Y-89488200D01*
X116657800Y-89488200D01*
X116657800Y-90089800D01*
X116657800Y-90089800D01*
G37*
G36*
X118181800Y-90089800D02*
X117530200Y-90089800D01*
X117530200Y-89488200D01*
X118181800Y-89488200D01*
X118181800Y-90089800D01*
X118181800Y-90089800D01*
G37*
G36*
X88650800Y-89800800D02*
X86149200Y-89800800D01*
X86149200Y-87099200D01*
X88650800Y-87099200D01*
X88650800Y-89800800D01*
X88650800Y-89800800D01*
G37*
G36*
X112450800Y-89800800D02*
X109949200Y-89800800D01*
X109949200Y-87099200D01*
X112450800Y-87099200D01*
X112450800Y-89800800D01*
X112450800Y-89800800D01*
G37*
G36*
X132151800Y-89708800D02*
X131500200Y-89708800D01*
X131500200Y-89107200D01*
X132151800Y-89107200D01*
X132151800Y-89708800D01*
X132151800Y-89708800D01*
G37*
G36*
X79192800Y-89708800D02*
X76763200Y-89708800D01*
X76763200Y-89107200D01*
X79192800Y-89107200D01*
X79192800Y-89708800D01*
X79192800Y-89708800D01*
G37*
G36*
X134437800Y-89708800D02*
X133786200Y-89708800D01*
X133786200Y-89107200D01*
X134437800Y-89107200D01*
X134437800Y-89708800D01*
X134437800Y-89708800D01*
G37*
G36*
X135580800Y-89708800D02*
X134929200Y-89708800D01*
X134929200Y-89107200D01*
X135580800Y-89107200D01*
X135580800Y-89708800D01*
X135580800Y-89708800D01*
G37*
G36*
X133294800Y-89708800D02*
X132643200Y-89708800D01*
X132643200Y-89107200D01*
X133294800Y-89107200D01*
X133294800Y-89708800D01*
X133294800Y-89708800D01*
G37*
G36*
X169997800Y-89454800D02*
X169346200Y-89454800D01*
X169346200Y-88853200D01*
X169997800Y-88853200D01*
X169997800Y-89454800D01*
X169997800Y-89454800D01*
G37*
G36*
X168854800Y-89454800D02*
X168203200Y-89454800D01*
X168203200Y-88853200D01*
X168854800Y-88853200D01*
X168854800Y-89454800D01*
X168854800Y-89454800D01*
G37*
G36*
X72097900Y-89281000D02*
X70396100Y-89281000D01*
X70396100Y-88011000D01*
X72097900Y-88011000D01*
X72097900Y-89281000D01*
X72097900Y-89281000D01*
G37*
G36*
X79192800Y-88692800D02*
X76763200Y-88692800D01*
X76763200Y-88091200D01*
X79192800Y-88091200D01*
X79192800Y-88692800D01*
X79192800Y-88692800D01*
G37*
G36*
X74853800Y-88442800D02*
X73736200Y-88442800D01*
X73736200Y-87325200D01*
X74853800Y-87325200D01*
X74853800Y-88442800D01*
X74853800Y-88442800D01*
G37*
G36*
X76377800Y-88442800D02*
X75260200Y-88442800D01*
X75260200Y-87325200D01*
X76377800Y-87325200D01*
X76377800Y-88442800D01*
X76377800Y-88442800D01*
G37*
G36*
X169887900Y-88392000D02*
X168186100Y-88392000D01*
X168186100Y-87122000D01*
X169887900Y-87122000D01*
X169887900Y-88392000D01*
X169887900Y-88392000D01*
G37*
G36*
X72097900Y-87757000D02*
X70396100Y-87757000D01*
X70396100Y-86487000D01*
X72097900Y-86487000D01*
X72097900Y-87757000D01*
X72097900Y-87757000D01*
G37*
G36*
X147085800Y-87437800D02*
X146284200Y-87437800D01*
X146284200Y-85536200D01*
X147085800Y-85536200D01*
X147085800Y-87437800D01*
X147085800Y-87437800D01*
G37*
G36*
X136925800Y-87437800D02*
X136124200Y-87437800D01*
X136124200Y-85536200D01*
X136925800Y-85536200D01*
X136925800Y-87437800D01*
X136925800Y-87437800D01*
G37*
G36*
X131845800Y-87437800D02*
X131044200Y-87437800D01*
X131044200Y-85536200D01*
X131845800Y-85536200D01*
X131845800Y-87437800D01*
X131845800Y-87437800D01*
G37*
G36*
X129305800Y-87437800D02*
X128504200Y-87437800D01*
X128504200Y-85536200D01*
X129305800Y-85536200D01*
X129305800Y-87437800D01*
X129305800Y-87437800D01*
G37*
G36*
X130575800Y-87437800D02*
X129774200Y-87437800D01*
X129774200Y-85536200D01*
X130575800Y-85536200D01*
X130575800Y-87437800D01*
X130575800Y-87437800D01*
G37*
G36*
X135655800Y-87437800D02*
X134854200Y-87437800D01*
X134854200Y-85536200D01*
X135655800Y-85536200D01*
X135655800Y-87437800D01*
X135655800Y-87437800D01*
G37*
G36*
X134385800Y-87437800D02*
X133584200Y-87437800D01*
X133584200Y-85536200D01*
X134385800Y-85536200D01*
X134385800Y-87437800D01*
X134385800Y-87437800D01*
G37*
G36*
X128035800Y-87437800D02*
X127234200Y-87437800D01*
X127234200Y-85536200D01*
X128035800Y-85536200D01*
X128035800Y-87437800D01*
X128035800Y-87437800D01*
G37*
G36*
X125495800Y-87437800D02*
X124694200Y-87437800D01*
X124694200Y-85536200D01*
X125495800Y-85536200D01*
X125495800Y-87437800D01*
X125495800Y-87437800D01*
G37*
G36*
X126765800Y-87437800D02*
X125964200Y-87437800D01*
X125964200Y-85536200D01*
X126765800Y-85536200D01*
X126765800Y-87437800D01*
X126765800Y-87437800D01*
G37*
G36*
X145815800Y-87437800D02*
X145014200Y-87437800D01*
X145014200Y-85536200D01*
X145815800Y-85536200D01*
X145815800Y-87437800D01*
X145815800Y-87437800D01*
G37*
G36*
X144545800Y-87437800D02*
X143744200Y-87437800D01*
X143744200Y-85536200D01*
X144545800Y-85536200D01*
X144545800Y-87437800D01*
X144545800Y-87437800D01*
G37*
G36*
X143275800Y-87437800D02*
X142474200Y-87437800D01*
X142474200Y-85536200D01*
X143275800Y-85536200D01*
X143275800Y-87437800D01*
X143275800Y-87437800D01*
G37*
G36*
X142005800Y-87437800D02*
X141204200Y-87437800D01*
X141204200Y-85536200D01*
X142005800Y-85536200D01*
X142005800Y-87437800D01*
X142005800Y-87437800D01*
G37*
G36*
X140735800Y-87437800D02*
X139934200Y-87437800D01*
X139934200Y-85536200D01*
X140735800Y-85536200D01*
X140735800Y-87437800D01*
X140735800Y-87437800D01*
G37*
G36*
X139465800Y-87437800D02*
X138664200Y-87437800D01*
X138664200Y-85536200D01*
X139465800Y-85536200D01*
X139465800Y-87437800D01*
X139465800Y-87437800D01*
G37*
G36*
X138195800Y-87437800D02*
X137394200Y-87437800D01*
X137394200Y-85536200D01*
X138195800Y-85536200D01*
X138195800Y-87437800D01*
X138195800Y-87437800D01*
G37*
G36*
X148355800Y-87437800D02*
X147554200Y-87437800D01*
X147554200Y-85536200D01*
X148355800Y-85536200D01*
X148355800Y-87437800D01*
X148355800Y-87437800D01*
G37*
G36*
X133115800Y-87437800D02*
X132314200Y-87437800D01*
X132314200Y-85536200D01*
X133115800Y-85536200D01*
X133115800Y-87437800D01*
X133115800Y-87437800D01*
G37*
G36*
X124225800Y-87437800D02*
X123424200Y-87437800D01*
X123424200Y-85536200D01*
X124225800Y-85536200D01*
X124225800Y-87437800D01*
X124225800Y-87437800D01*
G37*
G36*
X77353800Y-87294900D02*
X76702200Y-87294900D01*
X76702200Y-85993300D01*
X77353800Y-85993300D01*
X77353800Y-87294900D01*
X77353800Y-87294900D01*
G37*
G36*
X79253800Y-87294900D02*
X78602200Y-87294900D01*
X78602200Y-85993300D01*
X79253800Y-85993300D01*
X79253800Y-87294900D01*
X79253800Y-87294900D01*
G37*
G36*
X78303800Y-87294900D02*
X77652200Y-87294900D01*
X77652200Y-85993300D01*
X78303800Y-85993300D01*
X78303800Y-87294900D01*
X78303800Y-87294900D01*
G37*
G36*
X109225800Y-87050800D02*
X89374200Y-87050800D01*
X89374200Y-85649200D01*
X109225800Y-85649200D01*
X109225800Y-87050800D01*
X109225800Y-87050800D01*
G37*
G36*
X160375800Y-87050800D02*
X157524200Y-87050800D01*
X157524200Y-85649200D01*
X160375800Y-85649200D01*
X160375800Y-87050800D01*
X160375800Y-87050800D01*
G37*
G36*
X75869800Y-87045800D02*
X74244200Y-87045800D01*
X74244200Y-85674200D01*
X75869800Y-85674200D01*
X75869800Y-87045800D01*
X75869800Y-87045800D01*
G37*
G36*
X169887900Y-86868000D02*
X168186100Y-86868000D01*
X168186100Y-85598000D01*
X169887900Y-85598000D01*
X169887900Y-86868000D01*
X169887900Y-86868000D01*
G37*
G36*
X85046800Y-85864800D02*
X79545200Y-85864800D01*
X79545200Y-83563200D01*
X85046800Y-83563200D01*
X85046800Y-85864800D01*
X85046800Y-85864800D01*
G37*
G36*
X89585800Y-85013800D02*
X88468200Y-85013800D01*
X88468200Y-83896200D01*
X89585800Y-83896200D01*
X89585800Y-85013800D01*
X89585800Y-85013800D01*
G37*
G36*
X87807800Y-85013800D02*
X86690200Y-85013800D01*
X86690200Y-83896200D01*
X87807800Y-83896200D01*
X87807800Y-85013800D01*
X87807800Y-85013800D01*
G37*
G36*
X75869800Y-85013800D02*
X74244200Y-85013800D01*
X74244200Y-83642200D01*
X75869800Y-83642200D01*
X75869800Y-85013800D01*
X75869800Y-85013800D01*
G37*
G36*
X124606077Y-83973445D02*
X124697216Y-84011196D01*
X124697218Y-84011197D01*
X124778153Y-84065276D01*
X124779244Y-84066005D01*
X124848995Y-84135756D01*
X124848997Y-84135759D01*
X124899022Y-84210626D01*
X124903804Y-84217784D01*
X124941555Y-84308923D01*
X124960800Y-84405674D01*
X124960800Y-84504326D01*
X124941555Y-84601077D01*
X124903804Y-84692216D01*
X124903803Y-84692218D01*
X124872544Y-84739000D01*
X124848995Y-84774244D01*
X124779244Y-84843995D01*
X124779241Y-84843997D01*
X124697218Y-84898803D01*
X124697217Y-84898804D01*
X124697216Y-84898804D01*
X124606077Y-84936555D01*
X124509326Y-84955800D01*
X124410674Y-84955800D01*
X124313923Y-84936555D01*
X124222784Y-84898804D01*
X124222783Y-84898804D01*
X124222782Y-84898803D01*
X124140759Y-84843997D01*
X124140756Y-84843995D01*
X124071005Y-84774244D01*
X124047456Y-84739000D01*
X124016197Y-84692218D01*
X124016196Y-84692216D01*
X123978445Y-84601077D01*
X123959200Y-84504326D01*
X123959200Y-84405674D01*
X123978445Y-84308923D01*
X124016196Y-84217784D01*
X124020979Y-84210626D01*
X124071003Y-84135759D01*
X124071005Y-84135756D01*
X124140756Y-84066005D01*
X124141847Y-84065276D01*
X124222782Y-84011197D01*
X124222784Y-84011196D01*
X124313923Y-83973445D01*
X124410674Y-83954200D01*
X124509326Y-83954200D01*
X124606077Y-83973445D01*
X124606077Y-83973445D01*
G37*
G36*
X147466077Y-83973445D02*
X147557216Y-84011196D01*
X147557218Y-84011197D01*
X147638153Y-84065276D01*
X147639244Y-84066005D01*
X147708995Y-84135756D01*
X147708997Y-84135759D01*
X147759022Y-84210626D01*
X147763804Y-84217784D01*
X147801555Y-84308923D01*
X147820800Y-84405674D01*
X147820800Y-84504326D01*
X147801555Y-84601077D01*
X147763804Y-84692216D01*
X147763803Y-84692218D01*
X147732544Y-84739000D01*
X147708995Y-84774244D01*
X147639244Y-84843995D01*
X147639241Y-84843997D01*
X147557218Y-84898803D01*
X147557217Y-84898804D01*
X147557216Y-84898804D01*
X147466077Y-84936555D01*
X147369326Y-84955800D01*
X147270674Y-84955800D01*
X147173923Y-84936555D01*
X147082784Y-84898804D01*
X147082783Y-84898804D01*
X147082782Y-84898803D01*
X147000759Y-84843997D01*
X147000756Y-84843995D01*
X146931005Y-84774244D01*
X146907456Y-84739000D01*
X146876197Y-84692218D01*
X146876196Y-84692216D01*
X146838445Y-84601077D01*
X146819200Y-84504326D01*
X146819200Y-84405674D01*
X146838445Y-84308923D01*
X146876196Y-84217784D01*
X146880979Y-84210626D01*
X146931003Y-84135759D01*
X146931005Y-84135756D01*
X147000756Y-84066005D01*
X147001847Y-84065276D01*
X147082782Y-84011197D01*
X147082784Y-84011196D01*
X147173923Y-83973445D01*
X147270674Y-83954200D01*
X147369326Y-83954200D01*
X147466077Y-83973445D01*
X147466077Y-83973445D01*
G37*
G36*
X71551800Y-84886800D02*
X70434200Y-84886800D01*
X70434200Y-84023200D01*
X71551800Y-84023200D01*
X71551800Y-84886800D01*
X71551800Y-84886800D01*
G37*
G36*
X78303800Y-84694700D02*
X77652200Y-84694700D01*
X77652200Y-83393100D01*
X78303800Y-83393100D01*
X78303800Y-84694700D01*
X78303800Y-84694700D01*
G37*
G36*
X77353800Y-84694700D02*
X76702200Y-84694700D01*
X76702200Y-83393100D01*
X77353800Y-83393100D01*
X77353800Y-84694700D01*
X77353800Y-84694700D01*
G37*
G36*
X79253800Y-84694700D02*
X78602200Y-84694700D01*
X78602200Y-83393100D01*
X79253800Y-83393100D01*
X79253800Y-84694700D01*
X79253800Y-84694700D01*
G37*
G36*
X71551800Y-83743800D02*
X70434200Y-83743800D01*
X70434200Y-82880200D01*
X71551800Y-82880200D01*
X71551800Y-83743800D01*
X71551800Y-83743800D01*
G37*
G36*
X169997800Y-83739800D02*
X169346200Y-83739800D01*
X169346200Y-83138200D01*
X169997800Y-83138200D01*
X169997800Y-83739800D01*
X169997800Y-83739800D01*
G37*
G36*
X168854800Y-83739800D02*
X168203200Y-83739800D01*
X168203200Y-83138200D01*
X168854800Y-83138200D01*
X168854800Y-83739800D01*
X168854800Y-83739800D01*
G37*
G36*
X139465800Y-83373800D02*
X138664200Y-83373800D01*
X138664200Y-81472200D01*
X139465800Y-81472200D01*
X139465800Y-83373800D01*
X139465800Y-83373800D01*
G37*
G36*
X140735800Y-83373800D02*
X139934200Y-83373800D01*
X139934200Y-81472200D01*
X140735800Y-81472200D01*
X140735800Y-83373800D01*
X140735800Y-83373800D01*
G37*
G36*
X128035800Y-83373800D02*
X127234200Y-83373800D01*
X127234200Y-81472200D01*
X128035800Y-81472200D01*
X128035800Y-83373800D01*
X128035800Y-83373800D01*
G37*
G36*
X126765800Y-83373800D02*
X125964200Y-83373800D01*
X125964200Y-81472200D01*
X126765800Y-81472200D01*
X126765800Y-83373800D01*
X126765800Y-83373800D01*
G37*
G36*
X135655800Y-83373800D02*
X134854200Y-83373800D01*
X134854200Y-81472200D01*
X135655800Y-81472200D01*
X135655800Y-83373800D01*
X135655800Y-83373800D01*
G37*
G36*
X134385800Y-83373800D02*
X133584200Y-83373800D01*
X133584200Y-81472200D01*
X134385800Y-81472200D01*
X134385800Y-83373800D01*
X134385800Y-83373800D01*
G37*
G36*
X133115800Y-83373800D02*
X132314200Y-83373800D01*
X132314200Y-81472200D01*
X133115800Y-81472200D01*
X133115800Y-83373800D01*
X133115800Y-83373800D01*
G37*
G36*
X131845800Y-83373800D02*
X131044200Y-83373800D01*
X131044200Y-81472200D01*
X131845800Y-81472200D01*
X131845800Y-83373800D01*
X131845800Y-83373800D01*
G37*
G36*
X130575800Y-83373800D02*
X129774200Y-83373800D01*
X129774200Y-81472200D01*
X130575800Y-81472200D01*
X130575800Y-83373800D01*
X130575800Y-83373800D01*
G37*
G36*
X129305800Y-83373800D02*
X128504200Y-83373800D01*
X128504200Y-81472200D01*
X129305800Y-81472200D01*
X129305800Y-83373800D01*
X129305800Y-83373800D01*
G37*
G36*
X136925800Y-83373800D02*
X136124200Y-83373800D01*
X136124200Y-81472200D01*
X136925800Y-81472200D01*
X136925800Y-83373800D01*
X136925800Y-83373800D01*
G37*
G36*
X124225800Y-83373800D02*
X123424200Y-83373800D01*
X123424200Y-81472200D01*
X124225800Y-81472200D01*
X124225800Y-83373800D01*
X124225800Y-83373800D01*
G37*
G36*
X125495800Y-83373800D02*
X124694200Y-83373800D01*
X124694200Y-81472200D01*
X125495800Y-81472200D01*
X125495800Y-83373800D01*
X125495800Y-83373800D01*
G37*
G36*
X144545800Y-83373800D02*
X143744200Y-83373800D01*
X143744200Y-81472200D01*
X144545800Y-81472200D01*
X144545800Y-83373800D01*
X144545800Y-83373800D01*
G37*
G36*
X145815800Y-83373800D02*
X145014200Y-83373800D01*
X145014200Y-81472200D01*
X145815800Y-81472200D01*
X145815800Y-83373800D01*
X145815800Y-83373800D01*
G37*
G36*
X147085800Y-83373800D02*
X146284200Y-83373800D01*
X146284200Y-81472200D01*
X147085800Y-81472200D01*
X147085800Y-83373800D01*
X147085800Y-83373800D01*
G37*
G36*
X148355800Y-83373800D02*
X147554200Y-83373800D01*
X147554200Y-81472200D01*
X148355800Y-81472200D01*
X148355800Y-83373800D01*
X148355800Y-83373800D01*
G37*
G36*
X142005800Y-83373800D02*
X141204200Y-83373800D01*
X141204200Y-81472200D01*
X142005800Y-81472200D01*
X142005800Y-83373800D01*
X142005800Y-83373800D01*
G37*
G36*
X143275800Y-83373800D02*
X142474200Y-83373800D01*
X142474200Y-81472200D01*
X143275800Y-81472200D01*
X143275800Y-83373800D01*
X143275800Y-83373800D01*
G37*
G36*
X138195800Y-83373800D02*
X137394200Y-83373800D01*
X137394200Y-81472200D01*
X138195800Y-81472200D01*
X138195800Y-83373800D01*
X138195800Y-83373800D01*
G37*
G36*
X87807800Y-83235800D02*
X86690200Y-83235800D01*
X86690200Y-82118200D01*
X87807800Y-82118200D01*
X87807800Y-83235800D01*
X87807800Y-83235800D01*
G37*
G36*
X89585800Y-83235800D02*
X88468200Y-83235800D01*
X88468200Y-82118200D01*
X89585800Y-82118200D01*
X89585800Y-83235800D01*
X89585800Y-83235800D01*
G37*
G36*
X78917800Y-82981800D02*
X77800200Y-82981800D01*
X77800200Y-82873800D01*
X77797798Y-82849414D01*
X77790685Y-82825965D01*
X77779134Y-82804354D01*
X77763588Y-82785412D01*
X77744646Y-82769866D01*
X77723035Y-82758315D01*
X77699586Y-82751202D01*
X77675200Y-82748800D01*
X77042200Y-82748800D01*
X77042200Y-82097200D01*
X77675200Y-82097200D01*
X77699586Y-82094798D01*
X77723035Y-82087685D01*
X77744646Y-82076134D01*
X77763588Y-82060588D01*
X77779134Y-82041646D01*
X77790685Y-82020035D01*
X77797798Y-81996586D01*
X77800200Y-81972200D01*
X77800200Y-81864200D01*
X78917800Y-81864200D01*
X78917800Y-82981800D01*
X78917800Y-82981800D01*
G37*
G36*
X80695800Y-82981800D02*
X79578200Y-82981800D01*
X79578200Y-81864200D01*
X80695800Y-81864200D01*
X80695800Y-82981800D01*
X80695800Y-82981800D01*
G37*
G36*
X85511260Y-82879160D02*
X84409660Y-82879160D01*
X84409660Y-81377560D01*
X85511260Y-81377560D01*
X85511260Y-82879160D01*
X85511260Y-82879160D01*
G37*
G36*
X82211800Y-82876800D02*
X81110200Y-82876800D01*
X81110200Y-81375200D01*
X82211800Y-81375200D01*
X82211800Y-82876800D01*
X82211800Y-82876800D01*
G37*
G36*
X83104800Y-82748800D02*
X82503200Y-82748800D01*
X82503200Y-82097200D01*
X83104800Y-82097200D01*
X83104800Y-82748800D01*
X83104800Y-82748800D01*
G37*
G36*
X84120800Y-82748800D02*
X83519200Y-82748800D01*
X83519200Y-82097200D01*
X84120800Y-82097200D01*
X84120800Y-82748800D01*
X84120800Y-82748800D01*
G37*
G36*
X76627800Y-82748800D02*
X76026200Y-82748800D01*
X76026200Y-82097200D01*
X76627800Y-82097200D01*
X76627800Y-82748800D01*
X76627800Y-82748800D01*
G37*
G36*
X75738800Y-82748800D02*
X75137200Y-82748800D01*
X75137200Y-82097200D01*
X75738800Y-82097200D01*
X75738800Y-82748800D01*
X75738800Y-82748800D01*
G37*
G36*
X74722800Y-82748800D02*
X74121200Y-82748800D01*
X74121200Y-82097200D01*
X74722800Y-82097200D01*
X74722800Y-82748800D01*
X74722800Y-82748800D01*
G37*
G36*
X169997800Y-82723800D02*
X169346200Y-82723800D01*
X169346200Y-82122200D01*
X169997800Y-82122200D01*
X169997800Y-82723800D01*
X169997800Y-82723800D01*
G37*
G36*
X168854800Y-82723800D02*
X168203200Y-82723800D01*
X168203200Y-82122200D01*
X168854800Y-82122200D01*
X168854800Y-82723800D01*
X168854800Y-82723800D01*
G37*
G36*
X71551800Y-82600800D02*
X70434200Y-82600800D01*
X70434200Y-81737200D01*
X71551800Y-81737200D01*
X71551800Y-82600800D01*
X71551800Y-82600800D01*
G37*
G36*
X156690000Y-82440000D02*
X154310000Y-82440000D01*
X154310000Y-79260000D01*
X156690000Y-79260000D01*
X156690000Y-82440000D01*
X156690000Y-82440000D01*
G37*
G36*
X163490000Y-82440000D02*
X161110000Y-82440000D01*
X161110000Y-79260000D01*
X163490000Y-79260000D01*
X163490000Y-82440000D01*
X163490000Y-82440000D01*
G37*
G36*
X169887900Y-81661000D02*
X168186100Y-81661000D01*
X168186100Y-80391000D01*
X169887900Y-80391000D01*
X169887900Y-81661000D01*
X169887900Y-81661000D01*
G37*
G36*
X75605260Y-81482160D02*
X74503660Y-81482160D01*
X74503660Y-79980560D01*
X75605260Y-79980560D01*
X75605260Y-81482160D01*
X75605260Y-81482160D01*
G37*
G36*
X78907260Y-81482160D02*
X77805660Y-81482160D01*
X77805660Y-79980560D01*
X78907260Y-79980560D01*
X78907260Y-81482160D01*
X78907260Y-81482160D01*
G37*
G36*
X83161800Y-80676800D02*
X82060200Y-80676800D01*
X82060200Y-79175200D01*
X83161800Y-79175200D01*
X83161800Y-80676800D01*
X83161800Y-80676800D01*
G37*
G36*
X81261800Y-80676800D02*
X80160200Y-80676800D01*
X80160200Y-79175200D01*
X81261800Y-79175200D01*
X81261800Y-80676800D01*
X81261800Y-80676800D01*
G37*
G36*
X86466300Y-80669360D02*
X85364700Y-80669360D01*
X85364700Y-79167760D01*
X86466300Y-79167760D01*
X86466300Y-80669360D01*
X86466300Y-80669360D01*
G37*
G36*
X84563840Y-80669360D02*
X83462240Y-80669360D01*
X83462240Y-79167760D01*
X84563840Y-79167760D01*
X84563840Y-80669360D01*
X84563840Y-80669360D01*
G37*
G36*
X169887900Y-80137000D02*
X168186100Y-80137000D01*
X168186100Y-78867000D01*
X169887900Y-78867000D01*
X169887900Y-80137000D01*
X169887900Y-80137000D01*
G37*
G36*
X72690800Y-79954800D02*
X72089200Y-79954800D01*
X72089200Y-79303200D01*
X72690800Y-79303200D01*
X72690800Y-79954800D01*
X72690800Y-79954800D01*
G37*
G36*
X71674800Y-79954800D02*
X71073200Y-79954800D01*
X71073200Y-79303200D01*
X71674800Y-79303200D01*
X71674800Y-79954800D01*
X71674800Y-79954800D01*
G37*
G36*
X128035800Y-79817800D02*
X127234200Y-79817800D01*
X127234200Y-77916200D01*
X128035800Y-77916200D01*
X128035800Y-79817800D01*
X128035800Y-79817800D01*
G37*
G36*
X126765800Y-79817800D02*
X125964200Y-79817800D01*
X125964200Y-77916200D01*
X126765800Y-77916200D01*
X126765800Y-79817800D01*
X126765800Y-79817800D01*
G37*
G36*
X125495800Y-79817800D02*
X124694200Y-79817800D01*
X124694200Y-77916200D01*
X125495800Y-77916200D01*
X125495800Y-79817800D01*
X125495800Y-79817800D01*
G37*
G36*
X124225800Y-79817800D02*
X123424200Y-79817800D01*
X123424200Y-77916200D01*
X124225800Y-77916200D01*
X124225800Y-79817800D01*
X124225800Y-79817800D01*
G37*
G36*
X136925800Y-79817800D02*
X136124200Y-79817800D01*
X136124200Y-77916200D01*
X136925800Y-77916200D01*
X136925800Y-79817800D01*
X136925800Y-79817800D01*
G37*
G36*
X138195800Y-79817800D02*
X137394200Y-79817800D01*
X137394200Y-77916200D01*
X138195800Y-77916200D01*
X138195800Y-79817800D01*
X138195800Y-79817800D01*
G37*
G36*
X139465800Y-79817800D02*
X138664200Y-79817800D01*
X138664200Y-77916200D01*
X139465800Y-77916200D01*
X139465800Y-79817800D01*
X139465800Y-79817800D01*
G37*
G36*
X140735800Y-79817800D02*
X139934200Y-79817800D01*
X139934200Y-77916200D01*
X140735800Y-77916200D01*
X140735800Y-79817800D01*
X140735800Y-79817800D01*
G37*
G36*
X143275800Y-79817800D02*
X142474200Y-79817800D01*
X142474200Y-77916200D01*
X143275800Y-77916200D01*
X143275800Y-79817800D01*
X143275800Y-79817800D01*
G37*
G36*
X133115800Y-79817800D02*
X132314200Y-79817800D01*
X132314200Y-77916200D01*
X133115800Y-77916200D01*
X133115800Y-79817800D01*
X133115800Y-79817800D01*
G37*
G36*
X130575800Y-79817800D02*
X129774200Y-79817800D01*
X129774200Y-77916200D01*
X130575800Y-77916200D01*
X130575800Y-79817800D01*
X130575800Y-79817800D01*
G37*
G36*
X145815800Y-79817800D02*
X145014200Y-79817800D01*
X145014200Y-77916200D01*
X145815800Y-77916200D01*
X145815800Y-79817800D01*
X145815800Y-79817800D01*
G37*
G36*
X134385800Y-79817800D02*
X133584200Y-79817800D01*
X133584200Y-77916200D01*
X134385800Y-77916200D01*
X134385800Y-79817800D01*
X134385800Y-79817800D01*
G37*
G36*
X129305800Y-79817800D02*
X128504200Y-79817800D01*
X128504200Y-77916200D01*
X129305800Y-77916200D01*
X129305800Y-79817800D01*
X129305800Y-79817800D01*
G37*
G36*
X142005800Y-79817800D02*
X141204200Y-79817800D01*
X141204200Y-77916200D01*
X142005800Y-77916200D01*
X142005800Y-79817800D01*
X142005800Y-79817800D01*
G37*
G36*
X131845800Y-79817800D02*
X131044200Y-79817800D01*
X131044200Y-77916200D01*
X131845800Y-77916200D01*
X131845800Y-79817800D01*
X131845800Y-79817800D01*
G37*
G36*
X147085800Y-79817800D02*
X146284200Y-79817800D01*
X146284200Y-77916200D01*
X147085800Y-77916200D01*
X147085800Y-79817800D01*
X147085800Y-79817800D01*
G37*
G36*
X135655800Y-79817800D02*
X134854200Y-79817800D01*
X134854200Y-77916200D01*
X135655800Y-77916200D01*
X135655800Y-79817800D01*
X135655800Y-79817800D01*
G37*
G36*
X148355800Y-79817800D02*
X147554200Y-79817800D01*
X147554200Y-77916200D01*
X148355800Y-77916200D01*
X148355800Y-79817800D01*
X148355800Y-79817800D01*
G37*
G36*
X144545800Y-79817800D02*
X143744200Y-79817800D01*
X143744200Y-77916200D01*
X144545800Y-77916200D01*
X144545800Y-79817800D01*
X144545800Y-79817800D01*
G37*
G36*
X77959840Y-79272360D02*
X76858240Y-79272360D01*
X76858240Y-77770760D01*
X77959840Y-77770760D01*
X77959840Y-79272360D01*
X77959840Y-79272360D01*
G37*
G36*
X73403826Y-77449354D02*
X73392275Y-77470965D01*
X73385162Y-77494414D01*
X73382760Y-77518800D01*
X73382760Y-77645760D01*
X73385162Y-77670146D01*
X73392275Y-77693595D01*
X73403826Y-77715206D01*
X73419372Y-77734148D01*
X73438314Y-77749694D01*
X73459925Y-77761245D01*
X73483374Y-77768358D01*
X73507760Y-77770760D01*
X74657840Y-77770760D01*
X74657840Y-79272360D01*
X73556240Y-79272360D01*
X73556240Y-79072240D01*
X73553838Y-79047854D01*
X73546725Y-79024405D01*
X73535174Y-79002794D01*
X73519628Y-78983852D01*
X73500686Y-78968306D01*
X73479075Y-78956755D01*
X73455626Y-78949642D01*
X73431240Y-78947240D01*
X72281160Y-78947240D01*
X72281160Y-77445640D01*
X73406874Y-77445640D01*
X73403826Y-77449354D01*
X73403826Y-77449354D01*
G37*
G36*
X79862300Y-79272360D02*
X78760700Y-79272360D01*
X78760700Y-77770760D01*
X79862300Y-77770760D01*
X79862300Y-79272360D01*
X79862300Y-79272360D01*
G37*
G36*
X76560300Y-79272360D02*
X75458700Y-79272360D01*
X75458700Y-77770760D01*
X76560300Y-77770760D01*
X76560300Y-79272360D01*
X76560300Y-79272360D01*
G37*
G36*
X160325800Y-79250800D02*
X157474200Y-79250800D01*
X157474200Y-77849200D01*
X160325800Y-77849200D01*
X160325800Y-79250800D01*
X160325800Y-79250800D01*
G37*
G36*
X71480300Y-78947240D02*
X70378700Y-78947240D01*
X70378700Y-77445640D01*
X71480300Y-77445640D01*
X71480300Y-78947240D01*
X71480300Y-78947240D01*
G37*
G36*
X117900800Y-78000800D02*
X115399200Y-78000800D01*
X115399200Y-75299200D01*
X117900800Y-75299200D01*
X117900800Y-78000800D01*
X117900800Y-78000800D01*
G37*
G36*
X89100800Y-78000800D02*
X86599200Y-78000800D01*
X86599200Y-75299200D01*
X89100800Y-75299200D01*
X89100800Y-78000800D01*
X89100800Y-78000800D01*
G37*
G36*
X85521800Y-77520800D02*
X84658200Y-77520800D01*
X84658200Y-76403200D01*
X85521800Y-76403200D01*
X85521800Y-77520800D01*
X85521800Y-77520800D01*
G37*
G36*
X84378800Y-77520800D02*
X83515200Y-77520800D01*
X83515200Y-76403200D01*
X84378800Y-76403200D01*
X84378800Y-77520800D01*
X84378800Y-77520800D01*
G37*
G36*
X83235800Y-77520800D02*
X82372200Y-77520800D01*
X82372200Y-76403200D01*
X83235800Y-76403200D01*
X83235800Y-77520800D01*
X83235800Y-77520800D01*
G37*
G36*
X74726800Y-77393800D02*
X73585086Y-77393800D01*
X73588134Y-77390086D01*
X73599685Y-77368475D01*
X73606798Y-77345026D01*
X73609200Y-77320640D01*
X73609200Y-76276200D01*
X74726800Y-76276200D01*
X74726800Y-77393800D01*
X74726800Y-77393800D01*
G37*
G36*
X76504800Y-77393800D02*
X75387200Y-77393800D01*
X75387200Y-76276200D01*
X76504800Y-76276200D01*
X76504800Y-77393800D01*
X76504800Y-77393800D01*
G37*
G36*
X171039622Y-73721094D02*
X171039624Y-73721095D01*
X171039625Y-73721095D01*
X171163993Y-73772610D01*
X171376304Y-73860552D01*
X171679309Y-74063013D01*
X171936987Y-74320691D01*
X172139448Y-74623696D01*
X172278906Y-74960378D01*
X172350000Y-75317789D01*
X172350000Y-75682211D01*
X172278906Y-76039622D01*
X172139448Y-76376304D01*
X171936987Y-76679309D01*
X171679309Y-76936987D01*
X171376304Y-77139448D01*
X171172189Y-77223995D01*
X171039625Y-77278905D01*
X171039624Y-77278905D01*
X171039622Y-77278906D01*
X170682211Y-77350000D01*
X170317789Y-77350000D01*
X169960378Y-77278906D01*
X169960376Y-77278905D01*
X169960375Y-77278905D01*
X169827811Y-77223995D01*
X169623696Y-77139448D01*
X169320691Y-76936987D01*
X169063013Y-76679309D01*
X168860552Y-76376304D01*
X168721094Y-76039622D01*
X168650000Y-75682211D01*
X168650000Y-75317789D01*
X168721094Y-74960378D01*
X168860552Y-74623696D01*
X169063013Y-74320691D01*
X169320691Y-74063013D01*
X169623696Y-73860552D01*
X169836007Y-73772610D01*
X169960375Y-73721095D01*
X169960376Y-73721095D01*
X169960378Y-73721094D01*
X170317789Y-73650000D01*
X170682211Y-73650000D01*
X171039622Y-73721094D01*
X171039622Y-73721094D01*
G37*
G36*
X147466077Y-76353445D02*
X147557216Y-76391196D01*
X147557218Y-76391197D01*
X147638153Y-76445276D01*
X147639244Y-76446005D01*
X147708995Y-76515756D01*
X147763804Y-76597784D01*
X147801555Y-76688923D01*
X147820800Y-76785674D01*
X147820800Y-76884326D01*
X147801555Y-76981077D01*
X147763804Y-77072216D01*
X147708995Y-77154244D01*
X147639244Y-77223995D01*
X147639241Y-77223997D01*
X147557218Y-77278803D01*
X147557217Y-77278804D01*
X147557216Y-77278804D01*
X147466077Y-77316555D01*
X147369326Y-77335800D01*
X147270674Y-77335800D01*
X147173923Y-77316555D01*
X147082784Y-77278804D01*
X147082783Y-77278804D01*
X147082782Y-77278803D01*
X147000759Y-77223997D01*
X147000756Y-77223995D01*
X146931005Y-77154244D01*
X146876196Y-77072216D01*
X146838445Y-76981077D01*
X146819200Y-76884326D01*
X146819200Y-76785674D01*
X146838445Y-76688923D01*
X146876196Y-76597784D01*
X146931005Y-76515756D01*
X147000756Y-76446005D01*
X147001847Y-76445276D01*
X147082782Y-76391197D01*
X147082784Y-76391196D01*
X147173923Y-76353445D01*
X147270674Y-76334200D01*
X147369326Y-76334200D01*
X147466077Y-76353445D01*
X147466077Y-76353445D01*
G37*
G36*
X124606077Y-76353445D02*
X124697216Y-76391196D01*
X124697218Y-76391197D01*
X124778153Y-76445276D01*
X124779244Y-76446005D01*
X124848995Y-76515756D01*
X124903804Y-76597784D01*
X124941555Y-76688923D01*
X124960800Y-76785674D01*
X124960800Y-76884326D01*
X124941555Y-76981077D01*
X124903804Y-77072216D01*
X124848995Y-77154244D01*
X124779244Y-77223995D01*
X124779241Y-77223997D01*
X124697218Y-77278803D01*
X124697217Y-77278804D01*
X124697216Y-77278804D01*
X124606077Y-77316555D01*
X124509326Y-77335800D01*
X124410674Y-77335800D01*
X124313923Y-77316555D01*
X124222784Y-77278804D01*
X124222783Y-77278804D01*
X124222782Y-77278803D01*
X124140759Y-77223997D01*
X124140756Y-77223995D01*
X124071005Y-77154244D01*
X124016196Y-77072216D01*
X123978445Y-76981077D01*
X123959200Y-76884326D01*
X123959200Y-76785674D01*
X123978445Y-76688923D01*
X124016196Y-76597784D01*
X124071005Y-76515756D01*
X124140756Y-76446005D01*
X124141847Y-76445276D01*
X124222782Y-76391197D01*
X124222784Y-76391196D01*
X124313923Y-76353445D01*
X124410674Y-76334200D01*
X124509326Y-76334200D01*
X124606077Y-76353445D01*
X124606077Y-76353445D01*
G37*
G36*
X79167800Y-77287800D02*
X78566200Y-77287800D01*
X78566200Y-75747200D01*
X79167800Y-75747200D01*
X79167800Y-77287800D01*
X79167800Y-77287800D01*
G37*
G36*
X78151800Y-77287800D02*
X77550200Y-77287800D01*
X77550200Y-75747200D01*
X78151800Y-75747200D01*
X78151800Y-77287800D01*
X78151800Y-77287800D01*
G37*
G36*
X72535954Y-75236798D02*
X72560340Y-75239200D01*
X73198800Y-75239200D01*
X73198800Y-75890800D01*
X72560340Y-75890800D01*
X72535954Y-75893202D01*
X72512505Y-75900315D01*
X72490894Y-75911866D01*
X72471952Y-75927412D01*
X72456406Y-75946354D01*
X72444855Y-75967965D01*
X72437742Y-75991414D01*
X72435340Y-76015800D01*
X72435340Y-76737440D01*
X71333740Y-76737440D01*
X71333740Y-75235840D01*
X72532796Y-75235840D01*
X72535954Y-75236798D01*
X72535954Y-75236798D01*
G37*
G36*
X74214800Y-75890800D02*
X73613200Y-75890800D01*
X73613200Y-75239200D01*
X74214800Y-75239200D01*
X74214800Y-75890800D01*
X74214800Y-75890800D01*
G37*
G36*
X75103800Y-75890800D02*
X74502200Y-75890800D01*
X74502200Y-75239200D01*
X75103800Y-75239200D01*
X75103800Y-75890800D01*
X75103800Y-75890800D01*
G37*
G36*
X76119800Y-75890800D02*
X75518200Y-75890800D01*
X75518200Y-75239200D01*
X76119800Y-75239200D01*
X76119800Y-75890800D01*
X76119800Y-75890800D01*
G37*
G36*
X129305800Y-75753800D02*
X128504200Y-75753800D01*
X128504200Y-73852200D01*
X129305800Y-73852200D01*
X129305800Y-75753800D01*
X129305800Y-75753800D01*
G37*
G36*
X128035800Y-75753800D02*
X127234200Y-75753800D01*
X127234200Y-73852200D01*
X128035800Y-73852200D01*
X128035800Y-75753800D01*
X128035800Y-75753800D01*
G37*
G36*
X126765800Y-75753800D02*
X125964200Y-75753800D01*
X125964200Y-73852200D01*
X126765800Y-73852200D01*
X126765800Y-75753800D01*
X126765800Y-75753800D01*
G37*
G36*
X125495800Y-75753800D02*
X124694200Y-75753800D01*
X124694200Y-73852200D01*
X125495800Y-73852200D01*
X125495800Y-75753800D01*
X125495800Y-75753800D01*
G37*
G36*
X124225800Y-75753800D02*
X123424200Y-75753800D01*
X123424200Y-73852200D01*
X124225800Y-73852200D01*
X124225800Y-75753800D01*
X124225800Y-75753800D01*
G37*
G36*
X148355800Y-75753800D02*
X147554200Y-75753800D01*
X147554200Y-73852200D01*
X148355800Y-73852200D01*
X148355800Y-75753800D01*
X148355800Y-75753800D01*
G37*
G36*
X144545800Y-75753800D02*
X143744200Y-75753800D01*
X143744200Y-73852200D01*
X144545800Y-73852200D01*
X144545800Y-75753800D01*
X144545800Y-75753800D01*
G37*
G36*
X143275800Y-75753800D02*
X142474200Y-75753800D01*
X142474200Y-73852200D01*
X143275800Y-73852200D01*
X143275800Y-75753800D01*
X143275800Y-75753800D01*
G37*
G36*
X145815800Y-75753800D02*
X145014200Y-75753800D01*
X145014200Y-73852200D01*
X145815800Y-73852200D01*
X145815800Y-75753800D01*
X145815800Y-75753800D01*
G37*
G36*
X147085800Y-75753800D02*
X146284200Y-75753800D01*
X146284200Y-73852200D01*
X147085800Y-73852200D01*
X147085800Y-75753800D01*
X147085800Y-75753800D01*
G37*
G36*
X133115800Y-75753800D02*
X132314200Y-75753800D01*
X132314200Y-73852200D01*
X133115800Y-73852200D01*
X133115800Y-75753800D01*
X133115800Y-75753800D01*
G37*
G36*
X134385800Y-75753800D02*
X133584200Y-75753800D01*
X133584200Y-73852200D01*
X134385800Y-73852200D01*
X134385800Y-75753800D01*
X134385800Y-75753800D01*
G37*
G36*
X135655800Y-75753800D02*
X134854200Y-75753800D01*
X134854200Y-73852200D01*
X135655800Y-73852200D01*
X135655800Y-75753800D01*
X135655800Y-75753800D01*
G37*
G36*
X136925800Y-75753800D02*
X136124200Y-75753800D01*
X136124200Y-73852200D01*
X136925800Y-73852200D01*
X136925800Y-75753800D01*
X136925800Y-75753800D01*
G37*
G36*
X131845800Y-75753800D02*
X131044200Y-75753800D01*
X131044200Y-73852200D01*
X131845800Y-73852200D01*
X131845800Y-75753800D01*
X131845800Y-75753800D01*
G37*
G36*
X138195800Y-75753800D02*
X137394200Y-75753800D01*
X137394200Y-73852200D01*
X138195800Y-73852200D01*
X138195800Y-75753800D01*
X138195800Y-75753800D01*
G37*
G36*
X139465800Y-75753800D02*
X138664200Y-75753800D01*
X138664200Y-73852200D01*
X139465800Y-73852200D01*
X139465800Y-75753800D01*
X139465800Y-75753800D01*
G37*
G36*
X140735800Y-75753800D02*
X139934200Y-75753800D01*
X139934200Y-73852200D01*
X140735800Y-73852200D01*
X140735800Y-75753800D01*
X140735800Y-75753800D01*
G37*
G36*
X142005800Y-75753800D02*
X141204200Y-75753800D01*
X141204200Y-73852200D01*
X142005800Y-73852200D01*
X142005800Y-75753800D01*
X142005800Y-75753800D01*
G37*
G36*
X130575800Y-75753800D02*
X129774200Y-75753800D01*
X129774200Y-73852200D01*
X130575800Y-73852200D01*
X130575800Y-75753800D01*
X130575800Y-75753800D01*
G37*
G36*
X114675800Y-75250800D02*
X89824200Y-75250800D01*
X89824200Y-73849200D01*
X114675800Y-73849200D01*
X114675800Y-75250800D01*
X114675800Y-75250800D01*
G37*
G36*
X85278800Y-73576800D02*
X82177200Y-73576800D01*
X82177200Y-70475200D01*
X85278800Y-70475200D01*
X85278800Y-73576800D01*
X85278800Y-73576800D01*
G37*
G36*
X73778800Y-73576800D02*
X70677200Y-73576800D01*
X70677200Y-70475200D01*
X73778800Y-70475200D01*
X73778800Y-73576800D01*
X73778800Y-73576800D01*
G37*
G36*
X91236800Y-73202800D02*
X90119200Y-73202800D01*
X90119200Y-72085200D01*
X91236800Y-72085200D01*
X91236800Y-73202800D01*
X91236800Y-73202800D01*
G37*
G36*
X89458800Y-73202800D02*
X88341200Y-73202800D01*
X88341200Y-72085200D01*
X89458800Y-72085200D01*
X89458800Y-73202800D01*
X89458800Y-73202800D01*
G37*
G36*
X113863800Y-73071800D02*
X112323200Y-73071800D01*
X112323200Y-72470200D01*
X113863800Y-72470200D01*
X113863800Y-73071800D01*
X113863800Y-73071800D01*
G37*
G36*
X111704800Y-73071800D02*
X110164200Y-73071800D01*
X110164200Y-72470200D01*
X111704800Y-72470200D01*
X111704800Y-73071800D01*
X111704800Y-73071800D01*
G37*
G36*
X92121800Y-72969800D02*
X91520200Y-72969800D01*
X91520200Y-70540200D01*
X92121800Y-70540200D01*
X92121800Y-72969800D01*
X92121800Y-72969800D01*
G37*
G36*
X93137800Y-72969800D02*
X92536200Y-72969800D01*
X92536200Y-70540200D01*
X93137800Y-70540200D01*
X93137800Y-72969800D01*
X93137800Y-72969800D01*
G37*
G36*
X113863800Y-72055800D02*
X112323200Y-72055800D01*
X112323200Y-71454200D01*
X113863800Y-71454200D01*
X113863800Y-72055800D01*
X113863800Y-72055800D01*
G37*
G36*
X111704800Y-72055800D02*
X110164200Y-72055800D01*
X110164200Y-71454200D01*
X111704800Y-71454200D01*
X111704800Y-72055800D01*
X111704800Y-72055800D01*
G37*
G36*
X123105800Y-71975800D02*
X122004200Y-71975800D01*
X122004200Y-67624200D01*
X123105800Y-67624200D01*
X123105800Y-71975800D01*
X123105800Y-71975800D01*
G37*
G36*
X125645800Y-71975800D02*
X124544200Y-71975800D01*
X124544200Y-67624200D01*
X125645800Y-67624200D01*
X125645800Y-71975800D01*
X125645800Y-71975800D01*
G37*
G36*
X128185800Y-71975800D02*
X127084200Y-71975800D01*
X127084200Y-67624200D01*
X128185800Y-67624200D01*
X128185800Y-71975800D01*
X128185800Y-71975800D01*
G37*
G36*
X130725800Y-71975800D02*
X129624200Y-71975800D01*
X129624200Y-67624200D01*
X130725800Y-67624200D01*
X130725800Y-71975800D01*
X130725800Y-71975800D01*
G37*
G36*
X133265800Y-71975800D02*
X132164200Y-71975800D01*
X132164200Y-67624200D01*
X133265800Y-67624200D01*
X133265800Y-71975800D01*
X133265800Y-71975800D01*
G37*
G36*
X161205800Y-71975800D02*
X160104200Y-71975800D01*
X160104200Y-67624200D01*
X161205800Y-67624200D01*
X161205800Y-71975800D01*
X161205800Y-71975800D01*
G37*
G36*
X135805800Y-71975800D02*
X134704200Y-71975800D01*
X134704200Y-67624200D01*
X135805800Y-67624200D01*
X135805800Y-71975800D01*
X135805800Y-71975800D01*
G37*
G36*
X140885800Y-71975800D02*
X139784200Y-71975800D01*
X139784200Y-67624200D01*
X140885800Y-67624200D01*
X140885800Y-71975800D01*
X140885800Y-71975800D01*
G37*
G36*
X143425800Y-71975800D02*
X142324200Y-71975800D01*
X142324200Y-67624200D01*
X143425800Y-67624200D01*
X143425800Y-71975800D01*
X143425800Y-71975800D01*
G37*
G36*
X120565800Y-71975800D02*
X119464200Y-71975800D01*
X119464200Y-67624200D01*
X120565800Y-67624200D01*
X120565800Y-71975800D01*
X120565800Y-71975800D01*
G37*
G36*
X151045800Y-71975800D02*
X149944200Y-71975800D01*
X149944200Y-67624200D01*
X151045800Y-67624200D01*
X151045800Y-71975800D01*
X151045800Y-71975800D01*
G37*
G36*
X153585800Y-71975800D02*
X152484200Y-71975800D01*
X152484200Y-67624200D01*
X153585800Y-67624200D01*
X153585800Y-71975800D01*
X153585800Y-71975800D01*
G37*
G36*
X156125800Y-71975800D02*
X155024200Y-71975800D01*
X155024200Y-67624200D01*
X156125800Y-67624200D01*
X156125800Y-71975800D01*
X156125800Y-71975800D01*
G37*
G36*
X158665800Y-71975800D02*
X157564200Y-71975800D01*
X157564200Y-67624200D01*
X158665800Y-67624200D01*
X158665800Y-71975800D01*
X158665800Y-71975800D01*
G37*
G36*
X145965800Y-71975800D02*
X144864200Y-71975800D01*
X144864200Y-67624200D01*
X145965800Y-67624200D01*
X145965800Y-71975800D01*
X145965800Y-71975800D01*
G37*
G36*
X166285800Y-71975800D02*
X165184200Y-71975800D01*
X165184200Y-67624200D01*
X166285800Y-67624200D01*
X166285800Y-71975800D01*
X166285800Y-71975800D01*
G37*
G36*
X168825800Y-71975800D02*
X167724200Y-71975800D01*
X167724200Y-67624200D01*
X168825800Y-67624200D01*
X168825800Y-71975800D01*
X168825800Y-71975800D01*
G37*
G36*
X138345800Y-71975800D02*
X137244200Y-71975800D01*
X137244200Y-67624200D01*
X138345800Y-67624200D01*
X138345800Y-71975800D01*
X138345800Y-71975800D01*
G37*
G36*
X163745800Y-71975800D02*
X162644200Y-71975800D01*
X162644200Y-67624200D01*
X163745800Y-67624200D01*
X163745800Y-71975800D01*
X163745800Y-71975800D01*
G37*
G36*
X148505800Y-71975800D02*
X147404200Y-71975800D01*
X147404200Y-67624200D01*
X148505800Y-67624200D01*
X148505800Y-71975800D01*
X148505800Y-71975800D01*
G37*
G36*
X91105800Y-71699800D02*
X90504200Y-71699800D01*
X90504200Y-70159200D01*
X91105800Y-70159200D01*
X91105800Y-71699800D01*
X91105800Y-71699800D01*
G37*
G36*
X90089800Y-71699800D02*
X89488200Y-71699800D01*
X89488200Y-70159200D01*
X90089800Y-70159200D01*
X90089800Y-71699800D01*
X90089800Y-71699800D01*
G37*
G36*
X78255338Y-69611738D02*
X78428373Y-69683412D01*
X78584100Y-69787465D01*
X78716535Y-69919900D01*
X78820588Y-70075627D01*
X78892262Y-70248662D01*
X78928800Y-70432354D01*
X78928800Y-70619646D01*
X78892262Y-70803338D01*
X78820588Y-70976373D01*
X78716535Y-71132100D01*
X78584100Y-71264535D01*
X78428373Y-71368588D01*
X78255338Y-71440262D01*
X78071646Y-71476800D01*
X77884354Y-71476800D01*
X77700662Y-71440262D01*
X77527627Y-71368588D01*
X77371900Y-71264535D01*
X77239465Y-71132100D01*
X77135412Y-70976373D01*
X77063738Y-70803338D01*
X77027200Y-70619646D01*
X77027200Y-70432354D01*
X77063738Y-70248662D01*
X77135412Y-70075627D01*
X77239465Y-69919900D01*
X77371900Y-69787465D01*
X77527627Y-69683412D01*
X77700662Y-69611738D01*
X77884354Y-69575200D01*
X78071646Y-69575200D01*
X78255338Y-69611738D01*
X78255338Y-69611738D01*
G37*
G36*
X110425800Y-67866800D02*
X90574200Y-67866800D01*
X90574200Y-66465200D01*
X110425800Y-66465200D01*
X110425800Y-67866800D01*
X110425800Y-67866800D01*
G37*
G36*
X85278800Y-67576800D02*
X82177200Y-67576800D01*
X82177200Y-64475200D01*
X85278800Y-64475200D01*
X85278800Y-67576800D01*
X85278800Y-67576800D01*
G37*
G36*
X73778800Y-67576800D02*
X70677200Y-67576800D01*
X70677200Y-64475200D01*
X73778800Y-64475200D01*
X73778800Y-67576800D01*
X73778800Y-67576800D01*
G37*
G36*
X167194829Y-66049209D02*
X167194832Y-66049210D01*
X167194831Y-66049210D01*
X167313269Y-66098268D01*
X167330523Y-66109797D01*
X167419864Y-66169493D01*
X167510507Y-66260136D01*
X167510509Y-66260139D01*
X167581732Y-66366731D01*
X167602471Y-66416800D01*
X167630791Y-66485171D01*
X167655800Y-66610900D01*
X167655800Y-66739100D01*
X167630791Y-66864829D01*
X167630790Y-66864831D01*
X167581732Y-66983269D01*
X167581731Y-66983270D01*
X167510507Y-67089864D01*
X167419864Y-67180507D01*
X167419861Y-67180509D01*
X167313269Y-67251732D01*
X167221662Y-67289676D01*
X167194829Y-67300791D01*
X167069100Y-67325800D01*
X166940900Y-67325800D01*
X166815171Y-67300791D01*
X166788338Y-67289676D01*
X166696731Y-67251732D01*
X166590139Y-67180509D01*
X166590136Y-67180507D01*
X166499493Y-67089864D01*
X166428269Y-66983270D01*
X166428268Y-66983269D01*
X166379210Y-66864831D01*
X166379209Y-66864829D01*
X166354200Y-66739100D01*
X166354200Y-66610900D01*
X166379209Y-66485171D01*
X166407529Y-66416800D01*
X166428268Y-66366731D01*
X166499491Y-66260139D01*
X166499493Y-66260136D01*
X166590136Y-66169493D01*
X166679477Y-66109797D01*
X166696731Y-66098268D01*
X166815169Y-66049210D01*
X166815168Y-66049210D01*
X166815171Y-66049209D01*
X166940900Y-66024200D01*
X167069100Y-66024200D01*
X167194829Y-66049209D01*
X167194829Y-66049209D01*
G37*
G36*
X121474829Y-66049209D02*
X121474832Y-66049210D01*
X121474831Y-66049210D01*
X121593269Y-66098268D01*
X121610523Y-66109797D01*
X121699864Y-66169493D01*
X121790507Y-66260136D01*
X121790509Y-66260139D01*
X121861732Y-66366731D01*
X121882471Y-66416800D01*
X121910791Y-66485171D01*
X121935800Y-66610900D01*
X121935800Y-66739100D01*
X121910791Y-66864829D01*
X121910790Y-66864831D01*
X121861732Y-66983269D01*
X121861731Y-66983270D01*
X121790507Y-67089864D01*
X121699864Y-67180507D01*
X121699861Y-67180509D01*
X121593269Y-67251732D01*
X121501662Y-67289676D01*
X121474829Y-67300791D01*
X121349100Y-67325800D01*
X121220900Y-67325800D01*
X121095171Y-67300791D01*
X121068338Y-67289676D01*
X120976731Y-67251732D01*
X120870139Y-67180509D01*
X120870136Y-67180507D01*
X120779493Y-67089864D01*
X120708269Y-66983270D01*
X120708268Y-66983269D01*
X120659210Y-66864831D01*
X120659209Y-66864829D01*
X120634200Y-66739100D01*
X120634200Y-66610900D01*
X120659209Y-66485171D01*
X120687529Y-66416800D01*
X120708268Y-66366731D01*
X120779491Y-66260139D01*
X120779493Y-66260136D01*
X120870136Y-66169493D01*
X120959477Y-66109797D01*
X120976731Y-66098268D01*
X121095169Y-66049210D01*
X121095168Y-66049210D01*
X121095171Y-66049209D01*
X121220900Y-66024200D01*
X121349100Y-66024200D01*
X121474829Y-66049209D01*
X121474829Y-66049209D01*
G37*
G36*
X78226169Y-65207895D02*
X78381005Y-65272031D01*
X78520354Y-65365140D01*
X78638860Y-65483646D01*
X78731969Y-65622995D01*
X78796105Y-65777831D01*
X78828800Y-65942203D01*
X78828800Y-66109797D01*
X78796105Y-66274169D01*
X78731969Y-66429005D01*
X78638860Y-66568354D01*
X78520354Y-66686860D01*
X78381005Y-66779969D01*
X78226169Y-66844105D01*
X78061797Y-66876800D01*
X77894203Y-66876800D01*
X77729831Y-66844105D01*
X77574995Y-66779969D01*
X77435646Y-66686860D01*
X77317140Y-66568354D01*
X77224031Y-66429005D01*
X77159895Y-66274169D01*
X77127200Y-66109797D01*
X77127200Y-65942203D01*
X77159895Y-65777831D01*
X77224031Y-65622995D01*
X77317140Y-65483646D01*
X77435646Y-65365140D01*
X77574995Y-65272031D01*
X77729831Y-65207895D01*
X77894203Y-65175200D01*
X78061797Y-65175200D01*
X78226169Y-65207895D01*
X78226169Y-65207895D01*
G37*
G36*
X89850800Y-66416800D02*
X87349200Y-66416800D01*
X87349200Y-63715200D01*
X89850800Y-63715200D01*
X89850800Y-66416800D01*
X89850800Y-66416800D01*
G37*
G36*
X113650800Y-66416800D02*
X111149200Y-66416800D01*
X111149200Y-63715200D01*
X113650800Y-63715200D01*
X113650800Y-66416800D01*
X113650800Y-66416800D01*
G37*
G36*
X138345800Y-65725800D02*
X137244200Y-65725800D01*
X137244200Y-61374200D01*
X138345800Y-61374200D01*
X138345800Y-65725800D01*
X138345800Y-65725800D01*
G37*
G36*
X161205800Y-65725800D02*
X160104200Y-65725800D01*
X160104200Y-61374200D01*
X161205800Y-61374200D01*
X161205800Y-65725800D01*
X161205800Y-65725800D01*
G37*
G36*
X158665800Y-65725800D02*
X157564200Y-65725800D01*
X157564200Y-61374200D01*
X158665800Y-61374200D01*
X158665800Y-65725800D01*
X158665800Y-65725800D01*
G37*
G36*
X163745800Y-65725800D02*
X162644200Y-65725800D01*
X162644200Y-61374200D01*
X163745800Y-61374200D01*
X163745800Y-65725800D01*
X163745800Y-65725800D01*
G37*
G36*
X166285800Y-65725800D02*
X165184200Y-65725800D01*
X165184200Y-61374200D01*
X166285800Y-61374200D01*
X166285800Y-65725800D01*
X166285800Y-65725800D01*
G37*
G36*
X153585800Y-65725800D02*
X152484200Y-65725800D01*
X152484200Y-61374200D01*
X153585800Y-61374200D01*
X153585800Y-65725800D01*
X153585800Y-65725800D01*
G37*
G36*
X168825800Y-65725800D02*
X167724200Y-65725800D01*
X167724200Y-61374200D01*
X168825800Y-61374200D01*
X168825800Y-65725800D01*
X168825800Y-65725800D01*
G37*
G36*
X151045800Y-65725800D02*
X149944200Y-65725800D01*
X149944200Y-61374200D01*
X151045800Y-61374200D01*
X151045800Y-65725800D01*
X151045800Y-65725800D01*
G37*
G36*
X156125800Y-65725800D02*
X155024200Y-65725800D01*
X155024200Y-61374200D01*
X156125800Y-61374200D01*
X156125800Y-65725800D01*
X156125800Y-65725800D01*
G37*
G36*
X125645800Y-65725800D02*
X124544200Y-65725800D01*
X124544200Y-61374200D01*
X125645800Y-61374200D01*
X125645800Y-65725800D01*
X125645800Y-65725800D01*
G37*
G36*
X128185800Y-65725800D02*
X127084200Y-65725800D01*
X127084200Y-61374200D01*
X128185800Y-61374200D01*
X128185800Y-65725800D01*
X128185800Y-65725800D01*
G37*
G36*
X130725800Y-65725800D02*
X129624200Y-65725800D01*
X129624200Y-61374200D01*
X130725800Y-61374200D01*
X130725800Y-65725800D01*
X130725800Y-65725800D01*
G37*
G36*
X123105800Y-65725800D02*
X122004200Y-65725800D01*
X122004200Y-61374200D01*
X123105800Y-61374200D01*
X123105800Y-65725800D01*
X123105800Y-65725800D01*
G37*
G36*
X120565800Y-65725800D02*
X119464200Y-65725800D01*
X119464200Y-61374200D01*
X120565800Y-61374200D01*
X120565800Y-65725800D01*
X120565800Y-65725800D01*
G37*
G36*
X140885800Y-65725800D02*
X139784200Y-65725800D01*
X139784200Y-61374200D01*
X140885800Y-61374200D01*
X140885800Y-65725800D01*
X140885800Y-65725800D01*
G37*
G36*
X143425800Y-65725800D02*
X142324200Y-65725800D01*
X142324200Y-61374200D01*
X143425800Y-61374200D01*
X143425800Y-65725800D01*
X143425800Y-65725800D01*
G37*
G36*
X145965800Y-65725800D02*
X144864200Y-65725800D01*
X144864200Y-61374200D01*
X145965800Y-61374200D01*
X145965800Y-65725800D01*
X145965800Y-65725800D01*
G37*
G36*
X148505800Y-65725800D02*
X147404200Y-65725800D01*
X147404200Y-61374200D01*
X148505800Y-61374200D01*
X148505800Y-65725800D01*
X148505800Y-65725800D01*
G37*
G36*
X133265800Y-65725800D02*
X132164200Y-65725800D01*
X132164200Y-61374200D01*
X133265800Y-61374200D01*
X133265800Y-65725800D01*
X133265800Y-65725800D01*
G37*
G36*
X135805800Y-65725800D02*
X134704200Y-65725800D01*
X134704200Y-61374200D01*
X135805800Y-61374200D01*
X135805800Y-65725800D01*
X135805800Y-65725800D01*
G37*
G36*
X71682889Y-61397095D02*
X71796996Y-61444359D01*
X71899692Y-61512979D01*
X71987021Y-61600308D01*
X72055641Y-61703004D01*
X72102905Y-61817111D01*
X72127000Y-61938244D01*
X72127000Y-62061756D01*
X72102905Y-62182889D01*
X72055641Y-62296996D01*
X71987021Y-62399692D01*
X71899692Y-62487021D01*
X71796996Y-62555641D01*
X71682889Y-62602905D01*
X71561756Y-62627000D01*
X71438244Y-62627000D01*
X71317111Y-62602905D01*
X71203004Y-62555641D01*
X71100308Y-62487021D01*
X71012979Y-62399692D01*
X70944359Y-62296996D01*
X70897095Y-62182889D01*
X70873000Y-62061756D01*
X70873000Y-61938244D01*
X70897095Y-61817111D01*
X70944359Y-61703004D01*
X71012979Y-61600308D01*
X71100308Y-61512979D01*
X71203004Y-61444359D01*
X71317111Y-61397095D01*
X71438244Y-61373000D01*
X71561756Y-61373000D01*
X71682889Y-61397095D01*
X71682889Y-61397095D01*
G37*
M02*
